<?xml version="1.0" encoding="utf-8" standalone="no"?>
<!DOCTYPE svg PUBLIC "-//W3C//DTD SVG 1.1//EN"
  "http://www.w3.org/Graphics/SVG/1.1/DTD/svg11.dtd">
<svg xmlns:xlink="http://www.w3.org/1999/xlink" width="348.48pt" height="276.48pt" viewBox="0 0 348.48 276.48" xmlns="http://www.w3.org/2000/svg" version="1.1">
 <metadata>
  <rdf:RDF xmlns:dc="http://purl.org/dc/elements/1.1/" xmlns:cc="http://creativecommons.org/ns#" xmlns:rdf="http://www.w3.org/1999/02/22-rdf-syntax-ns#">
   <cc:Work>
    <dc:type rdf:resource="http://purl.org/dc/dcmitype/StillImage"/>
    <dc:date>2022-09-09T18:35:54.116695</dc:date>
    <dc:format>image/svg+xml</dc:format>
    <dc:creator>
     <cc:Agent>
      <dc:title>Matplotlib v3.5.3, https://matplotlib.org/</dc:title>
     </cc:Agent>
    </dc:creator>
   </cc:Work>
  </rdf:RDF>
 </metadata>
 <defs>
  <style type="text/css">*{stroke-linejoin: round; stroke-linecap: butt}</style>
 </defs>
 <g id="figure_1">
  <g id="patch_1">
   <path d="M 0 276.48 
L 348.48 276.48 
L 348.48 0 
L 0 0 
z
" style="fill: #ffffff"/>
  </g>
  <g id="axes_1">
   <g id="patch_2">
    <path d="M 49.3975 234.5525 
L 341.28 234.5525 
L 341.28 11.759062 
L 49.3975 11.759062 
z
" style="fill: #ffffff"/>
   </g>
   <g id="matplotlib.axis_1">
    <g id="xtick_1">
     <g id="line2d_1">
      <defs>
       <path id="mb7426963db" d="M 0 0 
L 0 -6 
" style="stroke: #000000; stroke-width: 2"/>
      </defs>
      <g>
       <use xlink:href="#mb7426963db" x="62.664886" y="234.5525" style="fill: #ffffff; stroke: #000000; stroke-width: 2"/>
      </g>
     </g>
     <g id="line2d_2">
      <defs>
       <path id="m62e5f91607" d="M 0 0 
L 0 6 
" style="stroke: #000000; stroke-width: 2"/>
      </defs>
      <g>
       <use xlink:href="#m62e5f91607" x="62.664886" y="11.759062" style="fill: #ffffff; stroke: #000000; stroke-width: 2"/>
      </g>
     </g>
     <g id="text_1">
      <!-- 0 -->
      <g transform="translate(58.847386 247.170625)scale(0.12 -0.12)">
       <defs>
        <path id="DejaVuSans-30" d="M 2034 4250 
Q 1547 4250 1301 3770 
Q 1056 3291 1056 2328 
Q 1056 1369 1301 889 
Q 1547 409 2034 409 
Q 2525 409 2770 889 
Q 3016 1369 3016 2328 
Q 3016 3291 2770 3770 
Q 2525 4250 2034 4250 
z
M 2034 4750 
Q 2819 4750 3233 4129 
Q 3647 3509 3647 2328 
Q 3647 1150 3233 529 
Q 2819 -91 2034 -91 
Q 1250 -91 836 529 
Q 422 1150 422 2328 
Q 422 3509 836 4129 
Q 1250 4750 2034 4750 
z
" transform="scale(0.015625)"/>
       </defs>
       <use xlink:href="#DejaVuSans-30"/>
      </g>
     </g>
    </g>
    <g id="xtick_2">
     <g id="line2d_3">
      <g>
       <use xlink:href="#mb7426963db" x="118.882625" y="234.5525" style="fill: #ffffff; stroke: #000000; stroke-width: 2"/>
      </g>
     </g>
     <g id="line2d_4">
      <g>
       <use xlink:href="#m62e5f91607" x="118.882625" y="11.759062" style="fill: #ffffff; stroke: #000000; stroke-width: 2"/>
      </g>
     </g>
     <g id="text_2">
      <!-- 500 -->
      <g transform="translate(107.430125 247.170625)scale(0.12 -0.12)">
       <defs>
        <path id="DejaVuSans-35" d="M 691 4666 
L 3169 4666 
L 3169 4134 
L 1269 4134 
L 1269 2991 
Q 1406 3038 1543 3061 
Q 1681 3084 1819 3084 
Q 2600 3084 3056 2656 
Q 3513 2228 3513 1497 
Q 3513 744 3044 326 
Q 2575 -91 1722 -91 
Q 1428 -91 1123 -41 
Q 819 9 494 109 
L 494 744 
Q 775 591 1075 516 
Q 1375 441 1709 441 
Q 2250 441 2565 725 
Q 2881 1009 2881 1497 
Q 2881 1984 2565 2268 
Q 2250 2553 1709 2553 
Q 1456 2553 1204 2497 
Q 953 2441 691 2322 
L 691 4666 
z
" transform="scale(0.015625)"/>
       </defs>
       <use xlink:href="#DejaVuSans-35"/>
       <use xlink:href="#DejaVuSans-30" x="63.623047"/>
       <use xlink:href="#DejaVuSans-30" x="127.246094"/>
      </g>
     </g>
    </g>
    <g id="xtick_3">
     <g id="line2d_5">
      <g>
       <use xlink:href="#mb7426963db" x="175.100364" y="234.5525" style="fill: #ffffff; stroke: #000000; stroke-width: 2"/>
      </g>
     </g>
     <g id="line2d_6">
      <g>
       <use xlink:href="#m62e5f91607" x="175.100364" y="11.759062" style="fill: #ffffff; stroke: #000000; stroke-width: 2"/>
      </g>
     </g>
     <g id="text_3">
      <!-- 1000 -->
      <g transform="translate(159.830364 247.170625)scale(0.12 -0.12)">
       <defs>
        <path id="DejaVuSans-31" d="M 794 531 
L 1825 531 
L 1825 4091 
L 703 3866 
L 703 4441 
L 1819 4666 
L 2450 4666 
L 2450 531 
L 3481 531 
L 3481 0 
L 794 0 
L 794 531 
z
" transform="scale(0.015625)"/>
       </defs>
       <use xlink:href="#DejaVuSans-31"/>
       <use xlink:href="#DejaVuSans-30" x="63.623047"/>
       <use xlink:href="#DejaVuSans-30" x="127.246094"/>
       <use xlink:href="#DejaVuSans-30" x="190.869141"/>
      </g>
     </g>
    </g>
    <g id="xtick_4">
     <g id="line2d_7">
      <g>
       <use xlink:href="#mb7426963db" x="231.318103" y="234.5525" style="fill: #ffffff; stroke: #000000; stroke-width: 2"/>
      </g>
     </g>
     <g id="line2d_8">
      <g>
       <use xlink:href="#m62e5f91607" x="231.318103" y="11.759062" style="fill: #ffffff; stroke: #000000; stroke-width: 2"/>
      </g>
     </g>
     <g id="text_4">
      <!-- 1500 -->
      <g transform="translate(216.048103 247.170625)scale(0.12 -0.12)">
       <use xlink:href="#DejaVuSans-31"/>
       <use xlink:href="#DejaVuSans-35" x="63.623047"/>
       <use xlink:href="#DejaVuSans-30" x="127.246094"/>
       <use xlink:href="#DejaVuSans-30" x="190.869141"/>
      </g>
     </g>
    </g>
    <g id="xtick_5">
     <g id="line2d_9">
      <g>
       <use xlink:href="#mb7426963db" x="287.535842" y="234.5525" style="fill: #ffffff; stroke: #000000; stroke-width: 2"/>
      </g>
     </g>
     <g id="line2d_10">
      <g>
       <use xlink:href="#m62e5f91607" x="287.535842" y="11.759062" style="fill: #ffffff; stroke: #000000; stroke-width: 2"/>
      </g>
     </g>
     <g id="text_5">
      <!-- 2000 -->
      <g transform="translate(272.265842 247.170625)scale(0.12 -0.12)">
       <defs>
        <path id="DejaVuSans-32" d="M 1228 531 
L 3431 531 
L 3431 0 
L 469 0 
L 469 531 
Q 828 903 1448 1529 
Q 2069 2156 2228 2338 
Q 2531 2678 2651 2914 
Q 2772 3150 2772 3378 
Q 2772 3750 2511 3984 
Q 2250 4219 1831 4219 
Q 1534 4219 1204 4116 
Q 875 4013 500 3803 
L 500 4441 
Q 881 4594 1212 4672 
Q 1544 4750 1819 4750 
Q 2544 4750 2975 4387 
Q 3406 4025 3406 3419 
Q 3406 3131 3298 2873 
Q 3191 2616 2906 2266 
Q 2828 2175 2409 1742 
Q 1991 1309 1228 531 
z
" transform="scale(0.015625)"/>
       </defs>
       <use xlink:href="#DejaVuSans-32"/>
       <use xlink:href="#DejaVuSans-30" x="63.623047"/>
       <use xlink:href="#DejaVuSans-30" x="127.246094"/>
       <use xlink:href="#DejaVuSans-30" x="190.869141"/>
      </g>
     </g>
    </g>
    <g id="text_6">
     <!-- Position of slice along given axis -->
     <g transform="translate(98.045 266.784375)scale(0.12 -0.12)">
      <defs>
       <path id="DejaVuSans-50" d="M 1259 4147 
L 1259 2394 
L 2053 2394 
Q 2494 2394 2734 2622 
Q 2975 2850 2975 3272 
Q 2975 3691 2734 3919 
Q 2494 4147 2053 4147 
L 1259 4147 
z
M 628 4666 
L 2053 4666 
Q 2838 4666 3239 4311 
Q 3641 3956 3641 3272 
Q 3641 2581 3239 2228 
Q 2838 1875 2053 1875 
L 1259 1875 
L 1259 0 
L 628 0 
L 628 4666 
z
" transform="scale(0.015625)"/>
       <path id="DejaVuSans-6f" d="M 1959 3097 
Q 1497 3097 1228 2736 
Q 959 2375 959 1747 
Q 959 1119 1226 758 
Q 1494 397 1959 397 
Q 2419 397 2687 759 
Q 2956 1122 2956 1747 
Q 2956 2369 2687 2733 
Q 2419 3097 1959 3097 
z
M 1959 3584 
Q 2709 3584 3137 3096 
Q 3566 2609 3566 1747 
Q 3566 888 3137 398 
Q 2709 -91 1959 -91 
Q 1206 -91 779 398 
Q 353 888 353 1747 
Q 353 2609 779 3096 
Q 1206 3584 1959 3584 
z
" transform="scale(0.015625)"/>
       <path id="DejaVuSans-73" d="M 2834 3397 
L 2834 2853 
Q 2591 2978 2328 3040 
Q 2066 3103 1784 3103 
Q 1356 3103 1142 2972 
Q 928 2841 928 2578 
Q 928 2378 1081 2264 
Q 1234 2150 1697 2047 
L 1894 2003 
Q 2506 1872 2764 1633 
Q 3022 1394 3022 966 
Q 3022 478 2636 193 
Q 2250 -91 1575 -91 
Q 1294 -91 989 -36 
Q 684 19 347 128 
L 347 722 
Q 666 556 975 473 
Q 1284 391 1588 391 
Q 1994 391 2212 530 
Q 2431 669 2431 922 
Q 2431 1156 2273 1281 
Q 2116 1406 1581 1522 
L 1381 1569 
Q 847 1681 609 1914 
Q 372 2147 372 2553 
Q 372 3047 722 3315 
Q 1072 3584 1716 3584 
Q 2034 3584 2315 3537 
Q 2597 3491 2834 3397 
z
" transform="scale(0.015625)"/>
       <path id="DejaVuSans-69" d="M 603 3500 
L 1178 3500 
L 1178 0 
L 603 0 
L 603 3500 
z
M 603 4863 
L 1178 4863 
L 1178 4134 
L 603 4134 
L 603 4863 
z
" transform="scale(0.015625)"/>
       <path id="DejaVuSans-74" d="M 1172 4494 
L 1172 3500 
L 2356 3500 
L 2356 3053 
L 1172 3053 
L 1172 1153 
Q 1172 725 1289 603 
Q 1406 481 1766 481 
L 2356 481 
L 2356 0 
L 1766 0 
Q 1100 0 847 248 
Q 594 497 594 1153 
L 594 3053 
L 172 3053 
L 172 3500 
L 594 3500 
L 594 4494 
L 1172 4494 
z
" transform="scale(0.015625)"/>
       <path id="DejaVuSans-6e" d="M 3513 2113 
L 3513 0 
L 2938 0 
L 2938 2094 
Q 2938 2591 2744 2837 
Q 2550 3084 2163 3084 
Q 1697 3084 1428 2787 
Q 1159 2491 1159 1978 
L 1159 0 
L 581 0 
L 581 3500 
L 1159 3500 
L 1159 2956 
Q 1366 3272 1645 3428 
Q 1925 3584 2291 3584 
Q 2894 3584 3203 3211 
Q 3513 2838 3513 2113 
z
" transform="scale(0.015625)"/>
       <path id="DejaVuSans-20" transform="scale(0.015625)"/>
       <path id="DejaVuSans-66" d="M 2375 4863 
L 2375 4384 
L 1825 4384 
Q 1516 4384 1395 4259 
Q 1275 4134 1275 3809 
L 1275 3500 
L 2222 3500 
L 2222 3053 
L 1275 3053 
L 1275 0 
L 697 0 
L 697 3053 
L 147 3053 
L 147 3500 
L 697 3500 
L 697 3744 
Q 697 4328 969 4595 
Q 1241 4863 1831 4863 
L 2375 4863 
z
" transform="scale(0.015625)"/>
       <path id="DejaVuSans-6c" d="M 603 4863 
L 1178 4863 
L 1178 0 
L 603 0 
L 603 4863 
z
" transform="scale(0.015625)"/>
       <path id="DejaVuSans-63" d="M 3122 3366 
L 3122 2828 
Q 2878 2963 2633 3030 
Q 2388 3097 2138 3097 
Q 1578 3097 1268 2742 
Q 959 2388 959 1747 
Q 959 1106 1268 751 
Q 1578 397 2138 397 
Q 2388 397 2633 464 
Q 2878 531 3122 666 
L 3122 134 
Q 2881 22 2623 -34 
Q 2366 -91 2075 -91 
Q 1284 -91 818 406 
Q 353 903 353 1747 
Q 353 2603 823 3093 
Q 1294 3584 2113 3584 
Q 2378 3584 2631 3529 
Q 2884 3475 3122 3366 
z
" transform="scale(0.015625)"/>
       <path id="DejaVuSans-65" d="M 3597 1894 
L 3597 1613 
L 953 1613 
Q 991 1019 1311 708 
Q 1631 397 2203 397 
Q 2534 397 2845 478 
Q 3156 559 3463 722 
L 3463 178 
Q 3153 47 2828 -22 
Q 2503 -91 2169 -91 
Q 1331 -91 842 396 
Q 353 884 353 1716 
Q 353 2575 817 3079 
Q 1281 3584 2069 3584 
Q 2775 3584 3186 3129 
Q 3597 2675 3597 1894 
z
M 3022 2063 
Q 3016 2534 2758 2815 
Q 2500 3097 2075 3097 
Q 1594 3097 1305 2825 
Q 1016 2553 972 2059 
L 3022 2063 
z
" transform="scale(0.015625)"/>
       <path id="DejaVuSans-61" d="M 2194 1759 
Q 1497 1759 1228 1600 
Q 959 1441 959 1056 
Q 959 750 1161 570 
Q 1363 391 1709 391 
Q 2188 391 2477 730 
Q 2766 1069 2766 1631 
L 2766 1759 
L 2194 1759 
z
M 3341 1997 
L 3341 0 
L 2766 0 
L 2766 531 
Q 2569 213 2275 61 
Q 1981 -91 1556 -91 
Q 1019 -91 701 211 
Q 384 513 384 1019 
Q 384 1609 779 1909 
Q 1175 2209 1959 2209 
L 2766 2209 
L 2766 2266 
Q 2766 2663 2505 2880 
Q 2244 3097 1772 3097 
Q 1472 3097 1187 3025 
Q 903 2953 641 2809 
L 641 3341 
Q 956 3463 1253 3523 
Q 1550 3584 1831 3584 
Q 2591 3584 2966 3190 
Q 3341 2797 3341 1997 
z
" transform="scale(0.015625)"/>
       <path id="DejaVuSans-67" d="M 2906 1791 
Q 2906 2416 2648 2759 
Q 2391 3103 1925 3103 
Q 1463 3103 1205 2759 
Q 947 2416 947 1791 
Q 947 1169 1205 825 
Q 1463 481 1925 481 
Q 2391 481 2648 825 
Q 2906 1169 2906 1791 
z
M 3481 434 
Q 3481 -459 3084 -895 
Q 2688 -1331 1869 -1331 
Q 1566 -1331 1297 -1286 
Q 1028 -1241 775 -1147 
L 775 -588 
Q 1028 -725 1275 -790 
Q 1522 -856 1778 -856 
Q 2344 -856 2625 -561 
Q 2906 -266 2906 331 
L 2906 616 
Q 2728 306 2450 153 
Q 2172 0 1784 0 
Q 1141 0 747 490 
Q 353 981 353 1791 
Q 353 2603 747 3093 
Q 1141 3584 1784 3584 
Q 2172 3584 2450 3431 
Q 2728 3278 2906 2969 
L 2906 3500 
L 3481 3500 
L 3481 434 
z
" transform="scale(0.015625)"/>
       <path id="DejaVuSans-76" d="M 191 3500 
L 800 3500 
L 1894 563 
L 2988 3500 
L 3597 3500 
L 2284 0 
L 1503 0 
L 191 3500 
z
" transform="scale(0.015625)"/>
       <path id="DejaVuSans-78" d="M 3513 3500 
L 2247 1797 
L 3578 0 
L 2900 0 
L 1881 1375 
L 863 0 
L 184 0 
L 1544 1831 
L 300 3500 
L 978 3500 
L 1906 2253 
L 2834 3500 
L 3513 3500 
z
" transform="scale(0.015625)"/>
      </defs>
      <use xlink:href="#DejaVuSans-50"/>
      <use xlink:href="#DejaVuSans-6f" x="56.677734"/>
      <use xlink:href="#DejaVuSans-73" x="117.859375"/>
      <use xlink:href="#DejaVuSans-69" x="169.958984"/>
      <use xlink:href="#DejaVuSans-74" x="197.742188"/>
      <use xlink:href="#DejaVuSans-69" x="236.951172"/>
      <use xlink:href="#DejaVuSans-6f" x="264.734375"/>
      <use xlink:href="#DejaVuSans-6e" x="325.916016"/>
      <use xlink:href="#DejaVuSans-20" x="389.294922"/>
      <use xlink:href="#DejaVuSans-6f" x="421.082031"/>
      <use xlink:href="#DejaVuSans-66" x="482.263672"/>
      <use xlink:href="#DejaVuSans-20" x="517.46875"/>
      <use xlink:href="#DejaVuSans-73" x="549.255859"/>
      <use xlink:href="#DejaVuSans-6c" x="601.355469"/>
      <use xlink:href="#DejaVuSans-69" x="629.138672"/>
      <use xlink:href="#DejaVuSans-63" x="656.921875"/>
      <use xlink:href="#DejaVuSans-65" x="711.902344"/>
      <use xlink:href="#DejaVuSans-20" x="773.425781"/>
      <use xlink:href="#DejaVuSans-61" x="805.212891"/>
      <use xlink:href="#DejaVuSans-6c" x="866.492188"/>
      <use xlink:href="#DejaVuSans-6f" x="894.275391"/>
      <use xlink:href="#DejaVuSans-6e" x="955.457031"/>
      <use xlink:href="#DejaVuSans-67" x="1018.835938"/>
      <use xlink:href="#DejaVuSans-20" x="1082.3125"/>
      <use xlink:href="#DejaVuSans-67" x="1114.099609"/>
      <use xlink:href="#DejaVuSans-69" x="1177.576172"/>
      <use xlink:href="#DejaVuSans-76" x="1205.359375"/>
      <use xlink:href="#DejaVuSans-65" x="1264.539062"/>
      <use xlink:href="#DejaVuSans-6e" x="1326.0625"/>
      <use xlink:href="#DejaVuSans-20" x="1389.441406"/>
      <use xlink:href="#DejaVuSans-61" x="1421.228516"/>
      <use xlink:href="#DejaVuSans-78" x="1482.507812"/>
      <use xlink:href="#DejaVuSans-69" x="1541.6875"/>
      <use xlink:href="#DejaVuSans-73" x="1569.470703"/>
     </g>
    </g>
   </g>
   <g id="matplotlib.axis_2">
    <g id="ytick_1">
     <g id="line2d_11">
      <defs>
       <path id="m3bf36ed2a8" d="M 0 0 
L 6 0 
" style="stroke: #000000; stroke-width: 2"/>
      </defs>
      <g>
       <use xlink:href="#m3bf36ed2a8" x="49.3975" y="234.5525" style="fill: #ffffff; stroke: #000000; stroke-width: 2"/>
      </g>
     </g>
     <g id="line2d_12">
      <defs>
       <path id="mb7eb39c39e" d="M 0 0 
L -6 0 
" style="stroke: #000000; stroke-width: 2"/>
      </defs>
      <g>
       <use xlink:href="#mb7eb39c39e" x="341.28" y="234.5525" style="fill: #ffffff; stroke: #000000; stroke-width: 2"/>
      </g>
     </g>
     <g id="text_7">
      <!-- 0.0 -->
      <g transform="translate(26.81375 239.111562)scale(0.12 -0.12)">
       <defs>
        <path id="DejaVuSans-2e" d="M 684 794 
L 1344 794 
L 1344 0 
L 684 0 
L 684 794 
z
" transform="scale(0.015625)"/>
       </defs>
       <use xlink:href="#DejaVuSans-30"/>
       <use xlink:href="#DejaVuSans-2e" x="63.623047"/>
       <use xlink:href="#DejaVuSans-30" x="95.410156"/>
      </g>
     </g>
    </g>
    <g id="ytick_2">
     <g id="line2d_13">
      <g>
       <use xlink:href="#m3bf36ed2a8" x="49.3975" y="189.993812" style="fill: #ffffff; stroke: #000000; stroke-width: 2"/>
      </g>
     </g>
     <g id="line2d_14">
      <g>
       <use xlink:href="#mb7eb39c39e" x="341.28" y="189.993812" style="fill: #ffffff; stroke: #000000; stroke-width: 2"/>
      </g>
     </g>
     <g id="text_8">
      <!-- 0.2 -->
      <g transform="translate(26.81375 194.552875)scale(0.12 -0.12)">
       <use xlink:href="#DejaVuSans-30"/>
       <use xlink:href="#DejaVuSans-2e" x="63.623047"/>
       <use xlink:href="#DejaVuSans-32" x="95.410156"/>
      </g>
     </g>
    </g>
    <g id="ytick_3">
     <g id="line2d_15">
      <g>
       <use xlink:href="#m3bf36ed2a8" x="49.3975" y="145.435125" style="fill: #ffffff; stroke: #000000; stroke-width: 2"/>
      </g>
     </g>
     <g id="line2d_16">
      <g>
       <use xlink:href="#mb7eb39c39e" x="341.28" y="145.435125" style="fill: #ffffff; stroke: #000000; stroke-width: 2"/>
      </g>
     </g>
     <g id="text_9">
      <!-- 0.4 -->
      <g transform="translate(26.81375 149.994187)scale(0.12 -0.12)">
       <defs>
        <path id="DejaVuSans-34" d="M 2419 4116 
L 825 1625 
L 2419 1625 
L 2419 4116 
z
M 2253 4666 
L 3047 4666 
L 3047 1625 
L 3713 1625 
L 3713 1100 
L 3047 1100 
L 3047 0 
L 2419 0 
L 2419 1100 
L 313 1100 
L 313 1709 
L 2253 4666 
z
" transform="scale(0.015625)"/>
       </defs>
       <use xlink:href="#DejaVuSans-30"/>
       <use xlink:href="#DejaVuSans-2e" x="63.623047"/>
       <use xlink:href="#DejaVuSans-34" x="95.410156"/>
      </g>
     </g>
    </g>
    <g id="ytick_4">
     <g id="line2d_17">
      <g>
       <use xlink:href="#m3bf36ed2a8" x="49.3975" y="100.876437" style="fill: #ffffff; stroke: #000000; stroke-width: 2"/>
      </g>
     </g>
     <g id="line2d_18">
      <g>
       <use xlink:href="#mb7eb39c39e" x="341.28" y="100.876437" style="fill: #ffffff; stroke: #000000; stroke-width: 2"/>
      </g>
     </g>
     <g id="text_10">
      <!-- 0.6 -->
      <g transform="translate(26.81375 105.4355)scale(0.12 -0.12)">
       <defs>
        <path id="DejaVuSans-36" d="M 2113 2584 
Q 1688 2584 1439 2293 
Q 1191 2003 1191 1497 
Q 1191 994 1439 701 
Q 1688 409 2113 409 
Q 2538 409 2786 701 
Q 3034 994 3034 1497 
Q 3034 2003 2786 2293 
Q 2538 2584 2113 2584 
z
M 3366 4563 
L 3366 3988 
Q 3128 4100 2886 4159 
Q 2644 4219 2406 4219 
Q 1781 4219 1451 3797 
Q 1122 3375 1075 2522 
Q 1259 2794 1537 2939 
Q 1816 3084 2150 3084 
Q 2853 3084 3261 2657 
Q 3669 2231 3669 1497 
Q 3669 778 3244 343 
Q 2819 -91 2113 -91 
Q 1303 -91 875 529 
Q 447 1150 447 2328 
Q 447 3434 972 4092 
Q 1497 4750 2381 4750 
Q 2619 4750 2861 4703 
Q 3103 4656 3366 4563 
z
" transform="scale(0.015625)"/>
       </defs>
       <use xlink:href="#DejaVuSans-30"/>
       <use xlink:href="#DejaVuSans-2e" x="63.623047"/>
       <use xlink:href="#DejaVuSans-36" x="95.410156"/>
      </g>
     </g>
    </g>
    <g id="ytick_5">
     <g id="line2d_19">
      <g>
       <use xlink:href="#m3bf36ed2a8" x="49.3975" y="56.31775" style="fill: #ffffff; stroke: #000000; stroke-width: 2"/>
      </g>
     </g>
     <g id="line2d_20">
      <g>
       <use xlink:href="#mb7eb39c39e" x="341.28" y="56.31775" style="fill: #ffffff; stroke: #000000; stroke-width: 2"/>
      </g>
     </g>
     <g id="text_11">
      <!-- 0.8 -->
      <g transform="translate(26.81375 60.876812)scale(0.12 -0.12)">
       <defs>
        <path id="DejaVuSans-38" d="M 2034 2216 
Q 1584 2216 1326 1975 
Q 1069 1734 1069 1313 
Q 1069 891 1326 650 
Q 1584 409 2034 409 
Q 2484 409 2743 651 
Q 3003 894 3003 1313 
Q 3003 1734 2745 1975 
Q 2488 2216 2034 2216 
z
M 1403 2484 
Q 997 2584 770 2862 
Q 544 3141 544 3541 
Q 544 4100 942 4425 
Q 1341 4750 2034 4750 
Q 2731 4750 3128 4425 
Q 3525 4100 3525 3541 
Q 3525 3141 3298 2862 
Q 3072 2584 2669 2484 
Q 3125 2378 3379 2068 
Q 3634 1759 3634 1313 
Q 3634 634 3220 271 
Q 2806 -91 2034 -91 
Q 1263 -91 848 271 
Q 434 634 434 1313 
Q 434 1759 690 2068 
Q 947 2378 1403 2484 
z
M 1172 3481 
Q 1172 3119 1398 2916 
Q 1625 2713 2034 2713 
Q 2441 2713 2670 2916 
Q 2900 3119 2900 3481 
Q 2900 3844 2670 4047 
Q 2441 4250 2034 4250 
Q 1625 4250 1398 4047 
Q 1172 3844 1172 3481 
z
" transform="scale(0.015625)"/>
       </defs>
       <use xlink:href="#DejaVuSans-30"/>
       <use xlink:href="#DejaVuSans-2e" x="63.623047"/>
       <use xlink:href="#DejaVuSans-38" x="95.410156"/>
      </g>
     </g>
    </g>
    <g id="ytick_6">
     <g id="line2d_21">
      <g>
       <use xlink:href="#m3bf36ed2a8" x="49.3975" y="11.759062" style="fill: #ffffff; stroke: #000000; stroke-width: 2"/>
      </g>
     </g>
     <g id="line2d_22">
      <g>
       <use xlink:href="#mb7eb39c39e" x="341.28" y="11.759062" style="fill: #ffffff; stroke: #000000; stroke-width: 2"/>
      </g>
     </g>
     <g id="text_12">
      <!-- 1.0 -->
      <g transform="translate(26.81375 16.318125)scale(0.12 -0.12)">
       <use xlink:href="#DejaVuSans-31"/>
       <use xlink:href="#DejaVuSans-2e" x="63.623047"/>
       <use xlink:href="#DejaVuSans-30" x="95.410156"/>
      </g>
     </g>
    </g>
    <g id="text_13">
     <!-- Porosity of slice -->
     <g transform="translate(16.318125 169.973594)rotate(-90)scale(0.12 -0.12)">
      <defs>
       <path id="DejaVuSans-72" d="M 2631 2963 
Q 2534 3019 2420 3045 
Q 2306 3072 2169 3072 
Q 1681 3072 1420 2755 
Q 1159 2438 1159 1844 
L 1159 0 
L 581 0 
L 581 3500 
L 1159 3500 
L 1159 2956 
Q 1341 3275 1631 3429 
Q 1922 3584 2338 3584 
Q 2397 3584 2469 3576 
Q 2541 3569 2628 3553 
L 2631 2963 
z
" transform="scale(0.015625)"/>
       <path id="DejaVuSans-79" d="M 2059 -325 
Q 1816 -950 1584 -1140 
Q 1353 -1331 966 -1331 
L 506 -1331 
L 506 -850 
L 844 -850 
Q 1081 -850 1212 -737 
Q 1344 -625 1503 -206 
L 1606 56 
L 191 3500 
L 800 3500 
L 1894 763 
L 2988 3500 
L 3597 3500 
L 2059 -325 
z
" transform="scale(0.015625)"/>
      </defs>
      <use xlink:href="#DejaVuSans-50"/>
      <use xlink:href="#DejaVuSans-6f" x="56.677734"/>
      <use xlink:href="#DejaVuSans-72" x="117.859375"/>
      <use xlink:href="#DejaVuSans-6f" x="156.722656"/>
      <use xlink:href="#DejaVuSans-73" x="217.904297"/>
      <use xlink:href="#DejaVuSans-69" x="270.003906"/>
      <use xlink:href="#DejaVuSans-74" x="297.787109"/>
      <use xlink:href="#DejaVuSans-79" x="336.996094"/>
      <use xlink:href="#DejaVuSans-20" x="396.175781"/>
      <use xlink:href="#DejaVuSans-6f" x="427.962891"/>
      <use xlink:href="#DejaVuSans-66" x="489.144531"/>
      <use xlink:href="#DejaVuSans-20" x="524.349609"/>
      <use xlink:href="#DejaVuSans-73" x="556.136719"/>
      <use xlink:href="#DejaVuSans-6c" x="608.236328"/>
      <use xlink:href="#DejaVuSans-69" x="636.019531"/>
      <use xlink:href="#DejaVuSans-63" x="663.802734"/>
      <use xlink:href="#DejaVuSans-65" x="718.783203"/>
     </g>
    </g>
   </g>
   <g id="line2d_23">
    <path d="M 62.664886 120.751469 
L 66.665103 121.169206 
L 68.665212 120.495256 
L 69.331915 120.690201 
L 69.998618 121.341871 
L 71.332023 124.292028 
L 72.665429 126.232187 
L 73.998835 127.7379 
L 74.665537 128.255894 
L 75.33224 128.430416 
L 75.998943 127.804738 
L 76.665646 127.793598 
L 77.332349 127.938414 
L 77.999052 127.626503 
L 78.665754 127.650639 
L 79.332457 127.424132 
L 80.665863 126.182059 
L 81.332566 125.290885 
L 82.665971 124.843442 
L 83.332674 124.793313 
L 83.999377 124.618791 
L 84.66608 124.149069 
L 85.999485 122.407567 
L 86.666188 122.195913 
L 87.999594 122.155067 
L 88.666297 121.871006 
L 89.333 121.044813 
L 89.999702 120.846156 
L 90.666405 120.450698 
L 93.333217 119.609652 
L 93.999919 118.867008 
L 94.666622 118.404711 
L 95.333325 118.228333 
L 96.000028 118.404711 
L 96.666731 118.965408 
L 98.000136 120.989115 
L 99.333542 122.051097 
L 100.000245 122.364865 
L 100.666948 122.344442 
L 101.333651 122.136501 
L 102.000353 122.134645 
L 103.333759 122.448412 
L 104.000462 122.821591 
L 105.333868 122.949697 
L 106.00057 122.821591 
L 108.667382 124.390428 
L 109.334085 124.525961 
L 110.000787 123.974547 
L 110.66749 122.86058 
L 111.334193 121.978689 
L 112.000896 121.523819 
L 113.334302 121.560952 
L 114.001004 121.943414 
L 114.667707 122.771463 
L 116.001113 126.076232 
L 118.001221 130.970261 
L 119.334627 132.954979 
L 120.00133 133.84244 
L 121.334736 134.651923 
L 122.001438 135.333299 
L 122.668141 136.328443 
L 123.334844 136.742468 
L 124.66825 136.627358 
L 125.334953 136.484399 
L 126.001655 136.081514 
L 128.001764 135.912562 
L 128.668467 135.689769 
L 129.33517 135.097509 
L 130.001872 133.885142 
L 130.668575 132.325588 
L 132.668684 126.571947 
L 134.668792 121.729903 
L 136.668901 118.358296 
L 137.335604 117.439273 
L 138.002306 117.225763 
L 138.669009 117.259182 
L 139.335712 117.511681 
L 140.002415 118.070521 
L 142.002523 120.339301 
L 143.335929 121.026247 
L 144.669335 122.264607 
L 145.336038 123.042528 
L 146.00274 123.467692 
L 146.669443 123.670063 
L 147.336146 123.699769 
L 149.336255 122.884716 
L 150.002957 123.10194 
L 150.66966 122.994256 
L 151.336363 123.014679 
L 152.003066 122.767749 
L 152.669769 122.038101 
L 153.336472 121.033674 
L 154.003174 120.270606 
L 154.669877 119.940129 
L 156.003283 120.697627 
L 156.669986 121.085659 
L 157.336689 121.289886 
L 158.670094 122.41685 
L 159.336797 123.053668 
L 160.670203 125.097797 
L 161.336906 126.37329 
L 162.670311 128.127788 
L 163.337014 128.909422 
L 166.003825 131.219047 
L 166.670528 131.248753 
L 167.337231 130.793883 
L 168.003934 130.665777 
L 169.33734 130.056808 
L 170.004042 129.960264 
L 170.670745 129.364292 
L 171.337448 128.590085 
L 172.004151 127.301596 
L 172.670854 126.525532 
L 173.337557 125.44684 
L 174.670962 124.719049 
L 175.337665 124.078517 
L 176.004368 123.824162 
L 176.671071 123.777746 
L 177.337774 123.19477 
L 180.671288 119.074948 
L 182.004693 116.18606 
L 182.671396 115.827734 
L 184.004802 115.682918 
L 184.671505 116.017108 
L 185.338208 116.585231 
L 186.671613 117.519107 
L 187.338316 118.332303 
L 188.671722 118.976548 
L 189.338425 118.451126 
L 190.005127 117.366865 
L 191.338533 115.970693 
L 192.005236 115.443415 
L 193.338642 114.789888 
L 194.672047 114.537388 
L 195.33875 114.546672 
L 195.33875 114.546672 
" clip-path="url(#p9e7cc2869d)" style="fill: none; stroke: #0000ff; stroke-opacity: 0.5; stroke-width: 2; stroke-linecap: square"/>
   </g>
   <g id="line2d_24">
    <path d="M 62.664886 129.46919 
L 63.330474 129.675274 
L 64.66165 131.073303 
L 65.992826 132.919704 
L 67.324002 134.189626 
L 67.98959 134.58787 
L 68.655178 134.612934 
L 69.320766 134.888641 
L 69.986354 135.325873 
L 70.651942 135.568161 
L 71.31753 135.267389 
L 71.983118 134.534956 
L 73.314293 133.883285 
L 73.979881 133.869361 
L 74.645469 134.011391 
L 75.311057 133.796953 
L 76.642233 132.602223 
L 77.973409 130.683415 
L 78.638997 130.070733 
L 79.304585 129.173989 
L 80.635761 126.748325 
L 82.632525 123.849226 
L 83.963701 124.612293 
L 84.629289 124.706981 
L 85.960464 125.681702 
L 86.626052 125.475618 
L 87.29164 125.500682 
L 87.957228 125.720691 
L 88.622816 126.361222 
L 89.953992 126.286029 
L 90.61958 126.934915 
L 91.285168 126.600725 
L 92.616344 126.286029 
L 93.281932 125.472833 
L 93.94752 123.991257 
L 95.278696 119.30981 
L 95.944284 117.853297 
L 96.609872 116.917565 
L 97.941047 116.057025 
L 98.606635 115.750684 
L 99.272223 115.970693 
L 99.937811 116.045886 
L 100.603399 116.449699 
L 101.268987 117.045671 
L 101.934575 117.410495 
L 102.600163 117.279604 
L 103.265751 117.544172 
L 103.931339 117.680633 
L 106.593691 118.627505 
L 107.259279 118.287745 
L 107.924867 117.120864 
L 108.590455 115.525106 
L 109.92163 113.132861 
L 111.252806 109.763111 
L 112.583982 108.164568 
L 113.915158 107.2539 
L 114.580746 107.086805 
L 115.246334 107.259469 
L 116.57751 107.92785 
L 117.243098 109.225622 
L 118.574274 111.111011 
L 119.239862 112.091302 
L 120.571038 113.327806 
L 121.236625 113.305526 
L 122.567801 113.636932 
L 123.233389 113.514395 
L 124.564565 112.904498 
L 125.230153 112.32802 
L 126.561329 113.765038 
L 127.226917 115.271678 
L 129.889269 123.250468 
L 131.220445 125.467263 
L 131.886033 125.692842 
L 132.551621 126.132859 
L 133.217208 126.726046 
L 134.548384 128.171419 
L 135.87956 131.485471 
L 136.545148 132.479687 
L 137.210736 133.111863 
L 137.876324 133.473902 
L 138.541912 133.682771 
L 139.2075 133.607578 
L 139.873088 133.340226 
L 141.204264 133.125788 
L 142.53544 131.415848 
L 143.201028 130.599867 
L 143.866616 129.499824 
L 144.532204 128.914992 
L 145.197792 128.591941 
L 145.863379 128.926131 
L 146.528967 128.717262 
L 147.194555 127.895712 
L 148.525731 125.467263 
L 149.856907 124.356081 
L 150.522495 124.124933 
L 151.188083 124.141642 
L 151.853671 124.801668 
L 152.519259 125.055095 
L 153.184847 125.57309 
L 154.516023 126.141213 
L 155.181611 126.59794 
L 155.847199 127.394426 
L 156.512787 127.976474 
L 157.178375 127.915206 
L 157.843962 127.10758 
L 159.175138 125.937914 
L 159.840726 125.834872 
L 160.506314 126.670348 
L 161.83749 129.605651 
L 162.503078 130.800381 
L 163.168666 131.596868 
L 163.834254 131.716619 
L 164.499842 131.610792 
L 166.496606 130.251752 
L 167.162194 129.64464 
L 167.827782 129.466405 
L 169.158958 128.558522 
L 169.824545 128.658779 
L 171.155721 129.505394 
L 171.821309 129.719833 
L 172.486897 129.477545 
L 173.152485 128.823089 
L 173.818073 128.733972 
L 174.483661 129.045883 
L 175.149249 129.678059 
L 176.480425 131.268247 
L 179.142777 135.562591 
L 180.473953 136.94391 
L 181.139541 137.525958 
L 182.470716 138.263961 
L 183.136304 138.525744 
L 183.801892 137.701408 
L 185.133068 133.796953 
L 186.464244 131.165205 
L 187.79542 128.770176 
L 189.126596 125.422704 
L 190.457772 123.172491 
L 191.12336 122.097512 
L 192.454536 120.574162 
L 193.785711 120.535173 
L 194.451299 120.145285 
L 195.116887 119.362723 
L 196.448063 116.875791 
L 197.113651 115.90664 
L 198.444827 115.324592 
L 199.110415 115.438774 
L 200.441591 116.190701 
L 201.107179 117.134789 
L 201.772767 118.307239 
L 202.438355 119.067522 
L 203.103943 119.332089 
L 203.769531 119.187273 
L 204.435119 118.719407 
L 205.100707 118.45484 
L 205.766294 118.374077 
L 206.431882 117.872792 
L 207.09747 117.229476 
L 208.428646 114.795458 
L 209.094234 114.497471 
L 209.759822 114.71191 
L 210.42541 115.486117 
L 211.090998 116.455269 
L 211.756586 117.688987 
L 212.422174 119.223477 
L 213.087762 120.184274 
L 213.75335 120.82202 
L 214.418938 121.089372 
L 215.084526 120.674419 
L 215.750114 119.880718 
L 217.08129 117.828233 
L 217.746877 116.357796 
L 218.412465 115.188131 
L 219.078053 114.608868 
L 220.409229 114.436203 
L 221.074817 114.461267 
L 222.405993 114.20227 
L 223.071581 114.391644 
L 224.402757 115.784103 
L 225.068345 116.41071 
L 229.061873 121.456981 
L 229.72746 123.119577 
L 230.393048 124.250254 
L 231.058636 125.119148 
L 233.0554 128.825874 
L 234.386576 130.766962 
L 235.052164 131.457622 
L 237.048928 133.994682 
L 238.380104 134.749395 
L 240.376868 135.013962 
L 241.042456 134.632428 
L 241.708043 134.030886 
L 242.373631 132.699695 
L 243.039219 130.906208 
L 244.370395 126.962764 
L 248.363923 118.588516 
L 249.029511 117.906211 
L 249.695099 117.488473 
L 250.360687 117.215551 
L 251.026275 117.221121 
L 252.357451 118.293314 
L 253.023039 118.446485 
L 253.688626 118.878147 
L 255.019802 118.440915 
L 255.68539 118.198627 
L 256.350978 117.680633 
L 257.016566 117.800384 
L 258.347742 119.011823 
L 261.675682 120.072877 
L 261.675682 120.072877 
" clip-path="url(#p9e7cc2869d)" style="fill: none; stroke: #ff0000; stroke-opacity: 0.5; stroke-width: 2; stroke-linecap: square"/>
   </g>
   <g id="line2d_25">
    <path d="M 62.664886 120.697627 
L 63.99495 121.191486 
L 64.659982 121.529389 
L 67.32011 123.293171 
L 67.985142 123.541957 
L 69.315205 126.182059 
L 69.980237 127.619076 
L 70.645269 128.272604 
L 71.310301 129.442269 
L 71.975333 129.668776 
L 72.640365 129.587085 
L 73.305397 129.356865 
L 73.970429 128.926131 
L 75.300492 129.215763 
L 76.630556 128.651353 
L 77.295588 128.131501 
L 77.96062 127.38143 
L 79.955716 123.423133 
L 82.615843 120.508253 
L 83.280875 119.052669 
L 83.945907 118.395428 
L 84.610939 117.519107 
L 85.275971 116.991829 
L 85.941003 117.30374 
L 86.606035 117.374292 
L 87.271067 117.626791 
L 88.60113 117.077234 
L 89.266162 117.088373 
L 89.931194 117.318593 
L 90.596226 117.682489 
L 91.261258 118.246899 
L 91.92629 118.176348 
L 92.591322 117.41885 
L 93.256354 116.27889 
L 93.921386 115.959553 
L 94.586417 115.926134 
L 95.916481 116.924991 
L 96.581513 117.5451 
L 97.246545 117.953554 
L 97.911577 117.730761 
L 98.576609 117.017822 
L 99.241641 117.236902 
L 99.906673 117.734474 
L 101.236736 117.871864 
L 101.901768 118.436274 
L 102.5668 119.639358 
L 103.231832 121.236044 
L 105.226928 125.261179 
L 105.89196 126.902424 
L 107.222024 130.983257 
L 108.552087 134.432842 
L 109.217119 135.082657 
L 109.882151 134.778172 
L 110.547183 134.30288 
L 111.212215 133.489684 
L 113.872343 126.397426 
L 114.537374 125.075518 
L 115.202406 124.050668 
L 115.867438 123.244899 
L 116.53247 122.18663 
L 118.527566 117.779033 
L 119.192598 115.837017 
L 119.85763 114.879005 
L 120.522661 113.690773 
L 121.187693 113.553384 
L 121.852725 114.073235 
L 124.512853 118.473406 
L 125.177885 119.13436 
L 125.842917 119.446271 
L 126.507949 119.308881 
L 127.17298 118.640501 
L 129.168076 114.964409 
L 129.833108 114.60794 
L 130.49814 114.403712 
L 131.163172 114.860439 
L 132.493236 115.098085 
L 133.823299 116.364295 
L 134.488331 116.371721 
L 135.153363 116.041244 
L 135.818395 114.860439 
L 137.813491 112.335447 
L 138.478523 111.75247 
L 139.143555 111.41828 
L 140.473618 111.128649 
L 141.13865 110.597658 
L 141.803682 110.356298 
L 142.468714 109.331448 
L 143.133746 107.864725 
L 143.798778 106.754471 
L 145.128842 104.8533 
L 145.793874 104.348302 
L 147.123937 104.767896 
L 148.454001 106.386862 
L 149.119033 106.903 
L 149.784065 107.90557 
L 150.449097 108.358584 
L 151.114129 108.614796 
L 151.779161 108.640789 
L 153.109224 108.993545 
L 154.439288 110.248615 
L 155.769352 113.739045 
L 156.434384 115.677348 
L 157.764448 118.785317 
L 158.42948 119.784174 
L 159.094512 120.129504 
L 159.759543 120.861009 
L 161.089607 122.780746 
L 161.754639 123.538243 
L 162.419671 123.968977 
L 163.084703 124.184344 
L 165.744831 126.998968 
L 166.409862 127.719333 
L 168.404958 131.258036 
L 169.06999 132.858435 
L 171.065086 135.99611 
L 172.39515 137.039526 
L 173.060181 137.024673 
L 173.725213 136.586512 
L 174.390245 135.505964 
L 175.055277 134.013248 
L 176.385341 130.552523 
L 178.380437 122.335159 
L 179.045469 121.61108 
L 179.7105 121.521963 
L 180.375532 121.856153 
L 181.040564 121.625933 
L 182.370628 118.610795 
L 183.700692 115.306026 
L 184.365724 114.860439 
L 185.030756 115.228048 
L 185.695787 116.063523 
L 186.360819 116.698485 
L 187.690883 117.507968 
L 188.355915 117.181204 
L 189.020947 116.453412 
L 189.685979 116.371721 
L 190.351011 116.679919 
L 191.681075 117.957268 
L 192.346106 118.217193 
L 193.011138 118.718479 
L 193.67617 119.416565 
L 194.341202 120.300312 
L 195.671266 123.233759 
L 196.336298 124.514821 
L 197.00133 126.052096 
L 198.331394 128.558522 
L 198.996425 129.999253 
L 200.326489 133.723617 
L 200.991521 134.830157 
L 201.656553 135.246038 
L 202.986617 135.676772 
L 203.651649 136.244896 
L 204.316681 136.564233 
L 204.981713 136.181771 
L 205.646744 136.033242 
L 206.976808 137.340297 
L 207.64184 137.626215 
L 208.306872 137.759891 
L 208.971904 138.075515 
L 210.301968 137.774744 
L 210.967 137.603936 
L 212.297063 135.012105 
L 213.627127 132.947553 
L 214.957191 130.173775 
L 215.622223 128.944697 
L 216.287255 128.306023 
L 216.952287 127.893855 
L 219.612414 124.55938 
L 220.277446 124.392285 
L 220.942478 123.215193 
L 221.60751 122.353725 
L 222.272542 121.978689 
L 223.602606 119.58366 
L 224.932669 116.30117 
L 225.597701 114.734189 
L 226.262733 114.541102 
L 227.592797 115.781318 
L 228.257829 116.141501 
L 228.922861 116.691058 
L 229.587893 117.812452 
L 230.252925 118.451126 
L 231.582988 119.980975 
L 232.24802 120.0441 
L 233.578084 120.957553 
L 234.243116 121.681631 
L 234.908148 121.61108 
L 236.238212 121.213765 
L 236.903244 121.614793 
L 237.568276 122.153211 
L 238.233307 123.088943 
L 238.898339 124.247469 
L 240.228403 128.202053 
L 240.893435 129.044954 
L 241.558467 129.252895 
L 242.223499 128.978116 
L 242.888531 129.134072 
L 243.553563 128.926131 
L 244.218594 129.182344 
L 244.883626 129.000396 
L 245.548658 129.531387 
L 246.878722 132.227187 
L 247.543754 133.742183 
L 248.208786 134.52196 
L 248.873818 134.926701 
L 249.53885 134.377144 
L 250.203882 132.594797 
L 252.198977 128.335729 
L 252.864009 128.034958 
L 254.859105 127.904995 
L 255.524137 127.619076 
L 256.189169 126.798454 
L 256.854201 126.159779 
L 257.519232 125.766178 
L 258.849296 127.032387 
L 259.514328 127.711907 
L 260.17936 128.848154 
L 261.509424 131.79274 
L 262.839488 133.634499 
L 263.50452 134.573945 
L 264.834583 135.587655 
L 265.499615 135.702765 
L 266.164647 135.624787 
L 266.829679 135.821588 
L 267.494711 136.155778 
L 268.159743 136.207763 
L 268.824775 135.76589 
L 269.489807 134.97126 
L 270.154839 134.800452 
L 270.81987 134.455122 
L 271.484902 134.492254 
L 272.149934 134.354865 
L 273.479998 132.709906 
L 274.14503 132.212334 
L 275.475094 129.780173 
L 276.805157 127.50768 
L 277.470189 126.47169 
L 278.135221 126.330588 
L 278.800253 126.464264 
L 280.130317 129.093226 
L 280.795349 129.512821 
L 281.460381 129.713335 
L 282.125413 129.702195 
L 282.790445 129.338299 
L 283.455476 129.924989 
L 284.120508 130.277745 
L 285.450572 131.321161 
L 286.780636 132.899281 
L 288.1107 135.268318 
L 288.775732 135.194053 
L 290.105795 132.505679 
L 290.770827 130.578516 
L 292.765923 125.613936 
L 294.095987 123.857581 
L 294.761019 123.434273 
L 295.426051 122.873576 
L 296.091083 122.142071 
L 296.756114 121.893285 
L 297.421146 121.414279 
L 298.75121 119.669064 
L 299.416242 119.81388 
L 300.081274 121.128361 
L 300.746306 121.536816 
L 301.411338 120.964979 
L 302.741402 118.807596 
L 303.406433 117.114366 
L 304.071465 116.787602 
L 304.736497 117.329733 
L 306.066561 119.301455 
L 306.731593 120.734759 
L 309.39172 129.635357 
L 310.056752 131.194911 
L 310.721784 132.223474 
L 311.386816 132.646782 
L 312.71688 131.941269 
L 313.381912 131.829872 
L 314.711976 130.623075 
L 316.707071 127.663635 
L 317.372103 126.1375 
L 318.037135 124.889857 
L 319.367199 121.618507 
L 320.032231 120.337444 
L 320.697263 119.891857 
L 321.362295 119.026676 
L 322.027327 118.402855 
L 322.692358 117.574806 
L 323.35739 116.431133 
L 324.022422 115.606797 
L 324.687454 115.183489 
L 325.352486 115.39143 
L 327.347582 115.447128 
L 328.012614 115.59937 
L 328.012614 115.59937 
" clip-path="url(#p9e7cc2869d)" style="fill: none; stroke: #008000; stroke-opacity: 0.5; stroke-width: 2; stroke-linecap: square"/>
   </g>
   <g id="patch_3">
    <path d="M 49.3975 234.5525 
L 49.3975 11.759062 
" style="fill: none; stroke: #000000; stroke-width: 2; stroke-linejoin: miter; stroke-linecap: square"/>
   </g>
   <g id="patch_4">
    <path d="M 341.28 234.5525 
L 341.28 11.759062 
" style="fill: none; stroke: #000000; stroke-width: 2; stroke-linejoin: miter; stroke-linecap: square"/>
   </g>
   <g id="patch_5">
    <path d="M 49.3975 234.5525 
L 341.28 234.5525 
" style="fill: none; stroke: #000000; stroke-width: 2; stroke-linejoin: miter; stroke-linecap: square"/>
   </g>
   <g id="patch_6">
    <path d="M 49.3975 11.759062 
L 341.28 11.759062 
" style="fill: none; stroke: #000000; stroke-width: 2; stroke-linejoin: miter; stroke-linecap: square"/>
   </g>
   <g id="legend_1">
    <g id="line2d_26">
     <path d="M 245.26125 27.477188 
L 257.26125 27.477188 
L 269.26125 27.477188 
" style="fill: none; stroke: #0000ff; stroke-opacity: 0.5; stroke-width: 2; stroke-linecap: square"/>
    </g>
    <g id="text_14">
     <!-- yz-plane -->
     <g transform="translate(278.86125 31.677188)scale(0.12 -0.12)">
      <defs>
       <path id="DejaVuSans-7a" d="M 353 3500 
L 3084 3500 
L 3084 2975 
L 922 459 
L 3084 459 
L 3084 0 
L 275 0 
L 275 525 
L 2438 3041 
L 353 3041 
L 353 3500 
z
" transform="scale(0.015625)"/>
       <path id="DejaVuSans-2d" d="M 313 2009 
L 1997 2009 
L 1997 1497 
L 313 1497 
L 313 2009 
z
" transform="scale(0.015625)"/>
       <path id="DejaVuSans-70" d="M 1159 525 
L 1159 -1331 
L 581 -1331 
L 581 3500 
L 1159 3500 
L 1159 2969 
Q 1341 3281 1617 3432 
Q 1894 3584 2278 3584 
Q 2916 3584 3314 3078 
Q 3713 2572 3713 1747 
Q 3713 922 3314 415 
Q 2916 -91 2278 -91 
Q 1894 -91 1617 61 
Q 1341 213 1159 525 
z
M 3116 1747 
Q 3116 2381 2855 2742 
Q 2594 3103 2138 3103 
Q 1681 3103 1420 2742 
Q 1159 2381 1159 1747 
Q 1159 1113 1420 752 
Q 1681 391 2138 391 
Q 2594 391 2855 752 
Q 3116 1113 3116 1747 
z
" transform="scale(0.015625)"/>
      </defs>
      <use xlink:href="#DejaVuSans-79"/>
      <use xlink:href="#DejaVuSans-7a" x="59.179688"/>
      <use xlink:href="#DejaVuSans-2d" x="111.669922"/>
      <use xlink:href="#DejaVuSans-70" x="147.753906"/>
      <use xlink:href="#DejaVuSans-6c" x="211.230469"/>
      <use xlink:href="#DejaVuSans-61" x="239.013672"/>
      <use xlink:href="#DejaVuSans-6e" x="300.292969"/>
      <use xlink:href="#DejaVuSans-65" x="363.671875"/>
     </g>
    </g>
    <g id="line2d_27">
     <path d="M 245.26125 45.090938 
L 257.26125 45.090938 
L 269.26125 45.090938 
" style="fill: none; stroke: #ff0000; stroke-opacity: 0.5; stroke-width: 2; stroke-linecap: square"/>
    </g>
    <g id="text_15">
     <!-- xz-plane -->
     <g transform="translate(278.86125 49.290938)scale(0.12 -0.12)">
      <use xlink:href="#DejaVuSans-78"/>
      <use xlink:href="#DejaVuSans-7a" x="59.179688"/>
      <use xlink:href="#DejaVuSans-2d" x="111.669922"/>
      <use xlink:href="#DejaVuSans-70" x="147.753906"/>
      <use xlink:href="#DejaVuSans-6c" x="211.230469"/>
      <use xlink:href="#DejaVuSans-61" x="239.013672"/>
      <use xlink:href="#DejaVuSans-6e" x="300.292969"/>
      <use xlink:href="#DejaVuSans-65" x="363.671875"/>
     </g>
    </g>
    <g id="line2d_28">
     <path d="M 245.26125 62.704687 
L 257.26125 62.704687 
L 269.26125 62.704687 
" style="fill: none; stroke: #008000; stroke-opacity: 0.5; stroke-width: 2; stroke-linecap: square"/>
    </g>
    <g id="text_16">
     <!-- xy-plane -->
     <g transform="translate(278.86125 66.904687)scale(0.12 -0.12)">
      <use xlink:href="#DejaVuSans-78"/>
      <use xlink:href="#DejaVuSans-79" x="59.179688"/>
      <use xlink:href="#DejaVuSans-2d" x="116.609375"/>
      <use xlink:href="#DejaVuSans-70" x="152.693359"/>
      <use xlink:href="#DejaVuSans-6c" x="216.169922"/>
      <use xlink:href="#DejaVuSans-61" x="243.953125"/>
      <use xlink:href="#DejaVuSans-6e" x="305.232422"/>
      <use xlink:href="#DejaVuSans-65" x="368.611328"/>
     </g>
    </g>
   </g>
  </g>
 </g>
 <defs>
  <clipPath id="p9e7cc2869d">
   <rect x="49.3975" y="11.759062" width="291.8825" height="222.793437"/>
  </clipPath>
 </defs>
</svg>