<?xml version="1.0" encoding="utf-8" standalone="no"?>
<!DOCTYPE svg PUBLIC "-//W3C//DTD SVG 1.1//EN"
  "http://www.w3.org/Graphics/SVG/1.1/DTD/svg11.dtd">
<svg xmlns:xlink="http://www.w3.org/1999/xlink" width="348.48pt" height="276.48pt" viewBox="0 0 348.48 276.48" xmlns="http://www.w3.org/2000/svg" version="1.1">
 <metadata>
  <rdf:RDF xmlns:dc="http://purl.org/dc/elements/1.1/" xmlns:cc="http://creativecommons.org/ns#" xmlns:rdf="http://www.w3.org/1999/02/22-rdf-syntax-ns#">
   <cc:Work>
    <dc:type rdf:resource="http://purl.org/dc/dcmitype/StillImage"/>
    <dc:date>2022-09-09T21:25:57.277572</dc:date>
    <dc:format>image/svg+xml</dc:format>
    <dc:creator>
     <cc:Agent>
      <dc:title>Matplotlib v3.5.3, https://matplotlib.org/</dc:title>
     </cc:Agent>
    </dc:creator>
   </cc:Work>
  </rdf:RDF>
 </metadata>
 <defs>
  <style type="text/css">*{stroke-linejoin: round; stroke-linecap: butt}</style>
 </defs>
 <g id="figure_1">
  <g id="patch_1">
   <path d="M 0 276.48 
L 348.48 276.48 
L 348.48 0 
L 0 0 
z
" style="fill: #ffffff"/>
  </g>
  <g id="axes_1">
   <g id="patch_2">
    <path d="M 49.3975 234.5525 
L 341.28 234.5525 
L 341.28 11.759062 
L 49.3975 11.759062 
z
" style="fill: #ffffff"/>
   </g>
   <g id="matplotlib.axis_1">
    <g id="xtick_1">
     <g id="line2d_1">
      <defs>
       <path id="md281a09b60" d="M 0 0 
L 0 -6 
" style="stroke: #000000; stroke-width: 2"/>
      </defs>
      <g>
       <use xlink:href="#md281a09b60" x="62.664886" y="234.5525" style="fill: #ffffff; stroke: #000000; stroke-width: 2"/>
      </g>
     </g>
     <g id="line2d_2">
      <defs>
       <path id="mc47812925d" d="M 0 0 
L 0 6 
" style="stroke: #000000; stroke-width: 2"/>
      </defs>
      <g>
       <use xlink:href="#mc47812925d" x="62.664886" y="11.759062" style="fill: #ffffff; stroke: #000000; stroke-width: 2"/>
      </g>
     </g>
     <g id="text_1">
      <!-- 0.0 -->
      <g transform="translate(53.123011 247.170625)scale(0.12 -0.12)">
       <defs>
        <path id="DejaVuSans-30" d="M 2034 4250 
Q 1547 4250 1301 3770 
Q 1056 3291 1056 2328 
Q 1056 1369 1301 889 
Q 1547 409 2034 409 
Q 2525 409 2770 889 
Q 3016 1369 3016 2328 
Q 3016 3291 2770 3770 
Q 2525 4250 2034 4250 
z
M 2034 4750 
Q 2819 4750 3233 4129 
Q 3647 3509 3647 2328 
Q 3647 1150 3233 529 
Q 2819 -91 2034 -91 
Q 1250 -91 836 529 
Q 422 1150 422 2328 
Q 422 3509 836 4129 
Q 1250 4750 2034 4750 
z
" transform="scale(0.015625)"/>
        <path id="DejaVuSans-2e" d="M 684 794 
L 1344 794 
L 1344 0 
L 684 0 
L 684 794 
z
" transform="scale(0.015625)"/>
       </defs>
       <use xlink:href="#DejaVuSans-30"/>
       <use xlink:href="#DejaVuSans-2e" x="63.623047"/>
       <use xlink:href="#DejaVuSans-30" x="95.410156"/>
      </g>
     </g>
    </g>
    <g id="xtick_2">
     <g id="line2d_3">
      <g>
       <use xlink:href="#md281a09b60" x="115.734432" y="234.5525" style="fill: #ffffff; stroke: #000000; stroke-width: 2"/>
      </g>
     </g>
     <g id="line2d_4">
      <g>
       <use xlink:href="#mc47812925d" x="115.734432" y="11.759062" style="fill: #ffffff; stroke: #000000; stroke-width: 2"/>
      </g>
     </g>
     <g id="text_2">
      <!-- 0.2 -->
      <g transform="translate(106.192557 247.170625)scale(0.12 -0.12)">
       <defs>
        <path id="DejaVuSans-32" d="M 1228 531 
L 3431 531 
L 3431 0 
L 469 0 
L 469 531 
Q 828 903 1448 1529 
Q 2069 2156 2228 2338 
Q 2531 2678 2651 2914 
Q 2772 3150 2772 3378 
Q 2772 3750 2511 3984 
Q 2250 4219 1831 4219 
Q 1534 4219 1204 4116 
Q 875 4013 500 3803 
L 500 4441 
Q 881 4594 1212 4672 
Q 1544 4750 1819 4750 
Q 2544 4750 2975 4387 
Q 3406 4025 3406 3419 
Q 3406 3131 3298 2873 
Q 3191 2616 2906 2266 
Q 2828 2175 2409 1742 
Q 1991 1309 1228 531 
z
" transform="scale(0.015625)"/>
       </defs>
       <use xlink:href="#DejaVuSans-30"/>
       <use xlink:href="#DejaVuSans-2e" x="63.623047"/>
       <use xlink:href="#DejaVuSans-32" x="95.410156"/>
      </g>
     </g>
    </g>
    <g id="xtick_3">
     <g id="line2d_5">
      <g>
       <use xlink:href="#md281a09b60" x="168.803977" y="234.5525" style="fill: #ffffff; stroke: #000000; stroke-width: 2"/>
      </g>
     </g>
     <g id="line2d_6">
      <g>
       <use xlink:href="#mc47812925d" x="168.803977" y="11.759062" style="fill: #ffffff; stroke: #000000; stroke-width: 2"/>
      </g>
     </g>
     <g id="text_3">
      <!-- 0.4 -->
      <g transform="translate(159.262102 247.170625)scale(0.12 -0.12)">
       <defs>
        <path id="DejaVuSans-34" d="M 2419 4116 
L 825 1625 
L 2419 1625 
L 2419 4116 
z
M 2253 4666 
L 3047 4666 
L 3047 1625 
L 3713 1625 
L 3713 1100 
L 3047 1100 
L 3047 0 
L 2419 0 
L 2419 1100 
L 313 1100 
L 313 1709 
L 2253 4666 
z
" transform="scale(0.015625)"/>
       </defs>
       <use xlink:href="#DejaVuSans-30"/>
       <use xlink:href="#DejaVuSans-2e" x="63.623047"/>
       <use xlink:href="#DejaVuSans-34" x="95.410156"/>
      </g>
     </g>
    </g>
    <g id="xtick_4">
     <g id="line2d_7">
      <g>
       <use xlink:href="#md281a09b60" x="221.873523" y="234.5525" style="fill: #ffffff; stroke: #000000; stroke-width: 2"/>
      </g>
     </g>
     <g id="line2d_8">
      <g>
       <use xlink:href="#mc47812925d" x="221.873523" y="11.759062" style="fill: #ffffff; stroke: #000000; stroke-width: 2"/>
      </g>
     </g>
     <g id="text_4">
      <!-- 0.6 -->
      <g transform="translate(212.331648 247.170625)scale(0.12 -0.12)">
       <defs>
        <path id="DejaVuSans-36" d="M 2113 2584 
Q 1688 2584 1439 2293 
Q 1191 2003 1191 1497 
Q 1191 994 1439 701 
Q 1688 409 2113 409 
Q 2538 409 2786 701 
Q 3034 994 3034 1497 
Q 3034 2003 2786 2293 
Q 2538 2584 2113 2584 
z
M 3366 4563 
L 3366 3988 
Q 3128 4100 2886 4159 
Q 2644 4219 2406 4219 
Q 1781 4219 1451 3797 
Q 1122 3375 1075 2522 
Q 1259 2794 1537 2939 
Q 1816 3084 2150 3084 
Q 2853 3084 3261 2657 
Q 3669 2231 3669 1497 
Q 3669 778 3244 343 
Q 2819 -91 2113 -91 
Q 1303 -91 875 529 
Q 447 1150 447 2328 
Q 447 3434 972 4092 
Q 1497 4750 2381 4750 
Q 2619 4750 2861 4703 
Q 3103 4656 3366 4563 
z
" transform="scale(0.015625)"/>
       </defs>
       <use xlink:href="#DejaVuSans-30"/>
       <use xlink:href="#DejaVuSans-2e" x="63.623047"/>
       <use xlink:href="#DejaVuSans-36" x="95.410156"/>
      </g>
     </g>
    </g>
    <g id="xtick_5">
     <g id="line2d_9">
      <g>
       <use xlink:href="#md281a09b60" x="274.943068" y="234.5525" style="fill: #ffffff; stroke: #000000; stroke-width: 2"/>
      </g>
     </g>
     <g id="line2d_10">
      <g>
       <use xlink:href="#mc47812925d" x="274.943068" y="11.759062" style="fill: #ffffff; stroke: #000000; stroke-width: 2"/>
      </g>
     </g>
     <g id="text_5">
      <!-- 0.8 -->
      <g transform="translate(265.401193 247.170625)scale(0.12 -0.12)">
       <defs>
        <path id="DejaVuSans-38" d="M 2034 2216 
Q 1584 2216 1326 1975 
Q 1069 1734 1069 1313 
Q 1069 891 1326 650 
Q 1584 409 2034 409 
Q 2484 409 2743 651 
Q 3003 894 3003 1313 
Q 3003 1734 2745 1975 
Q 2488 2216 2034 2216 
z
M 1403 2484 
Q 997 2584 770 2862 
Q 544 3141 544 3541 
Q 544 4100 942 4425 
Q 1341 4750 2034 4750 
Q 2731 4750 3128 4425 
Q 3525 4100 3525 3541 
Q 3525 3141 3298 2862 
Q 3072 2584 2669 2484 
Q 3125 2378 3379 2068 
Q 3634 1759 3634 1313 
Q 3634 634 3220 271 
Q 2806 -91 2034 -91 
Q 1263 -91 848 271 
Q 434 634 434 1313 
Q 434 1759 690 2068 
Q 947 2378 1403 2484 
z
M 1172 3481 
Q 1172 3119 1398 2916 
Q 1625 2713 2034 2713 
Q 2441 2713 2670 2916 
Q 2900 3119 2900 3481 
Q 2900 3844 2670 4047 
Q 2441 4250 2034 4250 
Q 1625 4250 1398 4047 
Q 1172 3844 1172 3481 
z
" transform="scale(0.015625)"/>
       </defs>
       <use xlink:href="#DejaVuSans-30"/>
       <use xlink:href="#DejaVuSans-2e" x="63.623047"/>
       <use xlink:href="#DejaVuSans-38" x="95.410156"/>
      </g>
     </g>
    </g>
    <g id="xtick_6">
     <g id="line2d_11">
      <g>
       <use xlink:href="#md281a09b60" x="328.012614" y="234.5525" style="fill: #ffffff; stroke: #000000; stroke-width: 2"/>
      </g>
     </g>
     <g id="line2d_12">
      <g>
       <use xlink:href="#mc47812925d" x="328.012614" y="11.759062" style="fill: #ffffff; stroke: #000000; stroke-width: 2"/>
      </g>
     </g>
     <g id="text_6">
      <!-- 1.0 -->
      <g transform="translate(318.470739 247.170625)scale(0.12 -0.12)">
       <defs>
        <path id="DejaVuSans-31" d="M 794 531 
L 1825 531 
L 1825 4091 
L 703 3866 
L 703 4441 
L 1819 4666 
L 2450 4666 
L 2450 531 
L 3481 531 
L 3481 0 
L 794 0 
L 794 531 
z
" transform="scale(0.015625)"/>
       </defs>
       <use xlink:href="#DejaVuSans-31"/>
       <use xlink:href="#DejaVuSans-2e" x="63.623047"/>
       <use xlink:href="#DejaVuSans-30" x="95.410156"/>
      </g>
     </g>
    </g>
    <g id="text_7">
     <!-- Fractional distance along given axis -->
     <g transform="translate(87.823438 266.784375)scale(0.12 -0.12)">
      <defs>
       <path id="DejaVuSans-46" d="M 628 4666 
L 3309 4666 
L 3309 4134 
L 1259 4134 
L 1259 2759 
L 3109 2759 
L 3109 2228 
L 1259 2228 
L 1259 0 
L 628 0 
L 628 4666 
z
" transform="scale(0.015625)"/>
       <path id="DejaVuSans-72" d="M 2631 2963 
Q 2534 3019 2420 3045 
Q 2306 3072 2169 3072 
Q 1681 3072 1420 2755 
Q 1159 2438 1159 1844 
L 1159 0 
L 581 0 
L 581 3500 
L 1159 3500 
L 1159 2956 
Q 1341 3275 1631 3429 
Q 1922 3584 2338 3584 
Q 2397 3584 2469 3576 
Q 2541 3569 2628 3553 
L 2631 2963 
z
" transform="scale(0.015625)"/>
       <path id="DejaVuSans-61" d="M 2194 1759 
Q 1497 1759 1228 1600 
Q 959 1441 959 1056 
Q 959 750 1161 570 
Q 1363 391 1709 391 
Q 2188 391 2477 730 
Q 2766 1069 2766 1631 
L 2766 1759 
L 2194 1759 
z
M 3341 1997 
L 3341 0 
L 2766 0 
L 2766 531 
Q 2569 213 2275 61 
Q 1981 -91 1556 -91 
Q 1019 -91 701 211 
Q 384 513 384 1019 
Q 384 1609 779 1909 
Q 1175 2209 1959 2209 
L 2766 2209 
L 2766 2266 
Q 2766 2663 2505 2880 
Q 2244 3097 1772 3097 
Q 1472 3097 1187 3025 
Q 903 2953 641 2809 
L 641 3341 
Q 956 3463 1253 3523 
Q 1550 3584 1831 3584 
Q 2591 3584 2966 3190 
Q 3341 2797 3341 1997 
z
" transform="scale(0.015625)"/>
       <path id="DejaVuSans-63" d="M 3122 3366 
L 3122 2828 
Q 2878 2963 2633 3030 
Q 2388 3097 2138 3097 
Q 1578 3097 1268 2742 
Q 959 2388 959 1747 
Q 959 1106 1268 751 
Q 1578 397 2138 397 
Q 2388 397 2633 464 
Q 2878 531 3122 666 
L 3122 134 
Q 2881 22 2623 -34 
Q 2366 -91 2075 -91 
Q 1284 -91 818 406 
Q 353 903 353 1747 
Q 353 2603 823 3093 
Q 1294 3584 2113 3584 
Q 2378 3584 2631 3529 
Q 2884 3475 3122 3366 
z
" transform="scale(0.015625)"/>
       <path id="DejaVuSans-74" d="M 1172 4494 
L 1172 3500 
L 2356 3500 
L 2356 3053 
L 1172 3053 
L 1172 1153 
Q 1172 725 1289 603 
Q 1406 481 1766 481 
L 2356 481 
L 2356 0 
L 1766 0 
Q 1100 0 847 248 
Q 594 497 594 1153 
L 594 3053 
L 172 3053 
L 172 3500 
L 594 3500 
L 594 4494 
L 1172 4494 
z
" transform="scale(0.015625)"/>
       <path id="DejaVuSans-69" d="M 603 3500 
L 1178 3500 
L 1178 0 
L 603 0 
L 603 3500 
z
M 603 4863 
L 1178 4863 
L 1178 4134 
L 603 4134 
L 603 4863 
z
" transform="scale(0.015625)"/>
       <path id="DejaVuSans-6f" d="M 1959 3097 
Q 1497 3097 1228 2736 
Q 959 2375 959 1747 
Q 959 1119 1226 758 
Q 1494 397 1959 397 
Q 2419 397 2687 759 
Q 2956 1122 2956 1747 
Q 2956 2369 2687 2733 
Q 2419 3097 1959 3097 
z
M 1959 3584 
Q 2709 3584 3137 3096 
Q 3566 2609 3566 1747 
Q 3566 888 3137 398 
Q 2709 -91 1959 -91 
Q 1206 -91 779 398 
Q 353 888 353 1747 
Q 353 2609 779 3096 
Q 1206 3584 1959 3584 
z
" transform="scale(0.015625)"/>
       <path id="DejaVuSans-6e" d="M 3513 2113 
L 3513 0 
L 2938 0 
L 2938 2094 
Q 2938 2591 2744 2837 
Q 2550 3084 2163 3084 
Q 1697 3084 1428 2787 
Q 1159 2491 1159 1978 
L 1159 0 
L 581 0 
L 581 3500 
L 1159 3500 
L 1159 2956 
Q 1366 3272 1645 3428 
Q 1925 3584 2291 3584 
Q 2894 3584 3203 3211 
Q 3513 2838 3513 2113 
z
" transform="scale(0.015625)"/>
       <path id="DejaVuSans-6c" d="M 603 4863 
L 1178 4863 
L 1178 0 
L 603 0 
L 603 4863 
z
" transform="scale(0.015625)"/>
       <path id="DejaVuSans-20" transform="scale(0.015625)"/>
       <path id="DejaVuSans-64" d="M 2906 2969 
L 2906 4863 
L 3481 4863 
L 3481 0 
L 2906 0 
L 2906 525 
Q 2725 213 2448 61 
Q 2172 -91 1784 -91 
Q 1150 -91 751 415 
Q 353 922 353 1747 
Q 353 2572 751 3078 
Q 1150 3584 1784 3584 
Q 2172 3584 2448 3432 
Q 2725 3281 2906 2969 
z
M 947 1747 
Q 947 1113 1208 752 
Q 1469 391 1925 391 
Q 2381 391 2643 752 
Q 2906 1113 2906 1747 
Q 2906 2381 2643 2742 
Q 2381 3103 1925 3103 
Q 1469 3103 1208 2742 
Q 947 2381 947 1747 
z
" transform="scale(0.015625)"/>
       <path id="DejaVuSans-73" d="M 2834 3397 
L 2834 2853 
Q 2591 2978 2328 3040 
Q 2066 3103 1784 3103 
Q 1356 3103 1142 2972 
Q 928 2841 928 2578 
Q 928 2378 1081 2264 
Q 1234 2150 1697 2047 
L 1894 2003 
Q 2506 1872 2764 1633 
Q 3022 1394 3022 966 
Q 3022 478 2636 193 
Q 2250 -91 1575 -91 
Q 1294 -91 989 -36 
Q 684 19 347 128 
L 347 722 
Q 666 556 975 473 
Q 1284 391 1588 391 
Q 1994 391 2212 530 
Q 2431 669 2431 922 
Q 2431 1156 2273 1281 
Q 2116 1406 1581 1522 
L 1381 1569 
Q 847 1681 609 1914 
Q 372 2147 372 2553 
Q 372 3047 722 3315 
Q 1072 3584 1716 3584 
Q 2034 3584 2315 3537 
Q 2597 3491 2834 3397 
z
" transform="scale(0.015625)"/>
       <path id="DejaVuSans-65" d="M 3597 1894 
L 3597 1613 
L 953 1613 
Q 991 1019 1311 708 
Q 1631 397 2203 397 
Q 2534 397 2845 478 
Q 3156 559 3463 722 
L 3463 178 
Q 3153 47 2828 -22 
Q 2503 -91 2169 -91 
Q 1331 -91 842 396 
Q 353 884 353 1716 
Q 353 2575 817 3079 
Q 1281 3584 2069 3584 
Q 2775 3584 3186 3129 
Q 3597 2675 3597 1894 
z
M 3022 2063 
Q 3016 2534 2758 2815 
Q 2500 3097 2075 3097 
Q 1594 3097 1305 2825 
Q 1016 2553 972 2059 
L 3022 2063 
z
" transform="scale(0.015625)"/>
       <path id="DejaVuSans-67" d="M 2906 1791 
Q 2906 2416 2648 2759 
Q 2391 3103 1925 3103 
Q 1463 3103 1205 2759 
Q 947 2416 947 1791 
Q 947 1169 1205 825 
Q 1463 481 1925 481 
Q 2391 481 2648 825 
Q 2906 1169 2906 1791 
z
M 3481 434 
Q 3481 -459 3084 -895 
Q 2688 -1331 1869 -1331 
Q 1566 -1331 1297 -1286 
Q 1028 -1241 775 -1147 
L 775 -588 
Q 1028 -725 1275 -790 
Q 1522 -856 1778 -856 
Q 2344 -856 2625 -561 
Q 2906 -266 2906 331 
L 2906 616 
Q 2728 306 2450 153 
Q 2172 0 1784 0 
Q 1141 0 747 490 
Q 353 981 353 1791 
Q 353 2603 747 3093 
Q 1141 3584 1784 3584 
Q 2172 3584 2450 3431 
Q 2728 3278 2906 2969 
L 2906 3500 
L 3481 3500 
L 3481 434 
z
" transform="scale(0.015625)"/>
       <path id="DejaVuSans-76" d="M 191 3500 
L 800 3500 
L 1894 563 
L 2988 3500 
L 3597 3500 
L 2284 0 
L 1503 0 
L 191 3500 
z
" transform="scale(0.015625)"/>
       <path id="DejaVuSans-78" d="M 3513 3500 
L 2247 1797 
L 3578 0 
L 2900 0 
L 1881 1375 
L 863 0 
L 184 0 
L 1544 1831 
L 300 3500 
L 978 3500 
L 1906 2253 
L 2834 3500 
L 3513 3500 
z
" transform="scale(0.015625)"/>
      </defs>
      <use xlink:href="#DejaVuSans-46"/>
      <use xlink:href="#DejaVuSans-72" x="50.269531"/>
      <use xlink:href="#DejaVuSans-61" x="91.382812"/>
      <use xlink:href="#DejaVuSans-63" x="152.662109"/>
      <use xlink:href="#DejaVuSans-74" x="207.642578"/>
      <use xlink:href="#DejaVuSans-69" x="246.851562"/>
      <use xlink:href="#DejaVuSans-6f" x="274.634766"/>
      <use xlink:href="#DejaVuSans-6e" x="335.816406"/>
      <use xlink:href="#DejaVuSans-61" x="399.195312"/>
      <use xlink:href="#DejaVuSans-6c" x="460.474609"/>
      <use xlink:href="#DejaVuSans-20" x="488.257812"/>
      <use xlink:href="#DejaVuSans-64" x="520.044922"/>
      <use xlink:href="#DejaVuSans-69" x="583.521484"/>
      <use xlink:href="#DejaVuSans-73" x="611.304688"/>
      <use xlink:href="#DejaVuSans-74" x="663.404297"/>
      <use xlink:href="#DejaVuSans-61" x="702.613281"/>
      <use xlink:href="#DejaVuSans-6e" x="763.892578"/>
      <use xlink:href="#DejaVuSans-63" x="827.271484"/>
      <use xlink:href="#DejaVuSans-65" x="882.251953"/>
      <use xlink:href="#DejaVuSans-20" x="943.775391"/>
      <use xlink:href="#DejaVuSans-61" x="975.5625"/>
      <use xlink:href="#DejaVuSans-6c" x="1036.841797"/>
      <use xlink:href="#DejaVuSans-6f" x="1064.625"/>
      <use xlink:href="#DejaVuSans-6e" x="1125.806641"/>
      <use xlink:href="#DejaVuSans-67" x="1189.185547"/>
      <use xlink:href="#DejaVuSans-20" x="1252.662109"/>
      <use xlink:href="#DejaVuSans-67" x="1284.449219"/>
      <use xlink:href="#DejaVuSans-69" x="1347.925781"/>
      <use xlink:href="#DejaVuSans-76" x="1375.708984"/>
      <use xlink:href="#DejaVuSans-65" x="1434.888672"/>
      <use xlink:href="#DejaVuSans-6e" x="1496.412109"/>
      <use xlink:href="#DejaVuSans-20" x="1559.791016"/>
      <use xlink:href="#DejaVuSans-61" x="1591.578125"/>
      <use xlink:href="#DejaVuSans-78" x="1652.857422"/>
      <use xlink:href="#DejaVuSans-69" x="1712.037109"/>
      <use xlink:href="#DejaVuSans-73" x="1739.820312"/>
     </g>
    </g>
   </g>
   <g id="matplotlib.axis_2">
    <g id="ytick_1">
     <g id="line2d_13">
      <defs>
       <path id="med603ddc7d" d="M 0 0 
L 6 0 
" style="stroke: #000000; stroke-width: 2"/>
      </defs>
      <g>
       <use xlink:href="#med603ddc7d" x="49.3975" y="234.5525" style="fill: #ffffff; stroke: #000000; stroke-width: 2"/>
      </g>
     </g>
     <g id="line2d_14">
      <defs>
       <path id="m92627fdb36" d="M 0 0 
L -6 0 
" style="stroke: #000000; stroke-width: 2"/>
      </defs>
      <g>
       <use xlink:href="#m92627fdb36" x="341.28" y="234.5525" style="fill: #ffffff; stroke: #000000; stroke-width: 2"/>
      </g>
     </g>
     <g id="text_8">
      <!-- 0.0 -->
      <g transform="translate(26.81375 239.111562)scale(0.12 -0.12)">
       <use xlink:href="#DejaVuSans-30"/>
       <use xlink:href="#DejaVuSans-2e" x="63.623047"/>
       <use xlink:href="#DejaVuSans-30" x="95.410156"/>
      </g>
     </g>
    </g>
    <g id="ytick_2">
     <g id="line2d_15">
      <g>
       <use xlink:href="#med603ddc7d" x="49.3975" y="189.993812" style="fill: #ffffff; stroke: #000000; stroke-width: 2"/>
      </g>
     </g>
     <g id="line2d_16">
      <g>
       <use xlink:href="#m92627fdb36" x="341.28" y="189.993812" style="fill: #ffffff; stroke: #000000; stroke-width: 2"/>
      </g>
     </g>
     <g id="text_9">
      <!-- 0.2 -->
      <g transform="translate(26.81375 194.552875)scale(0.12 -0.12)">
       <use xlink:href="#DejaVuSans-30"/>
       <use xlink:href="#DejaVuSans-2e" x="63.623047"/>
       <use xlink:href="#DejaVuSans-32" x="95.410156"/>
      </g>
     </g>
    </g>
    <g id="ytick_3">
     <g id="line2d_17">
      <g>
       <use xlink:href="#med603ddc7d" x="49.3975" y="145.435125" style="fill: #ffffff; stroke: #000000; stroke-width: 2"/>
      </g>
     </g>
     <g id="line2d_18">
      <g>
       <use xlink:href="#m92627fdb36" x="341.28" y="145.435125" style="fill: #ffffff; stroke: #000000; stroke-width: 2"/>
      </g>
     </g>
     <g id="text_10">
      <!-- 0.4 -->
      <g transform="translate(26.81375 149.994187)scale(0.12 -0.12)">
       <use xlink:href="#DejaVuSans-30"/>
       <use xlink:href="#DejaVuSans-2e" x="63.623047"/>
       <use xlink:href="#DejaVuSans-34" x="95.410156"/>
      </g>
     </g>
    </g>
    <g id="ytick_4">
     <g id="line2d_19">
      <g>
       <use xlink:href="#med603ddc7d" x="49.3975" y="100.876437" style="fill: #ffffff; stroke: #000000; stroke-width: 2"/>
      </g>
     </g>
     <g id="line2d_20">
      <g>
       <use xlink:href="#m92627fdb36" x="341.28" y="100.876437" style="fill: #ffffff; stroke: #000000; stroke-width: 2"/>
      </g>
     </g>
     <g id="text_11">
      <!-- 0.6 -->
      <g transform="translate(26.81375 105.4355)scale(0.12 -0.12)">
       <use xlink:href="#DejaVuSans-30"/>
       <use xlink:href="#DejaVuSans-2e" x="63.623047"/>
       <use xlink:href="#DejaVuSans-36" x="95.410156"/>
      </g>
     </g>
    </g>
    <g id="ytick_5">
     <g id="line2d_21">
      <g>
       <use xlink:href="#med603ddc7d" x="49.3975" y="56.31775" style="fill: #ffffff; stroke: #000000; stroke-width: 2"/>
      </g>
     </g>
     <g id="line2d_22">
      <g>
       <use xlink:href="#m92627fdb36" x="341.28" y="56.31775" style="fill: #ffffff; stroke: #000000; stroke-width: 2"/>
      </g>
     </g>
     <g id="text_12">
      <!-- 0.8 -->
      <g transform="translate(26.81375 60.876812)scale(0.12 -0.12)">
       <use xlink:href="#DejaVuSans-30"/>
       <use xlink:href="#DejaVuSans-2e" x="63.623047"/>
       <use xlink:href="#DejaVuSans-38" x="95.410156"/>
      </g>
     </g>
    </g>
    <g id="ytick_6">
     <g id="line2d_23">
      <g>
       <use xlink:href="#med603ddc7d" x="49.3975" y="11.759062" style="fill: #ffffff; stroke: #000000; stroke-width: 2"/>
      </g>
     </g>
     <g id="line2d_24">
      <g>
       <use xlink:href="#m92627fdb36" x="341.28" y="11.759062" style="fill: #ffffff; stroke: #000000; stroke-width: 2"/>
      </g>
     </g>
     <g id="text_13">
      <!-- 1.0 -->
      <g transform="translate(26.81375 16.318125)scale(0.12 -0.12)">
       <use xlink:href="#DejaVuSans-31"/>
       <use xlink:href="#DejaVuSans-2e" x="63.623047"/>
       <use xlink:href="#DejaVuSans-30" x="95.410156"/>
      </g>
     </g>
    </g>
    <g id="text_14">
     <!-- Porosity of slice -->
     <g transform="translate(16.318125 169.973594)rotate(-90)scale(0.12 -0.12)">
      <defs>
       <path id="DejaVuSans-50" d="M 1259 4147 
L 1259 2394 
L 2053 2394 
Q 2494 2394 2734 2622 
Q 2975 2850 2975 3272 
Q 2975 3691 2734 3919 
Q 2494 4147 2053 4147 
L 1259 4147 
z
M 628 4666 
L 2053 4666 
Q 2838 4666 3239 4311 
Q 3641 3956 3641 3272 
Q 3641 2581 3239 2228 
Q 2838 1875 2053 1875 
L 1259 1875 
L 1259 0 
L 628 0 
L 628 4666 
z
" transform="scale(0.015625)"/>
       <path id="DejaVuSans-79" d="M 2059 -325 
Q 1816 -950 1584 -1140 
Q 1353 -1331 966 -1331 
L 506 -1331 
L 506 -850 
L 844 -850 
Q 1081 -850 1212 -737 
Q 1344 -625 1503 -206 
L 1606 56 
L 191 3500 
L 800 3500 
L 1894 763 
L 2988 3500 
L 3597 3500 
L 2059 -325 
z
" transform="scale(0.015625)"/>
       <path id="DejaVuSans-66" d="M 2375 4863 
L 2375 4384 
L 1825 4384 
Q 1516 4384 1395 4259 
Q 1275 4134 1275 3809 
L 1275 3500 
L 2222 3500 
L 2222 3053 
L 1275 3053 
L 1275 0 
L 697 0 
L 697 3053 
L 147 3053 
L 147 3500 
L 697 3500 
L 697 3744 
Q 697 4328 969 4595 
Q 1241 4863 1831 4863 
L 2375 4863 
z
" transform="scale(0.015625)"/>
      </defs>
      <use xlink:href="#DejaVuSans-50"/>
      <use xlink:href="#DejaVuSans-6f" x="56.677734"/>
      <use xlink:href="#DejaVuSans-72" x="117.859375"/>
      <use xlink:href="#DejaVuSans-6f" x="156.722656"/>
      <use xlink:href="#DejaVuSans-73" x="217.904297"/>
      <use xlink:href="#DejaVuSans-69" x="270.003906"/>
      <use xlink:href="#DejaVuSans-74" x="297.787109"/>
      <use xlink:href="#DejaVuSans-79" x="336.996094"/>
      <use xlink:href="#DejaVuSans-20" x="396.175781"/>
      <use xlink:href="#DejaVuSans-6f" x="427.962891"/>
      <use xlink:href="#DejaVuSans-66" x="489.144531"/>
      <use xlink:href="#DejaVuSans-20" x="524.349609"/>
      <use xlink:href="#DejaVuSans-73" x="556.136719"/>
      <use xlink:href="#DejaVuSans-6c" x="608.236328"/>
      <use xlink:href="#DejaVuSans-69" x="636.019531"/>
      <use xlink:href="#DejaVuSans-63" x="663.802734"/>
      <use xlink:href="#DejaVuSans-65" x="718.783203"/>
     </g>
    </g>
   </g>
   <g id="line2d_25">
    <path d="M 62.664886 132.540955 
L 65.331698 132.676487 
L 70.66532 133.216762 
L 71.998726 132.92156 
L 75.998943 131.772317 
L 79.99916 129.277031 
L 81.332566 128.707051 
L 82.665971 128.408137 
L 85.332783 129.19534 
L 86.666188 129.369862 
L 87.999594 129.145211 
L 89.333 128.376574 
L 91.999811 127.344298 
L 93.333217 126.724189 
L 94.666622 125.587943 
L 96.000028 124.290171 
L 97.333434 123.517821 
L 98.666839 123.43613 
L 100.000245 123.690485 
L 101.333651 123.629217 
L 104.000462 123.883573 
L 105.333868 124.362579 
L 108.000679 126.070662 
L 109.334085 126.622076 
L 110.66749 126.991542 
L 112.000896 127.132644 
L 114.667707 126.906137 
L 116.001113 126.371433 
L 117.334519 125.604652 
L 118.667924 124.431274 
L 120.00133 122.85501 
L 121.334736 121.867293 
L 122.668141 120.543528 
L 124.001547 119.581803 
L 125.334953 119.035959 
L 126.668358 118.77232 
L 129.33517 117.697342 
L 132.001981 117.051241 
L 134.668792 118.369436 
L 136.002198 118.77232 
L 137.335604 118.738901 
L 138.669009 119.165922 
L 140.002415 119.735902 
L 146.669443 123.690485 
L 148.002849 124.754324 
L 150.66966 127.212478 
L 152.003066 128.06095 
L 153.336472 128.668062 
L 154.669877 129.663206 
L 156.003283 130.832872 
L 157.336689 131.267319 
L 160.0035 133.019961 
L 162.670311 133.758892 
L 164.003717 133.870289 
L 165.337123 133.781172 
L 168.003934 132.70805 
L 169.33734 131.846582 
L 172.004151 130.986971 
L 173.337557 130.76789 
L 178.671179 132.36272 
L 180.004585 132.954979 
L 181.337991 133.424702 
L 182.671396 133.630786 
L 184.004802 134.05595 
L 185.338208 134.243468 
L 186.671613 133.838727 
L 188.005019 133.233471 
L 193.338642 128.597511 
L 194.672047 127.119648 
L 198.672264 121.746613 
L 200.00567 120.519392 
L 202.672481 118.638644 
L 204.005887 117.821735 
L 208.006104 116.63536 
L 210.672915 116.275177 
L 212.006321 116.2956 
L 214.673132 115.671778 
L 216.006538 115.768322 
L 217.339943 116.093229 
L 220.006755 116.27889 
L 222.673566 117.151498 
L 224.006972 116.893429 
L 228.007189 115.766466 
L 233.340811 114.841873 
L 234.674217 114.834446 
L 237.341028 114.381433 
L 238.674434 114.050956 
L 240.00784 113.486546 
L 241.341245 113.425278 
L 242.674651 113.959982 
L 244.008057 114.271893 
L 245.341462 114.830733 
L 246.674868 115.558525 
L 248.008274 116.453412 
L 249.341679 117.019679 
L 250.675085 117.006682 
L 252.008491 116.303026 
L 254.675302 115.118508 
L 256.008708 113.841159 
L 257.342113 112.946272 
L 258.675519 112.658497 
L 260.008925 112.55267 
L 262.675736 111.425707 
L 264.009142 110.586518 
L 265.342547 110.146501 
L 268.009359 110.64593 
L 270.67617 112.316881 
L 272.009576 113.581233 
L 274.676387 116.691058 
L 276.009793 118.22462 
L 277.343198 119.56695 
L 278.676604 120.721763 
L 280.01001 122.374148 
L 281.343415 123.787029 
L 282.676821 124.99197 
L 284.010227 125.779174 
L 288.010444 127.641356 
L 289.343849 127.990399 
L 290.677255 128.020105 
L 292.010661 127.875289 
L 293.344066 127.50768 
L 294.677472 126.46612 
L 297.344283 124.78403 
L 300.011095 123.259752 
L 301.3445 122.648926 
L 302.677906 121.629646 
L 304.011312 120.838729 
L 305.344717 120.744042 
L 306.678123 121.232331 
L 308.011529 121.869149 
L 310.67834 122.390857 
L 312.011746 122.420563 
L 313.345151 122.112365 
L 314.678557 122.18663 
L 317.345368 123.064807 
L 320.01218 122.803025 
L 322.678991 122.528246 
L 326.679208 122.374148 
L 328.012614 122.461408 
L 328.012614 122.461408 
" clip-path="url(#p6f0d0a854b)" style="fill: none; stroke: #0000ff; stroke-opacity: 0.5; stroke-width: 2; stroke-linecap: square"/>
   </g>
   <g id="line2d_26">
    <path d="M 62.664886 110.82138 
L 64.439788 110.261611 
L 65.327238 109.810454 
L 66.214689 109.813239 
L 67.102139 110.005399 
L 67.98959 110.375793 
L 69.764491 110.97455 
L 71.539392 110.955056 
L 73.314293 109.880077 
L 75.089195 108.236976 
L 75.976645 107.771894 
L 76.864096 108.298244 
L 77.751546 109.696273 
L 80.413898 115.461053 
L 82.188799 118.905996 
L 83.07625 119.911352 
L 83.963701 120.632646 
L 85.738602 121.777247 
L 86.626052 122.949697 
L 87.513503 123.509466 
L 88.400954 123.411994 
L 90.175855 124.381145 
L 91.063305 125.002182 
L 91.950756 125.183202 
L 92.838207 126.135643 
L 94.613108 127.625575 
L 96.388009 128.140784 
L 97.275459 128.079516 
L 98.16291 127.826089 
L 99.050361 127.987614 
L 100.825262 127.374932 
L 102.600163 126.402996 
L 103.487614 126.182987 
L 104.375064 126.553381 
L 105.262515 126.233116 
L 106.149965 125.085729 
L 107.924867 121.49597 
L 108.812317 119.980975 
L 109.699768 119.758181 
L 110.587218 118.878147 
L 111.474669 118.259895 
L 112.36212 116.981618 
L 114.137021 115.399785 
L 115.024471 114.639502 
L 115.911922 114.53646 
L 116.799373 114.814952 
L 117.686823 115.397 
L 118.574274 115.692201 
L 119.461724 116.204626 
L 121.236625 116.842372 
L 122.124076 116.847942 
L 123.011527 117.421635 
L 123.898977 118.156853 
L 126.561329 117.917351 
L 127.44878 118.012038 
L 129.223681 118.880932 
L 130.111131 119.11765 
L 130.998582 118.424206 
L 131.886033 118.329518 
L 132.773483 117.519107 
L 133.660934 116.483118 
L 134.548384 114.976477 
L 135.435835 114.923564 
L 136.323286 115.770179 
L 138.098187 118.218122 
L 139.873088 119.229047 
L 140.760539 119.237402 
L 141.647989 118.808524 
L 142.53544 118.922706 
L 143.42289 118.853083 
L 144.310341 119.184488 
L 145.197792 120.086802 
L 146.085242 120.727333 
L 146.972693 121.735473 
L 147.860143 122.348155 
L 149.635044 122.980331 
L 151.409946 124.322662 
L 152.297396 124.779388 
L 154.072297 125.965763 
L 154.959748 126.0883 
L 155.847199 126.865292 
L 156.734649 127.015678 
L 157.6221 127.015678 
L 158.50955 128.227117 
L 159.397001 127.840013 
L 160.284452 126.489328 
L 161.171902 125.367006 
L 162.059353 124.796098 
L 163.834254 122.726904 
L 164.721705 122.061308 
L 165.609155 122.286887 
L 166.496606 123.080588 
L 167.384056 123.509466 
L 168.271507 123.609723 
L 169.158958 123.217049 
L 170.046408 122.994256 
L 170.933859 122.643356 
L 171.821309 122.768678 
L 174.483661 121.468121 
L 175.371112 121.270392 
L 176.258562 121.596227 
L 177.146013 122.323091 
L 178.033463 123.222619 
L 178.920914 123.790743 
L 179.808365 124.21962 
L 180.695815 124.314307 
L 181.583266 124.654067 
L 182.470716 124.562165 
L 183.358167 124.993827 
L 184.245618 125.224975 
L 185.133068 125.606509 
L 186.020519 126.336158 
L 186.907969 127.567091 
L 187.79542 128.572447 
L 188.682871 129.020818 
L 189.570321 129.288171 
L 190.457772 129.402352 
L 192.232673 128.778531 
L 193.120124 127.881787 
L 194.007574 126.717691 
L 194.895025 125.336372 
L 195.782475 124.336586 
L 196.669926 123.144642 
L 197.557376 122.545884 
L 198.444827 123.094513 
L 199.332278 123.462122 
L 200.219728 124.155567 
L 202.88208 127.653424 
L 203.769531 128.447125 
L 204.656981 129.432986 
L 205.544432 130.246182 
L 206.431882 130.457836 
L 208.206784 130.638856 
L 209.981685 132.705265 
L 211.756586 136.203122 
L 212.644037 137.715332 
L 215.306388 141.327371 
L 216.193839 141.839796 
L 217.08129 141.85929 
L 217.96874 140.86229 
L 218.856191 139.391853 
L 219.743641 137.687483 
L 220.631092 136.498323 
L 221.518542 135.690697 
L 224.180894 132.087013 
L 226.843246 127.789885 
L 230.393048 124.762679 
L 231.280499 123.826946 
L 232.16795 123.058309 
L 233.0554 122.632217 
L 233.942851 122.735259 
L 234.830301 122.593228 
L 236.605203 123.083373 
L 237.492653 123.052739 
L 238.380104 122.557024 
L 239.267554 121.65471 
L 241.929906 118.056596 
L 242.817357 117.279604 
L 243.704807 116.850727 
L 245.479708 115.619793 
L 246.367159 115.408139 
L 247.25461 115.917779 
L 248.14206 116.625149 
L 249.029511 117.739116 
L 252.579313 124.013536 
L 253.466764 125.197126 
L 255.241665 127.057451 
L 256.129116 127.828874 
L 257.016566 128.859293 
L 257.904017 129.614006 
L 258.791467 130.608222 
L 259.678918 131.268247 
L 260.566369 131.443697 
L 261.453819 131.399138 
L 262.34127 131.919918 
L 263.22872 131.67763 
L 264.116171 131.1847 
L 265.003622 131.012035 
L 265.891072 131.00368 
L 266.778523 131.145711 
L 267.665973 131.051024 
L 270.328325 129.875788 
L 271.215776 129.084872 
L 272.990677 126.993398 
L 273.878127 125.667777 
L 275.653029 122.300811 
L 277.42793 117.733546 
L 279.202831 113.021465 
L 280.090282 111.431277 
L 280.977732 110.442631 
L 281.865183 110.267181 
L 283.640084 112.082947 
L 284.527535 113.35844 
L 288.077337 122.807667 
L 288.964788 124.294813 
L 289.852238 125.236115 
L 290.739689 125.729045 
L 291.627139 126.389071 
L 292.51459 126.792884 
L 293.402041 127.358222 
L 296.064392 128.424846 
L 296.951843 128.377502 
L 299.614195 128.714478 
L 300.501645 129.14057 
L 302.276546 130.432772 
L 303.163997 130.190484 
L 304.051448 130.315805 
L 304.938898 130.207194 
L 305.826349 130.466191 
L 306.713799 130.443912 
L 307.60125 131.000895 
L 308.488701 130.619361 
L 309.376151 129.30488 
L 312.925954 122.426133 
L 313.813404 120.964051 
L 315.588305 118.816879 
L 316.475756 118.240401 
L 318.250657 118.26825 
L 319.138108 117.794814 
L 320.913009 117.808739 
L 321.800459 117.552526 
L 322.68791 117.92849 
L 323.575361 118.12065 
L 324.462811 118.003683 
L 325.350262 118.365722 
L 326.237712 118.605225 
L 327.125163 119.011823 
L 328.012614 119.156639 
L 328.012614 119.156639 
" clip-path="url(#p6f0d0a854b)" style="fill: none; stroke: #ff0000; stroke-opacity: 0.5; stroke-width: 2; stroke-linecap: square"/>
   </g>
   <g id="line2d_27">
    <path d="M 62.664886 122.442842 
L 64.659982 123.118649 
L 65.990046 123.913279 
L 68.650173 126.338014 
L 69.315205 126.928417 
L 69.980237 126.289742 
L 70.645269 125.357723 
L 72.640365 123.493685 
L 73.305397 123.397141 
L 73.970429 123.471405 
L 74.635461 123.939272 
L 75.300492 124.704196 
L 75.965524 124.652211 
L 76.630556 124.254896 
L 77.295588 123.519677 
L 78.625652 121.804168 
L 79.955716 119.390572 
L 80.620748 118.970978 
L 81.28578 119.145499 
L 82.615843 118.859581 
L 83.280875 118.191201 
L 83.945907 118.031532 
L 84.610939 118.020393 
L 85.275971 118.948699 
L 85.941003 119.631932 
L 87.271067 119.453697 
L 87.936098 119.654211 
L 88.60113 119.58366 
L 89.266162 118.829875 
L 89.931194 118.577376 
L 90.596226 119.390572 
L 91.261258 120.02182 
L 91.92629 120.300312 
L 92.591322 120.255753 
L 93.921386 120.779318 
L 94.586417 121.120935 
L 95.251449 121.666778 
L 96.581513 124.191771 
L 97.246545 125.92956 
L 97.911577 127.336871 
L 98.576609 128.343155 
L 99.241641 129.122932 
L 100.571705 131.280315 
L 101.236736 131.328587 
L 101.901768 130.34087 
L 102.5668 129.004109 
L 103.231832 128.863006 
L 103.896864 127.704481 
L 105.226928 124.351439 
L 105.89196 123.148355 
L 107.887055 121.013251 
L 108.552087 120.634502 
L 109.217119 122.023248 
L 111.212215 127.188342 
L 111.877247 129.178631 
L 112.542279 131.867005 
L 113.207311 133.567661 
L 113.872343 134.340012 
L 114.537374 134.503394 
L 115.867438 133.214905 
L 117.197502 132.479687 
L 117.862534 132.431415 
L 118.527566 132.936413 
L 119.192598 133.656779 
L 119.85763 133.519389 
L 120.522661 132.940126 
L 121.187693 132.69134 
L 122.517757 132.631929 
L 123.182789 132.353437 
L 124.512853 131.387999 
L 125.842917 129.026388 
L 126.507949 128.001539 
L 127.17298 127.864149 
L 127.838012 128.257751 
L 128.503044 128.914992 
L 129.833108 131.258036 
L 130.49814 132.100938 
L 131.163172 132.635642 
L 131.828204 133.385713 
L 132.493236 133.886998 
L 133.158268 134.083799 
L 134.488331 135.791882 
L 135.153363 136.408278 
L 135.818395 136.512248 
L 136.483427 135.702765 
L 137.813491 132.873288 
L 139.143555 130.775317 
L 140.473618 127.645069 
L 141.13865 126.935843 
L 141.803682 126.568234 
L 142.468714 126.037243 
L 143.133746 124.800739 
L 143.798778 124.228903 
L 144.46381 124.191771 
L 145.128842 123.976404 
L 146.458906 125.027246 
L 149.784065 126.798454 
L 150.449097 127.567091 
L 151.779161 129.5351 
L 152.444193 131.172632 
L 153.774256 133.441412 
L 154.439288 134.217475 
L 155.10432 134.314019 
L 155.769352 134.031814 
L 157.764448 132.045239 
L 158.42948 131.001823 
L 159.759543 129.349439 
L 160.424575 129.09694 
L 161.089607 129.445983 
L 161.754639 130.255465 
L 163.084703 130.069804 
L 165.079799 130.34087 
L 165.744831 130.845868 
L 166.409862 130.946125 
L 167.074894 130.79017 
L 167.739926 129.980687 
L 169.06999 129.999253 
L 169.735022 129.624217 
L 170.400054 129.54624 
L 171.730118 128.710764 
L 172.39515 127.581944 
L 174.390245 123.378575 
L 175.720309 121.399426 
L 177.715405 119.825019 
L 178.380437 120.909281 
L 179.045469 121.663065 
L 181.040564 123.107509 
L 181.705596 122.892142 
L 183.700692 120.59737 
L 184.365724 119.438844 
L 186.360819 117.563666 
L 187.690883 116.965837 
L 188.355915 116.861867 
L 189.020947 117.359439 
L 189.685979 118.488259 
L 190.351011 119.223477 
L 191.016043 120.300312 
L 192.346106 123.400854 
L 193.011138 125.539671 
L 193.67617 126.987828 
L 194.341202 127.50768 
L 195.671266 127.626503 
L 196.336298 126.839299 
L 197.00133 125.027246 
L 197.666362 123.998683 
L 198.331394 123.434273 
L 198.996425 123.445413 
L 199.661457 123.178061 
L 200.326489 123.114936 
L 200.991521 123.207766 
L 202.321585 122.249755 
L 202.986617 121.399426 
L 204.316681 118.183774 
L 205.646744 115.194629 
L 206.311776 114.065809 
L 206.976808 113.527392 
L 207.64184 113.152356 
L 208.306872 114.04353 
L 208.971904 113.946986 
L 210.301968 112.677063 
L 211.632031 110.341445 
L 212.962095 108.696487 
L 213.627127 107.953842 
L 214.292159 107.601086 
L 215.622223 107.530535 
L 216.952287 106.056385 
L 218.947382 104.86444 
L 219.612414 105.076094 
L 220.942478 104.998116 
L 221.60751 104.689919 
L 222.272542 104.526537 
L 222.937574 104.708485 
L 223.602606 105.291461 
L 224.267638 105.310027 
L 224.932669 105.217196 
L 225.597701 105.488262 
L 226.262733 106.09723 
L 226.927765 106.487119 
L 227.592797 106.390575 
L 228.257829 106.416568 
L 228.922861 105.770467 
L 229.587893 104.894146 
L 230.252925 104.389147 
L 230.917957 104.667639 
L 231.582988 105.1058 
L 232.24802 105.217196 
L 232.913052 105.536534 
L 233.578084 106.230906 
L 234.243116 106.706199 
L 234.908148 106.743331 
L 236.903244 107.641932 
L 237.568276 107.612226 
L 238.898339 108.14693 
L 239.563371 108.83759 
L 240.228403 108.325165 
L 240.893435 108.13579 
L 241.558467 108.904428 
L 242.223499 110.664496 
L 242.888531 111.722765 
L 243.553563 111.915852 
L 244.883626 112.695629 
L 245.548658 113.475406 
L 246.21369 114.70077 
L 248.208786 119.520535 
L 249.53885 121.59994 
L 250.203882 122.260894 
L 250.868913 123.237472 
L 251.533945 124.447983 
L 252.198977 125.305738 
L 252.864009 126.880145 
L 253.529041 128.978116 
L 254.859105 132.156636 
L 255.524137 132.780458 
L 256.189169 133.014391 
L 256.854201 132.832443 
L 257.519232 132.802737 
L 258.184264 133.422845 
L 258.849296 134.533099 
L 260.17936 136.010963 
L 261.509424 137.45912 
L 262.174456 137.251179 
L 262.839488 136.152065 
L 263.50452 134.763319 
L 264.169551 133.950123 
L 266.164647 127.214335 
L 268.159743 121.618507 
L 270.81987 116.096943 
L 271.484902 115.766466 
L 272.814966 115.369151 
L 275.475094 111.741331 
L 276.140126 111.295744 
L 276.805157 110.664496 
L 277.470189 110.51968 
L 280.130317 108.406856 
L 281.460381 107.786747 
L 282.790445 106.646788 
L 283.455476 106.832449 
L 284.120508 107.23719 
L 284.78554 107.957556 
L 285.450572 109.000972 
L 286.115604 109.699058 
L 286.780636 111.09523 
L 287.445668 113.297172 
L 290.770827 126.144927 
L 292.765923 132.813877 
L 293.430955 134.139498 
L 294.095987 135.06409 
L 294.761019 135.301737 
L 295.426051 134.934128 
L 296.091083 134.7299 
L 297.421146 133.950123 
L 298.75121 132.561378 
L 299.416242 132.25318 
L 300.081274 132.078658 
L 300.746306 130.645354 
L 301.411338 129.494255 
L 302.07637 128.933558 
L 302.741402 128.926131 
L 303.406433 129.564806 
L 304.071465 130.827302 
L 304.736497 131.774174 
L 305.401529 132.353437 
L 306.066561 132.487113 
L 306.731593 132.201195 
L 307.396625 130.775317 
L 310.056752 126.208051 
L 310.721784 125.665921 
L 311.386816 125.283459 
L 312.051848 125.205481 
L 312.71688 125.328017 
L 314.046944 125.985258 
L 314.711976 126.059522 
L 316.042039 124.889857 
L 316.707071 124.715335 
L 318.702167 125.576803 
L 320.032231 127.541099 
L 320.697263 128.955837 
L 322.027327 133.556522 
L 322.692358 135.513391 
L 324.022422 138.309448 
L 324.687454 139.505106 
L 325.352486 140.010105 
L 328.012614 140.013818 
L 328.012614 140.013818 
" clip-path="url(#p6f0d0a854b)" style="fill: none; stroke: #008000; stroke-opacity: 0.5; stroke-width: 2; stroke-linecap: square"/>
   </g>
   <g id="patch_3">
    <path d="M 49.3975 234.5525 
L 49.3975 11.759062 
" style="fill: none; stroke: #000000; stroke-width: 2; stroke-linejoin: miter; stroke-linecap: square"/>
   </g>
   <g id="patch_4">
    <path d="M 341.28 234.5525 
L 341.28 11.759062 
" style="fill: none; stroke: #000000; stroke-width: 2; stroke-linejoin: miter; stroke-linecap: square"/>
   </g>
   <g id="patch_5">
    <path d="M 49.3975 234.5525 
L 341.28 234.5525 
" style="fill: none; stroke: #000000; stroke-width: 2; stroke-linejoin: miter; stroke-linecap: square"/>
   </g>
   <g id="patch_6">
    <path d="M 49.3975 11.759062 
L 341.28 11.759062 
" style="fill: none; stroke: #000000; stroke-width: 2; stroke-linejoin: miter; stroke-linecap: square"/>
   </g>
   <g id="legend_1">
    <g id="line2d_28">
     <path d="M 245.26125 27.477188 
L 257.26125 27.477188 
L 269.26125 27.477188 
" style="fill: none; stroke: #0000ff; stroke-opacity: 0.5; stroke-width: 2; stroke-linecap: square"/>
    </g>
    <g id="text_15">
     <!-- yz-plane -->
     <g transform="translate(278.86125 31.677188)scale(0.12 -0.12)">
      <defs>
       <path id="DejaVuSans-7a" d="M 353 3500 
L 3084 3500 
L 3084 2975 
L 922 459 
L 3084 459 
L 3084 0 
L 275 0 
L 275 525 
L 2438 3041 
L 353 3041 
L 353 3500 
z
" transform="scale(0.015625)"/>
       <path id="DejaVuSans-2d" d="M 313 2009 
L 1997 2009 
L 1997 1497 
L 313 1497 
L 313 2009 
z
" transform="scale(0.015625)"/>
       <path id="DejaVuSans-70" d="M 1159 525 
L 1159 -1331 
L 581 -1331 
L 581 3500 
L 1159 3500 
L 1159 2969 
Q 1341 3281 1617 3432 
Q 1894 3584 2278 3584 
Q 2916 3584 3314 3078 
Q 3713 2572 3713 1747 
Q 3713 922 3314 415 
Q 2916 -91 2278 -91 
Q 1894 -91 1617 61 
Q 1341 213 1159 525 
z
M 3116 1747 
Q 3116 2381 2855 2742 
Q 2594 3103 2138 3103 
Q 1681 3103 1420 2742 
Q 1159 2381 1159 1747 
Q 1159 1113 1420 752 
Q 1681 391 2138 391 
Q 2594 391 2855 752 
Q 3116 1113 3116 1747 
z
" transform="scale(0.015625)"/>
      </defs>
      <use xlink:href="#DejaVuSans-79"/>
      <use xlink:href="#DejaVuSans-7a" x="59.179688"/>
      <use xlink:href="#DejaVuSans-2d" x="111.669922"/>
      <use xlink:href="#DejaVuSans-70" x="147.753906"/>
      <use xlink:href="#DejaVuSans-6c" x="211.230469"/>
      <use xlink:href="#DejaVuSans-61" x="239.013672"/>
      <use xlink:href="#DejaVuSans-6e" x="300.292969"/>
      <use xlink:href="#DejaVuSans-65" x="363.671875"/>
     </g>
    </g>
    <g id="line2d_29">
     <path d="M 245.26125 45.090938 
L 257.26125 45.090938 
L 269.26125 45.090938 
" style="fill: none; stroke: #ff0000; stroke-opacity: 0.5; stroke-width: 2; stroke-linecap: square"/>
    </g>
    <g id="text_16">
     <!-- xz-plane -->
     <g transform="translate(278.86125 49.290938)scale(0.12 -0.12)">
      <use xlink:href="#DejaVuSans-78"/>
      <use xlink:href="#DejaVuSans-7a" x="59.179688"/>
      <use xlink:href="#DejaVuSans-2d" x="111.669922"/>
      <use xlink:href="#DejaVuSans-70" x="147.753906"/>
      <use xlink:href="#DejaVuSans-6c" x="211.230469"/>
      <use xlink:href="#DejaVuSans-61" x="239.013672"/>
      <use xlink:href="#DejaVuSans-6e" x="300.292969"/>
      <use xlink:href="#DejaVuSans-65" x="363.671875"/>
     </g>
    </g>
    <g id="line2d_30">
     <path d="M 245.26125 62.704687 
L 257.26125 62.704687 
L 269.26125 62.704687 
" style="fill: none; stroke: #008000; stroke-opacity: 0.5; stroke-width: 2; stroke-linecap: square"/>
    </g>
    <g id="text_17">
     <!-- xy-plane -->
     <g transform="translate(278.86125 66.904687)scale(0.12 -0.12)">
      <use xlink:href="#DejaVuSans-78"/>
      <use xlink:href="#DejaVuSans-79" x="59.179688"/>
      <use xlink:href="#DejaVuSans-2d" x="116.609375"/>
      <use xlink:href="#DejaVuSans-70" x="152.693359"/>
      <use xlink:href="#DejaVuSans-6c" x="216.169922"/>
      <use xlink:href="#DejaVuSans-61" x="243.953125"/>
      <use xlink:href="#DejaVuSans-6e" x="305.232422"/>
      <use xlink:href="#DejaVuSans-65" x="368.611328"/>
     </g>
    </g>
   </g>
  </g>
 </g>
 <defs>
  <clipPath id="p6f0d0a854b">
   <rect x="49.3975" y="11.759062" width="291.8825" height="222.793437"/>
  </clipPath>
 </defs>
</svg>