<?xml version="1.0" encoding="utf-8" standalone="no"?>
<!DOCTYPE svg PUBLIC "-//W3C//DTD SVG 1.1//EN"
  "http://www.w3.org/Graphics/SVG/1.1/DTD/svg11.dtd">
<svg xmlns:xlink="http://www.w3.org/1999/xlink" width="348.48pt" height="276.48pt" viewBox="0 0 348.48 276.48" xmlns="http://www.w3.org/2000/svg" version="1.1">
 <metadata>
  <rdf:RDF xmlns:dc="http://purl.org/dc/elements/1.1/" xmlns:cc="http://creativecommons.org/ns#" xmlns:rdf="http://www.w3.org/1999/02/22-rdf-syntax-ns#">
   <cc:Work>
    <dc:type rdf:resource="http://purl.org/dc/dcmitype/StillImage"/>
    <dc:date>2022-09-10T12:52:12.650313</dc:date>
    <dc:format>image/svg+xml</dc:format>
    <dc:creator>
     <cc:Agent>
      <dc:title>Matplotlib v3.5.3, https://matplotlib.org/</dc:title>
     </cc:Agent>
    </dc:creator>
   </cc:Work>
  </rdf:RDF>
 </metadata>
 <defs>
  <style type="text/css">*{stroke-linejoin: round; stroke-linecap: butt}</style>
 </defs>
 <g id="figure_1">
  <g id="patch_1">
   <path d="M 0 276.48 
L 348.48 276.48 
L 348.48 0 
L 0 0 
z
" style="fill: #ffffff"/>
  </g>
  <g id="axes_1">
   <g id="patch_2">
    <path d="M 49.3975 234.5525 
L 341.28 234.5525 
L 341.28 11.759062 
L 49.3975 11.759062 
z
" style="fill: #ffffff"/>
   </g>
   <g id="matplotlib.axis_1">
    <g id="xtick_1">
     <g id="line2d_1">
      <defs>
       <path id="ma2e1bdb0c0" d="M 0 0 
L 0 -6 
" style="stroke: #000000; stroke-width: 2"/>
      </defs>
      <g>
       <use xlink:href="#ma2e1bdb0c0" x="62.664886" y="234.5525" style="fill: #ffffff; stroke: #000000; stroke-width: 2"/>
      </g>
     </g>
     <g id="line2d_2">
      <defs>
       <path id="m28c201d47f" d="M 0 0 
L 0 6 
" style="stroke: #000000; stroke-width: 2"/>
      </defs>
      <g>
       <use xlink:href="#m28c201d47f" x="62.664886" y="11.759062" style="fill: #ffffff; stroke: #000000; stroke-width: 2"/>
      </g>
     </g>
     <g id="text_1">
      <!-- 0.0 -->
      <g transform="translate(53.123011 247.170625)scale(0.12 -0.12)">
       <defs>
        <path id="DejaVuSans-30" d="M 2034 4250 
Q 1547 4250 1301 3770 
Q 1056 3291 1056 2328 
Q 1056 1369 1301 889 
Q 1547 409 2034 409 
Q 2525 409 2770 889 
Q 3016 1369 3016 2328 
Q 3016 3291 2770 3770 
Q 2525 4250 2034 4250 
z
M 2034 4750 
Q 2819 4750 3233 4129 
Q 3647 3509 3647 2328 
Q 3647 1150 3233 529 
Q 2819 -91 2034 -91 
Q 1250 -91 836 529 
Q 422 1150 422 2328 
Q 422 3509 836 4129 
Q 1250 4750 2034 4750 
z
" transform="scale(0.015625)"/>
        <path id="DejaVuSans-2e" d="M 684 794 
L 1344 794 
L 1344 0 
L 684 0 
L 684 794 
z
" transform="scale(0.015625)"/>
       </defs>
       <use xlink:href="#DejaVuSans-30"/>
       <use xlink:href="#DejaVuSans-2e" x="63.623047"/>
       <use xlink:href="#DejaVuSans-30" x="95.410156"/>
      </g>
     </g>
    </g>
    <g id="xtick_2">
     <g id="line2d_3">
      <g>
       <use xlink:href="#ma2e1bdb0c0" x="115.734432" y="234.5525" style="fill: #ffffff; stroke: #000000; stroke-width: 2"/>
      </g>
     </g>
     <g id="line2d_4">
      <g>
       <use xlink:href="#m28c201d47f" x="115.734432" y="11.759062" style="fill: #ffffff; stroke: #000000; stroke-width: 2"/>
      </g>
     </g>
     <g id="text_2">
      <!-- 0.2 -->
      <g transform="translate(106.192557 247.170625)scale(0.12 -0.12)">
       <defs>
        <path id="DejaVuSans-32" d="M 1228 531 
L 3431 531 
L 3431 0 
L 469 0 
L 469 531 
Q 828 903 1448 1529 
Q 2069 2156 2228 2338 
Q 2531 2678 2651 2914 
Q 2772 3150 2772 3378 
Q 2772 3750 2511 3984 
Q 2250 4219 1831 4219 
Q 1534 4219 1204 4116 
Q 875 4013 500 3803 
L 500 4441 
Q 881 4594 1212 4672 
Q 1544 4750 1819 4750 
Q 2544 4750 2975 4387 
Q 3406 4025 3406 3419 
Q 3406 3131 3298 2873 
Q 3191 2616 2906 2266 
Q 2828 2175 2409 1742 
Q 1991 1309 1228 531 
z
" transform="scale(0.015625)"/>
       </defs>
       <use xlink:href="#DejaVuSans-30"/>
       <use xlink:href="#DejaVuSans-2e" x="63.623047"/>
       <use xlink:href="#DejaVuSans-32" x="95.410156"/>
      </g>
     </g>
    </g>
    <g id="xtick_3">
     <g id="line2d_5">
      <g>
       <use xlink:href="#ma2e1bdb0c0" x="168.803977" y="234.5525" style="fill: #ffffff; stroke: #000000; stroke-width: 2"/>
      </g>
     </g>
     <g id="line2d_6">
      <g>
       <use xlink:href="#m28c201d47f" x="168.803977" y="11.759062" style="fill: #ffffff; stroke: #000000; stroke-width: 2"/>
      </g>
     </g>
     <g id="text_3">
      <!-- 0.4 -->
      <g transform="translate(159.262102 247.170625)scale(0.12 -0.12)">
       <defs>
        <path id="DejaVuSans-34" d="M 2419 4116 
L 825 1625 
L 2419 1625 
L 2419 4116 
z
M 2253 4666 
L 3047 4666 
L 3047 1625 
L 3713 1625 
L 3713 1100 
L 3047 1100 
L 3047 0 
L 2419 0 
L 2419 1100 
L 313 1100 
L 313 1709 
L 2253 4666 
z
" transform="scale(0.015625)"/>
       </defs>
       <use xlink:href="#DejaVuSans-30"/>
       <use xlink:href="#DejaVuSans-2e" x="63.623047"/>
       <use xlink:href="#DejaVuSans-34" x="95.410156"/>
      </g>
     </g>
    </g>
    <g id="xtick_4">
     <g id="line2d_7">
      <g>
       <use xlink:href="#ma2e1bdb0c0" x="221.873523" y="234.5525" style="fill: #ffffff; stroke: #000000; stroke-width: 2"/>
      </g>
     </g>
     <g id="line2d_8">
      <g>
       <use xlink:href="#m28c201d47f" x="221.873523" y="11.759062" style="fill: #ffffff; stroke: #000000; stroke-width: 2"/>
      </g>
     </g>
     <g id="text_4">
      <!-- 0.6 -->
      <g transform="translate(212.331648 247.170625)scale(0.12 -0.12)">
       <defs>
        <path id="DejaVuSans-36" d="M 2113 2584 
Q 1688 2584 1439 2293 
Q 1191 2003 1191 1497 
Q 1191 994 1439 701 
Q 1688 409 2113 409 
Q 2538 409 2786 701 
Q 3034 994 3034 1497 
Q 3034 2003 2786 2293 
Q 2538 2584 2113 2584 
z
M 3366 4563 
L 3366 3988 
Q 3128 4100 2886 4159 
Q 2644 4219 2406 4219 
Q 1781 4219 1451 3797 
Q 1122 3375 1075 2522 
Q 1259 2794 1537 2939 
Q 1816 3084 2150 3084 
Q 2853 3084 3261 2657 
Q 3669 2231 3669 1497 
Q 3669 778 3244 343 
Q 2819 -91 2113 -91 
Q 1303 -91 875 529 
Q 447 1150 447 2328 
Q 447 3434 972 4092 
Q 1497 4750 2381 4750 
Q 2619 4750 2861 4703 
Q 3103 4656 3366 4563 
z
" transform="scale(0.015625)"/>
       </defs>
       <use xlink:href="#DejaVuSans-30"/>
       <use xlink:href="#DejaVuSans-2e" x="63.623047"/>
       <use xlink:href="#DejaVuSans-36" x="95.410156"/>
      </g>
     </g>
    </g>
    <g id="xtick_5">
     <g id="line2d_9">
      <g>
       <use xlink:href="#ma2e1bdb0c0" x="274.943068" y="234.5525" style="fill: #ffffff; stroke: #000000; stroke-width: 2"/>
      </g>
     </g>
     <g id="line2d_10">
      <g>
       <use xlink:href="#m28c201d47f" x="274.943068" y="11.759062" style="fill: #ffffff; stroke: #000000; stroke-width: 2"/>
      </g>
     </g>
     <g id="text_5">
      <!-- 0.8 -->
      <g transform="translate(265.401193 247.170625)scale(0.12 -0.12)">
       <defs>
        <path id="DejaVuSans-38" d="M 2034 2216 
Q 1584 2216 1326 1975 
Q 1069 1734 1069 1313 
Q 1069 891 1326 650 
Q 1584 409 2034 409 
Q 2484 409 2743 651 
Q 3003 894 3003 1313 
Q 3003 1734 2745 1975 
Q 2488 2216 2034 2216 
z
M 1403 2484 
Q 997 2584 770 2862 
Q 544 3141 544 3541 
Q 544 4100 942 4425 
Q 1341 4750 2034 4750 
Q 2731 4750 3128 4425 
Q 3525 4100 3525 3541 
Q 3525 3141 3298 2862 
Q 3072 2584 2669 2484 
Q 3125 2378 3379 2068 
Q 3634 1759 3634 1313 
Q 3634 634 3220 271 
Q 2806 -91 2034 -91 
Q 1263 -91 848 271 
Q 434 634 434 1313 
Q 434 1759 690 2068 
Q 947 2378 1403 2484 
z
M 1172 3481 
Q 1172 3119 1398 2916 
Q 1625 2713 2034 2713 
Q 2441 2713 2670 2916 
Q 2900 3119 2900 3481 
Q 2900 3844 2670 4047 
Q 2441 4250 2034 4250 
Q 1625 4250 1398 4047 
Q 1172 3844 1172 3481 
z
" transform="scale(0.015625)"/>
       </defs>
       <use xlink:href="#DejaVuSans-30"/>
       <use xlink:href="#DejaVuSans-2e" x="63.623047"/>
       <use xlink:href="#DejaVuSans-38" x="95.410156"/>
      </g>
     </g>
    </g>
    <g id="xtick_6">
     <g id="line2d_11">
      <g>
       <use xlink:href="#ma2e1bdb0c0" x="328.012614" y="234.5525" style="fill: #ffffff; stroke: #000000; stroke-width: 2"/>
      </g>
     </g>
     <g id="line2d_12">
      <g>
       <use xlink:href="#m28c201d47f" x="328.012614" y="11.759062" style="fill: #ffffff; stroke: #000000; stroke-width: 2"/>
      </g>
     </g>
     <g id="text_6">
      <!-- 1.0 -->
      <g transform="translate(318.470739 247.170625)scale(0.12 -0.12)">
       <defs>
        <path id="DejaVuSans-31" d="M 794 531 
L 1825 531 
L 1825 4091 
L 703 3866 
L 703 4441 
L 1819 4666 
L 2450 4666 
L 2450 531 
L 3481 531 
L 3481 0 
L 794 0 
L 794 531 
z
" transform="scale(0.015625)"/>
       </defs>
       <use xlink:href="#DejaVuSans-31"/>
       <use xlink:href="#DejaVuSans-2e" x="63.623047"/>
       <use xlink:href="#DejaVuSans-30" x="95.410156"/>
      </g>
     </g>
    </g>
    <g id="text_7">
     <!-- Fractional distance along given axis -->
     <g transform="translate(87.823438 266.784375)scale(0.12 -0.12)">
      <defs>
       <path id="DejaVuSans-46" d="M 628 4666 
L 3309 4666 
L 3309 4134 
L 1259 4134 
L 1259 2759 
L 3109 2759 
L 3109 2228 
L 1259 2228 
L 1259 0 
L 628 0 
L 628 4666 
z
" transform="scale(0.015625)"/>
       <path id="DejaVuSans-72" d="M 2631 2963 
Q 2534 3019 2420 3045 
Q 2306 3072 2169 3072 
Q 1681 3072 1420 2755 
Q 1159 2438 1159 1844 
L 1159 0 
L 581 0 
L 581 3500 
L 1159 3500 
L 1159 2956 
Q 1341 3275 1631 3429 
Q 1922 3584 2338 3584 
Q 2397 3584 2469 3576 
Q 2541 3569 2628 3553 
L 2631 2963 
z
" transform="scale(0.015625)"/>
       <path id="DejaVuSans-61" d="M 2194 1759 
Q 1497 1759 1228 1600 
Q 959 1441 959 1056 
Q 959 750 1161 570 
Q 1363 391 1709 391 
Q 2188 391 2477 730 
Q 2766 1069 2766 1631 
L 2766 1759 
L 2194 1759 
z
M 3341 1997 
L 3341 0 
L 2766 0 
L 2766 531 
Q 2569 213 2275 61 
Q 1981 -91 1556 -91 
Q 1019 -91 701 211 
Q 384 513 384 1019 
Q 384 1609 779 1909 
Q 1175 2209 1959 2209 
L 2766 2209 
L 2766 2266 
Q 2766 2663 2505 2880 
Q 2244 3097 1772 3097 
Q 1472 3097 1187 3025 
Q 903 2953 641 2809 
L 641 3341 
Q 956 3463 1253 3523 
Q 1550 3584 1831 3584 
Q 2591 3584 2966 3190 
Q 3341 2797 3341 1997 
z
" transform="scale(0.015625)"/>
       <path id="DejaVuSans-63" d="M 3122 3366 
L 3122 2828 
Q 2878 2963 2633 3030 
Q 2388 3097 2138 3097 
Q 1578 3097 1268 2742 
Q 959 2388 959 1747 
Q 959 1106 1268 751 
Q 1578 397 2138 397 
Q 2388 397 2633 464 
Q 2878 531 3122 666 
L 3122 134 
Q 2881 22 2623 -34 
Q 2366 -91 2075 -91 
Q 1284 -91 818 406 
Q 353 903 353 1747 
Q 353 2603 823 3093 
Q 1294 3584 2113 3584 
Q 2378 3584 2631 3529 
Q 2884 3475 3122 3366 
z
" transform="scale(0.015625)"/>
       <path id="DejaVuSans-74" d="M 1172 4494 
L 1172 3500 
L 2356 3500 
L 2356 3053 
L 1172 3053 
L 1172 1153 
Q 1172 725 1289 603 
Q 1406 481 1766 481 
L 2356 481 
L 2356 0 
L 1766 0 
Q 1100 0 847 248 
Q 594 497 594 1153 
L 594 3053 
L 172 3053 
L 172 3500 
L 594 3500 
L 594 4494 
L 1172 4494 
z
" transform="scale(0.015625)"/>
       <path id="DejaVuSans-69" d="M 603 3500 
L 1178 3500 
L 1178 0 
L 603 0 
L 603 3500 
z
M 603 4863 
L 1178 4863 
L 1178 4134 
L 603 4134 
L 603 4863 
z
" transform="scale(0.015625)"/>
       <path id="DejaVuSans-6f" d="M 1959 3097 
Q 1497 3097 1228 2736 
Q 959 2375 959 1747 
Q 959 1119 1226 758 
Q 1494 397 1959 397 
Q 2419 397 2687 759 
Q 2956 1122 2956 1747 
Q 2956 2369 2687 2733 
Q 2419 3097 1959 3097 
z
M 1959 3584 
Q 2709 3584 3137 3096 
Q 3566 2609 3566 1747 
Q 3566 888 3137 398 
Q 2709 -91 1959 -91 
Q 1206 -91 779 398 
Q 353 888 353 1747 
Q 353 2609 779 3096 
Q 1206 3584 1959 3584 
z
" transform="scale(0.015625)"/>
       <path id="DejaVuSans-6e" d="M 3513 2113 
L 3513 0 
L 2938 0 
L 2938 2094 
Q 2938 2591 2744 2837 
Q 2550 3084 2163 3084 
Q 1697 3084 1428 2787 
Q 1159 2491 1159 1978 
L 1159 0 
L 581 0 
L 581 3500 
L 1159 3500 
L 1159 2956 
Q 1366 3272 1645 3428 
Q 1925 3584 2291 3584 
Q 2894 3584 3203 3211 
Q 3513 2838 3513 2113 
z
" transform="scale(0.015625)"/>
       <path id="DejaVuSans-6c" d="M 603 4863 
L 1178 4863 
L 1178 0 
L 603 0 
L 603 4863 
z
" transform="scale(0.015625)"/>
       <path id="DejaVuSans-20" transform="scale(0.015625)"/>
       <path id="DejaVuSans-64" d="M 2906 2969 
L 2906 4863 
L 3481 4863 
L 3481 0 
L 2906 0 
L 2906 525 
Q 2725 213 2448 61 
Q 2172 -91 1784 -91 
Q 1150 -91 751 415 
Q 353 922 353 1747 
Q 353 2572 751 3078 
Q 1150 3584 1784 3584 
Q 2172 3584 2448 3432 
Q 2725 3281 2906 2969 
z
M 947 1747 
Q 947 1113 1208 752 
Q 1469 391 1925 391 
Q 2381 391 2643 752 
Q 2906 1113 2906 1747 
Q 2906 2381 2643 2742 
Q 2381 3103 1925 3103 
Q 1469 3103 1208 2742 
Q 947 2381 947 1747 
z
" transform="scale(0.015625)"/>
       <path id="DejaVuSans-73" d="M 2834 3397 
L 2834 2853 
Q 2591 2978 2328 3040 
Q 2066 3103 1784 3103 
Q 1356 3103 1142 2972 
Q 928 2841 928 2578 
Q 928 2378 1081 2264 
Q 1234 2150 1697 2047 
L 1894 2003 
Q 2506 1872 2764 1633 
Q 3022 1394 3022 966 
Q 3022 478 2636 193 
Q 2250 -91 1575 -91 
Q 1294 -91 989 -36 
Q 684 19 347 128 
L 347 722 
Q 666 556 975 473 
Q 1284 391 1588 391 
Q 1994 391 2212 530 
Q 2431 669 2431 922 
Q 2431 1156 2273 1281 
Q 2116 1406 1581 1522 
L 1381 1569 
Q 847 1681 609 1914 
Q 372 2147 372 2553 
Q 372 3047 722 3315 
Q 1072 3584 1716 3584 
Q 2034 3584 2315 3537 
Q 2597 3491 2834 3397 
z
" transform="scale(0.015625)"/>
       <path id="DejaVuSans-65" d="M 3597 1894 
L 3597 1613 
L 953 1613 
Q 991 1019 1311 708 
Q 1631 397 2203 397 
Q 2534 397 2845 478 
Q 3156 559 3463 722 
L 3463 178 
Q 3153 47 2828 -22 
Q 2503 -91 2169 -91 
Q 1331 -91 842 396 
Q 353 884 353 1716 
Q 353 2575 817 3079 
Q 1281 3584 2069 3584 
Q 2775 3584 3186 3129 
Q 3597 2675 3597 1894 
z
M 3022 2063 
Q 3016 2534 2758 2815 
Q 2500 3097 2075 3097 
Q 1594 3097 1305 2825 
Q 1016 2553 972 2059 
L 3022 2063 
z
" transform="scale(0.015625)"/>
       <path id="DejaVuSans-67" d="M 2906 1791 
Q 2906 2416 2648 2759 
Q 2391 3103 1925 3103 
Q 1463 3103 1205 2759 
Q 947 2416 947 1791 
Q 947 1169 1205 825 
Q 1463 481 1925 481 
Q 2391 481 2648 825 
Q 2906 1169 2906 1791 
z
M 3481 434 
Q 3481 -459 3084 -895 
Q 2688 -1331 1869 -1331 
Q 1566 -1331 1297 -1286 
Q 1028 -1241 775 -1147 
L 775 -588 
Q 1028 -725 1275 -790 
Q 1522 -856 1778 -856 
Q 2344 -856 2625 -561 
Q 2906 -266 2906 331 
L 2906 616 
Q 2728 306 2450 153 
Q 2172 0 1784 0 
Q 1141 0 747 490 
Q 353 981 353 1791 
Q 353 2603 747 3093 
Q 1141 3584 1784 3584 
Q 2172 3584 2450 3431 
Q 2728 3278 2906 2969 
L 2906 3500 
L 3481 3500 
L 3481 434 
z
" transform="scale(0.015625)"/>
       <path id="DejaVuSans-76" d="M 191 3500 
L 800 3500 
L 1894 563 
L 2988 3500 
L 3597 3500 
L 2284 0 
L 1503 0 
L 191 3500 
z
" transform="scale(0.015625)"/>
       <path id="DejaVuSans-78" d="M 3513 3500 
L 2247 1797 
L 3578 0 
L 2900 0 
L 1881 1375 
L 863 0 
L 184 0 
L 1544 1831 
L 300 3500 
L 978 3500 
L 1906 2253 
L 2834 3500 
L 3513 3500 
z
" transform="scale(0.015625)"/>
      </defs>
      <use xlink:href="#DejaVuSans-46"/>
      <use xlink:href="#DejaVuSans-72" x="50.269531"/>
      <use xlink:href="#DejaVuSans-61" x="91.382812"/>
      <use xlink:href="#DejaVuSans-63" x="152.662109"/>
      <use xlink:href="#DejaVuSans-74" x="207.642578"/>
      <use xlink:href="#DejaVuSans-69" x="246.851562"/>
      <use xlink:href="#DejaVuSans-6f" x="274.634766"/>
      <use xlink:href="#DejaVuSans-6e" x="335.816406"/>
      <use xlink:href="#DejaVuSans-61" x="399.195312"/>
      <use xlink:href="#DejaVuSans-6c" x="460.474609"/>
      <use xlink:href="#DejaVuSans-20" x="488.257812"/>
      <use xlink:href="#DejaVuSans-64" x="520.044922"/>
      <use xlink:href="#DejaVuSans-69" x="583.521484"/>
      <use xlink:href="#DejaVuSans-73" x="611.304688"/>
      <use xlink:href="#DejaVuSans-74" x="663.404297"/>
      <use xlink:href="#DejaVuSans-61" x="702.613281"/>
      <use xlink:href="#DejaVuSans-6e" x="763.892578"/>
      <use xlink:href="#DejaVuSans-63" x="827.271484"/>
      <use xlink:href="#DejaVuSans-65" x="882.251953"/>
      <use xlink:href="#DejaVuSans-20" x="943.775391"/>
      <use xlink:href="#DejaVuSans-61" x="975.5625"/>
      <use xlink:href="#DejaVuSans-6c" x="1036.841797"/>
      <use xlink:href="#DejaVuSans-6f" x="1064.625"/>
      <use xlink:href="#DejaVuSans-6e" x="1125.806641"/>
      <use xlink:href="#DejaVuSans-67" x="1189.185547"/>
      <use xlink:href="#DejaVuSans-20" x="1252.662109"/>
      <use xlink:href="#DejaVuSans-67" x="1284.449219"/>
      <use xlink:href="#DejaVuSans-69" x="1347.925781"/>
      <use xlink:href="#DejaVuSans-76" x="1375.708984"/>
      <use xlink:href="#DejaVuSans-65" x="1434.888672"/>
      <use xlink:href="#DejaVuSans-6e" x="1496.412109"/>
      <use xlink:href="#DejaVuSans-20" x="1559.791016"/>
      <use xlink:href="#DejaVuSans-61" x="1591.578125"/>
      <use xlink:href="#DejaVuSans-78" x="1652.857422"/>
      <use xlink:href="#DejaVuSans-69" x="1712.037109"/>
      <use xlink:href="#DejaVuSans-73" x="1739.820312"/>
     </g>
    </g>
   </g>
   <g id="matplotlib.axis_2">
    <g id="ytick_1">
     <g id="line2d_13">
      <defs>
       <path id="ma21d8a3fd0" d="M 0 0 
L 6 0 
" style="stroke: #000000; stroke-width: 2"/>
      </defs>
      <g>
       <use xlink:href="#ma21d8a3fd0" x="49.3975" y="234.5525" style="fill: #ffffff; stroke: #000000; stroke-width: 2"/>
      </g>
     </g>
     <g id="line2d_14">
      <defs>
       <path id="mb75f2d4cb4" d="M 0 0 
L -6 0 
" style="stroke: #000000; stroke-width: 2"/>
      </defs>
      <g>
       <use xlink:href="#mb75f2d4cb4" x="341.28" y="234.5525" style="fill: #ffffff; stroke: #000000; stroke-width: 2"/>
      </g>
     </g>
     <g id="text_8">
      <!-- 0.0 -->
      <g transform="translate(26.81375 239.111562)scale(0.12 -0.12)">
       <use xlink:href="#DejaVuSans-30"/>
       <use xlink:href="#DejaVuSans-2e" x="63.623047"/>
       <use xlink:href="#DejaVuSans-30" x="95.410156"/>
      </g>
     </g>
    </g>
    <g id="ytick_2">
     <g id="line2d_15">
      <g>
       <use xlink:href="#ma21d8a3fd0" x="49.3975" y="189.993812" style="fill: #ffffff; stroke: #000000; stroke-width: 2"/>
      </g>
     </g>
     <g id="line2d_16">
      <g>
       <use xlink:href="#mb75f2d4cb4" x="341.28" y="189.993812" style="fill: #ffffff; stroke: #000000; stroke-width: 2"/>
      </g>
     </g>
     <g id="text_9">
      <!-- 0.2 -->
      <g transform="translate(26.81375 194.552875)scale(0.12 -0.12)">
       <use xlink:href="#DejaVuSans-30"/>
       <use xlink:href="#DejaVuSans-2e" x="63.623047"/>
       <use xlink:href="#DejaVuSans-32" x="95.410156"/>
      </g>
     </g>
    </g>
    <g id="ytick_3">
     <g id="line2d_17">
      <g>
       <use xlink:href="#ma21d8a3fd0" x="49.3975" y="145.435125" style="fill: #ffffff; stroke: #000000; stroke-width: 2"/>
      </g>
     </g>
     <g id="line2d_18">
      <g>
       <use xlink:href="#mb75f2d4cb4" x="341.28" y="145.435125" style="fill: #ffffff; stroke: #000000; stroke-width: 2"/>
      </g>
     </g>
     <g id="text_10">
      <!-- 0.4 -->
      <g transform="translate(26.81375 149.994187)scale(0.12 -0.12)">
       <use xlink:href="#DejaVuSans-30"/>
       <use xlink:href="#DejaVuSans-2e" x="63.623047"/>
       <use xlink:href="#DejaVuSans-34" x="95.410156"/>
      </g>
     </g>
    </g>
    <g id="ytick_4">
     <g id="line2d_19">
      <g>
       <use xlink:href="#ma21d8a3fd0" x="49.3975" y="100.876437" style="fill: #ffffff; stroke: #000000; stroke-width: 2"/>
      </g>
     </g>
     <g id="line2d_20">
      <g>
       <use xlink:href="#mb75f2d4cb4" x="341.28" y="100.876437" style="fill: #ffffff; stroke: #000000; stroke-width: 2"/>
      </g>
     </g>
     <g id="text_11">
      <!-- 0.6 -->
      <g transform="translate(26.81375 105.4355)scale(0.12 -0.12)">
       <use xlink:href="#DejaVuSans-30"/>
       <use xlink:href="#DejaVuSans-2e" x="63.623047"/>
       <use xlink:href="#DejaVuSans-36" x="95.410156"/>
      </g>
     </g>
    </g>
    <g id="ytick_5">
     <g id="line2d_21">
      <g>
       <use xlink:href="#ma21d8a3fd0" x="49.3975" y="56.31775" style="fill: #ffffff; stroke: #000000; stroke-width: 2"/>
      </g>
     </g>
     <g id="line2d_22">
      <g>
       <use xlink:href="#mb75f2d4cb4" x="341.28" y="56.31775" style="fill: #ffffff; stroke: #000000; stroke-width: 2"/>
      </g>
     </g>
     <g id="text_12">
      <!-- 0.8 -->
      <g transform="translate(26.81375 60.876812)scale(0.12 -0.12)">
       <use xlink:href="#DejaVuSans-30"/>
       <use xlink:href="#DejaVuSans-2e" x="63.623047"/>
       <use xlink:href="#DejaVuSans-38" x="95.410156"/>
      </g>
     </g>
    </g>
    <g id="ytick_6">
     <g id="line2d_23">
      <g>
       <use xlink:href="#ma21d8a3fd0" x="49.3975" y="11.759062" style="fill: #ffffff; stroke: #000000; stroke-width: 2"/>
      </g>
     </g>
     <g id="line2d_24">
      <g>
       <use xlink:href="#mb75f2d4cb4" x="341.28" y="11.759062" style="fill: #ffffff; stroke: #000000; stroke-width: 2"/>
      </g>
     </g>
     <g id="text_13">
      <!-- 1.0 -->
      <g transform="translate(26.81375 16.318125)scale(0.12 -0.12)">
       <use xlink:href="#DejaVuSans-31"/>
       <use xlink:href="#DejaVuSans-2e" x="63.623047"/>
       <use xlink:href="#DejaVuSans-30" x="95.410156"/>
      </g>
     </g>
    </g>
    <g id="text_14">
     <!-- Porosity of slice -->
     <g transform="translate(16.318125 169.973594)rotate(-90)scale(0.12 -0.12)">
      <defs>
       <path id="DejaVuSans-50" d="M 1259 4147 
L 1259 2394 
L 2053 2394 
Q 2494 2394 2734 2622 
Q 2975 2850 2975 3272 
Q 2975 3691 2734 3919 
Q 2494 4147 2053 4147 
L 1259 4147 
z
M 628 4666 
L 2053 4666 
Q 2838 4666 3239 4311 
Q 3641 3956 3641 3272 
Q 3641 2581 3239 2228 
Q 2838 1875 2053 1875 
L 1259 1875 
L 1259 0 
L 628 0 
L 628 4666 
z
" transform="scale(0.015625)"/>
       <path id="DejaVuSans-79" d="M 2059 -325 
Q 1816 -950 1584 -1140 
Q 1353 -1331 966 -1331 
L 506 -1331 
L 506 -850 
L 844 -850 
Q 1081 -850 1212 -737 
Q 1344 -625 1503 -206 
L 1606 56 
L 191 3500 
L 800 3500 
L 1894 763 
L 2988 3500 
L 3597 3500 
L 2059 -325 
z
" transform="scale(0.015625)"/>
       <path id="DejaVuSans-66" d="M 2375 4863 
L 2375 4384 
L 1825 4384 
Q 1516 4384 1395 4259 
Q 1275 4134 1275 3809 
L 1275 3500 
L 2222 3500 
L 2222 3053 
L 1275 3053 
L 1275 0 
L 697 0 
L 697 3053 
L 147 3053 
L 147 3500 
L 697 3500 
L 697 3744 
Q 697 4328 969 4595 
Q 1241 4863 1831 4863 
L 2375 4863 
z
" transform="scale(0.015625)"/>
      </defs>
      <use xlink:href="#DejaVuSans-50"/>
      <use xlink:href="#DejaVuSans-6f" x="56.677734"/>
      <use xlink:href="#DejaVuSans-72" x="117.859375"/>
      <use xlink:href="#DejaVuSans-6f" x="156.722656"/>
      <use xlink:href="#DejaVuSans-73" x="217.904297"/>
      <use xlink:href="#DejaVuSans-69" x="270.003906"/>
      <use xlink:href="#DejaVuSans-74" x="297.787109"/>
      <use xlink:href="#DejaVuSans-79" x="336.996094"/>
      <use xlink:href="#DejaVuSans-20" x="396.175781"/>
      <use xlink:href="#DejaVuSans-6f" x="427.962891"/>
      <use xlink:href="#DejaVuSans-66" x="489.144531"/>
      <use xlink:href="#DejaVuSans-20" x="524.349609"/>
      <use xlink:href="#DejaVuSans-73" x="556.136719"/>
      <use xlink:href="#DejaVuSans-6c" x="608.236328"/>
      <use xlink:href="#DejaVuSans-69" x="636.019531"/>
      <use xlink:href="#DejaVuSans-63" x="663.802734"/>
      <use xlink:href="#DejaVuSans-65" x="718.783203"/>
     </g>
    </g>
   </g>
   <g id="line2d_25">
    <path d="M 62.664886 131.456693 
L 69.331915 131.311878 
L 73.332132 130.611935 
L 74.665537 129.458979 
L 75.998943 128.556665 
L 78.665754 127.71005 
L 79.99916 127.767605 
L 81.332566 128.151924 
L 82.665971 128.738613 
L 83.999377 129.109936 
L 85.332783 129.63907 
L 86.666188 130.424417 
L 89.333 131.432557 
L 90.666405 131.493826 
L 91.999811 131.944982 
L 96.000028 131.321161 
L 97.333434 131.400995 
L 98.666839 131.742612 
L 100.000245 131.560664 
L 101.333651 131.514248 
L 102.667056 131.224617 
L 104.000462 130.398425 
L 106.667273 129.267748 
L 108.000679 128.961407 
L 110.66749 129.30488 
L 113.334302 128.876003 
L 114.667707 128.020105 
L 120.00133 123.580945 
L 121.334736 122.892142 
L 122.668141 122.398284 
L 124.001547 121.577661 
L 125.334953 120.0441 
L 126.668358 118.915279 
L 128.001764 118.155925 
L 129.33517 117.66578 
L 130.668575 117.398428 
L 133.335387 115.289316 
L 134.668792 114.260753 
L 136.002198 113.447557 
L 137.335604 112.838588 
L 138.669009 112.352156 
L 140.002415 112.329877 
L 141.335821 112.493259 
L 142.669226 112.879434 
L 144.002632 113.397429 
L 146.669443 114.069522 
L 148.002849 114.550385 
L 153.336472 115.428562 
L 156.003283 116.195343 
L 160.0035 116.226905 
L 161.336906 116.343872 
L 162.670311 116.696628 
L 164.003717 116.741187 
L 165.337123 116.432989 
L 166.670528 115.970693 
L 170.670745 113.843016 
L 172.004151 113.501399 
L 173.337557 113.733475 
L 176.004368 113.844872 
L 178.671179 113.538531 
L 180.004585 113.696343 
L 181.337991 114.041673 
L 182.671396 114.028677 
L 184.004802 113.824449 
L 185.338208 114.203198 
L 186.671613 114.847443 
L 188.005019 115.963266 
L 189.338425 116.704055 
L 190.67183 117.127362 
L 193.338642 118.556953 
L 194.672047 119.45741 
L 201.339075 126.100368 
L 202.672481 127.050953 
L 204.005887 127.752753 
L 205.339292 128.16492 
L 206.672698 128.40628 
L 208.006104 128.374718 
L 209.339509 128.497254 
L 212.006321 129.355009 
L 216.006538 129.031958 
L 217.339943 128.499111 
L 222.673566 125.279745 
L 226.673783 121.845013 
L 229.340594 120.346727 
L 232.007406 118.297028 
L 233.340811 117.374292 
L 234.674217 116.847014 
L 236.007623 116.718908 
L 237.341028 116.711481 
L 240.00784 116.401427 
L 244.008057 115.51768 
L 246.674868 116.692915 
L 248.008274 117.628647 
L 249.341679 118.720335 
L 250.675085 120.073805 
L 253.341896 121.521963 
L 254.675302 121.943414 
L 256.008708 122.086373 
L 258.675519 121.960123 
L 260.008925 122.216336 
L 261.34233 122.75661 
L 262.675736 122.97569 
L 264.009142 122.864293 
L 265.342547 122.342585 
L 266.675953 121.525676 
L 268.009359 121.445842 
L 269.342764 121.133931 
L 270.67617 120.589943 
L 272.009576 119.663494 
L 273.342981 118.425134 
L 274.676387 117.457839 
L 276.009793 117.311167 
L 277.343198 117.467122 
L 278.676604 117.860724 
L 281.343415 117.810595 
L 284.010227 118.369436 
L 285.343632 118.913423 
L 286.677038 119.635645 
L 288.010444 120.725476 
L 290.677255 123.456552 
L 294.677472 127.791741 
L 296.010878 129.329016 
L 297.344283 130.517248 
L 300.011095 133.439555 
L 301.3445 134.091226 
L 302.677906 134.347438 
L 305.344717 134.486684 
L 306.678123 134.460692 
L 309.344934 134.119075 
L 310.67834 132.834299 
L 314.678557 127.193912 
L 317.345368 124.928846 
L 318.678774 124.197341 
L 320.01218 123.772176 
L 322.678991 123.21148 
L 328.012614 122.75104 
L 328.012614 122.75104 
" clip-path="url(#pb3f0072a95)" style="fill: none; stroke: #0000ff; stroke-opacity: 0.5; stroke-width: 2; stroke-linecap: square"/>
   </g>
   <g id="line2d_26">
    <path d="M 62.664886 111.985475 
L 63.552337 112.269537 
L 64.439788 112.946272 
L 65.327238 114.129862 
L 67.102139 117.374292 
L 67.98959 118.80017 
L 69.764491 122.281317 
L 70.651942 123.295027 
L 71.539392 124.807238 
L 72.426843 125.520177 
L 73.314293 125.868291 
L 76.864096 130.427202 
L 77.751546 130.226688 
L 78.638997 129.547168 
L 79.526448 129.201838 
L 80.413898 128.63093 
L 81.301349 127.742541 
L 83.07625 125.648283 
L 83.963701 124.896355 
L 85.738602 124.979903 
L 86.626052 125.481188 
L 87.513503 125.40321 
L 88.400954 125.470048 
L 92.838207 127.322019 
L 93.725657 127.96255 
L 96.388009 128.007108 
L 97.275459 127.728617 
L 98.16291 128.171419 
L 99.050361 128.934486 
L 99.937811 129.914777 
L 101.712712 131.087228 
L 102.600163 131.415848 
L 105.262515 131.958907 
L 108.812317 134.682557 
L 109.699768 135.108649 
L 110.587218 134.827372 
L 111.474669 134.131143 
L 112.36212 133.22326 
L 114.137021 132.535385 
L 115.024471 132.802737 
L 115.911922 132.652352 
L 118.574274 131.335085 
L 120.349175 130.485685 
L 122.124076 129.399567 
L 123.011527 129.070947 
L 124.786428 128.096226 
L 127.44878 127.344298 
L 128.33623 126.670348 
L 129.223681 125.687272 
L 130.111131 124.999397 
L 132.773483 123.810237 
L 134.548384 123.520606 
L 135.435835 123.654282 
L 137.210736 125.481188 
L 138.098187 126.208051 
L 139.873088 126.868077 
L 140.760539 126.726046 
L 141.647989 125.988043 
L 142.53544 125.790314 
L 143.42289 125.300168 
L 145.197792 125.027246 
L 146.085242 125.447769 
L 146.972693 126.503253 
L 147.860143 127.040742 
L 149.635044 129.605651 
L 150.522495 131.226474 
L 151.409946 132.309807 
L 153.184847 131.223689 
L 154.072297 130.50518 
L 156.734649 129.845154 
L 158.50955 130.83937 
L 159.397001 131.301666 
L 160.284452 131.304451 
L 161.171902 131.986756 
L 162.059353 132.997681 
L 162.946803 134.281529 
L 164.721705 135.724116 
L 168.271507 137.525958 
L 170.046408 137.662419 
L 172.70876 136.378572 
L 173.59621 136.005393 
L 175.371112 134.766104 
L 176.258562 134.479258 
L 178.033463 133.476687 
L 178.920914 132.86679 
L 179.808365 132.886285 
L 181.583266 133.482257 
L 182.470716 134.181271 
L 183.358167 134.429129 
L 184.245618 134.498752 
L 186.020519 133.955693 
L 186.907969 133.382 
L 187.79542 133.134142 
L 188.682871 133.351366 
L 189.570321 133.203765 
L 191.345222 133.373645 
L 192.232673 133.877715 
L 193.120124 134.081014 
L 194.007574 134.120003 
L 194.895025 133.724545 
L 195.782475 133.167561 
L 196.669926 132.86122 
L 198.444827 131.755608 
L 200.219728 130.744683 
L 201.994629 127.887357 
L 204.656981 123.047169 
L 205.544432 121.621291 
L 206.431882 120.65214 
L 207.319333 120.184274 
L 208.206784 119.571592 
L 209.094234 118.106725 
L 209.981685 116.427419 
L 210.869135 115.472193 
L 211.756586 115.154712 
L 212.644037 115.332947 
L 213.531487 115.683846 
L 214.418938 115.188131 
L 215.306388 114.920779 
L 216.193839 114.402784 
L 217.08129 114.163281 
L 217.96874 113.578448 
L 218.856191 113.428063 
L 219.743641 112.915638 
L 220.631092 112.926778 
L 222.405993 113.486546 
L 223.293444 113.726049 
L 225.068345 115.099014 
L 225.955795 115.447128 
L 226.843246 115.55017 
L 227.730697 115.310667 
L 228.618147 114.814952 
L 229.505598 114.099228 
L 230.393048 114.102013 
L 231.280499 114.374935 
L 232.16795 114.845586 
L 233.942851 116.41071 
L 235.717752 117.034532 
L 236.605203 117.41885 
L 238.380104 117.056811 
L 239.267554 117.204412 
L 240.155005 117.067951 
L 241.042456 117.143143 
L 242.817357 118.758396 
L 243.704807 118.853083 
L 244.592258 118.215337 
L 245.479708 118.123434 
L 247.25461 117.388216 
L 249.029511 117.25454 
L 249.916961 117.015037 
L 250.804412 116.527676 
L 251.691863 115.837017 
L 252.579313 114.873435 
L 254.354214 112.458911 
L 255.241665 112.01054 
L 256.129116 110.723907 
L 257.904017 106.72755 
L 258.791467 105.268253 
L 259.678918 104.17935 
L 260.566369 103.338305 
L 261.453819 102.867654 
L 262.34127 102.898288 
L 263.22872 102.619796 
L 264.116171 102.50283 
L 265.891072 101.603301 
L 266.778523 101.831664 
L 267.665973 102.622581 
L 268.553424 103.650216 
L 269.440875 104.140361 
L 270.328325 104.85887 
L 272.103226 107.187062 
L 273.878127 108.515467 
L 274.765578 108.969409 
L 275.653029 108.899786 
L 276.540479 109.200557 
L 277.42793 109.064096 
L 278.31538 108.532177 
L 280.090282 108.885862 
L 280.977732 109.849443 
L 281.865183 110.442631 
L 282.752633 110.579092 
L 283.640084 111.48419 
L 284.527535 113.425278 
L 285.414985 114.906854 
L 286.302436 116.05981 
L 290.739689 123.398069 
L 291.627139 124.631788 
L 292.51459 125.386501 
L 293.402041 125.483973 
L 294.289491 126.174632 
L 295.176942 126.361222 
L 296.064392 126.091085 
L 296.951843 125.703981 
L 297.839293 124.89914 
L 298.726744 124.386715 
L 299.614195 123.735044 
L 300.501645 122.640571 
L 301.389096 122.33423 
L 302.276546 122.261823 
L 303.163997 122.724119 
L 304.051448 123.70998 
L 304.938898 124.434059 
L 306.713799 124.957623 
L 307.60125 124.907495 
L 308.488701 124.603939 
L 309.376151 124.130503 
L 310.263602 123.849226 
L 312.925954 121.225833 
L 315.588305 117.808739 
L 318.250657 115.998542 
L 320.913009 112.453341 
L 321.800459 111.428492 
L 322.68791 110.754542 
L 324.462811 109.782605 
L 328.012614 110.31174 
L 328.012614 110.31174 
" clip-path="url(#pb3f0072a95)" style="fill: none; stroke: #ff0000; stroke-opacity: 0.5; stroke-width: 2; stroke-linecap: square"/>
   </g>
   <g id="line2d_27">
    <path d="M 62.664886 136.831585 
L 63.99495 136.556807 
L 64.659982 136.519674 
L 65.325014 136.311734 
L 65.990046 135.840154 
L 66.655078 135.528243 
L 67.32011 135.376001 
L 68.650173 135.376001 
L 69.315205 135.205193 
L 69.980237 134.651923 
L 70.645269 133.500823 
L 71.310301 131.841012 
L 71.975333 129.839584 
L 73.305397 127.076946 
L 73.970429 126.24147 
L 74.635461 126.802167 
L 75.965524 128.974403 
L 76.630556 130.563663 
L 77.96062 134.288027 
L 78.625652 135.279457 
L 79.955716 135.609934 
L 80.620748 135.591368 
L 81.28578 136.230043 
L 81.950811 137.098937 
L 82.615843 138.524815 
L 83.280875 139.594224 
L 85.941003 141.413703 
L 87.271067 141.610504 
L 87.936098 141.328299 
L 88.60113 141.224329 
L 89.266162 140.801021 
L 89.931194 139.646209 
L 91.261258 140.069516 
L 91.92629 140.262604 
L 92.591322 140.002678 
L 95.251449 136.293168 
L 95.916481 134.974973 
L 96.581513 134.06152 
L 97.246545 132.698767 
L 97.911577 130.968404 
L 99.906673 128.020105 
L 101.236736 126.969262 
L 101.901768 127.210622 
L 102.5668 128.068377 
L 103.896864 128.885286 
L 104.561896 128.461978 
L 107.222024 125.33173 
L 107.887055 124.804453 
L 108.552087 124.57052 
L 109.217119 124.826732 
L 110.547183 124.823019 
L 111.212215 125.194341 
L 111.877247 125.194341 
L 112.542279 124.514821 
L 113.207311 123.41942 
L 113.872343 122.580232 
L 114.537374 122.305453 
L 115.202406 122.346298 
L 115.867438 121.62222 
L 116.53247 121.217478 
L 117.862534 119.230904 
L 120.522661 114.48169 
L 121.187693 114.054669 
L 121.852725 114.088088 
L 122.517757 113.445701 
L 123.182789 113.033533 
L 123.847821 112.450557 
L 124.512853 112.019823 
L 125.177885 112.12008 
L 125.842917 112.699343 
L 126.507949 113.620222 
L 128.503044 118.595942 
L 129.833108 122.892142 
L 131.163172 126.627646 
L 132.493236 129.460836 
L 133.823299 131.89671 
L 134.488331 132.743326 
L 135.153363 132.925273 
L 136.483427 131.258036 
L 137.148459 129.828445 
L 138.478523 124.574233 
L 139.808587 118.833589 
L 141.13865 114.180919 
L 141.803682 112.302028 
L 142.468714 111.771037 
L 143.798778 110.263468 
L 144.46381 109.595087 
L 145.793874 109.468838 
L 146.458906 110.17435 
L 147.123937 111.410854 
L 147.788969 112.922136 
L 148.454001 114.036103 
L 149.784065 115.072093 
L 150.449097 115.848156 
L 151.114129 116.286317 
L 152.444193 116.661353 
L 153.109224 116.490544 
L 153.774256 116.464552 
L 154.439288 116.795029 
L 155.10432 116.780176 
L 155.769352 117.032675 
L 156.434384 117.771607 
L 157.099416 118.012966 
L 157.764448 118.510538 
L 158.42948 119.409138 
L 159.759543 122.086373 
L 160.424575 122.294313 
L 161.089607 122.242328 
L 161.754639 121.989829 
L 162.419671 121.065236 
L 163.084703 120.385716 
L 163.749735 119.995828 
L 165.744831 121.889572 
L 166.409862 123.051811 
L 167.739926 126.869005 
L 169.06999 129.070947 
L 170.400054 130.073517 
L 171.730118 130.563663 
L 172.39515 130.240613 
L 173.060181 129.720761 
L 173.725213 129.76532 
L 174.390245 130.177488 
L 175.055277 130.348296 
L 175.720309 130.715905 
L 176.385341 130.359436 
L 177.050373 130.942412 
L 177.715405 131.996967 
L 179.045469 133.051523 
L 180.375532 132.490826 
L 181.705596 129.601938 
L 182.370628 128.276317 
L 184.365724 123.111223 
L 185.695787 119.921563 
L 187.025851 115.335732 
L 187.690883 114.128934 
L 188.355915 113.445701 
L 189.685979 112.721622 
L 191.016043 110.946701 
L 191.681075 110.382291 
L 193.011138 110.839017 
L 193.67617 111.184347 
L 194.341202 111.065524 
L 195.006234 111.232619 
L 196.336298 111.997543 
L 197.00133 112.67335 
L 197.666362 113.590516 
L 198.331394 115.153784 
L 198.996425 117.014109 
L 200.991521 119.884431 
L 202.321585 120.233474 
L 202.986617 120.363437 
L 203.651649 120.705053 
L 204.316681 121.384573 
L 204.981713 121.692771 
L 205.646744 121.863579 
L 206.311776 122.238615 
L 206.976808 122.836444 
L 207.64184 123.835301 
L 208.306872 124.195484 
L 208.971904 124.043242 
L 209.636936 123.761037 
L 210.301968 123.092656 
L 210.967 122.190343 
L 211.632031 121.767035 
L 212.962095 121.562808 
L 214.292159 120.875862 
L 215.622223 120.311452 
L 216.287255 119.535388 
L 217.617319 118.384288 
L 218.28235 117.040101 
L 218.947382 116.256611 
L 219.612414 116.026391 
L 220.277446 116.115509 
L 220.942478 115.547385 
L 221.60751 114.444558 
L 222.272542 113.694487 
L 225.597701 108.993545 
L 226.927765 107.46741 
L 228.257829 106.264325 
L 228.922861 106.048958 
L 229.587893 106.09723 
L 230.252925 107.705056 
L 232.24802 111.344016 
L 232.913052 112.309454 
L 234.243116 115.569665 
L 234.908148 115.703341 
L 235.57318 115.580804 
L 236.238212 115.833304 
L 236.903244 116.401427 
L 237.568276 117.158925 
L 238.233307 118.124363 
L 240.228403 119.739615 
L 240.893435 119.739615 
L 242.888531 118.80017 
L 244.218594 118.581089 
L 244.883626 117.474549 
L 246.21369 115.837017 
L 247.543754 113.553384 
L 248.208786 113.115224 
L 248.873818 113.531105 
L 249.53885 114.1475 
L 250.203882 114.529962 
L 251.533945 115.729333 
L 252.198977 116.839587 
L 252.864009 117.437416 
L 253.529041 117.849584 
L 254.194073 117.89043 
L 256.189169 113.412282 
L 256.854201 112.625078 
L 257.519232 111.392288 
L 258.849296 110.155784 
L 259.514328 108.770752 
L 260.17936 108.443988 
L 262.174456 106.54653 
L 262.839488 106.821309 
L 264.834583 108.718766 
L 266.829679 110.08152 
L 267.494711 110.690488 
L 269.489807 113.13379 
L 270.154839 113.293458 
L 271.484902 114.362867 
L 272.149934 114.633932 
L 273.479998 115.892715 
L 274.810062 116.122935 
L 275.475094 116.75047 
L 276.140126 118.347156 
L 277.470189 123.270891 
L 278.135221 124.897283 
L 278.800253 125.844155 
L 279.465285 126.219191 
L 280.130317 126.341727 
L 280.795349 126.02239 
L 282.790445 124.800739 
L 284.120508 124.525961 
L 285.450572 122.86615 
L 286.115604 121.458838 
L 287.445668 118.102083 
L 288.1107 116.691058 
L 288.775732 115.907568 
L 289.440764 115.424849 
L 290.105795 115.577091 
L 290.770827 116.549956 
L 291.435859 117.864437 
L 292.100891 118.803883 
L 292.765923 118.551384 
L 293.430955 118.439987 
L 294.761019 119.01925 
L 295.426051 119.754468 
L 296.091083 121.061523 
L 296.756114 121.807881 
L 297.421146 122.078946 
L 298.086178 122.112365 
L 299.416242 121.05781 
L 300.746306 121.436559 
L 301.411338 121.195199 
L 302.07637 120.835016 
L 302.741402 121.27689 
L 303.406433 122.253468 
L 304.071465 123.605081 
L 304.736497 125.209194 
L 305.401529 126.364007 
L 306.731593 129.0858 
L 308.726689 132.453694 
L 310.056752 135.383428 
L 311.386816 136.523387 
L 312.051848 137.607649 
L 312.71688 137.867575 
L 314.046944 139.070659 
L 316.042039 139.735326 
L 316.707071 139.813304 
L 318.037135 140.600507 
L 318.702167 140.726757 
L 319.367199 140.199479 
L 320.697263 138.131213 
L 321.362295 137.065518 
L 322.027327 136.22633 
L 322.692358 135.643353 
L 324.022422 134.811591 
L 326.017518 134.622217 
L 328.012614 134.997252 
L 328.012614 134.997252 
" clip-path="url(#pb3f0072a95)" style="fill: none; stroke: #008000; stroke-opacity: 0.5; stroke-width: 2; stroke-linecap: square"/>
   </g>
   <g id="patch_3">
    <path d="M 49.3975 234.5525 
L 49.3975 11.759062 
" style="fill: none; stroke: #000000; stroke-width: 2; stroke-linejoin: miter; stroke-linecap: square"/>
   </g>
   <g id="patch_4">
    <path d="M 341.28 234.5525 
L 341.28 11.759062 
" style="fill: none; stroke: #000000; stroke-width: 2; stroke-linejoin: miter; stroke-linecap: square"/>
   </g>
   <g id="patch_5">
    <path d="M 49.3975 234.5525 
L 341.28 234.5525 
" style="fill: none; stroke: #000000; stroke-width: 2; stroke-linejoin: miter; stroke-linecap: square"/>
   </g>
   <g id="patch_6">
    <path d="M 49.3975 11.759062 
L 341.28 11.759062 
" style="fill: none; stroke: #000000; stroke-width: 2; stroke-linejoin: miter; stroke-linecap: square"/>
   </g>
   <g id="legend_1">
    <g id="line2d_28">
     <path d="M 245.26125 27.477188 
L 257.26125 27.477188 
L 269.26125 27.477188 
" style="fill: none; stroke: #0000ff; stroke-opacity: 0.5; stroke-width: 2; stroke-linecap: square"/>
    </g>
    <g id="text_15">
     <!-- yz-plane -->
     <g transform="translate(278.86125 31.677188)scale(0.12 -0.12)">
      <defs>
       <path id="DejaVuSans-7a" d="M 353 3500 
L 3084 3500 
L 3084 2975 
L 922 459 
L 3084 459 
L 3084 0 
L 275 0 
L 275 525 
L 2438 3041 
L 353 3041 
L 353 3500 
z
" transform="scale(0.015625)"/>
       <path id="DejaVuSans-2d" d="M 313 2009 
L 1997 2009 
L 1997 1497 
L 313 1497 
L 313 2009 
z
" transform="scale(0.015625)"/>
       <path id="DejaVuSans-70" d="M 1159 525 
L 1159 -1331 
L 581 -1331 
L 581 3500 
L 1159 3500 
L 1159 2969 
Q 1341 3281 1617 3432 
Q 1894 3584 2278 3584 
Q 2916 3584 3314 3078 
Q 3713 2572 3713 1747 
Q 3713 922 3314 415 
Q 2916 -91 2278 -91 
Q 1894 -91 1617 61 
Q 1341 213 1159 525 
z
M 3116 1747 
Q 3116 2381 2855 2742 
Q 2594 3103 2138 3103 
Q 1681 3103 1420 2742 
Q 1159 2381 1159 1747 
Q 1159 1113 1420 752 
Q 1681 391 2138 391 
Q 2594 391 2855 752 
Q 3116 1113 3116 1747 
z
" transform="scale(0.015625)"/>
      </defs>
      <use xlink:href="#DejaVuSans-79"/>
      <use xlink:href="#DejaVuSans-7a" x="59.179688"/>
      <use xlink:href="#DejaVuSans-2d" x="111.669922"/>
      <use xlink:href="#DejaVuSans-70" x="147.753906"/>
      <use xlink:href="#DejaVuSans-6c" x="211.230469"/>
      <use xlink:href="#DejaVuSans-61" x="239.013672"/>
      <use xlink:href="#DejaVuSans-6e" x="300.292969"/>
      <use xlink:href="#DejaVuSans-65" x="363.671875"/>
     </g>
    </g>
    <g id="line2d_29">
     <path d="M 245.26125 45.090938 
L 257.26125 45.090938 
L 269.26125 45.090938 
" style="fill: none; stroke: #ff0000; stroke-opacity: 0.5; stroke-width: 2; stroke-linecap: square"/>
    </g>
    <g id="text_16">
     <!-- xz-plane -->
     <g transform="translate(278.86125 49.290938)scale(0.12 -0.12)">
      <use xlink:href="#DejaVuSans-78"/>
      <use xlink:href="#DejaVuSans-7a" x="59.179688"/>
      <use xlink:href="#DejaVuSans-2d" x="111.669922"/>
      <use xlink:href="#DejaVuSans-70" x="147.753906"/>
      <use xlink:href="#DejaVuSans-6c" x="211.230469"/>
      <use xlink:href="#DejaVuSans-61" x="239.013672"/>
      <use xlink:href="#DejaVuSans-6e" x="300.292969"/>
      <use xlink:href="#DejaVuSans-65" x="363.671875"/>
     </g>
    </g>
    <g id="line2d_30">
     <path d="M 245.26125 62.704687 
L 257.26125 62.704687 
L 269.26125 62.704687 
" style="fill: none; stroke: #008000; stroke-opacity: 0.5; stroke-width: 2; stroke-linecap: square"/>
    </g>
    <g id="text_17">
     <!-- xy-plane -->
     <g transform="translate(278.86125 66.904687)scale(0.12 -0.12)">
      <use xlink:href="#DejaVuSans-78"/>
      <use xlink:href="#DejaVuSans-79" x="59.179688"/>
      <use xlink:href="#DejaVuSans-2d" x="116.609375"/>
      <use xlink:href="#DejaVuSans-70" x="152.693359"/>
      <use xlink:href="#DejaVuSans-6c" x="216.169922"/>
      <use xlink:href="#DejaVuSans-61" x="243.953125"/>
      <use xlink:href="#DejaVuSans-6e" x="305.232422"/>
      <use xlink:href="#DejaVuSans-65" x="368.611328"/>
     </g>
    </g>
   </g>
  </g>
 </g>
 <defs>
  <clipPath id="pb3f0072a95">
   <rect x="49.3975" y="11.759062" width="291.8825" height="222.793437"/>
  </clipPath>
 </defs>
</svg>