<?xml version="1.0" encoding="utf-8" standalone="no"?>
<!DOCTYPE svg PUBLIC "-//W3C//DTD SVG 1.1//EN"
  "http://www.w3.org/Graphics/SVG/1.1/DTD/svg11.dtd">
<svg xmlns:xlink="http://www.w3.org/1999/xlink" width="449.28pt" height="334.08pt" viewBox="0 0 449.28 334.08" xmlns="http://www.w3.org/2000/svg" version="1.1">
 <metadata>
  <rdf:RDF xmlns:dc="http://purl.org/dc/elements/1.1/" xmlns:cc="http://creativecommons.org/ns#" xmlns:rdf="http://www.w3.org/1999/02/22-rdf-syntax-ns#">
   <cc:Work>
    <dc:type rdf:resource="http://purl.org/dc/dcmitype/StillImage"/>
    <dc:date>2022-09-09T18:31:47.610422</dc:date>
    <dc:format>image/svg+xml</dc:format>
    <dc:creator>
     <cc:Agent>
      <dc:title>Matplotlib v3.5.3, https://matplotlib.org/</dc:title>
     </cc:Agent>
    </dc:creator>
   </cc:Work>
  </rdf:RDF>
 </metadata>
 <defs>
  <style type="text/css">*{stroke-linejoin: round; stroke-linecap: butt}</style>
 </defs>
 <g id="figure_1">
  <g id="patch_1">
   <path d="M 0 334.08 
L 449.28 334.08 
L 449.28 0 
L 0 0 
z
" style="fill: #ffffff"/>
  </g>
  <g id="axes_1">
   <g id="patch_2">
    <path d="M 49.3975 292.1525 
L 442.08 292.1525 
L 442.08 7.2 
L 49.3975 7.2 
z
" style="fill: #ffffff"/>
   </g>
   <g id="matplotlib.axis_1">
    <g id="xtick_1">
     <g id="line2d_1">
      <path d="M 72.104632 292.1525 
L 72.104632 7.2 
" clip-path="url(#p0d82c534ff)" style="fill: none; stroke: #b0b0b0; stroke-width: 0.8; stroke-linecap: square"/>
     </g>
     <g id="line2d_2">
      <defs>
       <path id="md7495252d1" d="M 0 0 
L 0 -6 
" style="stroke: #000000; stroke-width: 2"/>
      </defs>
      <g>
       <use xlink:href="#md7495252d1" x="72.104632" y="292.1525" style="fill: #ffffff; stroke: #000000; stroke-width: 2"/>
      </g>
     </g>
     <g id="line2d_3">
      <defs>
       <path id="m89a48c71d5" d="M 0 0 
L 0 6 
" style="stroke: #000000; stroke-width: 2"/>
      </defs>
      <g>
       <use xlink:href="#m89a48c71d5" x="72.104632" y="7.2" style="fill: #ffffff; stroke: #000000; stroke-width: 2"/>
      </g>
     </g>
     <g id="text_1">
      <!-- 2.50 -->
      <g transform="translate(58.745257 304.770625)scale(0.12 -0.12)">
       <defs>
        <path id="DejaVuSans-32" d="M 1228 531 
L 3431 531 
L 3431 0 
L 469 0 
L 469 531 
Q 828 903 1448 1529 
Q 2069 2156 2228 2338 
Q 2531 2678 2651 2914 
Q 2772 3150 2772 3378 
Q 2772 3750 2511 3984 
Q 2250 4219 1831 4219 
Q 1534 4219 1204 4116 
Q 875 4013 500 3803 
L 500 4441 
Q 881 4594 1212 4672 
Q 1544 4750 1819 4750 
Q 2544 4750 2975 4387 
Q 3406 4025 3406 3419 
Q 3406 3131 3298 2873 
Q 3191 2616 2906 2266 
Q 2828 2175 2409 1742 
Q 1991 1309 1228 531 
z
" transform="scale(0.015625)"/>
        <path id="DejaVuSans-2e" d="M 684 794 
L 1344 794 
L 1344 0 
L 684 0 
L 684 794 
z
" transform="scale(0.015625)"/>
        <path id="DejaVuSans-35" d="M 691 4666 
L 3169 4666 
L 3169 4134 
L 1269 4134 
L 1269 2991 
Q 1406 3038 1543 3061 
Q 1681 3084 1819 3084 
Q 2600 3084 3056 2656 
Q 3513 2228 3513 1497 
Q 3513 744 3044 326 
Q 2575 -91 1722 -91 
Q 1428 -91 1123 -41 
Q 819 9 494 109 
L 494 744 
Q 775 591 1075 516 
Q 1375 441 1709 441 
Q 2250 441 2565 725 
Q 2881 1009 2881 1497 
Q 2881 1984 2565 2268 
Q 2250 2553 1709 2553 
Q 1456 2553 1204 2497 
Q 953 2441 691 2322 
L 691 4666 
z
" transform="scale(0.015625)"/>
        <path id="DejaVuSans-30" d="M 2034 4250 
Q 1547 4250 1301 3770 
Q 1056 3291 1056 2328 
Q 1056 1369 1301 889 
Q 1547 409 2034 409 
Q 2525 409 2770 889 
Q 3016 1369 3016 2328 
Q 3016 3291 2770 3770 
Q 2525 4250 2034 4250 
z
M 2034 4750 
Q 2819 4750 3233 4129 
Q 3647 3509 3647 2328 
Q 3647 1150 3233 529 
Q 2819 -91 2034 -91 
Q 1250 -91 836 529 
Q 422 1150 422 2328 
Q 422 3509 836 4129 
Q 1250 4750 2034 4750 
z
" transform="scale(0.015625)"/>
       </defs>
       <use xlink:href="#DejaVuSans-32"/>
       <use xlink:href="#DejaVuSans-2e" x="63.623047"/>
       <use xlink:href="#DejaVuSans-35" x="95.410156"/>
       <use xlink:href="#DejaVuSans-30" x="159.033203"/>
      </g>
     </g>
    </g>
    <g id="xtick_2">
     <g id="line2d_4">
      <path d="M 125.188045 292.1525 
L 125.188045 7.2 
" clip-path="url(#p0d82c534ff)" style="fill: none; stroke: #b0b0b0; stroke-width: 0.8; stroke-linecap: square"/>
     </g>
     <g id="line2d_5">
      <g>
       <use xlink:href="#md7495252d1" x="125.188045" y="292.1525" style="fill: #ffffff; stroke: #000000; stroke-width: 2"/>
      </g>
     </g>
     <g id="line2d_6">
      <g>
       <use xlink:href="#m89a48c71d5" x="125.188045" y="7.2" style="fill: #ffffff; stroke: #000000; stroke-width: 2"/>
      </g>
     </g>
     <g id="text_2">
      <!-- 2.75 -->
      <g transform="translate(111.82867 304.770625)scale(0.12 -0.12)">
       <defs>
        <path id="DejaVuSans-37" d="M 525 4666 
L 3525 4666 
L 3525 4397 
L 1831 0 
L 1172 0 
L 2766 4134 
L 525 4134 
L 525 4666 
z
" transform="scale(0.015625)"/>
       </defs>
       <use xlink:href="#DejaVuSans-32"/>
       <use xlink:href="#DejaVuSans-2e" x="63.623047"/>
       <use xlink:href="#DejaVuSans-37" x="95.410156"/>
       <use xlink:href="#DejaVuSans-35" x="159.033203"/>
      </g>
     </g>
    </g>
    <g id="xtick_3">
     <g id="line2d_7">
      <path d="M 178.271458 292.1525 
L 178.271458 7.2 
" clip-path="url(#p0d82c534ff)" style="fill: none; stroke: #b0b0b0; stroke-width: 0.8; stroke-linecap: square"/>
     </g>
     <g id="line2d_8">
      <g>
       <use xlink:href="#md7495252d1" x="178.271458" y="292.1525" style="fill: #ffffff; stroke: #000000; stroke-width: 2"/>
      </g>
     </g>
     <g id="line2d_9">
      <g>
       <use xlink:href="#m89a48c71d5" x="178.271458" y="7.2" style="fill: #ffffff; stroke: #000000; stroke-width: 2"/>
      </g>
     </g>
     <g id="text_3">
      <!-- 3.00 -->
      <g transform="translate(164.912083 304.770625)scale(0.12 -0.12)">
       <defs>
        <path id="DejaVuSans-33" d="M 2597 2516 
Q 3050 2419 3304 2112 
Q 3559 1806 3559 1356 
Q 3559 666 3084 287 
Q 2609 -91 1734 -91 
Q 1441 -91 1130 -33 
Q 819 25 488 141 
L 488 750 
Q 750 597 1062 519 
Q 1375 441 1716 441 
Q 2309 441 2620 675 
Q 2931 909 2931 1356 
Q 2931 1769 2642 2001 
Q 2353 2234 1838 2234 
L 1294 2234 
L 1294 2753 
L 1863 2753 
Q 2328 2753 2575 2939 
Q 2822 3125 2822 3475 
Q 2822 3834 2567 4026 
Q 2313 4219 1838 4219 
Q 1578 4219 1281 4162 
Q 984 4106 628 3988 
L 628 4550 
Q 988 4650 1302 4700 
Q 1616 4750 1894 4750 
Q 2613 4750 3031 4423 
Q 3450 4097 3450 3541 
Q 3450 3153 3228 2886 
Q 3006 2619 2597 2516 
z
" transform="scale(0.015625)"/>
       </defs>
       <use xlink:href="#DejaVuSans-33"/>
       <use xlink:href="#DejaVuSans-2e" x="63.623047"/>
       <use xlink:href="#DejaVuSans-30" x="95.410156"/>
       <use xlink:href="#DejaVuSans-30" x="159.033203"/>
      </g>
     </g>
    </g>
    <g id="xtick_4">
     <g id="line2d_10">
      <path d="M 231.354871 292.1525 
L 231.354871 7.2 
" clip-path="url(#p0d82c534ff)" style="fill: none; stroke: #b0b0b0; stroke-width: 0.8; stroke-linecap: square"/>
     </g>
     <g id="line2d_11">
      <g>
       <use xlink:href="#md7495252d1" x="231.354871" y="292.1525" style="fill: #ffffff; stroke: #000000; stroke-width: 2"/>
      </g>
     </g>
     <g id="line2d_12">
      <g>
       <use xlink:href="#m89a48c71d5" x="231.354871" y="7.2" style="fill: #ffffff; stroke: #000000; stroke-width: 2"/>
      </g>
     </g>
     <g id="text_4">
      <!-- 3.25 -->
      <g transform="translate(217.995496 304.770625)scale(0.12 -0.12)">
       <use xlink:href="#DejaVuSans-33"/>
       <use xlink:href="#DejaVuSans-2e" x="63.623047"/>
       <use xlink:href="#DejaVuSans-32" x="95.410156"/>
       <use xlink:href="#DejaVuSans-35" x="159.033203"/>
      </g>
     </g>
    </g>
    <g id="xtick_5">
     <g id="line2d_13">
      <path d="M 284.438284 292.1525 
L 284.438284 7.2 
" clip-path="url(#p0d82c534ff)" style="fill: none; stroke: #b0b0b0; stroke-width: 0.8; stroke-linecap: square"/>
     </g>
     <g id="line2d_14">
      <g>
       <use xlink:href="#md7495252d1" x="284.438284" y="292.1525" style="fill: #ffffff; stroke: #000000; stroke-width: 2"/>
      </g>
     </g>
     <g id="line2d_15">
      <g>
       <use xlink:href="#m89a48c71d5" x="284.438284" y="7.2" style="fill: #ffffff; stroke: #000000; stroke-width: 2"/>
      </g>
     </g>
     <g id="text_5">
      <!-- 3.50 -->
      <g transform="translate(271.078909 304.770625)scale(0.12 -0.12)">
       <use xlink:href="#DejaVuSans-33"/>
       <use xlink:href="#DejaVuSans-2e" x="63.623047"/>
       <use xlink:href="#DejaVuSans-35" x="95.410156"/>
       <use xlink:href="#DejaVuSans-30" x="159.033203"/>
      </g>
     </g>
    </g>
    <g id="xtick_6">
     <g id="line2d_16">
      <path d="M 337.521696 292.1525 
L 337.521696 7.2 
" clip-path="url(#p0d82c534ff)" style="fill: none; stroke: #b0b0b0; stroke-width: 0.8; stroke-linecap: square"/>
     </g>
     <g id="line2d_17">
      <g>
       <use xlink:href="#md7495252d1" x="337.521696" y="292.1525" style="fill: #ffffff; stroke: #000000; stroke-width: 2"/>
      </g>
     </g>
     <g id="line2d_18">
      <g>
       <use xlink:href="#m89a48c71d5" x="337.521696" y="7.2" style="fill: #ffffff; stroke: #000000; stroke-width: 2"/>
      </g>
     </g>
     <g id="text_6">
      <!-- 3.75 -->
      <g transform="translate(324.162321 304.770625)scale(0.12 -0.12)">
       <use xlink:href="#DejaVuSans-33"/>
       <use xlink:href="#DejaVuSans-2e" x="63.623047"/>
       <use xlink:href="#DejaVuSans-37" x="95.410156"/>
       <use xlink:href="#DejaVuSans-35" x="159.033203"/>
      </g>
     </g>
    </g>
    <g id="xtick_7">
     <g id="line2d_19">
      <path d="M 390.605109 292.1525 
L 390.605109 7.2 
" clip-path="url(#p0d82c534ff)" style="fill: none; stroke: #b0b0b0; stroke-width: 0.8; stroke-linecap: square"/>
     </g>
     <g id="line2d_20">
      <g>
       <use xlink:href="#md7495252d1" x="390.605109" y="292.1525" style="fill: #ffffff; stroke: #000000; stroke-width: 2"/>
      </g>
     </g>
     <g id="line2d_21">
      <g>
       <use xlink:href="#m89a48c71d5" x="390.605109" y="7.2" style="fill: #ffffff; stroke: #000000; stroke-width: 2"/>
      </g>
     </g>
     <g id="text_7">
      <!-- 4.00 -->
      <g transform="translate(377.245734 304.770625)scale(0.12 -0.12)">
       <defs>
        <path id="DejaVuSans-34" d="M 2419 4116 
L 825 1625 
L 2419 1625 
L 2419 4116 
z
M 2253 4666 
L 3047 4666 
L 3047 1625 
L 3713 1625 
L 3713 1100 
L 3047 1100 
L 3047 0 
L 2419 0 
L 2419 1100 
L 313 1100 
L 313 1709 
L 2253 4666 
z
" transform="scale(0.015625)"/>
       </defs>
       <use xlink:href="#DejaVuSans-34"/>
       <use xlink:href="#DejaVuSans-2e" x="63.623047"/>
       <use xlink:href="#DejaVuSans-30" x="95.410156"/>
       <use xlink:href="#DejaVuSans-30" x="159.033203"/>
      </g>
     </g>
    </g>
    <g id="text_8">
     <!-- log(Capillary Pressure [Pa]) -->
     <g transform="translate(164.405 324.384375)scale(0.12 -0.12)">
      <defs>
       <path id="DejaVuSans-6c" d="M 603 4863 
L 1178 4863 
L 1178 0 
L 603 0 
L 603 4863 
z
" transform="scale(0.015625)"/>
       <path id="DejaVuSans-6f" d="M 1959 3097 
Q 1497 3097 1228 2736 
Q 959 2375 959 1747 
Q 959 1119 1226 758 
Q 1494 397 1959 397 
Q 2419 397 2687 759 
Q 2956 1122 2956 1747 
Q 2956 2369 2687 2733 
Q 2419 3097 1959 3097 
z
M 1959 3584 
Q 2709 3584 3137 3096 
Q 3566 2609 3566 1747 
Q 3566 888 3137 398 
Q 2709 -91 1959 -91 
Q 1206 -91 779 398 
Q 353 888 353 1747 
Q 353 2609 779 3096 
Q 1206 3584 1959 3584 
z
" transform="scale(0.015625)"/>
       <path id="DejaVuSans-67" d="M 2906 1791 
Q 2906 2416 2648 2759 
Q 2391 3103 1925 3103 
Q 1463 3103 1205 2759 
Q 947 2416 947 1791 
Q 947 1169 1205 825 
Q 1463 481 1925 481 
Q 2391 481 2648 825 
Q 2906 1169 2906 1791 
z
M 3481 434 
Q 3481 -459 3084 -895 
Q 2688 -1331 1869 -1331 
Q 1566 -1331 1297 -1286 
Q 1028 -1241 775 -1147 
L 775 -588 
Q 1028 -725 1275 -790 
Q 1522 -856 1778 -856 
Q 2344 -856 2625 -561 
Q 2906 -266 2906 331 
L 2906 616 
Q 2728 306 2450 153 
Q 2172 0 1784 0 
Q 1141 0 747 490 
Q 353 981 353 1791 
Q 353 2603 747 3093 
Q 1141 3584 1784 3584 
Q 2172 3584 2450 3431 
Q 2728 3278 2906 2969 
L 2906 3500 
L 3481 3500 
L 3481 434 
z
" transform="scale(0.015625)"/>
       <path id="DejaVuSans-28" d="M 1984 4856 
Q 1566 4138 1362 3434 
Q 1159 2731 1159 2009 
Q 1159 1288 1364 580 
Q 1569 -128 1984 -844 
L 1484 -844 
Q 1016 -109 783 600 
Q 550 1309 550 2009 
Q 550 2706 781 3412 
Q 1013 4119 1484 4856 
L 1984 4856 
z
" transform="scale(0.015625)"/>
       <path id="DejaVuSans-43" d="M 4122 4306 
L 4122 3641 
Q 3803 3938 3442 4084 
Q 3081 4231 2675 4231 
Q 1875 4231 1450 3742 
Q 1025 3253 1025 2328 
Q 1025 1406 1450 917 
Q 1875 428 2675 428 
Q 3081 428 3442 575 
Q 3803 722 4122 1019 
L 4122 359 
Q 3791 134 3420 21 
Q 3050 -91 2638 -91 
Q 1578 -91 968 557 
Q 359 1206 359 2328 
Q 359 3453 968 4101 
Q 1578 4750 2638 4750 
Q 3056 4750 3426 4639 
Q 3797 4528 4122 4306 
z
" transform="scale(0.015625)"/>
       <path id="DejaVuSans-61" d="M 2194 1759 
Q 1497 1759 1228 1600 
Q 959 1441 959 1056 
Q 959 750 1161 570 
Q 1363 391 1709 391 
Q 2188 391 2477 730 
Q 2766 1069 2766 1631 
L 2766 1759 
L 2194 1759 
z
M 3341 1997 
L 3341 0 
L 2766 0 
L 2766 531 
Q 2569 213 2275 61 
Q 1981 -91 1556 -91 
Q 1019 -91 701 211 
Q 384 513 384 1019 
Q 384 1609 779 1909 
Q 1175 2209 1959 2209 
L 2766 2209 
L 2766 2266 
Q 2766 2663 2505 2880 
Q 2244 3097 1772 3097 
Q 1472 3097 1187 3025 
Q 903 2953 641 2809 
L 641 3341 
Q 956 3463 1253 3523 
Q 1550 3584 1831 3584 
Q 2591 3584 2966 3190 
Q 3341 2797 3341 1997 
z
" transform="scale(0.015625)"/>
       <path id="DejaVuSans-70" d="M 1159 525 
L 1159 -1331 
L 581 -1331 
L 581 3500 
L 1159 3500 
L 1159 2969 
Q 1341 3281 1617 3432 
Q 1894 3584 2278 3584 
Q 2916 3584 3314 3078 
Q 3713 2572 3713 1747 
Q 3713 922 3314 415 
Q 2916 -91 2278 -91 
Q 1894 -91 1617 61 
Q 1341 213 1159 525 
z
M 3116 1747 
Q 3116 2381 2855 2742 
Q 2594 3103 2138 3103 
Q 1681 3103 1420 2742 
Q 1159 2381 1159 1747 
Q 1159 1113 1420 752 
Q 1681 391 2138 391 
Q 2594 391 2855 752 
Q 3116 1113 3116 1747 
z
" transform="scale(0.015625)"/>
       <path id="DejaVuSans-69" d="M 603 3500 
L 1178 3500 
L 1178 0 
L 603 0 
L 603 3500 
z
M 603 4863 
L 1178 4863 
L 1178 4134 
L 603 4134 
L 603 4863 
z
" transform="scale(0.015625)"/>
       <path id="DejaVuSans-72" d="M 2631 2963 
Q 2534 3019 2420 3045 
Q 2306 3072 2169 3072 
Q 1681 3072 1420 2755 
Q 1159 2438 1159 1844 
L 1159 0 
L 581 0 
L 581 3500 
L 1159 3500 
L 1159 2956 
Q 1341 3275 1631 3429 
Q 1922 3584 2338 3584 
Q 2397 3584 2469 3576 
Q 2541 3569 2628 3553 
L 2631 2963 
z
" transform="scale(0.015625)"/>
       <path id="DejaVuSans-79" d="M 2059 -325 
Q 1816 -950 1584 -1140 
Q 1353 -1331 966 -1331 
L 506 -1331 
L 506 -850 
L 844 -850 
Q 1081 -850 1212 -737 
Q 1344 -625 1503 -206 
L 1606 56 
L 191 3500 
L 800 3500 
L 1894 763 
L 2988 3500 
L 3597 3500 
L 2059 -325 
z
" transform="scale(0.015625)"/>
       <path id="DejaVuSans-20" transform="scale(0.015625)"/>
       <path id="DejaVuSans-50" d="M 1259 4147 
L 1259 2394 
L 2053 2394 
Q 2494 2394 2734 2622 
Q 2975 2850 2975 3272 
Q 2975 3691 2734 3919 
Q 2494 4147 2053 4147 
L 1259 4147 
z
M 628 4666 
L 2053 4666 
Q 2838 4666 3239 4311 
Q 3641 3956 3641 3272 
Q 3641 2581 3239 2228 
Q 2838 1875 2053 1875 
L 1259 1875 
L 1259 0 
L 628 0 
L 628 4666 
z
" transform="scale(0.015625)"/>
       <path id="DejaVuSans-65" d="M 3597 1894 
L 3597 1613 
L 953 1613 
Q 991 1019 1311 708 
Q 1631 397 2203 397 
Q 2534 397 2845 478 
Q 3156 559 3463 722 
L 3463 178 
Q 3153 47 2828 -22 
Q 2503 -91 2169 -91 
Q 1331 -91 842 396 
Q 353 884 353 1716 
Q 353 2575 817 3079 
Q 1281 3584 2069 3584 
Q 2775 3584 3186 3129 
Q 3597 2675 3597 1894 
z
M 3022 2063 
Q 3016 2534 2758 2815 
Q 2500 3097 2075 3097 
Q 1594 3097 1305 2825 
Q 1016 2553 972 2059 
L 3022 2063 
z
" transform="scale(0.015625)"/>
       <path id="DejaVuSans-73" d="M 2834 3397 
L 2834 2853 
Q 2591 2978 2328 3040 
Q 2066 3103 1784 3103 
Q 1356 3103 1142 2972 
Q 928 2841 928 2578 
Q 928 2378 1081 2264 
Q 1234 2150 1697 2047 
L 1894 2003 
Q 2506 1872 2764 1633 
Q 3022 1394 3022 966 
Q 3022 478 2636 193 
Q 2250 -91 1575 -91 
Q 1294 -91 989 -36 
Q 684 19 347 128 
L 347 722 
Q 666 556 975 473 
Q 1284 391 1588 391 
Q 1994 391 2212 530 
Q 2431 669 2431 922 
Q 2431 1156 2273 1281 
Q 2116 1406 1581 1522 
L 1381 1569 
Q 847 1681 609 1914 
Q 372 2147 372 2553 
Q 372 3047 722 3315 
Q 1072 3584 1716 3584 
Q 2034 3584 2315 3537 
Q 2597 3491 2834 3397 
z
" transform="scale(0.015625)"/>
       <path id="DejaVuSans-75" d="M 544 1381 
L 544 3500 
L 1119 3500 
L 1119 1403 
Q 1119 906 1312 657 
Q 1506 409 1894 409 
Q 2359 409 2629 706 
Q 2900 1003 2900 1516 
L 2900 3500 
L 3475 3500 
L 3475 0 
L 2900 0 
L 2900 538 
Q 2691 219 2414 64 
Q 2138 -91 1772 -91 
Q 1169 -91 856 284 
Q 544 659 544 1381 
z
M 1991 3584 
L 1991 3584 
z
" transform="scale(0.015625)"/>
       <path id="DejaVuSans-5b" d="M 550 4863 
L 1875 4863 
L 1875 4416 
L 1125 4416 
L 1125 -397 
L 1875 -397 
L 1875 -844 
L 550 -844 
L 550 4863 
z
" transform="scale(0.015625)"/>
       <path id="DejaVuSans-5d" d="M 1947 4863 
L 1947 -844 
L 622 -844 
L 622 -397 
L 1369 -397 
L 1369 4416 
L 622 4416 
L 622 4863 
L 1947 4863 
z
" transform="scale(0.015625)"/>
       <path id="DejaVuSans-29" d="M 513 4856 
L 1013 4856 
Q 1481 4119 1714 3412 
Q 1947 2706 1947 2009 
Q 1947 1309 1714 600 
Q 1481 -109 1013 -844 
L 513 -844 
Q 928 -128 1133 580 
Q 1338 1288 1338 2009 
Q 1338 2731 1133 3434 
Q 928 4138 513 4856 
z
" transform="scale(0.015625)"/>
      </defs>
      <use xlink:href="#DejaVuSans-6c"/>
      <use xlink:href="#DejaVuSans-6f" x="27.783203"/>
      <use xlink:href="#DejaVuSans-67" x="88.964844"/>
      <use xlink:href="#DejaVuSans-28" x="152.441406"/>
      <use xlink:href="#DejaVuSans-43" x="191.455078"/>
      <use xlink:href="#DejaVuSans-61" x="261.279297"/>
      <use xlink:href="#DejaVuSans-70" x="322.558594"/>
      <use xlink:href="#DejaVuSans-69" x="386.035156"/>
      <use xlink:href="#DejaVuSans-6c" x="413.818359"/>
      <use xlink:href="#DejaVuSans-6c" x="441.601562"/>
      <use xlink:href="#DejaVuSans-61" x="469.384766"/>
      <use xlink:href="#DejaVuSans-72" x="530.664062"/>
      <use xlink:href="#DejaVuSans-79" x="571.777344"/>
      <use xlink:href="#DejaVuSans-20" x="630.957031"/>
      <use xlink:href="#DejaVuSans-50" x="662.744141"/>
      <use xlink:href="#DejaVuSans-72" x="721.296875"/>
      <use xlink:href="#DejaVuSans-65" x="760.160156"/>
      <use xlink:href="#DejaVuSans-73" x="821.683594"/>
      <use xlink:href="#DejaVuSans-73" x="873.783203"/>
      <use xlink:href="#DejaVuSans-75" x="925.882812"/>
      <use xlink:href="#DejaVuSans-72" x="989.261719"/>
      <use xlink:href="#DejaVuSans-65" x="1028.125"/>
      <use xlink:href="#DejaVuSans-20" x="1089.648438"/>
      <use xlink:href="#DejaVuSans-5b" x="1121.435547"/>
      <use xlink:href="#DejaVuSans-50" x="1160.449219"/>
      <use xlink:href="#DejaVuSans-61" x="1216.251953"/>
      <use xlink:href="#DejaVuSans-5d" x="1277.53125"/>
      <use xlink:href="#DejaVuSans-29" x="1316.544922"/>
     </g>
    </g>
   </g>
   <g id="matplotlib.axis_2">
    <g id="ytick_1">
     <g id="line2d_22">
      <defs>
       <path id="m45f3e06952" d="M 0 0 
L 6 0 
" style="stroke: #000000; stroke-width: 2"/>
      </defs>
      <g>
       <use xlink:href="#m45f3e06952" x="49.3975" y="279.200114" style="fill: #ffffff; stroke: #000000; stroke-width: 2"/>
      </g>
     </g>
     <g id="line2d_23">
      <defs>
       <path id="madc6e134fe" d="M 0 0 
L -6 0 
" style="stroke: #000000; stroke-width: 2"/>
      </defs>
      <g>
       <use xlink:href="#madc6e134fe" x="442.08" y="279.200114" style="fill: #ffffff; stroke: #000000; stroke-width: 2"/>
      </g>
     </g>
     <g id="text_9">
      <!-- 0.0 -->
      <g transform="translate(26.81375 283.759176)scale(0.12 -0.12)">
       <use xlink:href="#DejaVuSans-30"/>
       <use xlink:href="#DejaVuSans-2e" x="63.623047"/>
       <use xlink:href="#DejaVuSans-30" x="95.410156"/>
      </g>
     </g>
    </g>
    <g id="ytick_2">
     <g id="line2d_24">
      <g>
       <use xlink:href="#m45f3e06952" x="49.3975" y="227.390568" style="fill: #ffffff; stroke: #000000; stroke-width: 2"/>
      </g>
     </g>
     <g id="line2d_25">
      <g>
       <use xlink:href="#madc6e134fe" x="442.08" y="227.390568" style="fill: #ffffff; stroke: #000000; stroke-width: 2"/>
      </g>
     </g>
     <g id="text_10">
      <!-- 0.2 -->
      <g transform="translate(26.81375 231.949631)scale(0.12 -0.12)">
       <use xlink:href="#DejaVuSans-30"/>
       <use xlink:href="#DejaVuSans-2e" x="63.623047"/>
       <use xlink:href="#DejaVuSans-32" x="95.410156"/>
      </g>
     </g>
    </g>
    <g id="ytick_3">
     <g id="line2d_26">
      <g>
       <use xlink:href="#m45f3e06952" x="49.3975" y="175.581023" style="fill: #ffffff; stroke: #000000; stroke-width: 2"/>
      </g>
     </g>
     <g id="line2d_27">
      <g>
       <use xlink:href="#madc6e134fe" x="442.08" y="175.581023" style="fill: #ffffff; stroke: #000000; stroke-width: 2"/>
      </g>
     </g>
     <g id="text_11">
      <!-- 0.4 -->
      <g transform="translate(26.81375 180.140085)scale(0.12 -0.12)">
       <use xlink:href="#DejaVuSans-30"/>
       <use xlink:href="#DejaVuSans-2e" x="63.623047"/>
       <use xlink:href="#DejaVuSans-34" x="95.410156"/>
      </g>
     </g>
    </g>
    <g id="ytick_4">
     <g id="line2d_28">
      <g>
       <use xlink:href="#m45f3e06952" x="49.3975" y="123.771477" style="fill: #ffffff; stroke: #000000; stroke-width: 2"/>
      </g>
     </g>
     <g id="line2d_29">
      <g>
       <use xlink:href="#madc6e134fe" x="442.08" y="123.771477" style="fill: #ffffff; stroke: #000000; stroke-width: 2"/>
      </g>
     </g>
     <g id="text_12">
      <!-- 0.6 -->
      <g transform="translate(26.81375 128.33054)scale(0.12 -0.12)">
       <defs>
        <path id="DejaVuSans-36" d="M 2113 2584 
Q 1688 2584 1439 2293 
Q 1191 2003 1191 1497 
Q 1191 994 1439 701 
Q 1688 409 2113 409 
Q 2538 409 2786 701 
Q 3034 994 3034 1497 
Q 3034 2003 2786 2293 
Q 2538 2584 2113 2584 
z
M 3366 4563 
L 3366 3988 
Q 3128 4100 2886 4159 
Q 2644 4219 2406 4219 
Q 1781 4219 1451 3797 
Q 1122 3375 1075 2522 
Q 1259 2794 1537 2939 
Q 1816 3084 2150 3084 
Q 2853 3084 3261 2657 
Q 3669 2231 3669 1497 
Q 3669 778 3244 343 
Q 2819 -91 2113 -91 
Q 1303 -91 875 529 
Q 447 1150 447 2328 
Q 447 3434 972 4092 
Q 1497 4750 2381 4750 
Q 2619 4750 2861 4703 
Q 3103 4656 3366 4563 
z
" transform="scale(0.015625)"/>
       </defs>
       <use xlink:href="#DejaVuSans-30"/>
       <use xlink:href="#DejaVuSans-2e" x="63.623047"/>
       <use xlink:href="#DejaVuSans-36" x="95.410156"/>
      </g>
     </g>
    </g>
    <g id="ytick_5">
     <g id="line2d_30">
      <g>
       <use xlink:href="#m45f3e06952" x="49.3975" y="71.961932" style="fill: #ffffff; stroke: #000000; stroke-width: 2"/>
      </g>
     </g>
     <g id="line2d_31">
      <g>
       <use xlink:href="#madc6e134fe" x="442.08" y="71.961932" style="fill: #ffffff; stroke: #000000; stroke-width: 2"/>
      </g>
     </g>
     <g id="text_13">
      <!-- 0.8 -->
      <g transform="translate(26.81375 76.520994)scale(0.12 -0.12)">
       <defs>
        <path id="DejaVuSans-38" d="M 2034 2216 
Q 1584 2216 1326 1975 
Q 1069 1734 1069 1313 
Q 1069 891 1326 650 
Q 1584 409 2034 409 
Q 2484 409 2743 651 
Q 3003 894 3003 1313 
Q 3003 1734 2745 1975 
Q 2488 2216 2034 2216 
z
M 1403 2484 
Q 997 2584 770 2862 
Q 544 3141 544 3541 
Q 544 4100 942 4425 
Q 1341 4750 2034 4750 
Q 2731 4750 3128 4425 
Q 3525 4100 3525 3541 
Q 3525 3141 3298 2862 
Q 3072 2584 2669 2484 
Q 3125 2378 3379 2068 
Q 3634 1759 3634 1313 
Q 3634 634 3220 271 
Q 2806 -91 2034 -91 
Q 1263 -91 848 271 
Q 434 634 434 1313 
Q 434 1759 690 2068 
Q 947 2378 1403 2484 
z
M 1172 3481 
Q 1172 3119 1398 2916 
Q 1625 2713 2034 2713 
Q 2441 2713 2670 2916 
Q 2900 3119 2900 3481 
Q 2900 3844 2670 4047 
Q 2441 4250 2034 4250 
Q 1625 4250 1398 4047 
Q 1172 3844 1172 3481 
z
" transform="scale(0.015625)"/>
       </defs>
       <use xlink:href="#DejaVuSans-30"/>
       <use xlink:href="#DejaVuSans-2e" x="63.623047"/>
       <use xlink:href="#DejaVuSans-38" x="95.410156"/>
      </g>
     </g>
    </g>
    <g id="ytick_6">
     <g id="line2d_32">
      <g>
       <use xlink:href="#m45f3e06952" x="49.3975" y="20.152386" style="fill: #ffffff; stroke: #000000; stroke-width: 2"/>
      </g>
     </g>
     <g id="line2d_33">
      <g>
       <use xlink:href="#madc6e134fe" x="442.08" y="20.152386" style="fill: #ffffff; stroke: #000000; stroke-width: 2"/>
      </g>
     </g>
     <g id="text_14">
      <!-- 1.0 -->
      <g transform="translate(26.81375 24.711449)scale(0.12 -0.12)">
       <defs>
        <path id="DejaVuSans-31" d="M 794 531 
L 1825 531 
L 1825 4091 
L 703 3866 
L 703 4441 
L 1819 4666 
L 2450 4666 
L 2450 531 
L 3481 531 
L 3481 0 
L 794 0 
L 794 531 
z
" transform="scale(0.015625)"/>
       </defs>
       <use xlink:href="#DejaVuSans-31"/>
       <use xlink:href="#DejaVuSans-2e" x="63.623047"/>
       <use xlink:href="#DejaVuSans-30" x="95.410156"/>
      </g>
     </g>
    </g>
    <g id="text_15">
     <!-- Non-wetting Phase Saturation -->
     <g transform="translate(16.318125 239.390312)rotate(-90)scale(0.12 -0.12)">
      <defs>
       <path id="DejaVuSans-4e" d="M 628 4666 
L 1478 4666 
L 3547 763 
L 3547 4666 
L 4159 4666 
L 4159 0 
L 3309 0 
L 1241 3903 
L 1241 0 
L 628 0 
L 628 4666 
z
" transform="scale(0.015625)"/>
       <path id="DejaVuSans-6e" d="M 3513 2113 
L 3513 0 
L 2938 0 
L 2938 2094 
Q 2938 2591 2744 2837 
Q 2550 3084 2163 3084 
Q 1697 3084 1428 2787 
Q 1159 2491 1159 1978 
L 1159 0 
L 581 0 
L 581 3500 
L 1159 3500 
L 1159 2956 
Q 1366 3272 1645 3428 
Q 1925 3584 2291 3584 
Q 2894 3584 3203 3211 
Q 3513 2838 3513 2113 
z
" transform="scale(0.015625)"/>
       <path id="DejaVuSans-2d" d="M 313 2009 
L 1997 2009 
L 1997 1497 
L 313 1497 
L 313 2009 
z
" transform="scale(0.015625)"/>
       <path id="DejaVuSans-77" d="M 269 3500 
L 844 3500 
L 1563 769 
L 2278 3500 
L 2956 3500 
L 3675 769 
L 4391 3500 
L 4966 3500 
L 4050 0 
L 3372 0 
L 2619 2869 
L 1863 0 
L 1184 0 
L 269 3500 
z
" transform="scale(0.015625)"/>
       <path id="DejaVuSans-74" d="M 1172 4494 
L 1172 3500 
L 2356 3500 
L 2356 3053 
L 1172 3053 
L 1172 1153 
Q 1172 725 1289 603 
Q 1406 481 1766 481 
L 2356 481 
L 2356 0 
L 1766 0 
Q 1100 0 847 248 
Q 594 497 594 1153 
L 594 3053 
L 172 3053 
L 172 3500 
L 594 3500 
L 594 4494 
L 1172 4494 
z
" transform="scale(0.015625)"/>
       <path id="DejaVuSans-68" d="M 3513 2113 
L 3513 0 
L 2938 0 
L 2938 2094 
Q 2938 2591 2744 2837 
Q 2550 3084 2163 3084 
Q 1697 3084 1428 2787 
Q 1159 2491 1159 1978 
L 1159 0 
L 581 0 
L 581 4863 
L 1159 4863 
L 1159 2956 
Q 1366 3272 1645 3428 
Q 1925 3584 2291 3584 
Q 2894 3584 3203 3211 
Q 3513 2838 3513 2113 
z
" transform="scale(0.015625)"/>
       <path id="DejaVuSans-53" d="M 3425 4513 
L 3425 3897 
Q 3066 4069 2747 4153 
Q 2428 4238 2131 4238 
Q 1616 4238 1336 4038 
Q 1056 3838 1056 3469 
Q 1056 3159 1242 3001 
Q 1428 2844 1947 2747 
L 2328 2669 
Q 3034 2534 3370 2195 
Q 3706 1856 3706 1288 
Q 3706 609 3251 259 
Q 2797 -91 1919 -91 
Q 1588 -91 1214 -16 
Q 841 59 441 206 
L 441 856 
Q 825 641 1194 531 
Q 1563 422 1919 422 
Q 2459 422 2753 634 
Q 3047 847 3047 1241 
Q 3047 1584 2836 1778 
Q 2625 1972 2144 2069 
L 1759 2144 
Q 1053 2284 737 2584 
Q 422 2884 422 3419 
Q 422 4038 858 4394 
Q 1294 4750 2059 4750 
Q 2388 4750 2728 4690 
Q 3069 4631 3425 4513 
z
" transform="scale(0.015625)"/>
      </defs>
      <use xlink:href="#DejaVuSans-4e"/>
      <use xlink:href="#DejaVuSans-6f" x="74.804688"/>
      <use xlink:href="#DejaVuSans-6e" x="135.986328"/>
      <use xlink:href="#DejaVuSans-2d" x="199.365234"/>
      <use xlink:href="#DejaVuSans-77" x="235.449219"/>
      <use xlink:href="#DejaVuSans-65" x="317.236328"/>
      <use xlink:href="#DejaVuSans-74" x="378.759766"/>
      <use xlink:href="#DejaVuSans-74" x="417.96875"/>
      <use xlink:href="#DejaVuSans-69" x="457.177734"/>
      <use xlink:href="#DejaVuSans-6e" x="484.960938"/>
      <use xlink:href="#DejaVuSans-67" x="548.339844"/>
      <use xlink:href="#DejaVuSans-20" x="611.816406"/>
      <use xlink:href="#DejaVuSans-50" x="643.603516"/>
      <use xlink:href="#DejaVuSans-68" x="703.90625"/>
      <use xlink:href="#DejaVuSans-61" x="767.285156"/>
      <use xlink:href="#DejaVuSans-73" x="828.564453"/>
      <use xlink:href="#DejaVuSans-65" x="880.664062"/>
      <use xlink:href="#DejaVuSans-20" x="942.1875"/>
      <use xlink:href="#DejaVuSans-53" x="973.974609"/>
      <use xlink:href="#DejaVuSans-61" x="1037.451172"/>
      <use xlink:href="#DejaVuSans-74" x="1098.730469"/>
      <use xlink:href="#DejaVuSans-75" x="1137.939453"/>
      <use xlink:href="#DejaVuSans-72" x="1201.318359"/>
      <use xlink:href="#DejaVuSans-61" x="1242.431641"/>
      <use xlink:href="#DejaVuSans-74" x="1303.710938"/>
      <use xlink:href="#DejaVuSans-69" x="1342.919922"/>
      <use xlink:href="#DejaVuSans-6f" x="1370.703125"/>
      <use xlink:href="#DejaVuSans-6e" x="1431.884766"/>
     </g>
    </g>
   </g>
   <g id="line2d_34">
    <path d="M 131.165503 277.459807 
L 131.165503 277.375046 
L 135.090152 275.421936 
L 143.479145 275.301106 
L 143.479145 275.270448 
L 147.978346 275.243397 
L 143.479145 275.147815 
L 147.978346 275.11355 
L 152.708374 273.2975 
L 152.708374 273.207329 
L 157.694201 272.305616 
L 157.694201 271.887221 
L 162.965083 270.949439 
L 157.694201 270.861071 
L 162.965083 270.700567 
L 162.965083 270.500386 
L 157.694201 270.336275 
L 157.694201 270.056743 
L 152.708374 269.881811 
L 152.708374 269.721306 
L 147.978346 269.540964 
L 147.978346 269.443579 
L 152.708374 269.297501 
L 152.708374 269.248809 
L 162.965083 269.118962 
L 168.555603 268.318241 
L 168.555603 268.114454 
L 174.507044 268.078385 
L 174.507044 267.903453 
L 180.869245 267.889025 
L 180.869245 267.620315 
L 187.703136 267.611298 
L 187.703136 266.918782 
L 195.084301 266.907962 
L 195.084301 266.109044 
L 187.703136 266.036907 
L 195.084301 266.0333 
L 195.084301 265.982804 
L 203.108084 265.604085 
L 203.108084 265.347998 
L 211.897144 264.819594 
L 203.108084 264.765491 
L 211.897144 264.614004 
L 203.108084 264.554491 
L 211.897144 264.383165 
L 203.108084 264.246105 
L 203.108084 264.190198 
L 195.084301 264.02789 
L 195.084301 263.984608 
L 187.703136 263.867385 
L 187.703136 263.798855 
L 180.869245 263.661795 
L 168.555603 263.290289 
L 168.555603 263.046826 
L 180.869245 262.906159 
L 180.869245 262.870091 
L 195.084301 262.682534 
L 195.084301 262.588756 
L 211.897144 262.408414 
L 211.897144 262.321849 
L 203.108084 262.157737 
L 203.108084 262.024284 
L 195.084301 261.925095 
L 203.108084 261.914275 
L 203.108084 261.829514 
L 211.897144 261.679829 
L 211.897144 261.540966 
L 203.108084 261.531948 
L 211.897144 261.472435 
L 195.084301 261.247007 
L 195.084301 261.185691 
L 187.703136 261.061254 
L 195.084301 260.981903 
L 195.084301 260.765492 
L 187.703136 260.603184 
L 187.703136 260.444483 
L 180.869245 260.242499 
L 195.084301 260.13249 
L 195.084301 259.939523 
L 203.108084 259.822301 
L 203.108084 259.638351 
L 195.084301 259.47965 
L 195.084301 259.375051 
L 187.703136 259.257828 
L 187.703136 259.189298 
L 180.869245 259.052238 
L 180.869245 258.980101 
L 174.507044 258.84304 
L 174.507044 258.763689 
L 168.555603 258.577937 
L 168.555603 258.457107 
L 162.965083 258.307423 
L 162.965083 257.712292 
L 157.694201 257.465223 
L 157.694201 257.402103 
L 147.978346 256.942229 
L 147.978346 256.834024 
L 143.479145 256.550886 
L 139.189286 256.291192 
L 139.189286 256.125277 
L 135.090152 255.919687 
L 135.090152 255.80066 
L 147.978346 255.486864 
L 147.978346 255.439975 
L 152.708374 255.308325 
L 152.708374 255.196513 
L 157.694201 255.028794 
L 157.694201 254.714998 
L 162.965083 254.635647 
L 162.965083 254.50039 
L 168.555603 254.482356 
L 162.965083 254.399398 
L 168.555603 254.312834 
L 162.965083 254.228073 
L 168.555603 254.177577 
L 162.965083 254.006251 
L 162.965083 253.753772 
L 168.555603 253.587857 
L 168.555603 253.115359 
L 162.965083 253.030598 
L 168.555603 253.016171 
L 168.555603 252.963871 
L 180.869245 252.704178 
L 180.869245 252.599579 
L 187.703136 252.466126 
L 187.703136 252.303817 
L 211.897144 251.944935 
L 211.897144 251.77361 
L 203.108084 251.712294 
L 211.897144 251.65278 
L 211.897144 250.870094 
L 221.612999 250.86288 
L 211.897144 250.812384 
L 221.612999 250.449895 
L 221.612999 250.058552 
L 211.897144 249.919688 
L 211.897144 249.883619 
L 232.474401 249.724918 
L 221.612999 249.679832 
L 232.474401 249.387677 
L 232.474401 248.953052 
L 221.612999 248.792547 
L 221.612999 248.760085 
L 211.897144 248.621221 
L 211.897144 248.585153 
L 195.084301 248.265946 
L 195.084301 248.195613 
L 203.108084 248.038715 
L 203.108084 247.999039 
L 195.084301 247.858372 
L 195.084301 247.701474 
L 211.897144 247.573431 
L 211.897144 247.544576 
L 203.108084 247.393088 
L 203.108084 247.279472 
L 195.084301 247.147822 
L 195.084301 247.108147 
L 203.108084 246.98371 
L 203.108084 246.687948 
L 221.612999 246.482358 
L 221.612999 246.177579 
L 203.108084 245.970185 
L 203.108084 245.874603 
L 195.084301 245.712295 
L 195.084301 245.669013 
L 187.703136 245.55179 
L 187.703136 245.48326 
L 180.869245 245.297507 
L 180.869245 245.227173 
L 168.555603 244.886326 
L 168.555603 244.83042 
L 157.694201 244.421042 
L 157.694201 244.311033 
L 162.965083 244.307426 
L 157.694201 244.219058 
L 162.965083 244.1884 
L 157.694201 244.008057 
L 162.965083 243.997237 
L 157.694201 243.912476 
L 157.694201 243.721313 
L 152.708374 243.515722 
L 152.708374 243.308328 
L 157.694201 243.147823 
L 162.965083 242.990925 
L 162.965083 242.945839 
L 168.555603 242.779924 
L 168.555603 242.727625 
L 174.507044 242.57253 
L 174.507044 242.132494 
L 168.555603 241.991827 
L 168.555603 241.79886 
L 162.965083 241.654586 
L 162.965083 241.448996 
L 157.694201 241.283081 
L 157.694201 241.124379 
L 162.965083 240.969284 
L 162.965083 240.916985 
L 168.555603 240.742053 
L 168.555603 240.686147 
L 174.507044 240.541872 
L 174.507044 240.451701 
L 168.555603 240.311034 
L 168.555603 240.118067 
L 162.965083 239.973793 
L 168.555603 239.921494 
L 168.555603 239.843947 
L 174.507044 239.753775 
L 174.507044 239.037815 
L 180.869245 238.971088 
L 174.507044 238.812387 
L 174.507044 238.696968 
L 168.555603 238.522035 
L 168.555603 238.325462 
L 180.869245 238.125282 
L 180.869245 237.89805 
L 187.703136 237.825913 
L 180.869245 237.755579 
L 187.703136 237.692459 
L 180.869245 237.622126 
L 187.703136 237.609502 
L 187.703136 237.344398 
L 180.869245 237.183893 
L 180.869245 237.142414 
L 187.703136 237.007157 
L 187.703136 236.857473 
L 195.084301 236.760088 
L 187.703136 236.586959 
L 187.703136 236.509412 
L 195.084301 236.422847 
L 195.084301 236.247915 
L 203.108084 236.056752 
L 203.108084 235.795255 
L 195.084301 235.641964 
L 195.084301 235.495886 
L 187.703136 235.423749 
L 195.084301 235.412929 
L 195.084301 235.322757 
L 203.108084 235.247014 
L 211.897144 235.137005 
L 203.108084 234.999944 
L 203.108084 234.866491 
L 195.084301 234.725823 
L 195.084301 234.581549 
L 187.703136 234.419241 
L 174.507044 234.074787 
L 174.507044 234.022487 
L 162.965083 233.634751 
L 157.694201 233.337185 
L 157.694201 233.10815 
L 162.965083 232.9765 
L 162.965083 232.924201 
L 187.703136 232.72402 
L 211.897144 232.527447 
L 211.897144 232.408421 
L 221.612999 232.404814 
L 221.612999 231.871 
L 211.897144 231.75017 
L 211.897144 231.661802 
L 203.108084 231.54458 
L 203.108084 231.488674 
L 211.897144 231.485067 
L 203.108084 231.396699 
L 203.108084 231.311938 
L 195.084301 231.151433 
L 187.703136 230.992731 
L 187.703136 230.698773 
L 180.869245 230.525644 
L 180.869245 230.489576 
L 174.507044 230.415635 
L 180.869245 230.410225 
L 180.869245 230.325464 
L 187.703136 230.226275 
L 187.703136 230.184797 
L 195.084301 230.146925 
L 187.703136 230.074788 
L 195.084301 230.044129 
L 187.703136 229.971992 
L 187.703136 229.926907 
L 232.474401 229.490477 
L 221.612999 229.445392 
L 232.474401 229.315545 
L 221.612999 229.160451 
L 232.474401 229.088313 
L 221.612999 228.915185 
L 221.612999 228.868296 
L 203.108084 228.660902 
L 203.108084 228.56532 
L 195.084301 228.403012 
L 187.703136 228.278575 
L 187.703136 228.210045 
L 180.869245 228.024292 
L 180.869245 227.9756 
L 187.703136 227.865591 
L 187.703136 227.479657 
L 180.869245 227.342597 
L 180.869245 227.27046 
L 174.507044 227.1334 
L 187.703136 226.965681 
L 187.703136 226.889937 
L 195.084301 226.830424 
L 195.084301 226.570731 
L 187.703136 226.498594 
L 195.084301 226.49138 
L 203.108084 226.379568 
L 203.108084 226.260541 
L 211.897144 226.123481 
L 211.897144 225.876412 
L 221.612999 225.764599 
L 221.612999 225.71771 
L 232.474401 225.714103 
L 221.612999 225.623932 
L 221.612999 225.549992 
L 203.108084 225.367846 
L 203.108084 225.158648 
L 232.474401 224.951254 
L 232.474401 224.897151 
L 244.788043 224.888134 
L 232.474401 224.604996 
L 232.474401 224.5545 
L 221.612999 224.421047 
L 221.612999 224.329072 
L 232.474401 224.21726 
L 221.612999 224.054951 
L 203.108084 223.851164 
L 203.108084 223.813292 
L 195.084301 223.627539 
L 203.108084 223.499496 
L 203.108084 223.409325 
L 232.474401 223.245213 
L 232.474401 223.203734 
L 244.788043 222.776322 
L 244.788043 221.818703 
L 232.474401 221.678036 
L 232.474401 221.62213 
L 244.788043 221.553599 
L 232.474401 221.508514 
L 244.788043 221.430966 
L 232.474401 221.30112 
L 232.474401 221.182094 
L 244.788043 221.021589 
L 244.788043 220.826819 
L 203.108084 220.455313 
L 203.108084 220.375962 
L 180.869245 220.107252 
L 162.965083 219.779028 
L 162.965083 219.719515 
L 221.612999 219.593275 
L 221.612999 219.569831 
L 244.788043 219.492283 
L 244.788043 219.402112 
L 232.474401 219.203735 
L 232.474401 219.025196 
L 211.897144 218.761896 
L 211.897144 218.572536 
L 203.108084 218.469741 
L 211.897144 218.466134 
L 211.897144 218.078397 
L 203.108084 217.966585 
L 221.612999 217.851166 
L 221.612999 217.643772 
L 211.897144 217.522942 
L 211.897144 217.470643 
L 203.108084 217.340796 
L 221.612999 217.203736 
L 221.612999 217.131599 
L 232.474401 217.03241 
L 232.474401 216.942239 
L 244.788043 216.886333 
L 244.788043 216.772717 
L 221.612999 216.585161 
L 221.612999 216.274971 
L 232.474401 216.1848 
L 244.788043 216.114466 
L 232.474401 216.074791 
L 232.474401 215.914286 
L 211.897144 215.724926 
L 211.897144 215.638362 
L 221.612999 215.512122 
L 221.612999 215.317352 
L 244.788043 215.21095 
L 244.788043 215.017983 
L 221.612999 214.848461 
L 221.612999 214.770914 
L 203.108084 214.56352 
L 203.108084 214.249724 
L 195.084301 214.109057 
L 195.084301 213.946748 
L 211.897144 213.849363 
L 211.897144 213.596884 
L 203.108084 213.447199 
L 211.897144 213.445396 
L 203.108084 213.355224 
L 203.108084 213.241609 
L 195.084301 213.099138 
L 195.084301 212.705991 
L 187.703136 212.476956 
L 187.703136 212.449905 
L 211.897144 212.22628 
L 211.897144 212.170374 
L 221.612999 212.060365 
L 221.612999 211.76821 
L 211.897144 211.71591 
L 221.612999 211.678038 
L 221.612999 211.586063 
L 232.474401 211.571636 
L 221.612999 211.52655 
L 232.474401 211.416541 
L 221.612999 211.270464 
L 221.612999 211.164062 
L 203.108084 210.958471 
L 203.108084 210.895351 
L 232.474401 210.707795 
L 232.474401 210.585162 
L 244.788043 210.527452 
L 203.108084 210.237101 
L 203.108084 210.181195 
L 221.612999 210.092827 
L 221.612999 210.062168 
L 232.474401 209.941339 
L 232.474401 209.804279 
L 244.788043 209.64738 
L 232.474401 209.602295 
L 244.788043 209.571637 
L 244.788043 209.535568 
L 232.474401 209.391294 
L 244.788043 209.272268 
L 221.612999 209.10996 
L 232.474401 209.106353 
L 221.612999 209.034216 
L 221.612999 208.987327 
L 211.897144 208.871907 
L 211.897144 208.819608 
L 195.084301 208.628445 
L 195.084301 208.556308 
L 187.703136 208.431871 
L 187.703136 208.363341 
L 174.507044 208.105451 
L 174.507044 208.013476 
L 162.965083 207.733945 
L 162.965083 207.56803 
L 157.694201 207.402115 
L 157.694201 207.057661 
L 152.708374 206.884532 
L 152.708374 206.655497 
L 143.479145 206.170375 
L 143.479145 206.094631 
L 139.189286 205.887237 
L 135.090152 205.661809 
L 135.090152 205.535569 
L 131.165503 205.405722 
L 135.090152 205.35703 
L 131.165503 205.2362 
L 131.165503 204.873712 
L 139.189286 204.781737 
L 139.189286 204.725831 
L 147.978346 204.462531 
L 147.978346 204.397607 
L 157.694201 204.246119 
L 157.694201 204.163162 
L 174.507044 204.047743 
L 174.507044 204.009871 
L 187.703136 203.789853 
L 187.703136 203.582459 
L 211.897144 203.266859 
L 211.897144 203.209149 
L 221.612999 203.063072 
L 221.612999 202.918798 
L 211.897144 202.797968 
L 211.897144 202.745669 
L 195.084301 202.527454 
L 195.084301 201.937734 
L 187.703136 201.775426 
L 180.869245 201.627545 
L 187.703136 201.59328 
L 180.869245 201.438185 
L 180.869245 201.274073 
L 174.507044 201.142423 
L 174.507044 201.064876 
L 168.555603 200.918798 
L 187.703136 200.689763 
L 187.703136 200.509421 
L 180.869245 200.352523 
L 180.869245 200.188411 
L 174.507044 200.024299 
L 174.507044 199.970196 
L 162.965083 199.705093 
L 168.555603 199.690665 
L 162.965083 199.607708 
L 162.965083 199.073893 
L 174.507044 198.844858 
L 174.507044 198.797969 
L 203.108084 198.444498 
L 203.108084 198.300224 
L 221.612999 198.128898 
L 221.612999 197.84576 
L 195.084301 197.492289 
L 195.084301 197.346211 
L 187.703136 197.165869 
L 187.703136 197.097338 
L 203.108084 196.922406 
L 203.108084 196.684354 
L 195.084301 196.543687 
L 195.084301 196.440891 
L 187.703136 196.323669 
L 187.703136 196.255138 
L 203.108084 196.036924 
L 203.108084 195.587871 
L 211.897144 195.557213 
L 203.108084 195.50311 
L 203.108084 195.447204 
L 211.897144 195.443597 
L 203.108084 195.355229 
L 203.108084 195.270468 
L 195.084301 195.109963 
L 187.703136 194.953065 
L 187.703136 194.888142 
L 180.869245 194.751081 
L 180.869245 194.678944 
L 168.555603 194.412037 
L 168.555603 194.215464 
L 162.965083 194.07119 
L 162.965083 193.921505 
L 157.694201 193.81871 
L 162.965083 193.748376 
L 203.108084 193.100946 
L 203.108084 192.942245 
L 221.612999 192.796167 
L 221.612999 192.365148 
L 211.897144 192.173985 
L 221.612999 192.13431 
L 232.474401 191.964788 
L 232.474401 191.663616 
L 244.788043 191.645581 
L 232.474401 191.60771 
L 244.788043 191.456222 
L 244.788043 191.295717 
L 232.474401 191.169477 
L 232.474401 191.041434 
L 221.612999 190.89716 
L 221.612999 190.772723 
L 232.474401 190.646483 
L 232.474401 190.559919 
L 221.612999 190.408431 
L 221.612999 190.338098 
L 211.897144 190.173986 
L 203.108084 190.051353 
L 203.108084 189.988233 
L 195.084301 189.825925 
L 187.703136 189.669026 
L 187.703136 189.622137 
L 180.869245 189.537376 
L 187.703136 189.530163 
L 187.703136 189.387692 
L 211.897144 189.182101 
L 211.897144 189.173084 
L 232.474401 189.084716 
L 244.788043 188.893553 
L 232.474401 188.754689 
L 232.474401 188.727638 
L 211.897144 188.518441 
L 211.897144 188.460731 
L 203.108084 188.327277 
L 203.108084 188.271371 
L 195.084301 188.110866 
L 221.612999 187.995447 
L 221.612999 187.966592 
L 244.788043 187.809694 
L 244.788043 187.732147 
L 232.474401 187.59148 
L 232.474401 187.562625 
L 221.612999 187.400316 
L 203.108084 187.196529 
L 203.108084 187.100948 
L 195.084301 187.001759 
L 232.474401 186.769117 
L 232.474401 186.505817 
L 244.788043 186.473355 
L 232.474401 186.282192 
L 232.474401 186.199235 
L 221.612999 186.035123 
L 211.897144 185.890849 
L 211.897144 185.861994 
L 221.612999 185.726737 
L 203.108084 185.674438 
L 221.612999 185.647386 
L 232.474401 185.618532 
L 221.612999 185.566232 
L 221.612999 185.456223 
L 211.897144 185.317359 
L 211.897144 185.281291 
L 187.703136 184.889947 
L 187.703136 184.821417 
L 174.507044 184.489587 
L 162.965083 184.100047 
L 157.694201 183.845764 
L 157.694201 183.751986 
L 152.708374 183.571643 
L 152.708374 183.474258 
L 147.978346 183.288505 
L 147.978346 183.183906 
L 143.479145 182.994547 
L 143.479145 182.886341 
L 139.189286 182.66993 
L 139.189286 182.554511 
L 135.090152 182.350724 
L 152.708374 182.179398 
L 195.084301 181.692473 
L 195.084301 181.403925 
L 211.897144 181.23801 
L 211.897144 181.017992 
L 203.108084 180.861094 
L 203.108084 180.821418 
L 195.084301 180.660913 
L 195.084301 180.617631 
L 187.703136 180.500408 
L 187.703136 180.431878 
L 180.869245 180.294818 
L 180.869245 180.123492 
L 187.703136 179.993646 
L 187.703136 179.861996 
L 211.897144 179.645584 
L 211.897144 179.430977 
L 203.108084 179.279489 
L 203.108084 179.128001 
L 195.084301 179.068488 
L 203.108084 179.017992 
L 221.612999 178.944052 
L 221.612999 178.77994 
L 232.474401 178.743871 
L 221.612999 178.698786 
L 232.474401 178.632059 
L 221.612999 178.586973 
L 232.474401 178.469751 
L 221.612999 178.329083 
L 232.474401 178.260553 
L 221.612999 178.215468 
L 232.474401 178.170382 
L 232.474401 178.040535 
L 221.612999 177.878227 
L 203.108084 177.67985 
L 203.108084 177.645585 
L 187.703136 177.481473 
L 180.869245 177.414746 
L 187.703136 177.376874 
L 232.474401 177.22719 
L 232.474401 177.146036 
L 203.108084 176.918804 
L 195.084301 176.839453 
L 203.108084 176.828633 
L 244.788043 176.743872 
L 244.788043 176.599598 
L 232.474401 176.554512 
L 244.788043 176.491392 
L 244.788043 176.417452 
L 221.612999 176.24793 
L 221.612999 176.137921 
L 203.108084 175.93233 
L 203.108084 175.86921 
L 195.084301 175.768218 
L 211.897144 175.587876 
L 211.897144 175.477867 
L 221.612999 175.385892 
L 221.612999 175.113575 
L 232.474401 175.005369 
L 232.474401 174.920608 
L 203.108084 174.727642 
L 203.108084 174.70059 
L 244.788043 174.615829 
L 232.474401 174.576154 
L 244.788043 174.460734 
L 232.474401 174.415649 
L 244.788043 174.30564 
L 221.612999 174.136118 
L 221.612999 174.05857 
L 203.108084 173.851176 
L 211.897144 173.750185 
L 211.897144 173.510329 
L 195.084301 173.21096 
L 195.084301 173.169481 
L 180.869245 172.843061 
L 180.869245 172.794369 
L 168.555603 172.424666 
L 168.555603 172.36876 
L 162.965083 172.206452 
L 168.555603 172.148742 
L 162.965083 172.063981 
L 168.555603 172.049554 
L 211.897144 171.843963 
L 211.897144 171.818715 
L 244.788043 171.656407 
L 244.788043 171.575253 
L 221.612999 171.402124 
L 221.612999 171.351628 
L 203.108084 171.169482 
L 203.108084 171.102755 
L 195.084301 170.971105 
L 195.084301 170.763711 
L 203.108084 170.619437 
L 203.108084 170.534676 
L 195.084301 170.413846 
L 221.612999 170.312854 
L 221.612999 170.28941 
L 244.788043 170.181204 
L 244.788043 170.10546 
L 232.474401 170.060375 
L 244.788043 170.009879 
L 244.788043 169.946759 
L 203.108084 169.7051 
L 211.897144 169.692476 
L 244.788043 169.638373 
L 232.474401 169.439996 
L 232.474401 169.174893 
L 221.612999 169.012584 
L 221.612999 168.980123 
L 232.474401 168.853883 
L 232.474401 168.796173 
L 244.788043 168.696985 
L 244.788043 168.588779 
L 221.612999 168.41565 
L 221.612999 168.361547 
L 203.108084 168.179401 
L 203.108084 168.033324 
L 195.084301 167.852981 
L 195.084301 167.750186 
L 187.703136 167.526561 
L 187.703136 167.261458 
L 180.869245 167.129807 
L 180.869245 167.007175 
L 174.507044 166.823225 
L 174.507044 166.386796 
L 168.555603 166.20465 
L 174.507044 166.155957 
L 174.507044 166.035128 
L 180.869245 166.031521 
L 174.507044 165.957581 
L 180.869245 165.917905 
L 174.507044 165.762811 
L 174.507044 165.586075 
L 168.555603 165.441801 
L 168.555603 165.301133 
L 162.965083 165.156859 
L 162.965083 165.068491 
L 157.694201 164.848474 
L 162.965083 164.733054 
L 162.965083 164.680755 
L 168.555603 164.505823 
L 168.555603 164.237112 
L 162.965083 164.092838 
L 162.965083 163.625751 
L 174.507044 163.458032 
L 174.507044 163.411143 
L 187.703136 163.232604 
L 187.703136 163.182108 
L 211.897144 163.003569 
L 211.897144 162.929628 
L 232.474401 162.738465 
L 232.474401 162.64108 
L 221.612999 162.478772 
L 203.108084 162.273181 
L 203.108084 162.210061 
L 195.084301 162.047753 
L 195.084301 161.990043 
L 203.108084 161.876427 
L 203.108084 161.784453 
L 211.897144 161.665427 
L 211.897144 161.557221 
L 221.612999 161.470656 
L 211.897144 161.418357 
L 221.612999 161.385895 
L 221.612999 161.28851 
L 211.897144 161.167681 
L 211.897144 161.052262 
L 221.612999 160.949466 
L 221.612999 160.904381 
L 232.474401 160.814209 
L 221.612999 160.675346 
L 232.474401 160.648294 
L 244.788043 160.406635 
L 244.788043 160.274985 
L 232.474401 160.11989 
L 232.474401 160.091036 
L 221.612999 159.930531 
L 221.612999 159.898069 
L 211.897144 159.777239 
L 211.897144 159.688872 
L 203.108084 159.560828 
L 221.612999 159.434588 
L 232.474401 159.302938 
L 221.612999 159.142433 
L 211.897144 159.021604 
L 211.897144 158.969305 
L 203.108084 158.810603 
L 195.084301 158.608619 
L 221.612999 158.431884 
L 221.612999 158.213669 
L 203.108084 158.009882 
L 203.108084 157.9143 
L 195.084301 157.751992 
L 187.703136 157.595094 
L 187.703136 157.548205 
L 174.507044 157.320973 
L 174.507044 157.171289 
L 211.897144 157.043245 
L 211.897144 156.94586 
L 221.612999 156.844869 
L 221.612999 156.700595 
L 244.788043 156.513038 
L 244.788043 156.495004 
L 259.003099 156.386798 
L 244.788043 156.202849 
L 259.003099 155.587881 
L 232.474401 155.362452 
L 232.474401 155.31917 
L 211.897144 155.133417 
L 211.897144 155.072101 
L 195.084301 154.850279 
L 195.084301 154.779946 
L 187.703136 154.655509 
L 187.703136 154.586979 
L 180.869245 154.401226 
L 180.869245 154.2822 
L 174.507044 154.047755 
L 174.507044 153.917908 
L 162.965083 153.530172 
L 168.555603 153.465248 
L 168.555603 153.391308 
L 174.507044 153.266871 
L 174.507044 152.936844 
L 168.555603 152.763715 
L 168.555603 152.684365 
L 162.965083 152.493202 
L 162.965083 152.40844 
L 157.694201 152.237115 
L 162.965083 152.125303 
L 162.965083 152.00267 
L 211.897144 151.344419 
L 211.897144 150.983734 
L 221.612999 150.873725 
L 221.612999 150.828639 
L 232.474401 150.752895 
L 221.612999 150.70781 
L 232.474401 150.664527 
L 232.474401 150.641083 
L 221.612999 150.480578 
L 221.612999 150.431886 
L 232.474401 150.32909 
L 244.788043 150.188423 
L 232.474401 150.047756 
L 232.474401 149.838558 
L 244.788043 149.795276 
L 259.003099 149.256052 
L 259.003099 148.686169 
L 232.474401 148.426476 
L 232.474401 148.383194 
L 211.897144 148.197441 
L 211.897144 148.109073 
L 195.084301 147.876431 
L 195.084301 147.815114 
L 174.507044 147.320976 
L 157.694201 146.7547 
L 157.694201 146.642887 
L 139.189286 145.784457 
L 139.189286 145.573456 
L 143.479145 145.432788 
L 143.479145 144.805196 
L 147.978346 144.630264 
L 147.978346 144.451725 
L 157.694201 144.22269 
L 157.694201 144.040544 
L 162.965083 143.878235 
L 162.965083 143.719534 
L 168.555603 143.573456 
L 162.965083 143.488695 
L 168.555603 143.474268 
L 168.555603 143.432789 
L 187.703136 143.198344 
L 187.703136 143.137027 
L 203.108084 142.839462 
L 203.108084 142.727649 
L 211.897144 142.603213 
L 203.108084 142.466153 
L 203.108084 142.35975 
L 232.474401 142.181211 
L 232.474401 142.157767 
L 244.788043 142.112681 
L 259.003099 141.982834 
L 244.788043 141.813312 
L 244.788043 141.672645 
L 232.474401 141.553619 
L 244.788043 141.485089 
L 259.003099 141.324584 
L 259.003099 140.976523 
L 232.474401 140.812411 
L 232.474401 140.770932 
L 195.084301 140.356144 
L 195.084301 140.146947 
L 203.108084 139.991852 
L 203.108084 139.793475 
L 195.084301 139.652808 
L 195.084301 138.972916 
L 211.897144 138.850283 
L 211.897144 138.384999 
L 221.612999 138.26958 
L 221.612999 138.224494 
L 232.474401 138.087434 
L 232.474401 137.741176 
L 221.612999 137.658219 
L 232.474401 137.634774 
L 259.003099 137.412953 
L 259.003099 137.30114 
L 232.474401 137.063088 
L 232.474401 137.019806 
L 203.108084 136.666334 
L 187.703136 136.368769 
L 180.869245 136.1217 
L 180.869245 135.586082 
L 174.507044 135.41115 
L 174.507044 135.295731 
L 168.555603 135.111781 
L 168.555603 134.852088 
L 162.965083 134.707814 
L 162.965083 134.619446 
L 157.694201 134.446317 
L 157.694201 134.352539 
L 152.708374 134.172196 
L 152.708374 134.006281 
L 147.978346 133.829545 
L 147.978346 133.587886 
L 152.708374 133.436398 
L 152.708374 133.250645 
L 157.694201 133.140636 
L 157.694201 132.704207 
L 168.555603 132.475172 
L 168.555603 132.392215 
L 180.869245 132.181214 
L 180.869245 132.094649 
L 187.703136 131.959392 
L 187.703136 131.454433 
L 180.869245 131.322783 
L 180.869245 131.20015 
L 195.084301 131.023414 
L 195.084301 130.953081 
L 203.108084 130.817824 
L 203.108084 130.727652 
L 211.897144 130.61043 
L 211.897144 130.585182 
L 232.474401 130.439104 
L 232.474401 130.137932 
L 211.897144 129.953983 
L 232.474401 129.871025 
L 232.474401 129.658221 
L 244.788043 129.537391 
L 244.788043 129.272287 
L 259.003099 129.191133 
L 221.612999 128.825038 
L 221.612999 128.792576 
L 195.084301 128.412053 
L 180.869245 128.054975 
L 168.555603 127.732162 
L 168.555603 127.63658 
L 162.965083 127.472468 
L 162.965083 127.286715 
L 157.694201 127.1208 
L 157.694201 126.967509 
L 152.708374 126.78897 
L 152.708374 126.623055 
L 147.978346 126.516652 
L 152.708374 126.511242 
L 147.978346 126.413857 
L 147.978346 126.246139 
L 143.479145 126.056779 
L 143.479145 125.829547 
L 139.189286 125.632974 
L 139.189286 125.465255 
L 135.090152 125.259664 
L 135.090152 125.140638 
L 131.165503 125.010792 
L 152.708374 124.740278 
L 152.708374 124.691585 
L 162.965083 124.509439 
L 162.965083 124.278601 
L 168.555603 124.163181 
L 168.555603 124.031531 
L 187.703136 123.728556 
L 187.703136 123.535589 
L 195.084301 123.403939 
L 195.084301 123.216383 
L 203.108084 123.052271 
L 203.108084 122.907997 
L 221.612999 122.776347 
L 221.612999 122.696996 
L 232.474401 122.558132 
L 232.474401 122.366969 
L 244.788043 122.242533 
L 259.003099 122.112686 
L 232.474401 121.890865 
L 232.474401 121.766428 
L 221.612999 121.636581 
L 195.084301 121.322785 
L 195.084301 121.281307 
L 180.869245 120.954886 
L 180.869245 120.877339 
L 162.965083 120.397628 
L 162.965083 120.312867 
L 147.978346 119.681668 
L 147.978346 119.560838 
L 139.189286 119.219991 
L 139.189286 119.037845 
L 143.479145 118.972921 
L 143.479145 118.778151 
L 147.978346 118.644698 
L 152.708374 118.509441 
L 152.708374 118.417466 
L 168.555603 118.181217 
L 180.869245 117.928737 
L 180.869245 117.102768 
L 203.108084 116.907998 
L 203.108084 116.853896 
L 211.897144 116.725852 
L 211.897144 116.439108 
L 203.108084 116.375988 
L 211.897144 116.339919 
L 211.897144 116.280406 
L 221.612999 116.15597 
L 221.612999 116.018909 
L 203.108084 115.811515 
L 203.108084 115.715934 
L 187.703136 115.506736 
L 187.703136 115.077521 
L 180.869245 114.994563 
L 187.703136 114.989153 
L 187.703136 114.592399 
L 180.869245 114.410253 
L 180.869245 114.33992 
L 174.507044 114.258765 
L 180.869245 114.237124 
L 180.869245 114.128919 
L 187.703136 114.020713 
L 187.703136 113.89267 
L 195.084301 113.856601 
L 187.703136 113.797088 
L 187.703136 113.69249 
L 195.084301 113.584284 
L 195.084301 113.400335 
L 174.507044 113.288522 
L 180.869245 113.268685 
L 187.703136 113.160479 
L 187.703136 112.949478 
L 221.612999 112.841273 
L 221.612999 112.794383 
L 232.474401 112.610434 
L 232.474401 112.347134 
L 221.612999 112.233518 
L 211.897144 112.067603 
L 211.897144 111.979235 
L 203.108084 111.842175 
L 221.612999 111.748396 
L 211.897144 111.696097 
L 221.612999 111.665439 
L 221.612999 111.587891 
L 211.897144 111.452634 
L 211.897144 111.36607 
L 203.108084 111.236223 
L 211.897144 111.124411 
L 232.474401 111.008992 
L 232.474401 110.767333 
L 221.612999 110.603221 
L 221.612999 110.579776 
L 232.474401 110.489605 
L 244.788043 110.32369 
L 244.788043 110.168595 
L 232.474401 110.027928 
L 221.612999 109.923329 
L 244.788043 109.815124 
L 232.474401 109.667243 
L 232.474401 109.62396 
L 221.612999 109.459849 
L 203.108084 109.270489 
L 203.108084 109.230814 
L 168.555603 108.987351 
L 168.555603 108.954889 
L 157.694201 108.805205 
L 221.612999 108.601418 
L 221.612999 108.366972 
L 203.108084 108.184826 
L 203.108084 108.089245 
L 187.703136 107.880047 
L 187.703136 107.800697 
L 174.507044 107.5392 
L 174.507044 107.486901 
L 180.869245 107.394926 
L 174.507044 107.315575 
L 180.869245 107.274096 
L 174.507044 107.142446 
L 174.507044 106.816026 
L 168.555603 106.671752 
L 168.555603 106.608632 
L 162.965083 106.489606 
L 162.965083 106.430093 
L 157.694201 106.309263 
L 157.694201 106.253357 
L 147.978346 106.085639 
L 147.978346 106.024322 
L 259.003099 105.575269 
L 244.788043 105.564448 
L 259.003099 105.416567 
L 244.788043 105.274097 
L 232.474401 105.091951 
L 244.788043 105.08654 
L 259.003099 104.963907 
L 259.003099 104.846685 
L 244.788043 104.704214 
L 221.612999 104.534692 
L 221.612999 104.424683 
L 195.084301 104.04416 
L 180.869245 103.77545 
L 180.869245 103.699706 
L 174.507044 103.537397 
L 174.507044 103.340824 
L 168.555603 103.176712 
L 168.555603 103.142447 
L 162.965083 103.113592 
L 187.703136 103.102772 
L 259.003099 102.783565 
L 232.474401 102.62306 
L 232.474401 102.455342 
L 221.612999 102.325495 
L 221.612999 101.806108 
L 275.815942 101.688886 
L 244.788043 101.241636 
L 221.612999 101.063097 
L 221.612999 100.980139 
L 232.474401 100.86472 
L 211.897144 100.792583 
L 221.612999 100.745694 
L 259.003099 100.615847 
L 232.474401 100.451735 
L 232.474401 100.381402 
L 211.897144 100.195649 
L 211.897144 100.107281 
L 195.084301 99.887263 
L 195.084301 99.800699 
L 180.869245 99.614946 
L 180.869245 99.573467 
L 143.479145 99.012601 
L 147.978346 98.98555 
L 195.084301 98.783566 
L 244.788043 98.772746 
L 275.815942 97.854802 
L 259.003099 97.654622 
L 259.003099 97.602322 
L 232.474401 97.456245 
L 232.474401 97.380501 
L 211.897144 97.223603 
L 211.897144 97.162286 
L 195.084301 96.940465 
L 195.084301 96.870131 
L 180.869245 96.619455 
L 180.869245 96.534694 
L 174.507044 96.32189 
L 180.869245 96.219094 
L 180.869245 95.993666 
L 187.703136 95.856606 
L 187.703136 95.780862 
L 232.474401 95.236227 
L 232.474401 95.200159 
L 221.612999 95.046868 
L 221.612999 94.590601 
L 211.897144 94.469771 
L 195.084301 94.166796 
L 180.869245 93.840376 
L 180.869245 93.688888 
L 174.507044 93.521169 
L 174.507044 93.328203 
L 168.555603 93.15327 
L 168.555603 93.066706 
L 162.965083 92.888167 
L 162.965083 92.621259 
L 157.694201 92.457148 
L 168.555603 92.348942 
L 180.869245 92.172206 
L 180.869245 92.103676 
L 187.703136 92.009898 
L 187.703136 91.78988 
L 180.869245 91.620358 
L 180.869245 91.46346 
L 174.507044 91.299348 
L 174.507044 91.245245 
L 168.555603 91.104578 
L 168.555603 91.021621 
L 162.965083 90.871936 
L 162.965083 90.359763 
L 195.084301 89.831359 
L 195.084301 89.800701 
L 203.108084 89.665444 
L 203.108084 89.629376 
L 211.897144 89.573469 
L 203.108084 89.519367 
L 203.108084 89.38952 
L 195.084301 89.330007 
L 203.108084 89.281314 
L 211.897144 89.158681 
L 211.897144 89.059493 
L 221.612999 88.965715 
L 211.897144 88.917022 
L 221.612999 88.859313 
L 221.612999 88.774552 
L 232.474401 88.711432 
L 232.474401 88.498627 
L 221.612999 88.446328 
L 232.474401 88.395832 
L 232.474401 88.280413 
L 221.612999 88.119908 
L 211.897144 87.999078 
L 211.897144 87.946779 
L 195.084301 87.728565 
L 195.084301 87.658231 
L 187.703136 87.533795 
L 187.703136 87.427392 
L 195.084301 87.31558 
L 195.084301 86.965715 
L 187.703136 86.803407 
L 187.703136 86.691595 
L 180.869245 86.509449 
L 180.869245 86.439115 
L 174.507044 86.357961 
L 180.869245 86.33632 
L 180.869245 86.267789 
L 195.084301 86.054985 
L 195.084301 86.040558 
L 211.897144 85.905301 
L 211.897144 85.667249 
L 203.108084 85.535598 
L 203.108084 85.479692 
L 195.084301 85.420179 
L 203.108084 85.37329 
L 203.108084 85.095563 
L 195.084301 84.954895 
L 195.084301 84.853903 
L 187.703136 84.648313 
L 180.869245 84.403047 
L 180.869245 84.332713 
L 174.507044 84.14696 
L 152.708374 83.627574 
L 131.165503 83.340829 
L 221.612999 83.214589 
L 221.612999 83.191145 
L 232.474401 83.04687 
L 232.474401 82.960306 
L 195.084301 82.70422 
L 168.555603 82.366979 
L 157.694201 82.175816 
L 162.965083 82.170405 
L 162.965083 81.396736 
L 157.694201 81.23082 
L 157.694201 81.137042 
L 152.708374 81.023426 
L 157.694201 80.913417 
L 187.703136 80.538305 
L 187.703136 80.475185 
L 195.084301 80.352552 
L 195.084301 80.287629 
L 187.703136 80.215492 
L 195.084301 80.181226 
L 195.084301 80.168602 
L 244.788043 79.728567 
L 244.788043 79.461659 
L 232.474401 79.339026 
L 232.474401 79.301155 
L 211.897144 79.117205 
L 211.897144 79.055889 
L 203.108084 78.922435 
L 203.108084 78.866529 
L 195.084301 78.736682 
L 195.084301 78.6934 
L 187.703136 78.576177 
L 187.703136 78.507647 
L 180.869245 78.370587 
L 180.869245 78.29845 
L 174.507044 78.123517 
L 174.507044 78.069415 
L 168.555603 77.894482 
L 174.507044 77.798901 
L 180.869245 77.65643 
L 180.869245 77.425591 
L 211.897144 77.093761 
L 211.897144 76.707828 
L 195.084301 76.394032 
L 180.869245 76.026133 
L 187.703136 76.018919 
L 180.869245 75.948585 
L 180.869245 75.807918 
L 187.703136 75.797098 
L 180.869245 75.726764 
L 180.869245 75.605935 
L 203.108084 75.380506 
L 203.108084 75.351651 
L 221.612999 75.257873 
L 232.474401 75.077531 
L 232.474401 74.843085 
L 221.612999 74.68258 
L 203.108084 74.484204 
L 203.108084 74.417477 
L 221.612999 74.291237 
L 232.474401 74.170407 
L 244.788043 74.03515 
L 244.788043 73.948586 
L 232.474401 73.9035 
L 244.788043 73.853004 
L 259.003099 73.820543 
L 232.474401 73.560849 
L 232.474401 73.517567 
L 221.612999 73.364276 
L 221.612999 73.293942 
L 203.108084 73.111796 
L 203.108084 72.98195 
L 221.612999 72.819641 
L 221.612999 72.657333 
L 211.897144 72.502238 
L 211.897144 72.467973 
L 221.612999 72.332716 
L 221.612999 72.186639 
L 232.474401 72.071219 
L 221.612999 71.910715 
L 211.897144 71.789885 
L 211.897144 71.737586 
L 195.084301 71.519371 
L 195.084301 71.200165 
L 244.788043 71.090156 
L 259.003099 70.98195 
L 244.788043 70.947685 
L 259.003099 70.835873 
L 244.788043 70.801607 
L 259.003099 70.72406 
L 244.788043 70.612248 
L 244.788043 70.576179 
L 221.612999 70.40305 
L 221.612999 70.325503 
L 203.108084 70.143357 
L 203.108084 70.07663 
L 187.703136 69.865629 
L 187.703136 69.661842 
L 195.084301 69.600526 
L 187.703136 69.528389 
L 195.084301 69.515765 
L 195.084301 69.36067 
L 203.108084 69.256071 
L 203.108084 69.173114 
L 195.084301 69.014412 
L 195.084301 68.909814 
L 187.703136 68.837676 
L 195.084301 68.826856 
L 195.084301 68.736685 
L 203.108084 68.614052 
L 203.108084 68.509453 
L 211.897144 68.368786 
L 211.897144 68.300256 
L 221.612999 68.164999 
L 221.612999 67.724963 
L 244.788043 67.560851 
L 259.003099 67.409363 
L 259.003099 67.064909 
L 232.474401 66.908011 
L 221.612999 66.808822 
L 232.474401 66.803412 
L 259.003099 66.666352 
L 232.474401 66.523881 
L 232.474401 66.475188 
L 211.897144 66.311077 
L 211.897144 66.24976 
L 195.084301 66.056794 
L 195.084301 65.834972 
L 211.897144 65.685288 
L 211.897144 65.593313 
L 259.003099 65.440022 
L 275.815942 64.716848 
L 244.788043 64.505847 
L 244.788043 64.464368 
L 221.612999 64.291239 
L 221.612999 64.237137 
L 203.108084 64.054991 
L 203.108084 63.988264 
L 195.084301 63.856614 
L 195.084301 63.770049 
L 187.703136 63.607741 
L 221.612999 63.382313 
L 221.612999 63.358868 
L 232.474401 63.216397 
L 221.612999 63.055893 
L 221.612999 62.976542 
L 203.108084 62.772755 
L 203.108084 62.677173 
L 211.897144 62.540113 
L 211.897144 62.458958 
L 244.788043 62.312881 
L 244.788043 62.294847 
L 259.003099 62.240744 
L 244.788043 62.206479 
L 244.788043 61.925144 
L 221.612999 61.70152 
L 211.897144 61.544621 
L 221.612999 61.452647 
L 211.897144 61.295749 
L 211.897144 61.207381 
L 195.084301 60.981953 
L 195.084301 60.920636 
L 187.703136 60.751114 
L 232.474401 60.603233 
L 259.003099 60.462566 
L 259.003099 60.363377 
L 244.788043 60.329112 
L 275.815942 59.690699 
L 244.788043 59.510357 
L 244.788043 59.485109 
L 221.612999 59.241646 
L 221.612999 59.160492 
L 211.897144 59.021628 
L 211.897144 58.969329 
L 195.084301 58.749311 
L 195.084301 58.678977 
L 187.703136 58.509455 
L 259.003099 58.298455 
L 275.815942 57.762837 
L 244.788043 57.595118 
L 232.474401 57.546426 
L 244.788043 57.49593 
L 244.788043 57.396742 
L 259.003099 57.340835 
L 275.815942 56.942278 
L 244.788043 56.792594 
L 244.788043 56.657337 
L 259.003099 56.549131 
L 259.003099 56.354361 
L 232.474401 56.141557 
L 259.003099 56.08024 
L 275.815942 55.735786 
L 259.003099 55.696111 
L 275.815942 55.400349 
L 259.003099 55.29034 
L 275.815942 55.064912 
L 259.003099 54.853911 
L 259.003099 54.740295 
L 244.788043 54.572576 
L 244.788043 54.460764 
L 259.003099 54.428302 
L 244.788043 54.370593 
L 244.788043 54.334524 
L 232.474401 54.215498 
L 232.474401 54.139754 
L 259.003099 54.026138 
L 275.815942 53.853009 
L 244.788043 53.60053 
L 244.788043 53.438221 
L 232.474401 53.389529 
L 244.788043 53.330016 
L 259.003099 53.245255 
L 244.788043 53.104587 
L 244.788043 53.028844 
L 221.612999 52.805219 
L 221.612999 52.725868 
L 211.897144 52.587004 
L 187.703136 52.161396 
L 187.703136 52.12172 
L 195.084301 52.011711 
L 195.084301 51.577086 
L 187.703136 51.34805 
L 168.555603 50.904408 
L 174.507044 50.819647 
L 180.869245 50.725868 
L 180.869245 50.581594 
L 195.084301 50.421089 
L 195.084301 50.350756 
L 259.003099 49.964823 
L 275.815942 49.793497 
L 232.474401 49.367889 
L 232.474401 49.07934 
L 221.612999 48.949494 
L 259.003099 48.81063 
L 275.815942 48.68439 
L 259.003099 48.633894 
L 275.815942 48.386825 
L 259.003099 48.22091 
L 259.003099 48.047781 
L 275.815942 47.930558 
L 244.788043 47.775463 
L 244.788043 47.733985 
L 221.612999 47.580693 
L 221.612999 47.526591 
L 203.108084 47.344445 
L 203.108084 47.277718 
L 195.084301 47.218205 
L 203.108084 47.196564 
L 203.108084 47.036059 
L 195.084301 46.875554 
L 195.084301 46.832272 
L 187.703136 46.715049 
L 187.703136 46.646519 
L 180.869245 46.509458 
L 180.869245 46.437321 
L 174.507044 46.300261 
L 174.507044 46.166807 
L 187.703136 46.067619 
L 187.703136 46.004499 
L 232.474401 45.827763 
L 232.474401 45.784481 
L 244.788043 45.665455 
L 244.788043 45.488719 
L 275.815942 45.375103 
L 275.815942 45.005401 
L 244.788043 44.830469 
L 275.815942 44.792597 
L 259.003099 44.733084 
L 259.003099 44.678981 
L 232.474401 44.518476 
L 232.474401 44.365185 
L 221.612999 44.20468 
L 221.612999 44.107295 
L 203.108084 43.833174 
L 203.108084 43.775464 
L 195.084301 43.613156 
L 195.084301 43.569874 
L 203.108084 43.427403 
L 203.108084 43.1623 
L 211.897144 43.079342 
L 203.108084 42.927854 
L 203.108084 42.889982 
L 211.897144 42.738494 
L 211.897144 42.558152 
L 195.084301 42.347151 
L 195.084301 42.305672 
L 180.869245 41.979252 
L 180.869245 41.901705 
L 174.507044 41.696114 
L 174.507044 41.49413 
L 168.555603 41.321002 
L 168.555603 41.241651 
L 162.965083 41.050488 
L 162.965083 40.965727 
L 157.694201 40.747512 
L 157.694201 40.682589 
L 152.708374 40.469784 
L 147.978346 40.285835 
L 147.978346 39.652832 
L 162.965083 39.510362 
L 180.869245 39.265096 
L 195.084301 39.057702 
L 195.084301 38.936872 
L 203.108084 38.785384 
L 203.108084 38.675376 
L 211.897144 38.632093 
L 203.108084 38.579794 
L 203.108084 38.545529 
L 211.897144 38.424699 
L 211.897144 38.302066 
L 221.612999 38.139758 
L 221.612999 37.955809 
L 232.474401 37.804321 
L 232.474401 37.47249 
L 221.612999 37.310182 
L 211.897144 37.171318 
L 180.869245 36.655538 
L 180.869245 36.523888 
L 195.084301 36.289443 
L 195.084301 36.258785 
L 211.897144 36.118117 
L 211.897144 36.062211 
L 221.612999 35.950399 
L 221.612999 35.881869 
L 232.474401 35.809731 
L 211.897144 35.636603 
L 211.897144 35.548235 
L 195.084301 35.328217 
L 195.084301 35.176729 
L 244.788043 35.018027 
L 232.474401 34.972942 
L 244.788043 34.92966 
L 244.788043 34.798009 
L 275.815942 34.691607 
L 259.003099 34.630291 
L 275.815942 34.486017 
L 259.003099 34.455359 
L 275.815942 34.397649 
L 275.815942 34.329119 
L 259.003099 34.192058 
L 259.003099 34.105494 
L 244.788043 34.011716 
L 259.003099 34.006305 
L 259.003099 33.990075 
L 275.815942 33.889083 
L 275.815942 33.858424 
L 296.393199 33.173123 
L 259.003099 33.034259 
L 259.003099 33.014421 
L 232.474401 32.801617 
L 232.474401 32.772762 
L 211.897144 32.592419 
L 232.474401 32.467983 
L 232.474401 32.426504 
L 244.788043 32.307478 
L 244.788043 32.28223 
L 275.815942 32.235341 
L 296.393199 31.867442 
L 275.815942 31.843998 
L 296.393199 31.632997 
L 275.815942 31.459868 
L 275.815942 31.403962 
L 232.474401 31.135251 
L 232.474401 31.097379 
L 211.897144 30.936874 
L 232.474401 30.814241 
L 232.474401 30.677181 
L 221.612999 30.536514 
L 221.612999 30.464377 
L 211.897144 30.412077 
L 221.612999 30.40306 
L 275.815942 30.118119 
L 275.815942 30.074837 
L 232.474401 29.800716 
L 232.474401 29.771861 
L 211.897144 29.584305 
L 211.897144 29.55004 
L 203.108084 29.432817 
L 296.393199 29.304774 
L 259.003099 29.182141 
L 259.003099 29.146072 
L 244.788043 29.009012 
L 244.788043 28.897199 
L 296.393199 28.742105 
L 232.474401 28.352565 
L 232.474401 28.256983 
L 259.003099 28.154188 
L 259.003099 28.118119 
L 275.815942 28.085658 
L 244.788043 28.035162 
L 244.788043 28.018931 
L 221.612999 27.896298 
L 221.612999 27.880067 
L 275.815942 27.809733 
L 259.003099 27.752024 
L 259.003099 27.719562 
L 244.788043 27.575288 
L 244.788043 27.513972 
L 221.612999 27.326415 
L 221.612999 27.248868 
L 203.108084 27.066722 
L 203.108084 26.999995 
L 195.084301 26.899003 
L 221.612999 26.758336 
L 221.612999 26.686199 
L 232.474401 26.563566 
L 221.612999 26.403061 
L 221.612999 26.370599 
L 211.897144 26.215505 
L 221.612999 26.092872 
L 211.897144 25.972042 
L 211.897144 25.919743 
L 275.815942 25.755631 
L 259.003099 25.724973 
L 275.815942 25.667263 
L 275.815942 25.568075 
L 259.003099 25.528399 
L 275.815942 25.47069 
L 275.815942 25.443638 
L 296.393199 25.429211 
L 275.815942 25.346253 
L 275.815942 25.328219 
L 259.003099 25.210996 
L 296.393199 25.102791 
L 275.815942 24.983765 
L 322.921897 24.978355 
L 296.393199 24.929662 
L 322.921897 24.626686 
L 296.393199 24.606849 
L 322.921897 24.275018 
L 322.921897 24.17042 
L 259.003099 24.031556 
L 259.003099 23.995487 
L 232.474401 23.822358 
L 221.612999 23.690708 
L 232.474401 23.577092 
L 232.474401 23.537417 
L 244.788043 23.532007 
L 232.474401 23.447246 
L 232.474401 23.355271 
L 203.108084 23.183946 
L 322.921897 22.95491 
L 322.921897 22.927859 
L 275.815942 22.803423 
L 232.474401 22.590618 
L 232.474401 22.440934 
L 322.921897 22.298463 
L 360.311997 21.743008 
L 322.921897 21.728581 
L 360.311997 21.647427 
L 360.311997 21.609555 
L 424.230795 21.605948 
L 296.393199 21.508563 
L 296.393199 21.485118 
L 232.474401 21.292152 
L 244.788043 21.283135 
L 259.003099 21.174929 
L 211.897144 20.956714 
L 180.869245 20.642918 
L 180.869245 20.583405 
L 275.815942 20.397652 
L 275.815942 20.368797 
L 424.230795 20.267806 
L 360.311997 20.255182 
L 424.230795 20.152386 
L 424.230795 20.152386 
" clip-path="url(#p0d82c534ff)" style="fill: none; stroke: #008000; stroke-width: 2; stroke-linecap: square"/>
   </g>
   <g id="line2d_35">
    <path d="M 67.246705 279.200114 
L 131.165503 279.200114 
L 131.165503 277.375046 
L 135.090152 277.375046 
L 135.090152 275.421936 
L 139.189286 275.421936 
L 139.189286 275.369637 
L 143.479145 275.369637 
L 143.479145 275.270448 
L 147.978346 275.270448 
L 147.978346 275.11355 
L 152.708374 275.11355 
L 152.708374 273.207329 
L 157.694201 273.207329 
L 157.694201 271.887221 
L 162.965083 271.887221 
L 162.965083 269.122569 
L 168.555603 269.122569 
L 168.555603 268.114454 
L 174.507044 268.114454 
L 174.507044 267.903453 
L 180.869245 267.903453 
L 180.869245 267.620315 
L 187.703136 267.620315 
L 187.703136 266.918782 
L 195.084301 266.918782 
L 195.084301 265.982804 
L 203.108084 265.982804 
L 203.108084 265.347998 
L 211.897144 265.347998 
L 211.897144 250.886324 
L 221.612999 250.886324 
L 221.612999 249.822303 
L 232.474401 249.822303 
L 232.474401 224.902562 
L 244.788043 224.902562 
L 244.788043 156.549107 
L 259.003099 156.549107 
L 259.003099 101.739382 
L 275.815942 101.739382 
L 275.815942 45.387727 
L 296.393199 45.387727 
L 296.393199 24.987372 
L 322.921897 24.987372 
L 322.921897 23.003603 
L 360.311997 23.003603 
L 360.311997 21.609555 
L 424.230795 21.609555 
L 424.230795 20.152386 
" clip-path="url(#p0d82c534ff)" style="fill: none; stroke-dasharray: 11.1,4.8; stroke-dashoffset: 0; stroke: #ff0000; stroke-opacity: 0.6; stroke-width: 3"/>
   </g>
   <g id="patch_3">
    <path d="M 49.3975 292.1525 
L 49.3975 7.2 
" style="fill: none; stroke: #000000; stroke-width: 2; stroke-linejoin: miter; stroke-linecap: square"/>
   </g>
   <g id="patch_4">
    <path d="M 442.08 292.1525 
L 442.08 7.2 
" style="fill: none; stroke: #000000; stroke-width: 2; stroke-linejoin: miter; stroke-linecap: square"/>
   </g>
   <g id="patch_5">
    <path d="M 49.3975 292.1525 
L 442.08 292.1525 
" style="fill: none; stroke: #000000; stroke-width: 2; stroke-linejoin: miter; stroke-linecap: square"/>
   </g>
   <g id="patch_6">
    <path d="M 49.3975 7.2 
L 442.08 7.2 
" style="fill: none; stroke: #000000; stroke-width: 2; stroke-linejoin: miter; stroke-linecap: square"/>
   </g>
   <g id="legend_1">
    <g id="line2d_36">
     <path d="M 60.1975 22.918125 
L 72.1975 22.918125 
L 84.1975 22.918125 
" style="fill: none; stroke: #008000; stroke-width: 2; stroke-linecap: square"/>
    </g>
    <g id="text_16">
     <!-- IBIP -->
     <g transform="translate(93.7975 27.118125)scale(0.12 -0.12)">
      <defs>
       <path id="DejaVuSans-49" d="M 628 4666 
L 1259 4666 
L 1259 0 
L 628 0 
L 628 4666 
z
" transform="scale(0.015625)"/>
       <path id="DejaVuSans-42" d="M 1259 2228 
L 1259 519 
L 2272 519 
Q 2781 519 3026 730 
Q 3272 941 3272 1375 
Q 3272 1813 3026 2020 
Q 2781 2228 2272 2228 
L 1259 2228 
z
M 1259 4147 
L 1259 2741 
L 2194 2741 
Q 2656 2741 2882 2914 
Q 3109 3088 3109 3444 
Q 3109 3797 2882 3972 
Q 2656 4147 2194 4147 
L 1259 4147 
z
M 628 4666 
L 2241 4666 
Q 2963 4666 3353 4366 
Q 3744 4066 3744 3513 
Q 3744 3084 3544 2831 
Q 3344 2578 2956 2516 
Q 3422 2416 3680 2098 
Q 3938 1781 3938 1306 
Q 3938 681 3513 340 
Q 3088 0 2303 0 
L 628 0 
L 628 4666 
z
" transform="scale(0.015625)"/>
      </defs>
      <use xlink:href="#DejaVuSans-49"/>
      <use xlink:href="#DejaVuSans-42" x="29.492188"/>
      <use xlink:href="#DejaVuSans-49" x="98.095703"/>
      <use xlink:href="#DejaVuSans-50" x="127.587891"/>
     </g>
    </g>
    <g id="line2d_37">
     <path d="M 60.1975 40.531875 
L 72.1975 40.531875 
L 72.1975 40.531875 
L 84.1975 40.531875 
L 84.1975 40.531875 
" style="fill: none; stroke-dasharray: 11.1,4.8; stroke-dashoffset: 0; stroke: #ff0000; stroke-opacity: 0.6; stroke-width: 3"/>
    </g>
    <g id="text_17">
     <!-- MIO -->
     <g transform="translate(93.7975 44.731875)scale(0.12 -0.12)">
      <defs>
       <path id="DejaVuSans-4d" d="M 628 4666 
L 1569 4666 
L 2759 1491 
L 3956 4666 
L 4897 4666 
L 4897 0 
L 4281 0 
L 4281 4097 
L 3078 897 
L 2444 897 
L 1241 4097 
L 1241 0 
L 628 0 
L 628 4666 
z
" transform="scale(0.015625)"/>
       <path id="DejaVuSans-4f" d="M 2522 4238 
Q 1834 4238 1429 3725 
Q 1025 3213 1025 2328 
Q 1025 1447 1429 934 
Q 1834 422 2522 422 
Q 3209 422 3611 934 
Q 4013 1447 4013 2328 
Q 4013 3213 3611 3725 
Q 3209 4238 2522 4238 
z
M 2522 4750 
Q 3503 4750 4090 4092 
Q 4678 3434 4678 2328 
Q 4678 1225 4090 567 
Q 3503 -91 2522 -91 
Q 1538 -91 948 565 
Q 359 1222 359 2328 
Q 359 3434 948 4092 
Q 1538 4750 2522 4750 
z
" transform="scale(0.015625)"/>
      </defs>
      <use xlink:href="#DejaVuSans-4d"/>
      <use xlink:href="#DejaVuSans-49" x="86.279297"/>
      <use xlink:href="#DejaVuSans-4f" x="115.771484"/>
     </g>
    </g>
   </g>
  </g>
 </g>
 <defs>
  <clipPath id="p0d82c534ff">
   <rect x="49.3975" y="7.2" width="392.6825" height="284.9525"/>
  </clipPath>
 </defs>
</svg>