<?xml version="1.0" encoding="utf-8" standalone="no"?>
<!DOCTYPE svg PUBLIC "-//W3C//DTD SVG 1.1//EN"
  "http://www.w3.org/Graphics/SVG/1.1/DTD/svg11.dtd">
<svg xmlns:xlink="http://www.w3.org/1999/xlink" width="315.412092pt" height="287.26877pt" viewBox="0 0 315.412092 287.26877" xmlns="http://www.w3.org/2000/svg" version="1.1">
 <metadata>
  <rdf:RDF xmlns:dc="http://purl.org/dc/elements/1.1/" xmlns:cc="http://creativecommons.org/ns#" xmlns:rdf="http://www.w3.org/1999/02/22-rdf-syntax-ns#">
   <cc:Work>
    <dc:type rdf:resource="http://purl.org/dc/dcmitype/StillImage"/>
    <dc:date>2022-04-24T21:53:41.070025</dc:date>
    <dc:format>image/svg+xml</dc:format>
    <dc:creator>
     <cc:Agent>
      <dc:title>Matplotlib v3.5.1, https://matplotlib.org/</dc:title>
     </cc:Agent>
    </dc:creator>
   </cc:Work>
  </rdf:RDF>
 </metadata>
 <defs>
  <style type="text/css">*{stroke-linejoin: round; stroke-linecap: butt}</style>
 </defs>
 <g id="figure_1">
  <g id="patch_1">
   <path d="M 0 287.26877 
L 315.412092 287.26877 
L 315.412092 0 
L 0 0 
L 0 287.26877 
z
" style="fill: none"/>
  </g>
  <g id="patch_2">
   <path d="M 7.2 269.28 
L 269.28 269.28 
L 269.28 7.2 
L 7.2 7.2 
z
" style="fill: #ffffff"/>
  </g>
  <g id="pane3d_1">
   <g id="patch_3">
    <path d="M 26.988847 204.659471 
L 113.536223 132.113745 
L 112.333131 27.48984 
L 21.644018 93.670624 
" style="fill: #f2f2f2; opacity: 0.5; stroke: #f2f2f2; stroke-linejoin: miter"/>
   </g>
  </g>
  <g id="pane3d_2">
   <g id="patch_4">
    <path d="M 113.536223 132.113745 
L 252.413879 172.479997 
L 257.369933 64.252441 
L 112.333131 27.48984 
" style="fill: #e6e6e6; opacity: 0.5; stroke: #e6e6e6; stroke-linejoin: miter"/>
   </g>
  </g>
  <g id="pane3d_3">
   <g id="patch_5">
    <path d="M 26.988847 204.659471 
L 174.205947 252.740575 
L 252.413879 172.479997 
L 113.536223 132.113745 
" style="fill: #ececec; opacity: 0.5; stroke: #ececec; stroke-linejoin: miter"/>
   </g>
  </g>
  <g id="axis3d_1">
   <g id="line2d_1">
    <path d="M 26.988847 204.659471 
L 174.205947 252.740575 
" style="fill: none; stroke: #000000; stroke-width: 2; stroke-linecap: square"/>
   </g>
   <g id="text_1">
    <!-- x-axis -->
    <g transform="translate(61.842671 266.683428)rotate(-341.912962)scale(0.12 -0.12)">
     <defs>
      <path id="DejaVuSans-78" d="M 3513 3500 
L 2247 1797 
L 3578 0 
L 2900 0 
L 1881 1375 
L 863 0 
L 184 0 
L 1544 1831 
L 300 3500 
L 978 3500 
L 1906 2253 
L 2834 3500 
L 3513 3500 
z
" transform="scale(0.015625)"/>
      <path id="DejaVuSans-2d" d="M 313 2009 
L 1997 2009 
L 1997 1497 
L 313 1497 
L 313 2009 
z
" transform="scale(0.015625)"/>
      <path id="DejaVuSans-61" d="M 2194 1759 
Q 1497 1759 1228 1600 
Q 959 1441 959 1056 
Q 959 750 1161 570 
Q 1363 391 1709 391 
Q 2188 391 2477 730 
Q 2766 1069 2766 1631 
L 2766 1759 
L 2194 1759 
z
M 3341 1997 
L 3341 0 
L 2766 0 
L 2766 531 
Q 2569 213 2275 61 
Q 1981 -91 1556 -91 
Q 1019 -91 701 211 
Q 384 513 384 1019 
Q 384 1609 779 1909 
Q 1175 2209 1959 2209 
L 2766 2209 
L 2766 2266 
Q 2766 2663 2505 2880 
Q 2244 3097 1772 3097 
Q 1472 3097 1187 3025 
Q 903 2953 641 2809 
L 641 3341 
Q 956 3463 1253 3523 
Q 1550 3584 1831 3584 
Q 2591 3584 2966 3190 
Q 3341 2797 3341 1997 
z
" transform="scale(0.015625)"/>
      <path id="DejaVuSans-69" d="M 603 3500 
L 1178 3500 
L 1178 0 
L 603 0 
L 603 3500 
z
M 603 4863 
L 1178 4863 
L 1178 4134 
L 603 4134 
L 603 4863 
z
" transform="scale(0.015625)"/>
      <path id="DejaVuSans-73" d="M 2834 3397 
L 2834 2853 
Q 2591 2978 2328 3040 
Q 2066 3103 1784 3103 
Q 1356 3103 1142 2972 
Q 928 2841 928 2578 
Q 928 2378 1081 2264 
Q 1234 2150 1697 2047 
L 1894 2003 
Q 2506 1872 2764 1633 
Q 3022 1394 3022 966 
Q 3022 478 2636 193 
Q 2250 -91 1575 -91 
Q 1294 -91 989 -36 
Q 684 19 347 128 
L 347 722 
Q 666 556 975 473 
Q 1284 391 1588 391 
Q 1994 391 2212 530 
Q 2431 669 2431 922 
Q 2431 1156 2273 1281 
Q 2116 1406 1581 1522 
L 1381 1569 
Q 847 1681 609 1914 
Q 372 2147 372 2553 
Q 372 3047 722 3315 
Q 1072 3584 1716 3584 
Q 2034 3584 2315 3537 
Q 2597 3491 2834 3397 
z
" transform="scale(0.015625)"/>
     </defs>
     <use xlink:href="#DejaVuSans-78"/>
     <use xlink:href="#DejaVuSans-2d" x="59.179688"/>
     <use xlink:href="#DejaVuSans-61" x="95.263672"/>
     <use xlink:href="#DejaVuSans-78" x="156.542969"/>
     <use xlink:href="#DejaVuSans-69" x="215.722656"/>
     <use xlink:href="#DejaVuSans-73" x="243.505859"/>
    </g>
   </g>
   <g id="Line3DCollection_1">
    <path d="M 50.759094 212.422834 
L 136.043091 138.655603 
L 135.796617 33.437149 
" style="fill: none; stroke: #b0b0b0; stroke-width: 0.8"/>
    <path d="M 81.850854 222.577402 
L 165.433873 147.198343 
L 166.460772 41.209619 
" style="fill: none; stroke: #b0b0b0; stroke-width: 0.8"/>
    <path d="M 113.655732 232.964875 
L 195.442072 155.920542 
L 197.797367 49.152532 
" style="fill: none; stroke: #b0b0b0; stroke-width: 0.8"/>
    <path d="M 146.198548 243.593359 
L 226.08735 164.827914 
L 229.828768 57.271558 
" style="fill: none; stroke: #b0b0b0; stroke-width: 0.8"/>
   </g>
   <g id="xtick_1">
    <g id="line2d_2">
     <path d="M 51.502071 211.780189 
L 49.269935 213.710896 
" style="fill: none; stroke: #000000; stroke-width: 2; stroke-linecap: square"/>
    </g>
    <g id="text_2">
     <!-- 2 -->
     <g transform="translate(39.427327 237.356874)scale(0.12 -0.12)">
      <defs>
       <path id="DejaVuSans-32" d="M 1228 531 
L 3431 531 
L 3431 0 
L 469 0 
L 469 531 
Q 828 903 1448 1529 
Q 2069 2156 2228 2338 
Q 2531 2678 2651 2914 
Q 2772 3150 2772 3378 
Q 2772 3750 2511 3984 
Q 2250 4219 1831 4219 
Q 1534 4219 1204 4116 
Q 875 4013 500 3803 
L 500 4441 
Q 881 4594 1212 4672 
Q 1544 4750 1819 4750 
Q 2544 4750 2975 4387 
Q 3406 4025 3406 3419 
Q 3406 3131 3298 2873 
Q 3191 2616 2906 2266 
Q 2828 2175 2409 1742 
Q 1991 1309 1228 531 
z
" transform="scale(0.015625)"/>
      </defs>
      <use xlink:href="#DejaVuSans-32"/>
     </g>
    </g>
   </g>
   <g id="xtick_2">
    <g id="line2d_3">
     <path d="M 82.579686 221.920107 
L 80.390009 223.89486 
" style="fill: none; stroke: #000000; stroke-width: 2; stroke-linecap: square"/>
    </g>
    <g id="text_3">
     <!-- 4 -->
     <g transform="translate(70.552909 247.730429)scale(0.12 -0.12)">
      <defs>
       <path id="DejaVuSans-34" d="M 2419 4116 
L 825 1625 
L 2419 1625 
L 2419 4116 
z
M 2253 4666 
L 3047 4666 
L 3047 1625 
L 3713 1625 
L 3713 1100 
L 3047 1100 
L 3047 0 
L 2419 0 
L 2419 1100 
L 313 1100 
L 313 1709 
L 2253 4666 
z
" transform="scale(0.015625)"/>
      </defs>
      <use xlink:href="#DejaVuSans-34"/>
     </g>
    </g>
   </g>
   <g id="xtick_3">
    <g id="line2d_4">
     <path d="M 114.369572 232.292424 
L 112.224901 234.312746 
" style="fill: none; stroke: #000000; stroke-width: 2; stroke-linecap: square"/>
    </g>
    <g id="text_4">
     <!-- 6 -->
     <g transform="translate(102.395157 258.342835)scale(0.12 -0.12)">
      <defs>
       <path id="DejaVuSans-36" d="M 2113 2584 
Q 1688 2584 1439 2293 
Q 1191 2003 1191 1497 
Q 1191 994 1439 701 
Q 1688 409 2113 409 
Q 2538 409 2786 701 
Q 3034 994 3034 1497 
Q 3034 2003 2786 2293 
Q 2538 2584 2113 2584 
z
M 3366 4563 
L 3366 3988 
Q 3128 4100 2886 4159 
Q 2644 4219 2406 4219 
Q 1781 4219 1451 3797 
Q 1122 3375 1075 2522 
Q 1259 2794 1537 2939 
Q 1816 3084 2150 3084 
Q 2853 3084 3261 2657 
Q 3669 2231 3669 1497 
Q 3669 778 3244 343 
Q 2819 -91 2113 -91 
Q 1303 -91 875 529 
Q 447 1150 447 2328 
Q 447 3434 972 4092 
Q 1497 4750 2381 4750 
Q 2619 4750 2861 4703 
Q 3103 4656 3366 4563 
z
" transform="scale(0.015625)"/>
      </defs>
      <use xlink:href="#DejaVuSans-36"/>
     </g>
    </g>
   </g>
   <g id="xtick_4">
    <g id="line2d_5">
     <path d="M 146.8965 242.905221 
L 144.799526 244.972708 
" style="fill: none; stroke: #000000; stroke-width: 2; stroke-linecap: square"/>
    </g>
    <g id="text_5">
     <!-- 8 -->
     <g transform="translate(134.979111 269.202438)scale(0.12 -0.12)">
      <defs>
       <path id="DejaVuSans-38" d="M 2034 2216 
Q 1584 2216 1326 1975 
Q 1069 1734 1069 1313 
Q 1069 891 1326 650 
Q 1584 409 2034 409 
Q 2484 409 2743 651 
Q 3003 894 3003 1313 
Q 3003 1734 2745 1975 
Q 2488 2216 2034 2216 
z
M 1403 2484 
Q 997 2584 770 2862 
Q 544 3141 544 3541 
Q 544 4100 942 4425 
Q 1341 4750 2034 4750 
Q 2731 4750 3128 4425 
Q 3525 4100 3525 3541 
Q 3525 3141 3298 2862 
Q 3072 2584 2669 2484 
Q 3125 2378 3379 2068 
Q 3634 1759 3634 1313 
Q 3634 634 3220 271 
Q 2806 -91 2034 -91 
Q 1263 -91 848 271 
Q 434 634 434 1313 
Q 434 1759 690 2068 
Q 947 2378 1403 2484 
z
M 1172 3481 
Q 1172 3119 1398 2916 
Q 1625 2713 2034 2713 
Q 2441 2713 2670 2916 
Q 2900 3119 2900 3481 
Q 2900 3844 2670 4047 
Q 2441 4250 2034 4250 
Q 1625 4250 1398 4047 
Q 1172 3844 1172 3481 
z
" transform="scale(0.015625)"/>
      </defs>
      <use xlink:href="#DejaVuSans-38"/>
     </g>
    </g>
   </g>
  </g>
  <g id="axis3d_2">
   <g id="line2d_6">
    <path d="M 252.413879 172.479997 
L 174.205947 252.740575 
" style="fill: none; stroke: #000000; stroke-width: 2; stroke-linecap: square"/>
   </g>
   <g id="text_6">
    <!-- y-axis -->
    <g transform="translate(236.419615 258.252733)rotate(-45.742112)scale(0.12 -0.12)">
     <defs>
      <path id="DejaVuSans-79" d="M 2059 -325 
Q 1816 -950 1584 -1140 
Q 1353 -1331 966 -1331 
L 506 -1331 
L 506 -850 
L 844 -850 
Q 1081 -850 1212 -737 
Q 1344 -625 1503 -206 
L 1606 56 
L 191 3500 
L 800 3500 
L 1894 763 
L 2988 3500 
L 3597 3500 
L 2059 -325 
z
" transform="scale(0.015625)"/>
     </defs>
     <use xlink:href="#DejaVuSans-79"/>
     <use xlink:href="#DejaVuSans-2d" x="57.429688"/>
     <use xlink:href="#DejaVuSans-61" x="93.513672"/>
     <use xlink:href="#DejaVuSans-78" x="154.792969"/>
     <use xlink:href="#DejaVuSans-69" x="213.972656"/>
     <use xlink:href="#DejaVuSans-73" x="241.755859"/>
    </g>
   </g>
   <g id="Line3DCollection_2">
    <path d="M 33.685612 84.883217 
L 38.442717 195.05861 
L 184.59587 242.077959 
" style="fill: none; stroke: #b0b0b0; stroke-width: 0.8"/>
    <path d="M 47.734543 74.630947 
L 51.820536 183.845057 
L 196.715641 229.640092 
" style="fill: none; stroke: #b0b0b0; stroke-width: 0.8"/>
    <path d="M 61.413369 64.648762 
L 64.86105 172.91424 
L 208.5139 217.532176 
" style="fill: none; stroke: #b0b0b0; stroke-width: 0.8"/>
    <path d="M 74.736527 54.926129 
L 77.576855 162.2556 
L 220.003273 205.741252 
" style="fill: none; stroke: #b0b0b0; stroke-width: 0.8"/>
    <path d="M 87.717708 45.453054 
L 89.979932 151.859095 
L 231.195734 194.255034 
" style="fill: none; stroke: #b0b0b0; stroke-width: 0.8"/>
    <path d="M 100.369914 36.22005 
L 102.081676 141.715173 
L 242.102644 183.061861 
" style="fill: none; stroke: #b0b0b0; stroke-width: 0.8"/>
   </g>
   <g id="xtick_5">
    <g id="line2d_7">
     <path d="M 183.364575 241.681835 
L 187.061625 242.871224 
" style="fill: none; stroke: #000000; stroke-width: 2; stroke-linecap: square"/>
    </g>
    <g id="text_7">
     <!-- 28 -->
     <g transform="translate(189.773856 264.542652)scale(0.12 -0.12)">
      <use xlink:href="#DejaVuSans-32"/>
      <use xlink:href="#DejaVuSans-38" x="63.623047"/>
     </g>
    </g>
   </g>
   <g id="xtick_6">
    <g id="line2d_8">
     <path d="M 195.495772 229.254544 
L 199.158474 230.412165 
" style="fill: none; stroke: #000000; stroke-width: 2; stroke-linecap: square"/>
    </g>
    <g id="text_8">
     <!-- 29 -->
     <g transform="translate(201.728518 251.917851)scale(0.12 -0.12)">
      <defs>
       <path id="DejaVuSans-39" d="M 703 97 
L 703 672 
Q 941 559 1184 500 
Q 1428 441 1663 441 
Q 2288 441 2617 861 
Q 2947 1281 2994 2138 
Q 2813 1869 2534 1725 
Q 2256 1581 1919 1581 
Q 1219 1581 811 2004 
Q 403 2428 403 3163 
Q 403 3881 828 4315 
Q 1253 4750 1959 4750 
Q 2769 4750 3195 4129 
Q 3622 3509 3622 2328 
Q 3622 1225 3098 567 
Q 2575 -91 1691 -91 
Q 1453 -91 1209 -44 
Q 966 3 703 97 
z
M 1959 2075 
Q 2384 2075 2632 2365 
Q 2881 2656 2881 3163 
Q 2881 3666 2632 3958 
Q 2384 4250 1959 4250 
Q 1534 4250 1286 3958 
Q 1038 3666 1038 3163 
Q 1038 2656 1286 2365 
Q 1534 2075 1959 2075 
z
" transform="scale(0.015625)"/>
      </defs>
      <use xlink:href="#DejaVuSans-32"/>
      <use xlink:href="#DejaVuSans-39" x="63.623047"/>
     </g>
    </g>
   </g>
   <g id="xtick_7">
    <g id="line2d_9">
     <path d="M 207.305287 217.156786 
L 210.93415 218.283895 
" style="fill: none; stroke: #000000; stroke-width: 2; stroke-linecap: square"/>
    </g>
    <g id="text_9">
     <!-- 30 -->
     <g transform="translate(213.365862 239.628157)scale(0.12 -0.12)">
      <defs>
       <path id="DejaVuSans-33" d="M 2597 2516 
Q 3050 2419 3304 2112 
Q 3559 1806 3559 1356 
Q 3559 666 3084 287 
Q 2609 -91 1734 -91 
Q 1441 -91 1130 -33 
Q 819 25 488 141 
L 488 750 
Q 750 597 1062 519 
Q 1375 441 1716 441 
Q 2309 441 2620 675 
Q 2931 909 2931 1356 
Q 2931 1769 2642 2001 
Q 2353 2234 1838 2234 
L 1294 2234 
L 1294 2753 
L 1863 2753 
Q 2328 2753 2575 2939 
Q 2822 3125 2822 3475 
Q 2822 3834 2567 4026 
Q 2313 4219 1838 4219 
Q 1578 4219 1281 4162 
Q 984 4106 628 3988 
L 628 4550 
Q 988 4650 1302 4700 
Q 1616 4750 1894 4750 
Q 2613 4750 3031 4423 
Q 3450 4097 3450 3541 
Q 3450 3153 3228 2886 
Q 3006 2619 2597 2516 
z
" transform="scale(0.015625)"/>
       <path id="DejaVuSans-30" d="M 2034 4250 
Q 1547 4250 1301 3770 
Q 1056 3291 1056 2328 
Q 1056 1369 1301 889 
Q 1547 409 2034 409 
Q 2525 409 2770 889 
Q 3016 1369 3016 2328 
Q 3016 3291 2770 3770 
Q 2525 4250 2034 4250 
z
M 2034 4750 
Q 2819 4750 3233 4129 
Q 3647 3509 3647 2328 
Q 3647 1150 3233 529 
Q 2819 -91 2034 -91 
Q 1250 -91 836 529 
Q 422 1150 422 2328 
Q 422 3509 836 4129 
Q 1250 4750 2034 4750 
z
" transform="scale(0.015625)"/>
      </defs>
      <use xlink:href="#DejaVuSans-33"/>
      <use xlink:href="#DejaVuSans-30" x="63.623047"/>
     </g>
    </g>
   </g>
   <g id="xtick_8">
    <g id="line2d_10">
     <path d="M 218.805749 205.375624 
L 222.401279 206.473412 
" style="fill: none; stroke: #000000; stroke-width: 2; stroke-linecap: square"/>
    </g>
    <g id="text_10">
     <!-- 31 -->
     <g transform="translate(224.698356 227.660401)scale(0.12 -0.12)">
      <defs>
       <path id="DejaVuSans-31" d="M 794 531 
L 1825 531 
L 1825 4091 
L 703 3866 
L 703 4441 
L 1819 4666 
L 2450 4666 
L 2450 531 
L 3481 531 
L 3481 0 
L 794 0 
L 794 531 
z
" transform="scale(0.015625)"/>
      </defs>
      <use xlink:href="#DejaVuSans-33"/>
      <use xlink:href="#DejaVuSans-31" x="63.623047"/>
     </g>
    </g>
   </g>
   <g id="xtick_9">
    <g id="line2d_11">
     <path d="M 230.009133 193.898792 
L 233.571828 194.968388 
" style="fill: none; stroke: #000000; stroke-width: 2; stroke-linecap: square"/>
    </g>
    <g id="text_11">
     <!-- 32 -->
     <g transform="translate(235.737824 216.002098)scale(0.12 -0.12)">
      <use xlink:href="#DejaVuSans-33"/>
      <use xlink:href="#DejaVuSans-32" x="63.623047"/>
     </g>
    </g>
   </g>
   <g id="xtick_10">
    <g id="line2d_12">
     <path d="M 240.926803 182.714647 
L 244.457159 183.757123 
" style="fill: none; stroke: #000000; stroke-width: 2; stroke-linecap: square"/>
    </g>
    <g id="text_12">
     <!-- 33 -->
     <g transform="translate(246.495486 204.641398)scale(0.12 -0.12)">
      <use xlink:href="#DejaVuSans-33"/>
      <use xlink:href="#DejaVuSans-33" x="63.623047"/>
     </g>
    </g>
   </g>
  </g>
  <g id="axis3d_3">
   <g id="line2d_13">
    <path d="M 252.413879 172.479997 
L 257.369933 64.252441 
" style="fill: none; stroke: #000000; stroke-width: 2; stroke-linecap: square"/>
   </g>
   <g id="text_13">
    <!-- z-axis -->
    <g transform="translate(304.133159 130.752021)rotate(-87.378092)scale(0.12 -0.12)">
     <defs>
      <path id="DejaVuSans-7a" d="M 353 3500 
L 3084 3500 
L 3084 2975 
L 922 459 
L 3084 459 
L 3084 0 
L 275 0 
L 275 525 
L 2438 3041 
L 353 3041 
L 353 3500 
z
" transform="scale(0.015625)"/>
     </defs>
     <use xlink:href="#DejaVuSans-7a"/>
     <use xlink:href="#DejaVuSans-2d" x="52.490234"/>
     <use xlink:href="#DejaVuSans-61" x="88.574219"/>
     <use xlink:href="#DejaVuSans-78" x="149.853516"/>
     <use xlink:href="#DejaVuSans-69" x="209.033203"/>
     <use xlink:href="#DejaVuSans-73" x="236.816406"/>
    </g>
   </g>
   <g id="Line3DCollection_3">
    <path d="M 252.762837 164.859648 
L 113.451346 124.732662 
L 26.613105 196.856939 
" style="fill: none; stroke: #b0b0b0; stroke-width: 0.8"/>
    <path d="M 253.79062 142.415493 
L 113.201506 103.005966 
L 25.505916 173.865439 
" style="fill: none; stroke: #b0b0b0; stroke-width: 0.8"/>
    <path d="M 254.837618 119.551747 
L 112.947221 80.892654 
L 24.377232 150.427584 
" style="fill: none; stroke: #b0b0b0; stroke-width: 0.8"/>
    <path d="M 255.904373 96.256533 
L 112.68837 58.382312 
L 23.226421 126.530248 
" style="fill: none; stroke: #b0b0b0; stroke-width: 0.8"/>
    <path d="M 256.991451 72.517521 
L 112.424829 35.464152 
L 22.052826 102.159786 
" style="fill: none; stroke: #b0b0b0; stroke-width: 0.8"/>
   </g>
   <g id="xtick_11">
    <g id="line2d_14">
     <path d="M 251.593458 164.522823 
L 255.104387 165.534103 
" style="fill: none; stroke: #000000; stroke-width: 2; stroke-linecap: square"/>
    </g>
    <g id="text_14">
     <!-- 0 -->
     <g transform="translate(267.249451 171.387976)scale(0.12 -0.12)">
      <use xlink:href="#DejaVuSans-30"/>
     </g>
    </g>
   </g>
   <g id="xtick_12">
    <g id="line2d_15">
     <path d="M 252.610003 142.084546 
L 256.154697 143.078184 
" style="fill: none; stroke: #000000; stroke-width: 2; stroke-linecap: square"/>
    </g>
    <g id="text_15">
     <!-- 2 -->
     <g transform="translate(268.443056 148.989083)scale(0.12 -0.12)">
      <use xlink:href="#DejaVuSans-32"/>
     </g>
    </g>
   </g>
   <g id="xtick_13">
    <g id="line2d_16">
     <path d="M 253.645546 119.226958 
L 257.224658 120.202114 
" style="fill: none; stroke: #000000; stroke-width: 2; stroke-linecap: square"/>
    </g>
    <g id="text_16">
     <!-- 4 -->
     <g transform="translate(269.658906 126.172748)scale(0.12 -0.12)">
      <use xlink:href="#DejaVuSans-34"/>
     </g>
    </g>
   </g>
   <g id="xtick_14">
    <g id="line2d_17">
     <path d="M 254.700622 95.938195 
L 258.314828 96.89399 
" style="fill: none; stroke: #000000; stroke-width: 2; stroke-linecap: square"/>
    </g>
    <g id="text_17">
     <!-- 6 -->
     <g transform="translate(270.897629 102.927191)scale(0.12 -0.12)">
      <use xlink:href="#DejaVuSans-36"/>
     </g>
    </g>
   </g>
   <g id="xtick_15">
    <g id="line2d_18">
     <path d="M 255.775791 72.205939 
L 259.425783 73.141456 
" style="fill: none; stroke: #000000; stroke-width: 2; stroke-linecap: square"/>
    </g>
    <g id="text_18">
     <!-- 8 -->
     <g transform="translate(272.159875 79.240187)scale(0.12 -0.12)">
      <use xlink:href="#DejaVuSans-38"/>
     </g>
    </g>
   </g>
  </g>
  <g id="axes_1">
   <g id="Poly3DCollection_1">
    <path d="M 124.672438 135.465289 
L 126.607518 128.303736 
L 117.269301 127.845941 
z
" clip-path="url(#p14422a368f)" style="fill: #1f77b4; stroke: #000000"/>
    <path d="M 141.434956 143.557216 
L 126.607518 128.303736 
L 124.672438 135.465289 
z
" clip-path="url(#p14422a368f)" style="fill: #1f77b4; stroke: #000000"/>
    <path d="M 132.081232 143.09046 
L 141.434956 143.557216 
L 124.672438 135.465289 
z
" clip-path="url(#p14422a368f)" style="fill: #1f77b4; stroke: #000000"/>
    <path d="M 117.269301 127.845941 
L 126.607518 128.303736 
L 112.249094 115.407278 
z
" clip-path="url(#p14422a368f)" style="fill: #1f77b4; stroke: #000000"/>
    <path d="M 141.434956 143.557216 
L 145.315569 129.220917 
L 126.607518 128.303736 
z
" clip-path="url(#p14422a368f)" style="fill: #1f77b4; stroke: #000000"/>
    <path d="M 112.249094 115.407278 
L 126.607518 128.303736 
L 130.479753 113.972827 
z
" clip-path="url(#p14422a368f)" style="fill: #1f77b4; stroke: #000000"/>
    <path d="M 139.492278 147.082353 
L 141.434956 143.557216 
L 132.081232 143.09046 
z
" clip-path="url(#p14422a368f)" style="fill: #1f77b4; stroke: #000000"/>
    <path d="M 126.607518 128.303736 
L 145.331452 118.168239 
L 130.479753 113.972827 
z
" clip-path="url(#p14422a368f)" style="fill: #1f77b4; stroke: #000000"/>
    <path d="M 139.492278 147.082353 
L 158.743861 145.770703 
L 141.434956 143.557216 
z
" clip-path="url(#p14422a368f)" style="fill: #1f77b4; stroke: #000000"/>
    <path d="M 145.315569 129.220917 
L 145.331452 118.168239 
L 126.607518 128.303736 
z
" clip-path="url(#p14422a368f)" style="fill: #1f77b4; stroke: #000000"/>
    <path d="M 141.434956 143.557216 
L 160.256828 133.499864 
L 145.315569 129.220917 
z
" clip-path="url(#p14422a368f)" style="fill: #1f77b4; stroke: #000000"/>
    <path d="M 117.269301 127.845941 
L 112.736532 149.806871 
L 124.672438 135.465289 
z
" clip-path="url(#p14422a368f)" style="fill: #1f77b4; stroke: #000000"/>
    <path d="M 132.081232 143.09046 
L 124.672438 135.465289 
L 112.736532 149.806871 
z
" clip-path="url(#p14422a368f)" style="fill: #1f77b4; stroke: #000000"/>
    <path d="M 158.743861 145.770703 
L 160.256828 133.499864 
L 141.434956 143.557216 
z
" clip-path="url(#p14422a368f)" style="fill: #1f77b4; stroke: #000000"/>
    <path d="M 112.249094 115.407278 
L 130.479753 113.972827 
L 117.048346 105.666311 
z
" clip-path="url(#p14422a368f)" style="fill: #1f77b4; stroke: #000000"/>
    <path d="M 117.269301 127.845941 
L 112.249094 115.407278 
L 99.653677 136.323949 
z
" clip-path="url(#p14422a368f)" style="fill: #1f77b4; stroke: #000000"/>
    <path d="M 154.405182 153.743125 
L 158.743861 145.770703 
L 139.492278 147.082353 
z
" clip-path="url(#p14422a368f)" style="fill: #1f77b4; stroke: #000000"/>
    <path d="M 145.331452 118.168239 
L 146.808087 105.789018 
L 130.479753 113.972827 
z
" clip-path="url(#p14422a368f)" style="fill: #1f77b4; stroke: #000000"/>
    <path d="M 117.048346 105.666311 
L 130.479753 113.972827 
L 128.948447 104.077802 
z
" clip-path="url(#p14422a368f)" style="fill: #1f77b4; stroke: #000000"/>
    <path d="M 132.081232 143.09046 
L 127.686139 161.124012 
L 139.492278 147.082353 
z
" clip-path="url(#p14422a368f)" style="fill: #1f77b4; stroke: #000000"/>
    <path d="M 130.479753 113.972827 
L 146.808087 105.789018 
L 128.948447 104.077802 
z
" clip-path="url(#p14422a368f)" style="fill: #1f77b4; stroke: #000000"/>
    <path d="M 145.315569 129.220917 
L 161.778745 121.156441 
L 145.331452 118.168239 
z
" clip-path="url(#p14422a368f)" style="fill: #1f77b4; stroke: #000000"/>
    <path d="M 112.249094 115.407278 
L 106.781506 117.176827 
L 97.761306 133.014148 
z
" clip-path="url(#p14422a368f)" style="fill: #1f77b4; stroke: #000000"/>
    <path d="M 160.256828 133.499864 
L 161.778745 121.156441 
L 145.315569 129.220917 
z
" clip-path="url(#p14422a368f)" style="fill: #1f77b4; stroke: #000000"/>
    <path d="M 154.405182 153.743125 
L 175.205176 148.855087 
L 158.743861 145.770703 
z
" clip-path="url(#p14422a368f)" style="fill: #1f77b4; stroke: #000000"/>
    <path d="M 99.653677 136.323949 
L 112.736532 149.806871 
L 117.269301 127.845941 
z
" clip-path="url(#p14422a368f)" style="fill: #1f77b4; stroke: #000000"/>
    <path d="M 158.743861 145.770703 
L 175.356308 137.824124 
L 160.256828 133.499864 
z
" clip-path="url(#p14422a368f)" style="fill: #1f77b4; stroke: #000000"/>
    <path d="M 132.081232 143.09046 
L 112.736532 149.806871 
L 115.225509 151.918536 
z
" clip-path="url(#p14422a368f)" style="fill: #1f77b4; stroke: #000000"/>
    <path d="M 175.205176 148.855087 
L 175.356308 137.824124 
L 158.743861 145.770703 
z
" clip-path="url(#p14422a368f)" style="fill: #1f77b4; stroke: #000000"/>
    <path d="M 99.653677 136.323949 
L 112.249094 115.407278 
L 97.761306 133.014148 
z
" clip-path="url(#p14422a368f)" style="fill: #1f77b4; stroke: #000000"/>
    <path d="M 115.225509 151.918536 
L 127.686139 161.124012 
L 132.081232 143.09046 
z
" clip-path="url(#p14422a368f)" style="fill: #1f77b4; stroke: #000000"/>
    <path d="M 169.473852 158.174619 
L 175.205176 148.855087 
L 154.405182 153.743125 
z
" clip-path="url(#p14422a368f)" style="fill: #1f77b4; stroke: #000000"/>
    <path d="M 97.761306 133.014148 
L 106.781506 117.176827 
L 92.073554 123.066136 
z
" clip-path="url(#p14422a368f)" style="fill: #1f77b4; stroke: #000000"/>
    <path d="M 154.405182 153.743125 
L 139.492278 147.082353 
L 142.712478 165.624279 
z
" clip-path="url(#p14422a368f)" style="fill: #1f77b4; stroke: #000000"/>
    <path d="M 112.249094 115.407278 
L 102.995876 115.05191 
L 106.781506 117.176827 
z
" clip-path="url(#p14422a368f)" style="fill: #1f77b4; stroke: #000000"/>
    <path d="M 169.473852 158.174619 
L 194.102978 149.802253 
L 175.205176 148.855087 
z
" clip-path="url(#p14422a368f)" style="fill: #1f77b4; stroke: #000000"/>
    <path d="M 145.331452 118.168239 
L 161.869365 109.97573 
L 146.808087 105.789018 
z
" clip-path="url(#p14422a368f)" style="fill: #1f77b4; stroke: #000000"/>
    <path d="M 161.778745 121.156441 
L 161.869365 109.97573 
L 145.331452 118.168239 
z
" clip-path="url(#p14422a368f)" style="fill: #1f77b4; stroke: #000000"/>
    <path d="M 117.048346 105.666311 
L 128.948447 104.077802 
L 121.908123 95.802496 
z
" clip-path="url(#p14422a368f)" style="fill: #1f77b4; stroke: #000000"/>
    <path d="M 146.808087 105.789018 
L 145.363651 95.762125 
L 128.948447 104.077802 
z
" clip-path="url(#p14422a368f)" style="fill: #1f77b4; stroke: #000000"/>
    <path d="M 117.048346 105.666311 
L 102.995876 115.05191 
L 112.249094 115.407278 
z
" clip-path="url(#p14422a368f)" style="fill: #1f77b4; stroke: #000000"/>
    <path d="M 92.073554 123.066136 
L 106.781506 117.176827 
L 97.511425 119.076112 
z
" clip-path="url(#p14422a368f)" style="fill: #1f77b4; stroke: #000000"/>
    <path d="M 194.102978 149.802253 
L 190.616535 142.194419 
L 175.205176 148.855087 
z
" clip-path="url(#p14422a368f)" style="fill: #1f77b4; stroke: #000000"/>
    <path d="M 142.712478 165.624279 
L 139.492278 147.082353 
L 127.686139 161.124012 
z
" clip-path="url(#p14422a368f)" style="fill: #1f77b4; stroke: #000000"/>
    <path d="M 128.948447 104.077802 
L 145.363651 95.762125 
L 126.401301 94.870767 
z
" clip-path="url(#p14422a368f)" style="fill: #1f77b4; stroke: #000000"/>
    <path d="M 121.908123 95.802496 
L 128.948447 104.077802 
L 126.401301 94.870767 
z
" clip-path="url(#p14422a368f)" style="fill: #1f77b4; stroke: #000000"/>
    <path d="M 175.205176 148.855087 
L 190.616535 142.194419 
L 175.356308 137.824124 
z
" clip-path="url(#p14422a368f)" style="fill: #1f77b4; stroke: #000000"/>
    <path d="M 160.256828 133.499864 
L 171.693941 130.085543 
L 161.778745 121.156441 
z
" clip-path="url(#p14422a368f)" style="fill: #1f77b4; stroke: #000000"/>
    <path d="M 184.678569 164.030894 
L 194.102978 149.802253 
L 169.473852 158.174619 
z
" clip-path="url(#p14422a368f)" style="fill: #1f77b4; stroke: #000000"/>
    <path d="M 184.678569 164.030894 
L 209.410984 154.221294 
L 194.102978 149.802253 
z
" clip-path="url(#p14422a368f)" style="fill: #1f77b4; stroke: #000000"/>
    <path d="M 175.356308 137.824124 
L 171.693941 130.085543 
L 160.256828 133.499864 
z
" clip-path="url(#p14422a368f)" style="fill: #1f77b4; stroke: #000000"/>
    <path d="M 102.995876 115.05191 
L 97.511425 119.076112 
L 106.781506 117.176827 
z
" clip-path="url(#p14422a368f)" style="fill: #1f77b4; stroke: #000000"/>
    <path d="M 169.473852 158.174619 
L 154.405182 153.743125 
L 157.899857 170.172776 
z
" clip-path="url(#p14422a368f)" style="fill: #1f77b4; stroke: #000000"/>
    <path d="M 99.653677 136.323949 
L 97.761306 133.014148 
L 88.268604 132.305356 
z
" clip-path="url(#p14422a368f)" style="fill: #1f77b4; stroke: #000000"/>
    <path d="M 102.995876 115.05191 
L 117.048346 105.666311 
L 121.908123 95.802496 
z
" clip-path="url(#p14422a368f)" style="fill: #1f77b4; stroke: #000000"/>
    <path d="M 161.869365 109.97573 
L 161.778745 121.156441 
L 171.693941 130.085543 
z
" clip-path="url(#p14422a368f)" style="fill: #1f77b4; stroke: #000000"/>
    <path d="M 88.268604 132.305356 
L 97.761306 133.014148 
L 92.073554 123.066136 
z
" clip-path="url(#p14422a368f)" style="fill: #1f77b4; stroke: #000000"/>
    <path d="M 99.653677 136.323949 
L 100.399522 156.131574 
L 112.736532 149.806871 
z
" clip-path="url(#p14422a368f)" style="fill: #1f77b4; stroke: #000000"/>
    <path d="M 161.869365 109.97573 
L 157.593276 102.388059 
L 146.808087 105.789018 
z
" clip-path="url(#p14422a368f)" style="fill: #1f77b4; stroke: #000000"/>
    <path d="M 121.908123 95.802496 
L 126.401301 94.870767 
L 124.361064 90.823791 
z
" clip-path="url(#p14422a368f)" style="fill: #1f77b4; stroke: #000000"/>
    <path d="M 115.225509 151.918536 
L 112.736532 149.806871 
L 100.399522 156.131574 
z
" clip-path="url(#p14422a368f)" style="fill: #1f77b4; stroke: #000000"/>
    <path d="M 146.808087 105.789018 
L 157.593276 102.388059 
L 145.363651 95.762125 
z
" clip-path="url(#p14422a368f)" style="fill: #1f77b4; stroke: #000000"/>
    <path d="M 209.410984 154.221294 
L 203.260745 149.231817 
L 194.102978 149.802253 
z
" clip-path="url(#p14422a368f)" style="fill: #1f77b4; stroke: #000000"/>
    <path d="M 157.899857 170.172776 
L 154.405182 153.743125 
L 142.712478 165.624279 
z
" clip-path="url(#p14422a368f)" style="fill: #1f77b4; stroke: #000000"/>
    <path d="M 171.693941 130.085543 
L 175.356308 137.824124 
L 190.616535 142.194419 
z
" clip-path="url(#p14422a368f)" style="fill: #1f77b4; stroke: #000000"/>
    <path d="M 115.225509 151.918536 
L 115.56321 170.403593 
L 127.686139 161.124012 
z
" clip-path="url(#p14422a368f)" style="fill: #1f77b4; stroke: #000000"/>
    <path d="M 194.102978 149.802253 
L 203.260745 149.231817 
L 190.616535 142.194419 
z
" clip-path="url(#p14422a368f)" style="fill: #1f77b4; stroke: #000000"/>
    <path d="M 92.073554 123.066136 
L 97.511425 119.076112 
L 88.268604 132.305356 
z
" clip-path="url(#p14422a368f)" style="fill: #1f77b4; stroke: #000000"/>
    <path d="M 200.06174 168.562285 
L 209.410984 154.221294 
L 184.678569 164.030894 
z
" clip-path="url(#p14422a368f)" style="fill: #1f77b4; stroke: #000000"/>
    <path d="M 139.439839 91.162022 
L 126.401301 94.870767 
L 145.363651 95.762125 
z
" clip-path="url(#p14422a368f)" style="fill: #1f77b4; stroke: #000000"/>
    <path d="M 124.361064 90.823791 
L 126.401301 94.870767 
L 139.439839 91.162022 
z
" clip-path="url(#p14422a368f)" style="fill: #1f77b4; stroke: #000000"/>
    <path d="M 184.678569 164.030894 
L 169.473852 158.174619 
L 173.250878 174.770283 
z
" clip-path="url(#p14422a368f)" style="fill: #1f77b4; stroke: #000000"/>
    <path d="M 161.869365 109.97573 
L 171.693941 130.085543 
L 169.806498 128.982121 
z
" clip-path="url(#p14422a368f)" style="fill: #1f77b4; stroke: #000000"/>
    <path d="M 92.819078 148.31187 
L 100.399522 156.131574 
L 99.653677 136.323949 
z
" clip-path="url(#p14422a368f)" style="fill: #1f77b4; stroke: #000000"/>
    <path d="M 115.225509 151.918536 
L 100.399522 156.131574 
L 104.234982 162.822332 
z
" clip-path="url(#p14422a368f)" style="fill: #1f77b4; stroke: #000000"/>
    <path d="M 86.980835 135.432331 
L 99.653677 136.323949 
L 88.268604 132.305356 
z
" clip-path="url(#p14422a368f)" style="fill: #1f77b4; stroke: #000000"/>
    <path d="M 102.995876 115.05191 
L 121.908123 95.802496 
L 104.693324 104.248192 
z
" clip-path="url(#p14422a368f)" style="fill: #1f77b4; stroke: #000000"/>
    <path d="M 104.234982 162.822332 
L 115.56321 170.403593 
L 115.225509 151.918536 
z
" clip-path="url(#p14422a368f)" style="fill: #1f77b4; stroke: #000000"/>
    <path d="M 92.819078 148.31187 
L 99.653677 136.323949 
L 86.980835 135.432331 
z
" clip-path="url(#p14422a368f)" style="fill: #1f77b4; stroke: #000000"/>
    <path d="M 200.06174 168.562285 
L 218.530997 164.895396 
L 209.410984 154.221294 
z
" clip-path="url(#p14422a368f)" style="fill: #1f77b4; stroke: #000000"/>
    <path d="M 161.869365 109.97573 
L 164.14505 118.894849 
L 157.593276 102.388059 
z
" clip-path="url(#p14422a368f)" style="fill: #1f77b4; stroke: #000000"/>
    <path d="M 142.712478 165.624279 
L 127.686139 161.124012 
L 130.730055 176.404358 
z
" clip-path="url(#p14422a368f)" style="fill: #1f77b4; stroke: #000000"/>
    <path d="M 164.14505 118.894849 
L 161.869365 109.97573 
L 169.806498 128.982121 
z
" clip-path="url(#p14422a368f)" style="fill: #1f77b4; stroke: #000000"/>
    <path d="M 171.693941 130.085543 
L 190.616535 142.194419 
L 185.071927 141.799763 
z
" clip-path="url(#p14422a368f)" style="fill: #1f77b4; stroke: #000000"/>
    <path d="M 102.995876 115.05191 
L 86.980835 135.432331 
L 97.511425 119.076112 
z
" clip-path="url(#p14422a368f)" style="fill: #1f77b4; stroke: #000000"/>
    <path d="M 173.250878 174.770283 
L 169.473852 158.174619 
L 157.899857 170.172776 
z
" clip-path="url(#p14422a368f)" style="fill: #1f77b4; stroke: #000000"/>
    <path d="M 109.558046 94.204378 
L 121.908123 95.802496 
L 124.361064 90.823791 
z
" clip-path="url(#p14422a368f)" style="fill: #1f77b4; stroke: #000000"/>
    <path d="M 203.260745 149.231817 
L 209.410984 154.221294 
L 218.530997 164.895396 
z
" clip-path="url(#p14422a368f)" style="fill: #1f77b4; stroke: #000000"/>
    <path d="M 86.980835 135.432331 
L 88.268604 132.305356 
L 97.511425 119.076112 
z
" clip-path="url(#p14422a368f)" style="fill: #1f77b4; stroke: #000000"/>
    <path d="M 154.688191 99.160108 
L 145.363651 95.762125 
L 157.593276 102.388059 
z
" clip-path="url(#p14422a368f)" style="fill: #1f77b4; stroke: #000000"/>
    <path d="M 171.693941 130.085543 
L 173.608232 132.884531 
L 169.806498 128.982121 
z
" clip-path="url(#p14422a368f)" style="fill: #1f77b4; stroke: #000000"/>
    <path d="M 139.439839 91.162022 
L 145.363651 95.762125 
L 154.688191 99.160108 
z
" clip-path="url(#p14422a368f)" style="fill: #1f77b4; stroke: #000000"/>
    <path d="M 139.439839 91.162022 
L 118.240666 89.98617 
L 124.361064 90.823791 
z
" clip-path="url(#p14422a368f)" style="fill: #1f77b4; stroke: #000000"/>
    <path d="M 173.608232 132.884531 
L 171.693941 130.085543 
L 185.071927 141.799763 
z
" clip-path="url(#p14422a368f)" style="fill: #1f77b4; stroke: #000000"/>
    <path d="M 130.730055 176.404358 
L 127.686139 161.124012 
L 115.56321 170.403593 
z
" clip-path="url(#p14422a368f)" style="fill: #1f77b4; stroke: #000000"/>
    <path d="M 200.508806 149.999682 
L 190.616535 142.194419 
L 203.260745 149.231817 
z
" clip-path="url(#p14422a368f)" style="fill: #1f77b4; stroke: #000000"/>
    <path d="M 185.071927 141.799763 
L 190.616535 142.194419 
L 200.508806 149.999682 
z
" clip-path="url(#p14422a368f)" style="fill: #1f77b4; stroke: #000000"/>
    <path d="M 109.558046 94.204378 
L 104.693324 104.248192 
L 121.908123 95.802496 
z
" clip-path="url(#p14422a368f)" style="fill: #1f77b4; stroke: #000000"/>
    <path d="M 200.06174 168.562285 
L 184.678569 164.030894 
L 188.768199 179.417595 
z
" clip-path="url(#p14422a368f)" style="fill: #1f77b4; stroke: #000000"/>
    <path d="M 157.593276 102.388059 
L 164.14505 118.894849 
L 157.209456 105.577053 
z
" clip-path="url(#p14422a368f)" style="fill: #1f77b4; stroke: #000000"/>
    <path d="M 118.240666 89.98617 
L 109.558046 94.204378 
L 124.361064 90.823791 
z
" clip-path="url(#p14422a368f)" style="fill: #1f77b4; stroke: #000000"/>
    <path d="M 215.72353 169.439682 
L 218.530997 164.895396 
L 200.06174 168.562285 
z
" clip-path="url(#p14422a368f)" style="fill: #1f77b4; stroke: #000000"/>
    <path d="M 157.899857 170.172776 
L 142.712478 165.624279 
L 146.046331 181.069437 
z
" clip-path="url(#p14422a368f)" style="fill: #1f77b4; stroke: #000000"/>
    <path d="M 90.484473 125.209679 
L 102.995876 115.05191 
L 104.693324 104.248192 
z
" clip-path="url(#p14422a368f)" style="fill: #1f77b4; stroke: #000000"/>
    <path d="M 139.439839 91.162022 
L 137.44068 90.883478 
L 118.240666 89.98617 
z
" clip-path="url(#p14422a368f)" style="fill: #1f77b4; stroke: #000000"/>
    <path d="M 157.593276 102.388059 
L 157.209456 105.577053 
L 154.688191 99.160108 
z
" clip-path="url(#p14422a368f)" style="fill: #1f77b4; stroke: #000000"/>
    <path d="M 188.768199 179.417595 
L 184.678569 164.030894 
L 173.250878 174.770283 
z
" clip-path="url(#p14422a368f)" style="fill: #1f77b4; stroke: #000000"/>
    <path d="M 90.484473 125.209679 
L 86.980835 135.432331 
L 102.995876 115.05191 
z
" clip-path="url(#p14422a368f)" style="fill: #1f77b4; stroke: #000000"/>
    <path d="M 154.688191 99.160108 
L 137.44068 90.883478 
L 139.439839 91.162022 
z
" clip-path="url(#p14422a368f)" style="fill: #1f77b4; stroke: #000000"/>
    <path d="M 104.234982 162.822332 
L 100.399522 156.131574 
L 94.028516 155.854732 
z
" clip-path="url(#p14422a368f)" style="fill: #1f77b4; stroke: #000000"/>
    <path d="M 203.260745 149.231817 
L 218.530997 164.895396 
L 215.865499 164.795277 
z
" clip-path="url(#p14422a368f)" style="fill: #1f77b4; stroke: #000000"/>
    <path d="M 94.028516 155.854732 
L 100.399522 156.131574 
L 92.819078 148.31187 
z
" clip-path="url(#p14422a368f)" style="fill: #1f77b4; stroke: #000000"/>
    <path d="M 203.260745 149.231817 
L 204.362616 152.99455 
L 200.508806 149.999682 
z
" clip-path="url(#p14422a368f)" style="fill: #1f77b4; stroke: #000000"/>
    <path d="M 146.046331 181.069437 
L 142.712478 165.624279 
L 130.730055 176.404358 
z
" clip-path="url(#p14422a368f)" style="fill: #1f77b4; stroke: #000000"/>
    <path d="M 204.362616 152.99455 
L 203.260745 149.231817 
L 215.865499 164.795277 
z
" clip-path="url(#p14422a368f)" style="fill: #1f77b4; stroke: #000000"/>
    <path d="M 169.806498 128.982121 
L 173.608232 132.884531 
L 158.143197 133.664307 
z
" clip-path="url(#p14422a368f)" style="fill: #1f77b4; stroke: #000000"/>
    <path d="M 158.143197 133.664307 
L 164.14505 118.894849 
L 169.806498 128.982121 
z
" clip-path="url(#p14422a368f)" style="fill: #1f77b4; stroke: #000000"/>
    <path d="M 215.72353 169.439682 
L 233.346565 170.380473 
L 218.530997 164.895396 
z
" clip-path="url(#p14422a368f)" style="fill: #1f77b4; stroke: #000000"/>
    <path d="M 173.561584 150.939655 
L 173.608232 132.884531 
L 185.071927 141.799763 
z
" clip-path="url(#p14422a368f)" style="fill: #1f77b4; stroke: #000000"/>
    <path d="M 104.234982 162.822332 
L 103.138102 181.330455 
L 115.56321 170.403593 
z
" clip-path="url(#p14422a368f)" style="fill: #1f77b4; stroke: #000000"/>
    <path d="M 164.14505 118.894849 
L 155.578114 130.072097 
L 157.209456 105.577053 
z
" clip-path="url(#p14422a368f)" style="fill: #1f77b4; stroke: #000000"/>
    <path d="M 109.558046 94.204378 
L 118.240666 89.98617 
L 112.059743 92.984321 
z
" clip-path="url(#p14422a368f)" style="fill: #1f77b4; stroke: #000000"/>
    <path d="M 215.72353 169.439682 
L 200.06174 168.562285 
L 204.551853 180.382319 
z
" clip-path="url(#p14422a368f)" style="fill: #1f77b4; stroke: #000000"/>
    <path d="M 215.865499 164.795277 
L 218.530997 164.895396 
L 231.603543 170.329302 
z
" clip-path="url(#p14422a368f)" style="fill: #1f77b4; stroke: #000000"/>
    <path d="M 154.688191 99.160108 
L 157.209456 105.577053 
L 148.765441 98.385995 
z
" clip-path="url(#p14422a368f)" style="fill: #1f77b4; stroke: #000000"/>
    <path d="M 154.688191 99.160108 
L 148.765441 98.385995 
L 137.44068 90.883478 
z
" clip-path="url(#p14422a368f)" style="fill: #1f77b4; stroke: #000000"/>
    <path d="M 92.819078 148.31187 
L 86.980835 135.432331 
L 83.62348 148.751574 
z
" clip-path="url(#p14422a368f)" style="fill: #1f77b4; stroke: #000000"/>
    <path d="M 173.250878 174.770283 
L 157.899857 170.172776 
L 161.529757 185.785428 
z
" clip-path="url(#p14422a368f)" style="fill: #1f77b4; stroke: #000000"/>
    <path d="M 231.603543 170.329302 
L 218.530997 164.895396 
L 233.346565 170.380473 
z
" clip-path="url(#p14422a368f)" style="fill: #1f77b4; stroke: #000000"/>
    <path d="M 127.284093 91.89069 
L 118.240666 89.98617 
L 137.44068 90.883478 
z
" clip-path="url(#p14422a368f)" style="fill: #1f77b4; stroke: #000000"/>
    <path d="M 231.465096 174.056415 
L 233.346565 170.380473 
L 215.72353 169.439682 
z
" clip-path="url(#p14422a368f)" style="fill: #1f77b4; stroke: #000000"/>
    <path d="M 92.137039 114.321821 
L 104.693324 104.248192 
L 109.558046 94.204378 
z
" clip-path="url(#p14422a368f)" style="fill: #1f77b4; stroke: #000000"/>
    <path d="M 90.484473 125.209679 
L 104.693324 104.248192 
L 92.137039 114.321821 
z
" clip-path="url(#p14422a368f)" style="fill: #1f77b4; stroke: #000000"/>
    <path d="M 204.551853 180.382319 
L 200.06174 168.562285 
L 188.768199 179.417595 
z
" clip-path="url(#p14422a368f)" style="fill: #1f77b4; stroke: #000000"/>
    <path d="M 185.071927 141.799763 
L 200.508806 149.999682 
L 189.179294 158.340868 
z
" clip-path="url(#p14422a368f)" style="fill: #1f77b4; stroke: #000000"/>
    <path d="M 91.460929 162.381344 
L 104.234982 162.822332 
L 94.028516 155.854732 
z
" clip-path="url(#p14422a368f)" style="fill: #1f77b4; stroke: #000000"/>
    <path d="M 94.028516 155.854732 
L 92.819078 148.31187 
L 87.545991 155.573043 
z
" clip-path="url(#p14422a368f)" style="fill: #1f77b4; stroke: #000000"/>
    <path d="M 158.143197 133.664307 
L 173.608232 132.884531 
L 165.830619 144.429966 
z
" clip-path="url(#p14422a368f)" style="fill: #1f77b4; stroke: #000000"/>
    <path d="M 173.561584 150.939655 
L 165.830619 144.429966 
L 173.608232 132.884531 
z
" clip-path="url(#p14422a368f)" style="fill: #1f77b4; stroke: #000000"/>
    <path d="M 112.059743 92.984321 
L 118.240666 89.98617 
L 127.284093 91.89069 
z
" clip-path="url(#p14422a368f)" style="fill: #1f77b4; stroke: #000000"/>
    <path d="M 97.370818 175.374478 
L 103.138102 181.330455 
L 104.234982 162.822332 
z
" clip-path="url(#p14422a368f)" style="fill: #1f77b4; stroke: #000000"/>
    <path d="M 130.730055 176.404358 
L 115.56321 170.403593 
L 118.425733 186.05973 
z
" clip-path="url(#p14422a368f)" style="fill: #1f77b4; stroke: #000000"/>
    <path d="M 161.529757 185.785428 
L 157.899857 170.172776 
L 146.046331 181.069437 
z
" clip-path="url(#p14422a368f)" style="fill: #1f77b4; stroke: #000000"/>
    <path d="M 200.508806 149.999682 
L 204.362616 152.99455 
L 189.179294 158.340868 
z
" clip-path="url(#p14422a368f)" style="fill: #1f77b4; stroke: #000000"/>
    <path d="M 158.143197 133.664307 
L 155.578114 130.072097 
L 164.14505 118.894849 
z
" clip-path="url(#p14422a368f)" style="fill: #1f77b4; stroke: #000000"/>
    <path d="M 83.62348 148.751574 
L 86.980835 135.432331 
L 90.484473 125.209679 
z
" clip-path="url(#p14422a368f)" style="fill: #1f77b4; stroke: #000000"/>
    <path d="M 97.370818 175.374478 
L 104.234982 162.822332 
L 91.460929 162.381344 
z
" clip-path="url(#p14422a368f)" style="fill: #1f77b4; stroke: #000000"/>
    <path d="M 204.673921 175.699472 
L 204.362616 152.99455 
L 215.865499 164.795277 
z
" clip-path="url(#p14422a368f)" style="fill: #1f77b4; stroke: #000000"/>
    <path d="M 239.475473 174.518203 
L 233.346565 170.380473 
L 231.465096 174.056415 
z
" clip-path="url(#p14422a368f)" style="fill: #1f77b4; stroke: #000000"/>
    <path d="M 233.346565 170.380473 
L 239.475473 174.518203 
L 231.603543 170.329302 
z
" clip-path="url(#p14422a368f)" style="fill: #1f77b4; stroke: #000000"/>
    <path d="M 185.071927 141.799763 
L 189.179294 158.340868 
L 173.561584 150.939655 
z
" clip-path="url(#p14422a368f)" style="fill: #1f77b4; stroke: #000000"/>
    <path d="M 157.209456 105.577053 
L 155.578114 130.072097 
L 152.403858 117.684158 
z
" clip-path="url(#p14422a368f)" style="fill: #1f77b4; stroke: #000000"/>
    <path d="M 112.059743 92.984321 
L 93.807292 103.317433 
L 109.558046 94.204378 
z
" clip-path="url(#p14422a368f)" style="fill: #1f77b4; stroke: #000000"/>
    <path d="M 118.425733 186.05973 
L 115.56321 170.403593 
L 103.138102 181.330455 
z
" clip-path="url(#p14422a368f)" style="fill: #1f77b4; stroke: #000000"/>
    <path d="M 157.209456 105.577053 
L 146.615297 104.489227 
L 148.765441 98.385995 
z
" clip-path="url(#p14422a368f)" style="fill: #1f77b4; stroke: #000000"/>
    <path d="M 92.819078 148.31187 
L 83.62348 148.751574 
L 87.545991 155.573043 
z
" clip-path="url(#p14422a368f)" style="fill: #1f77b4; stroke: #000000"/>
    <path d="M 231.465096 174.056415 
L 215.72353 169.439682 
L 220.435279 185.118642 
z
" clip-path="url(#p14422a368f)" style="fill: #1f77b4; stroke: #000000"/>
    <path d="M 142.737496 100.508874 
L 137.44068 90.883478 
L 148.765441 98.385995 
z
" clip-path="url(#p14422a368f)" style="fill: #1f77b4; stroke: #000000"/>
    <path d="M 188.768199 179.417595 
L 173.250878 174.770283 
L 177.23846 186.802276 
z
" clip-path="url(#p14422a368f)" style="fill: #1f77b4; stroke: #000000"/>
    <path d="M 127.284093 91.89069 
L 137.44068 90.883478 
L 142.737496 100.508874 
z
" clip-path="url(#p14422a368f)" style="fill: #1f77b4; stroke: #000000"/>
    <path d="M 92.137039 114.321821 
L 109.558046 94.204378 
L 93.807292 103.317433 
z
" clip-path="url(#p14422a368f)" style="fill: #1f77b4; stroke: #000000"/>
    <path d="M 215.865499 164.795277 
L 231.603543 170.329302 
L 220.558269 181.360655 
z
" clip-path="url(#p14422a368f)" style="fill: #1f77b4; stroke: #000000"/>
    <path d="M 157.209456 105.577053 
L 152.403858 117.684158 
L 146.615297 104.489227 
z
" clip-path="url(#p14422a368f)" style="fill: #1f77b4; stroke: #000000"/>
    <path d="M 91.460929 162.381344 
L 94.028516 155.854732 
L 87.545991 155.573043 
z
" clip-path="url(#p14422a368f)" style="fill: #1f77b4; stroke: #000000"/>
    <path d="M 220.435279 185.118642 
L 215.72353 169.439682 
L 204.551853 180.382319 
z
" clip-path="url(#p14422a368f)" style="fill: #1f77b4; stroke: #000000"/>
    <path d="M 146.046331 181.069437 
L 130.730055 176.404358 
L 133.881541 190.841031 
z
" clip-path="url(#p14422a368f)" style="fill: #1f77b4; stroke: #000000"/>
    <path d="M 189.179294 158.340868 
L 204.362616 152.99455 
L 196.974071 164.898636 
z
" clip-path="url(#p14422a368f)" style="fill: #1f77b4; stroke: #000000"/>
    <path d="M 204.673921 175.699472 
L 196.974071 164.898636 
L 204.362616 152.99455 
z
" clip-path="url(#p14422a368f)" style="fill: #1f77b4; stroke: #000000"/>
    <path d="M 79.548045 136.190376 
L 90.484473 125.209679 
L 92.137039 114.321821 
z
" clip-path="url(#p14422a368f)" style="fill: #1f77b4; stroke: #000000"/>
    <path d="M 158.143197 133.664307 
L 165.830619 144.429966 
L 155.17986 133.426143 
z
" clip-path="url(#p14422a368f)" style="fill: #1f77b4; stroke: #000000"/>
    <path d="M 177.23846 186.802276 
L 173.250878 174.770283 
L 161.529757 185.785428 
z
" clip-path="url(#p14422a368f)" style="fill: #1f77b4; stroke: #000000"/>
    <path d="M 158.143197 133.664307 
L 155.17986 133.426143 
L 155.578114 130.072097 
z
" clip-path="url(#p14422a368f)" style="fill: #1f77b4; stroke: #000000"/>
    <path d="M 231.603543 170.329302 
L 239.475473 174.518203 
L 220.558269 181.360655 
z
" clip-path="url(#p14422a368f)" style="fill: #1f77b4; stroke: #000000"/>
    <path d="M 239.475473 174.518203 
L 231.465096 174.056415 
L 228.510395 185.625517 
z
" clip-path="url(#p14422a368f)" style="fill: #1f77b4; stroke: #000000"/>
    <path d="M 83.62348 148.751574 
L 90.484473 125.209679 
L 79.548045 136.190376 
z
" clip-path="url(#p14422a368f)" style="fill: #1f77b4; stroke: #000000"/>
    <path d="M 215.865499 164.795277 
L 220.558269 181.360655 
L 204.673921 175.699472 
z
" clip-path="url(#p14422a368f)" style="fill: #1f77b4; stroke: #000000"/>
    <path d="M 112.059743 92.984321 
L 127.284093 91.89069 
L 99.379684 96.189583 
z
" clip-path="url(#p14422a368f)" style="fill: #1f77b4; stroke: #000000"/>
    <path d="M 96.726484 182.680897 
L 103.138102 181.330455 
L 97.370818 175.374478 
z
" clip-path="url(#p14422a368f)" style="fill: #1f77b4; stroke: #000000"/>
    <path d="M 204.551853 180.382319 
L 188.768199 179.417595 
L 177.23846 186.802276 
z
" clip-path="url(#p14422a368f)" style="fill: #1f77b4; stroke: #000000"/>
    <path d="M 133.881541 190.841031 
L 130.730055 176.404358 
L 118.425733 186.05973 
z
" clip-path="url(#p14422a368f)" style="fill: #1f77b4; stroke: #000000"/>
    <path d="M 99.379684 96.189583 
L 93.807292 103.317433 
L 112.059743 92.984321 
z
" clip-path="url(#p14422a368f)" style="fill: #1f77b4; stroke: #000000"/>
    <path d="M 148.765441 98.385995 
L 146.615297 104.489227 
L 142.737496 100.508874 
z
" clip-path="url(#p14422a368f)" style="fill: #1f77b4; stroke: #000000"/>
    <path d="M 161.727265 161.755956 
L 165.830619 144.429966 
L 173.561584 150.939655 
z
" clip-path="url(#p14422a368f)" style="fill: #1f77b4; stroke: #000000"/>
    <path d="M 96.726484 182.680897 
L 118.425733 186.05973 
L 103.138102 181.330455 
z
" clip-path="url(#p14422a368f)" style="fill: #1f77b4; stroke: #000000"/>
    <path d="M 87.545991 155.573043 
L 84.194584 152.579236 
L 91.460929 162.381344 
z
" clip-path="url(#p14422a368f)" style="fill: #1f77b4; stroke: #000000"/>
    <path d="M 228.510395 185.625517 
L 231.465096 174.056415 
L 220.435279 185.118642 
z
" clip-path="url(#p14422a368f)" style="fill: #1f77b4; stroke: #000000"/>
    <path d="M 91.460929 162.381344 
L 96.514436 171.358578 
L 97.370818 175.374478 
z
" clip-path="url(#p14422a368f)" style="fill: #1f77b4; stroke: #000000"/>
    <path d="M 152.227161 124.526296 
L 152.403858 117.684158 
L 155.578114 130.072097 
z
" clip-path="url(#p14422a368f)" style="fill: #1f77b4; stroke: #000000"/>
    <path d="M 152.227161 124.526296 
L 155.578114 130.072097 
L 155.17986 133.426143 
z
" clip-path="url(#p14422a368f)" style="fill: #1f77b4; stroke: #000000"/>
    <path d="M 79.255333 124.656528 
L 92.137039 114.321821 
L 93.807292 103.317433 
z
" clip-path="url(#p14422a368f)" style="fill: #1f77b4; stroke: #000000"/>
    <path d="M 84.194584 152.579236 
L 87.545991 155.573043 
L 83.62348 148.751574 
z
" clip-path="url(#p14422a368f)" style="fill: #1f77b4; stroke: #000000"/>
    <path d="M 196.974071 164.898636 
L 204.673921 175.699472 
L 201.7607 181.287189 
z
" clip-path="url(#p14422a368f)" style="fill: #1f77b4; stroke: #000000"/>
    <path d="M 201.7607 181.287189 
L 220.435279 185.118642 
L 204.551853 180.382319 
z
" clip-path="url(#p14422a368f)" style="fill: #1f77b4; stroke: #000000"/>
    <path d="M 161.529757 185.785428 
L 146.046331 181.069437 
L 149.515927 193.318402 
z
" clip-path="url(#p14422a368f)" style="fill: #1f77b4; stroke: #000000"/>
    <path d="M 142.737496 100.508874 
L 121.056415 92.508285 
L 127.284093 91.89069 
z
" clip-path="url(#p14422a368f)" style="fill: #1f77b4; stroke: #000000"/>
    <path d="M 79.548045 136.190376 
L 92.137039 114.321821 
L 79.255333 124.656528 
z
" clip-path="url(#p14422a368f)" style="fill: #1f77b4; stroke: #000000"/>
    <path d="M 165.830619 144.429966 
L 151.998957 143.085003 
L 155.17986 133.426143 
z
" clip-path="url(#p14422a368f)" style="fill: #1f77b4; stroke: #000000"/>
    <path d="M 220.558269 181.360655 
L 239.475473 174.518203 
L 228.510395 185.625517 
z
" clip-path="url(#p14422a368f)" style="fill: #1f77b4; stroke: #000000"/>
    <path d="M 173.561584 150.939655 
L 189.179294 158.340868 
L 177.461714 171.680624 
z
" clip-path="url(#p14422a368f)" style="fill: #1f77b4; stroke: #000000"/>
    <path d="M 97.370818 175.374478 
L 96.514436 171.358578 
L 96.726484 182.680897 
z
" clip-path="url(#p14422a368f)" style="fill: #1f77b4; stroke: #000000"/>
    <path d="M 201.7607 181.287189 
L 204.551853 180.382319 
L 181.2158 186.117616 
z
" clip-path="url(#p14422a368f)" style="fill: #1f77b4; stroke: #000000"/>
    <path d="M 201.7607 181.287189 
L 204.673921 175.699472 
L 218.629346 185.110067 
z
" clip-path="url(#p14422a368f)" style="fill: #1f77b4; stroke: #000000"/>
    <path d="M 181.2158 186.117616 
L 196.974071 164.898636 
L 201.7607 181.287189 
z
" clip-path="url(#p14422a368f)" style="fill: #1f77b4; stroke: #000000"/>
    <path d="M 84.194584 152.579236 
L 96.514436 171.358578 
L 91.460929 162.381344 
z
" clip-path="url(#p14422a368f)" style="fill: #1f77b4; stroke: #000000"/>
    <path d="M 161.727265 161.755956 
L 155.867473 155.7286 
L 165.830619 144.429966 
z
" clip-path="url(#p14422a368f)" style="fill: #1f77b4; stroke: #000000"/>
    <path d="M 204.551853 180.382319 
L 177.23846 186.802276 
L 181.2158 186.117616 
z
" clip-path="url(#p14422a368f)" style="fill: #1f77b4; stroke: #000000"/>
    <path d="M 153.793748 111.591417 
L 146.615297 104.489227 
L 152.403858 117.684158 
z
" clip-path="url(#p14422a368f)" style="fill: #1f77b4; stroke: #000000"/>
    <path d="M 218.629346 185.110067 
L 204.673921 175.699472 
L 220.558269 181.360655 
z
" clip-path="url(#p14422a368f)" style="fill: #1f77b4; stroke: #000000"/>
    <path d="M 99.379684 96.189583 
L 127.284093 91.89069 
L 103.174778 94.331148 
z
" clip-path="url(#p14422a368f)" style="fill: #1f77b4; stroke: #000000"/>
    <path d="M 218.629346 185.110067 
L 220.435279 185.118642 
L 201.7607 181.287189 
z
" clip-path="url(#p14422a368f)" style="fill: #1f77b4; stroke: #000000"/>
    <path d="M 127.284093 91.89069 
L 121.056415 92.508285 
L 103.174778 94.331148 
z
" clip-path="url(#p14422a368f)" style="fill: #1f77b4; stroke: #000000"/>
    <path d="M 189.179294 158.340868 
L 196.974071 164.898636 
L 177.461714 171.680624 
z
" clip-path="url(#p14422a368f)" style="fill: #1f77b4; stroke: #000000"/>
    <path d="M 149.515927 193.318402 
L 146.046331 181.069437 
L 133.881541 190.841031 
z
" clip-path="url(#p14422a368f)" style="fill: #1f77b4; stroke: #000000"/>
    <path d="M 112.10495 187.45666 
L 118.425733 186.05973 
L 96.726484 182.680897 
z
" clip-path="url(#p14422a368f)" style="fill: #1f77b4; stroke: #000000"/>
    <path d="M 165.830619 144.429966 
L 155.867473 155.7286 
L 151.998957 143.085003 
z
" clip-path="url(#p14422a368f)" style="fill: #1f77b4; stroke: #000000"/>
    <path d="M 136.604943 96.796597 
L 142.737496 100.508874 
L 146.615297 104.489227 
z
" clip-path="url(#p14422a368f)" style="fill: #1f77b4; stroke: #000000"/>
    <path d="M 173.561584 150.939655 
L 177.461714 171.680624 
L 161.727265 161.755956 
z
" clip-path="url(#p14422a368f)" style="fill: #1f77b4; stroke: #000000"/>
    <path d="M 112.10495 187.45666 
L 133.881541 190.841031 
L 118.425733 186.05973 
z
" clip-path="url(#p14422a368f)" style="fill: #1f77b4; stroke: #000000"/>
    <path d="M 177.23846 186.802276 
L 161.529757 185.785428 
L 149.515927 193.318402 
z
" clip-path="url(#p14422a368f)" style="fill: #1f77b4; stroke: #000000"/>
    <path d="M 228.510395 185.625517 
L 220.435279 185.118642 
L 218.629346 185.110067 
z
" clip-path="url(#p14422a368f)" style="fill: #1f77b4; stroke: #000000"/>
    <path d="M 153.793748 111.591417 
L 152.403858 117.684158 
L 152.227161 124.526296 
z
" clip-path="url(#p14422a368f)" style="fill: #1f77b4; stroke: #000000"/>
    <path d="M 220.558269 181.360655 
L 228.510395 185.625517 
L 218.629346 185.110067 
z
" clip-path="url(#p14422a368f)" style="fill: #1f77b4; stroke: #000000"/>
    <path d="M 155.17986 133.426143 
L 151.998957 143.085003 
L 152.227161 124.526296 
z
" clip-path="url(#p14422a368f)" style="fill: #1f77b4; stroke: #000000"/>
    <path d="M 142.737496 100.508874 
L 136.604943 96.796597 
L 121.056415 92.508285 
z
" clip-path="url(#p14422a368f)" style="fill: #1f77b4; stroke: #000000"/>
    <path d="M 180.078093 174.370973 
L 196.974071 164.898636 
L 181.2158 186.117616 
z
" clip-path="url(#p14422a368f)" style="fill: #1f77b4; stroke: #000000"/>
    <path d="M 79.255333 124.656528 
L 93.807292 103.317433 
L 78.959854 113.013669 
z
" clip-path="url(#p14422a368f)" style="fill: #1f77b4; stroke: #000000"/>
    <path d="M 83.62348 148.751574 
L 79.548045 136.190376 
L 71.509355 148.436327 
z
" clip-path="url(#p14422a368f)" style="fill: #1f77b4; stroke: #000000"/>
    <path d="M 84.194584 152.579236 
L 83.62348 148.751574 
L 74.154244 152.104846 
z
" clip-path="url(#p14422a368f)" style="fill: #1f77b4; stroke: #000000"/>
    <path d="M 181.2158 186.117616 
L 177.23846 186.802276 
L 174.316385 187.739777 
z
" clip-path="url(#p14422a368f)" style="fill: #1f77b4; stroke: #000000"/>
    <path d="M 153.793748 111.591417 
L 136.604943 96.796597 
L 146.615297 104.489227 
z
" clip-path="url(#p14422a368f)" style="fill: #1f77b4; stroke: #000000"/>
    <path d="M 177.461714 171.680624 
L 196.974071 164.898636 
L 180.078093 174.370973 
z
" clip-path="url(#p14422a368f)" style="fill: #1f77b4; stroke: #000000"/>
    <path d="M 83.805037 102.716784 
L 93.807292 103.317433 
L 99.379684 96.189583 
z
" clip-path="url(#p14422a368f)" style="fill: #1f77b4; stroke: #000000"/>
    <path d="M 111.964505 176.094198 
L 96.726484 182.680897 
L 96.514436 171.358578 
z
" clip-path="url(#p14422a368f)" style="fill: #1f77b4; stroke: #000000"/>
    <path d="M 111.964505 176.094198 
L 112.10495 187.45666 
L 96.726484 182.680897 
z
" clip-path="url(#p14422a368f)" style="fill: #1f77b4; stroke: #000000"/>
    <path d="M 84.194584 152.579236 
L 94.685686 161.304456 
L 96.514436 171.358578 
z
" clip-path="url(#p14422a368f)" style="fill: #1f77b4; stroke: #000000"/>
    <path d="M 99.379684 96.189583 
L 103.174778 94.331148 
L 92.89908 98.321066 
z
" clip-path="url(#p14422a368f)" style="fill: #1f77b4; stroke: #000000"/>
    <path d="M 129.214986 190.859684 
L 133.881541 190.841031 
L 112.10495 187.45666 
z
" clip-path="url(#p14422a368f)" style="fill: #1f77b4; stroke: #000000"/>
    <path d="M 71.509355 148.436327 
L 79.548045 136.190376 
L 79.255333 124.656528 
z
" clip-path="url(#p14422a368f)" style="fill: #1f77b4; stroke: #000000"/>
    <path d="M 174.316385 187.739777 
L 180.078093 174.370973 
L 181.2158 186.117616 
z
" clip-path="url(#p14422a368f)" style="fill: #1f77b4; stroke: #000000"/>
    <path d="M 174.316385 187.739777 
L 177.23846 186.802276 
L 153.462775 192.642787 
z
" clip-path="url(#p14422a368f)" style="fill: #1f77b4; stroke: #000000"/>
    <path d="M 103.174778 94.331148 
L 121.056415 92.508285 
L 114.677281 88.698442 
z
" clip-path="url(#p14422a368f)" style="fill: #1f77b4; stroke: #000000"/>
    <path d="M 83.805037 102.716784 
L 78.959854 113.013669 
L 93.807292 103.317433 
z
" clip-path="url(#p14422a368f)" style="fill: #1f77b4; stroke: #000000"/>
    <path d="M 129.214986 190.859684 
L 149.515927 193.318402 
L 133.881541 190.841031 
z
" clip-path="url(#p14422a368f)" style="fill: #1f77b4; stroke: #000000"/>
    <path d="M 177.23846 186.802276 
L 149.515927 193.318402 
L 153.462775 192.642787 
z
" clip-path="url(#p14422a368f)" style="fill: #1f77b4; stroke: #000000"/>
    <path d="M 152.227161 124.526296 
L 154.022978 132.052352 
L 153.793748 111.591417 
z
" clip-path="url(#p14422a368f)" style="fill: #1f77b4; stroke: #000000"/>
    <path d="M 83.62348 148.751574 
L 71.509355 148.436327 
L 74.154244 152.104846 
z
" clip-path="url(#p14422a368f)" style="fill: #1f77b4; stroke: #000000"/>
    <path d="M 174.470405 176.374943 
L 180.078093 174.370973 
L 174.316385 187.739777 
z
" clip-path="url(#p14422a368f)" style="fill: #1f77b4; stroke: #000000"/>
    <path d="M 152.227161 124.526296 
L 151.998957 143.085003 
L 154.022978 132.052352 
z
" clip-path="url(#p14422a368f)" style="fill: #1f77b4; stroke: #000000"/>
    <path d="M 149.56808 177.168063 
L 155.867473 155.7286 
L 161.727265 161.755956 
z
" clip-path="url(#p14422a368f)" style="fill: #1f77b4; stroke: #000000"/>
    <path d="M 92.89908 98.321066 
L 103.174778 94.331148 
L 114.677281 88.698442 
z
" clip-path="url(#p14422a368f)" style="fill: #1f77b4; stroke: #000000"/>
    <path d="M 177.461714 171.680624 
L 180.078093 174.370973 
L 174.470405 176.374943 
z
" clip-path="url(#p14422a368f)" style="fill: #1f77b4; stroke: #000000"/>
    <path d="M 92.89908 98.321066 
L 83.805037 102.716784 
L 99.379684 96.189583 
z
" clip-path="url(#p14422a368f)" style="fill: #1f77b4; stroke: #000000"/>
    <path d="M 130.347945 93.008989 
L 121.056415 92.508285 
L 136.604943 96.796597 
z
" clip-path="url(#p14422a368f)" style="fill: #1f77b4; stroke: #000000"/>
    <path d="M 149.56808 177.168063 
L 161.727265 161.755956 
L 177.461714 171.680624 
z
" clip-path="url(#p14422a368f)" style="fill: #1f77b4; stroke: #000000"/>
    <path d="M 155.867473 155.7286 
L 141.672157 166.153918 
L 151.998957 143.085003 
z
" clip-path="url(#p14422a368f)" style="fill: #1f77b4; stroke: #000000"/>
    <path d="M 84.194584 152.579236 
L 89.685854 159.67737 
L 94.685686 161.304456 
z
" clip-path="url(#p14422a368f)" style="fill: #1f77b4; stroke: #000000"/>
    <path d="M 67.960078 135.83386 
L 79.255333 124.656528 
L 78.959854 113.013669 
z
" clip-path="url(#p14422a368f)" style="fill: #1f77b4; stroke: #000000"/>
    <path d="M 127.586764 180.882597 
L 129.214986 190.859684 
L 112.10495 187.45666 
z
" clip-path="url(#p14422a368f)" style="fill: #1f77b4; stroke: #000000"/>
    <path d="M 147.482415 193.334081 
L 149.515927 193.318402 
L 129.214986 190.859684 
z
" clip-path="url(#p14422a368f)" style="fill: #1f77b4; stroke: #000000"/>
    <path d="M 127.586764 180.882597 
L 112.10495 187.45666 
L 111.964505 176.094198 
z
" clip-path="url(#p14422a368f)" style="fill: #1f77b4; stroke: #000000"/>
    <path d="M 110.224483 166.014327 
L 111.964505 176.094198 
L 96.514436 171.358578 
z
" clip-path="url(#p14422a368f)" style="fill: #1f77b4; stroke: #000000"/>
    <path d="M 110.224483 166.014327 
L 96.514436 171.358578 
L 94.685686 161.304456 
z
" clip-path="url(#p14422a368f)" style="fill: #1f77b4; stroke: #000000"/>
    <path d="M 148.236966 104.567094 
L 136.604943 96.796597 
L 153.793748 111.591417 
z
" clip-path="url(#p14422a368f)" style="fill: #1f77b4; stroke: #000000"/>
    <path d="M 174.316385 187.739777 
L 153.518387 181.237012 
L 174.470405 176.374943 
z
" clip-path="url(#p14422a368f)" style="fill: #1f77b4; stroke: #000000"/>
    <path d="M 114.677281 88.698442 
L 121.056415 92.508285 
L 130.347945 93.008989 
z
" clip-path="url(#p14422a368f)" style="fill: #1f77b4; stroke: #000000"/>
    <path d="M 153.462775 192.642787 
L 149.515927 193.318402 
L 147.482415 193.334081 
z
" clip-path="url(#p14422a368f)" style="fill: #1f77b4; stroke: #000000"/>
    <path d="M 84.194584 152.579236 
L 74.154244 152.104846 
L 89.685854 159.67737 
z
" clip-path="url(#p14422a368f)" style="fill: #1f77b4; stroke: #000000"/>
    <path d="M 174.316385 187.739777 
L 153.462775 192.642787 
L 153.518387 181.237012 
z
" clip-path="url(#p14422a368f)" style="fill: #1f77b4; stroke: #000000"/>
    <path d="M 149.56808 177.168063 
L 177.461714 171.680624 
L 174.470405 176.374943 
z
" clip-path="url(#p14422a368f)" style="fill: #1f77b4; stroke: #000000"/>
    <path d="M 71.509355 148.436327 
L 79.255333 124.656528 
L 67.960078 135.83386 
z
" clip-path="url(#p14422a368f)" style="fill: #1f77b4; stroke: #000000"/>
    <path d="M 149.56808 177.168063 
L 141.672157 166.153918 
L 155.867473 155.7286 
z
" clip-path="url(#p14422a368f)" style="fill: #1f77b4; stroke: #000000"/>
    <path d="M 113.053796 86.990627 
L 92.89908 98.321066 
L 114.677281 88.698442 
z
" clip-path="url(#p14422a368f)" style="fill: #1f77b4; stroke: #000000"/>
    <path d="M 147.509577 181.922555 
L 147.482415 193.334081 
L 129.214986 190.859684 
z
" clip-path="url(#p14422a368f)" style="fill: #1f77b4; stroke: #000000"/>
    <path d="M 147.482415 193.334081 
L 153.518387 181.237012 
L 153.462775 192.642787 
z
" clip-path="url(#p14422a368f)" style="fill: #1f77b4; stroke: #000000"/>
    <path d="M 153.793748 111.591417 
L 154.022978 132.052352 
L 159.388298 121.836246 
z
" clip-path="url(#p14422a368f)" style="fill: #1f77b4; stroke: #000000"/>
    <path d="M 147.509577 181.922555 
L 129.214986 190.859684 
L 127.586764 180.882597 
z
" clip-path="url(#p14422a368f)" style="fill: #1f77b4; stroke: #000000"/>
    <path d="M 151.998957 143.085003 
L 141.671633 154.560118 
L 154.022978 132.052352 
z
" clip-path="url(#p14422a368f)" style="fill: #1f77b4; stroke: #000000"/>
    <path d="M 89.403582 89.014139 
L 92.89908 98.321066 
L 113.053796 86.990627 
z
" clip-path="url(#p14422a368f)" style="fill: #1f77b4; stroke: #000000"/>
    <path d="M 153.518387 181.237012 
L 149.56808 177.168063 
L 174.470405 176.374943 
z
" clip-path="url(#p14422a368f)" style="fill: #1f77b4; stroke: #000000"/>
    <path d="M 153.793748 111.591417 
L 159.388298 121.836246 
L 148.236966 104.567094 
z
" clip-path="url(#p14422a368f)" style="fill: #1f77b4; stroke: #000000"/>
    <path d="M 83.805037 102.716784 
L 92.89908 98.321066 
L 82.234248 90.475197 
z
" clip-path="url(#p14422a368f)" style="fill: #1f77b4; stroke: #000000"/>
    <path d="M 147.509577 181.922555 
L 153.518387 181.237012 
L 147.482415 193.334081 
z
" clip-path="url(#p14422a368f)" style="fill: #1f77b4; stroke: #000000"/>
    <path d="M 130.347945 93.008989 
L 113.053796 86.990627 
L 114.677281 88.698442 
z
" clip-path="url(#p14422a368f)" style="fill: #1f77b4; stroke: #000000"/>
    <path d="M 71.858714 151.029988 
L 74.154244 152.104846 
L 71.509355 148.436327 
z
" clip-path="url(#p14422a368f)" style="fill: #1f77b4; stroke: #000000"/>
    <path d="M 151.998957 143.085003 
L 141.672157 166.153918 
L 141.671633 154.560118 
z
" clip-path="url(#p14422a368f)" style="fill: #1f77b4; stroke: #000000"/>
    <path d="M 127.51889 169.37075 
L 127.586764 180.882597 
L 111.964505 176.094198 
z
" clip-path="url(#p14422a368f)" style="fill: #1f77b4; stroke: #000000"/>
    <path d="M 146.184056 103.326883 
L 136.604943 96.796597 
L 148.236966 104.567094 
z
" clip-path="url(#p14422a368f)" style="fill: #1f77b4; stroke: #000000"/>
    <path d="M 130.347945 93.008989 
L 136.604943 96.796597 
L 146.184056 103.326883 
z
" clip-path="url(#p14422a368f)" style="fill: #1f77b4; stroke: #000000"/>
    <path d="M 82.234248 90.475197 
L 92.89908 98.321066 
L 89.403582 89.014139 
z
" clip-path="url(#p14422a368f)" style="fill: #1f77b4; stroke: #000000"/>
    <path d="M 127.51889 169.37075 
L 111.964505 176.094198 
L 110.224483 166.014327 
z
" clip-path="url(#p14422a368f)" style="fill: #1f77b4; stroke: #000000"/>
    <path d="M 70.835167 125.027404 
L 78.959854 113.013669 
L 83.805037 102.716784 
z
" clip-path="url(#p14422a368f)" style="fill: #1f77b4; stroke: #000000"/>
    <path d="M 149.56808 177.168063 
L 153.518387 181.237012 
L 147.509577 181.922555 
z
" clip-path="url(#p14422a368f)" style="fill: #1f77b4; stroke: #000000"/>
    <path d="M 71.858714 151.029988 
L 89.685854 159.67737 
L 74.154244 152.104846 
z
" clip-path="url(#p14422a368f)" style="fill: #1f77b4; stroke: #000000"/>
    <path d="M 149.56808 177.168063 
L 147.509577 181.922555 
L 141.672157 166.153918 
z
" clip-path="url(#p14422a368f)" style="fill: #1f77b4; stroke: #000000"/>
    <path d="M 67.960078 135.83386 
L 78.959854 113.013669 
L 70.835167 125.027404 
z
" clip-path="url(#p14422a368f)" style="fill: #1f77b4; stroke: #000000"/>
    <path d="M 94.685686 161.304456 
L 105.310863 164.412744 
L 110.224483 166.014327 
z
" clip-path="url(#p14422a368f)" style="fill: #1f77b4; stroke: #000000"/>
    <path d="M 147.509577 181.922555 
L 127.586764 180.882597 
L 127.51889 169.37075 
z
" clip-path="url(#p14422a368f)" style="fill: #1f77b4; stroke: #000000"/>
    <path d="M 94.685686 161.304456 
L 89.685854 159.67737 
L 105.310863 164.412744 
z
" clip-path="url(#p14422a368f)" style="fill: #1f77b4; stroke: #000000"/>
    <path d="M 147.509577 181.922555 
L 127.51889 169.37075 
L 141.672157 166.153918 
z
" clip-path="url(#p14422a368f)" style="fill: #1f77b4; stroke: #000000"/>
    <path d="M 130.347945 93.008989 
L 128.233952 91.729328 
L 113.053796 86.990627 
z
" clip-path="url(#p14422a368f)" style="fill: #1f77b4; stroke: #000000"/>
    <path d="M 113.053796 86.990627 
L 108.087392 78.799366 
L 89.403582 89.014139 
z
" clip-path="url(#p14422a368f)" style="fill: #1f77b4; stroke: #000000"/>
    <path d="M 71.509355 148.436327 
L 67.041431 142.99101 
L 71.858714 151.029988 
z
" clip-path="url(#p14422a368f)" style="fill: #1f77b4; stroke: #000000"/>
    <path d="M 67.960078 135.83386 
L 67.041431 142.99101 
L 71.509355 148.436327 
z
" clip-path="url(#p14422a368f)" style="fill: #1f77b4; stroke: #000000"/>
    <path d="M 154.022978 132.052352 
L 143.666939 143.436716 
L 159.388298 121.836246 
z
" clip-path="url(#p14422a368f)" style="fill: #1f77b4; stroke: #000000"/>
    <path d="M 148.236966 104.567094 
L 159.388298 121.836246 
L 154.140299 108.510711 
z
" clip-path="url(#p14422a368f)" style="fill: #1f77b4; stroke: #000000"/>
    <path d="M 146.184056 103.326883 
L 128.233952 91.729328 
L 130.347945 93.008989 
z
" clip-path="url(#p14422a368f)" style="fill: #1f77b4; stroke: #000000"/>
    <path d="M 82.234248 90.475197 
L 89.403582 89.014139 
L 78.056422 77.415354 
z
" clip-path="url(#p14422a368f)" style="fill: #1f77b4; stroke: #000000"/>
    <path d="M 148.236966 104.567094 
L 154.140299 108.510711 
L 146.184056 103.326883 
z
" clip-path="url(#p14422a368f)" style="fill: #1f77b4; stroke: #000000"/>
    <path d="M 78.056422 77.415354 
L 89.403582 89.014139 
L 90.795116 75.786547 
z
" clip-path="url(#p14422a368f)" style="fill: #1f77b4; stroke: #000000"/>
    <path d="M 154.022978 132.052352 
L 141.671633 154.560118 
L 143.666939 143.436716 
z
" clip-path="url(#p14422a368f)" style="fill: #1f77b4; stroke: #000000"/>
    <path d="M 70.835167 125.027404 
L 83.805037 102.716784 
L 79.782762 108.640786 
z
" clip-path="url(#p14422a368f)" style="fill: #1f77b4; stroke: #000000"/>
    <path d="M 82.234248 90.475197 
L 79.484185 96.698588 
L 83.805037 102.716784 
z
" clip-path="url(#p14422a368f)" style="fill: #1f77b4; stroke: #000000"/>
    <path d="M 82.95175 159.421007 
L 89.685854 159.67737 
L 71.858714 151.029988 
z
" clip-path="url(#p14422a368f)" style="fill: #1f77b4; stroke: #000000"/>
    <path d="M 89.403582 89.014139 
L 108.087392 78.799366 
L 90.795116 75.786547 
z
" clip-path="url(#p14422a368f)" style="fill: #1f77b4; stroke: #000000"/>
    <path d="M 83.805037 102.716784 
L 79.484185 96.698588 
L 79.782762 108.640786 
z
" clip-path="url(#p14422a368f)" style="fill: #1f77b4; stroke: #000000"/>
    <path d="M 110.224483 166.014327 
L 121.087467 166.279979 
L 127.51889 169.37075 
z
" clip-path="url(#p14422a368f)" style="fill: #1f77b4; stroke: #000000"/>
    <path d="M 128.233952 91.729328 
L 122.31647 84.385304 
L 113.053796 86.990627 
z
" clip-path="url(#p14422a368f)" style="fill: #1f77b4; stroke: #000000"/>
    <path d="M 70.835167 125.027404 
L 70.0631 128.469073 
L 67.960078 135.83386 
z
" clip-path="url(#p14422a368f)" style="fill: #1f77b4; stroke: #000000"/>
    <path d="M 82.95175 159.421007 
L 105.310863 164.412744 
L 89.685854 159.67737 
z
" clip-path="url(#p14422a368f)" style="fill: #1f77b4; stroke: #000000"/>
    <path d="M 123.719789 164.151098 
L 141.672157 166.153918 
L 127.51889 169.37075 
z
" clip-path="url(#p14422a368f)" style="fill: #1f77b4; stroke: #000000"/>
    <path d="M 71.858714 151.029988 
L 67.041431 142.99101 
L 82.95175 159.421007 
z
" clip-path="url(#p14422a368f)" style="fill: #1f77b4; stroke: #000000"/>
    <path d="M 123.719789 164.151098 
L 141.671633 154.560118 
L 141.672157 166.153918 
z
" clip-path="url(#p14422a368f)" style="fill: #1f77b4; stroke: #000000"/>
    <path d="M 110.224483 166.014327 
L 105.310863 164.412744 
L 121.087467 166.279979 
z
" clip-path="url(#p14422a368f)" style="fill: #1f77b4; stroke: #000000"/>
    <path d="M 78.056422 77.415354 
L 90.795116 75.786547 
L 85.750324 75.025309 
z
" clip-path="url(#p14422a368f)" style="fill: #1f77b4; stroke: #000000"/>
    <path d="M 113.053796 86.990627 
L 122.31647 84.385304 
L 108.087392 78.799366 
z
" clip-path="url(#p14422a368f)" style="fill: #1f77b4; stroke: #000000"/>
    <path d="M 67.960078 135.83386 
L 70.0631 128.469073 
L 67.041431 142.99101 
z
" clip-path="url(#p14422a368f)" style="fill: #1f77b4; stroke: #000000"/>
    <path d="M 73.259141 119.85844 
L 70.835167 125.027404 
L 79.782762 108.640786 
z
" clip-path="url(#p14422a368f)" style="fill: #1f77b4; stroke: #000000"/>
    <path d="M 159.388298 121.836246 
L 143.666939 143.436716 
L 155.920315 127.931497 
z
" clip-path="url(#p14422a368f)" style="fill: #1f77b4; stroke: #000000"/>
    <path d="M 146.184056 103.326883 
L 136.780078 102.169859 
L 128.233952 91.729328 
z
" clip-path="url(#p14422a368f)" style="fill: #1f77b4; stroke: #000000"/>
    <path d="M 146.184056 103.326883 
L 154.140299 108.510711 
L 136.780078 102.169859 
z
" clip-path="url(#p14422a368f)" style="fill: #1f77b4; stroke: #000000"/>
    <path d="M 78.056422 77.415354 
L 75.814959 87.208672 
L 82.234248 90.475197 
z
" clip-path="url(#p14422a368f)" style="fill: #1f77b4; stroke: #000000"/>
    <path d="M 70.835167 125.027404 
L 73.259141 119.85844 
L 70.0631 128.469073 
z
" clip-path="url(#p14422a368f)" style="fill: #1f77b4; stroke: #000000"/>
    <path d="M 101.500497 79.32531 
L 90.795116 75.786547 
L 108.087392 78.799366 
z
" clip-path="url(#p14422a368f)" style="fill: #1f77b4; stroke: #000000"/>
    <path d="M 154.140299 108.510711 
L 159.388298 121.836246 
L 147.724341 120.817581 
z
" clip-path="url(#p14422a368f)" style="fill: #1f77b4; stroke: #000000"/>
    <path d="M 79.782762 108.640786 
L 77.00401 115.030926 
L 73.259141 119.85844 
z
" clip-path="url(#p14422a368f)" style="fill: #1f77b4; stroke: #000000"/>
    <path d="M 77.00401 115.030926 
L 79.782762 108.640786 
L 79.484185 96.698588 
z
" clip-path="url(#p14422a368f)" style="fill: #1f77b4; stroke: #000000"/>
    <path d="M 141.671633 154.560118 
L 123.719789 164.151098 
L 143.666939 143.436716 
z
" clip-path="url(#p14422a368f)" style="fill: #1f77b4; stroke: #000000"/>
    <path d="M 85.750324 75.025309 
L 90.795116 75.786547 
L 101.500497 79.32531 
z
" clip-path="url(#p14422a368f)" style="fill: #1f77b4; stroke: #000000"/>
    <path d="M 82.234248 90.475197 
L 75.814959 87.208672 
L 79.484185 96.698588 
z
" clip-path="url(#p14422a368f)" style="fill: #1f77b4; stroke: #000000"/>
    <path d="M 159.388298 121.836246 
L 155.920315 127.931497 
L 149.728847 127.383227 
z
" clip-path="url(#p14422a368f)" style="fill: #1f77b4; stroke: #000000"/>
    <path d="M 98.680614 164.197973 
L 105.310863 164.412744 
L 82.95175 159.421007 
z
" clip-path="url(#p14422a368f)" style="fill: #1f77b4; stroke: #000000"/>
    <path d="M 121.087467 166.279979 
L 123.719789 164.151098 
L 127.51889 169.37075 
z
" clip-path="url(#p14422a368f)" style="fill: #1f77b4; stroke: #000000"/>
    <path d="M 78.056422 77.415354 
L 85.750324 75.025309 
L 75.814959 87.208672 
z
" clip-path="url(#p14422a368f)" style="fill: #1f77b4; stroke: #000000"/>
    <path d="M 143.666939 143.436716 
L 149.699996 136.317629 
L 155.920315 127.931497 
z
" clip-path="url(#p14422a368f)" style="fill: #1f77b4; stroke: #000000"/>
    <path d="M 98.680614 164.197973 
L 121.087467 166.279979 
L 105.310863 164.412744 
z
" clip-path="url(#p14422a368f)" style="fill: #1f77b4; stroke: #000000"/>
    <path d="M 122.31647 84.385304 
L 128.233952 91.729328 
L 136.780078 102.169859 
z
" clip-path="url(#p14422a368f)" style="fill: #1f77b4; stroke: #000000"/>
    <path d="M 82.95175 159.421007 
L 67.041431 142.99101 
L 76.014924 156.206028 
z
" clip-path="url(#p14422a368f)" style="fill: #1f77b4; stroke: #000000"/>
    <path d="M 71.995153 152.054139 
L 67.041431 142.99101 
L 70.0631 128.469073 
z
" clip-path="url(#p14422a368f)" style="fill: #1f77b4; stroke: #000000"/>
    <path d="M 77.00401 115.030926 
L 79.484185 96.698588 
L 76.68952 103.022912 
z
" clip-path="url(#p14422a368f)" style="fill: #1f77b4; stroke: #000000"/>
    <path d="M 147.724341 120.817581 
L 159.388298 121.836246 
L 149.728847 127.383227 
z
" clip-path="url(#p14422a368f)" style="fill: #1f77b4; stroke: #000000"/>
    <path d="M 152.399416 134.119751 
L 155.920315 127.931497 
L 149.699996 136.317629 
z
" clip-path="url(#p14422a368f)" style="fill: #1f77b4; stroke: #000000"/>
    <path d="M 117.430331 83.674359 
L 108.087392 78.799366 
L 122.31647 84.385304 
z
" clip-path="url(#p14422a368f)" style="fill: #1f77b4; stroke: #000000"/>
    <path d="M 154.140299 108.510711 
L 137.628006 105.926123 
L 136.780078 102.169859 
z
" clip-path="url(#p14422a368f)" style="fill: #1f77b4; stroke: #000000"/>
    <path d="M 101.500497 79.32531 
L 108.087392 78.799366 
L 117.430331 83.674359 
z
" clip-path="url(#p14422a368f)" style="fill: #1f77b4; stroke: #000000"/>
    <path d="M 155.920315 127.931497 
L 152.399416 134.119751 
L 149.728847 127.383227 
z
" clip-path="url(#p14422a368f)" style="fill: #1f77b4; stroke: #000000"/>
    <path d="M 123.719789 164.151098 
L 121.087467 166.279979 
L 117.836458 166.180849 
z
" clip-path="url(#p14422a368f)" style="fill: #1f77b4; stroke: #000000"/>
    <path d="M 117.836458 166.180849 
L 121.087467 166.279979 
L 98.680614 164.197973 
z
" clip-path="url(#p14422a368f)" style="fill: #1f77b4; stroke: #000000"/>
    <path d="M 76.68952 103.022912 
L 79.484185 96.698588 
L 75.814959 87.208672 
z
" clip-path="url(#p14422a368f)" style="fill: #1f77b4; stroke: #000000"/>
    <path d="M 143.666939 143.436716 
L 123.719789 164.151098 
L 128.9875 153.947364 
z
" clip-path="url(#p14422a368f)" style="fill: #1f77b4; stroke: #000000"/>
    <path d="M 154.140299 108.510711 
L 147.724341 120.817581 
L 137.628006 105.926123 
z
" clip-path="url(#p14422a368f)" style="fill: #1f77b4; stroke: #000000"/>
    <path d="M 73.259141 119.85844 
L 78.699916 126.550871 
L 70.0631 128.469073 
z
" clip-path="url(#p14422a368f)" style="fill: #1f77b4; stroke: #000000"/>
    <path d="M 67.041431 142.99101 
L 71.995153 152.054139 
L 76.014924 156.206028 
z
" clip-path="url(#p14422a368f)" style="fill: #1f77b4; stroke: #000000"/>
    <path d="M 82.95175 159.421007 
L 91.928721 163.979262 
L 98.680614 164.197973 
z
" clip-path="url(#p14422a368f)" style="fill: #1f77b4; stroke: #000000"/>
    <path d="M 77.00401 115.030926 
L 78.699916 126.550871 
L 73.259141 119.85844 
z
" clip-path="url(#p14422a368f)" style="fill: #1f77b4; stroke: #000000"/>
    <path d="M 75.814959 87.208672 
L 85.750324 75.025309 
L 75.05492 90.529393 
z
" clip-path="url(#p14422a368f)" style="fill: #1f77b4; stroke: #000000"/>
    <path d="M 152.399416 134.119751 
L 149.699996 136.317629 
L 146.573026 136.081524 
z
" clip-path="url(#p14422a368f)" style="fill: #1f77b4; stroke: #000000"/>
    <path d="M 143.666939 143.436716 
L 130.948261 142.615791 
L 149.699996 136.317629 
z
" clip-path="url(#p14422a368f)" style="fill: #1f77b4; stroke: #000000"/>
    <path d="M 82.95175 159.421007 
L 76.014924 156.206028 
L 91.928721 163.979262 
z
" clip-path="url(#p14422a368f)" style="fill: #1f77b4; stroke: #000000"/>
    <path d="M 122.31647 84.385304 
L 136.780078 102.169859 
L 133.578081 98.744831 
z
" clip-path="url(#p14422a368f)" style="fill: #1f77b4; stroke: #000000"/>
    <path d="M 71.995153 152.054139 
L 70.0631 128.469073 
L 71.654127 140.148381 
z
" clip-path="url(#p14422a368f)" style="fill: #1f77b4; stroke: #000000"/>
    <path d="M 85.750324 75.025309 
L 101.500497 79.32531 
L 88.150606 88.103414 
z
" clip-path="url(#p14422a368f)" style="fill: #1f77b4; stroke: #000000"/>
    <path d="M 149.728847 127.383227 
L 152.399416 134.119751 
L 146.573026 136.081524 
z
" clip-path="url(#p14422a368f)" style="fill: #1f77b4; stroke: #000000"/>
    <path d="M 76.68952 103.022912 
L 75.814959 87.208672 
L 75.05492 90.529393 
z
" clip-path="url(#p14422a368f)" style="fill: #1f77b4; stroke: #000000"/>
    <path d="M 147.724341 120.817581 
L 149.728847 127.383227 
L 146.573026 136.081524 
z
" clip-path="url(#p14422a368f)" style="fill: #1f77b4; stroke: #000000"/>
    <path d="M 128.9875 153.947364 
L 130.948261 142.615791 
L 143.666939 143.436716 
z
" clip-path="url(#p14422a368f)" style="fill: #1f77b4; stroke: #000000"/>
    <path d="M 122.31647 84.385304 
L 129.519958 91.549006 
L 117.430331 83.674359 
z
" clip-path="url(#p14422a368f)" style="fill: #1f77b4; stroke: #000000"/>
    <path d="M 76.68952 103.022912 
L 81.796644 111.728683 
L 77.00401 115.030926 
z
" clip-path="url(#p14422a368f)" style="fill: #1f77b4; stroke: #000000"/>
    <path d="M 129.519958 91.549006 
L 122.31647 84.385304 
L 133.578081 98.744831 
z
" clip-path="url(#p14422a368f)" style="fill: #1f77b4; stroke: #000000"/>
    <path d="M 136.780078 102.169859 
L 137.628006 105.926123 
L 133.578081 98.744831 
z
" clip-path="url(#p14422a368f)" style="fill: #1f77b4; stroke: #000000"/>
    <path d="M 85.750324 75.025309 
L 88.150606 88.103414 
L 75.05492 90.529393 
z
" clip-path="url(#p14422a368f)" style="fill: #1f77b4; stroke: #000000"/>
    <path d="M 130.948261 142.615791 
L 146.573026 136.081524 
L 149.699996 136.317629 
z
" clip-path="url(#p14422a368f)" style="fill: #1f77b4; stroke: #000000"/>
    <path d="M 73.670643 155.119523 
L 76.014924 156.206028 
L 71.995153 152.054139 
z
" clip-path="url(#p14422a368f)" style="fill: #1f77b4; stroke: #000000"/>
    <path d="M 75.450316 135.32557 
L 71.654127 140.148381 
L 70.0631 128.469073 
z
" clip-path="url(#p14422a368f)" style="fill: #1f77b4; stroke: #000000"/>
    <path d="M 98.680614 164.197973 
L 107.903244 165.877964 
L 117.836458 166.180849 
z
" clip-path="url(#p14422a368f)" style="fill: #1f77b4; stroke: #000000"/>
    <path d="M 78.699916 126.550871 
L 75.450316 135.32557 
L 70.0631 128.469073 
z
" clip-path="url(#p14422a368f)" style="fill: #1f77b4; stroke: #000000"/>
    <path d="M 110.555366 163.708783 
L 123.719789 164.151098 
L 117.836458 166.180849 
z
" clip-path="url(#p14422a368f)" style="fill: #1f77b4; stroke: #000000"/>
    <path d="M 130.948261 142.615791 
L 147.724341 120.817581 
L 146.573026 136.081524 
z
" clip-path="url(#p14422a368f)" style="fill: #1f77b4; stroke: #000000"/>
    <path d="M 73.670643 155.119523 
L 91.928721 163.979262 
L 76.014924 156.206028 
z
" clip-path="url(#p14422a368f)" style="fill: #1f77b4; stroke: #000000"/>
    <path d="M 77.00401 115.030926 
L 81.796644 111.728683 
L 78.699916 126.550871 
z
" clip-path="url(#p14422a368f)" style="fill: #1f77b4; stroke: #000000"/>
    <path d="M 101.500497 79.32531 
L 117.430331 83.674359 
L 104.291596 96.668203 
z
" clip-path="url(#p14422a368f)" style="fill: #1f77b4; stroke: #000000"/>
    <path d="M 110.555366 163.708783 
L 128.9875 153.947364 
L 123.719789 164.151098 
z
" clip-path="url(#p14422a368f)" style="fill: #1f77b4; stroke: #000000"/>
    <path d="M 98.680614 164.197973 
L 91.928721 163.979262 
L 107.903244 165.877964 
z
" clip-path="url(#p14422a368f)" style="fill: #1f77b4; stroke: #000000"/>
    <path d="M 133.578081 98.744831 
L 137.628006 105.926123 
L 127.169543 110.119715 
z
" clip-path="url(#p14422a368f)" style="fill: #1f77b4; stroke: #000000"/>
    <path d="M 71.995153 152.054139 
L 72.194693 144.116535 
L 73.670643 155.119523 
z
" clip-path="url(#p14422a368f)" style="fill: #1f77b4; stroke: #000000"/>
    <path d="M 129.519958 91.549006 
L 133.578081 98.744831 
L 127.169543 110.119715 
z
" clip-path="url(#p14422a368f)" style="fill: #1f77b4; stroke: #000000"/>
    <path d="M 71.654127 140.148381 
L 72.194693 144.116535 
L 71.995153 152.054139 
z
" clip-path="url(#p14422a368f)" style="fill: #1f77b4; stroke: #000000"/>
    <path d="M 137.628006 105.926123 
L 147.724341 120.817581 
L 128.861556 129.982783 
z
" clip-path="url(#p14422a368f)" style="fill: #1f77b4; stroke: #000000"/>
    <path d="M 75.05492 90.529393 
L 79.791009 100.843486 
L 76.68952 103.022912 
z
" clip-path="url(#p14422a368f)" style="fill: #1f77b4; stroke: #000000"/>
    <path d="M 117.430331 83.674359 
L 129.519958 91.549006 
L 104.291596 96.668203 
z
" clip-path="url(#p14422a368f)" style="fill: #1f77b4; stroke: #000000"/>
    <path d="M 101.500497 79.32531 
L 104.291596 96.668203 
L 88.150606 88.103414 
z
" clip-path="url(#p14422a368f)" style="fill: #1f77b4; stroke: #000000"/>
    <path d="M 128.861556 129.982783 
L 147.724341 120.817581 
L 130.948261 142.615791 
z
" clip-path="url(#p14422a368f)" style="fill: #1f77b4; stroke: #000000"/>
    <path d="M 127.169543 110.119715 
L 137.628006 105.926123 
L 120.679714 118.554975 
z
" clip-path="url(#p14422a368f)" style="fill: #1f77b4; stroke: #000000"/>
    <path d="M 85.051805 163.756501 
L 91.928721 163.979262 
L 73.670643 155.119523 
z
" clip-path="url(#p14422a368f)" style="fill: #1f77b4; stroke: #000000"/>
    <path d="M 71.654127 140.148381 
L 75.450316 135.32557 
L 72.194693 144.116535 
z
" clip-path="url(#p14422a368f)" style="fill: #1f77b4; stroke: #000000"/>
    <path d="M 107.903244 165.877964 
L 110.555366 163.708783 
L 117.836458 166.180849 
z
" clip-path="url(#p14422a368f)" style="fill: #1f77b4; stroke: #000000"/>
    <path d="M 76.68952 103.022912 
L 79.791009 100.843486 
L 81.796644 111.728683 
z
" clip-path="url(#p14422a368f)" style="fill: #1f77b4; stroke: #000000"/>
    <path d="M 128.9875 153.947364 
L 110.555366 163.708783 
L 130.948261 142.615791 
z
" clip-path="url(#p14422a368f)" style="fill: #1f77b4; stroke: #000000"/>
    <path d="M 116.59933 114.358116 
L 129.519958 91.549006 
L 127.169543 110.119715 
z
" clip-path="url(#p14422a368f)" style="fill: #1f77b4; stroke: #000000"/>
    <path d="M 137.628006 105.926123 
L 128.861556 129.982783 
L 120.679714 118.554975 
z
" clip-path="url(#p14422a368f)" style="fill: #1f77b4; stroke: #000000"/>
    <path d="M 75.05492 90.529393 
L 88.150606 88.103414 
L 79.791009 100.843486 
z
" clip-path="url(#p14422a368f)" style="fill: #1f77b4; stroke: #000000"/>
    <path d="M 85.051805 163.756501 
L 107.903244 165.877964 
L 91.928721 163.979262 
z
" clip-path="url(#p14422a368f)" style="fill: #1f77b4; stroke: #000000"/>
    <path d="M 78.699916 126.550871 
L 83.276599 131.63987 
L 75.450316 135.32557 
z
" clip-path="url(#p14422a368f)" style="fill: #1f77b4; stroke: #000000"/>
    <path d="M 108.361453 99.844312 
L 129.519958 91.549006 
L 116.59933 114.358116 
z
" clip-path="url(#p14422a368f)" style="fill: #1f77b4; stroke: #000000"/>
    <path d="M 81.796644 111.728683 
L 97.829448 116.324272 
L 78.699916 126.550871 
z
" clip-path="url(#p14422a368f)" style="fill: #1f77b4; stroke: #000000"/>
    <path d="M 127.169543 110.119715 
L 120.679714 118.554975 
L 116.59933 114.358116 
z
" clip-path="url(#p14422a368f)" style="fill: #1f77b4; stroke: #000000"/>
    <path d="M 104.291596 96.668203 
L 129.519958 91.549006 
L 108.361453 99.844312 
z
" clip-path="url(#p14422a368f)" style="fill: #1f77b4; stroke: #000000"/>
    <path d="M 82.028648 154.027249 
L 73.670643 155.119523 
L 72.194693 144.116535 
z
" clip-path="url(#p14422a368f)" style="fill: #1f77b4; stroke: #000000"/>
    <path d="M 78.699916 126.550871 
L 97.829448 116.324272 
L 83.276599 131.63987 
z
" clip-path="url(#p14422a368f)" style="fill: #1f77b4; stroke: #000000"/>
    <path d="M 87.911172 136.793239 
L 72.194693 144.116535 
L 75.450316 135.32557 
z
" clip-path="url(#p14422a368f)" style="fill: #1f77b4; stroke: #000000"/>
    <path d="M 82.028648 154.027249 
L 85.051805 163.756501 
L 73.670643 155.119523 
z
" clip-path="url(#p14422a368f)" style="fill: #1f77b4; stroke: #000000"/>
    <path d="M 130.948261 142.615791 
L 113.79178 152.704302 
L 128.861556 129.982783 
z
" clip-path="url(#p14422a368f)" style="fill: #1f77b4; stroke: #000000"/>
    <path d="M 110.555366 163.708783 
L 107.903244 165.877964 
L 105.64351 164.812762 
z
" clip-path="url(#p14422a368f)" style="fill: #1f77b4; stroke: #000000"/>
    <path d="M 100.97831 101.377716 
L 88.150606 88.103414 
L 104.291596 96.668203 
z
" clip-path="url(#p14422a368f)" style="fill: #1f77b4; stroke: #000000"/>
    <path d="M 105.64351 164.812762 
L 107.903244 165.877964 
L 85.051805 163.756501 
z
" clip-path="url(#p14422a368f)" style="fill: #1f77b4; stroke: #000000"/>
    <path d="M 100.97831 101.377716 
L 97.829448 116.324272 
L 81.796644 111.728683 
z
" clip-path="url(#p14422a368f)" style="fill: #1f77b4; stroke: #000000"/>
    <path d="M 130.948261 142.615791 
L 110.555366 163.708783 
L 113.79178 152.704302 
z
" clip-path="url(#p14422a368f)" style="fill: #1f77b4; stroke: #000000"/>
    <path d="M 100.97831 101.377716 
L 81.796644 111.728683 
L 79.791009 100.843486 
z
" clip-path="url(#p14422a368f)" style="fill: #1f77b4; stroke: #000000"/>
    <path d="M 97.829448 116.324272 
L 108.361453 99.844312 
L 116.59933 114.358116 
z
" clip-path="url(#p14422a368f)" style="fill: #1f77b4; stroke: #000000"/>
    <path d="M 79.791009 100.843486 
L 88.150606 88.103414 
L 100.97831 101.377716 
z
" clip-path="url(#p14422a368f)" style="fill: #1f77b4; stroke: #000000"/>
    <path d="M 83.276599 131.63987 
L 87.911172 136.793239 
L 75.450316 135.32557 
z
" clip-path="url(#p14422a368f)" style="fill: #1f77b4; stroke: #000000"/>
    <path d="M 120.679714 118.554975 
L 91.249771 130.960823 
L 116.59933 114.358116 
z
" clip-path="url(#p14422a368f)" style="fill: #1f77b4; stroke: #000000"/>
    <path d="M 104.291596 96.668203 
L 108.361453 99.844312 
L 100.97831 101.377716 
z
" clip-path="url(#p14422a368f)" style="fill: #1f77b4; stroke: #000000"/>
    <path d="M 91.249771 130.960823 
L 97.829448 116.324272 
L 116.59933 114.358116 
z
" clip-path="url(#p14422a368f)" style="fill: #1f77b4; stroke: #000000"/>
    <path d="M 100.97831 101.377716 
L 108.361453 99.844312 
L 97.829448 116.324272 
z
" clip-path="url(#p14422a368f)" style="fill: #1f77b4; stroke: #000000"/>
    <path d="M 97.829448 116.324272 
L 91.249771 130.960823 
L 83.276599 131.63987 
z
" clip-path="url(#p14422a368f)" style="fill: #1f77b4; stroke: #000000"/>
    <path d="M 120.679714 118.554975 
L 128.861556 129.982783 
L 107.495582 136.727465 
z
" clip-path="url(#p14422a368f)" style="fill: #1f77b4; stroke: #000000"/>
    <path d="M 105.64351 164.812762 
L 113.79178 152.704302 
L 110.555366 163.708783 
z
" clip-path="url(#p14422a368f)" style="fill: #1f77b4; stroke: #000000"/>
    <path d="M 87.911172 136.793239 
L 82.028648 154.027249 
L 72.194693 144.116535 
z
" clip-path="url(#p14422a368f)" style="fill: #1f77b4; stroke: #000000"/>
    <path d="M 83.276599 131.63987 
L 91.249771 130.960823 
L 87.911172 136.793239 
z
" clip-path="url(#p14422a368f)" style="fill: #1f77b4; stroke: #000000"/>
    <path d="M 100.974762 156.614347 
L 105.64351 164.812762 
L 85.051805 163.756501 
z
" clip-path="url(#p14422a368f)" style="fill: #1f77b4; stroke: #000000"/>
    <path d="M 107.495582 136.727465 
L 91.249771 130.960823 
L 120.679714 118.554975 
z
" clip-path="url(#p14422a368f)" style="fill: #1f77b4; stroke: #000000"/>
    <path d="M 128.861556 129.982783 
L 113.79178 152.704302 
L 110.244357 139.559207 
z
" clip-path="url(#p14422a368f)" style="fill: #1f77b4; stroke: #000000"/>
    <path d="M 107.495582 136.727465 
L 128.861556 129.982783 
L 110.244357 139.559207 
z
" clip-path="url(#p14422a368f)" style="fill: #1f77b4; stroke: #000000"/>
    <path d="M 100.974762 156.614347 
L 113.79178 152.704302 
L 105.64351 164.812762 
z
" clip-path="url(#p14422a368f)" style="fill: #1f77b4; stroke: #000000"/>
    <path d="M 100.974762 156.614347 
L 85.051805 163.756501 
L 82.028648 154.027249 
z
" clip-path="url(#p14422a368f)" style="fill: #1f77b4; stroke: #000000"/>
    <path d="M 87.911172 136.793239 
L 91.249771 130.960823 
L 105.283107 140.642402 
z
" clip-path="url(#p14422a368f)" style="fill: #1f77b4; stroke: #000000"/>
    <path d="M 105.283107 140.642402 
L 91.249771 130.960823 
L 107.495582 136.727465 
z
" clip-path="url(#p14422a368f)" style="fill: #1f77b4; stroke: #000000"/>
    <path d="M 105.283107 140.642402 
L 82.028648 154.027249 
L 87.911172 136.793239 
z
" clip-path="url(#p14422a368f)" style="fill: #1f77b4; stroke: #000000"/>
    <path d="M 100.974762 156.614347 
L 110.244357 139.559207 
L 113.79178 152.704302 
z
" clip-path="url(#p14422a368f)" style="fill: #1f77b4; stroke: #000000"/>
    <path d="M 105.283107 140.642402 
L 100.974762 156.614347 
L 82.028648 154.027249 
z
" clip-path="url(#p14422a368f)" style="fill: #1f77b4; stroke: #000000"/>
    <path d="M 107.495582 136.727465 
L 110.244357 139.559207 
L 105.283107 140.642402 
z
" clip-path="url(#p14422a368f)" style="fill: #1f77b4; stroke: #000000"/>
    <path d="M 105.283107 140.642402 
L 110.244357 139.559207 
L 100.974762 156.614347 
z
" clip-path="url(#p14422a368f)" style="fill: #1f77b4; stroke: #000000"/>
   </g>
  </g>
 </g>
 <defs>
  <clipPath id="p14422a368f">
   <rect x="7.2" y="7.2" width="262.08" height="262.08"/>
  </clipPath>
 </defs>
</svg>