<?xml version="1.0" encoding="utf-8" standalone="no"?>
<!DOCTYPE svg PUBLIC "-//W3C//DTD SVG 1.1//EN"
  "http://www.w3.org/Graphics/SVG/1.1/DTD/svg11.dtd">
<svg xmlns:xlink="http://www.w3.org/1999/xlink" width="348.48pt" height="276.48pt" viewBox="0 0 348.48 276.48" xmlns="http://www.w3.org/2000/svg" version="1.1">
 <metadata>
  <rdf:RDF xmlns:dc="http://purl.org/dc/elements/1.1/" xmlns:cc="http://creativecommons.org/ns#" xmlns:rdf="http://www.w3.org/1999/02/22-rdf-syntax-ns#">
   <cc:Work>
    <dc:type rdf:resource="http://purl.org/dc/dcmitype/StillImage"/>
    <dc:date>2022-09-09T21:25:57.091100</dc:date>
    <dc:format>image/svg+xml</dc:format>
    <dc:creator>
     <cc:Agent>
      <dc:title>Matplotlib v3.5.3, https://matplotlib.org/</dc:title>
     </cc:Agent>
    </dc:creator>
   </cc:Work>
  </rdf:RDF>
 </metadata>
 <defs>
  <style type="text/css">*{stroke-linejoin: round; stroke-linecap: butt}</style>
 </defs>
 <g id="figure_1">
  <g id="patch_1">
   <path d="M 0 276.48 
L 348.48 276.48 
L 348.48 0 
L 0 0 
z
" style="fill: #ffffff"/>
  </g>
  <g id="axes_1">
   <g id="patch_2">
    <path d="M 49.3975 234.5525 
L 341.28 234.5525 
L 341.28 11.759062 
L 49.3975 11.759062 
z
" style="fill: #ffffff"/>
   </g>
   <g id="matplotlib.axis_1">
    <g id="xtick_1">
     <g id="line2d_1">
      <defs>
       <path id="me3a54fae96" d="M 0 0 
L 0 -6 
" style="stroke: #000000; stroke-width: 2"/>
      </defs>
      <g>
       <use xlink:href="#me3a54fae96" x="62.664886" y="234.5525" style="fill: #ffffff; stroke: #000000; stroke-width: 2"/>
      </g>
     </g>
     <g id="line2d_2">
      <defs>
       <path id="m0b3abf9923" d="M 0 0 
L 0 6 
" style="stroke: #000000; stroke-width: 2"/>
      </defs>
      <g>
       <use xlink:href="#m0b3abf9923" x="62.664886" y="11.759062" style="fill: #ffffff; stroke: #000000; stroke-width: 2"/>
      </g>
     </g>
     <g id="text_1">
      <!-- 0 -->
      <g transform="translate(58.847386 247.170625)scale(0.12 -0.12)">
       <defs>
        <path id="DejaVuSans-30" d="M 2034 4250 
Q 1547 4250 1301 3770 
Q 1056 3291 1056 2328 
Q 1056 1369 1301 889 
Q 1547 409 2034 409 
Q 2525 409 2770 889 
Q 3016 1369 3016 2328 
Q 3016 3291 2770 3770 
Q 2525 4250 2034 4250 
z
M 2034 4750 
Q 2819 4750 3233 4129 
Q 3647 3509 3647 2328 
Q 3647 1150 3233 529 
Q 2819 -91 2034 -91 
Q 1250 -91 836 529 
Q 422 1150 422 2328 
Q 422 3509 836 4129 
Q 1250 4750 2034 4750 
z
" transform="scale(0.015625)"/>
       </defs>
       <use xlink:href="#DejaVuSans-30"/>
      </g>
     </g>
    </g>
    <g id="xtick_2">
     <g id="line2d_3">
      <g>
       <use xlink:href="#me3a54fae96" x="118.882625" y="234.5525" style="fill: #ffffff; stroke: #000000; stroke-width: 2"/>
      </g>
     </g>
     <g id="line2d_4">
      <g>
       <use xlink:href="#m0b3abf9923" x="118.882625" y="11.759062" style="fill: #ffffff; stroke: #000000; stroke-width: 2"/>
      </g>
     </g>
     <g id="text_2">
      <!-- 500 -->
      <g transform="translate(107.430125 247.170625)scale(0.12 -0.12)">
       <defs>
        <path id="DejaVuSans-35" d="M 691 4666 
L 3169 4666 
L 3169 4134 
L 1269 4134 
L 1269 2991 
Q 1406 3038 1543 3061 
Q 1681 3084 1819 3084 
Q 2600 3084 3056 2656 
Q 3513 2228 3513 1497 
Q 3513 744 3044 326 
Q 2575 -91 1722 -91 
Q 1428 -91 1123 -41 
Q 819 9 494 109 
L 494 744 
Q 775 591 1075 516 
Q 1375 441 1709 441 
Q 2250 441 2565 725 
Q 2881 1009 2881 1497 
Q 2881 1984 2565 2268 
Q 2250 2553 1709 2553 
Q 1456 2553 1204 2497 
Q 953 2441 691 2322 
L 691 4666 
z
" transform="scale(0.015625)"/>
       </defs>
       <use xlink:href="#DejaVuSans-35"/>
       <use xlink:href="#DejaVuSans-30" x="63.623047"/>
       <use xlink:href="#DejaVuSans-30" x="127.246094"/>
      </g>
     </g>
    </g>
    <g id="xtick_3">
     <g id="line2d_5">
      <g>
       <use xlink:href="#me3a54fae96" x="175.100364" y="234.5525" style="fill: #ffffff; stroke: #000000; stroke-width: 2"/>
      </g>
     </g>
     <g id="line2d_6">
      <g>
       <use xlink:href="#m0b3abf9923" x="175.100364" y="11.759062" style="fill: #ffffff; stroke: #000000; stroke-width: 2"/>
      </g>
     </g>
     <g id="text_3">
      <!-- 1000 -->
      <g transform="translate(159.830364 247.170625)scale(0.12 -0.12)">
       <defs>
        <path id="DejaVuSans-31" d="M 794 531 
L 1825 531 
L 1825 4091 
L 703 3866 
L 703 4441 
L 1819 4666 
L 2450 4666 
L 2450 531 
L 3481 531 
L 3481 0 
L 794 0 
L 794 531 
z
" transform="scale(0.015625)"/>
       </defs>
       <use xlink:href="#DejaVuSans-31"/>
       <use xlink:href="#DejaVuSans-30" x="63.623047"/>
       <use xlink:href="#DejaVuSans-30" x="127.246094"/>
       <use xlink:href="#DejaVuSans-30" x="190.869141"/>
      </g>
     </g>
    </g>
    <g id="xtick_4">
     <g id="line2d_7">
      <g>
       <use xlink:href="#me3a54fae96" x="231.318103" y="234.5525" style="fill: #ffffff; stroke: #000000; stroke-width: 2"/>
      </g>
     </g>
     <g id="line2d_8">
      <g>
       <use xlink:href="#m0b3abf9923" x="231.318103" y="11.759062" style="fill: #ffffff; stroke: #000000; stroke-width: 2"/>
      </g>
     </g>
     <g id="text_4">
      <!-- 1500 -->
      <g transform="translate(216.048103 247.170625)scale(0.12 -0.12)">
       <use xlink:href="#DejaVuSans-31"/>
       <use xlink:href="#DejaVuSans-35" x="63.623047"/>
       <use xlink:href="#DejaVuSans-30" x="127.246094"/>
       <use xlink:href="#DejaVuSans-30" x="190.869141"/>
      </g>
     </g>
    </g>
    <g id="xtick_5">
     <g id="line2d_9">
      <g>
       <use xlink:href="#me3a54fae96" x="287.535842" y="234.5525" style="fill: #ffffff; stroke: #000000; stroke-width: 2"/>
      </g>
     </g>
     <g id="line2d_10">
      <g>
       <use xlink:href="#m0b3abf9923" x="287.535842" y="11.759062" style="fill: #ffffff; stroke: #000000; stroke-width: 2"/>
      </g>
     </g>
     <g id="text_5">
      <!-- 2000 -->
      <g transform="translate(272.265842 247.170625)scale(0.12 -0.12)">
       <defs>
        <path id="DejaVuSans-32" d="M 1228 531 
L 3431 531 
L 3431 0 
L 469 0 
L 469 531 
Q 828 903 1448 1529 
Q 2069 2156 2228 2338 
Q 2531 2678 2651 2914 
Q 2772 3150 2772 3378 
Q 2772 3750 2511 3984 
Q 2250 4219 1831 4219 
Q 1534 4219 1204 4116 
Q 875 4013 500 3803 
L 500 4441 
Q 881 4594 1212 4672 
Q 1544 4750 1819 4750 
Q 2544 4750 2975 4387 
Q 3406 4025 3406 3419 
Q 3406 3131 3298 2873 
Q 3191 2616 2906 2266 
Q 2828 2175 2409 1742 
Q 1991 1309 1228 531 
z
" transform="scale(0.015625)"/>
       </defs>
       <use xlink:href="#DejaVuSans-32"/>
       <use xlink:href="#DejaVuSans-30" x="63.623047"/>
       <use xlink:href="#DejaVuSans-30" x="127.246094"/>
       <use xlink:href="#DejaVuSans-30" x="190.869141"/>
      </g>
     </g>
    </g>
    <g id="text_6">
     <!-- Position of slice along given axis -->
     <g transform="translate(98.045 266.784375)scale(0.12 -0.12)">
      <defs>
       <path id="DejaVuSans-50" d="M 1259 4147 
L 1259 2394 
L 2053 2394 
Q 2494 2394 2734 2622 
Q 2975 2850 2975 3272 
Q 2975 3691 2734 3919 
Q 2494 4147 2053 4147 
L 1259 4147 
z
M 628 4666 
L 2053 4666 
Q 2838 4666 3239 4311 
Q 3641 3956 3641 3272 
Q 3641 2581 3239 2228 
Q 2838 1875 2053 1875 
L 1259 1875 
L 1259 0 
L 628 0 
L 628 4666 
z
" transform="scale(0.015625)"/>
       <path id="DejaVuSans-6f" d="M 1959 3097 
Q 1497 3097 1228 2736 
Q 959 2375 959 1747 
Q 959 1119 1226 758 
Q 1494 397 1959 397 
Q 2419 397 2687 759 
Q 2956 1122 2956 1747 
Q 2956 2369 2687 2733 
Q 2419 3097 1959 3097 
z
M 1959 3584 
Q 2709 3584 3137 3096 
Q 3566 2609 3566 1747 
Q 3566 888 3137 398 
Q 2709 -91 1959 -91 
Q 1206 -91 779 398 
Q 353 888 353 1747 
Q 353 2609 779 3096 
Q 1206 3584 1959 3584 
z
" transform="scale(0.015625)"/>
       <path id="DejaVuSans-73" d="M 2834 3397 
L 2834 2853 
Q 2591 2978 2328 3040 
Q 2066 3103 1784 3103 
Q 1356 3103 1142 2972 
Q 928 2841 928 2578 
Q 928 2378 1081 2264 
Q 1234 2150 1697 2047 
L 1894 2003 
Q 2506 1872 2764 1633 
Q 3022 1394 3022 966 
Q 3022 478 2636 193 
Q 2250 -91 1575 -91 
Q 1294 -91 989 -36 
Q 684 19 347 128 
L 347 722 
Q 666 556 975 473 
Q 1284 391 1588 391 
Q 1994 391 2212 530 
Q 2431 669 2431 922 
Q 2431 1156 2273 1281 
Q 2116 1406 1581 1522 
L 1381 1569 
Q 847 1681 609 1914 
Q 372 2147 372 2553 
Q 372 3047 722 3315 
Q 1072 3584 1716 3584 
Q 2034 3584 2315 3537 
Q 2597 3491 2834 3397 
z
" transform="scale(0.015625)"/>
       <path id="DejaVuSans-69" d="M 603 3500 
L 1178 3500 
L 1178 0 
L 603 0 
L 603 3500 
z
M 603 4863 
L 1178 4863 
L 1178 4134 
L 603 4134 
L 603 4863 
z
" transform="scale(0.015625)"/>
       <path id="DejaVuSans-74" d="M 1172 4494 
L 1172 3500 
L 2356 3500 
L 2356 3053 
L 1172 3053 
L 1172 1153 
Q 1172 725 1289 603 
Q 1406 481 1766 481 
L 2356 481 
L 2356 0 
L 1766 0 
Q 1100 0 847 248 
Q 594 497 594 1153 
L 594 3053 
L 172 3053 
L 172 3500 
L 594 3500 
L 594 4494 
L 1172 4494 
z
" transform="scale(0.015625)"/>
       <path id="DejaVuSans-6e" d="M 3513 2113 
L 3513 0 
L 2938 0 
L 2938 2094 
Q 2938 2591 2744 2837 
Q 2550 3084 2163 3084 
Q 1697 3084 1428 2787 
Q 1159 2491 1159 1978 
L 1159 0 
L 581 0 
L 581 3500 
L 1159 3500 
L 1159 2956 
Q 1366 3272 1645 3428 
Q 1925 3584 2291 3584 
Q 2894 3584 3203 3211 
Q 3513 2838 3513 2113 
z
" transform="scale(0.015625)"/>
       <path id="DejaVuSans-20" transform="scale(0.015625)"/>
       <path id="DejaVuSans-66" d="M 2375 4863 
L 2375 4384 
L 1825 4384 
Q 1516 4384 1395 4259 
Q 1275 4134 1275 3809 
L 1275 3500 
L 2222 3500 
L 2222 3053 
L 1275 3053 
L 1275 0 
L 697 0 
L 697 3053 
L 147 3053 
L 147 3500 
L 697 3500 
L 697 3744 
Q 697 4328 969 4595 
Q 1241 4863 1831 4863 
L 2375 4863 
z
" transform="scale(0.015625)"/>
       <path id="DejaVuSans-6c" d="M 603 4863 
L 1178 4863 
L 1178 0 
L 603 0 
L 603 4863 
z
" transform="scale(0.015625)"/>
       <path id="DejaVuSans-63" d="M 3122 3366 
L 3122 2828 
Q 2878 2963 2633 3030 
Q 2388 3097 2138 3097 
Q 1578 3097 1268 2742 
Q 959 2388 959 1747 
Q 959 1106 1268 751 
Q 1578 397 2138 397 
Q 2388 397 2633 464 
Q 2878 531 3122 666 
L 3122 134 
Q 2881 22 2623 -34 
Q 2366 -91 2075 -91 
Q 1284 -91 818 406 
Q 353 903 353 1747 
Q 353 2603 823 3093 
Q 1294 3584 2113 3584 
Q 2378 3584 2631 3529 
Q 2884 3475 3122 3366 
z
" transform="scale(0.015625)"/>
       <path id="DejaVuSans-65" d="M 3597 1894 
L 3597 1613 
L 953 1613 
Q 991 1019 1311 708 
Q 1631 397 2203 397 
Q 2534 397 2845 478 
Q 3156 559 3463 722 
L 3463 178 
Q 3153 47 2828 -22 
Q 2503 -91 2169 -91 
Q 1331 -91 842 396 
Q 353 884 353 1716 
Q 353 2575 817 3079 
Q 1281 3584 2069 3584 
Q 2775 3584 3186 3129 
Q 3597 2675 3597 1894 
z
M 3022 2063 
Q 3016 2534 2758 2815 
Q 2500 3097 2075 3097 
Q 1594 3097 1305 2825 
Q 1016 2553 972 2059 
L 3022 2063 
z
" transform="scale(0.015625)"/>
       <path id="DejaVuSans-61" d="M 2194 1759 
Q 1497 1759 1228 1600 
Q 959 1441 959 1056 
Q 959 750 1161 570 
Q 1363 391 1709 391 
Q 2188 391 2477 730 
Q 2766 1069 2766 1631 
L 2766 1759 
L 2194 1759 
z
M 3341 1997 
L 3341 0 
L 2766 0 
L 2766 531 
Q 2569 213 2275 61 
Q 1981 -91 1556 -91 
Q 1019 -91 701 211 
Q 384 513 384 1019 
Q 384 1609 779 1909 
Q 1175 2209 1959 2209 
L 2766 2209 
L 2766 2266 
Q 2766 2663 2505 2880 
Q 2244 3097 1772 3097 
Q 1472 3097 1187 3025 
Q 903 2953 641 2809 
L 641 3341 
Q 956 3463 1253 3523 
Q 1550 3584 1831 3584 
Q 2591 3584 2966 3190 
Q 3341 2797 3341 1997 
z
" transform="scale(0.015625)"/>
       <path id="DejaVuSans-67" d="M 2906 1791 
Q 2906 2416 2648 2759 
Q 2391 3103 1925 3103 
Q 1463 3103 1205 2759 
Q 947 2416 947 1791 
Q 947 1169 1205 825 
Q 1463 481 1925 481 
Q 2391 481 2648 825 
Q 2906 1169 2906 1791 
z
M 3481 434 
Q 3481 -459 3084 -895 
Q 2688 -1331 1869 -1331 
Q 1566 -1331 1297 -1286 
Q 1028 -1241 775 -1147 
L 775 -588 
Q 1028 -725 1275 -790 
Q 1522 -856 1778 -856 
Q 2344 -856 2625 -561 
Q 2906 -266 2906 331 
L 2906 616 
Q 2728 306 2450 153 
Q 2172 0 1784 0 
Q 1141 0 747 490 
Q 353 981 353 1791 
Q 353 2603 747 3093 
Q 1141 3584 1784 3584 
Q 2172 3584 2450 3431 
Q 2728 3278 2906 2969 
L 2906 3500 
L 3481 3500 
L 3481 434 
z
" transform="scale(0.015625)"/>
       <path id="DejaVuSans-76" d="M 191 3500 
L 800 3500 
L 1894 563 
L 2988 3500 
L 3597 3500 
L 2284 0 
L 1503 0 
L 191 3500 
z
" transform="scale(0.015625)"/>
       <path id="DejaVuSans-78" d="M 3513 3500 
L 2247 1797 
L 3578 0 
L 2900 0 
L 1881 1375 
L 863 0 
L 184 0 
L 1544 1831 
L 300 3500 
L 978 3500 
L 1906 2253 
L 2834 3500 
L 3513 3500 
z
" transform="scale(0.015625)"/>
      </defs>
      <use xlink:href="#DejaVuSans-50"/>
      <use xlink:href="#DejaVuSans-6f" x="56.677734"/>
      <use xlink:href="#DejaVuSans-73" x="117.859375"/>
      <use xlink:href="#DejaVuSans-69" x="169.958984"/>
      <use xlink:href="#DejaVuSans-74" x="197.742188"/>
      <use xlink:href="#DejaVuSans-69" x="236.951172"/>
      <use xlink:href="#DejaVuSans-6f" x="264.734375"/>
      <use xlink:href="#DejaVuSans-6e" x="325.916016"/>
      <use xlink:href="#DejaVuSans-20" x="389.294922"/>
      <use xlink:href="#DejaVuSans-6f" x="421.082031"/>
      <use xlink:href="#DejaVuSans-66" x="482.263672"/>
      <use xlink:href="#DejaVuSans-20" x="517.46875"/>
      <use xlink:href="#DejaVuSans-73" x="549.255859"/>
      <use xlink:href="#DejaVuSans-6c" x="601.355469"/>
      <use xlink:href="#DejaVuSans-69" x="629.138672"/>
      <use xlink:href="#DejaVuSans-63" x="656.921875"/>
      <use xlink:href="#DejaVuSans-65" x="711.902344"/>
      <use xlink:href="#DejaVuSans-20" x="773.425781"/>
      <use xlink:href="#DejaVuSans-61" x="805.212891"/>
      <use xlink:href="#DejaVuSans-6c" x="866.492188"/>
      <use xlink:href="#DejaVuSans-6f" x="894.275391"/>
      <use xlink:href="#DejaVuSans-6e" x="955.457031"/>
      <use xlink:href="#DejaVuSans-67" x="1018.835938"/>
      <use xlink:href="#DejaVuSans-20" x="1082.3125"/>
      <use xlink:href="#DejaVuSans-67" x="1114.099609"/>
      <use xlink:href="#DejaVuSans-69" x="1177.576172"/>
      <use xlink:href="#DejaVuSans-76" x="1205.359375"/>
      <use xlink:href="#DejaVuSans-65" x="1264.539062"/>
      <use xlink:href="#DejaVuSans-6e" x="1326.0625"/>
      <use xlink:href="#DejaVuSans-20" x="1389.441406"/>
      <use xlink:href="#DejaVuSans-61" x="1421.228516"/>
      <use xlink:href="#DejaVuSans-78" x="1482.507812"/>
      <use xlink:href="#DejaVuSans-69" x="1541.6875"/>
      <use xlink:href="#DejaVuSans-73" x="1569.470703"/>
     </g>
    </g>
   </g>
   <g id="matplotlib.axis_2">
    <g id="ytick_1">
     <g id="line2d_11">
      <defs>
       <path id="m1e971d0762" d="M 0 0 
L 6 0 
" style="stroke: #000000; stroke-width: 2"/>
      </defs>
      <g>
       <use xlink:href="#m1e971d0762" x="49.3975" y="234.5525" style="fill: #ffffff; stroke: #000000; stroke-width: 2"/>
      </g>
     </g>
     <g id="line2d_12">
      <defs>
       <path id="m43bc1c333b" d="M 0 0 
L -6 0 
" style="stroke: #000000; stroke-width: 2"/>
      </defs>
      <g>
       <use xlink:href="#m43bc1c333b" x="341.28" y="234.5525" style="fill: #ffffff; stroke: #000000; stroke-width: 2"/>
      </g>
     </g>
     <g id="text_7">
      <!-- 0.0 -->
      <g transform="translate(26.81375 239.111562)scale(0.12 -0.12)">
       <defs>
        <path id="DejaVuSans-2e" d="M 684 794 
L 1344 794 
L 1344 0 
L 684 0 
L 684 794 
z
" transform="scale(0.015625)"/>
       </defs>
       <use xlink:href="#DejaVuSans-30"/>
       <use xlink:href="#DejaVuSans-2e" x="63.623047"/>
       <use xlink:href="#DejaVuSans-30" x="95.410156"/>
      </g>
     </g>
    </g>
    <g id="ytick_2">
     <g id="line2d_13">
      <g>
       <use xlink:href="#m1e971d0762" x="49.3975" y="189.993812" style="fill: #ffffff; stroke: #000000; stroke-width: 2"/>
      </g>
     </g>
     <g id="line2d_14">
      <g>
       <use xlink:href="#m43bc1c333b" x="341.28" y="189.993812" style="fill: #ffffff; stroke: #000000; stroke-width: 2"/>
      </g>
     </g>
     <g id="text_8">
      <!-- 0.2 -->
      <g transform="translate(26.81375 194.552875)scale(0.12 -0.12)">
       <use xlink:href="#DejaVuSans-30"/>
       <use xlink:href="#DejaVuSans-2e" x="63.623047"/>
       <use xlink:href="#DejaVuSans-32" x="95.410156"/>
      </g>
     </g>
    </g>
    <g id="ytick_3">
     <g id="line2d_15">
      <g>
       <use xlink:href="#m1e971d0762" x="49.3975" y="145.435125" style="fill: #ffffff; stroke: #000000; stroke-width: 2"/>
      </g>
     </g>
     <g id="line2d_16">
      <g>
       <use xlink:href="#m43bc1c333b" x="341.28" y="145.435125" style="fill: #ffffff; stroke: #000000; stroke-width: 2"/>
      </g>
     </g>
     <g id="text_9">
      <!-- 0.4 -->
      <g transform="translate(26.81375 149.994187)scale(0.12 -0.12)">
       <defs>
        <path id="DejaVuSans-34" d="M 2419 4116 
L 825 1625 
L 2419 1625 
L 2419 4116 
z
M 2253 4666 
L 3047 4666 
L 3047 1625 
L 3713 1625 
L 3713 1100 
L 3047 1100 
L 3047 0 
L 2419 0 
L 2419 1100 
L 313 1100 
L 313 1709 
L 2253 4666 
z
" transform="scale(0.015625)"/>
       </defs>
       <use xlink:href="#DejaVuSans-30"/>
       <use xlink:href="#DejaVuSans-2e" x="63.623047"/>
       <use xlink:href="#DejaVuSans-34" x="95.410156"/>
      </g>
     </g>
    </g>
    <g id="ytick_4">
     <g id="line2d_17">
      <g>
       <use xlink:href="#m1e971d0762" x="49.3975" y="100.876437" style="fill: #ffffff; stroke: #000000; stroke-width: 2"/>
      </g>
     </g>
     <g id="line2d_18">
      <g>
       <use xlink:href="#m43bc1c333b" x="341.28" y="100.876437" style="fill: #ffffff; stroke: #000000; stroke-width: 2"/>
      </g>
     </g>
     <g id="text_10">
      <!-- 0.6 -->
      <g transform="translate(26.81375 105.4355)scale(0.12 -0.12)">
       <defs>
        <path id="DejaVuSans-36" d="M 2113 2584 
Q 1688 2584 1439 2293 
Q 1191 2003 1191 1497 
Q 1191 994 1439 701 
Q 1688 409 2113 409 
Q 2538 409 2786 701 
Q 3034 994 3034 1497 
Q 3034 2003 2786 2293 
Q 2538 2584 2113 2584 
z
M 3366 4563 
L 3366 3988 
Q 3128 4100 2886 4159 
Q 2644 4219 2406 4219 
Q 1781 4219 1451 3797 
Q 1122 3375 1075 2522 
Q 1259 2794 1537 2939 
Q 1816 3084 2150 3084 
Q 2853 3084 3261 2657 
Q 3669 2231 3669 1497 
Q 3669 778 3244 343 
Q 2819 -91 2113 -91 
Q 1303 -91 875 529 
Q 447 1150 447 2328 
Q 447 3434 972 4092 
Q 1497 4750 2381 4750 
Q 2619 4750 2861 4703 
Q 3103 4656 3366 4563 
z
" transform="scale(0.015625)"/>
       </defs>
       <use xlink:href="#DejaVuSans-30"/>
       <use xlink:href="#DejaVuSans-2e" x="63.623047"/>
       <use xlink:href="#DejaVuSans-36" x="95.410156"/>
      </g>
     </g>
    </g>
    <g id="ytick_5">
     <g id="line2d_19">
      <g>
       <use xlink:href="#m1e971d0762" x="49.3975" y="56.31775" style="fill: #ffffff; stroke: #000000; stroke-width: 2"/>
      </g>
     </g>
     <g id="line2d_20">
      <g>
       <use xlink:href="#m43bc1c333b" x="341.28" y="56.31775" style="fill: #ffffff; stroke: #000000; stroke-width: 2"/>
      </g>
     </g>
     <g id="text_11">
      <!-- 0.8 -->
      <g transform="translate(26.81375 60.876812)scale(0.12 -0.12)">
       <defs>
        <path id="DejaVuSans-38" d="M 2034 2216 
Q 1584 2216 1326 1975 
Q 1069 1734 1069 1313 
Q 1069 891 1326 650 
Q 1584 409 2034 409 
Q 2484 409 2743 651 
Q 3003 894 3003 1313 
Q 3003 1734 2745 1975 
Q 2488 2216 2034 2216 
z
M 1403 2484 
Q 997 2584 770 2862 
Q 544 3141 544 3541 
Q 544 4100 942 4425 
Q 1341 4750 2034 4750 
Q 2731 4750 3128 4425 
Q 3525 4100 3525 3541 
Q 3525 3141 3298 2862 
Q 3072 2584 2669 2484 
Q 3125 2378 3379 2068 
Q 3634 1759 3634 1313 
Q 3634 634 3220 271 
Q 2806 -91 2034 -91 
Q 1263 -91 848 271 
Q 434 634 434 1313 
Q 434 1759 690 2068 
Q 947 2378 1403 2484 
z
M 1172 3481 
Q 1172 3119 1398 2916 
Q 1625 2713 2034 2713 
Q 2441 2713 2670 2916 
Q 2900 3119 2900 3481 
Q 2900 3844 2670 4047 
Q 2441 4250 2034 4250 
Q 1625 4250 1398 4047 
Q 1172 3844 1172 3481 
z
" transform="scale(0.015625)"/>
       </defs>
       <use xlink:href="#DejaVuSans-30"/>
       <use xlink:href="#DejaVuSans-2e" x="63.623047"/>
       <use xlink:href="#DejaVuSans-38" x="95.410156"/>
      </g>
     </g>
    </g>
    <g id="ytick_6">
     <g id="line2d_21">
      <g>
       <use xlink:href="#m1e971d0762" x="49.3975" y="11.759062" style="fill: #ffffff; stroke: #000000; stroke-width: 2"/>
      </g>
     </g>
     <g id="line2d_22">
      <g>
       <use xlink:href="#m43bc1c333b" x="341.28" y="11.759062" style="fill: #ffffff; stroke: #000000; stroke-width: 2"/>
      </g>
     </g>
     <g id="text_12">
      <!-- 1.0 -->
      <g transform="translate(26.81375 16.318125)scale(0.12 -0.12)">
       <use xlink:href="#DejaVuSans-31"/>
       <use xlink:href="#DejaVuSans-2e" x="63.623047"/>
       <use xlink:href="#DejaVuSans-30" x="95.410156"/>
      </g>
     </g>
    </g>
    <g id="text_13">
     <!-- Porosity of slice -->
     <g transform="translate(16.318125 169.973594)rotate(-90)scale(0.12 -0.12)">
      <defs>
       <path id="DejaVuSans-72" d="M 2631 2963 
Q 2534 3019 2420 3045 
Q 2306 3072 2169 3072 
Q 1681 3072 1420 2755 
Q 1159 2438 1159 1844 
L 1159 0 
L 581 0 
L 581 3500 
L 1159 3500 
L 1159 2956 
Q 1341 3275 1631 3429 
Q 1922 3584 2338 3584 
Q 2397 3584 2469 3576 
Q 2541 3569 2628 3553 
L 2631 2963 
z
" transform="scale(0.015625)"/>
       <path id="DejaVuSans-79" d="M 2059 -325 
Q 1816 -950 1584 -1140 
Q 1353 -1331 966 -1331 
L 506 -1331 
L 506 -850 
L 844 -850 
Q 1081 -850 1212 -737 
Q 1344 -625 1503 -206 
L 1606 56 
L 191 3500 
L 800 3500 
L 1894 763 
L 2988 3500 
L 3597 3500 
L 2059 -325 
z
" transform="scale(0.015625)"/>
      </defs>
      <use xlink:href="#DejaVuSans-50"/>
      <use xlink:href="#DejaVuSans-6f" x="56.677734"/>
      <use xlink:href="#DejaVuSans-72" x="117.859375"/>
      <use xlink:href="#DejaVuSans-6f" x="156.722656"/>
      <use xlink:href="#DejaVuSans-73" x="217.904297"/>
      <use xlink:href="#DejaVuSans-69" x="270.003906"/>
      <use xlink:href="#DejaVuSans-74" x="297.787109"/>
      <use xlink:href="#DejaVuSans-79" x="336.996094"/>
      <use xlink:href="#DejaVuSans-20" x="396.175781"/>
      <use xlink:href="#DejaVuSans-6f" x="427.962891"/>
      <use xlink:href="#DejaVuSans-66" x="489.144531"/>
      <use xlink:href="#DejaVuSans-20" x="524.349609"/>
      <use xlink:href="#DejaVuSans-73" x="556.136719"/>
      <use xlink:href="#DejaVuSans-6c" x="608.236328"/>
      <use xlink:href="#DejaVuSans-69" x="636.019531"/>
      <use xlink:href="#DejaVuSans-63" x="663.802734"/>
      <use xlink:href="#DejaVuSans-65" x="718.783203"/>
     </g>
    </g>
   </g>
   <g id="line2d_23">
    <path d="M 62.664886 132.540955 
L 63.998292 132.676487 
L 66.665103 133.216762 
L 67.998509 132.505679 
L 68.665212 132.067519 
L 69.331915 131.772317 
L 71.332023 129.277031 
L 71.998726 128.707051 
L 72.665429 128.408137 
L 73.998835 129.19534 
L 74.665537 129.369862 
L 75.33224 129.145211 
L 75.998943 128.376574 
L 77.332349 127.344298 
L 77.999052 126.724189 
L 79.99916 123.517821 
L 80.665863 123.43613 
L 81.332566 123.690485 
L 81.999269 123.629217 
L 83.332674 123.883573 
L 83.999377 124.362579 
L 85.332783 126.070662 
L 85.999485 126.622076 
L 86.666188 126.991542 
L 87.332891 127.132644 
L 88.666297 126.906137 
L 89.333 126.371433 
L 89.999702 125.604652 
L 90.666405 124.431274 
L 91.333108 122.85501 
L 91.999811 121.867293 
L 92.666514 120.543528 
L 93.333217 119.581803 
L 93.999919 119.035959 
L 94.666622 118.77232 
L 96.000028 117.697342 
L 97.333434 117.051241 
L 98.666839 118.369436 
L 99.333542 118.77232 
L 100.000245 118.738901 
L 100.666948 119.165922 
L 101.333651 119.735902 
L 104.667165 123.690485 
L 105.333868 124.754324 
L 106.667273 127.212478 
L 107.333976 128.06095 
L 108.000679 128.668062 
L 109.334085 130.832872 
L 110.000787 131.267319 
L 111.334193 133.019961 
L 112.667599 133.758892 
L 113.334302 133.870289 
L 114.001004 133.781172 
L 115.33441 132.70805 
L 116.001113 131.846582 
L 117.334519 130.986971 
L 118.001221 130.76789 
L 120.668033 132.36272 
L 122.001438 133.424702 
L 122.668141 133.630786 
L 123.334844 134.05595 
L 124.001547 134.243468 
L 124.66825 133.838727 
L 125.334953 133.233471 
L 128.001764 128.597511 
L 128.668467 127.119648 
L 130.668575 121.746613 
L 131.335278 120.519392 
L 132.668684 118.638644 
L 133.335387 117.821735 
L 135.335495 116.63536 
L 136.668901 116.275177 
L 137.335604 116.2956 
L 138.669009 115.671778 
L 139.335712 115.768322 
L 140.002415 116.093229 
L 141.335821 116.27889 
L 142.669226 117.151498 
L 144.002632 116.52025 
L 147.336146 115.010824 
L 148.002849 114.841873 
L 148.669552 114.834446 
L 150.002957 114.381433 
L 150.66966 114.050956 
L 151.336363 113.486546 
L 152.003066 113.425278 
L 152.669769 113.959982 
L 153.336472 114.271893 
L 154.003174 114.830733 
L 154.669877 115.558525 
L 155.33658 116.453412 
L 156.003283 117.019679 
L 156.669986 117.006682 
L 158.003391 115.734903 
L 158.670094 115.118508 
L 159.336797 113.841159 
L 160.0035 112.946272 
L 160.670203 112.658497 
L 161.336906 112.55267 
L 162.670311 111.425707 
L 163.337014 110.586518 
L 164.003717 110.146501 
L 165.337123 110.64593 
L 166.670528 112.316881 
L 168.003934 115.070236 
L 169.33734 118.22462 
L 172.670854 124.99197 
L 173.337557 125.779174 
L 175.337665 127.641356 
L 176.004368 127.990399 
L 176.671071 128.020105 
L 177.337774 127.875289 
L 178.004476 127.50768 
L 179.337882 125.580516 
L 181.337991 123.259752 
L 182.004693 122.648926 
L 182.671396 121.629646 
L 183.338099 120.838729 
L 184.004802 120.744042 
L 184.671505 121.232331 
L 185.338208 121.869149 
L 186.671613 122.390857 
L 187.338316 122.420563 
L 188.005019 122.112365 
L 188.671722 122.18663 
L 190.005127 123.064807 
L 191.338533 122.803025 
L 192.671939 122.528246 
L 194.672047 122.374148 
L 195.33875 122.461408 
L 195.33875 122.461408 
" clip-path="url(#p8eac408022)" style="fill: none; stroke: #0000ff; stroke-opacity: 0.5; stroke-width: 2; stroke-linecap: square"/>
   </g>
   <g id="line2d_24">
    <path d="M 62.664886 110.82138 
L 63.996062 110.261611 
L 64.66165 109.810454 
L 65.327238 109.813239 
L 65.992826 110.005399 
L 66.658414 110.375793 
L 67.98959 110.97455 
L 69.320766 110.955056 
L 70.651942 109.880077 
L 71.983118 108.236976 
L 72.648706 107.771894 
L 73.314293 108.298244 
L 73.979881 109.696273 
L 75.976645 115.461053 
L 77.307821 118.905996 
L 77.973409 119.911352 
L 78.638997 120.632646 
L 79.970173 121.777247 
L 80.635761 122.949697 
L 81.301349 123.509466 
L 81.966937 123.411994 
L 83.298113 124.381145 
L 83.963701 125.002182 
L 84.629289 125.183202 
L 85.960464 126.918205 
L 86.626052 127.625575 
L 87.957228 128.140784 
L 88.622816 128.079516 
L 89.288404 127.826089 
L 89.953992 127.987614 
L 91.285168 127.374932 
L 92.616344 126.402996 
L 93.281932 126.182987 
L 93.94752 126.553381 
L 94.613108 126.233116 
L 95.278696 125.085729 
L 96.609872 121.49597 
L 97.275459 119.980975 
L 97.941047 119.758181 
L 98.606635 118.878147 
L 99.272223 118.259895 
L 99.937811 116.981618 
L 101.268987 115.399785 
L 101.934575 114.639502 
L 102.600163 114.53646 
L 103.265751 114.814952 
L 103.931339 115.397 
L 104.596927 115.692201 
L 105.262515 116.204626 
L 106.593691 116.842372 
L 107.259279 116.847942 
L 107.924867 117.421635 
L 108.590455 118.156853 
L 110.587218 117.917351 
L 111.252806 118.012038 
L 112.583982 118.880932 
L 113.24957 119.11765 
L 113.915158 118.424206 
L 114.580746 118.329518 
L 115.246334 117.519107 
L 115.911922 116.483118 
L 116.57751 114.976477 
L 117.243098 114.923564 
L 117.908686 115.770179 
L 119.239862 118.218122 
L 120.571038 119.229047 
L 121.236625 119.237402 
L 121.902213 118.808524 
L 122.567801 118.922706 
L 123.233389 118.853083 
L 123.898977 119.184488 
L 124.564565 120.086802 
L 125.230153 120.727333 
L 125.895741 121.735473 
L 126.561329 122.348155 
L 127.892505 122.980331 
L 129.223681 124.322662 
L 129.889269 124.779388 
L 131.220445 125.965763 
L 131.886033 126.0883 
L 132.551621 126.865292 
L 133.217208 127.015678 
L 133.882796 127.015678 
L 134.548384 128.227117 
L 135.213972 127.840013 
L 136.545148 125.367006 
L 137.210736 124.796098 
L 138.541912 122.726904 
L 139.2075 122.061308 
L 139.873088 122.286887 
L 140.538676 123.080588 
L 141.204264 123.509466 
L 141.869852 123.609723 
L 142.53544 123.217049 
L 143.201028 122.994256 
L 143.866616 122.643356 
L 144.532204 122.768678 
L 146.528967 121.468121 
L 147.194555 121.270392 
L 147.860143 121.596227 
L 148.525731 122.323091 
L 149.191319 123.222619 
L 150.522495 124.21962 
L 151.188083 124.314307 
L 151.853671 124.654067 
L 152.519259 124.562165 
L 153.184847 124.993827 
L 153.850435 125.224975 
L 154.516023 125.606509 
L 155.181611 126.336158 
L 156.512787 128.572447 
L 157.178375 129.020818 
L 157.843962 129.288171 
L 158.50955 129.402352 
L 159.840726 128.778531 
L 160.506314 127.881787 
L 163.168666 123.144642 
L 163.834254 122.545884 
L 164.499842 123.094513 
L 165.16543 123.462122 
L 165.831018 124.155567 
L 167.827782 127.653424 
L 168.49337 128.447125 
L 169.824545 130.246182 
L 170.490133 130.457836 
L 171.821309 130.638856 
L 173.152485 132.705265 
L 174.483661 136.203122 
L 175.149249 137.715332 
L 177.146013 141.327371 
L 177.811601 141.839796 
L 178.477189 141.85929 
L 179.142777 140.86229 
L 181.139541 136.498323 
L 181.805128 135.690697 
L 183.801892 132.087013 
L 185.798656 127.789885 
L 188.461008 124.762679 
L 189.792184 123.058309 
L 190.457772 122.632217 
L 191.12336 122.735259 
L 191.788948 122.593228 
L 193.120124 123.083373 
L 193.785711 123.052739 
L 194.451299 122.557024 
L 195.116887 121.65471 
L 197.113651 118.056596 
L 197.779239 117.279604 
L 198.444827 116.850727 
L 199.776003 115.619793 
L 200.441591 115.408139 
L 201.107179 115.917779 
L 201.772767 116.625149 
L 202.438355 117.739116 
L 205.100707 124.013536 
L 206.431882 126.163493 
L 209.759822 130.608222 
L 210.42541 131.268247 
L 211.090998 131.443697 
L 211.756586 131.399138 
L 212.422174 131.919918 
L 213.087762 131.67763 
L 213.75335 131.1847 
L 214.418938 131.012035 
L 215.084526 131.00368 
L 215.750114 131.145711 
L 216.415702 131.051024 
L 218.412465 129.875788 
L 219.078053 129.084872 
L 220.409229 126.993398 
L 221.074817 125.667777 
L 222.405993 122.300811 
L 225.733933 111.431277 
L 226.399521 110.442631 
L 227.065109 110.267181 
L 228.396285 112.082947 
L 229.061873 113.35844 
L 231.724224 122.807667 
L 232.389812 124.294813 
L 233.0554 125.236115 
L 233.720988 125.729045 
L 234.386576 126.389071 
L 235.052164 126.792884 
L 235.717752 127.358222 
L 237.714516 128.424846 
L 238.380104 128.377502 
L 240.376868 128.714478 
L 241.042456 129.14057 
L 242.373631 130.432772 
L 243.039219 130.190484 
L 243.704807 130.315805 
L 244.370395 130.207194 
L 245.035983 130.466191 
L 245.701571 130.443912 
L 246.367159 131.000895 
L 247.032747 130.619361 
L 247.698335 129.30488 
L 250.360687 122.426133 
L 251.026275 120.964051 
L 252.357451 118.816879 
L 253.023039 118.240401 
L 254.354214 118.26825 
L 255.019802 117.794814 
L 256.350978 117.808739 
L 257.016566 117.552526 
L 257.682154 117.92849 
L 258.347742 118.12065 
L 259.01333 118.003683 
L 261.010094 119.011823 
L 261.675682 119.156639 
L 261.675682 119.156639 
" clip-path="url(#p8eac408022)" style="fill: none; stroke: #ff0000; stroke-opacity: 0.5; stroke-width: 2; stroke-linecap: square"/>
   </g>
   <g id="line2d_25">
    <path d="M 62.664886 122.442842 
L 64.659982 123.118649 
L 65.990046 123.913279 
L 68.650173 126.338014 
L 69.315205 126.928417 
L 69.980237 126.289742 
L 70.645269 125.357723 
L 72.640365 123.493685 
L 73.305397 123.397141 
L 73.970429 123.471405 
L 74.635461 123.939272 
L 75.300492 124.704196 
L 75.965524 124.652211 
L 76.630556 124.254896 
L 77.295588 123.519677 
L 78.625652 121.804168 
L 79.955716 119.390572 
L 80.620748 118.970978 
L 81.28578 119.145499 
L 82.615843 118.859581 
L 83.280875 118.191201 
L 83.945907 118.031532 
L 84.610939 118.020393 
L 85.275971 118.948699 
L 85.941003 119.631932 
L 87.271067 119.453697 
L 87.936098 119.654211 
L 88.60113 119.58366 
L 89.266162 118.829875 
L 89.931194 118.577376 
L 90.596226 119.390572 
L 91.261258 120.02182 
L 91.92629 120.300312 
L 92.591322 120.255753 
L 93.921386 120.779318 
L 94.586417 121.120935 
L 95.251449 121.666778 
L 96.581513 124.191771 
L 97.246545 125.92956 
L 97.911577 127.336871 
L 98.576609 128.343155 
L 99.241641 129.122932 
L 100.571705 131.280315 
L 101.236736 131.328587 
L 101.901768 130.34087 
L 102.5668 129.004109 
L 103.231832 128.863006 
L 103.896864 127.704481 
L 105.226928 124.351439 
L 105.89196 123.148355 
L 107.887055 121.013251 
L 108.552087 120.634502 
L 109.217119 122.023248 
L 111.212215 127.188342 
L 111.877247 129.178631 
L 112.542279 131.867005 
L 113.207311 133.567661 
L 113.872343 134.340012 
L 114.537374 134.503394 
L 115.867438 133.214905 
L 117.197502 132.479687 
L 117.862534 132.431415 
L 118.527566 132.936413 
L 119.192598 133.656779 
L 119.85763 133.519389 
L 120.522661 132.940126 
L 121.187693 132.69134 
L 122.517757 132.631929 
L 123.182789 132.353437 
L 124.512853 131.387999 
L 125.842917 129.026388 
L 126.507949 128.001539 
L 127.17298 127.864149 
L 127.838012 128.257751 
L 128.503044 128.914992 
L 129.833108 131.258036 
L 130.49814 132.100938 
L 131.163172 132.635642 
L 131.828204 133.385713 
L 132.493236 133.886998 
L 133.158268 134.083799 
L 134.488331 135.791882 
L 135.153363 136.408278 
L 135.818395 136.512248 
L 136.483427 135.702765 
L 137.813491 132.873288 
L 139.143555 130.775317 
L 140.473618 127.645069 
L 141.13865 126.935843 
L 141.803682 126.568234 
L 142.468714 126.037243 
L 143.133746 124.800739 
L 143.798778 124.228903 
L 144.46381 124.191771 
L 145.128842 123.976404 
L 146.458906 125.027246 
L 149.784065 126.798454 
L 150.449097 127.567091 
L 151.779161 129.5351 
L 152.444193 131.172632 
L 153.774256 133.441412 
L 154.439288 134.217475 
L 155.10432 134.314019 
L 155.769352 134.031814 
L 157.764448 132.045239 
L 158.42948 131.001823 
L 159.759543 129.349439 
L 160.424575 129.09694 
L 161.089607 129.445983 
L 161.754639 130.255465 
L 163.084703 130.069804 
L 165.079799 130.34087 
L 165.744831 130.845868 
L 166.409862 130.946125 
L 167.074894 130.79017 
L 167.739926 129.980687 
L 169.06999 129.999253 
L 169.735022 129.624217 
L 170.400054 129.54624 
L 171.730118 128.710764 
L 172.39515 127.581944 
L 174.390245 123.378575 
L 175.720309 121.399426 
L 177.715405 119.825019 
L 178.380437 120.909281 
L 179.045469 121.663065 
L 181.040564 123.107509 
L 181.705596 122.892142 
L 183.700692 120.59737 
L 184.365724 119.438844 
L 186.360819 117.563666 
L 187.690883 116.965837 
L 188.355915 116.861867 
L 189.020947 117.359439 
L 189.685979 118.488259 
L 190.351011 119.223477 
L 191.016043 120.300312 
L 192.346106 123.400854 
L 193.011138 125.539671 
L 193.67617 126.987828 
L 194.341202 127.50768 
L 195.671266 127.626503 
L 196.336298 126.839299 
L 197.00133 125.027246 
L 197.666362 123.998683 
L 198.331394 123.434273 
L 198.996425 123.445413 
L 199.661457 123.178061 
L 200.326489 123.114936 
L 200.991521 123.207766 
L 202.321585 122.249755 
L 202.986617 121.399426 
L 204.316681 118.183774 
L 205.646744 115.194629 
L 206.311776 114.065809 
L 206.976808 113.527392 
L 207.64184 113.152356 
L 208.306872 114.04353 
L 208.971904 113.946986 
L 210.301968 112.677063 
L 211.632031 110.341445 
L 212.962095 108.696487 
L 213.627127 107.953842 
L 214.292159 107.601086 
L 215.622223 107.530535 
L 216.952287 106.056385 
L 218.947382 104.86444 
L 219.612414 105.076094 
L 220.942478 104.998116 
L 221.60751 104.689919 
L 222.272542 104.526537 
L 222.937574 104.708485 
L 223.602606 105.291461 
L 224.267638 105.310027 
L 224.932669 105.217196 
L 225.597701 105.488262 
L 226.262733 106.09723 
L 226.927765 106.487119 
L 227.592797 106.390575 
L 228.257829 106.416568 
L 228.922861 105.770467 
L 229.587893 104.894146 
L 230.252925 104.389147 
L 230.917957 104.667639 
L 231.582988 105.1058 
L 232.24802 105.217196 
L 232.913052 105.536534 
L 233.578084 106.230906 
L 234.243116 106.706199 
L 234.908148 106.743331 
L 236.903244 107.641932 
L 237.568276 107.612226 
L 238.898339 108.14693 
L 239.563371 108.83759 
L 240.228403 108.325165 
L 240.893435 108.13579 
L 241.558467 108.904428 
L 242.223499 110.664496 
L 242.888531 111.722765 
L 243.553563 111.915852 
L 244.883626 112.695629 
L 245.548658 113.475406 
L 246.21369 114.70077 
L 248.208786 119.520535 
L 249.53885 121.59994 
L 250.203882 122.260894 
L 250.868913 123.237472 
L 251.533945 124.447983 
L 252.198977 125.305738 
L 252.864009 126.880145 
L 253.529041 128.978116 
L 254.859105 132.156636 
L 255.524137 132.780458 
L 256.189169 133.014391 
L 256.854201 132.832443 
L 257.519232 132.802737 
L 258.184264 133.422845 
L 258.849296 134.533099 
L 260.17936 136.010963 
L 261.509424 137.45912 
L 262.174456 137.251179 
L 262.839488 136.152065 
L 263.50452 134.763319 
L 264.169551 133.950123 
L 266.164647 127.214335 
L 268.159743 121.618507 
L 270.81987 116.096943 
L 271.484902 115.766466 
L 272.814966 115.369151 
L 275.475094 111.741331 
L 276.140126 111.295744 
L 276.805157 110.664496 
L 277.470189 110.51968 
L 280.130317 108.406856 
L 281.460381 107.786747 
L 282.790445 106.646788 
L 283.455476 106.832449 
L 284.120508 107.23719 
L 284.78554 107.957556 
L 285.450572 109.000972 
L 286.115604 109.699058 
L 286.780636 111.09523 
L 287.445668 113.297172 
L 290.770827 126.144927 
L 292.765923 132.813877 
L 293.430955 134.139498 
L 294.095987 135.06409 
L 294.761019 135.301737 
L 295.426051 134.934128 
L 296.091083 134.7299 
L 297.421146 133.950123 
L 298.75121 132.561378 
L 299.416242 132.25318 
L 300.081274 132.078658 
L 300.746306 130.645354 
L 301.411338 129.494255 
L 302.07637 128.933558 
L 302.741402 128.926131 
L 303.406433 129.564806 
L 304.071465 130.827302 
L 304.736497 131.774174 
L 305.401529 132.353437 
L 306.066561 132.487113 
L 306.731593 132.201195 
L 307.396625 130.775317 
L 310.056752 126.208051 
L 310.721784 125.665921 
L 311.386816 125.283459 
L 312.051848 125.205481 
L 312.71688 125.328017 
L 314.046944 125.985258 
L 314.711976 126.059522 
L 316.042039 124.889857 
L 316.707071 124.715335 
L 318.702167 125.576803 
L 320.032231 127.541099 
L 320.697263 128.955837 
L 322.027327 133.556522 
L 322.692358 135.513391 
L 324.022422 138.309448 
L 324.687454 139.505106 
L 325.352486 140.010105 
L 328.012614 140.013818 
L 328.012614 140.013818 
" clip-path="url(#p8eac408022)" style="fill: none; stroke: #008000; stroke-opacity: 0.5; stroke-width: 2; stroke-linecap: square"/>
   </g>
   <g id="patch_3">
    <path d="M 49.3975 234.5525 
L 49.3975 11.759062 
" style="fill: none; stroke: #000000; stroke-width: 2; stroke-linejoin: miter; stroke-linecap: square"/>
   </g>
   <g id="patch_4">
    <path d="M 341.28 234.5525 
L 341.28 11.759062 
" style="fill: none; stroke: #000000; stroke-width: 2; stroke-linejoin: miter; stroke-linecap: square"/>
   </g>
   <g id="patch_5">
    <path d="M 49.3975 234.5525 
L 341.28 234.5525 
" style="fill: none; stroke: #000000; stroke-width: 2; stroke-linejoin: miter; stroke-linecap: square"/>
   </g>
   <g id="patch_6">
    <path d="M 49.3975 11.759062 
L 341.28 11.759062 
" style="fill: none; stroke: #000000; stroke-width: 2; stroke-linejoin: miter; stroke-linecap: square"/>
   </g>
   <g id="legend_1">
    <g id="line2d_26">
     <path d="M 245.26125 27.477188 
L 257.26125 27.477188 
L 269.26125 27.477188 
" style="fill: none; stroke: #0000ff; stroke-opacity: 0.5; stroke-width: 2; stroke-linecap: square"/>
    </g>
    <g id="text_14">
     <!-- yz-plane -->
     <g transform="translate(278.86125 31.677188)scale(0.12 -0.12)">
      <defs>
       <path id="DejaVuSans-7a" d="M 353 3500 
L 3084 3500 
L 3084 2975 
L 922 459 
L 3084 459 
L 3084 0 
L 275 0 
L 275 525 
L 2438 3041 
L 353 3041 
L 353 3500 
z
" transform="scale(0.015625)"/>
       <path id="DejaVuSans-2d" d="M 313 2009 
L 1997 2009 
L 1997 1497 
L 313 1497 
L 313 2009 
z
" transform="scale(0.015625)"/>
       <path id="DejaVuSans-70" d="M 1159 525 
L 1159 -1331 
L 581 -1331 
L 581 3500 
L 1159 3500 
L 1159 2969 
Q 1341 3281 1617 3432 
Q 1894 3584 2278 3584 
Q 2916 3584 3314 3078 
Q 3713 2572 3713 1747 
Q 3713 922 3314 415 
Q 2916 -91 2278 -91 
Q 1894 -91 1617 61 
Q 1341 213 1159 525 
z
M 3116 1747 
Q 3116 2381 2855 2742 
Q 2594 3103 2138 3103 
Q 1681 3103 1420 2742 
Q 1159 2381 1159 1747 
Q 1159 1113 1420 752 
Q 1681 391 2138 391 
Q 2594 391 2855 752 
Q 3116 1113 3116 1747 
z
" transform="scale(0.015625)"/>
      </defs>
      <use xlink:href="#DejaVuSans-79"/>
      <use xlink:href="#DejaVuSans-7a" x="59.179688"/>
      <use xlink:href="#DejaVuSans-2d" x="111.669922"/>
      <use xlink:href="#DejaVuSans-70" x="147.753906"/>
      <use xlink:href="#DejaVuSans-6c" x="211.230469"/>
      <use xlink:href="#DejaVuSans-61" x="239.013672"/>
      <use xlink:href="#DejaVuSans-6e" x="300.292969"/>
      <use xlink:href="#DejaVuSans-65" x="363.671875"/>
     </g>
    </g>
    <g id="line2d_27">
     <path d="M 245.26125 45.090938 
L 257.26125 45.090938 
L 269.26125 45.090938 
" style="fill: none; stroke: #ff0000; stroke-opacity: 0.5; stroke-width: 2; stroke-linecap: square"/>
    </g>
    <g id="text_15">
     <!-- xz-plane -->
     <g transform="translate(278.86125 49.290938)scale(0.12 -0.12)">
      <use xlink:href="#DejaVuSans-78"/>
      <use xlink:href="#DejaVuSans-7a" x="59.179688"/>
      <use xlink:href="#DejaVuSans-2d" x="111.669922"/>
      <use xlink:href="#DejaVuSans-70" x="147.753906"/>
      <use xlink:href="#DejaVuSans-6c" x="211.230469"/>
      <use xlink:href="#DejaVuSans-61" x="239.013672"/>
      <use xlink:href="#DejaVuSans-6e" x="300.292969"/>
      <use xlink:href="#DejaVuSans-65" x="363.671875"/>
     </g>
    </g>
    <g id="line2d_28">
     <path d="M 245.26125 62.704687 
L 257.26125 62.704687 
L 269.26125 62.704687 
" style="fill: none; stroke: #008000; stroke-opacity: 0.5; stroke-width: 2; stroke-linecap: square"/>
    </g>
    <g id="text_16">
     <!-- xy-plane -->
     <g transform="translate(278.86125 66.904687)scale(0.12 -0.12)">
      <use xlink:href="#DejaVuSans-78"/>
      <use xlink:href="#DejaVuSans-79" x="59.179688"/>
      <use xlink:href="#DejaVuSans-2d" x="116.609375"/>
      <use xlink:href="#DejaVuSans-70" x="152.693359"/>
      <use xlink:href="#DejaVuSans-6c" x="216.169922"/>
      <use xlink:href="#DejaVuSans-61" x="243.953125"/>
      <use xlink:href="#DejaVuSans-6e" x="305.232422"/>
      <use xlink:href="#DejaVuSans-65" x="368.611328"/>
     </g>
    </g>
   </g>
  </g>
 </g>
 <defs>
  <clipPath id="p8eac408022">
   <rect x="49.3975" y="11.759062" width="291.8825" height="222.793437"/>
  </clipPath>
 </defs>
</svg>