<?xml version="1.0" encoding="utf-8" standalone="no"?>
<!DOCTYPE svg PUBLIC "-//W3C//DTD SVG 1.1//EN"
  "http://www.w3.org/Graphics/SVG/1.1/DTD/svg11.dtd">
<svg xmlns:xlink="http://www.w3.org/1999/xlink" width="348.48pt" height="276.48pt" viewBox="0 0 348.48 276.48" xmlns="http://www.w3.org/2000/svg" version="1.1">
 <metadata>
  <rdf:RDF xmlns:dc="http://purl.org/dc/elements/1.1/" xmlns:cc="http://creativecommons.org/ns#" xmlns:rdf="http://www.w3.org/1999/02/22-rdf-syntax-ns#">
   <cc:Work>
    <dc:type rdf:resource="http://purl.org/dc/dcmitype/StillImage"/>
    <dc:date>2022-09-09T19:03:10.080819</dc:date>
    <dc:format>image/svg+xml</dc:format>
    <dc:creator>
     <cc:Agent>
      <dc:title>Matplotlib v3.5.3, https://matplotlib.org/</dc:title>
     </cc:Agent>
    </dc:creator>
   </cc:Work>
  </rdf:RDF>
 </metadata>
 <defs>
  <style type="text/css">*{stroke-linejoin: round; stroke-linecap: butt}</style>
 </defs>
 <g id="figure_1">
  <g id="patch_1">
   <path d="M 0 276.48 
L 348.48 276.48 
L 348.48 0 
L 0 0 
z
" style="fill: #ffffff"/>
  </g>
  <g id="axes_1">
   <g id="patch_2">
    <path d="M 49.3975 234.5525 
L 341.28 234.5525 
L 341.28 11.759062 
L 49.3975 11.759062 
z
" style="fill: #ffffff"/>
   </g>
   <g id="matplotlib.axis_1">
    <g id="xtick_1">
     <g id="line2d_1">
      <defs>
       <path id="m877a459131" d="M 0 0 
L 0 -6 
" style="stroke: #000000; stroke-width: 2"/>
      </defs>
      <g>
       <use xlink:href="#m877a459131" x="62.664886" y="234.5525" style="fill: #ffffff; stroke: #000000; stroke-width: 2"/>
      </g>
     </g>
     <g id="line2d_2">
      <defs>
       <path id="me1fec34b67" d="M 0 0 
L 0 6 
" style="stroke: #000000; stroke-width: 2"/>
      </defs>
      <g>
       <use xlink:href="#me1fec34b67" x="62.664886" y="11.759062" style="fill: #ffffff; stroke: #000000; stroke-width: 2"/>
      </g>
     </g>
     <g id="text_1">
      <!-- 0.0 -->
      <g transform="translate(53.123011 247.170625)scale(0.12 -0.12)">
       <defs>
        <path id="DejaVuSans-30" d="M 2034 4250 
Q 1547 4250 1301 3770 
Q 1056 3291 1056 2328 
Q 1056 1369 1301 889 
Q 1547 409 2034 409 
Q 2525 409 2770 889 
Q 3016 1369 3016 2328 
Q 3016 3291 2770 3770 
Q 2525 4250 2034 4250 
z
M 2034 4750 
Q 2819 4750 3233 4129 
Q 3647 3509 3647 2328 
Q 3647 1150 3233 529 
Q 2819 -91 2034 -91 
Q 1250 -91 836 529 
Q 422 1150 422 2328 
Q 422 3509 836 4129 
Q 1250 4750 2034 4750 
z
" transform="scale(0.015625)"/>
        <path id="DejaVuSans-2e" d="M 684 794 
L 1344 794 
L 1344 0 
L 684 0 
L 684 794 
z
" transform="scale(0.015625)"/>
       </defs>
       <use xlink:href="#DejaVuSans-30"/>
       <use xlink:href="#DejaVuSans-2e" x="63.623047"/>
       <use xlink:href="#DejaVuSans-30" x="95.410156"/>
      </g>
     </g>
    </g>
    <g id="xtick_2">
     <g id="line2d_3">
      <g>
       <use xlink:href="#m877a459131" x="115.734432" y="234.5525" style="fill: #ffffff; stroke: #000000; stroke-width: 2"/>
      </g>
     </g>
     <g id="line2d_4">
      <g>
       <use xlink:href="#me1fec34b67" x="115.734432" y="11.759062" style="fill: #ffffff; stroke: #000000; stroke-width: 2"/>
      </g>
     </g>
     <g id="text_2">
      <!-- 0.2 -->
      <g transform="translate(106.192557 247.170625)scale(0.12 -0.12)">
       <defs>
        <path id="DejaVuSans-32" d="M 1228 531 
L 3431 531 
L 3431 0 
L 469 0 
L 469 531 
Q 828 903 1448 1529 
Q 2069 2156 2228 2338 
Q 2531 2678 2651 2914 
Q 2772 3150 2772 3378 
Q 2772 3750 2511 3984 
Q 2250 4219 1831 4219 
Q 1534 4219 1204 4116 
Q 875 4013 500 3803 
L 500 4441 
Q 881 4594 1212 4672 
Q 1544 4750 1819 4750 
Q 2544 4750 2975 4387 
Q 3406 4025 3406 3419 
Q 3406 3131 3298 2873 
Q 3191 2616 2906 2266 
Q 2828 2175 2409 1742 
Q 1991 1309 1228 531 
z
" transform="scale(0.015625)"/>
       </defs>
       <use xlink:href="#DejaVuSans-30"/>
       <use xlink:href="#DejaVuSans-2e" x="63.623047"/>
       <use xlink:href="#DejaVuSans-32" x="95.410156"/>
      </g>
     </g>
    </g>
    <g id="xtick_3">
     <g id="line2d_5">
      <g>
       <use xlink:href="#m877a459131" x="168.803977" y="234.5525" style="fill: #ffffff; stroke: #000000; stroke-width: 2"/>
      </g>
     </g>
     <g id="line2d_6">
      <g>
       <use xlink:href="#me1fec34b67" x="168.803977" y="11.759062" style="fill: #ffffff; stroke: #000000; stroke-width: 2"/>
      </g>
     </g>
     <g id="text_3">
      <!-- 0.4 -->
      <g transform="translate(159.262102 247.170625)scale(0.12 -0.12)">
       <defs>
        <path id="DejaVuSans-34" d="M 2419 4116 
L 825 1625 
L 2419 1625 
L 2419 4116 
z
M 2253 4666 
L 3047 4666 
L 3047 1625 
L 3713 1625 
L 3713 1100 
L 3047 1100 
L 3047 0 
L 2419 0 
L 2419 1100 
L 313 1100 
L 313 1709 
L 2253 4666 
z
" transform="scale(0.015625)"/>
       </defs>
       <use xlink:href="#DejaVuSans-30"/>
       <use xlink:href="#DejaVuSans-2e" x="63.623047"/>
       <use xlink:href="#DejaVuSans-34" x="95.410156"/>
      </g>
     </g>
    </g>
    <g id="xtick_4">
     <g id="line2d_7">
      <g>
       <use xlink:href="#m877a459131" x="221.873523" y="234.5525" style="fill: #ffffff; stroke: #000000; stroke-width: 2"/>
      </g>
     </g>
     <g id="line2d_8">
      <g>
       <use xlink:href="#me1fec34b67" x="221.873523" y="11.759062" style="fill: #ffffff; stroke: #000000; stroke-width: 2"/>
      </g>
     </g>
     <g id="text_4">
      <!-- 0.6 -->
      <g transform="translate(212.331648 247.170625)scale(0.12 -0.12)">
       <defs>
        <path id="DejaVuSans-36" d="M 2113 2584 
Q 1688 2584 1439 2293 
Q 1191 2003 1191 1497 
Q 1191 994 1439 701 
Q 1688 409 2113 409 
Q 2538 409 2786 701 
Q 3034 994 3034 1497 
Q 3034 2003 2786 2293 
Q 2538 2584 2113 2584 
z
M 3366 4563 
L 3366 3988 
Q 3128 4100 2886 4159 
Q 2644 4219 2406 4219 
Q 1781 4219 1451 3797 
Q 1122 3375 1075 2522 
Q 1259 2794 1537 2939 
Q 1816 3084 2150 3084 
Q 2853 3084 3261 2657 
Q 3669 2231 3669 1497 
Q 3669 778 3244 343 
Q 2819 -91 2113 -91 
Q 1303 -91 875 529 
Q 447 1150 447 2328 
Q 447 3434 972 4092 
Q 1497 4750 2381 4750 
Q 2619 4750 2861 4703 
Q 3103 4656 3366 4563 
z
" transform="scale(0.015625)"/>
       </defs>
       <use xlink:href="#DejaVuSans-30"/>
       <use xlink:href="#DejaVuSans-2e" x="63.623047"/>
       <use xlink:href="#DejaVuSans-36" x="95.410156"/>
      </g>
     </g>
    </g>
    <g id="xtick_5">
     <g id="line2d_9">
      <g>
       <use xlink:href="#m877a459131" x="274.943068" y="234.5525" style="fill: #ffffff; stroke: #000000; stroke-width: 2"/>
      </g>
     </g>
     <g id="line2d_10">
      <g>
       <use xlink:href="#me1fec34b67" x="274.943068" y="11.759062" style="fill: #ffffff; stroke: #000000; stroke-width: 2"/>
      </g>
     </g>
     <g id="text_5">
      <!-- 0.8 -->
      <g transform="translate(265.401193 247.170625)scale(0.12 -0.12)">
       <defs>
        <path id="DejaVuSans-38" d="M 2034 2216 
Q 1584 2216 1326 1975 
Q 1069 1734 1069 1313 
Q 1069 891 1326 650 
Q 1584 409 2034 409 
Q 2484 409 2743 651 
Q 3003 894 3003 1313 
Q 3003 1734 2745 1975 
Q 2488 2216 2034 2216 
z
M 1403 2484 
Q 997 2584 770 2862 
Q 544 3141 544 3541 
Q 544 4100 942 4425 
Q 1341 4750 2034 4750 
Q 2731 4750 3128 4425 
Q 3525 4100 3525 3541 
Q 3525 3141 3298 2862 
Q 3072 2584 2669 2484 
Q 3125 2378 3379 2068 
Q 3634 1759 3634 1313 
Q 3634 634 3220 271 
Q 2806 -91 2034 -91 
Q 1263 -91 848 271 
Q 434 634 434 1313 
Q 434 1759 690 2068 
Q 947 2378 1403 2484 
z
M 1172 3481 
Q 1172 3119 1398 2916 
Q 1625 2713 2034 2713 
Q 2441 2713 2670 2916 
Q 2900 3119 2900 3481 
Q 2900 3844 2670 4047 
Q 2441 4250 2034 4250 
Q 1625 4250 1398 4047 
Q 1172 3844 1172 3481 
z
" transform="scale(0.015625)"/>
       </defs>
       <use xlink:href="#DejaVuSans-30"/>
       <use xlink:href="#DejaVuSans-2e" x="63.623047"/>
       <use xlink:href="#DejaVuSans-38" x="95.410156"/>
      </g>
     </g>
    </g>
    <g id="xtick_6">
     <g id="line2d_11">
      <g>
       <use xlink:href="#m877a459131" x="328.012614" y="234.5525" style="fill: #ffffff; stroke: #000000; stroke-width: 2"/>
      </g>
     </g>
     <g id="line2d_12">
      <g>
       <use xlink:href="#me1fec34b67" x="328.012614" y="11.759062" style="fill: #ffffff; stroke: #000000; stroke-width: 2"/>
      </g>
     </g>
     <g id="text_6">
      <!-- 1.0 -->
      <g transform="translate(318.470739 247.170625)scale(0.12 -0.12)">
       <defs>
        <path id="DejaVuSans-31" d="M 794 531 
L 1825 531 
L 1825 4091 
L 703 3866 
L 703 4441 
L 1819 4666 
L 2450 4666 
L 2450 531 
L 3481 531 
L 3481 0 
L 794 0 
L 794 531 
z
" transform="scale(0.015625)"/>
       </defs>
       <use xlink:href="#DejaVuSans-31"/>
       <use xlink:href="#DejaVuSans-2e" x="63.623047"/>
       <use xlink:href="#DejaVuSans-30" x="95.410156"/>
      </g>
     </g>
    </g>
    <g id="text_7">
     <!-- Fractional distance along given axis -->
     <g transform="translate(87.823438 266.784375)scale(0.12 -0.12)">
      <defs>
       <path id="DejaVuSans-46" d="M 628 4666 
L 3309 4666 
L 3309 4134 
L 1259 4134 
L 1259 2759 
L 3109 2759 
L 3109 2228 
L 1259 2228 
L 1259 0 
L 628 0 
L 628 4666 
z
" transform="scale(0.015625)"/>
       <path id="DejaVuSans-72" d="M 2631 2963 
Q 2534 3019 2420 3045 
Q 2306 3072 2169 3072 
Q 1681 3072 1420 2755 
Q 1159 2438 1159 1844 
L 1159 0 
L 581 0 
L 581 3500 
L 1159 3500 
L 1159 2956 
Q 1341 3275 1631 3429 
Q 1922 3584 2338 3584 
Q 2397 3584 2469 3576 
Q 2541 3569 2628 3553 
L 2631 2963 
z
" transform="scale(0.015625)"/>
       <path id="DejaVuSans-61" d="M 2194 1759 
Q 1497 1759 1228 1600 
Q 959 1441 959 1056 
Q 959 750 1161 570 
Q 1363 391 1709 391 
Q 2188 391 2477 730 
Q 2766 1069 2766 1631 
L 2766 1759 
L 2194 1759 
z
M 3341 1997 
L 3341 0 
L 2766 0 
L 2766 531 
Q 2569 213 2275 61 
Q 1981 -91 1556 -91 
Q 1019 -91 701 211 
Q 384 513 384 1019 
Q 384 1609 779 1909 
Q 1175 2209 1959 2209 
L 2766 2209 
L 2766 2266 
Q 2766 2663 2505 2880 
Q 2244 3097 1772 3097 
Q 1472 3097 1187 3025 
Q 903 2953 641 2809 
L 641 3341 
Q 956 3463 1253 3523 
Q 1550 3584 1831 3584 
Q 2591 3584 2966 3190 
Q 3341 2797 3341 1997 
z
" transform="scale(0.015625)"/>
       <path id="DejaVuSans-63" d="M 3122 3366 
L 3122 2828 
Q 2878 2963 2633 3030 
Q 2388 3097 2138 3097 
Q 1578 3097 1268 2742 
Q 959 2388 959 1747 
Q 959 1106 1268 751 
Q 1578 397 2138 397 
Q 2388 397 2633 464 
Q 2878 531 3122 666 
L 3122 134 
Q 2881 22 2623 -34 
Q 2366 -91 2075 -91 
Q 1284 -91 818 406 
Q 353 903 353 1747 
Q 353 2603 823 3093 
Q 1294 3584 2113 3584 
Q 2378 3584 2631 3529 
Q 2884 3475 3122 3366 
z
" transform="scale(0.015625)"/>
       <path id="DejaVuSans-74" d="M 1172 4494 
L 1172 3500 
L 2356 3500 
L 2356 3053 
L 1172 3053 
L 1172 1153 
Q 1172 725 1289 603 
Q 1406 481 1766 481 
L 2356 481 
L 2356 0 
L 1766 0 
Q 1100 0 847 248 
Q 594 497 594 1153 
L 594 3053 
L 172 3053 
L 172 3500 
L 594 3500 
L 594 4494 
L 1172 4494 
z
" transform="scale(0.015625)"/>
       <path id="DejaVuSans-69" d="M 603 3500 
L 1178 3500 
L 1178 0 
L 603 0 
L 603 3500 
z
M 603 4863 
L 1178 4863 
L 1178 4134 
L 603 4134 
L 603 4863 
z
" transform="scale(0.015625)"/>
       <path id="DejaVuSans-6f" d="M 1959 3097 
Q 1497 3097 1228 2736 
Q 959 2375 959 1747 
Q 959 1119 1226 758 
Q 1494 397 1959 397 
Q 2419 397 2687 759 
Q 2956 1122 2956 1747 
Q 2956 2369 2687 2733 
Q 2419 3097 1959 3097 
z
M 1959 3584 
Q 2709 3584 3137 3096 
Q 3566 2609 3566 1747 
Q 3566 888 3137 398 
Q 2709 -91 1959 -91 
Q 1206 -91 779 398 
Q 353 888 353 1747 
Q 353 2609 779 3096 
Q 1206 3584 1959 3584 
z
" transform="scale(0.015625)"/>
       <path id="DejaVuSans-6e" d="M 3513 2113 
L 3513 0 
L 2938 0 
L 2938 2094 
Q 2938 2591 2744 2837 
Q 2550 3084 2163 3084 
Q 1697 3084 1428 2787 
Q 1159 2491 1159 1978 
L 1159 0 
L 581 0 
L 581 3500 
L 1159 3500 
L 1159 2956 
Q 1366 3272 1645 3428 
Q 1925 3584 2291 3584 
Q 2894 3584 3203 3211 
Q 3513 2838 3513 2113 
z
" transform="scale(0.015625)"/>
       <path id="DejaVuSans-6c" d="M 603 4863 
L 1178 4863 
L 1178 0 
L 603 0 
L 603 4863 
z
" transform="scale(0.015625)"/>
       <path id="DejaVuSans-20" transform="scale(0.015625)"/>
       <path id="DejaVuSans-64" d="M 2906 2969 
L 2906 4863 
L 3481 4863 
L 3481 0 
L 2906 0 
L 2906 525 
Q 2725 213 2448 61 
Q 2172 -91 1784 -91 
Q 1150 -91 751 415 
Q 353 922 353 1747 
Q 353 2572 751 3078 
Q 1150 3584 1784 3584 
Q 2172 3584 2448 3432 
Q 2725 3281 2906 2969 
z
M 947 1747 
Q 947 1113 1208 752 
Q 1469 391 1925 391 
Q 2381 391 2643 752 
Q 2906 1113 2906 1747 
Q 2906 2381 2643 2742 
Q 2381 3103 1925 3103 
Q 1469 3103 1208 2742 
Q 947 2381 947 1747 
z
" transform="scale(0.015625)"/>
       <path id="DejaVuSans-73" d="M 2834 3397 
L 2834 2853 
Q 2591 2978 2328 3040 
Q 2066 3103 1784 3103 
Q 1356 3103 1142 2972 
Q 928 2841 928 2578 
Q 928 2378 1081 2264 
Q 1234 2150 1697 2047 
L 1894 2003 
Q 2506 1872 2764 1633 
Q 3022 1394 3022 966 
Q 3022 478 2636 193 
Q 2250 -91 1575 -91 
Q 1294 -91 989 -36 
Q 684 19 347 128 
L 347 722 
Q 666 556 975 473 
Q 1284 391 1588 391 
Q 1994 391 2212 530 
Q 2431 669 2431 922 
Q 2431 1156 2273 1281 
Q 2116 1406 1581 1522 
L 1381 1569 
Q 847 1681 609 1914 
Q 372 2147 372 2553 
Q 372 3047 722 3315 
Q 1072 3584 1716 3584 
Q 2034 3584 2315 3537 
Q 2597 3491 2834 3397 
z
" transform="scale(0.015625)"/>
       <path id="DejaVuSans-65" d="M 3597 1894 
L 3597 1613 
L 953 1613 
Q 991 1019 1311 708 
Q 1631 397 2203 397 
Q 2534 397 2845 478 
Q 3156 559 3463 722 
L 3463 178 
Q 3153 47 2828 -22 
Q 2503 -91 2169 -91 
Q 1331 -91 842 396 
Q 353 884 353 1716 
Q 353 2575 817 3079 
Q 1281 3584 2069 3584 
Q 2775 3584 3186 3129 
Q 3597 2675 3597 1894 
z
M 3022 2063 
Q 3016 2534 2758 2815 
Q 2500 3097 2075 3097 
Q 1594 3097 1305 2825 
Q 1016 2553 972 2059 
L 3022 2063 
z
" transform="scale(0.015625)"/>
       <path id="DejaVuSans-67" d="M 2906 1791 
Q 2906 2416 2648 2759 
Q 2391 3103 1925 3103 
Q 1463 3103 1205 2759 
Q 947 2416 947 1791 
Q 947 1169 1205 825 
Q 1463 481 1925 481 
Q 2391 481 2648 825 
Q 2906 1169 2906 1791 
z
M 3481 434 
Q 3481 -459 3084 -895 
Q 2688 -1331 1869 -1331 
Q 1566 -1331 1297 -1286 
Q 1028 -1241 775 -1147 
L 775 -588 
Q 1028 -725 1275 -790 
Q 1522 -856 1778 -856 
Q 2344 -856 2625 -561 
Q 2906 -266 2906 331 
L 2906 616 
Q 2728 306 2450 153 
Q 2172 0 1784 0 
Q 1141 0 747 490 
Q 353 981 353 1791 
Q 353 2603 747 3093 
Q 1141 3584 1784 3584 
Q 2172 3584 2450 3431 
Q 2728 3278 2906 2969 
L 2906 3500 
L 3481 3500 
L 3481 434 
z
" transform="scale(0.015625)"/>
       <path id="DejaVuSans-76" d="M 191 3500 
L 800 3500 
L 1894 563 
L 2988 3500 
L 3597 3500 
L 2284 0 
L 1503 0 
L 191 3500 
z
" transform="scale(0.015625)"/>
       <path id="DejaVuSans-78" d="M 3513 3500 
L 2247 1797 
L 3578 0 
L 2900 0 
L 1881 1375 
L 863 0 
L 184 0 
L 1544 1831 
L 300 3500 
L 978 3500 
L 1906 2253 
L 2834 3500 
L 3513 3500 
z
" transform="scale(0.015625)"/>
      </defs>
      <use xlink:href="#DejaVuSans-46"/>
      <use xlink:href="#DejaVuSans-72" x="50.269531"/>
      <use xlink:href="#DejaVuSans-61" x="91.382812"/>
      <use xlink:href="#DejaVuSans-63" x="152.662109"/>
      <use xlink:href="#DejaVuSans-74" x="207.642578"/>
      <use xlink:href="#DejaVuSans-69" x="246.851562"/>
      <use xlink:href="#DejaVuSans-6f" x="274.634766"/>
      <use xlink:href="#DejaVuSans-6e" x="335.816406"/>
      <use xlink:href="#DejaVuSans-61" x="399.195312"/>
      <use xlink:href="#DejaVuSans-6c" x="460.474609"/>
      <use xlink:href="#DejaVuSans-20" x="488.257812"/>
      <use xlink:href="#DejaVuSans-64" x="520.044922"/>
      <use xlink:href="#DejaVuSans-69" x="583.521484"/>
      <use xlink:href="#DejaVuSans-73" x="611.304688"/>
      <use xlink:href="#DejaVuSans-74" x="663.404297"/>
      <use xlink:href="#DejaVuSans-61" x="702.613281"/>
      <use xlink:href="#DejaVuSans-6e" x="763.892578"/>
      <use xlink:href="#DejaVuSans-63" x="827.271484"/>
      <use xlink:href="#DejaVuSans-65" x="882.251953"/>
      <use xlink:href="#DejaVuSans-20" x="943.775391"/>
      <use xlink:href="#DejaVuSans-61" x="975.5625"/>
      <use xlink:href="#DejaVuSans-6c" x="1036.841797"/>
      <use xlink:href="#DejaVuSans-6f" x="1064.625"/>
      <use xlink:href="#DejaVuSans-6e" x="1125.806641"/>
      <use xlink:href="#DejaVuSans-67" x="1189.185547"/>
      <use xlink:href="#DejaVuSans-20" x="1252.662109"/>
      <use xlink:href="#DejaVuSans-67" x="1284.449219"/>
      <use xlink:href="#DejaVuSans-69" x="1347.925781"/>
      <use xlink:href="#DejaVuSans-76" x="1375.708984"/>
      <use xlink:href="#DejaVuSans-65" x="1434.888672"/>
      <use xlink:href="#DejaVuSans-6e" x="1496.412109"/>
      <use xlink:href="#DejaVuSans-20" x="1559.791016"/>
      <use xlink:href="#DejaVuSans-61" x="1591.578125"/>
      <use xlink:href="#DejaVuSans-78" x="1652.857422"/>
      <use xlink:href="#DejaVuSans-69" x="1712.037109"/>
      <use xlink:href="#DejaVuSans-73" x="1739.820312"/>
     </g>
    </g>
   </g>
   <g id="matplotlib.axis_2">
    <g id="ytick_1">
     <g id="line2d_13">
      <defs>
       <path id="m5e68762f4f" d="M 0 0 
L 6 0 
" style="stroke: #000000; stroke-width: 2"/>
      </defs>
      <g>
       <use xlink:href="#m5e68762f4f" x="49.3975" y="234.5525" style="fill: #ffffff; stroke: #000000; stroke-width: 2"/>
      </g>
     </g>
     <g id="line2d_14">
      <defs>
       <path id="m4c08f751f0" d="M 0 0 
L -6 0 
" style="stroke: #000000; stroke-width: 2"/>
      </defs>
      <g>
       <use xlink:href="#m4c08f751f0" x="341.28" y="234.5525" style="fill: #ffffff; stroke: #000000; stroke-width: 2"/>
      </g>
     </g>
     <g id="text_8">
      <!-- 0.0 -->
      <g transform="translate(26.81375 239.111562)scale(0.12 -0.12)">
       <use xlink:href="#DejaVuSans-30"/>
       <use xlink:href="#DejaVuSans-2e" x="63.623047"/>
       <use xlink:href="#DejaVuSans-30" x="95.410156"/>
      </g>
     </g>
    </g>
    <g id="ytick_2">
     <g id="line2d_15">
      <g>
       <use xlink:href="#m5e68762f4f" x="49.3975" y="189.993812" style="fill: #ffffff; stroke: #000000; stroke-width: 2"/>
      </g>
     </g>
     <g id="line2d_16">
      <g>
       <use xlink:href="#m4c08f751f0" x="341.28" y="189.993812" style="fill: #ffffff; stroke: #000000; stroke-width: 2"/>
      </g>
     </g>
     <g id="text_9">
      <!-- 0.2 -->
      <g transform="translate(26.81375 194.552875)scale(0.12 -0.12)">
       <use xlink:href="#DejaVuSans-30"/>
       <use xlink:href="#DejaVuSans-2e" x="63.623047"/>
       <use xlink:href="#DejaVuSans-32" x="95.410156"/>
      </g>
     </g>
    </g>
    <g id="ytick_3">
     <g id="line2d_17">
      <g>
       <use xlink:href="#m5e68762f4f" x="49.3975" y="145.435125" style="fill: #ffffff; stroke: #000000; stroke-width: 2"/>
      </g>
     </g>
     <g id="line2d_18">
      <g>
       <use xlink:href="#m4c08f751f0" x="341.28" y="145.435125" style="fill: #ffffff; stroke: #000000; stroke-width: 2"/>
      </g>
     </g>
     <g id="text_10">
      <!-- 0.4 -->
      <g transform="translate(26.81375 149.994187)scale(0.12 -0.12)">
       <use xlink:href="#DejaVuSans-30"/>
       <use xlink:href="#DejaVuSans-2e" x="63.623047"/>
       <use xlink:href="#DejaVuSans-34" x="95.410156"/>
      </g>
     </g>
    </g>
    <g id="ytick_4">
     <g id="line2d_19">
      <g>
       <use xlink:href="#m5e68762f4f" x="49.3975" y="100.876437" style="fill: #ffffff; stroke: #000000; stroke-width: 2"/>
      </g>
     </g>
     <g id="line2d_20">
      <g>
       <use xlink:href="#m4c08f751f0" x="341.28" y="100.876437" style="fill: #ffffff; stroke: #000000; stroke-width: 2"/>
      </g>
     </g>
     <g id="text_11">
      <!-- 0.6 -->
      <g transform="translate(26.81375 105.4355)scale(0.12 -0.12)">
       <use xlink:href="#DejaVuSans-30"/>
       <use xlink:href="#DejaVuSans-2e" x="63.623047"/>
       <use xlink:href="#DejaVuSans-36" x="95.410156"/>
      </g>
     </g>
    </g>
    <g id="ytick_5">
     <g id="line2d_21">
      <g>
       <use xlink:href="#m5e68762f4f" x="49.3975" y="56.31775" style="fill: #ffffff; stroke: #000000; stroke-width: 2"/>
      </g>
     </g>
     <g id="line2d_22">
      <g>
       <use xlink:href="#m4c08f751f0" x="341.28" y="56.31775" style="fill: #ffffff; stroke: #000000; stroke-width: 2"/>
      </g>
     </g>
     <g id="text_12">
      <!-- 0.8 -->
      <g transform="translate(26.81375 60.876812)scale(0.12 -0.12)">
       <use xlink:href="#DejaVuSans-30"/>
       <use xlink:href="#DejaVuSans-2e" x="63.623047"/>
       <use xlink:href="#DejaVuSans-38" x="95.410156"/>
      </g>
     </g>
    </g>
    <g id="ytick_6">
     <g id="line2d_23">
      <g>
       <use xlink:href="#m5e68762f4f" x="49.3975" y="11.759062" style="fill: #ffffff; stroke: #000000; stroke-width: 2"/>
      </g>
     </g>
     <g id="line2d_24">
      <g>
       <use xlink:href="#m4c08f751f0" x="341.28" y="11.759062" style="fill: #ffffff; stroke: #000000; stroke-width: 2"/>
      </g>
     </g>
     <g id="text_13">
      <!-- 1.0 -->
      <g transform="translate(26.81375 16.318125)scale(0.12 -0.12)">
       <use xlink:href="#DejaVuSans-31"/>
       <use xlink:href="#DejaVuSans-2e" x="63.623047"/>
       <use xlink:href="#DejaVuSans-30" x="95.410156"/>
      </g>
     </g>
    </g>
    <g id="text_14">
     <!-- Porosity of slice -->
     <g transform="translate(16.318125 169.973594)rotate(-90)scale(0.12 -0.12)">
      <defs>
       <path id="DejaVuSans-50" d="M 1259 4147 
L 1259 2394 
L 2053 2394 
Q 2494 2394 2734 2622 
Q 2975 2850 2975 3272 
Q 2975 3691 2734 3919 
Q 2494 4147 2053 4147 
L 1259 4147 
z
M 628 4666 
L 2053 4666 
Q 2838 4666 3239 4311 
Q 3641 3956 3641 3272 
Q 3641 2581 3239 2228 
Q 2838 1875 2053 1875 
L 1259 1875 
L 1259 0 
L 628 0 
L 628 4666 
z
" transform="scale(0.015625)"/>
       <path id="DejaVuSans-79" d="M 2059 -325 
Q 1816 -950 1584 -1140 
Q 1353 -1331 966 -1331 
L 506 -1331 
L 506 -850 
L 844 -850 
Q 1081 -850 1212 -737 
Q 1344 -625 1503 -206 
L 1606 56 
L 191 3500 
L 800 3500 
L 1894 763 
L 2988 3500 
L 3597 3500 
L 2059 -325 
z
" transform="scale(0.015625)"/>
       <path id="DejaVuSans-66" d="M 2375 4863 
L 2375 4384 
L 1825 4384 
Q 1516 4384 1395 4259 
Q 1275 4134 1275 3809 
L 1275 3500 
L 2222 3500 
L 2222 3053 
L 1275 3053 
L 1275 0 
L 697 0 
L 697 3053 
L 147 3053 
L 147 3500 
L 697 3500 
L 697 3744 
Q 697 4328 969 4595 
Q 1241 4863 1831 4863 
L 2375 4863 
z
" transform="scale(0.015625)"/>
      </defs>
      <use xlink:href="#DejaVuSans-50"/>
      <use xlink:href="#DejaVuSans-6f" x="56.677734"/>
      <use xlink:href="#DejaVuSans-72" x="117.859375"/>
      <use xlink:href="#DejaVuSans-6f" x="156.722656"/>
      <use xlink:href="#DejaVuSans-73" x="217.904297"/>
      <use xlink:href="#DejaVuSans-69" x="270.003906"/>
      <use xlink:href="#DejaVuSans-74" x="297.787109"/>
      <use xlink:href="#DejaVuSans-79" x="336.996094"/>
      <use xlink:href="#DejaVuSans-20" x="396.175781"/>
      <use xlink:href="#DejaVuSans-6f" x="427.962891"/>
      <use xlink:href="#DejaVuSans-66" x="489.144531"/>
      <use xlink:href="#DejaVuSans-20" x="524.349609"/>
      <use xlink:href="#DejaVuSans-73" x="556.136719"/>
      <use xlink:href="#DejaVuSans-6c" x="608.236328"/>
      <use xlink:href="#DejaVuSans-69" x="636.019531"/>
      <use xlink:href="#DejaVuSans-63" x="663.802734"/>
      <use xlink:href="#DejaVuSans-65" x="718.783203"/>
     </g>
    </g>
   </g>
   <g id="line2d_25">
    <path d="M 62.664886 122.130931 
L 69.331915 122.214479 
L 70.66532 122.086373 
L 71.998726 122.134645 
L 73.332132 121.50154 
L 74.665537 121.117221 
L 78.665754 120.677204 
L 79.99916 121.039244 
L 82.665971 120.086802 
L 83.999377 119.644928 
L 85.332783 119.507539 
L 86.666188 119.2439 
L 87.999594 118.707339 
L 89.333 118.478976 
L 90.666405 118.610795 
L 91.999811 118.426991 
L 93.333217 118.738901 
L 94.666622 118.66278 
L 96.000028 118.085374 
L 97.333434 117.689916 
L 98.666839 117.613794 
L 100.000245 117.786459 
L 101.333651 118.607082 
L 102.667056 119.039672 
L 105.333868 119.125077 
L 106.667273 119.262466 
L 108.000679 119.552097 
L 109.334085 120.289172 
L 110.66749 120.855439 
L 112.000896 121.564665 
L 113.334302 122.533816 
L 116.001113 123.809309 
L 117.334519 124.774747 
L 118.667924 125.405995 
L 120.00133 125.794027 
L 122.668141 127.197626 
L 124.001547 127.329445 
L 125.334953 127.667348 
L 126.668358 128.304166 
L 130.668575 132.000681 
L 132.001981 132.964262 
L 133.335387 134.16549 
L 136.002198 135.435413 
L 137.335604 135.582085 
L 138.669009 135.40385 
L 140.002415 135.010249 
L 141.335821 134.310306 
L 142.669226 133.211192 
L 144.002632 131.497539 
L 149.336255 121.948983 
L 150.66966 120.023677 
L 152.003066 118.737045 
L 153.336472 117.788316 
L 154.669877 117.513537 
L 156.003283 117.092087 
L 157.336689 117.274034 
L 158.670094 117.803169 
L 162.670311 118.486402 
L 164.003717 119.130646 
L 166.670528 119.297742 
L 168.003934 119.769321 
L 169.33734 120.456267 
L 170.670745 120.9427 
L 172.004151 121.547955 
L 174.670962 123.111223 
L 176.004368 123.781459 
L 177.337774 124.616935 
L 178.671179 125.864578 
L 181.337991 128.140784 
L 182.671396 129.620504 
L 184.004802 130.637928 
L 185.338208 131.181915 
L 186.671613 131.954265 
L 188.005019 132.555808 
L 189.338425 132.741469 
L 190.67183 132.375716 
L 192.005236 131.789027 
L 193.338642 131.328587 
L 194.672047 130.990684 
L 197.338858 130.106936 
L 198.672264 130.045668 
L 200.00567 129.557379 
L 202.672481 128.137071 
L 204.005887 127.795455 
L 206.672698 127.515106 
L 208.006104 127.706337 
L 209.339509 127.656209 
L 210.672915 127.147497 
L 212.006321 127.054666 
L 213.339726 127.114078 
L 214.673132 126.887571 
L 216.006538 126.430845 
L 218.673349 125.251896 
L 221.34016 124.76732 
L 222.673566 124.798883 
L 224.006972 125.205481 
L 225.340377 125.418991 
L 226.673783 125.066235 
L 228.007189 125.071805 
L 229.340594 124.849011 
L 230.674 124.460979 
L 233.340811 123.987543 
L 237.341028 121.572091 
L 241.341245 118.111367 
L 242.674651 117.77532 
L 244.008057 117.87372 
L 245.341462 118.447413 
L 246.674868 118.592229 
L 248.008274 119.544671 
L 249.341679 120.864722 
L 250.675085 122.010252 
L 253.341896 123.053668 
L 256.008708 123.250468 
L 260.008925 124.652211 
L 261.34233 124.600225 
L 262.675736 124.137929 
L 264.009142 123.848298 
L 265.342547 123.985687 
L 268.009359 124.839728 
L 269.342764 125.088514 
L 270.67617 125.46912 
L 272.009576 125.179488 
L 273.342981 124.661494 
L 276.009793 124.085944 
L 277.343198 123.532673 
L 278.676604 122.825304 
L 281.343415 121.804168 
L 282.676821 121.469978 
L 284.010227 121.338158 
L 286.677038 120.474834 
L 288.010444 119.656068 
L 289.343849 118.5421 
L 290.677255 117.699199 
L 292.010661 117.598942 
L 296.010878 117.86815 
L 297.344283 117.97769 
L 298.677689 117.934988 
L 302.677906 117.41885 
L 305.344717 118.698056 
L 308.011529 119.301455 
L 309.344934 119.80274 
L 310.67834 119.947556 
L 312.011746 119.951269 
L 313.345151 120.406139 
L 316.011963 120.807167 
L 317.345368 121.247184 
L 320.01218 121.585088 
L 321.345585 121.60551 
L 322.678991 121.425419 
L 325.345802 120.82202 
L 326.679208 120.554668 
L 328.012614 120.463694 
L 328.012614 120.463694 
" clip-path="url(#p6c61c8525c)" style="fill: none; stroke: #0000ff; stroke-opacity: 0.5; stroke-width: 2; stroke-linecap: square"/>
   </g>
   <g id="line2d_26">
    <path d="M 62.664886 112.550814 
L 64.439788 112.737403 
L 66.214689 113.386289 
L 67.102139 113.884789 
L 67.98959 114.558739 
L 68.877041 115.547385 
L 70.651942 118.29053 
L 71.539392 119.28753 
L 72.426843 119.958695 
L 73.314293 121.32052 
L 74.201744 122.222834 
L 75.976645 123.289457 
L 77.751546 124.158352 
L 78.638997 123.495541 
L 81.301349 120.771891 
L 82.188799 119.429561 
L 83.07625 117.546956 
L 83.963701 116.536031 
L 84.851151 115.998542 
L 85.738602 115.655997 
L 86.626052 115.461053 
L 87.513503 115.862081 
L 88.400954 116.597299 
L 89.288404 117.502398 
L 90.175855 118.755611 
L 91.950756 120.760752 
L 92.838207 122.498541 
L 93.725657 123.651497 
L 94.613108 124.188986 
L 95.500558 124.486972 
L 96.388009 124.475832 
L 97.275459 124.272533 
L 98.16291 123.489971 
L 100.825262 120.267821 
L 101.712712 119.212337 
L 102.600163 118.530033 
L 104.375064 118.140144 
L 105.262515 118.446485 
L 106.149965 118.883717 
L 107.037416 119.847299 
L 107.924867 121.053168 
L 110.587218 123.941128 
L 111.474669 124.938129 
L 112.36212 126.41135 
L 113.24957 127.007323 
L 114.137021 127.419491 
L 115.911922 127.948625 
L 116.799373 128.266106 
L 117.686823 128.427631 
L 118.574274 128.048882 
L 119.461724 127.10758 
L 120.349175 126.405781 
L 121.236625 126.074375 
L 123.898977 125.940699 
L 124.786428 125.094084 
L 127.44878 121.688129 
L 129.223681 118.702697 
L 130.998582 116.58059 
L 133.660934 114.784318 
L 134.548384 114.890145 
L 135.435835 114.572664 
L 136.323286 114.02125 
L 137.210736 113.854155 
L 138.098187 114.110368 
L 138.985637 114.689631 
L 140.760539 114.764823 
L 141.647989 115.589159 
L 142.53544 115.825877 
L 144.310341 116.786674 
L 146.972693 116.847942 
L 147.860143 117.644429 
L 148.747594 118.26825 
L 150.522495 119.089801 
L 151.409946 119.7916 
L 152.297396 120.161994 
L 153.184847 119.980975 
L 154.072297 119.518678 
L 154.959748 119.284745 
L 155.847199 119.229047 
L 156.734649 119.964265 
L 157.6221 121.094942 
L 158.50955 122.579303 
L 163.834254 135.022317 
L 165.609155 138.639925 
L 166.496606 140.951407 
L 167.384056 142.728185 
L 168.271507 143.780884 
L 169.158958 144.209761 
L 170.046408 143.702906 
L 170.933859 142.783883 
L 171.821309 141.550164 
L 175.371112 135.381571 
L 176.258562 134.434699 
L 178.033463 133.175916 
L 178.920914 132.162206 
L 181.583266 128.391427 
L 182.470716 127.717477 
L 184.245618 125.976903 
L 185.133068 125.553596 
L 186.020519 125.550811 
L 187.79542 124.826732 
L 188.682871 125.124718 
L 189.570321 125.169277 
L 190.457772 125.436629 
L 191.345222 125.910065 
L 192.232673 126.027032 
L 193.120124 126.308308 
L 194.007574 126.249825 
L 195.782475 126.809594 
L 196.669926 127.11315 
L 198.444827 128.360793 
L 199.332278 128.772961 
L 200.219728 129.343869 
L 201.107179 129.691984 
L 202.88208 131.101152 
L 203.769531 131.919918 
L 204.656981 132.52703 
L 205.544432 133.337441 
L 207.319333 135.860577 
L 208.206784 136.659848 
L 209.094234 136.467689 
L 210.869135 133.014391 
L 212.644037 129.148925 
L 214.418938 125.7374 
L 216.193839 123.52896 
L 217.08129 122.18663 
L 217.96874 120.593657 
L 218.856191 118.569021 
L 219.743641 116.898071 
L 220.631092 115.636503 
L 221.518542 115.199271 
L 222.405993 115.74233 
L 223.293444 116.605654 
L 224.180894 117.669493 
L 225.955795 120.588087 
L 226.843246 121.735473 
L 227.730697 122.423348 
L 228.618147 122.930203 
L 230.393048 123.801882 
L 231.280499 124.375575 
L 233.942851 127.703552 
L 234.830301 128.101796 
L 235.717752 128.254966 
L 236.605203 128.101796 
L 237.492653 128.313449 
L 239.267554 127.96255 
L 241.042456 127.115935 
L 242.817357 125.784744 
L 243.704807 124.926989 
L 244.592258 123.774033 
L 245.479708 122.913493 
L 246.367159 122.398284 
L 248.14206 122.061308 
L 249.029511 121.674205 
L 249.916961 120.15921 
L 250.804412 119.12879 
L 252.579313 117.870007 
L 253.466764 117.485688 
L 254.354214 117.572021 
L 255.241665 117.232261 
L 257.016566 115.650427 
L 257.904017 115.076734 
L 258.791467 115.527891 
L 260.566369 115.940059 
L 262.34127 116.828448 
L 264.116171 116.374506 
L 265.891072 117.627719 
L 266.778523 117.608225 
L 267.665973 117.240615 
L 269.440875 116.995543 
L 270.328325 116.502612 
L 271.215776 115.814737 
L 272.103226 115.360796 
L 272.990677 114.394429 
L 273.878127 114.182776 
L 275.653029 116.304883 
L 276.540479 117.109724 
L 277.42793 117.574806 
L 279.202831 117.917351 
L 280.090282 118.0928 
L 280.977732 117.75304 
L 281.865183 118.025962 
L 282.752633 118.031532 
L 283.640084 118.167993 
L 285.414985 119.794385 
L 286.302436 120.000469 
L 287.189886 120.014394 
L 288.077337 119.646785 
L 288.964788 118.875362 
L 289.852238 117.925705 
L 291.627139 116.549956 
L 294.289491 116.146143 
L 295.176942 116.600084 
L 296.064392 117.538602 
L 296.951843 118.894857 
L 297.839293 119.719192 
L 298.726744 120.134145 
L 300.501645 119.883503 
L 302.276546 120.983545 
L 303.163997 121.746613 
L 304.051448 122.715764 
L 304.938898 123.88543 
L 305.826349 125.405995 
L 306.713799 126.5868 
L 307.60125 128.477759 
L 308.488701 129.756037 
L 309.376151 130.371504 
L 310.263602 130.382643 
L 311.151052 130.65835 
L 312.038503 131.092797 
L 312.925954 131.3323 
L 313.813404 131.931058 
L 314.700855 132.048024 
L 315.588305 131.86979 
L 316.475756 131.418633 
L 317.363207 131.418633 
L 318.250657 130.914563 
L 319.138108 130.831015 
L 320.025558 130.616576 
L 320.913009 131.106722 
L 321.800459 131.410278 
L 322.68791 131.449267 
L 323.575361 131.34344 
L 325.350262 132.006251 
L 326.237712 132.098153 
L 327.125163 132.35158 
L 328.012614 132.340441 
L 328.012614 132.340441 
" clip-path="url(#p6c61c8525c)" style="fill: none; stroke: #ff0000; stroke-opacity: 0.5; stroke-width: 2; stroke-linecap: square"/>
   </g>
   <g id="line2d_27">
    <path d="M 62.664886 131.336014 
L 63.329918 131.276602 
L 63.99495 131.3323 
L 65.325014 131.659064 
L 65.990046 131.629358 
L 67.985142 131.064948 
L 68.650173 130.842155 
L 69.315205 130.218333 
L 69.980237 129.193483 
L 70.645269 128.996683 
L 71.975333 127.700767 
L 73.305397 125.498826 
L 73.970429 124.971548 
L 75.300492 124.919563 
L 76.630556 124.55938 
L 77.295588 125.450554 
L 78.625652 126.000111 
L 79.955716 128.517677 
L 81.28578 129.947268 
L 82.615843 131.770461 
L 83.280875 132.156636 
L 83.945907 132.37943 
L 85.941003 132.58737 
L 87.271067 130.53767 
L 88.60113 128.153781 
L 89.931194 125.33173 
L 90.596226 124.169491 
L 92.591322 121.540529 
L 93.921386 120.749612 
L 95.916481 119.100941 
L 96.581513 119.130646 
L 97.246545 119.69877 
L 97.911577 120.905568 
L 98.576609 122.350012 
L 99.241641 124.065521 
L 100.571705 125.892427 
L 101.901768 126.82816 
L 102.5668 126.839299 
L 103.231832 126.716763 
L 103.896864 126.427132 
L 104.561896 126.014964 
L 105.89196 126.727903 
L 107.222024 126.720476 
L 107.887055 125.703053 
L 108.552087 124.934416 
L 109.217119 124.499968 
L 109.882151 124.20291 
L 110.547183 123.415707 
L 111.212215 122.869863 
L 111.877247 121.618507 
L 112.542279 119.966122 
L 113.207311 119.078661 
L 113.872343 118.4437 
L 114.537374 118.417707 
L 115.202406 118.057525 
L 115.867438 117.934988 
L 116.53247 118.250612 
L 117.197502 117.934988 
L 117.862534 117.300027 
L 118.527566 117.626791 
L 119.192598 118.477119 
L 119.85763 118.911566 
L 120.522661 119.056382 
L 121.187693 119.416565 
L 121.852725 118.826162 
L 123.182789 120.144357 
L 123.847821 121.191486 
L 124.512853 121.948983 
L 125.177885 122.535673 
L 125.842917 122.899569 
L 126.507949 123.133502 
L 127.17298 123.865007 
L 127.838012 124.032102 
L 128.503044 123.846441 
L 129.168076 124.221477 
L 129.833108 124.024676 
L 130.49814 123.66078 
L 131.163172 122.613651 
L 131.828204 122.309166 
L 132.493236 121.577661 
L 133.158268 120.619649 
L 133.823299 120.088658 
L 134.488331 119.190058 
L 135.153363 118.521678 
L 135.818395 117.623078 
L 136.483427 117.522821 
L 139.808587 113.36401 
L 140.473618 113.196915 
L 141.13865 113.6982 
L 141.803682 114.563381 
L 145.128842 124.106367 
L 145.793874 126.196912 
L 148.454001 132.862149 
L 149.784065 134.399423 
L 150.449097 136.267175 
L 151.114129 137.68934 
L 151.779161 137.841582 
L 153.109224 137.80445 
L 154.439288 136.824159 
L 155.769352 135.049238 
L 156.434384 133.783028 
L 157.099416 132.230901 
L 159.759543 122.892142 
L 160.424575 121.38086 
L 163.084703 117.526534 
L 163.749735 115.903855 
L 165.744831 113.415995 
L 166.409862 113.185775 
L 167.074894 113.312025 
L 167.739926 113.575663 
L 168.404958 113.601656 
L 169.06999 113.913567 
L 169.735022 114.622793 
L 173.060181 119.516822 
L 175.055277 123.924419 
L 176.385341 127.16235 
L 179.7105 137.849008 
L 180.375532 139.70562 
L 181.040564 140.581941 
L 181.705596 139.991539 
L 183.03566 137.633641 
L 184.365724 134.796738 
L 185.695787 131.744468 
L 189.020947 120.80531 
L 189.685979 118.191201 
L 190.351011 116.275177 
L 191.016043 114.830733 
L 191.681075 113.920993 
L 193.011138 113.066952 
L 193.67617 113.170922 
L 194.341202 113.516252 
L 195.006234 114.125221 
L 195.671266 114.548528 
L 196.336298 114.693344 
L 197.00133 115.194629 
L 197.666362 115.992972 
L 198.331394 117.262895 
L 200.326489 122.450269 
L 200.991521 123.671919 
L 201.656553 124.470263 
L 202.986617 124.986401 
L 203.651649 124.938129 
L 206.976808 119.078661 
L 207.64184 118.774177 
L 208.306872 119.245756 
L 209.636936 121.187773 
L 210.301968 121.908138 
L 210.967 123.330303 
L 212.297063 124.763607 
L 213.627127 125.684487 
L 214.957191 126.01125 
L 216.287255 128.064663 
L 216.952287 129.215763 
L 218.947382 135.145781 
L 219.612414 136.178058 
L 220.277446 136.697909 
L 221.60751 137.214047 
L 222.272542 136.976401 
L 222.937574 136.036955 
L 223.602606 135.472545 
L 224.932669 133.27803 
L 228.257829 127.4854 
L 228.922861 126.467977 
L 229.587893 124.745041 
L 230.252925 123.467692 
L 230.917957 122.654496 
L 231.582988 123.170634 
L 232.24802 124.395998 
L 232.913052 125.320591 
L 234.908148 129.282601 
L 236.238212 132.646782 
L 236.903244 133.356007 
L 237.568276 133.84244 
L 238.233307 133.72733 
L 238.898339 133.263177 
L 240.228403 131.577373 
L 240.893435 131.072375 
L 241.558467 130.032672 
L 242.223499 130.036385 
L 242.888531 131.254323 
L 243.553563 131.751895 
L 244.218594 131.841012 
L 244.883626 131.770461 
L 245.548658 131.428844 
L 246.21369 131.232043 
L 246.878722 131.347153 
L 248.208786 132.70248 
L 248.873818 133.82016 
L 249.53885 135.63964 
L 250.203882 136.79074 
L 250.868913 137.655921 
L 251.533945 138.038383 
L 252.198977 137.837869 
L 252.864009 136.805593 
L 253.529041 136.081514 
L 254.194073 135.643353 
L 254.859105 135.364862 
L 255.524137 135.342582 
L 257.519232 131.413991 
L 258.849296 130.040098 
L 259.514328 129.806165 
L 260.17936 130.043812 
L 260.844392 131.206051 
L 262.174456 130.868147 
L 262.839488 131.12436 
L 263.50452 131.506822 
L 264.169551 131.087228 
L 265.499615 129.186057 
L 266.164647 129.041241 
L 266.829679 128.554809 
L 268.824775 126.616506 
L 269.489807 125.706766 
L 270.154839 123.99497 
L 270.81987 122.699055 
L 271.484902 122.361151 
L 272.149934 122.409423 
L 272.814966 121.95641 
L 273.479998 121.302882 
L 274.810062 119.587373 
L 275.475094 118.911566 
L 276.140126 118.551384 
L 276.805157 117.641644 
L 277.470189 116.921278 
L 278.135221 115.662495 
L 279.465285 114.154926 
L 281.460381 112.305741 
L 282.125413 112.123793 
L 282.790445 112.66221 
L 284.120508 114.184632 
L 284.78554 115.387717 
L 285.450572 116.304883 
L 287.445668 115.751613 
L 288.1107 115.740473 
L 288.775732 115.855583 
L 289.440764 116.516537 
L 290.105795 117.378005 
L 291.435859 120.025533 
L 292.100891 122.587658 
L 293.430955 126.003824 
L 294.095987 126.467977 
L 294.761019 127.310879 
L 295.426051 127.711907 
L 296.756114 127.849296 
L 297.421146 127.671062 
L 298.086178 127.013821 
L 300.746306 120.047813 
L 302.07637 116.041244 
L 303.406433 111.399714 
L 304.071465 110.204056 
L 304.736497 109.82902 
L 305.401529 109.298029 
L 306.731593 108.536819 
L 308.061657 107.311455 
L 308.726689 106.130649 
L 309.39172 105.78532 
L 310.056752 105.737048 
L 310.721784 105.217196 
L 311.386816 105.146645 
L 312.051848 105.310027 
L 312.71688 105.22091 
L 314.711976 106.457413 
L 317.372103 107.044102 
L 318.702167 106.906713 
L 319.367199 106.594802 
L 320.697263 105.202343 
L 321.362295 104.366868 
L 322.027327 103.958413 
L 322.692358 104.077237 
L 323.35739 104.348302 
L 325.352486 103.895289 
L 326.017518 103.731907 
L 326.68255 103.438562 
L 328.012614 103.293746 
L 328.012614 103.293746 
" clip-path="url(#p6c61c8525c)" style="fill: none; stroke: #008000; stroke-opacity: 0.5; stroke-width: 2; stroke-linecap: square"/>
   </g>
   <g id="patch_3">
    <path d="M 49.3975 234.5525 
L 49.3975 11.759062 
" style="fill: none; stroke: #000000; stroke-width: 2; stroke-linejoin: miter; stroke-linecap: square"/>
   </g>
   <g id="patch_4">
    <path d="M 341.28 234.5525 
L 341.28 11.759062 
" style="fill: none; stroke: #000000; stroke-width: 2; stroke-linejoin: miter; stroke-linecap: square"/>
   </g>
   <g id="patch_5">
    <path d="M 49.3975 234.5525 
L 341.28 234.5525 
" style="fill: none; stroke: #000000; stroke-width: 2; stroke-linejoin: miter; stroke-linecap: square"/>
   </g>
   <g id="patch_6">
    <path d="M 49.3975 11.759062 
L 341.28 11.759062 
" style="fill: none; stroke: #000000; stroke-width: 2; stroke-linejoin: miter; stroke-linecap: square"/>
   </g>
   <g id="legend_1">
    <g id="line2d_28">
     <path d="M 245.26125 27.477188 
L 257.26125 27.477188 
L 269.26125 27.477188 
" style="fill: none; stroke: #0000ff; stroke-opacity: 0.5; stroke-width: 2; stroke-linecap: square"/>
    </g>
    <g id="text_15">
     <!-- yz-plane -->
     <g transform="translate(278.86125 31.677188)scale(0.12 -0.12)">
      <defs>
       <path id="DejaVuSans-7a" d="M 353 3500 
L 3084 3500 
L 3084 2975 
L 922 459 
L 3084 459 
L 3084 0 
L 275 0 
L 275 525 
L 2438 3041 
L 353 3041 
L 353 3500 
z
" transform="scale(0.015625)"/>
       <path id="DejaVuSans-2d" d="M 313 2009 
L 1997 2009 
L 1997 1497 
L 313 1497 
L 313 2009 
z
" transform="scale(0.015625)"/>
       <path id="DejaVuSans-70" d="M 1159 525 
L 1159 -1331 
L 581 -1331 
L 581 3500 
L 1159 3500 
L 1159 2969 
Q 1341 3281 1617 3432 
Q 1894 3584 2278 3584 
Q 2916 3584 3314 3078 
Q 3713 2572 3713 1747 
Q 3713 922 3314 415 
Q 2916 -91 2278 -91 
Q 1894 -91 1617 61 
Q 1341 213 1159 525 
z
M 3116 1747 
Q 3116 2381 2855 2742 
Q 2594 3103 2138 3103 
Q 1681 3103 1420 2742 
Q 1159 2381 1159 1747 
Q 1159 1113 1420 752 
Q 1681 391 2138 391 
Q 2594 391 2855 752 
Q 3116 1113 3116 1747 
z
" transform="scale(0.015625)"/>
      </defs>
      <use xlink:href="#DejaVuSans-79"/>
      <use xlink:href="#DejaVuSans-7a" x="59.179688"/>
      <use xlink:href="#DejaVuSans-2d" x="111.669922"/>
      <use xlink:href="#DejaVuSans-70" x="147.753906"/>
      <use xlink:href="#DejaVuSans-6c" x="211.230469"/>
      <use xlink:href="#DejaVuSans-61" x="239.013672"/>
      <use xlink:href="#DejaVuSans-6e" x="300.292969"/>
      <use xlink:href="#DejaVuSans-65" x="363.671875"/>
     </g>
    </g>
    <g id="line2d_29">
     <path d="M 245.26125 45.090938 
L 257.26125 45.090938 
L 269.26125 45.090938 
" style="fill: none; stroke: #ff0000; stroke-opacity: 0.5; stroke-width: 2; stroke-linecap: square"/>
    </g>
    <g id="text_16">
     <!-- xz-plane -->
     <g transform="translate(278.86125 49.290938)scale(0.12 -0.12)">
      <use xlink:href="#DejaVuSans-78"/>
      <use xlink:href="#DejaVuSans-7a" x="59.179688"/>
      <use xlink:href="#DejaVuSans-2d" x="111.669922"/>
      <use xlink:href="#DejaVuSans-70" x="147.753906"/>
      <use xlink:href="#DejaVuSans-6c" x="211.230469"/>
      <use xlink:href="#DejaVuSans-61" x="239.013672"/>
      <use xlink:href="#DejaVuSans-6e" x="300.292969"/>
      <use xlink:href="#DejaVuSans-65" x="363.671875"/>
     </g>
    </g>
    <g id="line2d_30">
     <path d="M 245.26125 62.704687 
L 257.26125 62.704687 
L 269.26125 62.704687 
" style="fill: none; stroke: #008000; stroke-opacity: 0.5; stroke-width: 2; stroke-linecap: square"/>
    </g>
    <g id="text_17">
     <!-- xy-plane -->
     <g transform="translate(278.86125 66.904687)scale(0.12 -0.12)">
      <use xlink:href="#DejaVuSans-78"/>
      <use xlink:href="#DejaVuSans-79" x="59.179688"/>
      <use xlink:href="#DejaVuSans-2d" x="116.609375"/>
      <use xlink:href="#DejaVuSans-70" x="152.693359"/>
      <use xlink:href="#DejaVuSans-6c" x="216.169922"/>
      <use xlink:href="#DejaVuSans-61" x="243.953125"/>
      <use xlink:href="#DejaVuSans-6e" x="305.232422"/>
      <use xlink:href="#DejaVuSans-65" x="368.611328"/>
     </g>
    </g>
   </g>
  </g>
 </g>
 <defs>
  <clipPath id="p6c61c8525c">
   <rect x="49.3975" y="11.759062" width="291.8825" height="222.793437"/>
  </clipPath>
 </defs>
</svg>