<?xml version="1.0" encoding="utf-8" standalone="no"?>
<!DOCTYPE svg PUBLIC "-//W3C//DTD SVG 1.1//EN"
  "http://www.w3.org/Graphics/SVG/1.1/DTD/svg11.dtd">
<svg xmlns:xlink="http://www.w3.org/1999/xlink" width="348.48pt" height="276.48pt" viewBox="0 0 348.48 276.48" xmlns="http://www.w3.org/2000/svg" version="1.1">
 <metadata>
  <rdf:RDF xmlns:dc="http://purl.org/dc/elements/1.1/" xmlns:cc="http://creativecommons.org/ns#" xmlns:rdf="http://www.w3.org/1999/02/22-rdf-syntax-ns#">
   <cc:Work>
    <dc:type rdf:resource="http://purl.org/dc/dcmitype/StillImage"/>
    <dc:date>2022-09-10T12:54:43.970894</dc:date>
    <dc:format>image/svg+xml</dc:format>
    <dc:creator>
     <cc:Agent>
      <dc:title>Matplotlib v3.5.3, https://matplotlib.org/</dc:title>
     </cc:Agent>
    </dc:creator>
   </cc:Work>
  </rdf:RDF>
 </metadata>
 <defs>
  <style type="text/css">*{stroke-linejoin: round; stroke-linecap: butt}</style>
 </defs>
 <g id="figure_1">
  <g id="patch_1">
   <path d="M 0 276.48 
L 348.48 276.48 
L 348.48 0 
L 0 0 
z
" style="fill: #ffffff"/>
  </g>
  <g id="axes_1">
   <g id="patch_2">
    <path d="M 49.3975 234.5525 
L 341.28 234.5525 
L 341.28 11.759062 
L 49.3975 11.759062 
z
" style="fill: #ffffff"/>
   </g>
   <g id="matplotlib.axis_1">
    <g id="xtick_1">
     <g id="line2d_1">
      <defs>
       <path id="mffcdcce0e1" d="M 0 0 
L 0 -6 
" style="stroke: #000000; stroke-width: 2"/>
      </defs>
      <g>
       <use xlink:href="#mffcdcce0e1" x="62.664886" y="234.5525" style="fill: #ffffff; stroke: #000000; stroke-width: 2"/>
      </g>
     </g>
     <g id="line2d_2">
      <defs>
       <path id="mb0e3f77c54" d="M 0 0 
L 0 6 
" style="stroke: #000000; stroke-width: 2"/>
      </defs>
      <g>
       <use xlink:href="#mb0e3f77c54" x="62.664886" y="11.759062" style="fill: #ffffff; stroke: #000000; stroke-width: 2"/>
      </g>
     </g>
     <g id="text_1">
      <!-- 0 -->
      <g transform="translate(58.847386 247.170625)scale(0.12 -0.12)">
       <defs>
        <path id="DejaVuSans-30" d="M 2034 4250 
Q 1547 4250 1301 3770 
Q 1056 3291 1056 2328 
Q 1056 1369 1301 889 
Q 1547 409 2034 409 
Q 2525 409 2770 889 
Q 3016 1369 3016 2328 
Q 3016 3291 2770 3770 
Q 2525 4250 2034 4250 
z
M 2034 4750 
Q 2819 4750 3233 4129 
Q 3647 3509 3647 2328 
Q 3647 1150 3233 529 
Q 2819 -91 2034 -91 
Q 1250 -91 836 529 
Q 422 1150 422 2328 
Q 422 3509 836 4129 
Q 1250 4750 2034 4750 
z
" transform="scale(0.015625)"/>
       </defs>
       <use xlink:href="#DejaVuSans-30"/>
      </g>
     </g>
    </g>
    <g id="xtick_2">
     <g id="line2d_3">
      <g>
       <use xlink:href="#mffcdcce0e1" x="118.882625" y="234.5525" style="fill: #ffffff; stroke: #000000; stroke-width: 2"/>
      </g>
     </g>
     <g id="line2d_4">
      <g>
       <use xlink:href="#mb0e3f77c54" x="118.882625" y="11.759062" style="fill: #ffffff; stroke: #000000; stroke-width: 2"/>
      </g>
     </g>
     <g id="text_2">
      <!-- 500 -->
      <g transform="translate(107.430125 247.170625)scale(0.12 -0.12)">
       <defs>
        <path id="DejaVuSans-35" d="M 691 4666 
L 3169 4666 
L 3169 4134 
L 1269 4134 
L 1269 2991 
Q 1406 3038 1543 3061 
Q 1681 3084 1819 3084 
Q 2600 3084 3056 2656 
Q 3513 2228 3513 1497 
Q 3513 744 3044 326 
Q 2575 -91 1722 -91 
Q 1428 -91 1123 -41 
Q 819 9 494 109 
L 494 744 
Q 775 591 1075 516 
Q 1375 441 1709 441 
Q 2250 441 2565 725 
Q 2881 1009 2881 1497 
Q 2881 1984 2565 2268 
Q 2250 2553 1709 2553 
Q 1456 2553 1204 2497 
Q 953 2441 691 2322 
L 691 4666 
z
" transform="scale(0.015625)"/>
       </defs>
       <use xlink:href="#DejaVuSans-35"/>
       <use xlink:href="#DejaVuSans-30" x="63.623047"/>
       <use xlink:href="#DejaVuSans-30" x="127.246094"/>
      </g>
     </g>
    </g>
    <g id="xtick_3">
     <g id="line2d_5">
      <g>
       <use xlink:href="#mffcdcce0e1" x="175.100364" y="234.5525" style="fill: #ffffff; stroke: #000000; stroke-width: 2"/>
      </g>
     </g>
     <g id="line2d_6">
      <g>
       <use xlink:href="#mb0e3f77c54" x="175.100364" y="11.759062" style="fill: #ffffff; stroke: #000000; stroke-width: 2"/>
      </g>
     </g>
     <g id="text_3">
      <!-- 1000 -->
      <g transform="translate(159.830364 247.170625)scale(0.12 -0.12)">
       <defs>
        <path id="DejaVuSans-31" d="M 794 531 
L 1825 531 
L 1825 4091 
L 703 3866 
L 703 4441 
L 1819 4666 
L 2450 4666 
L 2450 531 
L 3481 531 
L 3481 0 
L 794 0 
L 794 531 
z
" transform="scale(0.015625)"/>
       </defs>
       <use xlink:href="#DejaVuSans-31"/>
       <use xlink:href="#DejaVuSans-30" x="63.623047"/>
       <use xlink:href="#DejaVuSans-30" x="127.246094"/>
       <use xlink:href="#DejaVuSans-30" x="190.869141"/>
      </g>
     </g>
    </g>
    <g id="xtick_4">
     <g id="line2d_7">
      <g>
       <use xlink:href="#mffcdcce0e1" x="231.318103" y="234.5525" style="fill: #ffffff; stroke: #000000; stroke-width: 2"/>
      </g>
     </g>
     <g id="line2d_8">
      <g>
       <use xlink:href="#mb0e3f77c54" x="231.318103" y="11.759062" style="fill: #ffffff; stroke: #000000; stroke-width: 2"/>
      </g>
     </g>
     <g id="text_4">
      <!-- 1500 -->
      <g transform="translate(216.048103 247.170625)scale(0.12 -0.12)">
       <use xlink:href="#DejaVuSans-31"/>
       <use xlink:href="#DejaVuSans-35" x="63.623047"/>
       <use xlink:href="#DejaVuSans-30" x="127.246094"/>
       <use xlink:href="#DejaVuSans-30" x="190.869141"/>
      </g>
     </g>
    </g>
    <g id="xtick_5">
     <g id="line2d_9">
      <g>
       <use xlink:href="#mffcdcce0e1" x="287.535842" y="234.5525" style="fill: #ffffff; stroke: #000000; stroke-width: 2"/>
      </g>
     </g>
     <g id="line2d_10">
      <g>
       <use xlink:href="#mb0e3f77c54" x="287.535842" y="11.759062" style="fill: #ffffff; stroke: #000000; stroke-width: 2"/>
      </g>
     </g>
     <g id="text_5">
      <!-- 2000 -->
      <g transform="translate(272.265842 247.170625)scale(0.12 -0.12)">
       <defs>
        <path id="DejaVuSans-32" d="M 1228 531 
L 3431 531 
L 3431 0 
L 469 0 
L 469 531 
Q 828 903 1448 1529 
Q 2069 2156 2228 2338 
Q 2531 2678 2651 2914 
Q 2772 3150 2772 3378 
Q 2772 3750 2511 3984 
Q 2250 4219 1831 4219 
Q 1534 4219 1204 4116 
Q 875 4013 500 3803 
L 500 4441 
Q 881 4594 1212 4672 
Q 1544 4750 1819 4750 
Q 2544 4750 2975 4387 
Q 3406 4025 3406 3419 
Q 3406 3131 3298 2873 
Q 3191 2616 2906 2266 
Q 2828 2175 2409 1742 
Q 1991 1309 1228 531 
z
" transform="scale(0.015625)"/>
       </defs>
       <use xlink:href="#DejaVuSans-32"/>
       <use xlink:href="#DejaVuSans-30" x="63.623047"/>
       <use xlink:href="#DejaVuSans-30" x="127.246094"/>
       <use xlink:href="#DejaVuSans-30" x="190.869141"/>
      </g>
     </g>
    </g>
    <g id="text_6">
     <!-- Position of slice along given axis -->
     <g transform="translate(98.045 266.784375)scale(0.12 -0.12)">
      <defs>
       <path id="DejaVuSans-50" d="M 1259 4147 
L 1259 2394 
L 2053 2394 
Q 2494 2394 2734 2622 
Q 2975 2850 2975 3272 
Q 2975 3691 2734 3919 
Q 2494 4147 2053 4147 
L 1259 4147 
z
M 628 4666 
L 2053 4666 
Q 2838 4666 3239 4311 
Q 3641 3956 3641 3272 
Q 3641 2581 3239 2228 
Q 2838 1875 2053 1875 
L 1259 1875 
L 1259 0 
L 628 0 
L 628 4666 
z
" transform="scale(0.015625)"/>
       <path id="DejaVuSans-6f" d="M 1959 3097 
Q 1497 3097 1228 2736 
Q 959 2375 959 1747 
Q 959 1119 1226 758 
Q 1494 397 1959 397 
Q 2419 397 2687 759 
Q 2956 1122 2956 1747 
Q 2956 2369 2687 2733 
Q 2419 3097 1959 3097 
z
M 1959 3584 
Q 2709 3584 3137 3096 
Q 3566 2609 3566 1747 
Q 3566 888 3137 398 
Q 2709 -91 1959 -91 
Q 1206 -91 779 398 
Q 353 888 353 1747 
Q 353 2609 779 3096 
Q 1206 3584 1959 3584 
z
" transform="scale(0.015625)"/>
       <path id="DejaVuSans-73" d="M 2834 3397 
L 2834 2853 
Q 2591 2978 2328 3040 
Q 2066 3103 1784 3103 
Q 1356 3103 1142 2972 
Q 928 2841 928 2578 
Q 928 2378 1081 2264 
Q 1234 2150 1697 2047 
L 1894 2003 
Q 2506 1872 2764 1633 
Q 3022 1394 3022 966 
Q 3022 478 2636 193 
Q 2250 -91 1575 -91 
Q 1294 -91 989 -36 
Q 684 19 347 128 
L 347 722 
Q 666 556 975 473 
Q 1284 391 1588 391 
Q 1994 391 2212 530 
Q 2431 669 2431 922 
Q 2431 1156 2273 1281 
Q 2116 1406 1581 1522 
L 1381 1569 
Q 847 1681 609 1914 
Q 372 2147 372 2553 
Q 372 3047 722 3315 
Q 1072 3584 1716 3584 
Q 2034 3584 2315 3537 
Q 2597 3491 2834 3397 
z
" transform="scale(0.015625)"/>
       <path id="DejaVuSans-69" d="M 603 3500 
L 1178 3500 
L 1178 0 
L 603 0 
L 603 3500 
z
M 603 4863 
L 1178 4863 
L 1178 4134 
L 603 4134 
L 603 4863 
z
" transform="scale(0.015625)"/>
       <path id="DejaVuSans-74" d="M 1172 4494 
L 1172 3500 
L 2356 3500 
L 2356 3053 
L 1172 3053 
L 1172 1153 
Q 1172 725 1289 603 
Q 1406 481 1766 481 
L 2356 481 
L 2356 0 
L 1766 0 
Q 1100 0 847 248 
Q 594 497 594 1153 
L 594 3053 
L 172 3053 
L 172 3500 
L 594 3500 
L 594 4494 
L 1172 4494 
z
" transform="scale(0.015625)"/>
       <path id="DejaVuSans-6e" d="M 3513 2113 
L 3513 0 
L 2938 0 
L 2938 2094 
Q 2938 2591 2744 2837 
Q 2550 3084 2163 3084 
Q 1697 3084 1428 2787 
Q 1159 2491 1159 1978 
L 1159 0 
L 581 0 
L 581 3500 
L 1159 3500 
L 1159 2956 
Q 1366 3272 1645 3428 
Q 1925 3584 2291 3584 
Q 2894 3584 3203 3211 
Q 3513 2838 3513 2113 
z
" transform="scale(0.015625)"/>
       <path id="DejaVuSans-20" transform="scale(0.015625)"/>
       <path id="DejaVuSans-66" d="M 2375 4863 
L 2375 4384 
L 1825 4384 
Q 1516 4384 1395 4259 
Q 1275 4134 1275 3809 
L 1275 3500 
L 2222 3500 
L 2222 3053 
L 1275 3053 
L 1275 0 
L 697 0 
L 697 3053 
L 147 3053 
L 147 3500 
L 697 3500 
L 697 3744 
Q 697 4328 969 4595 
Q 1241 4863 1831 4863 
L 2375 4863 
z
" transform="scale(0.015625)"/>
       <path id="DejaVuSans-6c" d="M 603 4863 
L 1178 4863 
L 1178 0 
L 603 0 
L 603 4863 
z
" transform="scale(0.015625)"/>
       <path id="DejaVuSans-63" d="M 3122 3366 
L 3122 2828 
Q 2878 2963 2633 3030 
Q 2388 3097 2138 3097 
Q 1578 3097 1268 2742 
Q 959 2388 959 1747 
Q 959 1106 1268 751 
Q 1578 397 2138 397 
Q 2388 397 2633 464 
Q 2878 531 3122 666 
L 3122 134 
Q 2881 22 2623 -34 
Q 2366 -91 2075 -91 
Q 1284 -91 818 406 
Q 353 903 353 1747 
Q 353 2603 823 3093 
Q 1294 3584 2113 3584 
Q 2378 3584 2631 3529 
Q 2884 3475 3122 3366 
z
" transform="scale(0.015625)"/>
       <path id="DejaVuSans-65" d="M 3597 1894 
L 3597 1613 
L 953 1613 
Q 991 1019 1311 708 
Q 1631 397 2203 397 
Q 2534 397 2845 478 
Q 3156 559 3463 722 
L 3463 178 
Q 3153 47 2828 -22 
Q 2503 -91 2169 -91 
Q 1331 -91 842 396 
Q 353 884 353 1716 
Q 353 2575 817 3079 
Q 1281 3584 2069 3584 
Q 2775 3584 3186 3129 
Q 3597 2675 3597 1894 
z
M 3022 2063 
Q 3016 2534 2758 2815 
Q 2500 3097 2075 3097 
Q 1594 3097 1305 2825 
Q 1016 2553 972 2059 
L 3022 2063 
z
" transform="scale(0.015625)"/>
       <path id="DejaVuSans-61" d="M 2194 1759 
Q 1497 1759 1228 1600 
Q 959 1441 959 1056 
Q 959 750 1161 570 
Q 1363 391 1709 391 
Q 2188 391 2477 730 
Q 2766 1069 2766 1631 
L 2766 1759 
L 2194 1759 
z
M 3341 1997 
L 3341 0 
L 2766 0 
L 2766 531 
Q 2569 213 2275 61 
Q 1981 -91 1556 -91 
Q 1019 -91 701 211 
Q 384 513 384 1019 
Q 384 1609 779 1909 
Q 1175 2209 1959 2209 
L 2766 2209 
L 2766 2266 
Q 2766 2663 2505 2880 
Q 2244 3097 1772 3097 
Q 1472 3097 1187 3025 
Q 903 2953 641 2809 
L 641 3341 
Q 956 3463 1253 3523 
Q 1550 3584 1831 3584 
Q 2591 3584 2966 3190 
Q 3341 2797 3341 1997 
z
" transform="scale(0.015625)"/>
       <path id="DejaVuSans-67" d="M 2906 1791 
Q 2906 2416 2648 2759 
Q 2391 3103 1925 3103 
Q 1463 3103 1205 2759 
Q 947 2416 947 1791 
Q 947 1169 1205 825 
Q 1463 481 1925 481 
Q 2391 481 2648 825 
Q 2906 1169 2906 1791 
z
M 3481 434 
Q 3481 -459 3084 -895 
Q 2688 -1331 1869 -1331 
Q 1566 -1331 1297 -1286 
Q 1028 -1241 775 -1147 
L 775 -588 
Q 1028 -725 1275 -790 
Q 1522 -856 1778 -856 
Q 2344 -856 2625 -561 
Q 2906 -266 2906 331 
L 2906 616 
Q 2728 306 2450 153 
Q 2172 0 1784 0 
Q 1141 0 747 490 
Q 353 981 353 1791 
Q 353 2603 747 3093 
Q 1141 3584 1784 3584 
Q 2172 3584 2450 3431 
Q 2728 3278 2906 2969 
L 2906 3500 
L 3481 3500 
L 3481 434 
z
" transform="scale(0.015625)"/>
       <path id="DejaVuSans-76" d="M 191 3500 
L 800 3500 
L 1894 563 
L 2988 3500 
L 3597 3500 
L 2284 0 
L 1503 0 
L 191 3500 
z
" transform="scale(0.015625)"/>
       <path id="DejaVuSans-78" d="M 3513 3500 
L 2247 1797 
L 3578 0 
L 2900 0 
L 1881 1375 
L 863 0 
L 184 0 
L 1544 1831 
L 300 3500 
L 978 3500 
L 1906 2253 
L 2834 3500 
L 3513 3500 
z
" transform="scale(0.015625)"/>
      </defs>
      <use xlink:href="#DejaVuSans-50"/>
      <use xlink:href="#DejaVuSans-6f" x="56.677734"/>
      <use xlink:href="#DejaVuSans-73" x="117.859375"/>
      <use xlink:href="#DejaVuSans-69" x="169.958984"/>
      <use xlink:href="#DejaVuSans-74" x="197.742188"/>
      <use xlink:href="#DejaVuSans-69" x="236.951172"/>
      <use xlink:href="#DejaVuSans-6f" x="264.734375"/>
      <use xlink:href="#DejaVuSans-6e" x="325.916016"/>
      <use xlink:href="#DejaVuSans-20" x="389.294922"/>
      <use xlink:href="#DejaVuSans-6f" x="421.082031"/>
      <use xlink:href="#DejaVuSans-66" x="482.263672"/>
      <use xlink:href="#DejaVuSans-20" x="517.46875"/>
      <use xlink:href="#DejaVuSans-73" x="549.255859"/>
      <use xlink:href="#DejaVuSans-6c" x="601.355469"/>
      <use xlink:href="#DejaVuSans-69" x="629.138672"/>
      <use xlink:href="#DejaVuSans-63" x="656.921875"/>
      <use xlink:href="#DejaVuSans-65" x="711.902344"/>
      <use xlink:href="#DejaVuSans-20" x="773.425781"/>
      <use xlink:href="#DejaVuSans-61" x="805.212891"/>
      <use xlink:href="#DejaVuSans-6c" x="866.492188"/>
      <use xlink:href="#DejaVuSans-6f" x="894.275391"/>
      <use xlink:href="#DejaVuSans-6e" x="955.457031"/>
      <use xlink:href="#DejaVuSans-67" x="1018.835938"/>
      <use xlink:href="#DejaVuSans-20" x="1082.3125"/>
      <use xlink:href="#DejaVuSans-67" x="1114.099609"/>
      <use xlink:href="#DejaVuSans-69" x="1177.576172"/>
      <use xlink:href="#DejaVuSans-76" x="1205.359375"/>
      <use xlink:href="#DejaVuSans-65" x="1264.539062"/>
      <use xlink:href="#DejaVuSans-6e" x="1326.0625"/>
      <use xlink:href="#DejaVuSans-20" x="1389.441406"/>
      <use xlink:href="#DejaVuSans-61" x="1421.228516"/>
      <use xlink:href="#DejaVuSans-78" x="1482.507812"/>
      <use xlink:href="#DejaVuSans-69" x="1541.6875"/>
      <use xlink:href="#DejaVuSans-73" x="1569.470703"/>
     </g>
    </g>
   </g>
   <g id="matplotlib.axis_2">
    <g id="ytick_1">
     <g id="line2d_11">
      <defs>
       <path id="m6bfc94e152" d="M 0 0 
L 6 0 
" style="stroke: #000000; stroke-width: 2"/>
      </defs>
      <g>
       <use xlink:href="#m6bfc94e152" x="49.3975" y="234.5525" style="fill: #ffffff; stroke: #000000; stroke-width: 2"/>
      </g>
     </g>
     <g id="line2d_12">
      <defs>
       <path id="m54ebb361a5" d="M 0 0 
L -6 0 
" style="stroke: #000000; stroke-width: 2"/>
      </defs>
      <g>
       <use xlink:href="#m54ebb361a5" x="341.28" y="234.5525" style="fill: #ffffff; stroke: #000000; stroke-width: 2"/>
      </g>
     </g>
     <g id="text_7">
      <!-- 0.0 -->
      <g transform="translate(26.81375 239.111562)scale(0.12 -0.12)">
       <defs>
        <path id="DejaVuSans-2e" d="M 684 794 
L 1344 794 
L 1344 0 
L 684 0 
L 684 794 
z
" transform="scale(0.015625)"/>
       </defs>
       <use xlink:href="#DejaVuSans-30"/>
       <use xlink:href="#DejaVuSans-2e" x="63.623047"/>
       <use xlink:href="#DejaVuSans-30" x="95.410156"/>
      </g>
     </g>
    </g>
    <g id="ytick_2">
     <g id="line2d_13">
      <g>
       <use xlink:href="#m6bfc94e152" x="49.3975" y="189.993812" style="fill: #ffffff; stroke: #000000; stroke-width: 2"/>
      </g>
     </g>
     <g id="line2d_14">
      <g>
       <use xlink:href="#m54ebb361a5" x="341.28" y="189.993812" style="fill: #ffffff; stroke: #000000; stroke-width: 2"/>
      </g>
     </g>
     <g id="text_8">
      <!-- 0.2 -->
      <g transform="translate(26.81375 194.552875)scale(0.12 -0.12)">
       <use xlink:href="#DejaVuSans-30"/>
       <use xlink:href="#DejaVuSans-2e" x="63.623047"/>
       <use xlink:href="#DejaVuSans-32" x="95.410156"/>
      </g>
     </g>
    </g>
    <g id="ytick_3">
     <g id="line2d_15">
      <g>
       <use xlink:href="#m6bfc94e152" x="49.3975" y="145.435125" style="fill: #ffffff; stroke: #000000; stroke-width: 2"/>
      </g>
     </g>
     <g id="line2d_16">
      <g>
       <use xlink:href="#m54ebb361a5" x="341.28" y="145.435125" style="fill: #ffffff; stroke: #000000; stroke-width: 2"/>
      </g>
     </g>
     <g id="text_9">
      <!-- 0.4 -->
      <g transform="translate(26.81375 149.994187)scale(0.12 -0.12)">
       <defs>
        <path id="DejaVuSans-34" d="M 2419 4116 
L 825 1625 
L 2419 1625 
L 2419 4116 
z
M 2253 4666 
L 3047 4666 
L 3047 1625 
L 3713 1625 
L 3713 1100 
L 3047 1100 
L 3047 0 
L 2419 0 
L 2419 1100 
L 313 1100 
L 313 1709 
L 2253 4666 
z
" transform="scale(0.015625)"/>
       </defs>
       <use xlink:href="#DejaVuSans-30"/>
       <use xlink:href="#DejaVuSans-2e" x="63.623047"/>
       <use xlink:href="#DejaVuSans-34" x="95.410156"/>
      </g>
     </g>
    </g>
    <g id="ytick_4">
     <g id="line2d_17">
      <g>
       <use xlink:href="#m6bfc94e152" x="49.3975" y="100.876437" style="fill: #ffffff; stroke: #000000; stroke-width: 2"/>
      </g>
     </g>
     <g id="line2d_18">
      <g>
       <use xlink:href="#m54ebb361a5" x="341.28" y="100.876437" style="fill: #ffffff; stroke: #000000; stroke-width: 2"/>
      </g>
     </g>
     <g id="text_10">
      <!-- 0.6 -->
      <g transform="translate(26.81375 105.4355)scale(0.12 -0.12)">
       <defs>
        <path id="DejaVuSans-36" d="M 2113 2584 
Q 1688 2584 1439 2293 
Q 1191 2003 1191 1497 
Q 1191 994 1439 701 
Q 1688 409 2113 409 
Q 2538 409 2786 701 
Q 3034 994 3034 1497 
Q 3034 2003 2786 2293 
Q 2538 2584 2113 2584 
z
M 3366 4563 
L 3366 3988 
Q 3128 4100 2886 4159 
Q 2644 4219 2406 4219 
Q 1781 4219 1451 3797 
Q 1122 3375 1075 2522 
Q 1259 2794 1537 2939 
Q 1816 3084 2150 3084 
Q 2853 3084 3261 2657 
Q 3669 2231 3669 1497 
Q 3669 778 3244 343 
Q 2819 -91 2113 -91 
Q 1303 -91 875 529 
Q 447 1150 447 2328 
Q 447 3434 972 4092 
Q 1497 4750 2381 4750 
Q 2619 4750 2861 4703 
Q 3103 4656 3366 4563 
z
" transform="scale(0.015625)"/>
       </defs>
       <use xlink:href="#DejaVuSans-30"/>
       <use xlink:href="#DejaVuSans-2e" x="63.623047"/>
       <use xlink:href="#DejaVuSans-36" x="95.410156"/>
      </g>
     </g>
    </g>
    <g id="ytick_5">
     <g id="line2d_19">
      <g>
       <use xlink:href="#m6bfc94e152" x="49.3975" y="56.31775" style="fill: #ffffff; stroke: #000000; stroke-width: 2"/>
      </g>
     </g>
     <g id="line2d_20">
      <g>
       <use xlink:href="#m54ebb361a5" x="341.28" y="56.31775" style="fill: #ffffff; stroke: #000000; stroke-width: 2"/>
      </g>
     </g>
     <g id="text_11">
      <!-- 0.8 -->
      <g transform="translate(26.81375 60.876812)scale(0.12 -0.12)">
       <defs>
        <path id="DejaVuSans-38" d="M 2034 2216 
Q 1584 2216 1326 1975 
Q 1069 1734 1069 1313 
Q 1069 891 1326 650 
Q 1584 409 2034 409 
Q 2484 409 2743 651 
Q 3003 894 3003 1313 
Q 3003 1734 2745 1975 
Q 2488 2216 2034 2216 
z
M 1403 2484 
Q 997 2584 770 2862 
Q 544 3141 544 3541 
Q 544 4100 942 4425 
Q 1341 4750 2034 4750 
Q 2731 4750 3128 4425 
Q 3525 4100 3525 3541 
Q 3525 3141 3298 2862 
Q 3072 2584 2669 2484 
Q 3125 2378 3379 2068 
Q 3634 1759 3634 1313 
Q 3634 634 3220 271 
Q 2806 -91 2034 -91 
Q 1263 -91 848 271 
Q 434 634 434 1313 
Q 434 1759 690 2068 
Q 947 2378 1403 2484 
z
M 1172 3481 
Q 1172 3119 1398 2916 
Q 1625 2713 2034 2713 
Q 2441 2713 2670 2916 
Q 2900 3119 2900 3481 
Q 2900 3844 2670 4047 
Q 2441 4250 2034 4250 
Q 1625 4250 1398 4047 
Q 1172 3844 1172 3481 
z
" transform="scale(0.015625)"/>
       </defs>
       <use xlink:href="#DejaVuSans-30"/>
       <use xlink:href="#DejaVuSans-2e" x="63.623047"/>
       <use xlink:href="#DejaVuSans-38" x="95.410156"/>
      </g>
     </g>
    </g>
    <g id="ytick_6">
     <g id="line2d_21">
      <g>
       <use xlink:href="#m6bfc94e152" x="49.3975" y="11.759062" style="fill: #ffffff; stroke: #000000; stroke-width: 2"/>
      </g>
     </g>
     <g id="line2d_22">
      <g>
       <use xlink:href="#m54ebb361a5" x="341.28" y="11.759062" style="fill: #ffffff; stroke: #000000; stroke-width: 2"/>
      </g>
     </g>
     <g id="text_12">
      <!-- 1.0 -->
      <g transform="translate(26.81375 16.318125)scale(0.12 -0.12)">
       <use xlink:href="#DejaVuSans-31"/>
       <use xlink:href="#DejaVuSans-2e" x="63.623047"/>
       <use xlink:href="#DejaVuSans-30" x="95.410156"/>
      </g>
     </g>
    </g>
    <g id="text_13">
     <!-- Porosity of slice -->
     <g transform="translate(16.318125 169.973594)rotate(-90)scale(0.12 -0.12)">
      <defs>
       <path id="DejaVuSans-72" d="M 2631 2963 
Q 2534 3019 2420 3045 
Q 2306 3072 2169 3072 
Q 1681 3072 1420 2755 
Q 1159 2438 1159 1844 
L 1159 0 
L 581 0 
L 581 3500 
L 1159 3500 
L 1159 2956 
Q 1341 3275 1631 3429 
Q 1922 3584 2338 3584 
Q 2397 3584 2469 3576 
Q 2541 3569 2628 3553 
L 2631 2963 
z
" transform="scale(0.015625)"/>
       <path id="DejaVuSans-79" d="M 2059 -325 
Q 1816 -950 1584 -1140 
Q 1353 -1331 966 -1331 
L 506 -1331 
L 506 -850 
L 844 -850 
Q 1081 -850 1212 -737 
Q 1344 -625 1503 -206 
L 1606 56 
L 191 3500 
L 800 3500 
L 1894 763 
L 2988 3500 
L 3597 3500 
L 2059 -325 
z
" transform="scale(0.015625)"/>
      </defs>
      <use xlink:href="#DejaVuSans-50"/>
      <use xlink:href="#DejaVuSans-6f" x="56.677734"/>
      <use xlink:href="#DejaVuSans-72" x="117.859375"/>
      <use xlink:href="#DejaVuSans-6f" x="156.722656"/>
      <use xlink:href="#DejaVuSans-73" x="217.904297"/>
      <use xlink:href="#DejaVuSans-69" x="270.003906"/>
      <use xlink:href="#DejaVuSans-74" x="297.787109"/>
      <use xlink:href="#DejaVuSans-79" x="336.996094"/>
      <use xlink:href="#DejaVuSans-20" x="396.175781"/>
      <use xlink:href="#DejaVuSans-6f" x="427.962891"/>
      <use xlink:href="#DejaVuSans-66" x="489.144531"/>
      <use xlink:href="#DejaVuSans-20" x="524.349609"/>
      <use xlink:href="#DejaVuSans-73" x="556.136719"/>
      <use xlink:href="#DejaVuSans-6c" x="608.236328"/>
      <use xlink:href="#DejaVuSans-69" x="636.019531"/>
      <use xlink:href="#DejaVuSans-63" x="663.802734"/>
      <use xlink:href="#DejaVuSans-65" x="718.783203"/>
     </g>
    </g>
   </g>
   <g id="line2d_23">
    <path d="M 62.664886 117.598942 
L 63.998292 117.610081 
L 64.664995 117.610081 
L 65.998401 118.116936 
L 66.665103 118.343443 
L 67.998509 119.212337 
L 69.331915 119.722906 
L 70.66532 121.581374 
L 71.332023 122.738044 
L 71.998726 124.152782 
L 72.665429 125.246326 
L 73.332132 125.706766 
L 74.665537 126.759465 
L 75.33224 126.568234 
L 75.998943 126.629502 
L 77.332349 126.122647 
L 78.665754 126.334301 
L 79.332457 126.124504 
L 80.665863 126.824447 
L 81.332566 127.368434 
L 81.999269 128.239185 
L 83.332674 130.53767 
L 83.999377 131.263606 
L 85.999485 131.308164 
L 87.332891 131.701766 
L 88.666297 132.813877 
L 90.666405 133.131357 
L 91.333108 132.71919 
L 91.999811 131.885571 
L 92.666514 130.845868 
L 93.333217 129.538813 
L 93.999919 127.797311 
L 94.666622 126.410422 
L 97.333434 123.018392 
L 98.000136 122.645213 
L 99.333542 122.905139 
L 100.000245 122.888429 
L 101.333651 122.481831 
L 102.000353 122.75661 
L 103.333759 123.729474 
L 104.000462 124.691199 
L 105.333868 126.959979 
L 106.667273 128.662492 
L 107.333976 129.603795 
L 108.000679 130.314877 
L 108.667382 130.855151 
L 109.334085 130.719618 
L 110.66749 128.881573 
L 112.000896 126.185772 
L 112.667599 124.154638 
L 113.334302 122.550526 
L 114.667707 122.142071 
L 115.33441 122.767749 
L 116.001113 123.722048 
L 117.334519 126.053953 
L 118.001221 127.000825 
L 119.334627 129.29931 
L 120.668033 130.353866 
L 122.668141 131.569947 
L 123.334844 132.067519 
L 124.001547 132.902994 
L 124.66825 133.471117 
L 125.334953 133.621503 
L 126.001655 133.2836 
L 126.668358 133.201909 
L 127.335061 133.391283 
L 128.001764 133.064519 
L 128.668467 132.945696 
L 129.33517 132.386856 
L 130.001872 131.235757 
L 131.335278 129.566662 
L 132.001981 129.247325 
L 134.002089 127.51325 
L 134.668792 127.448268 
L 135.335495 127.821447 
L 136.002198 127.832587 
L 136.668901 127.73233 
L 137.335604 127.414849 
L 139.335712 125.595369 
L 140.669118 124.416421 
L 142.002523 122.945984 
L 143.335929 122.27946 
L 144.669335 121.050383 
L 145.336038 121.091229 
L 146.00274 120.840586 
L 146.669443 120.03853 
L 148.002849 118.727762 
L 149.336255 117.396571 
L 150.002957 117.20534 
L 151.336363 115.280033 
L 152.669769 114.277463 
L 153.336472 113.653641 
L 154.003174 113.222907 
L 156.003283 110.198486 
L 156.669986 109.374151 
L 157.336689 108.367867 
L 158.003391 107.682777 
L 160.0035 105.037105 
L 160.670203 104.431849 
L 161.336906 104.199773 
L 162.670311 103.600087 
L 163.337014 103.458985 
L 164.003717 103.659499 
L 164.67042 103.978836 
L 165.337123 104.702915 
L 166.670528 106.812026 
L 167.337231 107.870295 
L 168.670637 110.753613 
L 170.004042 112.929562 
L 172.004151 117.41885 
L 172.670854 118.085374 
L 174.670962 118.779747 
L 175.337665 118.465979 
L 177.337774 119.009967 
L 178.671179 118.349013 
L 179.337882 118.391715 
L 180.671288 119.004397 
L 181.337991 119.35344 
L 182.671396 120.994685 
L 184.004802 122.795599 
L 184.671505 123.267178 
L 185.338208 123.894713 
L 188.005019 127.999682 
L 190.005127 128.978116 
L 191.338533 130.344583 
L 192.005236 131.053809 
L 192.671939 131.571803 
L 194.005344 132.089798 
L 194.672047 132.255037 
L 195.33875 132.282886 
L 195.33875 132.282886 
" clip-path="url(#p2958bb3d65)" style="fill: none; stroke: #0000ff; stroke-opacity: 0.5; stroke-width: 2; stroke-linecap: square"/>
   </g>
   <g id="line2d_24">
    <path d="M 62.664886 107.813668 
L 63.996062 108.108869 
L 64.66165 108.239761 
L 65.327238 108.651928 
L 65.992826 108.743831 
L 66.658414 109.211697 
L 67.324002 110.091731 
L 67.98959 111.551028 
L 69.320766 115.363581 
L 69.986354 117.335303 
L 70.651942 118.775105 
L 71.31753 119.836159 
L 71.983118 120.563023 
L 72.648706 121.114436 
L 73.314293 121.273177 
L 73.979881 121.275962 
L 74.645469 121.15621 
L 75.976645 120.128575 
L 76.642233 119.852869 
L 77.973409 117.602655 
L 78.638997 117.093015 
L 79.304585 116.7449 
L 80.635761 115.229905 
L 81.301349 114.394429 
L 82.632525 113.311096 
L 83.298113 113.149571 
L 83.963701 113.514395 
L 85.294876 115.655997 
L 87.957228 120.393143 
L 88.622816 121.972191 
L 90.61958 129.538813 
L 93.281932 135.309163 
L 94.613108 137.445195 
L 95.278696 137.620645 
L 96.609872 137.456335 
L 97.275459 137.208477 
L 97.941047 136.43427 
L 99.272223 134.24811 
L 100.603399 133.003251 
L 101.268987 132.677416 
L 101.934575 132.886285 
L 102.600163 133.515676 
L 103.931339 135.665633 
L 105.262515 137.517603 
L 105.928103 137.768246 
L 106.593691 137.62343 
L 107.259279 137.30038 
L 107.924867 136.715547 
L 108.590455 135.863362 
L 109.256042 134.470903 
L 111.918394 125.676132 
L 113.24957 121.802311 
L 115.246334 114.555955 
L 116.57751 109.62665 
L 117.908686 105.855871 
L 118.574274 104.324166 
L 119.239862 103.430207 
L 119.90545 103.349445 
L 120.571038 103.641861 
L 121.902213 105.763969 
L 122.567801 106.4045 
L 123.898977 108.033677 
L 125.895741 111.158355 
L 126.561329 111.389503 
L 127.226917 110.97455 
L 127.892505 110.211483 
L 129.889269 107.295673 
L 130.554857 107.06731 
L 131.220445 107.521252 
L 131.886033 108.111654 
L 133.217208 108.763325 
L 133.882796 108.841303 
L 135.213972 109.841088 
L 135.87956 111.083162 
L 137.876324 113.976692 
L 139.2075 117.338088 
L 141.204264 124.439628 
L 142.53544 128.809165 
L 144.532204 133.259464 
L 145.863379 136.701622 
L 146.528967 137.595581 
L 147.194555 137.9799 
L 148.525731 137.436841 
L 149.191319 137.013533 
L 149.856907 136.222616 
L 151.188083 134.053165 
L 152.519259 131.16799 
L 153.184847 130.009464 
L 154.516023 129.059807 
L 155.847199 127.466834 
L 156.512787 126.870862 
L 157.178375 126.475403 
L 158.50955 125.041171 
L 159.175138 124.977118 
L 159.840726 124.615078 
L 160.506314 123.921634 
L 162.503078 121.217478 
L 163.168666 120.618721 
L 163.834254 120.524034 
L 164.499842 120.82202 
L 165.16543 120.813665 
L 165.831018 120.473905 
L 166.496606 119.379432 
L 167.827782 116.491473 
L 168.49337 115.784103 
L 169.824545 115.541816 
L 171.155721 116.630718 
L 172.486897 118.323949 
L 173.152485 118.346228 
L 173.818073 118.780675 
L 174.483661 119.368293 
L 175.149249 120.554668 
L 176.480425 120.841514 
L 179.142777 123.768463 
L 179.808365 123.865935 
L 180.473953 123.821377 
L 181.139541 124.085944 
L 181.805128 124.191771 
L 182.470716 124.573304 
L 183.136304 124.71255 
L 183.801892 124.484187 
L 184.46748 124.637358 
L 185.133068 124.656852 
L 187.129832 122.86615 
L 187.79542 123.161351 
L 188.461008 123.283887 
L 189.126596 123.651497 
L 193.120124 127.767605 
L 193.785711 128.820304 
L 195.116887 130.268462 
L 195.782475 131.3323 
L 196.448063 131.552309 
L 197.779239 132.510321 
L 198.444827 133.136927 
L 199.776003 135.111434 
L 200.441591 136.033242 
L 201.772767 137.214047 
L 202.438355 137.542667 
L 203.103943 137.347723 
L 203.769531 136.868717 
L 205.100707 134.312163 
L 206.431882 132.694125 
L 209.759822 122.398284 
L 211.090998 119.039672 
L 212.422174 114.53646 
L 213.087762 113.118937 
L 214.418938 111.715338 
L 215.084526 111.408997 
L 215.750114 111.626221 
L 216.415702 112.723479 
L 217.08129 114.483547 
L 218.412465 117.301884 
L 219.743641 119.234617 
L 221.074817 123.114007 
L 221.740405 125.784744 
L 222.405993 127.483544 
L 223.071581 128.522318 
L 224.402757 131.16799 
L 225.068345 131.953337 
L 225.733933 132.474117 
L 226.399521 132.705265 
L 227.065109 132.376645 
L 227.730697 132.20398 
L 228.396285 131.663706 
L 229.061873 131.641426 
L 230.393048 130.978616 
L 231.058636 130.182129 
L 231.724224 129.096011 
L 233.0554 127.572661 
L 233.720988 127.040742 
L 234.386576 126.313878 
L 235.052164 126.461479 
L 236.38334 127.95141 
L 237.714516 127.94584 
L 238.380104 127.433415 
L 239.045692 126.25818 
L 239.71128 125.606509 
L 240.376868 125.461693 
L 241.708043 125.834872 
L 243.039219 125.648283 
L 243.704807 125.367006 
L 244.370395 125.606509 
L 248.363923 129.009679 
L 249.029511 129.669704 
L 249.695099 130.098582 
L 250.360687 130.120861 
L 251.026275 129.64464 
L 251.691863 128.81195 
L 252.357451 127.296954 
L 253.023039 125.344727 
L 255.68539 118.780675 
L 257.016566 115.168637 
L 257.682154 114.302527 
L 258.347742 113.776178 
L 259.01333 113.105012 
L 259.678918 112.820951 
L 261.010094 113.096658 
L 261.675682 113.210839 
L 261.675682 113.210839 
" clip-path="url(#p2958bb3d65)" style="fill: none; stroke: #ff0000; stroke-opacity: 0.5; stroke-width: 2; stroke-linecap: square"/>
   </g>
   <g id="line2d_25">
    <path d="M 62.664886 148.773313 
L 63.329918 148.87357 
L 63.99495 149.274599 
L 65.990046 150.102648 
L 66.655078 150.214044 
L 67.32011 149.879854 
L 67.985142 148.925556 
L 68.650173 147.451406 
L 69.315205 145.27917 
L 70.645269 140.225472 
L 71.310301 138.123787 
L 72.640365 135.557949 
L 73.305397 134.581371 
L 73.970429 134.377144 
L 74.635461 133.983542 
L 75.965524 132.914134 
L 76.630556 131.577373 
L 77.295588 129.505394 
L 79.290684 125.587943 
L 79.955716 124.797026 
L 80.620748 124.429417 
L 81.28578 123.805595 
L 81.950811 123.887286 
L 82.615843 124.195484 
L 83.280875 124.670777 
L 83.945907 125.372576 
L 85.275971 128.465692 
L 85.941003 130.248039 
L 86.606035 131.21719 
L 87.936098 132.69134 
L 88.60113 133.214905 
L 89.931194 134.934128 
L 90.596226 135.097509 
L 91.92629 134.469975 
L 92.591322 133.586227 
L 93.256354 131.287742 
L 93.921386 129.479402 
L 95.916481 122.944127 
L 97.246545 120.096085 
L 97.911577 119.520535 
L 99.241641 116.215766 
L 99.906673 115.042387 
L 100.571705 114.396286 
L 101.236736 113.932133 
L 101.901768 113.92842 
L 102.5668 114.801027 
L 104.561896 119.69877 
L 105.89196 121.974976 
L 107.887055 124.269748 
L 108.552087 125.636215 
L 109.217119 127.656209 
L 110.547183 133.006964 
L 111.212215 134.893282 
L 111.877247 135.98497 
L 114.537374 144.35829 
L 115.202406 147.091223 
L 115.867438 148.223756 
L 116.53247 148.142065 
L 117.197502 147.830154 
L 117.862534 148.190337 
L 118.527566 148.899563 
L 119.192598 149.2189 
L 119.85763 149.697906 
L 120.522661 150.395992 
L 121.187693 151.799591 
L 121.852725 152.74275 
L 122.517757 152.980396 
L 123.182789 152.597934 
L 123.847821 150.659631 
L 125.177885 144.670201 
L 126.507949 137.080371 
L 127.838012 128.1872 
L 128.503044 122.621077 
L 129.168076 118.321164 
L 130.49814 111.945558 
L 131.163172 109.569095 
L 133.158268 104.114369 
L 134.488331 102.454558 
L 135.153363 102.005258 
L 135.818395 101.745332 
L 136.483427 101.91614 
L 137.813491 103.115512 
L 139.143555 103.910141 
L 139.808587 104.8533 
L 141.13865 107.59366 
L 141.803682 109.227478 
L 143.133746 111.577949 
L 143.798778 113.471693 
L 144.46381 114.745329 
L 145.793874 115.981833 
L 147.788969 115.785032 
L 148.454001 115.922421 
L 149.119033 114.923564 
L 149.784065 113.57195 
L 150.449097 111.318023 
L 151.114129 110.066667 
L 152.444193 108.581377 
L 153.774256 109.138361 
L 154.439288 109.777035 
L 155.10432 109.992402 
L 155.769352 109.335162 
L 156.434384 107.901857 
L 157.764448 104.567382 
L 159.094512 104.537676 
L 159.759543 105.454843 
L 160.424575 107.014397 
L 161.089607 109.123508 
L 163.084703 114.03239 
L 163.749735 115.168637 
L 164.414767 116.928705 
L 167.739926 128.707051 
L 169.06999 131.001823 
L 169.735022 130.920133 
L 170.400054 131.395425 
L 171.065086 131.5848 
L 171.730118 131.436271 
L 172.39515 131.076088 
L 173.725213 130.849581 
L 174.390245 130.385428 
L 175.720309 129.041241 
L 176.385341 127.604224 
L 177.050373 126.49397 
L 178.380437 124.978974 
L 179.045469 124.210337 
L 180.375532 123.226333 
L 181.040564 122.64707 
L 181.705596 122.72876 
L 182.370628 123.1892 
L 183.700692 125.082944 
L 184.365724 125.461693 
L 185.030756 125.034673 
L 185.695787 124.332873 
L 186.360819 124.436844 
L 187.025851 124.897283 
L 187.690883 124.700482 
L 188.355915 124.841585 
L 189.020947 124.269748 
L 190.351011 122.572805 
L 191.016043 122.190343 
L 191.681075 121.644499 
L 192.346106 121.889572 
L 193.011138 122.40571 
L 194.341202 122.84387 
L 195.671266 122.535673 
L 196.336298 122.773319 
L 197.666362 121.585088 
L 198.996425 120.753325 
L 199.661457 120.304025 
L 200.326489 119.683917 
L 200.991521 119.327447 
L 201.656553 118.640501 
L 202.321585 117.667636 
L 203.651649 116.947271 
L 204.316681 117.155211 
L 204.981713 117.871864 
L 205.646744 117.834731 
L 206.311776 117.526534 
L 206.976808 117.44113 
L 208.306872 117.964694 
L 208.971904 117.745614 
L 209.636936 117.251755 
L 210.301968 117.147785 
L 210.967 117.262895 
L 211.632031 117.894143 
L 212.297063 119.071235 
L 213.627127 122.238615 
L 214.292159 123.192913 
L 214.957191 123.449126 
L 216.952287 123.08523 
L 217.617319 123.386001 
L 218.28235 122.84387 
L 218.947382 122.583945 
L 219.612414 123.705338 
L 220.277446 123.86872 
L 222.272542 125.628788 
L 224.267638 125.703053 
L 224.932669 125.888714 
L 226.262733 126.661065 
L 226.927765 126.141213 
L 227.592797 125.283459 
L 228.257829 124.960408 
L 228.922861 124.143499 
L 231.582988 119.602226 
L 232.24802 118.963551 
L 232.913052 119.152926 
L 233.578084 118.99697 
L 234.243116 119.36458 
L 234.908148 119.969835 
L 235.57318 121.399426 
L 238.233307 125.160922 
L 238.898339 125.617649 
L 239.563371 126.323161 
L 240.228403 126.352867 
L 240.893435 125.988971 
L 241.558467 125.183202 
L 242.223499 124.043242 
L 244.218594 119.063808 
L 245.548658 115.179776 
L 246.21369 114.010111 
L 247.543754 112.584233 
L 248.208786 111.507398 
L 248.873818 111.381148 
L 249.53885 111.054384 
L 250.203882 111.024679 
L 250.868913 110.660783 
L 252.198977 110.7499 
L 252.864009 111.043245 
L 253.529041 110.215196 
L 254.194073 109.643359 
L 256.189169 108.707627 
L 258.849296 109.487404 
L 259.514328 109.309169 
L 260.17936 109.869866 
L 260.844392 110.237475 
L 261.509424 111.102656 
L 262.839488 114.270036 
L 264.169551 117.77532 
L 264.834583 118.807596 
L 265.499615 120.619649 
L 266.829679 123.155781 
L 267.494711 124.072948 
L 268.159743 124.54824 
L 268.824775 124.737615 
L 269.489807 125.34287 
L 270.154839 125.46912 
L 270.81987 125.138643 
L 271.484902 125.071805 
L 273.479998 122.639643 
L 274.810062 119.999541 
L 275.475094 118.68506 
L 276.140126 116.95841 
L 278.135221 110.653356 
L 278.800253 109.658212 
L 279.465285 108.989832 
L 280.130317 109.06781 
L 281.460381 109.431705 
L 282.790445 110.252328 
L 283.455476 110.345159 
L 284.120508 111.002399 
L 284.78554 112.320594 
L 285.450572 113.920993 
L 286.115604 115.190916 
L 287.445668 118.046385 
L 288.1107 118.748184 
L 288.775732 119.126933 
L 290.105795 121.005825 
L 290.770827 121.146927 
L 293.430955 125.302025 
L 294.095987 125.766178 
L 295.426051 127.890142 
L 296.091083 128.747897 
L 296.756114 129.928702 
L 297.421146 130.686199 
L 298.086178 130.719618 
L 302.741402 133.983542 
L 303.406433 134.276887 
L 304.071465 134.351151 
L 304.736497 134.273174 
L 305.401529 133.653065 
L 306.066561 132.810164 
L 306.731593 131.451124 
L 307.396625 130.931272 
L 308.061657 130.857008 
L 308.726689 130.938699 
L 309.39172 130.244326 
L 310.721784 129.832158 
L 311.386816 129.847011 
L 312.051848 130.396568 
L 312.71688 131.176345 
L 313.381912 130.960978 
L 314.046944 130.426274 
L 314.711976 129.007822 
L 316.042039 125.108937 
L 316.707071 123.738757 
L 317.372103 123.475119 
L 318.037135 123.059237 
L 319.367199 120.872149 
L 320.032231 119.680204 
L 321.362295 116.390287 
L 322.027327 115.528819 
L 322.692358 115.280033 
L 324.022422 115.658782 
L 324.687454 115.677348 
L 326.68255 115.413709 
L 328.012614 115.539959 
L 328.012614 115.539959 
" clip-path="url(#p2958bb3d65)" style="fill: none; stroke: #008000; stroke-opacity: 0.5; stroke-width: 2; stroke-linecap: square"/>
   </g>
   <g id="patch_3">
    <path d="M 49.3975 234.5525 
L 49.3975 11.759062 
" style="fill: none; stroke: #000000; stroke-width: 2; stroke-linejoin: miter; stroke-linecap: square"/>
   </g>
   <g id="patch_4">
    <path d="M 341.28 234.5525 
L 341.28 11.759062 
" style="fill: none; stroke: #000000; stroke-width: 2; stroke-linejoin: miter; stroke-linecap: square"/>
   </g>
   <g id="patch_5">
    <path d="M 49.3975 234.5525 
L 341.28 234.5525 
" style="fill: none; stroke: #000000; stroke-width: 2; stroke-linejoin: miter; stroke-linecap: square"/>
   </g>
   <g id="patch_6">
    <path d="M 49.3975 11.759062 
L 341.28 11.759062 
" style="fill: none; stroke: #000000; stroke-width: 2; stroke-linejoin: miter; stroke-linecap: square"/>
   </g>
   <g id="legend_1">
    <g id="line2d_26">
     <path d="M 245.26125 27.477188 
L 257.26125 27.477188 
L 269.26125 27.477188 
" style="fill: none; stroke: #0000ff; stroke-opacity: 0.5; stroke-width: 2; stroke-linecap: square"/>
    </g>
    <g id="text_14">
     <!-- yz-plane -->
     <g transform="translate(278.86125 31.677188)scale(0.12 -0.12)">
      <defs>
       <path id="DejaVuSans-7a" d="M 353 3500 
L 3084 3500 
L 3084 2975 
L 922 459 
L 3084 459 
L 3084 0 
L 275 0 
L 275 525 
L 2438 3041 
L 353 3041 
L 353 3500 
z
" transform="scale(0.015625)"/>
       <path id="DejaVuSans-2d" d="M 313 2009 
L 1997 2009 
L 1997 1497 
L 313 1497 
L 313 2009 
z
" transform="scale(0.015625)"/>
       <path id="DejaVuSans-70" d="M 1159 525 
L 1159 -1331 
L 581 -1331 
L 581 3500 
L 1159 3500 
L 1159 2969 
Q 1341 3281 1617 3432 
Q 1894 3584 2278 3584 
Q 2916 3584 3314 3078 
Q 3713 2572 3713 1747 
Q 3713 922 3314 415 
Q 2916 -91 2278 -91 
Q 1894 -91 1617 61 
Q 1341 213 1159 525 
z
M 3116 1747 
Q 3116 2381 2855 2742 
Q 2594 3103 2138 3103 
Q 1681 3103 1420 2742 
Q 1159 2381 1159 1747 
Q 1159 1113 1420 752 
Q 1681 391 2138 391 
Q 2594 391 2855 752 
Q 3116 1113 3116 1747 
z
" transform="scale(0.015625)"/>
      </defs>
      <use xlink:href="#DejaVuSans-79"/>
      <use xlink:href="#DejaVuSans-7a" x="59.179688"/>
      <use xlink:href="#DejaVuSans-2d" x="111.669922"/>
      <use xlink:href="#DejaVuSans-70" x="147.753906"/>
      <use xlink:href="#DejaVuSans-6c" x="211.230469"/>
      <use xlink:href="#DejaVuSans-61" x="239.013672"/>
      <use xlink:href="#DejaVuSans-6e" x="300.292969"/>
      <use xlink:href="#DejaVuSans-65" x="363.671875"/>
     </g>
    </g>
    <g id="line2d_27">
     <path d="M 245.26125 45.090938 
L 257.26125 45.090938 
L 269.26125 45.090938 
" style="fill: none; stroke: #ff0000; stroke-opacity: 0.5; stroke-width: 2; stroke-linecap: square"/>
    </g>
    <g id="text_15">
     <!-- xz-plane -->
     <g transform="translate(278.86125 49.290938)scale(0.12 -0.12)">
      <use xlink:href="#DejaVuSans-78"/>
      <use xlink:href="#DejaVuSans-7a" x="59.179688"/>
      <use xlink:href="#DejaVuSans-2d" x="111.669922"/>
      <use xlink:href="#DejaVuSans-70" x="147.753906"/>
      <use xlink:href="#DejaVuSans-6c" x="211.230469"/>
      <use xlink:href="#DejaVuSans-61" x="239.013672"/>
      <use xlink:href="#DejaVuSans-6e" x="300.292969"/>
      <use xlink:href="#DejaVuSans-65" x="363.671875"/>
     </g>
    </g>
    <g id="line2d_28">
     <path d="M 245.26125 62.704687 
L 257.26125 62.704687 
L 269.26125 62.704687 
" style="fill: none; stroke: #008000; stroke-opacity: 0.5; stroke-width: 2; stroke-linecap: square"/>
    </g>
    <g id="text_16">
     <!-- xy-plane -->
     <g transform="translate(278.86125 66.904687)scale(0.12 -0.12)">
      <use xlink:href="#DejaVuSans-78"/>
      <use xlink:href="#DejaVuSans-79" x="59.179688"/>
      <use xlink:href="#DejaVuSans-2d" x="116.609375"/>
      <use xlink:href="#DejaVuSans-70" x="152.693359"/>
      <use xlink:href="#DejaVuSans-6c" x="216.169922"/>
      <use xlink:href="#DejaVuSans-61" x="243.953125"/>
      <use xlink:href="#DejaVuSans-6e" x="305.232422"/>
      <use xlink:href="#DejaVuSans-65" x="368.611328"/>
     </g>
    </g>
   </g>
  </g>
 </g>
 <defs>
  <clipPath id="p2958bb3d65">
   <rect x="49.3975" y="11.759062" width="291.8825" height="222.793437"/>
  </clipPath>
 </defs>
</svg>