<?xml version="1.0" encoding="utf-8" standalone="no"?>
<!DOCTYPE svg PUBLIC "-//W3C//DTD SVG 1.1//EN"
  "http://www.w3.org/Graphics/SVG/1.1/DTD/svg11.dtd">
<svg xmlns:xlink="http://www.w3.org/1999/xlink" width="352.8pt" height="280.8pt" viewBox="0 0 352.8 280.8" xmlns="http://www.w3.org/2000/svg" version="1.1">
 <metadata>
  <rdf:RDF xmlns:dc="http://purl.org/dc/elements/1.1/" xmlns:cc="http://creativecommons.org/ns#" xmlns:rdf="http://www.w3.org/1999/02/22-rdf-syntax-ns#">
   <cc:Work>
    <dc:type rdf:resource="http://purl.org/dc/dcmitype/StillImage"/>
    <dc:date>2022-08-12T22:18:53.502545</dc:date>
    <dc:format>image/svg+xml</dc:format>
    <dc:creator>
     <cc:Agent>
      <dc:title>Matplotlib v3.5.3, https://matplotlib.org/</dc:title>
     </cc:Agent>
    </dc:creator>
   </cc:Work>
  </rdf:RDF>
 </metadata>
 <defs>
  <style type="text/css">*{stroke-linejoin: round; stroke-linecap: butt}</style>
 </defs>
 <g id="figure_1">
  <g id="patch_1">
   <path d="M 0 280.8 
L 352.8 280.8 
L 352.8 0 
L 0 0 
L 0 280.8 
z
" style="fill: none"/>
  </g>
  <g id="axes_1">
   <g id="patch_2">
    <path d="M 49.3975 238.8725 
L 345.6 238.8725 
L 345.6 11.759062 
L 49.3975 11.759062 
z
" style="fill: #ffffff"/>
   </g>
   <g id="matplotlib.axis_1">
    <g id="xtick_1">
     <g id="line2d_1">
      <defs>
       <path id="ma633d9225c" d="M 0 0 
L 0 -6 
" style="stroke: #000000; stroke-width: 2"/>
      </defs>
      <g>
       <use xlink:href="#ma633d9225c" x="62.86125" y="238.8725" style="fill: #ffffff; stroke: #000000; stroke-width: 2"/>
      </g>
     </g>
     <g id="line2d_2">
      <defs>
       <path id="m39d03629c5" d="M 0 0 
L 0 6 
" style="stroke: #000000; stroke-width: 2"/>
      </defs>
      <g>
       <use xlink:href="#m39d03629c5" x="62.86125" y="11.759062" style="fill: #ffffff; stroke: #000000; stroke-width: 2"/>
      </g>
     </g>
     <g id="text_1">
      <!-- 0.0 -->
      <g transform="translate(53.319375 251.490625)scale(0.12 -0.12)">
       <defs>
        <path id="DejaVuSans-30" d="M 2034 4250 
Q 1547 4250 1301 3770 
Q 1056 3291 1056 2328 
Q 1056 1369 1301 889 
Q 1547 409 2034 409 
Q 2525 409 2770 889 
Q 3016 1369 3016 2328 
Q 3016 3291 2770 3770 
Q 2525 4250 2034 4250 
z
M 2034 4750 
Q 2819 4750 3233 4129 
Q 3647 3509 3647 2328 
Q 3647 1150 3233 529 
Q 2819 -91 2034 -91 
Q 1250 -91 836 529 
Q 422 1150 422 2328 
Q 422 3509 836 4129 
Q 1250 4750 2034 4750 
z
" transform="scale(0.015625)"/>
        <path id="DejaVuSans-2e" d="M 684 794 
L 1344 794 
L 1344 0 
L 684 0 
L 684 794 
z
" transform="scale(0.015625)"/>
       </defs>
       <use xlink:href="#DejaVuSans-30"/>
       <use xlink:href="#DejaVuSans-2e" x="63.623047"/>
       <use xlink:href="#DejaVuSans-30" x="95.410156"/>
      </g>
     </g>
    </g>
    <g id="xtick_2">
     <g id="line2d_3">
      <g>
       <use xlink:href="#ma633d9225c" x="116.71625" y="238.8725" style="fill: #ffffff; stroke: #000000; stroke-width: 2"/>
      </g>
     </g>
     <g id="line2d_4">
      <g>
       <use xlink:href="#m39d03629c5" x="116.71625" y="11.759062" style="fill: #ffffff; stroke: #000000; stroke-width: 2"/>
      </g>
     </g>
     <g id="text_2">
      <!-- 0.2 -->
      <g transform="translate(107.174375 251.490625)scale(0.12 -0.12)">
       <defs>
        <path id="DejaVuSans-32" d="M 1228 531 
L 3431 531 
L 3431 0 
L 469 0 
L 469 531 
Q 828 903 1448 1529 
Q 2069 2156 2228 2338 
Q 2531 2678 2651 2914 
Q 2772 3150 2772 3378 
Q 2772 3750 2511 3984 
Q 2250 4219 1831 4219 
Q 1534 4219 1204 4116 
Q 875 4013 500 3803 
L 500 4441 
Q 881 4594 1212 4672 
Q 1544 4750 1819 4750 
Q 2544 4750 2975 4387 
Q 3406 4025 3406 3419 
Q 3406 3131 3298 2873 
Q 3191 2616 2906 2266 
Q 2828 2175 2409 1742 
Q 1991 1309 1228 531 
z
" transform="scale(0.015625)"/>
       </defs>
       <use xlink:href="#DejaVuSans-30"/>
       <use xlink:href="#DejaVuSans-2e" x="63.623047"/>
       <use xlink:href="#DejaVuSans-32" x="95.410156"/>
      </g>
     </g>
    </g>
    <g id="xtick_3">
     <g id="line2d_5">
      <g>
       <use xlink:href="#ma633d9225c" x="170.57125" y="238.8725" style="fill: #ffffff; stroke: #000000; stroke-width: 2"/>
      </g>
     </g>
     <g id="line2d_6">
      <g>
       <use xlink:href="#m39d03629c5" x="170.57125" y="11.759062" style="fill: #ffffff; stroke: #000000; stroke-width: 2"/>
      </g>
     </g>
     <g id="text_3">
      <!-- 0.4 -->
      <g transform="translate(161.029375 251.490625)scale(0.12 -0.12)">
       <defs>
        <path id="DejaVuSans-34" d="M 2419 4116 
L 825 1625 
L 2419 1625 
L 2419 4116 
z
M 2253 4666 
L 3047 4666 
L 3047 1625 
L 3713 1625 
L 3713 1100 
L 3047 1100 
L 3047 0 
L 2419 0 
L 2419 1100 
L 313 1100 
L 313 1709 
L 2253 4666 
z
" transform="scale(0.015625)"/>
       </defs>
       <use xlink:href="#DejaVuSans-30"/>
       <use xlink:href="#DejaVuSans-2e" x="63.623047"/>
       <use xlink:href="#DejaVuSans-34" x="95.410156"/>
      </g>
     </g>
    </g>
    <g id="xtick_4">
     <g id="line2d_7">
      <g>
       <use xlink:href="#ma633d9225c" x="224.42625" y="238.8725" style="fill: #ffffff; stroke: #000000; stroke-width: 2"/>
      </g>
     </g>
     <g id="line2d_8">
      <g>
       <use xlink:href="#m39d03629c5" x="224.42625" y="11.759062" style="fill: #ffffff; stroke: #000000; stroke-width: 2"/>
      </g>
     </g>
     <g id="text_4">
      <!-- 0.6 -->
      <g transform="translate(214.884375 251.490625)scale(0.12 -0.12)">
       <defs>
        <path id="DejaVuSans-36" d="M 2113 2584 
Q 1688 2584 1439 2293 
Q 1191 2003 1191 1497 
Q 1191 994 1439 701 
Q 1688 409 2113 409 
Q 2538 409 2786 701 
Q 3034 994 3034 1497 
Q 3034 2003 2786 2293 
Q 2538 2584 2113 2584 
z
M 3366 4563 
L 3366 3988 
Q 3128 4100 2886 4159 
Q 2644 4219 2406 4219 
Q 1781 4219 1451 3797 
Q 1122 3375 1075 2522 
Q 1259 2794 1537 2939 
Q 1816 3084 2150 3084 
Q 2853 3084 3261 2657 
Q 3669 2231 3669 1497 
Q 3669 778 3244 343 
Q 2819 -91 2113 -91 
Q 1303 -91 875 529 
Q 447 1150 447 2328 
Q 447 3434 972 4092 
Q 1497 4750 2381 4750 
Q 2619 4750 2861 4703 
Q 3103 4656 3366 4563 
z
" transform="scale(0.015625)"/>
       </defs>
       <use xlink:href="#DejaVuSans-30"/>
       <use xlink:href="#DejaVuSans-2e" x="63.623047"/>
       <use xlink:href="#DejaVuSans-36" x="95.410156"/>
      </g>
     </g>
    </g>
    <g id="xtick_5">
     <g id="line2d_9">
      <g>
       <use xlink:href="#ma633d9225c" x="278.28125" y="238.8725" style="fill: #ffffff; stroke: #000000; stroke-width: 2"/>
      </g>
     </g>
     <g id="line2d_10">
      <g>
       <use xlink:href="#m39d03629c5" x="278.28125" y="11.759062" style="fill: #ffffff; stroke: #000000; stroke-width: 2"/>
      </g>
     </g>
     <g id="text_5">
      <!-- 0.8 -->
      <g transform="translate(268.739375 251.490625)scale(0.12 -0.12)">
       <defs>
        <path id="DejaVuSans-38" d="M 2034 2216 
Q 1584 2216 1326 1975 
Q 1069 1734 1069 1313 
Q 1069 891 1326 650 
Q 1584 409 2034 409 
Q 2484 409 2743 651 
Q 3003 894 3003 1313 
Q 3003 1734 2745 1975 
Q 2488 2216 2034 2216 
z
M 1403 2484 
Q 997 2584 770 2862 
Q 544 3141 544 3541 
Q 544 4100 942 4425 
Q 1341 4750 2034 4750 
Q 2731 4750 3128 4425 
Q 3525 4100 3525 3541 
Q 3525 3141 3298 2862 
Q 3072 2584 2669 2484 
Q 3125 2378 3379 2068 
Q 3634 1759 3634 1313 
Q 3634 634 3220 271 
Q 2806 -91 2034 -91 
Q 1263 -91 848 271 
Q 434 634 434 1313 
Q 434 1759 690 2068 
Q 947 2378 1403 2484 
z
M 1172 3481 
Q 1172 3119 1398 2916 
Q 1625 2713 2034 2713 
Q 2441 2713 2670 2916 
Q 2900 3119 2900 3481 
Q 2900 3844 2670 4047 
Q 2441 4250 2034 4250 
Q 1625 4250 1398 4047 
Q 1172 3844 1172 3481 
z
" transform="scale(0.015625)"/>
       </defs>
       <use xlink:href="#DejaVuSans-30"/>
       <use xlink:href="#DejaVuSans-2e" x="63.623047"/>
       <use xlink:href="#DejaVuSans-38" x="95.410156"/>
      </g>
     </g>
    </g>
    <g id="xtick_6">
     <g id="line2d_11">
      <g>
       <use xlink:href="#ma633d9225c" x="332.13625" y="238.8725" style="fill: #ffffff; stroke: #000000; stroke-width: 2"/>
      </g>
     </g>
     <g id="line2d_12">
      <g>
       <use xlink:href="#m39d03629c5" x="332.13625" y="11.759062" style="fill: #ffffff; stroke: #000000; stroke-width: 2"/>
      </g>
     </g>
     <g id="text_6">
      <!-- 1.0 -->
      <g transform="translate(322.594375 251.490625)scale(0.12 -0.12)">
       <defs>
        <path id="DejaVuSans-31" d="M 794 531 
L 1825 531 
L 1825 4091 
L 703 3866 
L 703 4441 
L 1819 4666 
L 2450 4666 
L 2450 531 
L 3481 531 
L 3481 0 
L 794 0 
L 794 531 
z
" transform="scale(0.015625)"/>
       </defs>
       <use xlink:href="#DejaVuSans-31"/>
       <use xlink:href="#DejaVuSans-2e" x="63.623047"/>
       <use xlink:href="#DejaVuSans-30" x="95.410156"/>
      </g>
     </g>
    </g>
    <g id="text_7">
     <!-- Fractional distance along given axis -->
     <g transform="translate(89.983438 271.104375)scale(0.12 -0.12)">
      <defs>
       <path id="DejaVuSans-46" d="M 628 4666 
L 3309 4666 
L 3309 4134 
L 1259 4134 
L 1259 2759 
L 3109 2759 
L 3109 2228 
L 1259 2228 
L 1259 0 
L 628 0 
L 628 4666 
z
" transform="scale(0.015625)"/>
       <path id="DejaVuSans-72" d="M 2631 2963 
Q 2534 3019 2420 3045 
Q 2306 3072 2169 3072 
Q 1681 3072 1420 2755 
Q 1159 2438 1159 1844 
L 1159 0 
L 581 0 
L 581 3500 
L 1159 3500 
L 1159 2956 
Q 1341 3275 1631 3429 
Q 1922 3584 2338 3584 
Q 2397 3584 2469 3576 
Q 2541 3569 2628 3553 
L 2631 2963 
z
" transform="scale(0.015625)"/>
       <path id="DejaVuSans-61" d="M 2194 1759 
Q 1497 1759 1228 1600 
Q 959 1441 959 1056 
Q 959 750 1161 570 
Q 1363 391 1709 391 
Q 2188 391 2477 730 
Q 2766 1069 2766 1631 
L 2766 1759 
L 2194 1759 
z
M 3341 1997 
L 3341 0 
L 2766 0 
L 2766 531 
Q 2569 213 2275 61 
Q 1981 -91 1556 -91 
Q 1019 -91 701 211 
Q 384 513 384 1019 
Q 384 1609 779 1909 
Q 1175 2209 1959 2209 
L 2766 2209 
L 2766 2266 
Q 2766 2663 2505 2880 
Q 2244 3097 1772 3097 
Q 1472 3097 1187 3025 
Q 903 2953 641 2809 
L 641 3341 
Q 956 3463 1253 3523 
Q 1550 3584 1831 3584 
Q 2591 3584 2966 3190 
Q 3341 2797 3341 1997 
z
" transform="scale(0.015625)"/>
       <path id="DejaVuSans-63" d="M 3122 3366 
L 3122 2828 
Q 2878 2963 2633 3030 
Q 2388 3097 2138 3097 
Q 1578 3097 1268 2742 
Q 959 2388 959 1747 
Q 959 1106 1268 751 
Q 1578 397 2138 397 
Q 2388 397 2633 464 
Q 2878 531 3122 666 
L 3122 134 
Q 2881 22 2623 -34 
Q 2366 -91 2075 -91 
Q 1284 -91 818 406 
Q 353 903 353 1747 
Q 353 2603 823 3093 
Q 1294 3584 2113 3584 
Q 2378 3584 2631 3529 
Q 2884 3475 3122 3366 
z
" transform="scale(0.015625)"/>
       <path id="DejaVuSans-74" d="M 1172 4494 
L 1172 3500 
L 2356 3500 
L 2356 3053 
L 1172 3053 
L 1172 1153 
Q 1172 725 1289 603 
Q 1406 481 1766 481 
L 2356 481 
L 2356 0 
L 1766 0 
Q 1100 0 847 248 
Q 594 497 594 1153 
L 594 3053 
L 172 3053 
L 172 3500 
L 594 3500 
L 594 4494 
L 1172 4494 
z
" transform="scale(0.015625)"/>
       <path id="DejaVuSans-69" d="M 603 3500 
L 1178 3500 
L 1178 0 
L 603 0 
L 603 3500 
z
M 603 4863 
L 1178 4863 
L 1178 4134 
L 603 4134 
L 603 4863 
z
" transform="scale(0.015625)"/>
       <path id="DejaVuSans-6f" d="M 1959 3097 
Q 1497 3097 1228 2736 
Q 959 2375 959 1747 
Q 959 1119 1226 758 
Q 1494 397 1959 397 
Q 2419 397 2687 759 
Q 2956 1122 2956 1747 
Q 2956 2369 2687 2733 
Q 2419 3097 1959 3097 
z
M 1959 3584 
Q 2709 3584 3137 3096 
Q 3566 2609 3566 1747 
Q 3566 888 3137 398 
Q 2709 -91 1959 -91 
Q 1206 -91 779 398 
Q 353 888 353 1747 
Q 353 2609 779 3096 
Q 1206 3584 1959 3584 
z
" transform="scale(0.015625)"/>
       <path id="DejaVuSans-6e" d="M 3513 2113 
L 3513 0 
L 2938 0 
L 2938 2094 
Q 2938 2591 2744 2837 
Q 2550 3084 2163 3084 
Q 1697 3084 1428 2787 
Q 1159 2491 1159 1978 
L 1159 0 
L 581 0 
L 581 3500 
L 1159 3500 
L 1159 2956 
Q 1366 3272 1645 3428 
Q 1925 3584 2291 3584 
Q 2894 3584 3203 3211 
Q 3513 2838 3513 2113 
z
" transform="scale(0.015625)"/>
       <path id="DejaVuSans-6c" d="M 603 4863 
L 1178 4863 
L 1178 0 
L 603 0 
L 603 4863 
z
" transform="scale(0.015625)"/>
       <path id="DejaVuSans-20" transform="scale(0.015625)"/>
       <path id="DejaVuSans-64" d="M 2906 2969 
L 2906 4863 
L 3481 4863 
L 3481 0 
L 2906 0 
L 2906 525 
Q 2725 213 2448 61 
Q 2172 -91 1784 -91 
Q 1150 -91 751 415 
Q 353 922 353 1747 
Q 353 2572 751 3078 
Q 1150 3584 1784 3584 
Q 2172 3584 2448 3432 
Q 2725 3281 2906 2969 
z
M 947 1747 
Q 947 1113 1208 752 
Q 1469 391 1925 391 
Q 2381 391 2643 752 
Q 2906 1113 2906 1747 
Q 2906 2381 2643 2742 
Q 2381 3103 1925 3103 
Q 1469 3103 1208 2742 
Q 947 2381 947 1747 
z
" transform="scale(0.015625)"/>
       <path id="DejaVuSans-73" d="M 2834 3397 
L 2834 2853 
Q 2591 2978 2328 3040 
Q 2066 3103 1784 3103 
Q 1356 3103 1142 2972 
Q 928 2841 928 2578 
Q 928 2378 1081 2264 
Q 1234 2150 1697 2047 
L 1894 2003 
Q 2506 1872 2764 1633 
Q 3022 1394 3022 966 
Q 3022 478 2636 193 
Q 2250 -91 1575 -91 
Q 1294 -91 989 -36 
Q 684 19 347 128 
L 347 722 
Q 666 556 975 473 
Q 1284 391 1588 391 
Q 1994 391 2212 530 
Q 2431 669 2431 922 
Q 2431 1156 2273 1281 
Q 2116 1406 1581 1522 
L 1381 1569 
Q 847 1681 609 1914 
Q 372 2147 372 2553 
Q 372 3047 722 3315 
Q 1072 3584 1716 3584 
Q 2034 3584 2315 3537 
Q 2597 3491 2834 3397 
z
" transform="scale(0.015625)"/>
       <path id="DejaVuSans-65" d="M 3597 1894 
L 3597 1613 
L 953 1613 
Q 991 1019 1311 708 
Q 1631 397 2203 397 
Q 2534 397 2845 478 
Q 3156 559 3463 722 
L 3463 178 
Q 3153 47 2828 -22 
Q 2503 -91 2169 -91 
Q 1331 -91 842 396 
Q 353 884 353 1716 
Q 353 2575 817 3079 
Q 1281 3584 2069 3584 
Q 2775 3584 3186 3129 
Q 3597 2675 3597 1894 
z
M 3022 2063 
Q 3016 2534 2758 2815 
Q 2500 3097 2075 3097 
Q 1594 3097 1305 2825 
Q 1016 2553 972 2059 
L 3022 2063 
z
" transform="scale(0.015625)"/>
       <path id="DejaVuSans-67" d="M 2906 1791 
Q 2906 2416 2648 2759 
Q 2391 3103 1925 3103 
Q 1463 3103 1205 2759 
Q 947 2416 947 1791 
Q 947 1169 1205 825 
Q 1463 481 1925 481 
Q 2391 481 2648 825 
Q 2906 1169 2906 1791 
z
M 3481 434 
Q 3481 -459 3084 -895 
Q 2688 -1331 1869 -1331 
Q 1566 -1331 1297 -1286 
Q 1028 -1241 775 -1147 
L 775 -588 
Q 1028 -725 1275 -790 
Q 1522 -856 1778 -856 
Q 2344 -856 2625 -561 
Q 2906 -266 2906 331 
L 2906 616 
Q 2728 306 2450 153 
Q 2172 0 1784 0 
Q 1141 0 747 490 
Q 353 981 353 1791 
Q 353 2603 747 3093 
Q 1141 3584 1784 3584 
Q 2172 3584 2450 3431 
Q 2728 3278 2906 2969 
L 2906 3500 
L 3481 3500 
L 3481 434 
z
" transform="scale(0.015625)"/>
       <path id="DejaVuSans-76" d="M 191 3500 
L 800 3500 
L 1894 563 
L 2988 3500 
L 3597 3500 
L 2284 0 
L 1503 0 
L 191 3500 
z
" transform="scale(0.015625)"/>
       <path id="DejaVuSans-78" d="M 3513 3500 
L 2247 1797 
L 3578 0 
L 2900 0 
L 1881 1375 
L 863 0 
L 184 0 
L 1544 1831 
L 300 3500 
L 978 3500 
L 1906 2253 
L 2834 3500 
L 3513 3500 
z
" transform="scale(0.015625)"/>
      </defs>
      <use xlink:href="#DejaVuSans-46"/>
      <use xlink:href="#DejaVuSans-72" x="50.269531"/>
      <use xlink:href="#DejaVuSans-61" x="91.382812"/>
      <use xlink:href="#DejaVuSans-63" x="152.662109"/>
      <use xlink:href="#DejaVuSans-74" x="207.642578"/>
      <use xlink:href="#DejaVuSans-69" x="246.851562"/>
      <use xlink:href="#DejaVuSans-6f" x="274.634766"/>
      <use xlink:href="#DejaVuSans-6e" x="335.816406"/>
      <use xlink:href="#DejaVuSans-61" x="399.195312"/>
      <use xlink:href="#DejaVuSans-6c" x="460.474609"/>
      <use xlink:href="#DejaVuSans-20" x="488.257812"/>
      <use xlink:href="#DejaVuSans-64" x="520.044922"/>
      <use xlink:href="#DejaVuSans-69" x="583.521484"/>
      <use xlink:href="#DejaVuSans-73" x="611.304688"/>
      <use xlink:href="#DejaVuSans-74" x="663.404297"/>
      <use xlink:href="#DejaVuSans-61" x="702.613281"/>
      <use xlink:href="#DejaVuSans-6e" x="763.892578"/>
      <use xlink:href="#DejaVuSans-63" x="827.271484"/>
      <use xlink:href="#DejaVuSans-65" x="882.251953"/>
      <use xlink:href="#DejaVuSans-20" x="943.775391"/>
      <use xlink:href="#DejaVuSans-61" x="975.5625"/>
      <use xlink:href="#DejaVuSans-6c" x="1036.841797"/>
      <use xlink:href="#DejaVuSans-6f" x="1064.625"/>
      <use xlink:href="#DejaVuSans-6e" x="1125.806641"/>
      <use xlink:href="#DejaVuSans-67" x="1189.185547"/>
      <use xlink:href="#DejaVuSans-20" x="1252.662109"/>
      <use xlink:href="#DejaVuSans-67" x="1284.449219"/>
      <use xlink:href="#DejaVuSans-69" x="1347.925781"/>
      <use xlink:href="#DejaVuSans-76" x="1375.708984"/>
      <use xlink:href="#DejaVuSans-65" x="1434.888672"/>
      <use xlink:href="#DejaVuSans-6e" x="1496.412109"/>
      <use xlink:href="#DejaVuSans-20" x="1559.791016"/>
      <use xlink:href="#DejaVuSans-61" x="1591.578125"/>
      <use xlink:href="#DejaVuSans-78" x="1652.857422"/>
      <use xlink:href="#DejaVuSans-69" x="1712.037109"/>
      <use xlink:href="#DejaVuSans-73" x="1739.820312"/>
     </g>
    </g>
   </g>
   <g id="matplotlib.axis_2">
    <g id="ytick_1">
     <g id="line2d_13">
      <defs>
       <path id="m215d59d945" d="M 0 0 
L 6 0 
" style="stroke: #000000; stroke-width: 2"/>
      </defs>
      <g>
       <use xlink:href="#m215d59d945" x="49.3975" y="238.8725" style="fill: #ffffff; stroke: #000000; stroke-width: 2"/>
      </g>
     </g>
     <g id="line2d_14">
      <defs>
       <path id="m7d41f2445f" d="M 0 0 
L -6 0 
" style="stroke: #000000; stroke-width: 2"/>
      </defs>
      <g>
       <use xlink:href="#m7d41f2445f" x="345.6" y="238.8725" style="fill: #ffffff; stroke: #000000; stroke-width: 2"/>
      </g>
     </g>
     <g id="text_8">
      <!-- 0.0 -->
      <g transform="translate(26.81375 243.431562)scale(0.12 -0.12)">
       <use xlink:href="#DejaVuSans-30"/>
       <use xlink:href="#DejaVuSans-2e" x="63.623047"/>
       <use xlink:href="#DejaVuSans-30" x="95.410156"/>
      </g>
     </g>
    </g>
    <g id="ytick_2">
     <g id="line2d_15">
      <g>
       <use xlink:href="#m215d59d945" x="49.3975" y="193.449812" style="fill: #ffffff; stroke: #000000; stroke-width: 2"/>
      </g>
     </g>
     <g id="line2d_16">
      <g>
       <use xlink:href="#m7d41f2445f" x="345.6" y="193.449812" style="fill: #ffffff; stroke: #000000; stroke-width: 2"/>
      </g>
     </g>
     <g id="text_9">
      <!-- 0.2 -->
      <g transform="translate(26.81375 198.008875)scale(0.12 -0.12)">
       <use xlink:href="#DejaVuSans-30"/>
       <use xlink:href="#DejaVuSans-2e" x="63.623047"/>
       <use xlink:href="#DejaVuSans-32" x="95.410156"/>
      </g>
     </g>
    </g>
    <g id="ytick_3">
     <g id="line2d_17">
      <g>
       <use xlink:href="#m215d59d945" x="49.3975" y="148.027125" style="fill: #ffffff; stroke: #000000; stroke-width: 2"/>
      </g>
     </g>
     <g id="line2d_18">
      <g>
       <use xlink:href="#m7d41f2445f" x="345.6" y="148.027125" style="fill: #ffffff; stroke: #000000; stroke-width: 2"/>
      </g>
     </g>
     <g id="text_10">
      <!-- 0.4 -->
      <g transform="translate(26.81375 152.586187)scale(0.12 -0.12)">
       <use xlink:href="#DejaVuSans-30"/>
       <use xlink:href="#DejaVuSans-2e" x="63.623047"/>
       <use xlink:href="#DejaVuSans-34" x="95.410156"/>
      </g>
     </g>
    </g>
    <g id="ytick_4">
     <g id="line2d_19">
      <g>
       <use xlink:href="#m215d59d945" x="49.3975" y="102.604437" style="fill: #ffffff; stroke: #000000; stroke-width: 2"/>
      </g>
     </g>
     <g id="line2d_20">
      <g>
       <use xlink:href="#m7d41f2445f" x="345.6" y="102.604437" style="fill: #ffffff; stroke: #000000; stroke-width: 2"/>
      </g>
     </g>
     <g id="text_11">
      <!-- 0.6 -->
      <g transform="translate(26.81375 107.1635)scale(0.12 -0.12)">
       <use xlink:href="#DejaVuSans-30"/>
       <use xlink:href="#DejaVuSans-2e" x="63.623047"/>
       <use xlink:href="#DejaVuSans-36" x="95.410156"/>
      </g>
     </g>
    </g>
    <g id="ytick_5">
     <g id="line2d_21">
      <g>
       <use xlink:href="#m215d59d945" x="49.3975" y="57.18175" style="fill: #ffffff; stroke: #000000; stroke-width: 2"/>
      </g>
     </g>
     <g id="line2d_22">
      <g>
       <use xlink:href="#m7d41f2445f" x="345.6" y="57.18175" style="fill: #ffffff; stroke: #000000; stroke-width: 2"/>
      </g>
     </g>
     <g id="text_12">
      <!-- 0.8 -->
      <g transform="translate(26.81375 61.740812)scale(0.12 -0.12)">
       <use xlink:href="#DejaVuSans-30"/>
       <use xlink:href="#DejaVuSans-2e" x="63.623047"/>
       <use xlink:href="#DejaVuSans-38" x="95.410156"/>
      </g>
     </g>
    </g>
    <g id="ytick_6">
     <g id="line2d_23">
      <g>
       <use xlink:href="#m215d59d945" x="49.3975" y="11.759062" style="fill: #ffffff; stroke: #000000; stroke-width: 2"/>
      </g>
     </g>
     <g id="line2d_24">
      <g>
       <use xlink:href="#m7d41f2445f" x="345.6" y="11.759062" style="fill: #ffffff; stroke: #000000; stroke-width: 2"/>
      </g>
     </g>
     <g id="text_13">
      <!-- 1.0 -->
      <g transform="translate(26.81375 16.318125)scale(0.12 -0.12)">
       <use xlink:href="#DejaVuSans-31"/>
       <use xlink:href="#DejaVuSans-2e" x="63.623047"/>
       <use xlink:href="#DejaVuSans-30" x="95.410156"/>
      </g>
     </g>
    </g>
    <g id="text_14">
     <!-- Porosity of slice -->
     <g transform="translate(16.318125 172.133594)rotate(-90)scale(0.12 -0.12)">
      <defs>
       <path id="DejaVuSans-50" d="M 1259 4147 
L 1259 2394 
L 2053 2394 
Q 2494 2394 2734 2622 
Q 2975 2850 2975 3272 
Q 2975 3691 2734 3919 
Q 2494 4147 2053 4147 
L 1259 4147 
z
M 628 4666 
L 2053 4666 
Q 2838 4666 3239 4311 
Q 3641 3956 3641 3272 
Q 3641 2581 3239 2228 
Q 2838 1875 2053 1875 
L 1259 1875 
L 1259 0 
L 628 0 
L 628 4666 
z
" transform="scale(0.015625)"/>
       <path id="DejaVuSans-79" d="M 2059 -325 
Q 1816 -950 1584 -1140 
Q 1353 -1331 966 -1331 
L 506 -1331 
L 506 -850 
L 844 -850 
Q 1081 -850 1212 -737 
Q 1344 -625 1503 -206 
L 1606 56 
L 191 3500 
L 800 3500 
L 1894 763 
L 2988 3500 
L 3597 3500 
L 2059 -325 
z
" transform="scale(0.015625)"/>
       <path id="DejaVuSans-66" d="M 2375 4863 
L 2375 4384 
L 1825 4384 
Q 1516 4384 1395 4259 
Q 1275 4134 1275 3809 
L 1275 3500 
L 2222 3500 
L 2222 3053 
L 1275 3053 
L 1275 0 
L 697 0 
L 697 3053 
L 147 3053 
L 147 3500 
L 697 3500 
L 697 3744 
Q 697 4328 969 4595 
Q 1241 4863 1831 4863 
L 2375 4863 
z
" transform="scale(0.015625)"/>
      </defs>
      <use xlink:href="#DejaVuSans-50"/>
      <use xlink:href="#DejaVuSans-6f" x="56.677734"/>
      <use xlink:href="#DejaVuSans-72" x="117.859375"/>
      <use xlink:href="#DejaVuSans-6f" x="156.722656"/>
      <use xlink:href="#DejaVuSans-73" x="217.904297"/>
      <use xlink:href="#DejaVuSans-69" x="270.003906"/>
      <use xlink:href="#DejaVuSans-74" x="297.787109"/>
      <use xlink:href="#DejaVuSans-79" x="336.996094"/>
      <use xlink:href="#DejaVuSans-20" x="396.175781"/>
      <use xlink:href="#DejaVuSans-6f" x="427.962891"/>
      <use xlink:href="#DejaVuSans-66" x="489.144531"/>
      <use xlink:href="#DejaVuSans-20" x="524.349609"/>
      <use xlink:href="#DejaVuSans-73" x="556.136719"/>
      <use xlink:href="#DejaVuSans-6c" x="608.236328"/>
      <use xlink:href="#DejaVuSans-69" x="636.019531"/>
      <use xlink:href="#DejaVuSans-63" x="663.802734"/>
      <use xlink:href="#DejaVuSans-65" x="718.783203"/>
     </g>
    </g>
   </g>
   <g id="line2d_25">
    <path d="M 62.86125 123.618108 
L 65.567531 123.211197 
L 68.273813 122.488219 
L 69.626954 121.511631 
L 73.686376 118.209023 
L 76.392657 116.80092 
L 77.745798 116.420505 
L 79.098938 116.445109 
L 80.452079 116.182036 
L 81.80522 115.559366 
L 83.158361 115.284938 
L 84.511501 114.889382 
L 85.864642 114.713369 
L 87.217783 114.830711 
L 88.570923 115.515836 
L 92.630345 118.415318 
L 93.983486 120.436628 
L 96.689768 123.777088 
L 98.042908 126.188275 
L 99.396049 128.099813 
L 100.74919 129.282696 
L 103.455471 131.124207 
L 106.161753 132.1765 
L 107.514893 132.572056 
L 108.868034 131.994809 
L 110.221175 131.697669 
L 112.927456 131.809333 
L 114.280597 132.257882 
L 115.633737 132.973289 
L 119.69316 135.846274 
L 122.399441 136.325105 
L 127.812004 138.236643 
L 129.165144 138.210147 
L 130.518285 137.528806 
L 131.871426 136.976164 
L 133.224567 136.249401 
L 137.283989 132.555022 
L 138.637129 131.065536 
L 139.99027 129.789916 
L 141.343411 128.2569 
L 144.049692 124.691219 
L 145.402833 123.720309 
L 146.755974 123.012472 
L 149.462255 123.606753 
L 150.815396 124.11965 
L 153.521677 125.885457 
L 156.227959 127.138367 
L 161.640521 128.563503 
L 162.993662 128.819006 
L 165.699943 129.121824 
L 167.053084 128.667597 
L 168.406225 128.421558 
L 181.937632 119.613341 
L 184.643913 118.808981 
L 185.997054 118.816552 
L 187.350195 118.509949 
L 188.703335 118.33015 
L 191.409617 118.615935 
L 195.469039 118.231735 
L 196.82218 118.485345 
L 200.881602 117.504972 
L 202.234742 117.434945 
L 203.587883 117.484153 
L 204.941024 118.462633 
L 207.647305 121.083901 
L 209.000446 123.003009 
L 210.353587 124.407327 
L 211.706727 125.611029 
L 214.413009 127.1554 
L 218.472431 127.942727 
L 219.825572 128.425343 
L 221.178712 128.487799 
L 222.531853 128.222833 
L 223.884994 128.188766 
L 225.238134 127.762929 
L 226.591275 126.98128 
L 227.944416 126.445671 
L 229.297557 126.224235 
L 230.650697 125.542895 
L 232.003838 124.695005 
L 233.356979 123.98149 
L 234.710119 123.107103 
L 236.06326 122.052918 
L 237.416401 121.435927 
L 238.769541 121.462423 
L 241.475823 122.592313 
L 242.828964 123.381532 
L 244.182104 123.52537 
L 246.888386 123.400458 
L 248.241526 123.828188 
L 252.300948 126.30751 
L 260.419793 130.458008 
L 261.772933 131.008758 
L 263.126074 131.828259 
L 264.479215 132.399828 
L 265.832356 132.424432 
L 267.185496 132.049695 
L 269.891778 130.74947 
L 271.244918 130.702155 
L 272.598059 130.475042 
L 275.30434 128.817113 
L 278.010622 127.299239 
L 279.363763 126.328329 
L 280.716903 124.910762 
L 283.423185 122.866741 
L 284.776325 122.242179 
L 286.129466 121.935576 
L 287.482607 121.415108 
L 292.89517 119.8802 
L 294.24831 119.810173 
L 295.601451 120.008897 
L 298.307732 121.547591 
L 299.660873 121.958288 
L 301.014014 122.579064 
L 302.367155 123.693813 
L 303.720295 124.467891 
L 305.073436 124.895621 
L 306.426577 125.041353 
L 307.779717 125.395271 
L 309.132858 125.544787 
L 311.839139 126.589509 
L 314.545421 126.668999 
L 317.251702 126.447563 
L 318.604843 126.112571 
L 319.957984 125.97441 
L 321.311124 125.949806 
L 322.664265 126.48163 
L 325.370546 126.646287 
L 326.723687 126.510019 
L 329.429969 126.470275 
L 332.13625 126.385107 
L 332.13625 126.385107 
" clip-path="url(#p5913dab9e1)" style="fill: none; stroke: #0000ff; stroke-opacity: 0.5; stroke-width: 2; stroke-linecap: square"/>
   </g>
   <g id="line2d_26">
    <path d="M 62.86125 119.811119 
L 63.761835 120.060944 
L 64.662421 120.563433 
L 65.563006 121.222062 
L 66.463591 122.218522 
L 67.364176 123.606753 
L 68.264762 125.568445 
L 70.065932 128.163216 
L 70.966518 128.833201 
L 73.668273 131.365515 
L 74.568859 131.819742 
L 75.469444 131.646568 
L 76.370029 131.896393 
L 77.270615 131.714702 
L 78.1712 131.203697 
L 79.071785 131.212214 
L 79.97237 131.345643 
L 80.872956 131.240603 
L 82.674126 130.028385 
L 83.574712 129.108576 
L 85.375882 126.845958 
L 86.276467 125.327137 
L 88.077638 122.865795 
L 89.878809 121.758617 
L 90.779394 121.344135 
L 93.48115 118.928216 
L 94.381735 118.65568 
L 95.28232 117.962984 
L 97.083491 115.21775 
L 98.884661 114.837335 
L 99.785247 114.30078 
L 100.685832 114.283746 
L 101.586417 114.630094 
L 103.387588 115.677655 
L 105.188758 117.392361 
L 106.089344 117.940272 
L 107.890514 118.743686 
L 108.791099 119.49316 
L 109.691685 120.608855 
L 112.393441 124.946722 
L 113.294026 126.570583 
L 114.194611 127.606788 
L 115.095196 128.816167 
L 115.995782 130.621719 
L 116.896367 132.157574 
L 118.697538 134.264051 
L 119.598123 135.447879 
L 120.498708 136.816238 
L 123.200464 139.288935 
L 124.101049 139.243513 
L 125.001635 138.803481 
L 125.90222 137.352793 
L 127.70339 135.700543 
L 128.603976 134.570654 
L 131.305732 130.468417 
L 132.206317 129.633775 
L 133.106902 129.207938 
L 134.007487 128.975147 
L 134.908073 129.119931 
L 135.808658 129.063153 
L 136.709243 128.154699 
L 137.609829 127.567043 
L 139.410999 128.696933 
L 140.311584 129.168193 
L 142.112755 129.630937 
L 143.01334 129.557125 
L 143.913926 129.863728 
L 144.814511 130.601847 
L 145.715096 132.137701 
L 146.615681 133.026282 
L 148.416852 133.912025 
L 149.317437 134.102232 
L 150.218023 133.991515 
L 151.118608 133.753045 
L 152.019193 134.556459 
L 152.919778 135.669315 
L 153.820364 136.99509 
L 154.720949 138.031295 
L 155.621534 139.371264 
L 158.32329 142.204504 
L 159.223875 143.022113 
L 160.124461 143.175414 
L 161.025046 143.087408 
L 162.826217 142.201665 
L 163.726802 142.329417 
L 164.627387 143.115797 
L 166.428558 144.032767 
L 167.329143 144.762369 
L 168.229728 145.753152 
L 170.030899 145.673662 
L 170.931484 146.258479 
L 171.832069 147.067571 
L 172.732655 147.41108 
L 174.533825 147.192483 
L 176.334996 146.048399 
L 177.235581 144.668685 
L 178.136166 142.653053 
L 179.036752 141.208044 
L 181.738508 135.99863 
L 182.639093 134.508198 
L 183.539678 132.756585 
L 184.440263 130.573457 
L 185.340849 128.691255 
L 186.241434 127.592593 
L 187.142019 126.76079 
L 188.042605 125.278875 
L 189.843775 121.338457 
L 190.74436 119.927515 
L 191.644946 119.067323 
L 192.545531 117.829555 
L 193.446116 117.168087 
L 196.147872 114.201417 
L 197.048457 113.735835 
L 197.949043 113.889136 
L 198.849628 113.891975 
L 199.750213 114.087861 
L 200.650798 114.712423 
L 201.551384 115.527192 
L 202.451969 117.119825 
L 203.352554 118.062346 
L 204.25314 119.294436 
L 205.153725 121.003465 
L 206.954895 123.484679 
L 207.855481 124.126275 
L 208.756066 123.609592 
L 209.656651 122.806178 
L 210.557237 122.448474 
L 211.457822 122.82605 
L 212.358407 123.43074 
L 213.258992 123.737343 
L 215.060163 124.943883 
L 215.960748 125.832464 
L 216.861334 126.559227 
L 217.761919 127.694795 
L 218.662504 128.396007 
L 219.563089 128.594732 
L 220.463675 128.611765 
L 221.36426 127.765767 
L 222.264845 126.048222 
L 223.165431 125.037567 
L 224.066016 123.584041 
L 224.966601 122.919734 
L 226.767772 120.906942 
L 229.469528 117.267449 
L 230.370113 116.248277 
L 232.171283 113.866425 
L 236.67421 108.645655 
L 237.574795 107.731523 
L 238.47538 106.436977 
L 239.375966 105.559751 
L 240.276551 104.920995 
L 241.177136 103.91034 
L 243.878892 104.049447 
L 244.779477 105.094169 
L 246.580648 108.617266 
L 249.282404 112.648529 
L 250.182989 114.258196 
L 251.083574 115.277367 
L 252.884745 116.682632 
L 253.78533 117.116986 
L 255.586501 119.0219 
L 258.288257 121.602477 
L 259.188842 122.141871 
L 260.089427 122.351951 
L 260.990013 121.917596 
L 261.890598 121.19935 
L 263.691768 118.672713 
L 264.592354 117.162409 
L 267.29411 113.610922 
L 268.194695 112.662724 
L 269.09528 111.441989 
L 269.995865 110.664126 
L 270.896451 110.346167 
L 271.797036 110.683998 
L 272.697621 110.630059 
L 273.598207 111.007635 
L 276.299962 113.327031 
L 277.200548 113.718801 
L 278.101133 114.939536 
L 279.001718 115.887735 
L 279.902304 117.352616 
L 280.802889 118.573351 
L 281.703474 120.279541 
L 282.604059 121.522987 
L 284.40523 125.795558 
L 287.106986 130.096519 
L 288.007571 130.809088 
L 288.908156 130.865866 
L 290.709327 131.48475 
L 291.609912 131.246281 
L 295.212253 126.317919 
L 296.112839 124.747998 
L 297.914009 123.053164 
L 298.814594 122.644359 
L 299.71518 122.059542 
L 301.51635 120.421487 
L 304.218106 120.923975 
L 305.118691 121.415108 
L 306.019277 122.266783 
L 306.919862 122.806178 
L 307.820447 123.121298 
L 308.721033 122.845923 
L 309.621618 123.158204 
L 310.522203 123.331378 
L 311.422788 123.050325 
L 312.323374 123.436418 
L 313.223959 124.038268 
L 315.925715 127.081588 
L 316.8263 128.109277 
L 317.726885 129.508863 
L 318.627471 131.271831 
L 319.528056 132.449982 
L 320.428641 132.952471 
L 321.329227 132.924081 
L 322.229812 132.671418 
L 323.130397 132.197318 
L 324.030982 131.586951 
L 324.931568 131.127046 
L 325.832153 131.146919 
L 326.732738 131.5103 
L 327.633324 132.211513 
L 328.533909 132.750907 
L 330.335079 133.361275 
L 332.13625 133.55716 
L 332.13625 133.55716 
" clip-path="url(#p5913dab9e1)" style="fill: none; stroke: #ff0000; stroke-opacity: 0.5; stroke-width: 2; stroke-linecap: square"/>
   </g>
   <g id="line2d_27">
    <path d="M 62.86125 129.619581 
L 63.536125 129.415179 
L 65.560749 127.957868 
L 66.235623 127.390084 
L 66.910498 126.610328 
L 67.585373 125.084883 
L 68.260247 123.10521 
L 68.935122 121.651684 
L 69.609997 121.015767 
L 70.284872 121.042263 
L 70.959746 120.830291 
L 71.634621 120.834076 
L 72.309496 121.534343 
L 73.659245 122.408729 
L 74.33412 123.218767 
L 75.008994 124.388401 
L 75.683869 125.224936 
L 77.033618 127.988149 
L 77.708493 129.339474 
L 78.383368 130.096519 
L 79.058242 131.273724 
L 79.733117 131.87936 
L 80.407992 132.254097 
L 81.082867 131.88693 
L 81.757741 131.951279 
L 82.432616 131.568971 
L 83.107491 131.629535 
L 83.782365 131.936138 
L 85.132115 132.996001 
L 85.806989 134.040722 
L 86.481864 135.872771 
L 87.156739 136.996982 
L 87.831613 137.13325 
L 88.506488 136.788795 
L 89.856237 136.868285 
L 91.880862 138.624629 
L 92.555736 138.757112 
L 93.230611 138.492146 
L 93.905486 138.371019 
L 94.58036 138.117409 
L 95.255235 137.731316 
L 95.93011 137.534484 
L 96.604984 136.644957 
L 97.279859 135.221712 
L 98.629608 133.824965 
L 99.304483 133.120913 
L 99.979358 132.129184 
L 100.654232 130.425834 
L 102.678857 126.364288 
L 104.028606 123.623786 
L 104.703481 122.783466 
L 106.05323 121.670611 
L 106.728105 121.723604 
L 108.077854 121.477564 
L 109.427603 122.117267 
L 110.102478 122.628272 
L 111.452227 122.885667 
L 112.127102 123.498874 
L 114.151726 126.950998 
L 114.826601 126.807159 
L 116.17635 126.008477 
L 116.851225 124.986467 
L 118.200974 123.426954 
L 118.875849 123.196056 
L 119.550724 123.551867 
L 120.900473 125.493687 
L 121.575348 126.841227 
L 122.250222 128.775476 
L 122.925097 130.096519 
L 123.599972 130.838423 
L 124.274846 130.823282 
L 124.949721 130.520464 
L 125.624596 131.088248 
L 126.299471 131.902071 
L 126.974345 132.916511 
L 127.64922 132.678042 
L 128.324095 132.159466 
L 130.348719 131.803655 
L 131.023593 132.114043 
L 131.698468 132.651545 
L 132.373343 133.688697 
L 133.048217 135.134652 
L 133.723092 135.679724 
L 134.397967 135.600235 
L 135.072841 134.937821 
L 136.422591 132.912726 
L 137.097466 132.466069 
L 138.447215 132.235171 
L 139.796964 132.503922 
L 140.471839 132.871088 
L 141.821588 131.985346 
L 143.171338 129.948895 
L 145.195962 128.290967 
L 145.870836 127.416581 
L 146.545711 126.182598 
L 147.220586 125.383915 
L 147.895461 124.800991 
L 148.570335 124.857769 
L 150.594959 126.30751 
L 151.269834 126.716314 
L 151.944709 126.144745 
L 152.619583 124.941044 
L 153.294458 123.434525 
L 153.969333 122.454152 
L 155.319082 120.164091 
L 155.993957 119.497892 
L 157.343706 119.422188 
L 158.018581 118.843048 
L 158.693456 117.949735 
L 159.36833 116.814168 
L 160.043205 115.353072 
L 160.71808 114.380269 
L 161.392954 114.410551 
L 162.742704 115.250871 
L 164.092453 117.082919 
L 164.767328 117.586354 
L 165.442202 118.328258 
L 166.791952 119.422188 
L 167.466826 119.388121 
L 168.141701 119.198859 
L 169.491451 118.309332 
L 170.8412 116.306948 
L 171.516075 116.072264 
L 172.190949 116.09119 
L 172.865824 116.435646 
L 174.215573 117.268395 
L 174.890448 117.222972 
L 175.565323 116.946651 
L 176.240197 117.718837 
L 176.915072 117.654488 
L 177.589947 117.162409 
L 178.264821 117.200261 
L 178.939696 117.923239 
L 179.614571 118.426674 
L 180.289445 118.600794 
L 182.31407 117.476582 
L 182.988944 116.958007 
L 183.663819 116.284237 
L 184.338694 116.098761 
L 185.013568 116.238814 
L 185.688443 116.946651 
L 186.363318 117.287321 
L 187.038192 117.495509 
L 187.713067 118.017869 
L 188.387942 118.377466 
L 189.062816 118.880901 
L 189.737691 118.949035 
L 190.412566 118.646217 
L 191.08744 117.968662 
L 191.762315 116.799027 
L 192.43719 116.09119 
L 193.112065 116.030627 
L 193.786939 115.379568 
L 194.461814 114.940482 
L 195.811563 113.433963 
L 196.486438 112.820757 
L 197.161313 111.85174 
L 197.836187 111.658693 
L 199.185937 110.754025 
L 199.860811 110.67832 
L 200.535686 110.852441 
L 201.885435 111.9388 
L 203.235185 114.709584 
L 203.91006 115.716453 
L 204.584934 117.275966 
L 205.259809 119.263208 
L 205.934684 121.700892 
L 207.284433 127.374943 
L 207.959308 129.453031 
L 208.634182 130.997402 
L 209.309057 132.068621 
L 209.983932 132.151896 
L 210.658806 131.550045 
L 212.008556 129.282696 
L 212.68343 128.673275 
L 213.358305 126.969924 
L 214.03318 124.740427 
L 215.382929 120.887069 
L 216.057804 118.816552 
L 216.732679 115.777017 
L 217.407553 113.475601 
L 218.757303 109.618457 
L 219.432177 107.112639 
L 220.107052 106.124696 
L 221.456801 104.553828 
L 222.806551 103.91791 
L 223.481425 104.095816 
L 224.1563 104.686311 
L 224.831175 105.776455 
L 226.180924 109.065815 
L 226.855799 109.99698 
L 227.530674 110.193812 
L 228.205548 110.178671 
L 229.555298 109.546538 
L 230.905047 109.82286 
L 231.579922 110.523126 
L 233.604546 113.820056 
L 234.27942 114.285639 
L 234.954295 114.493826 
L 235.62917 114.138015 
L 236.978919 114.05474 
L 237.653794 114.092592 
L 238.328669 114.743651 
L 239.678418 116.322089 
L 240.353293 116.958007 
L 241.703042 117.43116 
L 242.377917 117.442515 
L 243.052791 117.760474 
L 243.727666 118.309332 
L 244.402541 118.472096 
L 245.077415 117.983802 
L 245.75229 117.677199 
L 247.776914 118.880901 
L 249.126664 119.081517 
L 250.476413 120.765942 
L 251.151288 121.557054 
L 252.501037 124.78585 
L 253.175912 126.458919 
L 253.850786 127.49607 
L 255.200536 131.084463 
L 257.22516 135.426114 
L 257.900034 135.622946 
L 258.574909 135.566168 
L 259.249784 135.255779 
L 260.599533 134.328399 
L 262.624157 134.627432 
L 264.648781 135.85763 
L 265.998531 136.194515 
L 266.673405 135.687295 
L 267.34828 135.899267 
L 268.023155 135.978757 
L 268.698029 135.710006 
L 269.372904 135.588879 
L 270.047779 134.84319 
L 271.397528 132.439573 
L 272.072403 131.860433 
L 272.747278 130.565887 
L 273.422152 128.877677 
L 275.446776 124.88048 
L 276.796526 121.644114 
L 277.4714 120.712949 
L 278.146275 119.240497 
L 278.82115 118.157923 
L 280.170899 116.882302 
L 280.845774 116.628692 
L 281.520648 117.43873 
L 282.870398 119.899126 
L 285.569897 127.783747 
L 286.919646 129.642292 
L 287.594521 131.042825 
L 288.269395 133.101987 
L 288.94427 134.229984 
L 289.619145 134.729633 
L 290.294019 135.694865 
L 290.968894 137.163532 
L 292.318643 141.225078 
L 293.668393 144.260827 
L 295.018142 145.945252 
L 295.693017 146.971048 
L 296.367892 147.762159 
L 297.042766 148.311017 
L 297.717641 148.53813 
L 298.392516 147.993058 
L 299.06739 147.606965 
L 299.742265 147.94385 
L 300.41714 148.413218 
L 301.766889 149.677483 
L 302.441764 149.938663 
L 303.116638 149.507148 
L 305.816137 146.285922 
L 306.491012 144.707484 
L 307.165887 143.496212 
L 307.840761 142.03133 
L 308.515636 140.884407 
L 309.190511 139.483875 
L 309.865385 137.254378 
L 310.54026 135.433685 
L 311.890009 133.688697 
L 312.564884 132.965719 
L 313.239759 132.572056 
L 313.914633 132.469855 
L 314.589508 131.758232 
L 315.264383 130.36527 
L 315.939258 128.518081 
L 317.289007 123.544296 
L 318.638756 119.596308 
L 319.988506 116.280452 
L 320.66338 115.360642 
L 321.338255 114.739866 
L 322.688004 114.671731 
L 324.712628 118.400177 
L 325.387503 120.512332 
L 326.737253 122.915949 
L 328.087002 124.040161 
L 328.761877 125.111379 
L 329.436751 125.830572 
L 330.111626 126.368074 
L 330.786501 126.689818 
L 332.13625 126.950998 
L 332.13625 126.950998 
" clip-path="url(#p5913dab9e1)" style="fill: none; stroke: #008000; stroke-opacity: 0.5; stroke-width: 2; stroke-linecap: square"/>
   </g>
   <g id="patch_3">
    <path d="M 49.3975 238.8725 
L 49.3975 11.759062 
" style="fill: none; stroke: #000000; stroke-width: 2; stroke-linejoin: miter; stroke-linecap: square"/>
   </g>
   <g id="patch_4">
    <path d="M 345.6 238.8725 
L 345.6 11.759062 
" style="fill: none; stroke: #000000; stroke-width: 2; stroke-linejoin: miter; stroke-linecap: square"/>
   </g>
   <g id="patch_5">
    <path d="M 49.3975 238.8725 
L 345.6 238.8725 
" style="fill: none; stroke: #000000; stroke-width: 2; stroke-linejoin: miter; stroke-linecap: square"/>
   </g>
   <g id="patch_6">
    <path d="M 49.3975 11.759062 
L 345.6 11.759062 
" style="fill: none; stroke: #000000; stroke-width: 2; stroke-linejoin: miter; stroke-linecap: square"/>
   </g>
   <g id="legend_1">
    <g id="line2d_28">
     <path d="M 249.58125 27.477187 
L 261.58125 27.477187 
L 273.58125 27.477187 
" style="fill: none; stroke: #0000ff; stroke-opacity: 0.5; stroke-width: 2; stroke-linecap: square"/>
    </g>
    <g id="text_15">
     <!-- yz-plane -->
     <g transform="translate(283.18125 31.677187)scale(0.12 -0.12)">
      <defs>
       <path id="DejaVuSans-7a" d="M 353 3500 
L 3084 3500 
L 3084 2975 
L 922 459 
L 3084 459 
L 3084 0 
L 275 0 
L 275 525 
L 2438 3041 
L 353 3041 
L 353 3500 
z
" transform="scale(0.015625)"/>
       <path id="DejaVuSans-2d" d="M 313 2009 
L 1997 2009 
L 1997 1497 
L 313 1497 
L 313 2009 
z
" transform="scale(0.015625)"/>
       <path id="DejaVuSans-70" d="M 1159 525 
L 1159 -1331 
L 581 -1331 
L 581 3500 
L 1159 3500 
L 1159 2969 
Q 1341 3281 1617 3432 
Q 1894 3584 2278 3584 
Q 2916 3584 3314 3078 
Q 3713 2572 3713 1747 
Q 3713 922 3314 415 
Q 2916 -91 2278 -91 
Q 1894 -91 1617 61 
Q 1341 213 1159 525 
z
M 3116 1747 
Q 3116 2381 2855 2742 
Q 2594 3103 2138 3103 
Q 1681 3103 1420 2742 
Q 1159 2381 1159 1747 
Q 1159 1113 1420 752 
Q 1681 391 2138 391 
Q 2594 391 2855 752 
Q 3116 1113 3116 1747 
z
" transform="scale(0.015625)"/>
      </defs>
      <use xlink:href="#DejaVuSans-79"/>
      <use xlink:href="#DejaVuSans-7a" x="59.179688"/>
      <use xlink:href="#DejaVuSans-2d" x="111.669922"/>
      <use xlink:href="#DejaVuSans-70" x="147.753906"/>
      <use xlink:href="#DejaVuSans-6c" x="211.230469"/>
      <use xlink:href="#DejaVuSans-61" x="239.013672"/>
      <use xlink:href="#DejaVuSans-6e" x="300.292969"/>
      <use xlink:href="#DejaVuSans-65" x="363.671875"/>
     </g>
    </g>
    <g id="line2d_29">
     <path d="M 249.58125 45.090937 
L 261.58125 45.090937 
L 273.58125 45.090937 
" style="fill: none; stroke: #ff0000; stroke-opacity: 0.5; stroke-width: 2; stroke-linecap: square"/>
    </g>
    <g id="text_16">
     <!-- xz-plane -->
     <g transform="translate(283.18125 49.290937)scale(0.12 -0.12)">
      <use xlink:href="#DejaVuSans-78"/>
      <use xlink:href="#DejaVuSans-7a" x="59.179688"/>
      <use xlink:href="#DejaVuSans-2d" x="111.669922"/>
      <use xlink:href="#DejaVuSans-70" x="147.753906"/>
      <use xlink:href="#DejaVuSans-6c" x="211.230469"/>
      <use xlink:href="#DejaVuSans-61" x="239.013672"/>
      <use xlink:href="#DejaVuSans-6e" x="300.292969"/>
      <use xlink:href="#DejaVuSans-65" x="363.671875"/>
     </g>
    </g>
    <g id="line2d_30">
     <path d="M 249.58125 62.704687 
L 261.58125 62.704687 
L 273.58125 62.704687 
" style="fill: none; stroke: #008000; stroke-opacity: 0.5; stroke-width: 2; stroke-linecap: square"/>
    </g>
    <g id="text_17">
     <!-- xy-plane -->
     <g transform="translate(283.18125 66.904687)scale(0.12 -0.12)">
      <use xlink:href="#DejaVuSans-78"/>
      <use xlink:href="#DejaVuSans-79" x="59.179688"/>
      <use xlink:href="#DejaVuSans-2d" x="116.609375"/>
      <use xlink:href="#DejaVuSans-70" x="152.693359"/>
      <use xlink:href="#DejaVuSans-6c" x="216.169922"/>
      <use xlink:href="#DejaVuSans-61" x="243.953125"/>
      <use xlink:href="#DejaVuSans-6e" x="305.232422"/>
      <use xlink:href="#DejaVuSans-65" x="368.611328"/>
     </g>
    </g>
   </g>
  </g>
 </g>
 <defs>
  <clipPath id="p5913dab9e1">
   <rect x="49.3975" y="11.759062" width="296.2025" height="227.113437"/>
  </clipPath>
 </defs>
</svg>
