<?xml version="1.0" encoding="utf-8" standalone="no"?>
<!DOCTYPE svg PUBLIC "-//W3C//DTD SVG 1.1//EN"
  "http://www.w3.org/Graphics/SVG/1.1/DTD/svg11.dtd">
<svg xmlns:xlink="http://www.w3.org/1999/xlink" width="352.8pt" height="280.8pt" viewBox="0 0 352.8 280.8" xmlns="http://www.w3.org/2000/svg" version="1.1">
 <metadata>
  <rdf:RDF xmlns:dc="http://purl.org/dc/elements/1.1/" xmlns:cc="http://creativecommons.org/ns#" xmlns:rdf="http://www.w3.org/1999/02/22-rdf-syntax-ns#">
   <cc:Work>
    <dc:type rdf:resource="http://purl.org/dc/dcmitype/StillImage"/>
    <dc:date>2022-06-22T19:27:40.137654</dc:date>
    <dc:format>image/svg+xml</dc:format>
    <dc:creator>
     <cc:Agent>
      <dc:title>Matplotlib v3.5.2, https://matplotlib.org/</dc:title>
     </cc:Agent>
    </dc:creator>
   </cc:Work>
  </rdf:RDF>
 </metadata>
 <defs>
  <style type="text/css">*{stroke-linejoin: round; stroke-linecap: butt}</style>
 </defs>
 <g id="figure_1">
  <g id="patch_1">
   <path d="M 0 280.8 
L 352.8 280.8 
L 352.8 0 
L 0 0 
L 0 280.8 
z
" style="fill: none"/>
  </g>
  <g id="axes_1">
   <g id="patch_2">
    <path d="M 49.3975 238.8725 
L 345.6 238.8725 
L 345.6 11.759062 
L 49.3975 11.759062 
z
" style="fill: #ffffff"/>
   </g>
   <g id="matplotlib.axis_1">
    <g id="xtick_1">
     <g id="line2d_1">
      <defs>
       <path id="m6ec4db3a33" d="M 0 0 
L 0 -6 
" style="stroke: #000000; stroke-width: 2"/>
      </defs>
      <g>
       <use xlink:href="#m6ec4db3a33" x="62.86125" y="238.8725" style="fill: #ffffff; stroke: #000000; stroke-width: 2"/>
      </g>
     </g>
     <g id="line2d_2">
      <defs>
       <path id="m0bd6a86caf" d="M 0 0 
L 0 6 
" style="stroke: #000000; stroke-width: 2"/>
      </defs>
      <g>
       <use xlink:href="#m0bd6a86caf" x="62.86125" y="11.759062" style="fill: #ffffff; stroke: #000000; stroke-width: 2"/>
      </g>
     </g>
     <g id="text_1">
      <!-- 0 -->
      <g transform="translate(59.04375 251.490625)scale(0.12 -0.12)">
       <defs>
        <path id="DejaVuSans-30" d="M 2034 4250 
Q 1547 4250 1301 3770 
Q 1056 3291 1056 2328 
Q 1056 1369 1301 889 
Q 1547 409 2034 409 
Q 2525 409 2770 889 
Q 3016 1369 3016 2328 
Q 3016 3291 2770 3770 
Q 2525 4250 2034 4250 
z
M 2034 4750 
Q 2819 4750 3233 4129 
Q 3647 3509 3647 2328 
Q 3647 1150 3233 529 
Q 2819 -91 2034 -91 
Q 1250 -91 836 529 
Q 422 1150 422 2328 
Q 422 3509 836 4129 
Q 1250 4750 2034 4750 
z
" transform="scale(0.015625)"/>
       </defs>
       <use xlink:href="#DejaVuSans-30"/>
      </g>
     </g>
    </g>
    <g id="xtick_2">
     <g id="line2d_3">
      <g>
       <use xlink:href="#m6ec4db3a33" x="119.911038" y="238.8725" style="fill: #ffffff; stroke: #000000; stroke-width: 2"/>
      </g>
     </g>
     <g id="line2d_4">
      <g>
       <use xlink:href="#m0bd6a86caf" x="119.911038" y="11.759062" style="fill: #ffffff; stroke: #000000; stroke-width: 2"/>
      </g>
     </g>
     <g id="text_2">
      <!-- 500 -->
      <g transform="translate(108.458538 251.490625)scale(0.12 -0.12)">
       <defs>
        <path id="DejaVuSans-35" d="M 691 4666 
L 3169 4666 
L 3169 4134 
L 1269 4134 
L 1269 2991 
Q 1406 3038 1543 3061 
Q 1681 3084 1819 3084 
Q 2600 3084 3056 2656 
Q 3513 2228 3513 1497 
Q 3513 744 3044 326 
Q 2575 -91 1722 -91 
Q 1428 -91 1123 -41 
Q 819 9 494 109 
L 494 744 
Q 775 591 1075 516 
Q 1375 441 1709 441 
Q 2250 441 2565 725 
Q 2881 1009 2881 1497 
Q 2881 1984 2565 2268 
Q 2250 2553 1709 2553 
Q 1456 2553 1204 2497 
Q 953 2441 691 2322 
L 691 4666 
z
" transform="scale(0.015625)"/>
       </defs>
       <use xlink:href="#DejaVuSans-35"/>
       <use xlink:href="#DejaVuSans-30" x="63.623047"/>
       <use xlink:href="#DejaVuSans-30" x="127.246094"/>
      </g>
     </g>
    </g>
    <g id="xtick_3">
     <g id="line2d_5">
      <g>
       <use xlink:href="#m6ec4db3a33" x="176.960826" y="238.8725" style="fill: #ffffff; stroke: #000000; stroke-width: 2"/>
      </g>
     </g>
     <g id="line2d_6">
      <g>
       <use xlink:href="#m0bd6a86caf" x="176.960826" y="11.759062" style="fill: #ffffff; stroke: #000000; stroke-width: 2"/>
      </g>
     </g>
     <g id="text_3">
      <!-- 1000 -->
      <g transform="translate(161.690826 251.490625)scale(0.12 -0.12)">
       <defs>
        <path id="DejaVuSans-31" d="M 794 531 
L 1825 531 
L 1825 4091 
L 703 3866 
L 703 4441 
L 1819 4666 
L 2450 4666 
L 2450 531 
L 3481 531 
L 3481 0 
L 794 0 
L 794 531 
z
" transform="scale(0.015625)"/>
       </defs>
       <use xlink:href="#DejaVuSans-31"/>
       <use xlink:href="#DejaVuSans-30" x="63.623047"/>
       <use xlink:href="#DejaVuSans-30" x="127.246094"/>
       <use xlink:href="#DejaVuSans-30" x="190.869141"/>
      </g>
     </g>
    </g>
    <g id="xtick_4">
     <g id="line2d_7">
      <g>
       <use xlink:href="#m6ec4db3a33" x="234.010614" y="238.8725" style="fill: #ffffff; stroke: #000000; stroke-width: 2"/>
      </g>
     </g>
     <g id="line2d_8">
      <g>
       <use xlink:href="#m0bd6a86caf" x="234.010614" y="11.759062" style="fill: #ffffff; stroke: #000000; stroke-width: 2"/>
      </g>
     </g>
     <g id="text_4">
      <!-- 1500 -->
      <g transform="translate(218.740614 251.490625)scale(0.12 -0.12)">
       <use xlink:href="#DejaVuSans-31"/>
       <use xlink:href="#DejaVuSans-35" x="63.623047"/>
       <use xlink:href="#DejaVuSans-30" x="127.246094"/>
       <use xlink:href="#DejaVuSans-30" x="190.869141"/>
      </g>
     </g>
    </g>
    <g id="xtick_5">
     <g id="line2d_9">
      <g>
       <use xlink:href="#m6ec4db3a33" x="291.060403" y="238.8725" style="fill: #ffffff; stroke: #000000; stroke-width: 2"/>
      </g>
     </g>
     <g id="line2d_10">
      <g>
       <use xlink:href="#m0bd6a86caf" x="291.060403" y="11.759062" style="fill: #ffffff; stroke: #000000; stroke-width: 2"/>
      </g>
     </g>
     <g id="text_5">
      <!-- 2000 -->
      <g transform="translate(275.790403 251.490625)scale(0.12 -0.12)">
       <defs>
        <path id="DejaVuSans-32" d="M 1228 531 
L 3431 531 
L 3431 0 
L 469 0 
L 469 531 
Q 828 903 1448 1529 
Q 2069 2156 2228 2338 
Q 2531 2678 2651 2914 
Q 2772 3150 2772 3378 
Q 2772 3750 2511 3984 
Q 2250 4219 1831 4219 
Q 1534 4219 1204 4116 
Q 875 4013 500 3803 
L 500 4441 
Q 881 4594 1212 4672 
Q 1544 4750 1819 4750 
Q 2544 4750 2975 4387 
Q 3406 4025 3406 3419 
Q 3406 3131 3298 2873 
Q 3191 2616 2906 2266 
Q 2828 2175 2409 1742 
Q 1991 1309 1228 531 
z
" transform="scale(0.015625)"/>
       </defs>
       <use xlink:href="#DejaVuSans-32"/>
       <use xlink:href="#DejaVuSans-30" x="63.623047"/>
       <use xlink:href="#DejaVuSans-30" x="127.246094"/>
       <use xlink:href="#DejaVuSans-30" x="190.869141"/>
      </g>
     </g>
    </g>
    <g id="text_6">
     <!-- Position of slice along given axis -->
     <g transform="translate(100.205 271.104375)scale(0.12 -0.12)">
      <defs>
       <path id="DejaVuSans-50" d="M 1259 4147 
L 1259 2394 
L 2053 2394 
Q 2494 2394 2734 2622 
Q 2975 2850 2975 3272 
Q 2975 3691 2734 3919 
Q 2494 4147 2053 4147 
L 1259 4147 
z
M 628 4666 
L 2053 4666 
Q 2838 4666 3239 4311 
Q 3641 3956 3641 3272 
Q 3641 2581 3239 2228 
Q 2838 1875 2053 1875 
L 1259 1875 
L 1259 0 
L 628 0 
L 628 4666 
z
" transform="scale(0.015625)"/>
       <path id="DejaVuSans-6f" d="M 1959 3097 
Q 1497 3097 1228 2736 
Q 959 2375 959 1747 
Q 959 1119 1226 758 
Q 1494 397 1959 397 
Q 2419 397 2687 759 
Q 2956 1122 2956 1747 
Q 2956 2369 2687 2733 
Q 2419 3097 1959 3097 
z
M 1959 3584 
Q 2709 3584 3137 3096 
Q 3566 2609 3566 1747 
Q 3566 888 3137 398 
Q 2709 -91 1959 -91 
Q 1206 -91 779 398 
Q 353 888 353 1747 
Q 353 2609 779 3096 
Q 1206 3584 1959 3584 
z
" transform="scale(0.015625)"/>
       <path id="DejaVuSans-73" d="M 2834 3397 
L 2834 2853 
Q 2591 2978 2328 3040 
Q 2066 3103 1784 3103 
Q 1356 3103 1142 2972 
Q 928 2841 928 2578 
Q 928 2378 1081 2264 
Q 1234 2150 1697 2047 
L 1894 2003 
Q 2506 1872 2764 1633 
Q 3022 1394 3022 966 
Q 3022 478 2636 193 
Q 2250 -91 1575 -91 
Q 1294 -91 989 -36 
Q 684 19 347 128 
L 347 722 
Q 666 556 975 473 
Q 1284 391 1588 391 
Q 1994 391 2212 530 
Q 2431 669 2431 922 
Q 2431 1156 2273 1281 
Q 2116 1406 1581 1522 
L 1381 1569 
Q 847 1681 609 1914 
Q 372 2147 372 2553 
Q 372 3047 722 3315 
Q 1072 3584 1716 3584 
Q 2034 3584 2315 3537 
Q 2597 3491 2834 3397 
z
" transform="scale(0.015625)"/>
       <path id="DejaVuSans-69" d="M 603 3500 
L 1178 3500 
L 1178 0 
L 603 0 
L 603 3500 
z
M 603 4863 
L 1178 4863 
L 1178 4134 
L 603 4134 
L 603 4863 
z
" transform="scale(0.015625)"/>
       <path id="DejaVuSans-74" d="M 1172 4494 
L 1172 3500 
L 2356 3500 
L 2356 3053 
L 1172 3053 
L 1172 1153 
Q 1172 725 1289 603 
Q 1406 481 1766 481 
L 2356 481 
L 2356 0 
L 1766 0 
Q 1100 0 847 248 
Q 594 497 594 1153 
L 594 3053 
L 172 3053 
L 172 3500 
L 594 3500 
L 594 4494 
L 1172 4494 
z
" transform="scale(0.015625)"/>
       <path id="DejaVuSans-6e" d="M 3513 2113 
L 3513 0 
L 2938 0 
L 2938 2094 
Q 2938 2591 2744 2837 
Q 2550 3084 2163 3084 
Q 1697 3084 1428 2787 
Q 1159 2491 1159 1978 
L 1159 0 
L 581 0 
L 581 3500 
L 1159 3500 
L 1159 2956 
Q 1366 3272 1645 3428 
Q 1925 3584 2291 3584 
Q 2894 3584 3203 3211 
Q 3513 2838 3513 2113 
z
" transform="scale(0.015625)"/>
       <path id="DejaVuSans-20" transform="scale(0.015625)"/>
       <path id="DejaVuSans-66" d="M 2375 4863 
L 2375 4384 
L 1825 4384 
Q 1516 4384 1395 4259 
Q 1275 4134 1275 3809 
L 1275 3500 
L 2222 3500 
L 2222 3053 
L 1275 3053 
L 1275 0 
L 697 0 
L 697 3053 
L 147 3053 
L 147 3500 
L 697 3500 
L 697 3744 
Q 697 4328 969 4595 
Q 1241 4863 1831 4863 
L 2375 4863 
z
" transform="scale(0.015625)"/>
       <path id="DejaVuSans-6c" d="M 603 4863 
L 1178 4863 
L 1178 0 
L 603 0 
L 603 4863 
z
" transform="scale(0.015625)"/>
       <path id="DejaVuSans-63" d="M 3122 3366 
L 3122 2828 
Q 2878 2963 2633 3030 
Q 2388 3097 2138 3097 
Q 1578 3097 1268 2742 
Q 959 2388 959 1747 
Q 959 1106 1268 751 
Q 1578 397 2138 397 
Q 2388 397 2633 464 
Q 2878 531 3122 666 
L 3122 134 
Q 2881 22 2623 -34 
Q 2366 -91 2075 -91 
Q 1284 -91 818 406 
Q 353 903 353 1747 
Q 353 2603 823 3093 
Q 1294 3584 2113 3584 
Q 2378 3584 2631 3529 
Q 2884 3475 3122 3366 
z
" transform="scale(0.015625)"/>
       <path id="DejaVuSans-65" d="M 3597 1894 
L 3597 1613 
L 953 1613 
Q 991 1019 1311 708 
Q 1631 397 2203 397 
Q 2534 397 2845 478 
Q 3156 559 3463 722 
L 3463 178 
Q 3153 47 2828 -22 
Q 2503 -91 2169 -91 
Q 1331 -91 842 396 
Q 353 884 353 1716 
Q 353 2575 817 3079 
Q 1281 3584 2069 3584 
Q 2775 3584 3186 3129 
Q 3597 2675 3597 1894 
z
M 3022 2063 
Q 3016 2534 2758 2815 
Q 2500 3097 2075 3097 
Q 1594 3097 1305 2825 
Q 1016 2553 972 2059 
L 3022 2063 
z
" transform="scale(0.015625)"/>
       <path id="DejaVuSans-61" d="M 2194 1759 
Q 1497 1759 1228 1600 
Q 959 1441 959 1056 
Q 959 750 1161 570 
Q 1363 391 1709 391 
Q 2188 391 2477 730 
Q 2766 1069 2766 1631 
L 2766 1759 
L 2194 1759 
z
M 3341 1997 
L 3341 0 
L 2766 0 
L 2766 531 
Q 2569 213 2275 61 
Q 1981 -91 1556 -91 
Q 1019 -91 701 211 
Q 384 513 384 1019 
Q 384 1609 779 1909 
Q 1175 2209 1959 2209 
L 2766 2209 
L 2766 2266 
Q 2766 2663 2505 2880 
Q 2244 3097 1772 3097 
Q 1472 3097 1187 3025 
Q 903 2953 641 2809 
L 641 3341 
Q 956 3463 1253 3523 
Q 1550 3584 1831 3584 
Q 2591 3584 2966 3190 
Q 3341 2797 3341 1997 
z
" transform="scale(0.015625)"/>
       <path id="DejaVuSans-67" d="M 2906 1791 
Q 2906 2416 2648 2759 
Q 2391 3103 1925 3103 
Q 1463 3103 1205 2759 
Q 947 2416 947 1791 
Q 947 1169 1205 825 
Q 1463 481 1925 481 
Q 2391 481 2648 825 
Q 2906 1169 2906 1791 
z
M 3481 434 
Q 3481 -459 3084 -895 
Q 2688 -1331 1869 -1331 
Q 1566 -1331 1297 -1286 
Q 1028 -1241 775 -1147 
L 775 -588 
Q 1028 -725 1275 -790 
Q 1522 -856 1778 -856 
Q 2344 -856 2625 -561 
Q 2906 -266 2906 331 
L 2906 616 
Q 2728 306 2450 153 
Q 2172 0 1784 0 
Q 1141 0 747 490 
Q 353 981 353 1791 
Q 353 2603 747 3093 
Q 1141 3584 1784 3584 
Q 2172 3584 2450 3431 
Q 2728 3278 2906 2969 
L 2906 3500 
L 3481 3500 
L 3481 434 
z
" transform="scale(0.015625)"/>
       <path id="DejaVuSans-76" d="M 191 3500 
L 800 3500 
L 1894 563 
L 2988 3500 
L 3597 3500 
L 2284 0 
L 1503 0 
L 191 3500 
z
" transform="scale(0.015625)"/>
       <path id="DejaVuSans-78" d="M 3513 3500 
L 2247 1797 
L 3578 0 
L 2900 0 
L 1881 1375 
L 863 0 
L 184 0 
L 1544 1831 
L 300 3500 
L 978 3500 
L 1906 2253 
L 2834 3500 
L 3513 3500 
z
" transform="scale(0.015625)"/>
      </defs>
      <use xlink:href="#DejaVuSans-50"/>
      <use xlink:href="#DejaVuSans-6f" x="56.677734"/>
      <use xlink:href="#DejaVuSans-73" x="117.859375"/>
      <use xlink:href="#DejaVuSans-69" x="169.958984"/>
      <use xlink:href="#DejaVuSans-74" x="197.742188"/>
      <use xlink:href="#DejaVuSans-69" x="236.951172"/>
      <use xlink:href="#DejaVuSans-6f" x="264.734375"/>
      <use xlink:href="#DejaVuSans-6e" x="325.916016"/>
      <use xlink:href="#DejaVuSans-20" x="389.294922"/>
      <use xlink:href="#DejaVuSans-6f" x="421.082031"/>
      <use xlink:href="#DejaVuSans-66" x="482.263672"/>
      <use xlink:href="#DejaVuSans-20" x="517.46875"/>
      <use xlink:href="#DejaVuSans-73" x="549.255859"/>
      <use xlink:href="#DejaVuSans-6c" x="601.355469"/>
      <use xlink:href="#DejaVuSans-69" x="629.138672"/>
      <use xlink:href="#DejaVuSans-63" x="656.921875"/>
      <use xlink:href="#DejaVuSans-65" x="711.902344"/>
      <use xlink:href="#DejaVuSans-20" x="773.425781"/>
      <use xlink:href="#DejaVuSans-61" x="805.212891"/>
      <use xlink:href="#DejaVuSans-6c" x="866.492188"/>
      <use xlink:href="#DejaVuSans-6f" x="894.275391"/>
      <use xlink:href="#DejaVuSans-6e" x="955.457031"/>
      <use xlink:href="#DejaVuSans-67" x="1018.835938"/>
      <use xlink:href="#DejaVuSans-20" x="1082.3125"/>
      <use xlink:href="#DejaVuSans-67" x="1114.099609"/>
      <use xlink:href="#DejaVuSans-69" x="1177.576172"/>
      <use xlink:href="#DejaVuSans-76" x="1205.359375"/>
      <use xlink:href="#DejaVuSans-65" x="1264.539062"/>
      <use xlink:href="#DejaVuSans-6e" x="1326.0625"/>
      <use xlink:href="#DejaVuSans-20" x="1389.441406"/>
      <use xlink:href="#DejaVuSans-61" x="1421.228516"/>
      <use xlink:href="#DejaVuSans-78" x="1482.507812"/>
      <use xlink:href="#DejaVuSans-69" x="1541.6875"/>
      <use xlink:href="#DejaVuSans-73" x="1569.470703"/>
     </g>
    </g>
   </g>
   <g id="matplotlib.axis_2">
    <g id="ytick_1">
     <g id="line2d_11">
      <defs>
       <path id="m68d5558469" d="M 0 0 
L 6 0 
" style="stroke: #000000; stroke-width: 2"/>
      </defs>
      <g>
       <use xlink:href="#m68d5558469" x="49.3975" y="238.8725" style="fill: #ffffff; stroke: #000000; stroke-width: 2"/>
      </g>
     </g>
     <g id="line2d_12">
      <defs>
       <path id="m0fe5e13c95" d="M 0 0 
L -6 0 
" style="stroke: #000000; stroke-width: 2"/>
      </defs>
      <g>
       <use xlink:href="#m0fe5e13c95" x="345.6" y="238.8725" style="fill: #ffffff; stroke: #000000; stroke-width: 2"/>
      </g>
     </g>
     <g id="text_7">
      <!-- 0.0 -->
      <g transform="translate(26.81375 243.431562)scale(0.12 -0.12)">
       <defs>
        <path id="DejaVuSans-2e" d="M 684 794 
L 1344 794 
L 1344 0 
L 684 0 
L 684 794 
z
" transform="scale(0.015625)"/>
       </defs>
       <use xlink:href="#DejaVuSans-30"/>
       <use xlink:href="#DejaVuSans-2e" x="63.623047"/>
       <use xlink:href="#DejaVuSans-30" x="95.410156"/>
      </g>
     </g>
    </g>
    <g id="ytick_2">
     <g id="line2d_13">
      <g>
       <use xlink:href="#m68d5558469" x="49.3975" y="193.449812" style="fill: #ffffff; stroke: #000000; stroke-width: 2"/>
      </g>
     </g>
     <g id="line2d_14">
      <g>
       <use xlink:href="#m0fe5e13c95" x="345.6" y="193.449812" style="fill: #ffffff; stroke: #000000; stroke-width: 2"/>
      </g>
     </g>
     <g id="text_8">
      <!-- 0.2 -->
      <g transform="translate(26.81375 198.008875)scale(0.12 -0.12)">
       <use xlink:href="#DejaVuSans-30"/>
       <use xlink:href="#DejaVuSans-2e" x="63.623047"/>
       <use xlink:href="#DejaVuSans-32" x="95.410156"/>
      </g>
     </g>
    </g>
    <g id="ytick_3">
     <g id="line2d_15">
      <g>
       <use xlink:href="#m68d5558469" x="49.3975" y="148.027125" style="fill: #ffffff; stroke: #000000; stroke-width: 2"/>
      </g>
     </g>
     <g id="line2d_16">
      <g>
       <use xlink:href="#m0fe5e13c95" x="345.6" y="148.027125" style="fill: #ffffff; stroke: #000000; stroke-width: 2"/>
      </g>
     </g>
     <g id="text_9">
      <!-- 0.4 -->
      <g transform="translate(26.81375 152.586187)scale(0.12 -0.12)">
       <defs>
        <path id="DejaVuSans-34" d="M 2419 4116 
L 825 1625 
L 2419 1625 
L 2419 4116 
z
M 2253 4666 
L 3047 4666 
L 3047 1625 
L 3713 1625 
L 3713 1100 
L 3047 1100 
L 3047 0 
L 2419 0 
L 2419 1100 
L 313 1100 
L 313 1709 
L 2253 4666 
z
" transform="scale(0.015625)"/>
       </defs>
       <use xlink:href="#DejaVuSans-30"/>
       <use xlink:href="#DejaVuSans-2e" x="63.623047"/>
       <use xlink:href="#DejaVuSans-34" x="95.410156"/>
      </g>
     </g>
    </g>
    <g id="ytick_4">
     <g id="line2d_17">
      <g>
       <use xlink:href="#m68d5558469" x="49.3975" y="102.604437" style="fill: #ffffff; stroke: #000000; stroke-width: 2"/>
      </g>
     </g>
     <g id="line2d_18">
      <g>
       <use xlink:href="#m0fe5e13c95" x="345.6" y="102.604437" style="fill: #ffffff; stroke: #000000; stroke-width: 2"/>
      </g>
     </g>
     <g id="text_10">
      <!-- 0.6 -->
      <g transform="translate(26.81375 107.1635)scale(0.12 -0.12)">
       <defs>
        <path id="DejaVuSans-36" d="M 2113 2584 
Q 1688 2584 1439 2293 
Q 1191 2003 1191 1497 
Q 1191 994 1439 701 
Q 1688 409 2113 409 
Q 2538 409 2786 701 
Q 3034 994 3034 1497 
Q 3034 2003 2786 2293 
Q 2538 2584 2113 2584 
z
M 3366 4563 
L 3366 3988 
Q 3128 4100 2886 4159 
Q 2644 4219 2406 4219 
Q 1781 4219 1451 3797 
Q 1122 3375 1075 2522 
Q 1259 2794 1537 2939 
Q 1816 3084 2150 3084 
Q 2853 3084 3261 2657 
Q 3669 2231 3669 1497 
Q 3669 778 3244 343 
Q 2819 -91 2113 -91 
Q 1303 -91 875 529 
Q 447 1150 447 2328 
Q 447 3434 972 4092 
Q 1497 4750 2381 4750 
Q 2619 4750 2861 4703 
Q 3103 4656 3366 4563 
z
" transform="scale(0.015625)"/>
       </defs>
       <use xlink:href="#DejaVuSans-30"/>
       <use xlink:href="#DejaVuSans-2e" x="63.623047"/>
       <use xlink:href="#DejaVuSans-36" x="95.410156"/>
      </g>
     </g>
    </g>
    <g id="ytick_5">
     <g id="line2d_19">
      <g>
       <use xlink:href="#m68d5558469" x="49.3975" y="57.18175" style="fill: #ffffff; stroke: #000000; stroke-width: 2"/>
      </g>
     </g>
     <g id="line2d_20">
      <g>
       <use xlink:href="#m0fe5e13c95" x="345.6" y="57.18175" style="fill: #ffffff; stroke: #000000; stroke-width: 2"/>
      </g>
     </g>
     <g id="text_11">
      <!-- 0.8 -->
      <g transform="translate(26.81375 61.740812)scale(0.12 -0.12)">
       <defs>
        <path id="DejaVuSans-38" d="M 2034 2216 
Q 1584 2216 1326 1975 
Q 1069 1734 1069 1313 
Q 1069 891 1326 650 
Q 1584 409 2034 409 
Q 2484 409 2743 651 
Q 3003 894 3003 1313 
Q 3003 1734 2745 1975 
Q 2488 2216 2034 2216 
z
M 1403 2484 
Q 997 2584 770 2862 
Q 544 3141 544 3541 
Q 544 4100 942 4425 
Q 1341 4750 2034 4750 
Q 2731 4750 3128 4425 
Q 3525 4100 3525 3541 
Q 3525 3141 3298 2862 
Q 3072 2584 2669 2484 
Q 3125 2378 3379 2068 
Q 3634 1759 3634 1313 
Q 3634 634 3220 271 
Q 2806 -91 2034 -91 
Q 1263 -91 848 271 
Q 434 634 434 1313 
Q 434 1759 690 2068 
Q 947 2378 1403 2484 
z
M 1172 3481 
Q 1172 3119 1398 2916 
Q 1625 2713 2034 2713 
Q 2441 2713 2670 2916 
Q 2900 3119 2900 3481 
Q 2900 3844 2670 4047 
Q 2441 4250 2034 4250 
Q 1625 4250 1398 4047 
Q 1172 3844 1172 3481 
z
" transform="scale(0.015625)"/>
       </defs>
       <use xlink:href="#DejaVuSans-30"/>
       <use xlink:href="#DejaVuSans-2e" x="63.623047"/>
       <use xlink:href="#DejaVuSans-38" x="95.410156"/>
      </g>
     </g>
    </g>
    <g id="ytick_6">
     <g id="line2d_21">
      <g>
       <use xlink:href="#m68d5558469" x="49.3975" y="11.759062" style="fill: #ffffff; stroke: #000000; stroke-width: 2"/>
      </g>
     </g>
     <g id="line2d_22">
      <g>
       <use xlink:href="#m0fe5e13c95" x="345.6" y="11.759062" style="fill: #ffffff; stroke: #000000; stroke-width: 2"/>
      </g>
     </g>
     <g id="text_12">
      <!-- 1.0 -->
      <g transform="translate(26.81375 16.318125)scale(0.12 -0.12)">
       <use xlink:href="#DejaVuSans-31"/>
       <use xlink:href="#DejaVuSans-2e" x="63.623047"/>
       <use xlink:href="#DejaVuSans-30" x="95.410156"/>
      </g>
     </g>
    </g>
    <g id="text_13">
     <!-- Porosity of slice -->
     <g transform="translate(16.318125 172.133594)rotate(-90)scale(0.12 -0.12)">
      <defs>
       <path id="DejaVuSans-72" d="M 2631 2963 
Q 2534 3019 2420 3045 
Q 2306 3072 2169 3072 
Q 1681 3072 1420 2755 
Q 1159 2438 1159 1844 
L 1159 0 
L 581 0 
L 581 3500 
L 1159 3500 
L 1159 2956 
Q 1341 3275 1631 3429 
Q 1922 3584 2338 3584 
Q 2397 3584 2469 3576 
Q 2541 3569 2628 3553 
L 2631 2963 
z
" transform="scale(0.015625)"/>
       <path id="DejaVuSans-79" d="M 2059 -325 
Q 1816 -950 1584 -1140 
Q 1353 -1331 966 -1331 
L 506 -1331 
L 506 -850 
L 844 -850 
Q 1081 -850 1212 -737 
Q 1344 -625 1503 -206 
L 1606 56 
L 191 3500 
L 800 3500 
L 1894 763 
L 2988 3500 
L 3597 3500 
L 2059 -325 
z
" transform="scale(0.015625)"/>
      </defs>
      <use xlink:href="#DejaVuSans-50"/>
      <use xlink:href="#DejaVuSans-6f" x="56.677734"/>
      <use xlink:href="#DejaVuSans-72" x="117.859375"/>
      <use xlink:href="#DejaVuSans-6f" x="156.722656"/>
      <use xlink:href="#DejaVuSans-73" x="217.904297"/>
      <use xlink:href="#DejaVuSans-69" x="270.003906"/>
      <use xlink:href="#DejaVuSans-74" x="297.787109"/>
      <use xlink:href="#DejaVuSans-79" x="336.996094"/>
      <use xlink:href="#DejaVuSans-20" x="396.175781"/>
      <use xlink:href="#DejaVuSans-6f" x="427.962891"/>
      <use xlink:href="#DejaVuSans-66" x="489.144531"/>
      <use xlink:href="#DejaVuSans-20" x="524.349609"/>
      <use xlink:href="#DejaVuSans-73" x="556.136719"/>
      <use xlink:href="#DejaVuSans-6c" x="608.236328"/>
      <use xlink:href="#DejaVuSans-69" x="636.019531"/>
      <use xlink:href="#DejaVuSans-63" x="663.802734"/>
      <use xlink:href="#DejaVuSans-65" x="718.783203"/>
     </g>
    </g>
   </g>
   <g id="line2d_23">
    <path d="M 62.86125 121.223954 
L 65.567531 120.800009 
L 66.920672 121.153928 
L 67.597242 121.32994 
L 69.626954 122.471185 
L 70.303524 122.774003 
L 70.980094 122.539319 
L 71.656665 122.172153 
L 73.009805 121.131216 
L 74.362946 120.341997 
L 75.716087 119.620912 
L 76.392657 119.700402 
L 77.069227 119.906696 
L 78.422368 121.447282 
L 79.775509 123.440203 
L 80.452079 124.528455 
L 81.128649 125.209795 
L 83.158361 128.022216 
L 83.834931 128.194444 
L 85.864642 128.275826 
L 86.541212 128.478336 
L 87.217783 128.548363 
L 88.570923 129.383004 
L 89.924064 131.16963 
L 90.600634 132.066728 
L 91.953775 132.662901 
L 92.630345 132.657223 
L 93.306916 133.028175 
L 93.983486 133.701945 
L 94.660057 133.718978 
L 96.689768 132.908941 
L 97.366338 132.910833 
L 98.042908 132.698861 
L 98.719479 132.746176 
L 100.072619 133.120913 
L 100.74919 133.455905 
L 101.42576 133.95177 
L 102.778901 134.523339 
L 103.455471 134.29244 
L 104.132041 133.007356 
L 106.838323 130.770289 
L 108.191464 128.949596 
L 108.868034 127.795103 
L 109.544604 127.132689 
L 110.897745 126.689818 
L 113.604026 128.45941 
L 114.280597 128.599463 
L 114.957167 128.431021 
L 115.633737 128.109277 
L 116.310308 128.024109 
L 116.986878 128.283397 
L 118.340019 128.608926 
L 119.016589 128.366672 
L 120.36973 127.426044 
L 121.0463 126.43053 
L 122.399441 123.385317 
L 123.752582 120.637244 
L 125.105722 118.784377 
L 125.782293 118.508056 
L 126.458863 118.031118 
L 127.135433 117.978125 
L 130.518285 119.936978 
L 131.871426 120.85868 
L 132.547996 121.24288 
L 133.901137 122.476863 
L 135.254278 122.770218 
L 136.607418 122.54689 
L 138.637129 123.338002 
L 139.3137 123.796014 
L 139.99027 124.543596 
L 141.343411 126.746596 
L 142.019981 127.689117 
L 142.696552 128.364779 
L 143.373122 129.252414 
L 144.726263 131.790407 
L 145.402833 133.10388 
L 146.079403 133.6622 
L 146.755974 133.508899 
L 147.432544 132.575841 
L 148.109114 131.040932 
L 148.785685 129.795594 
L 150.138825 128.319356 
L 151.491966 127.44497 
L 153.521677 126.458919 
L 154.874818 125.446371 
L 156.227959 125.821109 
L 156.904529 126.218557 
L 158.25767 126.536516 
L 158.93424 127.183789 
L 159.61081 128.105491 
L 160.287381 128.771691 
L 160.963951 128.752765 
L 161.640521 129.01016 
L 163.670232 128.054391 
L 164.346803 127.717506 
L 165.699943 126.890434 
L 166.376514 126.538409 
L 168.406225 122.891345 
L 169.082795 122.181616 
L 169.759366 121.943147 
L 170.435936 122.317884 
L 171.112506 122.985976 
L 171.789077 123.05411 
L 172.465647 123.249049 
L 173.142217 123.637034 
L 173.818788 124.221852 
L 174.495358 124.609837 
L 175.848499 124.935366 
L 176.525069 124.797206 
L 177.201639 124.310804 
L 177.87821 124.433824 
L 178.55478 124.676078 
L 179.231351 124.797206 
L 179.907921 124.717716 
L 180.584491 124.397864 
L 181.261062 123.805477 
L 181.937632 122.897023 
L 182.614202 121.352652 
L 183.967343 117.009107 
L 184.643913 115.591541 
L 185.320484 115.001046 
L 185.997054 114.660376 
L 187.350195 114.813677 
L 188.026765 115.283045 
L 188.703335 115.95303 
L 189.379906 116.802813 
L 190.056476 117.385737 
L 191.409617 117.071563 
L 192.086187 117.094275 
L 192.762758 117.283536 
L 194.792469 119.285919 
L 196.145609 120.241689 
L 197.49875 120.574788 
L 197.49875 120.574788 
" clip-path="url(#pa90d585adb)" style="fill: none; stroke: #0000ff; stroke-opacity: 0.5; stroke-width: 2; stroke-linecap: square"/>
   </g>
   <g id="line2d_24">
    <path d="M 62.86125 123.56133 
L 63.536689 123.751537 
L 66.238445 126.21004 
L 67.589323 127.567043 
L 69.61564 129.525897 
L 70.291079 130.706886 
L 71.641957 132.083762 
L 72.317395 132.603284 
L 72.992834 133.47767 
L 74.343712 135.751644 
L 75.019151 136.557896 
L 75.69459 136.353494 
L 76.370029 135.728932 
L 77.045468 134.417352 
L 80.422663 122.471185 
L 81.773541 118.456955 
L 82.44898 116.864322 
L 83.124419 115.674816 
L 83.799858 114.732295 
L 84.475297 114.190062 
L 85.150736 113.273091 
L 85.826175 111.9899 
L 86.501614 111.586774 
L 87.177053 110.760649 
L 87.852492 110.215577 
L 88.527931 109.869229 
L 89.20337 109.81245 
L 89.878809 109.940202 
L 91.229686 109.721605 
L 93.256003 111.830921 
L 93.931442 112.884159 
L 95.28232 115.660621 
L 97.984076 122.973674 
L 100.010393 126.519482 
L 101.361271 129.233488 
L 102.03671 130.283888 
L 102.712149 131.700508 
L 104.063027 135.141276 
L 105.413905 137.875154 
L 107.440222 139.720451 
L 108.115661 140.643099 
L 108.791099 141.352829 
L 110.141977 141.727566 
L 110.817416 141.108682 
L 112.843733 141.142749 
L 113.519172 140.816273 
L 114.194611 140.251329 
L 114.87005 139.220801 
L 115.545489 137.895027 
L 116.896367 133.912025 
L 118.247245 129.156837 
L 118.922684 127.498909 
L 119.598123 126.542194 
L 120.273562 125.931826 
L 121.62444 123.919034 
L 122.975318 124.935366 
L 123.650757 125.483277 
L 124.326196 126.774985 
L 125.677074 128.109277 
L 126.352513 128.185927 
L 127.027952 128.381813 
L 127.70339 129.207938 
L 129.054268 131.595468 
L 129.729707 132.555022 
L 131.080585 134.014226 
L 132.431463 134.820479 
L 134.45778 136.591963 
L 135.133219 136.251293 
L 136.484097 134.019904 
L 138.510414 128.694094 
L 139.861292 126.936803 
L 141.887609 122.448474 
L 142.563048 121.628027 
L 143.238487 121.077277 
L 143.913926 120.688345 
L 144.589365 119.884931 
L 145.264804 119.266047 
L 145.940242 119.354054 
L 147.966559 120.523688 
L 149.317437 122.164582 
L 149.992876 122.655715 
L 150.668315 123.544296 
L 152.019193 126.681301 
L 153.370071 129.965929 
L 154.720949 133.559999 
L 155.396388 135.439363 
L 156.071827 136.850305 
L 156.747266 137.926255 
L 157.422705 138.25273 
L 158.773583 137.923416 
L 159.449022 136.214387 
L 162.150778 130.59333 
L 162.826217 129.108576 
L 165.527972 122.295173 
L 166.87885 120.245474 
L 167.554289 119.589684 
L 168.229728 120.001327 
L 168.905167 119.981454 
L 169.580606 119.518711 
L 171.606923 117.664897 
L 172.282362 116.804705 
L 173.63324 113.95727 
L 174.984118 109.752833 
L 177.010435 105.625046 
L 177.685874 105.065779 
L 178.361313 104.960739 
L 179.712191 104.063641 
L 180.38763 104.202748 
L 181.063069 104.991968 
L 182.413946 107.200646 
L 183.089385 108.168717 
L 185.115702 112.324893 
L 186.46658 115.700366 
L 187.817458 120.72809 
L 188.492897 123.356928 
L 189.168336 125.23913 
L 190.519214 127.904874 
L 191.194653 129.33285 
L 191.870092 130.022707 
L 192.545531 129.892117 
L 193.22097 129.247683 
L 193.896409 128.410202 
L 194.571848 128.316518 
L 195.247287 128.665704 
L 195.922726 128.617443 
L 196.598165 129.372595 
L 197.273604 129.460601 
L 198.624482 129.000697 
L 199.299921 128.804811 
L 200.650798 128.731 
L 202.001676 128.370457 
L 202.677115 128.770744 
L 204.027993 130.048258 
L 205.378871 132.06105 
L 206.05431 132.958148 
L 206.729749 133.034799 
L 207.405188 133.454959 
L 209.431505 135.362712 
L 210.106944 135.544403 
L 210.782383 135.396779 
L 211.457822 134.346379 
L 212.133261 132.864464 
L 214.159578 125.812592 
L 215.510456 123.436418 
L 216.185895 122.66991 
L 216.861334 121.582604 
L 218.212212 120.384581 
L 219.563089 120.146112 
L 220.238528 120.165984 
L 220.913967 120.407292 
L 222.264845 120.347675 
L 222.940284 120.620211 
L 224.291162 122.627326 
L 225.64204 123.155365 
L 226.317479 123.419384 
L 226.992918 123.921873 
L 227.668357 124.929688 
L 229.019235 127.47052 
L 229.694674 128.49253 
L 230.370113 128.975147 
L 231.045552 129.716104 
L 232.39643 131.422294 
L 233.747308 133.108611 
L 235.098186 133.585549 
L 235.773625 133.091578 
L 237.124503 131.047557 
L 238.47538 129.190904 
L 239.150819 127.589755 
L 241.852575 119.41651 
L 242.528014 117.273127 
L 243.878892 113.77558 
L 244.554331 112.046679 
L 245.22977 110.729421 
L 245.905209 109.872067 
L 247.256087 109.309962 
L 247.931526 109.34119 
L 248.606965 109.721605 
L 249.957843 112.17443 
L 251.308721 115.7174 
L 251.98416 117.131181 
L 254.010477 122.942446 
L 254.685916 124.021235 
L 255.361355 124.594696 
L 258.06311 126.269658 
L 259.413988 127.399547 
L 260.089427 127.714667 
L 262.115744 128.001398 
L 262.791183 127.893519 
L 264.8175 128.225672 
L 264.8175 128.225672 
" clip-path="url(#pa90d585adb)" style="fill: none; stroke: #ff0000; stroke-opacity: 0.5; stroke-width: 2; stroke-linecap: square"/>
   </g>
   <g id="line2d_25">
    <path d="M 62.86125 120.217085 
L 64.210999 120.376064 
L 64.885874 120.64103 
L 66.235623 120.837861 
L 67.585373 119.709865 
L 68.260247 118.4456 
L 68.935122 116.92394 
L 70.959746 114.209934 
L 72.98437 113.649721 
L 73.659245 114.081237 
L 74.33412 114.777718 
L 75.683869 115.417421 
L 76.358744 115.970063 
L 77.033618 116.681685 
L 77.708493 117.809682 
L 78.383368 117.957306 
L 79.058242 117.892957 
L 79.733117 117.688555 
L 81.082867 119.149651 
L 81.757741 120.205729 
L 82.432616 121.640329 
L 83.782365 125.361204 
L 86.481864 132.8938 
L 87.831613 134.888613 
L 88.506488 135.062733 
L 89.181363 134.983243 
L 89.856237 134.529016 
L 90.531112 133.298819 
L 91.880862 130.149512 
L 95.255235 127.268957 
L 95.93011 126.496771 
L 96.604984 125.081097 
L 97.954734 123.169559 
L 99.304483 120.058105 
L 99.979358 119.327557 
L 100.654232 119.448684 
L 101.329107 119.263208 
L 102.003982 117.915668 
L 102.678857 116.908799 
L 104.028606 117.397093 
L 104.703481 118.02544 
L 106.05323 120.758372 
L 108.752729 129.403823 
L 110.102478 131.924782 
L 111.452227 133.109557 
L 112.127102 133.715193 
L 113.476852 134.419245 
L 114.151726 135.123297 
L 115.501476 137.780524 
L 116.17635 139.105352 
L 116.851225 139.885108 
L 117.5261 141.043387 
L 118.200974 141.539251 
L 118.875849 142.266014 
L 120.225598 145.078436 
L 120.900473 145.536448 
L 121.575348 145.305549 
L 122.250222 144.870248 
L 122.925097 144.298679 
L 123.599972 143.541635 
L 124.274846 142.406067 
L 124.949721 141.917774 
L 126.974345 136.769869 
L 127.64922 134.623647 
L 128.998969 129.381112 
L 129.673844 125.925202 
L 131.698468 117.241899 
L 133.723092 107.237552 
L 134.397967 104.905854 
L 135.072841 103.07002 
L 135.747716 101.991231 
L 136.422591 101.805755 
L 137.097466 102.343257 
L 137.77234 103.376623 
L 138.447215 105.170819 
L 139.796964 110.292227 
L 142.496463 122.348166 
L 143.171338 125.001608 
L 143.846212 126.996421 
L 144.521087 127.984364 
L 145.195962 128.695986 
L 145.870836 129.127502 
L 146.545711 129.044227 
L 147.220586 128.241759 
L 149.920085 122.079415 
L 150.594959 121.572195 
L 151.944709 121.053619 
L 152.619583 121.205028 
L 153.294458 122.026422 
L 153.969333 122.620702 
L 155.319082 122.847815 
L 155.993957 123.408028 
L 157.343706 124.876695 
L 158.018581 124.377046 
L 158.693456 122.83646 
L 159.36833 122.223253 
L 160.043205 121.772812 
L 160.71808 121.49649 
L 162.067829 119.043665 
L 162.742704 119.005813 
L 164.092453 119.270779 
L 164.767328 119.781784 
L 165.442202 119.940763 
L 166.117077 120.3155 
L 166.791952 120.943848 
L 167.466826 121.746315 
L 168.816576 122.42387 
L 169.491451 122.563923 
L 170.166325 122.34438 
L 170.8412 122.613131 
L 172.190949 122.647198 
L 172.865824 122.696406 
L 173.540699 122.900808 
L 174.215573 123.782766 
L 174.890448 125.436908 
L 175.565323 126.379429 
L 176.240197 126.98128 
L 177.589947 127.280312 
L 178.264821 127.019132 
L 178.939696 127.022917 
L 180.289445 128.109277 
L 181.639195 127.303024 
L 182.988944 126.193953 
L 183.663819 125.171943 
L 184.338694 123.839544 
L 185.013568 122.798607 
L 185.688443 122.34438 
L 186.363318 122.139978 
L 187.713067 122.052918 
L 189.062816 122.66991 
L 189.737691 123.68435 
L 191.08744 126.413496 
L 192.43719 127.954082 
L 194.461814 131.13367 
L 195.136689 131.03904 
L 195.811563 130.819497 
L 196.486438 130.728652 
L 197.161313 131.421347 
L 198.511062 133.49565 
L 199.185937 135.115726 
L 199.860811 136.406487 
L 200.535686 137.129465 
L 201.210561 138.261247 
L 201.885435 139.018292 
L 202.56031 139.533082 
L 203.235185 139.336251 
L 204.584934 137.261948 
L 205.259809 135.142223 
L 205.934684 132.413076 
L 206.609558 130.293351 
L 208.634182 125.785149 
L 209.309057 125.478546 
L 211.333681 125.569391 
L 212.68343 126.087967 
L 214.03318 127.40144 
L 214.708055 127.689117 
L 215.382929 126.863938 
L 216.057804 125.71323 
L 216.732679 125.145446 
L 217.407553 124.812346 
L 218.082428 124.819917 
L 218.757303 124.558736 
L 219.432177 124.596589 
L 220.781927 126.137175 
L 221.456801 126.027403 
L 222.131676 125.770008 
L 223.481425 125.565606 
L 224.831175 127.272742 
L 226.180924 128.533222 
L 228.205548 130.206291 
L 228.880423 131.815011 
L 229.555298 132.64019 
L 230.230172 133.722764 
L 230.905047 134.229984 
L 231.579922 134.570654 
L 232.254796 134.313259 
L 232.929671 133.877958 
L 233.604546 133.612992 
L 234.954295 132.704538 
L 235.62917 132.636404 
L 236.304044 133.030068 
L 236.978919 133.813609 
L 237.653794 134.044508 
L 238.328669 133.919595 
L 239.003543 134.071004 
L 239.678418 134.725848 
L 240.353293 135.130867 
L 241.028167 134.585795 
L 241.703042 133.647059 
L 242.377917 133.877958 
L 243.052791 134.305688 
L 244.402541 134.487379 
L 245.077415 134.385178 
L 245.75229 133.912025 
L 246.427165 133.200403 
L 247.102039 133.207973 
L 247.776914 132.787813 
L 248.451789 131.37214 
L 249.126664 129.536306 
L 249.801538 128.347746 
L 251.151288 125.107594 
L 252.501037 122.616917 
L 253.175912 121.644114 
L 254.525661 120.447983 
L 255.87541 120.262507 
L 256.550285 120.425272 
L 257.900034 119.535744 
L 258.574909 120.209514 
L 259.924659 122.605561 
L 260.599533 122.961372 
L 261.274408 122.927305 
L 261.949283 123.389102 
L 262.624157 124.146147 
L 263.299032 124.324053 
L 263.973907 125.005393 
L 265.323656 125.542895 
L 265.998531 125.550465 
L 268.023155 127.579345 
L 269.372904 126.863938 
L 270.047779 126.458919 
L 270.722654 126.769307 
L 273.422152 126.262087 
L 274.097027 126.784448 
L 274.771902 126.591402 
L 275.446776 126.22045 
L 276.121651 126.212879 
L 277.4714 125.648881 
L 278.82115 123.873611 
L 279.496024 122.76454 
L 280.170899 122.719118 
L 281.520648 122.908379 
L 282.195523 123.491303 
L 283.545273 125.584532 
L 284.220147 126.591402 
L 284.895022 127.219749 
L 285.569897 127.291668 
L 286.244771 126.712529 
L 286.919646 125.864639 
L 287.594521 124.043946 
L 288.269395 123.029506 
L 288.94427 122.454152 
L 289.619145 121.723604 
L 290.294019 121.719818 
L 290.968894 121.82959 
L 292.318643 122.454152 
L 292.993518 123.116566 
L 293.668393 123.426954 
L 294.343268 123.900107 
L 295.018142 124.043946 
L 295.693017 124.327838 
L 296.367892 124.324053 
L 298.392516 126.284799 
L 299.06739 126.686032 
L 299.742265 127.848096 
L 300.41714 128.631637 
L 301.092014 128.972308 
L 301.766889 129.994318 
L 302.441764 130.687014 
L 303.116638 130.736222 
L 303.791513 131.266153 
L 304.466388 131.216945 
L 305.141263 130.512894 
L 306.491012 129.581729 
L 307.165887 129.259985 
L 308.515636 126.527053 
L 309.190511 126.439993 
L 309.865385 126.784448 
L 310.54026 127.647479 
L 311.215135 128.237974 
L 311.890009 128.010861 
L 312.564884 127.348447 
L 313.239759 126.337792 
L 313.914633 125.997122 
L 314.589508 126.508127 
L 315.264383 126.277228 
L 315.939258 125.898706 
L 316.614132 125.311996 
L 317.963882 123.601075 
L 318.638756 122.707762 
L 319.313631 120.720519 
L 319.988506 118.362325 
L 322.01313 112.968381 
L 323.362879 108.146005 
L 324.037754 107.222411 
L 324.712628 105.905153 
L 326.062378 103.9974 
L 326.737253 103.702152 
L 327.412127 104.057963 
L 328.761877 105.458496 
L 330.111626 106.226897 
L 330.786501 106.571352 
L 332.13625 106.843888 
L 332.13625 106.843888 
" clip-path="url(#pa90d585adb)" style="fill: none; stroke: #008000; stroke-opacity: 0.5; stroke-width: 2; stroke-linecap: square"/>
   </g>
   <g id="patch_3">
    <path d="M 49.3975 238.8725 
L 49.3975 11.759062 
" style="fill: none; stroke: #000000; stroke-width: 2; stroke-linejoin: miter; stroke-linecap: square"/>
   </g>
   <g id="patch_4">
    <path d="M 345.6 238.8725 
L 345.6 11.759062 
" style="fill: none; stroke: #000000; stroke-width: 2; stroke-linejoin: miter; stroke-linecap: square"/>
   </g>
   <g id="patch_5">
    <path d="M 49.3975 238.8725 
L 345.6 238.8725 
" style="fill: none; stroke: #000000; stroke-width: 2; stroke-linejoin: miter; stroke-linecap: square"/>
   </g>
   <g id="patch_6">
    <path d="M 49.3975 11.759062 
L 345.6 11.759062 
" style="fill: none; stroke: #000000; stroke-width: 2; stroke-linejoin: miter; stroke-linecap: square"/>
   </g>
   <g id="legend_1">
    <g id="line2d_26">
     <path d="M 249.58125 27.477187 
L 261.58125 27.477187 
L 273.58125 27.477187 
" style="fill: none; stroke: #0000ff; stroke-opacity: 0.5; stroke-width: 2; stroke-linecap: square"/>
    </g>
    <g id="text_14">
     <!-- yz-plane -->
     <g transform="translate(283.18125 31.677187)scale(0.12 -0.12)">
      <defs>
       <path id="DejaVuSans-7a" d="M 353 3500 
L 3084 3500 
L 3084 2975 
L 922 459 
L 3084 459 
L 3084 0 
L 275 0 
L 275 525 
L 2438 3041 
L 353 3041 
L 353 3500 
z
" transform="scale(0.015625)"/>
       <path id="DejaVuSans-2d" d="M 313 2009 
L 1997 2009 
L 1997 1497 
L 313 1497 
L 313 2009 
z
" transform="scale(0.015625)"/>
       <path id="DejaVuSans-70" d="M 1159 525 
L 1159 -1331 
L 581 -1331 
L 581 3500 
L 1159 3500 
L 1159 2969 
Q 1341 3281 1617 3432 
Q 1894 3584 2278 3584 
Q 2916 3584 3314 3078 
Q 3713 2572 3713 1747 
Q 3713 922 3314 415 
Q 2916 -91 2278 -91 
Q 1894 -91 1617 61 
Q 1341 213 1159 525 
z
M 3116 1747 
Q 3116 2381 2855 2742 
Q 2594 3103 2138 3103 
Q 1681 3103 1420 2742 
Q 1159 2381 1159 1747 
Q 1159 1113 1420 752 
Q 1681 391 2138 391 
Q 2594 391 2855 752 
Q 3116 1113 3116 1747 
z
" transform="scale(0.015625)"/>
      </defs>
      <use xlink:href="#DejaVuSans-79"/>
      <use xlink:href="#DejaVuSans-7a" x="59.179688"/>
      <use xlink:href="#DejaVuSans-2d" x="111.669922"/>
      <use xlink:href="#DejaVuSans-70" x="147.753906"/>
      <use xlink:href="#DejaVuSans-6c" x="211.230469"/>
      <use xlink:href="#DejaVuSans-61" x="239.013672"/>
      <use xlink:href="#DejaVuSans-6e" x="300.292969"/>
      <use xlink:href="#DejaVuSans-65" x="363.671875"/>
     </g>
    </g>
    <g id="line2d_27">
     <path d="M 249.58125 45.090937 
L 261.58125 45.090937 
L 273.58125 45.090937 
" style="fill: none; stroke: #ff0000; stroke-opacity: 0.5; stroke-width: 2; stroke-linecap: square"/>
    </g>
    <g id="text_15">
     <!-- xz-plane -->
     <g transform="translate(283.18125 49.290937)scale(0.12 -0.12)">
      <use xlink:href="#DejaVuSans-78"/>
      <use xlink:href="#DejaVuSans-7a" x="59.179688"/>
      <use xlink:href="#DejaVuSans-2d" x="111.669922"/>
      <use xlink:href="#DejaVuSans-70" x="147.753906"/>
      <use xlink:href="#DejaVuSans-6c" x="211.230469"/>
      <use xlink:href="#DejaVuSans-61" x="239.013672"/>
      <use xlink:href="#DejaVuSans-6e" x="300.292969"/>
      <use xlink:href="#DejaVuSans-65" x="363.671875"/>
     </g>
    </g>
    <g id="line2d_28">
     <path d="M 249.58125 62.704687 
L 261.58125 62.704687 
L 273.58125 62.704687 
" style="fill: none; stroke: #008000; stroke-opacity: 0.5; stroke-width: 2; stroke-linecap: square"/>
    </g>
    <g id="text_16">
     <!-- xy-plane -->
     <g transform="translate(283.18125 66.904687)scale(0.12 -0.12)">
      <use xlink:href="#DejaVuSans-78"/>
      <use xlink:href="#DejaVuSans-79" x="59.179688"/>
      <use xlink:href="#DejaVuSans-2d" x="116.609375"/>
      <use xlink:href="#DejaVuSans-70" x="152.693359"/>
      <use xlink:href="#DejaVuSans-6c" x="216.169922"/>
      <use xlink:href="#DejaVuSans-61" x="243.953125"/>
      <use xlink:href="#DejaVuSans-6e" x="305.232422"/>
      <use xlink:href="#DejaVuSans-65" x="368.611328"/>
     </g>
    </g>
   </g>
  </g>
 </g>
 <defs>
  <clipPath id="pa90d585adb">
   <rect x="49.3975" y="11.759062" width="296.2025" height="227.113437"/>
  </clipPath>
 </defs>
</svg>
