<?xml version="1.0" encoding="utf-8" standalone="no"?>
<!DOCTYPE svg PUBLIC "-//W3C//DTD SVG 1.1//EN"
  "http://www.w3.org/Graphics/SVG/1.1/DTD/svg11.dtd">
<svg xmlns:xlink="http://www.w3.org/1999/xlink" width="352.8pt" height="280.8pt" viewBox="0 0 352.8 280.8" xmlns="http://www.w3.org/2000/svg" version="1.1">
 <metadata>
  <rdf:RDF xmlns:dc="http://purl.org/dc/elements/1.1/" xmlns:cc="http://creativecommons.org/ns#" xmlns:rdf="http://www.w3.org/1999/02/22-rdf-syntax-ns#">
   <cc:Work>
    <dc:type rdf:resource="http://purl.org/dc/dcmitype/StillImage"/>
    <dc:date>2022-06-22T19:34:29.195140</dc:date>
    <dc:format>image/svg+xml</dc:format>
    <dc:creator>
     <cc:Agent>
      <dc:title>Matplotlib v3.5.2, https://matplotlib.org/</dc:title>
     </cc:Agent>
    </dc:creator>
   </cc:Work>
  </rdf:RDF>
 </metadata>
 <defs>
  <style type="text/css">*{stroke-linejoin: round; stroke-linecap: butt}</style>
 </defs>
 <g id="figure_1">
  <g id="patch_1">
   <path d="M 0 280.8 
L 352.8 280.8 
L 352.8 0 
L 0 0 
L 0 280.8 
z
" style="fill: none"/>
  </g>
  <g id="axes_1">
   <g id="patch_2">
    <path d="M 49.3975 238.8725 
L 345.6 238.8725 
L 345.6 11.759062 
L 49.3975 11.759062 
z
" style="fill: #ffffff"/>
   </g>
   <g id="matplotlib.axis_1">
    <g id="xtick_1">
     <g id="line2d_1">
      <defs>
       <path id="m24ca4e55c6" d="M 0 0 
L 0 -6 
" style="stroke: #000000; stroke-width: 2"/>
      </defs>
      <g>
       <use xlink:href="#m24ca4e55c6" x="62.86125" y="238.8725" style="fill: #ffffff; stroke: #000000; stroke-width: 2"/>
      </g>
     </g>
     <g id="line2d_2">
      <defs>
       <path id="m741e6b4c3c" d="M 0 0 
L 0 6 
" style="stroke: #000000; stroke-width: 2"/>
      </defs>
      <g>
       <use xlink:href="#m741e6b4c3c" x="62.86125" y="11.759062" style="fill: #ffffff; stroke: #000000; stroke-width: 2"/>
      </g>
     </g>
     <g id="text_1">
      <!-- 0 -->
      <g transform="translate(59.04375 251.490625)scale(0.12 -0.12)">
       <defs>
        <path id="DejaVuSans-30" d="M 2034 4250 
Q 1547 4250 1301 3770 
Q 1056 3291 1056 2328 
Q 1056 1369 1301 889 
Q 1547 409 2034 409 
Q 2525 409 2770 889 
Q 3016 1369 3016 2328 
Q 3016 3291 2770 3770 
Q 2525 4250 2034 4250 
z
M 2034 4750 
Q 2819 4750 3233 4129 
Q 3647 3509 3647 2328 
Q 3647 1150 3233 529 
Q 2819 -91 2034 -91 
Q 1250 -91 836 529 
Q 422 1150 422 2328 
Q 422 3509 836 4129 
Q 1250 4750 2034 4750 
z
" transform="scale(0.015625)"/>
       </defs>
       <use xlink:href="#DejaVuSans-30"/>
      </g>
     </g>
    </g>
    <g id="xtick_2">
     <g id="line2d_3">
      <g>
       <use xlink:href="#m24ca4e55c6" x="119.911038" y="238.8725" style="fill: #ffffff; stroke: #000000; stroke-width: 2"/>
      </g>
     </g>
     <g id="line2d_4">
      <g>
       <use xlink:href="#m741e6b4c3c" x="119.911038" y="11.759062" style="fill: #ffffff; stroke: #000000; stroke-width: 2"/>
      </g>
     </g>
     <g id="text_2">
      <!-- 500 -->
      <g transform="translate(108.458538 251.490625)scale(0.12 -0.12)">
       <defs>
        <path id="DejaVuSans-35" d="M 691 4666 
L 3169 4666 
L 3169 4134 
L 1269 4134 
L 1269 2991 
Q 1406 3038 1543 3061 
Q 1681 3084 1819 3084 
Q 2600 3084 3056 2656 
Q 3513 2228 3513 1497 
Q 3513 744 3044 326 
Q 2575 -91 1722 -91 
Q 1428 -91 1123 -41 
Q 819 9 494 109 
L 494 744 
Q 775 591 1075 516 
Q 1375 441 1709 441 
Q 2250 441 2565 725 
Q 2881 1009 2881 1497 
Q 2881 1984 2565 2268 
Q 2250 2553 1709 2553 
Q 1456 2553 1204 2497 
Q 953 2441 691 2322 
L 691 4666 
z
" transform="scale(0.015625)"/>
       </defs>
       <use xlink:href="#DejaVuSans-35"/>
       <use xlink:href="#DejaVuSans-30" x="63.623047"/>
       <use xlink:href="#DejaVuSans-30" x="127.246094"/>
      </g>
     </g>
    </g>
    <g id="xtick_3">
     <g id="line2d_5">
      <g>
       <use xlink:href="#m24ca4e55c6" x="176.960826" y="238.8725" style="fill: #ffffff; stroke: #000000; stroke-width: 2"/>
      </g>
     </g>
     <g id="line2d_6">
      <g>
       <use xlink:href="#m741e6b4c3c" x="176.960826" y="11.759062" style="fill: #ffffff; stroke: #000000; stroke-width: 2"/>
      </g>
     </g>
     <g id="text_3">
      <!-- 1000 -->
      <g transform="translate(161.690826 251.490625)scale(0.12 -0.12)">
       <defs>
        <path id="DejaVuSans-31" d="M 794 531 
L 1825 531 
L 1825 4091 
L 703 3866 
L 703 4441 
L 1819 4666 
L 2450 4666 
L 2450 531 
L 3481 531 
L 3481 0 
L 794 0 
L 794 531 
z
" transform="scale(0.015625)"/>
       </defs>
       <use xlink:href="#DejaVuSans-31"/>
       <use xlink:href="#DejaVuSans-30" x="63.623047"/>
       <use xlink:href="#DejaVuSans-30" x="127.246094"/>
       <use xlink:href="#DejaVuSans-30" x="190.869141"/>
      </g>
     </g>
    </g>
    <g id="xtick_4">
     <g id="line2d_7">
      <g>
       <use xlink:href="#m24ca4e55c6" x="234.010614" y="238.8725" style="fill: #ffffff; stroke: #000000; stroke-width: 2"/>
      </g>
     </g>
     <g id="line2d_8">
      <g>
       <use xlink:href="#m741e6b4c3c" x="234.010614" y="11.759062" style="fill: #ffffff; stroke: #000000; stroke-width: 2"/>
      </g>
     </g>
     <g id="text_4">
      <!-- 1500 -->
      <g transform="translate(218.740614 251.490625)scale(0.12 -0.12)">
       <use xlink:href="#DejaVuSans-31"/>
       <use xlink:href="#DejaVuSans-35" x="63.623047"/>
       <use xlink:href="#DejaVuSans-30" x="127.246094"/>
       <use xlink:href="#DejaVuSans-30" x="190.869141"/>
      </g>
     </g>
    </g>
    <g id="xtick_5">
     <g id="line2d_9">
      <g>
       <use xlink:href="#m24ca4e55c6" x="291.060403" y="238.8725" style="fill: #ffffff; stroke: #000000; stroke-width: 2"/>
      </g>
     </g>
     <g id="line2d_10">
      <g>
       <use xlink:href="#m741e6b4c3c" x="291.060403" y="11.759062" style="fill: #ffffff; stroke: #000000; stroke-width: 2"/>
      </g>
     </g>
     <g id="text_5">
      <!-- 2000 -->
      <g transform="translate(275.790403 251.490625)scale(0.12 -0.12)">
       <defs>
        <path id="DejaVuSans-32" d="M 1228 531 
L 3431 531 
L 3431 0 
L 469 0 
L 469 531 
Q 828 903 1448 1529 
Q 2069 2156 2228 2338 
Q 2531 2678 2651 2914 
Q 2772 3150 2772 3378 
Q 2772 3750 2511 3984 
Q 2250 4219 1831 4219 
Q 1534 4219 1204 4116 
Q 875 4013 500 3803 
L 500 4441 
Q 881 4594 1212 4672 
Q 1544 4750 1819 4750 
Q 2544 4750 2975 4387 
Q 3406 4025 3406 3419 
Q 3406 3131 3298 2873 
Q 3191 2616 2906 2266 
Q 2828 2175 2409 1742 
Q 1991 1309 1228 531 
z
" transform="scale(0.015625)"/>
       </defs>
       <use xlink:href="#DejaVuSans-32"/>
       <use xlink:href="#DejaVuSans-30" x="63.623047"/>
       <use xlink:href="#DejaVuSans-30" x="127.246094"/>
       <use xlink:href="#DejaVuSans-30" x="190.869141"/>
      </g>
     </g>
    </g>
    <g id="text_6">
     <!-- Position of slice along given axis -->
     <g transform="translate(100.205 271.104375)scale(0.12 -0.12)">
      <defs>
       <path id="DejaVuSans-50" d="M 1259 4147 
L 1259 2394 
L 2053 2394 
Q 2494 2394 2734 2622 
Q 2975 2850 2975 3272 
Q 2975 3691 2734 3919 
Q 2494 4147 2053 4147 
L 1259 4147 
z
M 628 4666 
L 2053 4666 
Q 2838 4666 3239 4311 
Q 3641 3956 3641 3272 
Q 3641 2581 3239 2228 
Q 2838 1875 2053 1875 
L 1259 1875 
L 1259 0 
L 628 0 
L 628 4666 
z
" transform="scale(0.015625)"/>
       <path id="DejaVuSans-6f" d="M 1959 3097 
Q 1497 3097 1228 2736 
Q 959 2375 959 1747 
Q 959 1119 1226 758 
Q 1494 397 1959 397 
Q 2419 397 2687 759 
Q 2956 1122 2956 1747 
Q 2956 2369 2687 2733 
Q 2419 3097 1959 3097 
z
M 1959 3584 
Q 2709 3584 3137 3096 
Q 3566 2609 3566 1747 
Q 3566 888 3137 398 
Q 2709 -91 1959 -91 
Q 1206 -91 779 398 
Q 353 888 353 1747 
Q 353 2609 779 3096 
Q 1206 3584 1959 3584 
z
" transform="scale(0.015625)"/>
       <path id="DejaVuSans-73" d="M 2834 3397 
L 2834 2853 
Q 2591 2978 2328 3040 
Q 2066 3103 1784 3103 
Q 1356 3103 1142 2972 
Q 928 2841 928 2578 
Q 928 2378 1081 2264 
Q 1234 2150 1697 2047 
L 1894 2003 
Q 2506 1872 2764 1633 
Q 3022 1394 3022 966 
Q 3022 478 2636 193 
Q 2250 -91 1575 -91 
Q 1294 -91 989 -36 
Q 684 19 347 128 
L 347 722 
Q 666 556 975 473 
Q 1284 391 1588 391 
Q 1994 391 2212 530 
Q 2431 669 2431 922 
Q 2431 1156 2273 1281 
Q 2116 1406 1581 1522 
L 1381 1569 
Q 847 1681 609 1914 
Q 372 2147 372 2553 
Q 372 3047 722 3315 
Q 1072 3584 1716 3584 
Q 2034 3584 2315 3537 
Q 2597 3491 2834 3397 
z
" transform="scale(0.015625)"/>
       <path id="DejaVuSans-69" d="M 603 3500 
L 1178 3500 
L 1178 0 
L 603 0 
L 603 3500 
z
M 603 4863 
L 1178 4863 
L 1178 4134 
L 603 4134 
L 603 4863 
z
" transform="scale(0.015625)"/>
       <path id="DejaVuSans-74" d="M 1172 4494 
L 1172 3500 
L 2356 3500 
L 2356 3053 
L 1172 3053 
L 1172 1153 
Q 1172 725 1289 603 
Q 1406 481 1766 481 
L 2356 481 
L 2356 0 
L 1766 0 
Q 1100 0 847 248 
Q 594 497 594 1153 
L 594 3053 
L 172 3053 
L 172 3500 
L 594 3500 
L 594 4494 
L 1172 4494 
z
" transform="scale(0.015625)"/>
       <path id="DejaVuSans-6e" d="M 3513 2113 
L 3513 0 
L 2938 0 
L 2938 2094 
Q 2938 2591 2744 2837 
Q 2550 3084 2163 3084 
Q 1697 3084 1428 2787 
Q 1159 2491 1159 1978 
L 1159 0 
L 581 0 
L 581 3500 
L 1159 3500 
L 1159 2956 
Q 1366 3272 1645 3428 
Q 1925 3584 2291 3584 
Q 2894 3584 3203 3211 
Q 3513 2838 3513 2113 
z
" transform="scale(0.015625)"/>
       <path id="DejaVuSans-20" transform="scale(0.015625)"/>
       <path id="DejaVuSans-66" d="M 2375 4863 
L 2375 4384 
L 1825 4384 
Q 1516 4384 1395 4259 
Q 1275 4134 1275 3809 
L 1275 3500 
L 2222 3500 
L 2222 3053 
L 1275 3053 
L 1275 0 
L 697 0 
L 697 3053 
L 147 3053 
L 147 3500 
L 697 3500 
L 697 3744 
Q 697 4328 969 4595 
Q 1241 4863 1831 4863 
L 2375 4863 
z
" transform="scale(0.015625)"/>
       <path id="DejaVuSans-6c" d="M 603 4863 
L 1178 4863 
L 1178 0 
L 603 0 
L 603 4863 
z
" transform="scale(0.015625)"/>
       <path id="DejaVuSans-63" d="M 3122 3366 
L 3122 2828 
Q 2878 2963 2633 3030 
Q 2388 3097 2138 3097 
Q 1578 3097 1268 2742 
Q 959 2388 959 1747 
Q 959 1106 1268 751 
Q 1578 397 2138 397 
Q 2388 397 2633 464 
Q 2878 531 3122 666 
L 3122 134 
Q 2881 22 2623 -34 
Q 2366 -91 2075 -91 
Q 1284 -91 818 406 
Q 353 903 353 1747 
Q 353 2603 823 3093 
Q 1294 3584 2113 3584 
Q 2378 3584 2631 3529 
Q 2884 3475 3122 3366 
z
" transform="scale(0.015625)"/>
       <path id="DejaVuSans-65" d="M 3597 1894 
L 3597 1613 
L 953 1613 
Q 991 1019 1311 708 
Q 1631 397 2203 397 
Q 2534 397 2845 478 
Q 3156 559 3463 722 
L 3463 178 
Q 3153 47 2828 -22 
Q 2503 -91 2169 -91 
Q 1331 -91 842 396 
Q 353 884 353 1716 
Q 353 2575 817 3079 
Q 1281 3584 2069 3584 
Q 2775 3584 3186 3129 
Q 3597 2675 3597 1894 
z
M 3022 2063 
Q 3016 2534 2758 2815 
Q 2500 3097 2075 3097 
Q 1594 3097 1305 2825 
Q 1016 2553 972 2059 
L 3022 2063 
z
" transform="scale(0.015625)"/>
       <path id="DejaVuSans-61" d="M 2194 1759 
Q 1497 1759 1228 1600 
Q 959 1441 959 1056 
Q 959 750 1161 570 
Q 1363 391 1709 391 
Q 2188 391 2477 730 
Q 2766 1069 2766 1631 
L 2766 1759 
L 2194 1759 
z
M 3341 1997 
L 3341 0 
L 2766 0 
L 2766 531 
Q 2569 213 2275 61 
Q 1981 -91 1556 -91 
Q 1019 -91 701 211 
Q 384 513 384 1019 
Q 384 1609 779 1909 
Q 1175 2209 1959 2209 
L 2766 2209 
L 2766 2266 
Q 2766 2663 2505 2880 
Q 2244 3097 1772 3097 
Q 1472 3097 1187 3025 
Q 903 2953 641 2809 
L 641 3341 
Q 956 3463 1253 3523 
Q 1550 3584 1831 3584 
Q 2591 3584 2966 3190 
Q 3341 2797 3341 1997 
z
" transform="scale(0.015625)"/>
       <path id="DejaVuSans-67" d="M 2906 1791 
Q 2906 2416 2648 2759 
Q 2391 3103 1925 3103 
Q 1463 3103 1205 2759 
Q 947 2416 947 1791 
Q 947 1169 1205 825 
Q 1463 481 1925 481 
Q 2391 481 2648 825 
Q 2906 1169 2906 1791 
z
M 3481 434 
Q 3481 -459 3084 -895 
Q 2688 -1331 1869 -1331 
Q 1566 -1331 1297 -1286 
Q 1028 -1241 775 -1147 
L 775 -588 
Q 1028 -725 1275 -790 
Q 1522 -856 1778 -856 
Q 2344 -856 2625 -561 
Q 2906 -266 2906 331 
L 2906 616 
Q 2728 306 2450 153 
Q 2172 0 1784 0 
Q 1141 0 747 490 
Q 353 981 353 1791 
Q 353 2603 747 3093 
Q 1141 3584 1784 3584 
Q 2172 3584 2450 3431 
Q 2728 3278 2906 2969 
L 2906 3500 
L 3481 3500 
L 3481 434 
z
" transform="scale(0.015625)"/>
       <path id="DejaVuSans-76" d="M 191 3500 
L 800 3500 
L 1894 563 
L 2988 3500 
L 3597 3500 
L 2284 0 
L 1503 0 
L 191 3500 
z
" transform="scale(0.015625)"/>
       <path id="DejaVuSans-78" d="M 3513 3500 
L 2247 1797 
L 3578 0 
L 2900 0 
L 1881 1375 
L 863 0 
L 184 0 
L 1544 1831 
L 300 3500 
L 978 3500 
L 1906 2253 
L 2834 3500 
L 3513 3500 
z
" transform="scale(0.015625)"/>
      </defs>
      <use xlink:href="#DejaVuSans-50"/>
      <use xlink:href="#DejaVuSans-6f" x="56.677734"/>
      <use xlink:href="#DejaVuSans-73" x="117.859375"/>
      <use xlink:href="#DejaVuSans-69" x="169.958984"/>
      <use xlink:href="#DejaVuSans-74" x="197.742188"/>
      <use xlink:href="#DejaVuSans-69" x="236.951172"/>
      <use xlink:href="#DejaVuSans-6f" x="264.734375"/>
      <use xlink:href="#DejaVuSans-6e" x="325.916016"/>
      <use xlink:href="#DejaVuSans-20" x="389.294922"/>
      <use xlink:href="#DejaVuSans-6f" x="421.082031"/>
      <use xlink:href="#DejaVuSans-66" x="482.263672"/>
      <use xlink:href="#DejaVuSans-20" x="517.46875"/>
      <use xlink:href="#DejaVuSans-73" x="549.255859"/>
      <use xlink:href="#DejaVuSans-6c" x="601.355469"/>
      <use xlink:href="#DejaVuSans-69" x="629.138672"/>
      <use xlink:href="#DejaVuSans-63" x="656.921875"/>
      <use xlink:href="#DejaVuSans-65" x="711.902344"/>
      <use xlink:href="#DejaVuSans-20" x="773.425781"/>
      <use xlink:href="#DejaVuSans-61" x="805.212891"/>
      <use xlink:href="#DejaVuSans-6c" x="866.492188"/>
      <use xlink:href="#DejaVuSans-6f" x="894.275391"/>
      <use xlink:href="#DejaVuSans-6e" x="955.457031"/>
      <use xlink:href="#DejaVuSans-67" x="1018.835938"/>
      <use xlink:href="#DejaVuSans-20" x="1082.3125"/>
      <use xlink:href="#DejaVuSans-67" x="1114.099609"/>
      <use xlink:href="#DejaVuSans-69" x="1177.576172"/>
      <use xlink:href="#DejaVuSans-76" x="1205.359375"/>
      <use xlink:href="#DejaVuSans-65" x="1264.539062"/>
      <use xlink:href="#DejaVuSans-6e" x="1326.0625"/>
      <use xlink:href="#DejaVuSans-20" x="1389.441406"/>
      <use xlink:href="#DejaVuSans-61" x="1421.228516"/>
      <use xlink:href="#DejaVuSans-78" x="1482.507812"/>
      <use xlink:href="#DejaVuSans-69" x="1541.6875"/>
      <use xlink:href="#DejaVuSans-73" x="1569.470703"/>
     </g>
    </g>
   </g>
   <g id="matplotlib.axis_2">
    <g id="ytick_1">
     <g id="line2d_11">
      <defs>
       <path id="m3b49e13c6c" d="M 0 0 
L 6 0 
" style="stroke: #000000; stroke-width: 2"/>
      </defs>
      <g>
       <use xlink:href="#m3b49e13c6c" x="49.3975" y="238.8725" style="fill: #ffffff; stroke: #000000; stroke-width: 2"/>
      </g>
     </g>
     <g id="line2d_12">
      <defs>
       <path id="m5341cd0551" d="M 0 0 
L -6 0 
" style="stroke: #000000; stroke-width: 2"/>
      </defs>
      <g>
       <use xlink:href="#m5341cd0551" x="345.6" y="238.8725" style="fill: #ffffff; stroke: #000000; stroke-width: 2"/>
      </g>
     </g>
     <g id="text_7">
      <!-- 0.0 -->
      <g transform="translate(26.81375 243.431562)scale(0.12 -0.12)">
       <defs>
        <path id="DejaVuSans-2e" d="M 684 794 
L 1344 794 
L 1344 0 
L 684 0 
L 684 794 
z
" transform="scale(0.015625)"/>
       </defs>
       <use xlink:href="#DejaVuSans-30"/>
       <use xlink:href="#DejaVuSans-2e" x="63.623047"/>
       <use xlink:href="#DejaVuSans-30" x="95.410156"/>
      </g>
     </g>
    </g>
    <g id="ytick_2">
     <g id="line2d_13">
      <g>
       <use xlink:href="#m3b49e13c6c" x="49.3975" y="193.449812" style="fill: #ffffff; stroke: #000000; stroke-width: 2"/>
      </g>
     </g>
     <g id="line2d_14">
      <g>
       <use xlink:href="#m5341cd0551" x="345.6" y="193.449812" style="fill: #ffffff; stroke: #000000; stroke-width: 2"/>
      </g>
     </g>
     <g id="text_8">
      <!-- 0.2 -->
      <g transform="translate(26.81375 198.008875)scale(0.12 -0.12)">
       <use xlink:href="#DejaVuSans-30"/>
       <use xlink:href="#DejaVuSans-2e" x="63.623047"/>
       <use xlink:href="#DejaVuSans-32" x="95.410156"/>
      </g>
     </g>
    </g>
    <g id="ytick_3">
     <g id="line2d_15">
      <g>
       <use xlink:href="#m3b49e13c6c" x="49.3975" y="148.027125" style="fill: #ffffff; stroke: #000000; stroke-width: 2"/>
      </g>
     </g>
     <g id="line2d_16">
      <g>
       <use xlink:href="#m5341cd0551" x="345.6" y="148.027125" style="fill: #ffffff; stroke: #000000; stroke-width: 2"/>
      </g>
     </g>
     <g id="text_9">
      <!-- 0.4 -->
      <g transform="translate(26.81375 152.586187)scale(0.12 -0.12)">
       <defs>
        <path id="DejaVuSans-34" d="M 2419 4116 
L 825 1625 
L 2419 1625 
L 2419 4116 
z
M 2253 4666 
L 3047 4666 
L 3047 1625 
L 3713 1625 
L 3713 1100 
L 3047 1100 
L 3047 0 
L 2419 0 
L 2419 1100 
L 313 1100 
L 313 1709 
L 2253 4666 
z
" transform="scale(0.015625)"/>
       </defs>
       <use xlink:href="#DejaVuSans-30"/>
       <use xlink:href="#DejaVuSans-2e" x="63.623047"/>
       <use xlink:href="#DejaVuSans-34" x="95.410156"/>
      </g>
     </g>
    </g>
    <g id="ytick_4">
     <g id="line2d_17">
      <g>
       <use xlink:href="#m3b49e13c6c" x="49.3975" y="102.604437" style="fill: #ffffff; stroke: #000000; stroke-width: 2"/>
      </g>
     </g>
     <g id="line2d_18">
      <g>
       <use xlink:href="#m5341cd0551" x="345.6" y="102.604437" style="fill: #ffffff; stroke: #000000; stroke-width: 2"/>
      </g>
     </g>
     <g id="text_10">
      <!-- 0.6 -->
      <g transform="translate(26.81375 107.1635)scale(0.12 -0.12)">
       <defs>
        <path id="DejaVuSans-36" d="M 2113 2584 
Q 1688 2584 1439 2293 
Q 1191 2003 1191 1497 
Q 1191 994 1439 701 
Q 1688 409 2113 409 
Q 2538 409 2786 701 
Q 3034 994 3034 1497 
Q 3034 2003 2786 2293 
Q 2538 2584 2113 2584 
z
M 3366 4563 
L 3366 3988 
Q 3128 4100 2886 4159 
Q 2644 4219 2406 4219 
Q 1781 4219 1451 3797 
Q 1122 3375 1075 2522 
Q 1259 2794 1537 2939 
Q 1816 3084 2150 3084 
Q 2853 3084 3261 2657 
Q 3669 2231 3669 1497 
Q 3669 778 3244 343 
Q 2819 -91 2113 -91 
Q 1303 -91 875 529 
Q 447 1150 447 2328 
Q 447 3434 972 4092 
Q 1497 4750 2381 4750 
Q 2619 4750 2861 4703 
Q 3103 4656 3366 4563 
z
" transform="scale(0.015625)"/>
       </defs>
       <use xlink:href="#DejaVuSans-30"/>
       <use xlink:href="#DejaVuSans-2e" x="63.623047"/>
       <use xlink:href="#DejaVuSans-36" x="95.410156"/>
      </g>
     </g>
    </g>
    <g id="ytick_5">
     <g id="line2d_19">
      <g>
       <use xlink:href="#m3b49e13c6c" x="49.3975" y="57.18175" style="fill: #ffffff; stroke: #000000; stroke-width: 2"/>
      </g>
     </g>
     <g id="line2d_20">
      <g>
       <use xlink:href="#m5341cd0551" x="345.6" y="57.18175" style="fill: #ffffff; stroke: #000000; stroke-width: 2"/>
      </g>
     </g>
     <g id="text_11">
      <!-- 0.8 -->
      <g transform="translate(26.81375 61.740812)scale(0.12 -0.12)">
       <defs>
        <path id="DejaVuSans-38" d="M 2034 2216 
Q 1584 2216 1326 1975 
Q 1069 1734 1069 1313 
Q 1069 891 1326 650 
Q 1584 409 2034 409 
Q 2484 409 2743 651 
Q 3003 894 3003 1313 
Q 3003 1734 2745 1975 
Q 2488 2216 2034 2216 
z
M 1403 2484 
Q 997 2584 770 2862 
Q 544 3141 544 3541 
Q 544 4100 942 4425 
Q 1341 4750 2034 4750 
Q 2731 4750 3128 4425 
Q 3525 4100 3525 3541 
Q 3525 3141 3298 2862 
Q 3072 2584 2669 2484 
Q 3125 2378 3379 2068 
Q 3634 1759 3634 1313 
Q 3634 634 3220 271 
Q 2806 -91 2034 -91 
Q 1263 -91 848 271 
Q 434 634 434 1313 
Q 434 1759 690 2068 
Q 947 2378 1403 2484 
z
M 1172 3481 
Q 1172 3119 1398 2916 
Q 1625 2713 2034 2713 
Q 2441 2713 2670 2916 
Q 2900 3119 2900 3481 
Q 2900 3844 2670 4047 
Q 2441 4250 2034 4250 
Q 1625 4250 1398 4047 
Q 1172 3844 1172 3481 
z
" transform="scale(0.015625)"/>
       </defs>
       <use xlink:href="#DejaVuSans-30"/>
       <use xlink:href="#DejaVuSans-2e" x="63.623047"/>
       <use xlink:href="#DejaVuSans-38" x="95.410156"/>
      </g>
     </g>
    </g>
    <g id="ytick_6">
     <g id="line2d_21">
      <g>
       <use xlink:href="#m3b49e13c6c" x="49.3975" y="11.759062" style="fill: #ffffff; stroke: #000000; stroke-width: 2"/>
      </g>
     </g>
     <g id="line2d_22">
      <g>
       <use xlink:href="#m5341cd0551" x="345.6" y="11.759062" style="fill: #ffffff; stroke: #000000; stroke-width: 2"/>
      </g>
     </g>
     <g id="text_12">
      <!-- 1.0 -->
      <g transform="translate(26.81375 16.318125)scale(0.12 -0.12)">
       <use xlink:href="#DejaVuSans-31"/>
       <use xlink:href="#DejaVuSans-2e" x="63.623047"/>
       <use xlink:href="#DejaVuSans-30" x="95.410156"/>
      </g>
     </g>
    </g>
    <g id="text_13">
     <!-- Porosity of slice -->
     <g transform="translate(16.318125 172.133594)rotate(-90)scale(0.12 -0.12)">
      <defs>
       <path id="DejaVuSans-72" d="M 2631 2963 
Q 2534 3019 2420 3045 
Q 2306 3072 2169 3072 
Q 1681 3072 1420 2755 
Q 1159 2438 1159 1844 
L 1159 0 
L 581 0 
L 581 3500 
L 1159 3500 
L 1159 2956 
Q 1341 3275 1631 3429 
Q 1922 3584 2338 3584 
Q 2397 3584 2469 3576 
Q 2541 3569 2628 3553 
L 2631 2963 
z
" transform="scale(0.015625)"/>
       <path id="DejaVuSans-79" d="M 2059 -325 
Q 1816 -950 1584 -1140 
Q 1353 -1331 966 -1331 
L 506 -1331 
L 506 -850 
L 844 -850 
Q 1081 -850 1212 -737 
Q 1344 -625 1503 -206 
L 1606 56 
L 191 3500 
L 800 3500 
L 1894 763 
L 2988 3500 
L 3597 3500 
L 2059 -325 
z
" transform="scale(0.015625)"/>
      </defs>
      <use xlink:href="#DejaVuSans-50"/>
      <use xlink:href="#DejaVuSans-6f" x="56.677734"/>
      <use xlink:href="#DejaVuSans-72" x="117.859375"/>
      <use xlink:href="#DejaVuSans-6f" x="156.722656"/>
      <use xlink:href="#DejaVuSans-73" x="217.904297"/>
      <use xlink:href="#DejaVuSans-69" x="270.003906"/>
      <use xlink:href="#DejaVuSans-74" x="297.787109"/>
      <use xlink:href="#DejaVuSans-79" x="336.996094"/>
      <use xlink:href="#DejaVuSans-20" x="396.175781"/>
      <use xlink:href="#DejaVuSans-6f" x="427.962891"/>
      <use xlink:href="#DejaVuSans-66" x="489.144531"/>
      <use xlink:href="#DejaVuSans-20" x="524.349609"/>
      <use xlink:href="#DejaVuSans-73" x="556.136719"/>
      <use xlink:href="#DejaVuSans-6c" x="608.236328"/>
      <use xlink:href="#DejaVuSans-69" x="636.019531"/>
      <use xlink:href="#DejaVuSans-63" x="663.802734"/>
      <use xlink:href="#DejaVuSans-65" x="718.783203"/>
     </g>
    </g>
   </g>
   <g id="line2d_23">
    <path d="M 62.86125 120.724305 
L 63.53782 120.68456 
L 64.214391 120.531258 
L 64.890961 120.14138 
L 66.244102 118.799518 
L 66.920672 118.443707 
L 67.597242 118.233627 
L 68.950383 118.341506 
L 70.303524 117.48226 
L 70.980094 117.629884 
L 71.656665 117.499294 
L 72.333235 116.956114 
L 73.686376 115.680494 
L 74.362946 115.406065 
L 75.039516 115.493125 
L 75.716087 115.985204 
L 77.069227 118.738955 
L 77.745798 120.222762 
L 81.128649 125.97441 
L 83.158361 130.054882 
L 83.834931 130.53939 
L 84.511501 130.609417 
L 85.864642 129.547662 
L 87.217783 129.736923 
L 87.894353 129.929969 
L 89.247494 129.331904 
L 89.924064 129.159676 
L 90.600634 129.282696 
L 91.277205 129.659326 
L 93.306916 131.674957 
L 93.983486 131.67685 
L 94.660057 131.186664 
L 95.336627 131.145026 
L 96.689768 129.716104 
L 97.366338 129.895902 
L 98.042908 130.229002 
L 100.072619 131.58222 
L 102.10233 131.729843 
L 102.778901 131.83583 
L 103.455471 132.157574 
L 104.808612 133.399127 
L 105.485182 133.862817 
L 106.161753 133.442657 
L 106.838323 132.123507 
L 107.514893 131.177201 
L 108.191464 129.875084 
L 109.544604 128.215263 
L 110.221175 127.933264 
L 110.897745 127.378728 
L 111.574315 126.207201 
L 112.250886 124.469784 
L 112.927456 122.404944 
L 114.280597 119.319986 
L 114.957167 118.095467 
L 115.633737 117.459549 
L 116.310308 117.376274 
L 116.986878 117.665844 
L 117.663448 118.347184 
L 118.340019 118.767344 
L 119.016589 119.628482 
L 119.69316 120.077031 
L 120.36973 120.722412 
L 121.722871 122.368984 
L 122.399441 123.731665 
L 123.076011 124.36569 
L 125.105722 128.567289 
L 126.458863 131.006865 
L 127.135433 131.533012 
L 127.812004 131.55383 
L 128.488574 131.355106 
L 129.841715 131.406207 
L 130.518285 131.572756 
L 131.194856 132.163251 
L 131.871426 133.187154 
L 132.547996 133.758723 
L 133.224567 133.612992 
L 133.901137 133.296926 
L 135.254278 132.110258 
L 136.607418 131.678743 
L 137.960559 130.280102 
L 138.637129 129.880761 
L 139.99027 130.064345 
L 140.66684 130.007566 
L 141.343411 130.087056 
L 142.696552 131.018221 
L 144.726263 133.045209 
L 146.079403 133.175799 
L 147.432544 132.642082 
L 148.785685 132.528526 
L 150.138825 131.00308 
L 150.815396 130.007566 
L 152.168536 128.552148 
L 153.521677 126.258302 
L 154.874818 123.917141 
L 156.904529 121.704678 
L 158.25767 120.741338 
L 158.93424 120.699701 
L 160.287381 121.695215 
L 160.963951 122.238394 
L 161.640521 123.595397 
L 163.670232 126.657643 
L 164.346803 127.183789 
L 165.023373 127.255709 
L 165.699943 126.099323 
L 166.376514 125.179513 
L 167.053084 124.660938 
L 167.729655 124.738535 
L 168.406225 124.501958 
L 169.082795 124.543596 
L 169.759366 124.197248 
L 173.142217 120.818935 
L 173.818788 120.309823 
L 174.495358 120.120561 
L 175.171928 119.734469 
L 176.525069 117.964876 
L 177.201639 117.673414 
L 177.87821 117.853212 
L 178.55478 118.233627 
L 179.231351 118.752203 
L 179.907921 118.273372 
L 181.937632 117.732085 
L 182.614202 118.06897 
L 183.290773 118.833585 
L 183.967343 120.160306 
L 185.997054 123.044647 
L 187.350195 124.259704 
L 190.056476 123.813047 
L 192.762758 126.019833 
L 193.439328 126.277228 
L 194.792469 127.157293 
L 195.469039 127.403332 
L 197.49875 127.405225 
L 197.49875 127.405225 
" clip-path="url(#pf74ba6b4be)" style="fill: none; stroke: #0000ff; stroke-opacity: 0.5; stroke-width: 2; stroke-linecap: square"/>
   </g>
   <g id="line2d_24">
    <path d="M 62.86125 122.661393 
L 63.536689 122.581903 
L 64.212128 122.269622 
L 66.238445 120.654278 
L 67.589323 119.161007 
L 68.264762 119.064484 
L 69.61564 118.343399 
L 70.291079 117.568374 
L 71.641957 115.212072 
L 72.992834 114.37743 
L 73.668273 114.045277 
L 74.343712 114.065149 
L 75.69459 115.220589 
L 76.370029 116.370351 
L 77.045468 117.139697 
L 77.720907 117.733031 
L 78.396346 118.794787 
L 79.747224 119.904804 
L 80.422663 120.168823 
L 81.098102 120.305091 
L 81.773541 120.279541 
L 82.44898 119.785569 
L 83.124419 118.860082 
L 83.799858 117.517274 
L 84.475297 116.637209 
L 85.150736 116.265311 
L 86.501614 116.075103 
L 87.852492 117.537146 
L 88.527931 118.618774 
L 89.878809 120.234118 
L 91.229686 122.187294 
L 92.580564 123.56133 
L 93.256003 124.554951 
L 94.606881 127.913391 
L 95.28232 129.25336 
L 95.957759 129.764366 
L 96.633198 130.019868 
L 97.308637 130.034063 
L 97.984076 129.199421 
L 98.659515 128.875784 
L 100.010393 127.845257 
L 102.712149 123.320022 
L 103.387588 122.238394 
L 104.063027 121.625188 
L 105.413905 120.095011 
L 106.089344 120.060944 
L 106.764783 120.384581 
L 107.440222 121.048888 
L 108.115661 122.340595 
L 108.791099 124.225637 
L 109.466538 125.733102 
L 110.141977 126.740918 
L 110.817416 127.47052 
L 111.492855 127.569882 
L 112.843733 127.388191 
L 114.194611 125.707552 
L 116.896367 125.60819 
L 117.571806 126.105 
L 118.247245 126.334953 
L 119.598123 127.853774 
L 120.273562 129.031925 
L 121.62444 132.989377 
L 122.299879 134.618915 
L 122.975318 135.680671 
L 123.650757 136.441501 
L 124.326196 136.807721 
L 126.352513 139.567149 
L 127.027952 139.896464 
L 127.70339 140.450053 
L 129.054268 141.940485 
L 129.729707 142.414584 
L 130.405146 143.118636 
L 131.080585 142.863133 
L 131.756024 142.979529 
L 132.431463 141.798539 
L 135.133219 135.640926 
L 137.159536 129.207938 
L 137.834975 127.643694 
L 138.510414 125.690518 
L 139.185853 124.143308 
L 140.536731 120.424326 
L 142.563048 115.149616 
L 143.238487 113.210635 
L 143.913926 111.70317 
L 145.940242 108.273757 
L 146.615681 108.84154 
L 148.641998 114.031082 
L 149.992876 116.935295 
L 150.668315 118.087896 
L 152.694632 120.793385 
L 153.370071 121.747261 
L 154.720949 124.083691 
L 156.747266 126.686979 
L 157.422705 127.107138 
L 158.773583 127.132689 
L 159.449022 126.931126 
L 160.124461 126.161779 
L 160.7999 125.060279 
L 161.475339 123.280277 
L 162.826217 120.620211 
L 163.501656 119.91332 
L 164.177094 119.532905 
L 164.852533 119.623751 
L 165.527972 119.975777 
L 166.203411 119.91332 
L 166.87885 120.418648 
L 168.229728 120.983592 
L 168.905167 120.742284 
L 169.580606 120.830291 
L 170.256045 121.034693 
L 170.931484 121.051726 
L 171.606923 120.85868 
L 172.282362 120.279541 
L 173.63324 120.566271 
L 174.308679 120.296574 
L 175.659557 120.577627 
L 176.334996 121.239095 
L 177.010435 121.54002 
L 178.361313 121.613832 
L 179.712191 121.469047 
L 180.38763 122.002764 
L 183.089385 126.848797 
L 183.764824 128.23135 
L 184.440263 128.901335 
L 185.115702 128.70261 
L 185.791141 129.12277 
L 186.46658 130.204398 
L 187.142019 131.584112 
L 187.817458 132.421593 
L 188.492897 132.373331 
L 189.168336 131.507461 
L 190.519214 128.960952 
L 192.545531 123.297311 
L 193.22097 122.212844 
L 194.571848 120.404453 
L 195.922726 117.940272 
L 197.949043 115.379568 
L 198.624482 114.908308 
L 199.299921 114.647128 
L 199.97536 114.547765 
L 200.650798 114.808946 
L 202.001676 114.868563 
L 202.677115 114.184384 
L 203.352554 113.803969 
L 204.027993 112.784797 
L 204.703432 112.146041 
L 206.05431 111.961511 
L 207.405188 112.554845 
L 208.080627 113.38097 
L 208.756066 114.715262 
L 210.106944 118.442761 
L 210.782383 119.629429 
L 212.8087 125.591156 
L 214.159578 128.628799 
L 215.510456 131.149758 
L 216.185895 131.998594 
L 216.861334 131.995755 
L 217.536773 131.623857 
L 218.212212 130.996456 
L 218.887651 130.133425 
L 219.563089 129.514541 
L 220.238528 128.708288 
L 220.913967 127.598271 
L 221.589406 126.105 
L 222.940284 125.747297 
L 223.615723 125.770008 
L 224.966601 127.141206 
L 225.64204 127.450648 
L 226.317479 127.569882 
L 226.992918 126.86583 
L 228.343796 126.454187 
L 229.019235 126.669945 
L 229.694674 126.556388 
L 231.045552 127.419419 
L 233.071869 130.207237 
L 233.747308 132.001433 
L 235.098186 133.599744 
L 235.773625 133.642328 
L 236.449064 133.491865 
L 237.124503 133.903508 
L 237.799941 134.772217 
L 239.826258 136.228582 
L 241.177136 136.634547 
L 242.528014 136.438662 
L 243.203453 136.637386 
L 244.554331 138.536622 
L 245.22977 138.601917 
L 245.905209 138.244214 
L 246.580648 137.622491 
L 247.256087 137.321565 
L 247.931526 136.560735 
L 249.282404 136.980895 
L 249.957843 136.827594 
L 250.633282 136.830433 
L 251.308721 137.375505 
L 251.98416 138.573528 
L 253.335038 140.092349 
L 254.010477 141.307406 
L 254.685916 141.787183 
L 256.712232 139.351392 
L 257.387671 138.877292 
L 258.06311 139.286097 
L 258.738549 139.161184 
L 259.413988 138.820514 
L 260.089427 138.085234 
L 263.466622 130.559263 
L 264.142061 129.741654 
L 264.8175 129.290266 
L 264.8175 129.290266 
" clip-path="url(#pf74ba6b4be)" style="fill: none; stroke: #ff0000; stroke-opacity: 0.5; stroke-width: 2; stroke-linecap: square"/>
   </g>
   <g id="line2d_25">
    <path d="M 62.86125 120.478265 
L 63.536125 120.656171 
L 64.210999 120.993055 
L 65.560749 122.132408 
L 66.910498 124.051516 
L 67.585373 124.36569 
L 68.260247 124.956185 
L 69.609997 125.853283 
L 70.284872 126.118249 
L 70.959746 126.216665 
L 71.634621 125.853283 
L 72.309496 126.069041 
L 72.98437 126.13339 
L 73.659245 126.587616 
L 74.33412 126.405926 
L 75.008994 125.463405 
L 77.033618 120.887069 
L 77.708493 118.456955 
L 78.383368 116.560558 
L 79.058242 115.459058 
L 79.733117 114.573316 
L 81.082867 114.732295 
L 81.757741 115.364427 
L 82.432616 117.071563 
L 83.782365 118.918753 
L 84.45724 119.410832 
L 85.132115 119.687153 
L 85.806989 120.190588 
L 86.481864 120.14138 
L 87.156739 119.865059 
L 87.831613 118.392607 
L 88.506488 118.422888 
L 89.856237 120.652385 
L 91.880862 123.544296 
L 92.555736 124.554951 
L 93.905486 126.0539 
L 94.58036 126.424852 
L 95.255235 127.034273 
L 95.93011 127.450648 
L 96.604984 127.639909 
L 97.279859 126.966139 
L 97.954734 127.125118 
L 98.629608 128.00329 
L 99.304483 128.313679 
L 99.979358 128.135773 
L 101.329107 126.553549 
L 105.378355 123.124137 
L 106.05323 122.268676 
L 106.728105 120.777298 
L 107.402979 120.478265 
L 108.077854 121.057404 
L 108.752729 122.242179 
L 110.102478 124.157503 
L 112.127102 127.333306 
L 112.801977 127.272742 
L 114.151726 126.352933 
L 114.826601 125.21358 
L 115.501476 124.354334 
L 116.851225 122.151334 
L 117.5261 121.674396 
L 118.200974 121.893939 
L 118.875849 121.178531 
L 120.225598 121.110397 
L 120.900473 120.818935 
L 121.575348 120.357138 
L 122.250222 119.478966 
L 125.624596 112.665563 
L 126.974345 109.546538 
L 127.64922 109.073385 
L 128.998969 111.329379 
L 130.348719 113.38097 
L 131.023593 114.611168 
L 132.373343 117.408448 
L 133.048217 118.244983 
L 133.723092 118.093574 
L 134.397967 118.343399 
L 135.072841 118.892256 
L 135.747716 119.289705 
L 136.422591 119.149651 
L 137.097466 118.797626 
L 137.77234 118.086003 
L 139.12209 115.82244 
L 139.796964 115.599111 
L 140.471839 115.099462 
L 142.496463 114.637664 
L 143.171338 114.656591 
L 143.846212 114.883704 
L 144.521087 114.948053 
L 145.195962 114.834496 
L 145.870836 114.56196 
L 147.220586 115.572615 
L 147.895461 115.621823 
L 148.570335 116.730893 
L 150.594959 119.543315 
L 153.294458 125.792719 
L 153.969333 127.344661 
L 154.644207 128.396954 
L 155.319082 128.484014 
L 155.993957 127.772392 
L 157.343706 125.164372 
L 158.693456 123.77898 
L 159.36833 123.635142 
L 160.043205 124.327838 
L 160.71808 125.739726 
L 161.392954 126.81473 
L 162.067829 127.643694 
L 162.742704 128.056283 
L 163.417578 128.680845 
L 164.092453 128.998804 
L 164.767328 129.509809 
L 165.442202 130.61131 
L 166.117077 131.455415 
L 166.791952 131.727951 
L 167.466826 131.72038 
L 168.816576 130.524249 
L 169.491451 130.721081 
L 170.166325 130.395552 
L 170.8412 129.926184 
L 171.516075 130.138157 
L 172.190949 129.85048 
L 173.540699 129.907258 
L 174.215573 130.263069 
L 176.240197 135.195216 
L 176.915072 136.1983 
L 178.264821 137.065116 
L 179.614571 137.231666 
L 180.289445 137.049976 
L 181.639195 138.321811 
L 182.988944 141.164514 
L 183.663819 141.9367 
L 184.338694 142.281155 
L 185.013568 142.224377 
L 185.688443 142.02376 
L 186.363318 141.18344 
L 187.038192 140.108436 
L 187.713067 138.723045 
L 189.062816 135.585094 
L 189.737691 135.021095 
L 191.762315 132.454714 
L 193.112065 129.721782 
L 195.811563 121.220169 
L 196.486438 119.391906 
L 197.161313 118.256339 
L 197.836187 117.908098 
L 198.511062 117.870246 
L 199.185937 118.02544 
L 200.535686 119.425973 
L 201.885435 121.110397 
L 202.56031 122.09077 
L 203.235185 122.791037 
L 203.91006 123.794121 
L 204.584934 124.437609 
L 205.259809 125.664022 
L 207.284433 130.312277 
L 208.634182 134.464668 
L 209.309057 136.016609 
L 209.983932 136.709305 
L 210.658806 137.685893 
L 211.333681 138.333166 
L 212.008556 138.261247 
L 212.68343 137.250592 
L 213.358305 137.099183 
L 214.708055 137.867584 
L 216.057804 137.579907 
L 217.407553 138.045489 
L 218.757303 137.587477 
L 220.107052 136.588178 
L 221.456801 135.410974 
L 225.506049 140.070584 
L 226.180924 140.384758 
L 227.530674 139.529297 
L 228.205548 138.06063 
L 230.905047 130.986047 
L 232.254796 128.370457 
L 233.604546 124.297556 
L 234.954295 121.538128 
L 235.62917 119.834777 
L 236.978919 117.499294 
L 238.328669 115.894359 
L 239.003543 115.300079 
L 239.678418 115.924641 
L 240.353293 117.294892 
L 241.028167 119.369194 
L 242.377917 121.632758 
L 243.052791 122.715332 
L 243.727666 123.355035 
L 244.402541 123.790336 
L 245.077415 123.854685 
L 245.75229 123.782766 
L 246.427165 123.143063 
L 247.102039 122.688836 
L 247.776914 122.738044 
L 248.451789 123.461022 
L 249.126664 123.725987 
L 250.476413 125.402841 
L 251.826162 127.038058 
L 252.501037 127.109977 
L 253.175912 127.57556 
L 253.850786 128.287182 
L 254.525661 128.805758 
L 255.200536 129.021516 
L 255.87541 128.767905 
L 257.22516 127.098622 
L 257.900034 126.114464 
L 258.574909 125.342278 
L 259.249784 124.963755 
L 260.599533 123.506444 
L 261.949283 122.798607 
L 263.299032 123.067358 
L 263.973907 123.056003 
L 264.648781 122.571494 
L 265.323656 121.825805 
L 265.998531 120.724305 
L 266.673405 120.024038 
L 268.023155 117.768045 
L 268.698029 116.889873 
L 269.372904 116.795242 
L 270.047779 116.3448 
L 270.722654 115.565044 
L 271.397528 115.197878 
L 272.072403 114.985905 
L 272.747278 114.48247 
L 274.097027 112.737482 
L 274.771902 111.965296 
L 276.121651 112.62014 
L 276.796526 113.100864 
L 277.4714 113.399896 
L 278.146275 113.948754 
L 278.82115 114.085022 
L 279.496024 114.64902 
L 280.170899 115.413635 
L 281.520648 119.210215 
L 283.545273 122.151334 
L 284.220147 122.866741 
L 285.569897 123.68435 
L 286.244771 124.324053 
L 286.919646 124.589018 
L 287.594521 124.691219 
L 288.94427 126.008477 
L 289.619145 126.364288 
L 290.294019 126.171242 
L 290.968894 126.148531 
L 291.643769 126.739025 
L 292.318643 127.931371 
L 294.343268 133.170121 
L 295.018142 134.93025 
L 296.367892 136.406487 
L 297.042766 137.182458 
L 297.717641 137.031049 
L 298.392516 136.542756 
L 299.06739 135.789496 
L 300.41714 134.75613 
L 301.766889 133.40859 
L 303.791513 129.490883 
L 305.141263 125.13409 
L 305.816137 123.279331 
L 307.165887 120.584251 
L 307.840761 119.834777 
L 308.515636 119.5471 
L 309.190511 119.766643 
L 310.54026 120.898425 
L 311.215135 121.144464 
L 311.890009 122.272461 
L 312.564884 123.892537 
L 313.239759 125.217365 
L 313.914633 128.113062 
L 315.264383 132.469855 
L 315.939258 133.870387 
L 316.614132 134.279192 
L 317.289007 134.048293 
L 317.963882 133.223114 
L 318.638756 132.117829 
L 319.988506 130.467471 
L 320.66338 129.479528 
L 323.362879 128.83604 
L 324.037754 129.244844 
L 326.062378 133.06792 
L 326.737253 134.093716 
L 328.761877 138.344522 
L 329.436751 139.499015 
L 331.461375 141.410554 
L 332.13625 141.584674 
L 332.13625 141.584674 
" clip-path="url(#pf74ba6b4be)" style="fill: none; stroke: #008000; stroke-opacity: 0.5; stroke-width: 2; stroke-linecap: square"/>
   </g>
   <g id="patch_3">
    <path d="M 49.3975 238.8725 
L 49.3975 11.759062 
" style="fill: none; stroke: #000000; stroke-width: 2; stroke-linejoin: miter; stroke-linecap: square"/>
   </g>
   <g id="patch_4">
    <path d="M 345.6 238.8725 
L 345.6 11.759062 
" style="fill: none; stroke: #000000; stroke-width: 2; stroke-linejoin: miter; stroke-linecap: square"/>
   </g>
   <g id="patch_5">
    <path d="M 49.3975 238.8725 
L 345.6 238.8725 
" style="fill: none; stroke: #000000; stroke-width: 2; stroke-linejoin: miter; stroke-linecap: square"/>
   </g>
   <g id="patch_6">
    <path d="M 49.3975 11.759062 
L 345.6 11.759062 
" style="fill: none; stroke: #000000; stroke-width: 2; stroke-linejoin: miter; stroke-linecap: square"/>
   </g>
   <g id="legend_1">
    <g id="line2d_26">
     <path d="M 249.58125 27.477187 
L 261.58125 27.477187 
L 273.58125 27.477187 
" style="fill: none; stroke: #0000ff; stroke-opacity: 0.5; stroke-width: 2; stroke-linecap: square"/>
    </g>
    <g id="text_14">
     <!-- yz-plane -->
     <g transform="translate(283.18125 31.677187)scale(0.12 -0.12)">
      <defs>
       <path id="DejaVuSans-7a" d="M 353 3500 
L 3084 3500 
L 3084 2975 
L 922 459 
L 3084 459 
L 3084 0 
L 275 0 
L 275 525 
L 2438 3041 
L 353 3041 
L 353 3500 
z
" transform="scale(0.015625)"/>
       <path id="DejaVuSans-2d" d="M 313 2009 
L 1997 2009 
L 1997 1497 
L 313 1497 
L 313 2009 
z
" transform="scale(0.015625)"/>
       <path id="DejaVuSans-70" d="M 1159 525 
L 1159 -1331 
L 581 -1331 
L 581 3500 
L 1159 3500 
L 1159 2969 
Q 1341 3281 1617 3432 
Q 1894 3584 2278 3584 
Q 2916 3584 3314 3078 
Q 3713 2572 3713 1747 
Q 3713 922 3314 415 
Q 2916 -91 2278 -91 
Q 1894 -91 1617 61 
Q 1341 213 1159 525 
z
M 3116 1747 
Q 3116 2381 2855 2742 
Q 2594 3103 2138 3103 
Q 1681 3103 1420 2742 
Q 1159 2381 1159 1747 
Q 1159 1113 1420 752 
Q 1681 391 2138 391 
Q 2594 391 2855 752 
Q 3116 1113 3116 1747 
z
" transform="scale(0.015625)"/>
      </defs>
      <use xlink:href="#DejaVuSans-79"/>
      <use xlink:href="#DejaVuSans-7a" x="59.179688"/>
      <use xlink:href="#DejaVuSans-2d" x="111.669922"/>
      <use xlink:href="#DejaVuSans-70" x="147.753906"/>
      <use xlink:href="#DejaVuSans-6c" x="211.230469"/>
      <use xlink:href="#DejaVuSans-61" x="239.013672"/>
      <use xlink:href="#DejaVuSans-6e" x="300.292969"/>
      <use xlink:href="#DejaVuSans-65" x="363.671875"/>
     </g>
    </g>
    <g id="line2d_27">
     <path d="M 249.58125 45.090937 
L 261.58125 45.090937 
L 273.58125 45.090937 
" style="fill: none; stroke: #ff0000; stroke-opacity: 0.5; stroke-width: 2; stroke-linecap: square"/>
    </g>
    <g id="text_15">
     <!-- xz-plane -->
     <g transform="translate(283.18125 49.290937)scale(0.12 -0.12)">
      <use xlink:href="#DejaVuSans-78"/>
      <use xlink:href="#DejaVuSans-7a" x="59.179688"/>
      <use xlink:href="#DejaVuSans-2d" x="111.669922"/>
      <use xlink:href="#DejaVuSans-70" x="147.753906"/>
      <use xlink:href="#DejaVuSans-6c" x="211.230469"/>
      <use xlink:href="#DejaVuSans-61" x="239.013672"/>
      <use xlink:href="#DejaVuSans-6e" x="300.292969"/>
      <use xlink:href="#DejaVuSans-65" x="363.671875"/>
     </g>
    </g>
    <g id="line2d_28">
     <path d="M 249.58125 62.704687 
L 261.58125 62.704687 
L 273.58125 62.704687 
" style="fill: none; stroke: #008000; stroke-opacity: 0.5; stroke-width: 2; stroke-linecap: square"/>
    </g>
    <g id="text_16">
     <!-- xy-plane -->
     <g transform="translate(283.18125 66.904687)scale(0.12 -0.12)">
      <use xlink:href="#DejaVuSans-78"/>
      <use xlink:href="#DejaVuSans-79" x="59.179688"/>
      <use xlink:href="#DejaVuSans-2d" x="116.609375"/>
      <use xlink:href="#DejaVuSans-70" x="152.693359"/>
      <use xlink:href="#DejaVuSans-6c" x="216.169922"/>
      <use xlink:href="#DejaVuSans-61" x="243.953125"/>
      <use xlink:href="#DejaVuSans-6e" x="305.232422"/>
      <use xlink:href="#DejaVuSans-65" x="368.611328"/>
     </g>
    </g>
   </g>
  </g>
 </g>
 <defs>
  <clipPath id="pf74ba6b4be">
   <rect x="49.3975" y="11.759062" width="296.2025" height="227.113437"/>
  </clipPath>
 </defs>
</svg>
