<?xml version="1.0" encoding="utf-8" standalone="no"?>
<!DOCTYPE svg PUBLIC "-//W3C//DTD SVG 1.1//EN"
  "http://www.w3.org/Graphics/SVG/1.1/DTD/svg11.dtd">
<svg xmlns:xlink="http://www.w3.org/1999/xlink" width="319.499954pt" height="290.902914pt" viewBox="0 0 319.499954 290.902914" xmlns="http://www.w3.org/2000/svg" version="1.1">
 <metadata>
  <rdf:RDF xmlns:dc="http://purl.org/dc/elements/1.1/" xmlns:cc="http://creativecommons.org/ns#" xmlns:rdf="http://www.w3.org/1999/02/22-rdf-syntax-ns#">
   <cc:Work>
    <dc:type rdf:resource="http://purl.org/dc/dcmitype/StillImage"/>
    <dc:date>2022-05-25T17:19:33.800336</dc:date>
    <dc:format>image/svg+xml</dc:format>
    <dc:creator>
     <cc:Agent>
      <dc:title>Matplotlib v3.5.2, https://matplotlib.org/</dc:title>
     </cc:Agent>
    </dc:creator>
   </cc:Work>
  </rdf:RDF>
 </metadata>
 <defs>
  <style type="text/css">*{stroke-linejoin: round; stroke-linecap: butt}</style>
 </defs>
 <g id="figure_1">
  <g id="patch_1">
   <path d="M 0 290.902914 
L 319.499954 290.902914 
L 319.499954 0 
L 0 0 
L 0 290.902914 
z
" style="fill: none"/>
  </g>
  <g id="patch_2">
   <path d="M 7.2 273.6 
L 273.6 273.6 
L 273.6 7.2 
L 7.2 7.2 
z
" style="fill: #ffffff"/>
  </g>
  <g id="pane3d_1">
   <g id="patch_3">
    <path d="M 27.315037 207.914297 
L 115.289017 134.172763 
L 114.066095 27.824287 
L 21.882106 95.095964 
" style="fill: #f2f2f2; opacity: 0.5; stroke: #f2f2f2; stroke-linejoin: miter"/>
   </g>
  </g>
  <g id="pane3d_2">
   <g id="patch_4">
    <path d="M 115.289017 134.172763 
L 256.455866 175.204393 
L 261.493614 65.192866 
L 114.066095 27.824287 
" style="fill: #e6e6e6; opacity: 0.5; stroke: #e6e6e6; stroke-linejoin: miter"/>
   </g>
  </g>
  <g id="pane3d_3">
   <g id="patch_5">
    <path d="M 27.315037 207.914297 
L 176.958792 256.787947 
L 256.455866 175.204393 
L 115.289017 134.172763 
" style="fill: #ececec; opacity: 0.5; stroke: #ececec; stroke-linejoin: miter"/>
   </g>
  </g>
  <g id="axis3d_1">
   <g id="line2d_1">
    <path d="M 27.315037 207.914297 
L 176.958792 256.787947 
" style="fill: none; stroke: #000000; stroke-width: 2; stroke-linecap: square"/>
   </g>
   <g id="text_1">
    <!-- x-axis -->
    <g transform="translate(63.353207 270.317572)rotate(-341.912962)scale(0.12 -0.12)">
     <defs>
      <path id="DejaVuSans-78" d="M 3513 3500 
L 2247 1797 
L 3578 0 
L 2900 0 
L 1881 1375 
L 863 0 
L 184 0 
L 1544 1831 
L 300 3500 
L 978 3500 
L 1906 2253 
L 2834 3500 
L 3513 3500 
z
" transform="scale(0.015625)"/>
      <path id="DejaVuSans-2d" d="M 313 2009 
L 1997 2009 
L 1997 1497 
L 313 1497 
L 313 2009 
z
" transform="scale(0.015625)"/>
      <path id="DejaVuSans-61" d="M 2194 1759 
Q 1497 1759 1228 1600 
Q 959 1441 959 1056 
Q 959 750 1161 570 
Q 1363 391 1709 391 
Q 2188 391 2477 730 
Q 2766 1069 2766 1631 
L 2766 1759 
L 2194 1759 
z
M 3341 1997 
L 3341 0 
L 2766 0 
L 2766 531 
Q 2569 213 2275 61 
Q 1981 -91 1556 -91 
Q 1019 -91 701 211 
Q 384 513 384 1019 
Q 384 1609 779 1909 
Q 1175 2209 1959 2209 
L 2766 2209 
L 2766 2266 
Q 2766 2663 2505 2880 
Q 2244 3097 1772 3097 
Q 1472 3097 1187 3025 
Q 903 2953 641 2809 
L 641 3341 
Q 956 3463 1253 3523 
Q 1550 3584 1831 3584 
Q 2591 3584 2966 3190 
Q 3341 2797 3341 1997 
z
" transform="scale(0.015625)"/>
      <path id="DejaVuSans-69" d="M 603 3500 
L 1178 3500 
L 1178 0 
L 603 0 
L 603 3500 
z
M 603 4863 
L 1178 4863 
L 1178 4134 
L 603 4134 
L 603 4863 
z
" transform="scale(0.015625)"/>
      <path id="DejaVuSans-73" d="M 2834 3397 
L 2834 2853 
Q 2591 2978 2328 3040 
Q 2066 3103 1784 3103 
Q 1356 3103 1142 2972 
Q 928 2841 928 2578 
Q 928 2378 1081 2264 
Q 1234 2150 1697 2047 
L 1894 2003 
Q 2506 1872 2764 1633 
Q 3022 1394 3022 966 
Q 3022 478 2636 193 
Q 2250 -91 1575 -91 
Q 1294 -91 989 -36 
Q 684 19 347 128 
L 347 722 
Q 666 556 975 473 
Q 1284 391 1588 391 
Q 1994 391 2212 530 
Q 2431 669 2431 922 
Q 2431 1156 2273 1281 
Q 2116 1406 1581 1522 
L 1381 1569 
Q 847 1681 609 1914 
Q 372 2147 372 2553 
Q 372 3047 722 3315 
Q 1072 3584 1716 3584 
Q 2034 3584 2315 3537 
Q 2597 3491 2834 3397 
z
" transform="scale(0.015625)"/>
     </defs>
     <use xlink:href="#DejaVuSans-78"/>
     <use xlink:href="#DejaVuSans-2d" x="59.179688"/>
     <use xlink:href="#DejaVuSans-61" x="95.263672"/>
     <use xlink:href="#DejaVuSans-78" x="156.542969"/>
     <use xlink:href="#DejaVuSans-69" x="215.722656"/>
     <use xlink:href="#DejaVuSans-73" x="243.505859"/>
    </g>
   </g>
   <g id="Line3DCollection_1">
    <path d="M 51.477101 215.805628 
L 138.166878 140.822454 
L 137.916342 33.86963 
" style="fill: none; stroke: #b0b0b0; stroke-width: 0.8"/>
    <path d="M 83.081362 226.127579 
L 168.042124 149.506008 
L 169.085949 41.770217 
" style="fill: none; stroke: #b0b0b0; stroke-width: 0.8"/>
    <path d="M 115.410497 236.686274 
L 198.544964 158.371979 
L 200.939082 49.844057 
" style="fill: none; stroke: #b0b0b0; stroke-width: 0.8"/>
    <path d="M 148.489732 247.489953 
L 229.695383 167.426177 
L 233.498473 58.096914 
" style="fill: none; stroke: #b0b0b0; stroke-width: 0.8"/>
   </g>
   <g id="xtick_1">
    <g id="line2d_2">
     <path d="M 52.232325 215.152389 
L 49.963396 217.114922 
" style="fill: none; stroke: #000000; stroke-width: 2; stroke-linecap: square"/>
    </g>
    <g id="text_2">
     <!-- 2 -->
     <g transform="translate(40.145797 240.738694)scale(0.12 -0.12)">
      <defs>
       <path id="DejaVuSans-32" d="M 1228 531 
L 3431 531 
L 3431 0 
L 469 0 
L 469 531 
Q 828 903 1448 1529 
Q 2069 2156 2228 2338 
Q 2531 2678 2651 2914 
Q 2772 3150 2772 3378 
Q 2772 3750 2511 3984 
Q 2250 4219 1831 4219 
Q 1534 4219 1204 4116 
Q 875 4013 500 3803 
L 500 4441 
Q 881 4594 1212 4672 
Q 1544 4750 1819 4750 
Q 2544 4750 2975 4387 
Q 3406 4025 3406 3419 
Q 3406 3131 3298 2873 
Q 3191 2616 2906 2266 
Q 2828 2175 2409 1742 
Q 1991 1309 1228 531 
z
" transform="scale(0.015625)"/>
      </defs>
      <use xlink:href="#DejaVuSans-32"/>
     </g>
    </g>
   </g>
   <g id="xtick_2">
    <g id="line2d_3">
     <path d="M 83.822208 225.45945 
L 81.596438 227.466753 
" style="fill: none; stroke: #000000; stroke-width: 2; stroke-linecap: square"/>
    </g>
    <g id="text_3">
     <!-- 4 -->
     <g transform="translate(71.783883 251.279608)scale(0.12 -0.12)">
      <defs>
       <path id="DejaVuSans-34" d="M 2419 4116 
L 825 1625 
L 2419 1625 
L 2419 4116 
z
M 2253 4666 
L 3047 4666 
L 3047 1625 
L 3713 1625 
L 3713 1100 
L 3047 1100 
L 3047 0 
L 2419 0 
L 2419 1100 
L 313 1100 
L 313 1709 
L 2253 4666 
z
" transform="scale(0.015625)"/>
      </defs>
      <use xlink:href="#DejaVuSans-34"/>
     </g>
    </g>
   </g>
   <g id="xtick_3">
    <g id="line2d_4">
     <path d="M 116.136104 236.002739 
L 113.956081 238.056363 
" style="fill: none; stroke: #000000; stroke-width: 2; stroke-linecap: square"/>
    </g>
    <g id="text_4">
     <!-- 6 -->
     <g transform="translate(104.15039 262.06321)scale(0.12 -0.12)">
      <defs>
       <path id="DejaVuSans-36" d="M 2113 2584 
Q 1688 2584 1439 2293 
Q 1191 2003 1191 1497 
Q 1191 994 1439 701 
Q 1688 409 2113 409 
Q 2538 409 2786 701 
Q 3034 994 3034 1497 
Q 3034 2003 2786 2293 
Q 2538 2584 2113 2584 
z
M 3366 4563 
L 3366 3988 
Q 3128 4100 2886 4159 
Q 2644 4219 2406 4219 
Q 1781 4219 1451 3797 
Q 1122 3375 1075 2522 
Q 1259 2794 1537 2939 
Q 1816 3084 2150 3084 
Q 2853 3084 3261 2657 
Q 3669 2231 3669 1497 
Q 3669 778 3244 343 
Q 2819 -91 2113 -91 
Q 1303 -91 875 529 
Q 447 1150 447 2328 
Q 447 3434 972 4092 
Q 1497 4750 2381 4750 
Q 2619 4750 2861 4703 
Q 3103 4656 3366 4563 
z
" transform="scale(0.015625)"/>
      </defs>
      <use xlink:href="#DejaVuSans-36"/>
     </g>
    </g>
   </g>
   <g id="xtick_4">
    <g id="line2d_5">
     <path d="M 149.19919 246.790471 
L 147.06765 248.892038 
" style="fill: none; stroke: #000000; stroke-width: 2; stroke-linecap: square"/>
    </g>
    <g id="text_5">
     <!-- 8 -->
     <g transform="translate(137.270768 273.097981)scale(0.12 -0.12)">
      <defs>
       <path id="DejaVuSans-38" d="M 2034 2216 
Q 1584 2216 1326 1975 
Q 1069 1734 1069 1313 
Q 1069 891 1326 650 
Q 1584 409 2034 409 
Q 2484 409 2743 651 
Q 3003 894 3003 1313 
Q 3003 1734 2745 1975 
Q 2488 2216 2034 2216 
z
M 1403 2484 
Q 997 2584 770 2862 
Q 544 3141 544 3541 
Q 544 4100 942 4425 
Q 1341 4750 2034 4750 
Q 2731 4750 3128 4425 
Q 3525 4100 3525 3541 
Q 3525 3141 3298 2862 
Q 3072 2584 2669 2484 
Q 3125 2378 3379 2068 
Q 3634 1759 3634 1313 
Q 3634 634 3220 271 
Q 2806 -91 2034 -91 
Q 1263 -91 848 271 
Q 434 634 434 1313 
Q 434 1759 690 2068 
Q 947 2378 1403 2484 
z
M 1172 3481 
Q 1172 3119 1398 2916 
Q 1625 2713 2034 2713 
Q 2441 2713 2670 2916 
Q 2900 3119 2900 3481 
Q 2900 3844 2670 4047 
Q 2441 4250 2034 4250 
Q 1625 4250 1398 4047 
Q 1172 3844 1172 3481 
z
" transform="scale(0.015625)"/>
      </defs>
      <use xlink:href="#DejaVuSans-38"/>
     </g>
    </g>
   </g>
  </g>
  <g id="axis3d_2">
   <g id="line2d_6">
    <path d="M 256.455866 175.204393 
L 176.958792 256.787947 
" style="fill: none; stroke: #000000; stroke-width: 2; stroke-linecap: square"/>
   </g>
   <g id="text_6">
    <!-- y-axis -->
    <g transform="translate(239.845158 261.608207)rotate(-45.742112)scale(0.12 -0.12)">
     <defs>
      <path id="DejaVuSans-79" d="M 2059 -325 
Q 1816 -950 1584 -1140 
Q 1353 -1331 966 -1331 
L 506 -1331 
L 506 -850 
L 844 -850 
Q 1081 -850 1212 -737 
Q 1344 -625 1503 -206 
L 1606 56 
L 191 3500 
L 800 3500 
L 1894 763 
L 2988 3500 
L 3597 3500 
L 2059 -325 
z
" transform="scale(0.015625)"/>
     </defs>
     <use xlink:href="#DejaVuSans-79"/>
     <use xlink:href="#DejaVuSans-2d" x="57.429688"/>
     <use xlink:href="#DejaVuSans-61" x="93.513672"/>
     <use xlink:href="#DejaVuSans-78" x="154.792969"/>
     <use xlink:href="#DejaVuSans-69" x="213.972656"/>
     <use xlink:href="#DejaVuSans-73" x="241.755859"/>
    </g>
   </g>
   <g id="Line3DCollection_2">
    <path d="M 34.122188 86.16371 
L 38.957707 198.155181 
L 187.519977 245.949573 
" style="fill: none; stroke: #b0b0b0; stroke-width: 0.8"/>
    <path d="M 48.402695 75.742446 
L 52.55604 186.756789 
L 199.839525 233.306687 
" style="fill: none; stroke: #b0b0b0; stroke-width: 0.8"/>
    <path d="M 62.306996 65.59572 
L 65.811507 175.645793 
L 211.832261 220.99919 
" style="fill: none; stroke: #b0b0b0; stroke-width: 0.8"/>
    <path d="M 75.849766 55.712823 
L 78.736913 164.811461 
L 223.511019 209.01391 
" style="fill: none; stroke: #b0b0b0; stroke-width: 0.8"/>
    <path d="M 89.044923 46.083599 
L 91.344436 154.243586 
L 234.887971 197.338359 
" style="fill: none; stroke: #b0b0b0; stroke-width: 0.8"/>
    <path d="M 101.905682 36.698403 
L 103.645659 143.932456 
L 245.974666 185.960682 
" style="fill: none; stroke: #b0b0b0; stroke-width: 0.8"/>
   </g>
   <g id="xtick_5">
    <g id="line2d_7">
     <path d="M 186.268387 245.54692 
L 190.026377 246.755914 
" style="fill: none; stroke: #000000; stroke-width: 2; stroke-linecap: square"/>
    </g>
    <g id="text_7">
     <!-- 28 -->
     <g transform="translate(192.697838 268.414135)scale(0.12 -0.12)">
      <use xlink:href="#DejaVuSans-32"/>
      <use xlink:href="#DejaVuSans-38" x="63.623047"/>
     </g>
    </g>
   </g>
   <g id="xtick_6">
    <g id="line2d_8">
     <path d="M 198.599548 232.914784 
L 202.322624 234.091487 
" style="fill: none; stroke: #000000; stroke-width: 2; stroke-linecap: square"/>
    </g>
    <g id="text_8">
     <!-- 29 -->
     <g transform="translate(204.85228 255.584318)scale(0.12 -0.12)">
      <defs>
       <path id="DejaVuSans-39" d="M 703 97 
L 703 672 
Q 941 559 1184 500 
Q 1428 441 1663 441 
Q 2288 441 2617 861 
Q 2947 1281 2994 2138 
Q 2813 1869 2534 1725 
Q 2256 1581 1919 1581 
Q 1219 1581 811 2004 
Q 403 2428 403 3163 
Q 403 3881 828 4315 
Q 1253 4750 1959 4750 
Q 2769 4750 3195 4129 
Q 3622 3509 3622 2328 
Q 3622 1225 3098 567 
Q 2575 -91 1691 -91 
Q 1453 -91 1209 -44 
Q 966 3 703 97 
z
M 1959 2075 
Q 2384 2075 2632 2365 
Q 2881 2656 2881 3163 
Q 2881 3666 2632 3958 
Q 2384 4250 1959 4250 
Q 1534 4250 1286 3958 
Q 1038 3666 1038 3163 
Q 1038 2656 1286 2365 
Q 1534 2075 1959 2075 
z
" transform="scale(0.015625)"/>
      </defs>
      <use xlink:href="#DejaVuSans-32"/>
      <use xlink:href="#DejaVuSans-39" x="63.623047"/>
     </g>
    </g>
   </g>
   <g id="xtick_7">
    <g id="line2d_9">
     <path d="M 210.603726 220.617612 
L 214.292406 221.7633 
" style="fill: none; stroke: #000000; stroke-width: 2; stroke-linecap: square"/>
    </g>
    <g id="text_9">
     <!-- 30 -->
     <g transform="translate(216.684104 243.095047)scale(0.12 -0.12)">
      <defs>
       <path id="DejaVuSans-33" d="M 2597 2516 
Q 3050 2419 3304 2112 
Q 3559 1806 3559 1356 
Q 3559 666 3084 287 
Q 2609 -91 1734 -91 
Q 1441 -91 1130 -33 
Q 819 25 488 141 
L 488 750 
Q 750 597 1062 519 
Q 1375 441 1716 441 
Q 2309 441 2620 675 
Q 2931 909 2931 1356 
Q 2931 1769 2642 2001 
Q 2353 2234 1838 2234 
L 1294 2234 
L 1294 2753 
L 1863 2753 
Q 2328 2753 2575 2939 
Q 2822 3125 2822 3475 
Q 2822 3834 2567 4026 
Q 2313 4219 1838 4219 
Q 1578 4219 1281 4162 
Q 984 4106 628 3988 
L 628 4550 
Q 988 4650 1302 4700 
Q 1616 4750 1894 4750 
Q 2613 4750 3031 4423 
Q 3450 4097 3450 3541 
Q 3450 3153 3228 2886 
Q 3006 2619 2597 2516 
z
" transform="scale(0.015625)"/>
       <path id="DejaVuSans-30" d="M 2034 4250 
Q 1547 4250 1301 3770 
Q 1056 3291 1056 2328 
Q 1056 1369 1301 889 
Q 1547 409 2034 409 
Q 2525 409 2770 889 
Q 3016 1369 3016 2328 
Q 3016 3291 2770 3770 
Q 2525 4250 2034 4250 
z
M 2034 4750 
Q 2819 4750 3233 4129 
Q 3647 3509 3647 2328 
Q 3647 1150 3233 529 
Q 2819 -91 2034 -91 
Q 1250 -91 836 529 
Q 422 1150 422 2328 
Q 422 3509 836 4129 
Q 1250 4750 2034 4750 
z
" transform="scale(0.015625)"/>
      </defs>
      <use xlink:href="#DejaVuSans-33"/>
      <use xlink:href="#DejaVuSans-30" x="63.623047"/>
     </g>
    </g>
   </g>
   <g id="xtick_8">
    <g id="line2d_10">
     <path d="M 222.293756 208.642256 
L 225.948552 209.758138 
" style="fill: none; stroke: #000000; stroke-width: 2; stroke-linecap: square"/>
    </g>
    <g id="text_10">
     <!-- 31 -->
     <g transform="translate(228.205986 230.932939)scale(0.12 -0.12)">
      <defs>
       <path id="DejaVuSans-31" d="M 794 531 
L 1825 531 
L 1825 4091 
L 703 3866 
L 703 4441 
L 1819 4666 
L 2450 4666 
L 2450 531 
L 3481 531 
L 3481 0 
L 794 0 
L 794 531 
z
" transform="scale(0.015625)"/>
      </defs>
      <use xlink:href="#DejaVuSans-33"/>
      <use xlink:href="#DejaVuSans-31" x="63.623047"/>
     </g>
    </g>
   </g>
   <g id="xtick_9">
    <g id="line2d_11">
     <path d="M 233.681811 196.976245 
L 237.303232 198.063471 
" style="fill: none; stroke: #000000; stroke-width: 2; stroke-linecap: square"/>
    </g>
    <g id="text_11">
     <!-- 32 -->
     <g transform="translate(239.429948 219.085305)scale(0.12 -0.12)">
      <use xlink:href="#DejaVuSans-33"/>
      <use xlink:href="#DejaVuSans-32" x="63.623047"/>
     </g>
    </g>
   </g>
   <g id="xtick_10">
    <g id="line2d_12">
     <path d="M 244.779443 185.607746 
L 248.367991 186.667406 
" style="fill: none; stroke: #000000; stroke-width: 2; stroke-linecap: square"/>
    </g>
    <g id="text_12">
     <!-- 33 -->
     <g transform="translate(250.367397 207.540105)scale(0.12 -0.12)">
      <use xlink:href="#DejaVuSans-33"/>
      <use xlink:href="#DejaVuSans-33" x="63.623047"/>
     </g>
    </g>
   </g>
  </g>
  <g id="axis3d_3">
   <g id="line2d_13">
    <path d="M 256.455866 175.204393 
L 261.493614 65.192866 
" style="fill: none; stroke: #000000; stroke-width: 2; stroke-linecap: square"/>
   </g>
   <g id="text_13">
    <!-- z-axis -->
    <g transform="translate(308.221021 132.603179)rotate(-87.378092)scale(0.12 -0.12)">
     <defs>
      <path id="DejaVuSans-7a" d="M 353 3500 
L 3084 3500 
L 3084 2975 
L 922 459 
L 3084 459 
L 3084 0 
L 275 0 
L 275 525 
L 2438 3041 
L 353 3041 
L 353 3500 
z
" transform="scale(0.015625)"/>
     </defs>
     <use xlink:href="#DejaVuSans-7a"/>
     <use xlink:href="#DejaVuSans-2d" x="52.490234"/>
     <use xlink:href="#DejaVuSans-61" x="88.574219"/>
     <use xlink:href="#DejaVuSans-78" x="149.853516"/>
     <use xlink:href="#DejaVuSans-69" x="209.033203"/>
     <use xlink:href="#DejaVuSans-73" x="236.816406"/>
    </g>
   </g>
   <g id="Line3DCollection_3">
    <path d="M 256.810576 167.458434 
L 115.202742 126.670013 
L 26.933101 199.983152 
" style="fill: none; stroke: #b0b0b0; stroke-width: 0.8"/>
    <path d="M 257.855301 144.64432 
L 114.948784 104.585186 
L 25.807662 176.612672 
" style="fill: none; stroke: #b0b0b0; stroke-width: 0.8"/>
    <path d="M 258.919556 121.403699 
L 114.690307 82.107368 
L 24.660373 152.788478 
" style="fill: none; stroke: #b0b0b0; stroke-width: 0.8"/>
    <path d="M 260.003896 97.724498 
L 114.427189 59.225977 
L 23.490593 128.49723 
" style="fill: none; stroke: #b0b0b0; stroke-width: 0.8"/>
    <path d="M 261.108893 73.594183 
L 114.159305 35.930044 
L 22.297653 103.725057 
" style="fill: none; stroke: #b0b0b0; stroke-width: 0.8"/>
   </g>
   <g id="xtick_11">
    <g id="line2d_14">
     <path d="M 255.621921 167.116056 
L 259.190723 168.144006 
" style="fill: none; stroke: #000000; stroke-width: 2; stroke-linecap: square"/>
    </g>
    <g id="text_14">
     <!-- 0 -->
     <g transform="translate(271.298096 173.986633)scale(0.12 -0.12)">
      <use xlink:href="#DejaVuSans-30"/>
     </g>
    </g>
   </g>
   <g id="xtick_12">
    <g id="line2d_15">
     <path d="M 256.655223 144.307918 
L 260.258346 145.317934 
" style="fill: none; stroke: #000000; stroke-width: 2; stroke-linecap: square"/>
    </g>
    <g id="text_15">
     <!-- 2 -->
     <g transform="translate(272.50866 151.217782)scale(0.12 -0.12)">
      <use xlink:href="#DejaVuSans-32"/>
     </g>
    </g>
   </g>
   <g id="xtick_13">
    <g id="line2d_16">
     <path d="M 257.707835 121.073556 
L 261.345944 122.064786 
" style="fill: none; stroke: #000000; stroke-width: 2; stroke-linecap: square"/>
    </g>
    <g id="text_16">
     <!-- 4 -->
     <g transform="translate(273.741785 128.024574)scale(0.12 -0.12)">
      <use xlink:href="#DejaVuSans-34"/>
     </g>
    </g>
   </g>
   <g id="xtick_14">
    <g id="line2d_17">
     <path d="M 258.780303 97.400912 
L 262.454083 98.372462 
" style="fill: none; stroke: #000000; stroke-width: 2; stroke-linecap: square"/>
    </g>
    <g id="text_17">
     <!-- 6 -->
     <g transform="translate(274.998109 104.395032)scale(0.12 -0.12)">
      <use xlink:href="#DejaVuSans-36"/>
     </g>
    </g>
   </g>
   <g id="xtick_15">
    <g id="line2d_18">
     <path d="M 259.873194 73.277465 
L 263.583351 74.228403 
" style="fill: none; stroke: #000000; stroke-width: 2; stroke-linecap: square"/>
    </g>
    <g id="text_18">
     <!-- 8 -->
     <g transform="translate(276.278293 80.316726)scale(0.12 -0.12)">
      <use xlink:href="#DejaVuSans-38"/>
     </g>
    </g>
   </g>
  </g>
  <g id="axes_1">
   <g id="Poly3DCollection_1">
    <path d="M 126.608796 137.579552 
L 128.575774 130.299952 
L 119.08363 129.83461 
z
" clip-path="url(#p2770e8809b)" style="fill: #1f77b4; stroke: #000000"/>
    <path d="M 143.647621 145.804863 
L 128.575774 130.299952 
L 126.608796 137.579552 
z
" clip-path="url(#p2770e8809b)" style="fill: #1f77b4; stroke: #000000"/>
    <path d="M 134.139714 145.330413 
L 143.647621 145.804863 
L 126.608796 137.579552 
z
" clip-path="url(#p2770e8809b)" style="fill: #1f77b4; stroke: #000000"/>
    <path d="M 119.08363 129.83461 
L 128.575774 130.299952 
L 113.980672 117.190914 
z
" clip-path="url(#p2770e8809b)" style="fill: #1f77b4; stroke: #000000"/>
    <path d="M 143.647621 145.804863 
L 147.5922 131.232251 
L 128.575774 130.299952 
z
" clip-path="url(#p2770e8809b)" style="fill: #1f77b4; stroke: #000000"/>
    <path d="M 113.980672 117.190914 
L 128.575774 130.299952 
L 132.511837 115.732819 
z
" clip-path="url(#p2770e8809b)" style="fill: #1f77b4; stroke: #000000"/>
    <path d="M 141.67292 149.388106 
L 143.647621 145.804863 
L 134.139714 145.330413 
z
" clip-path="url(#p2770e8809b)" style="fill: #1f77b4; stroke: #000000"/>
    <path d="M 128.575774 130.299952 
L 147.608345 119.997386 
L 132.511837 115.732819 
z
" clip-path="url(#p2770e8809b)" style="fill: #1f77b4; stroke: #000000"/>
    <path d="M 141.67292 149.388106 
L 161.241836 148.054836 
L 143.647621 145.804863 
z
" clip-path="url(#p2770e8809b)" style="fill: #1f77b4; stroke: #000000"/>
    <path d="M 147.5922 131.232251 
L 147.608345 119.997386 
L 128.575774 130.299952 
z
" clip-path="url(#p2770e8809b)" style="fill: #1f77b4; stroke: #000000"/>
    <path d="M 143.647621 145.804863 
L 162.779743 135.58173 
L 147.5922 131.232251 
z
" clip-path="url(#p2770e8809b)" style="fill: #1f77b4; stroke: #000000"/>
    <path d="M 119.08363 129.83461 
L 114.476145 152.157534 
L 126.608796 137.579552 
z
" clip-path="url(#p2770e8809b)" style="fill: #1f77b4; stroke: #000000"/>
    <path d="M 134.139714 145.330413 
L 126.608796 137.579552 
L 114.476145 152.157534 
z
" clip-path="url(#p2770e8809b)" style="fill: #1f77b4; stroke: #000000"/>
    <path d="M 161.241836 148.054836 
L 162.779743 135.58173 
L 143.647621 145.804863 
z
" clip-path="url(#p2770e8809b)" style="fill: #1f77b4; stroke: #000000"/>
    <path d="M 113.980672 117.190914 
L 132.511837 115.732819 
L 118.859033 107.289382 
z
" clip-path="url(#p2770e8809b)" style="fill: #1f77b4; stroke: #000000"/>
    <path d="M 119.08363 129.83461 
L 113.980672 117.190914 
L 101.177639 138.452365 
z
" clip-path="url(#p2770e8809b)" style="fill: #1f77b4; stroke: #000000"/>
    <path d="M 156.831641 156.158671 
L 161.241836 148.054836 
L 141.67292 149.388106 
z
" clip-path="url(#p2770e8809b)" style="fill: #1f77b4; stroke: #000000"/>
    <path d="M 147.608345 119.997386 
L 149.109319 107.414112 
L 132.511837 115.732819 
z
" clip-path="url(#p2770e8809b)" style="fill: #1f77b4; stroke: #000000"/>
    <path d="M 118.859033 107.289382 
L 132.511837 115.732819 
L 130.955289 105.674689 
z
" clip-path="url(#p2770e8809b)" style="fill: #1f77b4; stroke: #000000"/>
    <path d="M 134.139714 145.330413 
L 129.672174 163.661221 
L 141.67292 149.388106 
z
" clip-path="url(#p2770e8809b)" style="fill: #1f77b4; stroke: #000000"/>
    <path d="M 132.511837 115.732819 
L 149.109319 107.414112 
L 130.955289 105.674689 
z
" clip-path="url(#p2770e8809b)" style="fill: #1f77b4; stroke: #000000"/>
    <path d="M 147.5922 131.232251 
L 164.326746 123.034844 
L 147.608345 119.997386 
z
" clip-path="url(#p2770e8809b)" style="fill: #1f77b4; stroke: #000000"/>
    <path d="M 113.980672 117.190914 
L 108.422959 118.989632 
L 99.254075 135.088008 
z
" clip-path="url(#p2770e8809b)" style="fill: #1f77b4; stroke: #000000"/>
    <path d="M 162.779743 135.58173 
L 164.326746 123.034844 
L 147.5922 131.232251 
z
" clip-path="url(#p2770e8809b)" style="fill: #1f77b4; stroke: #000000"/>
    <path d="M 156.831641 156.158671 
L 177.974492 151.190061 
L 161.241836 148.054836 
z
" clip-path="url(#p2770e8809b)" style="fill: #1f77b4; stroke: #000000"/>
    <path d="M 101.177639 138.452365 
L 114.476145 152.157534 
L 119.08363 129.83461 
z
" clip-path="url(#p2770e8809b)" style="fill: #1f77b4; stroke: #000000"/>
    <path d="M 161.241836 148.054836 
L 178.128115 139.977269 
L 162.779743 135.58173 
z
" clip-path="url(#p2770e8809b)" style="fill: #1f77b4; stroke: #000000"/>
    <path d="M 134.139714 145.330413 
L 114.476145 152.157534 
L 117.006149 154.304006 
z
" clip-path="url(#p2770e8809b)" style="fill: #1f77b4; stroke: #000000"/>
    <path d="M 177.974492 151.190061 
L 178.128115 139.977269 
L 161.241836 148.054836 
z
" clip-path="url(#p2770e8809b)" style="fill: #1f77b4; stroke: #000000"/>
    <path d="M 101.177639 138.452365 
L 113.980672 117.190914 
L 99.254075 135.088008 
z
" clip-path="url(#p2770e8809b)" style="fill: #1f77b4; stroke: #000000"/>
    <path d="M 117.006149 154.304006 
L 129.672174 163.661221 
L 134.139714 145.330413 
z
" clip-path="url(#p2770e8809b)" style="fill: #1f77b4; stroke: #000000"/>
    <path d="M 172.148696 160.663212 
L 177.974492 151.190061 
L 156.831641 156.158671 
z
" clip-path="url(#p2770e8809b)" style="fill: #1f77b4; stroke: #000000"/>
    <path d="M 99.254075 135.088008 
L 108.422959 118.989632 
L 93.472569 124.976017 
z
" clip-path="url(#p2770e8809b)" style="fill: #1f77b4; stroke: #000000"/>
    <path d="M 156.831641 156.158671 
L 141.67292 149.388106 
L 144.946201 168.235669 
z
" clip-path="url(#p2770e8809b)" style="fill: #1f77b4; stroke: #000000"/>
    <path d="M 113.980672 117.190914 
L 104.574929 116.829688 
L 108.422959 118.989632 
z
" clip-path="url(#p2770e8809b)" style="fill: #1f77b4; stroke: #000000"/>
    <path d="M 172.148696 160.663212 
L 197.183797 152.15284 
L 177.974492 151.190061 
z
" clip-path="url(#p2770e8809b)" style="fill: #1f77b4; stroke: #000000"/>
    <path d="M 147.608345 119.997386 
L 164.41886 111.669836 
L 149.109319 107.414112 
z
" clip-path="url(#p2770e8809b)" style="fill: #1f77b4; stroke: #000000"/>
    <path d="M 164.326746 123.034844 
L 164.41886 111.669836 
L 147.608345 119.997386 
z
" clip-path="url(#p2770e8809b)" style="fill: #1f77b4; stroke: #000000"/>
    <path d="M 118.859033 107.289382 
L 130.955289 105.674689 
L 123.798916 97.262976 
z
" clip-path="url(#p2770e8809b)" style="fill: #1f77b4; stroke: #000000"/>
    <path d="M 149.109319 107.414112 
L 147.641074 97.221941 
L 130.955289 105.674689 
z
" clip-path="url(#p2770e8809b)" style="fill: #1f77b4; stroke: #000000"/>
    <path d="M 118.859033 107.289382 
L 104.574929 116.829688 
L 113.980672 117.190914 
z
" clip-path="url(#p2770e8809b)" style="fill: #1f77b4; stroke: #000000"/>
    <path d="M 93.472569 124.976017 
L 108.422959 118.989632 
L 99.000075 120.920224 
z
" clip-path="url(#p2770e8809b)" style="fill: #1f77b4; stroke: #000000"/>
    <path d="M 197.183797 152.15284 
L 193.639884 144.419602 
L 177.974492 151.190061 
z
" clip-path="url(#p2770e8809b)" style="fill: #1f77b4; stroke: #000000"/>
    <path d="M 144.946201 168.235669 
L 141.67292 149.388106 
L 129.672174 163.661221 
z
" clip-path="url(#p2770e8809b)" style="fill: #1f77b4; stroke: #000000"/>
    <path d="M 130.955289 105.674689 
L 147.641074 97.221941 
L 128.366158 96.315889 
z
" clip-path="url(#p2770e8809b)" style="fill: #1f77b4; stroke: #000000"/>
    <path d="M 123.798916 97.262976 
L 130.955289 105.674689 
L 128.366158 96.315889 
z
" clip-path="url(#p2770e8809b)" style="fill: #1f77b4; stroke: #000000"/>
    <path d="M 177.974492 151.190061 
L 193.639884 144.419602 
L 178.128115 139.977269 
z
" clip-path="url(#p2770e8809b)" style="fill: #1f77b4; stroke: #000000"/>
    <path d="M 162.779743 135.58173 
L 174.40538 132.111129 
L 164.326746 123.034844 
z
" clip-path="url(#p2770e8809b)" style="fill: #1f77b4; stroke: #000000"/>
    <path d="M 187.60404 166.616019 
L 197.183797 152.15284 
L 172.148696 160.663212 
z
" clip-path="url(#p2770e8809b)" style="fill: #1f77b4; stroke: #000000"/>
    <path d="M 187.60404 166.616019 
L 212.744132 156.644722 
L 197.183797 152.15284 
z
" clip-path="url(#p2770e8809b)" style="fill: #1f77b4; stroke: #000000"/>
    <path d="M 178.128115 139.977269 
L 174.40538 132.111129 
L 162.779743 135.58173 
z
" clip-path="url(#p2770e8809b)" style="fill: #1f77b4; stroke: #000000"/>
    <path d="M 104.574929 116.829688 
L 99.000075 120.920224 
L 108.422959 118.989632 
z
" clip-path="url(#p2770e8809b)" style="fill: #1f77b4; stroke: #000000"/>
    <path d="M 172.148696 160.663212 
L 156.831641 156.158671 
L 160.383921 172.859141 
z
" clip-path="url(#p2770e8809b)" style="fill: #1f77b4; stroke: #000000"/>
    <path d="M 101.177639 138.452365 
L 99.254075 135.088008 
L 89.6049 134.367532 
z
" clip-path="url(#p2770e8809b)" style="fill: #1f77b4; stroke: #000000"/>
    <path d="M 104.574929 116.829688 
L 118.859033 107.289382 
L 123.798916 97.262976 
z
" clip-path="url(#p2770e8809b)" style="fill: #1f77b4; stroke: #000000"/>
    <path d="M 164.41886 111.669836 
L 164.326746 123.034844 
L 174.40538 132.111129 
z
" clip-path="url(#p2770e8809b)" style="fill: #1f77b4; stroke: #000000"/>
    <path d="M 89.6049 134.367532 
L 99.254075 135.088008 
L 93.472569 124.976017 
z
" clip-path="url(#p2770e8809b)" style="fill: #1f77b4; stroke: #000000"/>
    <path d="M 101.177639 138.452365 
L 101.935778 158.58649 
L 114.476145 152.157534 
z
" clip-path="url(#p2770e8809b)" style="fill: #1f77b4; stroke: #000000"/>
    <path d="M 164.41886 111.669836 
L 160.072286 103.957093 
L 149.109319 107.414112 
z
" clip-path="url(#p2770e8809b)" style="fill: #1f77b4; stroke: #000000"/>
    <path d="M 123.798916 97.262976 
L 128.366158 96.315889 
L 126.292291 92.202205 
z
" clip-path="url(#p2770e8809b)" style="fill: #1f77b4; stroke: #000000"/>
    <path d="M 117.006149 154.304006 
L 114.476145 152.157534 
L 101.935778 158.58649 
z
" clip-path="url(#p2770e8809b)" style="fill: #1f77b4; stroke: #000000"/>
    <path d="M 149.109319 107.414112 
L 160.072286 103.957093 
L 147.641074 97.221941 
z
" clip-path="url(#p2770e8809b)" style="fill: #1f77b4; stroke: #000000"/>
    <path d="M 212.744132 156.644722 
L 206.492516 151.573001 
L 197.183797 152.15284 
z
" clip-path="url(#p2770e8809b)" style="fill: #1f77b4; stroke: #000000"/>
    <path d="M 160.383921 172.859141 
L 156.831641 156.158671 
L 144.946201 168.235669 
z
" clip-path="url(#p2770e8809b)" style="fill: #1f77b4; stroke: #000000"/>
    <path d="M 174.40538 132.111129 
L 178.128115 139.977269 
L 193.639884 144.419602 
z
" clip-path="url(#p2770e8809b)" style="fill: #1f77b4; stroke: #000000"/>
    <path d="M 117.006149 154.304006 
L 117.349417 173.093762 
L 129.672174 163.661221 
z
" clip-path="url(#p2770e8809b)" style="fill: #1f77b4; stroke: #000000"/>
    <path d="M 197.183797 152.15284 
L 206.492516 151.573001 
L 193.639884 144.419602 
z
" clip-path="url(#p2770e8809b)" style="fill: #1f77b4; stroke: #000000"/>
    <path d="M 93.472569 124.976017 
L 99.000075 120.920224 
L 89.6049 134.367532 
z
" clip-path="url(#p2770e8809b)" style="fill: #1f77b4; stroke: #000000"/>
    <path d="M 203.240779 171.222103 
L 212.744132 156.644722 
L 187.60404 166.616019 
z
" clip-path="url(#p2770e8809b)" style="fill: #1f77b4; stroke: #000000"/>
    <path d="M 141.619616 92.546011 
L 128.366158 96.315889 
L 147.641074 97.221941 
z
" clip-path="url(#p2770e8809b)" style="fill: #1f77b4; stroke: #000000"/>
    <path d="M 126.292291 92.202205 
L 128.366158 96.315889 
L 141.619616 92.546011 
z
" clip-path="url(#p2770e8809b)" style="fill: #1f77b4; stroke: #000000"/>
    <path d="M 187.60404 166.616019 
L 172.148696 160.663212 
L 175.98798 177.53243 
z
" clip-path="url(#p2770e8809b)" style="fill: #1f77b4; stroke: #000000"/>
    <path d="M 164.41886 111.669836 
L 174.40538 132.111129 
L 172.486825 130.989519 
z
" clip-path="url(#p2770e8809b)" style="fill: #1f77b4; stroke: #000000"/>
    <path d="M 94.230381 150.63789 
L 101.935778 158.58649 
L 101.177639 138.452365 
z
" clip-path="url(#p2770e8809b)" style="fill: #1f77b4; stroke: #000000"/>
    <path d="M 117.006149 154.304006 
L 101.935778 158.58649 
L 105.83446 165.387535 
z
" clip-path="url(#p2770e8809b)" style="fill: #1f77b4; stroke: #000000"/>
    <path d="M 88.295903 137.546051 
L 101.177639 138.452365 
L 89.6049 134.367532 
z
" clip-path="url(#p2770e8809b)" style="fill: #1f77b4; stroke: #000000"/>
    <path d="M 104.574929 116.829688 
L 123.798916 97.262976 
L 106.300357 105.847887 
z
" clip-path="url(#p2770e8809b)" style="fill: #1f77b4; stroke: #000000"/>
    <path d="M 105.83446 165.387535 
L 117.349417 173.093762 
L 117.006149 154.304006 
z
" clip-path="url(#p2770e8809b)" style="fill: #1f77b4; stroke: #000000"/>
    <path d="M 94.230381 150.63789 
L 101.177639 138.452365 
L 88.295903 137.546051 
z
" clip-path="url(#p2770e8809b)" style="fill: #1f77b4; stroke: #000000"/>
    <path d="M 203.240779 171.222103 
L 222.014475 167.494771 
L 212.744132 156.644722 
z
" clip-path="url(#p2770e8809b)" style="fill: #1f77b4; stroke: #000000"/>
    <path d="M 164.41886 111.669836 
L 166.732056 120.735973 
L 160.072286 103.957093 
z
" clip-path="url(#p2770e8809b)" style="fill: #1f77b4; stroke: #000000"/>
    <path d="M 144.946201 168.235669 
L 129.672174 163.661221 
L 132.766265 179.193441 
z
" clip-path="url(#p2770e8809b)" style="fill: #1f77b4; stroke: #000000"/>
    <path d="M 166.732056 120.735973 
L 164.41886 111.669836 
L 172.486825 130.989519 
z
" clip-path="url(#p2770e8809b)" style="fill: #1f77b4; stroke: #000000"/>
    <path d="M 174.40538 132.111129 
L 193.639884 144.419602 
L 188.003882 144.018441 
z
" clip-path="url(#p2770e8809b)" style="fill: #1f77b4; stroke: #000000"/>
    <path d="M 104.574929 116.829688 
L 88.295903 137.546051 
L 99.000075 120.920224 
z
" clip-path="url(#p2770e8809b)" style="fill: #1f77b4; stroke: #000000"/>
    <path d="M 175.98798 177.53243 
L 172.148696 160.663212 
L 160.383921 172.859141 
z
" clip-path="url(#p2770e8809b)" style="fill: #1f77b4; stroke: #000000"/>
    <path d="M 111.245267 95.638516 
L 123.798916 97.262976 
L 126.292291 92.202205 
z
" clip-path="url(#p2770e8809b)" style="fill: #1f77b4; stroke: #000000"/>
    <path d="M 206.492516 151.573001 
L 212.744132 156.644722 
L 222.014475 167.494771 
z
" clip-path="url(#p2770e8809b)" style="fill: #1f77b4; stroke: #000000"/>
    <path d="M 88.295903 137.546051 
L 89.6049 134.367532 
L 99.000075 120.920224 
z
" clip-path="url(#p2770e8809b)" style="fill: #1f77b4; stroke: #000000"/>
    <path d="M 157.119315 100.675934 
L 147.641074 97.221941 
L 160.072286 103.957093 
z
" clip-path="url(#p2770e8809b)" style="fill: #1f77b4; stroke: #000000"/>
    <path d="M 174.40538 132.111129 
L 176.351225 134.956254 
L 172.486825 130.989519 
z
" clip-path="url(#p2770e8809b)" style="fill: #1f77b4; stroke: #000000"/>
    <path d="M 141.619616 92.546011 
L 147.641074 97.221941 
L 157.119315 100.675934 
z
" clip-path="url(#p2770e8809b)" style="fill: #1f77b4; stroke: #000000"/>
    <path d="M 141.619616 92.546011 
L 120.071007 91.350778 
L 126.292291 92.202205 
z
" clip-path="url(#p2770e8809b)" style="fill: #1f77b4; stroke: #000000"/>
    <path d="M 176.351225 134.956254 
L 174.40538 132.111129 
L 188.003882 144.018441 
z
" clip-path="url(#p2770e8809b)" style="fill: #1f77b4; stroke: #000000"/>
    <path d="M 132.766265 179.193441 
L 129.672174 163.661221 
L 117.349417 173.093762 
z
" clip-path="url(#p2770e8809b)" style="fill: #1f77b4; stroke: #000000"/>
    <path d="M 203.695215 152.353523 
L 193.639884 144.419602 
L 206.492516 151.573001 
z
" clip-path="url(#p2770e8809b)" style="fill: #1f77b4; stroke: #000000"/>
    <path d="M 188.003882 144.018441 
L 193.639884 144.419602 
L 203.695215 152.353523 
z
" clip-path="url(#p2770e8809b)" style="fill: #1f77b4; stroke: #000000"/>
    <path d="M 111.245267 95.638516 
L 106.300357 105.847887 
L 123.798916 97.262976 
z
" clip-path="url(#p2770e8809b)" style="fill: #1f77b4; stroke: #000000"/>
    <path d="M 203.240779 171.222103 
L 187.60404 166.616019 
L 191.761082 182.256346 
z
" clip-path="url(#p2770e8809b)" style="fill: #1f77b4; stroke: #000000"/>
    <path d="M 160.072286 103.957093 
L 166.732056 120.735973 
L 159.68214 107.198652 
z
" clip-path="url(#p2770e8809b)" style="fill: #1f77b4; stroke: #000000"/>
    <path d="M 120.071007 91.350778 
L 111.245267 95.638516 
L 126.292291 92.202205 
z
" clip-path="url(#p2770e8809b)" style="fill: #1f77b4; stroke: #000000"/>
    <path d="M 219.160732 172.113963 
L 222.014475 167.494771 
L 203.240779 171.222103 
z
" clip-path="url(#p2770e8809b)" style="fill: #1f77b4; stroke: #000000"/>
    <path d="M 160.383921 172.859141 
L 144.946201 168.235669 
L 148.335007 183.935417 
z
" clip-path="url(#p2770e8809b)" style="fill: #1f77b4; stroke: #000000"/>
    <path d="M 91.857294 127.154893 
L 104.574929 116.829688 
L 106.300357 105.847887 
z
" clip-path="url(#p2770e8809b)" style="fill: #1f77b4; stroke: #000000"/>
    <path d="M 141.619616 92.546011 
L 139.587504 92.262876 
L 120.071007 91.350778 
z
" clip-path="url(#p2770e8809b)" style="fill: #1f77b4; stroke: #000000"/>
    <path d="M 160.072286 103.957093 
L 159.68214 107.198652 
L 157.119315 100.675934 
z
" clip-path="url(#p2770e8809b)" style="fill: #1f77b4; stroke: #000000"/>
    <path d="M 191.761082 182.256346 
L 187.60404 166.616019 
L 175.98798 177.53243 
z
" clip-path="url(#p2770e8809b)" style="fill: #1f77b4; stroke: #000000"/>
    <path d="M 91.857294 127.154893 
L 88.295903 137.546051 
L 104.574929 116.829688 
z
" clip-path="url(#p2770e8809b)" style="fill: #1f77b4; stroke: #000000"/>
    <path d="M 157.119315 100.675934 
L 139.587504 92.262876 
L 141.619616 92.546011 
z
" clip-path="url(#p2770e8809b)" style="fill: #1f77b4; stroke: #000000"/>
    <path d="M 105.83446 165.387535 
L 101.935778 158.58649 
L 95.459756 158.305084 
z
" clip-path="url(#p2770e8809b)" style="fill: #1f77b4; stroke: #000000"/>
    <path d="M 206.492516 151.573001 
L 222.014475 167.494771 
L 219.30504 167.393001 
z
" clip-path="url(#p2770e8809b)" style="fill: #1f77b4; stroke: #000000"/>
    <path d="M 95.459756 158.305084 
L 101.935778 158.58649 
L 94.230381 150.63789 
z
" clip-path="url(#p2770e8809b)" style="fill: #1f77b4; stroke: #000000"/>
    <path d="M 206.492516 151.573001 
L 207.612549 155.397757 
L 203.695215 152.353523 
z
" clip-path="url(#p2770e8809b)" style="fill: #1f77b4; stroke: #000000"/>
    <path d="M 148.335007 183.935417 
L 144.946201 168.235669 
L 132.766265 179.193441 
z
" clip-path="url(#p2770e8809b)" style="fill: #1f77b4; stroke: #000000"/>
    <path d="M 207.612549 155.397757 
L 206.492516 151.573001 
L 219.30504 167.393001 
z
" clip-path="url(#p2770e8809b)" style="fill: #1f77b4; stroke: #000000"/>
    <path d="M 172.486825 130.989519 
L 176.351225 134.956254 
L 160.631272 135.748883 
z
" clip-path="url(#p2770e8809b)" style="fill: #1f77b4; stroke: #000000"/>
    <path d="M 160.631272 135.748883 
L 166.732056 120.735973 
L 172.486825 130.989519 
z
" clip-path="url(#p2770e8809b)" style="fill: #1f77b4; stroke: #000000"/>
    <path d="M 219.160732 172.113963 
L 237.074256 173.070261 
L 222.014475 167.494771 
z
" clip-path="url(#p2770e8809b)" style="fill: #1f77b4; stroke: #000000"/>
    <path d="M 176.303808 153.30899 
L 176.351225 134.956254 
L 188.003882 144.018441 
z
" clip-path="url(#p2770e8809b)" style="fill: #1f77b4; stroke: #000000"/>
    <path d="M 105.83446 165.387535 
L 104.719499 184.200738 
L 117.349417 173.093762 
z
" clip-path="url(#p2770e8809b)" style="fill: #1f77b4; stroke: #000000"/>
    <path d="M 166.732056 120.735973 
L 158.023907 132.097461 
L 159.68214 107.198652 
z
" clip-path="url(#p2770e8809b)" style="fill: #1f77b4; stroke: #000000"/>
    <path d="M 111.245267 95.638516 
L 120.071007 91.350778 
L 113.788201 94.398348 
z
" clip-path="url(#p2770e8809b)" style="fill: #1f77b4; stroke: #000000"/>
    <path d="M 219.160732 172.113963 
L 203.240779 171.222103 
L 207.804905 183.236972 
z
" clip-path="url(#p2770e8809b)" style="fill: #1f77b4; stroke: #000000"/>
    <path d="M 219.30504 167.393001 
L 222.014475 167.494771 
L 235.302503 173.018246 
z
" clip-path="url(#p2770e8809b)" style="fill: #1f77b4; stroke: #000000"/>
    <path d="M 157.119315 100.675934 
L 159.68214 107.198652 
L 151.098938 99.88906 
z
" clip-path="url(#p2770e8809b)" style="fill: #1f77b4; stroke: #000000"/>
    <path d="M 157.119315 100.675934 
L 151.098938 99.88906 
L 139.587504 92.262876 
z
" clip-path="url(#p2770e8809b)" style="fill: #1f77b4; stroke: #000000"/>
    <path d="M 94.230381 150.63789 
L 88.295903 137.546051 
L 84.883208 151.084842 
z
" clip-path="url(#p2770e8809b)" style="fill: #1f77b4; stroke: #000000"/>
    <path d="M 175.98798 177.53243 
L 160.383921 172.859141 
L 164.073654 188.729143 
z
" clip-path="url(#p2770e8809b)" style="fill: #1f77b4; stroke: #000000"/>
    <path d="M 235.302503 173.018246 
L 222.014475 167.494771 
L 237.074256 173.070261 
z
" clip-path="url(#p2770e8809b)" style="fill: #1f77b4; stroke: #000000"/>
    <path d="M 129.263502 93.28669 
L 120.071007 91.350778 
L 139.587504 92.262876 
z
" clip-path="url(#p2770e8809b)" style="fill: #1f77b4; stroke: #000000"/>
    <path d="M 235.161773 176.806796 
L 237.074256 173.070261 
L 219.160732 172.113963 
z
" clip-path="url(#p2770e8809b)" style="fill: #1f77b4; stroke: #000000"/>
    <path d="M 93.5371 116.087565 
L 106.300357 105.847887 
L 111.245267 95.638516 
z
" clip-path="url(#p2770e8809b)" style="fill: #1f77b4; stroke: #000000"/>
    <path d="M 91.857294 127.154893 
L 106.300357 105.847887 
L 93.5371 116.087565 
z
" clip-path="url(#p2770e8809b)" style="fill: #1f77b4; stroke: #000000"/>
    <path d="M 207.804905 183.236972 
L 203.240779 171.222103 
L 191.761082 182.256346 
z
" clip-path="url(#p2770e8809b)" style="fill: #1f77b4; stroke: #000000"/>
    <path d="M 188.003882 144.018441 
L 203.695215 152.353523 
L 192.178953 160.832201 
z
" clip-path="url(#p2770e8809b)" style="fill: #1f77b4; stroke: #000000"/>
    <path d="M 92.849846 164.939279 
L 105.83446 165.387535 
L 95.459756 158.305084 
z
" clip-path="url(#p2770e8809b)" style="fill: #1f77b4; stroke: #000000"/>
    <path d="M 95.459756 158.305084 
L 94.230381 150.63789 
L 88.870375 158.018753 
z
" clip-path="url(#p2770e8809b)" style="fill: #1f77b4; stroke: #000000"/>
    <path d="M 160.631272 135.748883 
L 176.351225 134.956254 
L 168.445409 146.691998 
z
" clip-path="url(#p2770e8809b)" style="fill: #1f77b4; stroke: #000000"/>
    <path d="M 176.303808 153.30899 
L 168.445409 146.691998 
L 176.351225 134.956254 
z
" clip-path="url(#p2770e8809b)" style="fill: #1f77b4; stroke: #000000"/>
    <path d="M 113.788201 94.398348 
L 120.071007 91.350778 
L 129.263502 93.28669 
z
" clip-path="url(#p2770e8809b)" style="fill: #1f77b4; stroke: #000000"/>
    <path d="M 98.85715 178.146585 
L 104.719499 184.200738 
L 105.83446 165.387535 
z
" clip-path="url(#p2770e8809b)" style="fill: #1f77b4; stroke: #000000"/>
    <path d="M 132.766265 179.193441 
L 117.349417 173.093762 
L 120.259125 189.007968 
z
" clip-path="url(#p2770e8809b)" style="fill: #1f77b4; stroke: #000000"/>
    <path d="M 164.073654 188.729143 
L 160.383921 172.859141 
L 148.335007 183.935417 
z
" clip-path="url(#p2770e8809b)" style="fill: #1f77b4; stroke: #000000"/>
    <path d="M 203.695215 152.353523 
L 207.612549 155.397757 
L 192.178953 160.832201 
z
" clip-path="url(#p2770e8809b)" style="fill: #1f77b4; stroke: #000000"/>
    <path d="M 160.631272 135.748883 
L 158.023907 132.097461 
L 166.732056 120.735973 
z
" clip-path="url(#p2770e8809b)" style="fill: #1f77b4; stroke: #000000"/>
    <path d="M 84.883208 151.084842 
L 88.295903 137.546051 
L 91.857294 127.154893 
z
" clip-path="url(#p2770e8809b)" style="fill: #1f77b4; stroke: #000000"/>
    <path d="M 98.85715 178.146585 
L 105.83446 165.387535 
L 92.849846 164.939279 
z
" clip-path="url(#p2770e8809b)" style="fill: #1f77b4; stroke: #000000"/>
    <path d="M 207.928986 178.476936 
L 207.612549 155.397757 
L 219.30504 167.393001 
z
" clip-path="url(#p2770e8809b)" style="fill: #1f77b4; stroke: #000000"/>
    <path d="M 243.30419 177.276195 
L 237.074256 173.070261 
L 235.161773 176.806796 
z
" clip-path="url(#p2770e8809b)" style="fill: #1f77b4; stroke: #000000"/>
    <path d="M 237.074256 173.070261 
L 243.30419 177.276195 
L 235.302503 173.018246 
z
" clip-path="url(#p2770e8809b)" style="fill: #1f77b4; stroke: #000000"/>
    <path d="M 188.003882 144.018441 
L 192.178953 160.832201 
L 176.303808 153.30899 
z
" clip-path="url(#p2770e8809b)" style="fill: #1f77b4; stroke: #000000"/>
    <path d="M 159.68214 107.198652 
L 158.023907 132.097461 
L 154.797328 119.505325 
z
" clip-path="url(#p2770e8809b)" style="fill: #1f77b4; stroke: #000000"/>
    <path d="M 113.788201 94.398348 
L 95.234884 104.901786 
L 111.245267 95.638516 
z
" clip-path="url(#p2770e8809b)" style="fill: #1f77b4; stroke: #000000"/>
    <path d="M 120.259125 189.007968 
L 117.349417 173.093762 
L 104.719499 184.200738 
z
" clip-path="url(#p2770e8809b)" style="fill: #1f77b4; stroke: #000000"/>
    <path d="M 159.68214 107.198652 
L 148.913352 106.092895 
L 151.098938 99.88906 
z
" clip-path="url(#p2770e8809b)" style="fill: #1f77b4; stroke: #000000"/>
    <path d="M 94.230381 150.63789 
L 84.883208 151.084842 
L 88.870375 158.018753 
z
" clip-path="url(#p2770e8809b)" style="fill: #1f77b4; stroke: #000000"/>
    <path d="M 235.161773 176.806796 
L 219.160732 172.113963 
L 223.950147 188.051367 
z
" clip-path="url(#p2770e8809b)" style="fill: #1f77b4; stroke: #000000"/>
    <path d="M 144.971631 102.046932 
L 139.587504 92.262876 
L 151.098938 99.88906 
z
" clip-path="url(#p2770e8809b)" style="fill: #1f77b4; stroke: #000000"/>
    <path d="M 191.761082 182.256346 
L 175.98798 177.53243 
L 180.041292 189.762753 
z
" clip-path="url(#p2770e8809b)" style="fill: #1f77b4; stroke: #000000"/>
    <path d="M 129.263502 93.28669 
L 139.587504 92.262876 
L 144.971631 102.046932 
z
" clip-path="url(#p2770e8809b)" style="fill: #1f77b4; stroke: #000000"/>
    <path d="M 93.5371 116.087565 
L 111.245267 95.638516 
L 95.234884 104.901786 
z
" clip-path="url(#p2770e8809b)" style="fill: #1f77b4; stroke: #000000"/>
    <path d="M 219.30504 167.393001 
L 235.302503 173.018246 
L 224.075163 184.231436 
z
" clip-path="url(#p2770e8809b)" style="fill: #1f77b4; stroke: #000000"/>
    <path d="M 159.68214 107.198652 
L 154.797328 119.505325 
L 148.913352 106.092895 
z
" clip-path="url(#p2770e8809b)" style="fill: #1f77b4; stroke: #000000"/>
    <path d="M 92.849846 164.939279 
L 95.459756 158.305084 
L 88.870375 158.018753 
z
" clip-path="url(#p2770e8809b)" style="fill: #1f77b4; stroke: #000000"/>
    <path d="M 223.950147 188.051367 
L 219.160732 172.113963 
L 207.804905 183.236972 
z
" clip-path="url(#p2770e8809b)" style="fill: #1f77b4; stroke: #000000"/>
    <path d="M 148.335007 183.935417 
L 132.766265 179.193441 
L 135.969699 193.868081 
z
" clip-path="url(#p2770e8809b)" style="fill: #1f77b4; stroke: #000000"/>
    <path d="M 192.178953 160.832201 
L 207.612549 155.397757 
L 200.102215 167.498064 
z
" clip-path="url(#p2770e8809b)" style="fill: #1f77b4; stroke: #000000"/>
    <path d="M 207.928986 178.476936 
L 200.102215 167.498064 
L 207.612549 155.397757 
z
" clip-path="url(#p2770e8809b)" style="fill: #1f77b4; stroke: #000000"/>
    <path d="M 80.740595 138.316591 
L 91.857294 127.154893 
L 93.5371 116.087565 
z
" clip-path="url(#p2770e8809b)" style="fill: #1f77b4; stroke: #000000"/>
    <path d="M 160.631272 135.748883 
L 168.445409 146.691998 
L 157.619088 135.506794 
z
" clip-path="url(#p2770e8809b)" style="fill: #1f77b4; stroke: #000000"/>
    <path d="M 180.041292 189.762753 
L 175.98798 177.53243 
L 164.073654 188.729143 
z
" clip-path="url(#p2770e8809b)" style="fill: #1f77b4; stroke: #000000"/>
    <path d="M 160.631272 135.748883 
L 157.619088 135.506794 
L 158.023907 132.097461 
z
" clip-path="url(#p2770e8809b)" style="fill: #1f77b4; stroke: #000000"/>
    <path d="M 235.302503 173.018246 
L 243.30419 177.276195 
L 224.075163 184.231436 
z
" clip-path="url(#p2770e8809b)" style="fill: #1f77b4; stroke: #000000"/>
    <path d="M 243.30419 177.276195 
L 235.161773 176.806796 
L 232.158369 188.566597 
z
" clip-path="url(#p2770e8809b)" style="fill: #1f77b4; stroke: #000000"/>
    <path d="M 84.883208 151.084842 
L 91.857294 127.154893 
L 80.740595 138.316591 
z
" clip-path="url(#p2770e8809b)" style="fill: #1f77b4; stroke: #000000"/>
    <path d="M 219.30504 167.393001 
L 224.075163 184.231436 
L 207.928986 178.476936 
z
" clip-path="url(#p2770e8809b)" style="fill: #1f77b4; stroke: #000000"/>
    <path d="M 113.788201 94.398348 
L 129.263502 93.28669 
L 100.899129 97.656444 
z
" clip-path="url(#p2770e8809b)" style="fill: #1f77b4; stroke: #000000"/>
    <path d="M 98.202195 185.573439 
L 104.719499 184.200738 
L 98.85715 178.146585 
z
" clip-path="url(#p2770e8809b)" style="fill: #1f77b4; stroke: #000000"/>
    <path d="M 207.804905 183.236972 
L 191.761082 182.256346 
L 180.041292 189.762753 
z
" clip-path="url(#p2770e8809b)" style="fill: #1f77b4; stroke: #000000"/>
    <path d="M 135.969699 193.868081 
L 132.766265 179.193441 
L 120.259125 189.007968 
z
" clip-path="url(#p2770e8809b)" style="fill: #1f77b4; stroke: #000000"/>
    <path d="M 100.899129 97.656444 
L 95.234884 104.901786 
L 113.788201 94.398348 
z
" clip-path="url(#p2770e8809b)" style="fill: #1f77b4; stroke: #000000"/>
    <path d="M 151.098938 99.88906 
L 148.913352 106.092895 
L 144.971631 102.046932 
z
" clip-path="url(#p2770e8809b)" style="fill: #1f77b4; stroke: #000000"/>
    <path d="M 164.274418 164.303582 
L 168.445409 146.691998 
L 176.303808 153.30899 
z
" clip-path="url(#p2770e8809b)" style="fill: #1f77b4; stroke: #000000"/>
    <path d="M 98.202195 185.573439 
L 120.259125 189.007968 
L 104.719499 184.200738 
z
" clip-path="url(#p2770e8809b)" style="fill: #1f77b4; stroke: #000000"/>
    <path d="M 88.870375 158.018753 
L 85.463725 154.975597 
L 92.849846 164.939279 
z
" clip-path="url(#p2770e8809b)" style="fill: #1f77b4; stroke: #000000"/>
    <path d="M 232.158369 188.566597 
L 235.161773 176.806796 
L 223.950147 188.051367 
z
" clip-path="url(#p2770e8809b)" style="fill: #1f77b4; stroke: #000000"/>
    <path d="M 92.849846 164.939279 
L 97.986652 174.064488 
L 98.85715 178.146585 
z
" clip-path="url(#p2770e8809b)" style="fill: #1f77b4; stroke: #000000"/>
    <path d="M 154.617719 126.460245 
L 154.797328 119.505325 
L 158.023907 132.097461 
z
" clip-path="url(#p2770e8809b)" style="fill: #1f77b4; stroke: #000000"/>
    <path d="M 154.617719 126.460245 
L 158.023907 132.097461 
L 157.619088 135.506794 
z
" clip-path="url(#p2770e8809b)" style="fill: #1f77b4; stroke: #000000"/>
    <path d="M 80.443058 126.592624 
L 93.5371 116.087565 
L 95.234884 104.901786 
z
" clip-path="url(#p2770e8809b)" style="fill: #1f77b4; stroke: #000000"/>
    <path d="M 85.463725 154.975597 
L 88.870375 158.018753 
L 84.883208 151.084842 
z
" clip-path="url(#p2770e8809b)" style="fill: #1f77b4; stroke: #000000"/>
    <path d="M 200.102215 167.498064 
L 207.928986 178.476936 
L 204.967745 184.156758 
z
" clip-path="url(#p2770e8809b)" style="fill: #1f77b4; stroke: #000000"/>
    <path d="M 204.967745 184.156758 
L 223.950147 188.051367 
L 207.804905 183.236972 
z
" clip-path="url(#p2770e8809b)" style="fill: #1f77b4; stroke: #000000"/>
    <path d="M 164.073654 188.729143 
L 148.335007 183.935417 
L 151.861794 196.386287 
z
" clip-path="url(#p2770e8809b)" style="fill: #1f77b4; stroke: #000000"/>
    <path d="M 144.971631 102.046932 
L 122.93317 93.914466 
L 129.263502 93.28669 
z
" clip-path="url(#p2770e8809b)" style="fill: #1f77b4; stroke: #000000"/>
    <path d="M 80.740595 138.316591 
L 93.5371 116.087565 
L 80.443058 126.592624 
z
" clip-path="url(#p2770e8809b)" style="fill: #1f77b4; stroke: #000000"/>
    <path d="M 168.445409 146.691998 
L 154.385753 145.324866 
L 157.619088 135.506794 
z
" clip-path="url(#p2770e8809b)" style="fill: #1f77b4; stroke: #000000"/>
    <path d="M 224.075163 184.231436 
L 243.30419 177.276195 
L 232.158369 188.566597 
z
" clip-path="url(#p2770e8809b)" style="fill: #1f77b4; stroke: #000000"/>
    <path d="M 176.303808 153.30899 
L 192.178953 160.832201 
L 180.268225 174.391844 
z
" clip-path="url(#p2770e8809b)" style="fill: #1f77b4; stroke: #000000"/>
    <path d="M 98.85715 178.146585 
L 97.986652 174.064488 
L 98.202195 185.573439 
z
" clip-path="url(#p2770e8809b)" style="fill: #1f77b4; stroke: #000000"/>
    <path d="M 204.967745 184.156758 
L 207.804905 183.236972 
L 184.084193 189.066808 
z
" clip-path="url(#p2770e8809b)" style="fill: #1f77b4; stroke: #000000"/>
    <path d="M 204.967745 184.156758 
L 207.928986 178.476936 
L 222.114445 188.042651 
z
" clip-path="url(#p2770e8809b)" style="fill: #1f77b4; stroke: #000000"/>
    <path d="M 184.084193 189.066808 
L 200.102215 167.498064 
L 204.967745 184.156758 
z
" clip-path="url(#p2770e8809b)" style="fill: #1f77b4; stroke: #000000"/>
    <path d="M 85.463725 154.975597 
L 97.986652 174.064488 
L 92.849846 164.939279 
z
" clip-path="url(#p2770e8809b)" style="fill: #1f77b4; stroke: #000000"/>
    <path d="M 164.274418 164.303582 
L 158.318036 158.176874 
L 168.445409 146.691998 
z
" clip-path="url(#p2770e8809b)" style="fill: #1f77b4; stroke: #000000"/>
    <path d="M 207.804905 183.236972 
L 180.041292 189.762753 
L 184.084193 189.066808 
z
" clip-path="url(#p2770e8809b)" style="fill: #1f77b4; stroke: #000000"/>
    <path d="M 156.210129 113.312155 
L 148.913352 106.092895 
L 154.797328 119.505325 
z
" clip-path="url(#p2770e8809b)" style="fill: #1f77b4; stroke: #000000"/>
    <path d="M 222.114445 188.042651 
L 207.928986 178.476936 
L 224.075163 184.231436 
z
" clip-path="url(#p2770e8809b)" style="fill: #1f77b4; stroke: #000000"/>
    <path d="M 100.899129 97.656444 
L 129.263502 93.28669 
L 104.75678 95.767376 
z
" clip-path="url(#p2770e8809b)" style="fill: #1f77b4; stroke: #000000"/>
    <path d="M 222.114445 188.042651 
L 223.950147 188.051367 
L 204.967745 184.156758 
z
" clip-path="url(#p2770e8809b)" style="fill: #1f77b4; stroke: #000000"/>
    <path d="M 129.263502 93.28669 
L 122.93317 93.914466 
L 104.75678 95.767376 
z
" clip-path="url(#p2770e8809b)" style="fill: #1f77b4; stroke: #000000"/>
    <path d="M 192.178953 160.832201 
L 200.102215 167.498064 
L 180.268225 174.391844 
z
" clip-path="url(#p2770e8809b)" style="fill: #1f77b4; stroke: #000000"/>
    <path d="M 151.861794 196.386287 
L 148.335007 183.935417 
L 135.969699 193.868081 
z
" clip-path="url(#p2770e8809b)" style="fill: #1f77b4; stroke: #000000"/>
    <path d="M 113.834152 190.427923 
L 120.259125 189.007968 
L 98.202195 185.573439 
z
" clip-path="url(#p2770e8809b)" style="fill: #1f77b4; stroke: #000000"/>
    <path d="M 168.445409 146.691998 
L 158.318036 158.176874 
L 154.385753 145.324866 
z
" clip-path="url(#p2770e8809b)" style="fill: #1f77b4; stroke: #000000"/>
    <path d="M 138.737992 98.273464 
L 144.971631 102.046932 
L 148.913352 106.092895 
z
" clip-path="url(#p2770e8809b)" style="fill: #1f77b4; stroke: #000000"/>
    <path d="M 176.303808 153.30899 
L 180.268225 174.391844 
L 164.274418 164.303582 
z
" clip-path="url(#p2770e8809b)" style="fill: #1f77b4; stroke: #000000"/>
    <path d="M 113.834152 190.427923 
L 135.969699 193.868081 
L 120.259125 189.007968 
z
" clip-path="url(#p2770e8809b)" style="fill: #1f77b4; stroke: #000000"/>
    <path d="M 180.041292 189.762753 
L 164.073654 188.729143 
L 151.861794 196.386287 
z
" clip-path="url(#p2770e8809b)" style="fill: #1f77b4; stroke: #000000"/>
    <path d="M 232.158369 188.566597 
L 223.950147 188.051367 
L 222.114445 188.042651 
z
" clip-path="url(#p2770e8809b)" style="fill: #1f77b4; stroke: #000000"/>
    <path d="M 156.210129 113.312155 
L 154.797328 119.505325 
L 154.617719 126.460245 
z
" clip-path="url(#p2770e8809b)" style="fill: #1f77b4; stroke: #000000"/>
    <path d="M 224.075163 184.231436 
L 232.158369 188.566597 
L 222.114445 188.042651 
z
" clip-path="url(#p2770e8809b)" style="fill: #1f77b4; stroke: #000000"/>
    <path d="M 157.619088 135.506794 
L 154.385753 145.324866 
L 154.617719 126.460245 
z
" clip-path="url(#p2770e8809b)" style="fill: #1f77b4; stroke: #000000"/>
    <path d="M 144.971631 102.046932 
L 138.737992 98.273464 
L 122.93317 93.914466 
z
" clip-path="url(#p2770e8809b)" style="fill: #1f77b4; stroke: #000000"/>
    <path d="M 182.927732 177.126538 
L 200.102215 167.498064 
L 184.084193 189.066808 
z
" clip-path="url(#p2770e8809b)" style="fill: #1f77b4; stroke: #000000"/>
    <path d="M 80.443058 126.592624 
L 95.234884 104.901786 
L 80.142709 114.75785 
z
" clip-path="url(#p2770e8809b)" style="fill: #1f77b4; stroke: #000000"/>
    <path d="M 84.883208 151.084842 
L 80.740595 138.316591 
L 72.5694 150.764398 
z
" clip-path="url(#p2770e8809b)" style="fill: #1f77b4; stroke: #000000"/>
    <path d="M 85.463725 154.975597 
L 84.883208 151.084842 
L 75.257885 154.493387 
z
" clip-path="url(#p2770e8809b)" style="fill: #1f77b4; stroke: #000000"/>
    <path d="M 184.084193 189.066808 
L 180.041292 189.762753 
L 177.07105 190.715707 
z
" clip-path="url(#p2770e8809b)" style="fill: #1f77b4; stroke: #000000"/>
    <path d="M 156.210129 113.312155 
L 138.737992 98.273464 
L 148.913352 106.092895 
z
" clip-path="url(#p2770e8809b)" style="fill: #1f77b4; stroke: #000000"/>
    <path d="M 180.268225 174.391844 
L 200.102215 167.498064 
L 182.927732 177.126538 
z
" clip-path="url(#p2770e8809b)" style="fill: #1f77b4; stroke: #000000"/>
    <path d="M 85.067757 104.291237 
L 95.234884 104.901786 
L 100.899129 97.656444 
z
" clip-path="url(#p2770e8809b)" style="fill: #1f77b4; stroke: #000000"/>
    <path d="M 113.691393 178.878169 
L 98.202195 185.573439 
L 97.986652 174.064488 
z
" clip-path="url(#p2770e8809b)" style="fill: #1f77b4; stroke: #000000"/>
    <path d="M 113.691393 178.878169 
L 113.834152 190.427923 
L 98.202195 185.573439 
z
" clip-path="url(#p2770e8809b)" style="fill: #1f77b4; stroke: #000000"/>
    <path d="M 85.463725 154.975597 
L 96.127757 163.84464 
L 97.986652 174.064488 
z
" clip-path="url(#p2770e8809b)" style="fill: #1f77b4; stroke: #000000"/>
    <path d="M 100.899129 97.656444 
L 104.75678 95.767376 
L 94.311702 99.823061 
z
" clip-path="url(#p2770e8809b)" style="fill: #1f77b4; stroke: #000000"/>
    <path d="M 131.226222 193.887041 
L 135.969699 193.868081 
L 113.834152 190.427923 
z
" clip-path="url(#p2770e8809b)" style="fill: #1f77b4; stroke: #000000"/>
    <path d="M 72.5694 150.764398 
L 80.740595 138.316591 
L 80.443058 126.592624 
z
" clip-path="url(#p2770e8809b)" style="fill: #1f77b4; stroke: #000000"/>
    <path d="M 177.07105 190.715707 
L 182.927732 177.126538 
L 184.084193 189.066808 
z
" clip-path="url(#p2770e8809b)" style="fill: #1f77b4; stroke: #000000"/>
    <path d="M 177.07105 190.715707 
L 180.041292 189.762753 
L 155.8737 195.699536 
z
" clip-path="url(#p2770e8809b)" style="fill: #1f77b4; stroke: #000000"/>
    <path d="M 104.75678 95.767376 
L 122.93317 93.914466 
L 116.448884 90.041823 
z
" clip-path="url(#p2770e8809b)" style="fill: #1f77b4; stroke: #000000"/>
    <path d="M 85.067757 104.291237 
L 80.142709 114.75785 
L 95.234884 104.901786 
z
" clip-path="url(#p2770e8809b)" style="fill: #1f77b4; stroke: #000000"/>
    <path d="M 131.226222 193.887041 
L 151.861794 196.386287 
L 135.969699 193.868081 
z
" clip-path="url(#p2770e8809b)" style="fill: #1f77b4; stroke: #000000"/>
    <path d="M 180.041292 189.762753 
L 151.861794 196.386287 
L 155.8737 195.699536 
z
" clip-path="url(#p2770e8809b)" style="fill: #1f77b4; stroke: #000000"/>
    <path d="M 154.617719 126.460245 
L 156.443137 134.110358 
L 156.210129 113.312155 
z
" clip-path="url(#p2770e8809b)" style="fill: #1f77b4; stroke: #000000"/>
    <path d="M 84.883208 151.084842 
L 72.5694 150.764398 
L 75.257885 154.493387 
z
" clip-path="url(#p2770e8809b)" style="fill: #1f77b4; stroke: #000000"/>
    <path d="M 177.22761 179.163541 
L 182.927732 177.126538 
L 177.07105 190.715707 
z
" clip-path="url(#p2770e8809b)" style="fill: #1f77b4; stroke: #000000"/>
    <path d="M 154.617719 126.460245 
L 154.385753 145.324866 
L 156.443137 134.110358 
z
" clip-path="url(#p2770e8809b)" style="fill: #1f77b4; stroke: #000000"/>
    <path d="M 151.914807 179.969735 
L 158.318036 158.176874 
L 164.274418 164.303582 
z
" clip-path="url(#p2770e8809b)" style="fill: #1f77b4; stroke: #000000"/>
    <path d="M 94.311702 99.823061 
L 104.75678 95.767376 
L 116.448884 90.041823 
z
" clip-path="url(#p2770e8809b)" style="fill: #1f77b4; stroke: #000000"/>
    <path d="M 180.268225 174.391844 
L 182.927732 177.126538 
L 177.22761 179.163541 
z
" clip-path="url(#p2770e8809b)" style="fill: #1f77b4; stroke: #000000"/>
    <path d="M 94.311702 99.823061 
L 85.067757 104.291237 
L 100.899129 97.656444 
z
" clip-path="url(#p2770e8809b)" style="fill: #1f77b4; stroke: #000000"/>
    <path d="M 132.377856 94.423423 
L 122.93317 93.914466 
L 138.737992 98.273464 
z
" clip-path="url(#p2770e8809b)" style="fill: #1f77b4; stroke: #000000"/>
    <path d="M 151.914807 179.969735 
L 164.274418 164.303582 
L 180.268225 174.391844 
z
" clip-path="url(#p2770e8809b)" style="fill: #1f77b4; stroke: #000000"/>
    <path d="M 158.318036 158.176874 
L 143.888731 168.774038 
L 154.385753 145.324866 
z
" clip-path="url(#p2770e8809b)" style="fill: #1f77b4; stroke: #000000"/>
    <path d="M 85.463725 154.975597 
L 91.045511 162.190733 
L 96.127757 163.84464 
z
" clip-path="url(#p2770e8809b)" style="fill: #1f77b4; stroke: #000000"/>
    <path d="M 68.961617 137.954198 
L 80.443058 126.592624 
L 80.142709 114.75785 
z
" clip-path="url(#p2770e8809b)" style="fill: #1f77b4; stroke: #000000"/>
    <path d="M 129.571161 183.745497 
L 131.226222 193.887041 
L 113.834152 190.427923 
z
" clip-path="url(#p2770e8809b)" style="fill: #1f77b4; stroke: #000000"/>
    <path d="M 149.794762 196.402225 
L 151.861794 196.386287 
L 131.226222 193.887041 
z
" clip-path="url(#p2770e8809b)" style="fill: #1f77b4; stroke: #000000"/>
    <path d="M 129.571161 183.745497 
L 113.834152 190.427923 
L 113.691393 178.878169 
z
" clip-path="url(#p2770e8809b)" style="fill: #1f77b4; stroke: #000000"/>
    <path d="M 111.922689 168.632145 
L 113.691393 178.878169 
L 97.986652 174.064488 
z
" clip-path="url(#p2770e8809b)" style="fill: #1f77b4; stroke: #000000"/>
    <path d="M 111.922689 168.632145 
L 97.986652 174.064488 
L 96.127757 163.84464 
z
" clip-path="url(#p2770e8809b)" style="fill: #1f77b4; stroke: #000000"/>
    <path d="M 150.561751 106.172046 
L 138.737992 98.273464 
L 156.210129 113.312155 
z
" clip-path="url(#p2770e8809b)" style="fill: #1f77b4; stroke: #000000"/>
    <path d="M 177.07105 190.715707 
L 155.930228 184.105754 
L 177.22761 179.163541 
z
" clip-path="url(#p2770e8809b)" style="fill: #1f77b4; stroke: #000000"/>
    <path d="M 116.448884 90.041823 
L 122.93317 93.914466 
L 132.377856 94.423423 
z
" clip-path="url(#p2770e8809b)" style="fill: #1f77b4; stroke: #000000"/>
    <path d="M 155.8737 195.699536 
L 151.861794 196.386287 
L 149.794762 196.402225 
z
" clip-path="url(#p2770e8809b)" style="fill: #1f77b4; stroke: #000000"/>
    <path d="M 85.463725 154.975597 
L 75.257885 154.493387 
L 91.045511 162.190733 
z
" clip-path="url(#p2770e8809b)" style="fill: #1f77b4; stroke: #000000"/>
    <path d="M 177.07105 190.715707 
L 155.8737 195.699536 
L 155.930228 184.105754 
z
" clip-path="url(#p2770e8809b)" style="fill: #1f77b4; stroke: #000000"/>
    <path d="M 151.914807 179.969735 
L 180.268225 174.391844 
L 177.22761 179.163541 
z
" clip-path="url(#p2770e8809b)" style="fill: #1f77b4; stroke: #000000"/>
    <path d="M 72.5694 150.764398 
L 80.443058 126.592624 
L 68.961617 137.954198 
z
" clip-path="url(#p2770e8809b)" style="fill: #1f77b4; stroke: #000000"/>
    <path d="M 151.914807 179.969735 
L 143.888731 168.774038 
L 158.318036 158.176874 
z
" clip-path="url(#p2770e8809b)" style="fill: #1f77b4; stroke: #000000"/>
    <path d="M 114.798638 88.305857 
L 94.311702 99.823061 
L 116.448884 90.041823 
z
" clip-path="url(#p2770e8809b)" style="fill: #1f77b4; stroke: #000000"/>
    <path d="M 149.822372 184.802597 
L 149.794762 196.402225 
L 131.226222 193.887041 
z
" clip-path="url(#p2770e8809b)" style="fill: #1f77b4; stroke: #000000"/>
    <path d="M 149.794762 196.402225 
L 155.930228 184.105754 
L 155.8737 195.699536 
z
" clip-path="url(#p2770e8809b)" style="fill: #1f77b4; stroke: #000000"/>
    <path d="M 156.210129 113.312155 
L 156.443137 134.110358 
L 161.896897 123.725854 
z
" clip-path="url(#p2770e8809b)" style="fill: #1f77b4; stroke: #000000"/>
    <path d="M 149.822372 184.802597 
L 131.226222 193.887041 
L 129.571161 183.745497 
z
" clip-path="url(#p2770e8809b)" style="fill: #1f77b4; stroke: #000000"/>
    <path d="M 154.385753 145.324866 
L 143.888198 156.989131 
L 156.443137 134.110358 
z
" clip-path="url(#p2770e8809b)" style="fill: #1f77b4; stroke: #000000"/>
    <path d="M 90.758586 90.362724 
L 94.311702 99.823061 
L 114.798638 88.305857 
z
" clip-path="url(#p2770e8809b)" style="fill: #1f77b4; stroke: #000000"/>
    <path d="M 155.930228 184.105754 
L 151.914807 179.969735 
L 177.22761 179.163541 
z
" clip-path="url(#p2770e8809b)" style="fill: #1f77b4; stroke: #000000"/>
    <path d="M 156.210129 113.312155 
L 161.896897 123.725854 
L 150.561751 106.172046 
z
" clip-path="url(#p2770e8809b)" style="fill: #1f77b4; stroke: #000000"/>
    <path d="M 85.067757 104.291237 
L 94.311702 99.823061 
L 83.471076 91.847865 
z
" clip-path="url(#p2770e8809b)" style="fill: #1f77b4; stroke: #000000"/>
    <path d="M 149.822372 184.802597 
L 155.930228 184.105754 
L 149.794762 196.402225 
z
" clip-path="url(#p2770e8809b)" style="fill: #1f77b4; stroke: #000000"/>
    <path d="M 132.377856 94.423423 
L 114.798638 88.305857 
L 116.448884 90.041823 
z
" clip-path="url(#p2770e8809b)" style="fill: #1f77b4; stroke: #000000"/>
    <path d="M 72.924517 153.400812 
L 75.257885 154.493387 
L 72.5694 150.764398 
z
" clip-path="url(#p2770e8809b)" style="fill: #1f77b4; stroke: #000000"/>
    <path d="M 154.385753 145.324866 
L 143.888731 168.774038 
L 143.888198 156.989131 
z
" clip-path="url(#p2770e8809b)" style="fill: #1f77b4; stroke: #000000"/>
    <path d="M 129.502168 172.043895 
L 129.571161 183.745497 
L 113.691393 178.878169 
z
" clip-path="url(#p2770e8809b)" style="fill: #1f77b4; stroke: #000000"/>
    <path d="M 148.475002 104.911392 
L 138.737992 98.273464 
L 150.561751 106.172046 
z
" clip-path="url(#p2770e8809b)" style="fill: #1f77b4; stroke: #000000"/>
    <path d="M 132.377856 94.423423 
L 138.737992 98.273464 
L 148.475002 104.911392 
z
" clip-path="url(#p2770e8809b)" style="fill: #1f77b4; stroke: #000000"/>
    <path d="M 83.471076 91.847865 
L 94.311702 99.823061 
L 90.758586 90.362724 
z
" clip-path="url(#p2770e8809b)" style="fill: #1f77b4; stroke: #000000"/>
    <path d="M 129.502168 172.043895 
L 113.691393 178.878169 
L 111.922689 168.632145 
z
" clip-path="url(#p2770e8809b)" style="fill: #1f77b4; stroke: #000000"/>
    <path d="M 71.884099 126.969614 
L 80.142709 114.75785 
L 85.067757 104.291237 
z
" clip-path="url(#p2770e8809b)" style="fill: #1f77b4; stroke: #000000"/>
    <path d="M 151.914807 179.969735 
L 155.930228 184.105754 
L 149.822372 184.802597 
z
" clip-path="url(#p2770e8809b)" style="fill: #1f77b4; stroke: #000000"/>
    <path d="M 72.924517 153.400812 
L 91.045511 162.190733 
L 75.257885 154.493387 
z
" clip-path="url(#p2770e8809b)" style="fill: #1f77b4; stroke: #000000"/>
    <path d="M 151.914807 179.969735 
L 149.822372 184.802597 
L 143.888731 168.774038 
z
" clip-path="url(#p2770e8809b)" style="fill: #1f77b4; stroke: #000000"/>
    <path d="M 68.961617 137.954198 
L 80.142709 114.75785 
L 71.884099 126.969614 
z
" clip-path="url(#p2770e8809b)" style="fill: #1f77b4; stroke: #000000"/>
    <path d="M 96.127757 163.84464 
L 106.928075 167.004163 
L 111.922689 168.632145 
z
" clip-path="url(#p2770e8809b)" style="fill: #1f77b4; stroke: #000000"/>
    <path d="M 149.822372 184.802597 
L 129.571161 183.745497 
L 129.502168 172.043895 
z
" clip-path="url(#p2770e8809b)" style="fill: #1f77b4; stroke: #000000"/>
    <path d="M 96.127757 163.84464 
L 91.045511 162.190733 
L 106.928075 167.004163 
z
" clip-path="url(#p2770e8809b)" style="fill: #1f77b4; stroke: #000000"/>
    <path d="M 149.822372 184.802597 
L 129.502168 172.043895 
L 143.888731 168.774038 
z
" clip-path="url(#p2770e8809b)" style="fill: #1f77b4; stroke: #000000"/>
    <path d="M 132.377856 94.423423 
L 130.229017 93.122668 
L 114.798638 88.305857 
z
" clip-path="url(#p2770e8809b)" style="fill: #1f77b4; stroke: #000000"/>
    <path d="M 114.798638 88.305857 
L 109.750371 79.979575 
L 90.758586 90.362724 
z
" clip-path="url(#p2770e8809b)" style="fill: #1f77b4; stroke: #000000"/>
    <path d="M 72.5694 150.764398 
L 68.027828 145.229323 
L 72.924517 153.400812 
z
" clip-path="url(#p2770e8809b)" style="fill: #1f77b4; stroke: #000000"/>
    <path d="M 68.961617 137.954198 
L 68.027828 145.229323 
L 72.5694 150.764398 
z
" clip-path="url(#p2770e8809b)" style="fill: #1f77b4; stroke: #000000"/>
    <path d="M 156.443137 134.110358 
L 145.916394 145.682376 
L 161.896897 123.725854 
z
" clip-path="url(#p2770e8809b)" style="fill: #1f77b4; stroke: #000000"/>
    <path d="M 150.561751 106.172046 
L 161.896897 123.725854 
L 156.562392 110.180668 
z
" clip-path="url(#p2770e8809b)" style="fill: #1f77b4; stroke: #000000"/>
    <path d="M 148.475002 104.911392 
L 130.229017 93.122668 
L 132.377856 94.423423 
z
" clip-path="url(#p2770e8809b)" style="fill: #1f77b4; stroke: #000000"/>
    <path d="M 83.471076 91.847865 
L 90.758586 90.362724 
L 79.224385 78.57275 
z
" clip-path="url(#p2770e8809b)" style="fill: #1f77b4; stroke: #000000"/>
    <path d="M 150.561751 106.172046 
L 156.562392 110.180668 
L 148.475002 104.911392 
z
" clip-path="url(#p2770e8809b)" style="fill: #1f77b4; stroke: #000000"/>
    <path d="M 79.224385 78.57275 
L 90.758586 90.362724 
L 92.173057 76.917094 
z
" clip-path="url(#p2770e8809b)" style="fill: #1f77b4; stroke: #000000"/>
    <path d="M 156.443137 134.110358 
L 143.888198 156.989131 
L 145.916394 145.682376 
z
" clip-path="url(#p2770e8809b)" style="fill: #1f77b4; stroke: #000000"/>
    <path d="M 71.884099 126.969614 
L 85.067757 104.291237 
L 80.979182 110.312886 
z
" clip-path="url(#p2770e8809b)" style="fill: #1f77b4; stroke: #000000"/>
    <path d="M 83.471076 91.847865 
L 80.675682 98.17384 
L 85.067757 104.291237 
z
" clip-path="url(#p2770e8809b)" style="fill: #1f77b4; stroke: #000000"/>
    <path d="M 84.200405 161.930145 
L 91.045511 162.190733 
L 72.924517 153.400812 
z
" clip-path="url(#p2770e8809b)" style="fill: #1f77b4; stroke: #000000"/>
    <path d="M 90.758586 90.362724 
L 109.750371 79.979575 
L 92.173057 76.917094 
z
" clip-path="url(#p2770e8809b)" style="fill: #1f77b4; stroke: #000000"/>
    <path d="M 85.067757 104.291237 
L 80.675682 98.17384 
L 80.979182 110.312886 
z
" clip-path="url(#p2770e8809b)" style="fill: #1f77b4; stroke: #000000"/>
    <path d="M 111.922689 168.632145 
L 122.964733 168.902177 
L 129.502168 172.043895 
z
" clip-path="url(#p2770e8809b)" style="fill: #1f77b4; stroke: #000000"/>
    <path d="M 130.229017 93.122668 
L 124.213994 85.657589 
L 114.798638 88.305857 
z
" clip-path="url(#p2770e8809b)" style="fill: #1f77b4; stroke: #000000"/>
    <path d="M 71.884099 126.969614 
L 71.099305 130.468014 
L 68.961617 137.954198 
z
" clip-path="url(#p2770e8809b)" style="fill: #1f77b4; stroke: #000000"/>
    <path d="M 84.200405 161.930145 
L 106.928075 167.004163 
L 91.045511 162.190733 
z
" clip-path="url(#p2770e8809b)" style="fill: #1f77b4; stroke: #000000"/>
    <path d="M 125.640445 166.738204 
L 143.888731 168.774038 
L 129.502168 172.043895 
z
" clip-path="url(#p2770e8809b)" style="fill: #1f77b4; stroke: #000000"/>
    <path d="M 72.924517 153.400812 
L 68.027828 145.229323 
L 84.200405 161.930145 
z
" clip-path="url(#p2770e8809b)" style="fill: #1f77b4; stroke: #000000"/>
    <path d="M 125.640445 166.738204 
L 143.888198 156.989131 
L 143.888731 168.774038 
z
" clip-path="url(#p2770e8809b)" style="fill: #1f77b4; stroke: #000000"/>
    <path d="M 111.922689 168.632145 
L 106.928075 167.004163 
L 122.964733 168.902177 
z
" clip-path="url(#p2770e8809b)" style="fill: #1f77b4; stroke: #000000"/>
    <path d="M 79.224385 78.57275 
L 92.173057 76.917094 
L 87.045109 76.143309 
z
" clip-path="url(#p2770e8809b)" style="fill: #1f77b4; stroke: #000000"/>
    <path d="M 114.798638 88.305857 
L 124.213994 85.657589 
L 109.750371 79.979575 
z
" clip-path="url(#p2770e8809b)" style="fill: #1f77b4; stroke: #000000"/>
    <path d="M 68.961617 137.954198 
L 71.099305 130.468014 
L 68.027828 145.229323 
z
" clip-path="url(#p2770e8809b)" style="fill: #1f77b4; stroke: #000000"/>
    <path d="M 74.348028 121.715447 
L 71.884099 126.969614 
L 80.979182 110.312886 
z
" clip-path="url(#p2770e8809b)" style="fill: #1f77b4; stroke: #000000"/>
    <path d="M 161.896897 123.725854 
L 145.916394 145.682376 
L 158.371748 129.921576 
z
" clip-path="url(#p2770e8809b)" style="fill: #1f77b4; stroke: #000000"/>
    <path d="M 148.475002 104.911392 
L 138.916013 103.735296 
L 130.229017 93.122668 
z
" clip-path="url(#p2770e8809b)" style="fill: #1f77b4; stroke: #000000"/>
    <path d="M 148.475002 104.911392 
L 156.562392 110.180668 
L 138.916013 103.735296 
z
" clip-path="url(#p2770e8809b)" style="fill: #1f77b4; stroke: #000000"/>
    <path d="M 79.224385 78.57275 
L 76.945975 88.527496 
L 83.471076 91.847865 
z
" clip-path="url(#p2770e8809b)" style="fill: #1f77b4; stroke: #000000"/>
    <path d="M 71.884099 126.969614 
L 74.348028 121.715447 
L 71.099305 130.468014 
z
" clip-path="url(#p2770e8809b)" style="fill: #1f77b4; stroke: #000000"/>
    <path d="M 103.054901 80.514188 
L 92.173057 76.917094 
L 109.750371 79.979575 
z
" clip-path="url(#p2770e8809b)" style="fill: #1f77b4; stroke: #000000"/>
    <path d="M 156.562392 110.180668 
L 161.896897 123.725854 
L 150.040676 122.690398 
z
" clip-path="url(#p2770e8809b)" style="fill: #1f77b4; stroke: #000000"/>
    <path d="M 80.979182 110.312886 
L 78.154625 116.808359 
L 74.348028 121.715447 
z
" clip-path="url(#p2770e8809b)" style="fill: #1f77b4; stroke: #000000"/>
    <path d="M 78.154625 116.808359 
L 80.979182 110.312886 
L 80.675682 98.17384 
z
" clip-path="url(#p2770e8809b)" style="fill: #1f77b4; stroke: #000000"/>
    <path d="M 143.888198 156.989131 
L 125.640445 166.738204 
L 145.916394 145.682376 
z
" clip-path="url(#p2770e8809b)" style="fill: #1f77b4; stroke: #000000"/>
    <path d="M 87.045109 76.143309 
L 92.173057 76.917094 
L 103.054901 80.514188 
z
" clip-path="url(#p2770e8809b)" style="fill: #1f77b4; stroke: #000000"/>
    <path d="M 83.471076 91.847865 
L 76.945975 88.527496 
L 80.675682 98.17384 
z
" clip-path="url(#p2770e8809b)" style="fill: #1f77b4; stroke: #000000"/>
    <path d="M 161.896897 123.725854 
L 158.371748 129.921576 
L 152.078224 129.364269 
z
" clip-path="url(#p2770e8809b)" style="fill: #1f77b4; stroke: #000000"/>
    <path d="M 100.188536 166.785852 
L 106.928075 167.004163 
L 84.200405 161.930145 
z
" clip-path="url(#p2770e8809b)" style="fill: #1f77b4; stroke: #000000"/>
    <path d="M 122.964733 168.902177 
L 125.640445 166.738204 
L 129.502168 172.043895 
z
" clip-path="url(#p2770e8809b)" style="fill: #1f77b4; stroke: #000000"/>
    <path d="M 79.224385 78.57275 
L 87.045109 76.143309 
L 76.945975 88.527496 
z
" clip-path="url(#p2770e8809b)" style="fill: #1f77b4; stroke: #000000"/>
    <path d="M 145.916394 145.682376 
L 152.048897 138.445941 
L 158.371748 129.921576 
z
" clip-path="url(#p2770e8809b)" style="fill: #1f77b4; stroke: #000000"/>
    <path d="M 100.188536 166.785852 
L 122.964733 168.902177 
L 106.928075 167.004163 
z
" clip-path="url(#p2770e8809b)" style="fill: #1f77b4; stroke: #000000"/>
    <path d="M 124.213994 85.657589 
L 130.229017 93.122668 
L 138.916013 103.735296 
z
" clip-path="url(#p2770e8809b)" style="fill: #1f77b4; stroke: #000000"/>
    <path d="M 84.200405 161.930145 
L 68.027828 145.229323 
L 77.149236 158.662171 
z
" clip-path="url(#p2770e8809b)" style="fill: #1f77b4; stroke: #000000"/>
    <path d="M 73.063205 154.441844 
L 68.027828 145.229323 
L 71.099305 130.468014 
z
" clip-path="url(#p2770e8809b)" style="fill: #1f77b4; stroke: #000000"/>
    <path d="M 78.154625 116.808359 
L 80.675682 98.17384 
L 77.834952 104.602411 
z
" clip-path="url(#p2770e8809b)" style="fill: #1f77b4; stroke: #000000"/>
    <path d="M 150.040676 122.690398 
L 161.896897 123.725854 
L 152.078224 129.364269 
z
" clip-path="url(#p2770e8809b)" style="fill: #1f77b4; stroke: #000000"/>
    <path d="M 154.792813 136.211835 
L 158.371748 129.921576 
L 152.048897 138.445941 
z
" clip-path="url(#p2770e8809b)" style="fill: #1f77b4; stroke: #000000"/>
    <path d="M 119.247314 84.934926 
L 109.750371 79.979575 
L 124.213994 85.657589 
z
" clip-path="url(#p2770e8809b)" style="fill: #1f77b4; stroke: #000000"/>
    <path d="M 156.562392 110.180668 
L 139.777918 107.553476 
L 138.916013 103.735296 
z
" clip-path="url(#p2770e8809b)" style="fill: #1f77b4; stroke: #000000"/>
    <path d="M 103.054901 80.514188 
L 109.750371 79.979575 
L 119.247314 84.934926 
z
" clip-path="url(#p2770e8809b)" style="fill: #1f77b4; stroke: #000000"/>
    <path d="M 158.371748 129.921576 
L 154.792813 136.211835 
L 152.078224 129.364269 
z
" clip-path="url(#p2770e8809b)" style="fill: #1f77b4; stroke: #000000"/>
    <path d="M 125.640445 166.738204 
L 122.964733 168.902177 
L 119.660136 168.801412 
z
" clip-path="url(#p2770e8809b)" style="fill: #1f77b4; stroke: #000000"/>
    <path d="M 119.660136 168.801412 
L 122.964733 168.902177 
L 100.188536 166.785852 
z
" clip-path="url(#p2770e8809b)" style="fill: #1f77b4; stroke: #000000"/>
    <path d="M 77.834952 104.602411 
L 80.675682 98.17384 
L 76.945975 88.527496 
z
" clip-path="url(#p2770e8809b)" style="fill: #1f77b4; stroke: #000000"/>
    <path d="M 145.916394 145.682376 
L 125.640445 166.738204 
L 130.994986 156.366277 
z
" clip-path="url(#p2770e8809b)" style="fill: #1f77b4; stroke: #000000"/>
    <path d="M 156.562392 110.180668 
L 150.040676 122.690398 
L 139.777918 107.553476 
z
" clip-path="url(#p2770e8809b)" style="fill: #1f77b4; stroke: #000000"/>
    <path d="M 74.348028 121.715447 
L 79.878486 128.518193 
L 71.099305 130.468014 
z
" clip-path="url(#p2770e8809b)" style="fill: #1f77b4; stroke: #000000"/>
    <path d="M 68.027828 145.229323 
L 73.063205 154.441844 
L 77.149236 158.662171 
z
" clip-path="url(#p2770e8809b)" style="fill: #1f77b4; stroke: #000000"/>
    <path d="M 84.200405 161.930145 
L 93.325348 166.563535 
L 100.188536 166.785852 
z
" clip-path="url(#p2770e8809b)" style="fill: #1f77b4; stroke: #000000"/>
    <path d="M 78.154625 116.808359 
L 79.878486 128.518193 
L 74.348028 121.715447 
z
" clip-path="url(#p2770e8809b)" style="fill: #1f77b4; stroke: #000000"/>
    <path d="M 76.945975 88.527496 
L 87.045109 76.143309 
L 76.173408 91.902954 
z
" clip-path="url(#p2770e8809b)" style="fill: #1f77b4; stroke: #000000"/>
    <path d="M 154.792813 136.211835 
L 152.048897 138.445941 
L 148.870383 138.205944 
z
" clip-path="url(#p2770e8809b)" style="fill: #1f77b4; stroke: #000000"/>
    <path d="M 145.916394 145.682376 
L 132.988068 144.84792 
L 152.048897 138.445941 
z
" clip-path="url(#p2770e8809b)" style="fill: #1f77b4; stroke: #000000"/>
    <path d="M 84.200405 161.930145 
L 77.149236 158.662171 
L 93.325348 166.563535 
z
" clip-path="url(#p2770e8809b)" style="fill: #1f77b4; stroke: #000000"/>
    <path d="M 124.213994 85.657589 
L 138.916013 103.735296 
L 135.661236 100.253812 
z
" clip-path="url(#p2770e8809b)" style="fill: #1f77b4; stroke: #000000"/>
    <path d="M 73.063205 154.441844 
L 71.099305 130.468014 
L 72.716557 142.339838 
z
" clip-path="url(#p2770e8809b)" style="fill: #1f77b4; stroke: #000000"/>
    <path d="M 87.045109 76.143309 
L 103.054901 80.514188 
L 89.484956 89.436987 
z
" clip-path="url(#p2770e8809b)" style="fill: #1f77b4; stroke: #000000"/>
    <path d="M 152.078224 129.364269 
L 154.792813 136.211835 
L 148.870383 138.205944 
z
" clip-path="url(#p2770e8809b)" style="fill: #1f77b4; stroke: #000000"/>
    <path d="M 77.834952 104.602411 
L 76.945975 88.527496 
L 76.173408 91.902954 
z
" clip-path="url(#p2770e8809b)" style="fill: #1f77b4; stroke: #000000"/>
    <path d="M 150.040676 122.690398 
L 152.078224 129.364269 
L 148.870383 138.205944 
z
" clip-path="url(#p2770e8809b)" style="fill: #1f77b4; stroke: #000000"/>
    <path d="M 130.994986 156.366277 
L 132.988068 144.84792 
L 145.916394 145.682376 
z
" clip-path="url(#p2770e8809b)" style="fill: #1f77b4; stroke: #000000"/>
    <path d="M 124.213994 85.657589 
L 131.536221 92.939374 
L 119.247314 84.934926 
z
" clip-path="url(#p2770e8809b)" style="fill: #1f77b4; stroke: #000000"/>
    <path d="M 77.834952 104.602411 
L 83.026259 113.451684 
L 78.154625 116.808359 
z
" clip-path="url(#p2770e8809b)" style="fill: #1f77b4; stroke: #000000"/>
    <path d="M 131.536221 92.939374 
L 124.213994 85.657589 
L 135.661236 100.253812 
z
" clip-path="url(#p2770e8809b)" style="fill: #1f77b4; stroke: #000000"/>
    <path d="M 138.916013 103.735296 
L 139.777918 107.553476 
L 135.661236 100.253812 
z
" clip-path="url(#p2770e8809b)" style="fill: #1f77b4; stroke: #000000"/>
    <path d="M 87.045109 76.143309 
L 89.484956 89.436987 
L 76.173408 91.902954 
z
" clip-path="url(#p2770e8809b)" style="fill: #1f77b4; stroke: #000000"/>
    <path d="M 132.988068 144.84792 
L 148.870383 138.205944 
L 152.048897 138.445941 
z
" clip-path="url(#p2770e8809b)" style="fill: #1f77b4; stroke: #000000"/>
    <path d="M 74.766313 157.557757 
L 77.149236 158.662171 
L 73.063205 154.441844 
z
" clip-path="url(#p2770e8809b)" style="fill: #1f77b4; stroke: #000000"/>
    <path d="M 76.575322 137.43753 
L 72.716557 142.339838 
L 71.099305 130.468014 
z
" clip-path="url(#p2770e8809b)" style="fill: #1f77b4; stroke: #000000"/>
    <path d="M 100.188536 166.785852 
L 109.563187 168.493535 
L 119.660136 168.801412 
z
" clip-path="url(#p2770e8809b)" style="fill: #1f77b4; stroke: #000000"/>
    <path d="M 79.878486 128.518193 
L 76.575322 137.43753 
L 71.099305 130.468014 
z
" clip-path="url(#p2770e8809b)" style="fill: #1f77b4; stroke: #000000"/>
    <path d="M 112.259026 166.288598 
L 125.640445 166.738204 
L 119.660136 168.801412 
z
" clip-path="url(#p2770e8809b)" style="fill: #1f77b4; stroke: #000000"/>
    <path d="M 132.988068 144.84792 
L 150.040676 122.690398 
L 148.870383 138.205944 
z
" clip-path="url(#p2770e8809b)" style="fill: #1f77b4; stroke: #000000"/>
    <path d="M 74.766313 157.557757 
L 93.325348 166.563535 
L 77.149236 158.662171 
z
" clip-path="url(#p2770e8809b)" style="fill: #1f77b4; stroke: #000000"/>
    <path d="M 78.154625 116.808359 
L 83.026259 113.451684 
L 79.878486 128.518193 
z
" clip-path="url(#p2770e8809b)" style="fill: #1f77b4; stroke: #000000"/>
    <path d="M 103.054901 80.514188 
L 119.247314 84.934926 
L 105.892007 98.142954 
z
" clip-path="url(#p2770e8809b)" style="fill: #1f77b4; stroke: #000000"/>
    <path d="M 112.259026 166.288598 
L 130.994986 156.366277 
L 125.640445 166.738204 
z
" clip-path="url(#p2770e8809b)" style="fill: #1f77b4; stroke: #000000"/>
    <path d="M 100.188536 166.785852 
L 93.325348 166.563535 
L 109.563187 168.493535 
z
" clip-path="url(#p2770e8809b)" style="fill: #1f77b4; stroke: #000000"/>
    <path d="M 135.661236 100.253812 
L 139.777918 107.553476 
L 129.147063 111.816194 
z
" clip-path="url(#p2770e8809b)" style="fill: #1f77b4; stroke: #000000"/>
    <path d="M 73.063205 154.441844 
L 73.266034 146.373401 
L 74.766313 157.557757 
z
" clip-path="url(#p2770e8809b)" style="fill: #1f77b4; stroke: #000000"/>
    <path d="M 131.536221 92.939374 
L 135.661236 100.253812 
L 129.147063 111.816194 
z
" clip-path="url(#p2770e8809b)" style="fill: #1f77b4; stroke: #000000"/>
    <path d="M 72.716557 142.339838 
L 73.266034 146.373401 
L 73.063205 154.441844 
z
" clip-path="url(#p2770e8809b)" style="fill: #1f77b4; stroke: #000000"/>
    <path d="M 139.777918 107.553476 
L 150.040676 122.690398 
L 130.866966 132.006675 
z
" clip-path="url(#p2770e8809b)" style="fill: #1f77b4; stroke: #000000"/>
    <path d="M 76.173408 91.902954 
L 80.987565 102.38706 
L 77.834952 104.602411 
z
" clip-path="url(#p2770e8809b)" style="fill: #1f77b4; stroke: #000000"/>
    <path d="M 119.247314 84.934926 
L 131.536221 92.939374 
L 105.892007 98.142954 
z
" clip-path="url(#p2770e8809b)" style="fill: #1f77b4; stroke: #000000"/>
    <path d="M 103.054901 80.514188 
L 105.892007 98.142954 
L 89.484956 89.436987 
z
" clip-path="url(#p2770e8809b)" style="fill: #1f77b4; stroke: #000000"/>
    <path d="M 130.866966 132.006675 
L 150.040676 122.690398 
L 132.988068 144.84792 
z
" clip-path="url(#p2770e8809b)" style="fill: #1f77b4; stroke: #000000"/>
    <path d="M 129.147063 111.816194 
L 139.777918 107.553476 
L 122.550259 120.390496 
z
" clip-path="url(#p2770e8809b)" style="fill: #1f77b4; stroke: #000000"/>
    <path d="M 86.335077 166.337102 
L 93.325348 166.563535 
L 74.766313 157.557757 
z
" clip-path="url(#p2770e8809b)" style="fill: #1f77b4; stroke: #000000"/>
    <path d="M 72.716557 142.339838 
L 76.575322 137.43753 
L 73.266034 146.373401 
z
" clip-path="url(#p2770e8809b)" style="fill: #1f77b4; stroke: #000000"/>
    <path d="M 109.563187 168.493535 
L 112.259026 166.288598 
L 119.660136 168.801412 
z
" clip-path="url(#p2770e8809b)" style="fill: #1f77b4; stroke: #000000"/>
    <path d="M 77.834952 104.602411 
L 80.987565 102.38706 
L 83.026259 113.451684 
z
" clip-path="url(#p2770e8809b)" style="fill: #1f77b4; stroke: #000000"/>
    <path d="M 130.994986 156.366277 
L 112.259026 166.288598 
L 132.988068 144.84792 
z
" clip-path="url(#p2770e8809b)" style="fill: #1f77b4; stroke: #000000"/>
    <path d="M 118.402616 116.124459 
L 131.536221 92.939374 
L 129.147063 111.816194 
z
" clip-path="url(#p2770e8809b)" style="fill: #1f77b4; stroke: #000000"/>
    <path d="M 139.777918 107.553476 
L 130.866966 132.006675 
L 122.550259 120.390496 
z
" clip-path="url(#p2770e8809b)" style="fill: #1f77b4; stroke: #000000"/>
    <path d="M 76.173408 91.902954 
L 89.484956 89.436987 
L 80.987565 102.38706 
z
" clip-path="url(#p2770e8809b)" style="fill: #1f77b4; stroke: #000000"/>
    <path d="M 86.335077 166.337102 
L 109.563187 168.493535 
L 93.325348 166.563535 
z
" clip-path="url(#p2770e8809b)" style="fill: #1f77b4; stroke: #000000"/>
    <path d="M 79.878486 128.518193 
L 84.530609 133.691077 
L 76.575322 137.43753 
z
" clip-path="url(#p2770e8809b)" style="fill: #1f77b4; stroke: #000000"/>
    <path d="M 110.028949 101.371416 
L 131.536221 92.939374 
L 118.402616 116.124459 
z
" clip-path="url(#p2770e8809b)" style="fill: #1f77b4; stroke: #000000"/>
    <path d="M 83.026259 113.451684 
L 99.32334 118.123023 
L 79.878486 128.518193 
z
" clip-path="url(#p2770e8809b)" style="fill: #1f77b4; stroke: #000000"/>
    <path d="M 129.147063 111.816194 
L 122.550259 120.390496 
L 118.402616 116.124459 
z
" clip-path="url(#p2770e8809b)" style="fill: #1f77b4; stroke: #000000"/>
    <path d="M 105.892007 98.142954 
L 131.536221 92.939374 
L 110.028949 101.371416 
z
" clip-path="url(#p2770e8809b)" style="fill: #1f77b4; stroke: #000000"/>
    <path d="M 83.262087 156.447479 
L 74.766313 157.557757 
L 73.266034 146.373401 
z
" clip-path="url(#p2770e8809b)" style="fill: #1f77b4; stroke: #000000"/>
    <path d="M 79.878486 128.518193 
L 99.32334 118.123023 
L 84.530609 133.691077 
z
" clip-path="url(#p2770e8809b)" style="fill: #1f77b4; stroke: #000000"/>
    <path d="M 89.241576 138.929391 
L 73.266034 146.373401 
L 76.575322 137.43753 
z
" clip-path="url(#p2770e8809b)" style="fill: #1f77b4; stroke: #000000"/>
    <path d="M 83.262087 156.447479 
L 86.335077 166.337102 
L 74.766313 157.557757 
z
" clip-path="url(#p2770e8809b)" style="fill: #1f77b4; stroke: #000000"/>
    <path d="M 132.988068 144.84792 
L 115.548787 155.102725 
L 130.866966 132.006675 
z
" clip-path="url(#p2770e8809b)" style="fill: #1f77b4; stroke: #000000"/>
    <path d="M 112.259026 166.288598 
L 109.563187 168.493535 
L 107.266205 167.410774 
z
" clip-path="url(#p2770e8809b)" style="fill: #1f77b4; stroke: #000000"/>
    <path d="M 102.524107 102.930096 
L 89.484956 89.436987 
L 105.892007 98.142954 
z
" clip-path="url(#p2770e8809b)" style="fill: #1f77b4; stroke: #000000"/>
    <path d="M 107.266205 167.410774 
L 109.563187 168.493535 
L 86.335077 166.337102 
z
" clip-path="url(#p2770e8809b)" style="fill: #1f77b4; stroke: #000000"/>
    <path d="M 102.524107 102.930096 
L 99.32334 118.123023 
L 83.026259 113.451684 
z
" clip-path="url(#p2770e8809b)" style="fill: #1f77b4; stroke: #000000"/>
    <path d="M 132.988068 144.84792 
L 112.259026 166.288598 
L 115.548787 155.102725 
z
" clip-path="url(#p2770e8809b)" style="fill: #1f77b4; stroke: #000000"/>
    <path d="M 102.524107 102.930096 
L 83.026259 113.451684 
L 80.987565 102.38706 
z
" clip-path="url(#p2770e8809b)" style="fill: #1f77b4; stroke: #000000"/>
    <path d="M 99.32334 118.123023 
L 110.028949 101.371416 
L 118.402616 116.124459 
z
" clip-path="url(#p2770e8809b)" style="fill: #1f77b4; stroke: #000000"/>
    <path d="M 80.987565 102.38706 
L 89.484956 89.436987 
L 102.524107 102.930096 
z
" clip-path="url(#p2770e8809b)" style="fill: #1f77b4; stroke: #000000"/>
    <path d="M 84.530609 133.691077 
L 89.241576 138.929391 
L 76.575322 137.43753 
z
" clip-path="url(#p2770e8809b)" style="fill: #1f77b4; stroke: #000000"/>
    <path d="M 122.550259 120.390496 
L 92.635207 133.000837 
L 118.402616 116.124459 
z
" clip-path="url(#p2770e8809b)" style="fill: #1f77b4; stroke: #000000"/>
    <path d="M 105.892007 98.142954 
L 110.028949 101.371416 
L 102.524107 102.930096 
z
" clip-path="url(#p2770e8809b)" style="fill: #1f77b4; stroke: #000000"/>
    <path d="M 92.635207 133.000837 
L 99.32334 118.123023 
L 118.402616 116.124459 
z
" clip-path="url(#p2770e8809b)" style="fill: #1f77b4; stroke: #000000"/>
    <path d="M 102.524107 102.930096 
L 110.028949 101.371416 
L 99.32334 118.123023 
z
" clip-path="url(#p2770e8809b)" style="fill: #1f77b4; stroke: #000000"/>
    <path d="M 99.32334 118.123023 
L 92.635207 133.000837 
L 84.530609 133.691077 
z
" clip-path="url(#p2770e8809b)" style="fill: #1f77b4; stroke: #000000"/>
    <path d="M 122.550259 120.390496 
L 130.866966 132.006675 
L 109.148806 138.862533 
z
" clip-path="url(#p2770e8809b)" style="fill: #1f77b4; stroke: #000000"/>
    <path d="M 107.266205 167.410774 
L 115.548787 155.102725 
L 112.259026 166.288598 
z
" clip-path="url(#p2770e8809b)" style="fill: #1f77b4; stroke: #000000"/>
    <path d="M 89.241576 138.929391 
L 83.262087 156.447479 
L 73.266034 146.373401 
z
" clip-path="url(#p2770e8809b)" style="fill: #1f77b4; stroke: #000000"/>
    <path d="M 84.530609 133.691077 
L 92.635207 133.000837 
L 89.241576 138.929391 
z
" clip-path="url(#p2770e8809b)" style="fill: #1f77b4; stroke: #000000"/>
    <path d="M 102.5205 159.077221 
L 107.266205 167.410774 
L 86.335077 166.337102 
z
" clip-path="url(#p2770e8809b)" style="fill: #1f77b4; stroke: #000000"/>
    <path d="M 109.148806 138.862533 
L 92.635207 133.000837 
L 122.550259 120.390496 
z
" clip-path="url(#p2770e8809b)" style="fill: #1f77b4; stroke: #000000"/>
    <path d="M 130.866966 132.006675 
L 115.548787 155.102725 
L 111.942891 141.740953 
z
" clip-path="url(#p2770e8809b)" style="fill: #1f77b4; stroke: #000000"/>
    <path d="M 109.148806 138.862533 
L 130.866966 132.006675 
L 111.942891 141.740953 
z
" clip-path="url(#p2770e8809b)" style="fill: #1f77b4; stroke: #000000"/>
    <path d="M 102.5205 159.077221 
L 115.548787 155.102725 
L 107.266205 167.410774 
z
" clip-path="url(#p2770e8809b)" style="fill: #1f77b4; stroke: #000000"/>
    <path d="M 102.5205 159.077221 
L 86.335077 166.337102 
L 83.262087 156.447479 
z
" clip-path="url(#p2770e8809b)" style="fill: #1f77b4; stroke: #000000"/>
    <path d="M 89.241576 138.929391 
L 92.635207 133.000837 
L 106.899861 142.842003 
z
" clip-path="url(#p2770e8809b)" style="fill: #1f77b4; stroke: #000000"/>
    <path d="M 106.899861 142.842003 
L 92.635207 133.000837 
L 109.148806 138.862533 
z
" clip-path="url(#p2770e8809b)" style="fill: #1f77b4; stroke: #000000"/>
    <path d="M 106.899861 142.842003 
L 83.262087 156.447479 
L 89.241576 138.929391 
z
" clip-path="url(#p2770e8809b)" style="fill: #1f77b4; stroke: #000000"/>
    <path d="M 102.5205 159.077221 
L 111.942891 141.740953 
L 115.548787 155.102725 
z
" clip-path="url(#p2770e8809b)" style="fill: #1f77b4; stroke: #000000"/>
    <path d="M 106.899861 142.842003 
L 102.5205 159.077221 
L 83.262087 156.447479 
z
" clip-path="url(#p2770e8809b)" style="fill: #1f77b4; stroke: #000000"/>
    <path d="M 109.148806 138.862533 
L 111.942891 141.740953 
L 106.899861 142.842003 
z
" clip-path="url(#p2770e8809b)" style="fill: #1f77b4; stroke: #000000"/>
    <path d="M 106.899861 142.842003 
L 111.942891 141.740953 
L 102.5205 159.077221 
z
" clip-path="url(#p2770e8809b)" style="fill: #1f77b4; stroke: #000000"/>
   </g>
  </g>
 </g>
 <defs>
  <clipPath id="p2770e8809b">
   <rect x="7.2" y="7.2" width="266.4" height="266.4"/>
  </clipPath>
 </defs>
</svg>
