<?xml version="1.0" encoding="utf-8" standalone="no"?>
<!DOCTYPE svg PUBLIC "-//W3C//DTD SVG 1.1//EN"
  "http://www.w3.org/Graphics/SVG/1.1/DTD/svg11.dtd">
<!-- Created with matplotlib (https://matplotlib.org/) -->
<svg height="276.48pt" version="1.1" viewBox="0 0 348.48 276.48" width="348.48pt" xmlns="http://www.w3.org/2000/svg" xmlns:xlink="http://www.w3.org/1999/xlink">
 <metadata>
  <rdf:RDF xmlns:cc="http://creativecommons.org/ns#" xmlns:dc="http://purl.org/dc/elements/1.1/" xmlns:rdf="http://www.w3.org/1999/02/22-rdf-syntax-ns#">
   <cc:Work>
    <dc:type rdf:resource="http://purl.org/dc/dcmitype/StillImage"/>
    <dc:date>2021-04-01T14:38:21.969668</dc:date>
    <dc:format>image/svg+xml</dc:format>
    <dc:creator>
     <cc:Agent>
      <dc:title>Matplotlib v3.3.4, https://matplotlib.org/</dc:title>
     </cc:Agent>
    </dc:creator>
   </cc:Work>
  </rdf:RDF>
 </metadata>
 <defs>
  <style type="text/css">*{stroke-linecap:butt;stroke-linejoin:round;}</style>
 </defs>
 <g id="figure_1">
  <g id="patch_1">
   <path d="M 0 276.48 
L 348.48 276.48 
L 348.48 0 
L 0 0 
z
" style="fill:none;"/>
  </g>
  <g id="axes_1">
   <g id="patch_2">
    <path d="M 41.24 254.16625 
L 341.28 254.16625 
L 341.28 7.2 
L 41.24 7.2 
z
" style="fill:#ffffff;"/>
   </g>
   <g id="patch_3">
    <path clip-path="url(#p2d2a687521)" d="M 54.878182 254.16625 
L 65.788727 254.16625 
L 65.788727 38.037116 
L 54.878182 38.037116 
z
" style="fill:#1f77b4;stroke:#000000;stroke-linejoin:miter;"/>
   </g>
   <g id="patch_4">
    <path clip-path="url(#p2d2a687521)" d="M 65.788727 254.16625 
L 76.699273 254.16625 
L 76.699273 18.960298 
L 65.788727 18.960298 
z
" style="fill:#1f77b4;stroke:#000000;stroke-linejoin:miter;"/>
   </g>
   <g id="patch_5">
    <path clip-path="url(#p2d2a687521)" d="M 76.699273 254.16625 
L 87.609818 254.16625 
L 87.609818 46.733901 
L 76.699273 46.733901 
z
" style="fill:#1f77b4;stroke:#000000;stroke-linejoin:miter;"/>
   </g>
   <g id="patch_6">
    <path clip-path="url(#p2d2a687521)" d="M 87.609818 254.16625 
L 98.520364 254.16625 
L 98.520364 53.130246 
L 87.609818 53.130246 
z
" style="fill:#1f77b4;stroke:#000000;stroke-linejoin:miter;"/>
   </g>
   <g id="patch_7">
    <path clip-path="url(#p2d2a687521)" d="M 98.520364 254.16625 
L 109.430909 254.16625 
L 109.430909 69.233326 
L 98.520364 69.233326 
z
" style="fill:#1f77b4;stroke:#000000;stroke-linejoin:miter;"/>
   </g>
   <g id="patch_8">
    <path clip-path="url(#p2d2a687521)" d="M 109.430909 254.16625 
L 120.341455 254.16625 
L 120.341455 65.754612 
L 109.430909 65.754612 
z
" style="fill:#1f77b4;stroke:#000000;stroke-linejoin:miter;"/>
   </g>
   <g id="patch_9">
    <path clip-path="url(#p2d2a687521)" d="M 120.341455 254.16625 
L 131.252 254.16625 
L 131.252 50.38094 
L 120.341455 50.38094 
z
" style="fill:#1f77b4;stroke:#000000;stroke-linejoin:miter;"/>
   </g>
   <g id="patch_10">
    <path clip-path="url(#p2d2a687521)" d="M 131.252 254.16625 
L 142.162545 254.16625 
L 142.162545 53.747438 
L 131.252 53.747438 
z
" style="fill:#1f77b4;stroke:#000000;stroke-linejoin:miter;"/>
   </g>
   <g id="patch_11">
    <path clip-path="url(#p2d2a687521)" d="M 142.162545 254.16625 
L 153.073091 254.16625 
L 153.073091 67.43786 
L 142.162545 67.43786 
z
" style="fill:#1f77b4;stroke:#000000;stroke-linejoin:miter;"/>
   </g>
   <g id="patch_12">
    <path clip-path="url(#p2d2a687521)" d="M 153.073091 254.16625 
L 163.983636 254.16625 
L 163.983636 68.840568 
L 153.073091 68.840568 
z
" style="fill:#1f77b4;stroke:#000000;stroke-linejoin:miter;"/>
   </g>
   <g id="patch_13">
    <path clip-path="url(#p2d2a687521)" d="M 163.983636 254.16625 
L 174.894182 254.16625 
L 174.894182 73.329231 
L 163.983636 73.329231 
z
" style="fill:#1f77b4;stroke:#000000;stroke-linejoin:miter;"/>
   </g>
   <g id="patch_14">
    <path clip-path="url(#p2d2a687521)" d="M 174.894182 254.16625 
L 185.804727 254.16625 
L 185.804727 63.17363 
L 174.894182 63.17363 
z
" style="fill:#1f77b4;stroke:#000000;stroke-linejoin:miter;"/>
   </g>
   <g id="patch_15">
    <path clip-path="url(#p2d2a687521)" d="M 185.804727 254.16625 
L 196.715273 254.16625 
L 196.715273 37.58825 
L 185.804727 37.58825 
z
" style="fill:#1f77b4;stroke:#000000;stroke-linejoin:miter;"/>
   </g>
   <g id="patch_16">
    <path clip-path="url(#p2d2a687521)" d="M 196.715273 254.16625 
L 207.625818 254.16625 
L 207.625818 54.084087 
L 196.715273 54.084087 
z
" style="fill:#1f77b4;stroke:#000000;stroke-linejoin:miter;"/>
   </g>
   <g id="patch_17">
    <path clip-path="url(#p2d2a687521)" d="M 207.625818 254.16625 
L 218.536364 254.16625 
L 218.536364 61.378165 
L 207.625818 61.378165 
z
" style="fill:#1f77b4;stroke:#000000;stroke-linejoin:miter;"/>
   </g>
   <g id="patch_18">
    <path clip-path="url(#p2d2a687521)" d="M 218.536364 254.16625 
L 229.446909 254.16625 
L 229.446909 61.378165 
L 218.536364 61.378165 
z
" style="fill:#1f77b4;stroke:#000000;stroke-linejoin:miter;"/>
   </g>
   <g id="patch_19">
    <path clip-path="url(#p2d2a687521)" d="M 229.446909 254.16625 
L 240.357455 254.16625 
L 240.357455 55.599011 
L 229.446909 55.599011 
z
" style="fill:#1f77b4;stroke:#000000;stroke-linejoin:miter;"/>
   </g>
   <g id="patch_20">
    <path clip-path="url(#p2d2a687521)" d="M 240.357455 254.16625 
L 251.268 254.16625 
L 251.268 38.766524 
L 240.357455 38.766524 
z
" style="fill:#1f77b4;stroke:#000000;stroke-linejoin:miter;"/>
   </g>
   <g id="patch_21">
    <path clip-path="url(#p2d2a687521)" d="M 251.268 254.16625 
L 262.178545 254.16625 
L 262.178545 46.79001 
L 251.268 46.79001 
z
" style="fill:#1f77b4;stroke:#000000;stroke-linejoin:miter;"/>
   </g>
   <g id="patch_22">
    <path clip-path="url(#p2d2a687521)" d="M 262.178545 254.16625 
L 273.089091 254.16625 
L 273.089091 53.01803 
L 262.178545 53.01803 
z
" style="fill:#1f77b4;stroke:#000000;stroke-linejoin:miter;"/>
   </g>
   <g id="patch_23">
    <path clip-path="url(#p2d2a687521)" d="M 273.089091 254.16625 
L 283.999636 254.16625 
L 283.999636 47.912175 
L 273.089091 47.912175 
z
" style="fill:#1f77b4;stroke:#000000;stroke-linejoin:miter;"/>
   </g>
   <g id="patch_24">
    <path clip-path="url(#p2d2a687521)" d="M 283.999636 254.16625 
L 294.910182 254.16625 
L 294.910182 31.921313 
L 283.999636 31.921313 
z
" style="fill:#1f77b4;stroke:#000000;stroke-linejoin:miter;"/>
   </g>
   <g id="patch_25">
    <path clip-path="url(#p2d2a687521)" d="M 294.910182 254.16625 
L 305.820727 254.16625 
L 305.820727 31.472446 
L 294.910182 31.472446 
z
" style="fill:#1f77b4;stroke:#000000;stroke-linejoin:miter;"/>
   </g>
   <g id="patch_26">
    <path clip-path="url(#p2d2a687521)" d="M 305.820727 254.16625 
L 316.731273 254.16625 
L 316.731273 41.964697 
L 305.820727 41.964697 
z
" style="fill:#1f77b4;stroke:#000000;stroke-linejoin:miter;"/>
   </g>
   <g id="patch_27">
    <path clip-path="url(#p2d2a687521)" d="M 316.731273 254.16625 
L 327.641818 254.16625 
L 327.641818 73.778097 
L 316.731273 73.778097 
z
" style="fill:#1f77b4;stroke:#000000;stroke-linejoin:miter;"/>
   </g>
   <g id="matplotlib.axis_1">
    <g id="xtick_1">
     <g id="line2d_1">
      <defs>
       <path d="M 0 0 
L 0 -6 
" id="m44c0203e4f" style="stroke:#000000;stroke-width:2;"/>
      </defs>
      <g>
       <use style="fill:#ffffff;stroke:#000000;stroke-width:2;" x="54.878182" xlink:href="#m44c0203e4f" y="254.16625"/>
      </g>
     </g>
     <g id="line2d_2">
      <defs>
       <path d="M 0 0 
L 0 6 
" id="m3fbb765463" style="stroke:#000000;stroke-width:2;"/>
      </defs>
      <g>
       <use style="fill:#ffffff;stroke:#000000;stroke-width:2;" x="54.878182" xlink:href="#m3fbb765463" y="7.2"/>
      </g>
     </g>
     <g id="text_1">
      <!-- 0.0 -->
      <g transform="translate(45.336307 266.784375)scale(0.12 -0.12)">
       <defs>
        <path d="M 31.78125 66.40625 
Q 24.171875 66.40625 20.328125 58.90625 
Q 16.5 51.421875 16.5 36.375 
Q 16.5 21.390625 20.328125 13.890625 
Q 24.171875 6.390625 31.78125 6.390625 
Q 39.453125 6.390625 43.28125 13.890625 
Q 47.125 21.390625 47.125 36.375 
Q 47.125 51.421875 43.28125 58.90625 
Q 39.453125 66.40625 31.78125 66.40625 
z
M 31.78125 74.21875 
Q 44.046875 74.21875 50.515625 64.515625 
Q 56.984375 54.828125 56.984375 36.375 
Q 56.984375 17.96875 50.515625 8.265625 
Q 44.046875 -1.421875 31.78125 -1.421875 
Q 19.53125 -1.421875 13.0625 8.265625 
Q 6.59375 17.96875 6.59375 36.375 
Q 6.59375 54.828125 13.0625 64.515625 
Q 19.53125 74.21875 31.78125 74.21875 
z
" id="DejaVuSans-48"/>
        <path d="M 10.6875 12.40625 
L 21 12.40625 
L 21 0 
L 10.6875 0 
z
" id="DejaVuSans-46"/>
       </defs>
       <use xlink:href="#DejaVuSans-48"/>
       <use x="63.623047" xlink:href="#DejaVuSans-46"/>
       <use x="95.410156" xlink:href="#DejaVuSans-48"/>
      </g>
     </g>
    </g>
    <g id="xtick_2">
     <g id="line2d_3">
      <g>
       <use style="fill:#ffffff;stroke:#000000;stroke-width:2;" x="109.430909" xlink:href="#m44c0203e4f" y="254.16625"/>
      </g>
     </g>
     <g id="line2d_4">
      <g>
       <use style="fill:#ffffff;stroke:#000000;stroke-width:2;" x="109.430909" xlink:href="#m3fbb765463" y="7.2"/>
      </g>
     </g>
     <g id="text_2">
      <!-- 0.2 -->
      <g transform="translate(99.889034 266.784375)scale(0.12 -0.12)">
       <defs>
        <path d="M 19.1875 8.296875 
L 53.609375 8.296875 
L 53.609375 0 
L 7.328125 0 
L 7.328125 8.296875 
Q 12.9375 14.109375 22.625 23.890625 
Q 32.328125 33.6875 34.8125 36.53125 
Q 39.546875 41.84375 41.421875 45.53125 
Q 43.3125 49.21875 43.3125 52.78125 
Q 43.3125 58.59375 39.234375 62.25 
Q 35.15625 65.921875 28.609375 65.921875 
Q 23.96875 65.921875 18.8125 64.3125 
Q 13.671875 62.703125 7.8125 59.421875 
L 7.8125 69.390625 
Q 13.765625 71.78125 18.9375 73 
Q 24.125 74.21875 28.421875 74.21875 
Q 39.75 74.21875 46.484375 68.546875 
Q 53.21875 62.890625 53.21875 53.421875 
Q 53.21875 48.921875 51.53125 44.890625 
Q 49.859375 40.875 45.40625 35.40625 
Q 44.1875 33.984375 37.640625 27.21875 
Q 31.109375 20.453125 19.1875 8.296875 
z
" id="DejaVuSans-50"/>
       </defs>
       <use xlink:href="#DejaVuSans-48"/>
       <use x="63.623047" xlink:href="#DejaVuSans-46"/>
       <use x="95.410156" xlink:href="#DejaVuSans-50"/>
      </g>
     </g>
    </g>
    <g id="xtick_3">
     <g id="line2d_5">
      <g>
       <use style="fill:#ffffff;stroke:#000000;stroke-width:2;" x="163.983636" xlink:href="#m44c0203e4f" y="254.16625"/>
      </g>
     </g>
     <g id="line2d_6">
      <g>
       <use style="fill:#ffffff;stroke:#000000;stroke-width:2;" x="163.983636" xlink:href="#m3fbb765463" y="7.2"/>
      </g>
     </g>
     <g id="text_3">
      <!-- 0.4 -->
      <g transform="translate(154.441761 266.784375)scale(0.12 -0.12)">
       <defs>
        <path d="M 37.796875 64.3125 
L 12.890625 25.390625 
L 37.796875 25.390625 
z
M 35.203125 72.90625 
L 47.609375 72.90625 
L 47.609375 25.390625 
L 58.015625 25.390625 
L 58.015625 17.1875 
L 47.609375 17.1875 
L 47.609375 0 
L 37.796875 0 
L 37.796875 17.1875 
L 4.890625 17.1875 
L 4.890625 26.703125 
z
" id="DejaVuSans-52"/>
       </defs>
       <use xlink:href="#DejaVuSans-48"/>
       <use x="63.623047" xlink:href="#DejaVuSans-46"/>
       <use x="95.410156" xlink:href="#DejaVuSans-52"/>
      </g>
     </g>
    </g>
    <g id="xtick_4">
     <g id="line2d_7">
      <g>
       <use style="fill:#ffffff;stroke:#000000;stroke-width:2;" x="218.536364" xlink:href="#m44c0203e4f" y="254.16625"/>
      </g>
     </g>
     <g id="line2d_8">
      <g>
       <use style="fill:#ffffff;stroke:#000000;stroke-width:2;" x="218.536364" xlink:href="#m3fbb765463" y="7.2"/>
      </g>
     </g>
     <g id="text_4">
      <!-- 0.6 -->
      <g transform="translate(208.994489 266.784375)scale(0.12 -0.12)">
       <defs>
        <path d="M 33.015625 40.375 
Q 26.375 40.375 22.484375 35.828125 
Q 18.609375 31.296875 18.609375 23.390625 
Q 18.609375 15.53125 22.484375 10.953125 
Q 26.375 6.390625 33.015625 6.390625 
Q 39.65625 6.390625 43.53125 10.953125 
Q 47.40625 15.53125 47.40625 23.390625 
Q 47.40625 31.296875 43.53125 35.828125 
Q 39.65625 40.375 33.015625 40.375 
z
M 52.59375 71.296875 
L 52.59375 62.3125 
Q 48.875 64.0625 45.09375 64.984375 
Q 41.3125 65.921875 37.59375 65.921875 
Q 27.828125 65.921875 22.671875 59.328125 
Q 17.53125 52.734375 16.796875 39.40625 
Q 19.671875 43.65625 24.015625 45.921875 
Q 28.375 48.1875 33.59375 48.1875 
Q 44.578125 48.1875 50.953125 41.515625 
Q 57.328125 34.859375 57.328125 23.390625 
Q 57.328125 12.15625 50.6875 5.359375 
Q 44.046875 -1.421875 33.015625 -1.421875 
Q 20.359375 -1.421875 13.671875 8.265625 
Q 6.984375 17.96875 6.984375 36.375 
Q 6.984375 53.65625 15.1875 63.9375 
Q 23.390625 74.21875 37.203125 74.21875 
Q 40.921875 74.21875 44.703125 73.484375 
Q 48.484375 72.75 52.59375 71.296875 
z
" id="DejaVuSans-54"/>
       </defs>
       <use xlink:href="#DejaVuSans-48"/>
       <use x="63.623047" xlink:href="#DejaVuSans-46"/>
       <use x="95.410156" xlink:href="#DejaVuSans-54"/>
      </g>
     </g>
    </g>
    <g id="xtick_5">
     <g id="line2d_9">
      <g>
       <use style="fill:#ffffff;stroke:#000000;stroke-width:2;" x="273.089091" xlink:href="#m44c0203e4f" y="254.16625"/>
      </g>
     </g>
     <g id="line2d_10">
      <g>
       <use style="fill:#ffffff;stroke:#000000;stroke-width:2;" x="273.089091" xlink:href="#m3fbb765463" y="7.2"/>
      </g>
     </g>
     <g id="text_5">
      <!-- 0.8 -->
      <g transform="translate(263.547216 266.784375)scale(0.12 -0.12)">
       <defs>
        <path d="M 31.78125 34.625 
Q 24.75 34.625 20.71875 30.859375 
Q 16.703125 27.09375 16.703125 20.515625 
Q 16.703125 13.921875 20.71875 10.15625 
Q 24.75 6.390625 31.78125 6.390625 
Q 38.8125 6.390625 42.859375 10.171875 
Q 46.921875 13.96875 46.921875 20.515625 
Q 46.921875 27.09375 42.890625 30.859375 
Q 38.875 34.625 31.78125 34.625 
z
M 21.921875 38.8125 
Q 15.578125 40.375 12.03125 44.71875 
Q 8.5 49.078125 8.5 55.328125 
Q 8.5 64.0625 14.71875 69.140625 
Q 20.953125 74.21875 31.78125 74.21875 
Q 42.671875 74.21875 48.875 69.140625 
Q 55.078125 64.0625 55.078125 55.328125 
Q 55.078125 49.078125 51.53125 44.71875 
Q 48 40.375 41.703125 38.8125 
Q 48.828125 37.15625 52.796875 32.3125 
Q 56.78125 27.484375 56.78125 20.515625 
Q 56.78125 9.90625 50.3125 4.234375 
Q 43.84375 -1.421875 31.78125 -1.421875 
Q 19.734375 -1.421875 13.25 4.234375 
Q 6.78125 9.90625 6.78125 20.515625 
Q 6.78125 27.484375 10.78125 32.3125 
Q 14.796875 37.15625 21.921875 38.8125 
z
M 18.3125 54.390625 
Q 18.3125 48.734375 21.84375 45.5625 
Q 25.390625 42.390625 31.78125 42.390625 
Q 38.140625 42.390625 41.71875 45.5625 
Q 45.3125 48.734375 45.3125 54.390625 
Q 45.3125 60.0625 41.71875 63.234375 
Q 38.140625 66.40625 31.78125 66.40625 
Q 25.390625 66.40625 21.84375 63.234375 
Q 18.3125 60.0625 18.3125 54.390625 
z
" id="DejaVuSans-56"/>
       </defs>
       <use xlink:href="#DejaVuSans-48"/>
       <use x="63.623047" xlink:href="#DejaVuSans-46"/>
       <use x="95.410156" xlink:href="#DejaVuSans-56"/>
      </g>
     </g>
    </g>
    <g id="xtick_6">
     <g id="line2d_11">
      <g>
       <use style="fill:#ffffff;stroke:#000000;stroke-width:2;" x="327.641818" xlink:href="#m44c0203e4f" y="254.16625"/>
      </g>
     </g>
     <g id="line2d_12">
      <g>
       <use style="fill:#ffffff;stroke:#000000;stroke-width:2;" x="327.641818" xlink:href="#m3fbb765463" y="7.2"/>
      </g>
     </g>
     <g id="text_6">
      <!-- 1.0 -->
      <g transform="translate(318.099943 266.784375)scale(0.12 -0.12)">
       <defs>
        <path d="M 12.40625 8.296875 
L 28.515625 8.296875 
L 28.515625 63.921875 
L 10.984375 60.40625 
L 10.984375 69.390625 
L 28.421875 72.90625 
L 38.28125 72.90625 
L 38.28125 8.296875 
L 54.390625 8.296875 
L 54.390625 0 
L 12.40625 0 
z
" id="DejaVuSans-49"/>
       </defs>
       <use xlink:href="#DejaVuSans-49"/>
       <use x="63.623047" xlink:href="#DejaVuSans-46"/>
       <use x="95.410156" xlink:href="#DejaVuSans-48"/>
      </g>
     </g>
    </g>
   </g>
   <g id="matplotlib.axis_2">
    <g id="ytick_1">
     <g id="line2d_13">
      <defs>
       <path d="M 0 0 
L 6 0 
" id="m8612601944" style="stroke:#000000;stroke-width:2;"/>
      </defs>
      <g>
       <use style="fill:#ffffff;stroke:#000000;stroke-width:2;" x="41.24" xlink:href="#m8612601944" y="254.16625"/>
      </g>
     </g>
     <g id="line2d_14">
      <defs>
       <path d="M 0 0 
L -6 0 
" id="m3b4ebc1f63" style="stroke:#000000;stroke-width:2;"/>
      </defs>
      <g>
       <use style="fill:#ffffff;stroke:#000000;stroke-width:2;" x="341.28" xlink:href="#m3b4ebc1f63" y="254.16625"/>
      </g>
     </g>
     <g id="text_7">
      <!-- 0 -->
      <g transform="translate(30.105 258.725312)scale(0.12 -0.12)">
       <use xlink:href="#DejaVuSans-48"/>
      </g>
     </g>
    </g>
    <g id="ytick_2">
     <g id="line2d_15">
      <g>
       <use style="fill:#ffffff;stroke:#000000;stroke-width:2;" x="41.24" xlink:href="#m8612601944" y="226.112105"/>
      </g>
     </g>
     <g id="line2d_16">
      <g>
       <use style="fill:#ffffff;stroke:#000000;stroke-width:2;" x="341.28" xlink:href="#m3b4ebc1f63" y="226.112105"/>
      </g>
     </g>
     <g id="text_8">
      <!-- 500 -->
      <g transform="translate(14.835 230.671167)scale(0.12 -0.12)">
       <defs>
        <path d="M 10.796875 72.90625 
L 49.515625 72.90625 
L 49.515625 64.59375 
L 19.828125 64.59375 
L 19.828125 46.734375 
Q 21.96875 47.46875 24.109375 47.828125 
Q 26.265625 48.1875 28.421875 48.1875 
Q 40.625 48.1875 47.75 41.5 
Q 54.890625 34.8125 54.890625 23.390625 
Q 54.890625 11.625 47.5625 5.09375 
Q 40.234375 -1.421875 26.90625 -1.421875 
Q 22.3125 -1.421875 17.546875 -0.640625 
Q 12.796875 0.140625 7.71875 1.703125 
L 7.71875 11.625 
Q 12.109375 9.234375 16.796875 8.0625 
Q 21.484375 6.890625 26.703125 6.890625 
Q 35.15625 6.890625 40.078125 11.328125 
Q 45.015625 15.765625 45.015625 23.390625 
Q 45.015625 31 40.078125 35.4375 
Q 35.15625 39.890625 26.703125 39.890625 
Q 22.75 39.890625 18.8125 39.015625 
Q 14.890625 38.140625 10.796875 36.28125 
z
" id="DejaVuSans-53"/>
       </defs>
       <use xlink:href="#DejaVuSans-53"/>
       <use x="63.623047" xlink:href="#DejaVuSans-48"/>
       <use x="127.246094" xlink:href="#DejaVuSans-48"/>
      </g>
     </g>
    </g>
    <g id="ytick_3">
     <g id="line2d_17">
      <g>
       <use style="fill:#ffffff;stroke:#000000;stroke-width:2;" x="41.24" xlink:href="#m8612601944" y="198.05796"/>
      </g>
     </g>
     <g id="line2d_18">
      <g>
       <use style="fill:#ffffff;stroke:#000000;stroke-width:2;" x="341.28" xlink:href="#m3b4ebc1f63" y="198.05796"/>
      </g>
     </g>
     <g id="text_9">
      <!-- 1000 -->
      <g transform="translate(7.2 202.617022)scale(0.12 -0.12)">
       <use xlink:href="#DejaVuSans-49"/>
       <use x="63.623047" xlink:href="#DejaVuSans-48"/>
       <use x="127.246094" xlink:href="#DejaVuSans-48"/>
       <use x="190.869141" xlink:href="#DejaVuSans-48"/>
      </g>
     </g>
    </g>
    <g id="ytick_4">
     <g id="line2d_19">
      <g>
       <use style="fill:#ffffff;stroke:#000000;stroke-width:2;" x="41.24" xlink:href="#m8612601944" y="170.003815"/>
      </g>
     </g>
     <g id="line2d_20">
      <g>
       <use style="fill:#ffffff;stroke:#000000;stroke-width:2;" x="341.28" xlink:href="#m3b4ebc1f63" y="170.003815"/>
      </g>
     </g>
     <g id="text_10">
      <!-- 1500 -->
      <g transform="translate(7.2 174.562877)scale(0.12 -0.12)">
       <use xlink:href="#DejaVuSans-49"/>
       <use x="63.623047" xlink:href="#DejaVuSans-53"/>
       <use x="127.246094" xlink:href="#DejaVuSans-48"/>
       <use x="190.869141" xlink:href="#DejaVuSans-48"/>
      </g>
     </g>
    </g>
    <g id="ytick_5">
     <g id="line2d_21">
      <g>
       <use style="fill:#ffffff;stroke:#000000;stroke-width:2;" x="41.24" xlink:href="#m8612601944" y="141.94967"/>
      </g>
     </g>
     <g id="line2d_22">
      <g>
       <use style="fill:#ffffff;stroke:#000000;stroke-width:2;" x="341.28" xlink:href="#m3b4ebc1f63" y="141.94967"/>
      </g>
     </g>
     <g id="text_11">
      <!-- 2000 -->
      <g transform="translate(7.2 146.508732)scale(0.12 -0.12)">
       <use xlink:href="#DejaVuSans-50"/>
       <use x="63.623047" xlink:href="#DejaVuSans-48"/>
       <use x="127.246094" xlink:href="#DejaVuSans-48"/>
       <use x="190.869141" xlink:href="#DejaVuSans-48"/>
      </g>
     </g>
    </g>
    <g id="ytick_6">
     <g id="line2d_23">
      <g>
       <use style="fill:#ffffff;stroke:#000000;stroke-width:2;" x="41.24" xlink:href="#m8612601944" y="113.895525"/>
      </g>
     </g>
     <g id="line2d_24">
      <g>
       <use style="fill:#ffffff;stroke:#000000;stroke-width:2;" x="341.28" xlink:href="#m3b4ebc1f63" y="113.895525"/>
      </g>
     </g>
     <g id="text_12">
      <!-- 2500 -->
      <g transform="translate(7.2 118.454587)scale(0.12 -0.12)">
       <use xlink:href="#DejaVuSans-50"/>
       <use x="63.623047" xlink:href="#DejaVuSans-53"/>
       <use x="127.246094" xlink:href="#DejaVuSans-48"/>
       <use x="190.869141" xlink:href="#DejaVuSans-48"/>
      </g>
     </g>
    </g>
    <g id="ytick_7">
     <g id="line2d_25">
      <g>
       <use style="fill:#ffffff;stroke:#000000;stroke-width:2;" x="41.24" xlink:href="#m8612601944" y="85.841379"/>
      </g>
     </g>
     <g id="line2d_26">
      <g>
       <use style="fill:#ffffff;stroke:#000000;stroke-width:2;" x="341.28" xlink:href="#m3b4ebc1f63" y="85.841379"/>
      </g>
     </g>
     <g id="text_13">
      <!-- 3000 -->
      <g transform="translate(7.2 90.400442)scale(0.12 -0.12)">
       <defs>
        <path d="M 40.578125 39.3125 
Q 47.65625 37.796875 51.625 33 
Q 55.609375 28.21875 55.609375 21.1875 
Q 55.609375 10.40625 48.1875 4.484375 
Q 40.765625 -1.421875 27.09375 -1.421875 
Q 22.515625 -1.421875 17.65625 -0.515625 
Q 12.796875 0.390625 7.625 2.203125 
L 7.625 11.71875 
Q 11.71875 9.328125 16.59375 8.109375 
Q 21.484375 6.890625 26.8125 6.890625 
Q 36.078125 6.890625 40.9375 10.546875 
Q 45.796875 14.203125 45.796875 21.1875 
Q 45.796875 27.640625 41.28125 31.265625 
Q 36.765625 34.90625 28.71875 34.90625 
L 20.21875 34.90625 
L 20.21875 43.015625 
L 29.109375 43.015625 
Q 36.375 43.015625 40.234375 45.921875 
Q 44.09375 48.828125 44.09375 54.296875 
Q 44.09375 59.90625 40.109375 62.90625 
Q 36.140625 65.921875 28.71875 65.921875 
Q 24.65625 65.921875 20.015625 65.03125 
Q 15.375 64.15625 9.8125 62.3125 
L 9.8125 71.09375 
Q 15.4375 72.65625 20.34375 73.4375 
Q 25.25 74.21875 29.59375 74.21875 
Q 40.828125 74.21875 47.359375 69.109375 
Q 53.90625 64.015625 53.90625 55.328125 
Q 53.90625 49.265625 50.4375 45.09375 
Q 46.96875 40.921875 40.578125 39.3125 
z
" id="DejaVuSans-51"/>
       </defs>
       <use xlink:href="#DejaVuSans-51"/>
       <use x="63.623047" xlink:href="#DejaVuSans-48"/>
       <use x="127.246094" xlink:href="#DejaVuSans-48"/>
       <use x="190.869141" xlink:href="#DejaVuSans-48"/>
      </g>
     </g>
    </g>
    <g id="ytick_8">
     <g id="line2d_27">
      <g>
       <use style="fill:#ffffff;stroke:#000000;stroke-width:2;" x="41.24" xlink:href="#m8612601944" y="57.787234"/>
      </g>
     </g>
     <g id="line2d_28">
      <g>
       <use style="fill:#ffffff;stroke:#000000;stroke-width:2;" x="341.28" xlink:href="#m3b4ebc1f63" y="57.787234"/>
      </g>
     </g>
     <g id="text_14">
      <!-- 3500 -->
      <g transform="translate(7.2 62.346297)scale(0.12 -0.12)">
       <use xlink:href="#DejaVuSans-51"/>
       <use x="63.623047" xlink:href="#DejaVuSans-53"/>
       <use x="127.246094" xlink:href="#DejaVuSans-48"/>
       <use x="190.869141" xlink:href="#DejaVuSans-48"/>
      </g>
     </g>
    </g>
    <g id="ytick_9">
     <g id="line2d_29">
      <g>
       <use style="fill:#ffffff;stroke:#000000;stroke-width:2;" x="41.24" xlink:href="#m8612601944" y="29.733089"/>
      </g>
     </g>
     <g id="line2d_30">
      <g>
       <use style="fill:#ffffff;stroke:#000000;stroke-width:2;" x="341.28" xlink:href="#m3b4ebc1f63" y="29.733089"/>
      </g>
     </g>
     <g id="text_15">
      <!-- 4000 -->
      <g transform="translate(7.2 34.292152)scale(0.12 -0.12)">
       <use xlink:href="#DejaVuSans-52"/>
       <use x="63.623047" xlink:href="#DejaVuSans-48"/>
       <use x="127.246094" xlink:href="#DejaVuSans-48"/>
       <use x="190.869141" xlink:href="#DejaVuSans-48"/>
      </g>
     </g>
    </g>
   </g>
   <g id="patch_28">
    <path d="M 41.24 254.16625 
L 41.24 7.2 
" style="fill:none;stroke:#000000;stroke-linecap:square;stroke-linejoin:miter;stroke-width:2;"/>
   </g>
   <g id="patch_29">
    <path d="M 341.28 254.16625 
L 341.28 7.2 
" style="fill:none;stroke:#000000;stroke-linecap:square;stroke-linejoin:miter;stroke-width:2;"/>
   </g>
   <g id="patch_30">
    <path d="M 41.24 254.16625 
L 341.28 254.16625 
" style="fill:none;stroke:#000000;stroke-linecap:square;stroke-linejoin:miter;stroke-width:2;"/>
   </g>
   <g id="patch_31">
    <path d="M 41.24 7.2 
L 341.28 7.2 
" style="fill:none;stroke:#000000;stroke-linecap:square;stroke-linejoin:miter;stroke-width:2;"/>
   </g>
  </g>
 </g>
 <defs>
  <clipPath id="p2d2a687521">
   <rect height="246.96625" width="300.04" x="41.24" y="7.2"/>
  </clipPath>
 </defs>
</svg>
