<?xml version="1.0" encoding="utf-8" standalone="no"?>
<!DOCTYPE svg PUBLIC "-//W3C//DTD SVG 1.1//EN"
  "http://www.w3.org/Graphics/SVG/1.1/DTD/svg11.dtd">
<svg xmlns:xlink="http://www.w3.org/1999/xlink" width="348.48pt" height="276.48pt" viewBox="0 0 348.48 276.48" xmlns="http://www.w3.org/2000/svg" version="1.1">
 <metadata>
  <rdf:RDF xmlns:dc="http://purl.org/dc/elements/1.1/" xmlns:cc="http://creativecommons.org/ns#" xmlns:rdf="http://www.w3.org/1999/02/22-rdf-syntax-ns#">
   <cc:Work>
    <dc:type rdf:resource="http://purl.org/dc/dcmitype/StillImage"/>
    <dc:date>2022-03-30T13:43:09.267000</dc:date>
    <dc:format>image/svg+xml</dc:format>
    <dc:creator>
     <cc:Agent>
      <dc:title>Matplotlib v3.5.1, https://matplotlib.org/</dc:title>
     </cc:Agent>
    </dc:creator>
   </cc:Work>
  </rdf:RDF>
 </metadata>
 <defs>
  <style type="text/css">*{stroke-linejoin: round; stroke-linecap: butt}</style>
 </defs>
 <g id="figure_1">
  <g id="patch_1">
   <path d="M 0 276.48 
L 348.48 276.48 
L 348.48 0 
L 0 0 
L 0 276.48 
z
" style="fill: none"/>
  </g>
  <g id="axes_1">
   <g id="patch_2">
    <path d="M 49.3975 234.5525 
L 341.28 234.5525 
L 341.28 11.759062 
L 49.3975 11.759062 
z
" style="fill: #ffffff"/>
   </g>
   <g id="matplotlib.axis_1">
    <g id="xtick_1">
     <g id="line2d_1">
      <defs>
       <path id="m4695f863e4" d="M 0 0 
L 0 -6 
" style="stroke: #000000; stroke-width: 2"/>
      </defs>
      <g>
       <use xlink:href="#m4695f863e4" x="62.664886" y="234.5525" style="fill: #ffffff; stroke: #000000; stroke-width: 2"/>
      </g>
     </g>
     <g id="line2d_2">
      <defs>
       <path id="m20ef6a5e4a" d="M 0 0 
L 0 6 
" style="stroke: #000000; stroke-width: 2"/>
      </defs>
      <g>
       <use xlink:href="#m20ef6a5e4a" x="62.664886" y="11.759062" style="fill: #ffffff; stroke: #000000; stroke-width: 2"/>
      </g>
     </g>
     <g id="text_1">
      <!-- 0.0 -->
      <g transform="translate(53.123011 247.170625)scale(0.12 -0.12)">
       <defs>
        <path id="DejaVuSans-30" d="M 2034 4250 
Q 1547 4250 1301 3770 
Q 1056 3291 1056 2328 
Q 1056 1369 1301 889 
Q 1547 409 2034 409 
Q 2525 409 2770 889 
Q 3016 1369 3016 2328 
Q 3016 3291 2770 3770 
Q 2525 4250 2034 4250 
z
M 2034 4750 
Q 2819 4750 3233 4129 
Q 3647 3509 3647 2328 
Q 3647 1150 3233 529 
Q 2819 -91 2034 -91 
Q 1250 -91 836 529 
Q 422 1150 422 2328 
Q 422 3509 836 4129 
Q 1250 4750 2034 4750 
z
" transform="scale(0.015625)"/>
        <path id="DejaVuSans-2e" d="M 684 794 
L 1344 794 
L 1344 0 
L 684 0 
L 684 794 
z
" transform="scale(0.015625)"/>
       </defs>
       <use xlink:href="#DejaVuSans-30"/>
       <use xlink:href="#DejaVuSans-2e" x="63.623047"/>
       <use xlink:href="#DejaVuSans-30" x="95.410156"/>
      </g>
     </g>
    </g>
    <g id="xtick_2">
     <g id="line2d_3">
      <g>
       <use xlink:href="#m4695f863e4" x="115.734432" y="234.5525" style="fill: #ffffff; stroke: #000000; stroke-width: 2"/>
      </g>
     </g>
     <g id="line2d_4">
      <g>
       <use xlink:href="#m20ef6a5e4a" x="115.734432" y="11.759062" style="fill: #ffffff; stroke: #000000; stroke-width: 2"/>
      </g>
     </g>
     <g id="text_2">
      <!-- 0.2 -->
      <g transform="translate(106.192557 247.170625)scale(0.12 -0.12)">
       <defs>
        <path id="DejaVuSans-32" d="M 1228 531 
L 3431 531 
L 3431 0 
L 469 0 
L 469 531 
Q 828 903 1448 1529 
Q 2069 2156 2228 2338 
Q 2531 2678 2651 2914 
Q 2772 3150 2772 3378 
Q 2772 3750 2511 3984 
Q 2250 4219 1831 4219 
Q 1534 4219 1204 4116 
Q 875 4013 500 3803 
L 500 4441 
Q 881 4594 1212 4672 
Q 1544 4750 1819 4750 
Q 2544 4750 2975 4387 
Q 3406 4025 3406 3419 
Q 3406 3131 3298 2873 
Q 3191 2616 2906 2266 
Q 2828 2175 2409 1742 
Q 1991 1309 1228 531 
z
" transform="scale(0.015625)"/>
       </defs>
       <use xlink:href="#DejaVuSans-30"/>
       <use xlink:href="#DejaVuSans-2e" x="63.623047"/>
       <use xlink:href="#DejaVuSans-32" x="95.410156"/>
      </g>
     </g>
    </g>
    <g id="xtick_3">
     <g id="line2d_5">
      <g>
       <use xlink:href="#m4695f863e4" x="168.803977" y="234.5525" style="fill: #ffffff; stroke: #000000; stroke-width: 2"/>
      </g>
     </g>
     <g id="line2d_6">
      <g>
       <use xlink:href="#m20ef6a5e4a" x="168.803977" y="11.759062" style="fill: #ffffff; stroke: #000000; stroke-width: 2"/>
      </g>
     </g>
     <g id="text_3">
      <!-- 0.4 -->
      <g transform="translate(159.262102 247.170625)scale(0.12 -0.12)">
       <defs>
        <path id="DejaVuSans-34" d="M 2419 4116 
L 825 1625 
L 2419 1625 
L 2419 4116 
z
M 2253 4666 
L 3047 4666 
L 3047 1625 
L 3713 1625 
L 3713 1100 
L 3047 1100 
L 3047 0 
L 2419 0 
L 2419 1100 
L 313 1100 
L 313 1709 
L 2253 4666 
z
" transform="scale(0.015625)"/>
       </defs>
       <use xlink:href="#DejaVuSans-30"/>
       <use xlink:href="#DejaVuSans-2e" x="63.623047"/>
       <use xlink:href="#DejaVuSans-34" x="95.410156"/>
      </g>
     </g>
    </g>
    <g id="xtick_4">
     <g id="line2d_7">
      <g>
       <use xlink:href="#m4695f863e4" x="221.873523" y="234.5525" style="fill: #ffffff; stroke: #000000; stroke-width: 2"/>
      </g>
     </g>
     <g id="line2d_8">
      <g>
       <use xlink:href="#m20ef6a5e4a" x="221.873523" y="11.759062" style="fill: #ffffff; stroke: #000000; stroke-width: 2"/>
      </g>
     </g>
     <g id="text_4">
      <!-- 0.6 -->
      <g transform="translate(212.331648 247.170625)scale(0.12 -0.12)">
       <defs>
        <path id="DejaVuSans-36" d="M 2113 2584 
Q 1688 2584 1439 2293 
Q 1191 2003 1191 1497 
Q 1191 994 1439 701 
Q 1688 409 2113 409 
Q 2538 409 2786 701 
Q 3034 994 3034 1497 
Q 3034 2003 2786 2293 
Q 2538 2584 2113 2584 
z
M 3366 4563 
L 3366 3988 
Q 3128 4100 2886 4159 
Q 2644 4219 2406 4219 
Q 1781 4219 1451 3797 
Q 1122 3375 1075 2522 
Q 1259 2794 1537 2939 
Q 1816 3084 2150 3084 
Q 2853 3084 3261 2657 
Q 3669 2231 3669 1497 
Q 3669 778 3244 343 
Q 2819 -91 2113 -91 
Q 1303 -91 875 529 
Q 447 1150 447 2328 
Q 447 3434 972 4092 
Q 1497 4750 2381 4750 
Q 2619 4750 2861 4703 
Q 3103 4656 3366 4563 
z
" transform="scale(0.015625)"/>
       </defs>
       <use xlink:href="#DejaVuSans-30"/>
       <use xlink:href="#DejaVuSans-2e" x="63.623047"/>
       <use xlink:href="#DejaVuSans-36" x="95.410156"/>
      </g>
     </g>
    </g>
    <g id="xtick_5">
     <g id="line2d_9">
      <g>
       <use xlink:href="#m4695f863e4" x="274.943068" y="234.5525" style="fill: #ffffff; stroke: #000000; stroke-width: 2"/>
      </g>
     </g>
     <g id="line2d_10">
      <g>
       <use xlink:href="#m20ef6a5e4a" x="274.943068" y="11.759062" style="fill: #ffffff; stroke: #000000; stroke-width: 2"/>
      </g>
     </g>
     <g id="text_5">
      <!-- 0.8 -->
      <g transform="translate(265.401193 247.170625)scale(0.12 -0.12)">
       <defs>
        <path id="DejaVuSans-38" d="M 2034 2216 
Q 1584 2216 1326 1975 
Q 1069 1734 1069 1313 
Q 1069 891 1326 650 
Q 1584 409 2034 409 
Q 2484 409 2743 651 
Q 3003 894 3003 1313 
Q 3003 1734 2745 1975 
Q 2488 2216 2034 2216 
z
M 1403 2484 
Q 997 2584 770 2862 
Q 544 3141 544 3541 
Q 544 4100 942 4425 
Q 1341 4750 2034 4750 
Q 2731 4750 3128 4425 
Q 3525 4100 3525 3541 
Q 3525 3141 3298 2862 
Q 3072 2584 2669 2484 
Q 3125 2378 3379 2068 
Q 3634 1759 3634 1313 
Q 3634 634 3220 271 
Q 2806 -91 2034 -91 
Q 1263 -91 848 271 
Q 434 634 434 1313 
Q 434 1759 690 2068 
Q 947 2378 1403 2484 
z
M 1172 3481 
Q 1172 3119 1398 2916 
Q 1625 2713 2034 2713 
Q 2441 2713 2670 2916 
Q 2900 3119 2900 3481 
Q 2900 3844 2670 4047 
Q 2441 4250 2034 4250 
Q 1625 4250 1398 4047 
Q 1172 3844 1172 3481 
z
" transform="scale(0.015625)"/>
       </defs>
       <use xlink:href="#DejaVuSans-30"/>
       <use xlink:href="#DejaVuSans-2e" x="63.623047"/>
       <use xlink:href="#DejaVuSans-38" x="95.410156"/>
      </g>
     </g>
    </g>
    <g id="xtick_6">
     <g id="line2d_11">
      <g>
       <use xlink:href="#m4695f863e4" x="328.012614" y="234.5525" style="fill: #ffffff; stroke: #000000; stroke-width: 2"/>
      </g>
     </g>
     <g id="line2d_12">
      <g>
       <use xlink:href="#m20ef6a5e4a" x="328.012614" y="11.759062" style="fill: #ffffff; stroke: #000000; stroke-width: 2"/>
      </g>
     </g>
     <g id="text_6">
      <!-- 1.0 -->
      <g transform="translate(318.470739 247.170625)scale(0.12 -0.12)">
       <defs>
        <path id="DejaVuSans-31" d="M 794 531 
L 1825 531 
L 1825 4091 
L 703 3866 
L 703 4441 
L 1819 4666 
L 2450 4666 
L 2450 531 
L 3481 531 
L 3481 0 
L 794 0 
L 794 531 
z
" transform="scale(0.015625)"/>
       </defs>
       <use xlink:href="#DejaVuSans-31"/>
       <use xlink:href="#DejaVuSans-2e" x="63.623047"/>
       <use xlink:href="#DejaVuSans-30" x="95.410156"/>
      </g>
     </g>
    </g>
    <g id="text_7">
     <!-- Fractional distance along given axis -->
     <g transform="translate(87.823438 266.784375)scale(0.12 -0.12)">
      <defs>
       <path id="DejaVuSans-46" d="M 628 4666 
L 3309 4666 
L 3309 4134 
L 1259 4134 
L 1259 2759 
L 3109 2759 
L 3109 2228 
L 1259 2228 
L 1259 0 
L 628 0 
L 628 4666 
z
" transform="scale(0.015625)"/>
       <path id="DejaVuSans-72" d="M 2631 2963 
Q 2534 3019 2420 3045 
Q 2306 3072 2169 3072 
Q 1681 3072 1420 2755 
Q 1159 2438 1159 1844 
L 1159 0 
L 581 0 
L 581 3500 
L 1159 3500 
L 1159 2956 
Q 1341 3275 1631 3429 
Q 1922 3584 2338 3584 
Q 2397 3584 2469 3576 
Q 2541 3569 2628 3553 
L 2631 2963 
z
" transform="scale(0.015625)"/>
       <path id="DejaVuSans-61" d="M 2194 1759 
Q 1497 1759 1228 1600 
Q 959 1441 959 1056 
Q 959 750 1161 570 
Q 1363 391 1709 391 
Q 2188 391 2477 730 
Q 2766 1069 2766 1631 
L 2766 1759 
L 2194 1759 
z
M 3341 1997 
L 3341 0 
L 2766 0 
L 2766 531 
Q 2569 213 2275 61 
Q 1981 -91 1556 -91 
Q 1019 -91 701 211 
Q 384 513 384 1019 
Q 384 1609 779 1909 
Q 1175 2209 1959 2209 
L 2766 2209 
L 2766 2266 
Q 2766 2663 2505 2880 
Q 2244 3097 1772 3097 
Q 1472 3097 1187 3025 
Q 903 2953 641 2809 
L 641 3341 
Q 956 3463 1253 3523 
Q 1550 3584 1831 3584 
Q 2591 3584 2966 3190 
Q 3341 2797 3341 1997 
z
" transform="scale(0.015625)"/>
       <path id="DejaVuSans-63" d="M 3122 3366 
L 3122 2828 
Q 2878 2963 2633 3030 
Q 2388 3097 2138 3097 
Q 1578 3097 1268 2742 
Q 959 2388 959 1747 
Q 959 1106 1268 751 
Q 1578 397 2138 397 
Q 2388 397 2633 464 
Q 2878 531 3122 666 
L 3122 134 
Q 2881 22 2623 -34 
Q 2366 -91 2075 -91 
Q 1284 -91 818 406 
Q 353 903 353 1747 
Q 353 2603 823 3093 
Q 1294 3584 2113 3584 
Q 2378 3584 2631 3529 
Q 2884 3475 3122 3366 
z
" transform="scale(0.015625)"/>
       <path id="DejaVuSans-74" d="M 1172 4494 
L 1172 3500 
L 2356 3500 
L 2356 3053 
L 1172 3053 
L 1172 1153 
Q 1172 725 1289 603 
Q 1406 481 1766 481 
L 2356 481 
L 2356 0 
L 1766 0 
Q 1100 0 847 248 
Q 594 497 594 1153 
L 594 3053 
L 172 3053 
L 172 3500 
L 594 3500 
L 594 4494 
L 1172 4494 
z
" transform="scale(0.015625)"/>
       <path id="DejaVuSans-69" d="M 603 3500 
L 1178 3500 
L 1178 0 
L 603 0 
L 603 3500 
z
M 603 4863 
L 1178 4863 
L 1178 4134 
L 603 4134 
L 603 4863 
z
" transform="scale(0.015625)"/>
       <path id="DejaVuSans-6f" d="M 1959 3097 
Q 1497 3097 1228 2736 
Q 959 2375 959 1747 
Q 959 1119 1226 758 
Q 1494 397 1959 397 
Q 2419 397 2687 759 
Q 2956 1122 2956 1747 
Q 2956 2369 2687 2733 
Q 2419 3097 1959 3097 
z
M 1959 3584 
Q 2709 3584 3137 3096 
Q 3566 2609 3566 1747 
Q 3566 888 3137 398 
Q 2709 -91 1959 -91 
Q 1206 -91 779 398 
Q 353 888 353 1747 
Q 353 2609 779 3096 
Q 1206 3584 1959 3584 
z
" transform="scale(0.015625)"/>
       <path id="DejaVuSans-6e" d="M 3513 2113 
L 3513 0 
L 2938 0 
L 2938 2094 
Q 2938 2591 2744 2837 
Q 2550 3084 2163 3084 
Q 1697 3084 1428 2787 
Q 1159 2491 1159 1978 
L 1159 0 
L 581 0 
L 581 3500 
L 1159 3500 
L 1159 2956 
Q 1366 3272 1645 3428 
Q 1925 3584 2291 3584 
Q 2894 3584 3203 3211 
Q 3513 2838 3513 2113 
z
" transform="scale(0.015625)"/>
       <path id="DejaVuSans-6c" d="M 603 4863 
L 1178 4863 
L 1178 0 
L 603 0 
L 603 4863 
z
" transform="scale(0.015625)"/>
       <path id="DejaVuSans-20" transform="scale(0.015625)"/>
       <path id="DejaVuSans-64" d="M 2906 2969 
L 2906 4863 
L 3481 4863 
L 3481 0 
L 2906 0 
L 2906 525 
Q 2725 213 2448 61 
Q 2172 -91 1784 -91 
Q 1150 -91 751 415 
Q 353 922 353 1747 
Q 353 2572 751 3078 
Q 1150 3584 1784 3584 
Q 2172 3584 2448 3432 
Q 2725 3281 2906 2969 
z
M 947 1747 
Q 947 1113 1208 752 
Q 1469 391 1925 391 
Q 2381 391 2643 752 
Q 2906 1113 2906 1747 
Q 2906 2381 2643 2742 
Q 2381 3103 1925 3103 
Q 1469 3103 1208 2742 
Q 947 2381 947 1747 
z
" transform="scale(0.015625)"/>
       <path id="DejaVuSans-73" d="M 2834 3397 
L 2834 2853 
Q 2591 2978 2328 3040 
Q 2066 3103 1784 3103 
Q 1356 3103 1142 2972 
Q 928 2841 928 2578 
Q 928 2378 1081 2264 
Q 1234 2150 1697 2047 
L 1894 2003 
Q 2506 1872 2764 1633 
Q 3022 1394 3022 966 
Q 3022 478 2636 193 
Q 2250 -91 1575 -91 
Q 1294 -91 989 -36 
Q 684 19 347 128 
L 347 722 
Q 666 556 975 473 
Q 1284 391 1588 391 
Q 1994 391 2212 530 
Q 2431 669 2431 922 
Q 2431 1156 2273 1281 
Q 2116 1406 1581 1522 
L 1381 1569 
Q 847 1681 609 1914 
Q 372 2147 372 2553 
Q 372 3047 722 3315 
Q 1072 3584 1716 3584 
Q 2034 3584 2315 3537 
Q 2597 3491 2834 3397 
z
" transform="scale(0.015625)"/>
       <path id="DejaVuSans-65" d="M 3597 1894 
L 3597 1613 
L 953 1613 
Q 991 1019 1311 708 
Q 1631 397 2203 397 
Q 2534 397 2845 478 
Q 3156 559 3463 722 
L 3463 178 
Q 3153 47 2828 -22 
Q 2503 -91 2169 -91 
Q 1331 -91 842 396 
Q 353 884 353 1716 
Q 353 2575 817 3079 
Q 1281 3584 2069 3584 
Q 2775 3584 3186 3129 
Q 3597 2675 3597 1894 
z
M 3022 2063 
Q 3016 2534 2758 2815 
Q 2500 3097 2075 3097 
Q 1594 3097 1305 2825 
Q 1016 2553 972 2059 
L 3022 2063 
z
" transform="scale(0.015625)"/>
       <path id="DejaVuSans-67" d="M 2906 1791 
Q 2906 2416 2648 2759 
Q 2391 3103 1925 3103 
Q 1463 3103 1205 2759 
Q 947 2416 947 1791 
Q 947 1169 1205 825 
Q 1463 481 1925 481 
Q 2391 481 2648 825 
Q 2906 1169 2906 1791 
z
M 3481 434 
Q 3481 -459 3084 -895 
Q 2688 -1331 1869 -1331 
Q 1566 -1331 1297 -1286 
Q 1028 -1241 775 -1147 
L 775 -588 
Q 1028 -725 1275 -790 
Q 1522 -856 1778 -856 
Q 2344 -856 2625 -561 
Q 2906 -266 2906 331 
L 2906 616 
Q 2728 306 2450 153 
Q 2172 0 1784 0 
Q 1141 0 747 490 
Q 353 981 353 1791 
Q 353 2603 747 3093 
Q 1141 3584 1784 3584 
Q 2172 3584 2450 3431 
Q 2728 3278 2906 2969 
L 2906 3500 
L 3481 3500 
L 3481 434 
z
" transform="scale(0.015625)"/>
       <path id="DejaVuSans-76" d="M 191 3500 
L 800 3500 
L 1894 563 
L 2988 3500 
L 3597 3500 
L 2284 0 
L 1503 0 
L 191 3500 
z
" transform="scale(0.015625)"/>
       <path id="DejaVuSans-78" d="M 3513 3500 
L 2247 1797 
L 3578 0 
L 2900 0 
L 1881 1375 
L 863 0 
L 184 0 
L 1544 1831 
L 300 3500 
L 978 3500 
L 1906 2253 
L 2834 3500 
L 3513 3500 
z
" transform="scale(0.015625)"/>
      </defs>
      <use xlink:href="#DejaVuSans-46"/>
      <use xlink:href="#DejaVuSans-72" x="50.269531"/>
      <use xlink:href="#DejaVuSans-61" x="91.382812"/>
      <use xlink:href="#DejaVuSans-63" x="152.662109"/>
      <use xlink:href="#DejaVuSans-74" x="207.642578"/>
      <use xlink:href="#DejaVuSans-69" x="246.851562"/>
      <use xlink:href="#DejaVuSans-6f" x="274.634766"/>
      <use xlink:href="#DejaVuSans-6e" x="335.816406"/>
      <use xlink:href="#DejaVuSans-61" x="399.195312"/>
      <use xlink:href="#DejaVuSans-6c" x="460.474609"/>
      <use xlink:href="#DejaVuSans-20" x="488.257812"/>
      <use xlink:href="#DejaVuSans-64" x="520.044922"/>
      <use xlink:href="#DejaVuSans-69" x="583.521484"/>
      <use xlink:href="#DejaVuSans-73" x="611.304688"/>
      <use xlink:href="#DejaVuSans-74" x="663.404297"/>
      <use xlink:href="#DejaVuSans-61" x="702.613281"/>
      <use xlink:href="#DejaVuSans-6e" x="763.892578"/>
      <use xlink:href="#DejaVuSans-63" x="827.271484"/>
      <use xlink:href="#DejaVuSans-65" x="882.251953"/>
      <use xlink:href="#DejaVuSans-20" x="943.775391"/>
      <use xlink:href="#DejaVuSans-61" x="975.5625"/>
      <use xlink:href="#DejaVuSans-6c" x="1036.841797"/>
      <use xlink:href="#DejaVuSans-6f" x="1064.625"/>
      <use xlink:href="#DejaVuSans-6e" x="1125.806641"/>
      <use xlink:href="#DejaVuSans-67" x="1189.185547"/>
      <use xlink:href="#DejaVuSans-20" x="1252.662109"/>
      <use xlink:href="#DejaVuSans-67" x="1284.449219"/>
      <use xlink:href="#DejaVuSans-69" x="1347.925781"/>
      <use xlink:href="#DejaVuSans-76" x="1375.708984"/>
      <use xlink:href="#DejaVuSans-65" x="1434.888672"/>
      <use xlink:href="#DejaVuSans-6e" x="1496.412109"/>
      <use xlink:href="#DejaVuSans-20" x="1559.791016"/>
      <use xlink:href="#DejaVuSans-61" x="1591.578125"/>
      <use xlink:href="#DejaVuSans-78" x="1652.857422"/>
      <use xlink:href="#DejaVuSans-69" x="1712.037109"/>
      <use xlink:href="#DejaVuSans-73" x="1739.820312"/>
     </g>
    </g>
   </g>
   <g id="matplotlib.axis_2">
    <g id="ytick_1">
     <g id="line2d_13">
      <defs>
       <path id="m643b69f878" d="M 0 0 
L 6 0 
" style="stroke: #000000; stroke-width: 2"/>
      </defs>
      <g>
       <use xlink:href="#m643b69f878" x="49.3975" y="234.5525" style="fill: #ffffff; stroke: #000000; stroke-width: 2"/>
      </g>
     </g>
     <g id="line2d_14">
      <defs>
       <path id="m9dbf23d943" d="M 0 0 
L -6 0 
" style="stroke: #000000; stroke-width: 2"/>
      </defs>
      <g>
       <use xlink:href="#m9dbf23d943" x="341.28" y="234.5525" style="fill: #ffffff; stroke: #000000; stroke-width: 2"/>
      </g>
     </g>
     <g id="text_8">
      <!-- 0.0 -->
      <g transform="translate(26.81375 239.111562)scale(0.12 -0.12)">
       <use xlink:href="#DejaVuSans-30"/>
       <use xlink:href="#DejaVuSans-2e" x="63.623047"/>
       <use xlink:href="#DejaVuSans-30" x="95.410156"/>
      </g>
     </g>
    </g>
    <g id="ytick_2">
     <g id="line2d_15">
      <g>
       <use xlink:href="#m643b69f878" x="49.3975" y="189.993812" style="fill: #ffffff; stroke: #000000; stroke-width: 2"/>
      </g>
     </g>
     <g id="line2d_16">
      <g>
       <use xlink:href="#m9dbf23d943" x="341.28" y="189.993812" style="fill: #ffffff; stroke: #000000; stroke-width: 2"/>
      </g>
     </g>
     <g id="text_9">
      <!-- 0.2 -->
      <g transform="translate(26.81375 194.552875)scale(0.12 -0.12)">
       <use xlink:href="#DejaVuSans-30"/>
       <use xlink:href="#DejaVuSans-2e" x="63.623047"/>
       <use xlink:href="#DejaVuSans-32" x="95.410156"/>
      </g>
     </g>
    </g>
    <g id="ytick_3">
     <g id="line2d_17">
      <g>
       <use xlink:href="#m643b69f878" x="49.3975" y="145.435125" style="fill: #ffffff; stroke: #000000; stroke-width: 2"/>
      </g>
     </g>
     <g id="line2d_18">
      <g>
       <use xlink:href="#m9dbf23d943" x="341.28" y="145.435125" style="fill: #ffffff; stroke: #000000; stroke-width: 2"/>
      </g>
     </g>
     <g id="text_10">
      <!-- 0.4 -->
      <g transform="translate(26.81375 149.994187)scale(0.12 -0.12)">
       <use xlink:href="#DejaVuSans-30"/>
       <use xlink:href="#DejaVuSans-2e" x="63.623047"/>
       <use xlink:href="#DejaVuSans-34" x="95.410156"/>
      </g>
     </g>
    </g>
    <g id="ytick_4">
     <g id="line2d_19">
      <g>
       <use xlink:href="#m643b69f878" x="49.3975" y="100.876437" style="fill: #ffffff; stroke: #000000; stroke-width: 2"/>
      </g>
     </g>
     <g id="line2d_20">
      <g>
       <use xlink:href="#m9dbf23d943" x="341.28" y="100.876437" style="fill: #ffffff; stroke: #000000; stroke-width: 2"/>
      </g>
     </g>
     <g id="text_11">
      <!-- 0.6 -->
      <g transform="translate(26.81375 105.4355)scale(0.12 -0.12)">
       <use xlink:href="#DejaVuSans-30"/>
       <use xlink:href="#DejaVuSans-2e" x="63.623047"/>
       <use xlink:href="#DejaVuSans-36" x="95.410156"/>
      </g>
     </g>
    </g>
    <g id="ytick_5">
     <g id="line2d_21">
      <g>
       <use xlink:href="#m643b69f878" x="49.3975" y="56.31775" style="fill: #ffffff; stroke: #000000; stroke-width: 2"/>
      </g>
     </g>
     <g id="line2d_22">
      <g>
       <use xlink:href="#m9dbf23d943" x="341.28" y="56.31775" style="fill: #ffffff; stroke: #000000; stroke-width: 2"/>
      </g>
     </g>
     <g id="text_12">
      <!-- 0.8 -->
      <g transform="translate(26.81375 60.876812)scale(0.12 -0.12)">
       <use xlink:href="#DejaVuSans-30"/>
       <use xlink:href="#DejaVuSans-2e" x="63.623047"/>
       <use xlink:href="#DejaVuSans-38" x="95.410156"/>
      </g>
     </g>
    </g>
    <g id="ytick_6">
     <g id="line2d_23">
      <g>
       <use xlink:href="#m643b69f878" x="49.3975" y="11.759062" style="fill: #ffffff; stroke: #000000; stroke-width: 2"/>
      </g>
     </g>
     <g id="line2d_24">
      <g>
       <use xlink:href="#m9dbf23d943" x="341.28" y="11.759062" style="fill: #ffffff; stroke: #000000; stroke-width: 2"/>
      </g>
     </g>
     <g id="text_13">
      <!-- 1.0 -->
      <g transform="translate(26.81375 16.318125)scale(0.12 -0.12)">
       <use xlink:href="#DejaVuSans-31"/>
       <use xlink:href="#DejaVuSans-2e" x="63.623047"/>
       <use xlink:href="#DejaVuSans-30" x="95.410156"/>
      </g>
     </g>
    </g>
    <g id="text_14">
     <!-- Porosity of slice -->
     <g transform="translate(16.318125 169.973594)rotate(-90)scale(0.12 -0.12)">
      <defs>
       <path id="DejaVuSans-50" d="M 1259 4147 
L 1259 2394 
L 2053 2394 
Q 2494 2394 2734 2622 
Q 2975 2850 2975 3272 
Q 2975 3691 2734 3919 
Q 2494 4147 2053 4147 
L 1259 4147 
z
M 628 4666 
L 2053 4666 
Q 2838 4666 3239 4311 
Q 3641 3956 3641 3272 
Q 3641 2581 3239 2228 
Q 2838 1875 2053 1875 
L 1259 1875 
L 1259 0 
L 628 0 
L 628 4666 
z
" transform="scale(0.015625)"/>
       <path id="DejaVuSans-79" d="M 2059 -325 
Q 1816 -950 1584 -1140 
Q 1353 -1331 966 -1331 
L 506 -1331 
L 506 -850 
L 844 -850 
Q 1081 -850 1212 -737 
Q 1344 -625 1503 -206 
L 1606 56 
L 191 3500 
L 800 3500 
L 1894 763 
L 2988 3500 
L 3597 3500 
L 2059 -325 
z
" transform="scale(0.015625)"/>
       <path id="DejaVuSans-66" d="M 2375 4863 
L 2375 4384 
L 1825 4384 
Q 1516 4384 1395 4259 
Q 1275 4134 1275 3809 
L 1275 3500 
L 2222 3500 
L 2222 3053 
L 1275 3053 
L 1275 0 
L 697 0 
L 697 3053 
L 147 3053 
L 147 3500 
L 697 3500 
L 697 3744 
Q 697 4328 969 4595 
Q 1241 4863 1831 4863 
L 2375 4863 
z
" transform="scale(0.015625)"/>
      </defs>
      <use xlink:href="#DejaVuSans-50"/>
      <use xlink:href="#DejaVuSans-6f" x="56.677734"/>
      <use xlink:href="#DejaVuSans-72" x="117.859375"/>
      <use xlink:href="#DejaVuSans-6f" x="156.722656"/>
      <use xlink:href="#DejaVuSans-73" x="217.904297"/>
      <use xlink:href="#DejaVuSans-69" x="270.003906"/>
      <use xlink:href="#DejaVuSans-74" x="297.787109"/>
      <use xlink:href="#DejaVuSans-79" x="336.996094"/>
      <use xlink:href="#DejaVuSans-20" x="396.175781"/>
      <use xlink:href="#DejaVuSans-6f" x="427.962891"/>
      <use xlink:href="#DejaVuSans-66" x="489.144531"/>
      <use xlink:href="#DejaVuSans-20" x="524.349609"/>
      <use xlink:href="#DejaVuSans-73" x="556.136719"/>
      <use xlink:href="#DejaVuSans-6c" x="608.236328"/>
      <use xlink:href="#DejaVuSans-69" x="636.019531"/>
      <use xlink:href="#DejaVuSans-63" x="663.802734"/>
      <use xlink:href="#DejaVuSans-65" x="718.783203"/>
     </g>
    </g>
   </g>
   <g id="line2d_25">
    <path d="M 62.664886 119.527961 
L 63.998292 119.540958 
L 66.665103 119.938273 
L 69.331915 120.898141 
L 70.66532 121.349298 
L 71.998726 121.919278 
L 74.665537 123.720191 
L 75.998943 123.772176 
L 78.665754 123.549383 
L 81.332566 122.730617 
L 82.665971 122.869863 
L 83.999377 123.398997 
L 85.332783 124.11008 
L 89.333 127.479831 
L 90.666405 128.384001 
L 91.999811 128.916848 
L 93.333217 129.733757 
L 94.666622 130.840298 
L 96.000028 132.093511 
L 98.666839 133.60108 
L 100.000245 134.234185 
L 101.333651 134.063377 
L 102.667056 133.344868 
L 104.000462 133.122074 
L 106.667273 133.248324 
L 109.334085 133.575088 
L 110.66749 133.446981 
L 112.000896 133.456265 
L 113.334302 133.127644 
L 114.667707 133.04224 
L 116.001113 133.335585 
L 117.334519 132.917847 
L 121.334736 131.220904 
L 122.668141 130.158922 
L 125.334953 126.872718 
L 126.668358 124.711622 
L 128.001764 121.609223 
L 129.33517 119.00811 
L 132.001981 116.438559 
L 133.335387 115.894572 
L 136.002198 116.702198 
L 138.669009 116.917565 
L 140.002415 116.815451 
L 144.002632 117.292601 
L 145.336038 116.826591 
L 148.002849 115.478691 
L 149.336255 114.691487 
L 150.66966 114.186489 
L 152.003066 113.844872 
L 153.336472 113.882004 
L 154.669877 114.672921 
L 156.003283 115.937274 
L 157.336689 116.839587 
L 158.670094 117.931275 
L 160.0035 119.410995 
L 161.336906 120.385716 
L 164.003717 122.726904 
L 165.337123 123.373005 
L 168.003934 123.837158 
L 169.33734 123.86315 
L 174.670962 124.993827 
L 177.337774 124.726475 
L 181.337991 123.55124 
L 182.671396 122.856867 
L 185.338208 120.898141 
L 186.671613 119.500112 
L 189.338425 117.816165 
L 190.67183 117.112509 
L 192.005236 116.696628 
L 193.338642 117.125506 
L 196.005453 117.745614 
L 200.00567 117.98883 
L 201.339075 118.373149 
L 204.005887 119.435131 
L 205.339292 119.516822 
L 206.672698 120.200055 
L 208.006104 120.424705 
L 212.006321 120.727333 
L 214.673132 120.424705 
L 216.006538 120.081232 
L 217.339943 120.109081 
L 218.673349 119.940129 
L 222.673566 118.672063 
L 224.006972 118.22462 
L 225.340377 118.057525 
L 226.673783 118.096514 
L 230.674 117.766037 
L 233.340811 117.307454 
L 234.674217 117.29817 
L 236.007623 117.816165 
L 237.341028 118.696199 
L 238.674434 119.886288 
L 241.341245 124.182488 
L 242.674651 126.066949 
L 244.008057 127.14564 
L 245.341462 127.843726 
L 246.674868 128.402567 
L 250.675085 127.784315 
L 253.341896 126.854152 
L 254.675302 126.742756 
L 256.008708 126.412279 
L 257.342113 125.465407 
L 260.008925 122.704625 
L 261.34233 121.146927 
L 262.675736 119.825019 
L 264.009142 118.841015 
L 265.342547 118.384288 
L 268.009359 118.957982 
L 270.67617 119.967978 
L 272.009576 120.721763 
L 274.676387 122.715764 
L 276.009793 123.798169 
L 277.343198 125.103367 
L 278.676604 126.946983 
L 284.010227 132.635642 
L 285.343632 133.71062 
L 286.677038 134.388284 
L 288.010444 135.234899 
L 289.343849 136.250466 
L 290.677255 136.827872 
L 293.344066 137.590939 
L 296.010878 137.993824 
L 298.677689 138.777314 
L 300.011095 139.003821 
L 301.3445 138.842296 
L 302.677906 138.146066 
L 305.344717 135.932985 
L 306.678123 134.51639 
L 308.011529 132.397996 
L 313.345151 125.970405 
L 314.678557 124.206624 
L 317.345368 121.223048 
L 320.01218 118.701769 
L 321.345585 117.292601 
L 322.678991 116.291887 
L 324.012397 115.508397 
L 326.679208 114.968122 
L 328.012614 114.828877 
L 328.012614 114.828877 
" clip-path="url(#pace317af0b)" style="fill: none; stroke: #0000ff; stroke-opacity: 0.5; stroke-width: 2; stroke-linecap: square"/>
   </g>
   <g id="line2d_26">
    <path d="M 62.664886 120.178704 
L 64.439788 119.574377 
L 67.98959 117.76975 
L 68.877041 117.496828 
L 70.651942 116.129433 
L 71.539392 115.277248 
L 73.314293 114.093658 
L 74.201744 113.968337 
L 75.089195 114.305312 
L 75.976645 114.135432 
L 77.751546 113.19413 
L 79.526448 111.180634 
L 81.301349 110.996829 
L 82.188799 111.640145 
L 83.07625 112.433847 
L 83.963701 113.461482 
L 84.851151 114.115938 
L 85.738602 114.943058 
L 86.626052 115.271678 
L 87.513503 115.344086 
L 88.400954 115.552955 
L 89.288404 116.577805 
L 91.063305 119.440701 
L 91.950756 120.30681 
L 92.838207 121.509895 
L 93.725657 121.908138 
L 94.613108 122.626647 
L 96.388009 123.860365 
L 97.275459 124.598369 
L 98.16291 125.041171 
L 99.937811 124.403424 
L 102.600163 122.239543 
L 103.487614 121.988901 
L 104.375064 122.225619 
L 105.262515 122.281317 
L 106.149965 122.760323 
L 107.037416 122.963622 
L 108.812317 122.635002 
L 109.699768 122.707409 
L 110.587218 121.805096 
L 111.474669 121.289886 
L 112.36212 121.058738 
L 115.024471 121.114436 
L 115.911922 121.317735 
L 117.686823 121.242543 
L 118.574274 121.576733 
L 119.461724 121.593442 
L 120.349175 121.340015 
L 121.236625 121.239758 
L 122.124076 121.298241 
L 123.898977 122.492971 
L 124.786428 122.314736 
L 125.673878 121.949912 
L 126.561329 121.802311 
L 127.44878 121.782817 
L 128.33623 121.301026 
L 129.223681 120.679989 
L 130.111131 120.429347 
L 130.998582 119.571592 
L 131.886033 117.936845 
L 132.773483 115.494472 
L 133.660934 113.642501 
L 134.548384 112.66778 
L 135.435835 112.495115 
L 136.323286 113.169065 
L 138.098187 114.965338 
L 138.985637 115.594729 
L 139.873088 116.778319 
L 140.760539 118.493829 
L 144.310341 127.405566 
L 145.197792 129.636285 
L 146.085242 131.351795 
L 146.972693 132.716405 
L 147.860143 133.554665 
L 148.747594 134.150637 
L 149.635044 134.596224 
L 150.522495 134.532171 
L 151.409946 133.730115 
L 153.184847 131.084443 
L 154.072297 130.151495 
L 155.847199 127.413921 
L 156.734649 126.191342 
L 158.50955 124.609508 
L 159.397001 124.166706 
L 160.284452 123.406424 
L 161.171902 123.197555 
L 162.059353 123.253253 
L 162.946803 124.194556 
L 164.721705 128.082301 
L 167.384056 133.88607 
L 168.271507 134.434699 
L 169.158958 134.470903 
L 170.046408 134.73547 
L 170.933859 134.479258 
L 171.821309 134.92206 
L 172.70876 135.640569 
L 176.258562 141.299522 
L 177.146013 143.026171 
L 178.033463 144.335082 
L 178.920914 145.362717 
L 179.808365 145.08144 
L 180.695815 144.680412 
L 181.583266 143.847722 
L 182.470716 143.198836 
L 184.245618 140.778742 
L 185.133068 139.358434 
L 186.020519 138.453336 
L 186.907969 137.244681 
L 187.79542 135.281314 
L 188.682871 132.958692 
L 189.570321 131.50775 
L 191.345222 130.293526 
L 192.232673 129.822875 
L 194.007574 129.920347 
L 194.895025 130.700124 
L 199.332278 137.097081 
L 201.107179 138.740182 
L 201.994629 139.063233 
L 202.88208 139.182984 
L 203.769531 139.182984 
L 205.544432 139.386283 
L 206.431882 139.380713 
L 207.319333 138.347509 
L 208.206784 136.760106 
L 209.981685 132.607793 
L 210.869135 131.474331 
L 211.756586 130.031744 
L 213.531487 127.416706 
L 214.418938 126.132859 
L 216.193839 121.498755 
L 217.96874 118.09837 
L 218.856191 116.934275 
L 219.743641 116.566665 
L 220.631092 115.268894 
L 221.518542 114.232904 
L 223.293444 112.818166 
L 224.180894 112.49233 
L 225.068345 112.868294 
L 225.955795 113.054884 
L 226.843246 113.124507 
L 227.730697 113.34173 
L 229.505598 113.355655 
L 231.280499 113.865295 
L 232.16795 114.411139 
L 233.0554 115.672707 
L 233.942851 117.157068 
L 234.830301 118.245971 
L 236.605203 119.518678 
L 240.155005 124.551025 
L 241.042456 124.982687 
L 242.817357 124.311522 
L 243.704807 123.657066 
L 246.367159 120.462766 
L 248.14206 119.351583 
L 249.029511 118.889287 
L 249.916961 117.889501 
L 250.804412 117.157068 
L 251.691863 116.627934 
L 252.579313 116.911995 
L 254.354214 119.081446 
L 255.241665 120.596442 
L 256.129116 121.874719 
L 257.016566 122.774247 
L 258.791467 126.074375 
L 259.678918 127.154923 
L 262.34127 128.909422 
L 263.22872 129.360578 
L 264.116171 130.594297 
L 265.003622 131.546739 
L 265.891072 132.073089 
L 266.778523 132.457407 
L 267.665973 132.323731 
L 268.553424 131.240398 
L 270.328325 130.140356 
L 272.103226 128.820304 
L 272.990677 128.001539 
L 273.878127 127.405566 
L 274.765578 126.386286 
L 275.653029 125.600939 
L 276.540479 125.108009 
L 279.202831 124.72926 
L 280.090282 124.823947 
L 282.752633 123.450983 
L 284.527535 121.078232 
L 285.414985 120.31238 
L 286.302436 119.376648 
L 287.189886 117.853297 
L 288.077337 116.775534 
L 288.964788 115.981833 
L 291.627139 114.36658 
L 293.402041 113.737189 
L 294.289491 113.661996 
L 295.176942 113.887574 
L 296.064392 113.926563 
L 296.951843 113.34173 
L 297.839293 112.609297 
L 299.614195 110.935561 
L 300.501645 110.178064 
L 301.389096 109.846658 
L 303.163997 109.643359 
L 304.051448 109.910711 
L 304.938898 109.946915 
L 305.826349 109.763111 
L 306.713799 109.052957 
L 307.60125 109.629435 
L 308.488701 110.787961 
L 309.376151 112.553599 
L 311.151052 117.0958 
L 312.925954 121.919278 
L 314.700855 126.024247 
L 318.250657 135.484613 
L 319.138108 137.013533 
L 320.025558 137.400637 
L 321.800459 137.225187 
L 322.68791 136.743396 
L 325.350262 134.295453 
L 326.237712 133.599224 
L 327.125163 133.153637 
L 328.012614 132.961477 
L 328.012614 132.961477 
" clip-path="url(#pace317af0b)" style="fill: none; stroke: #ff0000; stroke-opacity: 0.5; stroke-width: 2; stroke-linecap: square"/>
   </g>
   <g id="line2d_27">
    <path d="M 62.664886 121.039244 
L 65.325014 121.076376 
L 65.990046 120.953839 
L 66.655078 120.961266 
L 67.32011 120.601083 
L 67.985142 119.858438 
L 68.650173 119.58366 
L 70.645269 118.232046 
L 71.310301 117.132932 
L 71.975333 116.349442 
L 72.640365 115.773892 
L 73.305397 115.833304 
L 73.970429 116.200913 
L 74.635461 116.780176 
L 75.300492 117.979547 
L 77.295588 122.364865 
L 77.96062 123.478832 
L 78.625652 123.987543 
L 79.290684 124.930702 
L 80.620748 127.121504 
L 81.28578 128.86672 
L 81.950811 129.980687 
L 82.615843 130.805023 
L 83.280875 131.11322 
L 84.610939 132.542811 
L 85.275971 131.781601 
L 85.941003 130.307451 
L 86.606035 129.77646 
L 87.271067 129.876717 
L 87.936098 130.593369 
L 88.60113 129.66135 
L 90.596226 125.094084 
L 91.261258 123.701625 
L 91.92629 122.795599 
L 93.256354 119.338587 
L 94.586417 116.561095 
L 95.251449 115.625363 
L 96.581513 114.322021 
L 97.911577 112.346586 
L 99.241641 111.589089 
L 100.571705 111.332876 
L 102.5668 110.593945 
L 103.231832 110.894716 
L 103.896864 110.022108 
L 104.561896 109.665639 
L 105.226928 109.739903 
L 105.89196 110.226335 
L 106.556992 111.128649 
L 107.222024 111.681919 
L 107.887055 112.079234 
L 108.552087 112.238903 
L 109.882151 113.423421 
L 110.547183 114.656212 
L 111.877247 116.631647 
L 113.207311 119.197485 
L 113.872343 120.333731 
L 114.537374 120.875862 
L 115.867438 122.725047 
L 116.53247 123.853867 
L 117.862534 124.834158 
L 118.527566 124.782173 
L 119.192598 125.012393 
L 119.85763 124.90471 
L 121.852725 121.670492 
L 123.182789 119.958695 
L 125.177885 118.43256 
L 125.842917 118.80017 
L 126.507949 119.624505 
L 127.17298 120.82759 
L 127.838012 121.310309 
L 128.503044 121.514536 
L 130.49814 121.247184 
L 131.163172 121.117221 
L 131.828204 120.80531 
L 132.493236 121.050383 
L 133.158268 121.681631 
L 133.823299 121.711337 
L 135.153363 123.300597 
L 135.818395 124.377432 
L 139.143555 130.938699 
L 139.808587 132.542811 
L 140.473618 132.728473 
L 141.13865 132.342297 
L 142.468714 132.35715 
L 143.133746 132.190055 
L 143.798778 132.152923 
L 144.46381 132.342297 
L 145.128842 131.636785 
L 145.793874 130.467119 
L 146.458906 129.850724 
L 147.123937 129.549953 
L 147.788969 129.694769 
L 148.454001 130.08837 
L 149.119033 129.895283 
L 149.784065 129.130359 
L 150.449097 127.492827 
L 151.114129 127.247754 
L 151.779161 127.589371 
L 153.109224 128.688485 
L 154.439288 128.476831 
L 155.10432 128.900139 
L 155.769352 128.85558 
L 156.434384 129.167491 
L 157.099416 129.278888 
L 159.094512 127.827017 
L 159.759543 126.211765 
L 160.424575 124.017249 
L 161.754639 120.508253 
L 162.419671 119.294028 
L 163.084703 118.510538 
L 164.414767 116.338302 
L 165.744831 113.430848 
L 166.409862 113.081805 
L 167.074894 112.955555 
L 168.404958 111.306884 
L 169.06999 109.364867 
L 169.735022 108.161783 
L 170.400054 108.321452 
L 171.730118 109.51711 
L 173.725213 114.091802 
L 175.055277 117.741901 
L 177.715405 123.241185 
L 178.380437 123.590228 
L 179.045469 124.418277 
L 179.7105 124.585372 
L 180.375532 124.3403 
L 181.040564 124.629931 
L 182.370628 124.700482 
L 183.03566 124.89357 
L 183.700692 125.747612 
L 184.365724 126.850439 
L 185.695787 130.481972 
L 186.360819 131.744468 
L 187.025851 131.465976 
L 187.690883 131.881858 
L 188.355915 132.539098 
L 189.020947 132.680201 
L 189.685979 131.751895 
L 191.016043 128.978116 
L 192.346106 127.604224 
L 193.67617 125.086658 
L 195.006234 123.252325 
L 195.671266 121.781888 
L 197.00133 118.053812 
L 197.666362 116.943558 
L 198.996425 115.885289 
L 200.991521 114.927277 
L 201.656553 114.474264 
L 202.986617 114.236617 
L 203.651649 114.856726 
L 204.316681 115.781318 
L 204.981713 116.906425 
L 205.646744 117.663923 
L 206.976808 121.024391 
L 208.306872 125.487686 
L 209.636936 129.186057 
L 210.301968 131.536528 
L 211.632031 135.175487 
L 212.297063 136.753607 
L 212.962095 137.596509 
L 213.627127 137.938126 
L 214.957191 136.898423 
L 215.622223 136.029529 
L 216.287255 134.573945 
L 216.952287 132.230901 
L 218.28235 125.821876 
L 219.612414 118.718479 
L 220.277446 115.692201 
L 222.272542 108.94156 
L 222.937574 106.735905 
L 223.602606 105.050101 
L 224.932669 102.707057 
L 225.597701 102.506543 
L 226.262733 103.156357 
L 226.927765 104.043818 
L 228.257829 104.411427 
L 228.922861 104.97955 
L 229.587893 106.294031 
L 230.252925 108.143217 
L 230.917957 111.124936 
L 231.582988 113.575663 
L 232.24802 115.291173 
L 234.908148 119.851012 
L 235.57318 120.151783 
L 236.238212 120.266893 
L 236.903244 120.575091 
L 237.568276 121.124648 
L 238.233307 122.268321 
L 238.898339 122.725047 
L 239.563371 122.803025 
L 240.228403 122.706481 
L 240.893435 122.840157 
L 241.558467 122.780746 
L 242.223499 123.293171 
L 242.888531 124.095227 
L 243.553563 124.481402 
L 244.218594 124.165778 
L 244.883626 123.645927 
L 246.21369 123.735044 
L 246.878722 124.124933 
L 247.543754 125.12379 
L 248.208786 126.338014 
L 248.873818 127.102938 
L 250.203882 128.361721 
L 251.533945 130.069804 
L 252.198977 130.463406 
L 253.529041 132.364577 
L 254.859105 133.318875 
L 255.524137 134.091226 
L 256.189169 135.112362 
L 256.854201 135.595082 
L 257.519232 135.680486 
L 258.184264 135.472545 
L 258.849296 135.138355 
L 259.514328 134.61479 
L 260.17936 132.9327 
L 260.844392 130.782743 
L 261.509424 129.033815 
L 262.174456 127.938414 
L 265.499615 124.563093 
L 266.164647 123.289457 
L 266.829679 122.881003 
L 267.494711 123.022105 
L 268.159743 123.723905 
L 269.489807 126.549668 
L 270.154839 127.158637 
L 270.81987 127.537386 
L 271.484902 128.172347 
L 272.149934 129.163778 
L 272.814966 130.418847 
L 274.14503 131.384286 
L 274.810062 131.610792 
L 275.475094 131.569947 
L 276.140126 131.640498 
L 276.805157 131.150352 
L 279.465285 128.398853 
L 280.130317 127.574518 
L 283.455476 122.104939 
L 284.78554 118.90414 
L 285.450572 118.187488 
L 286.115604 117.823592 
L 286.780636 117.259182 
L 287.445668 117.025248 
L 288.1107 117.455982 
L 289.440764 119.743328 
L 292.100891 125.357723 
L 292.765923 125.44684 
L 293.430955 125.283459 
L 294.761019 124.43313 
L 296.091083 122.427989 
L 296.756114 121.867293 
L 297.421146 121.703911 
L 298.086178 121.689058 
L 298.75121 121.815307 
L 299.416242 122.710194 
L 301.411338 126.24147 
L 304.736497 136.631071 
L 305.401529 137.964118 
L 307.396625 138.398566 
L 308.061657 138.888711 
L 309.39172 140.827014 
L 311.386816 141.324586 
L 312.051848 141.87043 
L 313.381912 142.093223 
L 314.046944 142.349436 
L 314.711976 142.052378 
L 316.707071 139.174629 
L 317.372103 138.625072 
L 318.037135 138.272316 
L 318.702167 138.160919 
L 319.367199 137.685627 
L 320.032231 136.31916 
L 320.697263 135.531957 
L 321.362295 134.97126 
L 322.027327 133.835013 
L 323.35739 131.139213 
L 324.687454 128.911278 
L 326.017518 127.396283 
L 328.012614 126.545955 
L 328.012614 126.545955 
" clip-path="url(#pace317af0b)" style="fill: none; stroke: #008000; stroke-opacity: 0.5; stroke-width: 2; stroke-linecap: square"/>
   </g>
   <g id="patch_3">
    <path d="M 49.3975 234.5525 
L 49.3975 11.759062 
" style="fill: none; stroke: #000000; stroke-width: 2; stroke-linejoin: miter; stroke-linecap: square"/>
   </g>
   <g id="patch_4">
    <path d="M 341.28 234.5525 
L 341.28 11.759062 
" style="fill: none; stroke: #000000; stroke-width: 2; stroke-linejoin: miter; stroke-linecap: square"/>
   </g>
   <g id="patch_5">
    <path d="M 49.3975 234.5525 
L 341.28 234.5525 
" style="fill: none; stroke: #000000; stroke-width: 2; stroke-linejoin: miter; stroke-linecap: square"/>
   </g>
   <g id="patch_6">
    <path d="M 49.3975 11.759062 
L 341.28 11.759062 
" style="fill: none; stroke: #000000; stroke-width: 2; stroke-linejoin: miter; stroke-linecap: square"/>
   </g>
   <g id="legend_1">
    <g id="line2d_28">
     <path d="M 245.26125 27.477188 
L 257.26125 27.477188 
L 269.26125 27.477188 
" style="fill: none; stroke: #0000ff; stroke-opacity: 0.5; stroke-width: 2; stroke-linecap: square"/>
    </g>
    <g id="text_15">
     <!-- yz-plane -->
     <g transform="translate(278.86125 31.677188)scale(0.12 -0.12)">
      <defs>
       <path id="DejaVuSans-7a" d="M 353 3500 
L 3084 3500 
L 3084 2975 
L 922 459 
L 3084 459 
L 3084 0 
L 275 0 
L 275 525 
L 2438 3041 
L 353 3041 
L 353 3500 
z
" transform="scale(0.015625)"/>
       <path id="DejaVuSans-2d" d="M 313 2009 
L 1997 2009 
L 1997 1497 
L 313 1497 
L 313 2009 
z
" transform="scale(0.015625)"/>
       <path id="DejaVuSans-70" d="M 1159 525 
L 1159 -1331 
L 581 -1331 
L 581 3500 
L 1159 3500 
L 1159 2969 
Q 1341 3281 1617 3432 
Q 1894 3584 2278 3584 
Q 2916 3584 3314 3078 
Q 3713 2572 3713 1747 
Q 3713 922 3314 415 
Q 2916 -91 2278 -91 
Q 1894 -91 1617 61 
Q 1341 213 1159 525 
z
M 3116 1747 
Q 3116 2381 2855 2742 
Q 2594 3103 2138 3103 
Q 1681 3103 1420 2742 
Q 1159 2381 1159 1747 
Q 1159 1113 1420 752 
Q 1681 391 2138 391 
Q 2594 391 2855 752 
Q 3116 1113 3116 1747 
z
" transform="scale(0.015625)"/>
      </defs>
      <use xlink:href="#DejaVuSans-79"/>
      <use xlink:href="#DejaVuSans-7a" x="59.179688"/>
      <use xlink:href="#DejaVuSans-2d" x="111.669922"/>
      <use xlink:href="#DejaVuSans-70" x="147.753906"/>
      <use xlink:href="#DejaVuSans-6c" x="211.230469"/>
      <use xlink:href="#DejaVuSans-61" x="239.013672"/>
      <use xlink:href="#DejaVuSans-6e" x="300.292969"/>
      <use xlink:href="#DejaVuSans-65" x="363.671875"/>
     </g>
    </g>
    <g id="line2d_29">
     <path d="M 245.26125 45.090938 
L 257.26125 45.090938 
L 269.26125 45.090938 
" style="fill: none; stroke: #ff0000; stroke-opacity: 0.5; stroke-width: 2; stroke-linecap: square"/>
    </g>
    <g id="text_16">
     <!-- xz-plane -->
     <g transform="translate(278.86125 49.290938)scale(0.12 -0.12)">
      <use xlink:href="#DejaVuSans-78"/>
      <use xlink:href="#DejaVuSans-7a" x="59.179688"/>
      <use xlink:href="#DejaVuSans-2d" x="111.669922"/>
      <use xlink:href="#DejaVuSans-70" x="147.753906"/>
      <use xlink:href="#DejaVuSans-6c" x="211.230469"/>
      <use xlink:href="#DejaVuSans-61" x="239.013672"/>
      <use xlink:href="#DejaVuSans-6e" x="300.292969"/>
      <use xlink:href="#DejaVuSans-65" x="363.671875"/>
     </g>
    </g>
    <g id="line2d_30">
     <path d="M 245.26125 62.704687 
L 257.26125 62.704687 
L 269.26125 62.704687 
" style="fill: none; stroke: #008000; stroke-opacity: 0.5; stroke-width: 2; stroke-linecap: square"/>
    </g>
    <g id="text_17">
     <!-- xy-plane -->
     <g transform="translate(278.86125 66.904687)scale(0.12 -0.12)">
      <use xlink:href="#DejaVuSans-78"/>
      <use xlink:href="#DejaVuSans-79" x="59.179688"/>
      <use xlink:href="#DejaVuSans-2d" x="116.609375"/>
      <use xlink:href="#DejaVuSans-70" x="152.693359"/>
      <use xlink:href="#DejaVuSans-6c" x="216.169922"/>
      <use xlink:href="#DejaVuSans-61" x="243.953125"/>
      <use xlink:href="#DejaVuSans-6e" x="305.232422"/>
      <use xlink:href="#DejaVuSans-65" x="368.611328"/>
     </g>
    </g>
   </g>
  </g>
 </g>
 <defs>
  <clipPath id="pace317af0b">
   <rect x="49.3975" y="11.759062" width="291.8825" height="222.793437"/>
  </clipPath>
 </defs>
</svg>
