<?xml version="1.0" encoding="utf-8" standalone="no"?>
<!DOCTYPE svg PUBLIC "-//W3C//DTD SVG 1.1//EN"
  "http://www.w3.org/Graphics/SVG/1.1/DTD/svg11.dtd">
<svg xmlns:xlink="http://www.w3.org/1999/xlink" width="348.48pt" height="276.48pt" viewBox="0 0 348.48 276.48" xmlns="http://www.w3.org/2000/svg" version="1.1">
 <metadata>
  <rdf:RDF xmlns:dc="http://purl.org/dc/elements/1.1/" xmlns:cc="http://creativecommons.org/ns#" xmlns:rdf="http://www.w3.org/1999/02/22-rdf-syntax-ns#">
   <cc:Work>
    <dc:type rdf:resource="http://purl.org/dc/dcmitype/StillImage"/>
    <dc:date>2022-04-20T14:21:29.561656</dc:date>
    <dc:format>image/svg+xml</dc:format>
    <dc:creator>
     <cc:Agent>
      <dc:title>Matplotlib v3.5.1, https://matplotlib.org/</dc:title>
     </cc:Agent>
    </dc:creator>
   </cc:Work>
  </rdf:RDF>
 </metadata>
 <defs>
  <style type="text/css">*{stroke-linejoin: round; stroke-linecap: butt}</style>
 </defs>
 <g id="figure_1">
  <g id="patch_1">
   <path d="M 0 276.48 
L 348.48 276.48 
L 348.48 0 
L 0 0 
L 0 276.48 
z
" style="fill: none"/>
  </g>
  <g id="axes_1">
   <g id="patch_2">
    <path d="M 49.3975 234.5525 
L 341.28 234.5525 
L 341.28 11.759062 
L 49.3975 11.759062 
z
" style="fill: #ffffff"/>
   </g>
   <g id="matplotlib.axis_1">
    <g id="xtick_1">
     <g id="line2d_1">
      <defs>
       <path id="m16c510d16e" d="M 0 0 
L 0 -6 
" style="stroke: #000000; stroke-width: 2"/>
      </defs>
      <g>
       <use xlink:href="#m16c510d16e" x="62.664886" y="234.5525" style="fill: #ffffff; stroke: #000000; stroke-width: 2"/>
      </g>
     </g>
     <g id="line2d_2">
      <defs>
       <path id="mf9dcdb4ed2" d="M 0 0 
L 0 6 
" style="stroke: #000000; stroke-width: 2"/>
      </defs>
      <g>
       <use xlink:href="#mf9dcdb4ed2" x="62.664886" y="11.759062" style="fill: #ffffff; stroke: #000000; stroke-width: 2"/>
      </g>
     </g>
     <g id="text_1">
      <!-- 0 -->
      <g transform="translate(58.847386 247.170625)scale(0.12 -0.12)">
       <defs>
        <path id="DejaVuSans-30" d="M 2034 4250 
Q 1547 4250 1301 3770 
Q 1056 3291 1056 2328 
Q 1056 1369 1301 889 
Q 1547 409 2034 409 
Q 2525 409 2770 889 
Q 3016 1369 3016 2328 
Q 3016 3291 2770 3770 
Q 2525 4250 2034 4250 
z
M 2034 4750 
Q 2819 4750 3233 4129 
Q 3647 3509 3647 2328 
Q 3647 1150 3233 529 
Q 2819 -91 2034 -91 
Q 1250 -91 836 529 
Q 422 1150 422 2328 
Q 422 3509 836 4129 
Q 1250 4750 2034 4750 
z
" transform="scale(0.015625)"/>
       </defs>
       <use xlink:href="#DejaVuSans-30"/>
      </g>
     </g>
    </g>
    <g id="xtick_2">
     <g id="line2d_3">
      <g>
       <use xlink:href="#m16c510d16e" x="118.882625" y="234.5525" style="fill: #ffffff; stroke: #000000; stroke-width: 2"/>
      </g>
     </g>
     <g id="line2d_4">
      <g>
       <use xlink:href="#mf9dcdb4ed2" x="118.882625" y="11.759062" style="fill: #ffffff; stroke: #000000; stroke-width: 2"/>
      </g>
     </g>
     <g id="text_2">
      <!-- 500 -->
      <g transform="translate(107.430125 247.170625)scale(0.12 -0.12)">
       <defs>
        <path id="DejaVuSans-35" d="M 691 4666 
L 3169 4666 
L 3169 4134 
L 1269 4134 
L 1269 2991 
Q 1406 3038 1543 3061 
Q 1681 3084 1819 3084 
Q 2600 3084 3056 2656 
Q 3513 2228 3513 1497 
Q 3513 744 3044 326 
Q 2575 -91 1722 -91 
Q 1428 -91 1123 -41 
Q 819 9 494 109 
L 494 744 
Q 775 591 1075 516 
Q 1375 441 1709 441 
Q 2250 441 2565 725 
Q 2881 1009 2881 1497 
Q 2881 1984 2565 2268 
Q 2250 2553 1709 2553 
Q 1456 2553 1204 2497 
Q 953 2441 691 2322 
L 691 4666 
z
" transform="scale(0.015625)"/>
       </defs>
       <use xlink:href="#DejaVuSans-35"/>
       <use xlink:href="#DejaVuSans-30" x="63.623047"/>
       <use xlink:href="#DejaVuSans-30" x="127.246094"/>
      </g>
     </g>
    </g>
    <g id="xtick_3">
     <g id="line2d_5">
      <g>
       <use xlink:href="#m16c510d16e" x="175.100364" y="234.5525" style="fill: #ffffff; stroke: #000000; stroke-width: 2"/>
      </g>
     </g>
     <g id="line2d_6">
      <g>
       <use xlink:href="#mf9dcdb4ed2" x="175.100364" y="11.759062" style="fill: #ffffff; stroke: #000000; stroke-width: 2"/>
      </g>
     </g>
     <g id="text_3">
      <!-- 1000 -->
      <g transform="translate(159.830364 247.170625)scale(0.12 -0.12)">
       <defs>
        <path id="DejaVuSans-31" d="M 794 531 
L 1825 531 
L 1825 4091 
L 703 3866 
L 703 4441 
L 1819 4666 
L 2450 4666 
L 2450 531 
L 3481 531 
L 3481 0 
L 794 0 
L 794 531 
z
" transform="scale(0.015625)"/>
       </defs>
       <use xlink:href="#DejaVuSans-31"/>
       <use xlink:href="#DejaVuSans-30" x="63.623047"/>
       <use xlink:href="#DejaVuSans-30" x="127.246094"/>
       <use xlink:href="#DejaVuSans-30" x="190.869141"/>
      </g>
     </g>
    </g>
    <g id="xtick_4">
     <g id="line2d_7">
      <g>
       <use xlink:href="#m16c510d16e" x="231.318103" y="234.5525" style="fill: #ffffff; stroke: #000000; stroke-width: 2"/>
      </g>
     </g>
     <g id="line2d_8">
      <g>
       <use xlink:href="#mf9dcdb4ed2" x="231.318103" y="11.759062" style="fill: #ffffff; stroke: #000000; stroke-width: 2"/>
      </g>
     </g>
     <g id="text_4">
      <!-- 1500 -->
      <g transform="translate(216.048103 247.170625)scale(0.12 -0.12)">
       <use xlink:href="#DejaVuSans-31"/>
       <use xlink:href="#DejaVuSans-35" x="63.623047"/>
       <use xlink:href="#DejaVuSans-30" x="127.246094"/>
       <use xlink:href="#DejaVuSans-30" x="190.869141"/>
      </g>
     </g>
    </g>
    <g id="xtick_5">
     <g id="line2d_9">
      <g>
       <use xlink:href="#m16c510d16e" x="287.535842" y="234.5525" style="fill: #ffffff; stroke: #000000; stroke-width: 2"/>
      </g>
     </g>
     <g id="line2d_10">
      <g>
       <use xlink:href="#mf9dcdb4ed2" x="287.535842" y="11.759062" style="fill: #ffffff; stroke: #000000; stroke-width: 2"/>
      </g>
     </g>
     <g id="text_5">
      <!-- 2000 -->
      <g transform="translate(272.265842 247.170625)scale(0.12 -0.12)">
       <defs>
        <path id="DejaVuSans-32" d="M 1228 531 
L 3431 531 
L 3431 0 
L 469 0 
L 469 531 
Q 828 903 1448 1529 
Q 2069 2156 2228 2338 
Q 2531 2678 2651 2914 
Q 2772 3150 2772 3378 
Q 2772 3750 2511 3984 
Q 2250 4219 1831 4219 
Q 1534 4219 1204 4116 
Q 875 4013 500 3803 
L 500 4441 
Q 881 4594 1212 4672 
Q 1544 4750 1819 4750 
Q 2544 4750 2975 4387 
Q 3406 4025 3406 3419 
Q 3406 3131 3298 2873 
Q 3191 2616 2906 2266 
Q 2828 2175 2409 1742 
Q 1991 1309 1228 531 
z
" transform="scale(0.015625)"/>
       </defs>
       <use xlink:href="#DejaVuSans-32"/>
       <use xlink:href="#DejaVuSans-30" x="63.623047"/>
       <use xlink:href="#DejaVuSans-30" x="127.246094"/>
       <use xlink:href="#DejaVuSans-30" x="190.869141"/>
      </g>
     </g>
    </g>
    <g id="text_6">
     <!-- Position of slice along given axis -->
     <g transform="translate(98.045 266.784375)scale(0.12 -0.12)">
      <defs>
       <path id="DejaVuSans-50" d="M 1259 4147 
L 1259 2394 
L 2053 2394 
Q 2494 2394 2734 2622 
Q 2975 2850 2975 3272 
Q 2975 3691 2734 3919 
Q 2494 4147 2053 4147 
L 1259 4147 
z
M 628 4666 
L 2053 4666 
Q 2838 4666 3239 4311 
Q 3641 3956 3641 3272 
Q 3641 2581 3239 2228 
Q 2838 1875 2053 1875 
L 1259 1875 
L 1259 0 
L 628 0 
L 628 4666 
z
" transform="scale(0.015625)"/>
       <path id="DejaVuSans-6f" d="M 1959 3097 
Q 1497 3097 1228 2736 
Q 959 2375 959 1747 
Q 959 1119 1226 758 
Q 1494 397 1959 397 
Q 2419 397 2687 759 
Q 2956 1122 2956 1747 
Q 2956 2369 2687 2733 
Q 2419 3097 1959 3097 
z
M 1959 3584 
Q 2709 3584 3137 3096 
Q 3566 2609 3566 1747 
Q 3566 888 3137 398 
Q 2709 -91 1959 -91 
Q 1206 -91 779 398 
Q 353 888 353 1747 
Q 353 2609 779 3096 
Q 1206 3584 1959 3584 
z
" transform="scale(0.015625)"/>
       <path id="DejaVuSans-73" d="M 2834 3397 
L 2834 2853 
Q 2591 2978 2328 3040 
Q 2066 3103 1784 3103 
Q 1356 3103 1142 2972 
Q 928 2841 928 2578 
Q 928 2378 1081 2264 
Q 1234 2150 1697 2047 
L 1894 2003 
Q 2506 1872 2764 1633 
Q 3022 1394 3022 966 
Q 3022 478 2636 193 
Q 2250 -91 1575 -91 
Q 1294 -91 989 -36 
Q 684 19 347 128 
L 347 722 
Q 666 556 975 473 
Q 1284 391 1588 391 
Q 1994 391 2212 530 
Q 2431 669 2431 922 
Q 2431 1156 2273 1281 
Q 2116 1406 1581 1522 
L 1381 1569 
Q 847 1681 609 1914 
Q 372 2147 372 2553 
Q 372 3047 722 3315 
Q 1072 3584 1716 3584 
Q 2034 3584 2315 3537 
Q 2597 3491 2834 3397 
z
" transform="scale(0.015625)"/>
       <path id="DejaVuSans-69" d="M 603 3500 
L 1178 3500 
L 1178 0 
L 603 0 
L 603 3500 
z
M 603 4863 
L 1178 4863 
L 1178 4134 
L 603 4134 
L 603 4863 
z
" transform="scale(0.015625)"/>
       <path id="DejaVuSans-74" d="M 1172 4494 
L 1172 3500 
L 2356 3500 
L 2356 3053 
L 1172 3053 
L 1172 1153 
Q 1172 725 1289 603 
Q 1406 481 1766 481 
L 2356 481 
L 2356 0 
L 1766 0 
Q 1100 0 847 248 
Q 594 497 594 1153 
L 594 3053 
L 172 3053 
L 172 3500 
L 594 3500 
L 594 4494 
L 1172 4494 
z
" transform="scale(0.015625)"/>
       <path id="DejaVuSans-6e" d="M 3513 2113 
L 3513 0 
L 2938 0 
L 2938 2094 
Q 2938 2591 2744 2837 
Q 2550 3084 2163 3084 
Q 1697 3084 1428 2787 
Q 1159 2491 1159 1978 
L 1159 0 
L 581 0 
L 581 3500 
L 1159 3500 
L 1159 2956 
Q 1366 3272 1645 3428 
Q 1925 3584 2291 3584 
Q 2894 3584 3203 3211 
Q 3513 2838 3513 2113 
z
" transform="scale(0.015625)"/>
       <path id="DejaVuSans-20" transform="scale(0.015625)"/>
       <path id="DejaVuSans-66" d="M 2375 4863 
L 2375 4384 
L 1825 4384 
Q 1516 4384 1395 4259 
Q 1275 4134 1275 3809 
L 1275 3500 
L 2222 3500 
L 2222 3053 
L 1275 3053 
L 1275 0 
L 697 0 
L 697 3053 
L 147 3053 
L 147 3500 
L 697 3500 
L 697 3744 
Q 697 4328 969 4595 
Q 1241 4863 1831 4863 
L 2375 4863 
z
" transform="scale(0.015625)"/>
       <path id="DejaVuSans-6c" d="M 603 4863 
L 1178 4863 
L 1178 0 
L 603 0 
L 603 4863 
z
" transform="scale(0.015625)"/>
       <path id="DejaVuSans-63" d="M 3122 3366 
L 3122 2828 
Q 2878 2963 2633 3030 
Q 2388 3097 2138 3097 
Q 1578 3097 1268 2742 
Q 959 2388 959 1747 
Q 959 1106 1268 751 
Q 1578 397 2138 397 
Q 2388 397 2633 464 
Q 2878 531 3122 666 
L 3122 134 
Q 2881 22 2623 -34 
Q 2366 -91 2075 -91 
Q 1284 -91 818 406 
Q 353 903 353 1747 
Q 353 2603 823 3093 
Q 1294 3584 2113 3584 
Q 2378 3584 2631 3529 
Q 2884 3475 3122 3366 
z
" transform="scale(0.015625)"/>
       <path id="DejaVuSans-65" d="M 3597 1894 
L 3597 1613 
L 953 1613 
Q 991 1019 1311 708 
Q 1631 397 2203 397 
Q 2534 397 2845 478 
Q 3156 559 3463 722 
L 3463 178 
Q 3153 47 2828 -22 
Q 2503 -91 2169 -91 
Q 1331 -91 842 396 
Q 353 884 353 1716 
Q 353 2575 817 3079 
Q 1281 3584 2069 3584 
Q 2775 3584 3186 3129 
Q 3597 2675 3597 1894 
z
M 3022 2063 
Q 3016 2534 2758 2815 
Q 2500 3097 2075 3097 
Q 1594 3097 1305 2825 
Q 1016 2553 972 2059 
L 3022 2063 
z
" transform="scale(0.015625)"/>
       <path id="DejaVuSans-61" d="M 2194 1759 
Q 1497 1759 1228 1600 
Q 959 1441 959 1056 
Q 959 750 1161 570 
Q 1363 391 1709 391 
Q 2188 391 2477 730 
Q 2766 1069 2766 1631 
L 2766 1759 
L 2194 1759 
z
M 3341 1997 
L 3341 0 
L 2766 0 
L 2766 531 
Q 2569 213 2275 61 
Q 1981 -91 1556 -91 
Q 1019 -91 701 211 
Q 384 513 384 1019 
Q 384 1609 779 1909 
Q 1175 2209 1959 2209 
L 2766 2209 
L 2766 2266 
Q 2766 2663 2505 2880 
Q 2244 3097 1772 3097 
Q 1472 3097 1187 3025 
Q 903 2953 641 2809 
L 641 3341 
Q 956 3463 1253 3523 
Q 1550 3584 1831 3584 
Q 2591 3584 2966 3190 
Q 3341 2797 3341 1997 
z
" transform="scale(0.015625)"/>
       <path id="DejaVuSans-67" d="M 2906 1791 
Q 2906 2416 2648 2759 
Q 2391 3103 1925 3103 
Q 1463 3103 1205 2759 
Q 947 2416 947 1791 
Q 947 1169 1205 825 
Q 1463 481 1925 481 
Q 2391 481 2648 825 
Q 2906 1169 2906 1791 
z
M 3481 434 
Q 3481 -459 3084 -895 
Q 2688 -1331 1869 -1331 
Q 1566 -1331 1297 -1286 
Q 1028 -1241 775 -1147 
L 775 -588 
Q 1028 -725 1275 -790 
Q 1522 -856 1778 -856 
Q 2344 -856 2625 -561 
Q 2906 -266 2906 331 
L 2906 616 
Q 2728 306 2450 153 
Q 2172 0 1784 0 
Q 1141 0 747 490 
Q 353 981 353 1791 
Q 353 2603 747 3093 
Q 1141 3584 1784 3584 
Q 2172 3584 2450 3431 
Q 2728 3278 2906 2969 
L 2906 3500 
L 3481 3500 
L 3481 434 
z
" transform="scale(0.015625)"/>
       <path id="DejaVuSans-76" d="M 191 3500 
L 800 3500 
L 1894 563 
L 2988 3500 
L 3597 3500 
L 2284 0 
L 1503 0 
L 191 3500 
z
" transform="scale(0.015625)"/>
       <path id="DejaVuSans-78" d="M 3513 3500 
L 2247 1797 
L 3578 0 
L 2900 0 
L 1881 1375 
L 863 0 
L 184 0 
L 1544 1831 
L 300 3500 
L 978 3500 
L 1906 2253 
L 2834 3500 
L 3513 3500 
z
" transform="scale(0.015625)"/>
      </defs>
      <use xlink:href="#DejaVuSans-50"/>
      <use xlink:href="#DejaVuSans-6f" x="56.677734"/>
      <use xlink:href="#DejaVuSans-73" x="117.859375"/>
      <use xlink:href="#DejaVuSans-69" x="169.958984"/>
      <use xlink:href="#DejaVuSans-74" x="197.742188"/>
      <use xlink:href="#DejaVuSans-69" x="236.951172"/>
      <use xlink:href="#DejaVuSans-6f" x="264.734375"/>
      <use xlink:href="#DejaVuSans-6e" x="325.916016"/>
      <use xlink:href="#DejaVuSans-20" x="389.294922"/>
      <use xlink:href="#DejaVuSans-6f" x="421.082031"/>
      <use xlink:href="#DejaVuSans-66" x="482.263672"/>
      <use xlink:href="#DejaVuSans-20" x="517.46875"/>
      <use xlink:href="#DejaVuSans-73" x="549.255859"/>
      <use xlink:href="#DejaVuSans-6c" x="601.355469"/>
      <use xlink:href="#DejaVuSans-69" x="629.138672"/>
      <use xlink:href="#DejaVuSans-63" x="656.921875"/>
      <use xlink:href="#DejaVuSans-65" x="711.902344"/>
      <use xlink:href="#DejaVuSans-20" x="773.425781"/>
      <use xlink:href="#DejaVuSans-61" x="805.212891"/>
      <use xlink:href="#DejaVuSans-6c" x="866.492188"/>
      <use xlink:href="#DejaVuSans-6f" x="894.275391"/>
      <use xlink:href="#DejaVuSans-6e" x="955.457031"/>
      <use xlink:href="#DejaVuSans-67" x="1018.835938"/>
      <use xlink:href="#DejaVuSans-20" x="1082.3125"/>
      <use xlink:href="#DejaVuSans-67" x="1114.099609"/>
      <use xlink:href="#DejaVuSans-69" x="1177.576172"/>
      <use xlink:href="#DejaVuSans-76" x="1205.359375"/>
      <use xlink:href="#DejaVuSans-65" x="1264.539062"/>
      <use xlink:href="#DejaVuSans-6e" x="1326.0625"/>
      <use xlink:href="#DejaVuSans-20" x="1389.441406"/>
      <use xlink:href="#DejaVuSans-61" x="1421.228516"/>
      <use xlink:href="#DejaVuSans-78" x="1482.507812"/>
      <use xlink:href="#DejaVuSans-69" x="1541.6875"/>
      <use xlink:href="#DejaVuSans-73" x="1569.470703"/>
     </g>
    </g>
   </g>
   <g id="matplotlib.axis_2">
    <g id="ytick_1">
     <g id="line2d_11">
      <defs>
       <path id="m01261c5452" d="M 0 0 
L 6 0 
" style="stroke: #000000; stroke-width: 2"/>
      </defs>
      <g>
       <use xlink:href="#m01261c5452" x="49.3975" y="234.5525" style="fill: #ffffff; stroke: #000000; stroke-width: 2"/>
      </g>
     </g>
     <g id="line2d_12">
      <defs>
       <path id="m61c47b9603" d="M 0 0 
L -6 0 
" style="stroke: #000000; stroke-width: 2"/>
      </defs>
      <g>
       <use xlink:href="#m61c47b9603" x="341.28" y="234.5525" style="fill: #ffffff; stroke: #000000; stroke-width: 2"/>
      </g>
     </g>
     <g id="text_7">
      <!-- 0.0 -->
      <g transform="translate(26.81375 239.111562)scale(0.12 -0.12)">
       <defs>
        <path id="DejaVuSans-2e" d="M 684 794 
L 1344 794 
L 1344 0 
L 684 0 
L 684 794 
z
" transform="scale(0.015625)"/>
       </defs>
       <use xlink:href="#DejaVuSans-30"/>
       <use xlink:href="#DejaVuSans-2e" x="63.623047"/>
       <use xlink:href="#DejaVuSans-30" x="95.410156"/>
      </g>
     </g>
    </g>
    <g id="ytick_2">
     <g id="line2d_13">
      <g>
       <use xlink:href="#m01261c5452" x="49.3975" y="189.993812" style="fill: #ffffff; stroke: #000000; stroke-width: 2"/>
      </g>
     </g>
     <g id="line2d_14">
      <g>
       <use xlink:href="#m61c47b9603" x="341.28" y="189.993812" style="fill: #ffffff; stroke: #000000; stroke-width: 2"/>
      </g>
     </g>
     <g id="text_8">
      <!-- 0.2 -->
      <g transform="translate(26.81375 194.552875)scale(0.12 -0.12)">
       <use xlink:href="#DejaVuSans-30"/>
       <use xlink:href="#DejaVuSans-2e" x="63.623047"/>
       <use xlink:href="#DejaVuSans-32" x="95.410156"/>
      </g>
     </g>
    </g>
    <g id="ytick_3">
     <g id="line2d_15">
      <g>
       <use xlink:href="#m01261c5452" x="49.3975" y="145.435125" style="fill: #ffffff; stroke: #000000; stroke-width: 2"/>
      </g>
     </g>
     <g id="line2d_16">
      <g>
       <use xlink:href="#m61c47b9603" x="341.28" y="145.435125" style="fill: #ffffff; stroke: #000000; stroke-width: 2"/>
      </g>
     </g>
     <g id="text_9">
      <!-- 0.4 -->
      <g transform="translate(26.81375 149.994187)scale(0.12 -0.12)">
       <defs>
        <path id="DejaVuSans-34" d="M 2419 4116 
L 825 1625 
L 2419 1625 
L 2419 4116 
z
M 2253 4666 
L 3047 4666 
L 3047 1625 
L 3713 1625 
L 3713 1100 
L 3047 1100 
L 3047 0 
L 2419 0 
L 2419 1100 
L 313 1100 
L 313 1709 
L 2253 4666 
z
" transform="scale(0.015625)"/>
       </defs>
       <use xlink:href="#DejaVuSans-30"/>
       <use xlink:href="#DejaVuSans-2e" x="63.623047"/>
       <use xlink:href="#DejaVuSans-34" x="95.410156"/>
      </g>
     </g>
    </g>
    <g id="ytick_4">
     <g id="line2d_17">
      <g>
       <use xlink:href="#m01261c5452" x="49.3975" y="100.876437" style="fill: #ffffff; stroke: #000000; stroke-width: 2"/>
      </g>
     </g>
     <g id="line2d_18">
      <g>
       <use xlink:href="#m61c47b9603" x="341.28" y="100.876437" style="fill: #ffffff; stroke: #000000; stroke-width: 2"/>
      </g>
     </g>
     <g id="text_10">
      <!-- 0.6 -->
      <g transform="translate(26.81375 105.4355)scale(0.12 -0.12)">
       <defs>
        <path id="DejaVuSans-36" d="M 2113 2584 
Q 1688 2584 1439 2293 
Q 1191 2003 1191 1497 
Q 1191 994 1439 701 
Q 1688 409 2113 409 
Q 2538 409 2786 701 
Q 3034 994 3034 1497 
Q 3034 2003 2786 2293 
Q 2538 2584 2113 2584 
z
M 3366 4563 
L 3366 3988 
Q 3128 4100 2886 4159 
Q 2644 4219 2406 4219 
Q 1781 4219 1451 3797 
Q 1122 3375 1075 2522 
Q 1259 2794 1537 2939 
Q 1816 3084 2150 3084 
Q 2853 3084 3261 2657 
Q 3669 2231 3669 1497 
Q 3669 778 3244 343 
Q 2819 -91 2113 -91 
Q 1303 -91 875 529 
Q 447 1150 447 2328 
Q 447 3434 972 4092 
Q 1497 4750 2381 4750 
Q 2619 4750 2861 4703 
Q 3103 4656 3366 4563 
z
" transform="scale(0.015625)"/>
       </defs>
       <use xlink:href="#DejaVuSans-30"/>
       <use xlink:href="#DejaVuSans-2e" x="63.623047"/>
       <use xlink:href="#DejaVuSans-36" x="95.410156"/>
      </g>
     </g>
    </g>
    <g id="ytick_5">
     <g id="line2d_19">
      <g>
       <use xlink:href="#m01261c5452" x="49.3975" y="56.31775" style="fill: #ffffff; stroke: #000000; stroke-width: 2"/>
      </g>
     </g>
     <g id="line2d_20">
      <g>
       <use xlink:href="#m61c47b9603" x="341.28" y="56.31775" style="fill: #ffffff; stroke: #000000; stroke-width: 2"/>
      </g>
     </g>
     <g id="text_11">
      <!-- 0.8 -->
      <g transform="translate(26.81375 60.876812)scale(0.12 -0.12)">
       <defs>
        <path id="DejaVuSans-38" d="M 2034 2216 
Q 1584 2216 1326 1975 
Q 1069 1734 1069 1313 
Q 1069 891 1326 650 
Q 1584 409 2034 409 
Q 2484 409 2743 651 
Q 3003 894 3003 1313 
Q 3003 1734 2745 1975 
Q 2488 2216 2034 2216 
z
M 1403 2484 
Q 997 2584 770 2862 
Q 544 3141 544 3541 
Q 544 4100 942 4425 
Q 1341 4750 2034 4750 
Q 2731 4750 3128 4425 
Q 3525 4100 3525 3541 
Q 3525 3141 3298 2862 
Q 3072 2584 2669 2484 
Q 3125 2378 3379 2068 
Q 3634 1759 3634 1313 
Q 3634 634 3220 271 
Q 2806 -91 2034 -91 
Q 1263 -91 848 271 
Q 434 634 434 1313 
Q 434 1759 690 2068 
Q 947 2378 1403 2484 
z
M 1172 3481 
Q 1172 3119 1398 2916 
Q 1625 2713 2034 2713 
Q 2441 2713 2670 2916 
Q 2900 3119 2900 3481 
Q 2900 3844 2670 4047 
Q 2441 4250 2034 4250 
Q 1625 4250 1398 4047 
Q 1172 3844 1172 3481 
z
" transform="scale(0.015625)"/>
       </defs>
       <use xlink:href="#DejaVuSans-30"/>
       <use xlink:href="#DejaVuSans-2e" x="63.623047"/>
       <use xlink:href="#DejaVuSans-38" x="95.410156"/>
      </g>
     </g>
    </g>
    <g id="ytick_6">
     <g id="line2d_21">
      <g>
       <use xlink:href="#m01261c5452" x="49.3975" y="11.759062" style="fill: #ffffff; stroke: #000000; stroke-width: 2"/>
      </g>
     </g>
     <g id="line2d_22">
      <g>
       <use xlink:href="#m61c47b9603" x="341.28" y="11.759062" style="fill: #ffffff; stroke: #000000; stroke-width: 2"/>
      </g>
     </g>
     <g id="text_12">
      <!-- 1.0 -->
      <g transform="translate(26.81375 16.318125)scale(0.12 -0.12)">
       <use xlink:href="#DejaVuSans-31"/>
       <use xlink:href="#DejaVuSans-2e" x="63.623047"/>
       <use xlink:href="#DejaVuSans-30" x="95.410156"/>
      </g>
     </g>
    </g>
    <g id="text_13">
     <!-- Porosity of slice -->
     <g transform="translate(16.318125 169.973594)rotate(-90)scale(0.12 -0.12)">
      <defs>
       <path id="DejaVuSans-72" d="M 2631 2963 
Q 2534 3019 2420 3045 
Q 2306 3072 2169 3072 
Q 1681 3072 1420 2755 
Q 1159 2438 1159 1844 
L 1159 0 
L 581 0 
L 581 3500 
L 1159 3500 
L 1159 2956 
Q 1341 3275 1631 3429 
Q 1922 3584 2338 3584 
Q 2397 3584 2469 3576 
Q 2541 3569 2628 3553 
L 2631 2963 
z
" transform="scale(0.015625)"/>
       <path id="DejaVuSans-79" d="M 2059 -325 
Q 1816 -950 1584 -1140 
Q 1353 -1331 966 -1331 
L 506 -1331 
L 506 -850 
L 844 -850 
Q 1081 -850 1212 -737 
Q 1344 -625 1503 -206 
L 1606 56 
L 191 3500 
L 800 3500 
L 1894 763 
L 2988 3500 
L 3597 3500 
L 2059 -325 
z
" transform="scale(0.015625)"/>
      </defs>
      <use xlink:href="#DejaVuSans-50"/>
      <use xlink:href="#DejaVuSans-6f" x="56.677734"/>
      <use xlink:href="#DejaVuSans-72" x="117.859375"/>
      <use xlink:href="#DejaVuSans-6f" x="156.722656"/>
      <use xlink:href="#DejaVuSans-73" x="217.904297"/>
      <use xlink:href="#DejaVuSans-69" x="270.003906"/>
      <use xlink:href="#DejaVuSans-74" x="297.787109"/>
      <use xlink:href="#DejaVuSans-79" x="336.996094"/>
      <use xlink:href="#DejaVuSans-20" x="396.175781"/>
      <use xlink:href="#DejaVuSans-6f" x="427.962891"/>
      <use xlink:href="#DejaVuSans-66" x="489.144531"/>
      <use xlink:href="#DejaVuSans-20" x="524.349609"/>
      <use xlink:href="#DejaVuSans-73" x="556.136719"/>
      <use xlink:href="#DejaVuSans-6c" x="608.236328"/>
      <use xlink:href="#DejaVuSans-69" x="636.019531"/>
      <use xlink:href="#DejaVuSans-63" x="663.802734"/>
      <use xlink:href="#DejaVuSans-65" x="718.783203"/>
     </g>
    </g>
   </g>
   <g id="line2d_23">
    <path d="M 62.664886 122.674919 
L 63.331589 122.491114 
L 63.998292 122.015821 
L 65.998401 119.786031 
L 67.331806 117.959124 
L 67.998509 116.477548 
L 69.331915 112.303884 
L 69.998618 111.540817 
L 71.332023 110.926278 
L 71.998726 111.048815 
L 72.665429 111.31431 
L 73.332132 111.817452 
L 73.998835 111.906569 
L 74.665537 112.638074 
L 75.33224 114.166066 
L 75.998943 116.258468 
L 76.665646 117.962838 
L 77.999052 121.893285 
L 79.332457 125.25004 
L 79.99916 126.401139 
L 81.332566 127.516963 
L 82.665971 128.047954 
L 83.332674 127.981116 
L 84.66608 128.283744 
L 85.332783 128.150067 
L 85.999485 127.61722 
L 86.666188 126.894998 
L 87.332891 126.531102 
L 87.999594 125.914707 
L 89.999702 122.153211 
L 91.333108 120.409852 
L 91.999811 119.754468 
L 92.666514 120.168493 
L 93.999919 121.651926 
L 94.666622 121.772605 
L 95.333325 121.366007 
L 96.000028 120.771891 
L 97.333434 119.930846 
L 98.000136 119.719192 
L 100.000245 120.513822 
L 100.666948 120.537958 
L 102.667056 119.756325 
L 103.333759 120.122077 
L 105.333868 121.937844 
L 106.00057 122.283174 
L 106.667273 122.210766 
L 107.333976 121.696484 
L 108.000679 121.020677 
L 108.667382 120.565808 
L 109.334085 120.589943 
L 110.66749 121.234188 
L 111.334193 122.010252 
L 113.334302 125.684487 
L 114.001004 126.623932 
L 117.334519 129.145211 
L 118.667924 130.326017 
L 120.00133 130.842155 
L 121.334736 131.920846 
L 122.668141 132.316305 
L 123.334844 132.821303 
L 124.001547 133.060806 
L 124.66825 133.16849 
L 125.334953 132.676487 
L 126.001655 132.559521 
L 126.668358 132.312592 
L 127.335061 131.848439 
L 128.001764 131.02039 
L 128.668467 129.730044 
L 129.33517 127.953267 
L 130.001872 126.516249 
L 130.668575 124.76732 
L 132.001981 120.107224 
L 134.002089 112.071808 
L 134.668792 110.441702 
L 135.335495 109.751043 
L 136.002198 109.533819 
L 136.668901 109.790032 
L 138.002306 111.136075 
L 138.669009 112.238903 
L 140.002415 115.773892 
L 141.335821 118.802026 
L 142.002523 120.636359 
L 146.00274 133.992825 
L 146.669443 135.214476 
L 147.336146 135.951551 
L 148.669552 136.800023 
L 149.336255 137.017246 
L 150.002957 136.788883 
L 150.66966 136.077801 
L 152.003066 133.419132 
L 152.669769 132.266176 
L 153.336472 131.504965 
L 154.003174 131.001823 
L 154.669877 130.771604 
L 155.33658 130.22019 
L 156.003283 129.399567 
L 157.336689 126.700054 
L 158.670094 124.479546 
L 159.336797 123.718335 
L 160.0035 123.254182 
L 160.670203 123.042528 
L 163.337014 124.507395 
L 164.67042 125.606509 
L 165.337123 125.784744 
L 166.670528 126.804024 
L 167.337231 126.681487 
L 168.003934 126.072519 
L 168.670637 125.144213 
L 169.33734 124.611365 
L 171.337448 122.305453 
L 172.670854 120.511966 
L 174.004259 119.236473 
L 175.337665 118.063095 
L 176.004368 118.063095 
L 176.671071 117.803169 
L 179.337882 117.446699 
L 180.004585 117.028962 
L 180.671288 117.008539 
L 181.337991 117.21648 
L 182.004693 117.916422 
L 182.671396 118.298884 
L 184.004802 118.311881 
L 185.338208 117.598942 
L 186.00491 117.179347 
L 187.338316 117.340873 
L 188.005019 116.785746 
L 188.671722 115.927991 
L 189.338425 114.362867 
L 190.005127 113.25447 
L 190.67183 112.834875 
L 192.671939 113.937703 
L 194.672047 115.226191 
L 195.33875 115.411853 
L 195.33875 115.411853 
" clip-path="url(#pd879f17264)" style="fill: none; stroke: #0000ff; stroke-opacity: 0.5; stroke-width: 2; stroke-linecap: square"/>
   </g>
   <g id="line2d_24">
    <path d="M 62.664886 126.110579 
L 65.327238 126.138428 
L 65.992826 126.066021 
L 66.658414 126.558951 
L 67.324002 127.2886 
L 67.98959 127.767605 
L 68.655178 127.965335 
L 69.320766 128.47219 
L 69.986354 129.263106 
L 71.31753 130.382643 
L 71.983118 130.198839 
L 72.648706 130.310236 
L 73.979881 131.970047 
L 74.645469 133.045025 
L 75.976645 134.234185 
L 76.642233 134.22583 
L 81.301349 131.69991 
L 83.298113 132.128787 
L 83.963701 131.452052 
L 84.629289 130.438342 
L 85.960464 127.653424 
L 86.626052 126.102224 
L 87.29164 124.261394 
L 89.288404 116.24083 
L 89.953992 114.399999 
L 91.285168 112.355869 
L 91.950756 111.743187 
L 93.281932 111.787746 
L 93.94752 111.517609 
L 94.613108 111.539888 
L 95.278696 111.450771 
L 95.944284 111.15557 
L 96.609872 111.15 
L 97.275459 111.408997 
L 97.941047 111.397858 
L 98.606635 112.055098 
L 100.603399 115.065595 
L 101.268987 115.619793 
L 101.934575 116.343872 
L 102.600163 117.560881 
L 103.931339 120.643785 
L 104.596927 121.699269 
L 105.262515 122.451197 
L 106.593691 124.576089 
L 107.259279 126.812379 
L 108.590455 129.254752 
L 109.256042 130.042883 
L 109.92163 130.544169 
L 110.587218 130.527459 
L 111.252806 129.953766 
L 111.918394 129.029173 
L 112.583982 127.689628 
L 113.24957 126.673133 
L 113.915158 126.405781 
L 114.580746 127.037957 
L 115.246334 128.073946 
L 115.911922 128.500039 
L 116.57751 128.349653 
L 117.243098 127.884572 
L 119.239862 127.060236 
L 119.90545 126.656423 
L 120.571038 126.394641 
L 121.236625 126.414135 
L 122.567801 126.589585 
L 123.233389 126.5868 
L 123.898977 126.75111 
L 124.564565 127.207837 
L 125.230153 127.508608 
L 125.895741 128.054452 
L 127.226917 128.611436 
L 128.558093 128.681058 
L 129.223681 128.435986 
L 129.889269 127.898497 
L 130.554857 127.789885 
L 131.886033 126.862507 
L 133.882796 126.380716 
L 134.548384 125.517392 
L 135.213972 123.943913 
L 135.87956 122.033459 
L 136.545148 120.666065 
L 138.541912 115.778534 
L 139.2075 114.71748 
L 139.873088 113.297172 
L 140.538676 112.289031 
L 141.869852 111.862939 
L 142.53544 111.637361 
L 143.866616 112.729048 
L 145.197792 114.36658 
L 145.863379 115.335732 
L 146.528967 116.020821 
L 147.194555 115.942844 
L 147.860143 115.669922 
L 150.522495 115.834232 
L 151.853671 117.404926 
L 152.519259 118.627505 
L 153.850435 120.120221 
L 155.181611 122.083588 
L 156.512787 124.665207 
L 157.178375 125.328017 
L 157.843962 125.444984 
L 158.50955 125.333587 
L 159.175138 125.612079 
L 160.506314 125.592584 
L 161.171902 125.809808 
L 162.503078 127.408351 
L 163.168666 127.762036 
L 163.834254 128.522318 
L 164.499842 129.689199 
L 165.831018 130.736328 
L 166.496606 131.382429 
L 167.827782 132.941983 
L 168.49337 133.735685 
L 169.158958 134.281529 
L 169.824545 134.476473 
L 170.490133 135.078015 
L 173.152485 140.906848 
L 173.818073 141.820301 
L 174.483661 141.88714 
L 175.149249 140.68684 
L 175.814837 138.937911 
L 177.811601 132.585513 
L 180.473953 126.291599 
L 185.133068 111.885218 
L 185.798656 110.347944 
L 186.464244 109.676778 
L 187.129832 109.164353 
L 187.79542 108.908141 
L 189.126596 109.829949 
L 190.457772 111.383933 
L 191.12336 111.773822 
L 191.788948 111.386718 
L 193.120124 109.932991 
L 195.116887 106.836162 
L 195.782475 106.379435 
L 197.113651 106.610584 
L 197.779239 106.741475 
L 198.444827 106.997687 
L 199.110415 107.106299 
L 199.776003 107.891646 
L 200.441591 108.379007 
L 202.438355 110.492759 
L 205.100707 115.678277 
L 206.431882 118.245971 
L 207.09747 119.203983 
L 207.763058 119.705268 
L 209.759822 122.67956 
L 210.42541 122.86615 
L 211.756586 123.723905 
L 212.422174 123.991257 
L 213.75335 124.197341 
L 214.418938 124.091514 
L 215.750114 123.155781 
L 217.08129 123.1892 
L 218.412465 123.02489 
L 219.078053 122.618292 
L 219.743641 121.860794 
L 220.409229 120.755182 
L 221.074817 120.326305 
L 222.405993 121.715979 
L 223.737169 122.078018 
L 225.068345 122.768678 
L 226.399521 123.88543 
L 227.065109 124.308737 
L 227.730697 124.484187 
L 228.396285 124.386715 
L 229.061873 124.676346 
L 229.72746 124.420134 
L 230.393048 123.648712 
L 231.058636 122.629432 
L 231.724224 122.086373 
L 232.389812 121.788387 
L 233.0554 122.214479 
L 233.720988 122.214479 
L 236.38334 120.47669 
L 237.048928 120.732903 
L 238.380104 121.729903 
L 239.71128 121.908138 
L 241.042456 122.328661 
L 241.708043 122.359295 
L 243.704807 120.175919 
L 244.370395 119.460195 
L 245.035983 119.039672 
L 245.701571 118.80017 
L 246.367159 118.78346 
L 247.032747 118.995114 
L 247.698335 119.073092 
L 248.363923 118.46041 
L 249.029511 117.691772 
L 249.695099 117.385431 
L 250.360687 117.449484 
L 251.026275 117.193272 
L 251.691863 116.310453 
L 253.023039 115.88436 
L 253.688626 117.106939 
L 255.68539 122.910708 
L 256.350978 123.860365 
L 257.016566 125.336372 
L 257.682154 127.09087 
L 259.01333 129.47476 
L 260.344506 130.842155 
L 261.010094 131.396354 
L 261.675682 131.591298 
L 261.675682 131.591298 
" clip-path="url(#pd879f17264)" style="fill: none; stroke: #ff0000; stroke-opacity: 0.5; stroke-width: 2; stroke-linecap: square"/>
   </g>
   <g id="line2d_25">
    <path d="M 62.664886 102.829593 
L 63.99495 102.547388 
L 64.659982 102.354301 
L 67.32011 101.099231 
L 67.985142 100.824452 
L 68.650173 101.518825 
L 69.315205 103.193489 
L 70.645269 107.608513 
L 71.975333 114.329448 
L 73.305397 121.733616 
L 73.970429 124.941842 
L 74.635461 127.581944 
L 75.300492 129.705908 
L 75.965524 131.280315 
L 76.630556 132.045239 
L 77.295588 132.297739 
L 77.96062 131.789027 
L 78.625652 130.363149 
L 79.955716 128.172347 
L 80.620748 127.054666 
L 81.28578 126.802167 
L 81.950811 125.992684 
L 82.615843 124.956695 
L 83.280875 124.611365 
L 84.610939 124.941842 
L 85.941003 124.473976 
L 87.271067 123.386001 
L 88.60113 121.328875 
L 90.596226 118.362009 
L 91.261258 118.206054 
L 91.92629 118.562523 
L 93.921386 122.298027 
L 95.251449 125.394855 
L 95.916481 127.140071 
L 96.581513 129.393997 
L 97.246545 130.838442 
L 97.911577 131.235757 
L 98.576609 131.35458 
L 100.571705 130.392855 
L 101.236736 130.541384 
L 101.901768 130.901566 
L 102.5668 131.881858 
L 103.231832 132.464834 
L 104.561896 133.382 
L 105.226928 133.938984 
L 106.556992 134.254608 
L 107.222024 134.031814 
L 108.552087 132.780458 
L 109.217119 131.191198 
L 109.882151 129.249182 
L 110.547183 126.441984 
L 111.877247 121.71505 
L 112.542279 121.395713 
L 113.207311 121.425419 
L 113.872343 122.680489 
L 114.537374 123.501111 
L 115.202406 123.675633 
L 115.867438 123.345156 
L 116.53247 122.717621 
L 117.197502 121.547955 
L 118.527566 119.821306 
L 119.192598 118.99697 
L 119.85763 118.499398 
L 120.522661 118.324877 
L 121.187693 118.510538 
L 122.517757 119.349727 
L 123.182789 118.480832 
L 124.512853 117.19977 
L 125.842917 115.803598 
L 126.507949 115.591944 
L 127.838012 114.088088 
L 128.503044 114.678491 
L 130.49814 118.079804 
L 131.163172 118.956125 
L 131.828204 120.170349 
L 132.493236 121.785602 
L 133.158268 123.987543 
L 135.153363 128.402567 
L 135.818395 127.533672 
L 136.483427 127.166063 
L 137.148459 127.210622 
L 140.473618 124.236329 
L 141.13865 123.801882 
L 141.803682 123.196627 
L 142.468714 123.590228 
L 143.798778 125.383716 
L 144.46381 125.859008 
L 145.128842 125.472833 
L 145.793874 125.302025 
L 146.458906 125.632502 
L 147.123937 126.107794 
L 147.788969 126.196912 
L 148.454001 126.557094 
L 149.119033 127.210622 
L 149.784065 127.422276 
L 150.449097 128.157494 
L 151.114129 129.093226 
L 151.779161 129.148925 
L 154.439288 130.845868 
L 155.10432 131.005537 
L 155.769352 130.745611 
L 156.434384 130.816162 
L 157.099416 131.391712 
L 157.764448 132.59851 
L 158.42948 132.784171 
L 159.094512 133.37086 
L 160.424575 134.154351 
L 161.754639 135.557949 
L 162.419671 135.884713 
L 163.084703 136.657064 
L 163.749735 136.950408 
L 164.414767 137.098937 
L 165.079799 136.876144 
L 166.409862 134.366004 
L 167.074894 133.359721 
L 167.739926 133.003251 
L 168.404958 132.394282 
L 169.735022 132.475973 
L 170.400054 133.16292 
L 171.065086 133.118361 
L 171.730118 132.928987 
L 173.060181 133.419132 
L 173.725213 133.719903 
L 174.390245 134.354865 
L 175.055277 134.436556 
L 175.720309 133.886998 
L 176.385341 132.591083 
L 177.050373 130.927559 
L 177.715405 129.843298 
L 178.380437 129.186057 
L 179.045469 128.74047 
L 180.375532 127.140071 
L 181.705596 124.867577 
L 182.370628 124.540814 
L 183.03566 124.362579 
L 183.700692 124.065521 
L 184.365724 124.00611 
L 185.030756 123.6385 
L 185.695787 123.497398 
L 186.360819 123.519677 
L 187.025851 123.801882 
L 188.355915 124.823019 
L 189.020947 125.097797 
L 190.351011 125.316878 
L 191.681075 125.22776 
L 192.346106 123.813022 
L 194.341202 120.259467 
L 195.671266 117.44113 
L 196.336298 116.364295 
L 197.00133 116.011538 
L 197.666362 116.824734 
L 198.331394 117.916422 
L 199.661457 118.926419 
L 200.326489 119.669064 
L 202.321585 120.627076 
L 202.986617 120.749612 
L 203.651649 121.417992 
L 205.646744 124.88243 
L 206.311776 125.576803 
L 206.976808 125.413421 
L 207.64184 124.800739 
L 210.301968 121.26575 
L 211.632031 119.977262 
L 212.297063 119.067522 
L 212.962095 118.970978 
L 213.627127 119.717336 
L 214.292159 120.244614 
L 214.957191 120.563951 
L 215.622223 120.630789 
L 216.287255 121.113508 
L 216.952287 121.27689 
L 217.617319 120.259467 
L 218.28235 120.382003 
L 219.612414 122.023248 
L 220.277446 123.259752 
L 220.942478 123.846441 
L 221.60751 123.957838 
L 222.272542 123.374861 
L 222.937574 123.062951 
L 223.602606 122.420563 
L 224.267638 121.440272 
L 224.932669 121.091229 
L 225.597701 121.432845 
L 226.262733 122.691628 
L 226.927765 123.356295 
L 227.592797 123.593942 
L 228.922861 121.102368 
L 230.252925 120.783031 
L 230.917957 120.938987 
L 231.582988 120.953839 
L 232.24802 121.28803 
L 232.913052 121.392 
L 233.578084 121.696484 
L 235.57318 121.896998 
L 236.903244 123.081517 
L 237.568276 123.686772 
L 238.233307 124.57052 
L 238.898339 125.186915 
L 240.893435 126.453124 
L 241.558467 126.49397 
L 242.223499 126.260036 
L 242.888531 126.297169 
L 243.553563 127.024961 
L 244.218594 128.350582 
L 244.883626 129.119219 
L 245.548658 130.511678 
L 246.21369 132.193768 
L 246.878722 133.374574 
L 248.208786 134.677915 
L 248.873818 135.20148 
L 250.203882 135.791882 
L 250.868913 135.654493 
L 251.533945 135.08637 
L 252.198977 134.310306 
L 252.864009 132.46112 
L 253.529041 131.254323 
L 254.194073 129.724474 
L 254.859105 128.565949 
L 256.189169 125.194341 
L 256.854201 123.467692 
L 257.519232 122.134645 
L 258.184264 121.302882 
L 258.849296 120.129504 
L 259.514328 118.042672 
L 260.17936 115.525106 
L 260.844392 113.727906 
L 261.509424 113.00754 
L 262.174456 112.981548 
L 262.839488 113.130077 
L 264.169551 112.561953 
L 264.834583 111.849014 
L 266.164647 111.028392 
L 266.829679 110.813025 
L 268.824775 110.939274 
L 269.489807 111.165781 
L 270.154839 111.514824 
L 270.81987 111.574236 
L 272.149934 112.977834 
L 272.814966 113.193201 
L 273.479998 113.11151 
L 274.14503 112.513681 
L 274.810062 112.45427 
L 276.805157 111.741331 
L 277.470189 111.707912 
L 278.800253 110.638503 
L 279.465285 110.96898 
L 282.790445 111.258612 
L 283.455476 111.923279 
L 284.120508 113.063239 
L 285.450572 115.933561 
L 286.780636 118.514251 
L 287.445668 119.416565 
L 288.1107 120.627076 
L 289.440764 125.209194 
L 290.105795 126.991542 
L 290.770827 128.332015 
L 291.435859 129.286314 
L 292.100891 129.999253 
L 292.765923 130.281458 
L 293.430955 129.743041 
L 294.095987 129.379145 
L 294.761019 129.308593 
L 295.426051 129.382858 
L 296.756114 129.160064 
L 297.421146 129.048668 
L 298.086178 128.506537 
L 298.75121 127.641356 
L 300.081274 124.837872 
L 300.746306 123.32659 
L 301.411338 121.518249 
L 302.07637 120.445128 
L 303.406433 118.970978 
L 304.736497 118.32859 
L 306.066561 117.652783 
L 306.731593 116.661353 
L 307.396625 115.135217 
L 308.061657 113.946986 
L 309.39172 112.398571 
L 310.056752 112.703056 
L 311.386816 112.974121 
L 312.051848 113.538531 
L 312.71688 114.403712 
L 313.381912 115.491687 
L 314.046944 116.212052 
L 314.711976 116.757896 
L 315.377008 116.713338 
L 317.372103 113.683347 
L 318.037135 113.527392 
L 318.702167 113.835589 
L 319.367199 113.861582 
L 320.032231 114.195772 
L 320.697263 113.869008 
L 322.692358 111.730191 
L 323.35739 112.320594 
L 324.022422 113.178348 
L 324.687454 114.611653 
L 326.017518 116.546243 
L 326.68255 117.002969 
L 328.012614 117.485688 
L 328.012614 117.485688 
" clip-path="url(#pd879f17264)" style="fill: none; stroke: #008000; stroke-opacity: 0.5; stroke-width: 2; stroke-linecap: square"/>
   </g>
   <g id="patch_3">
    <path d="M 49.3975 234.5525 
L 49.3975 11.759062 
" style="fill: none; stroke: #000000; stroke-width: 2; stroke-linejoin: miter; stroke-linecap: square"/>
   </g>
   <g id="patch_4">
    <path d="M 341.28 234.5525 
L 341.28 11.759062 
" style="fill: none; stroke: #000000; stroke-width: 2; stroke-linejoin: miter; stroke-linecap: square"/>
   </g>
   <g id="patch_5">
    <path d="M 49.3975 234.5525 
L 341.28 234.5525 
" style="fill: none; stroke: #000000; stroke-width: 2; stroke-linejoin: miter; stroke-linecap: square"/>
   </g>
   <g id="patch_6">
    <path d="M 49.3975 11.759062 
L 341.28 11.759062 
" style="fill: none; stroke: #000000; stroke-width: 2; stroke-linejoin: miter; stroke-linecap: square"/>
   </g>
   <g id="legend_1">
    <g id="line2d_26">
     <path d="M 245.26125 27.477188 
L 257.26125 27.477188 
L 269.26125 27.477188 
" style="fill: none; stroke: #0000ff; stroke-opacity: 0.5; stroke-width: 2; stroke-linecap: square"/>
    </g>
    <g id="text_14">
     <!-- yz-plane -->
     <g transform="translate(278.86125 31.677188)scale(0.12 -0.12)">
      <defs>
       <path id="DejaVuSans-7a" d="M 353 3500 
L 3084 3500 
L 3084 2975 
L 922 459 
L 3084 459 
L 3084 0 
L 275 0 
L 275 525 
L 2438 3041 
L 353 3041 
L 353 3500 
z
" transform="scale(0.015625)"/>
       <path id="DejaVuSans-2d" d="M 313 2009 
L 1997 2009 
L 1997 1497 
L 313 1497 
L 313 2009 
z
" transform="scale(0.015625)"/>
       <path id="DejaVuSans-70" d="M 1159 525 
L 1159 -1331 
L 581 -1331 
L 581 3500 
L 1159 3500 
L 1159 2969 
Q 1341 3281 1617 3432 
Q 1894 3584 2278 3584 
Q 2916 3584 3314 3078 
Q 3713 2572 3713 1747 
Q 3713 922 3314 415 
Q 2916 -91 2278 -91 
Q 1894 -91 1617 61 
Q 1341 213 1159 525 
z
M 3116 1747 
Q 3116 2381 2855 2742 
Q 2594 3103 2138 3103 
Q 1681 3103 1420 2742 
Q 1159 2381 1159 1747 
Q 1159 1113 1420 752 
Q 1681 391 2138 391 
Q 2594 391 2855 752 
Q 3116 1113 3116 1747 
z
" transform="scale(0.015625)"/>
      </defs>
      <use xlink:href="#DejaVuSans-79"/>
      <use xlink:href="#DejaVuSans-7a" x="59.179688"/>
      <use xlink:href="#DejaVuSans-2d" x="111.669922"/>
      <use xlink:href="#DejaVuSans-70" x="147.753906"/>
      <use xlink:href="#DejaVuSans-6c" x="211.230469"/>
      <use xlink:href="#DejaVuSans-61" x="239.013672"/>
      <use xlink:href="#DejaVuSans-6e" x="300.292969"/>
      <use xlink:href="#DejaVuSans-65" x="363.671875"/>
     </g>
    </g>
    <g id="line2d_27">
     <path d="M 245.26125 45.090938 
L 257.26125 45.090938 
L 269.26125 45.090938 
" style="fill: none; stroke: #ff0000; stroke-opacity: 0.5; stroke-width: 2; stroke-linecap: square"/>
    </g>
    <g id="text_15">
     <!-- xz-plane -->
     <g transform="translate(278.86125 49.290938)scale(0.12 -0.12)">
      <use xlink:href="#DejaVuSans-78"/>
      <use xlink:href="#DejaVuSans-7a" x="59.179688"/>
      <use xlink:href="#DejaVuSans-2d" x="111.669922"/>
      <use xlink:href="#DejaVuSans-70" x="147.753906"/>
      <use xlink:href="#DejaVuSans-6c" x="211.230469"/>
      <use xlink:href="#DejaVuSans-61" x="239.013672"/>
      <use xlink:href="#DejaVuSans-6e" x="300.292969"/>
      <use xlink:href="#DejaVuSans-65" x="363.671875"/>
     </g>
    </g>
    <g id="line2d_28">
     <path d="M 245.26125 62.704687 
L 257.26125 62.704687 
L 269.26125 62.704687 
" style="fill: none; stroke: #008000; stroke-opacity: 0.5; stroke-width: 2; stroke-linecap: square"/>
    </g>
    <g id="text_16">
     <!-- xy-plane -->
     <g transform="translate(278.86125 66.904687)scale(0.12 -0.12)">
      <use xlink:href="#DejaVuSans-78"/>
      <use xlink:href="#DejaVuSans-79" x="59.179688"/>
      <use xlink:href="#DejaVuSans-2d" x="116.609375"/>
      <use xlink:href="#DejaVuSans-70" x="152.693359"/>
      <use xlink:href="#DejaVuSans-6c" x="216.169922"/>
      <use xlink:href="#DejaVuSans-61" x="243.953125"/>
      <use xlink:href="#DejaVuSans-6e" x="305.232422"/>
      <use xlink:href="#DejaVuSans-65" x="368.611328"/>
     </g>
    </g>
   </g>
  </g>
 </g>
 <defs>
  <clipPath id="pd879f17264">
   <rect x="49.3975" y="11.759062" width="291.8825" height="222.793437"/>
  </clipPath>
 </defs>
</svg>
