<?xml version="1.0" encoding="utf-8" standalone="no"?>
<!DOCTYPE svg PUBLIC "-//W3C//DTD SVG 1.1//EN"
  "http://www.w3.org/Graphics/SVG/1.1/DTD/svg11.dtd">
<svg xmlns:xlink="http://www.w3.org/1999/xlink" width="348.48pt" height="276.48pt" viewBox="0 0 348.48 276.48" xmlns="http://www.w3.org/2000/svg" version="1.1">
 <metadata>
  <rdf:RDF xmlns:dc="http://purl.org/dc/elements/1.1/" xmlns:cc="http://creativecommons.org/ns#" xmlns:rdf="http://www.w3.org/1999/02/22-rdf-syntax-ns#">
   <cc:Work>
    <dc:type rdf:resource="http://purl.org/dc/dcmitype/StillImage"/>
    <dc:date>2022-08-23T00:39:58.896685</dc:date>
    <dc:format>image/svg+xml</dc:format>
    <dc:creator>
     <cc:Agent>
      <dc:title>Matplotlib v3.5.3, https://matplotlib.org/</dc:title>
     </cc:Agent>
    </dc:creator>
   </cc:Work>
  </rdf:RDF>
 </metadata>
 <defs>
  <style type="text/css">*{stroke-linejoin: round; stroke-linecap: butt}</style>
 </defs>
 <g id="figure_1">
  <g id="patch_1">
   <path d="M 0 276.48 
L 348.48 276.48 
L 348.48 0 
L 0 0 
z
" style="fill: #ffffff"/>
  </g>
  <g id="axes_1">
   <g id="patch_2">
    <path d="M 49.3975 234.5525 
L 341.28 234.5525 
L 341.28 11.759062 
L 49.3975 11.759062 
z
" style="fill: #ffffff"/>
   </g>
   <g id="matplotlib.axis_1">
    <g id="xtick_1">
     <g id="line2d_1">
      <defs>
       <path id="mbd5ac1b277" d="M 0 0 
L 0 -6 
" style="stroke: #000000; stroke-width: 2"/>
      </defs>
      <g>
       <use xlink:href="#mbd5ac1b277" x="62.664886" y="234.5525" style="fill: #ffffff; stroke: #000000; stroke-width: 2"/>
      </g>
     </g>
     <g id="line2d_2">
      <defs>
       <path id="m5ea2724296" d="M 0 0 
L 0 6 
" style="stroke: #000000; stroke-width: 2"/>
      </defs>
      <g>
       <use xlink:href="#m5ea2724296" x="62.664886" y="11.759062" style="fill: #ffffff; stroke: #000000; stroke-width: 2"/>
      </g>
     </g>
     <g id="text_1">
      <!-- 0.0 -->
      <g transform="translate(53.123011 247.170625)scale(0.12 -0.12)">
       <defs>
        <path id="DejaVuSans-30" d="M 2034 4250 
Q 1547 4250 1301 3770 
Q 1056 3291 1056 2328 
Q 1056 1369 1301 889 
Q 1547 409 2034 409 
Q 2525 409 2770 889 
Q 3016 1369 3016 2328 
Q 3016 3291 2770 3770 
Q 2525 4250 2034 4250 
z
M 2034 4750 
Q 2819 4750 3233 4129 
Q 3647 3509 3647 2328 
Q 3647 1150 3233 529 
Q 2819 -91 2034 -91 
Q 1250 -91 836 529 
Q 422 1150 422 2328 
Q 422 3509 836 4129 
Q 1250 4750 2034 4750 
z
" transform="scale(0.015625)"/>
        <path id="DejaVuSans-2e" d="M 684 794 
L 1344 794 
L 1344 0 
L 684 0 
L 684 794 
z
" transform="scale(0.015625)"/>
       </defs>
       <use xlink:href="#DejaVuSans-30"/>
       <use xlink:href="#DejaVuSans-2e" x="63.623047"/>
       <use xlink:href="#DejaVuSans-30" x="95.410156"/>
      </g>
     </g>
    </g>
    <g id="xtick_2">
     <g id="line2d_3">
      <g>
       <use xlink:href="#mbd5ac1b277" x="115.734432" y="234.5525" style="fill: #ffffff; stroke: #000000; stroke-width: 2"/>
      </g>
     </g>
     <g id="line2d_4">
      <g>
       <use xlink:href="#m5ea2724296" x="115.734432" y="11.759062" style="fill: #ffffff; stroke: #000000; stroke-width: 2"/>
      </g>
     </g>
     <g id="text_2">
      <!-- 0.2 -->
      <g transform="translate(106.192557 247.170625)scale(0.12 -0.12)">
       <defs>
        <path id="DejaVuSans-32" d="M 1228 531 
L 3431 531 
L 3431 0 
L 469 0 
L 469 531 
Q 828 903 1448 1529 
Q 2069 2156 2228 2338 
Q 2531 2678 2651 2914 
Q 2772 3150 2772 3378 
Q 2772 3750 2511 3984 
Q 2250 4219 1831 4219 
Q 1534 4219 1204 4116 
Q 875 4013 500 3803 
L 500 4441 
Q 881 4594 1212 4672 
Q 1544 4750 1819 4750 
Q 2544 4750 2975 4387 
Q 3406 4025 3406 3419 
Q 3406 3131 3298 2873 
Q 3191 2616 2906 2266 
Q 2828 2175 2409 1742 
Q 1991 1309 1228 531 
z
" transform="scale(0.015625)"/>
       </defs>
       <use xlink:href="#DejaVuSans-30"/>
       <use xlink:href="#DejaVuSans-2e" x="63.623047"/>
       <use xlink:href="#DejaVuSans-32" x="95.410156"/>
      </g>
     </g>
    </g>
    <g id="xtick_3">
     <g id="line2d_5">
      <g>
       <use xlink:href="#mbd5ac1b277" x="168.803977" y="234.5525" style="fill: #ffffff; stroke: #000000; stroke-width: 2"/>
      </g>
     </g>
     <g id="line2d_6">
      <g>
       <use xlink:href="#m5ea2724296" x="168.803977" y="11.759062" style="fill: #ffffff; stroke: #000000; stroke-width: 2"/>
      </g>
     </g>
     <g id="text_3">
      <!-- 0.4 -->
      <g transform="translate(159.262102 247.170625)scale(0.12 -0.12)">
       <defs>
        <path id="DejaVuSans-34" d="M 2419 4116 
L 825 1625 
L 2419 1625 
L 2419 4116 
z
M 2253 4666 
L 3047 4666 
L 3047 1625 
L 3713 1625 
L 3713 1100 
L 3047 1100 
L 3047 0 
L 2419 0 
L 2419 1100 
L 313 1100 
L 313 1709 
L 2253 4666 
z
" transform="scale(0.015625)"/>
       </defs>
       <use xlink:href="#DejaVuSans-30"/>
       <use xlink:href="#DejaVuSans-2e" x="63.623047"/>
       <use xlink:href="#DejaVuSans-34" x="95.410156"/>
      </g>
     </g>
    </g>
    <g id="xtick_4">
     <g id="line2d_7">
      <g>
       <use xlink:href="#mbd5ac1b277" x="221.873523" y="234.5525" style="fill: #ffffff; stroke: #000000; stroke-width: 2"/>
      </g>
     </g>
     <g id="line2d_8">
      <g>
       <use xlink:href="#m5ea2724296" x="221.873523" y="11.759062" style="fill: #ffffff; stroke: #000000; stroke-width: 2"/>
      </g>
     </g>
     <g id="text_4">
      <!-- 0.6 -->
      <g transform="translate(212.331648 247.170625)scale(0.12 -0.12)">
       <defs>
        <path id="DejaVuSans-36" d="M 2113 2584 
Q 1688 2584 1439 2293 
Q 1191 2003 1191 1497 
Q 1191 994 1439 701 
Q 1688 409 2113 409 
Q 2538 409 2786 701 
Q 3034 994 3034 1497 
Q 3034 2003 2786 2293 
Q 2538 2584 2113 2584 
z
M 3366 4563 
L 3366 3988 
Q 3128 4100 2886 4159 
Q 2644 4219 2406 4219 
Q 1781 4219 1451 3797 
Q 1122 3375 1075 2522 
Q 1259 2794 1537 2939 
Q 1816 3084 2150 3084 
Q 2853 3084 3261 2657 
Q 3669 2231 3669 1497 
Q 3669 778 3244 343 
Q 2819 -91 2113 -91 
Q 1303 -91 875 529 
Q 447 1150 447 2328 
Q 447 3434 972 4092 
Q 1497 4750 2381 4750 
Q 2619 4750 2861 4703 
Q 3103 4656 3366 4563 
z
" transform="scale(0.015625)"/>
       </defs>
       <use xlink:href="#DejaVuSans-30"/>
       <use xlink:href="#DejaVuSans-2e" x="63.623047"/>
       <use xlink:href="#DejaVuSans-36" x="95.410156"/>
      </g>
     </g>
    </g>
    <g id="xtick_5">
     <g id="line2d_9">
      <g>
       <use xlink:href="#mbd5ac1b277" x="274.943068" y="234.5525" style="fill: #ffffff; stroke: #000000; stroke-width: 2"/>
      </g>
     </g>
     <g id="line2d_10">
      <g>
       <use xlink:href="#m5ea2724296" x="274.943068" y="11.759062" style="fill: #ffffff; stroke: #000000; stroke-width: 2"/>
      </g>
     </g>
     <g id="text_5">
      <!-- 0.8 -->
      <g transform="translate(265.401193 247.170625)scale(0.12 -0.12)">
       <defs>
        <path id="DejaVuSans-38" d="M 2034 2216 
Q 1584 2216 1326 1975 
Q 1069 1734 1069 1313 
Q 1069 891 1326 650 
Q 1584 409 2034 409 
Q 2484 409 2743 651 
Q 3003 894 3003 1313 
Q 3003 1734 2745 1975 
Q 2488 2216 2034 2216 
z
M 1403 2484 
Q 997 2584 770 2862 
Q 544 3141 544 3541 
Q 544 4100 942 4425 
Q 1341 4750 2034 4750 
Q 2731 4750 3128 4425 
Q 3525 4100 3525 3541 
Q 3525 3141 3298 2862 
Q 3072 2584 2669 2484 
Q 3125 2378 3379 2068 
Q 3634 1759 3634 1313 
Q 3634 634 3220 271 
Q 2806 -91 2034 -91 
Q 1263 -91 848 271 
Q 434 634 434 1313 
Q 434 1759 690 2068 
Q 947 2378 1403 2484 
z
M 1172 3481 
Q 1172 3119 1398 2916 
Q 1625 2713 2034 2713 
Q 2441 2713 2670 2916 
Q 2900 3119 2900 3481 
Q 2900 3844 2670 4047 
Q 2441 4250 2034 4250 
Q 1625 4250 1398 4047 
Q 1172 3844 1172 3481 
z
" transform="scale(0.015625)"/>
       </defs>
       <use xlink:href="#DejaVuSans-30"/>
       <use xlink:href="#DejaVuSans-2e" x="63.623047"/>
       <use xlink:href="#DejaVuSans-38" x="95.410156"/>
      </g>
     </g>
    </g>
    <g id="xtick_6">
     <g id="line2d_11">
      <g>
       <use xlink:href="#mbd5ac1b277" x="328.012614" y="234.5525" style="fill: #ffffff; stroke: #000000; stroke-width: 2"/>
      </g>
     </g>
     <g id="line2d_12">
      <g>
       <use xlink:href="#m5ea2724296" x="328.012614" y="11.759062" style="fill: #ffffff; stroke: #000000; stroke-width: 2"/>
      </g>
     </g>
     <g id="text_6">
      <!-- 1.0 -->
      <g transform="translate(318.470739 247.170625)scale(0.12 -0.12)">
       <defs>
        <path id="DejaVuSans-31" d="M 794 531 
L 1825 531 
L 1825 4091 
L 703 3866 
L 703 4441 
L 1819 4666 
L 2450 4666 
L 2450 531 
L 3481 531 
L 3481 0 
L 794 0 
L 794 531 
z
" transform="scale(0.015625)"/>
       </defs>
       <use xlink:href="#DejaVuSans-31"/>
       <use xlink:href="#DejaVuSans-2e" x="63.623047"/>
       <use xlink:href="#DejaVuSans-30" x="95.410156"/>
      </g>
     </g>
    </g>
    <g id="text_7">
     <!-- Fractional distance along given axis -->
     <g transform="translate(87.823438 266.784375)scale(0.12 -0.12)">
      <defs>
       <path id="DejaVuSans-46" d="M 628 4666 
L 3309 4666 
L 3309 4134 
L 1259 4134 
L 1259 2759 
L 3109 2759 
L 3109 2228 
L 1259 2228 
L 1259 0 
L 628 0 
L 628 4666 
z
" transform="scale(0.015625)"/>
       <path id="DejaVuSans-72" d="M 2631 2963 
Q 2534 3019 2420 3045 
Q 2306 3072 2169 3072 
Q 1681 3072 1420 2755 
Q 1159 2438 1159 1844 
L 1159 0 
L 581 0 
L 581 3500 
L 1159 3500 
L 1159 2956 
Q 1341 3275 1631 3429 
Q 1922 3584 2338 3584 
Q 2397 3584 2469 3576 
Q 2541 3569 2628 3553 
L 2631 2963 
z
" transform="scale(0.015625)"/>
       <path id="DejaVuSans-61" d="M 2194 1759 
Q 1497 1759 1228 1600 
Q 959 1441 959 1056 
Q 959 750 1161 570 
Q 1363 391 1709 391 
Q 2188 391 2477 730 
Q 2766 1069 2766 1631 
L 2766 1759 
L 2194 1759 
z
M 3341 1997 
L 3341 0 
L 2766 0 
L 2766 531 
Q 2569 213 2275 61 
Q 1981 -91 1556 -91 
Q 1019 -91 701 211 
Q 384 513 384 1019 
Q 384 1609 779 1909 
Q 1175 2209 1959 2209 
L 2766 2209 
L 2766 2266 
Q 2766 2663 2505 2880 
Q 2244 3097 1772 3097 
Q 1472 3097 1187 3025 
Q 903 2953 641 2809 
L 641 3341 
Q 956 3463 1253 3523 
Q 1550 3584 1831 3584 
Q 2591 3584 2966 3190 
Q 3341 2797 3341 1997 
z
" transform="scale(0.015625)"/>
       <path id="DejaVuSans-63" d="M 3122 3366 
L 3122 2828 
Q 2878 2963 2633 3030 
Q 2388 3097 2138 3097 
Q 1578 3097 1268 2742 
Q 959 2388 959 1747 
Q 959 1106 1268 751 
Q 1578 397 2138 397 
Q 2388 397 2633 464 
Q 2878 531 3122 666 
L 3122 134 
Q 2881 22 2623 -34 
Q 2366 -91 2075 -91 
Q 1284 -91 818 406 
Q 353 903 353 1747 
Q 353 2603 823 3093 
Q 1294 3584 2113 3584 
Q 2378 3584 2631 3529 
Q 2884 3475 3122 3366 
z
" transform="scale(0.015625)"/>
       <path id="DejaVuSans-74" d="M 1172 4494 
L 1172 3500 
L 2356 3500 
L 2356 3053 
L 1172 3053 
L 1172 1153 
Q 1172 725 1289 603 
Q 1406 481 1766 481 
L 2356 481 
L 2356 0 
L 1766 0 
Q 1100 0 847 248 
Q 594 497 594 1153 
L 594 3053 
L 172 3053 
L 172 3500 
L 594 3500 
L 594 4494 
L 1172 4494 
z
" transform="scale(0.015625)"/>
       <path id="DejaVuSans-69" d="M 603 3500 
L 1178 3500 
L 1178 0 
L 603 0 
L 603 3500 
z
M 603 4863 
L 1178 4863 
L 1178 4134 
L 603 4134 
L 603 4863 
z
" transform="scale(0.015625)"/>
       <path id="DejaVuSans-6f" d="M 1959 3097 
Q 1497 3097 1228 2736 
Q 959 2375 959 1747 
Q 959 1119 1226 758 
Q 1494 397 1959 397 
Q 2419 397 2687 759 
Q 2956 1122 2956 1747 
Q 2956 2369 2687 2733 
Q 2419 3097 1959 3097 
z
M 1959 3584 
Q 2709 3584 3137 3096 
Q 3566 2609 3566 1747 
Q 3566 888 3137 398 
Q 2709 -91 1959 -91 
Q 1206 -91 779 398 
Q 353 888 353 1747 
Q 353 2609 779 3096 
Q 1206 3584 1959 3584 
z
" transform="scale(0.015625)"/>
       <path id="DejaVuSans-6e" d="M 3513 2113 
L 3513 0 
L 2938 0 
L 2938 2094 
Q 2938 2591 2744 2837 
Q 2550 3084 2163 3084 
Q 1697 3084 1428 2787 
Q 1159 2491 1159 1978 
L 1159 0 
L 581 0 
L 581 3500 
L 1159 3500 
L 1159 2956 
Q 1366 3272 1645 3428 
Q 1925 3584 2291 3584 
Q 2894 3584 3203 3211 
Q 3513 2838 3513 2113 
z
" transform="scale(0.015625)"/>
       <path id="DejaVuSans-6c" d="M 603 4863 
L 1178 4863 
L 1178 0 
L 603 0 
L 603 4863 
z
" transform="scale(0.015625)"/>
       <path id="DejaVuSans-20" transform="scale(0.015625)"/>
       <path id="DejaVuSans-64" d="M 2906 2969 
L 2906 4863 
L 3481 4863 
L 3481 0 
L 2906 0 
L 2906 525 
Q 2725 213 2448 61 
Q 2172 -91 1784 -91 
Q 1150 -91 751 415 
Q 353 922 353 1747 
Q 353 2572 751 3078 
Q 1150 3584 1784 3584 
Q 2172 3584 2448 3432 
Q 2725 3281 2906 2969 
z
M 947 1747 
Q 947 1113 1208 752 
Q 1469 391 1925 391 
Q 2381 391 2643 752 
Q 2906 1113 2906 1747 
Q 2906 2381 2643 2742 
Q 2381 3103 1925 3103 
Q 1469 3103 1208 2742 
Q 947 2381 947 1747 
z
" transform="scale(0.015625)"/>
       <path id="DejaVuSans-73" d="M 2834 3397 
L 2834 2853 
Q 2591 2978 2328 3040 
Q 2066 3103 1784 3103 
Q 1356 3103 1142 2972 
Q 928 2841 928 2578 
Q 928 2378 1081 2264 
Q 1234 2150 1697 2047 
L 1894 2003 
Q 2506 1872 2764 1633 
Q 3022 1394 3022 966 
Q 3022 478 2636 193 
Q 2250 -91 1575 -91 
Q 1294 -91 989 -36 
Q 684 19 347 128 
L 347 722 
Q 666 556 975 473 
Q 1284 391 1588 391 
Q 1994 391 2212 530 
Q 2431 669 2431 922 
Q 2431 1156 2273 1281 
Q 2116 1406 1581 1522 
L 1381 1569 
Q 847 1681 609 1914 
Q 372 2147 372 2553 
Q 372 3047 722 3315 
Q 1072 3584 1716 3584 
Q 2034 3584 2315 3537 
Q 2597 3491 2834 3397 
z
" transform="scale(0.015625)"/>
       <path id="DejaVuSans-65" d="M 3597 1894 
L 3597 1613 
L 953 1613 
Q 991 1019 1311 708 
Q 1631 397 2203 397 
Q 2534 397 2845 478 
Q 3156 559 3463 722 
L 3463 178 
Q 3153 47 2828 -22 
Q 2503 -91 2169 -91 
Q 1331 -91 842 396 
Q 353 884 353 1716 
Q 353 2575 817 3079 
Q 1281 3584 2069 3584 
Q 2775 3584 3186 3129 
Q 3597 2675 3597 1894 
z
M 3022 2063 
Q 3016 2534 2758 2815 
Q 2500 3097 2075 3097 
Q 1594 3097 1305 2825 
Q 1016 2553 972 2059 
L 3022 2063 
z
" transform="scale(0.015625)"/>
       <path id="DejaVuSans-67" d="M 2906 1791 
Q 2906 2416 2648 2759 
Q 2391 3103 1925 3103 
Q 1463 3103 1205 2759 
Q 947 2416 947 1791 
Q 947 1169 1205 825 
Q 1463 481 1925 481 
Q 2391 481 2648 825 
Q 2906 1169 2906 1791 
z
M 3481 434 
Q 3481 -459 3084 -895 
Q 2688 -1331 1869 -1331 
Q 1566 -1331 1297 -1286 
Q 1028 -1241 775 -1147 
L 775 -588 
Q 1028 -725 1275 -790 
Q 1522 -856 1778 -856 
Q 2344 -856 2625 -561 
Q 2906 -266 2906 331 
L 2906 616 
Q 2728 306 2450 153 
Q 2172 0 1784 0 
Q 1141 0 747 490 
Q 353 981 353 1791 
Q 353 2603 747 3093 
Q 1141 3584 1784 3584 
Q 2172 3584 2450 3431 
Q 2728 3278 2906 2969 
L 2906 3500 
L 3481 3500 
L 3481 434 
z
" transform="scale(0.015625)"/>
       <path id="DejaVuSans-76" d="M 191 3500 
L 800 3500 
L 1894 563 
L 2988 3500 
L 3597 3500 
L 2284 0 
L 1503 0 
L 191 3500 
z
" transform="scale(0.015625)"/>
       <path id="DejaVuSans-78" d="M 3513 3500 
L 2247 1797 
L 3578 0 
L 2900 0 
L 1881 1375 
L 863 0 
L 184 0 
L 1544 1831 
L 300 3500 
L 978 3500 
L 1906 2253 
L 2834 3500 
L 3513 3500 
z
" transform="scale(0.015625)"/>
      </defs>
      <use xlink:href="#DejaVuSans-46"/>
      <use xlink:href="#DejaVuSans-72" x="50.269531"/>
      <use xlink:href="#DejaVuSans-61" x="91.382812"/>
      <use xlink:href="#DejaVuSans-63" x="152.662109"/>
      <use xlink:href="#DejaVuSans-74" x="207.642578"/>
      <use xlink:href="#DejaVuSans-69" x="246.851562"/>
      <use xlink:href="#DejaVuSans-6f" x="274.634766"/>
      <use xlink:href="#DejaVuSans-6e" x="335.816406"/>
      <use xlink:href="#DejaVuSans-61" x="399.195312"/>
      <use xlink:href="#DejaVuSans-6c" x="460.474609"/>
      <use xlink:href="#DejaVuSans-20" x="488.257812"/>
      <use xlink:href="#DejaVuSans-64" x="520.044922"/>
      <use xlink:href="#DejaVuSans-69" x="583.521484"/>
      <use xlink:href="#DejaVuSans-73" x="611.304688"/>
      <use xlink:href="#DejaVuSans-74" x="663.404297"/>
      <use xlink:href="#DejaVuSans-61" x="702.613281"/>
      <use xlink:href="#DejaVuSans-6e" x="763.892578"/>
      <use xlink:href="#DejaVuSans-63" x="827.271484"/>
      <use xlink:href="#DejaVuSans-65" x="882.251953"/>
      <use xlink:href="#DejaVuSans-20" x="943.775391"/>
      <use xlink:href="#DejaVuSans-61" x="975.5625"/>
      <use xlink:href="#DejaVuSans-6c" x="1036.841797"/>
      <use xlink:href="#DejaVuSans-6f" x="1064.625"/>
      <use xlink:href="#DejaVuSans-6e" x="1125.806641"/>
      <use xlink:href="#DejaVuSans-67" x="1189.185547"/>
      <use xlink:href="#DejaVuSans-20" x="1252.662109"/>
      <use xlink:href="#DejaVuSans-67" x="1284.449219"/>
      <use xlink:href="#DejaVuSans-69" x="1347.925781"/>
      <use xlink:href="#DejaVuSans-76" x="1375.708984"/>
      <use xlink:href="#DejaVuSans-65" x="1434.888672"/>
      <use xlink:href="#DejaVuSans-6e" x="1496.412109"/>
      <use xlink:href="#DejaVuSans-20" x="1559.791016"/>
      <use xlink:href="#DejaVuSans-61" x="1591.578125"/>
      <use xlink:href="#DejaVuSans-78" x="1652.857422"/>
      <use xlink:href="#DejaVuSans-69" x="1712.037109"/>
      <use xlink:href="#DejaVuSans-73" x="1739.820312"/>
     </g>
    </g>
   </g>
   <g id="matplotlib.axis_2">
    <g id="ytick_1">
     <g id="line2d_13">
      <defs>
       <path id="m867b89cfe5" d="M 0 0 
L 6 0 
" style="stroke: #000000; stroke-width: 2"/>
      </defs>
      <g>
       <use xlink:href="#m867b89cfe5" x="49.3975" y="234.5525" style="fill: #ffffff; stroke: #000000; stroke-width: 2"/>
      </g>
     </g>
     <g id="line2d_14">
      <defs>
       <path id="m73a4c75eef" d="M 0 0 
L -6 0 
" style="stroke: #000000; stroke-width: 2"/>
      </defs>
      <g>
       <use xlink:href="#m73a4c75eef" x="341.28" y="234.5525" style="fill: #ffffff; stroke: #000000; stroke-width: 2"/>
      </g>
     </g>
     <g id="text_8">
      <!-- 0.0 -->
      <g transform="translate(26.81375 239.111562)scale(0.12 -0.12)">
       <use xlink:href="#DejaVuSans-30"/>
       <use xlink:href="#DejaVuSans-2e" x="63.623047"/>
       <use xlink:href="#DejaVuSans-30" x="95.410156"/>
      </g>
     </g>
    </g>
    <g id="ytick_2">
     <g id="line2d_15">
      <g>
       <use xlink:href="#m867b89cfe5" x="49.3975" y="189.993812" style="fill: #ffffff; stroke: #000000; stroke-width: 2"/>
      </g>
     </g>
     <g id="line2d_16">
      <g>
       <use xlink:href="#m73a4c75eef" x="341.28" y="189.993812" style="fill: #ffffff; stroke: #000000; stroke-width: 2"/>
      </g>
     </g>
     <g id="text_9">
      <!-- 0.2 -->
      <g transform="translate(26.81375 194.552875)scale(0.12 -0.12)">
       <use xlink:href="#DejaVuSans-30"/>
       <use xlink:href="#DejaVuSans-2e" x="63.623047"/>
       <use xlink:href="#DejaVuSans-32" x="95.410156"/>
      </g>
     </g>
    </g>
    <g id="ytick_3">
     <g id="line2d_17">
      <g>
       <use xlink:href="#m867b89cfe5" x="49.3975" y="145.435125" style="fill: #ffffff; stroke: #000000; stroke-width: 2"/>
      </g>
     </g>
     <g id="line2d_18">
      <g>
       <use xlink:href="#m73a4c75eef" x="341.28" y="145.435125" style="fill: #ffffff; stroke: #000000; stroke-width: 2"/>
      </g>
     </g>
     <g id="text_10">
      <!-- 0.4 -->
      <g transform="translate(26.81375 149.994187)scale(0.12 -0.12)">
       <use xlink:href="#DejaVuSans-30"/>
       <use xlink:href="#DejaVuSans-2e" x="63.623047"/>
       <use xlink:href="#DejaVuSans-34" x="95.410156"/>
      </g>
     </g>
    </g>
    <g id="ytick_4">
     <g id="line2d_19">
      <g>
       <use xlink:href="#m867b89cfe5" x="49.3975" y="100.876437" style="fill: #ffffff; stroke: #000000; stroke-width: 2"/>
      </g>
     </g>
     <g id="line2d_20">
      <g>
       <use xlink:href="#m73a4c75eef" x="341.28" y="100.876437" style="fill: #ffffff; stroke: #000000; stroke-width: 2"/>
      </g>
     </g>
     <g id="text_11">
      <!-- 0.6 -->
      <g transform="translate(26.81375 105.4355)scale(0.12 -0.12)">
       <use xlink:href="#DejaVuSans-30"/>
       <use xlink:href="#DejaVuSans-2e" x="63.623047"/>
       <use xlink:href="#DejaVuSans-36" x="95.410156"/>
      </g>
     </g>
    </g>
    <g id="ytick_5">
     <g id="line2d_21">
      <g>
       <use xlink:href="#m867b89cfe5" x="49.3975" y="56.31775" style="fill: #ffffff; stroke: #000000; stroke-width: 2"/>
      </g>
     </g>
     <g id="line2d_22">
      <g>
       <use xlink:href="#m73a4c75eef" x="341.28" y="56.31775" style="fill: #ffffff; stroke: #000000; stroke-width: 2"/>
      </g>
     </g>
     <g id="text_12">
      <!-- 0.8 -->
      <g transform="translate(26.81375 60.876812)scale(0.12 -0.12)">
       <use xlink:href="#DejaVuSans-30"/>
       <use xlink:href="#DejaVuSans-2e" x="63.623047"/>
       <use xlink:href="#DejaVuSans-38" x="95.410156"/>
      </g>
     </g>
    </g>
    <g id="ytick_6">
     <g id="line2d_23">
      <g>
       <use xlink:href="#m867b89cfe5" x="49.3975" y="11.759062" style="fill: #ffffff; stroke: #000000; stroke-width: 2"/>
      </g>
     </g>
     <g id="line2d_24">
      <g>
       <use xlink:href="#m73a4c75eef" x="341.28" y="11.759062" style="fill: #ffffff; stroke: #000000; stroke-width: 2"/>
      </g>
     </g>
     <g id="text_13">
      <!-- 1.0 -->
      <g transform="translate(26.81375 16.318125)scale(0.12 -0.12)">
       <use xlink:href="#DejaVuSans-31"/>
       <use xlink:href="#DejaVuSans-2e" x="63.623047"/>
       <use xlink:href="#DejaVuSans-30" x="95.410156"/>
      </g>
     </g>
    </g>
    <g id="text_14">
     <!-- Porosity of slice -->
     <g transform="translate(16.318125 169.973594)rotate(-90)scale(0.12 -0.12)">
      <defs>
       <path id="DejaVuSans-50" d="M 1259 4147 
L 1259 2394 
L 2053 2394 
Q 2494 2394 2734 2622 
Q 2975 2850 2975 3272 
Q 2975 3691 2734 3919 
Q 2494 4147 2053 4147 
L 1259 4147 
z
M 628 4666 
L 2053 4666 
Q 2838 4666 3239 4311 
Q 3641 3956 3641 3272 
Q 3641 2581 3239 2228 
Q 2838 1875 2053 1875 
L 1259 1875 
L 1259 0 
L 628 0 
L 628 4666 
z
" transform="scale(0.015625)"/>
       <path id="DejaVuSans-79" d="M 2059 -325 
Q 1816 -950 1584 -1140 
Q 1353 -1331 966 -1331 
L 506 -1331 
L 506 -850 
L 844 -850 
Q 1081 -850 1212 -737 
Q 1344 -625 1503 -206 
L 1606 56 
L 191 3500 
L 800 3500 
L 1894 763 
L 2988 3500 
L 3597 3500 
L 2059 -325 
z
" transform="scale(0.015625)"/>
       <path id="DejaVuSans-66" d="M 2375 4863 
L 2375 4384 
L 1825 4384 
Q 1516 4384 1395 4259 
Q 1275 4134 1275 3809 
L 1275 3500 
L 2222 3500 
L 2222 3053 
L 1275 3053 
L 1275 0 
L 697 0 
L 697 3053 
L 147 3053 
L 147 3500 
L 697 3500 
L 697 3744 
Q 697 4328 969 4595 
Q 1241 4863 1831 4863 
L 2375 4863 
z
" transform="scale(0.015625)"/>
      </defs>
      <use xlink:href="#DejaVuSans-50"/>
      <use xlink:href="#DejaVuSans-6f" x="56.677734"/>
      <use xlink:href="#DejaVuSans-72" x="117.859375"/>
      <use xlink:href="#DejaVuSans-6f" x="156.722656"/>
      <use xlink:href="#DejaVuSans-73" x="217.904297"/>
      <use xlink:href="#DejaVuSans-69" x="270.003906"/>
      <use xlink:href="#DejaVuSans-74" x="297.787109"/>
      <use xlink:href="#DejaVuSans-79" x="336.996094"/>
      <use xlink:href="#DejaVuSans-20" x="396.175781"/>
      <use xlink:href="#DejaVuSans-6f" x="427.962891"/>
      <use xlink:href="#DejaVuSans-66" x="489.144531"/>
      <use xlink:href="#DejaVuSans-20" x="524.349609"/>
      <use xlink:href="#DejaVuSans-73" x="556.136719"/>
      <use xlink:href="#DejaVuSans-6c" x="608.236328"/>
      <use xlink:href="#DejaVuSans-69" x="636.019531"/>
      <use xlink:href="#DejaVuSans-63" x="663.802734"/>
      <use xlink:href="#DejaVuSans-65" x="718.783203"/>
     </g>
    </g>
   </g>
   <g id="line2d_25">
    <path d="M 62.664886 112.827449 
L 63.998292 113.074378 
L 65.331698 113.46241 
L 66.665103 114.093658 
L 67.998509 114.890145 
L 70.66532 116.793172 
L 71.998726 118.183774 
L 74.665537 122.088229 
L 77.332349 126.276746 
L 78.665754 128.372861 
L 83.999377 138.328014 
L 86.666188 141.603078 
L 89.333 144.087225 
L 90.666405 144.913417 
L 91.999811 144.848436 
L 93.333217 145.071229 
L 94.666622 145.514959 
L 96.000028 145.49268 
L 98.666839 144.118787 
L 101.333651 142.919416 
L 102.667056 141.931698 
L 104.000462 141.125929 
L 108.000679 137.433127 
L 112.000896 133.155493 
L 113.334302 131.47526 
L 114.667707 129.514677 
L 117.334519 126.271176 
L 120.00133 124.09337 
L 121.334736 123.820448 
L 124.001547 123.996826 
L 126.668358 124.748754 
L 128.001764 124.732045 
L 129.33517 125.004967 
L 133.335387 127.459408 
L 136.002198 128.668062 
L 140.002415 128.742327 
L 141.335821 128.465692 
L 142.669226 127.776888 
L 144.002632 126.94884 
L 145.336038 125.630645 
L 146.669443 123.816735 
L 148.002849 122.312879 
L 153.336472 118.21905 
L 156.003283 115.881576 
L 158.670094 113.974835 
L 160.0035 113.722336 
L 161.336906 113.280462 
L 162.670311 113.306455 
L 164.003717 113.722336 
L 165.337123 113.887574 
L 166.670528 114.238474 
L 168.003934 114.466837 
L 169.33734 114.910567 
L 172.004151 115.560382 
L 174.670962 114.955126 
L 176.004368 114.420422 
L 178.671179 113.027963 
L 180.004585 111.947415 
L 181.337991 111.160211 
L 182.671396 111.011682 
L 184.004802 111.07295 
L 186.671613 111.921422 
L 188.005019 112.619508 
L 189.338425 113.666637 
L 190.67183 114.914281 
L 197.338858 123.19477 
L 198.672264 124.754324 
L 200.00567 125.968548 
L 201.339075 126.883858 
L 202.672481 128.059093 
L 204.005887 128.820304 
L 205.339292 129.269604 
L 209.339509 131.57366 
L 210.672915 132.1325 
L 212.006321 132.901138 
L 213.339726 133.424702 
L 216.006538 133.263177 
L 218.673349 131.930129 
L 221.34016 130.277745 
L 224.006972 129.999253 
L 225.340377 130.320447 
L 226.673783 130.429987 
L 228.007189 130.727045 
L 230.674 130.585942 
L 232.007406 130.467119 
L 233.340811 129.355009 
L 234.674217 128.593798 
L 237.341028 127.747183 
L 240.00784 126.310165 
L 242.674651 125.638071 
L 244.008057 125.001254 
L 245.341462 124.167635 
L 246.674868 124.069234 
L 248.008274 124.395998 
L 249.341679 124.90471 
L 250.675085 125.623219 
L 253.341896 126.37329 
L 256.008708 126.402996 
L 257.342113 125.90171 
L 260.008925 124.518534 
L 261.34233 123.887286 
L 265.342547 122.927418 
L 266.675953 122.804882 
L 268.009359 122.918135 
L 269.342764 122.827161 
L 270.67617 121.989829 
L 272.009576 120.764465 
L 273.342981 119.869578 
L 274.676387 119.121363 
L 278.676604 117.949841 
L 280.01001 118.012966 
L 281.343415 118.400998 
L 282.676821 118.918993 
L 284.010227 119.843585 
L 286.677038 121.033674 
L 289.343849 120.887001 
L 290.677255 120.452554 
L 293.344066 118.647927 
L 294.677472 117.912709 
L 296.010878 117.624934 
L 298.677689 117.344586 
L 300.011095 116.696628 
L 301.3445 116.271464 
L 304.011312 115.890859 
L 305.344717 115.963266 
L 306.678123 116.828448 
L 308.011529 117.476405 
L 309.344934 118.319307 
L 310.67834 118.362009 
L 313.345151 118.243186 
L 316.011963 119.11208 
L 317.345368 119.420278 
L 318.678774 119.33673 
L 322.678991 120.738472 
L 328.012614 121.663065 
L 328.012614 121.663065 
" clip-path="url(#p8960afca4b)" style="fill: none; stroke: #0000ff; stroke-opacity: 0.5; stroke-width: 2; stroke-linecap: square"/>
   </g>
   <g id="line2d_26">
    <path d="M 62.664886 122.941343 
L 65.327238 123.091728 
L 67.102139 123.166921 
L 67.98959 123.384145 
L 70.651942 123.434273 
L 71.539392 123.935558 
L 72.426843 124.280888 
L 74.201744 123.932773 
L 75.089195 124.37836 
L 75.976645 125.22219 
L 76.864096 125.904495 
L 77.751546 125.90728 
L 78.638997 125.770819 
L 79.526448 125.353082 
L 80.413898 124.690271 
L 81.301349 124.481402 
L 83.07625 124.823947 
L 84.851151 124.22519 
L 85.738602 123.737829 
L 86.626052 123.389714 
L 87.513503 122.309166 
L 88.400954 120.969621 
L 90.175855 118.972834 
L 91.063305 118.983974 
L 92.838207 118.159638 
L 93.725657 118.037102 
L 95.500558 119.240187 
L 96.388009 119.877933 
L 97.275459 120.716193 
L 98.16291 121.069878 
L 99.050361 120.933417 
L 101.712712 119.889072 
L 102.600163 119.351583 
L 103.487614 118.323949 
L 104.375064 117.892286 
L 105.262515 117.624934 
L 106.149965 117.499613 
L 107.037416 117.521892 
L 108.812317 117.25454 
L 109.699768 117.346442 
L 110.587218 117.733546 
L 115.024471 121.883074 
L 119.461724 124.133287 
L 120.349175 124.197341 
L 121.236625 123.793527 
L 122.124076 123.893785 
L 123.011527 124.197341 
L 124.786428 126.113364 
L 126.561329 127.046312 
L 128.33623 127.592156 
L 129.223681 127.589371 
L 130.998582 126.882001 
L 131.886033 126.235901 
L 132.773483 124.915849 
L 133.660934 123.938343 
L 135.435835 122.621077 
L 136.323286 122.451197 
L 137.210736 122.417778 
L 138.098187 121.197984 
L 138.985637 119.307025 
L 140.760539 116.115509 
L 141.647989 115.358011 
L 142.53544 114.842801 
L 145.197792 114.249614 
L 146.972693 114.249614 
L 147.860143 114.283033 
L 148.747594 114.461267 
L 150.522495 115.759039 
L 151.409946 117.148713 
L 152.297396 118.265465 
L 153.184847 119.62172 
L 154.072297 121.209124 
L 154.959748 123.086158 
L 156.734649 124.754324 
L 157.6221 126.035386 
L 158.50955 126.904281 
L 159.397001 127.319234 
L 161.171902 126.898711 
L 162.059353 126.336158 
L 163.834254 124.456338 
L 169.158958 120.922277 
L 170.046408 120.563023 
L 170.933859 120.64657 
L 171.821309 121.097727 
L 172.70876 122.130931 
L 173.59621 122.824376 
L 176.258562 123.929988 
L 177.146013 124.498112 
L 178.033463 124.205695 
L 178.920914 124.04974 
L 179.808365 124.200125 
L 180.695815 124.993827 
L 182.470716 127.241256 
L 183.358167 127.561521 
L 184.245618 127.419491 
L 185.133068 126.675918 
L 186.020519 126.297169 
L 186.907969 126.132859 
L 187.79542 126.344512 
L 188.682871 126.141213 
L 189.570321 125.06902 
L 193.120124 117.856082 
L 194.007574 116.678062 
L 194.895025 115.686631 
L 195.782475 115.193701 
L 196.669926 114.380505 
L 197.557376 114.085303 
L 198.444827 114.664566 
L 199.332278 116.168422 
L 201.107179 118.892072 
L 201.994629 120.621506 
L 202.88208 121.754968 
L 204.656981 122.983116 
L 205.544432 122.952482 
L 206.431882 122.751968 
L 207.319333 122.668421 
L 209.094234 122.880074 
L 209.981685 123.450983 
L 211.756586 125.483973 
L 214.418938 127.739756 
L 215.306388 128.021033 
L 216.193839 128.628145 
L 217.08129 128.756251 
L 217.96874 129.121076 
L 218.856191 129.65578 
L 223.293444 131.290527 
L 224.180894 131.485471 
L 225.068345 131.566234 
L 225.955795 131.914348 
L 226.843246 132.454622 
L 227.730697 133.239969 
L 229.505598 135.286884 
L 230.393048 136.476044 
L 231.280499 137.95762 
L 232.16795 138.790311 
L 233.0554 138.937911 
L 233.942851 138.887783 
L 234.830301 139.010319 
L 235.717752 138.879428 
L 236.605203 139.341724 
L 237.492653 139.219188 
L 238.380104 138.64828 
L 240.155005 136.726687 
L 242.817357 133.757964 
L 244.592258 131.808521 
L 247.25461 127.530887 
L 248.14206 126.759465 
L 249.916961 125.659423 
L 250.804412 125.439414 
L 251.691863 125.339157 
L 253.466764 125.634358 
L 254.354214 125.428274 
L 255.241665 124.748754 
L 257.016566 123.654282 
L 257.904017 122.896784 
L 258.791467 122.632217 
L 259.678918 123.230974 
L 260.566369 124.155567 
L 262.34127 125.645498 
L 264.116171 126.801239 
L 266.778523 127.990399 
L 267.665973 127.959765 
L 268.553424 127.154923 
L 269.440875 126.790099 
L 271.215776 126.453124 
L 272.103226 126.689842 
L 272.990677 127.625575 
L 273.878127 127.859508 
L 274.765578 127.767605 
L 275.653029 127.018462 
L 276.540479 125.570305 
L 277.42793 123.267178 
L 278.31538 121.913708 
L 281.865183 117.783674 
L 282.752633 117.034532 
L 283.640084 117.123649 
L 284.527535 117.739116 
L 285.414985 117.783674 
L 287.189886 118.7946 
L 288.077337 119.613366 
L 288.964788 120.237187 
L 289.852238 121.072663 
L 292.51459 124.305952 
L 294.289491 126.845798 
L 295.176942 128.054452 
L 296.064392 129.065377 
L 296.951843 129.229687 
L 297.839293 129.135 
L 298.726744 128.747897 
L 299.614195 128.747897 
L 300.501645 128.912207 
L 301.389096 129.290956 
L 302.276546 129.516534 
L 303.163997 129.332729 
L 304.051448 130.123646 
L 304.938898 131.176345 
L 305.826349 131.917133 
L 306.713799 132.131572 
L 307.60125 132.605008 
L 308.488701 132.488041 
L 309.376151 131.340655 
L 310.263602 130.599867 
L 311.151052 129.577802 
L 312.038503 129.051453 
L 312.925954 128.742327 
L 313.813404 127.569876 
L 314.700855 126.141213 
L 315.588305 125.191556 
L 316.475756 123.72112 
L 318.250657 121.649141 
L 319.138108 120.777461 
L 320.913009 119.460195 
L 321.800459 119.652354 
L 322.68791 120.103511 
L 323.575361 120.337444 
L 324.462811 120.32909 
L 325.350262 120.48226 
L 326.237712 120.510109 
L 327.125163 120.769107 
L 328.012614 120.710623 
L 328.012614 120.710623 
" clip-path="url(#p8960afca4b)" style="fill: none; stroke: #ff0000; stroke-opacity: 0.5; stroke-width: 2; stroke-linecap: square"/>
   </g>
   <g id="line2d_27">
    <path d="M 62.664886 106.286605 
L 63.329918 106.561383 
L 65.990046 109.119795 
L 67.985142 113.338017 
L 69.315205 119.999541 
L 71.310301 126.141213 
L 71.975333 127.470547 
L 74.635461 131.711049 
L 75.300492 131.588513 
L 76.630556 130.158922 
L 77.295588 129.264035 
L 78.625652 126.887571 
L 79.290684 124.897283 
L 79.955716 123.761037 
L 80.620748 122.034388 
L 81.28578 119.854725 
L 81.950811 118.451126 
L 82.615843 117.704768 
L 83.945907 117.41885 
L 84.610939 118.629361 
L 85.275971 119.568807 
L 85.941003 120.25204 
L 86.606035 119.657924 
L 87.271067 118.165208 
L 87.936098 116.323449 
L 89.266162 113.661068 
L 90.596226 111.53339 
L 91.261258 110.946701 
L 91.92629 111.024679 
L 93.256354 112.257469 
L 95.251449 115.577091 
L 97.246545 117.593372 
L 97.911577 117.701055 
L 98.576609 117.355725 
L 99.241641 117.478262 
L 99.906673 117.452269 
L 100.571705 117.0958 
L 101.236736 116.353155 
L 101.901768 116.442272 
L 102.5668 116.345729 
L 103.896864 116.668779 
L 104.561896 116.505397 
L 105.226928 116.639073 
L 105.89196 117.151498 
L 107.222024 119.969835 
L 108.552087 123.968977 
L 109.217119 125.038386 
L 109.882151 125.810736 
L 111.212215 126.605366 
L 111.877247 127.596797 
L 112.542279 129.033815 
L 113.872343 130.715905 
L 114.537374 131.800167 
L 115.202406 133.318875 
L 115.867438 133.994682 
L 116.53247 133.742183 
L 117.862534 132.550238 
L 119.192598 131.157779 
L 119.85763 131.532814 
L 120.522661 131.777887 
L 121.187693 131.187485 
L 121.852725 129.605651 
L 123.182789 127.72676 
L 123.847821 127.128931 
L 124.512853 127.091799 
L 125.177885 126.757608 
L 126.507949 125.25004 
L 127.17298 125.472833 
L 129.168076 128.332015 
L 129.833108 128.937271 
L 130.49814 129.044954 
L 131.163172 128.502824 
L 131.828204 128.146354 
L 132.493236 128.157494 
L 133.823299 126.467977 
L 134.488331 125.821876 
L 136.483427 125.350297 
L 137.148459 125.302025 
L 137.813491 124.607652 
L 138.478523 123.735044 
L 139.143555 123.386001 
L 139.808587 123.538243 
L 140.473618 123.30431 
L 141.13865 122.925561 
L 141.803682 122.026961 
L 142.468714 121.778175 
L 143.798778 121.729903 
L 144.46381 121.217478 
L 145.128842 120.437701 
L 147.123937 118.718479 
L 147.788969 118.885574 
L 148.454001 119.880718 
L 150.449097 125.602796 
L 151.114129 127.002681 
L 152.444193 128.124075 
L 153.109224 128.398853 
L 154.439288 129.795026 
L 155.10432 130.567376 
L 157.099416 133.389426 
L 158.42948 134.722474 
L 159.094512 135.368575 
L 161.089607 137.819303 
L 161.754639 138.365147 
L 162.419671 138.457977 
L 163.084703 139.15235 
L 163.749735 140.125215 
L 164.414767 140.18834 
L 165.079799 140.106649 
L 165.744831 140.322016 
L 166.409862 140.75275 
L 167.074894 141.473115 
L 167.739926 141.528813 
L 168.404958 141.851864 
L 169.06999 141.112932 
L 169.735022 140.140068 
L 170.400054 138.402279 
L 172.39515 134.618504 
L 173.060181 133.927844 
L 173.725213 133.032957 
L 175.055277 132.839869 
L 175.720309 132.412849 
L 176.385341 131.621932 
L 178.380437 129.969547 
L 179.045469 129.917562 
L 180.375532 128.781316 
L 181.040564 127.901281 
L 182.370628 124.273462 
L 183.03566 122.587658 
L 183.700692 120.285459 
L 185.030756 114.489117 
L 185.695787 112.175778 
L 186.360819 110.697915 
L 187.025851 109.803028 
L 187.690883 109.353728 
L 188.355915 109.446558 
L 189.020947 108.911854 
L 189.685979 109.472551 
L 190.351011 110.189203 
L 191.016043 111.206627 
L 192.346106 114.1475 
L 193.011138 116.282604 
L 195.006234 120.181489 
L 196.336298 124.31802 
L 197.666362 128.265177 
L 198.331394 129.234329 
L 198.996425 129.843298 
L 199.661457 130.162635 
L 200.326489 130.314877 
L 200.991521 130.255465 
L 201.656553 129.839584 
L 202.321585 129.134072 
L 202.986617 129.275174 
L 203.651649 128.859293 
L 204.316681 127.723047 
L 204.981713 126.984115 
L 206.976808 128.97069 
L 208.971904 131.881858 
L 210.301968 135.940411 
L 210.967 137.960405 
L 211.632031 139.200622 
L 212.297063 139.557091 
L 212.962095 139.653635 
L 213.627127 139.389996 
L 214.292159 138.502536 
L 214.957191 138.01239 
L 215.622223 137.693053 
L 216.952287 136.033242 
L 217.617319 135.138355 
L 218.28235 133.757036 
L 218.947382 131.800167 
L 219.612414 130.381715 
L 220.942478 129.18977 
L 221.60751 128.28003 
L 222.272542 127.971833 
L 222.937574 128.599368 
L 223.602606 128.287457 
L 224.267638 128.257751 
L 224.932669 127.808451 
L 225.597701 127.177203 
L 226.927765 126.594227 
L 227.592797 126.972975 
L 228.257829 127.693341 
L 230.252925 132.394282 
L 230.917957 133.549095 
L 231.582988 135.613648 
L 232.913052 138.227757 
L 233.578084 138.747609 
L 234.243116 138.302022 
L 235.57318 137.050665 
L 236.238212 135.810448 
L 237.568276 134.30288 
L 238.898339 131.57366 
L 240.228403 129.575945 
L 240.893435 128.837014 
L 242.223499 128.346868 
L 242.888531 128.595654 
L 243.553563 128.034958 
L 244.218594 127.645069 
L 244.883626 126.924704 
L 245.548658 125.673347 
L 246.21369 123.508538 
L 246.878722 120.619649 
L 247.543754 118.859581 
L 248.208786 117.55624 
L 249.53885 114.288602 
L 250.203882 111.09523 
L 251.533945 105.907856 
L 252.864009 100.479123 
L 253.529041 98.314313 
L 254.194073 96.60623 
L 254.859105 95.421712 
L 255.524137 93.546533 
L 256.854201 91.697348 
L 257.519232 91.300033 
L 258.184264 91.292606 
L 258.849296 91.481981 
L 259.514328 92.295177 
L 260.17936 93.995834 
L 262.174456 100.635078 
L 262.839488 102.105515 
L 263.50452 102.536249 
L 265.499615 102.978122 
L 266.164647 103.17121 
L 267.494711 105.714768 
L 268.159743 106.334877 
L 268.824775 107.22605 
L 270.81987 112.591659 
L 271.484902 114.232904 
L 272.149934 116.494257 
L 273.479998 122.387144 
L 274.14503 124.544527 
L 275.475094 127.218048 
L 276.140126 127.775032 
L 276.805157 128.098082 
L 278.135221 130.047525 
L 280.795349 132.004394 
L 282.125413 132.219761 
L 282.790445 131.874431 
L 283.455476 131.336014 
L 284.120508 131.165205 
L 284.78554 131.517962 
L 286.115604 131.874431 
L 286.780636 131.90785 
L 287.445668 131.436271 
L 288.1107 131.46969 
L 288.775732 132.167776 
L 289.440764 133.170346 
L 290.105795 133.426559 
L 292.100891 133.003251 
L 292.765923 132.732186 
L 293.430955 132.683914 
L 294.095987 132.167776 
L 295.426051 130.374289 
L 296.091083 129.423703 
L 296.756114 128.814735 
L 297.421146 128.443412 
L 298.086178 128.506537 
L 298.75121 128.777602 
L 300.081274 128.755323 
L 300.746306 129.015249 
L 302.07637 128.814735 
L 302.741402 128.06095 
L 303.406433 126.917277 
L 304.071465 125.465407 
L 304.736497 123.222619 
L 305.401529 121.670492 
L 308.726689 116.401427 
L 310.056752 114.192059 
L 310.721784 113.323164 
L 311.386816 112.669637 
L 312.051848 112.836732 
L 312.71688 113.141216 
L 313.381912 113.661068 
L 314.046944 114.645072 
L 314.711976 116.241758 
L 315.377008 118.32859 
L 317.372103 125.44684 
L 318.702167 129.531387 
L 320.032231 132.706193 
L 320.697263 133.675345 
L 321.362295 134.429129 
L 322.027327 134.106079 
L 322.692358 133.341155 
L 324.022422 134.722474 
L 324.687454 134.707621 
L 325.352486 134.804165 
L 328.012614 134.733614 
L 328.012614 134.733614 
" clip-path="url(#p8960afca4b)" style="fill: none; stroke: #008000; stroke-opacity: 0.5; stroke-width: 2; stroke-linecap: square"/>
   </g>
   <g id="patch_3">
    <path d="M 49.3975 234.5525 
L 49.3975 11.759062 
" style="fill: none; stroke: #000000; stroke-width: 2; stroke-linejoin: miter; stroke-linecap: square"/>
   </g>
   <g id="patch_4">
    <path d="M 341.28 234.5525 
L 341.28 11.759062 
" style="fill: none; stroke: #000000; stroke-width: 2; stroke-linejoin: miter; stroke-linecap: square"/>
   </g>
   <g id="patch_5">
    <path d="M 49.3975 234.5525 
L 341.28 234.5525 
" style="fill: none; stroke: #000000; stroke-width: 2; stroke-linejoin: miter; stroke-linecap: square"/>
   </g>
   <g id="patch_6">
    <path d="M 49.3975 11.759062 
L 341.28 11.759062 
" style="fill: none; stroke: #000000; stroke-width: 2; stroke-linejoin: miter; stroke-linecap: square"/>
   </g>
   <g id="legend_1">
    <g id="line2d_28">
     <path d="M 245.26125 27.477188 
L 257.26125 27.477188 
L 269.26125 27.477188 
" style="fill: none; stroke: #0000ff; stroke-opacity: 0.5; stroke-width: 2; stroke-linecap: square"/>
    </g>
    <g id="text_15">
     <!-- yz-plane -->
     <g transform="translate(278.86125 31.677188)scale(0.12 -0.12)">
      <defs>
       <path id="DejaVuSans-7a" d="M 353 3500 
L 3084 3500 
L 3084 2975 
L 922 459 
L 3084 459 
L 3084 0 
L 275 0 
L 275 525 
L 2438 3041 
L 353 3041 
L 353 3500 
z
" transform="scale(0.015625)"/>
       <path id="DejaVuSans-2d" d="M 313 2009 
L 1997 2009 
L 1997 1497 
L 313 1497 
L 313 2009 
z
" transform="scale(0.015625)"/>
       <path id="DejaVuSans-70" d="M 1159 525 
L 1159 -1331 
L 581 -1331 
L 581 3500 
L 1159 3500 
L 1159 2969 
Q 1341 3281 1617 3432 
Q 1894 3584 2278 3584 
Q 2916 3584 3314 3078 
Q 3713 2572 3713 1747 
Q 3713 922 3314 415 
Q 2916 -91 2278 -91 
Q 1894 -91 1617 61 
Q 1341 213 1159 525 
z
M 3116 1747 
Q 3116 2381 2855 2742 
Q 2594 3103 2138 3103 
Q 1681 3103 1420 2742 
Q 1159 2381 1159 1747 
Q 1159 1113 1420 752 
Q 1681 391 2138 391 
Q 2594 391 2855 752 
Q 3116 1113 3116 1747 
z
" transform="scale(0.015625)"/>
      </defs>
      <use xlink:href="#DejaVuSans-79"/>
      <use xlink:href="#DejaVuSans-7a" x="59.179688"/>
      <use xlink:href="#DejaVuSans-2d" x="111.669922"/>
      <use xlink:href="#DejaVuSans-70" x="147.753906"/>
      <use xlink:href="#DejaVuSans-6c" x="211.230469"/>
      <use xlink:href="#DejaVuSans-61" x="239.013672"/>
      <use xlink:href="#DejaVuSans-6e" x="300.292969"/>
      <use xlink:href="#DejaVuSans-65" x="363.671875"/>
     </g>
    </g>
    <g id="line2d_29">
     <path d="M 245.26125 45.090938 
L 257.26125 45.090938 
L 269.26125 45.090938 
" style="fill: none; stroke: #ff0000; stroke-opacity: 0.5; stroke-width: 2; stroke-linecap: square"/>
    </g>
    <g id="text_16">
     <!-- xz-plane -->
     <g transform="translate(278.86125 49.290938)scale(0.12 -0.12)">
      <use xlink:href="#DejaVuSans-78"/>
      <use xlink:href="#DejaVuSans-7a" x="59.179688"/>
      <use xlink:href="#DejaVuSans-2d" x="111.669922"/>
      <use xlink:href="#DejaVuSans-70" x="147.753906"/>
      <use xlink:href="#DejaVuSans-6c" x="211.230469"/>
      <use xlink:href="#DejaVuSans-61" x="239.013672"/>
      <use xlink:href="#DejaVuSans-6e" x="300.292969"/>
      <use xlink:href="#DejaVuSans-65" x="363.671875"/>
     </g>
    </g>
    <g id="line2d_30">
     <path d="M 245.26125 62.704687 
L 257.26125 62.704687 
L 269.26125 62.704687 
" style="fill: none; stroke: #008000; stroke-opacity: 0.5; stroke-width: 2; stroke-linecap: square"/>
    </g>
    <g id="text_17">
     <!-- xy-plane -->
     <g transform="translate(278.86125 66.904687)scale(0.12 -0.12)">
      <use xlink:href="#DejaVuSans-78"/>
      <use xlink:href="#DejaVuSans-79" x="59.179688"/>
      <use xlink:href="#DejaVuSans-2d" x="116.609375"/>
      <use xlink:href="#DejaVuSans-70" x="152.693359"/>
      <use xlink:href="#DejaVuSans-6c" x="216.169922"/>
      <use xlink:href="#DejaVuSans-61" x="243.953125"/>
      <use xlink:href="#DejaVuSans-6e" x="305.232422"/>
      <use xlink:href="#DejaVuSans-65" x="368.611328"/>
     </g>
    </g>
   </g>
  </g>
 </g>
 <defs>
  <clipPath id="p8960afca4b">
   <rect x="49.3975" y="11.759062" width="291.8825" height="222.793437"/>
  </clipPath>
 </defs>
</svg>
