<?xml version="1.0" encoding="utf-8" standalone="no"?>
<!DOCTYPE svg PUBLIC "-//W3C//DTD SVG 1.1//EN"
  "http://www.w3.org/Graphics/SVG/1.1/DTD/svg11.dtd">
<svg xmlns:xlink="http://www.w3.org/1999/xlink" width="352.8pt" height="280.8pt" viewBox="0 0 352.8 280.8" xmlns="http://www.w3.org/2000/svg" version="1.1">
 <metadata>
  <rdf:RDF xmlns:dc="http://purl.org/dc/elements/1.1/" xmlns:cc="http://creativecommons.org/ns#" xmlns:rdf="http://www.w3.org/1999/02/22-rdf-syntax-ns#">
   <cc:Work>
    <dc:type rdf:resource="http://purl.org/dc/dcmitype/StillImage"/>
    <dc:date>2022-06-22T19:34:29.327458</dc:date>
    <dc:format>image/svg+xml</dc:format>
    <dc:creator>
     <cc:Agent>
      <dc:title>Matplotlib v3.5.2, https://matplotlib.org/</dc:title>
     </cc:Agent>
    </dc:creator>
   </cc:Work>
  </rdf:RDF>
 </metadata>
 <defs>
  <style type="text/css">*{stroke-linejoin: round; stroke-linecap: butt}</style>
 </defs>
 <g id="figure_1">
  <g id="patch_1">
   <path d="M 0 280.8 
L 352.8 280.8 
L 352.8 0 
L 0 0 
L 0 280.8 
z
" style="fill: none"/>
  </g>
  <g id="axes_1">
   <g id="patch_2">
    <path d="M 49.3975 238.8725 
L 345.6 238.8725 
L 345.6 11.759062 
L 49.3975 11.759062 
z
" style="fill: #ffffff"/>
   </g>
   <g id="matplotlib.axis_1">
    <g id="xtick_1">
     <g id="line2d_1">
      <defs>
       <path id="m77cc9d95e4" d="M 0 0 
L 0 -6 
" style="stroke: #000000; stroke-width: 2"/>
      </defs>
      <g>
       <use xlink:href="#m77cc9d95e4" x="62.86125" y="238.8725" style="fill: #ffffff; stroke: #000000; stroke-width: 2"/>
      </g>
     </g>
     <g id="line2d_2">
      <defs>
       <path id="mc734deda14" d="M 0 0 
L 0 6 
" style="stroke: #000000; stroke-width: 2"/>
      </defs>
      <g>
       <use xlink:href="#mc734deda14" x="62.86125" y="11.759062" style="fill: #ffffff; stroke: #000000; stroke-width: 2"/>
      </g>
     </g>
     <g id="text_1">
      <!-- 0.0 -->
      <g transform="translate(53.319375 251.490625)scale(0.12 -0.12)">
       <defs>
        <path id="DejaVuSans-30" d="M 2034 4250 
Q 1547 4250 1301 3770 
Q 1056 3291 1056 2328 
Q 1056 1369 1301 889 
Q 1547 409 2034 409 
Q 2525 409 2770 889 
Q 3016 1369 3016 2328 
Q 3016 3291 2770 3770 
Q 2525 4250 2034 4250 
z
M 2034 4750 
Q 2819 4750 3233 4129 
Q 3647 3509 3647 2328 
Q 3647 1150 3233 529 
Q 2819 -91 2034 -91 
Q 1250 -91 836 529 
Q 422 1150 422 2328 
Q 422 3509 836 4129 
Q 1250 4750 2034 4750 
z
" transform="scale(0.015625)"/>
        <path id="DejaVuSans-2e" d="M 684 794 
L 1344 794 
L 1344 0 
L 684 0 
L 684 794 
z
" transform="scale(0.015625)"/>
       </defs>
       <use xlink:href="#DejaVuSans-30"/>
       <use xlink:href="#DejaVuSans-2e" x="63.623047"/>
       <use xlink:href="#DejaVuSans-30" x="95.410156"/>
      </g>
     </g>
    </g>
    <g id="xtick_2">
     <g id="line2d_3">
      <g>
       <use xlink:href="#m77cc9d95e4" x="116.71625" y="238.8725" style="fill: #ffffff; stroke: #000000; stroke-width: 2"/>
      </g>
     </g>
     <g id="line2d_4">
      <g>
       <use xlink:href="#mc734deda14" x="116.71625" y="11.759062" style="fill: #ffffff; stroke: #000000; stroke-width: 2"/>
      </g>
     </g>
     <g id="text_2">
      <!-- 0.2 -->
      <g transform="translate(107.174375 251.490625)scale(0.12 -0.12)">
       <defs>
        <path id="DejaVuSans-32" d="M 1228 531 
L 3431 531 
L 3431 0 
L 469 0 
L 469 531 
Q 828 903 1448 1529 
Q 2069 2156 2228 2338 
Q 2531 2678 2651 2914 
Q 2772 3150 2772 3378 
Q 2772 3750 2511 3984 
Q 2250 4219 1831 4219 
Q 1534 4219 1204 4116 
Q 875 4013 500 3803 
L 500 4441 
Q 881 4594 1212 4672 
Q 1544 4750 1819 4750 
Q 2544 4750 2975 4387 
Q 3406 4025 3406 3419 
Q 3406 3131 3298 2873 
Q 3191 2616 2906 2266 
Q 2828 2175 2409 1742 
Q 1991 1309 1228 531 
z
" transform="scale(0.015625)"/>
       </defs>
       <use xlink:href="#DejaVuSans-30"/>
       <use xlink:href="#DejaVuSans-2e" x="63.623047"/>
       <use xlink:href="#DejaVuSans-32" x="95.410156"/>
      </g>
     </g>
    </g>
    <g id="xtick_3">
     <g id="line2d_5">
      <g>
       <use xlink:href="#m77cc9d95e4" x="170.57125" y="238.8725" style="fill: #ffffff; stroke: #000000; stroke-width: 2"/>
      </g>
     </g>
     <g id="line2d_6">
      <g>
       <use xlink:href="#mc734deda14" x="170.57125" y="11.759062" style="fill: #ffffff; stroke: #000000; stroke-width: 2"/>
      </g>
     </g>
     <g id="text_3">
      <!-- 0.4 -->
      <g transform="translate(161.029375 251.490625)scale(0.12 -0.12)">
       <defs>
        <path id="DejaVuSans-34" d="M 2419 4116 
L 825 1625 
L 2419 1625 
L 2419 4116 
z
M 2253 4666 
L 3047 4666 
L 3047 1625 
L 3713 1625 
L 3713 1100 
L 3047 1100 
L 3047 0 
L 2419 0 
L 2419 1100 
L 313 1100 
L 313 1709 
L 2253 4666 
z
" transform="scale(0.015625)"/>
       </defs>
       <use xlink:href="#DejaVuSans-30"/>
       <use xlink:href="#DejaVuSans-2e" x="63.623047"/>
       <use xlink:href="#DejaVuSans-34" x="95.410156"/>
      </g>
     </g>
    </g>
    <g id="xtick_4">
     <g id="line2d_7">
      <g>
       <use xlink:href="#m77cc9d95e4" x="224.42625" y="238.8725" style="fill: #ffffff; stroke: #000000; stroke-width: 2"/>
      </g>
     </g>
     <g id="line2d_8">
      <g>
       <use xlink:href="#mc734deda14" x="224.42625" y="11.759062" style="fill: #ffffff; stroke: #000000; stroke-width: 2"/>
      </g>
     </g>
     <g id="text_4">
      <!-- 0.6 -->
      <g transform="translate(214.884375 251.490625)scale(0.12 -0.12)">
       <defs>
        <path id="DejaVuSans-36" d="M 2113 2584 
Q 1688 2584 1439 2293 
Q 1191 2003 1191 1497 
Q 1191 994 1439 701 
Q 1688 409 2113 409 
Q 2538 409 2786 701 
Q 3034 994 3034 1497 
Q 3034 2003 2786 2293 
Q 2538 2584 2113 2584 
z
M 3366 4563 
L 3366 3988 
Q 3128 4100 2886 4159 
Q 2644 4219 2406 4219 
Q 1781 4219 1451 3797 
Q 1122 3375 1075 2522 
Q 1259 2794 1537 2939 
Q 1816 3084 2150 3084 
Q 2853 3084 3261 2657 
Q 3669 2231 3669 1497 
Q 3669 778 3244 343 
Q 2819 -91 2113 -91 
Q 1303 -91 875 529 
Q 447 1150 447 2328 
Q 447 3434 972 4092 
Q 1497 4750 2381 4750 
Q 2619 4750 2861 4703 
Q 3103 4656 3366 4563 
z
" transform="scale(0.015625)"/>
       </defs>
       <use xlink:href="#DejaVuSans-30"/>
       <use xlink:href="#DejaVuSans-2e" x="63.623047"/>
       <use xlink:href="#DejaVuSans-36" x="95.410156"/>
      </g>
     </g>
    </g>
    <g id="xtick_5">
     <g id="line2d_9">
      <g>
       <use xlink:href="#m77cc9d95e4" x="278.28125" y="238.8725" style="fill: #ffffff; stroke: #000000; stroke-width: 2"/>
      </g>
     </g>
     <g id="line2d_10">
      <g>
       <use xlink:href="#mc734deda14" x="278.28125" y="11.759062" style="fill: #ffffff; stroke: #000000; stroke-width: 2"/>
      </g>
     </g>
     <g id="text_5">
      <!-- 0.8 -->
      <g transform="translate(268.739375 251.490625)scale(0.12 -0.12)">
       <defs>
        <path id="DejaVuSans-38" d="M 2034 2216 
Q 1584 2216 1326 1975 
Q 1069 1734 1069 1313 
Q 1069 891 1326 650 
Q 1584 409 2034 409 
Q 2484 409 2743 651 
Q 3003 894 3003 1313 
Q 3003 1734 2745 1975 
Q 2488 2216 2034 2216 
z
M 1403 2484 
Q 997 2584 770 2862 
Q 544 3141 544 3541 
Q 544 4100 942 4425 
Q 1341 4750 2034 4750 
Q 2731 4750 3128 4425 
Q 3525 4100 3525 3541 
Q 3525 3141 3298 2862 
Q 3072 2584 2669 2484 
Q 3125 2378 3379 2068 
Q 3634 1759 3634 1313 
Q 3634 634 3220 271 
Q 2806 -91 2034 -91 
Q 1263 -91 848 271 
Q 434 634 434 1313 
Q 434 1759 690 2068 
Q 947 2378 1403 2484 
z
M 1172 3481 
Q 1172 3119 1398 2916 
Q 1625 2713 2034 2713 
Q 2441 2713 2670 2916 
Q 2900 3119 2900 3481 
Q 2900 3844 2670 4047 
Q 2441 4250 2034 4250 
Q 1625 4250 1398 4047 
Q 1172 3844 1172 3481 
z
" transform="scale(0.015625)"/>
       </defs>
       <use xlink:href="#DejaVuSans-30"/>
       <use xlink:href="#DejaVuSans-2e" x="63.623047"/>
       <use xlink:href="#DejaVuSans-38" x="95.410156"/>
      </g>
     </g>
    </g>
    <g id="xtick_6">
     <g id="line2d_11">
      <g>
       <use xlink:href="#m77cc9d95e4" x="332.13625" y="238.8725" style="fill: #ffffff; stroke: #000000; stroke-width: 2"/>
      </g>
     </g>
     <g id="line2d_12">
      <g>
       <use xlink:href="#mc734deda14" x="332.13625" y="11.759062" style="fill: #ffffff; stroke: #000000; stroke-width: 2"/>
      </g>
     </g>
     <g id="text_6">
      <!-- 1.0 -->
      <g transform="translate(322.594375 251.490625)scale(0.12 -0.12)">
       <defs>
        <path id="DejaVuSans-31" d="M 794 531 
L 1825 531 
L 1825 4091 
L 703 3866 
L 703 4441 
L 1819 4666 
L 2450 4666 
L 2450 531 
L 3481 531 
L 3481 0 
L 794 0 
L 794 531 
z
" transform="scale(0.015625)"/>
       </defs>
       <use xlink:href="#DejaVuSans-31"/>
       <use xlink:href="#DejaVuSans-2e" x="63.623047"/>
       <use xlink:href="#DejaVuSans-30" x="95.410156"/>
      </g>
     </g>
    </g>
    <g id="text_7">
     <!-- Fractional distance along given axis -->
     <g transform="translate(89.983438 271.104375)scale(0.12 -0.12)">
      <defs>
       <path id="DejaVuSans-46" d="M 628 4666 
L 3309 4666 
L 3309 4134 
L 1259 4134 
L 1259 2759 
L 3109 2759 
L 3109 2228 
L 1259 2228 
L 1259 0 
L 628 0 
L 628 4666 
z
" transform="scale(0.015625)"/>
       <path id="DejaVuSans-72" d="M 2631 2963 
Q 2534 3019 2420 3045 
Q 2306 3072 2169 3072 
Q 1681 3072 1420 2755 
Q 1159 2438 1159 1844 
L 1159 0 
L 581 0 
L 581 3500 
L 1159 3500 
L 1159 2956 
Q 1341 3275 1631 3429 
Q 1922 3584 2338 3584 
Q 2397 3584 2469 3576 
Q 2541 3569 2628 3553 
L 2631 2963 
z
" transform="scale(0.015625)"/>
       <path id="DejaVuSans-61" d="M 2194 1759 
Q 1497 1759 1228 1600 
Q 959 1441 959 1056 
Q 959 750 1161 570 
Q 1363 391 1709 391 
Q 2188 391 2477 730 
Q 2766 1069 2766 1631 
L 2766 1759 
L 2194 1759 
z
M 3341 1997 
L 3341 0 
L 2766 0 
L 2766 531 
Q 2569 213 2275 61 
Q 1981 -91 1556 -91 
Q 1019 -91 701 211 
Q 384 513 384 1019 
Q 384 1609 779 1909 
Q 1175 2209 1959 2209 
L 2766 2209 
L 2766 2266 
Q 2766 2663 2505 2880 
Q 2244 3097 1772 3097 
Q 1472 3097 1187 3025 
Q 903 2953 641 2809 
L 641 3341 
Q 956 3463 1253 3523 
Q 1550 3584 1831 3584 
Q 2591 3584 2966 3190 
Q 3341 2797 3341 1997 
z
" transform="scale(0.015625)"/>
       <path id="DejaVuSans-63" d="M 3122 3366 
L 3122 2828 
Q 2878 2963 2633 3030 
Q 2388 3097 2138 3097 
Q 1578 3097 1268 2742 
Q 959 2388 959 1747 
Q 959 1106 1268 751 
Q 1578 397 2138 397 
Q 2388 397 2633 464 
Q 2878 531 3122 666 
L 3122 134 
Q 2881 22 2623 -34 
Q 2366 -91 2075 -91 
Q 1284 -91 818 406 
Q 353 903 353 1747 
Q 353 2603 823 3093 
Q 1294 3584 2113 3584 
Q 2378 3584 2631 3529 
Q 2884 3475 3122 3366 
z
" transform="scale(0.015625)"/>
       <path id="DejaVuSans-74" d="M 1172 4494 
L 1172 3500 
L 2356 3500 
L 2356 3053 
L 1172 3053 
L 1172 1153 
Q 1172 725 1289 603 
Q 1406 481 1766 481 
L 2356 481 
L 2356 0 
L 1766 0 
Q 1100 0 847 248 
Q 594 497 594 1153 
L 594 3053 
L 172 3053 
L 172 3500 
L 594 3500 
L 594 4494 
L 1172 4494 
z
" transform="scale(0.015625)"/>
       <path id="DejaVuSans-69" d="M 603 3500 
L 1178 3500 
L 1178 0 
L 603 0 
L 603 3500 
z
M 603 4863 
L 1178 4863 
L 1178 4134 
L 603 4134 
L 603 4863 
z
" transform="scale(0.015625)"/>
       <path id="DejaVuSans-6f" d="M 1959 3097 
Q 1497 3097 1228 2736 
Q 959 2375 959 1747 
Q 959 1119 1226 758 
Q 1494 397 1959 397 
Q 2419 397 2687 759 
Q 2956 1122 2956 1747 
Q 2956 2369 2687 2733 
Q 2419 3097 1959 3097 
z
M 1959 3584 
Q 2709 3584 3137 3096 
Q 3566 2609 3566 1747 
Q 3566 888 3137 398 
Q 2709 -91 1959 -91 
Q 1206 -91 779 398 
Q 353 888 353 1747 
Q 353 2609 779 3096 
Q 1206 3584 1959 3584 
z
" transform="scale(0.015625)"/>
       <path id="DejaVuSans-6e" d="M 3513 2113 
L 3513 0 
L 2938 0 
L 2938 2094 
Q 2938 2591 2744 2837 
Q 2550 3084 2163 3084 
Q 1697 3084 1428 2787 
Q 1159 2491 1159 1978 
L 1159 0 
L 581 0 
L 581 3500 
L 1159 3500 
L 1159 2956 
Q 1366 3272 1645 3428 
Q 1925 3584 2291 3584 
Q 2894 3584 3203 3211 
Q 3513 2838 3513 2113 
z
" transform="scale(0.015625)"/>
       <path id="DejaVuSans-6c" d="M 603 4863 
L 1178 4863 
L 1178 0 
L 603 0 
L 603 4863 
z
" transform="scale(0.015625)"/>
       <path id="DejaVuSans-20" transform="scale(0.015625)"/>
       <path id="DejaVuSans-64" d="M 2906 2969 
L 2906 4863 
L 3481 4863 
L 3481 0 
L 2906 0 
L 2906 525 
Q 2725 213 2448 61 
Q 2172 -91 1784 -91 
Q 1150 -91 751 415 
Q 353 922 353 1747 
Q 353 2572 751 3078 
Q 1150 3584 1784 3584 
Q 2172 3584 2448 3432 
Q 2725 3281 2906 2969 
z
M 947 1747 
Q 947 1113 1208 752 
Q 1469 391 1925 391 
Q 2381 391 2643 752 
Q 2906 1113 2906 1747 
Q 2906 2381 2643 2742 
Q 2381 3103 1925 3103 
Q 1469 3103 1208 2742 
Q 947 2381 947 1747 
z
" transform="scale(0.015625)"/>
       <path id="DejaVuSans-73" d="M 2834 3397 
L 2834 2853 
Q 2591 2978 2328 3040 
Q 2066 3103 1784 3103 
Q 1356 3103 1142 2972 
Q 928 2841 928 2578 
Q 928 2378 1081 2264 
Q 1234 2150 1697 2047 
L 1894 2003 
Q 2506 1872 2764 1633 
Q 3022 1394 3022 966 
Q 3022 478 2636 193 
Q 2250 -91 1575 -91 
Q 1294 -91 989 -36 
Q 684 19 347 128 
L 347 722 
Q 666 556 975 473 
Q 1284 391 1588 391 
Q 1994 391 2212 530 
Q 2431 669 2431 922 
Q 2431 1156 2273 1281 
Q 2116 1406 1581 1522 
L 1381 1569 
Q 847 1681 609 1914 
Q 372 2147 372 2553 
Q 372 3047 722 3315 
Q 1072 3584 1716 3584 
Q 2034 3584 2315 3537 
Q 2597 3491 2834 3397 
z
" transform="scale(0.015625)"/>
       <path id="DejaVuSans-65" d="M 3597 1894 
L 3597 1613 
L 953 1613 
Q 991 1019 1311 708 
Q 1631 397 2203 397 
Q 2534 397 2845 478 
Q 3156 559 3463 722 
L 3463 178 
Q 3153 47 2828 -22 
Q 2503 -91 2169 -91 
Q 1331 -91 842 396 
Q 353 884 353 1716 
Q 353 2575 817 3079 
Q 1281 3584 2069 3584 
Q 2775 3584 3186 3129 
Q 3597 2675 3597 1894 
z
M 3022 2063 
Q 3016 2534 2758 2815 
Q 2500 3097 2075 3097 
Q 1594 3097 1305 2825 
Q 1016 2553 972 2059 
L 3022 2063 
z
" transform="scale(0.015625)"/>
       <path id="DejaVuSans-67" d="M 2906 1791 
Q 2906 2416 2648 2759 
Q 2391 3103 1925 3103 
Q 1463 3103 1205 2759 
Q 947 2416 947 1791 
Q 947 1169 1205 825 
Q 1463 481 1925 481 
Q 2391 481 2648 825 
Q 2906 1169 2906 1791 
z
M 3481 434 
Q 3481 -459 3084 -895 
Q 2688 -1331 1869 -1331 
Q 1566 -1331 1297 -1286 
Q 1028 -1241 775 -1147 
L 775 -588 
Q 1028 -725 1275 -790 
Q 1522 -856 1778 -856 
Q 2344 -856 2625 -561 
Q 2906 -266 2906 331 
L 2906 616 
Q 2728 306 2450 153 
Q 2172 0 1784 0 
Q 1141 0 747 490 
Q 353 981 353 1791 
Q 353 2603 747 3093 
Q 1141 3584 1784 3584 
Q 2172 3584 2450 3431 
Q 2728 3278 2906 2969 
L 2906 3500 
L 3481 3500 
L 3481 434 
z
" transform="scale(0.015625)"/>
       <path id="DejaVuSans-76" d="M 191 3500 
L 800 3500 
L 1894 563 
L 2988 3500 
L 3597 3500 
L 2284 0 
L 1503 0 
L 191 3500 
z
" transform="scale(0.015625)"/>
       <path id="DejaVuSans-78" d="M 3513 3500 
L 2247 1797 
L 3578 0 
L 2900 0 
L 1881 1375 
L 863 0 
L 184 0 
L 1544 1831 
L 300 3500 
L 978 3500 
L 1906 2253 
L 2834 3500 
L 3513 3500 
z
" transform="scale(0.015625)"/>
      </defs>
      <use xlink:href="#DejaVuSans-46"/>
      <use xlink:href="#DejaVuSans-72" x="50.269531"/>
      <use xlink:href="#DejaVuSans-61" x="91.382812"/>
      <use xlink:href="#DejaVuSans-63" x="152.662109"/>
      <use xlink:href="#DejaVuSans-74" x="207.642578"/>
      <use xlink:href="#DejaVuSans-69" x="246.851562"/>
      <use xlink:href="#DejaVuSans-6f" x="274.634766"/>
      <use xlink:href="#DejaVuSans-6e" x="335.816406"/>
      <use xlink:href="#DejaVuSans-61" x="399.195312"/>
      <use xlink:href="#DejaVuSans-6c" x="460.474609"/>
      <use xlink:href="#DejaVuSans-20" x="488.257812"/>
      <use xlink:href="#DejaVuSans-64" x="520.044922"/>
      <use xlink:href="#DejaVuSans-69" x="583.521484"/>
      <use xlink:href="#DejaVuSans-73" x="611.304688"/>
      <use xlink:href="#DejaVuSans-74" x="663.404297"/>
      <use xlink:href="#DejaVuSans-61" x="702.613281"/>
      <use xlink:href="#DejaVuSans-6e" x="763.892578"/>
      <use xlink:href="#DejaVuSans-63" x="827.271484"/>
      <use xlink:href="#DejaVuSans-65" x="882.251953"/>
      <use xlink:href="#DejaVuSans-20" x="943.775391"/>
      <use xlink:href="#DejaVuSans-61" x="975.5625"/>
      <use xlink:href="#DejaVuSans-6c" x="1036.841797"/>
      <use xlink:href="#DejaVuSans-6f" x="1064.625"/>
      <use xlink:href="#DejaVuSans-6e" x="1125.806641"/>
      <use xlink:href="#DejaVuSans-67" x="1189.185547"/>
      <use xlink:href="#DejaVuSans-20" x="1252.662109"/>
      <use xlink:href="#DejaVuSans-67" x="1284.449219"/>
      <use xlink:href="#DejaVuSans-69" x="1347.925781"/>
      <use xlink:href="#DejaVuSans-76" x="1375.708984"/>
      <use xlink:href="#DejaVuSans-65" x="1434.888672"/>
      <use xlink:href="#DejaVuSans-6e" x="1496.412109"/>
      <use xlink:href="#DejaVuSans-20" x="1559.791016"/>
      <use xlink:href="#DejaVuSans-61" x="1591.578125"/>
      <use xlink:href="#DejaVuSans-78" x="1652.857422"/>
      <use xlink:href="#DejaVuSans-69" x="1712.037109"/>
      <use xlink:href="#DejaVuSans-73" x="1739.820312"/>
     </g>
    </g>
   </g>
   <g id="matplotlib.axis_2">
    <g id="ytick_1">
     <g id="line2d_13">
      <defs>
       <path id="mc3ce60aadb" d="M 0 0 
L 6 0 
" style="stroke: #000000; stroke-width: 2"/>
      </defs>
      <g>
       <use xlink:href="#mc3ce60aadb" x="49.3975" y="238.8725" style="fill: #ffffff; stroke: #000000; stroke-width: 2"/>
      </g>
     </g>
     <g id="line2d_14">
      <defs>
       <path id="m7d57d6e75a" d="M 0 0 
L -6 0 
" style="stroke: #000000; stroke-width: 2"/>
      </defs>
      <g>
       <use xlink:href="#m7d57d6e75a" x="345.6" y="238.8725" style="fill: #ffffff; stroke: #000000; stroke-width: 2"/>
      </g>
     </g>
     <g id="text_8">
      <!-- 0.0 -->
      <g transform="translate(26.81375 243.431562)scale(0.12 -0.12)">
       <use xlink:href="#DejaVuSans-30"/>
       <use xlink:href="#DejaVuSans-2e" x="63.623047"/>
       <use xlink:href="#DejaVuSans-30" x="95.410156"/>
      </g>
     </g>
    </g>
    <g id="ytick_2">
     <g id="line2d_15">
      <g>
       <use xlink:href="#mc3ce60aadb" x="49.3975" y="193.449812" style="fill: #ffffff; stroke: #000000; stroke-width: 2"/>
      </g>
     </g>
     <g id="line2d_16">
      <g>
       <use xlink:href="#m7d57d6e75a" x="345.6" y="193.449812" style="fill: #ffffff; stroke: #000000; stroke-width: 2"/>
      </g>
     </g>
     <g id="text_9">
      <!-- 0.2 -->
      <g transform="translate(26.81375 198.008875)scale(0.12 -0.12)">
       <use xlink:href="#DejaVuSans-30"/>
       <use xlink:href="#DejaVuSans-2e" x="63.623047"/>
       <use xlink:href="#DejaVuSans-32" x="95.410156"/>
      </g>
     </g>
    </g>
    <g id="ytick_3">
     <g id="line2d_17">
      <g>
       <use xlink:href="#mc3ce60aadb" x="49.3975" y="148.027125" style="fill: #ffffff; stroke: #000000; stroke-width: 2"/>
      </g>
     </g>
     <g id="line2d_18">
      <g>
       <use xlink:href="#m7d57d6e75a" x="345.6" y="148.027125" style="fill: #ffffff; stroke: #000000; stroke-width: 2"/>
      </g>
     </g>
     <g id="text_10">
      <!-- 0.4 -->
      <g transform="translate(26.81375 152.586187)scale(0.12 -0.12)">
       <use xlink:href="#DejaVuSans-30"/>
       <use xlink:href="#DejaVuSans-2e" x="63.623047"/>
       <use xlink:href="#DejaVuSans-34" x="95.410156"/>
      </g>
     </g>
    </g>
    <g id="ytick_4">
     <g id="line2d_19">
      <g>
       <use xlink:href="#mc3ce60aadb" x="49.3975" y="102.604437" style="fill: #ffffff; stroke: #000000; stroke-width: 2"/>
      </g>
     </g>
     <g id="line2d_20">
      <g>
       <use xlink:href="#m7d57d6e75a" x="345.6" y="102.604437" style="fill: #ffffff; stroke: #000000; stroke-width: 2"/>
      </g>
     </g>
     <g id="text_11">
      <!-- 0.6 -->
      <g transform="translate(26.81375 107.1635)scale(0.12 -0.12)">
       <use xlink:href="#DejaVuSans-30"/>
       <use xlink:href="#DejaVuSans-2e" x="63.623047"/>
       <use xlink:href="#DejaVuSans-36" x="95.410156"/>
      </g>
     </g>
    </g>
    <g id="ytick_5">
     <g id="line2d_21">
      <g>
       <use xlink:href="#mc3ce60aadb" x="49.3975" y="57.18175" style="fill: #ffffff; stroke: #000000; stroke-width: 2"/>
      </g>
     </g>
     <g id="line2d_22">
      <g>
       <use xlink:href="#m7d57d6e75a" x="345.6" y="57.18175" style="fill: #ffffff; stroke: #000000; stroke-width: 2"/>
      </g>
     </g>
     <g id="text_12">
      <!-- 0.8 -->
      <g transform="translate(26.81375 61.740812)scale(0.12 -0.12)">
       <use xlink:href="#DejaVuSans-30"/>
       <use xlink:href="#DejaVuSans-2e" x="63.623047"/>
       <use xlink:href="#DejaVuSans-38" x="95.410156"/>
      </g>
     </g>
    </g>
    <g id="ytick_6">
     <g id="line2d_23">
      <g>
       <use xlink:href="#mc3ce60aadb" x="49.3975" y="11.759062" style="fill: #ffffff; stroke: #000000; stroke-width: 2"/>
      </g>
     </g>
     <g id="line2d_24">
      <g>
       <use xlink:href="#m7d57d6e75a" x="345.6" y="11.759062" style="fill: #ffffff; stroke: #000000; stroke-width: 2"/>
      </g>
     </g>
     <g id="text_13">
      <!-- 1.0 -->
      <g transform="translate(26.81375 16.318125)scale(0.12 -0.12)">
       <use xlink:href="#DejaVuSans-31"/>
       <use xlink:href="#DejaVuSans-2e" x="63.623047"/>
       <use xlink:href="#DejaVuSans-30" x="95.410156"/>
      </g>
     </g>
    </g>
    <g id="text_14">
     <!-- Porosity of slice -->
     <g transform="translate(16.318125 172.133594)rotate(-90)scale(0.12 -0.12)">
      <defs>
       <path id="DejaVuSans-50" d="M 1259 4147 
L 1259 2394 
L 2053 2394 
Q 2494 2394 2734 2622 
Q 2975 2850 2975 3272 
Q 2975 3691 2734 3919 
Q 2494 4147 2053 4147 
L 1259 4147 
z
M 628 4666 
L 2053 4666 
Q 2838 4666 3239 4311 
Q 3641 3956 3641 3272 
Q 3641 2581 3239 2228 
Q 2838 1875 2053 1875 
L 1259 1875 
L 1259 0 
L 628 0 
L 628 4666 
z
" transform="scale(0.015625)"/>
       <path id="DejaVuSans-79" d="M 2059 -325 
Q 1816 -950 1584 -1140 
Q 1353 -1331 966 -1331 
L 506 -1331 
L 506 -850 
L 844 -850 
Q 1081 -850 1212 -737 
Q 1344 -625 1503 -206 
L 1606 56 
L 191 3500 
L 800 3500 
L 1894 763 
L 2988 3500 
L 3597 3500 
L 2059 -325 
z
" transform="scale(0.015625)"/>
       <path id="DejaVuSans-66" d="M 2375 4863 
L 2375 4384 
L 1825 4384 
Q 1516 4384 1395 4259 
Q 1275 4134 1275 3809 
L 1275 3500 
L 2222 3500 
L 2222 3053 
L 1275 3053 
L 1275 0 
L 697 0 
L 697 3053 
L 147 3053 
L 147 3500 
L 697 3500 
L 697 3744 
Q 697 4328 969 4595 
Q 1241 4863 1831 4863 
L 2375 4863 
z
" transform="scale(0.015625)"/>
      </defs>
      <use xlink:href="#DejaVuSans-50"/>
      <use xlink:href="#DejaVuSans-6f" x="56.677734"/>
      <use xlink:href="#DejaVuSans-72" x="117.859375"/>
      <use xlink:href="#DejaVuSans-6f" x="156.722656"/>
      <use xlink:href="#DejaVuSans-73" x="217.904297"/>
      <use xlink:href="#DejaVuSans-69" x="270.003906"/>
      <use xlink:href="#DejaVuSans-74" x="297.787109"/>
      <use xlink:href="#DejaVuSans-79" x="336.996094"/>
      <use xlink:href="#DejaVuSans-20" x="396.175781"/>
      <use xlink:href="#DejaVuSans-6f" x="427.962891"/>
      <use xlink:href="#DejaVuSans-66" x="489.144531"/>
      <use xlink:href="#DejaVuSans-20" x="524.349609"/>
      <use xlink:href="#DejaVuSans-73" x="556.136719"/>
      <use xlink:href="#DejaVuSans-6c" x="608.236328"/>
      <use xlink:href="#DejaVuSans-69" x="636.019531"/>
      <use xlink:href="#DejaVuSans-63" x="663.802734"/>
      <use xlink:href="#DejaVuSans-65" x="718.783203"/>
     </g>
    </g>
   </g>
   <g id="line2d_25">
    <path d="M 62.86125 120.724305 
L 64.214391 120.68456 
L 65.567531 120.531258 
L 66.920672 120.14138 
L 69.626954 118.799518 
L 70.980094 118.443707 
L 72.333235 118.233627 
L 75.039516 118.341506 
L 77.745798 117.48226 
L 79.098938 117.629884 
L 80.452079 117.499294 
L 81.80522 116.956114 
L 83.158361 116.246385 
L 84.511501 115.680494 
L 85.864642 115.406065 
L 87.217783 115.493125 
L 88.570923 115.985204 
L 89.924064 117.26461 
L 92.630345 120.222762 
L 99.396049 125.97441 
L 102.10233 128.913637 
L 103.455471 130.054882 
L 104.808612 130.53939 
L 106.161753 130.609417 
L 108.868034 129.547662 
L 111.574315 129.736923 
L 112.927456 129.929969 
L 115.633737 129.331904 
L 116.986878 129.159676 
L 118.340019 129.282696 
L 119.69316 129.659326 
L 123.752582 131.674957 
L 125.105722 131.67685 
L 126.458863 131.186664 
L 127.812004 131.145026 
L 129.165144 130.363377 
L 130.518285 129.716104 
L 131.871426 129.895902 
L 133.224567 130.229002 
L 134.577707 130.713511 
L 135.930848 131.326717 
L 137.283989 131.58222 
L 141.343411 131.729843 
L 142.696552 131.83583 
L 144.049692 132.157574 
L 146.755974 133.399127 
L 148.109114 133.862817 
L 149.462255 133.442657 
L 150.815396 132.123507 
L 152.168536 131.177201 
L 153.521677 129.875084 
L 156.227959 128.215263 
L 157.581099 127.933264 
L 158.93424 127.378728 
L 160.287381 126.207201 
L 161.640521 124.469784 
L 162.993662 122.404944 
L 165.699943 119.319986 
L 167.053084 118.095467 
L 168.406225 117.459549 
L 169.759366 117.376274 
L 171.112506 117.665844 
L 172.465647 118.347184 
L 173.818788 118.767344 
L 175.171928 119.628482 
L 176.525069 120.077031 
L 177.87821 120.722412 
L 180.584491 122.368984 
L 181.937632 123.731665 
L 183.290773 124.36569 
L 187.350195 128.567289 
L 188.703335 129.867513 
L 190.056476 131.006865 
L 191.409617 131.533012 
L 192.762758 131.55383 
L 194.115898 131.355106 
L 196.82218 131.406207 
L 198.17532 131.572756 
L 199.528461 132.163251 
L 200.881602 133.187154 
L 202.234742 133.758723 
L 203.587883 133.612992 
L 204.941024 133.296926 
L 206.294165 132.636404 
L 207.647305 132.110258 
L 210.353587 131.678743 
L 213.059868 130.280102 
L 214.413009 129.880761 
L 217.11929 130.064345 
L 218.472431 130.007566 
L 219.825572 130.087056 
L 222.531853 131.018221 
L 226.591275 133.045209 
L 229.297557 133.175799 
L 232.003838 132.642082 
L 234.710119 132.528526 
L 237.416401 131.00308 
L 238.769541 130.007566 
L 241.475823 128.552148 
L 244.182104 126.258302 
L 245.535245 124.992145 
L 246.888386 123.917141 
L 250.947808 121.704678 
L 253.654089 120.741338 
L 255.00723 120.699701 
L 257.713511 121.695215 
L 259.066652 122.238394 
L 260.419793 123.595397 
L 264.479215 126.657643 
L 265.832356 127.183789 
L 267.185496 127.255709 
L 268.538637 126.099323 
L 269.891778 125.179513 
L 271.244918 124.660938 
L 272.598059 124.738535 
L 273.9512 124.501958 
L 275.30434 124.543596 
L 276.657481 124.197248 
L 279.363763 122.878097 
L 282.070044 121.560839 
L 283.423185 120.818935 
L 284.776325 120.309823 
L 286.129466 120.120561 
L 287.482607 119.734469 
L 290.188888 117.964876 
L 291.542029 117.673414 
L 292.89517 117.853212 
L 294.24831 118.233627 
L 295.601451 118.752203 
L 296.954592 118.273372 
L 301.014014 117.732085 
L 302.367155 118.06897 
L 303.720295 118.833585 
L 305.073436 120.160306 
L 309.132858 123.044647 
L 311.839139 124.259704 
L 317.251702 123.813047 
L 319.957984 124.984574 
L 321.311124 125.637525 
L 322.664265 126.019833 
L 324.017406 126.277228 
L 326.723687 127.157293 
L 328.076828 127.403332 
L 332.13625 127.405225 
L 332.13625 127.405225 
" clip-path="url(#pacbeb94416)" style="fill: none; stroke: #0000ff; stroke-opacity: 0.5; stroke-width: 2; stroke-linecap: square"/>
   </g>
   <g id="line2d_26">
    <path d="M 62.86125 122.661393 
L 63.761835 122.581903 
L 64.662421 122.269622 
L 67.364176 120.654278 
L 69.165347 119.161007 
L 70.065932 119.064484 
L 71.867103 118.343399 
L 72.767688 117.568374 
L 74.568859 115.212072 
L 76.370029 114.37743 
L 77.270615 114.045277 
L 78.1712 114.065149 
L 79.97237 115.220589 
L 80.872956 116.370351 
L 81.773541 117.139697 
L 82.674126 117.733031 
L 83.574712 118.794787 
L 85.375882 119.904804 
L 86.276467 120.168823 
L 87.177053 120.305091 
L 88.077638 120.279541 
L 88.978223 119.785569 
L 89.878809 118.860082 
L 90.779394 117.517274 
L 91.679979 116.637209 
L 92.580564 116.265311 
L 94.381735 116.075103 
L 96.182906 117.537146 
L 97.083491 118.618774 
L 98.884661 120.234118 
L 100.685832 122.187294 
L 102.487003 123.56133 
L 103.387588 124.554951 
L 105.188758 127.913391 
L 106.089344 129.25336 
L 106.989929 129.764366 
L 107.890514 130.019868 
L 108.791099 130.034063 
L 109.691685 129.199421 
L 110.59227 128.875784 
L 112.393441 127.845257 
L 115.995782 123.320022 
L 116.896367 122.238394 
L 117.796952 121.625188 
L 119.598123 120.095011 
L 120.498708 120.060944 
L 121.399293 120.384581 
L 122.299879 121.048888 
L 123.200464 122.340595 
L 124.101049 124.225637 
L 125.001635 125.733102 
L 125.90222 126.740918 
L 126.802805 127.47052 
L 127.70339 127.569882 
L 129.504561 127.388191 
L 131.305732 125.707552 
L 134.908073 125.60819 
L 135.808658 126.105 
L 136.709243 126.334953 
L 138.510414 127.853774 
L 139.410999 129.031925 
L 141.21217 132.989377 
L 142.112755 134.618915 
L 143.01334 135.680671 
L 143.913926 136.441501 
L 144.814511 136.807721 
L 145.715096 137.744564 
L 146.615681 138.868776 
L 147.516267 139.567149 
L 148.416852 139.896464 
L 149.317437 140.450053 
L 151.118608 141.940485 
L 152.019193 142.414584 
L 152.919778 143.118636 
L 153.820364 142.863133 
L 154.720949 142.979529 
L 155.621534 141.798539 
L 156.52212 140.288235 
L 157.422705 139.030594 
L 159.223875 135.640926 
L 161.025046 131.283187 
L 161.925631 129.207938 
L 162.826217 127.643694 
L 163.726802 125.690518 
L 164.627387 124.143308 
L 166.428558 120.424326 
L 169.130314 115.149616 
L 170.030899 113.210635 
L 170.931484 111.70317 
L 173.63324 108.273757 
L 174.533825 108.84154 
L 176.334996 112.458322 
L 178.136166 115.566937 
L 179.036752 116.935295 
L 179.937337 118.087896 
L 182.639093 120.793385 
L 183.539678 121.747261 
L 185.340849 124.083691 
L 188.042605 126.686979 
L 188.94319 127.107138 
L 190.74436 127.132689 
L 191.644946 126.931126 
L 192.545531 126.161779 
L 193.446116 125.060279 
L 194.346702 123.280277 
L 196.147872 120.620211 
L 197.048457 119.91332 
L 197.949043 119.532905 
L 198.849628 119.623751 
L 199.750213 119.975777 
L 200.650798 119.91332 
L 201.551384 120.418648 
L 203.352554 120.983592 
L 204.25314 120.742284 
L 205.153725 120.830291 
L 206.05431 121.034693 
L 206.954895 121.051726 
L 207.855481 120.85868 
L 208.756066 120.279541 
L 210.557237 120.566271 
L 211.457822 120.296574 
L 213.258992 120.577627 
L 214.159578 121.239095 
L 215.060163 121.54002 
L 216.861334 121.613832 
L 218.662504 121.469047 
L 219.563089 122.002764 
L 221.36426 124.353388 
L 222.264845 125.34417 
L 224.066016 128.23135 
L 224.966601 128.901335 
L 225.867186 128.70261 
L 226.767772 129.12277 
L 227.668357 130.204398 
L 228.568942 131.584112 
L 229.469528 132.421593 
L 230.370113 132.373331 
L 231.270698 131.507461 
L 233.071869 128.960952 
L 235.773625 123.297311 
L 236.67421 122.212844 
L 238.47538 120.404453 
L 239.375966 119.053128 
L 240.276551 117.940272 
L 242.978307 115.379568 
L 243.878892 114.908308 
L 244.779477 114.647128 
L 245.680063 114.547765 
L 246.580648 114.808946 
L 248.381819 114.868563 
L 249.282404 114.184384 
L 250.182989 113.803969 
L 251.083574 112.784797 
L 251.98416 112.146041 
L 253.78533 111.961511 
L 255.586501 112.554845 
L 256.487086 113.38097 
L 257.387671 114.715262 
L 259.188842 118.442761 
L 260.089427 119.629429 
L 261.890598 123.734504 
L 263.691768 127.240568 
L 265.492939 129.93754 
L 266.393524 131.149758 
L 267.29411 131.998594 
L 268.194695 131.995755 
L 269.09528 131.623857 
L 269.995865 130.996456 
L 270.896451 130.133425 
L 271.797036 129.514541 
L 272.697621 128.708288 
L 273.598207 127.598271 
L 274.498792 126.105 
L 276.299962 125.747297 
L 277.200548 125.770008 
L 279.001718 127.141206 
L 279.902304 127.450648 
L 280.802889 127.569882 
L 281.703474 126.86583 
L 283.504645 126.454187 
L 284.40523 126.669945 
L 285.305815 126.556388 
L 287.106986 127.419419 
L 289.808742 130.207237 
L 290.709327 132.001433 
L 292.510497 133.599744 
L 293.411083 133.642328 
L 294.311668 133.491865 
L 295.212253 133.903508 
L 296.112839 134.772217 
L 298.814594 136.228582 
L 300.615765 136.634547 
L 302.416936 136.438662 
L 303.317521 136.637386 
L 305.118691 138.536622 
L 306.019277 138.601917 
L 306.919862 138.244214 
L 307.820447 137.622491 
L 308.721033 137.321565 
L 309.621618 136.560735 
L 311.422788 136.980895 
L 312.323374 136.827594 
L 313.223959 136.830433 
L 314.124544 137.375505 
L 315.02513 138.573528 
L 316.8263 140.092349 
L 317.726885 141.307406 
L 318.627471 141.787183 
L 321.329227 139.351392 
L 322.229812 138.877292 
L 323.130397 139.286097 
L 324.030982 139.161184 
L 324.931568 138.820514 
L 325.832153 138.085234 
L 328.533909 133.324369 
L 329.434494 131.691991 
L 330.335079 130.559263 
L 331.235665 129.741654 
L 332.13625 129.290266 
L 332.13625 129.290266 
" clip-path="url(#pacbeb94416)" style="fill: none; stroke: #ff0000; stroke-opacity: 0.5; stroke-width: 2; stroke-linecap: square"/>
   </g>
   <g id="line2d_27">
    <path d="M 62.86125 120.478265 
L 63.536125 120.656171 
L 64.210999 120.993055 
L 65.560749 122.132408 
L 66.910498 124.051516 
L 67.585373 124.36569 
L 68.260247 124.956185 
L 69.609997 125.853283 
L 70.284872 126.118249 
L 70.959746 126.216665 
L 71.634621 125.853283 
L 72.309496 126.069041 
L 72.98437 126.13339 
L 73.659245 126.587616 
L 74.33412 126.405926 
L 75.008994 125.463405 
L 77.033618 120.887069 
L 77.708493 118.456955 
L 78.383368 116.560558 
L 79.058242 115.459058 
L 79.733117 114.573316 
L 81.082867 114.732295 
L 81.757741 115.364427 
L 82.432616 117.071563 
L 83.782365 118.918753 
L 84.45724 119.410832 
L 85.132115 119.687153 
L 85.806989 120.190588 
L 86.481864 120.14138 
L 87.156739 119.865059 
L 87.831613 118.392607 
L 88.506488 118.422888 
L 89.856237 120.652385 
L 91.880862 123.544296 
L 92.555736 124.554951 
L 93.905486 126.0539 
L 94.58036 126.424852 
L 95.255235 127.034273 
L 95.93011 127.450648 
L 96.604984 127.639909 
L 97.279859 126.966139 
L 97.954734 127.125118 
L 98.629608 128.00329 
L 99.304483 128.313679 
L 99.979358 128.135773 
L 101.329107 126.553549 
L 105.378355 123.124137 
L 106.05323 122.268676 
L 106.728105 120.777298 
L 107.402979 120.478265 
L 108.077854 121.057404 
L 108.752729 122.242179 
L 110.102478 124.157503 
L 112.127102 127.333306 
L 112.801977 127.272742 
L 114.151726 126.352933 
L 114.826601 125.21358 
L 115.501476 124.354334 
L 116.851225 122.151334 
L 117.5261 121.674396 
L 118.200974 121.893939 
L 118.875849 121.178531 
L 120.225598 121.110397 
L 120.900473 120.818935 
L 121.575348 120.357138 
L 122.250222 119.478966 
L 125.624596 112.665563 
L 126.974345 109.546538 
L 127.64922 109.073385 
L 128.998969 111.329379 
L 130.348719 113.38097 
L 131.023593 114.611168 
L 132.373343 117.408448 
L 133.048217 118.244983 
L 133.723092 118.093574 
L 134.397967 118.343399 
L 135.072841 118.892256 
L 135.747716 119.289705 
L 136.422591 119.149651 
L 137.097466 118.797626 
L 137.77234 118.086003 
L 139.12209 115.82244 
L 139.796964 115.599111 
L 140.471839 115.099462 
L 142.496463 114.637664 
L 143.171338 114.656591 
L 143.846212 114.883704 
L 144.521087 114.948053 
L 145.195962 114.834496 
L 145.870836 114.56196 
L 147.220586 115.572615 
L 147.895461 115.621823 
L 148.570335 116.730893 
L 150.594959 119.543315 
L 153.294458 125.792719 
L 153.969333 127.344661 
L 154.644207 128.396954 
L 155.319082 128.484014 
L 155.993957 127.772392 
L 157.343706 125.164372 
L 158.693456 123.77898 
L 159.36833 123.635142 
L 160.043205 124.327838 
L 160.71808 125.739726 
L 161.392954 126.81473 
L 162.067829 127.643694 
L 162.742704 128.056283 
L 163.417578 128.680845 
L 164.092453 128.998804 
L 164.767328 129.509809 
L 165.442202 130.61131 
L 166.117077 131.455415 
L 166.791952 131.727951 
L 167.466826 131.72038 
L 168.816576 130.524249 
L 169.491451 130.721081 
L 170.166325 130.395552 
L 170.8412 129.926184 
L 171.516075 130.138157 
L 172.190949 129.85048 
L 173.540699 129.907258 
L 174.215573 130.263069 
L 176.240197 135.195216 
L 176.915072 136.1983 
L 178.264821 137.065116 
L 179.614571 137.231666 
L 180.289445 137.049976 
L 181.639195 138.321811 
L 182.988944 141.164514 
L 183.663819 141.9367 
L 184.338694 142.281155 
L 185.013568 142.224377 
L 185.688443 142.02376 
L 186.363318 141.18344 
L 187.038192 140.108436 
L 187.713067 138.723045 
L 189.062816 135.585094 
L 189.737691 135.021095 
L 191.762315 132.454714 
L 193.112065 129.721782 
L 195.811563 121.220169 
L 196.486438 119.391906 
L 197.161313 118.256339 
L 197.836187 117.908098 
L 198.511062 117.870246 
L 199.185937 118.02544 
L 200.535686 119.425973 
L 201.885435 121.110397 
L 202.56031 122.09077 
L 203.235185 122.791037 
L 203.91006 123.794121 
L 204.584934 124.437609 
L 205.259809 125.664022 
L 207.284433 130.312277 
L 208.634182 134.464668 
L 209.309057 136.016609 
L 209.983932 136.709305 
L 210.658806 137.685893 
L 211.333681 138.333166 
L 212.008556 138.261247 
L 212.68343 137.250592 
L 213.358305 137.099183 
L 214.708055 137.867584 
L 216.057804 137.579907 
L 217.407553 138.045489 
L 218.757303 137.587477 
L 220.107052 136.588178 
L 221.456801 135.410974 
L 225.506049 140.070584 
L 226.180924 140.384758 
L 227.530674 139.529297 
L 228.205548 138.06063 
L 230.905047 130.986047 
L 232.254796 128.370457 
L 233.604546 124.297556 
L 234.954295 121.538128 
L 235.62917 119.834777 
L 236.978919 117.499294 
L 238.328669 115.894359 
L 239.003543 115.300079 
L 239.678418 115.924641 
L 240.353293 117.294892 
L 241.028167 119.369194 
L 242.377917 121.632758 
L 243.052791 122.715332 
L 243.727666 123.355035 
L 244.402541 123.790336 
L 245.077415 123.854685 
L 245.75229 123.782766 
L 246.427165 123.143063 
L 247.102039 122.688836 
L 247.776914 122.738044 
L 248.451789 123.461022 
L 249.126664 123.725987 
L 250.476413 125.402841 
L 251.826162 127.038058 
L 252.501037 127.109977 
L 253.175912 127.57556 
L 253.850786 128.287182 
L 254.525661 128.805758 
L 255.200536 129.021516 
L 255.87541 128.767905 
L 257.22516 127.098622 
L 257.900034 126.114464 
L 258.574909 125.342278 
L 259.249784 124.963755 
L 260.599533 123.506444 
L 261.949283 122.798607 
L 263.299032 123.067358 
L 263.973907 123.056003 
L 264.648781 122.571494 
L 265.323656 121.825805 
L 265.998531 120.724305 
L 266.673405 120.024038 
L 268.023155 117.768045 
L 268.698029 116.889873 
L 269.372904 116.795242 
L 270.047779 116.3448 
L 270.722654 115.565044 
L 271.397528 115.197878 
L 272.072403 114.985905 
L 272.747278 114.48247 
L 274.097027 112.737482 
L 274.771902 111.965296 
L 276.121651 112.62014 
L 276.796526 113.100864 
L 277.4714 113.399896 
L 278.146275 113.948754 
L 278.82115 114.085022 
L 279.496024 114.64902 
L 280.170899 115.413635 
L 281.520648 119.210215 
L 283.545273 122.151334 
L 284.220147 122.866741 
L 285.569897 123.68435 
L 286.244771 124.324053 
L 286.919646 124.589018 
L 287.594521 124.691219 
L 288.94427 126.008477 
L 289.619145 126.364288 
L 290.294019 126.171242 
L 290.968894 126.148531 
L 291.643769 126.739025 
L 292.318643 127.931371 
L 294.343268 133.170121 
L 295.018142 134.93025 
L 296.367892 136.406487 
L 297.042766 137.182458 
L 297.717641 137.031049 
L 298.392516 136.542756 
L 299.06739 135.789496 
L 300.41714 134.75613 
L 301.766889 133.40859 
L 303.791513 129.490883 
L 305.141263 125.13409 
L 305.816137 123.279331 
L 307.165887 120.584251 
L 307.840761 119.834777 
L 308.515636 119.5471 
L 309.190511 119.766643 
L 310.54026 120.898425 
L 311.215135 121.144464 
L 311.890009 122.272461 
L 312.564884 123.892537 
L 313.239759 125.217365 
L 313.914633 128.113062 
L 315.264383 132.469855 
L 315.939258 133.870387 
L 316.614132 134.279192 
L 317.289007 134.048293 
L 317.963882 133.223114 
L 318.638756 132.117829 
L 319.988506 130.467471 
L 320.66338 129.479528 
L 323.362879 128.83604 
L 324.037754 129.244844 
L 326.062378 133.06792 
L 326.737253 134.093716 
L 328.761877 138.344522 
L 329.436751 139.499015 
L 331.461375 141.410554 
L 332.13625 141.584674 
L 332.13625 141.584674 
" clip-path="url(#pacbeb94416)" style="fill: none; stroke: #008000; stroke-opacity: 0.5; stroke-width: 2; stroke-linecap: square"/>
   </g>
   <g id="patch_3">
    <path d="M 49.3975 238.8725 
L 49.3975 11.759062 
" style="fill: none; stroke: #000000; stroke-width: 2; stroke-linejoin: miter; stroke-linecap: square"/>
   </g>
   <g id="patch_4">
    <path d="M 345.6 238.8725 
L 345.6 11.759062 
" style="fill: none; stroke: #000000; stroke-width: 2; stroke-linejoin: miter; stroke-linecap: square"/>
   </g>
   <g id="patch_5">
    <path d="M 49.3975 238.8725 
L 345.6 238.8725 
" style="fill: none; stroke: #000000; stroke-width: 2; stroke-linejoin: miter; stroke-linecap: square"/>
   </g>
   <g id="patch_6">
    <path d="M 49.3975 11.759062 
L 345.6 11.759062 
" style="fill: none; stroke: #000000; stroke-width: 2; stroke-linejoin: miter; stroke-linecap: square"/>
   </g>
   <g id="legend_1">
    <g id="line2d_28">
     <path d="M 249.58125 27.477187 
L 261.58125 27.477187 
L 273.58125 27.477187 
" style="fill: none; stroke: #0000ff; stroke-opacity: 0.5; stroke-width: 2; stroke-linecap: square"/>
    </g>
    <g id="text_15">
     <!-- yz-plane -->
     <g transform="translate(283.18125 31.677187)scale(0.12 -0.12)">
      <defs>
       <path id="DejaVuSans-7a" d="M 353 3500 
L 3084 3500 
L 3084 2975 
L 922 459 
L 3084 459 
L 3084 0 
L 275 0 
L 275 525 
L 2438 3041 
L 353 3041 
L 353 3500 
z
" transform="scale(0.015625)"/>
       <path id="DejaVuSans-2d" d="M 313 2009 
L 1997 2009 
L 1997 1497 
L 313 1497 
L 313 2009 
z
" transform="scale(0.015625)"/>
       <path id="DejaVuSans-70" d="M 1159 525 
L 1159 -1331 
L 581 -1331 
L 581 3500 
L 1159 3500 
L 1159 2969 
Q 1341 3281 1617 3432 
Q 1894 3584 2278 3584 
Q 2916 3584 3314 3078 
Q 3713 2572 3713 1747 
Q 3713 922 3314 415 
Q 2916 -91 2278 -91 
Q 1894 -91 1617 61 
Q 1341 213 1159 525 
z
M 3116 1747 
Q 3116 2381 2855 2742 
Q 2594 3103 2138 3103 
Q 1681 3103 1420 2742 
Q 1159 2381 1159 1747 
Q 1159 1113 1420 752 
Q 1681 391 2138 391 
Q 2594 391 2855 752 
Q 3116 1113 3116 1747 
z
" transform="scale(0.015625)"/>
      </defs>
      <use xlink:href="#DejaVuSans-79"/>
      <use xlink:href="#DejaVuSans-7a" x="59.179688"/>
      <use xlink:href="#DejaVuSans-2d" x="111.669922"/>
      <use xlink:href="#DejaVuSans-70" x="147.753906"/>
      <use xlink:href="#DejaVuSans-6c" x="211.230469"/>
      <use xlink:href="#DejaVuSans-61" x="239.013672"/>
      <use xlink:href="#DejaVuSans-6e" x="300.292969"/>
      <use xlink:href="#DejaVuSans-65" x="363.671875"/>
     </g>
    </g>
    <g id="line2d_29">
     <path d="M 249.58125 45.090937 
L 261.58125 45.090937 
L 273.58125 45.090937 
" style="fill: none; stroke: #ff0000; stroke-opacity: 0.5; stroke-width: 2; stroke-linecap: square"/>
    </g>
    <g id="text_16">
     <!-- xz-plane -->
     <g transform="translate(283.18125 49.290937)scale(0.12 -0.12)">
      <use xlink:href="#DejaVuSans-78"/>
      <use xlink:href="#DejaVuSans-7a" x="59.179688"/>
      <use xlink:href="#DejaVuSans-2d" x="111.669922"/>
      <use xlink:href="#DejaVuSans-70" x="147.753906"/>
      <use xlink:href="#DejaVuSans-6c" x="211.230469"/>
      <use xlink:href="#DejaVuSans-61" x="239.013672"/>
      <use xlink:href="#DejaVuSans-6e" x="300.292969"/>
      <use xlink:href="#DejaVuSans-65" x="363.671875"/>
     </g>
    </g>
    <g id="line2d_30">
     <path d="M 249.58125 62.704687 
L 261.58125 62.704687 
L 273.58125 62.704687 
" style="fill: none; stroke: #008000; stroke-opacity: 0.5; stroke-width: 2; stroke-linecap: square"/>
    </g>
    <g id="text_17">
     <!-- xy-plane -->
     <g transform="translate(283.18125 66.904687)scale(0.12 -0.12)">
      <use xlink:href="#DejaVuSans-78"/>
      <use xlink:href="#DejaVuSans-79" x="59.179688"/>
      <use xlink:href="#DejaVuSans-2d" x="116.609375"/>
      <use xlink:href="#DejaVuSans-70" x="152.693359"/>
      <use xlink:href="#DejaVuSans-6c" x="216.169922"/>
      <use xlink:href="#DejaVuSans-61" x="243.953125"/>
      <use xlink:href="#DejaVuSans-6e" x="305.232422"/>
      <use xlink:href="#DejaVuSans-65" x="368.611328"/>
     </g>
    </g>
   </g>
  </g>
 </g>
 <defs>
  <clipPath id="pacbeb94416">
   <rect x="49.3975" y="11.759062" width="296.2025" height="227.113437"/>
  </clipPath>
 </defs>
</svg>
