<?xml version="1.0" encoding="utf-8" standalone="no"?>
<!DOCTYPE svg PUBLIC "-//W3C//DTD SVG 1.1//EN"
  "http://www.w3.org/Graphics/SVG/1.1/DTD/svg11.dtd">
<svg xmlns:xlink="http://www.w3.org/1999/xlink" width="352.8pt" height="280.8pt" viewBox="0 0 352.8 280.8" xmlns="http://www.w3.org/2000/svg" version="1.1">
 <metadata>
  <rdf:RDF xmlns:dc="http://purl.org/dc/elements/1.1/" xmlns:cc="http://creativecommons.org/ns#" xmlns:rdf="http://www.w3.org/1999/02/22-rdf-syntax-ns#">
   <cc:Work>
    <dc:type rdf:resource="http://purl.org/dc/dcmitype/StillImage"/>
    <dc:date>2022-08-12T22:18:53.305136</dc:date>
    <dc:format>image/svg+xml</dc:format>
    <dc:creator>
     <cc:Agent>
      <dc:title>Matplotlib v3.5.3, https://matplotlib.org/</dc:title>
     </cc:Agent>
    </dc:creator>
   </cc:Work>
  </rdf:RDF>
 </metadata>
 <defs>
  <style type="text/css">*{stroke-linejoin: round; stroke-linecap: butt}</style>
 </defs>
 <g id="figure_1">
  <g id="patch_1">
   <path d="M 0 280.8 
L 352.8 280.8 
L 352.8 0 
L 0 0 
L 0 280.8 
z
" style="fill: none"/>
  </g>
  <g id="axes_1">
   <g id="patch_2">
    <path d="M 49.3975 238.8725 
L 345.6 238.8725 
L 345.6 11.759062 
L 49.3975 11.759062 
z
" style="fill: #ffffff"/>
   </g>
   <g id="matplotlib.axis_1">
    <g id="xtick_1">
     <g id="line2d_1">
      <defs>
       <path id="m16914e7f60" d="M 0 0 
L 0 -6 
" style="stroke: #000000; stroke-width: 2"/>
      </defs>
      <g>
       <use xlink:href="#m16914e7f60" x="62.86125" y="238.8725" style="fill: #ffffff; stroke: #000000; stroke-width: 2"/>
      </g>
     </g>
     <g id="line2d_2">
      <defs>
       <path id="meaadd4b3bd" d="M 0 0 
L 0 6 
" style="stroke: #000000; stroke-width: 2"/>
      </defs>
      <g>
       <use xlink:href="#meaadd4b3bd" x="62.86125" y="11.759062" style="fill: #ffffff; stroke: #000000; stroke-width: 2"/>
      </g>
     </g>
     <g id="text_1">
      <!-- 0 -->
      <g transform="translate(59.04375 251.490625)scale(0.12 -0.12)">
       <defs>
        <path id="DejaVuSans-30" d="M 2034 4250 
Q 1547 4250 1301 3770 
Q 1056 3291 1056 2328 
Q 1056 1369 1301 889 
Q 1547 409 2034 409 
Q 2525 409 2770 889 
Q 3016 1369 3016 2328 
Q 3016 3291 2770 3770 
Q 2525 4250 2034 4250 
z
M 2034 4750 
Q 2819 4750 3233 4129 
Q 3647 3509 3647 2328 
Q 3647 1150 3233 529 
Q 2819 -91 2034 -91 
Q 1250 -91 836 529 
Q 422 1150 422 2328 
Q 422 3509 836 4129 
Q 1250 4750 2034 4750 
z
" transform="scale(0.015625)"/>
       </defs>
       <use xlink:href="#DejaVuSans-30"/>
      </g>
     </g>
    </g>
    <g id="xtick_2">
     <g id="line2d_3">
      <g>
       <use xlink:href="#m16914e7f60" x="119.911038" y="238.8725" style="fill: #ffffff; stroke: #000000; stroke-width: 2"/>
      </g>
     </g>
     <g id="line2d_4">
      <g>
       <use xlink:href="#meaadd4b3bd" x="119.911038" y="11.759062" style="fill: #ffffff; stroke: #000000; stroke-width: 2"/>
      </g>
     </g>
     <g id="text_2">
      <!-- 500 -->
      <g transform="translate(108.458538 251.490625)scale(0.12 -0.12)">
       <defs>
        <path id="DejaVuSans-35" d="M 691 4666 
L 3169 4666 
L 3169 4134 
L 1269 4134 
L 1269 2991 
Q 1406 3038 1543 3061 
Q 1681 3084 1819 3084 
Q 2600 3084 3056 2656 
Q 3513 2228 3513 1497 
Q 3513 744 3044 326 
Q 2575 -91 1722 -91 
Q 1428 -91 1123 -41 
Q 819 9 494 109 
L 494 744 
Q 775 591 1075 516 
Q 1375 441 1709 441 
Q 2250 441 2565 725 
Q 2881 1009 2881 1497 
Q 2881 1984 2565 2268 
Q 2250 2553 1709 2553 
Q 1456 2553 1204 2497 
Q 953 2441 691 2322 
L 691 4666 
z
" transform="scale(0.015625)"/>
       </defs>
       <use xlink:href="#DejaVuSans-35"/>
       <use xlink:href="#DejaVuSans-30" x="63.623047"/>
       <use xlink:href="#DejaVuSans-30" x="127.246094"/>
      </g>
     </g>
    </g>
    <g id="xtick_3">
     <g id="line2d_5">
      <g>
       <use xlink:href="#m16914e7f60" x="176.960826" y="238.8725" style="fill: #ffffff; stroke: #000000; stroke-width: 2"/>
      </g>
     </g>
     <g id="line2d_6">
      <g>
       <use xlink:href="#meaadd4b3bd" x="176.960826" y="11.759062" style="fill: #ffffff; stroke: #000000; stroke-width: 2"/>
      </g>
     </g>
     <g id="text_3">
      <!-- 1000 -->
      <g transform="translate(161.690826 251.490625)scale(0.12 -0.12)">
       <defs>
        <path id="DejaVuSans-31" d="M 794 531 
L 1825 531 
L 1825 4091 
L 703 3866 
L 703 4441 
L 1819 4666 
L 2450 4666 
L 2450 531 
L 3481 531 
L 3481 0 
L 794 0 
L 794 531 
z
" transform="scale(0.015625)"/>
       </defs>
       <use xlink:href="#DejaVuSans-31"/>
       <use xlink:href="#DejaVuSans-30" x="63.623047"/>
       <use xlink:href="#DejaVuSans-30" x="127.246094"/>
       <use xlink:href="#DejaVuSans-30" x="190.869141"/>
      </g>
     </g>
    </g>
    <g id="xtick_4">
     <g id="line2d_7">
      <g>
       <use xlink:href="#m16914e7f60" x="234.010614" y="238.8725" style="fill: #ffffff; stroke: #000000; stroke-width: 2"/>
      </g>
     </g>
     <g id="line2d_8">
      <g>
       <use xlink:href="#meaadd4b3bd" x="234.010614" y="11.759062" style="fill: #ffffff; stroke: #000000; stroke-width: 2"/>
      </g>
     </g>
     <g id="text_4">
      <!-- 1500 -->
      <g transform="translate(218.740614 251.490625)scale(0.12 -0.12)">
       <use xlink:href="#DejaVuSans-31"/>
       <use xlink:href="#DejaVuSans-35" x="63.623047"/>
       <use xlink:href="#DejaVuSans-30" x="127.246094"/>
       <use xlink:href="#DejaVuSans-30" x="190.869141"/>
      </g>
     </g>
    </g>
    <g id="xtick_5">
     <g id="line2d_9">
      <g>
       <use xlink:href="#m16914e7f60" x="291.060403" y="238.8725" style="fill: #ffffff; stroke: #000000; stroke-width: 2"/>
      </g>
     </g>
     <g id="line2d_10">
      <g>
       <use xlink:href="#meaadd4b3bd" x="291.060403" y="11.759062" style="fill: #ffffff; stroke: #000000; stroke-width: 2"/>
      </g>
     </g>
     <g id="text_5">
      <!-- 2000 -->
      <g transform="translate(275.790403 251.490625)scale(0.12 -0.12)">
       <defs>
        <path id="DejaVuSans-32" d="M 1228 531 
L 3431 531 
L 3431 0 
L 469 0 
L 469 531 
Q 828 903 1448 1529 
Q 2069 2156 2228 2338 
Q 2531 2678 2651 2914 
Q 2772 3150 2772 3378 
Q 2772 3750 2511 3984 
Q 2250 4219 1831 4219 
Q 1534 4219 1204 4116 
Q 875 4013 500 3803 
L 500 4441 
Q 881 4594 1212 4672 
Q 1544 4750 1819 4750 
Q 2544 4750 2975 4387 
Q 3406 4025 3406 3419 
Q 3406 3131 3298 2873 
Q 3191 2616 2906 2266 
Q 2828 2175 2409 1742 
Q 1991 1309 1228 531 
z
" transform="scale(0.015625)"/>
       </defs>
       <use xlink:href="#DejaVuSans-32"/>
       <use xlink:href="#DejaVuSans-30" x="63.623047"/>
       <use xlink:href="#DejaVuSans-30" x="127.246094"/>
       <use xlink:href="#DejaVuSans-30" x="190.869141"/>
      </g>
     </g>
    </g>
    <g id="text_6">
     <!-- Position of slice along given axis -->
     <g transform="translate(100.205 271.104375)scale(0.12 -0.12)">
      <defs>
       <path id="DejaVuSans-50" d="M 1259 4147 
L 1259 2394 
L 2053 2394 
Q 2494 2394 2734 2622 
Q 2975 2850 2975 3272 
Q 2975 3691 2734 3919 
Q 2494 4147 2053 4147 
L 1259 4147 
z
M 628 4666 
L 2053 4666 
Q 2838 4666 3239 4311 
Q 3641 3956 3641 3272 
Q 3641 2581 3239 2228 
Q 2838 1875 2053 1875 
L 1259 1875 
L 1259 0 
L 628 0 
L 628 4666 
z
" transform="scale(0.015625)"/>
       <path id="DejaVuSans-6f" d="M 1959 3097 
Q 1497 3097 1228 2736 
Q 959 2375 959 1747 
Q 959 1119 1226 758 
Q 1494 397 1959 397 
Q 2419 397 2687 759 
Q 2956 1122 2956 1747 
Q 2956 2369 2687 2733 
Q 2419 3097 1959 3097 
z
M 1959 3584 
Q 2709 3584 3137 3096 
Q 3566 2609 3566 1747 
Q 3566 888 3137 398 
Q 2709 -91 1959 -91 
Q 1206 -91 779 398 
Q 353 888 353 1747 
Q 353 2609 779 3096 
Q 1206 3584 1959 3584 
z
" transform="scale(0.015625)"/>
       <path id="DejaVuSans-73" d="M 2834 3397 
L 2834 2853 
Q 2591 2978 2328 3040 
Q 2066 3103 1784 3103 
Q 1356 3103 1142 2972 
Q 928 2841 928 2578 
Q 928 2378 1081 2264 
Q 1234 2150 1697 2047 
L 1894 2003 
Q 2506 1872 2764 1633 
Q 3022 1394 3022 966 
Q 3022 478 2636 193 
Q 2250 -91 1575 -91 
Q 1294 -91 989 -36 
Q 684 19 347 128 
L 347 722 
Q 666 556 975 473 
Q 1284 391 1588 391 
Q 1994 391 2212 530 
Q 2431 669 2431 922 
Q 2431 1156 2273 1281 
Q 2116 1406 1581 1522 
L 1381 1569 
Q 847 1681 609 1914 
Q 372 2147 372 2553 
Q 372 3047 722 3315 
Q 1072 3584 1716 3584 
Q 2034 3584 2315 3537 
Q 2597 3491 2834 3397 
z
" transform="scale(0.015625)"/>
       <path id="DejaVuSans-69" d="M 603 3500 
L 1178 3500 
L 1178 0 
L 603 0 
L 603 3500 
z
M 603 4863 
L 1178 4863 
L 1178 4134 
L 603 4134 
L 603 4863 
z
" transform="scale(0.015625)"/>
       <path id="DejaVuSans-74" d="M 1172 4494 
L 1172 3500 
L 2356 3500 
L 2356 3053 
L 1172 3053 
L 1172 1153 
Q 1172 725 1289 603 
Q 1406 481 1766 481 
L 2356 481 
L 2356 0 
L 1766 0 
Q 1100 0 847 248 
Q 594 497 594 1153 
L 594 3053 
L 172 3053 
L 172 3500 
L 594 3500 
L 594 4494 
L 1172 4494 
z
" transform="scale(0.015625)"/>
       <path id="DejaVuSans-6e" d="M 3513 2113 
L 3513 0 
L 2938 0 
L 2938 2094 
Q 2938 2591 2744 2837 
Q 2550 3084 2163 3084 
Q 1697 3084 1428 2787 
Q 1159 2491 1159 1978 
L 1159 0 
L 581 0 
L 581 3500 
L 1159 3500 
L 1159 2956 
Q 1366 3272 1645 3428 
Q 1925 3584 2291 3584 
Q 2894 3584 3203 3211 
Q 3513 2838 3513 2113 
z
" transform="scale(0.015625)"/>
       <path id="DejaVuSans-20" transform="scale(0.015625)"/>
       <path id="DejaVuSans-66" d="M 2375 4863 
L 2375 4384 
L 1825 4384 
Q 1516 4384 1395 4259 
Q 1275 4134 1275 3809 
L 1275 3500 
L 2222 3500 
L 2222 3053 
L 1275 3053 
L 1275 0 
L 697 0 
L 697 3053 
L 147 3053 
L 147 3500 
L 697 3500 
L 697 3744 
Q 697 4328 969 4595 
Q 1241 4863 1831 4863 
L 2375 4863 
z
" transform="scale(0.015625)"/>
       <path id="DejaVuSans-6c" d="M 603 4863 
L 1178 4863 
L 1178 0 
L 603 0 
L 603 4863 
z
" transform="scale(0.015625)"/>
       <path id="DejaVuSans-63" d="M 3122 3366 
L 3122 2828 
Q 2878 2963 2633 3030 
Q 2388 3097 2138 3097 
Q 1578 3097 1268 2742 
Q 959 2388 959 1747 
Q 959 1106 1268 751 
Q 1578 397 2138 397 
Q 2388 397 2633 464 
Q 2878 531 3122 666 
L 3122 134 
Q 2881 22 2623 -34 
Q 2366 -91 2075 -91 
Q 1284 -91 818 406 
Q 353 903 353 1747 
Q 353 2603 823 3093 
Q 1294 3584 2113 3584 
Q 2378 3584 2631 3529 
Q 2884 3475 3122 3366 
z
" transform="scale(0.015625)"/>
       <path id="DejaVuSans-65" d="M 3597 1894 
L 3597 1613 
L 953 1613 
Q 991 1019 1311 708 
Q 1631 397 2203 397 
Q 2534 397 2845 478 
Q 3156 559 3463 722 
L 3463 178 
Q 3153 47 2828 -22 
Q 2503 -91 2169 -91 
Q 1331 -91 842 396 
Q 353 884 353 1716 
Q 353 2575 817 3079 
Q 1281 3584 2069 3584 
Q 2775 3584 3186 3129 
Q 3597 2675 3597 1894 
z
M 3022 2063 
Q 3016 2534 2758 2815 
Q 2500 3097 2075 3097 
Q 1594 3097 1305 2825 
Q 1016 2553 972 2059 
L 3022 2063 
z
" transform="scale(0.015625)"/>
       <path id="DejaVuSans-61" d="M 2194 1759 
Q 1497 1759 1228 1600 
Q 959 1441 959 1056 
Q 959 750 1161 570 
Q 1363 391 1709 391 
Q 2188 391 2477 730 
Q 2766 1069 2766 1631 
L 2766 1759 
L 2194 1759 
z
M 3341 1997 
L 3341 0 
L 2766 0 
L 2766 531 
Q 2569 213 2275 61 
Q 1981 -91 1556 -91 
Q 1019 -91 701 211 
Q 384 513 384 1019 
Q 384 1609 779 1909 
Q 1175 2209 1959 2209 
L 2766 2209 
L 2766 2266 
Q 2766 2663 2505 2880 
Q 2244 3097 1772 3097 
Q 1472 3097 1187 3025 
Q 903 2953 641 2809 
L 641 3341 
Q 956 3463 1253 3523 
Q 1550 3584 1831 3584 
Q 2591 3584 2966 3190 
Q 3341 2797 3341 1997 
z
" transform="scale(0.015625)"/>
       <path id="DejaVuSans-67" d="M 2906 1791 
Q 2906 2416 2648 2759 
Q 2391 3103 1925 3103 
Q 1463 3103 1205 2759 
Q 947 2416 947 1791 
Q 947 1169 1205 825 
Q 1463 481 1925 481 
Q 2391 481 2648 825 
Q 2906 1169 2906 1791 
z
M 3481 434 
Q 3481 -459 3084 -895 
Q 2688 -1331 1869 -1331 
Q 1566 -1331 1297 -1286 
Q 1028 -1241 775 -1147 
L 775 -588 
Q 1028 -725 1275 -790 
Q 1522 -856 1778 -856 
Q 2344 -856 2625 -561 
Q 2906 -266 2906 331 
L 2906 616 
Q 2728 306 2450 153 
Q 2172 0 1784 0 
Q 1141 0 747 490 
Q 353 981 353 1791 
Q 353 2603 747 3093 
Q 1141 3584 1784 3584 
Q 2172 3584 2450 3431 
Q 2728 3278 2906 2969 
L 2906 3500 
L 3481 3500 
L 3481 434 
z
" transform="scale(0.015625)"/>
       <path id="DejaVuSans-76" d="M 191 3500 
L 800 3500 
L 1894 563 
L 2988 3500 
L 3597 3500 
L 2284 0 
L 1503 0 
L 191 3500 
z
" transform="scale(0.015625)"/>
       <path id="DejaVuSans-78" d="M 3513 3500 
L 2247 1797 
L 3578 0 
L 2900 0 
L 1881 1375 
L 863 0 
L 184 0 
L 1544 1831 
L 300 3500 
L 978 3500 
L 1906 2253 
L 2834 3500 
L 3513 3500 
z
" transform="scale(0.015625)"/>
      </defs>
      <use xlink:href="#DejaVuSans-50"/>
      <use xlink:href="#DejaVuSans-6f" x="56.677734"/>
      <use xlink:href="#DejaVuSans-73" x="117.859375"/>
      <use xlink:href="#DejaVuSans-69" x="169.958984"/>
      <use xlink:href="#DejaVuSans-74" x="197.742188"/>
      <use xlink:href="#DejaVuSans-69" x="236.951172"/>
      <use xlink:href="#DejaVuSans-6f" x="264.734375"/>
      <use xlink:href="#DejaVuSans-6e" x="325.916016"/>
      <use xlink:href="#DejaVuSans-20" x="389.294922"/>
      <use xlink:href="#DejaVuSans-6f" x="421.082031"/>
      <use xlink:href="#DejaVuSans-66" x="482.263672"/>
      <use xlink:href="#DejaVuSans-20" x="517.46875"/>
      <use xlink:href="#DejaVuSans-73" x="549.255859"/>
      <use xlink:href="#DejaVuSans-6c" x="601.355469"/>
      <use xlink:href="#DejaVuSans-69" x="629.138672"/>
      <use xlink:href="#DejaVuSans-63" x="656.921875"/>
      <use xlink:href="#DejaVuSans-65" x="711.902344"/>
      <use xlink:href="#DejaVuSans-20" x="773.425781"/>
      <use xlink:href="#DejaVuSans-61" x="805.212891"/>
      <use xlink:href="#DejaVuSans-6c" x="866.492188"/>
      <use xlink:href="#DejaVuSans-6f" x="894.275391"/>
      <use xlink:href="#DejaVuSans-6e" x="955.457031"/>
      <use xlink:href="#DejaVuSans-67" x="1018.835938"/>
      <use xlink:href="#DejaVuSans-20" x="1082.3125"/>
      <use xlink:href="#DejaVuSans-67" x="1114.099609"/>
      <use xlink:href="#DejaVuSans-69" x="1177.576172"/>
      <use xlink:href="#DejaVuSans-76" x="1205.359375"/>
      <use xlink:href="#DejaVuSans-65" x="1264.539062"/>
      <use xlink:href="#DejaVuSans-6e" x="1326.0625"/>
      <use xlink:href="#DejaVuSans-20" x="1389.441406"/>
      <use xlink:href="#DejaVuSans-61" x="1421.228516"/>
      <use xlink:href="#DejaVuSans-78" x="1482.507812"/>
      <use xlink:href="#DejaVuSans-69" x="1541.6875"/>
      <use xlink:href="#DejaVuSans-73" x="1569.470703"/>
     </g>
    </g>
   </g>
   <g id="matplotlib.axis_2">
    <g id="ytick_1">
     <g id="line2d_11">
      <defs>
       <path id="m6edf5a4041" d="M 0 0 
L 6 0 
" style="stroke: #000000; stroke-width: 2"/>
      </defs>
      <g>
       <use xlink:href="#m6edf5a4041" x="49.3975" y="238.8725" style="fill: #ffffff; stroke: #000000; stroke-width: 2"/>
      </g>
     </g>
     <g id="line2d_12">
      <defs>
       <path id="m6673caa3bf" d="M 0 0 
L -6 0 
" style="stroke: #000000; stroke-width: 2"/>
      </defs>
      <g>
       <use xlink:href="#m6673caa3bf" x="345.6" y="238.8725" style="fill: #ffffff; stroke: #000000; stroke-width: 2"/>
      </g>
     </g>
     <g id="text_7">
      <!-- 0.0 -->
      <g transform="translate(26.81375 243.431562)scale(0.12 -0.12)">
       <defs>
        <path id="DejaVuSans-2e" d="M 684 794 
L 1344 794 
L 1344 0 
L 684 0 
L 684 794 
z
" transform="scale(0.015625)"/>
       </defs>
       <use xlink:href="#DejaVuSans-30"/>
       <use xlink:href="#DejaVuSans-2e" x="63.623047"/>
       <use xlink:href="#DejaVuSans-30" x="95.410156"/>
      </g>
     </g>
    </g>
    <g id="ytick_2">
     <g id="line2d_13">
      <g>
       <use xlink:href="#m6edf5a4041" x="49.3975" y="193.449812" style="fill: #ffffff; stroke: #000000; stroke-width: 2"/>
      </g>
     </g>
     <g id="line2d_14">
      <g>
       <use xlink:href="#m6673caa3bf" x="345.6" y="193.449812" style="fill: #ffffff; stroke: #000000; stroke-width: 2"/>
      </g>
     </g>
     <g id="text_8">
      <!-- 0.2 -->
      <g transform="translate(26.81375 198.008875)scale(0.12 -0.12)">
       <use xlink:href="#DejaVuSans-30"/>
       <use xlink:href="#DejaVuSans-2e" x="63.623047"/>
       <use xlink:href="#DejaVuSans-32" x="95.410156"/>
      </g>
     </g>
    </g>
    <g id="ytick_3">
     <g id="line2d_15">
      <g>
       <use xlink:href="#m6edf5a4041" x="49.3975" y="148.027125" style="fill: #ffffff; stroke: #000000; stroke-width: 2"/>
      </g>
     </g>
     <g id="line2d_16">
      <g>
       <use xlink:href="#m6673caa3bf" x="345.6" y="148.027125" style="fill: #ffffff; stroke: #000000; stroke-width: 2"/>
      </g>
     </g>
     <g id="text_9">
      <!-- 0.4 -->
      <g transform="translate(26.81375 152.586187)scale(0.12 -0.12)">
       <defs>
        <path id="DejaVuSans-34" d="M 2419 4116 
L 825 1625 
L 2419 1625 
L 2419 4116 
z
M 2253 4666 
L 3047 4666 
L 3047 1625 
L 3713 1625 
L 3713 1100 
L 3047 1100 
L 3047 0 
L 2419 0 
L 2419 1100 
L 313 1100 
L 313 1709 
L 2253 4666 
z
" transform="scale(0.015625)"/>
       </defs>
       <use xlink:href="#DejaVuSans-30"/>
       <use xlink:href="#DejaVuSans-2e" x="63.623047"/>
       <use xlink:href="#DejaVuSans-34" x="95.410156"/>
      </g>
     </g>
    </g>
    <g id="ytick_4">
     <g id="line2d_17">
      <g>
       <use xlink:href="#m6edf5a4041" x="49.3975" y="102.604437" style="fill: #ffffff; stroke: #000000; stroke-width: 2"/>
      </g>
     </g>
     <g id="line2d_18">
      <g>
       <use xlink:href="#m6673caa3bf" x="345.6" y="102.604437" style="fill: #ffffff; stroke: #000000; stroke-width: 2"/>
      </g>
     </g>
     <g id="text_10">
      <!-- 0.6 -->
      <g transform="translate(26.81375 107.1635)scale(0.12 -0.12)">
       <defs>
        <path id="DejaVuSans-36" d="M 2113 2584 
Q 1688 2584 1439 2293 
Q 1191 2003 1191 1497 
Q 1191 994 1439 701 
Q 1688 409 2113 409 
Q 2538 409 2786 701 
Q 3034 994 3034 1497 
Q 3034 2003 2786 2293 
Q 2538 2584 2113 2584 
z
M 3366 4563 
L 3366 3988 
Q 3128 4100 2886 4159 
Q 2644 4219 2406 4219 
Q 1781 4219 1451 3797 
Q 1122 3375 1075 2522 
Q 1259 2794 1537 2939 
Q 1816 3084 2150 3084 
Q 2853 3084 3261 2657 
Q 3669 2231 3669 1497 
Q 3669 778 3244 343 
Q 2819 -91 2113 -91 
Q 1303 -91 875 529 
Q 447 1150 447 2328 
Q 447 3434 972 4092 
Q 1497 4750 2381 4750 
Q 2619 4750 2861 4703 
Q 3103 4656 3366 4563 
z
" transform="scale(0.015625)"/>
       </defs>
       <use xlink:href="#DejaVuSans-30"/>
       <use xlink:href="#DejaVuSans-2e" x="63.623047"/>
       <use xlink:href="#DejaVuSans-36" x="95.410156"/>
      </g>
     </g>
    </g>
    <g id="ytick_5">
     <g id="line2d_19">
      <g>
       <use xlink:href="#m6edf5a4041" x="49.3975" y="57.18175" style="fill: #ffffff; stroke: #000000; stroke-width: 2"/>
      </g>
     </g>
     <g id="line2d_20">
      <g>
       <use xlink:href="#m6673caa3bf" x="345.6" y="57.18175" style="fill: #ffffff; stroke: #000000; stroke-width: 2"/>
      </g>
     </g>
     <g id="text_11">
      <!-- 0.8 -->
      <g transform="translate(26.81375 61.740812)scale(0.12 -0.12)">
       <defs>
        <path id="DejaVuSans-38" d="M 2034 2216 
Q 1584 2216 1326 1975 
Q 1069 1734 1069 1313 
Q 1069 891 1326 650 
Q 1584 409 2034 409 
Q 2484 409 2743 651 
Q 3003 894 3003 1313 
Q 3003 1734 2745 1975 
Q 2488 2216 2034 2216 
z
M 1403 2484 
Q 997 2584 770 2862 
Q 544 3141 544 3541 
Q 544 4100 942 4425 
Q 1341 4750 2034 4750 
Q 2731 4750 3128 4425 
Q 3525 4100 3525 3541 
Q 3525 3141 3298 2862 
Q 3072 2584 2669 2484 
Q 3125 2378 3379 2068 
Q 3634 1759 3634 1313 
Q 3634 634 3220 271 
Q 2806 -91 2034 -91 
Q 1263 -91 848 271 
Q 434 634 434 1313 
Q 434 1759 690 2068 
Q 947 2378 1403 2484 
z
M 1172 3481 
Q 1172 3119 1398 2916 
Q 1625 2713 2034 2713 
Q 2441 2713 2670 2916 
Q 2900 3119 2900 3481 
Q 2900 3844 2670 4047 
Q 2441 4250 2034 4250 
Q 1625 4250 1398 4047 
Q 1172 3844 1172 3481 
z
" transform="scale(0.015625)"/>
       </defs>
       <use xlink:href="#DejaVuSans-30"/>
       <use xlink:href="#DejaVuSans-2e" x="63.623047"/>
       <use xlink:href="#DejaVuSans-38" x="95.410156"/>
      </g>
     </g>
    </g>
    <g id="ytick_6">
     <g id="line2d_21">
      <g>
       <use xlink:href="#m6edf5a4041" x="49.3975" y="11.759062" style="fill: #ffffff; stroke: #000000; stroke-width: 2"/>
      </g>
     </g>
     <g id="line2d_22">
      <g>
       <use xlink:href="#m6673caa3bf" x="345.6" y="11.759062" style="fill: #ffffff; stroke: #000000; stroke-width: 2"/>
      </g>
     </g>
     <g id="text_12">
      <!-- 1.0 -->
      <g transform="translate(26.81375 16.318125)scale(0.12 -0.12)">
       <use xlink:href="#DejaVuSans-31"/>
       <use xlink:href="#DejaVuSans-2e" x="63.623047"/>
       <use xlink:href="#DejaVuSans-30" x="95.410156"/>
      </g>
     </g>
    </g>
    <g id="text_13">
     <!-- Porosity of slice -->
     <g transform="translate(16.318125 172.133594)rotate(-90)scale(0.12 -0.12)">
      <defs>
       <path id="DejaVuSans-72" d="M 2631 2963 
Q 2534 3019 2420 3045 
Q 2306 3072 2169 3072 
Q 1681 3072 1420 2755 
Q 1159 2438 1159 1844 
L 1159 0 
L 581 0 
L 581 3500 
L 1159 3500 
L 1159 2956 
Q 1341 3275 1631 3429 
Q 1922 3584 2338 3584 
Q 2397 3584 2469 3576 
Q 2541 3569 2628 3553 
L 2631 2963 
z
" transform="scale(0.015625)"/>
       <path id="DejaVuSans-79" d="M 2059 -325 
Q 1816 -950 1584 -1140 
Q 1353 -1331 966 -1331 
L 506 -1331 
L 506 -850 
L 844 -850 
Q 1081 -850 1212 -737 
Q 1344 -625 1503 -206 
L 1606 56 
L 191 3500 
L 800 3500 
L 1894 763 
L 2988 3500 
L 3597 3500 
L 2059 -325 
z
" transform="scale(0.015625)"/>
      </defs>
      <use xlink:href="#DejaVuSans-50"/>
      <use xlink:href="#DejaVuSans-6f" x="56.677734"/>
      <use xlink:href="#DejaVuSans-72" x="117.859375"/>
      <use xlink:href="#DejaVuSans-6f" x="156.722656"/>
      <use xlink:href="#DejaVuSans-73" x="217.904297"/>
      <use xlink:href="#DejaVuSans-69" x="270.003906"/>
      <use xlink:href="#DejaVuSans-74" x="297.787109"/>
      <use xlink:href="#DejaVuSans-79" x="336.996094"/>
      <use xlink:href="#DejaVuSans-20" x="396.175781"/>
      <use xlink:href="#DejaVuSans-6f" x="427.962891"/>
      <use xlink:href="#DejaVuSans-66" x="489.144531"/>
      <use xlink:href="#DejaVuSans-20" x="524.349609"/>
      <use xlink:href="#DejaVuSans-73" x="556.136719"/>
      <use xlink:href="#DejaVuSans-6c" x="608.236328"/>
      <use xlink:href="#DejaVuSans-69" x="636.019531"/>
      <use xlink:href="#DejaVuSans-63" x="663.802734"/>
      <use xlink:href="#DejaVuSans-65" x="718.783203"/>
     </g>
    </g>
   </g>
   <g id="line2d_23">
    <path d="M 62.86125 123.618108 
L 64.214391 123.211197 
L 65.567531 122.488219 
L 66.920672 120.377957 
L 68.273813 118.209023 
L 69.626954 116.80092 
L 70.303524 116.420505 
L 70.980094 116.445109 
L 71.656665 116.182036 
L 72.333235 115.559366 
L 73.009805 115.284938 
L 73.686376 114.889382 
L 74.362946 114.713369 
L 75.039516 114.830711 
L 75.716087 115.515836 
L 77.745798 118.415318 
L 79.098938 122.177831 
L 79.775509 123.777088 
L 80.452079 126.188275 
L 81.128649 128.099813 
L 81.80522 129.282696 
L 83.158361 131.124207 
L 84.511501 132.1765 
L 85.188072 132.572056 
L 85.864642 131.994809 
L 86.541212 131.697669 
L 87.894353 131.809333 
L 88.570923 132.257882 
L 89.247494 132.973289 
L 91.277205 135.846274 
L 92.630345 136.325105 
L 95.336627 138.236643 
L 96.013197 138.210147 
L 98.042908 136.249401 
L 100.072619 132.555022 
L 102.778901 126.506234 
L 103.455471 124.691219 
L 104.132041 123.720309 
L 104.808612 123.012472 
L 106.161753 123.606753 
L 106.838323 124.11965 
L 108.868034 126.570583 
L 109.544604 127.138367 
L 112.250886 128.563503 
L 112.927456 128.819006 
L 114.280597 129.121824 
L 114.957167 128.667597 
L 115.633737 128.421558 
L 122.399441 119.613341 
L 123.752582 118.808981 
L 124.429152 118.816552 
L 125.105722 118.509949 
L 125.782293 118.33015 
L 127.135433 118.615935 
L 129.165144 118.231735 
L 129.841715 118.485345 
L 131.871426 117.504972 
L 132.547996 117.434945 
L 133.224567 117.484153 
L 133.901137 118.462633 
L 135.254278 121.083901 
L 135.930848 123.003009 
L 137.283989 125.611029 
L 138.637129 127.1554 
L 140.66684 127.942727 
L 141.343411 128.425343 
L 142.019981 128.487799 
L 142.696552 128.222833 
L 143.373122 128.188766 
L 144.049692 127.762929 
L 144.726263 126.98128 
L 145.402833 126.445671 
L 146.079403 126.224235 
L 146.755974 125.542895 
L 150.138825 121.435927 
L 150.815396 121.462423 
L 152.168536 122.592313 
L 152.845107 123.381532 
L 153.521677 123.52537 
L 154.874818 123.400458 
L 155.551388 123.828188 
L 157.581099 126.30751 
L 161.640521 130.458008 
L 162.317092 131.008758 
L 162.993662 131.828259 
L 163.670232 132.399828 
L 164.346803 132.424432 
L 165.023373 132.049695 
L 166.376514 130.74947 
L 167.053084 130.702155 
L 167.729655 130.475042 
L 169.082795 128.817113 
L 170.435936 127.299239 
L 171.112506 126.328329 
L 171.789077 124.910762 
L 173.142217 122.866741 
L 173.818788 122.242179 
L 174.495358 121.935576 
L 175.848499 121.023337 
L 177.201639 120.283326 
L 177.87821 119.8802 
L 178.55478 119.810173 
L 179.231351 120.008897 
L 180.584491 121.547591 
L 181.261062 121.958288 
L 181.937632 122.579064 
L 182.614202 123.693813 
L 183.290773 124.467891 
L 183.967343 124.895621 
L 184.643913 125.041353 
L 185.320484 125.395271 
L 185.997054 125.544787 
L 187.350195 126.589509 
L 188.703335 126.668999 
L 190.056476 126.447563 
L 190.733046 126.112571 
L 191.409617 125.97441 
L 192.086187 125.949806 
L 192.762758 126.48163 
L 194.115898 126.646287 
L 194.792469 126.510019 
L 196.145609 126.470275 
L 197.49875 126.385107 
L 197.49875 126.385107 
" clip-path="url(#pf0a46f0f10)" style="fill: none; stroke: #0000ff; stroke-opacity: 0.5; stroke-width: 2; stroke-linecap: square"/>
   </g>
   <g id="line2d_24">
    <path d="M 62.86125 119.811119 
L 63.536689 120.060944 
L 64.212128 120.563433 
L 64.887567 121.222062 
L 65.563006 122.218522 
L 66.238445 123.606753 
L 66.913884 125.568445 
L 68.264762 128.163216 
L 68.940201 128.833201 
L 70.966518 131.365515 
L 71.641957 131.819742 
L 72.317395 131.646568 
L 72.992834 131.896393 
L 73.668273 131.714702 
L 74.343712 131.203697 
L 75.019151 131.212214 
L 75.69459 131.345643 
L 76.370029 131.240603 
L 77.720907 130.028385 
L 78.396346 129.108576 
L 80.422663 125.327137 
L 81.773541 122.865795 
L 83.124419 121.758617 
L 83.799858 121.344135 
L 85.826175 118.928216 
L 86.501614 118.65568 
L 87.177053 117.962984 
L 88.527931 115.21775 
L 89.878809 114.837335 
L 90.554247 114.30078 
L 91.229686 114.283746 
L 91.905125 114.630094 
L 93.256003 115.677655 
L 94.606881 117.392361 
L 95.28232 117.940272 
L 96.633198 118.743686 
L 97.308637 119.49316 
L 97.984076 120.608855 
L 101.361271 127.606788 
L 102.03671 128.816167 
L 103.387588 132.157574 
L 104.738466 134.264051 
L 106.764783 137.653719 
L 107.440222 138.610434 
L 108.115661 139.288935 
L 108.791099 139.243513 
L 109.466538 138.803481 
L 110.141977 137.352793 
L 112.168294 134.570654 
L 114.194611 130.468417 
L 114.87005 129.633775 
L 115.545489 129.207938 
L 116.220928 128.975147 
L 116.896367 129.119931 
L 117.571806 129.063153 
L 118.247245 128.154699 
L 118.922684 127.567043 
L 120.273562 128.696933 
L 120.949001 129.168193 
L 122.299879 129.630937 
L 122.975318 129.557125 
L 123.650757 129.863728 
L 124.326196 130.601847 
L 125.001635 132.137701 
L 125.677074 133.026282 
L 127.027952 133.912025 
L 127.70339 134.102232 
L 128.378829 133.991515 
L 129.054268 133.753045 
L 129.729707 134.556459 
L 131.756024 138.031295 
L 132.431463 139.371264 
L 134.45778 142.204504 
L 135.133219 143.022113 
L 135.808658 143.175414 
L 136.484097 143.087408 
L 137.834975 142.201665 
L 138.510414 142.329417 
L 139.185853 143.115797 
L 140.536731 144.032767 
L 141.21217 144.762369 
L 141.887609 145.753152 
L 143.238487 145.673662 
L 143.913926 146.258479 
L 144.589365 147.067571 
L 145.264804 147.41108 
L 146.615681 147.192483 
L 147.966559 146.048399 
L 148.641998 144.668685 
L 149.317437 142.653053 
L 149.992876 141.208044 
L 152.019193 135.99863 
L 153.370071 132.756585 
L 154.720949 128.691255 
L 155.396388 127.592593 
L 156.071827 126.76079 
L 156.747266 125.278875 
L 158.098144 121.338457 
L 158.773583 119.927515 
L 159.449022 119.067323 
L 160.124461 117.829555 
L 160.7999 117.168087 
L 162.826217 114.201417 
L 163.501656 113.735835 
L 164.177094 113.889136 
L 164.852533 113.891975 
L 165.527972 114.087861 
L 166.203411 114.712423 
L 166.87885 115.527192 
L 167.554289 117.119825 
L 168.229728 118.062346 
L 168.905167 119.294436 
L 169.580606 121.003465 
L 170.931484 123.484679 
L 171.606923 124.126275 
L 172.282362 123.609592 
L 172.957801 122.806178 
L 173.63324 122.448474 
L 174.308679 122.82605 
L 174.984118 123.43074 
L 175.659557 123.737343 
L 177.010435 124.943883 
L 179.712191 128.396007 
L 180.38763 128.594732 
L 181.063069 128.611765 
L 181.738508 127.765767 
L 182.413946 126.048222 
L 183.089385 125.037567 
L 183.764824 123.584041 
L 184.440263 122.919734 
L 186.46658 119.683368 
L 187.817458 117.267449 
L 188.492897 116.248277 
L 189.843775 113.866425 
L 193.22097 108.645655 
L 193.896409 107.731523 
L 194.571848 106.436977 
L 195.247287 105.559751 
L 195.922726 104.920995 
L 196.598165 103.91034 
L 198.624482 104.049447 
L 199.299921 105.094169 
L 200.650798 108.617266 
L 202.677115 112.648529 
L 203.352554 114.258196 
L 204.027993 115.277367 
L 205.378871 116.682632 
L 206.05431 117.116986 
L 209.431505 121.602477 
L 210.106944 122.141871 
L 210.782383 122.351951 
L 211.457822 121.917596 
L 212.133261 121.19935 
L 213.484139 118.672713 
L 214.159578 117.162409 
L 216.185895 113.610922 
L 216.861334 112.662724 
L 217.536773 111.441989 
L 218.212212 110.664126 
L 218.887651 110.346167 
L 219.563089 110.683998 
L 220.238528 110.630059 
L 220.913967 111.007635 
L 222.940284 113.327031 
L 223.615723 113.718801 
L 224.291162 114.939536 
L 224.966601 115.887735 
L 227.668357 121.522987 
L 229.019235 125.795558 
L 231.045552 130.096519 
L 231.720991 130.809088 
L 232.39643 130.865866 
L 233.747308 131.48475 
L 234.422747 131.246281 
L 237.124503 126.317919 
L 237.799941 124.747998 
L 239.150819 123.053164 
L 239.826258 122.644359 
L 240.501697 122.059542 
L 241.852575 120.421487 
L 243.878892 120.923975 
L 244.554331 121.415108 
L 245.22977 122.266783 
L 245.905209 122.806178 
L 246.580648 123.121298 
L 247.256087 122.845923 
L 247.931526 123.158204 
L 248.606965 123.331378 
L 249.282404 123.050325 
L 249.957843 123.436418 
L 250.633282 124.038268 
L 252.659599 127.081588 
L 253.335038 128.109277 
L 254.010477 129.508863 
L 254.685916 131.271831 
L 255.361355 132.449982 
L 256.036793 132.952471 
L 256.712232 132.924081 
L 257.387671 132.671418 
L 258.06311 132.197318 
L 258.738549 131.586951 
L 259.413988 131.127046 
L 260.089427 131.146919 
L 260.764866 131.5103 
L 261.440305 132.211513 
L 262.115744 132.750907 
L 263.466622 133.361275 
L 264.8175 133.55716 
L 264.8175 133.55716 
" clip-path="url(#pf0a46f0f10)" style="fill: none; stroke: #ff0000; stroke-opacity: 0.5; stroke-width: 2; stroke-linecap: square"/>
   </g>
   <g id="line2d_25">
    <path d="M 62.86125 129.619581 
L 63.536125 129.415179 
L 65.560749 127.957868 
L 66.235623 127.390084 
L 66.910498 126.610328 
L 67.585373 125.084883 
L 68.260247 123.10521 
L 68.935122 121.651684 
L 69.609997 121.015767 
L 70.284872 121.042263 
L 70.959746 120.830291 
L 71.634621 120.834076 
L 72.309496 121.534343 
L 73.659245 122.408729 
L 74.33412 123.218767 
L 75.008994 124.388401 
L 75.683869 125.224936 
L 77.033618 127.988149 
L 77.708493 129.339474 
L 78.383368 130.096519 
L 79.058242 131.273724 
L 79.733117 131.87936 
L 80.407992 132.254097 
L 81.082867 131.88693 
L 81.757741 131.951279 
L 82.432616 131.568971 
L 83.107491 131.629535 
L 83.782365 131.936138 
L 85.132115 132.996001 
L 85.806989 134.040722 
L 86.481864 135.872771 
L 87.156739 136.996982 
L 87.831613 137.13325 
L 88.506488 136.788795 
L 89.856237 136.868285 
L 91.880862 138.624629 
L 92.555736 138.757112 
L 93.230611 138.492146 
L 93.905486 138.371019 
L 94.58036 138.117409 
L 95.255235 137.731316 
L 95.93011 137.534484 
L 96.604984 136.644957 
L 97.279859 135.221712 
L 98.629608 133.824965 
L 99.304483 133.120913 
L 99.979358 132.129184 
L 100.654232 130.425834 
L 102.678857 126.364288 
L 104.028606 123.623786 
L 104.703481 122.783466 
L 106.05323 121.670611 
L 106.728105 121.723604 
L 108.077854 121.477564 
L 109.427603 122.117267 
L 110.102478 122.628272 
L 111.452227 122.885667 
L 112.127102 123.498874 
L 114.151726 126.950998 
L 114.826601 126.807159 
L 116.17635 126.008477 
L 116.851225 124.986467 
L 118.200974 123.426954 
L 118.875849 123.196056 
L 119.550724 123.551867 
L 120.900473 125.493687 
L 121.575348 126.841227 
L 122.250222 128.775476 
L 122.925097 130.096519 
L 123.599972 130.838423 
L 124.274846 130.823282 
L 124.949721 130.520464 
L 125.624596 131.088248 
L 126.299471 131.902071 
L 126.974345 132.916511 
L 127.64922 132.678042 
L 128.324095 132.159466 
L 130.348719 131.803655 
L 131.023593 132.114043 
L 131.698468 132.651545 
L 132.373343 133.688697 
L 133.048217 135.134652 
L 133.723092 135.679724 
L 134.397967 135.600235 
L 135.072841 134.937821 
L 136.422591 132.912726 
L 137.097466 132.466069 
L 138.447215 132.235171 
L 139.796964 132.503922 
L 140.471839 132.871088 
L 141.821588 131.985346 
L 143.171338 129.948895 
L 145.195962 128.290967 
L 145.870836 127.416581 
L 146.545711 126.182598 
L 147.220586 125.383915 
L 147.895461 124.800991 
L 148.570335 124.857769 
L 150.594959 126.30751 
L 151.269834 126.716314 
L 151.944709 126.144745 
L 152.619583 124.941044 
L 153.294458 123.434525 
L 153.969333 122.454152 
L 155.319082 120.164091 
L 155.993957 119.497892 
L 157.343706 119.422188 
L 158.018581 118.843048 
L 158.693456 117.949735 
L 159.36833 116.814168 
L 160.043205 115.353072 
L 160.71808 114.380269 
L 161.392954 114.410551 
L 162.742704 115.250871 
L 164.092453 117.082919 
L 164.767328 117.586354 
L 165.442202 118.328258 
L 166.791952 119.422188 
L 167.466826 119.388121 
L 168.141701 119.198859 
L 169.491451 118.309332 
L 170.8412 116.306948 
L 171.516075 116.072264 
L 172.190949 116.09119 
L 172.865824 116.435646 
L 174.215573 117.268395 
L 174.890448 117.222972 
L 175.565323 116.946651 
L 176.240197 117.718837 
L 176.915072 117.654488 
L 177.589947 117.162409 
L 178.264821 117.200261 
L 178.939696 117.923239 
L 179.614571 118.426674 
L 180.289445 118.600794 
L 182.31407 117.476582 
L 182.988944 116.958007 
L 183.663819 116.284237 
L 184.338694 116.098761 
L 185.013568 116.238814 
L 185.688443 116.946651 
L 186.363318 117.287321 
L 187.038192 117.495509 
L 187.713067 118.017869 
L 188.387942 118.377466 
L 189.062816 118.880901 
L 189.737691 118.949035 
L 190.412566 118.646217 
L 191.08744 117.968662 
L 191.762315 116.799027 
L 192.43719 116.09119 
L 193.112065 116.030627 
L 193.786939 115.379568 
L 194.461814 114.940482 
L 195.811563 113.433963 
L 196.486438 112.820757 
L 197.161313 111.85174 
L 197.836187 111.658693 
L 199.185937 110.754025 
L 199.860811 110.67832 
L 200.535686 110.852441 
L 201.885435 111.9388 
L 203.235185 114.709584 
L 203.91006 115.716453 
L 204.584934 117.275966 
L 205.259809 119.263208 
L 205.934684 121.700892 
L 207.284433 127.374943 
L 207.959308 129.453031 
L 208.634182 130.997402 
L 209.309057 132.068621 
L 209.983932 132.151896 
L 210.658806 131.550045 
L 212.008556 129.282696 
L 212.68343 128.673275 
L 213.358305 126.969924 
L 214.03318 124.740427 
L 215.382929 120.887069 
L 216.057804 118.816552 
L 216.732679 115.777017 
L 217.407553 113.475601 
L 218.757303 109.618457 
L 219.432177 107.112639 
L 220.107052 106.124696 
L 221.456801 104.553828 
L 222.806551 103.91791 
L 223.481425 104.095816 
L 224.1563 104.686311 
L 224.831175 105.776455 
L 226.180924 109.065815 
L 226.855799 109.99698 
L 227.530674 110.193812 
L 228.205548 110.178671 
L 229.555298 109.546538 
L 230.905047 109.82286 
L 231.579922 110.523126 
L 233.604546 113.820056 
L 234.27942 114.285639 
L 234.954295 114.493826 
L 235.62917 114.138015 
L 236.978919 114.05474 
L 237.653794 114.092592 
L 238.328669 114.743651 
L 239.678418 116.322089 
L 240.353293 116.958007 
L 241.703042 117.43116 
L 242.377917 117.442515 
L 243.052791 117.760474 
L 243.727666 118.309332 
L 244.402541 118.472096 
L 245.077415 117.983802 
L 245.75229 117.677199 
L 247.776914 118.880901 
L 249.126664 119.081517 
L 250.476413 120.765942 
L 251.151288 121.557054 
L 252.501037 124.78585 
L 253.175912 126.458919 
L 253.850786 127.49607 
L 255.200536 131.084463 
L 257.22516 135.426114 
L 257.900034 135.622946 
L 258.574909 135.566168 
L 259.249784 135.255779 
L 260.599533 134.328399 
L 262.624157 134.627432 
L 264.648781 135.85763 
L 265.998531 136.194515 
L 266.673405 135.687295 
L 267.34828 135.899267 
L 268.023155 135.978757 
L 268.698029 135.710006 
L 269.372904 135.588879 
L 270.047779 134.84319 
L 271.397528 132.439573 
L 272.072403 131.860433 
L 272.747278 130.565887 
L 273.422152 128.877677 
L 275.446776 124.88048 
L 276.796526 121.644114 
L 277.4714 120.712949 
L 278.146275 119.240497 
L 278.82115 118.157923 
L 280.170899 116.882302 
L 280.845774 116.628692 
L 281.520648 117.43873 
L 282.870398 119.899126 
L 285.569897 127.783747 
L 286.919646 129.642292 
L 287.594521 131.042825 
L 288.269395 133.101987 
L 288.94427 134.229984 
L 289.619145 134.729633 
L 290.294019 135.694865 
L 290.968894 137.163532 
L 292.318643 141.225078 
L 293.668393 144.260827 
L 295.018142 145.945252 
L 295.693017 146.971048 
L 296.367892 147.762159 
L 297.042766 148.311017 
L 297.717641 148.53813 
L 298.392516 147.993058 
L 299.06739 147.606965 
L 299.742265 147.94385 
L 300.41714 148.413218 
L 301.766889 149.677483 
L 302.441764 149.938663 
L 303.116638 149.507148 
L 305.816137 146.285922 
L 306.491012 144.707484 
L 307.165887 143.496212 
L 307.840761 142.03133 
L 308.515636 140.884407 
L 309.190511 139.483875 
L 309.865385 137.254378 
L 310.54026 135.433685 
L 311.890009 133.688697 
L 312.564884 132.965719 
L 313.239759 132.572056 
L 313.914633 132.469855 
L 314.589508 131.758232 
L 315.264383 130.36527 
L 315.939258 128.518081 
L 317.289007 123.544296 
L 318.638756 119.596308 
L 319.988506 116.280452 
L 320.66338 115.360642 
L 321.338255 114.739866 
L 322.688004 114.671731 
L 324.712628 118.400177 
L 325.387503 120.512332 
L 326.737253 122.915949 
L 328.087002 124.040161 
L 328.761877 125.111379 
L 329.436751 125.830572 
L 330.111626 126.368074 
L 330.786501 126.689818 
L 332.13625 126.950998 
L 332.13625 126.950998 
" clip-path="url(#pf0a46f0f10)" style="fill: none; stroke: #008000; stroke-opacity: 0.5; stroke-width: 2; stroke-linecap: square"/>
   </g>
   <g id="patch_3">
    <path d="M 49.3975 238.8725 
L 49.3975 11.759062 
" style="fill: none; stroke: #000000; stroke-width: 2; stroke-linejoin: miter; stroke-linecap: square"/>
   </g>
   <g id="patch_4">
    <path d="M 345.6 238.8725 
L 345.6 11.759062 
" style="fill: none; stroke: #000000; stroke-width: 2; stroke-linejoin: miter; stroke-linecap: square"/>
   </g>
   <g id="patch_5">
    <path d="M 49.3975 238.8725 
L 345.6 238.8725 
" style="fill: none; stroke: #000000; stroke-width: 2; stroke-linejoin: miter; stroke-linecap: square"/>
   </g>
   <g id="patch_6">
    <path d="M 49.3975 11.759062 
L 345.6 11.759062 
" style="fill: none; stroke: #000000; stroke-width: 2; stroke-linejoin: miter; stroke-linecap: square"/>
   </g>
   <g id="legend_1">
    <g id="line2d_26">
     <path d="M 249.58125 27.477187 
L 261.58125 27.477187 
L 273.58125 27.477187 
" style="fill: none; stroke: #0000ff; stroke-opacity: 0.5; stroke-width: 2; stroke-linecap: square"/>
    </g>
    <g id="text_14">
     <!-- yz-plane -->
     <g transform="translate(283.18125 31.677187)scale(0.12 -0.12)">
      <defs>
       <path id="DejaVuSans-7a" d="M 353 3500 
L 3084 3500 
L 3084 2975 
L 922 459 
L 3084 459 
L 3084 0 
L 275 0 
L 275 525 
L 2438 3041 
L 353 3041 
L 353 3500 
z
" transform="scale(0.015625)"/>
       <path id="DejaVuSans-2d" d="M 313 2009 
L 1997 2009 
L 1997 1497 
L 313 1497 
L 313 2009 
z
" transform="scale(0.015625)"/>
       <path id="DejaVuSans-70" d="M 1159 525 
L 1159 -1331 
L 581 -1331 
L 581 3500 
L 1159 3500 
L 1159 2969 
Q 1341 3281 1617 3432 
Q 1894 3584 2278 3584 
Q 2916 3584 3314 3078 
Q 3713 2572 3713 1747 
Q 3713 922 3314 415 
Q 2916 -91 2278 -91 
Q 1894 -91 1617 61 
Q 1341 213 1159 525 
z
M 3116 1747 
Q 3116 2381 2855 2742 
Q 2594 3103 2138 3103 
Q 1681 3103 1420 2742 
Q 1159 2381 1159 1747 
Q 1159 1113 1420 752 
Q 1681 391 2138 391 
Q 2594 391 2855 752 
Q 3116 1113 3116 1747 
z
" transform="scale(0.015625)"/>
      </defs>
      <use xlink:href="#DejaVuSans-79"/>
      <use xlink:href="#DejaVuSans-7a" x="59.179688"/>
      <use xlink:href="#DejaVuSans-2d" x="111.669922"/>
      <use xlink:href="#DejaVuSans-70" x="147.753906"/>
      <use xlink:href="#DejaVuSans-6c" x="211.230469"/>
      <use xlink:href="#DejaVuSans-61" x="239.013672"/>
      <use xlink:href="#DejaVuSans-6e" x="300.292969"/>
      <use xlink:href="#DejaVuSans-65" x="363.671875"/>
     </g>
    </g>
    <g id="line2d_27">
     <path d="M 249.58125 45.090937 
L 261.58125 45.090937 
L 273.58125 45.090937 
" style="fill: none; stroke: #ff0000; stroke-opacity: 0.5; stroke-width: 2; stroke-linecap: square"/>
    </g>
    <g id="text_15">
     <!-- xz-plane -->
     <g transform="translate(283.18125 49.290937)scale(0.12 -0.12)">
      <use xlink:href="#DejaVuSans-78"/>
      <use xlink:href="#DejaVuSans-7a" x="59.179688"/>
      <use xlink:href="#DejaVuSans-2d" x="111.669922"/>
      <use xlink:href="#DejaVuSans-70" x="147.753906"/>
      <use xlink:href="#DejaVuSans-6c" x="211.230469"/>
      <use xlink:href="#DejaVuSans-61" x="239.013672"/>
      <use xlink:href="#DejaVuSans-6e" x="300.292969"/>
      <use xlink:href="#DejaVuSans-65" x="363.671875"/>
     </g>
    </g>
    <g id="line2d_28">
     <path d="M 249.58125 62.704687 
L 261.58125 62.704687 
L 273.58125 62.704687 
" style="fill: none; stroke: #008000; stroke-opacity: 0.5; stroke-width: 2; stroke-linecap: square"/>
    </g>
    <g id="text_16">
     <!-- xy-plane -->
     <g transform="translate(283.18125 66.904687)scale(0.12 -0.12)">
      <use xlink:href="#DejaVuSans-78"/>
      <use xlink:href="#DejaVuSans-79" x="59.179688"/>
      <use xlink:href="#DejaVuSans-2d" x="116.609375"/>
      <use xlink:href="#DejaVuSans-70" x="152.693359"/>
      <use xlink:href="#DejaVuSans-6c" x="216.169922"/>
      <use xlink:href="#DejaVuSans-61" x="243.953125"/>
      <use xlink:href="#DejaVuSans-6e" x="305.232422"/>
      <use xlink:href="#DejaVuSans-65" x="368.611328"/>
     </g>
    </g>
   </g>
  </g>
 </g>
 <defs>
  <clipPath id="pf0a46f0f10">
   <rect x="49.3975" y="11.759062" width="296.2025" height="227.113437"/>
  </clipPath>
 </defs>
</svg>
