<?xml version="1.0" encoding="utf-8" standalone="no"?>
<!DOCTYPE svg PUBLIC "-//W3C//DTD SVG 1.1//EN"
  "http://www.w3.org/Graphics/SVG/1.1/DTD/svg11.dtd">
<svg xmlns:xlink="http://www.w3.org/1999/xlink" width="348.48pt" height="276.48pt" viewBox="0 0 348.48 276.48" xmlns="http://www.w3.org/2000/svg" version="1.1">
 <metadata>
  <rdf:RDF xmlns:dc="http://purl.org/dc/elements/1.1/" xmlns:cc="http://creativecommons.org/ns#" xmlns:rdf="http://www.w3.org/1999/02/22-rdf-syntax-ns#">
   <cc:Work>
    <dc:type rdf:resource="http://purl.org/dc/dcmitype/StillImage"/>
    <dc:date>2022-03-30T14:09:09.677122</dc:date>
    <dc:format>image/svg+xml</dc:format>
    <dc:creator>
     <cc:Agent>
      <dc:title>Matplotlib v3.5.1, https://matplotlib.org/</dc:title>
     </cc:Agent>
    </dc:creator>
   </cc:Work>
  </rdf:RDF>
 </metadata>
 <defs>
  <style type="text/css">*{stroke-linejoin: round; stroke-linecap: butt}</style>
 </defs>
 <g id="figure_1">
  <g id="patch_1">
   <path d="M 0 276.48 
L 348.48 276.48 
L 348.48 0 
L 0 0 
L 0 276.48 
z
" style="fill: none"/>
  </g>
  <g id="axes_1">
   <g id="patch_2">
    <path d="M 49.3975 234.5525 
L 341.28 234.5525 
L 341.28 11.759062 
L 49.3975 11.759062 
z
" style="fill: #ffffff"/>
   </g>
   <g id="matplotlib.axis_1">
    <g id="xtick_1">
     <g id="line2d_1">
      <defs>
       <path id="m8362e7999d" d="M 0 0 
L 0 -6 
" style="stroke: #000000; stroke-width: 2"/>
      </defs>
      <g>
       <use xlink:href="#m8362e7999d" x="62.664886" y="234.5525" style="fill: #ffffff; stroke: #000000; stroke-width: 2"/>
      </g>
     </g>
     <g id="line2d_2">
      <defs>
       <path id="m31b74a221c" d="M 0 0 
L 0 6 
" style="stroke: #000000; stroke-width: 2"/>
      </defs>
      <g>
       <use xlink:href="#m31b74a221c" x="62.664886" y="11.759062" style="fill: #ffffff; stroke: #000000; stroke-width: 2"/>
      </g>
     </g>
     <g id="text_1">
      <!-- 0.0 -->
      <g transform="translate(53.123011 247.170625)scale(0.12 -0.12)">
       <defs>
        <path id="DejaVuSans-30" d="M 2034 4250 
Q 1547 4250 1301 3770 
Q 1056 3291 1056 2328 
Q 1056 1369 1301 889 
Q 1547 409 2034 409 
Q 2525 409 2770 889 
Q 3016 1369 3016 2328 
Q 3016 3291 2770 3770 
Q 2525 4250 2034 4250 
z
M 2034 4750 
Q 2819 4750 3233 4129 
Q 3647 3509 3647 2328 
Q 3647 1150 3233 529 
Q 2819 -91 2034 -91 
Q 1250 -91 836 529 
Q 422 1150 422 2328 
Q 422 3509 836 4129 
Q 1250 4750 2034 4750 
z
" transform="scale(0.015625)"/>
        <path id="DejaVuSans-2e" d="M 684 794 
L 1344 794 
L 1344 0 
L 684 0 
L 684 794 
z
" transform="scale(0.015625)"/>
       </defs>
       <use xlink:href="#DejaVuSans-30"/>
       <use xlink:href="#DejaVuSans-2e" x="63.623047"/>
       <use xlink:href="#DejaVuSans-30" x="95.410156"/>
      </g>
     </g>
    </g>
    <g id="xtick_2">
     <g id="line2d_3">
      <g>
       <use xlink:href="#m8362e7999d" x="115.734432" y="234.5525" style="fill: #ffffff; stroke: #000000; stroke-width: 2"/>
      </g>
     </g>
     <g id="line2d_4">
      <g>
       <use xlink:href="#m31b74a221c" x="115.734432" y="11.759062" style="fill: #ffffff; stroke: #000000; stroke-width: 2"/>
      </g>
     </g>
     <g id="text_2">
      <!-- 0.2 -->
      <g transform="translate(106.192557 247.170625)scale(0.12 -0.12)">
       <defs>
        <path id="DejaVuSans-32" d="M 1228 531 
L 3431 531 
L 3431 0 
L 469 0 
L 469 531 
Q 828 903 1448 1529 
Q 2069 2156 2228 2338 
Q 2531 2678 2651 2914 
Q 2772 3150 2772 3378 
Q 2772 3750 2511 3984 
Q 2250 4219 1831 4219 
Q 1534 4219 1204 4116 
Q 875 4013 500 3803 
L 500 4441 
Q 881 4594 1212 4672 
Q 1544 4750 1819 4750 
Q 2544 4750 2975 4387 
Q 3406 4025 3406 3419 
Q 3406 3131 3298 2873 
Q 3191 2616 2906 2266 
Q 2828 2175 2409 1742 
Q 1991 1309 1228 531 
z
" transform="scale(0.015625)"/>
       </defs>
       <use xlink:href="#DejaVuSans-30"/>
       <use xlink:href="#DejaVuSans-2e" x="63.623047"/>
       <use xlink:href="#DejaVuSans-32" x="95.410156"/>
      </g>
     </g>
    </g>
    <g id="xtick_3">
     <g id="line2d_5">
      <g>
       <use xlink:href="#m8362e7999d" x="168.803977" y="234.5525" style="fill: #ffffff; stroke: #000000; stroke-width: 2"/>
      </g>
     </g>
     <g id="line2d_6">
      <g>
       <use xlink:href="#m31b74a221c" x="168.803977" y="11.759062" style="fill: #ffffff; stroke: #000000; stroke-width: 2"/>
      </g>
     </g>
     <g id="text_3">
      <!-- 0.4 -->
      <g transform="translate(159.262102 247.170625)scale(0.12 -0.12)">
       <defs>
        <path id="DejaVuSans-34" d="M 2419 4116 
L 825 1625 
L 2419 1625 
L 2419 4116 
z
M 2253 4666 
L 3047 4666 
L 3047 1625 
L 3713 1625 
L 3713 1100 
L 3047 1100 
L 3047 0 
L 2419 0 
L 2419 1100 
L 313 1100 
L 313 1709 
L 2253 4666 
z
" transform="scale(0.015625)"/>
       </defs>
       <use xlink:href="#DejaVuSans-30"/>
       <use xlink:href="#DejaVuSans-2e" x="63.623047"/>
       <use xlink:href="#DejaVuSans-34" x="95.410156"/>
      </g>
     </g>
    </g>
    <g id="xtick_4">
     <g id="line2d_7">
      <g>
       <use xlink:href="#m8362e7999d" x="221.873523" y="234.5525" style="fill: #ffffff; stroke: #000000; stroke-width: 2"/>
      </g>
     </g>
     <g id="line2d_8">
      <g>
       <use xlink:href="#m31b74a221c" x="221.873523" y="11.759062" style="fill: #ffffff; stroke: #000000; stroke-width: 2"/>
      </g>
     </g>
     <g id="text_4">
      <!-- 0.6 -->
      <g transform="translate(212.331648 247.170625)scale(0.12 -0.12)">
       <defs>
        <path id="DejaVuSans-36" d="M 2113 2584 
Q 1688 2584 1439 2293 
Q 1191 2003 1191 1497 
Q 1191 994 1439 701 
Q 1688 409 2113 409 
Q 2538 409 2786 701 
Q 3034 994 3034 1497 
Q 3034 2003 2786 2293 
Q 2538 2584 2113 2584 
z
M 3366 4563 
L 3366 3988 
Q 3128 4100 2886 4159 
Q 2644 4219 2406 4219 
Q 1781 4219 1451 3797 
Q 1122 3375 1075 2522 
Q 1259 2794 1537 2939 
Q 1816 3084 2150 3084 
Q 2853 3084 3261 2657 
Q 3669 2231 3669 1497 
Q 3669 778 3244 343 
Q 2819 -91 2113 -91 
Q 1303 -91 875 529 
Q 447 1150 447 2328 
Q 447 3434 972 4092 
Q 1497 4750 2381 4750 
Q 2619 4750 2861 4703 
Q 3103 4656 3366 4563 
z
" transform="scale(0.015625)"/>
       </defs>
       <use xlink:href="#DejaVuSans-30"/>
       <use xlink:href="#DejaVuSans-2e" x="63.623047"/>
       <use xlink:href="#DejaVuSans-36" x="95.410156"/>
      </g>
     </g>
    </g>
    <g id="xtick_5">
     <g id="line2d_9">
      <g>
       <use xlink:href="#m8362e7999d" x="274.943068" y="234.5525" style="fill: #ffffff; stroke: #000000; stroke-width: 2"/>
      </g>
     </g>
     <g id="line2d_10">
      <g>
       <use xlink:href="#m31b74a221c" x="274.943068" y="11.759062" style="fill: #ffffff; stroke: #000000; stroke-width: 2"/>
      </g>
     </g>
     <g id="text_5">
      <!-- 0.8 -->
      <g transform="translate(265.401193 247.170625)scale(0.12 -0.12)">
       <defs>
        <path id="DejaVuSans-38" d="M 2034 2216 
Q 1584 2216 1326 1975 
Q 1069 1734 1069 1313 
Q 1069 891 1326 650 
Q 1584 409 2034 409 
Q 2484 409 2743 651 
Q 3003 894 3003 1313 
Q 3003 1734 2745 1975 
Q 2488 2216 2034 2216 
z
M 1403 2484 
Q 997 2584 770 2862 
Q 544 3141 544 3541 
Q 544 4100 942 4425 
Q 1341 4750 2034 4750 
Q 2731 4750 3128 4425 
Q 3525 4100 3525 3541 
Q 3525 3141 3298 2862 
Q 3072 2584 2669 2484 
Q 3125 2378 3379 2068 
Q 3634 1759 3634 1313 
Q 3634 634 3220 271 
Q 2806 -91 2034 -91 
Q 1263 -91 848 271 
Q 434 634 434 1313 
Q 434 1759 690 2068 
Q 947 2378 1403 2484 
z
M 1172 3481 
Q 1172 3119 1398 2916 
Q 1625 2713 2034 2713 
Q 2441 2713 2670 2916 
Q 2900 3119 2900 3481 
Q 2900 3844 2670 4047 
Q 2441 4250 2034 4250 
Q 1625 4250 1398 4047 
Q 1172 3844 1172 3481 
z
" transform="scale(0.015625)"/>
       </defs>
       <use xlink:href="#DejaVuSans-30"/>
       <use xlink:href="#DejaVuSans-2e" x="63.623047"/>
       <use xlink:href="#DejaVuSans-38" x="95.410156"/>
      </g>
     </g>
    </g>
    <g id="xtick_6">
     <g id="line2d_11">
      <g>
       <use xlink:href="#m8362e7999d" x="328.012614" y="234.5525" style="fill: #ffffff; stroke: #000000; stroke-width: 2"/>
      </g>
     </g>
     <g id="line2d_12">
      <g>
       <use xlink:href="#m31b74a221c" x="328.012614" y="11.759062" style="fill: #ffffff; stroke: #000000; stroke-width: 2"/>
      </g>
     </g>
     <g id="text_6">
      <!-- 1.0 -->
      <g transform="translate(318.470739 247.170625)scale(0.12 -0.12)">
       <defs>
        <path id="DejaVuSans-31" d="M 794 531 
L 1825 531 
L 1825 4091 
L 703 3866 
L 703 4441 
L 1819 4666 
L 2450 4666 
L 2450 531 
L 3481 531 
L 3481 0 
L 794 0 
L 794 531 
z
" transform="scale(0.015625)"/>
       </defs>
       <use xlink:href="#DejaVuSans-31"/>
       <use xlink:href="#DejaVuSans-2e" x="63.623047"/>
       <use xlink:href="#DejaVuSans-30" x="95.410156"/>
      </g>
     </g>
    </g>
    <g id="text_7">
     <!-- Fractional distance along given axis -->
     <g transform="translate(87.823438 266.784375)scale(0.12 -0.12)">
      <defs>
       <path id="DejaVuSans-46" d="M 628 4666 
L 3309 4666 
L 3309 4134 
L 1259 4134 
L 1259 2759 
L 3109 2759 
L 3109 2228 
L 1259 2228 
L 1259 0 
L 628 0 
L 628 4666 
z
" transform="scale(0.015625)"/>
       <path id="DejaVuSans-72" d="M 2631 2963 
Q 2534 3019 2420 3045 
Q 2306 3072 2169 3072 
Q 1681 3072 1420 2755 
Q 1159 2438 1159 1844 
L 1159 0 
L 581 0 
L 581 3500 
L 1159 3500 
L 1159 2956 
Q 1341 3275 1631 3429 
Q 1922 3584 2338 3584 
Q 2397 3584 2469 3576 
Q 2541 3569 2628 3553 
L 2631 2963 
z
" transform="scale(0.015625)"/>
       <path id="DejaVuSans-61" d="M 2194 1759 
Q 1497 1759 1228 1600 
Q 959 1441 959 1056 
Q 959 750 1161 570 
Q 1363 391 1709 391 
Q 2188 391 2477 730 
Q 2766 1069 2766 1631 
L 2766 1759 
L 2194 1759 
z
M 3341 1997 
L 3341 0 
L 2766 0 
L 2766 531 
Q 2569 213 2275 61 
Q 1981 -91 1556 -91 
Q 1019 -91 701 211 
Q 384 513 384 1019 
Q 384 1609 779 1909 
Q 1175 2209 1959 2209 
L 2766 2209 
L 2766 2266 
Q 2766 2663 2505 2880 
Q 2244 3097 1772 3097 
Q 1472 3097 1187 3025 
Q 903 2953 641 2809 
L 641 3341 
Q 956 3463 1253 3523 
Q 1550 3584 1831 3584 
Q 2591 3584 2966 3190 
Q 3341 2797 3341 1997 
z
" transform="scale(0.015625)"/>
       <path id="DejaVuSans-63" d="M 3122 3366 
L 3122 2828 
Q 2878 2963 2633 3030 
Q 2388 3097 2138 3097 
Q 1578 3097 1268 2742 
Q 959 2388 959 1747 
Q 959 1106 1268 751 
Q 1578 397 2138 397 
Q 2388 397 2633 464 
Q 2878 531 3122 666 
L 3122 134 
Q 2881 22 2623 -34 
Q 2366 -91 2075 -91 
Q 1284 -91 818 406 
Q 353 903 353 1747 
Q 353 2603 823 3093 
Q 1294 3584 2113 3584 
Q 2378 3584 2631 3529 
Q 2884 3475 3122 3366 
z
" transform="scale(0.015625)"/>
       <path id="DejaVuSans-74" d="M 1172 4494 
L 1172 3500 
L 2356 3500 
L 2356 3053 
L 1172 3053 
L 1172 1153 
Q 1172 725 1289 603 
Q 1406 481 1766 481 
L 2356 481 
L 2356 0 
L 1766 0 
Q 1100 0 847 248 
Q 594 497 594 1153 
L 594 3053 
L 172 3053 
L 172 3500 
L 594 3500 
L 594 4494 
L 1172 4494 
z
" transform="scale(0.015625)"/>
       <path id="DejaVuSans-69" d="M 603 3500 
L 1178 3500 
L 1178 0 
L 603 0 
L 603 3500 
z
M 603 4863 
L 1178 4863 
L 1178 4134 
L 603 4134 
L 603 4863 
z
" transform="scale(0.015625)"/>
       <path id="DejaVuSans-6f" d="M 1959 3097 
Q 1497 3097 1228 2736 
Q 959 2375 959 1747 
Q 959 1119 1226 758 
Q 1494 397 1959 397 
Q 2419 397 2687 759 
Q 2956 1122 2956 1747 
Q 2956 2369 2687 2733 
Q 2419 3097 1959 3097 
z
M 1959 3584 
Q 2709 3584 3137 3096 
Q 3566 2609 3566 1747 
Q 3566 888 3137 398 
Q 2709 -91 1959 -91 
Q 1206 -91 779 398 
Q 353 888 353 1747 
Q 353 2609 779 3096 
Q 1206 3584 1959 3584 
z
" transform="scale(0.015625)"/>
       <path id="DejaVuSans-6e" d="M 3513 2113 
L 3513 0 
L 2938 0 
L 2938 2094 
Q 2938 2591 2744 2837 
Q 2550 3084 2163 3084 
Q 1697 3084 1428 2787 
Q 1159 2491 1159 1978 
L 1159 0 
L 581 0 
L 581 3500 
L 1159 3500 
L 1159 2956 
Q 1366 3272 1645 3428 
Q 1925 3584 2291 3584 
Q 2894 3584 3203 3211 
Q 3513 2838 3513 2113 
z
" transform="scale(0.015625)"/>
       <path id="DejaVuSans-6c" d="M 603 4863 
L 1178 4863 
L 1178 0 
L 603 0 
L 603 4863 
z
" transform="scale(0.015625)"/>
       <path id="DejaVuSans-20" transform="scale(0.015625)"/>
       <path id="DejaVuSans-64" d="M 2906 2969 
L 2906 4863 
L 3481 4863 
L 3481 0 
L 2906 0 
L 2906 525 
Q 2725 213 2448 61 
Q 2172 -91 1784 -91 
Q 1150 -91 751 415 
Q 353 922 353 1747 
Q 353 2572 751 3078 
Q 1150 3584 1784 3584 
Q 2172 3584 2448 3432 
Q 2725 3281 2906 2969 
z
M 947 1747 
Q 947 1113 1208 752 
Q 1469 391 1925 391 
Q 2381 391 2643 752 
Q 2906 1113 2906 1747 
Q 2906 2381 2643 2742 
Q 2381 3103 1925 3103 
Q 1469 3103 1208 2742 
Q 947 2381 947 1747 
z
" transform="scale(0.015625)"/>
       <path id="DejaVuSans-73" d="M 2834 3397 
L 2834 2853 
Q 2591 2978 2328 3040 
Q 2066 3103 1784 3103 
Q 1356 3103 1142 2972 
Q 928 2841 928 2578 
Q 928 2378 1081 2264 
Q 1234 2150 1697 2047 
L 1894 2003 
Q 2506 1872 2764 1633 
Q 3022 1394 3022 966 
Q 3022 478 2636 193 
Q 2250 -91 1575 -91 
Q 1294 -91 989 -36 
Q 684 19 347 128 
L 347 722 
Q 666 556 975 473 
Q 1284 391 1588 391 
Q 1994 391 2212 530 
Q 2431 669 2431 922 
Q 2431 1156 2273 1281 
Q 2116 1406 1581 1522 
L 1381 1569 
Q 847 1681 609 1914 
Q 372 2147 372 2553 
Q 372 3047 722 3315 
Q 1072 3584 1716 3584 
Q 2034 3584 2315 3537 
Q 2597 3491 2834 3397 
z
" transform="scale(0.015625)"/>
       <path id="DejaVuSans-65" d="M 3597 1894 
L 3597 1613 
L 953 1613 
Q 991 1019 1311 708 
Q 1631 397 2203 397 
Q 2534 397 2845 478 
Q 3156 559 3463 722 
L 3463 178 
Q 3153 47 2828 -22 
Q 2503 -91 2169 -91 
Q 1331 -91 842 396 
Q 353 884 353 1716 
Q 353 2575 817 3079 
Q 1281 3584 2069 3584 
Q 2775 3584 3186 3129 
Q 3597 2675 3597 1894 
z
M 3022 2063 
Q 3016 2534 2758 2815 
Q 2500 3097 2075 3097 
Q 1594 3097 1305 2825 
Q 1016 2553 972 2059 
L 3022 2063 
z
" transform="scale(0.015625)"/>
       <path id="DejaVuSans-67" d="M 2906 1791 
Q 2906 2416 2648 2759 
Q 2391 3103 1925 3103 
Q 1463 3103 1205 2759 
Q 947 2416 947 1791 
Q 947 1169 1205 825 
Q 1463 481 1925 481 
Q 2391 481 2648 825 
Q 2906 1169 2906 1791 
z
M 3481 434 
Q 3481 -459 3084 -895 
Q 2688 -1331 1869 -1331 
Q 1566 -1331 1297 -1286 
Q 1028 -1241 775 -1147 
L 775 -588 
Q 1028 -725 1275 -790 
Q 1522 -856 1778 -856 
Q 2344 -856 2625 -561 
Q 2906 -266 2906 331 
L 2906 616 
Q 2728 306 2450 153 
Q 2172 0 1784 0 
Q 1141 0 747 490 
Q 353 981 353 1791 
Q 353 2603 747 3093 
Q 1141 3584 1784 3584 
Q 2172 3584 2450 3431 
Q 2728 3278 2906 2969 
L 2906 3500 
L 3481 3500 
L 3481 434 
z
" transform="scale(0.015625)"/>
       <path id="DejaVuSans-76" d="M 191 3500 
L 800 3500 
L 1894 563 
L 2988 3500 
L 3597 3500 
L 2284 0 
L 1503 0 
L 191 3500 
z
" transform="scale(0.015625)"/>
       <path id="DejaVuSans-78" d="M 3513 3500 
L 2247 1797 
L 3578 0 
L 2900 0 
L 1881 1375 
L 863 0 
L 184 0 
L 1544 1831 
L 300 3500 
L 978 3500 
L 1906 2253 
L 2834 3500 
L 3513 3500 
z
" transform="scale(0.015625)"/>
      </defs>
      <use xlink:href="#DejaVuSans-46"/>
      <use xlink:href="#DejaVuSans-72" x="50.269531"/>
      <use xlink:href="#DejaVuSans-61" x="91.382812"/>
      <use xlink:href="#DejaVuSans-63" x="152.662109"/>
      <use xlink:href="#DejaVuSans-74" x="207.642578"/>
      <use xlink:href="#DejaVuSans-69" x="246.851562"/>
      <use xlink:href="#DejaVuSans-6f" x="274.634766"/>
      <use xlink:href="#DejaVuSans-6e" x="335.816406"/>
      <use xlink:href="#DejaVuSans-61" x="399.195312"/>
      <use xlink:href="#DejaVuSans-6c" x="460.474609"/>
      <use xlink:href="#DejaVuSans-20" x="488.257812"/>
      <use xlink:href="#DejaVuSans-64" x="520.044922"/>
      <use xlink:href="#DejaVuSans-69" x="583.521484"/>
      <use xlink:href="#DejaVuSans-73" x="611.304688"/>
      <use xlink:href="#DejaVuSans-74" x="663.404297"/>
      <use xlink:href="#DejaVuSans-61" x="702.613281"/>
      <use xlink:href="#DejaVuSans-6e" x="763.892578"/>
      <use xlink:href="#DejaVuSans-63" x="827.271484"/>
      <use xlink:href="#DejaVuSans-65" x="882.251953"/>
      <use xlink:href="#DejaVuSans-20" x="943.775391"/>
      <use xlink:href="#DejaVuSans-61" x="975.5625"/>
      <use xlink:href="#DejaVuSans-6c" x="1036.841797"/>
      <use xlink:href="#DejaVuSans-6f" x="1064.625"/>
      <use xlink:href="#DejaVuSans-6e" x="1125.806641"/>
      <use xlink:href="#DejaVuSans-67" x="1189.185547"/>
      <use xlink:href="#DejaVuSans-20" x="1252.662109"/>
      <use xlink:href="#DejaVuSans-67" x="1284.449219"/>
      <use xlink:href="#DejaVuSans-69" x="1347.925781"/>
      <use xlink:href="#DejaVuSans-76" x="1375.708984"/>
      <use xlink:href="#DejaVuSans-65" x="1434.888672"/>
      <use xlink:href="#DejaVuSans-6e" x="1496.412109"/>
      <use xlink:href="#DejaVuSans-20" x="1559.791016"/>
      <use xlink:href="#DejaVuSans-61" x="1591.578125"/>
      <use xlink:href="#DejaVuSans-78" x="1652.857422"/>
      <use xlink:href="#DejaVuSans-69" x="1712.037109"/>
      <use xlink:href="#DejaVuSans-73" x="1739.820312"/>
     </g>
    </g>
   </g>
   <g id="matplotlib.axis_2">
    <g id="ytick_1">
     <g id="line2d_13">
      <defs>
       <path id="m897d22ee40" d="M 0 0 
L 6 0 
" style="stroke: #000000; stroke-width: 2"/>
      </defs>
      <g>
       <use xlink:href="#m897d22ee40" x="49.3975" y="234.5525" style="fill: #ffffff; stroke: #000000; stroke-width: 2"/>
      </g>
     </g>
     <g id="line2d_14">
      <defs>
       <path id="mfc3fa65988" d="M 0 0 
L -6 0 
" style="stroke: #000000; stroke-width: 2"/>
      </defs>
      <g>
       <use xlink:href="#mfc3fa65988" x="341.28" y="234.5525" style="fill: #ffffff; stroke: #000000; stroke-width: 2"/>
      </g>
     </g>
     <g id="text_8">
      <!-- 0.0 -->
      <g transform="translate(26.81375 239.111562)scale(0.12 -0.12)">
       <use xlink:href="#DejaVuSans-30"/>
       <use xlink:href="#DejaVuSans-2e" x="63.623047"/>
       <use xlink:href="#DejaVuSans-30" x="95.410156"/>
      </g>
     </g>
    </g>
    <g id="ytick_2">
     <g id="line2d_15">
      <g>
       <use xlink:href="#m897d22ee40" x="49.3975" y="189.993812" style="fill: #ffffff; stroke: #000000; stroke-width: 2"/>
      </g>
     </g>
     <g id="line2d_16">
      <g>
       <use xlink:href="#mfc3fa65988" x="341.28" y="189.993812" style="fill: #ffffff; stroke: #000000; stroke-width: 2"/>
      </g>
     </g>
     <g id="text_9">
      <!-- 0.2 -->
      <g transform="translate(26.81375 194.552875)scale(0.12 -0.12)">
       <use xlink:href="#DejaVuSans-30"/>
       <use xlink:href="#DejaVuSans-2e" x="63.623047"/>
       <use xlink:href="#DejaVuSans-32" x="95.410156"/>
      </g>
     </g>
    </g>
    <g id="ytick_3">
     <g id="line2d_17">
      <g>
       <use xlink:href="#m897d22ee40" x="49.3975" y="145.435125" style="fill: #ffffff; stroke: #000000; stroke-width: 2"/>
      </g>
     </g>
     <g id="line2d_18">
      <g>
       <use xlink:href="#mfc3fa65988" x="341.28" y="145.435125" style="fill: #ffffff; stroke: #000000; stroke-width: 2"/>
      </g>
     </g>
     <g id="text_10">
      <!-- 0.4 -->
      <g transform="translate(26.81375 149.994187)scale(0.12 -0.12)">
       <use xlink:href="#DejaVuSans-30"/>
       <use xlink:href="#DejaVuSans-2e" x="63.623047"/>
       <use xlink:href="#DejaVuSans-34" x="95.410156"/>
      </g>
     </g>
    </g>
    <g id="ytick_4">
     <g id="line2d_19">
      <g>
       <use xlink:href="#m897d22ee40" x="49.3975" y="100.876437" style="fill: #ffffff; stroke: #000000; stroke-width: 2"/>
      </g>
     </g>
     <g id="line2d_20">
      <g>
       <use xlink:href="#mfc3fa65988" x="341.28" y="100.876437" style="fill: #ffffff; stroke: #000000; stroke-width: 2"/>
      </g>
     </g>
     <g id="text_11">
      <!-- 0.6 -->
      <g transform="translate(26.81375 105.4355)scale(0.12 -0.12)">
       <use xlink:href="#DejaVuSans-30"/>
       <use xlink:href="#DejaVuSans-2e" x="63.623047"/>
       <use xlink:href="#DejaVuSans-36" x="95.410156"/>
      </g>
     </g>
    </g>
    <g id="ytick_5">
     <g id="line2d_21">
      <g>
       <use xlink:href="#m897d22ee40" x="49.3975" y="56.31775" style="fill: #ffffff; stroke: #000000; stroke-width: 2"/>
      </g>
     </g>
     <g id="line2d_22">
      <g>
       <use xlink:href="#mfc3fa65988" x="341.28" y="56.31775" style="fill: #ffffff; stroke: #000000; stroke-width: 2"/>
      </g>
     </g>
     <g id="text_12">
      <!-- 0.8 -->
      <g transform="translate(26.81375 60.876812)scale(0.12 -0.12)">
       <use xlink:href="#DejaVuSans-30"/>
       <use xlink:href="#DejaVuSans-2e" x="63.623047"/>
       <use xlink:href="#DejaVuSans-38" x="95.410156"/>
      </g>
     </g>
    </g>
    <g id="ytick_6">
     <g id="line2d_23">
      <g>
       <use xlink:href="#m897d22ee40" x="49.3975" y="11.759062" style="fill: #ffffff; stroke: #000000; stroke-width: 2"/>
      </g>
     </g>
     <g id="line2d_24">
      <g>
       <use xlink:href="#mfc3fa65988" x="341.28" y="11.759062" style="fill: #ffffff; stroke: #000000; stroke-width: 2"/>
      </g>
     </g>
     <g id="text_13">
      <!-- 1.0 -->
      <g transform="translate(26.81375 16.318125)scale(0.12 -0.12)">
       <use xlink:href="#DejaVuSans-31"/>
       <use xlink:href="#DejaVuSans-2e" x="63.623047"/>
       <use xlink:href="#DejaVuSans-30" x="95.410156"/>
      </g>
     </g>
    </g>
    <g id="text_14">
     <!-- Porosity of slice -->
     <g transform="translate(16.318125 169.973594)rotate(-90)scale(0.12 -0.12)">
      <defs>
       <path id="DejaVuSans-50" d="M 1259 4147 
L 1259 2394 
L 2053 2394 
Q 2494 2394 2734 2622 
Q 2975 2850 2975 3272 
Q 2975 3691 2734 3919 
Q 2494 4147 2053 4147 
L 1259 4147 
z
M 628 4666 
L 2053 4666 
Q 2838 4666 3239 4311 
Q 3641 3956 3641 3272 
Q 3641 2581 3239 2228 
Q 2838 1875 2053 1875 
L 1259 1875 
L 1259 0 
L 628 0 
L 628 4666 
z
" transform="scale(0.015625)"/>
       <path id="DejaVuSans-79" d="M 2059 -325 
Q 1816 -950 1584 -1140 
Q 1353 -1331 966 -1331 
L 506 -1331 
L 506 -850 
L 844 -850 
Q 1081 -850 1212 -737 
Q 1344 -625 1503 -206 
L 1606 56 
L 191 3500 
L 800 3500 
L 1894 763 
L 2988 3500 
L 3597 3500 
L 2059 -325 
z
" transform="scale(0.015625)"/>
       <path id="DejaVuSans-66" d="M 2375 4863 
L 2375 4384 
L 1825 4384 
Q 1516 4384 1395 4259 
Q 1275 4134 1275 3809 
L 1275 3500 
L 2222 3500 
L 2222 3053 
L 1275 3053 
L 1275 0 
L 697 0 
L 697 3053 
L 147 3053 
L 147 3500 
L 697 3500 
L 697 3744 
Q 697 4328 969 4595 
Q 1241 4863 1831 4863 
L 2375 4863 
z
" transform="scale(0.015625)"/>
      </defs>
      <use xlink:href="#DejaVuSans-50"/>
      <use xlink:href="#DejaVuSans-6f" x="56.677734"/>
      <use xlink:href="#DejaVuSans-72" x="117.859375"/>
      <use xlink:href="#DejaVuSans-6f" x="156.722656"/>
      <use xlink:href="#DejaVuSans-73" x="217.904297"/>
      <use xlink:href="#DejaVuSans-69" x="270.003906"/>
      <use xlink:href="#DejaVuSans-74" x="297.787109"/>
      <use xlink:href="#DejaVuSans-79" x="336.996094"/>
      <use xlink:href="#DejaVuSans-20" x="396.175781"/>
      <use xlink:href="#DejaVuSans-6f" x="427.962891"/>
      <use xlink:href="#DejaVuSans-66" x="489.144531"/>
      <use xlink:href="#DejaVuSans-20" x="524.349609"/>
      <use xlink:href="#DejaVuSans-73" x="556.136719"/>
      <use xlink:href="#DejaVuSans-6c" x="608.236328"/>
      <use xlink:href="#DejaVuSans-69" x="636.019531"/>
      <use xlink:href="#DejaVuSans-63" x="663.802734"/>
      <use xlink:href="#DejaVuSans-65" x="718.783203"/>
     </g>
    </g>
   </g>
   <g id="line2d_25">
    <path d="M 62.664886 115.474977 
L 65.331698 115.359868 
L 69.331915 114.604226 
L 70.66532 114.095515 
L 71.998726 113.23776 
L 74.665537 110.905855 
L 75.998943 109.975693 
L 77.332349 109.288746 
L 78.665754 108.954556 
L 79.99916 109.335162 
L 82.665971 110.436133 
L 83.999377 110.521537 
L 87.999594 110.269038 
L 90.666405 110.599514 
L 94.666622 111.169494 
L 96.000028 112.335447 
L 97.333434 113.131933 
L 100.000245 115.398856 
L 101.333651 116.462695 
L 104.000462 118.950555 
L 106.667273 123.148355 
L 108.000679 124.390428 
L 109.334085 125.292742 
L 110.66749 125.775461 
L 112.000896 126.804024 
L 114.667707 128.307879 
L 116.001113 128.645783 
L 117.334519 128.085086 
L 118.667924 127.121504 
L 120.00133 125.556381 
L 121.334736 124.21962 
L 124.001547 122.045527 
L 125.334953 121.208195 
L 126.668358 119.847299 
L 128.001764 118.995114 
L 130.668575 119.500112 
L 133.335387 120.851726 
L 134.668792 121.085659 
L 137.335604 121.258324 
L 138.669009 121.213765 
L 142.669226 122.899569 
L 144.002632 124.037672 
L 146.669443 125.385572 
L 148.002849 125.701196 
L 149.336255 126.165349 
L 150.66966 126.779888 
L 153.336472 129.52396 
L 154.669877 130.597082 
L 156.003283 131.128073 
L 158.670094 132.446268 
L 160.0035 132.485256 
L 161.336906 132.227187 
L 164.003717 132.338584 
L 165.337123 132.514962 
L 166.670528 132.455551 
L 168.003934 132.761892 
L 169.33734 132.92713 
L 172.004151 132.134357 
L 173.337557 131.367576 
L 174.670962 131.046382 
L 178.671179 132.279173 
L 181.337991 133.62336 
L 182.671396 133.498967 
L 184.004802 133.103508 
L 185.338208 132.550238 
L 186.671613 131.709193 
L 190.67183 128.363578 
L 192.005236 127.775032 
L 194.672047 125.816306 
L 196.005453 124.431274 
L 197.338858 123.532673 
L 198.672264 123.031388 
L 200.00567 123.157638 
L 201.339075 123.014679 
L 202.672481 122.719477 
L 204.005887 122.944127 
L 205.339292 123.334016 
L 208.006104 123.274604 
L 209.339509 122.678632 
L 210.672915 121.646356 
L 212.006321 121.026247 
L 217.339943 119.410995 
L 218.673349 119.13993 
L 220.006755 118.696199 
L 221.34016 118.620078 
L 222.673566 118.867008 
L 224.006972 119.370149 
L 225.340377 120.010681 
L 229.340594 123.124219 
L 232.007406 124.88243 
L 234.674217 127.516963 
L 237.341028 128.926131 
L 238.674434 128.994826 
L 240.00784 128.935414 
L 242.674651 129.044954 
L 244.008057 128.968833 
L 245.341462 128.699625 
L 248.008274 127.500253 
L 252.008491 126.124504 
L 253.341896 125.57309 
L 254.675302 125.251896 
L 256.008708 125.079231 
L 257.342113 125.743898 
L 258.675519 126.657351 
L 261.34233 126.577517 
L 262.675736 126.952553 
L 265.342547 128.042384 
L 266.675953 127.754609 
L 268.009359 127.071376 
L 272.009576 125.574947 
L 273.342981 125.341014 
L 276.009793 123.788886 
L 278.676604 123.116792 
L 281.343415 122.465122 
L 284.010227 121.007681 
L 286.677038 120.135074 
L 288.010444 119.69877 
L 289.343849 119.641215 
L 290.677255 119.90671 
L 292.010661 120.463694 
L 293.344066 121.345585 
L 294.677472 122.010252 
L 297.344283 122.446555 
L 298.677689 122.41128 
L 301.3445 121.871006 
L 304.011312 120.799741 
L 305.344717 119.817593 
L 306.678123 119.01925 
L 308.011529 118.776034 
L 309.344934 119.141786 
L 310.67834 119.24947 
L 313.345151 119.069378 
L 316.011963 119.464837 
L 320.01218 119.247613 
L 321.345585 118.867008 
L 325.345802 118.885574 
L 326.679208 119.108367 
L 328.012614 119.199341 
L 328.012614 119.199341 
" clip-path="url(#p80a678d612)" style="fill: none; stroke: #0000ff; stroke-opacity: 0.5; stroke-width: 2; stroke-linecap: square"/>
   </g>
   <g id="line2d_26">
    <path d="M 62.664886 130.418847 
L 64.439788 130.50518 
L 67.102139 130.326945 
L 67.98959 130.009464 
L 68.877041 129.861864 
L 69.764491 130.32973 
L 70.651942 131.310021 
L 71.539392 132.70248 
L 72.426843 133.696696 
L 73.314293 134.100509 
L 74.201744 134.186841 
L 75.089195 134.465333 
L 75.976645 135.033456 
L 76.864096 136.066661 
L 77.751546 136.456549 
L 78.638997 136.709977 
L 79.526448 136.751751 
L 80.413898 136.102865 
L 81.301349 134.888641 
L 82.188799 133.095153 
L 83.963701 128.786885 
L 84.851151 127.856723 
L 85.738602 126.739971 
L 86.626052 125.411565 
L 87.513503 123.645927 
L 89.288404 117.844943 
L 90.175855 114.645072 
L 91.063305 111.913067 
L 92.838207 107.563026 
L 93.725657 105.970052 
L 94.613108 105.131792 
L 95.500558 105.123437 
L 97.275459 106.616153 
L 99.937811 111.236332 
L 101.712712 113.355655 
L 102.600163 114.968122 
L 103.487614 116.23526 
L 104.375064 117.023392 
L 105.262515 118.237616 
L 106.149965 119.786031 
L 107.924867 123.267178 
L 108.812317 124.921419 
L 109.699768 126.199697 
L 111.474669 128.27446 
L 113.24957 130.254537 
L 115.024471 132.106508 
L 115.911922 132.641212 
L 117.686823 134.2314 
L 119.461724 135.231186 
L 120.349175 135.362077 
L 122.124076 135.40385 
L 126.561329 136.871502 
L 127.44878 136.94391 
L 130.111131 136.59301 
L 130.998582 136.420346 
L 132.773483 136.356292 
L 133.660934 136.08894 
L 134.548384 135.668418 
L 135.435835 134.888641 
L 136.323286 133.259464 
L 137.210736 131.992326 
L 138.098187 130.51075 
L 140.760539 123.5401 
L 141.647989 122.373219 
L 142.53544 121.465336 
L 143.42289 121.142286 
L 144.310341 121.175705 
L 145.197792 121.67142 
L 146.085242 122.039029 
L 148.747594 122.676775 
L 150.522495 124.414564 
L 151.409946 125.854367 
L 152.297396 126.642499 
L 153.184847 126.912636 
L 154.072297 126.294384 
L 154.959748 125.943484 
L 155.847199 125.840442 
L 156.734649 125.600939 
L 158.50955 124.489757 
L 159.397001 123.069449 
L 162.059353 119.557667 
L 162.946803 118.77789 
L 163.834254 119.061952 
L 164.721705 119.755396 
L 165.609155 120.741257 
L 166.496606 120.933417 
L 167.384056 120.607581 
L 168.271507 119.81945 
L 170.046408 118.911566 
L 172.70876 118.867008 
L 173.59621 119.039672 
L 174.483661 118.769535 
L 175.371112 118.26825 
L 176.258562 117.566451 
L 178.033463 115.143572 
L 178.920914 114.36101 
L 179.808365 113.895929 
L 181.583266 111.949271 
L 182.470716 111.194559 
L 184.245618 109.977549 
L 185.133068 110.127935 
L 186.907969 111.857369 
L 187.79542 112.915638 
L 188.682871 114.344301 
L 189.570321 115.513966 
L 190.457772 117.159853 
L 191.345222 118.360153 
L 192.232673 118.605225 
L 193.120124 119.234617 
L 194.007574 120.348584 
L 194.895025 121.704839 
L 195.782475 122.52082 
L 196.669926 123.634787 
L 197.557376 124.116578 
L 199.332278 124.620648 
L 200.219728 124.556595 
L 201.107179 124.670777 
L 201.994629 124.631788 
L 202.88208 124.222405 
L 204.656981 121.855225 
L 206.431882 118.62472 
L 207.319333 117.496828 
L 208.206784 116.652998 
L 209.094234 115.622578 
L 209.981685 114.912424 
L 211.756586 113.3473 
L 212.644037 113.046529 
L 213.531487 112.495115 
L 214.418938 112.094087 
L 215.306388 111.5009 
L 216.193839 111.645715 
L 217.08129 111.667995 
L 217.96874 111.163924 
L 218.856191 110.345159 
L 219.743641 109.738046 
L 220.631092 109.367652 
L 221.518542 108.649144 
L 222.405993 109.019538 
L 223.293444 109.810454 
L 224.180894 110.977335 
L 225.068345 112.999185 
L 228.618147 117.499613 
L 229.505598 119.229047 
L 231.280499 123.077804 
L 233.0554 126.478188 
L 233.942851 127.842798 
L 234.830301 128.633715 
L 235.717752 128.62536 
L 236.605203 128.018248 
L 237.492653 126.996183 
L 238.380104 125.701196 
L 239.267554 123.826946 
L 240.155005 121.610152 
L 241.042456 119.752611 
L 243.704807 116.714266 
L 244.592258 116.107154 
L 245.479708 115.04053 
L 247.25461 113.416923 
L 248.14206 113.288817 
L 249.029511 113.581233 
L 249.916961 114.076949 
L 251.691863 115.243829 
L 252.579313 115.803598 
L 253.466764 116.56945 
L 254.354214 117.805954 
L 256.129116 121.178489 
L 257.016566 122.958052 
L 257.904017 124.319877 
L 258.791467 124.826732 
L 259.678918 125.071805 
L 263.22872 123.637572 
L 264.116171 123.946698 
L 265.003622 123.946698 
L 265.891072 124.461908 
L 266.778523 124.04417 
L 268.553424 122.214479 
L 270.328325 119.830589 
L 271.215776 119.045242 
L 272.103226 118.485474 
L 274.765578 118.379647 
L 276.540479 118.129004 
L 277.42793 118.928276 
L 279.202831 121.972191 
L 280.090282 123.02489 
L 280.977732 123.654282 
L 281.865183 124.041385 
L 282.752633 124.072019 
L 283.640084 123.411994 
L 284.527535 123.044385 
L 285.414985 123.278318 
L 286.302436 122.841086 
L 287.189886 122.189415 
L 288.077337 121.869149 
L 288.964788 122.066878 
L 289.852238 122.543099 
L 291.627139 124.216835 
L 292.51459 125.422704 
L 295.176942 128.263321 
L 296.064392 128.962335 
L 296.951843 130.321375 
L 297.839293 130.803166 
L 298.726744 130.254537 
L 299.614195 129.522104 
L 300.501645 128.452695 
L 302.276546 127.979259 
L 304.051448 126.018677 
L 304.938898 124.367221 
L 305.826349 122.3398 
L 306.713799 120.82202 
L 307.60125 120.861009 
L 308.488701 121.596227 
L 310.263602 123.239329 
L 311.151052 123.640357 
L 312.038503 123.87429 
L 312.925954 124.732045 
L 313.813404 124.832302 
L 314.700855 125.172062 
L 315.588305 125.367006 
L 318.250657 127.160493 
L 319.138108 127.597725 
L 320.913009 127.302524 
L 321.800459 127.191127 
L 322.68791 127.44177 
L 323.575361 127.840013 
L 327.125163 127.725832 
L 328.012614 127.692413 
L 328.012614 127.692413 
" clip-path="url(#p80a678d612)" style="fill: none; stroke: #ff0000; stroke-opacity: 0.5; stroke-width: 2; stroke-linecap: square"/>
   </g>
   <g id="line2d_27">
    <path d="M 62.664886 128.525103 
L 63.329918 128.662492 
L 63.99495 129.030102 
L 64.659982 129.609364 
L 66.655078 132.089798 
L 68.650173 135.906992 
L 69.980237 138.238897 
L 70.645269 138.955549 
L 71.310301 139.49768 
L 71.975333 139.467974 
L 72.640365 138.93327 
L 73.305397 137.915846 
L 74.635461 134.458835 
L 77.295588 123.586515 
L 78.625652 120.872149 
L 79.955716 119.323734 
L 81.28578 118.696199 
L 81.950811 118.707339 
L 82.615843 118.56995 
L 83.945907 120.890715 
L 84.610939 121.692771 
L 86.606035 126.783601 
L 87.271067 127.49654 
L 87.936098 128.447125 
L 89.266162 131.350867 
L 89.931194 132.167776 
L 90.596226 132.297739 
L 91.261258 131.915277 
L 91.92629 131.91899 
L 93.256354 132.219761 
L 94.586417 131.246896 
L 95.251449 131.042669 
L 95.916481 130.125503 
L 96.581513 129.676203 
L 98.576609 128.989256 
L 99.906673 127.84187 
L 100.571705 127.760179 
L 101.236736 127.541099 
L 101.901768 127.797311 
L 103.231832 127.960693 
L 104.561896 128.573375 
L 105.226928 128.569662 
L 105.89196 128.792455 
L 107.222024 128.242898 
L 107.887055 127.477974 
L 108.552087 127.975546 
L 109.217119 128.766463 
L 109.882151 128.996683 
L 111.212215 128.677345 
L 111.877247 128.335729 
L 112.542279 128.306023 
L 113.872343 128.629073 
L 114.537374 129.204623 
L 115.202406 129.557379 
L 115.867438 129.282601 
L 116.53247 128.17606 
L 117.197502 126.479117 
L 118.527566 122.502254 
L 119.192598 120.589943 
L 119.85763 119.01925 
L 121.187693 117.470835 
L 124.512853 111.756184 
L 125.842917 109.431705 
L 126.507949 109.472551 
L 127.17298 109.984976 
L 129.168076 113.230334 
L 129.833108 115.194629 
L 131.163172 120.953839 
L 131.828204 123.423133 
L 133.158268 126.894998 
L 133.823299 127.697054 
L 136.483427 129.917562 
L 137.148459 130.028959 
L 137.813491 130.333443 
L 139.143555 129.575945 
L 139.808587 129.223189 
L 141.13865 126.872718 
L 142.468714 125.67706 
L 143.798778 124.481402 
L 144.46381 124.488829 
L 145.128842 124.845298 
L 145.793874 124.462836 
L 146.458906 123.348869 
L 147.123937 121.369721 
L 149.119033 116.676205 
L 149.784065 115.306026 
L 151.114129 111.221479 
L 151.779161 110.263468 
L 152.444193 110.05924 
L 153.109224 110.08152 
L 153.774256 110.76104 
L 155.10432 112.710482 
L 155.769352 113.137503 
L 156.434384 113.196915 
L 157.099416 113.727906 
L 158.42948 116.568522 
L 159.759543 120.110938 
L 160.424575 121.499683 
L 161.089607 122.476261 
L 161.754639 122.85501 
L 163.749735 124.815592 
L 165.079799 126.694484 
L 166.409862 127.812164 
L 167.074894 128.647639 
L 169.06999 132.364577 
L 169.735022 132.672774 
L 170.400054 131.926416 
L 171.065086 130.582229 
L 171.730118 128.354295 
L 172.39515 126.961836 
L 173.060181 126.01125 
L 175.055277 124.841585 
L 176.385341 121.83016 
L 177.050373 120.330018 
L 178.380437 120.006967 
L 179.045469 119.23833 
L 179.7105 118.035245 
L 180.375532 117.225763 
L 181.040564 117.225763 
L 181.705596 117.790173 
L 182.370628 117.927562 
L 183.03566 116.932418 
L 183.700692 116.757896 
L 184.365724 116.873006 
L 185.030756 117.363152 
L 185.695787 117.585945 
L 186.360819 118.10951 
L 187.025851 118.844728 
L 187.690883 118.529104 
L 189.020947 118.276605 
L 189.685979 119.011823 
L 191.681075 122.420563 
L 193.67617 128.179773 
L 195.006234 132.316305 
L 195.671266 134.570232 
L 197.00133 138.1275 
L 198.331394 140.953264 
L 198.996425 141.814732 
L 199.661457 141.970687 
L 200.326489 142.304877 
L 201.656553 143.121786 
L 202.321585 143.066088 
L 203.651649 142.230613 
L 204.981713 141.020102 
L 205.646744 140.789882 
L 206.976808 140.745323 
L 207.64184 140.555949 
L 210.301968 139.319445 
L 210.967 139.560805 
L 211.632031 139.523672 
L 212.297063 139.237754 
L 212.962095 137.826729 
L 213.627127 136.7796 
L 214.292159 135.955264 
L 214.957191 134.819018 
L 216.287255 131.425131 
L 217.617319 126.950696 
L 218.947382 122.104939 
L 219.612414 120.304025 
L 220.277446 119.242043 
L 221.60751 116.204626 
L 222.272542 115.918708 
L 222.937574 115.473121 
L 223.602606 114.574521 
L 224.267638 113.972978 
L 224.932669 113.575663 
L 225.597701 113.000114 
L 226.262733 112.710482 
L 226.927765 113.059525 
L 230.252925 116.572235 
L 230.917957 116.976977 
L 232.24802 119.323734 
L 232.913052 120.12579 
L 233.578084 120.292886 
L 234.243116 119.665351 
L 234.908148 118.837302 
L 235.57318 117.459696 
L 236.903244 113.538531 
L 237.568276 112.172065 
L 238.233307 111.150928 
L 238.898339 110.545673 
L 239.563371 110.18549 
L 240.228403 109.524536 
L 240.893435 108.169209 
L 241.558467 106.186348 
L 242.223499 104.916425 
L 243.553563 103.497974 
L 244.883626 102.889005 
L 245.548658 103.327165 
L 246.21369 104.87558 
L 248.208786 111.514824 
L 250.868913 121.221192 
L 251.533945 122.725047 
L 252.864009 123.891 
L 254.194073 124.492542 
L 255.524137 124.058095 
L 256.189169 124.678203 
L 257.519232 126.260036 
L 258.849296 127.348011 
L 259.514328 127.61165 
L 260.17936 128.209479 
L 260.844392 128.350582 
L 261.509424 128.228045 
L 262.174456 127.515106 
L 262.839488 127.054666 
L 263.50452 127.25518 
L 264.834583 129.906422 
L 265.499615 130.09951 
L 266.164647 128.992969 
L 266.829679 128.146354 
L 267.494711 127.971833 
L 268.159743 127.652495 
L 268.824775 127.838157 
L 269.489807 127.827017 
L 270.154839 127.570805 
L 270.81987 127.589371 
L 272.149934 127.916134 
L 275.475094 126.984115 
L 276.140126 126.204338 
L 277.470189 124.080374 
L 278.135221 122.788172 
L 279.465285 121.689058 
L 280.130317 121.885859 
L 280.795349 122.550526 
L 281.460381 123.007252 
L 282.125413 123.75361 
L 283.455476 124.849011 
L 284.120508 125.487686 
L 284.78554 125.44684 
L 286.115604 124.667063 
L 286.780636 124.009823 
L 287.445668 123.690485 
L 288.1107 123.222619 
L 288.775732 122.376004 
L 289.440764 120.545385 
L 290.770827 115.421136 
L 291.435859 113.720479 
L 292.100891 112.717909 
L 293.430955 111.574236 
L 294.095987 111.221479 
L 295.426051 110.846444 
L 296.091083 110.352585 
L 296.756114 109.587661 
L 298.75121 108.811597 
L 299.416242 108.755899 
L 300.081274 108.573951 
L 301.411338 105.558813 
L 303.406433 100.720482 
L 304.736497 98.433136 
L 306.066561 97.122368 
L 306.731593 97.107515 
L 308.726689 98.284607 
L 309.39172 98.811885 
L 310.056752 99.550817 
L 310.721784 100.742761 
L 312.051848 103.639076 
L 312.71688 105.391718 
L 314.046944 109.910711 
L 316.707071 121.061523 
L 317.372103 123.683059 
L 318.037135 125.268606 
L 318.702167 126.156066 
L 319.367199 127.355438 
L 320.032231 127.418562 
L 320.697263 127.656209 
L 321.362295 128.506537 
L 322.027327 128.153781 
L 322.692358 128.276317 
L 323.35739 127.904995 
L 328.012614 127.262607 
L 328.012614 127.262607 
" clip-path="url(#p80a678d612)" style="fill: none; stroke: #008000; stroke-opacity: 0.5; stroke-width: 2; stroke-linecap: square"/>
   </g>
   <g id="patch_3">
    <path d="M 49.3975 234.5525 
L 49.3975 11.759062 
" style="fill: none; stroke: #000000; stroke-width: 2; stroke-linejoin: miter; stroke-linecap: square"/>
   </g>
   <g id="patch_4">
    <path d="M 341.28 234.5525 
L 341.28 11.759062 
" style="fill: none; stroke: #000000; stroke-width: 2; stroke-linejoin: miter; stroke-linecap: square"/>
   </g>
   <g id="patch_5">
    <path d="M 49.3975 234.5525 
L 341.28 234.5525 
" style="fill: none; stroke: #000000; stroke-width: 2; stroke-linejoin: miter; stroke-linecap: square"/>
   </g>
   <g id="patch_6">
    <path d="M 49.3975 11.759062 
L 341.28 11.759062 
" style="fill: none; stroke: #000000; stroke-width: 2; stroke-linejoin: miter; stroke-linecap: square"/>
   </g>
   <g id="legend_1">
    <g id="line2d_28">
     <path d="M 245.26125 27.477188 
L 257.26125 27.477188 
L 269.26125 27.477188 
" style="fill: none; stroke: #0000ff; stroke-opacity: 0.5; stroke-width: 2; stroke-linecap: square"/>
    </g>
    <g id="text_15">
     <!-- yz-plane -->
     <g transform="translate(278.86125 31.677188)scale(0.12 -0.12)">
      <defs>
       <path id="DejaVuSans-7a" d="M 353 3500 
L 3084 3500 
L 3084 2975 
L 922 459 
L 3084 459 
L 3084 0 
L 275 0 
L 275 525 
L 2438 3041 
L 353 3041 
L 353 3500 
z
" transform="scale(0.015625)"/>
       <path id="DejaVuSans-2d" d="M 313 2009 
L 1997 2009 
L 1997 1497 
L 313 1497 
L 313 2009 
z
" transform="scale(0.015625)"/>
       <path id="DejaVuSans-70" d="M 1159 525 
L 1159 -1331 
L 581 -1331 
L 581 3500 
L 1159 3500 
L 1159 2969 
Q 1341 3281 1617 3432 
Q 1894 3584 2278 3584 
Q 2916 3584 3314 3078 
Q 3713 2572 3713 1747 
Q 3713 922 3314 415 
Q 2916 -91 2278 -91 
Q 1894 -91 1617 61 
Q 1341 213 1159 525 
z
M 3116 1747 
Q 3116 2381 2855 2742 
Q 2594 3103 2138 3103 
Q 1681 3103 1420 2742 
Q 1159 2381 1159 1747 
Q 1159 1113 1420 752 
Q 1681 391 2138 391 
Q 2594 391 2855 752 
Q 3116 1113 3116 1747 
z
" transform="scale(0.015625)"/>
      </defs>
      <use xlink:href="#DejaVuSans-79"/>
      <use xlink:href="#DejaVuSans-7a" x="59.179688"/>
      <use xlink:href="#DejaVuSans-2d" x="111.669922"/>
      <use xlink:href="#DejaVuSans-70" x="147.753906"/>
      <use xlink:href="#DejaVuSans-6c" x="211.230469"/>
      <use xlink:href="#DejaVuSans-61" x="239.013672"/>
      <use xlink:href="#DejaVuSans-6e" x="300.292969"/>
      <use xlink:href="#DejaVuSans-65" x="363.671875"/>
     </g>
    </g>
    <g id="line2d_29">
     <path d="M 245.26125 45.090938 
L 257.26125 45.090938 
L 269.26125 45.090938 
" style="fill: none; stroke: #ff0000; stroke-opacity: 0.5; stroke-width: 2; stroke-linecap: square"/>
    </g>
    <g id="text_16">
     <!-- xz-plane -->
     <g transform="translate(278.86125 49.290938)scale(0.12 -0.12)">
      <use xlink:href="#DejaVuSans-78"/>
      <use xlink:href="#DejaVuSans-7a" x="59.179688"/>
      <use xlink:href="#DejaVuSans-2d" x="111.669922"/>
      <use xlink:href="#DejaVuSans-70" x="147.753906"/>
      <use xlink:href="#DejaVuSans-6c" x="211.230469"/>
      <use xlink:href="#DejaVuSans-61" x="239.013672"/>
      <use xlink:href="#DejaVuSans-6e" x="300.292969"/>
      <use xlink:href="#DejaVuSans-65" x="363.671875"/>
     </g>
    </g>
    <g id="line2d_30">
     <path d="M 245.26125 62.704687 
L 257.26125 62.704687 
L 269.26125 62.704687 
" style="fill: none; stroke: #008000; stroke-opacity: 0.5; stroke-width: 2; stroke-linecap: square"/>
    </g>
    <g id="text_17">
     <!-- xy-plane -->
     <g transform="translate(278.86125 66.904687)scale(0.12 -0.12)">
      <use xlink:href="#DejaVuSans-78"/>
      <use xlink:href="#DejaVuSans-79" x="59.179688"/>
      <use xlink:href="#DejaVuSans-2d" x="116.609375"/>
      <use xlink:href="#DejaVuSans-70" x="152.693359"/>
      <use xlink:href="#DejaVuSans-6c" x="216.169922"/>
      <use xlink:href="#DejaVuSans-61" x="243.953125"/>
      <use xlink:href="#DejaVuSans-6e" x="305.232422"/>
      <use xlink:href="#DejaVuSans-65" x="368.611328"/>
     </g>
    </g>
   </g>
  </g>
 </g>
 <defs>
  <clipPath id="p80a678d612">
   <rect x="49.3975" y="11.759062" width="291.8825" height="222.793437"/>
  </clipPath>
 </defs>
</svg>
