<?xml version="1.0" encoding="utf-8" standalone="no"?>
<!DOCTYPE svg PUBLIC "-//W3C//DTD SVG 1.1//EN"
  "http://www.w3.org/Graphics/SVG/1.1/DTD/svg11.dtd">
<!-- Created with matplotlib (https://matplotlib.org/) -->
<svg height="276.48pt" version="1.1" viewBox="0 0 275.972366 276.48" width="275.972366pt" xmlns="http://www.w3.org/2000/svg" xmlns:xlink="http://www.w3.org/1999/xlink">
 <metadata>
  <rdf:RDF xmlns:cc="http://creativecommons.org/ns#" xmlns:dc="http://purl.org/dc/elements/1.1/" xmlns:rdf="http://www.w3.org/1999/02/22-rdf-syntax-ns#">
   <cc:Work>
    <dc:type rdf:resource="http://purl.org/dc/dcmitype/StillImage"/>
    <dc:date>2021-04-20T11:13:46.739134</dc:date>
    <dc:format>image/svg+xml</dc:format>
    <dc:creator>
     <cc:Agent>
      <dc:title>Matplotlib v3.3.4, https://matplotlib.org/</dc:title>
     </cc:Agent>
    </dc:creator>
   </cc:Work>
  </rdf:RDF>
 </metadata>
 <defs>
  <style type="text/css">*{stroke-linecap:butt;stroke-linejoin:round;}</style>
 </defs>
 <g id="figure_1">
  <g id="patch_1">
   <path d="M 0 276.48 
L 275.972366 276.48 
L 275.972366 0 
L 0 0 
z
" style="fill:none;"/>
  </g>
  <g id="axes_1">
   <g id="patch_2">
    <path d="M 33.605 254.16625 
L 267.972955 254.16625 
L 267.972955 7.2 
L 33.605 7.2 
z
" style="fill:#ffffff;"/>
   </g>
   <g id="matplotlib.axis_1">
    <g id="xtick_1">
     <g id="line2d_1">
      <defs>
       <path d="M 0 0 
L 0 -6 
" id="me25032b7df" style="stroke:#000000;stroke-width:2;"/>
      </defs>
      <g>
       <use style="fill:#ffffff;stroke:#000000;stroke-width:2;" x="42.10595" xlink:href="#me25032b7df" y="254.16625"/>
      </g>
     </g>
     <g id="line2d_2">
      <defs>
       <path d="M 0 0 
L 0 6 
" id="mdc96c6b900" style="stroke:#000000;stroke-width:2;"/>
      </defs>
      <g>
       <use style="fill:#ffffff;stroke:#000000;stroke-width:2;" x="42.10595" xlink:href="#mdc96c6b900" y="7.2"/>
      </g>
     </g>
     <g id="text_1">
      <!-- 0 -->
      <g transform="translate(38.28845 266.784375)scale(0.12 -0.12)">
       <defs>
        <path d="M 31.78125 66.40625 
Q 24.171875 66.40625 20.328125 58.90625 
Q 16.5 51.421875 16.5 36.375 
Q 16.5 21.390625 20.328125 13.890625 
Q 24.171875 6.390625 31.78125 6.390625 
Q 39.453125 6.390625 43.28125 13.890625 
Q 47.125 21.390625 47.125 36.375 
Q 47.125 51.421875 43.28125 58.90625 
Q 39.453125 66.40625 31.78125 66.40625 
z
M 31.78125 74.21875 
Q 44.046875 74.21875 50.515625 64.515625 
Q 56.984375 54.828125 56.984375 36.375 
Q 56.984375 17.96875 50.515625 8.265625 
Q 44.046875 -1.421875 31.78125 -1.421875 
Q 19.53125 -1.421875 13.0625 8.265625 
Q 6.59375 17.96875 6.59375 36.375 
Q 6.59375 54.828125 13.0625 64.515625 
Q 19.53125 74.21875 31.78125 74.21875 
z
" id="DejaVuSans-48"/>
       </defs>
       <use xlink:href="#DejaVuSans-48"/>
      </g>
     </g>
    </g>
    <g id="xtick_2">
     <g id="line2d_3">
      <g>
       <use style="fill:#ffffff;stroke:#000000;stroke-width:2;" x="85.148733" xlink:href="#me25032b7df" y="254.16625"/>
      </g>
     </g>
     <g id="line2d_4">
      <g>
       <use style="fill:#ffffff;stroke:#000000;stroke-width:2;" x="85.148733" xlink:href="#mdc96c6b900" y="7.2"/>
      </g>
     </g>
     <g id="text_2">
      <!-- 20 -->
      <g transform="translate(77.513733 266.784375)scale(0.12 -0.12)">
       <defs>
        <path d="M 19.1875 8.296875 
L 53.609375 8.296875 
L 53.609375 0 
L 7.328125 0 
L 7.328125 8.296875 
Q 12.9375 14.109375 22.625 23.890625 
Q 32.328125 33.6875 34.8125 36.53125 
Q 39.546875 41.84375 41.421875 45.53125 
Q 43.3125 49.21875 43.3125 52.78125 
Q 43.3125 58.59375 39.234375 62.25 
Q 35.15625 65.921875 28.609375 65.921875 
Q 23.96875 65.921875 18.8125 64.3125 
Q 13.671875 62.703125 7.8125 59.421875 
L 7.8125 69.390625 
Q 13.765625 71.78125 18.9375 73 
Q 24.125 74.21875 28.421875 74.21875 
Q 39.75 74.21875 46.484375 68.546875 
Q 53.21875 62.890625 53.21875 53.421875 
Q 53.21875 48.921875 51.53125 44.890625 
Q 49.859375 40.875 45.40625 35.40625 
Q 44.1875 33.984375 37.640625 27.21875 
Q 31.109375 20.453125 19.1875 8.296875 
z
" id="DejaVuSans-50"/>
       </defs>
       <use xlink:href="#DejaVuSans-50"/>
       <use x="63.623047" xlink:href="#DejaVuSans-48"/>
      </g>
     </g>
    </g>
    <g id="xtick_3">
     <g id="line2d_5">
      <g>
       <use style="fill:#ffffff;stroke:#000000;stroke-width:2;" x="128.191516" xlink:href="#me25032b7df" y="254.16625"/>
      </g>
     </g>
     <g id="line2d_6">
      <g>
       <use style="fill:#ffffff;stroke:#000000;stroke-width:2;" x="128.191516" xlink:href="#mdc96c6b900" y="7.2"/>
      </g>
     </g>
     <g id="text_3">
      <!-- 40 -->
      <g transform="translate(120.556516 266.784375)scale(0.12 -0.12)">
       <defs>
        <path d="M 37.796875 64.3125 
L 12.890625 25.390625 
L 37.796875 25.390625 
z
M 35.203125 72.90625 
L 47.609375 72.90625 
L 47.609375 25.390625 
L 58.015625 25.390625 
L 58.015625 17.1875 
L 47.609375 17.1875 
L 47.609375 0 
L 37.796875 0 
L 37.796875 17.1875 
L 4.890625 17.1875 
L 4.890625 26.703125 
z
" id="DejaVuSans-52"/>
       </defs>
       <use xlink:href="#DejaVuSans-52"/>
       <use x="63.623047" xlink:href="#DejaVuSans-48"/>
      </g>
     </g>
    </g>
    <g id="xtick_4">
     <g id="line2d_7">
      <g>
       <use style="fill:#ffffff;stroke:#000000;stroke-width:2;" x="171.234299" xlink:href="#me25032b7df" y="254.16625"/>
      </g>
     </g>
     <g id="line2d_8">
      <g>
       <use style="fill:#ffffff;stroke:#000000;stroke-width:2;" x="171.234299" xlink:href="#mdc96c6b900" y="7.2"/>
      </g>
     </g>
     <g id="text_4">
      <!-- 60 -->
      <g transform="translate(163.599299 266.784375)scale(0.12 -0.12)">
       <defs>
        <path d="M 33.015625 40.375 
Q 26.375 40.375 22.484375 35.828125 
Q 18.609375 31.296875 18.609375 23.390625 
Q 18.609375 15.53125 22.484375 10.953125 
Q 26.375 6.390625 33.015625 6.390625 
Q 39.65625 6.390625 43.53125 10.953125 
Q 47.40625 15.53125 47.40625 23.390625 
Q 47.40625 31.296875 43.53125 35.828125 
Q 39.65625 40.375 33.015625 40.375 
z
M 52.59375 71.296875 
L 52.59375 62.3125 
Q 48.875 64.0625 45.09375 64.984375 
Q 41.3125 65.921875 37.59375 65.921875 
Q 27.828125 65.921875 22.671875 59.328125 
Q 17.53125 52.734375 16.796875 39.40625 
Q 19.671875 43.65625 24.015625 45.921875 
Q 28.375 48.1875 33.59375 48.1875 
Q 44.578125 48.1875 50.953125 41.515625 
Q 57.328125 34.859375 57.328125 23.390625 
Q 57.328125 12.15625 50.6875 5.359375 
Q 44.046875 -1.421875 33.015625 -1.421875 
Q 20.359375 -1.421875 13.671875 8.265625 
Q 6.984375 17.96875 6.984375 36.375 
Q 6.984375 53.65625 15.1875 63.9375 
Q 23.390625 74.21875 37.203125 74.21875 
Q 40.921875 74.21875 44.703125 73.484375 
Q 48.484375 72.75 52.59375 71.296875 
z
" id="DejaVuSans-54"/>
       </defs>
       <use xlink:href="#DejaVuSans-54"/>
       <use x="63.623047" xlink:href="#DejaVuSans-48"/>
      </g>
     </g>
    </g>
    <g id="xtick_5">
     <g id="line2d_9">
      <g>
       <use style="fill:#ffffff;stroke:#000000;stroke-width:2;" x="214.277082" xlink:href="#me25032b7df" y="254.16625"/>
      </g>
     </g>
     <g id="line2d_10">
      <g>
       <use style="fill:#ffffff;stroke:#000000;stroke-width:2;" x="214.277082" xlink:href="#mdc96c6b900" y="7.2"/>
      </g>
     </g>
     <g id="text_5">
      <!-- 80 -->
      <g transform="translate(206.642082 266.784375)scale(0.12 -0.12)">
       <defs>
        <path d="M 31.78125 34.625 
Q 24.75 34.625 20.71875 30.859375 
Q 16.703125 27.09375 16.703125 20.515625 
Q 16.703125 13.921875 20.71875 10.15625 
Q 24.75 6.390625 31.78125 6.390625 
Q 38.8125 6.390625 42.859375 10.171875 
Q 46.921875 13.96875 46.921875 20.515625 
Q 46.921875 27.09375 42.890625 30.859375 
Q 38.875 34.625 31.78125 34.625 
z
M 21.921875 38.8125 
Q 15.578125 40.375 12.03125 44.71875 
Q 8.5 49.078125 8.5 55.328125 
Q 8.5 64.0625 14.71875 69.140625 
Q 20.953125 74.21875 31.78125 74.21875 
Q 42.671875 74.21875 48.875 69.140625 
Q 55.078125 64.0625 55.078125 55.328125 
Q 55.078125 49.078125 51.53125 44.71875 
Q 48 40.375 41.703125 38.8125 
Q 48.828125 37.15625 52.796875 32.3125 
Q 56.78125 27.484375 56.78125 20.515625 
Q 56.78125 9.90625 50.3125 4.234375 
Q 43.84375 -1.421875 31.78125 -1.421875 
Q 19.734375 -1.421875 13.25 4.234375 
Q 6.78125 9.90625 6.78125 20.515625 
Q 6.78125 27.484375 10.78125 32.3125 
Q 14.796875 37.15625 21.921875 38.8125 
z
M 18.3125 54.390625 
Q 18.3125 48.734375 21.84375 45.5625 
Q 25.390625 42.390625 31.78125 42.390625 
Q 38.140625 42.390625 41.71875 45.5625 
Q 45.3125 48.734375 45.3125 54.390625 
Q 45.3125 60.0625 41.71875 63.234375 
Q 38.140625 66.40625 31.78125 66.40625 
Q 25.390625 66.40625 21.84375 63.234375 
Q 18.3125 60.0625 18.3125 54.390625 
z
" id="DejaVuSans-56"/>
       </defs>
       <use xlink:href="#DejaVuSans-56"/>
       <use x="63.623047" xlink:href="#DejaVuSans-48"/>
      </g>
     </g>
    </g>
    <g id="xtick_6">
     <g id="line2d_11">
      <g>
       <use style="fill:#ffffff;stroke:#000000;stroke-width:2;" x="257.319866" xlink:href="#me25032b7df" y="254.16625"/>
      </g>
     </g>
     <g id="line2d_12">
      <g>
       <use style="fill:#ffffff;stroke:#000000;stroke-width:2;" x="257.319866" xlink:href="#mdc96c6b900" y="7.2"/>
      </g>
     </g>
     <g id="text_6">
      <!-- 100 -->
      <g transform="translate(245.867366 266.784375)scale(0.12 -0.12)">
       <defs>
        <path d="M 12.40625 8.296875 
L 28.515625 8.296875 
L 28.515625 63.921875 
L 10.984375 60.40625 
L 10.984375 69.390625 
L 28.421875 72.90625 
L 38.28125 72.90625 
L 38.28125 8.296875 
L 54.390625 8.296875 
L 54.390625 0 
L 12.40625 0 
z
" id="DejaVuSans-49"/>
       </defs>
       <use xlink:href="#DejaVuSans-49"/>
       <use x="63.623047" xlink:href="#DejaVuSans-48"/>
       <use x="127.246094" xlink:href="#DejaVuSans-48"/>
      </g>
     </g>
    </g>
   </g>
   <g id="matplotlib.axis_2">
    <g id="ytick_1">
     <g id="line2d_13">
      <defs>
       <path d="M 0 0 
L 6 0 
" id="m948b1210ad" style="stroke:#000000;stroke-width:2;"/>
      </defs>
      <g>
       <use style="fill:#ffffff;stroke:#000000;stroke-width:2;" x="33.605" xlink:href="#m948b1210ad" y="244.068726"/>
      </g>
     </g>
     <g id="line2d_14">
      <defs>
       <path d="M 0 0 
L -6 0 
" id="md67bdcf186" style="stroke:#000000;stroke-width:2;"/>
      </defs>
      <g>
       <use style="fill:#ffffff;stroke:#000000;stroke-width:2;" x="267.972955" xlink:href="#md67bdcf186" y="244.068726"/>
      </g>
     </g>
     <g id="text_7">
      <!-- 0 -->
      <g transform="translate(22.47 248.627789)scale(0.12 -0.12)">
       <use xlink:href="#DejaVuSans-48"/>
      </g>
     </g>
    </g>
    <g id="ytick_2">
     <g id="line2d_15">
      <g>
       <use style="fill:#ffffff;stroke:#000000;stroke-width:2;" x="33.605" xlink:href="#m948b1210ad" y="215.863353"/>
      </g>
     </g>
     <g id="line2d_16">
      <g>
       <use style="fill:#ffffff;stroke:#000000;stroke-width:2;" x="267.972955" xlink:href="#md67bdcf186" y="215.863353"/>
      </g>
     </g>
     <g id="text_8">
      <!-- 25 -->
      <g transform="translate(14.835 220.422415)scale(0.12 -0.12)">
       <defs>
        <path d="M 10.796875 72.90625 
L 49.515625 72.90625 
L 49.515625 64.59375 
L 19.828125 64.59375 
L 19.828125 46.734375 
Q 21.96875 47.46875 24.109375 47.828125 
Q 26.265625 48.1875 28.421875 48.1875 
Q 40.625 48.1875 47.75 41.5 
Q 54.890625 34.8125 54.890625 23.390625 
Q 54.890625 11.625 47.5625 5.09375 
Q 40.234375 -1.421875 26.90625 -1.421875 
Q 22.3125 -1.421875 17.546875 -0.640625 
Q 12.796875 0.140625 7.71875 1.703125 
L 7.71875 11.625 
Q 12.109375 9.234375 16.796875 8.0625 
Q 21.484375 6.890625 26.703125 6.890625 
Q 35.15625 6.890625 40.078125 11.328125 
Q 45.015625 15.765625 45.015625 23.390625 
Q 45.015625 31 40.078125 35.4375 
Q 35.15625 39.890625 26.703125 39.890625 
Q 22.75 39.890625 18.8125 39.015625 
Q 14.890625 38.140625 10.796875 36.28125 
z
" id="DejaVuSans-53"/>
       </defs>
       <use xlink:href="#DejaVuSans-50"/>
       <use x="63.623047" xlink:href="#DejaVuSans-53"/>
      </g>
     </g>
    </g>
    <g id="ytick_3">
     <g id="line2d_17">
      <g>
       <use style="fill:#ffffff;stroke:#000000;stroke-width:2;" x="33.605" xlink:href="#m948b1210ad" y="187.657979"/>
      </g>
     </g>
     <g id="line2d_18">
      <g>
       <use style="fill:#ffffff;stroke:#000000;stroke-width:2;" x="267.972955" xlink:href="#md67bdcf186" y="187.657979"/>
      </g>
     </g>
     <g id="text_9">
      <!-- 50 -->
      <g transform="translate(14.835 192.217042)scale(0.12 -0.12)">
       <use xlink:href="#DejaVuSans-53"/>
       <use x="63.623047" xlink:href="#DejaVuSans-48"/>
      </g>
     </g>
    </g>
    <g id="ytick_4">
     <g id="line2d_19">
      <g>
       <use style="fill:#ffffff;stroke:#000000;stroke-width:2;" x="33.605" xlink:href="#m948b1210ad" y="159.452606"/>
      </g>
     </g>
     <g id="line2d_20">
      <g>
       <use style="fill:#ffffff;stroke:#000000;stroke-width:2;" x="267.972955" xlink:href="#md67bdcf186" y="159.452606"/>
      </g>
     </g>
     <g id="text_10">
      <!-- 75 -->
      <g transform="translate(14.835 164.011668)scale(0.12 -0.12)">
       <defs>
        <path d="M 8.203125 72.90625 
L 55.078125 72.90625 
L 55.078125 68.703125 
L 28.609375 0 
L 18.3125 0 
L 43.21875 64.59375 
L 8.203125 64.59375 
z
" id="DejaVuSans-55"/>
       </defs>
       <use xlink:href="#DejaVuSans-55"/>
       <use x="63.623047" xlink:href="#DejaVuSans-53"/>
      </g>
     </g>
    </g>
    <g id="ytick_5">
     <g id="line2d_21">
      <g>
       <use style="fill:#ffffff;stroke:#000000;stroke-width:2;" x="33.605" xlink:href="#m948b1210ad" y="131.247232"/>
      </g>
     </g>
     <g id="line2d_22">
      <g>
       <use style="fill:#ffffff;stroke:#000000;stroke-width:2;" x="267.972955" xlink:href="#md67bdcf186" y="131.247232"/>
      </g>
     </g>
     <g id="text_11">
      <!-- 100 -->
      <g transform="translate(7.2 135.806295)scale(0.12 -0.12)">
       <use xlink:href="#DejaVuSans-49"/>
       <use x="63.623047" xlink:href="#DejaVuSans-48"/>
       <use x="127.246094" xlink:href="#DejaVuSans-48"/>
      </g>
     </g>
    </g>
    <g id="ytick_6">
     <g id="line2d_23">
      <g>
       <use style="fill:#ffffff;stroke:#000000;stroke-width:2;" x="33.605" xlink:href="#m948b1210ad" y="103.041859"/>
      </g>
     </g>
     <g id="line2d_24">
      <g>
       <use style="fill:#ffffff;stroke:#000000;stroke-width:2;" x="267.972955" xlink:href="#md67bdcf186" y="103.041859"/>
      </g>
     </g>
     <g id="text_12">
      <!-- 125 -->
      <g transform="translate(7.2 107.600922)scale(0.12 -0.12)">
       <use xlink:href="#DejaVuSans-49"/>
       <use x="63.623047" xlink:href="#DejaVuSans-50"/>
       <use x="127.246094" xlink:href="#DejaVuSans-53"/>
      </g>
     </g>
    </g>
    <g id="ytick_7">
     <g id="line2d_25">
      <g>
       <use style="fill:#ffffff;stroke:#000000;stroke-width:2;" x="33.605" xlink:href="#m948b1210ad" y="74.836486"/>
      </g>
     </g>
     <g id="line2d_26">
      <g>
       <use style="fill:#ffffff;stroke:#000000;stroke-width:2;" x="267.972955" xlink:href="#md67bdcf186" y="74.836486"/>
      </g>
     </g>
     <g id="text_13">
      <!-- 150 -->
      <g transform="translate(7.2 79.395548)scale(0.12 -0.12)">
       <use xlink:href="#DejaVuSans-49"/>
       <use x="63.623047" xlink:href="#DejaVuSans-53"/>
       <use x="127.246094" xlink:href="#DejaVuSans-48"/>
      </g>
     </g>
    </g>
    <g id="ytick_8">
     <g id="line2d_27">
      <g>
       <use style="fill:#ffffff;stroke:#000000;stroke-width:2;" x="33.605" xlink:href="#m948b1210ad" y="46.631112"/>
      </g>
     </g>
     <g id="line2d_28">
      <g>
       <use style="fill:#ffffff;stroke:#000000;stroke-width:2;" x="267.972955" xlink:href="#md67bdcf186" y="46.631112"/>
      </g>
     </g>
     <g id="text_14">
      <!-- 175 -->
      <g transform="translate(7.2 51.190175)scale(0.12 -0.12)">
       <use xlink:href="#DejaVuSans-49"/>
       <use x="63.623047" xlink:href="#DejaVuSans-55"/>
       <use x="127.246094" xlink:href="#DejaVuSans-53"/>
      </g>
     </g>
    </g>
    <g id="ytick_9">
     <g id="line2d_29">
      <g>
       <use style="fill:#ffffff;stroke:#000000;stroke-width:2;" x="33.605" xlink:href="#m948b1210ad" y="18.425739"/>
      </g>
     </g>
     <g id="line2d_30">
      <g>
       <use style="fill:#ffffff;stroke:#000000;stroke-width:2;" x="267.972955" xlink:href="#md67bdcf186" y="18.425739"/>
      </g>
     </g>
     <g id="text_15">
      <!-- 200 -->
      <g transform="translate(7.2 22.984801)scale(0.12 -0.12)">
       <use xlink:href="#DejaVuSans-50"/>
       <use x="63.623047" xlink:href="#DejaVuSans-48"/>
       <use x="127.246094" xlink:href="#DejaVuSans-48"/>
      </g>
     </g>
    </g>
   </g>
   <g id="line2d_31">
    <defs>
     <path d="M 0 4 
C 1.060812 4 2.078319 3.578535 2.828427 2.828427 
C 3.578535 2.078319 4 1.060812 4 0 
C 4 -1.060812 3.578535 -2.078319 2.828427 -2.828427 
C 2.078319 -3.578535 1.060812 -4 0 -4 
C -1.060812 -4 -2.078319 -3.578535 -2.828427 -2.828427 
C -3.578535 -2.078319 -4 -1.060812 -4 0 
C -4 1.060812 -3.578535 2.078319 -2.828427 2.828427 
C -2.078319 3.578535 -1.060812 4 0 4 
z
" id="m9a19a58a7f" style="stroke:#000000;"/>
    </defs>
    <g clip-path="url(#pf83a3b392f)">
     <use style="fill:#ffffff;stroke:#000000;" x="44.258089" xlink:href="#m9a19a58a7f" y="18.425739"/>
     <use style="fill:#ffffff;stroke:#000000;" x="44.258089" xlink:href="#m9a19a58a7f" y="19.553954"/>
     <use style="fill:#ffffff;stroke:#000000;" x="46.410228" xlink:href="#m9a19a58a7f" y="20.682169"/>
     <use style="fill:#ffffff;stroke:#000000;" x="46.410228" xlink:href="#m9a19a58a7f" y="21.810383"/>
     <use style="fill:#ffffff;stroke:#000000;" x="48.562367" xlink:href="#m9a19a58a7f" y="22.938598"/>
     <use style="fill:#ffffff;stroke:#000000;" x="48.562367" xlink:href="#m9a19a58a7f" y="24.066813"/>
     <use style="fill:#ffffff;stroke:#000000;" x="50.714506" xlink:href="#m9a19a58a7f" y="25.195028"/>
     <use style="fill:#ffffff;stroke:#000000;" x="50.714506" xlink:href="#m9a19a58a7f" y="26.323243"/>
     <use style="fill:#ffffff;stroke:#000000;" x="52.866645" xlink:href="#m9a19a58a7f" y="27.451458"/>
     <use style="fill:#ffffff;stroke:#000000;" x="52.866645" xlink:href="#m9a19a58a7f" y="28.579673"/>
     <use style="fill:#ffffff;stroke:#000000;" x="55.018785" xlink:href="#m9a19a58a7f" y="29.707888"/>
     <use style="fill:#ffffff;stroke:#000000;" x="55.018785" xlink:href="#m9a19a58a7f" y="30.836103"/>
     <use style="fill:#ffffff;stroke:#000000;" x="57.170924" xlink:href="#m9a19a58a7f" y="31.964318"/>
     <use style="fill:#ffffff;stroke:#000000;" x="57.170924" xlink:href="#m9a19a58a7f" y="33.092533"/>
     <use style="fill:#ffffff;stroke:#000000;" x="59.323063" xlink:href="#m9a19a58a7f" y="34.220748"/>
     <use style="fill:#ffffff;stroke:#000000;" x="59.323063" xlink:href="#m9a19a58a7f" y="35.348963"/>
     <use style="fill:#ffffff;stroke:#000000;" x="61.475202" xlink:href="#m9a19a58a7f" y="36.477178"/>
     <use style="fill:#ffffff;stroke:#000000;" x="61.475202" xlink:href="#m9a19a58a7f" y="37.605393"/>
     <use style="fill:#ffffff;stroke:#000000;" x="63.627341" xlink:href="#m9a19a58a7f" y="38.733608"/>
     <use style="fill:#ffffff;stroke:#000000;" x="63.627341" xlink:href="#m9a19a58a7f" y="39.861822"/>
     <use style="fill:#ffffff;stroke:#000000;" x="65.77948" xlink:href="#m9a19a58a7f" y="40.990037"/>
     <use style="fill:#ffffff;stroke:#000000;" x="65.77948" xlink:href="#m9a19a58a7f" y="42.118252"/>
     <use style="fill:#ffffff;stroke:#000000;" x="67.93162" xlink:href="#m9a19a58a7f" y="43.246467"/>
     <use style="fill:#ffffff;stroke:#000000;" x="67.93162" xlink:href="#m9a19a58a7f" y="44.374682"/>
     <use style="fill:#ffffff;stroke:#000000;" x="70.083759" xlink:href="#m9a19a58a7f" y="45.502897"/>
     <use style="fill:#ffffff;stroke:#000000;" x="70.083759" xlink:href="#m9a19a58a7f" y="46.631112"/>
     <use style="fill:#ffffff;stroke:#000000;" x="72.235898" xlink:href="#m9a19a58a7f" y="47.759327"/>
     <use style="fill:#ffffff;stroke:#000000;" x="72.235898" xlink:href="#m9a19a58a7f" y="48.887542"/>
     <use style="fill:#ffffff;stroke:#000000;" x="74.388037" xlink:href="#m9a19a58a7f" y="50.015757"/>
     <use style="fill:#ffffff;stroke:#000000;" x="74.388037" xlink:href="#m9a19a58a7f" y="51.143972"/>
     <use style="fill:#ffffff;stroke:#000000;" x="76.540176" xlink:href="#m9a19a58a7f" y="52.272187"/>
     <use style="fill:#ffffff;stroke:#000000;" x="76.540176" xlink:href="#m9a19a58a7f" y="53.400402"/>
     <use style="fill:#ffffff;stroke:#000000;" x="78.692315" xlink:href="#m9a19a58a7f" y="54.528617"/>
     <use style="fill:#ffffff;stroke:#000000;" x="78.692315" xlink:href="#m9a19a58a7f" y="55.656832"/>
     <use style="fill:#ffffff;stroke:#000000;" x="80.844455" xlink:href="#m9a19a58a7f" y="56.785047"/>
     <use style="fill:#ffffff;stroke:#000000;" x="80.844455" xlink:href="#m9a19a58a7f" y="57.913261"/>
     <use style="fill:#ffffff;stroke:#000000;" x="82.996594" xlink:href="#m9a19a58a7f" y="59.041476"/>
     <use style="fill:#ffffff;stroke:#000000;" x="82.996594" xlink:href="#m9a19a58a7f" y="60.169691"/>
     <use style="fill:#ffffff;stroke:#000000;" x="85.148733" xlink:href="#m9a19a58a7f" y="61.297906"/>
     <use style="fill:#ffffff;stroke:#000000;" x="85.148733" xlink:href="#m9a19a58a7f" y="62.426121"/>
     <use style="fill:#ffffff;stroke:#000000;" x="87.300872" xlink:href="#m9a19a58a7f" y="63.554336"/>
     <use style="fill:#ffffff;stroke:#000000;" x="87.300872" xlink:href="#m9a19a58a7f" y="64.682551"/>
     <use style="fill:#ffffff;stroke:#000000;" x="89.453011" xlink:href="#m9a19a58a7f" y="65.810766"/>
     <use style="fill:#ffffff;stroke:#000000;" x="89.453011" xlink:href="#m9a19a58a7f" y="66.938981"/>
     <use style="fill:#ffffff;stroke:#000000;" x="91.60515" xlink:href="#m9a19a58a7f" y="68.067196"/>
     <use style="fill:#ffffff;stroke:#000000;" x="91.60515" xlink:href="#m9a19a58a7f" y="69.195411"/>
     <use style="fill:#ffffff;stroke:#000000;" x="93.75729" xlink:href="#m9a19a58a7f" y="70.323626"/>
     <use style="fill:#ffffff;stroke:#000000;" x="93.75729" xlink:href="#m9a19a58a7f" y="71.451841"/>
     <use style="fill:#ffffff;stroke:#000000;" x="95.909429" xlink:href="#m9a19a58a7f" y="72.580056"/>
     <use style="fill:#ffffff;stroke:#000000;" x="95.909429" xlink:href="#m9a19a58a7f" y="73.708271"/>
     <use style="fill:#ffffff;stroke:#000000;" x="98.061568" xlink:href="#m9a19a58a7f" y="74.836486"/>
     <use style="fill:#ffffff;stroke:#000000;" x="98.061568" xlink:href="#m9a19a58a7f" y="75.9647"/>
     <use style="fill:#ffffff;stroke:#000000;" x="100.213707" xlink:href="#m9a19a58a7f" y="77.092915"/>
     <use style="fill:#ffffff;stroke:#000000;" x="100.213707" xlink:href="#m9a19a58a7f" y="78.22113"/>
     <use style="fill:#ffffff;stroke:#000000;" x="102.365846" xlink:href="#m9a19a58a7f" y="79.349345"/>
     <use style="fill:#ffffff;stroke:#000000;" x="102.365846" xlink:href="#m9a19a58a7f" y="80.47756"/>
     <use style="fill:#ffffff;stroke:#000000;" x="104.517985" xlink:href="#m9a19a58a7f" y="81.605775"/>
     <use style="fill:#ffffff;stroke:#000000;" x="104.517985" xlink:href="#m9a19a58a7f" y="82.73399"/>
     <use style="fill:#ffffff;stroke:#000000;" x="106.670124" xlink:href="#m9a19a58a7f" y="83.862205"/>
     <use style="fill:#ffffff;stroke:#000000;" x="106.670124" xlink:href="#m9a19a58a7f" y="84.99042"/>
     <use style="fill:#ffffff;stroke:#000000;" x="108.822264" xlink:href="#m9a19a58a7f" y="86.118635"/>
     <use style="fill:#ffffff;stroke:#000000;" x="108.822264" xlink:href="#m9a19a58a7f" y="87.24685"/>
     <use style="fill:#ffffff;stroke:#000000;" x="110.974403" xlink:href="#m9a19a58a7f" y="88.375065"/>
     <use style="fill:#ffffff;stroke:#000000;" x="110.974403" xlink:href="#m9a19a58a7f" y="89.50328"/>
     <use style="fill:#ffffff;stroke:#000000;" x="113.126542" xlink:href="#m9a19a58a7f" y="90.631495"/>
     <use style="fill:#ffffff;stroke:#000000;" x="113.126542" xlink:href="#m9a19a58a7f" y="91.75971"/>
     <use style="fill:#ffffff;stroke:#000000;" x="115.278681" xlink:href="#m9a19a58a7f" y="92.887925"/>
     <use style="fill:#ffffff;stroke:#000000;" x="115.278681" xlink:href="#m9a19a58a7f" y="94.01614"/>
     <use style="fill:#ffffff;stroke:#000000;" x="117.43082" xlink:href="#m9a19a58a7f" y="95.144354"/>
     <use style="fill:#ffffff;stroke:#000000;" x="117.43082" xlink:href="#m9a19a58a7f" y="96.272569"/>
     <use style="fill:#ffffff;stroke:#000000;" x="119.582959" xlink:href="#m9a19a58a7f" y="97.400784"/>
     <use style="fill:#ffffff;stroke:#000000;" x="119.582959" xlink:href="#m9a19a58a7f" y="98.528999"/>
     <use style="fill:#ffffff;stroke:#000000;" x="121.735099" xlink:href="#m9a19a58a7f" y="99.657214"/>
     <use style="fill:#ffffff;stroke:#000000;" x="121.735099" xlink:href="#m9a19a58a7f" y="100.785429"/>
     <use style="fill:#ffffff;stroke:#000000;" x="123.887238" xlink:href="#m9a19a58a7f" y="101.913644"/>
     <use style="fill:#ffffff;stroke:#000000;" x="123.887238" xlink:href="#m9a19a58a7f" y="103.041859"/>
     <use style="fill:#ffffff;stroke:#000000;" x="126.039377" xlink:href="#m9a19a58a7f" y="104.170074"/>
     <use style="fill:#ffffff;stroke:#000000;" x="126.039377" xlink:href="#m9a19a58a7f" y="105.298289"/>
     <use style="fill:#ffffff;stroke:#000000;" x="128.191516" xlink:href="#m9a19a58a7f" y="106.426504"/>
     <use style="fill:#ffffff;stroke:#000000;" x="128.191516" xlink:href="#m9a19a58a7f" y="107.554719"/>
     <use style="fill:#ffffff;stroke:#000000;" x="130.343655" xlink:href="#m9a19a58a7f" y="108.682934"/>
     <use style="fill:#ffffff;stroke:#000000;" x="130.343655" xlink:href="#m9a19a58a7f" y="109.811149"/>
     <use style="fill:#ffffff;stroke:#000000;" x="132.495794" xlink:href="#m9a19a58a7f" y="110.939364"/>
     <use style="fill:#ffffff;stroke:#000000;" x="132.495794" xlink:href="#m9a19a58a7f" y="112.067579"/>
     <use style="fill:#ffffff;stroke:#000000;" x="134.647934" xlink:href="#m9a19a58a7f" y="113.195793"/>
     <use style="fill:#ffffff;stroke:#000000;" x="134.647934" xlink:href="#m9a19a58a7f" y="114.324008"/>
     <use style="fill:#ffffff;stroke:#000000;" x="136.800073" xlink:href="#m9a19a58a7f" y="115.452223"/>
     <use style="fill:#ffffff;stroke:#000000;" x="136.800073" xlink:href="#m9a19a58a7f" y="116.580438"/>
     <use style="fill:#ffffff;stroke:#000000;" x="138.952212" xlink:href="#m9a19a58a7f" y="117.708653"/>
     <use style="fill:#ffffff;stroke:#000000;" x="138.952212" xlink:href="#m9a19a58a7f" y="118.836868"/>
     <use style="fill:#ffffff;stroke:#000000;" x="141.104351" xlink:href="#m9a19a58a7f" y="119.965083"/>
     <use style="fill:#ffffff;stroke:#000000;" x="141.104351" xlink:href="#m9a19a58a7f" y="121.093298"/>
     <use style="fill:#ffffff;stroke:#000000;" x="143.25649" xlink:href="#m9a19a58a7f" y="122.221513"/>
     <use style="fill:#ffffff;stroke:#000000;" x="143.25649" xlink:href="#m9a19a58a7f" y="123.349728"/>
     <use style="fill:#ffffff;stroke:#000000;" x="145.408629" xlink:href="#m9a19a58a7f" y="124.477943"/>
     <use style="fill:#ffffff;stroke:#000000;" x="145.408629" xlink:href="#m9a19a58a7f" y="125.606158"/>
     <use style="fill:#ffffff;stroke:#000000;" x="147.560769" xlink:href="#m9a19a58a7f" y="126.734373"/>
     <use style="fill:#ffffff;stroke:#000000;" x="147.560769" xlink:href="#m9a19a58a7f" y="127.862588"/>
     <use style="fill:#ffffff;stroke:#000000;" x="149.712908" xlink:href="#m9a19a58a7f" y="128.990803"/>
     <use style="fill:#ffffff;stroke:#000000;" x="149.712908" xlink:href="#m9a19a58a7f" y="130.119018"/>
     <use style="fill:#ffffff;stroke:#000000;" x="151.865047" xlink:href="#m9a19a58a7f" y="131.247232"/>
     <use style="fill:#ffffff;stroke:#000000;" x="151.865047" xlink:href="#m9a19a58a7f" y="132.375447"/>
     <use style="fill:#ffffff;stroke:#000000;" x="154.017186" xlink:href="#m9a19a58a7f" y="133.503662"/>
     <use style="fill:#ffffff;stroke:#000000;" x="154.017186" xlink:href="#m9a19a58a7f" y="134.631877"/>
     <use style="fill:#ffffff;stroke:#000000;" x="156.169325" xlink:href="#m9a19a58a7f" y="135.760092"/>
     <use style="fill:#ffffff;stroke:#000000;" x="156.169325" xlink:href="#m9a19a58a7f" y="136.888307"/>
     <use style="fill:#ffffff;stroke:#000000;" x="158.321464" xlink:href="#m9a19a58a7f" y="138.016522"/>
     <use style="fill:#ffffff;stroke:#000000;" x="158.321464" xlink:href="#m9a19a58a7f" y="139.144737"/>
     <use style="fill:#ffffff;stroke:#000000;" x="160.473603" xlink:href="#m9a19a58a7f" y="140.272952"/>
     <use style="fill:#ffffff;stroke:#000000;" x="160.473603" xlink:href="#m9a19a58a7f" y="141.401167"/>
     <use style="fill:#ffffff;stroke:#000000;" x="162.625743" xlink:href="#m9a19a58a7f" y="142.529382"/>
     <use style="fill:#ffffff;stroke:#000000;" x="162.625743" xlink:href="#m9a19a58a7f" y="143.657597"/>
     <use style="fill:#ffffff;stroke:#000000;" x="164.777882" xlink:href="#m9a19a58a7f" y="144.785812"/>
     <use style="fill:#ffffff;stroke:#000000;" x="164.777882" xlink:href="#m9a19a58a7f" y="145.914027"/>
     <use style="fill:#ffffff;stroke:#000000;" x="166.930021" xlink:href="#m9a19a58a7f" y="147.042242"/>
     <use style="fill:#ffffff;stroke:#000000;" x="166.930021" xlink:href="#m9a19a58a7f" y="148.170457"/>
     <use style="fill:#ffffff;stroke:#000000;" x="169.08216" xlink:href="#m9a19a58a7f" y="149.298671"/>
     <use style="fill:#ffffff;stroke:#000000;" x="169.08216" xlink:href="#m9a19a58a7f" y="150.426886"/>
     <use style="fill:#ffffff;stroke:#000000;" x="171.234299" xlink:href="#m9a19a58a7f" y="151.555101"/>
     <use style="fill:#ffffff;stroke:#000000;" x="171.234299" xlink:href="#m9a19a58a7f" y="152.683316"/>
     <use style="fill:#ffffff;stroke:#000000;" x="173.386438" xlink:href="#m9a19a58a7f" y="153.811531"/>
     <use style="fill:#ffffff;stroke:#000000;" x="173.386438" xlink:href="#m9a19a58a7f" y="154.939746"/>
     <use style="fill:#ffffff;stroke:#000000;" x="175.538578" xlink:href="#m9a19a58a7f" y="156.067961"/>
     <use style="fill:#ffffff;stroke:#000000;" x="175.538578" xlink:href="#m9a19a58a7f" y="157.196176"/>
     <use style="fill:#ffffff;stroke:#000000;" x="177.690717" xlink:href="#m9a19a58a7f" y="158.324391"/>
     <use style="fill:#ffffff;stroke:#000000;" x="177.690717" xlink:href="#m9a19a58a7f" y="159.452606"/>
     <use style="fill:#ffffff;stroke:#000000;" x="179.842856" xlink:href="#m9a19a58a7f" y="160.580821"/>
     <use style="fill:#ffffff;stroke:#000000;" x="179.842856" xlink:href="#m9a19a58a7f" y="161.709036"/>
     <use style="fill:#ffffff;stroke:#000000;" x="181.994995" xlink:href="#m9a19a58a7f" y="162.837251"/>
     <use style="fill:#ffffff;stroke:#000000;" x="181.994995" xlink:href="#m9a19a58a7f" y="163.965466"/>
     <use style="fill:#ffffff;stroke:#000000;" x="184.147134" xlink:href="#m9a19a58a7f" y="165.093681"/>
     <use style="fill:#ffffff;stroke:#000000;" x="184.147134" xlink:href="#m9a19a58a7f" y="166.221896"/>
     <use style="fill:#ffffff;stroke:#000000;" x="186.299273" xlink:href="#m9a19a58a7f" y="167.35011"/>
     <use style="fill:#ffffff;stroke:#000000;" x="186.299273" xlink:href="#m9a19a58a7f" y="168.478325"/>
     <use style="fill:#ffffff;stroke:#000000;" x="188.451413" xlink:href="#m9a19a58a7f" y="169.60654"/>
     <use style="fill:#ffffff;stroke:#000000;" x="188.451413" xlink:href="#m9a19a58a7f" y="170.734755"/>
     <use style="fill:#ffffff;stroke:#000000;" x="190.603552" xlink:href="#m9a19a58a7f" y="171.86297"/>
     <use style="fill:#ffffff;stroke:#000000;" x="190.603552" xlink:href="#m9a19a58a7f" y="172.991185"/>
     <use style="fill:#ffffff;stroke:#000000;" x="192.755691" xlink:href="#m9a19a58a7f" y="174.1194"/>
     <use style="fill:#ffffff;stroke:#000000;" x="192.755691" xlink:href="#m9a19a58a7f" y="175.247615"/>
     <use style="fill:#ffffff;stroke:#000000;" x="194.90783" xlink:href="#m9a19a58a7f" y="176.37583"/>
     <use style="fill:#ffffff;stroke:#000000;" x="194.90783" xlink:href="#m9a19a58a7f" y="177.504045"/>
     <use style="fill:#ffffff;stroke:#000000;" x="197.059969" xlink:href="#m9a19a58a7f" y="178.63226"/>
     <use style="fill:#ffffff;stroke:#000000;" x="197.059969" xlink:href="#m9a19a58a7f" y="179.760475"/>
     <use style="fill:#ffffff;stroke:#000000;" x="199.212108" xlink:href="#m9a19a58a7f" y="180.88869"/>
     <use style="fill:#ffffff;stroke:#000000;" x="199.212108" xlink:href="#m9a19a58a7f" y="182.016905"/>
     <use style="fill:#ffffff;stroke:#000000;" x="201.364248" xlink:href="#m9a19a58a7f" y="183.14512"/>
     <use style="fill:#ffffff;stroke:#000000;" x="201.364248" xlink:href="#m9a19a58a7f" y="184.273335"/>
     <use style="fill:#ffffff;stroke:#000000;" x="203.516387" xlink:href="#m9a19a58a7f" y="185.40155"/>
     <use style="fill:#ffffff;stroke:#000000;" x="203.516387" xlink:href="#m9a19a58a7f" y="186.529764"/>
     <use style="fill:#ffffff;stroke:#000000;" x="205.668526" xlink:href="#m9a19a58a7f" y="187.657979"/>
     <use style="fill:#ffffff;stroke:#000000;" x="205.668526" xlink:href="#m9a19a58a7f" y="188.786194"/>
     <use style="fill:#ffffff;stroke:#000000;" x="207.820665" xlink:href="#m9a19a58a7f" y="189.914409"/>
     <use style="fill:#ffffff;stroke:#000000;" x="207.820665" xlink:href="#m9a19a58a7f" y="191.042624"/>
     <use style="fill:#ffffff;stroke:#000000;" x="209.972804" xlink:href="#m9a19a58a7f" y="192.170839"/>
     <use style="fill:#ffffff;stroke:#000000;" x="209.972804" xlink:href="#m9a19a58a7f" y="193.299054"/>
     <use style="fill:#ffffff;stroke:#000000;" x="212.124943" xlink:href="#m9a19a58a7f" y="194.427269"/>
     <use style="fill:#ffffff;stroke:#000000;" x="212.124943" xlink:href="#m9a19a58a7f" y="195.555484"/>
     <use style="fill:#ffffff;stroke:#000000;" x="214.277082" xlink:href="#m9a19a58a7f" y="196.683699"/>
     <use style="fill:#ffffff;stroke:#000000;" x="214.277082" xlink:href="#m9a19a58a7f" y="197.811914"/>
     <use style="fill:#ffffff;stroke:#000000;" x="216.429222" xlink:href="#m9a19a58a7f" y="198.940129"/>
     <use style="fill:#ffffff;stroke:#000000;" x="216.429222" xlink:href="#m9a19a58a7f" y="200.068344"/>
     <use style="fill:#ffffff;stroke:#000000;" x="218.581361" xlink:href="#m9a19a58a7f" y="201.196559"/>
     <use style="fill:#ffffff;stroke:#000000;" x="218.581361" xlink:href="#m9a19a58a7f" y="202.324774"/>
     <use style="fill:#ffffff;stroke:#000000;" x="220.7335" xlink:href="#m9a19a58a7f" y="203.452989"/>
     <use style="fill:#ffffff;stroke:#000000;" x="220.7335" xlink:href="#m9a19a58a7f" y="204.581203"/>
     <use style="fill:#ffffff;stroke:#000000;" x="222.885639" xlink:href="#m9a19a58a7f" y="205.709418"/>
     <use style="fill:#ffffff;stroke:#000000;" x="222.885639" xlink:href="#m9a19a58a7f" y="206.837633"/>
     <use style="fill:#ffffff;stroke:#000000;" x="225.037778" xlink:href="#m9a19a58a7f" y="207.965848"/>
     <use style="fill:#ffffff;stroke:#000000;" x="225.037778" xlink:href="#m9a19a58a7f" y="209.094063"/>
     <use style="fill:#ffffff;stroke:#000000;" x="227.189917" xlink:href="#m9a19a58a7f" y="210.222278"/>
     <use style="fill:#ffffff;stroke:#000000;" x="227.189917" xlink:href="#m9a19a58a7f" y="211.350493"/>
     <use style="fill:#ffffff;stroke:#000000;" x="229.342057" xlink:href="#m9a19a58a7f" y="212.478708"/>
     <use style="fill:#ffffff;stroke:#000000;" x="229.342057" xlink:href="#m9a19a58a7f" y="213.606923"/>
     <use style="fill:#ffffff;stroke:#000000;" x="231.494196" xlink:href="#m9a19a58a7f" y="214.735138"/>
     <use style="fill:#ffffff;stroke:#000000;" x="231.494196" xlink:href="#m9a19a58a7f" y="215.863353"/>
     <use style="fill:#ffffff;stroke:#000000;" x="233.646335" xlink:href="#m9a19a58a7f" y="216.991568"/>
     <use style="fill:#ffffff;stroke:#000000;" x="233.646335" xlink:href="#m9a19a58a7f" y="218.119783"/>
     <use style="fill:#ffffff;stroke:#000000;" x="235.798474" xlink:href="#m9a19a58a7f" y="219.247998"/>
     <use style="fill:#ffffff;stroke:#000000;" x="235.798474" xlink:href="#m9a19a58a7f" y="220.376213"/>
     <use style="fill:#ffffff;stroke:#000000;" x="237.950613" xlink:href="#m9a19a58a7f" y="221.504428"/>
     <use style="fill:#ffffff;stroke:#000000;" x="237.950613" xlink:href="#m9a19a58a7f" y="222.632642"/>
     <use style="fill:#ffffff;stroke:#000000;" x="240.102752" xlink:href="#m9a19a58a7f" y="223.760857"/>
     <use style="fill:#ffffff;stroke:#000000;" x="240.102752" xlink:href="#m9a19a58a7f" y="224.889072"/>
     <use style="fill:#ffffff;stroke:#000000;" x="242.254892" xlink:href="#m9a19a58a7f" y="226.017287"/>
     <use style="fill:#ffffff;stroke:#000000;" x="242.254892" xlink:href="#m9a19a58a7f" y="227.145502"/>
     <use style="fill:#ffffff;stroke:#000000;" x="244.407031" xlink:href="#m9a19a58a7f" y="228.273717"/>
     <use style="fill:#ffffff;stroke:#000000;" x="244.407031" xlink:href="#m9a19a58a7f" y="229.401932"/>
     <use style="fill:#ffffff;stroke:#000000;" x="246.55917" xlink:href="#m9a19a58a7f" y="230.530147"/>
     <use style="fill:#ffffff;stroke:#000000;" x="246.55917" xlink:href="#m9a19a58a7f" y="231.658362"/>
     <use style="fill:#ffffff;stroke:#000000;" x="248.711309" xlink:href="#m9a19a58a7f" y="232.786577"/>
     <use style="fill:#ffffff;stroke:#000000;" x="248.711309" xlink:href="#m9a19a58a7f" y="233.914792"/>
     <use style="fill:#ffffff;stroke:#000000;" x="250.863448" xlink:href="#m9a19a58a7f" y="235.043007"/>
     <use style="fill:#ffffff;stroke:#000000;" x="250.863448" xlink:href="#m9a19a58a7f" y="236.171222"/>
     <use style="fill:#ffffff;stroke:#000000;" x="253.015587" xlink:href="#m9a19a58a7f" y="237.299437"/>
     <use style="fill:#ffffff;stroke:#000000;" x="253.015587" xlink:href="#m9a19a58a7f" y="238.427652"/>
     <use style="fill:#ffffff;stroke:#000000;" x="255.167727" xlink:href="#m9a19a58a7f" y="239.555867"/>
     <use style="fill:#ffffff;stroke:#000000;" x="255.167727" xlink:href="#m9a19a58a7f" y="240.684081"/>
     <use style="fill:#ffffff;stroke:#000000;" x="257.319866" xlink:href="#m9a19a58a7f" y="241.812296"/>
     <use style="fill:#ffffff;stroke:#000000;" x="257.319866" xlink:href="#m9a19a58a7f" y="242.940511"/>
    </g>
   </g>
   <g id="patch_3">
    <path d="M 33.605 254.16625 
L 33.605 7.2 
" style="fill:none;stroke:#000000;stroke-linecap:square;stroke-linejoin:miter;stroke-width:2;"/>
   </g>
   <g id="patch_4">
    <path d="M 267.972955 254.16625 
L 267.972955 7.2 
" style="fill:none;stroke:#000000;stroke-linecap:square;stroke-linejoin:miter;stroke-width:2;"/>
   </g>
   <g id="patch_5">
    <path d="M 33.605 254.16625 
L 267.972955 254.16625 
" style="fill:none;stroke:#000000;stroke-linecap:square;stroke-linejoin:miter;stroke-width:2;"/>
   </g>
   <g id="patch_6">
    <path d="M 33.605 7.2 
L 267.972955 7.2 
" style="fill:none;stroke:#000000;stroke-linecap:square;stroke-linejoin:miter;stroke-width:2;"/>
   </g>
  </g>
 </g>
 <defs>
  <clipPath id="pf83a3b392f">
   <rect height="246.96625" width="234.367955" x="33.605" y="7.2"/>
  </clipPath>
 </defs>
</svg>
