<?xml version="1.0" encoding="utf-8" standalone="no"?>
<!DOCTYPE svg PUBLIC "-//W3C//DTD SVG 1.1//EN"
  "http://www.w3.org/Graphics/SVG/1.1/DTD/svg11.dtd">
<svg xmlns:xlink="http://www.w3.org/1999/xlink" width="369.903843pt" height="335.738602pt" viewBox="0 0 369.903843 335.738602" xmlns="http://www.w3.org/2000/svg" version="1.1">
 <metadata>
  <rdf:RDF xmlns:dc="http://purl.org/dc/elements/1.1/" xmlns:cc="http://creativecommons.org/ns#" xmlns:rdf="http://www.w3.org/1999/02/22-rdf-syntax-ns#">
   <cc:Work>
    <dc:type rdf:resource="http://purl.org/dc/dcmitype/StillImage"/>
    <dc:date>2022-08-23T00:38:49.978351</dc:date>
    <dc:format>image/svg+xml</dc:format>
    <dc:creator>
     <cc:Agent>
      <dc:title>Matplotlib v3.5.3, https://matplotlib.org/</dc:title>
     </cc:Agent>
    </dc:creator>
   </cc:Work>
  </rdf:RDF>
 </metadata>
 <defs>
  <style type="text/css">*{stroke-linejoin: round; stroke-linecap: butt}</style>
 </defs>
 <g id="figure_1">
  <g id="patch_1">
   <path d="M 0 335.738602 
L 369.903843 335.738602 
L 369.903843 0 
L 0 0 
z
" style="fill: #ffffff"/>
  </g>
  <g id="patch_2">
   <path d="M 7.2 326.88 
L 326.88 326.88 
L 326.88 7.2 
L 7.2 7.2 
z
" style="fill: #ffffff"/>
  </g>
  <g id="pane3d_1">
   <g id="patch_3">
    <path d="M 31.338045 248.057157 
L 136.906821 159.567315 
L 135.439314 31.949145 
L 24.818527 112.675156 
" style="fill: #f2f2f2; opacity: 0.5; stroke: #f2f2f2; stroke-linejoin: miter"/>
   </g>
  </g>
  <g id="pane3d_2">
   <g id="patch_4">
    <path d="M 136.906821 159.567315 
L 306.30704 208.805271 
L 312.352336 76.791439 
L 135.439314 31.949145 
" style="fill: #e6e6e6; opacity: 0.5; stroke: #e6e6e6; stroke-linejoin: miter"/>
   </g>
  </g>
  <g id="pane3d_3">
   <g id="patch_5">
    <path d="M 31.338045 248.057157 
L 210.91055 306.705537 
L 306.30704 208.805271 
L 136.906821 159.567315 
" style="fill: #ececec; opacity: 0.5; stroke: #ececec; stroke-linejoin: miter"/>
   </g>
  </g>
  <g id="axis3d_1">
   <g id="line2d_1">
    <path d="M 31.338045 248.057157 
L 210.91055 306.705537 
" style="fill: none; stroke: #000000; stroke-width: 2; stroke-linecap: square"/>
   </g>
   <g id="text_1">
    <!-- x-axis -->
    <g transform="translate(81.976425 315.153261)rotate(-341.912962)scale(0.12 -0.12)">
     <defs>
      <path id="DejaVuSans-78" d="M 3513 3500 
L 2247 1797 
L 3578 0 
L 2900 0 
L 1881 1375 
L 863 0 
L 184 0 
L 1544 1831 
L 300 3500 
L 978 3500 
L 1906 2253 
L 2834 3500 
L 3513 3500 
z
" transform="scale(0.015625)"/>
      <path id="DejaVuSans-2d" d="M 313 2009 
L 1997 2009 
L 1997 1497 
L 313 1497 
L 313 2009 
z
" transform="scale(0.015625)"/>
      <path id="DejaVuSans-61" d="M 2194 1759 
Q 1497 1759 1228 1600 
Q 959 1441 959 1056 
Q 959 750 1161 570 
Q 1363 391 1709 391 
Q 2188 391 2477 730 
Q 2766 1069 2766 1631 
L 2766 1759 
L 2194 1759 
z
M 3341 1997 
L 3341 0 
L 2766 0 
L 2766 531 
Q 2569 213 2275 61 
Q 1981 -91 1556 -91 
Q 1019 -91 701 211 
Q 384 513 384 1019 
Q 384 1609 779 1909 
Q 1175 2209 1959 2209 
L 2766 2209 
L 2766 2266 
Q 2766 2663 2505 2880 
Q 2244 3097 1772 3097 
Q 1472 3097 1187 3025 
Q 903 2953 641 2809 
L 641 3341 
Q 956 3463 1253 3523 
Q 1550 3584 1831 3584 
Q 2591 3584 2966 3190 
Q 3341 2797 3341 1997 
z
" transform="scale(0.015625)"/>
      <path id="DejaVuSans-69" d="M 603 3500 
L 1178 3500 
L 1178 0 
L 603 0 
L 603 3500 
z
M 603 4863 
L 1178 4863 
L 1178 4134 
L 603 4134 
L 603 4863 
z
" transform="scale(0.015625)"/>
      <path id="DejaVuSans-73" d="M 2834 3397 
L 2834 2853 
Q 2591 2978 2328 3040 
Q 2066 3103 1784 3103 
Q 1356 3103 1142 2972 
Q 928 2841 928 2578 
Q 928 2378 1081 2264 
Q 1234 2150 1697 2047 
L 1894 2003 
Q 2506 1872 2764 1633 
Q 3022 1394 3022 966 
Q 3022 478 2636 193 
Q 2250 -91 1575 -91 
Q 1294 -91 989 -36 
Q 684 19 347 128 
L 347 722 
Q 666 556 975 473 
Q 1284 391 1588 391 
Q 1994 391 2212 530 
Q 2431 669 2431 922 
Q 2431 1156 2273 1281 
Q 2116 1406 1581 1522 
L 1381 1569 
Q 847 1681 609 1914 
Q 372 2147 372 2553 
Q 372 3047 722 3315 
Q 1072 3584 1716 3584 
Q 2034 3584 2315 3537 
Q 2597 3491 2834 3397 
z
" transform="scale(0.015625)"/>
     </defs>
     <use xlink:href="#DejaVuSans-78"/>
     <use xlink:href="#DejaVuSans-2d" x="59.179688"/>
     <use xlink:href="#DejaVuSans-61" x="95.263672"/>
     <use xlink:href="#DejaVuSans-78" x="156.542969"/>
     <use xlink:href="#DejaVuSans-69" x="215.722656"/>
     <use xlink:href="#DejaVuSans-73" x="243.505859"/>
    </g>
   </g>
   <g id="Line3DCollection_1">
    <path d="M 60.332522 257.526753 
L 164.360254 167.546944 
L 164.05961 39.203556 
" style="fill: none; stroke: #b0b0b0; stroke-width: 0.8"/>
    <path d="M 98.257635 269.913095 
L 200.210549 177.96721 
L 201.463139 48.68426 
" style="fill: none; stroke: #b0b0b0; stroke-width: 0.8"/>
    <path d="M 137.052596 282.583529 
L 236.813956 188.606375 
L 239.686898 58.372869 
" style="fill: none; stroke: #b0b0b0; stroke-width: 0.8"/>
    <path d="M 176.747679 295.547943 
L 274.19446 199.471412 
L 278.758167 68.276296 
" style="fill: none; stroke: #b0b0b0; stroke-width: 0.8"/>
   </g>
   <g id="xtick_1">
    <g id="line2d_2">
     <path d="M 61.23879 256.742867 
L 58.516075 259.097907 
" style="fill: none; stroke: #000000; stroke-width: 2; stroke-linecap: square"/>
    </g>
    <g id="text_2">
     <!-- 2 -->
     <g transform="translate(49.005889 282.449985)scale(0.12 -0.12)">
      <defs>
       <path id="DejaVuSans-32" d="M 1228 531 
L 3431 531 
L 3431 0 
L 469 0 
L 469 531 
Q 828 903 1448 1529 
Q 2069 2156 2228 2338 
Q 2531 2678 2651 2914 
Q 2772 3150 2772 3378 
Q 2772 3750 2511 3984 
Q 2250 4219 1831 4219 
Q 1534 4219 1204 4116 
Q 875 4013 500 3803 
L 500 4441 
Q 881 4594 1212 4672 
Q 1544 4750 1819 4750 
Q 2544 4750 2975 4387 
Q 3406 4025 3406 3419 
Q 3406 3131 3298 2873 
Q 3191 2616 2906 2266 
Q 2828 2175 2409 1742 
Q 1991 1309 1228 531 
z
" transform="scale(0.015625)"/>
      </defs>
      <use xlink:href="#DejaVuSans-32"/>
     </g>
    </g>
   </g>
   <g id="xtick_2">
    <g id="line2d_3">
     <path d="M 99.14665 269.11134 
L 96.475725 271.520104 
" style="fill: none; stroke: #000000; stroke-width: 2; stroke-linecap: square"/>
    </g>
    <g id="text_3">
     <!-- 4 -->
     <g transform="translate(86.96486 295.055039)scale(0.12 -0.12)">
      <defs>
       <path id="DejaVuSans-34" d="M 2419 4116 
L 825 1625 
L 2419 1625 
L 2419 4116 
z
M 2253 4666 
L 3047 4666 
L 3047 1625 
L 3713 1625 
L 3713 1100 
L 3047 1100 
L 3047 0 
L 2419 0 
L 2419 1100 
L 313 1100 
L 313 1709 
L 2253 4666 
z
" transform="scale(0.015625)"/>
      </defs>
      <use xlink:href="#DejaVuSans-34"/>
     </g>
    </g>
   </g>
   <g id="xtick_3">
    <g id="line2d_4">
     <path d="M 137.923324 281.763286 
L 135.307297 284.227635 
" style="fill: none; stroke: #000000; stroke-width: 2; stroke-linecap: square"/>
    </g>
    <g id="text_4">
     <!-- 6 -->
     <g transform="translate(125.797225 307.950122)scale(0.12 -0.12)">
      <defs>
       <path id="DejaVuSans-36" d="M 2113 2584 
Q 1688 2584 1439 2293 
Q 1191 2003 1191 1497 
Q 1191 994 1439 701 
Q 1688 409 2113 409 
Q 2538 409 2786 701 
Q 3034 994 3034 1497 
Q 3034 2003 2786 2293 
Q 2538 2584 2113 2584 
z
M 3366 4563 
L 3366 3988 
Q 3128 4100 2886 4159 
Q 2644 4219 2406 4219 
Q 1781 4219 1451 3797 
Q 1122 3375 1075 2522 
Q 1259 2794 1537 2939 
Q 1816 3084 2150 3084 
Q 2853 3084 3261 2657 
Q 3669 2231 3669 1497 
Q 3669 778 3244 343 
Q 2819 -91 2113 -91 
Q 1303 -91 875 529 
Q 447 1150 447 2328 
Q 447 3434 972 4092 
Q 1497 4750 2381 4750 
Q 2619 4750 2861 4703 
Q 3103 4656 3366 4563 
z
" transform="scale(0.015625)"/>
      </defs>
      <use xlink:href="#DejaVuSans-36"/>
     </g>
    </g>
   </g>
   <g id="xtick_4">
    <g id="line2d_5">
     <path d="M 177.599028 294.708566 
L 175.04118 297.230446 
" style="fill: none; stroke: #000000; stroke-width: 2; stroke-linecap: square"/>
    </g>
    <g id="text_5">
     <!-- 8 -->
     <g transform="translate(165.533477 321.145359)scale(0.12 -0.12)">
      <defs>
       <path id="DejaVuSans-38" d="M 2034 2216 
Q 1584 2216 1326 1975 
Q 1069 1734 1069 1313 
Q 1069 891 1326 650 
Q 1584 409 2034 409 
Q 2484 409 2743 651 
Q 3003 894 3003 1313 
Q 3003 1734 2745 1975 
Q 2488 2216 2034 2216 
z
M 1403 2484 
Q 997 2584 770 2862 
Q 544 3141 544 3541 
Q 544 4100 942 4425 
Q 1341 4750 2034 4750 
Q 2731 4750 3128 4425 
Q 3525 4100 3525 3541 
Q 3525 3141 3298 2862 
Q 3072 2584 2669 2484 
Q 3125 2378 3379 2068 
Q 3634 1759 3634 1313 
Q 3634 634 3220 271 
Q 2806 -91 2034 -91 
Q 1263 -91 848 271 
Q 434 634 434 1313 
Q 434 1759 690 2068 
Q 947 2378 1403 2484 
z
M 1172 3481 
Q 1172 3119 1398 2916 
Q 1625 2713 2034 2713 
Q 2441 2713 2670 2916 
Q 2900 3119 2900 3481 
Q 2900 3844 2670 4047 
Q 2441 4250 2034 4250 
Q 1625 4250 1398 4047 
Q 1172 3844 1172 3481 
z
" transform="scale(0.015625)"/>
      </defs>
      <use xlink:href="#DejaVuSans-38"/>
     </g>
    </g>
   </g>
  </g>
  <g id="axis3d_2">
   <g id="line2d_6">
    <path d="M 306.30704 208.805271 
L 210.91055 306.705537 
" style="fill: none; stroke: #000000; stroke-width: 2; stroke-linecap: square"/>
   </g>
   <g id="text_6">
    <!-- y-axis -->
    <g transform="translate(282.095188 302.994111)rotate(-45.742112)scale(0.12 -0.12)">
     <defs>
      <path id="DejaVuSans-79" d="M 2059 -325 
Q 1816 -950 1584 -1140 
Q 1353 -1331 966 -1331 
L 506 -1331 
L 506 -850 
L 844 -850 
Q 1081 -850 1212 -737 
Q 1344 -625 1503 -206 
L 1606 56 
L 191 3500 
L 800 3500 
L 1894 763 
L 2988 3500 
L 3597 3500 
L 2059 -325 
z
" transform="scale(0.015625)"/>
     </defs>
     <use xlink:href="#DejaVuSans-79"/>
     <use xlink:href="#DejaVuSans-2d" x="57.429688"/>
     <use xlink:href="#DejaVuSans-61" x="93.513672"/>
     <use xlink:href="#DejaVuSans-78" x="154.792969"/>
     <use xlink:href="#DejaVuSans-69" x="213.972656"/>
     <use xlink:href="#DejaVuSans-73" x="241.755859"/>
    </g>
   </g>
   <g id="Line3DCollection_2">
    <path d="M 39.506625 101.956452 
L 45.309248 236.346217 
L 223.583973 293.699488 
" style="fill: none; stroke: #b0b0b0; stroke-width: 0.8"/>
    <path d="M 56.643233 89.450935 
L 61.627248 222.668146 
L 238.36743 278.528024 
" style="fill: none; stroke: #b0b0b0; stroke-width: 0.8"/>
    <path d="M 73.328396 77.274864 
L 77.533808 209.334952 
L 252.758713 263.759028 
" style="fill: none; stroke: #b0b0b0; stroke-width: 0.8"/>
    <path d="M 89.579719 65.415388 
L 93.044296 196.333753 
L 266.773223 249.376693 
" style="fill: none; stroke: #b0b0b0; stroke-width: 0.8"/>
    <path d="M 105.413908 53.860318 
L 108.173323 183.652303 
L 280.425565 235.366031 
" style="fill: none; stroke: #b0b0b0; stroke-width: 0.8"/>
    <path d="M 120.846818 42.598083 
L 122.934791 171.278948 
L 293.729599 221.712819 
" style="fill: none; stroke: #b0b0b0; stroke-width: 0.8"/>
   </g>
   <g id="xtick_5">
    <g id="line2d_7">
     <path d="M 222.082064 293.216305 
L 226.591653 294.667097 
" style="fill: none; stroke: #000000; stroke-width: 2; stroke-linecap: square"/>
    </g>
    <g id="text_7">
     <!-- 28 -->
     <g transform="translate(228.760563 316.162727)scale(0.12 -0.12)">
      <use xlink:href="#DejaVuSans-32"/>
      <use xlink:href="#DejaVuSans-38" x="63.623047"/>
     </g>
    </g>
   </g>
   <g id="xtick_6">
    <g id="line2d_8">
     <path d="M 236.879458 278.057741 
L 241.347149 279.469784 
" style="fill: none; stroke: #000000; stroke-width: 2; stroke-linecap: square"/>
    </g>
    <g id="text_8">
     <!-- 29 -->
     <g transform="translate(243.378948 300.804369)scale(0.12 -0.12)">
      <defs>
       <path id="DejaVuSans-39" d="M 703 97 
L 703 672 
Q 941 559 1184 500 
Q 1428 441 1663 441 
Q 2288 441 2617 861 
Q 2947 1281 2994 2138 
Q 2813 1869 2534 1725 
Q 2256 1581 1919 1581 
Q 1219 1581 811 2004 
Q 403 2428 403 3163 
Q 403 3881 828 4315 
Q 1253 4750 1959 4750 
Q 2769 4750 3195 4129 
Q 3622 3509 3622 2328 
Q 3622 1225 3098 567 
Q 2575 -91 1691 -91 
Q 1453 -91 1209 -44 
Q 966 3 703 97 
z
M 1959 2075 
Q 2384 2075 2632 2365 
Q 2881 2656 2881 3163 
Q 2881 3666 2632 3958 
Q 2384 4250 1959 4250 
Q 1534 4250 1286 3958 
Q 1038 3666 1038 3163 
Q 1038 2656 1286 2365 
Q 1534 2075 1959 2075 
z
" transform="scale(0.015625)"/>
      </defs>
      <use xlink:href="#DejaVuSans-32"/>
      <use xlink:href="#DejaVuSans-39" x="63.623047"/>
     </g>
    </g>
   </g>
   <g id="xtick_7">
    <g id="line2d_9">
     <path d="M 251.284471 263.301135 
L 255.710887 264.67596 
" style="fill: none; stroke: #000000; stroke-width: 2; stroke-linecap: square"/>
    </g>
    <g id="text_9">
     <!-- 30 -->
     <g transform="translate(257.609351 285.853632)scale(0.12 -0.12)">
      <defs>
       <path id="DejaVuSans-33" d="M 2597 2516 
Q 3050 2419 3304 2112 
Q 3559 1806 3559 1356 
Q 3559 666 3084 287 
Q 2609 -91 1734 -91 
Q 1441 -91 1130 -33 
Q 819 25 488 141 
L 488 750 
Q 750 597 1062 519 
Q 1375 441 1716 441 
Q 2309 441 2620 675 
Q 2931 909 2931 1356 
Q 2931 1769 2642 2001 
Q 2353 2234 1838 2234 
L 1294 2234 
L 1294 2753 
L 1863 2753 
Q 2328 2753 2575 2939 
Q 2822 3125 2822 3475 
Q 2822 3834 2567 4026 
Q 2313 4219 1838 4219 
Q 1578 4219 1281 4162 
Q 984 4106 628 3988 
L 628 4550 
Q 988 4650 1302 4700 
Q 1616 4750 1894 4750 
Q 2613 4750 3031 4423 
Q 3450 4097 3450 3541 
Q 3450 3153 3228 2886 
Q 3006 2619 2597 2516 
z
" transform="scale(0.015625)"/>
       <path id="DejaVuSans-30" d="M 2034 4250 
Q 1547 4250 1301 3770 
Q 1056 3291 1056 2328 
Q 1056 1369 1301 889 
Q 1547 409 2034 409 
Q 2525 409 2770 889 
Q 3016 1369 3016 2328 
Q 3016 3291 2770 3770 
Q 2525 4250 2034 4250 
z
M 2034 4750 
Q 2819 4750 3233 4129 
Q 3647 3509 3647 2328 
Q 3647 1150 3233 529 
Q 2819 -91 2034 -91 
Q 1250 -91 836 529 
Q 422 1150 422 2328 
Q 422 3509 836 4129 
Q 1250 4750 2034 4750 
z
" transform="scale(0.015625)"/>
      </defs>
      <use xlink:href="#DejaVuSans-33"/>
      <use xlink:href="#DejaVuSans-30" x="63.623047"/>
     </g>
    </g>
   </g>
   <g id="xtick_8">
    <g id="line2d_10">
     <path d="M 265.312507 248.930707 
L 269.698263 250.269766 
" style="fill: none; stroke: #000000; stroke-width: 2; stroke-linecap: square"/>
    </g>
    <g id="text_10">
     <!-- 31 -->
     <g transform="translate(271.467016 271.294502)scale(0.12 -0.12)">
      <defs>
       <path id="DejaVuSans-31" d="M 794 531 
L 1825 531 
L 1825 4091 
L 703 3866 
L 703 4441 
L 1819 4666 
L 2450 4666 
L 2450 531 
L 3481 531 
L 3481 0 
L 794 0 
L 794 531 
z
" transform="scale(0.015625)"/>
      </defs>
      <use xlink:href="#DejaVuSans-33"/>
      <use xlink:href="#DejaVuSans-31" x="63.623047"/>
     </g>
    </g>
   </g>
   <g id="xtick_9">
    <g id="line2d_11">
     <path d="M 278.978173 234.931494 
L 283.323879 236.236165 
" style="fill: none; stroke: #000000; stroke-width: 2; stroke-linecap: square"/>
    </g>
    <g id="text_11">
     <!-- 32 -->
     <g transform="translate(284.966398 257.11179)scale(0.12 -0.12)">
      <use xlink:href="#DejaVuSans-33"/>
      <use xlink:href="#DejaVuSans-32" x="63.623047"/>
     </g>
    </g>
   </g>
   <g id="xtick_10">
    <g id="line2d_12">
     <path d="M 292.295331 221.289295 
L 296.601589 222.560887 
" style="fill: none; stroke: #000000; stroke-width: 2; stroke-linecap: square"/>
    </g>
    <g id="text_12">
     <!-- 33 -->
     <g transform="translate(298.121214 243.291085)scale(0.12 -0.12)">
      <use xlink:href="#DejaVuSans-33"/>
      <use xlink:href="#DejaVuSans-33" x="63.623047"/>
     </g>
    </g>
   </g>
  </g>
  <g id="axis3d_3">
   <g id="line2d_13">
    <path d="M 306.30704 208.805271 
L 312.352336 76.791439 
" style="fill: none; stroke: #000000; stroke-width: 2; stroke-linecap: square"/>
   </g>
   <g id="text_13">
    <!-- z-axis -->
    <g transform="translate(358.62491 155.435883)rotate(-87.378092)scale(0.12 -0.12)">
     <defs>
      <path id="DejaVuSans-7a" d="M 353 3500 
L 3084 3500 
L 3084 2975 
L 922 459 
L 3084 459 
L 3084 0 
L 275 0 
L 275 525 
L 2438 3041 
L 353 3041 
L 353 3500 
z
" transform="scale(0.015625)"/>
     </defs>
     <use xlink:href="#DejaVuSans-7a"/>
     <use xlink:href="#DejaVuSans-2d" x="52.490234"/>
     <use xlink:href="#DejaVuSans-61" x="88.574219"/>
     <use xlink:href="#DejaVuSans-78" x="149.853516"/>
     <use xlink:href="#DejaVuSans-69" x="209.033203"/>
     <use xlink:href="#DejaVuSans-73" x="236.816406"/>
    </g>
   </g>
   <g id="Line3DCollection_3">
    <path d="M 306.732692 199.510121 
L 136.80329 150.564016 
L 30.879722 238.539782 
" style="fill: none; stroke: #b0b0b0; stroke-width: 0.8"/>
    <path d="M 307.986361 172.133184 
L 136.498541 124.062223 
L 29.529194 210.495206 
" style="fill: none; stroke: #b0b0b0; stroke-width: 0.8"/>
    <path d="M 309.263468 144.244439 
L 136.188368 97.088842 
L 28.152448 181.906174 
" style="fill: none; stroke: #b0b0b0; stroke-width: 0.8"/>
    <path d="M 310.564675 115.829397 
L 135.872627 69.631172 
L 26.748711 152.756676 
" style="fill: none; stroke: #b0b0b0; stroke-width: 0.8"/>
    <path d="M 311.890671 86.87302 
L 135.551165 41.676053 
L 25.317183 123.030068 
" style="fill: none; stroke: #b0b0b0; stroke-width: 0.8"/>
   </g>
   <g id="xtick_11">
    <g id="line2d_14">
     <path d="M 305.306305 199.099267 
L 309.588867 200.332807 
" style="fill: none; stroke: #000000; stroke-width: 2; stroke-linecap: square"/>
    </g>
    <g id="text_14">
     <!-- 0 -->
     <g transform="translate(321.229382 206.037022)scale(0.12 -0.12)">
      <use xlink:href="#DejaVuSans-30"/>
     </g>
    </g>
   </g>
   <g id="xtick_12">
    <g id="line2d_15">
     <path d="M 306.546268 171.729501 
L 310.870015 172.941521 
" style="fill: none; stroke: #000000; stroke-width: 2; stroke-linecap: square"/>
    </g>
    <g id="text_15">
     <!-- 2 -->
     <g transform="translate(322.649059 178.70536)scale(0.12 -0.12)">
      <use xlink:href="#DejaVuSans-32"/>
     </g>
    </g>
   </g>
   <g id="xtick_13">
    <g id="line2d_16">
     <path d="M 307.809402 143.848268 
L 312.175133 145.037743 
" style="fill: none; stroke: #000000; stroke-width: 2; stroke-linecap: square"/>
    </g>
    <g id="text_16">
     <!-- 4 -->
     <g transform="translate(324.095209 150.864039)scale(0.12 -0.12)">
      <use xlink:href="#DejaVuSans-34"/>
     </g>
    </g>
   </g>
   <g id="xtick_14">
    <g id="line2d_17">
     <path d="M 309.096364 115.441094 
L 313.5049 116.606955 
" style="fill: none; stroke: #000000; stroke-width: 2; stroke-linecap: square"/>
    </g>
    <g id="text_17">
     <!-- 6 -->
     <g transform="translate(325.568579 122.49867)scale(0.12 -0.12)">
      <use xlink:href="#DejaVuSans-36"/>
     </g>
    </g>
   </g>
   <g id="xtick_15">
    <g id="line2d_18">
     <path d="M 310.407833 86.492958 
L 314.860022 87.634083 
" style="fill: none; stroke: #000000; stroke-width: 2; stroke-linecap: square"/>
    </g>
    <g id="text_18">
     <!-- 8 -->
     <g transform="translate(327.069945 93.594317)scale(0.12 -0.12)">
      <use xlink:href="#DejaVuSans-38"/>
     </g>
    </g>
   </g>
  </g>
  <g id="axes_1">
   <g id="Poly3DCollection_1">
    <path d="M 150.490556 163.655462 
L 152.850929 154.919942 
L 141.460356 154.361532 
z
" clip-path="url(#p5ee4ebd2c7)" style="fill: #1f77b4; stroke: #000000"/>
    <path d="M 170.937145 173.525835 
L 152.850929 154.919942 
L 150.490556 163.655462 
z
" clip-path="url(#p5ee4ebd2c7)" style="fill: #1f77b4; stroke: #000000"/>
    <path d="M 159.527656 172.956495 
L 170.937145 173.525835 
L 150.490556 163.655462 
z
" clip-path="url(#p5ee4ebd2c7)" style="fill: #1f77b4; stroke: #000000"/>
    <path d="M 141.460356 154.361532 
L 152.850929 154.919942 
L 135.336806 139.189097 
z
" clip-path="url(#p5ee4ebd2c7)" style="fill: #1f77b4; stroke: #000000"/>
    <path d="M 170.937145 173.525835 
L 175.670639 156.038701 
L 152.850929 154.919942 
z
" clip-path="url(#p5ee4ebd2c7)" style="fill: #1f77b4; stroke: #000000"/>
    <path d="M 135.336806 139.189097 
L 152.850929 154.919942 
L 157.574204 137.439383 
z
" clip-path="url(#p5ee4ebd2c7)" style="fill: #1f77b4; stroke: #000000"/>
    <path d="M 168.567503 177.825727 
L 170.937145 173.525835 
L 159.527656 172.956495 
z
" clip-path="url(#p5ee4ebd2c7)" style="fill: #1f77b4; stroke: #000000"/>
    <path d="M 152.850929 154.919942 
L 175.690013 142.556863 
L 157.574204 137.439383 
z
" clip-path="url(#p5ee4ebd2c7)" style="fill: #1f77b4; stroke: #000000"/>
    <path d="M 168.567503 177.825727 
L 192.050204 176.225803 
L 170.937145 173.525835 
z
" clip-path="url(#p5ee4ebd2c7)" style="fill: #1f77b4; stroke: #000000"/>
    <path d="M 175.670639 156.038701 
L 175.690013 142.556863 
L 152.850929 154.919942 
z
" clip-path="url(#p5ee4ebd2c7)" style="fill: #1f77b4; stroke: #000000"/>
    <path d="M 170.937145 173.525835 
L 193.895691 161.258076 
L 175.670639 156.038701 
z
" clip-path="url(#p5ee4ebd2c7)" style="fill: #1f77b4; stroke: #000000"/>
    <path d="M 141.460356 154.361532 
L 135.931374 181.149041 
L 150.490556 163.655462 
z
" clip-path="url(#p5ee4ebd2c7)" style="fill: #1f77b4; stroke: #000000"/>
    <path d="M 159.527656 172.956495 
L 150.490556 163.655462 
L 135.931374 181.149041 
z
" clip-path="url(#p5ee4ebd2c7)" style="fill: #1f77b4; stroke: #000000"/>
    <path d="M 192.050204 176.225803 
L 193.895691 161.258076 
L 170.937145 173.525835 
z
" clip-path="url(#p5ee4ebd2c7)" style="fill: #1f77b4; stroke: #000000"/>
    <path d="M 135.336806 139.189097 
L 157.574204 137.439383 
L 141.190839 127.307258 
z
" clip-path="url(#p5ee4ebd2c7)" style="fill: #1f77b4; stroke: #000000"/>
    <path d="M 141.460356 154.361532 
L 135.336806 139.189097 
L 119.973166 164.702838 
z
" clip-path="url(#p5ee4ebd2c7)" style="fill: #1f77b4; stroke: #000000"/>
    <path d="M 186.757969 185.950405 
L 192.050204 176.225803 
L 168.567503 177.825727 
z
" clip-path="url(#p5ee4ebd2c7)" style="fill: #1f77b4; stroke: #000000"/>
    <path d="M 175.690013 142.556863 
L 177.491183 127.456934 
L 157.574204 137.439383 
z
" clip-path="url(#p5ee4ebd2c7)" style="fill: #1f77b4; stroke: #000000"/>
    <path d="M 141.190839 127.307258 
L 157.574204 137.439383 
L 155.706347 125.369626 
z
" clip-path="url(#p5ee4ebd2c7)" style="fill: #1f77b4; stroke: #000000"/>
    <path d="M 159.527656 172.956495 
L 154.166609 194.953466 
L 168.567503 177.825727 
z
" clip-path="url(#p5ee4ebd2c7)" style="fill: #1f77b4; stroke: #000000"/>
    <path d="M 157.574204 137.439383 
L 177.491183 127.456934 
L 155.706347 125.369626 
z
" clip-path="url(#p5ee4ebd2c7)" style="fill: #1f77b4; stroke: #000000"/>
    <path d="M 175.670639 156.038701 
L 195.752095 146.201812 
L 175.690013 142.556863 
z
" clip-path="url(#p5ee4ebd2c7)" style="fill: #1f77b4; stroke: #000000"/>
    <path d="M 135.336806 139.189097 
L 128.667551 141.347558 
L 117.66489 160.66561 
z
" clip-path="url(#p5ee4ebd2c7)" style="fill: #1f77b4; stroke: #000000"/>
    <path d="M 193.895691 161.258076 
L 195.752095 146.201812 
L 175.670639 156.038701 
z
" clip-path="url(#p5ee4ebd2c7)" style="fill: #1f77b4; stroke: #000000"/>
    <path d="M 186.757969 185.950405 
L 212.12939 179.988074 
L 192.050204 176.225803 
z
" clip-path="url(#p5ee4ebd2c7)" style="fill: #1f77b4; stroke: #000000"/>
    <path d="M 119.973166 164.702838 
L 135.931374 181.149041 
L 141.460356 154.361532 
z
" clip-path="url(#p5ee4ebd2c7)" style="fill: #1f77b4; stroke: #000000"/>
    <path d="M 192.050204 176.225803 
L 212.313738 166.532723 
L 193.895691 161.258076 
z
" clip-path="url(#p5ee4ebd2c7)" style="fill: #1f77b4; stroke: #000000"/>
    <path d="M 159.527656 172.956495 
L 135.931374 181.149041 
L 138.967379 183.724808 
z
" clip-path="url(#p5ee4ebd2c7)" style="fill: #1f77b4; stroke: #000000"/>
    <path d="M 212.12939 179.988074 
L 212.313738 166.532723 
L 192.050204 176.225803 
z
" clip-path="url(#p5ee4ebd2c7)" style="fill: #1f77b4; stroke: #000000"/>
    <path d="M 119.973166 164.702838 
L 135.336806 139.189097 
L 117.66489 160.66561 
z
" clip-path="url(#p5ee4ebd2c7)" style="fill: #1f77b4; stroke: #000000"/>
    <path d="M 138.967379 183.724808 
L 154.166609 194.953466 
L 159.527656 172.956495 
z
" clip-path="url(#p5ee4ebd2c7)" style="fill: #1f77b4; stroke: #000000"/>
    <path d="M 205.138435 191.355854 
L 212.12939 179.988074 
L 186.757969 185.950405 
z
" clip-path="url(#p5ee4ebd2c7)" style="fill: #1f77b4; stroke: #000000"/>
    <path d="M 117.66489 160.66561 
L 128.667551 141.347558 
L 110.727083 148.531221 
z
" clip-path="url(#p5ee4ebd2c7)" style="fill: #1f77b4; stroke: #000000"/>
    <path d="M 186.757969 185.950405 
L 168.567503 177.825727 
L 172.495441 200.442802 
z
" clip-path="url(#p5ee4ebd2c7)" style="fill: #1f77b4; stroke: #000000"/>
    <path d="M 135.336806 139.189097 
L 124.049915 138.755626 
L 128.667551 141.347558 
z
" clip-path="url(#p5ee4ebd2c7)" style="fill: #1f77b4; stroke: #000000"/>
    <path d="M 205.138435 191.355854 
L 235.180556 181.143408 
L 212.12939 179.988074 
z
" clip-path="url(#p5ee4ebd2c7)" style="fill: #1f77b4; stroke: #000000"/>
    <path d="M 175.690013 142.556863 
L 195.862632 132.563803 
L 177.491183 127.456934 
z
" clip-path="url(#p5ee4ebd2c7)" style="fill: #1f77b4; stroke: #000000"/>
    <path d="M 195.752095 146.201812 
L 195.862632 132.563803 
L 175.690013 142.556863 
z
" clip-path="url(#p5ee4ebd2c7)" style="fill: #1f77b4; stroke: #000000"/>
    <path d="M 141.190839 127.307258 
L 155.706347 125.369626 
L 147.1187 115.275572 
z
" clip-path="url(#p5ee4ebd2c7)" style="fill: #1f77b4; stroke: #000000"/>
    <path d="M 177.491183 127.456934 
L 175.729288 115.226329 
L 155.706347 125.369626 
z
" clip-path="url(#p5ee4ebd2c7)" style="fill: #1f77b4; stroke: #000000"/>
    <path d="M 141.190839 127.307258 
L 124.049915 138.755626 
L 135.336806 139.189097 
z
" clip-path="url(#p5ee4ebd2c7)" style="fill: #1f77b4; stroke: #000000"/>
    <path d="M 110.727083 148.531221 
L 128.667551 141.347558 
L 117.36009 143.664268 
z
" clip-path="url(#p5ee4ebd2c7)" style="fill: #1f77b4; stroke: #000000"/>
    <path d="M 235.180556 181.143408 
L 230.927861 171.863523 
L 212.12939 179.988074 
z
" clip-path="url(#p5ee4ebd2c7)" style="fill: #1f77b4; stroke: #000000"/>
    <path d="M 172.495441 200.442802 
L 168.567503 177.825727 
L 154.166609 194.953466 
z
" clip-path="url(#p5ee4ebd2c7)" style="fill: #1f77b4; stroke: #000000"/>
    <path d="M 155.706347 125.369626 
L 175.729288 115.226329 
L 152.599389 114.139067 
z
" clip-path="url(#p5ee4ebd2c7)" style="fill: #1f77b4; stroke: #000000"/>
    <path d="M 147.1187 115.275572 
L 155.706347 125.369626 
L 152.599389 114.139067 
z
" clip-path="url(#p5ee4ebd2c7)" style="fill: #1f77b4; stroke: #000000"/>
    <path d="M 212.12939 179.988074 
L 230.927861 171.863523 
L 212.313738 166.532723 
z
" clip-path="url(#p5ee4ebd2c7)" style="fill: #1f77b4; stroke: #000000"/>
    <path d="M 193.895691 161.258076 
L 207.846456 157.093355 
L 195.752095 146.201812 
z
" clip-path="url(#p5ee4ebd2c7)" style="fill: #1f77b4; stroke: #000000"/>
    <path d="M 223.684848 198.499222 
L 235.180556 181.143408 
L 205.138435 191.355854 
z
" clip-path="url(#p5ee4ebd2c7)" style="fill: #1f77b4; stroke: #000000"/>
    <path d="M 223.684848 198.499222 
L 253.852959 186.533666 
L 235.180556 181.143408 
z
" clip-path="url(#p5ee4ebd2c7)" style="fill: #1f77b4; stroke: #000000"/>
    <path d="M 212.313738 166.532723 
L 207.846456 157.093355 
L 193.895691 161.258076 
z
" clip-path="url(#p5ee4ebd2c7)" style="fill: #1f77b4; stroke: #000000"/>
    <path d="M 124.049915 138.755626 
L 117.36009 143.664268 
L 128.667551 141.347558 
z
" clip-path="url(#p5ee4ebd2c7)" style="fill: #1f77b4; stroke: #000000"/>
    <path d="M 205.138435 191.355854 
L 186.757969 185.950405 
L 191.020705 205.990969 
z
" clip-path="url(#p5ee4ebd2c7)" style="fill: #1f77b4; stroke: #000000"/>
    <path d="M 119.973166 164.702838 
L 117.66489 160.66561 
L 106.08588 159.801038 
z
" clip-path="url(#p5ee4ebd2c7)" style="fill: #1f77b4; stroke: #000000"/>
    <path d="M 124.049915 138.755626 
L 141.190839 127.307258 
L 147.1187 115.275572 
z
" clip-path="url(#p5ee4ebd2c7)" style="fill: #1f77b4; stroke: #000000"/>
    <path d="M 195.862632 132.563803 
L 195.752095 146.201812 
L 207.846456 157.093355 
z
" clip-path="url(#p5ee4ebd2c7)" style="fill: #1f77b4; stroke: #000000"/>
    <path d="M 106.08588 159.801038 
L 117.66489 160.66561 
L 110.727083 148.531221 
z
" clip-path="url(#p5ee4ebd2c7)" style="fill: #1f77b4; stroke: #000000"/>
    <path d="M 119.973166 164.702838 
L 120.882933 188.863788 
L 135.931374 181.149041 
z
" clip-path="url(#p5ee4ebd2c7)" style="fill: #1f77b4; stroke: #000000"/>
    <path d="M 195.862632 132.563803 
L 190.646743 123.308511 
L 177.491183 127.456934 
z
" clip-path="url(#p5ee4ebd2c7)" style="fill: #1f77b4; stroke: #000000"/>
    <path d="M 147.1187 115.275572 
L 152.599389 114.139067 
L 150.110749 109.202646 
z
" clip-path="url(#p5ee4ebd2c7)" style="fill: #1f77b4; stroke: #000000"/>
    <path d="M 138.967379 183.724808 
L 135.931374 181.149041 
L 120.882933 188.863788 
z
" clip-path="url(#p5ee4ebd2c7)" style="fill: #1f77b4; stroke: #000000"/>
    <path d="M 177.491183 127.456934 
L 190.646743 123.308511 
L 175.729288 115.226329 
z
" clip-path="url(#p5ee4ebd2c7)" style="fill: #1f77b4; stroke: #000000"/>
    <path d="M 253.852959 186.533666 
L 246.351019 180.447601 
L 235.180556 181.143408 
z
" clip-path="url(#p5ee4ebd2c7)" style="fill: #1f77b4; stroke: #000000"/>
    <path d="M 191.020705 205.990969 
L 186.757969 185.950405 
L 172.495441 200.442802 
z
" clip-path="url(#p5ee4ebd2c7)" style="fill: #1f77b4; stroke: #000000"/>
    <path d="M 207.846456 157.093355 
L 212.313738 166.532723 
L 230.927861 171.863523 
z
" clip-path="url(#p5ee4ebd2c7)" style="fill: #1f77b4; stroke: #000000"/>
    <path d="M 138.967379 183.724808 
L 139.3793 206.272515 
L 154.166609 194.953466 
z
" clip-path="url(#p5ee4ebd2c7)" style="fill: #1f77b4; stroke: #000000"/>
    <path d="M 235.180556 181.143408 
L 246.351019 180.447601 
L 230.927861 171.863523 
z
" clip-path="url(#p5ee4ebd2c7)" style="fill: #1f77b4; stroke: #000000"/>
    <path d="M 110.727083 148.531221 
L 117.36009 143.664268 
L 106.08588 159.801038 
z
" clip-path="url(#p5ee4ebd2c7)" style="fill: #1f77b4; stroke: #000000"/>
    <path d="M 242.448935 204.026523 
L 253.852959 186.533666 
L 223.684848 198.499222 
z
" clip-path="url(#p5ee4ebd2c7)" style="fill: #1f77b4; stroke: #000000"/>
    <path d="M 168.503539 109.615213 
L 152.599389 114.139067 
L 175.729288 115.226329 
z
" clip-path="url(#p5ee4ebd2c7)" style="fill: #1f77b4; stroke: #000000"/>
    <path d="M 150.110749 109.202646 
L 152.599389 114.139067 
L 168.503539 109.615213 
z
" clip-path="url(#p5ee4ebd2c7)" style="fill: #1f77b4; stroke: #000000"/>
    <path d="M 223.684848 198.499222 
L 205.138435 191.355854 
L 209.745576 211.598916 
z
" clip-path="url(#p5ee4ebd2c7)" style="fill: #1f77b4; stroke: #000000"/>
    <path d="M 195.862632 132.563803 
L 207.846456 157.093355 
L 205.54419 155.747423 
z
" clip-path="url(#p5ee4ebd2c7)" style="fill: #1f77b4; stroke: #000000"/>
    <path d="M 111.636457 179.325468 
L 120.882933 188.863788 
L 119.973166 164.702838 
z
" clip-path="url(#p5ee4ebd2c7)" style="fill: #1f77b4; stroke: #000000"/>
    <path d="M 138.967379 183.724808 
L 120.882933 188.863788 
L 125.561352 197.025042 
z
" clip-path="url(#p5ee4ebd2c7)" style="fill: #1f77b4; stroke: #000000"/>
    <path d="M 104.515084 163.615261 
L 119.973166 164.702838 
L 106.08588 159.801038 
z
" clip-path="url(#p5ee4ebd2c7)" style="fill: #1f77b4; stroke: #000000"/>
    <path d="M 124.049915 138.755626 
L 147.1187 115.275572 
L 126.120429 125.577465 
z
" clip-path="url(#p5ee4ebd2c7)" style="fill: #1f77b4; stroke: #000000"/>
    <path d="M 125.561352 197.025042 
L 139.3793 206.272515 
L 138.967379 183.724808 
z
" clip-path="url(#p5ee4ebd2c7)" style="fill: #1f77b4; stroke: #000000"/>
    <path d="M 111.636457 179.325468 
L 119.973166 164.702838 
L 104.515084 163.615261 
z
" clip-path="url(#p5ee4ebd2c7)" style="fill: #1f77b4; stroke: #000000"/>
    <path d="M 242.448935 204.026523 
L 264.97737 199.553725 
L 253.852959 186.533666 
z
" clip-path="url(#p5ee4ebd2c7)" style="fill: #1f77b4; stroke: #000000"/>
    <path d="M 195.862632 132.563803 
L 198.638467 143.443167 
L 190.646743 123.308511 
z
" clip-path="url(#p5ee4ebd2c7)" style="fill: #1f77b4; stroke: #000000"/>
    <path d="M 172.495441 200.442802 
L 154.166609 194.953466 
L 157.879518 213.592129 
z
" clip-path="url(#p5ee4ebd2c7)" style="fill: #1f77b4; stroke: #000000"/>
    <path d="M 198.638467 143.443167 
L 195.862632 132.563803 
L 205.54419 155.747423 
z
" clip-path="url(#p5ee4ebd2c7)" style="fill: #1f77b4; stroke: #000000"/>
    <path d="M 207.846456 157.093355 
L 230.927861 171.863523 
L 224.164658 171.382129 
z
" clip-path="url(#p5ee4ebd2c7)" style="fill: #1f77b4; stroke: #000000"/>
    <path d="M 124.049915 138.755626 
L 104.515084 163.615261 
L 117.36009 143.664268 
z
" clip-path="url(#p5ee4ebd2c7)" style="fill: #1f77b4; stroke: #000000"/>
    <path d="M 209.745576 211.598916 
L 205.138435 191.355854 
L 191.020705 205.990969 
z
" clip-path="url(#p5ee4ebd2c7)" style="fill: #1f77b4; stroke: #000000"/>
    <path d="M 132.05432 113.326219 
L 147.1187 115.275572 
L 150.110749 109.202646 
z
" clip-path="url(#p5ee4ebd2c7)" style="fill: #1f77b4; stroke: #000000"/>
    <path d="M 246.351019 180.447601 
L 253.852959 186.533666 
L 264.97737 199.553725 
z
" clip-path="url(#p5ee4ebd2c7)" style="fill: #1f77b4; stroke: #000000"/>
    <path d="M 104.515084 163.615261 
L 106.08588 159.801038 
L 117.36009 143.664268 
z
" clip-path="url(#p5ee4ebd2c7)" style="fill: #1f77b4; stroke: #000000"/>
    <path d="M 187.103178 119.371121 
L 175.729288 115.226329 
L 190.646743 123.308511 
z
" clip-path="url(#p5ee4ebd2c7)" style="fill: #1f77b4; stroke: #000000"/>
    <path d="M 207.846456 157.093355 
L 210.18147 160.507505 
L 205.54419 155.747423 
z
" clip-path="url(#p5ee4ebd2c7)" style="fill: #1f77b4; stroke: #000000"/>
    <path d="M 168.503539 109.615213 
L 175.729288 115.226329 
L 187.103178 119.371121 
z
" clip-path="url(#p5ee4ebd2c7)" style="fill: #1f77b4; stroke: #000000"/>
    <path d="M 168.503539 109.615213 
L 142.645208 108.180933 
L 150.110749 109.202646 
z
" clip-path="url(#p5ee4ebd2c7)" style="fill: #1f77b4; stroke: #000000"/>
    <path d="M 210.18147 160.507505 
L 207.846456 157.093355 
L 224.164658 171.382129 
z
" clip-path="url(#p5ee4ebd2c7)" style="fill: #1f77b4; stroke: #000000"/>
    <path d="M 157.879518 213.592129 
L 154.166609 194.953466 
L 139.3793 206.272515 
z
" clip-path="url(#p5ee4ebd2c7)" style="fill: #1f77b4; stroke: #000000"/>
    <path d="M 242.994258 181.384227 
L 230.927861 171.863523 
L 246.351019 180.447601 
z
" clip-path="url(#p5ee4ebd2c7)" style="fill: #1f77b4; stroke: #000000"/>
    <path d="M 224.164658 171.382129 
L 230.927861 171.863523 
L 242.994258 181.384227 
z
" clip-path="url(#p5ee4ebd2c7)" style="fill: #1f77b4; stroke: #000000"/>
    <path d="M 132.05432 113.326219 
L 126.120429 125.577465 
L 147.1187 115.275572 
z
" clip-path="url(#p5ee4ebd2c7)" style="fill: #1f77b4; stroke: #000000"/>
    <path d="M 242.448935 204.026523 
L 223.684848 198.499222 
L 228.673298 217.267616 
z
" clip-path="url(#p5ee4ebd2c7)" style="fill: #1f77b4; stroke: #000000"/>
    <path d="M 190.646743 123.308511 
L 198.638467 143.443167 
L 190.178568 127.198383 
z
" clip-path="url(#p5ee4ebd2c7)" style="fill: #1f77b4; stroke: #000000"/>
    <path d="M 142.645208 108.180933 
L 132.05432 113.326219 
L 150.110749 109.202646 
z
" clip-path="url(#p5ee4ebd2c7)" style="fill: #1f77b4; stroke: #000000"/>
    <path d="M 261.552878 205.096755 
L 264.97737 199.553725 
L 242.448935 204.026523 
z
" clip-path="url(#p5ee4ebd2c7)" style="fill: #1f77b4; stroke: #000000"/>
    <path d="M 191.020705 205.990969 
L 172.495441 200.442802 
L 176.562008 219.2825 
z
" clip-path="url(#p5ee4ebd2c7)" style="fill: #1f77b4; stroke: #000000"/>
    <path d="M 108.788753 151.145872 
L 124.049915 138.755626 
L 126.120429 125.577465 
z
" clip-path="url(#p5ee4ebd2c7)" style="fill: #1f77b4; stroke: #000000"/>
    <path d="M 168.503539 109.615213 
L 166.065005 109.275451 
L 142.645208 108.180933 
z
" clip-path="url(#p5ee4ebd2c7)" style="fill: #1f77b4; stroke: #000000"/>
    <path d="M 190.646743 123.308511 
L 190.178568 127.198383 
L 187.103178 119.371121 
z
" clip-path="url(#p5ee4ebd2c7)" style="fill: #1f77b4; stroke: #000000"/>
    <path d="M 228.673298 217.267616 
L 223.684848 198.499222 
L 209.745576 211.598916 
z
" clip-path="url(#p5ee4ebd2c7)" style="fill: #1f77b4; stroke: #000000"/>
    <path d="M 108.788753 151.145872 
L 104.515084 163.615261 
L 124.049915 138.755626 
z
" clip-path="url(#p5ee4ebd2c7)" style="fill: #1f77b4; stroke: #000000"/>
    <path d="M 187.103178 119.371121 
L 166.065005 109.275451 
L 168.503539 109.615213 
z
" clip-path="url(#p5ee4ebd2c7)" style="fill: #1f77b4; stroke: #000000"/>
    <path d="M 125.561352 197.025042 
L 120.882933 188.863788 
L 113.111707 188.526101 
z
" clip-path="url(#p5ee4ebd2c7)" style="fill: #1f77b4; stroke: #000000"/>
    <path d="M 246.351019 180.447601 
L 264.97737 199.553725 
L 261.726048 199.431601 
z
" clip-path="url(#p5ee4ebd2c7)" style="fill: #1f77b4; stroke: #000000"/>
    <path d="M 113.111707 188.526101 
L 120.882933 188.863788 
L 111.636457 179.325468 
z
" clip-path="url(#p5ee4ebd2c7)" style="fill: #1f77b4; stroke: #000000"/>
    <path d="M 246.351019 180.447601 
L 247.695059 185.037309 
L 242.994258 181.384227 
z
" clip-path="url(#p5ee4ebd2c7)" style="fill: #1f77b4; stroke: #000000"/>
    <path d="M 176.562008 219.2825 
L 172.495441 200.442802 
L 157.879518 213.592129 
z
" clip-path="url(#p5ee4ebd2c7)" style="fill: #1f77b4; stroke: #000000"/>
    <path d="M 247.695059 185.037309 
L 246.351019 180.447601 
L 261.726048 199.431601 
z
" clip-path="url(#p5ee4ebd2c7)" style="fill: #1f77b4; stroke: #000000"/>
    <path d="M 205.54419 155.747423 
L 210.18147 160.507505 
L 191.317526 161.45866 
z
" clip-path="url(#p5ee4ebd2c7)" style="fill: #1f77b4; stroke: #000000"/>
    <path d="M 191.317526 161.45866 
L 198.638467 143.443167 
L 205.54419 155.747423 
z
" clip-path="url(#p5ee4ebd2c7)" style="fill: #1f77b4; stroke: #000000"/>
    <path d="M 261.552878 205.096755 
L 283.049107 206.244314 
L 264.97737 199.553725 
z
" clip-path="url(#p5ee4ebd2c7)" style="fill: #1f77b4; stroke: #000000"/>
    <path d="M 210.12457 182.530788 
L 210.18147 160.507505 
L 224.164658 171.382129 
z
" clip-path="url(#p5ee4ebd2c7)" style="fill: #1f77b4; stroke: #000000"/>
    <path d="M 125.561352 197.025042 
L 124.223399 219.600885 
L 139.3793 206.272515 
z
" clip-path="url(#p5ee4ebd2c7)" style="fill: #1f77b4; stroke: #000000"/>
    <path d="M 198.638467 143.443167 
L 188.188688 157.076953 
L 190.178568 127.198383 
z
" clip-path="url(#p5ee4ebd2c7)" style="fill: #1f77b4; stroke: #000000"/>
    <path d="M 132.05432 113.326219 
L 142.645208 108.180933 
L 135.105841 111.838018 
z
" clip-path="url(#p5ee4ebd2c7)" style="fill: #1f77b4; stroke: #000000"/>
    <path d="M 261.552878 205.096755 
L 242.448935 204.026523 
L 247.925887 218.444367 
z
" clip-path="url(#p5ee4ebd2c7)" style="fill: #1f77b4; stroke: #000000"/>
    <path d="M 261.726048 199.431601 
L 264.97737 199.553725 
L 280.923004 206.181896 
z
" clip-path="url(#p5ee4ebd2c7)" style="fill: #1f77b4; stroke: #000000"/>
    <path d="M 187.103178 119.371121 
L 190.178568 127.198383 
L 179.878725 118.426873 
z
" clip-path="url(#p5ee4ebd2c7)" style="fill: #1f77b4; stroke: #000000"/>
    <path d="M 187.103178 119.371121 
L 179.878725 118.426873 
L 166.065005 109.275451 
z
" clip-path="url(#p5ee4ebd2c7)" style="fill: #1f77b4; stroke: #000000"/>
    <path d="M 111.636457 179.325468 
L 104.515084 163.615261 
L 100.419849 179.861811 
z
" clip-path="url(#p5ee4ebd2c7)" style="fill: #1f77b4; stroke: #000000"/>
    <path d="M 209.745576 211.598916 
L 191.020705 205.990969 
L 195.448384 225.034972 
z
" clip-path="url(#p5ee4ebd2c7)" style="fill: #1f77b4; stroke: #000000"/>
    <path d="M 280.923004 206.181896 
L 264.97737 199.553725 
L 283.049107 206.244314 
z
" clip-path="url(#p5ee4ebd2c7)" style="fill: #1f77b4; stroke: #000000"/>
    <path d="M 153.676202 110.504028 
L 142.645208 108.180933 
L 166.065005 109.275451 
z
" clip-path="url(#p5ee4ebd2c7)" style="fill: #1f77b4; stroke: #000000"/>
    <path d="M 280.754128 210.728155 
L 283.049107 206.244314 
L 261.552878 205.096755 
z
" clip-path="url(#p5ee4ebd2c7)" style="fill: #1f77b4; stroke: #000000"/>
    <path d="M 110.80452 137.865078 
L 126.120429 125.577465 
L 132.05432 113.326219 
z
" clip-path="url(#p5ee4ebd2c7)" style="fill: #1f77b4; stroke: #000000"/>
    <path d="M 108.788753 151.145872 
L 126.120429 125.577465 
L 110.80452 137.865078 
z
" clip-path="url(#p5ee4ebd2c7)" style="fill: #1f77b4; stroke: #000000"/>
    <path d="M 247.925887 218.444367 
L 242.448935 204.026523 
L 228.673298 217.267616 
z
" clip-path="url(#p5ee4ebd2c7)" style="fill: #1f77b4; stroke: #000000"/>
    <path d="M 224.164658 171.382129 
L 242.994258 181.384227 
L 229.174744 191.558642 
z
" clip-path="url(#p5ee4ebd2c7)" style="fill: #1f77b4; stroke: #000000"/>
    <path d="M 109.979815 196.487134 
L 125.561352 197.025042 
L 113.111707 188.526101 
z
" clip-path="url(#p5ee4ebd2c7)" style="fill: #1f77b4; stroke: #000000"/>
    <path d="M 113.111707 188.526101 
L 111.636457 179.325468 
L 105.20445 188.182504 
z
" clip-path="url(#p5ee4ebd2c7)" style="fill: #1f77b4; stroke: #000000"/>
    <path d="M 191.317526 161.45866 
L 210.18147 160.507505 
L 200.694491 174.590398 
z
" clip-path="url(#p5ee4ebd2c7)" style="fill: #1f77b4; stroke: #000000"/>
    <path d="M 210.12457 182.530788 
L 200.694491 174.590398 
L 210.18147 160.507505 
z
" clip-path="url(#p5ee4ebd2c7)" style="fill: #1f77b4; stroke: #000000"/>
    <path d="M 135.105841 111.838018 
L 142.645208 108.180933 
L 153.676202 110.504028 
z
" clip-path="url(#p5ee4ebd2c7)" style="fill: #1f77b4; stroke: #000000"/>
    <path d="M 117.18858 212.335902 
L 124.223399 219.600885 
L 125.561352 197.025042 
z
" clip-path="url(#p5ee4ebd2c7)" style="fill: #1f77b4; stroke: #000000"/>
    <path d="M 157.879518 213.592129 
L 139.3793 206.272515 
L 142.87095 225.369561 
z
" clip-path="url(#p5ee4ebd2c7)" style="fill: #1f77b4; stroke: #000000"/>
    <path d="M 195.448384 225.034972 
L 191.020705 205.990969 
L 176.562008 219.2825 
z
" clip-path="url(#p5ee4ebd2c7)" style="fill: #1f77b4; stroke: #000000"/>
    <path d="M 242.994258 181.384227 
L 247.695059 185.037309 
L 229.174744 191.558642 
z
" clip-path="url(#p5ee4ebd2c7)" style="fill: #1f77b4; stroke: #000000"/>
    <path d="M 191.317526 161.45866 
L 188.188688 157.076953 
L 198.638467 143.443167 
z
" clip-path="url(#p5ee4ebd2c7)" style="fill: #1f77b4; stroke: #000000"/>
    <path d="M 100.419849 179.861811 
L 104.515084 163.615261 
L 108.788753 151.145872 
z
" clip-path="url(#p5ee4ebd2c7)" style="fill: #1f77b4; stroke: #000000"/>
    <path d="M 117.18858 212.335902 
L 125.561352 197.025042 
L 109.979815 196.487134 
z
" clip-path="url(#p5ee4ebd2c7)" style="fill: #1f77b4; stroke: #000000"/>
    <path d="M 248.074783 212.732323 
L 247.695059 185.037309 
L 261.726048 199.431601 
z
" clip-path="url(#p5ee4ebd2c7)" style="fill: #1f77b4; stroke: #000000"/>
    <path d="M 290.525027 211.291434 
L 283.049107 206.244314 
L 280.754128 210.728155 
z
" clip-path="url(#p5ee4ebd2c7)" style="fill: #1f77b4; stroke: #000000"/>
    <path d="M 283.049107 206.244314 
L 290.525027 211.291434 
L 280.923004 206.181896 
z
" clip-path="url(#p5ee4ebd2c7)" style="fill: #1f77b4; stroke: #000000"/>
    <path d="M 224.164658 171.382129 
L 229.174744 191.558642 
L 210.12457 182.530788 
z
" clip-path="url(#p5ee4ebd2c7)" style="fill: #1f77b4; stroke: #000000"/>
    <path d="M 190.178568 127.198383 
L 188.188688 157.076953 
L 184.316794 141.96639 
z
" clip-path="url(#p5ee4ebd2c7)" style="fill: #1f77b4; stroke: #000000"/>
    <path d="M 135.105841 111.838018 
L 112.841861 124.442144 
L 132.05432 113.326219 
z
" clip-path="url(#p5ee4ebd2c7)" style="fill: #1f77b4; stroke: #000000"/>
    <path d="M 142.87095 225.369561 
L 139.3793 206.272515 
L 124.223399 219.600885 
z
" clip-path="url(#p5ee4ebd2c7)" style="fill: #1f77b4; stroke: #000000"/>
    <path d="M 190.178568 127.198383 
L 177.256022 125.871475 
L 179.878725 118.426873 
z
" clip-path="url(#p5ee4ebd2c7)" style="fill: #1f77b4; stroke: #000000"/>
    <path d="M 111.636457 179.325468 
L 100.419849 179.861811 
L 105.20445 188.182504 
z
" clip-path="url(#p5ee4ebd2c7)" style="fill: #1f77b4; stroke: #000000"/>
    <path d="M 280.754128 210.728155 
L 261.552878 205.096755 
L 267.300176 224.22164 
z
" clip-path="url(#p5ee4ebd2c7)" style="fill: #1f77b4; stroke: #000000"/>
    <path d="M 172.525957 121.016318 
L 166.065005 109.275451 
L 179.878725 118.426873 
z
" clip-path="url(#p5ee4ebd2c7)" style="fill: #1f77b4; stroke: #000000"/>
    <path d="M 228.673298 217.267616 
L 209.745576 211.598916 
L 214.60955 226.275304 
z
" clip-path="url(#p5ee4ebd2c7)" style="fill: #1f77b4; stroke: #000000"/>
    <path d="M 153.676202 110.504028 
L 166.065005 109.275451 
L 172.525957 121.016318 
z
" clip-path="url(#p5ee4ebd2c7)" style="fill: #1f77b4; stroke: #000000"/>
    <path d="M 110.80452 137.865078 
L 132.05432 113.326219 
L 112.841861 124.442144 
z
" clip-path="url(#p5ee4ebd2c7)" style="fill: #1f77b4; stroke: #000000"/>
    <path d="M 261.726048 199.431601 
L 280.923004 206.181896 
L 267.450196 219.637723 
z
" clip-path="url(#p5ee4ebd2c7)" style="fill: #1f77b4; stroke: #000000"/>
    <path d="M 190.178568 127.198383 
L 184.316794 141.96639 
L 177.256022 125.871475 
z
" clip-path="url(#p5ee4ebd2c7)" style="fill: #1f77b4; stroke: #000000"/>
    <path d="M 109.979815 196.487134 
L 113.111707 188.526101 
L 105.20445 188.182504 
z
" clip-path="url(#p5ee4ebd2c7)" style="fill: #1f77b4; stroke: #000000"/>
    <path d="M 267.300176 224.22164 
L 261.552878 205.096755 
L 247.925887 218.444367 
z
" clip-path="url(#p5ee4ebd2c7)" style="fill: #1f77b4; stroke: #000000"/>
    <path d="M 176.562008 219.2825 
L 157.879518 213.592129 
L 161.723639 231.201697 
z
" clip-path="url(#p5ee4ebd2c7)" style="fill: #1f77b4; stroke: #000000"/>
    <path d="M 229.174744 191.558642 
L 247.695059 185.037309 
L 238.682658 199.557677 
z
" clip-path="url(#p5ee4ebd2c7)" style="fill: #1f77b4; stroke: #000000"/>
    <path d="M 248.074783 212.732323 
L 238.682658 199.557677 
L 247.695059 185.037309 
z
" clip-path="url(#p5ee4ebd2c7)" style="fill: #1f77b4; stroke: #000000"/>
    <path d="M 95.448714 164.53991 
L 108.788753 151.145872 
L 110.80452 137.865078 
z
" clip-path="url(#p5ee4ebd2c7)" style="fill: #1f77b4; stroke: #000000"/>
    <path d="M 191.317526 161.45866 
L 200.694491 174.590398 
L 187.702906 161.168153 
z
" clip-path="url(#p5ee4ebd2c7)" style="fill: #1f77b4; stroke: #000000"/>
    <path d="M 214.60955 226.275304 
L 209.745576 211.598916 
L 195.448384 225.034972 
z
" clip-path="url(#p5ee4ebd2c7)" style="fill: #1f77b4; stroke: #000000"/>
    <path d="M 191.317526 161.45866 
L 187.702906 161.168153 
L 188.188688 157.076953 
z
" clip-path="url(#p5ee4ebd2c7)" style="fill: #1f77b4; stroke: #000000"/>
    <path d="M 280.923004 206.181896 
L 290.525027 211.291434 
L 267.450196 219.637723 
z
" clip-path="url(#p5ee4ebd2c7)" style="fill: #1f77b4; stroke: #000000"/>
    <path d="M 290.525027 211.291434 
L 280.754128 210.728155 
L 277.150042 224.839917 
z
" clip-path="url(#p5ee4ebd2c7)" style="fill: #1f77b4; stroke: #000000"/>
    <path d="M 100.419849 179.861811 
L 108.788753 151.145872 
L 95.448714 164.53991 
z
" clip-path="url(#p5ee4ebd2c7)" style="fill: #1f77b4; stroke: #000000"/>
    <path d="M 261.726048 199.431601 
L 267.450196 219.637723 
L 248.074783 212.732323 
z
" clip-path="url(#p5ee4ebd2c7)" style="fill: #1f77b4; stroke: #000000"/>
    <path d="M 135.105841 111.838018 
L 153.676202 110.504028 
L 119.638955 115.747733 
z
" clip-path="url(#p5ee4ebd2c7)" style="fill: #1f77b4; stroke: #000000"/>
    <path d="M 116.402634 221.248127 
L 124.223399 219.600885 
L 117.18858 212.335902 
z
" clip-path="url(#p5ee4ebd2c7)" style="fill: #1f77b4; stroke: #000000"/>
    <path d="M 247.925887 218.444367 
L 228.673298 217.267616 
L 214.60955 226.275304 
z
" clip-path="url(#p5ee4ebd2c7)" style="fill: #1f77b4; stroke: #000000"/>
    <path d="M 161.723639 231.201697 
L 157.879518 213.592129 
L 142.87095 225.369561 
z
" clip-path="url(#p5ee4ebd2c7)" style="fill: #1f77b4; stroke: #000000"/>
    <path d="M 119.638955 115.747733 
L 112.841861 124.442144 
L 135.105841 111.838018 
z
" clip-path="url(#p5ee4ebd2c7)" style="fill: #1f77b4; stroke: #000000"/>
    <path d="M 179.878725 118.426873 
L 177.256022 125.871475 
L 172.525957 121.016318 
z
" clip-path="url(#p5ee4ebd2c7)" style="fill: #1f77b4; stroke: #000000"/>
    <path d="M 195.689301 195.724298 
L 200.694491 174.590398 
L 210.12457 182.530788 
z
" clip-path="url(#p5ee4ebd2c7)" style="fill: #1f77b4; stroke: #000000"/>
    <path d="M 116.402634 221.248127 
L 142.87095 225.369561 
L 124.223399 219.600885 
z
" clip-path="url(#p5ee4ebd2c7)" style="fill: #1f77b4; stroke: #000000"/>
    <path d="M 105.20445 188.182504 
L 101.116471 184.530716 
L 109.979815 196.487134 
z
" clip-path="url(#p5ee4ebd2c7)" style="fill: #1f77b4; stroke: #000000"/>
    <path d="M 277.150042 224.839917 
L 280.754128 210.728155 
L 267.300176 224.22164 
z
" clip-path="url(#p5ee4ebd2c7)" style="fill: #1f77b4; stroke: #000000"/>
    <path d="M 109.979815 196.487134 
L 116.143983 207.437386 
L 117.18858 212.335902 
z
" clip-path="url(#p5ee4ebd2c7)" style="fill: #1f77b4; stroke: #000000"/>
    <path d="M 184.101263 150.312295 
L 184.316794 141.96639 
L 188.188688 157.076953 
z
" clip-path="url(#p5ee4ebd2c7)" style="fill: #1f77b4; stroke: #000000"/>
    <path d="M 184.101263 150.312295 
L 188.188688 157.076953 
L 187.702906 161.168153 
z
" clip-path="url(#p5ee4ebd2c7)" style="fill: #1f77b4; stroke: #000000"/>
    <path d="M 95.09167 150.471149 
L 110.80452 137.865078 
L 112.841861 124.442144 
z
" clip-path="url(#p5ee4ebd2c7)" style="fill: #1f77b4; stroke: #000000"/>
    <path d="M 101.116471 184.530716 
L 105.20445 188.182504 
L 100.419849 179.861811 
z
" clip-path="url(#p5ee4ebd2c7)" style="fill: #1f77b4; stroke: #000000"/>
    <path d="M 238.682658 199.557677 
L 248.074783 212.732323 
L 244.521294 219.548109 
z
" clip-path="url(#p5ee4ebd2c7)" style="fill: #1f77b4; stroke: #000000"/>
    <path d="M 244.521294 219.548109 
L 267.300176 224.22164 
L 247.925887 218.444367 
z
" clip-path="url(#p5ee4ebd2c7)" style="fill: #1f77b4; stroke: #000000"/>
    <path d="M 195.448384 225.034972 
L 176.562008 219.2825 
L 180.794153 234.223545 
z
" clip-path="url(#p5ee4ebd2c7)" style="fill: #1f77b4; stroke: #000000"/>
    <path d="M 172.525957 121.016318 
L 146.079803 111.257359 
L 153.676202 110.504028 
z
" clip-path="url(#p5ee4ebd2c7)" style="fill: #1f77b4; stroke: #000000"/>
    <path d="M 95.448714 164.53991 
L 110.80452 137.865078 
L 95.09167 150.471149 
z
" clip-path="url(#p5ee4ebd2c7)" style="fill: #1f77b4; stroke: #000000"/>
    <path d="M 200.694491 174.590398 
L 183.822903 172.949839 
L 187.702906 161.168153 
z
" clip-path="url(#p5ee4ebd2c7)" style="fill: #1f77b4; stroke: #000000"/>
    <path d="M 267.450196 219.637723 
L 290.525027 211.291434 
L 277.150042 224.839917 
z
" clip-path="url(#p5ee4ebd2c7)" style="fill: #1f77b4; stroke: #000000"/>
    <path d="M 210.12457 182.530788 
L 229.174744 191.558642 
L 214.88187 207.830212 
z
" clip-path="url(#p5ee4ebd2c7)" style="fill: #1f77b4; stroke: #000000"/>
    <path d="M 117.18858 212.335902 
L 116.143983 207.437386 
L 116.402634 221.248127 
z
" clip-path="url(#p5ee4ebd2c7)" style="fill: #1f77b4; stroke: #000000"/>
    <path d="M 244.521294 219.548109 
L 247.925887 218.444367 
L 219.461031 225.440169 
z
" clip-path="url(#p5ee4ebd2c7)" style="fill: #1f77b4; stroke: #000000"/>
    <path d="M 244.521294 219.548109 
L 248.074783 212.732323 
L 265.097334 224.211181 
z
" clip-path="url(#p5ee4ebd2c7)" style="fill: #1f77b4; stroke: #000000"/>
    <path d="M 219.461031 225.440169 
L 238.682658 199.557677 
L 244.521294 219.548109 
z
" clip-path="url(#p5ee4ebd2c7)" style="fill: #1f77b4; stroke: #000000"/>
    <path d="M 101.116471 184.530716 
L 116.143983 207.437386 
L 109.979815 196.487134 
z
" clip-path="url(#p5ee4ebd2c7)" style="fill: #1f77b4; stroke: #000000"/>
    <path d="M 195.689301 195.724298 
L 188.541643 188.372248 
L 200.694491 174.590398 
z
" clip-path="url(#p5ee4ebd2c7)" style="fill: #1f77b4; stroke: #000000"/>
    <path d="M 247.925887 218.444367 
L 214.60955 226.275304 
L 219.461031 225.440169 
z
" clip-path="url(#p5ee4ebd2c7)" style="fill: #1f77b4; stroke: #000000"/>
    <path d="M 186.012155 134.534586 
L 177.256022 125.871475 
L 184.316794 141.96639 
z
" clip-path="url(#p5ee4ebd2c7)" style="fill: #1f77b4; stroke: #000000"/>
    <path d="M 265.097334 224.211181 
L 248.074783 212.732323 
L 267.450196 219.637723 
z
" clip-path="url(#p5ee4ebd2c7)" style="fill: #1f77b4; stroke: #000000"/>
    <path d="M 119.638955 115.747733 
L 153.676202 110.504028 
L 124.268136 113.480851 
z
" clip-path="url(#p5ee4ebd2c7)" style="fill: #1f77b4; stroke: #000000"/>
    <path d="M 265.097334 224.211181 
L 267.300176 224.22164 
L 244.521294 219.548109 
z
" clip-path="url(#p5ee4ebd2c7)" style="fill: #1f77b4; stroke: #000000"/>
    <path d="M 153.676202 110.504028 
L 146.079803 111.257359 
L 124.268136 113.480851 
z
" clip-path="url(#p5ee4ebd2c7)" style="fill: #1f77b4; stroke: #000000"/>
    <path d="M 229.174744 191.558642 
L 238.682658 199.557677 
L 214.88187 207.830212 
z
" clip-path="url(#p5ee4ebd2c7)" style="fill: #1f77b4; stroke: #000000"/>
    <path d="M 180.794153 234.223545 
L 176.562008 219.2825 
L 161.723639 231.201697 
z
" clip-path="url(#p5ee4ebd2c7)" style="fill: #1f77b4; stroke: #000000"/>
    <path d="M 135.160983 227.073508 
L 142.87095 225.369561 
L 116.402634 221.248127 
z
" clip-path="url(#p5ee4ebd2c7)" style="fill: #1f77b4; stroke: #000000"/>
    <path d="M 200.694491 174.590398 
L 188.541643 188.372248 
L 183.822903 172.949839 
z
" clip-path="url(#p5ee4ebd2c7)" style="fill: #1f77b4; stroke: #000000"/>
    <path d="M 165.04559 116.488157 
L 172.525957 121.016318 
L 177.256022 125.871475 
z
" clip-path="url(#p5ee4ebd2c7)" style="fill: #1f77b4; stroke: #000000"/>
    <path d="M 210.12457 182.530788 
L 214.88187 207.830212 
L 195.689301 195.724298 
z
" clip-path="url(#p5ee4ebd2c7)" style="fill: #1f77b4; stroke: #000000"/>
    <path d="M 135.160983 227.073508 
L 161.723639 231.201697 
L 142.87095 225.369561 
z
" clip-path="url(#p5ee4ebd2c7)" style="fill: #1f77b4; stroke: #000000"/>
    <path d="M 214.60955 226.275304 
L 195.448384 225.034972 
L 180.794153 234.223545 
z
" clip-path="url(#p5ee4ebd2c7)" style="fill: #1f77b4; stroke: #000000"/>
    <path d="M 277.150042 224.839917 
L 267.300176 224.22164 
L 265.097334 224.211181 
z
" clip-path="url(#p5ee4ebd2c7)" style="fill: #1f77b4; stroke: #000000"/>
    <path d="M 186.012155 134.534586 
L 184.316794 141.96639 
L 184.101263 150.312295 
z
" clip-path="url(#p5ee4ebd2c7)" style="fill: #1f77b4; stroke: #000000"/>
    <path d="M 267.450196 219.637723 
L 277.150042 224.839917 
L 265.097334 224.211181 
z
" clip-path="url(#p5ee4ebd2c7)" style="fill: #1f77b4; stroke: #000000"/>
    <path d="M 187.702906 161.168153 
L 183.822903 172.949839 
L 184.101263 150.312295 
z
" clip-path="url(#p5ee4ebd2c7)" style="fill: #1f77b4; stroke: #000000"/>
    <path d="M 172.525957 121.016318 
L 165.04559 116.488157 
L 146.079803 111.257359 
z
" clip-path="url(#p5ee4ebd2c7)" style="fill: #1f77b4; stroke: #000000"/>
    <path d="M 218.073278 211.111846 
L 238.682658 199.557677 
L 219.461031 225.440169 
z
" clip-path="url(#p5ee4ebd2c7)" style="fill: #1f77b4; stroke: #000000"/>
    <path d="M 95.09167 150.471149 
L 112.841861 124.442144 
L 94.731251 136.26942 
z
" clip-path="url(#p5ee4ebd2c7)" style="fill: #1f77b4; stroke: #000000"/>
    <path d="M 100.419849 179.861811 
L 95.448714 164.53991 
L 85.64328 179.477277 
z
" clip-path="url(#p5ee4ebd2c7)" style="fill: #1f77b4; stroke: #000000"/>
    <path d="M 101.116471 184.530716 
L 100.419849 179.861811 
L 88.869463 183.952064 
z
" clip-path="url(#p5ee4ebd2c7)" style="fill: #1f77b4; stroke: #000000"/>
    <path d="M 219.461031 225.440169 
L 214.60955 226.275304 
L 211.04526 227.418849 
z
" clip-path="url(#p5ee4ebd2c7)" style="fill: #1f77b4; stroke: #000000"/>
    <path d="M 186.012155 134.534586 
L 165.04559 116.488157 
L 177.256022 125.871475 
z
" clip-path="url(#p5ee4ebd2c7)" style="fill: #1f77b4; stroke: #000000"/>
    <path d="M 214.88187 207.830212 
L 238.682658 199.557677 
L 218.073278 211.111846 
z
" clip-path="url(#p5ee4ebd2c7)" style="fill: #1f77b4; stroke: #000000"/>
    <path d="M 100.641309 123.709484 
L 112.841861 124.442144 
L 119.638955 115.747733 
z
" clip-path="url(#p5ee4ebd2c7)" style="fill: #1f77b4; stroke: #000000"/>
    <path d="M 134.989671 213.213802 
L 116.402634 221.248127 
L 116.143983 207.437386 
z
" clip-path="url(#p5ee4ebd2c7)" style="fill: #1f77b4; stroke: #000000"/>
    <path d="M 134.989671 213.213802 
L 135.160983 227.073508 
L 116.402634 221.248127 
z
" clip-path="url(#p5ee4ebd2c7)" style="fill: #1f77b4; stroke: #000000"/>
    <path d="M 101.116471 184.530716 
L 113.913309 195.173568 
L 116.143983 207.437386 
z
" clip-path="url(#p5ee4ebd2c7)" style="fill: #1f77b4; stroke: #000000"/>
    <path d="M 119.638955 115.747733 
L 124.268136 113.480851 
L 111.734043 118.347673 
z
" clip-path="url(#p5ee4ebd2c7)" style="fill: #1f77b4; stroke: #000000"/>
    <path d="M 156.031466 231.224449 
L 161.723639 231.201697 
L 135.160983 227.073508 
z
" clip-path="url(#p5ee4ebd2c7)" style="fill: #1f77b4; stroke: #000000"/>
    <path d="M 85.64328 179.477277 
L 95.448714 164.53991 
L 95.09167 150.471149 
z
" clip-path="url(#p5ee4ebd2c7)" style="fill: #1f77b4; stroke: #000000"/>
    <path d="M 211.04526 227.418849 
L 218.073278 211.111846 
L 219.461031 225.440169 
z
" clip-path="url(#p5ee4ebd2c7)" style="fill: #1f77b4; stroke: #000000"/>
    <path d="M 211.04526 227.418849 
L 214.60955 226.275304 
L 185.60844 233.399443 
z
" clip-path="url(#p5ee4ebd2c7)" style="fill: #1f77b4; stroke: #000000"/>
    <path d="M 124.268136 113.480851 
L 146.079803 111.257359 
L 138.298661 106.610188 
z
" clip-path="url(#p5ee4ebd2c7)" style="fill: #1f77b4; stroke: #000000"/>
    <path d="M 100.641309 123.709484 
L 94.731251 136.26942 
L 112.841861 124.442144 
z
" clip-path="url(#p5ee4ebd2c7)" style="fill: #1f77b4; stroke: #000000"/>
    <path d="M 156.031466 231.224449 
L 180.794153 234.223545 
L 161.723639 231.201697 
z
" clip-path="url(#p5ee4ebd2c7)" style="fill: #1f77b4; stroke: #000000"/>
    <path d="M 214.60955 226.275304 
L 180.794153 234.223545 
L 185.60844 233.399443 
z
" clip-path="url(#p5ee4ebd2c7)" style="fill: #1f77b4; stroke: #000000"/>
    <path d="M 184.101263 150.312295 
L 186.291764 159.492429 
L 186.012155 134.534586 
z
" clip-path="url(#p5ee4ebd2c7)" style="fill: #1f77b4; stroke: #000000"/>
    <path d="M 100.419849 179.861811 
L 85.64328 179.477277 
L 88.869463 183.952064 
z
" clip-path="url(#p5ee4ebd2c7)" style="fill: #1f77b4; stroke: #000000"/>
    <path d="M 211.233132 213.55625 
L 218.073278 211.111846 
L 211.04526 227.418849 
z
" clip-path="url(#p5ee4ebd2c7)" style="fill: #1f77b4; stroke: #000000"/>
    <path d="M 184.101263 150.312295 
L 183.822903 172.949839 
L 186.291764 159.492429 
z
" clip-path="url(#p5ee4ebd2c7)" style="fill: #1f77b4; stroke: #000000"/>
    <path d="M 180.857768 214.523682 
L 188.541643 188.372248 
L 195.689301 195.724298 
z
" clip-path="url(#p5ee4ebd2c7)" style="fill: #1f77b4; stroke: #000000"/>
    <path d="M 111.734043 118.347673 
L 124.268136 113.480851 
L 138.298661 106.610188 
z
" clip-path="url(#p5ee4ebd2c7)" style="fill: #1f77b4; stroke: #000000"/>
    <path d="M 214.88187 207.830212 
L 218.073278 211.111846 
L 211.233132 213.55625 
z
" clip-path="url(#p5ee4ebd2c7)" style="fill: #1f77b4; stroke: #000000"/>
    <path d="M 111.734043 118.347673 
L 100.641309 123.709484 
L 119.638955 115.747733 
z
" clip-path="url(#p5ee4ebd2c7)" style="fill: #1f77b4; stroke: #000000"/>
    <path d="M 157.413428 111.868107 
L 146.079803 111.257359 
L 165.04559 116.488157 
z
" clip-path="url(#p5ee4ebd2c7)" style="fill: #1f77b4; stroke: #000000"/>
    <path d="M 180.857768 214.523682 
L 195.689301 195.724298 
L 214.88187 207.830212 
z
" clip-path="url(#p5ee4ebd2c7)" style="fill: #1f77b4; stroke: #000000"/>
    <path d="M 188.541643 188.372248 
L 171.226477 201.088845 
L 183.822903 172.949839 
z
" clip-path="url(#p5ee4ebd2c7)" style="fill: #1f77b4; stroke: #000000"/>
    <path d="M 101.116471 184.530716 
L 107.814613 193.188879 
L 113.913309 195.173568 
z
" clip-path="url(#p5ee4ebd2c7)" style="fill: #1f77b4; stroke: #000000"/>
    <path d="M 81.313941 164.105038 
L 95.09167 150.471149 
L 94.731251 136.26942 
z
" clip-path="url(#p5ee4ebd2c7)" style="fill: #1f77b4; stroke: #000000"/>
    <path d="M 154.045394 219.054596 
L 156.031466 231.224449 
L 135.160983 227.073508 
z
" clip-path="url(#p5ee4ebd2c7)" style="fill: #1f77b4; stroke: #000000"/>
    <path d="M 178.313715 234.24267 
L 180.794153 234.223545 
L 156.031466 231.224449 
z
" clip-path="url(#p5ee4ebd2c7)" style="fill: #1f77b4; stroke: #000000"/>
    <path d="M 154.045394 219.054596 
L 135.160983 227.073508 
L 134.989671 213.213802 
z
" clip-path="url(#p5ee4ebd2c7)" style="fill: #1f77b4; stroke: #000000"/>
    <path d="M 132.867227 200.918574 
L 134.989671 213.213802 
L 116.143983 207.437386 
z
" clip-path="url(#p5ee4ebd2c7)" style="fill: #1f77b4; stroke: #000000"/>
    <path d="M 132.867227 200.918574 
L 116.143983 207.437386 
L 113.913309 195.173568 
z
" clip-path="url(#p5ee4ebd2c7)" style="fill: #1f77b4; stroke: #000000"/>
    <path d="M 179.234101 125.966455 
L 165.04559 116.488157 
L 186.012155 134.534586 
z
" clip-path="url(#p5ee4ebd2c7)" style="fill: #1f77b4; stroke: #000000"/>
    <path d="M 211.04526 227.418849 
L 185.676274 219.486905 
L 211.233132 213.55625 
z
" clip-path="url(#p5ee4ebd2c7)" style="fill: #1f77b4; stroke: #000000"/>
    <path d="M 138.298661 106.610188 
L 146.079803 111.257359 
L 157.413428 111.868107 
z
" clip-path="url(#p5ee4ebd2c7)" style="fill: #1f77b4; stroke: #000000"/>
    <path d="M 185.60844 233.399443 
L 180.794153 234.223545 
L 178.313715 234.24267 
z
" clip-path="url(#p5ee4ebd2c7)" style="fill: #1f77b4; stroke: #000000"/>
    <path d="M 101.116471 184.530716 
L 88.869463 183.952064 
L 107.814613 193.188879 
z
" clip-path="url(#p5ee4ebd2c7)" style="fill: #1f77b4; stroke: #000000"/>
    <path d="M 211.04526 227.418849 
L 185.60844 233.399443 
L 185.676274 219.486905 
z
" clip-path="url(#p5ee4ebd2c7)" style="fill: #1f77b4; stroke: #000000"/>
    <path d="M 180.857768 214.523682 
L 214.88187 207.830212 
L 211.233132 213.55625 
z
" clip-path="url(#p5ee4ebd2c7)" style="fill: #1f77b4; stroke: #000000"/>
    <path d="M 85.64328 179.477277 
L 95.09167 150.471149 
L 81.313941 164.105038 
z
" clip-path="url(#p5ee4ebd2c7)" style="fill: #1f77b4; stroke: #000000"/>
    <path d="M 180.857768 214.523682 
L 171.226477 201.088845 
L 188.541643 188.372248 
z
" clip-path="url(#p5ee4ebd2c7)" style="fill: #1f77b4; stroke: #000000"/>
    <path d="M 136.318366 104.527029 
L 111.734043 118.347673 
L 138.298661 106.610188 
z
" clip-path="url(#p5ee4ebd2c7)" style="fill: #1f77b4; stroke: #000000"/>
    <path d="M 178.346846 220.323117 
L 178.313715 234.24267 
L 156.031466 231.224449 
z
" clip-path="url(#p5ee4ebd2c7)" style="fill: #1f77b4; stroke: #000000"/>
    <path d="M 178.313715 234.24267 
L 185.676274 219.486905 
L 185.60844 233.399443 
z
" clip-path="url(#p5ee4ebd2c7)" style="fill: #1f77b4; stroke: #000000"/>
    <path d="M 186.012155 134.534586 
L 186.291764 159.492429 
L 192.836276 147.031025 
z
" clip-path="url(#p5ee4ebd2c7)" style="fill: #1f77b4; stroke: #000000"/>
    <path d="M 178.346846 220.323117 
L 156.031466 231.224449 
L 154.045394 219.054596 
z
" clip-path="url(#p5ee4ebd2c7)" style="fill: #1f77b4; stroke: #000000"/>
    <path d="M 183.822903 172.949839 
L 171.225838 186.946957 
L 186.291764 159.492429 
z
" clip-path="url(#p5ee4ebd2c7)" style="fill: #1f77b4; stroke: #000000"/>
    <path d="M 107.470303 106.995269 
L 111.734043 118.347673 
L 136.318366 104.527029 
z
" clip-path="url(#p5ee4ebd2c7)" style="fill: #1f77b4; stroke: #000000"/>
    <path d="M 185.676274 219.486905 
L 180.857768 214.523682 
L 211.233132 213.55625 
z
" clip-path="url(#p5ee4ebd2c7)" style="fill: #1f77b4; stroke: #000000"/>
    <path d="M 186.012155 134.534586 
L 192.836276 147.031025 
L 179.234101 125.966455 
z
" clip-path="url(#p5ee4ebd2c7)" style="fill: #1f77b4; stroke: #000000"/>
    <path d="M 100.641309 123.709484 
L 111.734043 118.347673 
L 98.725291 108.777438 
z
" clip-path="url(#p5ee4ebd2c7)" style="fill: #1f77b4; stroke: #000000"/>
    <path d="M 178.346846 220.323117 
L 185.676274 219.486905 
L 178.313715 234.24267 
z
" clip-path="url(#p5ee4ebd2c7)" style="fill: #1f77b4; stroke: #000000"/>
    <path d="M 157.413428 111.868107 
L 136.318366 104.527029 
L 138.298661 106.610188 
z
" clip-path="url(#p5ee4ebd2c7)" style="fill: #1f77b4; stroke: #000000"/>
    <path d="M 86.069421 182.640975 
L 88.869463 183.952064 
L 85.64328 179.477277 
z
" clip-path="url(#p5ee4ebd2c7)" style="fill: #1f77b4; stroke: #000000"/>
    <path d="M 183.822903 172.949839 
L 171.226477 201.088845 
L 171.225838 186.946957 
z
" clip-path="url(#p5ee4ebd2c7)" style="fill: #1f77b4; stroke: #000000"/>
    <path d="M 153.962602 205.012674 
L 154.045394 219.054596 
L 134.989671 213.213802 
z
" clip-path="url(#p5ee4ebd2c7)" style="fill: #1f77b4; stroke: #000000"/>
    <path d="M 176.730002 124.45367 
L 165.04559 116.488157 
L 179.234101 125.966455 
z
" clip-path="url(#p5ee4ebd2c7)" style="fill: #1f77b4; stroke: #000000"/>
    <path d="M 157.413428 111.868107 
L 165.04559 116.488157 
L 176.730002 124.45367 
z
" clip-path="url(#p5ee4ebd2c7)" style="fill: #1f77b4; stroke: #000000"/>
    <path d="M 98.725291 108.777438 
L 111.734043 118.347673 
L 107.470303 106.995269 
z
" clip-path="url(#p5ee4ebd2c7)" style="fill: #1f77b4; stroke: #000000"/>
    <path d="M 153.962602 205.012674 
L 134.989671 213.213802 
L 132.867227 200.918574 
z
" clip-path="url(#p5ee4ebd2c7)" style="fill: #1f77b4; stroke: #000000"/>
    <path d="M 84.820918 150.923537 
L 94.731251 136.26942 
L 100.641309 123.709484 
z
" clip-path="url(#p5ee4ebd2c7)" style="fill: #1f77b4; stroke: #000000"/>
    <path d="M 180.857768 214.523682 
L 185.676274 219.486905 
L 178.346846 220.323117 
z
" clip-path="url(#p5ee4ebd2c7)" style="fill: #1f77b4; stroke: #000000"/>
    <path d="M 86.069421 182.640975 
L 107.814613 193.188879 
L 88.869463 183.952064 
z
" clip-path="url(#p5ee4ebd2c7)" style="fill: #1f77b4; stroke: #000000"/>
    <path d="M 180.857768 214.523682 
L 178.346846 220.323117 
L 171.226477 201.088845 
z
" clip-path="url(#p5ee4ebd2c7)" style="fill: #1f77b4; stroke: #000000"/>
    <path d="M 81.313941 164.105038 
L 94.731251 136.26942 
L 84.820918 150.923537 
z
" clip-path="url(#p5ee4ebd2c7)" style="fill: #1f77b4; stroke: #000000"/>
    <path d="M 113.913309 195.173568 
L 126.87369 198.964996 
L 132.867227 200.918574 
z
" clip-path="url(#p5ee4ebd2c7)" style="fill: #1f77b4; stroke: #000000"/>
    <path d="M 178.346846 220.323117 
L 154.045394 219.054596 
L 153.962602 205.012674 
z
" clip-path="url(#p5ee4ebd2c7)" style="fill: #1f77b4; stroke: #000000"/>
    <path d="M 113.913309 195.173568 
L 107.814613 193.188879 
L 126.87369 198.964996 
z
" clip-path="url(#p5ee4ebd2c7)" style="fill: #1f77b4; stroke: #000000"/>
    <path d="M 178.346846 220.323117 
L 153.962602 205.012674 
L 171.226477 201.088845 
z
" clip-path="url(#p5ee4ebd2c7)" style="fill: #1f77b4; stroke: #000000"/>
    <path d="M 157.413428 111.868107 
L 154.83482 110.307202 
L 136.318366 104.527029 
z
" clip-path="url(#p5ee4ebd2c7)" style="fill: #1f77b4; stroke: #000000"/>
    <path d="M 136.318366 104.527029 
L 130.260446 94.53549 
L 107.470303 106.995269 
z
" clip-path="url(#p5ee4ebd2c7)" style="fill: #1f77b4; stroke: #000000"/>
    <path d="M 85.64328 179.477277 
L 80.193394 172.835187 
L 86.069421 182.640975 
z
" clip-path="url(#p5ee4ebd2c7)" style="fill: #1f77b4; stroke: #000000"/>
    <path d="M 81.313941 164.105038 
L 80.193394 172.835187 
L 85.64328 179.477277 
z
" clip-path="url(#p5ee4ebd2c7)" style="fill: #1f77b4; stroke: #000000"/>
    <path d="M 186.291764 159.492429 
L 173.659673 173.378851 
L 192.836276 147.031025 
z
" clip-path="url(#p5ee4ebd2c7)" style="fill: #1f77b4; stroke: #000000"/>
    <path d="M 179.234101 125.966455 
L 192.836276 147.031025 
L 186.43487 130.776801 
z
" clip-path="url(#p5ee4ebd2c7)" style="fill: #1f77b4; stroke: #000000"/>
    <path d="M 176.730002 124.45367 
L 154.83482 110.307202 
L 157.413428 111.868107 
z
" clip-path="url(#p5ee4ebd2c7)" style="fill: #1f77b4; stroke: #000000"/>
    <path d="M 98.725291 108.777438 
L 107.470303 106.995269 
L 93.629262 92.8473 
z
" clip-path="url(#p5ee4ebd2c7)" style="fill: #1f77b4; stroke: #000000"/>
    <path d="M 179.234101 125.966455 
L 186.43487 130.776801 
L 176.730002 124.45367 
z
" clip-path="url(#p5ee4ebd2c7)" style="fill: #1f77b4; stroke: #000000"/>
    <path d="M 93.629262 92.8473 
L 107.470303 106.995269 
L 109.167669 90.860513 
z
" clip-path="url(#p5ee4ebd2c7)" style="fill: #1f77b4; stroke: #000000"/>
    <path d="M 186.291764 159.492429 
L 171.225838 186.946957 
L 173.659673 173.378851 
z
" clip-path="url(#p5ee4ebd2c7)" style="fill: #1f77b4; stroke: #000000"/>
    <path d="M 84.820918 150.923537 
L 100.641309 123.709484 
L 95.735018 130.935464 
z
" clip-path="url(#p5ee4ebd2c7)" style="fill: #1f77b4; stroke: #000000"/>
    <path d="M 98.725291 108.777438 
L 95.370819 116.368608 
L 100.641309 123.709484 
z
" clip-path="url(#p5ee4ebd2c7)" style="fill: #1f77b4; stroke: #000000"/>
    <path d="M 99.600486 192.876174 
L 107.814613 193.188879 
L 86.069421 182.640975 
z
" clip-path="url(#p5ee4ebd2c7)" style="fill: #1f77b4; stroke: #000000"/>
    <path d="M 107.470303 106.995269 
L 130.260446 94.53549 
L 109.167669 90.860513 
z
" clip-path="url(#p5ee4ebd2c7)" style="fill: #1f77b4; stroke: #000000"/>
    <path d="M 100.641309 123.709484 
L 95.370819 116.368608 
L 95.735018 130.935464 
z
" clip-path="url(#p5ee4ebd2c7)" style="fill: #1f77b4; stroke: #000000"/>
    <path d="M 132.867227 200.918574 
L 146.117679 201.242612 
L 153.962602 205.012674 
z
" clip-path="url(#p5ee4ebd2c7)" style="fill: #1f77b4; stroke: #000000"/>
    <path d="M 154.83482 110.307202 
L 147.616793 101.349107 
L 136.318366 104.527029 
z
" clip-path="url(#p5ee4ebd2c7)" style="fill: #1f77b4; stroke: #000000"/>
    <path d="M 84.820918 150.923537 
L 83.879166 155.121616 
L 81.313941 164.105038 
z
" clip-path="url(#p5ee4ebd2c7)" style="fill: #1f77b4; stroke: #000000"/>
    <path d="M 99.600486 192.876174 
L 126.87369 198.964996 
L 107.814613 193.188879 
z
" clip-path="url(#p5ee4ebd2c7)" style="fill: #1f77b4; stroke: #000000"/>
    <path d="M 149.328534 198.645845 
L 171.226477 201.088845 
L 153.962602 205.012674 
z
" clip-path="url(#p5ee4ebd2c7)" style="fill: #1f77b4; stroke: #000000"/>
    <path d="M 86.069421 182.640975 
L 80.193394 172.835187 
L 99.600486 192.876174 
z
" clip-path="url(#p5ee4ebd2c7)" style="fill: #1f77b4; stroke: #000000"/>
    <path d="M 149.328534 198.645845 
L 171.225838 186.946957 
L 171.226477 201.088845 
z
" clip-path="url(#p5ee4ebd2c7)" style="fill: #1f77b4; stroke: #000000"/>
    <path d="M 132.867227 200.918574 
L 126.87369 198.964996 
L 146.117679 201.242612 
z
" clip-path="url(#p5ee4ebd2c7)" style="fill: #1f77b4; stroke: #000000"/>
    <path d="M 93.629262 92.8473 
L 109.167669 90.860513 
L 103.014131 89.931971 
z
" clip-path="url(#p5ee4ebd2c7)" style="fill: #1f77b4; stroke: #000000"/>
    <path d="M 136.318366 104.527029 
L 147.616793 101.349107 
L 130.260446 94.53549 
z
" clip-path="url(#p5ee4ebd2c7)" style="fill: #1f77b4; stroke: #000000"/>
    <path d="M 81.313941 164.105038 
L 83.879166 155.121616 
L 80.193394 172.835187 
z
" clip-path="url(#p5ee4ebd2c7)" style="fill: #1f77b4; stroke: #000000"/>
    <path d="M 87.777634 144.618537 
L 84.820918 150.923537 
L 95.735018 130.935464 
z
" clip-path="url(#p5ee4ebd2c7)" style="fill: #1f77b4; stroke: #000000"/>
    <path d="M 192.836276 147.031025 
L 173.659673 173.378851 
L 188.606098 154.465892 
z
" clip-path="url(#p5ee4ebd2c7)" style="fill: #1f77b4; stroke: #000000"/>
    <path d="M 176.730002 124.45367 
L 165.259215 123.042355 
L 154.83482 110.307202 
z
" clip-path="url(#p5ee4ebd2c7)" style="fill: #1f77b4; stroke: #000000"/>
    <path d="M 176.730002 124.45367 
L 186.43487 130.776801 
L 165.259215 123.042355 
z
" clip-path="url(#p5ee4ebd2c7)" style="fill: #1f77b4; stroke: #000000"/>
    <path d="M 93.629262 92.8473 
L 90.895169 104.792995 
L 98.725291 108.777438 
z
" clip-path="url(#p5ee4ebd2c7)" style="fill: #1f77b4; stroke: #000000"/>
    <path d="M 84.820918 150.923537 
L 87.777634 144.618537 
L 83.879166 155.121616 
z
" clip-path="url(#p5ee4ebd2c7)" style="fill: #1f77b4; stroke: #000000"/>
    <path d="M 122.225881 95.177026 
L 109.167669 90.860513 
L 130.260446 94.53549 
z
" clip-path="url(#p5ee4ebd2c7)" style="fill: #1f77b4; stroke: #000000"/>
    <path d="M 186.43487 130.776801 
L 192.836276 147.031025 
L 178.608811 145.788478 
z
" clip-path="url(#p5ee4ebd2c7)" style="fill: #1f77b4; stroke: #000000"/>
    <path d="M 95.735018 130.935464 
L 92.34555 138.730031 
L 87.777634 144.618537 
z
" clip-path="url(#p5ee4ebd2c7)" style="fill: #1f77b4; stroke: #000000"/>
    <path d="M 92.34555 138.730031 
L 95.735018 130.935464 
L 95.370819 116.368608 
z
" clip-path="url(#p5ee4ebd2c7)" style="fill: #1f77b4; stroke: #000000"/>
    <path d="M 171.225838 186.946957 
L 149.328534 198.645845 
L 173.659673 173.378851 
z
" clip-path="url(#p5ee4ebd2c7)" style="fill: #1f77b4; stroke: #000000"/>
    <path d="M 103.014131 89.931971 
L 109.167669 90.860513 
L 122.225881 95.177026 
z
" clip-path="url(#p5ee4ebd2c7)" style="fill: #1f77b4; stroke: #000000"/>
    <path d="M 98.725291 108.777438 
L 90.895169 104.792995 
L 95.370819 116.368608 
z
" clip-path="url(#p5ee4ebd2c7)" style="fill: #1f77b4; stroke: #000000"/>
    <path d="M 192.836276 147.031025 
L 188.606098 154.465892 
L 181.053869 153.797123 
z
" clip-path="url(#p5ee4ebd2c7)" style="fill: #1f77b4; stroke: #000000"/>
    <path d="M 118.786244 198.703022 
L 126.87369 198.964996 
L 99.600486 192.876174 
z
" clip-path="url(#p5ee4ebd2c7)" style="fill: #1f77b4; stroke: #000000"/>
    <path d="M 146.117679 201.242612 
L 149.328534 198.645845 
L 153.962602 205.012674 
z
" clip-path="url(#p5ee4ebd2c7)" style="fill: #1f77b4; stroke: #000000"/>
    <path d="M 93.629262 92.8473 
L 103.014131 89.931971 
L 90.895169 104.792995 
z
" clip-path="url(#p5ee4ebd2c7)" style="fill: #1f77b4; stroke: #000000"/>
    <path d="M 173.659673 173.378851 
L 181.018676 164.695129 
L 188.606098 154.465892 
z
" clip-path="url(#p5ee4ebd2c7)" style="fill: #1f77b4; stroke: #000000"/>
    <path d="M 118.786244 198.703022 
L 146.117679 201.242612 
L 126.87369 198.964996 
z
" clip-path="url(#p5ee4ebd2c7)" style="fill: #1f77b4; stroke: #000000"/>
    <path d="M 147.616793 101.349107 
L 154.83482 110.307202 
L 165.259215 123.042355 
z
" clip-path="url(#p5ee4ebd2c7)" style="fill: #1f77b4; stroke: #000000"/>
    <path d="M 99.600486 192.876174 
L 80.193394 172.835187 
L 91.139083 188.954606 
z
" clip-path="url(#p5ee4ebd2c7)" style="fill: #1f77b4; stroke: #000000"/>
    <path d="M 86.235846 183.890213 
L 80.193394 172.835187 
L 83.879166 155.121616 
z
" clip-path="url(#p5ee4ebd2c7)" style="fill: #1f77b4; stroke: #000000"/>
    <path d="M 92.34555 138.730031 
L 95.370819 116.368608 
L 91.961942 124.082893 
z
" clip-path="url(#p5ee4ebd2c7)" style="fill: #1f77b4; stroke: #000000"/>
    <path d="M 178.608811 145.788478 
L 192.836276 147.031025 
L 181.053869 153.797123 
z
" clip-path="url(#p5ee4ebd2c7)" style="fill: #1f77b4; stroke: #000000"/>
    <path d="M 184.311375 162.014202 
L 188.606098 154.465892 
L 181.018676 164.695129 
z
" clip-path="url(#p5ee4ebd2c7)" style="fill: #1f77b4; stroke: #000000"/>
    <path d="M 141.656777 100.481911 
L 130.260446 94.53549 
L 147.616793 101.349107 
z
" clip-path="url(#p5ee4ebd2c7)" style="fill: #1f77b4; stroke: #000000"/>
    <path d="M 186.43487 130.776801 
L 166.293501 127.624172 
L 165.259215 123.042355 
z
" clip-path="url(#p5ee4ebd2c7)" style="fill: #1f77b4; stroke: #000000"/>
    <path d="M 122.225881 95.177026 
L 130.260446 94.53549 
L 141.656777 100.481911 
z
" clip-path="url(#p5ee4ebd2c7)" style="fill: #1f77b4; stroke: #000000"/>
    <path d="M 188.606098 154.465892 
L 184.311375 162.014202 
L 181.053869 153.797123 
z
" clip-path="url(#p5ee4ebd2c7)" style="fill: #1f77b4; stroke: #000000"/>
    <path d="M 149.328534 198.645845 
L 146.117679 201.242612 
L 142.152163 201.121695 
z
" clip-path="url(#p5ee4ebd2c7)" style="fill: #1f77b4; stroke: #000000"/>
    <path d="M 142.152163 201.121695 
L 146.117679 201.242612 
L 118.786244 198.703022 
z
" clip-path="url(#p5ee4ebd2c7)" style="fill: #1f77b4; stroke: #000000"/>
    <path d="M 91.961942 124.082893 
L 95.370819 116.368608 
L 90.895169 104.792995 
z
" clip-path="url(#p5ee4ebd2c7)" style="fill: #1f77b4; stroke: #000000"/>
    <path d="M 173.659673 173.378851 
L 149.328534 198.645845 
L 155.753984 186.199532 
z
" clip-path="url(#p5ee4ebd2c7)" style="fill: #1f77b4; stroke: #000000"/>
    <path d="M 186.43487 130.776801 
L 178.608811 145.788478 
L 166.293501 127.624172 
z
" clip-path="url(#p5ee4ebd2c7)" style="fill: #1f77b4; stroke: #000000"/>
    <path d="M 87.777634 144.618537 
L 94.414183 152.781832 
L 83.879166 155.121616 
z
" clip-path="url(#p5ee4ebd2c7)" style="fill: #1f77b4; stroke: #000000"/>
    <path d="M 80.193394 172.835187 
L 86.235846 183.890213 
L 91.139083 188.954606 
z
" clip-path="url(#p5ee4ebd2c7)" style="fill: #1f77b4; stroke: #000000"/>
    <path d="M 99.600486 192.876174 
L 110.550418 198.436243 
L 118.786244 198.703022 
z
" clip-path="url(#p5ee4ebd2c7)" style="fill: #1f77b4; stroke: #000000"/>
    <path d="M 92.34555 138.730031 
L 94.414183 152.781832 
L 87.777634 144.618537 
z
" clip-path="url(#p5ee4ebd2c7)" style="fill: #1f77b4; stroke: #000000"/>
    <path d="M 90.895169 104.792995 
L 103.014131 89.931971 
L 89.968089 108.843545 
z
" clip-path="url(#p5ee4ebd2c7)" style="fill: #1f77b4; stroke: #000000"/>
    <path d="M 184.311375 162.014202 
L 181.018676 164.695129 
L 177.20446 164.407133 
z
" clip-path="url(#p5ee4ebd2c7)" style="fill: #1f77b4; stroke: #000000"/>
    <path d="M 173.659673 173.378851 
L 158.145681 172.377504 
L 181.018676 164.695129 
z
" clip-path="url(#p5ee4ebd2c7)" style="fill: #1f77b4; stroke: #000000"/>
    <path d="M 99.600486 192.876174 
L 91.139083 188.954606 
L 110.550418 198.436243 
z
" clip-path="url(#p5ee4ebd2c7)" style="fill: #1f77b4; stroke: #000000"/>
    <path d="M 147.616793 101.349107 
L 165.259215 123.042355 
L 161.353483 118.864575 
z
" clip-path="url(#p5ee4ebd2c7)" style="fill: #1f77b4; stroke: #000000"/>
    <path d="M 86.235846 183.890213 
L 83.879166 155.121616 
L 85.819869 169.367806 
z
" clip-path="url(#p5ee4ebd2c7)" style="fill: #1f77b4; stroke: #000000"/>
    <path d="M 103.014131 89.931971 
L 122.225881 95.177026 
L 105.941948 105.884384 
z
" clip-path="url(#p5ee4ebd2c7)" style="fill: #1f77b4; stroke: #000000"/>
    <path d="M 181.053869 153.797123 
L 184.311375 162.014202 
L 177.20446 164.407133 
z
" clip-path="url(#p5ee4ebd2c7)" style="fill: #1f77b4; stroke: #000000"/>
    <path d="M 91.961942 124.082893 
L 90.895169 104.792995 
L 89.968089 108.843545 
z
" clip-path="url(#p5ee4ebd2c7)" style="fill: #1f77b4; stroke: #000000"/>
    <path d="M 178.608811 145.788478 
L 181.053869 153.797123 
L 177.20446 164.407133 
z
" clip-path="url(#p5ee4ebd2c7)" style="fill: #1f77b4; stroke: #000000"/>
    <path d="M 155.753984 186.199532 
L 158.145681 172.377504 
L 173.659673 173.378851 
z
" clip-path="url(#p5ee4ebd2c7)" style="fill: #1f77b4; stroke: #000000"/>
    <path d="M 147.616793 101.349107 
L 156.403466 110.087249 
L 141.656777 100.481911 
z
" clip-path="url(#p5ee4ebd2c7)" style="fill: #1f77b4; stroke: #000000"/>
    <path d="M 91.961942 124.082893 
L 98.191511 134.702021 
L 92.34555 138.730031 
z
" clip-path="url(#p5ee4ebd2c7)" style="fill: #1f77b4; stroke: #000000"/>
    <path d="M 156.403466 110.087249 
L 147.616793 101.349107 
L 161.353483 118.864575 
z
" clip-path="url(#p5ee4ebd2c7)" style="fill: #1f77b4; stroke: #000000"/>
    <path d="M 165.259215 123.042355 
L 166.293501 127.624172 
L 161.353483 118.864575 
z
" clip-path="url(#p5ee4ebd2c7)" style="fill: #1f77b4; stroke: #000000"/>
    <path d="M 103.014131 89.931971 
L 105.941948 105.884384 
L 89.968089 108.843545 
z
" clip-path="url(#p5ee4ebd2c7)" style="fill: #1f77b4; stroke: #000000"/>
    <path d="M 158.145681 172.377504 
L 177.20446 164.407133 
L 181.018676 164.695129 
z
" clip-path="url(#p5ee4ebd2c7)" style="fill: #1f77b4; stroke: #000000"/>
    <path d="M 88.279575 187.629309 
L 91.139083 188.954606 
L 86.235846 183.890213 
z
" clip-path="url(#p5ee4ebd2c7)" style="fill: #1f77b4; stroke: #000000"/>
    <path d="M 90.450386 163.485035 
L 85.819869 169.367806 
L 83.879166 155.121616 
z
" clip-path="url(#p5ee4ebd2c7)" style="fill: #1f77b4; stroke: #000000"/>
    <path d="M 118.786244 198.703022 
L 130.035825 200.752242 
L 142.152163 201.121695 
z
" clip-path="url(#p5ee4ebd2c7)" style="fill: #1f77b4; stroke: #000000"/>
    <path d="M 94.414183 152.781832 
L 90.450386 163.485035 
L 83.879166 155.121616 
z
" clip-path="url(#p5ee4ebd2c7)" style="fill: #1f77b4; stroke: #000000"/>
    <path d="M 133.270831 198.106317 
L 149.328534 198.645845 
L 142.152163 201.121695 
z
" clip-path="url(#p5ee4ebd2c7)" style="fill: #1f77b4; stroke: #000000"/>
    <path d="M 158.145681 172.377504 
L 178.608811 145.788478 
L 177.20446 164.407133 
z
" clip-path="url(#p5ee4ebd2c7)" style="fill: #1f77b4; stroke: #000000"/>
    <path d="M 88.279575 187.629309 
L 110.550418 198.436243 
L 91.139083 188.954606 
z
" clip-path="url(#p5ee4ebd2c7)" style="fill: #1f77b4; stroke: #000000"/>
    <path d="M 92.34555 138.730031 
L 98.191511 134.702021 
L 94.414183 152.781832 
z
" clip-path="url(#p5ee4ebd2c7)" style="fill: #1f77b4; stroke: #000000"/>
    <path d="M 122.225881 95.177026 
L 141.656777 100.481911 
L 125.630409 116.331545 
z
" clip-path="url(#p5ee4ebd2c7)" style="fill: #1f77b4; stroke: #000000"/>
    <path d="M 133.270831 198.106317 
L 155.753984 186.199532 
L 149.328534 198.645845 
z
" clip-path="url(#p5ee4ebd2c7)" style="fill: #1f77b4; stroke: #000000"/>
    <path d="M 118.786244 198.703022 
L 110.550418 198.436243 
L 130.035825 200.752242 
z
" clip-path="url(#p5ee4ebd2c7)" style="fill: #1f77b4; stroke: #000000"/>
    <path d="M 161.353483 118.864575 
L 166.293501 127.624172 
L 153.536476 132.739432 
z
" clip-path="url(#p5ee4ebd2c7)" style="fill: #1f77b4; stroke: #000000"/>
    <path d="M 86.235846 183.890213 
L 86.479241 174.208082 
L 88.279575 187.629309 
z
" clip-path="url(#p5ee4ebd2c7)" style="fill: #1f77b4; stroke: #000000"/>
    <path d="M 156.403466 110.087249 
L 161.353483 118.864575 
L 153.536476 132.739432 
z
" clip-path="url(#p5ee4ebd2c7)" style="fill: #1f77b4; stroke: #000000"/>
    <path d="M 85.819869 169.367806 
L 86.479241 174.208082 
L 86.235846 183.890213 
z
" clip-path="url(#p5ee4ebd2c7)" style="fill: #1f77b4; stroke: #000000"/>
    <path d="M 166.293501 127.624172 
L 178.608811 145.788478 
L 155.60036 156.96801 
z
" clip-path="url(#p5ee4ebd2c7)" style="fill: #1f77b4; stroke: #000000"/>
    <path d="M 89.968089 108.843545 
L 95.745077 121.424472 
L 91.961942 124.082893 
z
" clip-path="url(#p5ee4ebd2c7)" style="fill: #1f77b4; stroke: #000000"/>
    <path d="M 141.656777 100.481911 
L 156.403466 110.087249 
L 125.630409 116.331545 
z
" clip-path="url(#p5ee4ebd2c7)" style="fill: #1f77b4; stroke: #000000"/>
    <path d="M 122.225881 95.177026 
L 125.630409 116.331545 
L 105.941948 105.884384 
z
" clip-path="url(#p5ee4ebd2c7)" style="fill: #1f77b4; stroke: #000000"/>
    <path d="M 155.60036 156.96801 
L 178.608811 145.788478 
L 158.145681 172.377504 
z
" clip-path="url(#p5ee4ebd2c7)" style="fill: #1f77b4; stroke: #000000"/>
    <path d="M 153.536476 132.739432 
L 166.293501 127.624172 
L 145.620311 143.028596 
z
" clip-path="url(#p5ee4ebd2c7)" style="fill: #1f77b4; stroke: #000000"/>
    <path d="M 102.162092 198.164523 
L 110.550418 198.436243 
L 88.279575 187.629309 
z
" clip-path="url(#p5ee4ebd2c7)" style="fill: #1f77b4; stroke: #000000"/>
    <path d="M 85.819869 169.367806 
L 90.450386 163.485035 
L 86.479241 174.208082 
z
" clip-path="url(#p5ee4ebd2c7)" style="fill: #1f77b4; stroke: #000000"/>
    <path d="M 130.035825 200.752242 
L 133.270831 198.106317 
L 142.152163 201.121695 
z
" clip-path="url(#p5ee4ebd2c7)" style="fill: #1f77b4; stroke: #000000"/>
    <path d="M 91.961942 124.082893 
L 95.745077 121.424472 
L 98.191511 134.702021 
z
" clip-path="url(#p5ee4ebd2c7)" style="fill: #1f77b4; stroke: #000000"/>
    <path d="M 155.753984 186.199532 
L 133.270831 198.106317 
L 158.145681 172.377504 
z
" clip-path="url(#p5ee4ebd2c7)" style="fill: #1f77b4; stroke: #000000"/>
    <path d="M 140.643139 137.909351 
L 156.403466 110.087249 
L 153.536476 132.739432 
z
" clip-path="url(#p5ee4ebd2c7)" style="fill: #1f77b4; stroke: #000000"/>
    <path d="M 166.293501 127.624172 
L 155.60036 156.96801 
L 145.620311 143.028596 
z
" clip-path="url(#p5ee4ebd2c7)" style="fill: #1f77b4; stroke: #000000"/>
    <path d="M 89.968089 108.843545 
L 105.941948 105.884384 
L 95.745077 121.424472 
z
" clip-path="url(#p5ee4ebd2c7)" style="fill: #1f77b4; stroke: #000000"/>
    <path d="M 102.162092 198.164523 
L 130.035825 200.752242 
L 110.550418 198.436243 
z
" clip-path="url(#p5ee4ebd2c7)" style="fill: #1f77b4; stroke: #000000"/>
    <path d="M 94.414183 152.781832 
L 99.996731 158.989292 
L 90.450386 163.485035 
z
" clip-path="url(#p5ee4ebd2c7)" style="fill: #1f77b4; stroke: #000000"/>
    <path d="M 130.594739 120.205699 
L 156.403466 110.087249 
L 140.643139 137.909351 
z
" clip-path="url(#p5ee4ebd2c7)" style="fill: #1f77b4; stroke: #000000"/>
    <path d="M 98.191511 134.702021 
L 117.748007 140.307628 
L 94.414183 152.781832 
z
" clip-path="url(#p5ee4ebd2c7)" style="fill: #1f77b4; stroke: #000000"/>
    <path d="M 153.536476 132.739432 
L 145.620311 143.028596 
L 140.643139 137.909351 
z
" clip-path="url(#p5ee4ebd2c7)" style="fill: #1f77b4; stroke: #000000"/>
    <path d="M 125.630409 116.331545 
L 156.403466 110.087249 
L 130.594739 120.205699 
z
" clip-path="url(#p5ee4ebd2c7)" style="fill: #1f77b4; stroke: #000000"/>
    <path d="M 98.474504 186.296974 
L 88.279575 187.629309 
L 86.479241 174.208082 
z
" clip-path="url(#p5ee4ebd2c7)" style="fill: #1f77b4; stroke: #000000"/>
    <path d="M 94.414183 152.781832 
L 117.748007 140.307628 
L 99.996731 158.989292 
z
" clip-path="url(#p5ee4ebd2c7)" style="fill: #1f77b4; stroke: #000000"/>
    <path d="M 105.649891 165.27527 
L 86.479241 174.208082 
L 90.450386 163.485035 
z
" clip-path="url(#p5ee4ebd2c7)" style="fill: #1f77b4; stroke: #000000"/>
    <path d="M 98.474504 186.296974 
L 102.162092 198.164523 
L 88.279575 187.629309 
z
" clip-path="url(#p5ee4ebd2c7)" style="fill: #1f77b4; stroke: #000000"/>
    <path d="M 158.145681 172.377504 
L 137.218545 184.68327 
L 155.60036 156.96801 
z
" clip-path="url(#p5ee4ebd2c7)" style="fill: #1f77b4; stroke: #000000"/>
    <path d="M 133.270831 198.106317 
L 130.035825 200.752242 
L 127.279446 199.452929 
z
" clip-path="url(#p5ee4ebd2c7)" style="fill: #1f77b4; stroke: #000000"/>
    <path d="M 121.588928 122.076115 
L 105.941948 105.884384 
L 125.630409 116.331545 
z
" clip-path="url(#p5ee4ebd2c7)" style="fill: #1f77b4; stroke: #000000"/>
    <path d="M 127.279446 199.452929 
L 130.035825 200.752242 
L 102.162092 198.164523 
z
" clip-path="url(#p5ee4ebd2c7)" style="fill: #1f77b4; stroke: #000000"/>
    <path d="M 121.588928 122.076115 
L 117.748007 140.307628 
L 98.191511 134.702021 
z
" clip-path="url(#p5ee4ebd2c7)" style="fill: #1f77b4; stroke: #000000"/>
    <path d="M 158.145681 172.377504 
L 133.270831 198.106317 
L 137.218545 184.68327 
z
" clip-path="url(#p5ee4ebd2c7)" style="fill: #1f77b4; stroke: #000000"/>
    <path d="M 121.588928 122.076115 
L 98.191511 134.702021 
L 95.745077 121.424472 
z
" clip-path="url(#p5ee4ebd2c7)" style="fill: #1f77b4; stroke: #000000"/>
    <path d="M 117.748007 140.307628 
L 130.594739 120.205699 
L 140.643139 137.909351 
z
" clip-path="url(#p5ee4ebd2c7)" style="fill: #1f77b4; stroke: #000000"/>
    <path d="M 95.745077 121.424472 
L 105.941948 105.884384 
L 121.588928 122.076115 
z
" clip-path="url(#p5ee4ebd2c7)" style="fill: #1f77b4; stroke: #000000"/>
    <path d="M 99.996731 158.989292 
L 105.649891 165.27527 
L 90.450386 163.485035 
z
" clip-path="url(#p5ee4ebd2c7)" style="fill: #1f77b4; stroke: #000000"/>
    <path d="M 145.620311 143.028596 
L 109.722248 158.161004 
L 140.643139 137.909351 
z
" clip-path="url(#p5ee4ebd2c7)" style="fill: #1f77b4; stroke: #000000"/>
    <path d="M 125.630409 116.331545 
L 130.594739 120.205699 
L 121.588928 122.076115 
z
" clip-path="url(#p5ee4ebd2c7)" style="fill: #1f77b4; stroke: #000000"/>
    <path d="M 109.722248 158.161004 
L 117.748007 140.307628 
L 140.643139 137.909351 
z
" clip-path="url(#p5ee4ebd2c7)" style="fill: #1f77b4; stroke: #000000"/>
    <path d="M 121.588928 122.076115 
L 130.594739 120.205699 
L 117.748007 140.307628 
z
" clip-path="url(#p5ee4ebd2c7)" style="fill: #1f77b4; stroke: #000000"/>
    <path d="M 117.748007 140.307628 
L 109.722248 158.161004 
L 99.996731 158.989292 
z
" clip-path="url(#p5ee4ebd2c7)" style="fill: #1f77b4; stroke: #000000"/>
    <path d="M 145.620311 143.028596 
L 155.60036 156.96801 
L 129.538567 165.19504 
z
" clip-path="url(#p5ee4ebd2c7)" style="fill: #1f77b4; stroke: #000000"/>
    <path d="M 127.279446 199.452929 
L 137.218545 184.68327 
L 133.270831 198.106317 
z
" clip-path="url(#p5ee4ebd2c7)" style="fill: #1f77b4; stroke: #000000"/>
    <path d="M 105.649891 165.27527 
L 98.474504 186.296974 
L 86.479241 174.208082 
z
" clip-path="url(#p5ee4ebd2c7)" style="fill: #1f77b4; stroke: #000000"/>
    <path d="M 99.996731 158.989292 
L 109.722248 158.161004 
L 105.649891 165.27527 
z
" clip-path="url(#p5ee4ebd2c7)" style="fill: #1f77b4; stroke: #000000"/>
    <path d="M 121.5846 189.452665 
L 127.279446 199.452929 
L 102.162092 198.164523 
z
" clip-path="url(#p5ee4ebd2c7)" style="fill: #1f77b4; stroke: #000000"/>
    <path d="M 129.538567 165.19504 
L 109.722248 158.161004 
L 145.620311 143.028596 
z
" clip-path="url(#p5ee4ebd2c7)" style="fill: #1f77b4; stroke: #000000"/>
    <path d="M 155.60036 156.96801 
L 137.218545 184.68327 
L 132.891469 168.649143 
z
" clip-path="url(#p5ee4ebd2c7)" style="fill: #1f77b4; stroke: #000000"/>
    <path d="M 129.538567 165.19504 
L 155.60036 156.96801 
L 132.891469 168.649143 
z
" clip-path="url(#p5ee4ebd2c7)" style="fill: #1f77b4; stroke: #000000"/>
    <path d="M 121.5846 189.452665 
L 137.218545 184.68327 
L 127.279446 199.452929 
z
" clip-path="url(#p5ee4ebd2c7)" style="fill: #1f77b4; stroke: #000000"/>
    <path d="M 121.5846 189.452665 
L 102.162092 198.164523 
L 98.474504 186.296974 
z
" clip-path="url(#p5ee4ebd2c7)" style="fill: #1f77b4; stroke: #000000"/>
    <path d="M 105.649891 165.27527 
L 109.722248 158.161004 
L 126.839833 169.970403 
z
" clip-path="url(#p5ee4ebd2c7)" style="fill: #1f77b4; stroke: #000000"/>
    <path d="M 126.839833 169.970403 
L 109.722248 158.161004 
L 129.538567 165.19504 
z
" clip-path="url(#p5ee4ebd2c7)" style="fill: #1f77b4; stroke: #000000"/>
    <path d="M 126.839833 169.970403 
L 98.474504 186.296974 
L 105.649891 165.27527 
z
" clip-path="url(#p5ee4ebd2c7)" style="fill: #1f77b4; stroke: #000000"/>
    <path d="M 121.5846 189.452665 
L 132.891469 168.649143 
L 137.218545 184.68327 
z
" clip-path="url(#p5ee4ebd2c7)" style="fill: #1f77b4; stroke: #000000"/>
    <path d="M 126.839833 169.970403 
L 121.5846 189.452665 
L 98.474504 186.296974 
z
" clip-path="url(#p5ee4ebd2c7)" style="fill: #1f77b4; stroke: #000000"/>
    <path d="M 129.538567 165.19504 
L 132.891469 168.649143 
L 126.839833 169.970403 
z
" clip-path="url(#p5ee4ebd2c7)" style="fill: #1f77b4; stroke: #000000"/>
    <path d="M 126.839833 169.970403 
L 132.891469 168.649143 
L 121.5846 189.452665 
z
" clip-path="url(#p5ee4ebd2c7)" style="fill: #1f77b4; stroke: #000000"/>
   </g>
  </g>
 </g>
 <defs>
  <clipPath id="p5ee4ebd2c7">
   <rect x="7.2" y="7.2" width="319.68" height="319.68"/>
  </clipPath>
 </defs>
</svg>
