<?xml version="1.0" encoding="utf-8" standalone="no"?>
<!DOCTYPE svg PUBLIC "-//W3C//DTD SVG 1.1//EN"
  "http://www.w3.org/Graphics/SVG/1.1/DTD/svg11.dtd">
<svg xmlns:xlink="http://www.w3.org/1999/xlink" width="348.48pt" height="276.48pt" viewBox="0 0 348.48 276.48" xmlns="http://www.w3.org/2000/svg" version="1.1">
 <metadata>
  <rdf:RDF xmlns:dc="http://purl.org/dc/elements/1.1/" xmlns:cc="http://creativecommons.org/ns#" xmlns:rdf="http://www.w3.org/1999/02/22-rdf-syntax-ns#">
   <cc:Work>
    <dc:type rdf:resource="http://purl.org/dc/dcmitype/StillImage"/>
    <dc:date>2022-08-23T00:48:15.714252</dc:date>
    <dc:format>image/svg+xml</dc:format>
    <dc:creator>
     <cc:Agent>
      <dc:title>Matplotlib v3.5.3, https://matplotlib.org/</dc:title>
     </cc:Agent>
    </dc:creator>
   </cc:Work>
  </rdf:RDF>
 </metadata>
 <defs>
  <style type="text/css">*{stroke-linejoin: round; stroke-linecap: butt}</style>
 </defs>
 <g id="figure_1">
  <g id="patch_1">
   <path d="M 0 276.48 
L 348.48 276.48 
L 348.48 0 
L 0 0 
z
" style="fill: #ffffff"/>
  </g>
  <g id="axes_1">
   <g id="patch_2">
    <path d="M 49.3975 234.5525 
L 341.28 234.5525 
L 341.28 11.759062 
L 49.3975 11.759062 
z
" style="fill: #ffffff"/>
   </g>
   <g id="matplotlib.axis_1">
    <g id="xtick_1">
     <g id="line2d_1">
      <defs>
       <path id="mc9dfea8b79" d="M 0 0 
L 0 -6 
" style="stroke: #000000; stroke-width: 2"/>
      </defs>
      <g>
       <use xlink:href="#mc9dfea8b79" x="62.664886" y="234.5525" style="fill: #ffffff; stroke: #000000; stroke-width: 2"/>
      </g>
     </g>
     <g id="line2d_2">
      <defs>
       <path id="m2a7baaa7a2" d="M 0 0 
L 0 6 
" style="stroke: #000000; stroke-width: 2"/>
      </defs>
      <g>
       <use xlink:href="#m2a7baaa7a2" x="62.664886" y="11.759062" style="fill: #ffffff; stroke: #000000; stroke-width: 2"/>
      </g>
     </g>
     <g id="text_1">
      <!-- 0.0 -->
      <g transform="translate(53.123011 247.170625)scale(0.12 -0.12)">
       <defs>
        <path id="DejaVuSans-30" d="M 2034 4250 
Q 1547 4250 1301 3770 
Q 1056 3291 1056 2328 
Q 1056 1369 1301 889 
Q 1547 409 2034 409 
Q 2525 409 2770 889 
Q 3016 1369 3016 2328 
Q 3016 3291 2770 3770 
Q 2525 4250 2034 4250 
z
M 2034 4750 
Q 2819 4750 3233 4129 
Q 3647 3509 3647 2328 
Q 3647 1150 3233 529 
Q 2819 -91 2034 -91 
Q 1250 -91 836 529 
Q 422 1150 422 2328 
Q 422 3509 836 4129 
Q 1250 4750 2034 4750 
z
" transform="scale(0.015625)"/>
        <path id="DejaVuSans-2e" d="M 684 794 
L 1344 794 
L 1344 0 
L 684 0 
L 684 794 
z
" transform="scale(0.015625)"/>
       </defs>
       <use xlink:href="#DejaVuSans-30"/>
       <use xlink:href="#DejaVuSans-2e" x="63.623047"/>
       <use xlink:href="#DejaVuSans-30" x="95.410156"/>
      </g>
     </g>
    </g>
    <g id="xtick_2">
     <g id="line2d_3">
      <g>
       <use xlink:href="#mc9dfea8b79" x="115.734432" y="234.5525" style="fill: #ffffff; stroke: #000000; stroke-width: 2"/>
      </g>
     </g>
     <g id="line2d_4">
      <g>
       <use xlink:href="#m2a7baaa7a2" x="115.734432" y="11.759062" style="fill: #ffffff; stroke: #000000; stroke-width: 2"/>
      </g>
     </g>
     <g id="text_2">
      <!-- 0.2 -->
      <g transform="translate(106.192557 247.170625)scale(0.12 -0.12)">
       <defs>
        <path id="DejaVuSans-32" d="M 1228 531 
L 3431 531 
L 3431 0 
L 469 0 
L 469 531 
Q 828 903 1448 1529 
Q 2069 2156 2228 2338 
Q 2531 2678 2651 2914 
Q 2772 3150 2772 3378 
Q 2772 3750 2511 3984 
Q 2250 4219 1831 4219 
Q 1534 4219 1204 4116 
Q 875 4013 500 3803 
L 500 4441 
Q 881 4594 1212 4672 
Q 1544 4750 1819 4750 
Q 2544 4750 2975 4387 
Q 3406 4025 3406 3419 
Q 3406 3131 3298 2873 
Q 3191 2616 2906 2266 
Q 2828 2175 2409 1742 
Q 1991 1309 1228 531 
z
" transform="scale(0.015625)"/>
       </defs>
       <use xlink:href="#DejaVuSans-30"/>
       <use xlink:href="#DejaVuSans-2e" x="63.623047"/>
       <use xlink:href="#DejaVuSans-32" x="95.410156"/>
      </g>
     </g>
    </g>
    <g id="xtick_3">
     <g id="line2d_5">
      <g>
       <use xlink:href="#mc9dfea8b79" x="168.803977" y="234.5525" style="fill: #ffffff; stroke: #000000; stroke-width: 2"/>
      </g>
     </g>
     <g id="line2d_6">
      <g>
       <use xlink:href="#m2a7baaa7a2" x="168.803977" y="11.759062" style="fill: #ffffff; stroke: #000000; stroke-width: 2"/>
      </g>
     </g>
     <g id="text_3">
      <!-- 0.4 -->
      <g transform="translate(159.262102 247.170625)scale(0.12 -0.12)">
       <defs>
        <path id="DejaVuSans-34" d="M 2419 4116 
L 825 1625 
L 2419 1625 
L 2419 4116 
z
M 2253 4666 
L 3047 4666 
L 3047 1625 
L 3713 1625 
L 3713 1100 
L 3047 1100 
L 3047 0 
L 2419 0 
L 2419 1100 
L 313 1100 
L 313 1709 
L 2253 4666 
z
" transform="scale(0.015625)"/>
       </defs>
       <use xlink:href="#DejaVuSans-30"/>
       <use xlink:href="#DejaVuSans-2e" x="63.623047"/>
       <use xlink:href="#DejaVuSans-34" x="95.410156"/>
      </g>
     </g>
    </g>
    <g id="xtick_4">
     <g id="line2d_7">
      <g>
       <use xlink:href="#mc9dfea8b79" x="221.873523" y="234.5525" style="fill: #ffffff; stroke: #000000; stroke-width: 2"/>
      </g>
     </g>
     <g id="line2d_8">
      <g>
       <use xlink:href="#m2a7baaa7a2" x="221.873523" y="11.759062" style="fill: #ffffff; stroke: #000000; stroke-width: 2"/>
      </g>
     </g>
     <g id="text_4">
      <!-- 0.6 -->
      <g transform="translate(212.331648 247.170625)scale(0.12 -0.12)">
       <defs>
        <path id="DejaVuSans-36" d="M 2113 2584 
Q 1688 2584 1439 2293 
Q 1191 2003 1191 1497 
Q 1191 994 1439 701 
Q 1688 409 2113 409 
Q 2538 409 2786 701 
Q 3034 994 3034 1497 
Q 3034 2003 2786 2293 
Q 2538 2584 2113 2584 
z
M 3366 4563 
L 3366 3988 
Q 3128 4100 2886 4159 
Q 2644 4219 2406 4219 
Q 1781 4219 1451 3797 
Q 1122 3375 1075 2522 
Q 1259 2794 1537 2939 
Q 1816 3084 2150 3084 
Q 2853 3084 3261 2657 
Q 3669 2231 3669 1497 
Q 3669 778 3244 343 
Q 2819 -91 2113 -91 
Q 1303 -91 875 529 
Q 447 1150 447 2328 
Q 447 3434 972 4092 
Q 1497 4750 2381 4750 
Q 2619 4750 2861 4703 
Q 3103 4656 3366 4563 
z
" transform="scale(0.015625)"/>
       </defs>
       <use xlink:href="#DejaVuSans-30"/>
       <use xlink:href="#DejaVuSans-2e" x="63.623047"/>
       <use xlink:href="#DejaVuSans-36" x="95.410156"/>
      </g>
     </g>
    </g>
    <g id="xtick_5">
     <g id="line2d_9">
      <g>
       <use xlink:href="#mc9dfea8b79" x="274.943068" y="234.5525" style="fill: #ffffff; stroke: #000000; stroke-width: 2"/>
      </g>
     </g>
     <g id="line2d_10">
      <g>
       <use xlink:href="#m2a7baaa7a2" x="274.943068" y="11.759062" style="fill: #ffffff; stroke: #000000; stroke-width: 2"/>
      </g>
     </g>
     <g id="text_5">
      <!-- 0.8 -->
      <g transform="translate(265.401193 247.170625)scale(0.12 -0.12)">
       <defs>
        <path id="DejaVuSans-38" d="M 2034 2216 
Q 1584 2216 1326 1975 
Q 1069 1734 1069 1313 
Q 1069 891 1326 650 
Q 1584 409 2034 409 
Q 2484 409 2743 651 
Q 3003 894 3003 1313 
Q 3003 1734 2745 1975 
Q 2488 2216 2034 2216 
z
M 1403 2484 
Q 997 2584 770 2862 
Q 544 3141 544 3541 
Q 544 4100 942 4425 
Q 1341 4750 2034 4750 
Q 2731 4750 3128 4425 
Q 3525 4100 3525 3541 
Q 3525 3141 3298 2862 
Q 3072 2584 2669 2484 
Q 3125 2378 3379 2068 
Q 3634 1759 3634 1313 
Q 3634 634 3220 271 
Q 2806 -91 2034 -91 
Q 1263 -91 848 271 
Q 434 634 434 1313 
Q 434 1759 690 2068 
Q 947 2378 1403 2484 
z
M 1172 3481 
Q 1172 3119 1398 2916 
Q 1625 2713 2034 2713 
Q 2441 2713 2670 2916 
Q 2900 3119 2900 3481 
Q 2900 3844 2670 4047 
Q 2441 4250 2034 4250 
Q 1625 4250 1398 4047 
Q 1172 3844 1172 3481 
z
" transform="scale(0.015625)"/>
       </defs>
       <use xlink:href="#DejaVuSans-30"/>
       <use xlink:href="#DejaVuSans-2e" x="63.623047"/>
       <use xlink:href="#DejaVuSans-38" x="95.410156"/>
      </g>
     </g>
    </g>
    <g id="xtick_6">
     <g id="line2d_11">
      <g>
       <use xlink:href="#mc9dfea8b79" x="328.012614" y="234.5525" style="fill: #ffffff; stroke: #000000; stroke-width: 2"/>
      </g>
     </g>
     <g id="line2d_12">
      <g>
       <use xlink:href="#m2a7baaa7a2" x="328.012614" y="11.759062" style="fill: #ffffff; stroke: #000000; stroke-width: 2"/>
      </g>
     </g>
     <g id="text_6">
      <!-- 1.0 -->
      <g transform="translate(318.470739 247.170625)scale(0.12 -0.12)">
       <defs>
        <path id="DejaVuSans-31" d="M 794 531 
L 1825 531 
L 1825 4091 
L 703 3866 
L 703 4441 
L 1819 4666 
L 2450 4666 
L 2450 531 
L 3481 531 
L 3481 0 
L 794 0 
L 794 531 
z
" transform="scale(0.015625)"/>
       </defs>
       <use xlink:href="#DejaVuSans-31"/>
       <use xlink:href="#DejaVuSans-2e" x="63.623047"/>
       <use xlink:href="#DejaVuSans-30" x="95.410156"/>
      </g>
     </g>
    </g>
    <g id="text_7">
     <!-- Fractional distance along given axis -->
     <g transform="translate(87.823438 266.784375)scale(0.12 -0.12)">
      <defs>
       <path id="DejaVuSans-46" d="M 628 4666 
L 3309 4666 
L 3309 4134 
L 1259 4134 
L 1259 2759 
L 3109 2759 
L 3109 2228 
L 1259 2228 
L 1259 0 
L 628 0 
L 628 4666 
z
" transform="scale(0.015625)"/>
       <path id="DejaVuSans-72" d="M 2631 2963 
Q 2534 3019 2420 3045 
Q 2306 3072 2169 3072 
Q 1681 3072 1420 2755 
Q 1159 2438 1159 1844 
L 1159 0 
L 581 0 
L 581 3500 
L 1159 3500 
L 1159 2956 
Q 1341 3275 1631 3429 
Q 1922 3584 2338 3584 
Q 2397 3584 2469 3576 
Q 2541 3569 2628 3553 
L 2631 2963 
z
" transform="scale(0.015625)"/>
       <path id="DejaVuSans-61" d="M 2194 1759 
Q 1497 1759 1228 1600 
Q 959 1441 959 1056 
Q 959 750 1161 570 
Q 1363 391 1709 391 
Q 2188 391 2477 730 
Q 2766 1069 2766 1631 
L 2766 1759 
L 2194 1759 
z
M 3341 1997 
L 3341 0 
L 2766 0 
L 2766 531 
Q 2569 213 2275 61 
Q 1981 -91 1556 -91 
Q 1019 -91 701 211 
Q 384 513 384 1019 
Q 384 1609 779 1909 
Q 1175 2209 1959 2209 
L 2766 2209 
L 2766 2266 
Q 2766 2663 2505 2880 
Q 2244 3097 1772 3097 
Q 1472 3097 1187 3025 
Q 903 2953 641 2809 
L 641 3341 
Q 956 3463 1253 3523 
Q 1550 3584 1831 3584 
Q 2591 3584 2966 3190 
Q 3341 2797 3341 1997 
z
" transform="scale(0.015625)"/>
       <path id="DejaVuSans-63" d="M 3122 3366 
L 3122 2828 
Q 2878 2963 2633 3030 
Q 2388 3097 2138 3097 
Q 1578 3097 1268 2742 
Q 959 2388 959 1747 
Q 959 1106 1268 751 
Q 1578 397 2138 397 
Q 2388 397 2633 464 
Q 2878 531 3122 666 
L 3122 134 
Q 2881 22 2623 -34 
Q 2366 -91 2075 -91 
Q 1284 -91 818 406 
Q 353 903 353 1747 
Q 353 2603 823 3093 
Q 1294 3584 2113 3584 
Q 2378 3584 2631 3529 
Q 2884 3475 3122 3366 
z
" transform="scale(0.015625)"/>
       <path id="DejaVuSans-74" d="M 1172 4494 
L 1172 3500 
L 2356 3500 
L 2356 3053 
L 1172 3053 
L 1172 1153 
Q 1172 725 1289 603 
Q 1406 481 1766 481 
L 2356 481 
L 2356 0 
L 1766 0 
Q 1100 0 847 248 
Q 594 497 594 1153 
L 594 3053 
L 172 3053 
L 172 3500 
L 594 3500 
L 594 4494 
L 1172 4494 
z
" transform="scale(0.015625)"/>
       <path id="DejaVuSans-69" d="M 603 3500 
L 1178 3500 
L 1178 0 
L 603 0 
L 603 3500 
z
M 603 4863 
L 1178 4863 
L 1178 4134 
L 603 4134 
L 603 4863 
z
" transform="scale(0.015625)"/>
       <path id="DejaVuSans-6f" d="M 1959 3097 
Q 1497 3097 1228 2736 
Q 959 2375 959 1747 
Q 959 1119 1226 758 
Q 1494 397 1959 397 
Q 2419 397 2687 759 
Q 2956 1122 2956 1747 
Q 2956 2369 2687 2733 
Q 2419 3097 1959 3097 
z
M 1959 3584 
Q 2709 3584 3137 3096 
Q 3566 2609 3566 1747 
Q 3566 888 3137 398 
Q 2709 -91 1959 -91 
Q 1206 -91 779 398 
Q 353 888 353 1747 
Q 353 2609 779 3096 
Q 1206 3584 1959 3584 
z
" transform="scale(0.015625)"/>
       <path id="DejaVuSans-6e" d="M 3513 2113 
L 3513 0 
L 2938 0 
L 2938 2094 
Q 2938 2591 2744 2837 
Q 2550 3084 2163 3084 
Q 1697 3084 1428 2787 
Q 1159 2491 1159 1978 
L 1159 0 
L 581 0 
L 581 3500 
L 1159 3500 
L 1159 2956 
Q 1366 3272 1645 3428 
Q 1925 3584 2291 3584 
Q 2894 3584 3203 3211 
Q 3513 2838 3513 2113 
z
" transform="scale(0.015625)"/>
       <path id="DejaVuSans-6c" d="M 603 4863 
L 1178 4863 
L 1178 0 
L 603 0 
L 603 4863 
z
" transform="scale(0.015625)"/>
       <path id="DejaVuSans-20" transform="scale(0.015625)"/>
       <path id="DejaVuSans-64" d="M 2906 2969 
L 2906 4863 
L 3481 4863 
L 3481 0 
L 2906 0 
L 2906 525 
Q 2725 213 2448 61 
Q 2172 -91 1784 -91 
Q 1150 -91 751 415 
Q 353 922 353 1747 
Q 353 2572 751 3078 
Q 1150 3584 1784 3584 
Q 2172 3584 2448 3432 
Q 2725 3281 2906 2969 
z
M 947 1747 
Q 947 1113 1208 752 
Q 1469 391 1925 391 
Q 2381 391 2643 752 
Q 2906 1113 2906 1747 
Q 2906 2381 2643 2742 
Q 2381 3103 1925 3103 
Q 1469 3103 1208 2742 
Q 947 2381 947 1747 
z
" transform="scale(0.015625)"/>
       <path id="DejaVuSans-73" d="M 2834 3397 
L 2834 2853 
Q 2591 2978 2328 3040 
Q 2066 3103 1784 3103 
Q 1356 3103 1142 2972 
Q 928 2841 928 2578 
Q 928 2378 1081 2264 
Q 1234 2150 1697 2047 
L 1894 2003 
Q 2506 1872 2764 1633 
Q 3022 1394 3022 966 
Q 3022 478 2636 193 
Q 2250 -91 1575 -91 
Q 1294 -91 989 -36 
Q 684 19 347 128 
L 347 722 
Q 666 556 975 473 
Q 1284 391 1588 391 
Q 1994 391 2212 530 
Q 2431 669 2431 922 
Q 2431 1156 2273 1281 
Q 2116 1406 1581 1522 
L 1381 1569 
Q 847 1681 609 1914 
Q 372 2147 372 2553 
Q 372 3047 722 3315 
Q 1072 3584 1716 3584 
Q 2034 3584 2315 3537 
Q 2597 3491 2834 3397 
z
" transform="scale(0.015625)"/>
       <path id="DejaVuSans-65" d="M 3597 1894 
L 3597 1613 
L 953 1613 
Q 991 1019 1311 708 
Q 1631 397 2203 397 
Q 2534 397 2845 478 
Q 3156 559 3463 722 
L 3463 178 
Q 3153 47 2828 -22 
Q 2503 -91 2169 -91 
Q 1331 -91 842 396 
Q 353 884 353 1716 
Q 353 2575 817 3079 
Q 1281 3584 2069 3584 
Q 2775 3584 3186 3129 
Q 3597 2675 3597 1894 
z
M 3022 2063 
Q 3016 2534 2758 2815 
Q 2500 3097 2075 3097 
Q 1594 3097 1305 2825 
Q 1016 2553 972 2059 
L 3022 2063 
z
" transform="scale(0.015625)"/>
       <path id="DejaVuSans-67" d="M 2906 1791 
Q 2906 2416 2648 2759 
Q 2391 3103 1925 3103 
Q 1463 3103 1205 2759 
Q 947 2416 947 1791 
Q 947 1169 1205 825 
Q 1463 481 1925 481 
Q 2391 481 2648 825 
Q 2906 1169 2906 1791 
z
M 3481 434 
Q 3481 -459 3084 -895 
Q 2688 -1331 1869 -1331 
Q 1566 -1331 1297 -1286 
Q 1028 -1241 775 -1147 
L 775 -588 
Q 1028 -725 1275 -790 
Q 1522 -856 1778 -856 
Q 2344 -856 2625 -561 
Q 2906 -266 2906 331 
L 2906 616 
Q 2728 306 2450 153 
Q 2172 0 1784 0 
Q 1141 0 747 490 
Q 353 981 353 1791 
Q 353 2603 747 3093 
Q 1141 3584 1784 3584 
Q 2172 3584 2450 3431 
Q 2728 3278 2906 2969 
L 2906 3500 
L 3481 3500 
L 3481 434 
z
" transform="scale(0.015625)"/>
       <path id="DejaVuSans-76" d="M 191 3500 
L 800 3500 
L 1894 563 
L 2988 3500 
L 3597 3500 
L 2284 0 
L 1503 0 
L 191 3500 
z
" transform="scale(0.015625)"/>
       <path id="DejaVuSans-78" d="M 3513 3500 
L 2247 1797 
L 3578 0 
L 2900 0 
L 1881 1375 
L 863 0 
L 184 0 
L 1544 1831 
L 300 3500 
L 978 3500 
L 1906 2253 
L 2834 3500 
L 3513 3500 
z
" transform="scale(0.015625)"/>
      </defs>
      <use xlink:href="#DejaVuSans-46"/>
      <use xlink:href="#DejaVuSans-72" x="50.269531"/>
      <use xlink:href="#DejaVuSans-61" x="91.382812"/>
      <use xlink:href="#DejaVuSans-63" x="152.662109"/>
      <use xlink:href="#DejaVuSans-74" x="207.642578"/>
      <use xlink:href="#DejaVuSans-69" x="246.851562"/>
      <use xlink:href="#DejaVuSans-6f" x="274.634766"/>
      <use xlink:href="#DejaVuSans-6e" x="335.816406"/>
      <use xlink:href="#DejaVuSans-61" x="399.195312"/>
      <use xlink:href="#DejaVuSans-6c" x="460.474609"/>
      <use xlink:href="#DejaVuSans-20" x="488.257812"/>
      <use xlink:href="#DejaVuSans-64" x="520.044922"/>
      <use xlink:href="#DejaVuSans-69" x="583.521484"/>
      <use xlink:href="#DejaVuSans-73" x="611.304688"/>
      <use xlink:href="#DejaVuSans-74" x="663.404297"/>
      <use xlink:href="#DejaVuSans-61" x="702.613281"/>
      <use xlink:href="#DejaVuSans-6e" x="763.892578"/>
      <use xlink:href="#DejaVuSans-63" x="827.271484"/>
      <use xlink:href="#DejaVuSans-65" x="882.251953"/>
      <use xlink:href="#DejaVuSans-20" x="943.775391"/>
      <use xlink:href="#DejaVuSans-61" x="975.5625"/>
      <use xlink:href="#DejaVuSans-6c" x="1036.841797"/>
      <use xlink:href="#DejaVuSans-6f" x="1064.625"/>
      <use xlink:href="#DejaVuSans-6e" x="1125.806641"/>
      <use xlink:href="#DejaVuSans-67" x="1189.185547"/>
      <use xlink:href="#DejaVuSans-20" x="1252.662109"/>
      <use xlink:href="#DejaVuSans-67" x="1284.449219"/>
      <use xlink:href="#DejaVuSans-69" x="1347.925781"/>
      <use xlink:href="#DejaVuSans-76" x="1375.708984"/>
      <use xlink:href="#DejaVuSans-65" x="1434.888672"/>
      <use xlink:href="#DejaVuSans-6e" x="1496.412109"/>
      <use xlink:href="#DejaVuSans-20" x="1559.791016"/>
      <use xlink:href="#DejaVuSans-61" x="1591.578125"/>
      <use xlink:href="#DejaVuSans-78" x="1652.857422"/>
      <use xlink:href="#DejaVuSans-69" x="1712.037109"/>
      <use xlink:href="#DejaVuSans-73" x="1739.820312"/>
     </g>
    </g>
   </g>
   <g id="matplotlib.axis_2">
    <g id="ytick_1">
     <g id="line2d_13">
      <defs>
       <path id="m72d5242a44" d="M 0 0 
L 6 0 
" style="stroke: #000000; stroke-width: 2"/>
      </defs>
      <g>
       <use xlink:href="#m72d5242a44" x="49.3975" y="234.5525" style="fill: #ffffff; stroke: #000000; stroke-width: 2"/>
      </g>
     </g>
     <g id="line2d_14">
      <defs>
       <path id="m75640b93e0" d="M 0 0 
L -6 0 
" style="stroke: #000000; stroke-width: 2"/>
      </defs>
      <g>
       <use xlink:href="#m75640b93e0" x="341.28" y="234.5525" style="fill: #ffffff; stroke: #000000; stroke-width: 2"/>
      </g>
     </g>
     <g id="text_8">
      <!-- 0.0 -->
      <g transform="translate(26.81375 239.111562)scale(0.12 -0.12)">
       <use xlink:href="#DejaVuSans-30"/>
       <use xlink:href="#DejaVuSans-2e" x="63.623047"/>
       <use xlink:href="#DejaVuSans-30" x="95.410156"/>
      </g>
     </g>
    </g>
    <g id="ytick_2">
     <g id="line2d_15">
      <g>
       <use xlink:href="#m72d5242a44" x="49.3975" y="189.993812" style="fill: #ffffff; stroke: #000000; stroke-width: 2"/>
      </g>
     </g>
     <g id="line2d_16">
      <g>
       <use xlink:href="#m75640b93e0" x="341.28" y="189.993812" style="fill: #ffffff; stroke: #000000; stroke-width: 2"/>
      </g>
     </g>
     <g id="text_9">
      <!-- 0.2 -->
      <g transform="translate(26.81375 194.552875)scale(0.12 -0.12)">
       <use xlink:href="#DejaVuSans-30"/>
       <use xlink:href="#DejaVuSans-2e" x="63.623047"/>
       <use xlink:href="#DejaVuSans-32" x="95.410156"/>
      </g>
     </g>
    </g>
    <g id="ytick_3">
     <g id="line2d_17">
      <g>
       <use xlink:href="#m72d5242a44" x="49.3975" y="145.435125" style="fill: #ffffff; stroke: #000000; stroke-width: 2"/>
      </g>
     </g>
     <g id="line2d_18">
      <g>
       <use xlink:href="#m75640b93e0" x="341.28" y="145.435125" style="fill: #ffffff; stroke: #000000; stroke-width: 2"/>
      </g>
     </g>
     <g id="text_10">
      <!-- 0.4 -->
      <g transform="translate(26.81375 149.994187)scale(0.12 -0.12)">
       <use xlink:href="#DejaVuSans-30"/>
       <use xlink:href="#DejaVuSans-2e" x="63.623047"/>
       <use xlink:href="#DejaVuSans-34" x="95.410156"/>
      </g>
     </g>
    </g>
    <g id="ytick_4">
     <g id="line2d_19">
      <g>
       <use xlink:href="#m72d5242a44" x="49.3975" y="100.876437" style="fill: #ffffff; stroke: #000000; stroke-width: 2"/>
      </g>
     </g>
     <g id="line2d_20">
      <g>
       <use xlink:href="#m75640b93e0" x="341.28" y="100.876437" style="fill: #ffffff; stroke: #000000; stroke-width: 2"/>
      </g>
     </g>
     <g id="text_11">
      <!-- 0.6 -->
      <g transform="translate(26.81375 105.4355)scale(0.12 -0.12)">
       <use xlink:href="#DejaVuSans-30"/>
       <use xlink:href="#DejaVuSans-2e" x="63.623047"/>
       <use xlink:href="#DejaVuSans-36" x="95.410156"/>
      </g>
     </g>
    </g>
    <g id="ytick_5">
     <g id="line2d_21">
      <g>
       <use xlink:href="#m72d5242a44" x="49.3975" y="56.31775" style="fill: #ffffff; stroke: #000000; stroke-width: 2"/>
      </g>
     </g>
     <g id="line2d_22">
      <g>
       <use xlink:href="#m75640b93e0" x="341.28" y="56.31775" style="fill: #ffffff; stroke: #000000; stroke-width: 2"/>
      </g>
     </g>
     <g id="text_12">
      <!-- 0.8 -->
      <g transform="translate(26.81375 60.876812)scale(0.12 -0.12)">
       <use xlink:href="#DejaVuSans-30"/>
       <use xlink:href="#DejaVuSans-2e" x="63.623047"/>
       <use xlink:href="#DejaVuSans-38" x="95.410156"/>
      </g>
     </g>
    </g>
    <g id="ytick_6">
     <g id="line2d_23">
      <g>
       <use xlink:href="#m72d5242a44" x="49.3975" y="11.759062" style="fill: #ffffff; stroke: #000000; stroke-width: 2"/>
      </g>
     </g>
     <g id="line2d_24">
      <g>
       <use xlink:href="#m75640b93e0" x="341.28" y="11.759062" style="fill: #ffffff; stroke: #000000; stroke-width: 2"/>
      </g>
     </g>
     <g id="text_13">
      <!-- 1.0 -->
      <g transform="translate(26.81375 16.318125)scale(0.12 -0.12)">
       <use xlink:href="#DejaVuSans-31"/>
       <use xlink:href="#DejaVuSans-2e" x="63.623047"/>
       <use xlink:href="#DejaVuSans-30" x="95.410156"/>
      </g>
     </g>
    </g>
    <g id="text_14">
     <!-- Porosity of slice -->
     <g transform="translate(16.318125 169.973594)rotate(-90)scale(0.12 -0.12)">
      <defs>
       <path id="DejaVuSans-50" d="M 1259 4147 
L 1259 2394 
L 2053 2394 
Q 2494 2394 2734 2622 
Q 2975 2850 2975 3272 
Q 2975 3691 2734 3919 
Q 2494 4147 2053 4147 
L 1259 4147 
z
M 628 4666 
L 2053 4666 
Q 2838 4666 3239 4311 
Q 3641 3956 3641 3272 
Q 3641 2581 3239 2228 
Q 2838 1875 2053 1875 
L 1259 1875 
L 1259 0 
L 628 0 
L 628 4666 
z
" transform="scale(0.015625)"/>
       <path id="DejaVuSans-79" d="M 2059 -325 
Q 1816 -950 1584 -1140 
Q 1353 -1331 966 -1331 
L 506 -1331 
L 506 -850 
L 844 -850 
Q 1081 -850 1212 -737 
Q 1344 -625 1503 -206 
L 1606 56 
L 191 3500 
L 800 3500 
L 1894 763 
L 2988 3500 
L 3597 3500 
L 2059 -325 
z
" transform="scale(0.015625)"/>
       <path id="DejaVuSans-66" d="M 2375 4863 
L 2375 4384 
L 1825 4384 
Q 1516 4384 1395 4259 
Q 1275 4134 1275 3809 
L 1275 3500 
L 2222 3500 
L 2222 3053 
L 1275 3053 
L 1275 0 
L 697 0 
L 697 3053 
L 147 3053 
L 147 3500 
L 697 3500 
L 697 3744 
Q 697 4328 969 4595 
Q 1241 4863 1831 4863 
L 2375 4863 
z
" transform="scale(0.015625)"/>
      </defs>
      <use xlink:href="#DejaVuSans-50"/>
      <use xlink:href="#DejaVuSans-6f" x="56.677734"/>
      <use xlink:href="#DejaVuSans-72" x="117.859375"/>
      <use xlink:href="#DejaVuSans-6f" x="156.722656"/>
      <use xlink:href="#DejaVuSans-73" x="217.904297"/>
      <use xlink:href="#DejaVuSans-69" x="270.003906"/>
      <use xlink:href="#DejaVuSans-74" x="297.787109"/>
      <use xlink:href="#DejaVuSans-79" x="336.996094"/>
      <use xlink:href="#DejaVuSans-20" x="396.175781"/>
      <use xlink:href="#DejaVuSans-6f" x="427.962891"/>
      <use xlink:href="#DejaVuSans-66" x="489.144531"/>
      <use xlink:href="#DejaVuSans-20" x="524.349609"/>
      <use xlink:href="#DejaVuSans-73" x="556.136719"/>
      <use xlink:href="#DejaVuSans-6c" x="608.236328"/>
      <use xlink:href="#DejaVuSans-69" x="636.019531"/>
      <use xlink:href="#DejaVuSans-63" x="663.802734"/>
      <use xlink:href="#DejaVuSans-65" x="718.783203"/>
     </g>
    </g>
   </g>
   <g id="line2d_25">
    <path d="M 62.664886 119.81945 
L 66.665103 119.873291 
L 71.998726 118.790886 
L 73.332132 118.735188 
L 74.665537 118.952412 
L 75.998943 118.970978 
L 77.332349 119.294028 
L 79.99916 120.82759 
L 81.332566 121.122791 
L 82.665971 121.683488 
L 83.999377 121.976833 
L 86.666188 122.16992 
L 87.999594 122.585801 
L 89.333 122.535673 
L 90.666405 122.320306 
L 91.999811 121.930417 
L 97.333434 119.514965 
L 98.666839 118.993257 
L 100.000245 118.263609 
L 101.333651 117.270321 
L 106.667273 115.092515 
L 108.000679 115.142644 
L 109.334085 115.50654 
L 110.66749 116.230619 
L 112.000896 117.491258 
L 114.667707 120.461837 
L 121.334736 124.824875 
L 122.668141 125.420848 
L 125.334953 125.149783 
L 126.668358 125.749468 
L 128.001764 126.191342 
L 129.33517 126.820733 
L 130.668575 127.249611 
L 132.001981 127.192056 
L 133.335387 126.891285 
L 136.002198 124.811879 
L 140.002415 120.549098 
L 142.669226 117.97769 
L 144.002632 117.218336 
L 145.336038 116.605654 
L 146.669443 115.794315 
L 148.002849 114.604226 
L 149.336255 113.811453 
L 154.669877 113.048386 
L 157.336689 113.80774 
L 158.670094 113.93399 
L 160.0035 114.507683 
L 164.003717 117.5451 
L 165.337123 118.365722 
L 166.670528 119.873291 
L 168.003934 121.080089 
L 169.33734 122.112365 
L 170.670745 122.680489 
L 173.337557 124.137929 
L 176.004368 124.921419 
L 177.337774 124.915849 
L 180.004585 124.771034 
L 181.337991 124.860151 
L 182.671396 125.361436 
L 184.004802 125.346583 
L 185.338208 124.880574 
L 186.671613 124.535244 
L 188.005019 123.894713 
L 189.338425 123.514107 
L 190.67183 123.404567 
L 193.338642 122.663779 
L 194.672047 122.611794 
L 198.672264 121.223048 
L 200.00567 120.2409 
L 201.339075 119.022963 
L 202.672481 118.538387 
L 204.005887 118.625648 
L 205.339292 119.052669 
L 206.672698 119.80274 
L 208.006104 121.215622 
L 209.339509 122.84387 
L 210.672915 124.132359 
L 212.006321 125.734615 
L 217.339943 133.227901 
L 218.673349 134.666776 
L 220.006755 135.504108 
L 222.673566 136.714619 
L 224.006972 137.154636 
L 225.340377 137.34401 
L 226.673783 137.91399 
L 228.007189 138.1275 
L 229.340594 138.155349 
L 230.674 138.01239 
L 232.007406 137.45912 
L 236.007623 136.400851 
L 238.674434 136.471402 
L 240.00784 135.888426 
L 241.341245 134.638926 
L 244.008057 132.58737 
L 245.341462 131.889284 
L 246.674868 131.714762 
L 248.008274 131.770461 
L 249.341679 132.136213 
L 250.675085 132.737756 
L 253.341896 132.732186 
L 256.008708 132.171489 
L 258.675519 133.092369 
L 260.008925 133.190769 
L 264.009142 131.146639 
L 266.675953 129.705908 
L 272.009576 126.15421 
L 273.342981 125.662207 
L 274.676387 125.34287 
L 277.343198 125.030959 
L 278.676604 125.350297 
L 280.01001 126.404852 
L 281.343415 127.294169 
L 284.010227 129.497968 
L 285.343632 130.186771 
L 289.343849 131.504965 
L 292.010661 131.796453 
L 293.344066 131.413991 
L 294.677472 130.621218 
L 296.010878 129.678059 
L 297.344283 129.165634 
L 298.677689 128.779459 
L 301.3445 126.854152 
L 302.677906 126.14307 
L 304.011312 124.951125 
L 305.344717 123.443556 
L 308.011529 121.429132 
L 309.344934 119.761895 
L 310.67834 117.715908 
L 313.345151 113.096658 
L 314.678557 111.392288 
L 317.345368 107.695773 
L 318.678774 106.219767 
L 320.01218 104.996259 
L 321.345585 104.296317 
L 322.678991 104.012255 
L 326.679208 103.921281 
L 328.012614 103.936134 
L 328.012614 103.936134 
" clip-path="url(#p95ac5d06c4)" style="fill: none; stroke: #0000ff; stroke-opacity: 0.5; stroke-width: 2; stroke-linecap: square"/>
   </g>
   <g id="line2d_26">
    <path d="M 62.664886 121.186844 
L 63.552337 121.120006 
L 64.439788 120.855439 
L 66.214689 119.769321 
L 67.102139 119.103726 
L 67.98959 118.741686 
L 71.539392 116.703126 
L 72.426843 116.538816 
L 73.314293 116.045886 
L 75.089195 116.123863 
L 75.976645 115.817522 
L 76.864096 115.193701 
L 77.751546 114.840016 
L 78.638997 114.224549 
L 79.526448 114.02682 
L 80.413898 114.285818 
L 81.301349 114.160496 
L 82.188799 114.205055 
L 83.07625 114.70634 
L 84.851151 116.05981 
L 85.738602 116.522107 
L 87.513503 118.457625 
L 88.400954 118.644214 
L 89.288404 118.446485 
L 90.175855 117.998113 
L 93.725657 115.435989 
L 94.613108 116.173992 
L 95.500558 117.07909 
L 97.275459 118.666493 
L 98.16291 119.655139 
L 99.050361 120.454411 
L 99.937811 121.585088 
L 101.712712 122.370434 
L 102.600163 122.710194 
L 104.375064 123.952268 
L 105.262515 124.292028 
L 106.149965 124.035815 
L 107.037416 123.587444 
L 107.924867 122.977546 
L 108.812317 122.197769 
L 109.699768 121.718764 
L 110.587218 121.473691 
L 111.474669 120.744042 
L 113.24957 118.546742 
L 115.024471 116.962124 
L 115.911922 115.772964 
L 116.799373 114.842801 
L 117.686823 114.516966 
L 118.574274 114.851156 
L 119.461724 115.313452 
L 121.236625 115.753469 
L 122.124076 115.74233 
L 123.011527 115.115723 
L 123.898977 114.639502 
L 124.786428 114.310882 
L 125.673878 114.675706 
L 126.561329 116.137788 
L 128.33623 119.588301 
L 130.111131 122.387144 
L 131.886033 124.587229 
L 132.773483 126.174632 
L 133.660934 128.366363 
L 134.548384 130.017819 
L 136.323286 132.137142 
L 139.873088 137.807235 
L 140.760539 138.205478 
L 141.647989 137.807235 
L 145.197792 134.952694 
L 146.085242 134.660277 
L 147.860143 135.039026 
L 148.747594 134.90535 
L 149.635044 134.142283 
L 152.297396 130.17099 
L 154.072297 128.80081 
L 154.959748 128.288385 
L 156.734649 126.77339 
L 157.6221 125.868291 
L 158.50955 124.673562 
L 159.397001 123.665421 
L 160.284452 123.152996 
L 161.171902 123.684916 
L 162.059353 124.695841 
L 162.946803 125.954624 
L 163.834254 127.018462 
L 165.609155 127.979259 
L 166.496606 127.904066 
L 168.271507 125.968548 
L 169.158958 124.929774 
L 170.046408 124.133287 
L 170.933859 123.18363 
L 171.821309 122.467907 
L 173.59621 121.635216 
L 174.483661 121.334445 
L 175.371112 121.328875 
L 176.258562 121.011394 
L 177.146013 121.114436 
L 178.920914 120.114651 
L 179.808365 119.106511 
L 181.583266 119.039672 
L 183.358167 118.504968 
L 184.245618 117.925705 
L 185.133068 117.608225 
L 186.020519 118.095585 
L 187.79542 119.510324 
L 188.682871 120.524034 
L 189.570321 121.289886 
L 191.345222 122.086373 
L 192.232673 121.827375 
L 193.120124 122.114222 
L 194.895025 121.456981 
L 195.782475 120.80531 
L 196.669926 121.042029 
L 197.557376 120.958481 
L 198.444827 121.022534 
L 199.332278 120.958481 
L 200.219728 121.139501 
L 201.107179 121.014179 
L 201.994629 121.66028 
L 202.88208 122.064093 
L 203.769531 121.638001 
L 204.656981 120.922277 
L 205.544432 120.061737 
L 206.431882 119.950341 
L 207.319333 119.46298 
L 208.206784 119.825019 
L 209.094234 119.657924 
L 209.981685 119.980975 
L 210.869135 119.585516 
L 213.531487 117.630504 
L 215.306388 116.664137 
L 216.193839 116.58059 
L 217.08129 116.639073 
L 217.96874 116.831233 
L 218.856191 117.240615 
L 219.743641 117.354797 
L 221.518542 117.08466 
L 222.405993 117.240615 
L 223.293444 116.962124 
L 225.955795 115.644857 
L 226.843246 115.419279 
L 228.618147 115.332947 
L 229.505598 115.795243 
L 230.393048 115.784103 
L 232.16795 115.530676 
L 233.0554 115.488902 
L 233.942851 115.235475 
L 234.830301 115.193701 
L 235.717752 115.341301 
L 236.605203 115.795243 
L 237.492653 116.385646 
L 239.267554 117.081875 
L 240.155005 117.109724 
L 241.042456 117.26568 
L 241.929906 117.733546 
L 242.817357 118.335088 
L 243.704807 119.081446 
L 245.479708 119.880718 
L 246.367159 120.802526 
L 247.25461 121.100512 
L 248.14206 121.537744 
L 249.029511 122.367649 
L 249.916961 122.799312 
L 250.804412 122.640571 
L 252.579313 121.735473 
L 253.466764 121.086587 
L 254.354214 121.061523 
L 255.241665 121.68256 
L 256.129116 122.804882 
L 257.016566 123.54567 
L 257.904017 123.774033 
L 258.791467 124.37279 
L 263.22872 125.834872 
L 264.116171 125.826518 
L 267.665973 128.060022 
L 268.553424 128.154709 
L 269.440875 128.64207 
L 272.103226 129.430201 
L 273.878127 129.46362 
L 274.765578 129.193483 
L 275.653029 129.380073 
L 276.540479 130.3353 
L 277.42793 131.028744 
L 278.31538 131.076088 
L 279.202831 130.872789 
L 280.977732 130.101367 
L 281.865183 130.067948 
L 283.640084 131.140141 
L 284.527535 130.856079 
L 285.414985 129.981615 
L 286.302436 129.878573 
L 287.189886 129.46362 
L 288.077337 128.583586 
L 288.964788 127.982044 
L 291.627139 127.11315 
L 292.51459 126.965549 
L 293.402041 126.4392 
L 294.289491 126.408565 
L 295.176942 126.698197 
L 296.951843 127.923561 
L 298.726744 129.413492 
L 299.614195 130.457836 
L 304.051448 139.937697 
L 304.938898 141.012675 
L 305.826349 141.675486 
L 307.60125 142.700336 
L 308.488701 142.800593 
L 309.376151 142.508176 
L 310.263602 141.480541 
L 311.151052 141.469402 
L 312.038503 141.154706 
L 312.925954 140.363789 
L 313.813404 139.177414 
L 315.588305 136.158563 
L 318.250657 131.521675 
L 320.025558 129.137785 
L 320.913009 127.575446 
L 321.800459 125.762464 
L 322.68791 124.626218 
L 324.462811 123.275533 
L 327.125163 121.908138 
L 328.012614 121.788387 
L 328.012614 121.788387 
" clip-path="url(#p95ac5d06c4)" style="fill: none; stroke: #ff0000; stroke-opacity: 0.5; stroke-width: 2; stroke-linecap: square"/>
   </g>
   <g id="line2d_27">
    <path d="M 62.664886 130.422561 
L 64.659982 129.895283 
L 65.990046 129.861864 
L 66.655078 129.345726 
L 67.985142 128.818448 
L 69.980237 126.976689 
L 71.310301 125.149783 
L 71.975333 124.046955 
L 72.640365 123.337729 
L 73.305397 122.903282 
L 73.970429 123.163208 
L 74.635461 124.236329 
L 75.300492 124.518534 
L 75.965524 124.477689 
L 77.295588 123.341442 
L 77.96062 122.814165 
L 79.955716 120.058952 
L 80.620748 119.423991 
L 81.28578 119.060095 
L 81.950811 119.234617 
L 82.615843 119.234617 
L 83.945907 119.501969 
L 84.610939 119.516822 
L 85.941003 119.067522 
L 86.606035 118.870721 
L 87.271067 118.079804 
L 87.936098 116.605654 
L 89.266162 114.726763 
L 89.931194 114.47055 
L 90.596226 114.084375 
L 91.261258 114.399999 
L 91.92629 114.1475 
L 92.591322 113.497686 
L 93.256354 113.115224 
L 93.921386 112.9964 
L 94.586417 112.658497 
L 95.251449 112.027249 
L 95.916481 110.987546 
L 96.581513 109.73619 
L 97.246545 108.819024 
L 98.576609 106.197487 
L 99.906673 105.42885 
L 101.236736 105.863297 
L 101.901768 106.535391 
L 103.231832 107.500829 
L 103.896864 108.934133 
L 104.561896 110.905855 
L 105.89196 115.96698 
L 106.556992 118.495685 
L 107.222024 120.497113 
L 107.887055 121.911851 
L 109.217119 125.502539 
L 109.882151 126.757608 
L 110.547183 127.730473 
L 111.212215 128.39514 
L 111.877247 128.528816 
L 112.542279 128.458265 
L 113.207311 128.692198 
L 115.202406 131.465976 
L 115.867438 131.811306 
L 116.53247 131.607079 
L 117.197502 131.577373 
L 117.862534 131.692483 
L 118.527566 131.558807 
L 119.192598 131.012963 
L 120.522661 129.601938 
L 123.182789 128.265177 
L 123.847821 127.585657 
L 125.842917 122.895856 
L 127.17298 120.961266 
L 128.503044 118.321164 
L 129.168076 116.813595 
L 129.833108 115.911281 
L 130.49814 115.684775 
L 131.828204 118.142929 
L 132.493236 119.947556 
L 133.158268 121.254611 
L 133.823299 122.16435 
L 134.488331 122.598798 
L 135.153363 122.654496 
L 137.148459 121.692771 
L 137.813491 122.038101 
L 138.478523 122.528246 
L 139.143555 123.1892 
L 139.808587 124.195484 
L 140.473618 125.535958 
L 141.803682 127.073233 
L 142.468714 127.60051 
L 143.133746 127.39257 
L 143.798778 126.980402 
L 144.46381 126.014964 
L 145.128842 124.592799 
L 146.458906 119.91785 
L 147.123937 118.217193 
L 147.788969 117.292601 
L 148.454001 117.006682 
L 149.119033 117.300027 
L 150.449097 119.056382 
L 151.114129 119.46855 
L 151.779161 120.337444 
L 152.444193 121.648212 
L 153.109224 122.435416 
L 153.774256 122.639643 
L 154.439288 123.196627 
L 155.10432 124.20291 
L 155.769352 124.860151 
L 157.099416 125.617649 
L 159.094512 126.464264 
L 159.759543 126.441984 
L 160.424575 126.104081 
L 161.754639 125.851582 
L 162.419671 124.737615 
L 163.084703 123.954124 
L 163.749735 123.709052 
L 164.414767 123.813022 
L 165.079799 124.525961 
L 165.744831 124.555667 
L 166.409862 123.894713 
L 167.739926 121.952697 
L 168.404958 121.343728 
L 169.06999 121.499683 
L 169.735022 122.119792 
L 171.065086 122.665636 
L 171.730118 123.07409 
L 172.39515 123.267178 
L 173.060181 122.973833 
L 175.055277 123.400854 
L 175.720309 123.330303 
L 176.385341 122.799312 
L 178.380437 120.177776 
L 179.045469 120.370863 
L 179.7105 119.891857 
L 180.375532 119.275462 
L 181.040564 119.253183 
L 181.705596 118.933846 
L 182.370628 118.967265 
L 183.700692 118.027819 
L 184.365724 118.068664 
L 185.030756 118.480832 
L 185.695787 119.312594 
L 187.025851 121.800455 
L 188.355915 123.437986 
L 189.020947 123.300597 
L 190.351011 123.360009 
L 191.016043 123.137215 
L 192.346106 122.324019 
L 193.67617 120.170349 
L 194.341202 120.144357 
L 195.671266 120.857296 
L 197.00133 122.320306 
L 198.331394 124.061808 
L 198.996425 123.813022 
L 199.661457 123.107509 
L 200.326489 122.84387 
L 200.991521 122.829018 
L 202.321585 122.479974 
L 202.986617 122.264607 
L 203.651649 121.648212 
L 204.316681 122.275747 
L 204.981713 122.446555 
L 205.646744 122.268321 
L 206.976808 121.455125 
L 207.64184 122.16435 
L 208.306872 123.133502 
L 208.971904 123.244899 
L 209.636936 122.639643 
L 210.301968 121.169206 
L 210.967 119.3423 
L 211.632031 118.796456 
L 212.297063 118.462266 
L 214.292159 119.966122 
L 214.957191 120.846156 
L 215.622223 121.989829 
L 216.952287 123.504824 
L 217.617319 124.574233 
L 218.28235 125.910993 
L 218.947382 126.590513 
L 219.612414 126.939556 
L 220.277446 126.464264 
L 220.942478 125.153496 
L 221.60751 123.248612 
L 222.272542 121.789315 
L 222.937574 120.81645 
L 223.602606 120.099798 
L 224.932669 118.050098 
L 225.597701 117.184917 
L 226.927765 114.403712 
L 228.257829 111.035818 
L 229.587893 109.012111 
L 230.252925 107.864725 
L 230.917957 107.519395 
L 231.582988 107.560241 
L 232.24802 108.213768 
L 234.243116 111.551956 
L 234.908148 112.491402 
L 235.57318 113.779891 
L 236.903244 118.737045 
L 238.233307 123.87986 
L 238.898339 125.320591 
L 240.228403 126.02239 
L 240.893435 127.455695 
L 241.558467 129.252895 
L 242.888531 135.862434 
L 243.553563 137.58537 
L 244.218594 138.725329 
L 244.883626 138.840439 
L 245.548658 138.821873 
L 246.21369 139.144924 
L 246.878722 139.130071 
L 247.543754 139.25632 
L 248.208786 139.512533 
L 248.873818 139.297166 
L 249.53885 138.721616 
L 250.203882 138.413418 
L 250.868913 138.287169 
L 251.533945 137.78217 
L 252.198977 136.7796 
L 252.864009 136.348866 
L 253.529041 136.248609 
L 254.194073 137.006107 
L 255.524137 137.789597 
L 256.189169 137.80445 
L 256.854201 137.641068 
L 258.184264 137.592796 
L 258.849296 138.25375 
L 259.514328 138.509962 
L 260.17936 138.175772 
L 260.844392 136.296881 
L 262.174456 133.363434 
L 262.839488 132.186342 
L 263.50452 131.45855 
L 264.169551 131.187485 
L 264.834583 131.235757 
L 267.494711 129.368005 
L 268.824775 126.861579 
L 269.489807 125.569377 
L 270.81987 123.478832 
L 272.149934 120.556524 
L 272.814966 118.751898 
L 273.479998 117.415137 
L 274.14503 116.523963 
L 275.475094 113.984118 
L 276.140126 113.334304 
L 276.805157 113.23776 
L 277.470189 112.988974 
L 278.135221 113.972978 
L 278.800253 115.413709 
L 279.465285 116.579662 
L 280.130317 118.56995 
L 282.125413 126.441984 
L 282.790445 128.246611 
L 283.455476 129.171204 
L 285.450572 133.285456 
L 286.115604 133.571374 
L 286.780636 133.72733 
L 287.445668 132.958692 
L 288.1107 132.375716 
L 288.775732 131.5848 
L 289.440764 131.298881 
L 290.105795 131.503109 
L 291.435859 132.769318 
L 292.100891 132.999538 
L 294.761019 129.694769 
L 295.426051 128.603081 
L 296.756114 125.632502 
L 297.421146 124.603939 
L 298.75121 122.145784 
L 299.416242 121.306596 
L 300.746306 120.315165 
L 301.411338 120.842443 
L 302.741402 122.814165 
L 303.406433 123.482545 
L 304.071465 123.783316 
L 304.736497 123.43056 
L 306.066561 122.000969 
L 306.731593 122.075233 
L 307.396625 122.019535 
L 308.061657 122.491114 
L 308.726689 123.222619 
L 309.39172 123.508538 
L 310.056752 123.43056 
L 310.721784 124.176918 
L 311.386816 125.409708 
L 312.051848 126.887571 
L 312.71688 127.132644 
L 313.381912 126.345441 
L 314.711976 126.315735 
L 315.377008 126.909851 
L 316.042039 127.318305 
L 316.707071 127.414849 
L 318.037135 128.762749 
L 318.702167 128.922418 
L 319.367199 128.733044 
L 320.697263 127.849296 
L 321.362295 126.705623 
L 322.027327 125.205481 
L 322.692358 124.310594 
L 323.35739 124.236329 
L 324.022422 124.470263 
L 324.687454 124.89357 
L 326.017518 125.172062 
L 326.68255 125.587943 
L 328.012614 125.46912 
L 328.012614 125.46912 
" clip-path="url(#p95ac5d06c4)" style="fill: none; stroke: #008000; stroke-opacity: 0.5; stroke-width: 2; stroke-linecap: square"/>
   </g>
   <g id="patch_3">
    <path d="M 49.3975 234.5525 
L 49.3975 11.759062 
" style="fill: none; stroke: #000000; stroke-width: 2; stroke-linejoin: miter; stroke-linecap: square"/>
   </g>
   <g id="patch_4">
    <path d="M 341.28 234.5525 
L 341.28 11.759062 
" style="fill: none; stroke: #000000; stroke-width: 2; stroke-linejoin: miter; stroke-linecap: square"/>
   </g>
   <g id="patch_5">
    <path d="M 49.3975 234.5525 
L 341.28 234.5525 
" style="fill: none; stroke: #000000; stroke-width: 2; stroke-linejoin: miter; stroke-linecap: square"/>
   </g>
   <g id="patch_6">
    <path d="M 49.3975 11.759062 
L 341.28 11.759062 
" style="fill: none; stroke: #000000; stroke-width: 2; stroke-linejoin: miter; stroke-linecap: square"/>
   </g>
   <g id="legend_1">
    <g id="line2d_28">
     <path d="M 245.26125 27.477188 
L 257.26125 27.477188 
L 269.26125 27.477188 
" style="fill: none; stroke: #0000ff; stroke-opacity: 0.5; stroke-width: 2; stroke-linecap: square"/>
    </g>
    <g id="text_15">
     <!-- yz-plane -->
     <g transform="translate(278.86125 31.677188)scale(0.12 -0.12)">
      <defs>
       <path id="DejaVuSans-7a" d="M 353 3500 
L 3084 3500 
L 3084 2975 
L 922 459 
L 3084 459 
L 3084 0 
L 275 0 
L 275 525 
L 2438 3041 
L 353 3041 
L 353 3500 
z
" transform="scale(0.015625)"/>
       <path id="DejaVuSans-2d" d="M 313 2009 
L 1997 2009 
L 1997 1497 
L 313 1497 
L 313 2009 
z
" transform="scale(0.015625)"/>
       <path id="DejaVuSans-70" d="M 1159 525 
L 1159 -1331 
L 581 -1331 
L 581 3500 
L 1159 3500 
L 1159 2969 
Q 1341 3281 1617 3432 
Q 1894 3584 2278 3584 
Q 2916 3584 3314 3078 
Q 3713 2572 3713 1747 
Q 3713 922 3314 415 
Q 2916 -91 2278 -91 
Q 1894 -91 1617 61 
Q 1341 213 1159 525 
z
M 3116 1747 
Q 3116 2381 2855 2742 
Q 2594 3103 2138 3103 
Q 1681 3103 1420 2742 
Q 1159 2381 1159 1747 
Q 1159 1113 1420 752 
Q 1681 391 2138 391 
Q 2594 391 2855 752 
Q 3116 1113 3116 1747 
z
" transform="scale(0.015625)"/>
      </defs>
      <use xlink:href="#DejaVuSans-79"/>
      <use xlink:href="#DejaVuSans-7a" x="59.179688"/>
      <use xlink:href="#DejaVuSans-2d" x="111.669922"/>
      <use xlink:href="#DejaVuSans-70" x="147.753906"/>
      <use xlink:href="#DejaVuSans-6c" x="211.230469"/>
      <use xlink:href="#DejaVuSans-61" x="239.013672"/>
      <use xlink:href="#DejaVuSans-6e" x="300.292969"/>
      <use xlink:href="#DejaVuSans-65" x="363.671875"/>
     </g>
    </g>
    <g id="line2d_29">
     <path d="M 245.26125 45.090938 
L 257.26125 45.090938 
L 269.26125 45.090938 
" style="fill: none; stroke: #ff0000; stroke-opacity: 0.5; stroke-width: 2; stroke-linecap: square"/>
    </g>
    <g id="text_16">
     <!-- xz-plane -->
     <g transform="translate(278.86125 49.290938)scale(0.12 -0.12)">
      <use xlink:href="#DejaVuSans-78"/>
      <use xlink:href="#DejaVuSans-7a" x="59.179688"/>
      <use xlink:href="#DejaVuSans-2d" x="111.669922"/>
      <use xlink:href="#DejaVuSans-70" x="147.753906"/>
      <use xlink:href="#DejaVuSans-6c" x="211.230469"/>
      <use xlink:href="#DejaVuSans-61" x="239.013672"/>
      <use xlink:href="#DejaVuSans-6e" x="300.292969"/>
      <use xlink:href="#DejaVuSans-65" x="363.671875"/>
     </g>
    </g>
    <g id="line2d_30">
     <path d="M 245.26125 62.704687 
L 257.26125 62.704687 
L 269.26125 62.704687 
" style="fill: none; stroke: #008000; stroke-opacity: 0.5; stroke-width: 2; stroke-linecap: square"/>
    </g>
    <g id="text_17">
     <!-- xy-plane -->
     <g transform="translate(278.86125 66.904687)scale(0.12 -0.12)">
      <use xlink:href="#DejaVuSans-78"/>
      <use xlink:href="#DejaVuSans-79" x="59.179688"/>
      <use xlink:href="#DejaVuSans-2d" x="116.609375"/>
      <use xlink:href="#DejaVuSans-70" x="152.693359"/>
      <use xlink:href="#DejaVuSans-6c" x="216.169922"/>
      <use xlink:href="#DejaVuSans-61" x="243.953125"/>
      <use xlink:href="#DejaVuSans-6e" x="305.232422"/>
      <use xlink:href="#DejaVuSans-65" x="368.611328"/>
     </g>
    </g>
   </g>
  </g>
 </g>
 <defs>
  <clipPath id="p95ac5d06c4">
   <rect x="49.3975" y="11.759062" width="291.8825" height="222.793437"/>
  </clipPath>
 </defs>
</svg>
