<?xml version="1.0" encoding="utf-8" standalone="no"?>
<!DOCTYPE svg PUBLIC "-//W3C//DTD SVG 1.1//EN"
  "http://www.w3.org/Graphics/SVG/1.1/DTD/svg11.dtd">
<svg xmlns:xlink="http://www.w3.org/1999/xlink" width="317.6135pt" height="289.225792pt" viewBox="0 0 317.6135 289.225792" xmlns="http://www.w3.org/2000/svg" version="1.1">
 <metadata>
  <rdf:RDF xmlns:dc="http://purl.org/dc/elements/1.1/" xmlns:cc="http://creativecommons.org/ns#" xmlns:rdf="http://www.w3.org/1999/02/22-rdf-syntax-ns#">
   <cc:Work>
    <dc:type rdf:resource="http://purl.org/dc/dcmitype/StillImage"/>
    <dc:date>2022-08-12T21:34:31.504884</dc:date>
    <dc:format>image/svg+xml</dc:format>
    <dc:creator>
     <cc:Agent>
      <dc:title>Matplotlib v3.5.3, https://matplotlib.org/</dc:title>
     </cc:Agent>
    </dc:creator>
   </cc:Work>
  </rdf:RDF>
 </metadata>
 <defs>
  <style type="text/css">*{stroke-linejoin: round; stroke-linecap: butt}</style>
 </defs>
 <g id="figure_1">
  <g id="patch_1">
   <path d="M 0 289.225792 
L 317.6135 289.225792 
L 317.6135 0 
L 0 0 
L 0 289.225792 
z
" style="fill: none"/>
  </g>
  <g id="patch_2">
   <path d="M 7.2 271.606394 
L 271.606394 271.606394 
L 271.606394 7.2 
L 7.2 7.2 
z
" style="fill: #ffffff"/>
  </g>
  <g id="pane3d_1">
   <g id="patch_3">
    <path d="M 27.164506 206.412251 
L 114.480133 133.222561 
L 113.266362 27.669945 
L 21.772232 94.438194 
" style="fill: #f2f2f2; opacity: 0.5; stroke: #f2f2f2; stroke-linejoin: miter"/>
   </g>
  </g>
  <g id="pane3d_2">
   <g id="patch_4">
    <path d="M 114.480133 133.222561 
L 254.590558 173.947131 
L 259.590606 64.758876 
L 113.266362 27.669945 
" style="fill: #e6e6e6; opacity: 0.5; stroke: #e6e6e6; stroke-linejoin: miter"/>
   </g>
  </g>
  <g id="pane3d_3">
   <g id="patch_5">
    <path d="M 27.164506 206.412251 
L 175.688401 254.920154 
L 254.590558 173.947131 
L 114.480133 133.222561 
" style="fill: #ececec; opacity: 0.5; stroke: #ececec; stroke-linejoin: miter"/>
   </g>
  </g>
  <g id="axis3d_1">
   <g id="line2d_1">
    <path d="M 27.164506 206.412251 
L 175.688401 254.920154 
" style="fill: none; stroke: #000000; stroke-width: 2; stroke-linecap: square"/>
   </g>
   <g id="text_1">
    <!-- x-axis -->
    <g transform="translate(62.656133 268.64045)rotate(-341.912962)scale(0.12 -0.12)">
     <defs>
      <path id="DejaVuSans-78" d="M 3513 3500 
L 2247 1797 
L 3578 0 
L 2900 0 
L 1881 1375 
L 863 0 
L 184 0 
L 1544 1831 
L 300 3500 
L 978 3500 
L 1906 2253 
L 2834 3500 
L 3513 3500 
z
" transform="scale(0.015625)"/>
      <path id="DejaVuSans-2d" d="M 313 2009 
L 1997 2009 
L 1997 1497 
L 313 1497 
L 313 2009 
z
" transform="scale(0.015625)"/>
      <path id="DejaVuSans-61" d="M 2194 1759 
Q 1497 1759 1228 1600 
Q 959 1441 959 1056 
Q 959 750 1161 570 
Q 1363 391 1709 391 
Q 2188 391 2477 730 
Q 2766 1069 2766 1631 
L 2766 1759 
L 2194 1759 
z
M 3341 1997 
L 3341 0 
L 2766 0 
L 2766 531 
Q 2569 213 2275 61 
Q 1981 -91 1556 -91 
Q 1019 -91 701 211 
Q 384 513 384 1019 
Q 384 1609 779 1909 
Q 1175 2209 1959 2209 
L 2766 2209 
L 2766 2266 
Q 2766 2663 2505 2880 
Q 2244 3097 1772 3097 
Q 1472 3097 1187 3025 
Q 903 2953 641 2809 
L 641 3341 
Q 956 3463 1253 3523 
Q 1550 3584 1831 3584 
Q 2591 3584 2966 3190 
Q 3341 2797 3341 1997 
z
" transform="scale(0.015625)"/>
      <path id="DejaVuSans-69" d="M 603 3500 
L 1178 3500 
L 1178 0 
L 603 0 
L 603 3500 
z
M 603 4863 
L 1178 4863 
L 1178 4134 
L 603 4134 
L 603 4863 
z
" transform="scale(0.015625)"/>
      <path id="DejaVuSans-73" d="M 2834 3397 
L 2834 2853 
Q 2591 2978 2328 3040 
Q 2066 3103 1784 3103 
Q 1356 3103 1142 2972 
Q 928 2841 928 2578 
Q 928 2378 1081 2264 
Q 1234 2150 1697 2047 
L 1894 2003 
Q 2506 1872 2764 1633 
Q 3022 1394 3022 966 
Q 3022 478 2636 193 
Q 2250 -91 1575 -91 
Q 1294 -91 989 -36 
Q 684 19 347 128 
L 347 722 
Q 666 556 975 473 
Q 1284 391 1588 391 
Q 1994 391 2212 530 
Q 2431 669 2431 922 
Q 2431 1156 2273 1281 
Q 2116 1406 1581 1522 
L 1381 1569 
Q 847 1681 609 1914 
Q 372 2147 372 2553 
Q 372 3047 722 3315 
Q 1072 3584 1716 3584 
Q 2034 3584 2315 3537 
Q 2597 3491 2834 3397 
z
" transform="scale(0.015625)"/>
     </defs>
     <use xlink:href="#DejaVuSans-78"/>
     <use xlink:href="#DejaVuSans-2d" x="59.179688"/>
     <use xlink:href="#DejaVuSans-61" x="95.263672"/>
     <use xlink:href="#DejaVuSans-78" x="156.542969"/>
     <use xlink:href="#DejaVuSans-69" x="215.722656"/>
     <use xlink:href="#DejaVuSans-73" x="243.505859"/>
    </g>
   </g>
   <g id="Line3DCollection_1">
    <path d="M 51.145753 214.244526 
L 137.186787 139.822489 
L 136.938125 33.670047 
" style="fill: none; stroke: #b0b0b0; stroke-width: 0.8"/>
    <path d="M 82.513504 224.489233 
L 166.838461 148.44106 
L 167.874475 41.51151 
" style="fill: none; stroke: #b0b0b0; stroke-width: 0.8"/>
    <path d="M 114.600703 234.968912 
L 197.113032 157.240683 
L 199.489234 49.52493 
" style="fill: none; stroke: #b0b0b0; stroke-width: 0.8"/>
    <path d="M 147.43239 245.691741 
L 228.030338 166.227123 
L 231.804966 57.716026 
" style="fill: none; stroke: #b0b0b0; stroke-width: 0.8"/>
   </g>
   <g id="xtick_1">
    <g id="line2d_2">
     <path d="M 51.895325 213.596176 
L 49.643375 215.544023 
" style="fill: none; stroke: #000000; stroke-width: 2; stroke-linecap: square"/>
    </g>
    <g id="text_2">
     <!-- 2 -->
     <g transform="translate(39.814237 239.178038)scale(0.12 -0.12)">
      <defs>
       <path id="DejaVuSans-32" d="M 1228 531 
L 3431 531 
L 3431 0 
L 469 0 
L 469 531 
Q 828 903 1448 1529 
Q 2069 2156 2228 2338 
Q 2531 2678 2651 2914 
Q 2772 3150 2772 3378 
Q 2772 3750 2511 3984 
Q 2250 4219 1831 4219 
Q 1534 4219 1204 4116 
Q 875 4013 500 3803 
L 500 4441 
Q 881 4594 1212 4672 
Q 1544 4750 1819 4750 
Q 2544 4750 2975 4387 
Q 3406 4025 3406 3419 
Q 3406 3131 3298 2873 
Q 3191 2616 2906 2266 
Q 2828 2175 2409 1742 
Q 1991 1309 1228 531 
z
" transform="scale(0.015625)"/>
      </defs>
      <use xlink:href="#DejaVuSans-32"/>
     </g>
    </g>
   </g>
   <g id="xtick_2">
    <g id="line2d_3">
     <path d="M 83.248806 223.826104 
L 81.039692 225.818386 
" style="fill: none; stroke: #000000; stroke-width: 2; stroke-linecap: square"/>
    </g>
    <g id="text_3">
     <!-- 4 -->
     <g transform="translate(71.215811 249.641718)scale(0.12 -0.12)">
      <defs>
       <path id="DejaVuSans-34" d="M 2419 4116 
L 825 1625 
L 2419 1625 
L 2419 4116 
z
M 2253 4666 
L 3047 4666 
L 3047 1625 
L 3713 1625 
L 3713 1100 
L 3047 1100 
L 3047 0 
L 2419 0 
L 2419 1100 
L 313 1100 
L 313 1709 
L 2253 4666 
z
" transform="scale(0.015625)"/>
      </defs>
      <use xlink:href="#DejaVuSans-34"/>
     </g>
    </g>
   </g>
   <g id="xtick_3">
    <g id="line2d_4">
     <path d="M 115.32088 234.290492 
L 113.157171 236.328748 
" style="fill: none; stroke: #000000; stroke-width: 2; stroke-linecap: square"/>
    </g>
    <g id="text_4">
     <!-- 6 -->
     <g transform="translate(103.340382 260.346317)scale(0.12 -0.12)">
      <defs>
       <path id="DejaVuSans-36" d="M 2113 2584 
Q 1688 2584 1439 2293 
Q 1191 2003 1191 1497 
Q 1191 994 1439 701 
Q 1688 409 2113 409 
Q 2538 409 2786 701 
Q 3034 994 3034 1497 
Q 3034 2003 2786 2293 
Q 2538 2584 2113 2584 
z
M 3366 4563 
L 3366 3988 
Q 3128 4100 2886 4159 
Q 2644 4219 2406 4219 
Q 1781 4219 1451 3797 
Q 1122 3375 1075 2522 
Q 1259 2794 1537 2939 
Q 1816 3084 2150 3084 
Q 2853 3084 3261 2657 
Q 3669 2231 3669 1497 
Q 3669 778 3244 343 
Q 2819 -91 2113 -91 
Q 1303 -91 875 529 
Q 447 1150 447 2328 
Q 447 3434 972 4092 
Q 1497 4750 2381 4750 
Q 2619 4750 2861 4703 
Q 3103 4656 3366 4563 
z
" transform="scale(0.015625)"/>
      </defs>
      <use xlink:href="#DejaVuSans-36"/>
     </g>
    </g>
   </g>
   <g id="xtick_4">
    <g id="line2d_5">
     <path d="M 148.136538 244.997495 
L 146.02095 247.083334 
" style="fill: none; stroke: #000000; stroke-width: 2; stroke-linecap: square"/>
    </g>
    <g id="text_5">
     <!-- 8 -->
     <g transform="translate(136.213209 271.30025)scale(0.12 -0.12)">
      <defs>
       <path id="DejaVuSans-38" d="M 2034 2216 
Q 1584 2216 1326 1975 
Q 1069 1734 1069 1313 
Q 1069 891 1326 650 
Q 1584 409 2034 409 
Q 2484 409 2743 651 
Q 3003 894 3003 1313 
Q 3003 1734 2745 1975 
Q 2488 2216 2034 2216 
z
M 1403 2484 
Q 997 2584 770 2862 
Q 544 3141 544 3541 
Q 544 4100 942 4425 
Q 1341 4750 2034 4750 
Q 2731 4750 3128 4425 
Q 3525 4100 3525 3541 
Q 3525 3141 3298 2862 
Q 3072 2584 2669 2484 
Q 3125 2378 3379 2068 
Q 3634 1759 3634 1313 
Q 3634 634 3220 271 
Q 2806 -91 2034 -91 
Q 1263 -91 848 271 
Q 434 634 434 1313 
Q 434 1759 690 2068 
Q 947 2378 1403 2484 
z
M 1172 3481 
Q 1172 3119 1398 2916 
Q 1625 2713 2034 2713 
Q 2441 2713 2670 2916 
Q 2900 3119 2900 3481 
Q 2900 3844 2670 4047 
Q 2441 4250 2034 4250 
Q 1625 4250 1398 4047 
Q 1172 3844 1172 3481 
z
" transform="scale(0.015625)"/>
      </defs>
      <use xlink:href="#DejaVuSans-38"/>
     </g>
    </g>
   </g>
  </g>
  <g id="axis3d_2">
   <g id="line2d_6">
    <path d="M 254.590558 173.947131 
L 175.688401 254.920154 
" style="fill: none; stroke: #000000; stroke-width: 2; stroke-linecap: square"/>
   </g>
   <g id="text_6">
    <!-- y-axis -->
    <g transform="translate(238.264325 260.05971)rotate(-45.742112)scale(0.12 -0.12)">
     <defs>
      <path id="DejaVuSans-79" d="M 2059 -325 
Q 1816 -950 1584 -1140 
Q 1353 -1331 966 -1331 
L 506 -1331 
L 506 -850 
L 844 -850 
Q 1081 -850 1212 -737 
Q 1344 -625 1503 -206 
L 1606 56 
L 191 3500 
L 800 3500 
L 1894 763 
L 2988 3500 
L 3597 3500 
L 2059 -325 
z
" transform="scale(0.015625)"/>
     </defs>
     <use xlink:href="#DejaVuSans-79"/>
     <use xlink:href="#DejaVuSans-2d" x="57.429688"/>
     <use xlink:href="#DejaVuSans-61" x="93.513672"/>
     <use xlink:href="#DejaVuSans-78" x="154.792969"/>
     <use xlink:href="#DejaVuSans-69" x="213.972656"/>
     <use xlink:href="#DejaVuSans-73" x="241.755859"/>
    </g>
   </g>
   <g id="Line3DCollection_2">
    <path d="M 33.920715 85.572784 
L 38.720048 196.726167 
L 186.170552 244.162889 
" style="fill: none; stroke: #b0b0b0; stroke-width: 0.8"/>
    <path d="M 48.094354 75.229508 
L 52.216617 185.413074 
L 198.397906 231.614616 
" style="fill: none; stroke: #b0b0b0; stroke-width: 0.8"/>
    <path d="M 61.894603 65.158715 
L 65.372887 174.385228 
L 210.300894 219.399222 
" style="fill: none; stroke: #b0b0b0; stroke-width: 0.8"/>
    <path d="M 75.336025 55.349777 
L 78.201566 163.631975 
L 221.892254 207.503635 
" style="fill: none; stroke: #b0b0b0; stroke-width: 0.8"/>
    <path d="M 88.432436 45.792613 
L 90.714741 153.143184 
L 233.184066 195.915457 
" style="fill: none; stroke: #b0b0b0; stroke-width: 0.8"/>
    <path d="M 101.196951 36.477651 
L 102.923908 142.909218 
L 244.187794 184.622926 
" style="fill: none; stroke: #b0b0b0; stroke-width: 0.8"/>
   </g>
   <g id="xtick_5">
    <g id="line2d_7">
     <path d="M 184.928327 243.76325 
L 188.658195 244.963196 
" style="fill: none; stroke: #000000; stroke-width: 2; stroke-linecap: square"/>
    </g>
    <g id="text_7">
     <!-- 28 -->
     <g transform="translate(191.348469 266.627511)scale(0.12 -0.12)">
      <use xlink:href="#DejaVuSans-32"/>
      <use xlink:href="#DejaVuSans-38" x="63.623047"/>
     </g>
    </g>
   </g>
   <g id="xtick_6">
    <g id="line2d_8">
     <path d="M 197.167208 231.225646 
L 200.862423 232.393543 
" style="fill: none; stroke: #000000; stroke-width: 2; stroke-linecap: square"/>
    </g>
    <g id="text_8">
     <!-- 29 -->
     <g transform="translate(203.410717 253.892306)scale(0.12 -0.12)">
      <defs>
       <path id="DejaVuSans-39" d="M 703 97 
L 703 672 
Q 941 559 1184 500 
Q 1428 441 1663 441 
Q 2288 441 2617 861 
Q 2947 1281 2994 2138 
Q 2813 1869 2534 1725 
Q 2256 1581 1919 1581 
Q 1219 1581 811 2004 
Q 403 2428 403 3163 
Q 403 3881 828 4315 
Q 1253 4750 1959 4750 
Q 2769 4750 3195 4129 
Q 3622 3509 3622 2328 
Q 3622 1225 3098 567 
Q 2575 -91 1691 -91 
Q 1453 -91 1209 -44 
Q 966 3 703 97 
z
M 1959 2075 
Q 2384 2075 2632 2365 
Q 2881 2656 2881 3163 
Q 2881 3666 2632 3958 
Q 2384 4250 1959 4250 
Q 1534 4250 1286 3958 
Q 1038 3666 1038 3163 
Q 1038 2656 1286 2365 
Q 1534 2075 1959 2075 
z
" transform="scale(0.015625)"/>
      </defs>
      <use xlink:href="#DejaVuSans-32"/>
      <use xlink:href="#DejaVuSans-39" x="63.623047"/>
     </g>
    </g>
   </g>
   <g id="xtick_7">
    <g id="line2d_9">
     <path d="M 209.081553 219.0205 
L 212.742628 220.157614 
" style="fill: none; stroke: #000000; stroke-width: 2; stroke-linecap: square"/>
    </g>
    <g id="text_9">
     <!-- 30 -->
     <g transform="translate(215.152792 241.495136)scale(0.12 -0.12)">
      <defs>
       <path id="DejaVuSans-33" d="M 2597 2516 
Q 3050 2419 3304 2112 
Q 3559 1806 3559 1356 
Q 3559 666 3084 287 
Q 2609 -91 1734 -91 
Q 1441 -91 1130 -33 
Q 819 25 488 141 
L 488 750 
Q 750 597 1062 519 
Q 1375 441 1716 441 
Q 2309 441 2620 675 
Q 2931 909 2931 1356 
Q 2931 1769 2642 2001 
Q 2353 2234 1838 2234 
L 1294 2234 
L 1294 2753 
L 1863 2753 
Q 2328 2753 2575 2939 
Q 2822 3125 2822 3475 
Q 2822 3834 2567 4026 
Q 2313 4219 1838 4219 
Q 1578 4219 1281 4162 
Q 984 4106 628 3988 
L 628 4550 
Q 988 4650 1302 4700 
Q 1616 4750 1894 4750 
Q 2613 4750 3031 4423 
Q 3450 4097 3450 3541 
Q 3450 3153 3228 2886 
Q 3006 2619 2597 2516 
z
" transform="scale(0.015625)"/>
       <path id="DejaVuSans-30" d="M 2034 4250 
Q 1547 4250 1301 3770 
Q 1056 3291 1056 2328 
Q 1056 1369 1301 889 
Q 1547 409 2034 409 
Q 2525 409 2770 889 
Q 3016 1369 3016 2328 
Q 3016 3291 2770 3770 
Q 2525 4250 2034 4250 
z
M 2034 4750 
Q 2819 4750 3233 4129 
Q 3647 3509 3647 2328 
Q 3647 1150 3233 529 
Q 2819 -91 2034 -91 
Q 1250 -91 836 529 
Q 422 1150 422 2328 
Q 422 3509 836 4129 
Q 1250 4750 2034 4750 
z
" transform="scale(0.015625)"/>
      </defs>
      <use xlink:href="#DejaVuSans-33"/>
      <use xlink:href="#DejaVuSans-30" x="63.623047"/>
     </g>
    </g>
   </g>
   <g id="xtick_8">
    <g id="line2d_10">
     <path d="M 220.684101 207.134761 
L 224.311546 208.242293 
" style="fill: none; stroke: #000000; stroke-width: 2; stroke-linecap: square"/>
    </g>
    <g id="text_10">
     <!-- 31 -->
     <g transform="translate(226.587274 229.422718)scale(0.12 -0.12)">
      <defs>
       <path id="DejaVuSans-31" d="M 794 531 
L 1825 531 
L 1825 4091 
L 703 3866 
L 703 4441 
L 1819 4666 
L 2450 4666 
L 2450 531 
L 3481 531 
L 3481 0 
L 794 0 
L 794 531 
z
" transform="scale(0.015625)"/>
      </defs>
      <use xlink:href="#DejaVuSans-33"/>
      <use xlink:href="#DejaVuSans-31" x="63.623047"/>
     </g>
    </g>
   </g>
   <g id="xtick_9">
    <g id="line2d_11">
     <path d="M 231.986933 195.556053 
L 235.581253 196.635143 
" style="fill: none; stroke: #000000; stroke-width: 2; stroke-linecap: square"/>
    </g>
    <g id="text_11">
     <!-- 32 -->
     <g transform="translate(237.726095 217.662457)scale(0.12 -0.12)">
      <use xlink:href="#DejaVuSans-33"/>
      <use xlink:href="#DejaVuSans-32" x="63.623047"/>
     </g>
    </g>
   </g>
   <g id="xtick_10">
    <g id="line2d_12">
     <path d="M 243.001515 184.27263 
L 246.563209 185.32436 
" style="fill: none; stroke: #000000; stroke-width: 2; stroke-linecap: square"/>
    </g>
    <g id="text_12">
     <!-- 33 -->
     <g transform="translate(248.580576 206.202401)scale(0.12 -0.12)">
      <use xlink:href="#DejaVuSans-33"/>
      <use xlink:href="#DejaVuSans-33" x="63.623047"/>
     </g>
    </g>
   </g>
  </g>
  <g id="axis3d_3">
   <g id="line2d_13">
    <path d="M 254.590558 173.947131 
L 259.590606 64.758876 
" style="fill: none; stroke: #000000; stroke-width: 2; stroke-linecap: square"/>
   </g>
   <g id="text_13">
    <!-- z-axis -->
    <g transform="translate(306.334566 131.748898)rotate(-87.378092)scale(0.12 -0.12)">
     <defs>
      <path id="DejaVuSans-7a" d="M 353 3500 
L 3084 3500 
L 3084 2975 
L 922 459 
L 3084 459 
L 3084 0 
L 275 0 
L 275 525 
L 2438 3041 
L 353 3041 
L 353 3500 
z
" transform="scale(0.015625)"/>
     </defs>
     <use xlink:href="#DejaVuSans-7a"/>
     <use xlink:href="#DejaVuSans-2d" x="52.490234"/>
     <use xlink:href="#DejaVuSans-61" x="88.574219"/>
     <use xlink:href="#DejaVuSans-78" x="149.853516"/>
     <use xlink:href="#DejaVuSans-69" x="209.033203"/>
     <use xlink:href="#DejaVuSans-73" x="236.816406"/>
    </g>
   </g>
   <g id="Line3DCollection_3">
    <path d="M 254.942614 166.259139 
L 114.394503 125.775958 
L 26.785428 198.540458 
" style="fill: none; stroke: #b0b0b0; stroke-width: 0.8"/>
    <path d="M 255.97952 143.615754 
L 114.142445 103.856403 
L 25.668411 175.344871 
" style="fill: none; stroke: #b0b0b0; stroke-width: 0.8"/>
    <path d="M 257.035811 120.549055 
L 113.885903 81.546798 
L 24.529708 151.698966 
" style="fill: none; stroke: #b0b0b0; stroke-width: 0.8"/>
    <path d="M 258.112036 97.047057 
L 113.624754 58.83664 
L 23.368682 127.589502 
" style="fill: none; stroke: #b0b0b0; stroke-width: 0.8"/>
    <path d="M 259.208764 73.097322 
L 113.358874 35.715043 
L 22.184669 103.002711 
" style="fill: none; stroke: #b0b0b0; stroke-width: 0.8"/>
   </g>
   <g id="xtick_11">
    <g id="line2d_14">
     <path d="M 253.762854 165.919323 
L 257.304948 166.939581 
" style="fill: none; stroke: #000000; stroke-width: 2; stroke-linecap: square"/>
    </g>
    <g id="text_14">
     <!-- 0 -->
     <g transform="translate(269.429719 172.787397)scale(0.12 -0.12)">
      <use xlink:href="#DejaVuSans-30"/>
     </g>
    </g>
   </g>
   <g id="xtick_12">
    <g id="line2d_15">
     <path d="M 254.788423 143.28187 
L 258.364582 144.284328 
" style="fill: none; stroke: #000000; stroke-width: 2; stroke-linecap: square"/>
    </g>
    <g id="text_15">
     <!-- 2 -->
     <g transform="translate(270.632457 150.189275)scale(0.12 -0.12)">
      <use xlink:href="#DejaVuSans-32"/>
     </g>
    </g>
   </g>
   <g id="xtick_13">
    <g id="line2d_16">
     <path d="M 255.833158 120.221383 
L 259.444041 121.205195 
" style="fill: none; stroke: #000000; stroke-width: 2; stroke-linecap: square"/>
    </g>
    <g id="text_16">
     <!-- 4 -->
     <g transform="translate(271.85761 127.169987)scale(0.12 -0.12)">
      <use xlink:href="#DejaVuSans-34"/>
     </g>
    </g>
   </g>
   <g id="xtick_14">
    <g id="line2d_17">
     <path d="M 256.8976 96.725893 
L 260.543888 97.690173 
" style="fill: none; stroke: #000000; stroke-width: 2; stroke-linecap: square"/>
    </g>
    <g id="text_17">
     <!-- 6 -->
     <g transform="translate(273.105811 103.717648)scale(0.12 -0.12)">
      <use xlink:href="#DejaVuSans-36"/>
     </g>
    </g>
   </g>
   <g id="xtick_15">
    <g id="line2d_18">
     <path d="M 257.982312 72.782974 
L 261.664705 73.726795 
" style="fill: none; stroke: #000000; stroke-width: 2; stroke-linecap: square"/>
    </g>
    <g id="text_18">
     <!-- 8 -->
     <g transform="translate(274.377717 79.819921)scale(0.12 -0.12)">
      <use xlink:href="#DejaVuSans-38"/>
     </g>
    </g>
   </g>
  </g>
  <g id="axes_1">
   <g id="Poly3DCollection_1">
    <path d="M 125.7152 136.603856 
L 127.667457 129.378732 
L 118.246348 128.916873 
z
" clip-path="url(#pcfb1209100)" style="fill: #1f77b4; stroke: #000000"/>
    <path d="M 142.626514 144.767612 
L 127.667457 129.378732 
L 125.7152 136.603856 
z
" clip-path="url(#pcfb1209100)" style="fill: #1f77b4; stroke: #000000"/>
    <path d="M 133.189759 144.296713 
L 142.626514 144.767612 
L 125.7152 136.603856 
z
" clip-path="url(#pcfb1209100)" style="fill: #1f77b4; stroke: #000000"/>
    <path d="M 118.246348 128.916873 
L 127.667457 129.378732 
L 113.181578 116.367797 
z
" clip-path="url(#pcfb1209100)" style="fill: #1f77b4; stroke: #000000"/>
    <path d="M 142.626514 144.767612 
L 146.541574 130.304054 
L 127.667457 129.378732 
z
" clip-path="url(#pcfb1209100)" style="fill: #1f77b4; stroke: #000000"/>
    <path d="M 113.181578 116.367797 
L 127.667457 129.378732 
L 131.574065 114.920613 
z
" clip-path="url(#pcfb1209100)" style="fill: #1f77b4; stroke: #000000"/>
    <path d="M 140.666591 148.32404 
L 142.626514 144.767612 
L 133.189759 144.296713 
z
" clip-path="url(#pcfb1209100)" style="fill: #1f77b4; stroke: #000000"/>
    <path d="M 127.667457 129.378732 
L 146.557598 119.153266 
L 131.574065 114.920613 
z
" clip-path="url(#pcfb1209100)" style="fill: #1f77b4; stroke: #000000"/>
    <path d="M 140.666591 148.32404 
L 160.089063 147.000748 
L 142.626514 144.767612 
z
" clip-path="url(#pcfb1209100)" style="fill: #1f77b4; stroke: #000000"/>
    <path d="M 146.541574 130.304054 
L 146.557598 119.153266 
L 127.667457 129.378732 
z
" clip-path="url(#pcfb1209100)" style="fill: #1f77b4; stroke: #000000"/>
    <path d="M 142.626514 144.767612 
L 161.615461 134.620985 
L 146.541574 130.304054 
z
" clip-path="url(#pcfb1209100)" style="fill: #1f77b4; stroke: #000000"/>
    <path d="M 118.246348 128.916873 
L 113.673343 151.072743 
L 125.7152 136.603856 
z
" clip-path="url(#pcfb1209100)" style="fill: #1f77b4; stroke: #000000"/>
    <path d="M 133.189759 144.296713 
L 125.7152 136.603856 
L 113.673343 151.072743 
z
" clip-path="url(#pcfb1209100)" style="fill: #1f77b4; stroke: #000000"/>
    <path d="M 160.089063 147.000748 
L 161.615461 134.620985 
L 142.626514 144.767612 
z
" clip-path="url(#pcfb1209100)" style="fill: #1f77b4; stroke: #000000"/>
    <path d="M 113.181578 116.367797 
L 131.574065 114.920613 
L 118.023431 106.540362 
z
" clip-path="url(#pcfb1209100)" style="fill: #1f77b4; stroke: #000000"/>
    <path d="M 118.246348 128.916873 
L 113.181578 116.367797 
L 100.474356 137.470137 
z
" clip-path="url(#pcfb1209100)" style="fill: #1f77b4; stroke: #000000"/>
    <path d="M 155.711872 155.043938 
L 160.089063 147.000748 
L 140.666591 148.32404 
z
" clip-path="url(#pcfb1209100)" style="fill: #1f77b4; stroke: #000000"/>
    <path d="M 146.557598 119.153266 
L 148.04734 106.664159 
L 131.574065 114.920613 
z
" clip-path="url(#pcfb1209100)" style="fill: #1f77b4; stroke: #000000"/>
    <path d="M 118.023431 106.540362 
L 131.574065 114.920613 
L 130.029166 104.937753 
z
" clip-path="url(#pcfb1209100)" style="fill: #1f77b4; stroke: #000000"/>
    <path d="M 133.189759 144.296713 
L 128.755653 162.490343 
L 140.666591 148.32404 
z
" clip-path="url(#pcfb1209100)" style="fill: #1f77b4; stroke: #000000"/>
    <path d="M 131.574065 114.920613 
L 148.04734 106.664159 
L 130.029166 104.937753 
z
" clip-path="url(#pcfb1209100)" style="fill: #1f77b4; stroke: #000000"/>
    <path d="M 146.541574 130.304054 
L 163.150887 122.167993 
L 146.557598 119.153266 
z
" clip-path="url(#pcfb1209100)" style="fill: #1f77b4; stroke: #000000"/>
    <path d="M 113.181578 116.367797 
L 107.665457 118.153053 
L 98.565188 134.130957 
z
" clip-path="url(#pcfb1209100)" style="fill: #1f77b4; stroke: #000000"/>
    <path d="M 161.615461 134.620985 
L 163.150887 122.167993 
L 146.541574 130.304054 
z
" clip-path="url(#pcfb1209100)" style="fill: #1f77b4; stroke: #000000"/>
    <path d="M 155.711872 155.043938 
L 176.6965 150.112511 
L 160.089063 147.000748 
z
" clip-path="url(#pcfb1209100)" style="fill: #1f77b4; stroke: #000000"/>
    <path d="M 100.474356 137.470137 
L 113.673343 151.072743 
L 118.246348 128.916873 
z
" clip-path="url(#pcfb1209100)" style="fill: #1f77b4; stroke: #000000"/>
    <path d="M 160.089063 147.000748 
L 176.848973 138.983629 
L 161.615461 134.620985 
z
" clip-path="url(#pcfb1209100)" style="fill: #1f77b4; stroke: #000000"/>
    <path d="M 133.189759 144.296713 
L 113.673343 151.072743 
L 116.184414 153.203153 
z
" clip-path="url(#pcfb1209100)" style="fill: #1f77b4; stroke: #000000"/>
    <path d="M 176.6965 150.112511 
L 176.848973 138.983629 
L 160.089063 147.000748 
z
" clip-path="url(#pcfb1209100)" style="fill: #1f77b4; stroke: #000000"/>
    <path d="M 100.474356 137.470137 
L 113.181578 116.367797 
L 98.565188 134.130957 
z
" clip-path="url(#pcfb1209100)" style="fill: #1f77b4; stroke: #000000"/>
    <path d="M 116.184414 153.203153 
L 128.755653 162.490343 
L 133.189759 144.296713 
z
" clip-path="url(#pcfb1209100)" style="fill: #1f77b4; stroke: #000000"/>
    <path d="M 170.914302 159.514769 
L 176.6965 150.112511 
L 155.711872 155.043938 
z
" clip-path="url(#pcfb1209100)" style="fill: #1f77b4; stroke: #000000"/>
    <path d="M 98.565188 134.130957 
L 107.665457 118.153053 
L 92.826947 124.09464 
z
" clip-path="url(#pcfb1209100)" style="fill: #1f77b4; stroke: #000000"/>
    <path d="M 155.711872 155.043938 
L 140.666591 148.32404 
L 143.915376 167.030557 
z
" clip-path="url(#pcfb1209100)" style="fill: #1f77b4; stroke: #000000"/>
    <path d="M 113.181578 116.367797 
L 103.846223 116.009274 
L 107.665457 118.153053 
z
" clip-path="url(#pcfb1209100)" style="fill: #1f77b4; stroke: #000000"/>
    <path d="M 170.914302 159.514769 
L 195.762052 151.068084 
L 176.6965 150.112511 
z
" clip-path="url(#pcfb1209100)" style="fill: #1f77b4; stroke: #000000"/>
    <path d="M 146.557598 119.153266 
L 163.242311 110.888035 
L 148.04734 106.664159 
z
" clip-path="url(#pcfb1209100)" style="fill: #1f77b4; stroke: #000000"/>
    <path d="M 163.150887 122.167993 
L 163.242311 110.888035 
L 146.557598 119.153266 
z
" clip-path="url(#pcfb1209100)" style="fill: #1f77b4; stroke: #000000"/>
    <path d="M 118.023431 106.540362 
L 130.029166 104.937753 
L 122.926348 96.588989 
z
" clip-path="url(#pcfb1209100)" style="fill: #1f77b4; stroke: #000000"/>
    <path d="M 148.04734 106.664159 
L 146.590082 96.548261 
L 130.029166 104.937753 
z
" clip-path="url(#pcfb1209100)" style="fill: #1f77b4; stroke: #000000"/>
    <path d="M 118.023431 106.540362 
L 103.846223 116.009274 
L 113.181578 116.367797 
z
" clip-path="url(#pcfb1209100)" style="fill: #1f77b4; stroke: #000000"/>
    <path d="M 92.826947 124.09464 
L 107.665457 118.153053 
L 98.313088 120.069198 
z
" clip-path="url(#pcfb1209100)" style="fill: #1f77b4; stroke: #000000"/>
    <path d="M 195.762052 151.068084 
L 192.24466 143.392718 
L 176.6965 150.112511 
z
" clip-path="url(#pcfb1209100)" style="fill: #1f77b4; stroke: #000000"/>
    <path d="M 143.915376 167.030557 
L 140.666591 148.32404 
L 128.755653 162.490343 
z
" clip-path="url(#pcfb1209100)" style="fill: #1f77b4; stroke: #000000"/>
    <path d="M 130.029166 104.937753 
L 146.590082 96.548261 
L 127.45941 95.64899 
z
" clip-path="url(#pcfb1209100)" style="fill: #1f77b4; stroke: #000000"/>
    <path d="M 122.926348 96.588989 
L 130.029166 104.937753 
L 127.45941 95.64899 
z
" clip-path="url(#pcfb1209100)" style="fill: #1f77b4; stroke: #000000"/>
    <path d="M 176.6965 150.112511 
L 192.24466 143.392718 
L 176.848973 138.983629 
z
" clip-path="url(#pcfb1209100)" style="fill: #1f77b4; stroke: #000000"/>
    <path d="M 161.615461 134.620985 
L 173.154097 131.176356 
L 163.150887 122.167993 
z
" clip-path="url(#pcfb1209100)" style="fill: #1f77b4; stroke: #000000"/>
    <path d="M 186.253985 165.423028 
L 195.762052 151.068084 
L 170.914302 159.514769 
z
" clip-path="url(#pcfb1209100)" style="fill: #1f77b4; stroke: #000000"/>
    <path d="M 186.253985 165.423028 
L 211.205941 155.526351 
L 195.762052 151.068084 
z
" clip-path="url(#pcfb1209100)" style="fill: #1f77b4; stroke: #000000"/>
    <path d="M 176.848973 138.983629 
L 173.154097 131.176356 
L 161.615461 134.620985 
z
" clip-path="url(#pcfb1209100)" style="fill: #1f77b4; stroke: #000000"/>
    <path d="M 103.846223 116.009274 
L 98.313088 120.069198 
L 107.665457 118.153053 
z
" clip-path="url(#pcfb1209100)" style="fill: #1f77b4; stroke: #000000"/>
    <path d="M 170.914302 159.514769 
L 155.711872 155.043938 
L 159.237568 171.619429 
z
" clip-path="url(#pcfb1209100)" style="fill: #1f77b4; stroke: #000000"/>
    <path d="M 100.474356 137.470137 
L 98.565188 134.130957 
L 88.988222 133.415873 
z
" clip-path="url(#pcfb1209100)" style="fill: #1f77b4; stroke: #000000"/>
    <path d="M 103.846223 116.009274 
L 118.023431 106.540362 
L 122.926348 96.588989 
z
" clip-path="url(#pcfb1209100)" style="fill: #1f77b4; stroke: #000000"/>
    <path d="M 163.242311 110.888035 
L 163.150887 122.167993 
L 173.154097 131.176356 
z
" clip-path="url(#pcfb1209100)" style="fill: #1f77b4; stroke: #000000"/>
    <path d="M 88.988222 133.415873 
L 98.565188 134.130957 
L 92.826947 124.09464 
z
" clip-path="url(#pcfb1209100)" style="fill: #1f77b4; stroke: #000000"/>
    <path d="M 100.474356 137.470137 
L 101.226822 157.453588 
L 113.673343 151.072743 
z
" clip-path="url(#pcfb1209100)" style="fill: #1f77b4; stroke: #000000"/>
    <path d="M 163.242311 110.888035 
L 158.928265 103.23301 
L 148.04734 106.664159 
z
" clip-path="url(#pcfb1209100)" style="fill: #1f77b4; stroke: #000000"/>
    <path d="M 122.926348 96.588989 
L 127.45941 95.64899 
L 125.401063 91.56609 
z
" clip-path="url(#pcfb1209100)" style="fill: #1f77b4; stroke: #000000"/>
    <path d="M 116.184414 153.203153 
L 113.673343 151.072743 
L 101.226822 157.453588 
z
" clip-path="url(#pcfb1209100)" style="fill: #1f77b4; stroke: #000000"/>
    <path d="M 148.04734 106.664159 
L 158.928265 103.23301 
L 146.590082 96.548261 
z
" clip-path="url(#pcfb1209100)" style="fill: #1f77b4; stroke: #000000"/>
    <path d="M 211.205941 155.526351 
L 205.001109 150.492585 
L 195.762052 151.068084 
z
" clip-path="url(#pcfb1209100)" style="fill: #1f77b4; stroke: #000000"/>
    <path d="M 159.237568 171.619429 
L 155.711872 155.043938 
L 143.915376 167.030557 
z
" clip-path="url(#pcfb1209100)" style="fill: #1f77b4; stroke: #000000"/>
    <path d="M 173.154097 131.176356 
L 176.848973 138.983629 
L 192.24466 143.392718 
z
" clip-path="url(#pcfb1209100)" style="fill: #1f77b4; stroke: #000000"/>
    <path d="M 116.184414 153.203153 
L 116.525113 171.852295 
L 128.755653 162.490343 
z
" clip-path="url(#pcfb1209100)" style="fill: #1f77b4; stroke: #000000"/>
    <path d="M 195.762052 151.068084 
L 205.001109 150.492585 
L 192.24466 143.392718 
z
" clip-path="url(#pcfb1209100)" style="fill: #1f77b4; stroke: #000000"/>
    <path d="M 92.826947 124.09464 
L 98.313088 120.069198 
L 88.988222 133.415873 
z
" clip-path="url(#pcfb1209100)" style="fill: #1f77b4; stroke: #000000"/>
    <path d="M 201.773707 169.994642 
L 211.205941 155.526351 
L 186.253985 165.423028 
z
" clip-path="url(#pcfb1209100)" style="fill: #1f77b4; stroke: #000000"/>
    <path d="M 140.613686 91.907323 
L 127.45941 95.64899 
L 146.590082 96.548261 
z
" clip-path="url(#pcfb1209100)" style="fill: #1f77b4; stroke: #000000"/>
    <path d="M 125.401063 91.56609 
L 127.45941 95.64899 
L 140.613686 91.907323 
z
" clip-path="url(#pcfb1209100)" style="fill: #1f77b4; stroke: #000000"/>
    <path d="M 186.253985 165.423028 
L 170.914302 159.514769 
L 174.724854 176.257746 
z
" clip-path="url(#pcfb1209100)" style="fill: #1f77b4; stroke: #000000"/>
    <path d="M 163.242311 110.888035 
L 173.154097 131.176356 
L 171.2499 130.063139 
z
" clip-path="url(#pcfb1209100)" style="fill: #1f77b4; stroke: #000000"/>
    <path d="M 93.579089 149.564472 
L 101.226822 157.453588 
L 100.474356 137.470137 
z
" clip-path="url(#pcfb1209100)" style="fill: #1f77b4; stroke: #000000"/>
    <path d="M 116.184414 153.203153 
L 101.226822 157.453588 
L 105.096328 164.203737 
z
" clip-path="url(#pcfb1209100)" style="fill: #1f77b4; stroke: #000000"/>
    <path d="M 87.689022 136.570606 
L 100.474356 137.470137 
L 88.988222 133.415873 
z
" clip-path="url(#pcfb1209100)" style="fill: #1f77b4; stroke: #000000"/>
    <path d="M 103.846223 116.009274 
L 122.926348 96.588989 
L 105.558739 105.109655 
z
" clip-path="url(#pcfb1209100)" style="fill: #1f77b4; stroke: #000000"/>
    <path d="M 105.096328 164.203737 
L 116.525113 171.852295 
L 116.184414 153.203153 
z
" clip-path="url(#pcfb1209100)" style="fill: #1f77b4; stroke: #000000"/>
    <path d="M 93.579089 149.564472 
L 100.474356 137.470137 
L 87.689022 136.570606 
z
" clip-path="url(#pcfb1209100)" style="fill: #1f77b4; stroke: #000000"/>
    <path d="M 201.773707 169.994642 
L 220.40691 166.295204 
L 211.205941 155.526351 
z
" clip-path="url(#pcfb1209100)" style="fill: #1f77b4; stroke: #000000"/>
    <path d="M 163.242311 110.888035 
L 165.538197 119.886326 
L 158.928265 103.23301 
z
" clip-path="url(#pcfb1209100)" style="fill: #1f77b4; stroke: #000000"/>
    <path d="M 143.915376 167.030557 
L 128.755653 162.490343 
L 131.826589 177.906327 
z
" clip-path="url(#pcfb1209100)" style="fill: #1f77b4; stroke: #000000"/>
    <path d="M 165.538197 119.886326 
L 163.242311 110.888035 
L 171.2499 130.063139 
z
" clip-path="url(#pcfb1209100)" style="fill: #1f77b4; stroke: #000000"/>
    <path d="M 173.154097 131.176356 
L 192.24466 143.392718 
L 186.650835 142.994559 
z
" clip-path="url(#pcfb1209100)" style="fill: #1f77b4; stroke: #000000"/>
    <path d="M 103.846223 116.009274 
L 87.689022 136.570606 
L 98.313088 120.069198 
z
" clip-path="url(#pcfb1209100)" style="fill: #1f77b4; stroke: #000000"/>
    <path d="M 174.724854 176.257746 
L 170.914302 159.514769 
L 159.237568 171.619429 
z
" clip-path="url(#pcfb1209100)" style="fill: #1f77b4; stroke: #000000"/>
    <path d="M 110.466643 94.976685 
L 122.926348 96.588989 
L 125.401063 91.56609 
z
" clip-path="url(#pcfb1209100)" style="fill: #1f77b4; stroke: #000000"/>
    <path d="M 205.001109 150.492585 
L 211.205941 155.526351 
L 220.40691 166.295204 
z
" clip-path="url(#pcfb1209100)" style="fill: #1f77b4; stroke: #000000"/>
    <path d="M 87.689022 136.570606 
L 88.988222 133.415873 
L 98.313088 120.069198 
z
" clip-path="url(#pcfb1209100)" style="fill: #1f77b4; stroke: #000000"/>
    <path d="M 155.997393 99.976406 
L 146.590082 96.548261 
L 158.928265 103.23301 
z
" clip-path="url(#pcfb1209100)" style="fill: #1f77b4; stroke: #000000"/>
    <path d="M 173.154097 131.176356 
L 175.08538 134.000189 
L 171.2499 130.063139 
z
" clip-path="url(#pcfb1209100)" style="fill: #1f77b4; stroke: #000000"/>
    <path d="M 140.613686 91.907323 
L 146.590082 96.548261 
L 155.997393 99.976406 
z
" clip-path="url(#pcfb1209100)" style="fill: #1f77b4; stroke: #000000"/>
    <path d="M 140.613686 91.907323 
L 119.226336 90.721035 
L 125.401063 91.56609 
z
" clip-path="url(#pcfb1209100)" style="fill: #1f77b4; stroke: #000000"/>
    <path d="M 175.08538 134.000189 
L 173.154097 131.176356 
L 186.650835 142.994559 
z
" clip-path="url(#pcfb1209100)" style="fill: #1f77b4; stroke: #000000"/>
    <path d="M 131.826589 177.906327 
L 128.755653 162.490343 
L 116.525113 171.852295 
z
" clip-path="url(#pcfb1209100)" style="fill: #1f77b4; stroke: #000000"/>
    <path d="M 202.224742 151.267265 
L 192.24466 143.392718 
L 205.001109 150.492585 
z
" clip-path="url(#pcfb1209100)" style="fill: #1f77b4; stroke: #000000"/>
    <path d="M 186.650835 142.994559 
L 192.24466 143.392718 
L 202.224742 151.267265 
z
" clip-path="url(#pcfb1209100)" style="fill: #1f77b4; stroke: #000000"/>
    <path d="M 110.466643 94.976685 
L 105.558739 105.109655 
L 122.926348 96.588989 
z
" clip-path="url(#pcfb1209100)" style="fill: #1f77b4; stroke: #000000"/>
    <path d="M 201.773707 169.994642 
L 186.253985 165.423028 
L 190.379918 180.946311 
z
" clip-path="url(#pcfb1209100)" style="fill: #1f77b4; stroke: #000000"/>
    <path d="M 158.928265 103.23301 
L 165.538197 119.886326 
L 158.541038 106.450312 
z
" clip-path="url(#pcfb1209100)" style="fill: #1f77b4; stroke: #000000"/>
    <path d="M 119.226336 90.721035 
L 110.466643 94.976685 
L 125.401063 91.56609 
z
" clip-path="url(#pcfb1209100)" style="fill: #1f77b4; stroke: #000000"/>
    <path d="M 217.574522 170.879828 
L 220.40691 166.295204 
L 201.773707 169.994642 
z
" clip-path="url(#pcfb1209100)" style="fill: #1f77b4; stroke: #000000"/>
    <path d="M 159.237568 171.619429 
L 143.915376 167.030557 
L 147.278822 182.612816 
z
" clip-path="url(#pcfb1209100)" style="fill: #1f77b4; stroke: #000000"/>
    <path d="M 91.22376 126.25721 
L 103.846223 116.009274 
L 105.558739 105.109655 
z
" clip-path="url(#pcfb1209100)" style="fill: #1f77b4; stroke: #000000"/>
    <path d="M 140.613686 91.907323 
L 138.596781 91.626307 
L 119.226336 90.721035 
z
" clip-path="url(#pcfb1209100)" style="fill: #1f77b4; stroke: #000000"/>
    <path d="M 158.928265 103.23301 
L 158.541038 106.450312 
L 155.997393 99.976406 
z
" clip-path="url(#pcfb1209100)" style="fill: #1f77b4; stroke: #000000"/>
    <path d="M 190.379918 180.946311 
L 186.253985 165.423028 
L 174.724854 176.257746 
z
" clip-path="url(#pcfb1209100)" style="fill: #1f77b4; stroke: #000000"/>
    <path d="M 91.22376 126.25721 
L 87.689022 136.570606 
L 103.846223 116.009274 
z
" clip-path="url(#pcfb1209100)" style="fill: #1f77b4; stroke: #000000"/>
    <path d="M 155.997393 99.976406 
L 138.596781 91.626307 
L 140.613686 91.907323 
z
" clip-path="url(#pcfb1209100)" style="fill: #1f77b4; stroke: #000000"/>
    <path d="M 105.096328 164.203737 
L 101.226822 157.453588 
L 94.799263 157.174288 
z
" clip-path="url(#pcfb1209100)" style="fill: #1f77b4; stroke: #000000"/>
    <path d="M 205.001109 150.492585 
L 220.40691 166.295204 
L 217.71775 166.194196 
z
" clip-path="url(#pcfb1209100)" style="fill: #1f77b4; stroke: #000000"/>
    <path d="M 94.799263 157.174288 
L 101.226822 157.453588 
L 93.579089 149.564472 
z
" clip-path="url(#pcfb1209100)" style="fill: #1f77b4; stroke: #000000"/>
    <path d="M 205.001109 150.492585 
L 206.11276 154.288718 
L 202.224742 151.267265 
z
" clip-path="url(#pcfb1209100)" style="fill: #1f77b4; stroke: #000000"/>
    <path d="M 147.278822 182.612816 
L 143.915376 167.030557 
L 131.826589 177.906327 
z
" clip-path="url(#pcfb1209100)" style="fill: #1f77b4; stroke: #000000"/>
    <path d="M 206.11276 154.288718 
L 205.001109 150.492585 
L 217.71775 166.194196 
z
" clip-path="url(#pcfb1209100)" style="fill: #1f77b4; stroke: #000000"/>
    <path d="M 171.2499 130.063139 
L 175.08538 134.000189 
L 159.483068 134.786887 
z
" clip-path="url(#pcfb1209100)" style="fill: #1f77b4; stroke: #000000"/>
    <path d="M 159.483068 134.786887 
L 165.538197 119.886326 
L 171.2499 130.063139 
z
" clip-path="url(#pcfb1209100)" style="fill: #1f77b4; stroke: #000000"/>
    <path d="M 217.574522 170.879828 
L 235.35399 171.82897 
L 220.40691 166.295204 
z
" clip-path="url(#pcfb1209100)" style="fill: #1f77b4; stroke: #000000"/>
    <path d="M 175.038319 152.215582 
L 175.08538 134.000189 
L 186.650835 142.994559 
z
" clip-path="url(#pcfb1209100)" style="fill: #1f77b4; stroke: #000000"/>
    <path d="M 105.096328 164.203737 
L 103.989711 182.876152 
L 116.525113 171.852295 
z
" clip-path="url(#pcfb1209100)" style="fill: #1f77b4; stroke: #000000"/>
    <path d="M 165.538197 119.886326 
L 156.895215 131.16279 
L 158.541038 106.450312 
z
" clip-path="url(#pcfb1209100)" style="fill: #1f77b4; stroke: #000000"/>
    <path d="M 110.466643 94.976685 
L 119.226336 90.721035 
L 112.990547 93.745799 
z
" clip-path="url(#pcfb1209100)" style="fill: #1f77b4; stroke: #000000"/>
    <path d="M 217.574522 170.879828 
L 201.773707 169.994642 
L 206.303677 181.919598 
z
" clip-path="url(#pcfb1209100)" style="fill: #1f77b4; stroke: #000000"/>
    <path d="M 217.71775 166.194196 
L 220.40691 166.295204 
L 233.595496 171.777344 
z
" clip-path="url(#pcfb1209100)" style="fill: #1f77b4; stroke: #000000"/>
    <path d="M 155.997393 99.976406 
L 158.541038 106.450312 
L 150.022069 99.195421 
z
" clip-path="url(#pcfb1209100)" style="fill: #1f77b4; stroke: #000000"/>
    <path d="M 155.997393 99.976406 
L 150.022069 99.195421 
L 138.596781 91.626307 
z
" clip-path="url(#pcfb1209100)" style="fill: #1f77b4; stroke: #000000"/>
    <path d="M 93.579089 149.564472 
L 87.689022 136.570606 
L 84.301865 150.008079 
z
" clip-path="url(#pcfb1209100)" style="fill: #1f77b4; stroke: #000000"/>
    <path d="M 174.724854 176.257746 
L 159.237568 171.619429 
L 162.899689 187.370669 
z
" clip-path="url(#pcfb1209100)" style="fill: #1f77b4; stroke: #000000"/>
    <path d="M 233.595496 171.777344 
L 220.40691 166.295204 
L 235.35399 171.82897 
z
" clip-path="url(#pcfb1209100)" style="fill: #1f77b4; stroke: #000000"/>
    <path d="M 128.350039 92.64246 
L 119.226336 90.721035 
L 138.596781 91.626307 
z
" clip-path="url(#pcfb1209100)" style="fill: #1f77b4; stroke: #000000"/>
    <path d="M 233.45582 175.537542 
L 235.35399 171.82897 
L 217.574522 170.879828 
z
" clip-path="url(#pcfb1209100)" style="fill: #1f77b4; stroke: #000000"/>
    <path d="M 92.890996 115.272705 
L 105.558739 105.109655 
L 110.466643 94.976685 
z
" clip-path="url(#pcfb1209100)" style="fill: #1f77b4; stroke: #000000"/>
    <path d="M 91.22376 126.25721 
L 105.558739 105.109655 
L 92.890996 115.272705 
z
" clip-path="url(#pcfb1209100)" style="fill: #1f77b4; stroke: #000000"/>
    <path d="M 206.303677 181.919598 
L 201.773707 169.994642 
L 190.379918 180.946311 
z
" clip-path="url(#pcfb1209100)" style="fill: #1f77b4; stroke: #000000"/>
    <path d="M 186.650835 142.994559 
L 202.224742 151.267265 
L 190.794662 159.682494 
z
" clip-path="url(#pcfb1209100)" style="fill: #1f77b4; stroke: #000000"/>
    <path d="M 92.208885 163.758836 
L 105.096328 164.203737 
L 94.799263 157.174288 
z
" clip-path="url(#pcfb1209100)" style="fill: #1f77b4; stroke: #000000"/>
    <path d="M 94.799263 157.174288 
L 93.579089 149.564472 
L 88.259194 156.8901 
z
" clip-path="url(#pcfb1209100)" style="fill: #1f77b4; stroke: #000000"/>
    <path d="M 159.483068 134.786887 
L 175.08538 134.000189 
L 167.238728 145.648109 
z
" clip-path="url(#pcfb1209100)" style="fill: #1f77b4; stroke: #000000"/>
    <path d="M 175.038319 152.215582 
L 167.238728 145.648109 
L 175.08538 134.000189 
z
" clip-path="url(#pcfb1209100)" style="fill: #1f77b4; stroke: #000000"/>
    <path d="M 112.990547 93.745799 
L 119.226336 90.721035 
L 128.350039 92.64246 
z
" clip-path="url(#pcfb1209100)" style="fill: #1f77b4; stroke: #000000"/>
    <path d="M 98.171233 176.867305 
L 103.989711 182.876152 
L 105.096328 164.203737 
z
" clip-path="url(#pcfb1209100)" style="fill: #1f77b4; stroke: #000000"/>
    <path d="M 131.826589 177.906327 
L 116.525113 171.852295 
L 119.413046 187.647407 
z
" clip-path="url(#pcfb1209100)" style="fill: #1f77b4; stroke: #000000"/>
    <path d="M 162.899689 187.370669 
L 159.237568 171.619429 
L 147.278822 182.612816 
z
" clip-path="url(#pcfb1209100)" style="fill: #1f77b4; stroke: #000000"/>
    <path d="M 202.224742 151.267265 
L 206.11276 154.288718 
L 190.794662 159.682494 
z
" clip-path="url(#pcfb1209100)" style="fill: #1f77b4; stroke: #000000"/>
    <path d="M 159.483068 134.786887 
L 156.895215 131.16279 
L 165.538197 119.886326 
z
" clip-path="url(#pcfb1209100)" style="fill: #1f77b4; stroke: #000000"/>
    <path d="M 84.301865 150.008079 
L 87.689022 136.570606 
L 91.22376 126.25721 
z
" clip-path="url(#pcfb1209100)" style="fill: #1f77b4; stroke: #000000"/>
    <path d="M 98.171233 176.867305 
L 105.096328 164.203737 
L 92.208885 163.758836 
z
" clip-path="url(#pcfb1209100)" style="fill: #1f77b4; stroke: #000000"/>
    <path d="M 206.426829 177.195184 
L 206.11276 154.288718 
L 217.71775 166.194196 
z
" clip-path="url(#pcfb1209100)" style="fill: #1f77b4; stroke: #000000"/>
    <path d="M 241.537302 176.003429 
L 235.35399 171.82897 
L 233.45582 175.537542 
z
" clip-path="url(#pcfb1209100)" style="fill: #1f77b4; stroke: #000000"/>
    <path d="M 235.35399 171.82897 
L 241.537302 176.003429 
L 233.595496 171.777344 
z
" clip-path="url(#pcfb1209100)" style="fill: #1f77b4; stroke: #000000"/>
    <path d="M 186.650835 142.994559 
L 190.794662 159.682494 
L 175.038319 152.215582 
z
" clip-path="url(#pcfb1209100)" style="fill: #1f77b4; stroke: #000000"/>
    <path d="M 158.541038 106.450312 
L 156.895215 131.16279 
L 153.692783 118.664888 
z
" clip-path="url(#pcfb1209100)" style="fill: #1f77b4; stroke: #000000"/>
    <path d="M 112.990547 93.745799 
L 94.576075 104.170634 
L 110.466643 94.976685 
z
" clip-path="url(#pcfb1209100)" style="fill: #1f77b4; stroke: #000000"/>
    <path d="M 119.413046 187.647407 
L 116.525113 171.852295 
L 103.989711 182.876152 
z
" clip-path="url(#pcfb1209100)" style="fill: #1f77b4; stroke: #000000"/>
    <path d="M 158.541038 106.450312 
L 147.852839 105.35283 
L 150.022069 99.195421 
z
" clip-path="url(#pcfb1209100)" style="fill: #1f77b4; stroke: #000000"/>
    <path d="M 93.579089 149.564472 
L 84.301865 150.008079 
L 88.259194 156.8901 
z
" clip-path="url(#pcfb1209100)" style="fill: #1f77b4; stroke: #000000"/>
    <path d="M 233.45582 175.537542 
L 217.574522 170.879828 
L 222.328095 186.697964 
z
" clip-path="url(#pcfb1209100)" style="fill: #1f77b4; stroke: #000000"/>
    <path d="M 143.940616 101.337144 
L 138.596781 91.626307 
L 150.022069 99.195421 
z
" clip-path="url(#pcfb1209100)" style="fill: #1f77b4; stroke: #000000"/>
    <path d="M 190.379918 180.946311 
L 174.724854 176.257746 
L 178.747833 188.396544 
z
" clip-path="url(#pcfb1209100)" style="fill: #1f77b4; stroke: #000000"/>
    <path d="M 128.350039 92.64246 
L 138.596781 91.626307 
L 143.940616 101.337144 
z
" clip-path="url(#pcfb1209100)" style="fill: #1f77b4; stroke: #000000"/>
    <path d="M 92.890996 115.272705 
L 110.466643 94.976685 
L 94.576075 104.170634 
z
" clip-path="url(#pcfb1209100)" style="fill: #1f77b4; stroke: #000000"/>
    <path d="M 217.71775 166.194196 
L 233.595496 171.777344 
L 222.452177 182.90662 
z
" clip-path="url(#pcfb1209100)" style="fill: #1f77b4; stroke: #000000"/>
    <path d="M 158.541038 106.450312 
L 153.692783 118.664888 
L 147.852839 105.35283 
z
" clip-path="url(#pcfb1209100)" style="fill: #1f77b4; stroke: #000000"/>
    <path d="M 92.208885 163.758836 
L 94.799263 157.174288 
L 88.259194 156.8901 
z
" clip-path="url(#pcfb1209100)" style="fill: #1f77b4; stroke: #000000"/>
    <path d="M 222.328095 186.697964 
L 217.574522 170.879828 
L 206.303677 181.919598 
z
" clip-path="url(#pcfb1209100)" style="fill: #1f77b4; stroke: #000000"/>
    <path d="M 147.278822 182.612816 
L 131.826589 177.906327 
L 135.00605 192.471149 
z
" clip-path="url(#pcfb1209100)" style="fill: #1f77b4; stroke: #000000"/>
    <path d="M 190.794662 159.682494 
L 206.11276 154.288718 
L 198.65863 166.298473 
z
" clip-path="url(#pcfb1209100)" style="fill: #1f77b4; stroke: #000000"/>
    <path d="M 206.426829 177.195184 
L 198.65863 166.298473 
L 206.11276 154.288718 
z
" clip-path="url(#pcfb1209100)" style="fill: #1f77b4; stroke: #000000"/>
    <path d="M 80.190253 137.335379 
L 91.22376 126.25721 
L 92.890996 115.272705 
z
" clip-path="url(#pcfb1209100)" style="fill: #1f77b4; stroke: #000000"/>
    <path d="M 159.483068 134.786887 
L 167.238728 145.648109 
L 156.493426 134.546609 
z
" clip-path="url(#pcfb1209100)" style="fill: #1f77b4; stroke: #000000"/>
    <path d="M 178.747833 188.396544 
L 174.724854 176.257746 
L 162.899689 187.370669 
z
" clip-path="url(#pcfb1209100)" style="fill: #1f77b4; stroke: #000000"/>
    <path d="M 159.483068 134.786887 
L 156.493426 134.546609 
L 156.895215 131.16279 
z
" clip-path="url(#pcfb1209100)" style="fill: #1f77b4; stroke: #000000"/>
    <path d="M 233.595496 171.777344 
L 241.537302 176.003429 
L 222.452177 182.90662 
z
" clip-path="url(#pcfb1209100)" style="fill: #1f77b4; stroke: #000000"/>
    <path d="M 241.537302 176.003429 
L 233.45582 175.537542 
L 230.474891 187.209339 
z
" clip-path="url(#pcfb1209100)" style="fill: #1f77b4; stroke: #000000"/>
    <path d="M 84.301865 150.008079 
L 91.22376 126.25721 
L 80.190253 137.335379 
z
" clip-path="url(#pcfb1209100)" style="fill: #1f77b4; stroke: #000000"/>
    <path d="M 217.71775 166.194196 
L 222.452177 182.90662 
L 206.426829 177.195184 
z
" clip-path="url(#pcfb1209100)" style="fill: #1f77b4; stroke: #000000"/>
    <path d="M 112.990547 93.745799 
L 128.350039 92.64246 
L 100.197931 96.979513 
z
" clip-path="url(#pcfb1209100)" style="fill: #1f77b4; stroke: #000000"/>
    <path d="M 97.52118 184.23858 
L 103.989711 182.876152 
L 98.171233 176.867305 
z
" clip-path="url(#pcfb1209100)" style="fill: #1f77b4; stroke: #000000"/>
    <path d="M 206.303677 181.919598 
L 190.379918 180.946311 
L 178.747833 188.396544 
z
" clip-path="url(#pcfb1209100)" style="fill: #1f77b4; stroke: #000000"/>
    <path d="M 135.00605 192.471149 
L 131.826589 177.906327 
L 119.413046 187.647407 
z
" clip-path="url(#pcfb1209100)" style="fill: #1f77b4; stroke: #000000"/>
    <path d="M 100.197931 96.979513 
L 94.576075 104.170634 
L 112.990547 93.745799 
z
" clip-path="url(#pcfb1209100)" style="fill: #1f77b4; stroke: #000000"/>
    <path d="M 150.022069 99.195421 
L 147.852839 105.35283 
L 143.940616 101.337144 
z
" clip-path="url(#pcfb1209100)" style="fill: #1f77b4; stroke: #000000"/>
    <path d="M 163.09895 163.127896 
L 167.238728 145.648109 
L 175.038319 152.215582 
z
" clip-path="url(#pcfb1209100)" style="fill: #1f77b4; stroke: #000000"/>
    <path d="M 97.52118 184.23858 
L 119.413046 187.647407 
L 103.989711 182.876152 
z
" clip-path="url(#pcfb1209100)" style="fill: #1f77b4; stroke: #000000"/>
    <path d="M 88.259194 156.8901 
L 84.878038 153.869717 
L 92.208885 163.758836 
z
" clip-path="url(#pcfb1209100)" style="fill: #1f77b4; stroke: #000000"/>
    <path d="M 230.474891 187.209339 
L 233.45582 175.537542 
L 222.328095 186.697964 
z
" clip-path="url(#pcfb1209100)" style="fill: #1f77b4; stroke: #000000"/>
    <path d="M 92.208885 163.758836 
L 97.30725 172.815757 
L 98.171233 176.867305 
z
" clip-path="url(#pcfb1209100)" style="fill: #1f77b4; stroke: #000000"/>
    <path d="M 153.514518 125.567761 
L 153.692783 118.664888 
L 156.895215 131.16279 
z
" clip-path="url(#pcfb1209100)" style="fill: #1f77b4; stroke: #000000"/>
    <path d="M 153.514518 125.567761 
L 156.895215 131.16279 
L 156.493426 134.546609 
z
" clip-path="url(#pcfb1209100)" style="fill: #1f77b4; stroke: #000000"/>
    <path d="M 79.894943 125.699149 
L 92.890996 115.272705 
L 94.576075 104.170634 
z
" clip-path="url(#pcfb1209100)" style="fill: #1f77b4; stroke: #000000"/>
    <path d="M 84.878038 153.869717 
L 88.259194 156.8901 
L 84.301865 150.008079 
z
" clip-path="url(#pcfb1209100)" style="fill: #1f77b4; stroke: #000000"/>
    <path d="M 198.65863 166.298473 
L 206.426829 177.195184 
L 203.487748 182.832501 
z
" clip-path="url(#pcfb1209100)" style="fill: #1f77b4; stroke: #000000"/>
    <path d="M 203.487748 182.832501 
L 222.328095 186.697964 
L 206.303677 181.919598 
z
" clip-path="url(#pcfb1209100)" style="fill: #1f77b4; stroke: #000000"/>
    <path d="M 162.899689 187.370669 
L 147.278822 182.612816 
L 150.779216 194.97051 
z
" clip-path="url(#pcfb1209100)" style="fill: #1f77b4; stroke: #000000"/>
    <path d="M 143.940616 101.337144 
L 122.06708 93.265538 
L 128.350039 92.64246 
z
" clip-path="url(#pcfb1209100)" style="fill: #1f77b4; stroke: #000000"/>
    <path d="M 80.190253 137.335379 
L 92.890996 115.272705 
L 79.894943 125.699149 
z
" clip-path="url(#pcfb1209100)" style="fill: #1f77b4; stroke: #000000"/>
    <path d="M 167.238728 145.648109 
L 153.284287 144.291208 
L 156.493426 134.546609 
z
" clip-path="url(#pcfb1209100)" style="fill: #1f77b4; stroke: #000000"/>
    <path d="M 222.452177 182.90662 
L 241.537302 176.003429 
L 230.474891 187.209339 
z
" clip-path="url(#pcfb1209100)" style="fill: #1f77b4; stroke: #000000"/>
    <path d="M 175.038319 152.215582 
L 190.794662 159.682494 
L 178.973068 173.140662 
z
" clip-path="url(#pcfb1209100)" style="fill: #1f77b4; stroke: #000000"/>
    <path d="M 98.171233 176.867305 
L 97.30725 172.815757 
L 97.52118 184.23858 
z
" clip-path="url(#pcfb1209100)" style="fill: #1f77b4; stroke: #000000"/>
    <path d="M 203.487748 182.832501 
L 206.303677 181.919598 
L 182.760479 187.705806 
z
" clip-path="url(#pcfb1209100)" style="fill: #1f77b4; stroke: #000000"/>
    <path d="M 203.487748 182.832501 
L 206.426829 177.195184 
L 220.506131 186.689313 
z
" clip-path="url(#pcfb1209100)" style="fill: #1f77b4; stroke: #000000"/>
    <path d="M 182.760479 187.705806 
L 198.65863 166.298473 
L 203.487748 182.832501 
z
" clip-path="url(#pcfb1209100)" style="fill: #1f77b4; stroke: #000000"/>
    <path d="M 84.878038 153.869717 
L 97.30725 172.815757 
L 92.208885 163.758836 
z
" clip-path="url(#pcfb1209100)" style="fill: #1f77b4; stroke: #000000"/>
    <path d="M 163.09895 163.127896 
L 157.187143 157.047037 
L 167.238728 145.648109 
z
" clip-path="url(#pcfb1209100)" style="fill: #1f77b4; stroke: #000000"/>
    <path d="M 206.303677 181.919598 
L 178.747833 188.396544 
L 182.760479 187.705806 
z
" clip-path="url(#pcfb1209100)" style="fill: #1f77b4; stroke: #000000"/>
    <path d="M 155.095011 112.518064 
L 147.852839 105.35283 
L 153.692783 118.664888 
z
" clip-path="url(#pcfb1209100)" style="fill: #1f77b4; stroke: #000000"/>
    <path d="M 220.506131 186.689313 
L 206.426829 177.195184 
L 222.452177 182.90662 
z
" clip-path="url(#pcfb1209100)" style="fill: #1f77b4; stroke: #000000"/>
    <path d="M 100.197931 96.979513 
L 128.350039 92.64246 
L 104.026713 95.104581 
z
" clip-path="url(#pcfb1209100)" style="fill: #1f77b4; stroke: #000000"/>
    <path d="M 220.506131 186.689313 
L 222.328095 186.697964 
L 203.487748 182.832501 
z
" clip-path="url(#pcfb1209100)" style="fill: #1f77b4; stroke: #000000"/>
    <path d="M 128.350039 92.64246 
L 122.06708 93.265538 
L 104.026713 95.104581 
z
" clip-path="url(#pcfb1209100)" style="fill: #1f77b4; stroke: #000000"/>
    <path d="M 190.794662 159.682494 
L 198.65863 166.298473 
L 178.973068 173.140662 
z
" clip-path="url(#pcfb1209100)" style="fill: #1f77b4; stroke: #000000"/>
    <path d="M 150.779216 194.97051 
L 147.278822 182.612816 
L 135.00605 192.471149 
z
" clip-path="url(#pcfb1209100)" style="fill: #1f77b4; stroke: #000000"/>
    <path d="M 113.036155 189.056736 
L 119.413046 187.647407 
L 97.52118 184.23858 
z
" clip-path="url(#pcfb1209100)" style="fill: #1f77b4; stroke: #000000"/>
    <path d="M 167.238728 145.648109 
L 157.187143 157.047037 
L 153.284287 144.291208 
z
" clip-path="url(#pcfb1209100)" style="fill: #1f77b4; stroke: #000000"/>
    <path d="M 137.753626 97.591915 
L 143.940616 101.337144 
L 147.852839 105.35283 
z
" clip-path="url(#pcfb1209100)" style="fill: #1f77b4; stroke: #000000"/>
    <path d="M 175.038319 152.215582 
L 178.973068 173.140662 
L 163.09895 163.127896 
z
" clip-path="url(#pcfb1209100)" style="fill: #1f77b4; stroke: #000000"/>
    <path d="M 113.036155 189.056736 
L 135.00605 192.471149 
L 119.413046 187.647407 
z
" clip-path="url(#pcfb1209100)" style="fill: #1f77b4; stroke: #000000"/>
    <path d="M 178.747833 188.396544 
L 162.899689 187.370669 
L 150.779216 194.97051 
z
" clip-path="url(#pcfb1209100)" style="fill: #1f77b4; stroke: #000000"/>
    <path d="M 230.474891 187.209339 
L 222.328095 186.697964 
L 220.506131 186.689313 
z
" clip-path="url(#pcfb1209100)" style="fill: #1f77b4; stroke: #000000"/>
    <path d="M 155.095011 112.518064 
L 153.692783 118.664888 
L 153.514518 125.567761 
z
" clip-path="url(#pcfb1209100)" style="fill: #1f77b4; stroke: #000000"/>
    <path d="M 222.452177 182.90662 
L 230.474891 187.209339 
L 220.506131 186.689313 
z
" clip-path="url(#pcfb1209100)" style="fill: #1f77b4; stroke: #000000"/>
    <path d="M 156.493426 134.546609 
L 153.284287 144.291208 
L 153.514518 125.567761 
z
" clip-path="url(#pcfb1209100)" style="fill: #1f77b4; stroke: #000000"/>
    <path d="M 143.940616 101.337144 
L 137.753626 97.591915 
L 122.06708 93.265538 
z
" clip-path="url(#pcfb1209100)" style="fill: #1f77b4; stroke: #000000"/>
    <path d="M 181.612672 175.854892 
L 198.65863 166.298473 
L 182.760479 187.705806 
z
" clip-path="url(#pcfb1209100)" style="fill: #1f77b4; stroke: #000000"/>
    <path d="M 79.894943 125.699149 
L 94.576075 104.170634 
L 79.596842 113.95294 
z
" clip-path="url(#pcfb1209100)" style="fill: #1f77b4; stroke: #000000"/>
    <path d="M 84.301865 150.008079 
L 80.190253 137.335379 
L 72.080207 149.690033 
z
" clip-path="url(#pcfb1209100)" style="fill: #1f77b4; stroke: #000000"/>
    <path d="M 84.878038 153.869717 
L 84.301865 150.008079 
L 74.748574 153.391116 
z
" clip-path="url(#pcfb1209100)" style="fill: #1f77b4; stroke: #000000"/>
    <path d="M 182.760479 187.705806 
L 178.747833 188.396544 
L 175.799819 189.342366 
z
" clip-path="url(#pcfb1209100)" style="fill: #1f77b4; stroke: #000000"/>
    <path d="M 155.095011 112.518064 
L 137.753626 97.591915 
L 147.852839 105.35283 
z
" clip-path="url(#pcfb1209100)" style="fill: #1f77b4; stroke: #000000"/>
    <path d="M 178.973068 173.140662 
L 198.65863 166.298473 
L 181.612672 175.854892 
z
" clip-path="url(#pcfb1209100)" style="fill: #1f77b4; stroke: #000000"/>
    <path d="M 84.485034 103.564654 
L 94.576075 104.170634 
L 100.197931 96.979513 
z
" clip-path="url(#pcfb1209100)" style="fill: #1f77b4; stroke: #000000"/>
    <path d="M 112.894464 177.593414 
L 97.52118 184.23858 
L 97.30725 172.815757 
z
" clip-path="url(#pcfb1209100)" style="fill: #1f77b4; stroke: #000000"/>
    <path d="M 112.894464 177.593414 
L 113.036155 189.056736 
L 97.52118 184.23858 
z
" clip-path="url(#pcfb1209100)" style="fill: #1f77b4; stroke: #000000"/>
    <path d="M 84.878038 153.869717 
L 95.462266 162.672388 
L 97.30725 172.815757 
z
" clip-path="url(#pcfb1209100)" style="fill: #1f77b4; stroke: #000000"/>
    <path d="M 100.197931 96.979513 
L 104.026713 95.104581 
L 93.659801 99.129916 
z
" clip-path="url(#pcfb1209100)" style="fill: #1f77b4; stroke: #000000"/>
    <path d="M 130.298071 192.489967 
L 135.00605 192.471149 
L 113.036155 189.056736 
z
" clip-path="url(#pcfb1209100)" style="fill: #1f77b4; stroke: #000000"/>
    <path d="M 72.080207 149.690033 
L 80.190253 137.335379 
L 79.894943 125.699149 
z
" clip-path="url(#pcfb1209100)" style="fill: #1f77b4; stroke: #000000"/>
    <path d="M 175.799819 189.342366 
L 181.612672 175.854892 
L 182.760479 187.705806 
z
" clip-path="url(#pcfb1209100)" style="fill: #1f77b4; stroke: #000000"/>
    <path d="M 175.799819 189.342366 
L 178.747833 188.396544 
L 154.761099 194.288898 
z
" clip-path="url(#pcfb1209100)" style="fill: #1f77b4; stroke: #000000"/>
    <path d="M 104.026713 95.104581 
L 122.06708 93.265538 
L 115.63132 89.421876 
z
" clip-path="url(#pcfb1209100)" style="fill: #1f77b4; stroke: #000000"/>
    <path d="M 84.485034 103.564654 
L 79.596842 113.95294 
L 94.576075 104.170634 
z
" clip-path="url(#pcfb1209100)" style="fill: #1f77b4; stroke: #000000"/>
    <path d="M 130.298071 192.489967 
L 150.779216 194.97051 
L 135.00605 192.471149 
z
" clip-path="url(#pcfb1209100)" style="fill: #1f77b4; stroke: #000000"/>
    <path d="M 178.747833 188.396544 
L 150.779216 194.97051 
L 154.761099 194.288898 
z
" clip-path="url(#pcfb1209100)" style="fill: #1f77b4; stroke: #000000"/>
    <path d="M 153.514518 125.567761 
L 155.326275 133.160623 
L 155.095011 112.518064 
z
" clip-path="url(#pcfb1209100)" style="fill: #1f77b4; stroke: #000000"/>
    <path d="M 84.301865 150.008079 
L 72.080207 149.690033 
L 74.748574 153.391116 
z
" clip-path="url(#pcfb1209100)" style="fill: #1f77b4; stroke: #000000"/>
    <path d="M 175.955207 177.876651 
L 181.612672 175.854892 
L 175.799819 189.342366 
z
" clip-path="url(#pcfb1209100)" style="fill: #1f77b4; stroke: #000000"/>
    <path d="M 153.514518 125.567761 
L 153.284287 144.291208 
L 155.326275 133.160623 
z
" clip-path="url(#pcfb1209100)" style="fill: #1f77b4; stroke: #000000"/>
    <path d="M 150.831833 178.676811 
L 157.187143 157.047037 
L 163.09895 163.127896 
z
" clip-path="url(#pcfb1209100)" style="fill: #1f77b4; stroke: #000000"/>
    <path d="M 93.659801 99.129916 
L 104.026713 95.104581 
L 115.63132 89.421876 
z
" clip-path="url(#pcfb1209100)" style="fill: #1f77b4; stroke: #000000"/>
    <path d="M 178.973068 173.140662 
L 181.612672 175.854892 
L 175.955207 177.876651 
z
" clip-path="url(#pcfb1209100)" style="fill: #1f77b4; stroke: #000000"/>
    <path d="M 93.659801 99.129916 
L 84.485034 103.564654 
L 100.197931 96.979513 
z
" clip-path="url(#pcfb1209100)" style="fill: #1f77b4; stroke: #000000"/>
    <path d="M 131.441087 93.770686 
L 122.06708 93.265538 
L 137.753626 97.591915 
z
" clip-path="url(#pcfb1209100)" style="fill: #1f77b4; stroke: #000000"/>
    <path d="M 150.831833 178.676811 
L 163.09895 163.127896 
L 178.973068 173.140662 
z
" clip-path="url(#pcfb1209100)" style="fill: #1f77b4; stroke: #000000"/>
    <path d="M 157.187143 157.047037 
L 142.86582 167.564897 
L 153.284287 144.291208 
z
" clip-path="url(#pcfb1209100)" style="fill: #1f77b4; stroke: #000000"/>
    <path d="M 84.878038 153.869717 
L 90.418052 161.030859 
L 95.462266 162.672388 
z
" clip-path="url(#pcfb1209100)" style="fill: #1f77b4; stroke: #000000"/>
    <path d="M 68.499424 136.975698 
L 79.894943 125.699149 
L 79.596842 113.95294 
z
" clip-path="url(#pcfb1209100)" style="fill: #1f77b4; stroke: #000000"/>
    <path d="M 128.655396 182.424317 
L 130.298071 192.489967 
L 113.036155 189.056736 
z
" clip-path="url(#pcfb1209100)" style="fill: #1f77b4; stroke: #000000"/>
    <path d="M 148.727653 194.986329 
L 150.779216 194.97051 
L 130.298071 192.489967 
z
" clip-path="url(#pcfb1209100)" style="fill: #1f77b4; stroke: #000000"/>
    <path d="M 128.655396 182.424317 
L 113.036155 189.056736 
L 112.894464 177.593414 
z
" clip-path="url(#pcfb1209100)" style="fill: #1f77b4; stroke: #000000"/>
    <path d="M 111.138996 167.424067 
L 112.894464 177.593414 
L 97.30725 172.815757 
z
" clip-path="url(#pcfb1209100)" style="fill: #1f77b4; stroke: #000000"/>
    <path d="M 111.138996 167.424067 
L 97.30725 172.815757 
L 95.462266 162.672388 
z
" clip-path="url(#pcfb1209100)" style="fill: #1f77b4; stroke: #000000"/>
    <path d="M 149.488902 105.431388 
L 137.753626 97.591915 
L 155.095011 112.518064 
z
" clip-path="url(#pcfb1209100)" style="fill: #1f77b4; stroke: #000000"/>
    <path d="M 175.799819 189.342366 
L 154.817205 182.781879 
L 175.955207 177.876651 
z
" clip-path="url(#pcfb1209100)" style="fill: #1f77b4; stroke: #000000"/>
    <path d="M 115.63132 89.421876 
L 122.06708 93.265538 
L 131.441087 93.770686 
z
" clip-path="url(#pcfb1209100)" style="fill: #1f77b4; stroke: #000000"/>
    <path d="M 154.761099 194.288898 
L 150.779216 194.97051 
L 148.727653 194.986329 
z
" clip-path="url(#pcfb1209100)" style="fill: #1f77b4; stroke: #000000"/>
    <path d="M 84.878038 153.869717 
L 74.748574 153.391116 
L 90.418052 161.030859 
z
" clip-path="url(#pcfb1209100)" style="fill: #1f77b4; stroke: #000000"/>
    <path d="M 175.799819 189.342366 
L 154.761099 194.288898 
L 154.817205 182.781879 
z
" clip-path="url(#pcfb1209100)" style="fill: #1f77b4; stroke: #000000"/>
    <path d="M 150.831833 178.676811 
L 178.973068 173.140662 
L 175.955207 177.876651 
z
" clip-path="url(#pcfb1209100)" style="fill: #1f77b4; stroke: #000000"/>
    <path d="M 72.080207 149.690033 
L 79.894943 125.699149 
L 68.499424 136.975698 
z
" clip-path="url(#pcfb1209100)" style="fill: #1f77b4; stroke: #000000"/>
    <path d="M 150.831833 178.676811 
L 142.86582 167.564897 
L 157.187143 157.047037 
z
" clip-path="url(#pcfb1209100)" style="fill: #1f77b4; stroke: #000000"/>
    <path d="M 113.993423 87.698901 
L 93.659801 99.129916 
L 115.63132 89.421876 
z
" clip-path="url(#pcfb1209100)" style="fill: #1f77b4; stroke: #000000"/>
    <path d="M 148.755056 183.473507 
L 148.727653 194.986329 
L 130.298071 192.489967 
z
" clip-path="url(#pcfb1209100)" style="fill: #1f77b4; stroke: #000000"/>
    <path d="M 148.727653 194.986329 
L 154.817205 182.781879 
L 154.761099 194.288898 
z
" clip-path="url(#pcfb1209100)" style="fill: #1f77b4; stroke: #000000"/>
    <path d="M 155.095011 112.518064 
L 155.326275 133.160623 
L 160.739221 122.853832 
z
" clip-path="url(#pcfb1209100)" style="fill: #1f77b4; stroke: #000000"/>
    <path d="M 148.755056 183.473507 
L 130.298071 192.489967 
L 128.655396 182.424317 
z
" clip-path="url(#pcfb1209100)" style="fill: #1f77b4; stroke: #000000"/>
    <path d="M 153.284287 144.291208 
L 142.865291 155.868183 
L 155.326275 133.160623 
z
" clip-path="url(#pcfb1209100)" style="fill: #1f77b4; stroke: #000000"/>
    <path d="M 90.133275 89.740375 
L 93.659801 99.129916 
L 113.993423 87.698901 
z
" clip-path="url(#pcfb1209100)" style="fill: #1f77b4; stroke: #000000"/>
    <path d="M 154.817205 182.781879 
L 150.831833 178.676811 
L 175.955207 177.876651 
z
" clip-path="url(#pcfb1209100)" style="fill: #1f77b4; stroke: #000000"/>
    <path d="M 155.095011 112.518064 
L 160.739221 122.853832 
L 149.488902 105.431388 
z
" clip-path="url(#pcfb1209100)" style="fill: #1f77b4; stroke: #000000"/>
    <path d="M 84.485034 103.564654 
L 93.659801 99.129916 
L 82.900301 91.214402 
z
" clip-path="url(#pcfb1209100)" style="fill: #1f77b4; stroke: #000000"/>
    <path d="M 148.755056 183.473507 
L 154.817205 182.781879 
L 148.727653 194.986329 
z
" clip-path="url(#pcfb1209100)" style="fill: #1f77b4; stroke: #000000"/>
    <path d="M 131.441087 93.770686 
L 113.993423 87.698901 
L 115.63132 89.421876 
z
" clip-path="url(#pcfb1209100)" style="fill: #1f77b4; stroke: #000000"/>
    <path d="M 72.432667 152.306717 
L 74.748574 153.391116 
L 72.080207 149.690033 
z
" clip-path="url(#pcfb1209100)" style="fill: #1f77b4; stroke: #000000"/>
    <path d="M 153.284287 144.291208 
L 142.86582 167.564897 
L 142.865291 155.868183 
z
" clip-path="url(#pcfb1209100)" style="fill: #1f77b4; stroke: #000000"/>
    <path d="M 128.586919 170.810284 
L 128.655396 182.424317 
L 112.894464 177.593414 
z
" clip-path="url(#pcfb1209100)" style="fill: #1f77b4; stroke: #000000"/>
    <path d="M 147.417769 104.180168 
L 137.753626 97.591915 
L 149.488902 105.431388 
z
" clip-path="url(#pcfb1209100)" style="fill: #1f77b4; stroke: #000000"/>
    <path d="M 131.441087 93.770686 
L 137.753626 97.591915 
L 147.417769 104.180168 
z
" clip-path="url(#pcfb1209100)" style="fill: #1f77b4; stroke: #000000"/>
    <path d="M 82.900301 91.214402 
L 93.659801 99.129916 
L 90.133275 89.740375 
z
" clip-path="url(#pcfb1209100)" style="fill: #1f77b4; stroke: #000000"/>
    <path d="M 128.586919 170.810284 
L 112.894464 177.593414 
L 111.138996 167.424067 
z
" clip-path="url(#pcfb1209100)" style="fill: #1f77b4; stroke: #000000"/>
    <path d="M 71.400035 126.073317 
L 79.596842 113.95294 
L 84.485034 103.564654 
z
" clip-path="url(#pcfb1209100)" style="fill: #1f77b4; stroke: #000000"/>
    <path d="M 150.831833 178.676811 
L 154.817205 182.781879 
L 148.755056 183.473507 
z
" clip-path="url(#pcfb1209100)" style="fill: #1f77b4; stroke: #000000"/>
    <path d="M 72.432667 152.306717 
L 90.418052 161.030859 
L 74.748574 153.391116 
z
" clip-path="url(#pcfb1209100)" style="fill: #1f77b4; stroke: #000000"/>
    <path d="M 150.831833 178.676811 
L 148.755056 183.473507 
L 142.86582 167.564897 
z
" clip-path="url(#pcfb1209100)" style="fill: #1f77b4; stroke: #000000"/>
    <path d="M 68.499424 136.975698 
L 79.596842 113.95294 
L 71.400035 126.073317 
z
" clip-path="url(#pcfb1209100)" style="fill: #1f77b4; stroke: #000000"/>
    <path d="M 95.462266 162.672388 
L 106.181759 165.808267 
L 111.138996 167.424067 
z
" clip-path="url(#pcfb1209100)" style="fill: #1f77b4; stroke: #000000"/>
    <path d="M 148.755056 183.473507 
L 128.655396 182.424317 
L 128.586919 170.810284 
z
" clip-path="url(#pcfb1209100)" style="fill: #1f77b4; stroke: #000000"/>
    <path d="M 95.462266 162.672388 
L 90.418052 161.030859 
L 106.181759 165.808267 
z
" clip-path="url(#pcfb1209100)" style="fill: #1f77b4; stroke: #000000"/>
    <path d="M 148.755056 183.473507 
L 128.586919 170.810284 
L 142.86582 167.564897 
z
" clip-path="url(#pcfb1209100)" style="fill: #1f77b4; stroke: #000000"/>
    <path d="M 131.441087 93.770686 
L 129.308328 92.479666 
L 113.993423 87.698901 
z
" clip-path="url(#pcfb1209100)" style="fill: #1f77b4; stroke: #000000"/>
    <path d="M 113.993423 87.698901 
L 108.982935 79.434929 
L 90.133275 89.740375 
z
" clip-path="url(#pcfb1209100)" style="fill: #1f77b4; stroke: #000000"/>
    <path d="M 72.080207 149.690033 
L 67.572623 144.19638 
L 72.432667 152.306717 
z
" clip-path="url(#pcfb1209100)" style="fill: #1f77b4; stroke: #000000"/>
    <path d="M 68.499424 136.975698 
L 67.572623 144.19638 
L 72.080207 149.690033 
z
" clip-path="url(#pcfb1209100)" style="fill: #1f77b4; stroke: #000000"/>
    <path d="M 155.326275 133.160623 
L 144.878309 144.646042 
L 160.739221 122.853832 
z
" clip-path="url(#pcfb1209100)" style="fill: #1f77b4; stroke: #000000"/>
    <path d="M 149.488902 105.431388 
L 160.739221 122.853832 
L 155.444637 109.410011 
z
" clip-path="url(#pcfb1209100)" style="fill: #1f77b4; stroke: #000000"/>
    <path d="M 147.417769 104.180168 
L 129.308328 92.479666 
L 131.441087 93.770686 
z
" clip-path="url(#pcfb1209100)" style="fill: #1f77b4; stroke: #000000"/>
    <path d="M 82.900301 91.214402 
L 90.133275 89.740375 
L 78.68539 78.038632 
z
" clip-path="url(#pcfb1209100)" style="fill: #1f77b4; stroke: #000000"/>
    <path d="M 149.488902 105.431388 
L 155.444637 109.410011 
L 147.417769 104.180168 
z
" clip-path="url(#pcfb1209100)" style="fill: #1f77b4; stroke: #000000"/>
    <path d="M 78.68539 78.038632 
L 90.133275 89.740375 
L 91.537161 76.395366 
z
" clip-path="url(#pcfb1209100)" style="fill: #1f77b4; stroke: #000000"/>
    <path d="M 155.326275 133.160623 
L 142.865291 155.868183 
L 144.878309 144.646042 
z
" clip-path="url(#pcfb1209100)" style="fill: #1f77b4; stroke: #000000"/>
    <path d="M 71.400035 126.073317 
L 84.485034 103.564654 
L 80.427055 109.54124 
z
" clip-path="url(#pcfb1209100)" style="fill: #1f77b4; stroke: #000000"/>
    <path d="M 82.900301 91.214402 
L 80.125826 97.493037 
L 84.485034 103.564654 
z
" clip-path="url(#pcfb1209100)" style="fill: #1f77b4; stroke: #000000"/>
    <path d="M 83.624172 160.772221 
L 90.418052 161.030859 
L 72.432667 152.306717 
z
" clip-path="url(#pcfb1209100)" style="fill: #1f77b4; stroke: #000000"/>
    <path d="M 90.133275 89.740375 
L 108.982935 79.434929 
L 91.537161 76.395366 
z
" clip-path="url(#pcfb1209100)" style="fill: #1f77b4; stroke: #000000"/>
    <path d="M 84.485034 103.564654 
L 80.125826 97.493037 
L 80.427055 109.54124 
z
" clip-path="url(#pcfb1209100)" style="fill: #1f77b4; stroke: #000000"/>
    <path d="M 111.138996 167.424067 
L 122.098407 167.692077 
L 128.586919 170.810284 
z
" clip-path="url(#pcfb1209100)" style="fill: #1f77b4; stroke: #000000"/>
    <path d="M 129.308328 92.479666 
L 123.338319 85.070451 
L 113.993423 87.698901 
z
" clip-path="url(#pcfb1209100)" style="fill: #1f77b4; stroke: #000000"/>
    <path d="M 71.400035 126.073317 
L 70.621114 129.545537 
L 68.499424 136.975698 
z
" clip-path="url(#pcfb1209100)" style="fill: #1f77b4; stroke: #000000"/>
    <path d="M 83.624172 160.772221 
L 106.181759 165.808267 
L 90.418052 161.030859 
z
" clip-path="url(#pcfb1209100)" style="fill: #1f77b4; stroke: #000000"/>
    <path d="M 124.754095 165.544299 
L 142.86582 167.564897 
L 128.586919 170.810284 
z
" clip-path="url(#pcfb1209100)" style="fill: #1f77b4; stroke: #000000"/>
    <path d="M 72.432667 152.306717 
L 67.572623 144.19638 
L 83.624172 160.772221 
z
" clip-path="url(#pcfb1209100)" style="fill: #1f77b4; stroke: #000000"/>
    <path d="M 124.754095 165.544299 
L 142.865291 155.868183 
L 142.86582 167.564897 
z
" clip-path="url(#pcfb1209100)" style="fill: #1f77b4; stroke: #000000"/>
    <path d="M 111.138996 167.424067 
L 106.181759 165.808267 
L 122.098407 167.692077 
z
" clip-path="url(#pcfb1209100)" style="fill: #1f77b4; stroke: #000000"/>
    <path d="M 78.68539 78.038632 
L 91.537161 76.395366 
L 86.447588 75.627371 
z
" clip-path="url(#pcfb1209100)" style="fill: #1f77b4; stroke: #000000"/>
    <path d="M 113.993423 87.698901 
L 123.338319 85.070451 
L 108.982935 79.434929 
z
" clip-path="url(#pcfb1209100)" style="fill: #1f77b4; stroke: #000000"/>
    <path d="M 68.499424 136.975698 
L 70.621114 129.545537 
L 67.572623 144.19638 
z
" clip-path="url(#pcfb1209100)" style="fill: #1f77b4; stroke: #000000"/>
    <path d="M 73.845526 120.85847 
L 71.400035 126.073317 
L 80.427055 109.54124 
z
" clip-path="url(#pcfb1209100)" style="fill: #1f77b4; stroke: #000000"/>
    <path d="M 160.739221 122.853832 
L 144.878309 144.646042 
L 157.240454 129.003189 
z
" clip-path="url(#pcfb1209100)" style="fill: #1f77b4; stroke: #000000"/>
    <path d="M 147.417769 104.180168 
L 137.930315 103.012874 
L 129.308328 92.479666 
z
" clip-path="url(#pcfb1209100)" style="fill: #1f77b4; stroke: #000000"/>
    <path d="M 147.417769 104.180168 
L 155.444637 109.410011 
L 137.930315 103.012874 
z
" clip-path="url(#pcfb1209100)" style="fill: #1f77b4; stroke: #000000"/>
    <path d="M 78.68539 78.038632 
L 76.42403 87.918881 
L 82.900301 91.214402 
z
" clip-path="url(#pcfb1209100)" style="fill: #1f77b4; stroke: #000000"/>
    <path d="M 71.400035 126.073317 
L 73.845526 120.85847 
L 70.621114 129.545537 
z
" clip-path="url(#pcfb1209100)" style="fill: #1f77b4; stroke: #000000"/>
    <path d="M 102.33757 79.965541 
L 91.537161 76.395366 
L 108.982935 79.434929 
z
" clip-path="url(#pcfb1209100)" style="fill: #1f77b4; stroke: #000000"/>
    <path d="M 155.444637 109.410011 
L 160.739221 122.853832 
L 148.971727 121.826125 
z
" clip-path="url(#pcfb1209100)" style="fill: #1f77b4; stroke: #000000"/>
    <path d="M 80.427055 109.54124 
L 77.623636 115.988104 
L 73.845526 120.85847 
z
" clip-path="url(#pcfb1209100)" style="fill: #1f77b4; stroke: #000000"/>
    <path d="M 77.623636 115.988104 
L 80.427055 109.54124 
L 80.125826 97.493037 
z
" clip-path="url(#pcfb1209100)" style="fill: #1f77b4; stroke: #000000"/>
    <path d="M 142.865291 155.868183 
L 124.754095 165.544299 
L 144.878309 144.646042 
z
" clip-path="url(#pcfb1209100)" style="fill: #1f77b4; stroke: #000000"/>
    <path d="M 86.447588 75.627371 
L 91.537161 76.395366 
L 102.33757 79.965541 
z
" clip-path="url(#pcfb1209100)" style="fill: #1f77b4; stroke: #000000"/>
    <path d="M 82.900301 91.214402 
L 76.42403 87.918881 
L 80.125826 97.493037 
z
" clip-path="url(#pcfb1209100)" style="fill: #1f77b4; stroke: #000000"/>
    <path d="M 160.739221 122.853832 
L 157.240454 129.003189 
L 150.994027 128.450052 
z
" clip-path="url(#pcfb1209100)" style="fill: #1f77b4; stroke: #000000"/>
    <path d="M 99.492656 165.59159 
L 106.181759 165.808267 
L 83.624172 160.772221 
z
" clip-path="url(#pcfb1209100)" style="fill: #1f77b4; stroke: #000000"/>
    <path d="M 122.098407 167.692077 
L 124.754095 165.544299 
L 128.586919 170.810284 
z
" clip-path="url(#pcfb1209100)" style="fill: #1f77b4; stroke: #000000"/>
    <path d="M 78.68539 78.038632 
L 86.447588 75.627371 
L 76.42403 87.918881 
z
" clip-path="url(#pcfb1209100)" style="fill: #1f77b4; stroke: #000000"/>
    <path d="M 144.878309 144.646042 
L 150.964919 137.463761 
L 157.240454 129.003189 
z
" clip-path="url(#pcfb1209100)" style="fill: #1f77b4; stroke: #000000"/>
    <path d="M 99.492656 165.59159 
L 122.098407 167.692077 
L 106.181759 165.808267 
z
" clip-path="url(#pcfb1209100)" style="fill: #1f77b4; stroke: #000000"/>
    <path d="M 123.338319 85.070451 
L 129.308328 92.479666 
L 137.930315 103.012874 
z
" clip-path="url(#pcfb1209100)" style="fill: #1f77b4; stroke: #000000"/>
    <path d="M 83.624172 160.772221 
L 67.572623 144.19638 
L 76.62577 157.528703 
z
" clip-path="url(#pcfb1209100)" style="fill: #1f77b4; stroke: #000000"/>
    <path d="M 72.570318 153.339959 
L 67.572623 144.19638 
L 70.621114 129.545537 
z
" clip-path="url(#pcfb1209100)" style="fill: #1f77b4; stroke: #000000"/>
    <path d="M 77.623636 115.988104 
L 80.125826 97.493037 
L 77.306355 103.873499 
z
" clip-path="url(#pcfb1209100)" style="fill: #1f77b4; stroke: #000000"/>
    <path d="M 148.971727 121.826125 
L 160.739221 122.853832 
L 150.994027 128.450052 
z
" clip-path="url(#pcfb1209100)" style="fill: #1f77b4; stroke: #000000"/>
    <path d="M 153.688301 135.246374 
L 157.240454 129.003189 
L 150.964919 137.463761 
z
" clip-path="url(#pcfb1209100)" style="fill: #1f77b4; stroke: #000000"/>
    <path d="M 118.408808 84.353196 
L 108.982935 79.434929 
L 123.338319 85.070451 
z
" clip-path="url(#pcfb1209100)" style="fill: #1f77b4; stroke: #000000"/>
    <path d="M 155.444637 109.410011 
L 138.78577 106.80248 
L 137.930315 103.012874 
z
" clip-path="url(#pcfb1209100)" style="fill: #1f77b4; stroke: #000000"/>
    <path d="M 102.33757 79.965541 
L 108.982935 79.434929 
L 118.408808 84.353196 
z
" clip-path="url(#pcfb1209100)" style="fill: #1f77b4; stroke: #000000"/>
    <path d="M 157.240454 129.003189 
L 153.688301 135.246374 
L 150.994027 128.450052 
z
" clip-path="url(#pcfb1209100)" style="fill: #1f77b4; stroke: #000000"/>
    <path d="M 124.754095 165.544299 
L 122.098407 167.692077 
L 118.81854 167.592067 
z
" clip-path="url(#pcfb1209100)" style="fill: #1f77b4; stroke: #000000"/>
    <path d="M 118.81854 167.592067 
L 122.098407 167.692077 
L 99.492656 165.59159 
z
" clip-path="url(#pcfb1209100)" style="fill: #1f77b4; stroke: #000000"/>
    <path d="M 77.306355 103.873499 
L 80.125826 97.493037 
L 76.42403 87.918881 
z
" clip-path="url(#pcfb1209100)" style="fill: #1f77b4; stroke: #000000"/>
    <path d="M 144.878309 144.646042 
L 124.754095 165.544299 
L 130.068566 155.24999 
z
" clip-path="url(#pcfb1209100)" style="fill: #1f77b4; stroke: #000000"/>
    <path d="M 155.444637 109.410011 
L 148.971727 121.826125 
L 138.78577 106.80248 
z
" clip-path="url(#pcfb1209100)" style="fill: #1f77b4; stroke: #000000"/>
    <path d="M 73.845526 120.85847 
L 79.334596 127.610308 
L 70.621114 129.545537 
z
" clip-path="url(#pcfb1209100)" style="fill: #1f77b4; stroke: #000000"/>
    <path d="M 67.572623 144.19638 
L 72.570318 153.339959 
L 76.62577 157.528703 
z
" clip-path="url(#pcfb1209100)" style="fill: #1f77b4; stroke: #000000"/>
    <path d="M 83.624172 160.772221 
L 92.680829 165.370937 
L 99.492656 165.59159 
z
" clip-path="url(#pcfb1209100)" style="fill: #1f77b4; stroke: #000000"/>
    <path d="M 77.623636 115.988104 
L 79.334596 127.610308 
L 73.845526 120.85847 
z
" clip-path="url(#pcfb1209100)" style="fill: #1f77b4; stroke: #000000"/>
    <path d="M 76.42403 87.918881 
L 86.447588 75.627371 
L 75.657245 91.269079 
z
" clip-path="url(#pcfb1209100)" style="fill: #1f77b4; stroke: #000000"/>
    <path d="M 153.688301 135.246374 
L 150.964919 137.463761 
L 147.810192 137.22556 
z
" clip-path="url(#pcfb1209100)" style="fill: #1f77b4; stroke: #000000"/>
    <path d="M 144.878309 144.646042 
L 132.046732 143.817831 
L 150.964919 137.463761 
z
" clip-path="url(#pcfb1209100)" style="fill: #1f77b4; stroke: #000000"/>
    <path d="M 83.624172 160.772221 
L 76.62577 157.528703 
L 92.680829 165.370937 
z
" clip-path="url(#pcfb1209100)" style="fill: #1f77b4; stroke: #000000"/>
    <path d="M 123.338319 85.070451 
L 137.930315 103.012874 
L 134.699895 99.557443 
z
" clip-path="url(#pcfb1209100)" style="fill: #1f77b4; stroke: #000000"/>
    <path d="M 72.570318 153.339959 
L 70.621114 129.545537 
L 72.226264 141.328518 
z
" clip-path="url(#pcfb1209100)" style="fill: #1f77b4; stroke: #000000"/>
    <path d="M 86.447588 75.627371 
L 102.33757 79.965541 
L 88.869176 88.821566 
z
" clip-path="url(#pcfb1209100)" style="fill: #1f77b4; stroke: #000000"/>
    <path d="M 150.994027 128.450052 
L 153.688301 135.246374 
L 147.810192 137.22556 
z
" clip-path="url(#pcfb1209100)" style="fill: #1f77b4; stroke: #000000"/>
    <path d="M 77.306355 103.873499 
L 76.42403 87.918881 
L 75.657245 91.269079 
z
" clip-path="url(#pcfb1209100)" style="fill: #1f77b4; stroke: #000000"/>
    <path d="M 148.971727 121.826125 
L 150.994027 128.450052 
L 147.810192 137.22556 
z
" clip-path="url(#pcfb1209100)" style="fill: #1f77b4; stroke: #000000"/>
    <path d="M 130.068566 155.24999 
L 132.046732 143.817831 
L 144.878309 144.646042 
z
" clip-path="url(#pcfb1209100)" style="fill: #1f77b4; stroke: #000000"/>
    <path d="M 123.338319 85.070451 
L 130.605751 92.297743 
L 118.408808 84.353196 
z
" clip-path="url(#pcfb1209100)" style="fill: #1f77b4; stroke: #000000"/>
    <path d="M 77.306355 103.873499 
L 82.458813 112.656549 
L 77.623636 115.988104 
z
" clip-path="url(#pcfb1209100)" style="fill: #1f77b4; stroke: #000000"/>
    <path d="M 130.605751 92.297743 
L 123.338319 85.070451 
L 134.699895 99.557443 
z
" clip-path="url(#pcfb1209100)" style="fill: #1f77b4; stroke: #000000"/>
    <path d="M 137.930315 103.012874 
L 138.78577 106.80248 
L 134.699895 99.557443 
z
" clip-path="url(#pcfb1209100)" style="fill: #1f77b4; stroke: #000000"/>
    <path d="M 86.447588 75.627371 
L 88.869176 88.821566 
L 75.657245 91.269079 
z
" clip-path="url(#pcfb1209100)" style="fill: #1f77b4; stroke: #000000"/>
    <path d="M 132.046732 143.817831 
L 147.810192 137.22556 
L 150.964919 137.463761 
z
" clip-path="url(#pcfb1209100)" style="fill: #1f77b4; stroke: #000000"/>
    <path d="M 74.26068 156.432554 
L 76.62577 157.528703 
L 72.570318 153.339959 
z
" clip-path="url(#pcfb1209100)" style="fill: #1f77b4; stroke: #000000"/>
    <path d="M 76.056151 136.462896 
L 72.226264 141.328518 
L 70.621114 129.545537 
z
" clip-path="url(#pcfb1209100)" style="fill: #1f77b4; stroke: #000000"/>
    <path d="M 99.492656 165.59159 
L 108.797152 167.286493 
L 118.81854 167.592067 
z
" clip-path="url(#pcfb1209100)" style="fill: #1f77b4; stroke: #000000"/>
    <path d="M 79.334596 127.610308 
L 76.056151 136.462896 
L 70.621114 129.545537 
z
" clip-path="url(#pcfb1209100)" style="fill: #1f77b4; stroke: #000000"/>
    <path d="M 111.472816 165.098057 
L 124.754095 165.544299 
L 118.81854 167.592067 
z
" clip-path="url(#pcfb1209100)" style="fill: #1f77b4; stroke: #000000"/>
    <path d="M 132.046732 143.817831 
L 148.971727 121.826125 
L 147.810192 137.22556 
z
" clip-path="url(#pcfb1209100)" style="fill: #1f77b4; stroke: #000000"/>
    <path d="M 74.26068 156.432554 
L 92.680829 165.370937 
L 76.62577 157.528703 
z
" clip-path="url(#pcfb1209100)" style="fill: #1f77b4; stroke: #000000"/>
    <path d="M 77.623636 115.988104 
L 82.458813 112.656549 
L 79.334596 127.610308 
z
" clip-path="url(#pcfb1209100)" style="fill: #1f77b4; stroke: #000000"/>
    <path d="M 102.33757 79.965541 
L 118.408808 84.353196 
L 105.153445 97.462382 
z
" clip-path="url(#pcfb1209100)" style="fill: #1f77b4; stroke: #000000"/>
    <path d="M 111.472816 165.098057 
L 130.068566 155.24999 
L 124.754095 165.544299 
z
" clip-path="url(#pcfb1209100)" style="fill: #1f77b4; stroke: #000000"/>
    <path d="M 99.492656 165.59159 
L 92.680829 165.370937 
L 108.797152 167.286493 
z
" clip-path="url(#pcfb1209100)" style="fill: #1f77b4; stroke: #000000"/>
    <path d="M 134.699895 99.557443 
L 138.78577 106.80248 
L 128.234471 111.033298 
z
" clip-path="url(#pcfb1209100)" style="fill: #1f77b4; stroke: #000000"/>
    <path d="M 72.570318 153.339959 
L 72.771628 145.331896 
L 74.26068 156.432554 
z
" clip-path="url(#pcfb1209100)" style="fill: #1f77b4; stroke: #000000"/>
    <path d="M 130.605751 92.297743 
L 134.699895 99.557443 
L 128.234471 111.033298 
z
" clip-path="url(#pcfb1209100)" style="fill: #1f77b4; stroke: #000000"/>
    <path d="M 72.226264 141.328518 
L 72.771628 145.331896 
L 72.570318 153.339959 
z
" clip-path="url(#pcfb1209100)" style="fill: #1f77b4; stroke: #000000"/>
    <path d="M 138.78577 106.80248 
L 148.971727 121.826125 
L 129.941504 131.072684 
z
" clip-path="url(#pcfb1209100)" style="fill: #1f77b4; stroke: #000000"/>
    <path d="M 75.657245 91.269079 
L 80.435375 101.674727 
L 77.306355 103.873499 
z
" clip-path="url(#pcfb1209100)" style="fill: #1f77b4; stroke: #000000"/>
    <path d="M 118.408808 84.353196 
L 130.605751 92.297743 
L 105.153445 97.462382 
z
" clip-path="url(#pcfb1209100)" style="fill: #1f77b4; stroke: #000000"/>
    <path d="M 102.33757 79.965541 
L 105.153445 97.462382 
L 88.869176 88.821566 
z
" clip-path="url(#pcfb1209100)" style="fill: #1f77b4; stroke: #000000"/>
    <path d="M 129.941504 131.072684 
L 148.971727 121.826125 
L 132.046732 143.817831 
z
" clip-path="url(#pcfb1209100)" style="fill: #1f77b4; stroke: #000000"/>
    <path d="M 128.234471 111.033298 
L 138.78577 106.80248 
L 121.687034 119.543434 
z
" clip-path="url(#pcfb1209100)" style="fill: #1f77b4; stroke: #000000"/>
    <path d="M 85.742869 165.146199 
L 92.680829 165.370937 
L 74.26068 156.432554 
z
" clip-path="url(#pcfb1209100)" style="fill: #1f77b4; stroke: #000000"/>
    <path d="M 72.226264 141.328518 
L 76.056151 136.462896 
L 72.771628 145.331896 
z
" clip-path="url(#pcfb1209100)" style="fill: #1f77b4; stroke: #000000"/>
    <path d="M 108.797152 167.286493 
L 111.472816 165.098057 
L 118.81854 167.592067 
z
" clip-path="url(#pcfb1209100)" style="fill: #1f77b4; stroke: #000000"/>
    <path d="M 77.306355 103.873499 
L 80.435375 101.674727 
L 82.458813 112.656549 
z
" clip-path="url(#pcfb1209100)" style="fill: #1f77b4; stroke: #000000"/>
    <path d="M 130.068566 155.24999 
L 111.472816 165.098057 
L 132.046732 143.817831 
z
" clip-path="url(#pcfb1209100)" style="fill: #1f77b4; stroke: #000000"/>
    <path d="M 117.57043 115.309322 
L 130.605751 92.297743 
L 128.234471 111.033298 
z
" clip-path="url(#pcfb1209100)" style="fill: #1f77b4; stroke: #000000"/>
    <path d="M 138.78577 106.80248 
L 129.941504 131.072684 
L 121.687034 119.543434 
z
" clip-path="url(#pcfb1209100)" style="fill: #1f77b4; stroke: #000000"/>
    <path d="M 75.657245 91.269079 
L 88.869176 88.821566 
L 80.435375 101.674727 
z
" clip-path="url(#pcfb1209100)" style="fill: #1f77b4; stroke: #000000"/>
    <path d="M 85.742869 165.146199 
L 108.797152 167.286493 
L 92.680829 165.370937 
z
" clip-path="url(#pcfb1209100)" style="fill: #1f77b4; stroke: #000000"/>
    <path d="M 79.334596 127.610308 
L 83.951905 132.74448 
L 76.056151 136.462896 
z
" clip-path="url(#pcfb1209100)" style="fill: #1f77b4; stroke: #000000"/>
    <path d="M 109.259428 100.666683 
L 130.605751 92.297743 
L 117.57043 115.309322 
z
" clip-path="url(#pcfb1209100)" style="fill: #1f77b4; stroke: #000000"/>
    <path d="M 82.458813 112.656549 
L 98.633934 117.29293 
L 79.334596 127.610308 
z
" clip-path="url(#pcfb1209100)" style="fill: #1f77b4; stroke: #000000"/>
    <path d="M 128.234471 111.033298 
L 121.687034 119.543434 
L 117.57043 115.309322 
z
" clip-path="url(#pcfb1209100)" style="fill: #1f77b4; stroke: #000000"/>
    <path d="M 105.153445 97.462382 
L 130.605751 92.297743 
L 109.259428 100.666683 
z
" clip-path="url(#pcfb1209100)" style="fill: #1f77b4; stroke: #000000"/>
    <path d="M 82.692876 155.330584 
L 74.26068 156.432554 
L 72.771628 145.331896 
z
" clip-path="url(#pcfb1209100)" style="fill: #1f77b4; stroke: #000000"/>
    <path d="M 79.334596 127.610308 
L 98.633934 117.29293 
L 83.951905 132.74448 
z
" clip-path="url(#pcfb1209100)" style="fill: #1f77b4; stroke: #000000"/>
    <path d="M 88.627617 137.943594 
L 72.771628 145.331896 
L 76.056151 136.462896 
z
" clip-path="url(#pcfb1209100)" style="fill: #1f77b4; stroke: #000000"/>
    <path d="M 82.692876 155.330584 
L 85.742869 165.146199 
L 74.26068 156.432554 
z
" clip-path="url(#pcfb1209100)" style="fill: #1f77b4; stroke: #000000"/>
    <path d="M 132.046732 143.817831 
L 114.737958 153.995894 
L 129.941504 131.072684 
z
" clip-path="url(#pcfb1209100)" style="fill: #1f77b4; stroke: #000000"/>
    <path d="M 111.472816 165.098057 
L 108.797152 167.286493 
L 106.517359 166.211836 
z
" clip-path="url(#pcfb1209100)" style="fill: #1f77b4; stroke: #000000"/>
    <path d="M 101.810748 102.213699 
L 88.869176 88.821566 
L 105.153445 97.462382 
z
" clip-path="url(#pcfb1209100)" style="fill: #1f77b4; stroke: #000000"/>
    <path d="M 106.517359 166.211836 
L 108.797152 167.286493 
L 85.742869 165.146199 
z
" clip-path="url(#pcfb1209100)" style="fill: #1f77b4; stroke: #000000"/>
    <path d="M 101.810748 102.213699 
L 98.633934 117.29293 
L 82.458813 112.656549 
z
" clip-path="url(#pcfb1209100)" style="fill: #1f77b4; stroke: #000000"/>
    <path d="M 132.046732 143.817831 
L 111.472816 165.098057 
L 114.737958 153.995894 
z
" clip-path="url(#pcfb1209100)" style="fill: #1f77b4; stroke: #000000"/>
    <path d="M 101.810748 102.213699 
L 82.458813 112.656549 
L 80.435375 101.674727 
z
" clip-path="url(#pcfb1209100)" style="fill: #1f77b4; stroke: #000000"/>
    <path d="M 98.633934 117.29293 
L 109.259428 100.666683 
L 117.57043 115.309322 
z
" clip-path="url(#pcfb1209100)" style="fill: #1f77b4; stroke: #000000"/>
    <path d="M 80.435375 101.674727 
L 88.869176 88.821566 
L 101.810748 102.213699 
z
" clip-path="url(#pcfb1209100)" style="fill: #1f77b4; stroke: #000000"/>
    <path d="M 83.951905 132.74448 
L 88.627617 137.943594 
L 76.056151 136.462896 
z
" clip-path="url(#pcfb1209100)" style="fill: #1f77b4; stroke: #000000"/>
    <path d="M 121.687034 119.543434 
L 91.995852 132.059405 
L 117.57043 115.309322 
z
" clip-path="url(#pcfb1209100)" style="fill: #1f77b4; stroke: #000000"/>
    <path d="M 105.153445 97.462382 
L 109.259428 100.666683 
L 101.810748 102.213699 
z
" clip-path="url(#pcfb1209100)" style="fill: #1f77b4; stroke: #000000"/>
    <path d="M 91.995852 132.059405 
L 98.633934 117.29293 
L 117.57043 115.309322 
z
" clip-path="url(#pcfb1209100)" style="fill: #1f77b4; stroke: #000000"/>
    <path d="M 101.810748 102.213699 
L 109.259428 100.666683 
L 98.633934 117.29293 
z
" clip-path="url(#pcfb1209100)" style="fill: #1f77b4; stroke: #000000"/>
    <path d="M 98.633934 117.29293 
L 91.995852 132.059405 
L 83.951905 132.74448 
z
" clip-path="url(#pcfb1209100)" style="fill: #1f77b4; stroke: #000000"/>
    <path d="M 121.687034 119.543434 
L 129.941504 131.072684 
L 108.385871 137.877236 
z
" clip-path="url(#pcfb1209100)" style="fill: #1f77b4; stroke: #000000"/>
    <path d="M 106.517359 166.211836 
L 114.737958 153.995894 
L 111.472816 165.098057 
z
" clip-path="url(#pcfb1209100)" style="fill: #1f77b4; stroke: #000000"/>
    <path d="M 88.627617 137.943594 
L 82.692876 155.330584 
L 72.771628 145.331896 
z
" clip-path="url(#pcfb1209100)" style="fill: #1f77b4; stroke: #000000"/>
    <path d="M 83.951905 132.74448 
L 91.995852 132.059405 
L 88.627617 137.943594 
z
" clip-path="url(#pcfb1209100)" style="fill: #1f77b4; stroke: #000000"/>
    <path d="M 101.807168 157.940646 
L 106.517359 166.211836 
L 85.742869 165.146199 
z
" clip-path="url(#pcfb1209100)" style="fill: #1f77b4; stroke: #000000"/>
    <path d="M 108.385871 137.877236 
L 91.995852 132.059405 
L 121.687034 119.543434 
z
" clip-path="url(#pcfb1209100)" style="fill: #1f77b4; stroke: #000000"/>
    <path d="M 129.941504 131.072684 
L 114.737958 153.995894 
L 111.159047 140.734114 
z
" clip-path="url(#pcfb1209100)" style="fill: #1f77b4; stroke: #000000"/>
    <path d="M 108.385871 137.877236 
L 129.941504 131.072684 
L 111.159047 140.734114 
z
" clip-path="url(#pcfb1209100)" style="fill: #1f77b4; stroke: #000000"/>
    <path d="M 101.807168 157.940646 
L 114.737958 153.995894 
L 106.517359 166.211836 
z
" clip-path="url(#pcfb1209100)" style="fill: #1f77b4; stroke: #000000"/>
    <path d="M 101.807168 157.940646 
L 85.742869 165.146199 
L 82.692876 155.330584 
z
" clip-path="url(#pcfb1209100)" style="fill: #1f77b4; stroke: #000000"/>
    <path d="M 88.627617 137.943594 
L 91.995852 132.059405 
L 106.153756 141.826925 
z
" clip-path="url(#pcfb1209100)" style="fill: #1f77b4; stroke: #000000"/>
    <path d="M 106.153756 141.826925 
L 91.995852 132.059405 
L 108.385871 137.877236 
z
" clip-path="url(#pcfb1209100)" style="fill: #1f77b4; stroke: #000000"/>
    <path d="M 106.153756 141.826925 
L 82.692876 155.330584 
L 88.627617 137.943594 
z
" clip-path="url(#pcfb1209100)" style="fill: #1f77b4; stroke: #000000"/>
    <path d="M 101.807168 157.940646 
L 111.159047 140.734114 
L 114.737958 153.995894 
z
" clip-path="url(#pcfb1209100)" style="fill: #1f77b4; stroke: #000000"/>
    <path d="M 106.153756 141.826925 
L 101.807168 157.940646 
L 82.692876 155.330584 
z
" clip-path="url(#pcfb1209100)" style="fill: #1f77b4; stroke: #000000"/>
    <path d="M 108.385871 137.877236 
L 111.159047 140.734114 
L 106.153756 141.826925 
z
" clip-path="url(#pcfb1209100)" style="fill: #1f77b4; stroke: #000000"/>
    <path d="M 106.153756 141.826925 
L 111.159047 140.734114 
L 101.807168 157.940646 
z
" clip-path="url(#pcfb1209100)" style="fill: #1f77b4; stroke: #000000"/>
   </g>
  </g>
 </g>
 <defs>
  <clipPath id="pcfb1209100">
   <rect x="7.2" y="7.2" width="264.406394" height="264.406394"/>
  </clipPath>
 </defs>
</svg>
