<?xml version="1.0" encoding="utf-8" standalone="no"?>
<!DOCTYPE svg PUBLIC "-//W3C//DTD SVG 1.1//EN"
  "http://www.w3.org/Graphics/SVG/1.1/DTD/svg11.dtd">
<svg xmlns:xlink="http://www.w3.org/1999/xlink" width="424.8pt" height="280.8pt" viewBox="0 0 424.8 280.8" xmlns="http://www.w3.org/2000/svg" version="1.1">
 <metadata>
  <rdf:RDF xmlns:dc="http://purl.org/dc/elements/1.1/" xmlns:cc="http://creativecommons.org/ns#" xmlns:rdf="http://www.w3.org/1999/02/22-rdf-syntax-ns#">
   <cc:Work>
    <dc:type rdf:resource="http://purl.org/dc/dcmitype/StillImage"/>
    <dc:date>2022-05-25T17:14:56.240264</dc:date>
    <dc:format>image/svg+xml</dc:format>
    <dc:creator>
     <cc:Agent>
      <dc:title>Matplotlib v3.5.2, https://matplotlib.org/</dc:title>
     </cc:Agent>
    </dc:creator>
   </cc:Work>
  </rdf:RDF>
 </metadata>
 <defs>
  <style type="text/css">*{stroke-linejoin: round; stroke-linecap: butt}</style>
 </defs>
 <g id="figure_1">
  <g id="patch_1">
   <path d="M 0 280.8 
L 424.8 280.8 
L 424.8 0 
L 0 0 
L 0 280.8 
z
" style="fill: none"/>
  </g>
  <g id="axes_1">
   <g id="patch_2">
    <path d="M 49.3975 238.8725 
L 417.6 238.8725 
L 417.6 7.2 
L 49.3975 7.2 
z
" style="fill: #ffffff"/>
   </g>
   <g id="matplotlib.axis_1">
    <g id="xtick_1">
     <g id="line2d_1">
      <path d="M 70.689059 238.8725 
L 70.689059 7.2 
" clip-path="url(#p646be90576)" style="fill: none; stroke: #b0b0b0; stroke-width: 0.8; stroke-linecap: square"/>
     </g>
     <g id="line2d_2">
      <defs>
       <path id="mf448f56284" d="M 0 0 
L 0 -6 
" style="stroke: #000000; stroke-width: 2"/>
      </defs>
      <g>
       <use xlink:href="#mf448f56284" x="70.689059" y="238.8725" style="fill: #ffffff; stroke: #000000; stroke-width: 2"/>
      </g>
     </g>
     <g id="line2d_3">
      <defs>
       <path id="m4cfcfe7286" d="M 0 0 
L 0 6 
" style="stroke: #000000; stroke-width: 2"/>
      </defs>
      <g>
       <use xlink:href="#m4cfcfe7286" x="70.689059" y="7.2" style="fill: #ffffff; stroke: #000000; stroke-width: 2"/>
      </g>
     </g>
     <g id="text_1">
      <!-- 2.50 -->
      <g transform="translate(57.329684 251.490625)scale(0.12 -0.12)">
       <defs>
        <path id="DejaVuSans-32" d="M 1228 531 
L 3431 531 
L 3431 0 
L 469 0 
L 469 531 
Q 828 903 1448 1529 
Q 2069 2156 2228 2338 
Q 2531 2678 2651 2914 
Q 2772 3150 2772 3378 
Q 2772 3750 2511 3984 
Q 2250 4219 1831 4219 
Q 1534 4219 1204 4116 
Q 875 4013 500 3803 
L 500 4441 
Q 881 4594 1212 4672 
Q 1544 4750 1819 4750 
Q 2544 4750 2975 4387 
Q 3406 4025 3406 3419 
Q 3406 3131 3298 2873 
Q 3191 2616 2906 2266 
Q 2828 2175 2409 1742 
Q 1991 1309 1228 531 
z
" transform="scale(0.015625)"/>
        <path id="DejaVuSans-2e" d="M 684 794 
L 1344 794 
L 1344 0 
L 684 0 
L 684 794 
z
" transform="scale(0.015625)"/>
        <path id="DejaVuSans-35" d="M 691 4666 
L 3169 4666 
L 3169 4134 
L 1269 4134 
L 1269 2991 
Q 1406 3038 1543 3061 
Q 1681 3084 1819 3084 
Q 2600 3084 3056 2656 
Q 3513 2228 3513 1497 
Q 3513 744 3044 326 
Q 2575 -91 1722 -91 
Q 1428 -91 1123 -41 
Q 819 9 494 109 
L 494 744 
Q 775 591 1075 516 
Q 1375 441 1709 441 
Q 2250 441 2565 725 
Q 2881 1009 2881 1497 
Q 2881 1984 2565 2268 
Q 2250 2553 1709 2553 
Q 1456 2553 1204 2497 
Q 953 2441 691 2322 
L 691 4666 
z
" transform="scale(0.015625)"/>
        <path id="DejaVuSans-30" d="M 2034 4250 
Q 1547 4250 1301 3770 
Q 1056 3291 1056 2328 
Q 1056 1369 1301 889 
Q 1547 409 2034 409 
Q 2525 409 2770 889 
Q 3016 1369 3016 2328 
Q 3016 3291 2770 3770 
Q 2525 4250 2034 4250 
z
M 2034 4750 
Q 2819 4750 3233 4129 
Q 3647 3509 3647 2328 
Q 3647 1150 3233 529 
Q 2819 -91 2034 -91 
Q 1250 -91 836 529 
Q 422 1150 422 2328 
Q 422 3509 836 4129 
Q 1250 4750 2034 4750 
z
" transform="scale(0.015625)"/>
       </defs>
       <use xlink:href="#DejaVuSans-32"/>
       <use xlink:href="#DejaVuSans-2e" x="63.623047"/>
       <use xlink:href="#DejaVuSans-35" x="95.410156"/>
       <use xlink:href="#DejaVuSans-30" x="159.033203"/>
      </g>
     </g>
    </g>
    <g id="xtick_2">
     <g id="line2d_4">
      <path d="M 120.463229 238.8725 
L 120.463229 7.2 
" clip-path="url(#p646be90576)" style="fill: none; stroke: #b0b0b0; stroke-width: 0.8; stroke-linecap: square"/>
     </g>
     <g id="line2d_5">
      <g>
       <use xlink:href="#mf448f56284" x="120.463229" y="238.8725" style="fill: #ffffff; stroke: #000000; stroke-width: 2"/>
      </g>
     </g>
     <g id="line2d_6">
      <g>
       <use xlink:href="#m4cfcfe7286" x="120.463229" y="7.2" style="fill: #ffffff; stroke: #000000; stroke-width: 2"/>
      </g>
     </g>
     <g id="text_2">
      <!-- 2.75 -->
      <g transform="translate(107.103854 251.490625)scale(0.12 -0.12)">
       <defs>
        <path id="DejaVuSans-37" d="M 525 4666 
L 3525 4666 
L 3525 4397 
L 1831 0 
L 1172 0 
L 2766 4134 
L 525 4134 
L 525 4666 
z
" transform="scale(0.015625)"/>
       </defs>
       <use xlink:href="#DejaVuSans-32"/>
       <use xlink:href="#DejaVuSans-2e" x="63.623047"/>
       <use xlink:href="#DejaVuSans-37" x="95.410156"/>
       <use xlink:href="#DejaVuSans-35" x="159.033203"/>
      </g>
     </g>
    </g>
    <g id="xtick_3">
     <g id="line2d_7">
      <path d="M 170.237399 238.8725 
L 170.237399 7.2 
" clip-path="url(#p646be90576)" style="fill: none; stroke: #b0b0b0; stroke-width: 0.8; stroke-linecap: square"/>
     </g>
     <g id="line2d_8">
      <g>
       <use xlink:href="#mf448f56284" x="170.237399" y="238.8725" style="fill: #ffffff; stroke: #000000; stroke-width: 2"/>
      </g>
     </g>
     <g id="line2d_9">
      <g>
       <use xlink:href="#m4cfcfe7286" x="170.237399" y="7.2" style="fill: #ffffff; stroke: #000000; stroke-width: 2"/>
      </g>
     </g>
     <g id="text_3">
      <!-- 3.00 -->
      <g transform="translate(156.878024 251.490625)scale(0.12 -0.12)">
       <defs>
        <path id="DejaVuSans-33" d="M 2597 2516 
Q 3050 2419 3304 2112 
Q 3559 1806 3559 1356 
Q 3559 666 3084 287 
Q 2609 -91 1734 -91 
Q 1441 -91 1130 -33 
Q 819 25 488 141 
L 488 750 
Q 750 597 1062 519 
Q 1375 441 1716 441 
Q 2309 441 2620 675 
Q 2931 909 2931 1356 
Q 2931 1769 2642 2001 
Q 2353 2234 1838 2234 
L 1294 2234 
L 1294 2753 
L 1863 2753 
Q 2328 2753 2575 2939 
Q 2822 3125 2822 3475 
Q 2822 3834 2567 4026 
Q 2313 4219 1838 4219 
Q 1578 4219 1281 4162 
Q 984 4106 628 3988 
L 628 4550 
Q 988 4650 1302 4700 
Q 1616 4750 1894 4750 
Q 2613 4750 3031 4423 
Q 3450 4097 3450 3541 
Q 3450 3153 3228 2886 
Q 3006 2619 2597 2516 
z
" transform="scale(0.015625)"/>
       </defs>
       <use xlink:href="#DejaVuSans-33"/>
       <use xlink:href="#DejaVuSans-2e" x="63.623047"/>
       <use xlink:href="#DejaVuSans-30" x="95.410156"/>
       <use xlink:href="#DejaVuSans-30" x="159.033203"/>
      </g>
     </g>
    </g>
    <g id="xtick_4">
     <g id="line2d_10">
      <path d="M 220.011568 238.8725 
L 220.011568 7.2 
" clip-path="url(#p646be90576)" style="fill: none; stroke: #b0b0b0; stroke-width: 0.8; stroke-linecap: square"/>
     </g>
     <g id="line2d_11">
      <g>
       <use xlink:href="#mf448f56284" x="220.011568" y="238.8725" style="fill: #ffffff; stroke: #000000; stroke-width: 2"/>
      </g>
     </g>
     <g id="line2d_12">
      <g>
       <use xlink:href="#m4cfcfe7286" x="220.011568" y="7.2" style="fill: #ffffff; stroke: #000000; stroke-width: 2"/>
      </g>
     </g>
     <g id="text_4">
      <!-- 3.25 -->
      <g transform="translate(206.652193 251.490625)scale(0.12 -0.12)">
       <use xlink:href="#DejaVuSans-33"/>
       <use xlink:href="#DejaVuSans-2e" x="63.623047"/>
       <use xlink:href="#DejaVuSans-32" x="95.410156"/>
       <use xlink:href="#DejaVuSans-35" x="159.033203"/>
      </g>
     </g>
    </g>
    <g id="xtick_5">
     <g id="line2d_13">
      <path d="M 269.785738 238.8725 
L 269.785738 7.2 
" clip-path="url(#p646be90576)" style="fill: none; stroke: #b0b0b0; stroke-width: 0.8; stroke-linecap: square"/>
     </g>
     <g id="line2d_14">
      <g>
       <use xlink:href="#mf448f56284" x="269.785738" y="238.8725" style="fill: #ffffff; stroke: #000000; stroke-width: 2"/>
      </g>
     </g>
     <g id="line2d_15">
      <g>
       <use xlink:href="#m4cfcfe7286" x="269.785738" y="7.2" style="fill: #ffffff; stroke: #000000; stroke-width: 2"/>
      </g>
     </g>
     <g id="text_5">
      <!-- 3.50 -->
      <g transform="translate(256.426363 251.490625)scale(0.12 -0.12)">
       <use xlink:href="#DejaVuSans-33"/>
       <use xlink:href="#DejaVuSans-2e" x="63.623047"/>
       <use xlink:href="#DejaVuSans-35" x="95.410156"/>
       <use xlink:href="#DejaVuSans-30" x="159.033203"/>
      </g>
     </g>
    </g>
    <g id="xtick_6">
     <g id="line2d_16">
      <path d="M 319.559907 238.8725 
L 319.559907 7.2 
" clip-path="url(#p646be90576)" style="fill: none; stroke: #b0b0b0; stroke-width: 0.8; stroke-linecap: square"/>
     </g>
     <g id="line2d_17">
      <g>
       <use xlink:href="#mf448f56284" x="319.559907" y="238.8725" style="fill: #ffffff; stroke: #000000; stroke-width: 2"/>
      </g>
     </g>
     <g id="line2d_18">
      <g>
       <use xlink:href="#m4cfcfe7286" x="319.559907" y="7.2" style="fill: #ffffff; stroke: #000000; stroke-width: 2"/>
      </g>
     </g>
     <g id="text_6">
      <!-- 3.75 -->
      <g transform="translate(306.200532 251.490625)scale(0.12 -0.12)">
       <use xlink:href="#DejaVuSans-33"/>
       <use xlink:href="#DejaVuSans-2e" x="63.623047"/>
       <use xlink:href="#DejaVuSans-37" x="95.410156"/>
       <use xlink:href="#DejaVuSans-35" x="159.033203"/>
      </g>
     </g>
    </g>
    <g id="xtick_7">
     <g id="line2d_19">
      <path d="M 369.334077 238.8725 
L 369.334077 7.2 
" clip-path="url(#p646be90576)" style="fill: none; stroke: #b0b0b0; stroke-width: 0.8; stroke-linecap: square"/>
     </g>
     <g id="line2d_20">
      <g>
       <use xlink:href="#mf448f56284" x="369.334077" y="238.8725" style="fill: #ffffff; stroke: #000000; stroke-width: 2"/>
      </g>
     </g>
     <g id="line2d_21">
      <g>
       <use xlink:href="#m4cfcfe7286" x="369.334077" y="7.2" style="fill: #ffffff; stroke: #000000; stroke-width: 2"/>
      </g>
     </g>
     <g id="text_7">
      <!-- 4.00 -->
      <g transform="translate(355.974702 251.490625)scale(0.12 -0.12)">
       <defs>
        <path id="DejaVuSans-34" d="M 2419 4116 
L 825 1625 
L 2419 1625 
L 2419 4116 
z
M 2253 4666 
L 3047 4666 
L 3047 1625 
L 3713 1625 
L 3713 1100 
L 3047 1100 
L 3047 0 
L 2419 0 
L 2419 1100 
L 313 1100 
L 313 1709 
L 2253 4666 
z
" transform="scale(0.015625)"/>
       </defs>
       <use xlink:href="#DejaVuSans-34"/>
       <use xlink:href="#DejaVuSans-2e" x="63.623047"/>
       <use xlink:href="#DejaVuSans-30" x="95.410156"/>
       <use xlink:href="#DejaVuSans-30" x="159.033203"/>
      </g>
     </g>
    </g>
    <g id="text_8">
     <!-- log(Capillary Pressure [Pa]) -->
     <g transform="translate(152.165 271.104375)scale(0.12 -0.12)">
      <defs>
       <path id="DejaVuSans-6c" d="M 603 4863 
L 1178 4863 
L 1178 0 
L 603 0 
L 603 4863 
z
" transform="scale(0.015625)"/>
       <path id="DejaVuSans-6f" d="M 1959 3097 
Q 1497 3097 1228 2736 
Q 959 2375 959 1747 
Q 959 1119 1226 758 
Q 1494 397 1959 397 
Q 2419 397 2687 759 
Q 2956 1122 2956 1747 
Q 2956 2369 2687 2733 
Q 2419 3097 1959 3097 
z
M 1959 3584 
Q 2709 3584 3137 3096 
Q 3566 2609 3566 1747 
Q 3566 888 3137 398 
Q 2709 -91 1959 -91 
Q 1206 -91 779 398 
Q 353 888 353 1747 
Q 353 2609 779 3096 
Q 1206 3584 1959 3584 
z
" transform="scale(0.015625)"/>
       <path id="DejaVuSans-67" d="M 2906 1791 
Q 2906 2416 2648 2759 
Q 2391 3103 1925 3103 
Q 1463 3103 1205 2759 
Q 947 2416 947 1791 
Q 947 1169 1205 825 
Q 1463 481 1925 481 
Q 2391 481 2648 825 
Q 2906 1169 2906 1791 
z
M 3481 434 
Q 3481 -459 3084 -895 
Q 2688 -1331 1869 -1331 
Q 1566 -1331 1297 -1286 
Q 1028 -1241 775 -1147 
L 775 -588 
Q 1028 -725 1275 -790 
Q 1522 -856 1778 -856 
Q 2344 -856 2625 -561 
Q 2906 -266 2906 331 
L 2906 616 
Q 2728 306 2450 153 
Q 2172 0 1784 0 
Q 1141 0 747 490 
Q 353 981 353 1791 
Q 353 2603 747 3093 
Q 1141 3584 1784 3584 
Q 2172 3584 2450 3431 
Q 2728 3278 2906 2969 
L 2906 3500 
L 3481 3500 
L 3481 434 
z
" transform="scale(0.015625)"/>
       <path id="DejaVuSans-28" d="M 1984 4856 
Q 1566 4138 1362 3434 
Q 1159 2731 1159 2009 
Q 1159 1288 1364 580 
Q 1569 -128 1984 -844 
L 1484 -844 
Q 1016 -109 783 600 
Q 550 1309 550 2009 
Q 550 2706 781 3412 
Q 1013 4119 1484 4856 
L 1984 4856 
z
" transform="scale(0.015625)"/>
       <path id="DejaVuSans-43" d="M 4122 4306 
L 4122 3641 
Q 3803 3938 3442 4084 
Q 3081 4231 2675 4231 
Q 1875 4231 1450 3742 
Q 1025 3253 1025 2328 
Q 1025 1406 1450 917 
Q 1875 428 2675 428 
Q 3081 428 3442 575 
Q 3803 722 4122 1019 
L 4122 359 
Q 3791 134 3420 21 
Q 3050 -91 2638 -91 
Q 1578 -91 968 557 
Q 359 1206 359 2328 
Q 359 3453 968 4101 
Q 1578 4750 2638 4750 
Q 3056 4750 3426 4639 
Q 3797 4528 4122 4306 
z
" transform="scale(0.015625)"/>
       <path id="DejaVuSans-61" d="M 2194 1759 
Q 1497 1759 1228 1600 
Q 959 1441 959 1056 
Q 959 750 1161 570 
Q 1363 391 1709 391 
Q 2188 391 2477 730 
Q 2766 1069 2766 1631 
L 2766 1759 
L 2194 1759 
z
M 3341 1997 
L 3341 0 
L 2766 0 
L 2766 531 
Q 2569 213 2275 61 
Q 1981 -91 1556 -91 
Q 1019 -91 701 211 
Q 384 513 384 1019 
Q 384 1609 779 1909 
Q 1175 2209 1959 2209 
L 2766 2209 
L 2766 2266 
Q 2766 2663 2505 2880 
Q 2244 3097 1772 3097 
Q 1472 3097 1187 3025 
Q 903 2953 641 2809 
L 641 3341 
Q 956 3463 1253 3523 
Q 1550 3584 1831 3584 
Q 2591 3584 2966 3190 
Q 3341 2797 3341 1997 
z
" transform="scale(0.015625)"/>
       <path id="DejaVuSans-70" d="M 1159 525 
L 1159 -1331 
L 581 -1331 
L 581 3500 
L 1159 3500 
L 1159 2969 
Q 1341 3281 1617 3432 
Q 1894 3584 2278 3584 
Q 2916 3584 3314 3078 
Q 3713 2572 3713 1747 
Q 3713 922 3314 415 
Q 2916 -91 2278 -91 
Q 1894 -91 1617 61 
Q 1341 213 1159 525 
z
M 3116 1747 
Q 3116 2381 2855 2742 
Q 2594 3103 2138 3103 
Q 1681 3103 1420 2742 
Q 1159 2381 1159 1747 
Q 1159 1113 1420 752 
Q 1681 391 2138 391 
Q 2594 391 2855 752 
Q 3116 1113 3116 1747 
z
" transform="scale(0.015625)"/>
       <path id="DejaVuSans-69" d="M 603 3500 
L 1178 3500 
L 1178 0 
L 603 0 
L 603 3500 
z
M 603 4863 
L 1178 4863 
L 1178 4134 
L 603 4134 
L 603 4863 
z
" transform="scale(0.015625)"/>
       <path id="DejaVuSans-72" d="M 2631 2963 
Q 2534 3019 2420 3045 
Q 2306 3072 2169 3072 
Q 1681 3072 1420 2755 
Q 1159 2438 1159 1844 
L 1159 0 
L 581 0 
L 581 3500 
L 1159 3500 
L 1159 2956 
Q 1341 3275 1631 3429 
Q 1922 3584 2338 3584 
Q 2397 3584 2469 3576 
Q 2541 3569 2628 3553 
L 2631 2963 
z
" transform="scale(0.015625)"/>
       <path id="DejaVuSans-79" d="M 2059 -325 
Q 1816 -950 1584 -1140 
Q 1353 -1331 966 -1331 
L 506 -1331 
L 506 -850 
L 844 -850 
Q 1081 -850 1212 -737 
Q 1344 -625 1503 -206 
L 1606 56 
L 191 3500 
L 800 3500 
L 1894 763 
L 2988 3500 
L 3597 3500 
L 2059 -325 
z
" transform="scale(0.015625)"/>
       <path id="DejaVuSans-20" transform="scale(0.015625)"/>
       <path id="DejaVuSans-50" d="M 1259 4147 
L 1259 2394 
L 2053 2394 
Q 2494 2394 2734 2622 
Q 2975 2850 2975 3272 
Q 2975 3691 2734 3919 
Q 2494 4147 2053 4147 
L 1259 4147 
z
M 628 4666 
L 2053 4666 
Q 2838 4666 3239 4311 
Q 3641 3956 3641 3272 
Q 3641 2581 3239 2228 
Q 2838 1875 2053 1875 
L 1259 1875 
L 1259 0 
L 628 0 
L 628 4666 
z
" transform="scale(0.015625)"/>
       <path id="DejaVuSans-65" d="M 3597 1894 
L 3597 1613 
L 953 1613 
Q 991 1019 1311 708 
Q 1631 397 2203 397 
Q 2534 397 2845 478 
Q 3156 559 3463 722 
L 3463 178 
Q 3153 47 2828 -22 
Q 2503 -91 2169 -91 
Q 1331 -91 842 396 
Q 353 884 353 1716 
Q 353 2575 817 3079 
Q 1281 3584 2069 3584 
Q 2775 3584 3186 3129 
Q 3597 2675 3597 1894 
z
M 3022 2063 
Q 3016 2534 2758 2815 
Q 2500 3097 2075 3097 
Q 1594 3097 1305 2825 
Q 1016 2553 972 2059 
L 3022 2063 
z
" transform="scale(0.015625)"/>
       <path id="DejaVuSans-73" d="M 2834 3397 
L 2834 2853 
Q 2591 2978 2328 3040 
Q 2066 3103 1784 3103 
Q 1356 3103 1142 2972 
Q 928 2841 928 2578 
Q 928 2378 1081 2264 
Q 1234 2150 1697 2047 
L 1894 2003 
Q 2506 1872 2764 1633 
Q 3022 1394 3022 966 
Q 3022 478 2636 193 
Q 2250 -91 1575 -91 
Q 1294 -91 989 -36 
Q 684 19 347 128 
L 347 722 
Q 666 556 975 473 
Q 1284 391 1588 391 
Q 1994 391 2212 530 
Q 2431 669 2431 922 
Q 2431 1156 2273 1281 
Q 2116 1406 1581 1522 
L 1381 1569 
Q 847 1681 609 1914 
Q 372 2147 372 2553 
Q 372 3047 722 3315 
Q 1072 3584 1716 3584 
Q 2034 3584 2315 3537 
Q 2597 3491 2834 3397 
z
" transform="scale(0.015625)"/>
       <path id="DejaVuSans-75" d="M 544 1381 
L 544 3500 
L 1119 3500 
L 1119 1403 
Q 1119 906 1312 657 
Q 1506 409 1894 409 
Q 2359 409 2629 706 
Q 2900 1003 2900 1516 
L 2900 3500 
L 3475 3500 
L 3475 0 
L 2900 0 
L 2900 538 
Q 2691 219 2414 64 
Q 2138 -91 1772 -91 
Q 1169 -91 856 284 
Q 544 659 544 1381 
z
M 1991 3584 
L 1991 3584 
z
" transform="scale(0.015625)"/>
       <path id="DejaVuSans-5b" d="M 550 4863 
L 1875 4863 
L 1875 4416 
L 1125 4416 
L 1125 -397 
L 1875 -397 
L 1875 -844 
L 550 -844 
L 550 4863 
z
" transform="scale(0.015625)"/>
       <path id="DejaVuSans-5d" d="M 1947 4863 
L 1947 -844 
L 622 -844 
L 622 -397 
L 1369 -397 
L 1369 4416 
L 622 4416 
L 622 4863 
L 1947 4863 
z
" transform="scale(0.015625)"/>
       <path id="DejaVuSans-29" d="M 513 4856 
L 1013 4856 
Q 1481 4119 1714 3412 
Q 1947 2706 1947 2009 
Q 1947 1309 1714 600 
Q 1481 -109 1013 -844 
L 513 -844 
Q 928 -128 1133 580 
Q 1338 1288 1338 2009 
Q 1338 2731 1133 3434 
Q 928 4138 513 4856 
z
" transform="scale(0.015625)"/>
      </defs>
      <use xlink:href="#DejaVuSans-6c"/>
      <use xlink:href="#DejaVuSans-6f" x="27.783203"/>
      <use xlink:href="#DejaVuSans-67" x="88.964844"/>
      <use xlink:href="#DejaVuSans-28" x="152.441406"/>
      <use xlink:href="#DejaVuSans-43" x="191.455078"/>
      <use xlink:href="#DejaVuSans-61" x="261.279297"/>
      <use xlink:href="#DejaVuSans-70" x="322.558594"/>
      <use xlink:href="#DejaVuSans-69" x="386.035156"/>
      <use xlink:href="#DejaVuSans-6c" x="413.818359"/>
      <use xlink:href="#DejaVuSans-6c" x="441.601562"/>
      <use xlink:href="#DejaVuSans-61" x="469.384766"/>
      <use xlink:href="#DejaVuSans-72" x="530.664062"/>
      <use xlink:href="#DejaVuSans-79" x="571.777344"/>
      <use xlink:href="#DejaVuSans-20" x="630.957031"/>
      <use xlink:href="#DejaVuSans-50" x="662.744141"/>
      <use xlink:href="#DejaVuSans-72" x="721.296875"/>
      <use xlink:href="#DejaVuSans-65" x="760.160156"/>
      <use xlink:href="#DejaVuSans-73" x="821.683594"/>
      <use xlink:href="#DejaVuSans-73" x="873.783203"/>
      <use xlink:href="#DejaVuSans-75" x="925.882812"/>
      <use xlink:href="#DejaVuSans-72" x="989.261719"/>
      <use xlink:href="#DejaVuSans-65" x="1028.125"/>
      <use xlink:href="#DejaVuSans-20" x="1089.648438"/>
      <use xlink:href="#DejaVuSans-5b" x="1121.435547"/>
      <use xlink:href="#DejaVuSans-50" x="1160.449219"/>
      <use xlink:href="#DejaVuSans-61" x="1216.251953"/>
      <use xlink:href="#DejaVuSans-5d" x="1277.53125"/>
      <use xlink:href="#DejaVuSans-29" x="1316.544922"/>
     </g>
    </g>
   </g>
   <g id="matplotlib.axis_2">
    <g id="ytick_1">
     <g id="line2d_22">
      <defs>
       <path id="m4875965ceb" d="M 0 0 
L 6 0 
" style="stroke: #000000; stroke-width: 2"/>
      </defs>
      <g>
       <use xlink:href="#m4875965ceb" x="49.3975" y="228.341932" style="fill: #ffffff; stroke: #000000; stroke-width: 2"/>
      </g>
     </g>
     <g id="line2d_23">
      <defs>
       <path id="me081febe82" d="M 0 0 
L -6 0 
" style="stroke: #000000; stroke-width: 2"/>
      </defs>
      <g>
       <use xlink:href="#me081febe82" x="417.6" y="228.341932" style="fill: #ffffff; stroke: #000000; stroke-width: 2"/>
      </g>
     </g>
     <g id="text_9">
      <!-- 0.0 -->
      <g transform="translate(26.81375 232.900994)scale(0.12 -0.12)">
       <use xlink:href="#DejaVuSans-30"/>
       <use xlink:href="#DejaVuSans-2e" x="63.623047"/>
       <use xlink:href="#DejaVuSans-30" x="95.410156"/>
      </g>
     </g>
    </g>
    <g id="ytick_2">
     <g id="line2d_24">
      <g>
       <use xlink:href="#m4875965ceb" x="49.3975" y="186.219659" style="fill: #ffffff; stroke: #000000; stroke-width: 2"/>
      </g>
     </g>
     <g id="line2d_25">
      <g>
       <use xlink:href="#me081febe82" x="417.6" y="186.219659" style="fill: #ffffff; stroke: #000000; stroke-width: 2"/>
      </g>
     </g>
     <g id="text_10">
      <!-- 0.2 -->
      <g transform="translate(26.81375 190.778722)scale(0.12 -0.12)">
       <use xlink:href="#DejaVuSans-30"/>
       <use xlink:href="#DejaVuSans-2e" x="63.623047"/>
       <use xlink:href="#DejaVuSans-32" x="95.410156"/>
      </g>
     </g>
    </g>
    <g id="ytick_3">
     <g id="line2d_26">
      <g>
       <use xlink:href="#m4875965ceb" x="49.3975" y="144.097386" style="fill: #ffffff; stroke: #000000; stroke-width: 2"/>
      </g>
     </g>
     <g id="line2d_27">
      <g>
       <use xlink:href="#me081febe82" x="417.6" y="144.097386" style="fill: #ffffff; stroke: #000000; stroke-width: 2"/>
      </g>
     </g>
     <g id="text_11">
      <!-- 0.4 -->
      <g transform="translate(26.81375 148.656449)scale(0.12 -0.12)">
       <use xlink:href="#DejaVuSans-30"/>
       <use xlink:href="#DejaVuSans-2e" x="63.623047"/>
       <use xlink:href="#DejaVuSans-34" x="95.410156"/>
      </g>
     </g>
    </g>
    <g id="ytick_4">
     <g id="line2d_28">
      <g>
       <use xlink:href="#m4875965ceb" x="49.3975" y="101.975114" style="fill: #ffffff; stroke: #000000; stroke-width: 2"/>
      </g>
     </g>
     <g id="line2d_29">
      <g>
       <use xlink:href="#me081febe82" x="417.6" y="101.975114" style="fill: #ffffff; stroke: #000000; stroke-width: 2"/>
      </g>
     </g>
     <g id="text_12">
      <!-- 0.6 -->
      <g transform="translate(26.81375 106.534176)scale(0.12 -0.12)">
       <defs>
        <path id="DejaVuSans-36" d="M 2113 2584 
Q 1688 2584 1439 2293 
Q 1191 2003 1191 1497 
Q 1191 994 1439 701 
Q 1688 409 2113 409 
Q 2538 409 2786 701 
Q 3034 994 3034 1497 
Q 3034 2003 2786 2293 
Q 2538 2584 2113 2584 
z
M 3366 4563 
L 3366 3988 
Q 3128 4100 2886 4159 
Q 2644 4219 2406 4219 
Q 1781 4219 1451 3797 
Q 1122 3375 1075 2522 
Q 1259 2794 1537 2939 
Q 1816 3084 2150 3084 
Q 2853 3084 3261 2657 
Q 3669 2231 3669 1497 
Q 3669 778 3244 343 
Q 2819 -91 2113 -91 
Q 1303 -91 875 529 
Q 447 1150 447 2328 
Q 447 3434 972 4092 
Q 1497 4750 2381 4750 
Q 2619 4750 2861 4703 
Q 3103 4656 3366 4563 
z
" transform="scale(0.015625)"/>
       </defs>
       <use xlink:href="#DejaVuSans-30"/>
       <use xlink:href="#DejaVuSans-2e" x="63.623047"/>
       <use xlink:href="#DejaVuSans-36" x="95.410156"/>
      </g>
     </g>
    </g>
    <g id="ytick_5">
     <g id="line2d_30">
      <g>
       <use xlink:href="#m4875965ceb" x="49.3975" y="59.852841" style="fill: #ffffff; stroke: #000000; stroke-width: 2"/>
      </g>
     </g>
     <g id="line2d_31">
      <g>
       <use xlink:href="#me081febe82" x="417.6" y="59.852841" style="fill: #ffffff; stroke: #000000; stroke-width: 2"/>
      </g>
     </g>
     <g id="text_13">
      <!-- 0.8 -->
      <g transform="translate(26.81375 64.411903)scale(0.12 -0.12)">
       <defs>
        <path id="DejaVuSans-38" d="M 2034 2216 
Q 1584 2216 1326 1975 
Q 1069 1734 1069 1313 
Q 1069 891 1326 650 
Q 1584 409 2034 409 
Q 2484 409 2743 651 
Q 3003 894 3003 1313 
Q 3003 1734 2745 1975 
Q 2488 2216 2034 2216 
z
M 1403 2484 
Q 997 2584 770 2862 
Q 544 3141 544 3541 
Q 544 4100 942 4425 
Q 1341 4750 2034 4750 
Q 2731 4750 3128 4425 
Q 3525 4100 3525 3541 
Q 3525 3141 3298 2862 
Q 3072 2584 2669 2484 
Q 3125 2378 3379 2068 
Q 3634 1759 3634 1313 
Q 3634 634 3220 271 
Q 2806 -91 2034 -91 
Q 1263 -91 848 271 
Q 434 634 434 1313 
Q 434 1759 690 2068 
Q 947 2378 1403 2484 
z
M 1172 3481 
Q 1172 3119 1398 2916 
Q 1625 2713 2034 2713 
Q 2441 2713 2670 2916 
Q 2900 3119 2900 3481 
Q 2900 3844 2670 4047 
Q 2441 4250 2034 4250 
Q 1625 4250 1398 4047 
Q 1172 3844 1172 3481 
z
" transform="scale(0.015625)"/>
       </defs>
       <use xlink:href="#DejaVuSans-30"/>
       <use xlink:href="#DejaVuSans-2e" x="63.623047"/>
       <use xlink:href="#DejaVuSans-38" x="95.410156"/>
      </g>
     </g>
    </g>
    <g id="ytick_6">
     <g id="line2d_32">
      <g>
       <use xlink:href="#m4875965ceb" x="49.3975" y="17.730568" style="fill: #ffffff; stroke: #000000; stroke-width: 2"/>
      </g>
     </g>
     <g id="line2d_33">
      <g>
       <use xlink:href="#me081febe82" x="417.6" y="17.730568" style="fill: #ffffff; stroke: #000000; stroke-width: 2"/>
      </g>
     </g>
     <g id="text_14">
      <!-- 1.0 -->
      <g transform="translate(26.81375 22.289631)scale(0.12 -0.12)">
       <defs>
        <path id="DejaVuSans-31" d="M 794 531 
L 1825 531 
L 1825 4091 
L 703 3866 
L 703 4441 
L 1819 4666 
L 2450 4666 
L 2450 531 
L 3481 531 
L 3481 0 
L 794 0 
L 794 531 
z
" transform="scale(0.015625)"/>
       </defs>
       <use xlink:href="#DejaVuSans-31"/>
       <use xlink:href="#DejaVuSans-2e" x="63.623047"/>
       <use xlink:href="#DejaVuSans-30" x="95.410156"/>
      </g>
     </g>
    </g>
    <g id="text_15">
     <!-- Non-wetting Phase Saturation -->
     <g transform="translate(16.318125 212.750312)rotate(-90)scale(0.12 -0.12)">
      <defs>
       <path id="DejaVuSans-4e" d="M 628 4666 
L 1478 4666 
L 3547 763 
L 3547 4666 
L 4159 4666 
L 4159 0 
L 3309 0 
L 1241 3903 
L 1241 0 
L 628 0 
L 628 4666 
z
" transform="scale(0.015625)"/>
       <path id="DejaVuSans-6e" d="M 3513 2113 
L 3513 0 
L 2938 0 
L 2938 2094 
Q 2938 2591 2744 2837 
Q 2550 3084 2163 3084 
Q 1697 3084 1428 2787 
Q 1159 2491 1159 1978 
L 1159 0 
L 581 0 
L 581 3500 
L 1159 3500 
L 1159 2956 
Q 1366 3272 1645 3428 
Q 1925 3584 2291 3584 
Q 2894 3584 3203 3211 
Q 3513 2838 3513 2113 
z
" transform="scale(0.015625)"/>
       <path id="DejaVuSans-2d" d="M 313 2009 
L 1997 2009 
L 1997 1497 
L 313 1497 
L 313 2009 
z
" transform="scale(0.015625)"/>
       <path id="DejaVuSans-77" d="M 269 3500 
L 844 3500 
L 1563 769 
L 2278 3500 
L 2956 3500 
L 3675 769 
L 4391 3500 
L 4966 3500 
L 4050 0 
L 3372 0 
L 2619 2869 
L 1863 0 
L 1184 0 
L 269 3500 
z
" transform="scale(0.015625)"/>
       <path id="DejaVuSans-74" d="M 1172 4494 
L 1172 3500 
L 2356 3500 
L 2356 3053 
L 1172 3053 
L 1172 1153 
Q 1172 725 1289 603 
Q 1406 481 1766 481 
L 2356 481 
L 2356 0 
L 1766 0 
Q 1100 0 847 248 
Q 594 497 594 1153 
L 594 3053 
L 172 3053 
L 172 3500 
L 594 3500 
L 594 4494 
L 1172 4494 
z
" transform="scale(0.015625)"/>
       <path id="DejaVuSans-68" d="M 3513 2113 
L 3513 0 
L 2938 0 
L 2938 2094 
Q 2938 2591 2744 2837 
Q 2550 3084 2163 3084 
Q 1697 3084 1428 2787 
Q 1159 2491 1159 1978 
L 1159 0 
L 581 0 
L 581 4863 
L 1159 4863 
L 1159 2956 
Q 1366 3272 1645 3428 
Q 1925 3584 2291 3584 
Q 2894 3584 3203 3211 
Q 3513 2838 3513 2113 
z
" transform="scale(0.015625)"/>
       <path id="DejaVuSans-53" d="M 3425 4513 
L 3425 3897 
Q 3066 4069 2747 4153 
Q 2428 4238 2131 4238 
Q 1616 4238 1336 4038 
Q 1056 3838 1056 3469 
Q 1056 3159 1242 3001 
Q 1428 2844 1947 2747 
L 2328 2669 
Q 3034 2534 3370 2195 
Q 3706 1856 3706 1288 
Q 3706 609 3251 259 
Q 2797 -91 1919 -91 
Q 1588 -91 1214 -16 
Q 841 59 441 206 
L 441 856 
Q 825 641 1194 531 
Q 1563 422 1919 422 
Q 2459 422 2753 634 
Q 3047 847 3047 1241 
Q 3047 1584 2836 1778 
Q 2625 1972 2144 2069 
L 1759 2144 
Q 1053 2284 737 2584 
Q 422 2884 422 3419 
Q 422 4038 858 4394 
Q 1294 4750 2059 4750 
Q 2388 4750 2728 4690 
Q 3069 4631 3425 4513 
z
" transform="scale(0.015625)"/>
      </defs>
      <use xlink:href="#DejaVuSans-4e"/>
      <use xlink:href="#DejaVuSans-6f" x="74.804688"/>
      <use xlink:href="#DejaVuSans-6e" x="135.986328"/>
      <use xlink:href="#DejaVuSans-2d" x="199.365234"/>
      <use xlink:href="#DejaVuSans-77" x="235.449219"/>
      <use xlink:href="#DejaVuSans-65" x="317.236328"/>
      <use xlink:href="#DejaVuSans-74" x="378.759766"/>
      <use xlink:href="#DejaVuSans-74" x="417.96875"/>
      <use xlink:href="#DejaVuSans-69" x="457.177734"/>
      <use xlink:href="#DejaVuSans-6e" x="484.960938"/>
      <use xlink:href="#DejaVuSans-67" x="548.339844"/>
      <use xlink:href="#DejaVuSans-20" x="611.816406"/>
      <use xlink:href="#DejaVuSans-50" x="643.603516"/>
      <use xlink:href="#DejaVuSans-68" x="703.90625"/>
      <use xlink:href="#DejaVuSans-61" x="767.285156"/>
      <use xlink:href="#DejaVuSans-73" x="828.564453"/>
      <use xlink:href="#DejaVuSans-65" x="880.664062"/>
      <use xlink:href="#DejaVuSans-20" x="942.1875"/>
      <use xlink:href="#DejaVuSans-53" x="973.974609"/>
      <use xlink:href="#DejaVuSans-61" x="1037.451172"/>
      <use xlink:href="#DejaVuSans-74" x="1098.730469"/>
      <use xlink:href="#DejaVuSans-75" x="1137.939453"/>
      <use xlink:href="#DejaVuSans-72" x="1201.318359"/>
      <use xlink:href="#DejaVuSans-61" x="1242.431641"/>
      <use xlink:href="#DejaVuSans-74" x="1303.710938"/>
      <use xlink:href="#DejaVuSans-69" x="1342.919922"/>
      <use xlink:href="#DejaVuSans-6f" x="1370.703125"/>
      <use xlink:href="#DejaVuSans-6e" x="1431.884766"/>
     </g>
    </g>
   </g>
   <g id="line2d_34">
    <path d="M 126.068049 226.927026 
L 126.068049 226.858113 
L 129.748034 225.270192 
L 141.832772 225.125036 
L 137.614053 225.047326 
L 141.832772 225.019468 
L 146.267929 223.506325 
L 146.267929 223.469669 
L 150.942937 222.736557 
L 150.942937 222.396393 
L 155.88523 221.633957 
L 150.942937 221.562112 
L 155.88523 221.431618 
L 155.88523 221.268867 
L 150.942937 221.084122 
L 150.942937 220.908176 
L 146.267929 220.711702 
L 146.267929 220.635458 
L 141.832772 220.488835 
L 141.832772 220.409659 
L 146.267929 220.290895 
L 146.267929 220.251307 
L 155.88523 220.145739 
L 161.127234 219.494736 
L 161.127234 219.329052 
L 166.70766 219.299728 
L 166.70766 219.157504 
L 172.673238 219.145774 
L 172.673238 218.927307 
L 179.081102 218.919976 
L 179.081102 218.356946 
L 186.002122 218.348148 
L 186.002122 217.698611 
L 179.081102 217.639962 
L 186.002122 217.595975 
L 193.525699 217.179568 
L 193.525699 217.079864 
L 201.766845 216.650261 
L 193.525699 216.606274 
L 201.766845 216.483111 
L 193.525699 216.434726 
L 201.766845 216.374611 
L 201.766845 216.295435 
L 186.002122 216.090163 
L 186.002122 215.971399 
L 172.673238 215.748533 
L 172.673238 215.708945 
L 161.127234 215.376112 
L 161.127234 215.208962 
L 172.673238 215.065273 
L 186.002122 214.912785 
L 186.002122 214.836542 
L 201.766845 214.689919 
L 201.766845 214.61954 
L 193.525699 214.455323 
L 193.525699 214.377613 
L 186.002122 214.296971 
L 193.525699 214.288174 
L 193.525699 214.219261 
L 201.766845 214.097565 
L 201.766845 213.984665 
L 193.525699 213.879097 
L 193.525699 213.827779 
L 179.081102 213.631305 
L 179.081102 213.59465 
L 186.002122 213.494946 
L 186.002122 213.354189 
L 179.081102 213.222229 
L 179.081102 213.093201 
L 172.673238 212.928984 
L 186.002122 212.839544 
L 186.002122 212.682658 
L 193.525699 212.587354 
L 193.525699 212.437799 
L 186.002122 212.308771 
L 186.002122 212.22373 
L 172.673238 212.000864 
L 172.673238 211.902627 
L 166.70766 211.72668 
L 161.127234 211.575659 
L 161.127234 211.477422 
L 155.88523 211.30734 
L 155.88523 210.871872 
L 150.942937 210.619681 
L 141.832772 210.245794 
L 141.832772 210.15782 
L 133.591626 209.760474 
L 133.591626 209.581594 
L 129.748034 209.414445 
L 129.748034 209.317674 
L 146.267929 208.973111 
L 146.267929 208.826489 
L 150.942937 208.69013 
L 150.942937 208.435007 
L 155.88523 208.303047 
L 155.88523 208.260526 
L 161.127234 208.147627 
L 161.127234 208.108039 
L 155.88523 207.92916 
L 155.88523 207.65351 
L 161.127234 207.518617 
L 161.127234 207.134466 
L 155.88523 207.065554 
L 161.127234 207.053824 
L 161.127234 207.011303 
L 172.673238 206.770843 
L 172.673238 206.715126 
L 179.081102 206.578767 
L 179.081102 206.474665 
L 201.766845 206.182887 
L 201.766845 206.043596 
L 193.525699 205.993744 
L 201.766845 205.945359 
L 201.766845 205.309017 
L 210.877009 205.303152 
L 201.766845 205.262098 
L 210.877009 204.967387 
L 210.877009 204.649216 
L 201.766845 204.506993 
L 221.061306 204.377965 
L 210.877009 204.341309 
L 221.061306 204.103781 
L 221.061306 203.750421 
L 210.877009 203.619927 
L 210.877009 203.593535 
L 201.766845 203.451311 
L 186.002122 203.166864 
L 186.002122 203.134607 
L 193.525699 203.007045 
L 193.525699 202.974788 
L 186.002122 202.8267 
L 186.002122 202.732862 
L 201.766845 202.6053 
L 193.525699 202.458678 
L 193.525699 202.389765 
L 186.002122 202.250474 
L 193.525699 202.118514 
L 193.525699 201.908844 
L 210.877009 201.722633 
L 210.877009 201.493902 
L 193.525699 201.325286 
L 193.525699 201.247576 
L 186.002122 201.115616 
L 186.002122 201.080427 
L 172.673238 200.857561 
L 172.673238 200.721202 
L 161.127234 200.444086 
L 161.127234 200.398633 
L 150.942937 200.0658 
L 150.942937 199.97636 
L 155.88523 199.876657 
L 150.942937 199.730035 
L 155.88523 199.721237 
L 150.942937 199.652325 
L 150.942937 199.496905 
L 146.267929 199.329755 
L 146.267929 199.16114 
L 155.88523 198.961733 
L 155.88523 198.866429 
L 161.127234 198.731536 
L 161.127234 198.689015 
L 166.70766 198.56292 
L 166.70766 198.205161 
L 161.127234 198.045343 
L 161.127234 197.93391 
L 155.88523 197.768227 
L 155.88523 197.649463 
L 150.942937 197.51457 
L 150.942937 197.385542 
L 155.88523 197.259447 
L 155.88523 197.216926 
L 161.127234 197.074703 
L 161.127234 197.02925 
L 166.70766 196.911952 
L 166.70766 196.838641 
L 161.127234 196.678822 
L 161.127234 196.567389 
L 155.88523 196.450091 
L 166.70766 196.331327 
L 166.70766 195.689121 
L 172.673238 195.634871 
L 166.70766 195.473586 
L 166.70766 195.412005 
L 161.127234 195.269781 
L 161.127234 195.109962 
L 172.673238 194.947211 
L 172.673238 194.762467 
L 179.081102 194.703818 
L 172.673238 194.538135 
L 179.081102 194.429634 
L 179.081102 194.312336 
L 172.673238 194.148119 
L 179.081102 194.001497 
L 179.081102 193.916456 
L 186.002122 193.83728 
L 179.081102 193.696522 
L 179.081102 193.633475 
L 186.002122 193.463393 
L 186.002122 193.420872 
L 193.525699 193.236128 
L 193.525699 193.05285 
L 186.002122 192.928221 
L 186.002122 192.809457 
L 179.081102 192.750808 
L 186.002122 192.74201 
L 186.002122 192.668699 
L 193.525699 192.607118 
L 201.766845 192.517678 
L 193.525699 192.375454 
L 193.525699 192.297745 
L 186.002122 192.149656 
L 186.002122 192.066081 
L 179.081102 191.934121 
L 166.70766 191.611552 
L 150.942937 191.143826 
L 150.942937 190.868176 
L 193.525699 190.437106 
L 210.877009 190.296349 
L 210.877009 189.862346 
L 201.766845 189.721589 
L 201.766845 189.692264 
L 193.525699 189.551507 
L 201.766845 189.548574 
L 193.525699 189.45327 
L 193.525699 189.407817 
L 179.081102 189.212809 
L 179.081102 188.909301 
L 166.70766 188.679103 
L 179.081102 188.576468 
L 179.081102 188.491427 
L 186.002122 188.377061 
L 179.081102 188.281757 
L 221.061306 187.92693 
L 210.877009 187.890275 
L 221.061306 187.784707 
L 210.877009 187.658611 
L 221.061306 187.599962 
L 201.766845 187.349238 
L 201.766845 187.305251 
L 186.002122 187.126372 
L 186.002122 187.042797 
L 172.673238 186.814066 
L 172.673238 186.695302 
L 179.081102 186.605863 
L 179.081102 186.292091 
L 166.70766 186.053096 
L 166.70766 186.010576 
L 179.081102 185.846358 
L 179.081102 185.812635 
L 186.002122 185.718797 
L 186.002122 185.553114 
L 179.081102 185.494465 
L 186.002122 185.4886 
L 193.525699 185.374234 
L 193.525699 185.300923 
L 201.766845 185.167497 
L 201.766845 184.988617 
L 210.877009 184.878651 
L 210.877009 184.85959 
L 221.061306 184.856657 
L 210.877009 184.761353 
L 210.877009 184.723231 
L 193.525699 184.544351 
L 193.525699 184.40506 
L 221.061306 184.236444 
L 221.061306 184.192458 
L 232.60731 184.185127 
L 221.061306 183.932936 
L 221.061306 183.913875 
L 210.877009 183.780449 
L 210.877009 183.730597 
L 221.061306 183.639691 
L 201.766845 183.46521 
L 201.766845 183.394832 
L 186.002122 183.192493 
L 186.002122 183.160236 
L 193.525699 183.023877 
L 193.525699 182.982823 
L 221.061306 182.833268 
L 221.061306 182.815673 
L 232.60731 182.468178 
L 232.60731 181.689613 
L 221.061306 181.545923 
L 221.061306 181.529795 
L 232.60731 181.374375 
L 221.061306 181.235084 
L 221.061306 181.172036 
L 232.60731 181.041542 
L 232.60731 180.88319 
L 193.525699 180.565019 
L 193.525699 180.516634 
L 172.673238 180.298166 
L 155.88523 180.031314 
L 155.88523 179.982928 
L 210.877009 179.861232 
L 232.60731 179.798184 
L 232.60731 179.724873 
L 221.061306 179.541595 
L 221.061306 179.418432 
L 201.766845 179.204363 
L 201.766845 179.05041 
L 193.525699 178.966835 
L 201.766845 178.963902 
L 201.766845 178.648664 
L 193.525699 178.557758 
L 201.766845 178.548961 
L 201.766845 178.506441 
L 210.877009 178.383278 
L 210.877009 178.295304 
L 193.525699 178.103229 
L 193.525699 178.048979 
L 210.877009 177.897958 
L 210.877009 177.878897 
L 221.061306 177.754268 
L 221.061306 177.724943 
L 232.60731 177.587118 
L 210.877009 177.409705 
L 210.877009 177.18244 
L 232.60731 177.051946 
L 221.061306 176.93025 
L 221.061306 176.889195 
L 201.766845 176.735242 
L 201.766845 176.664863 
L 210.877009 176.535835 
L 210.877009 176.403875 
L 232.60731 176.317368 
L 232.60731 176.160482 
L 210.877009 175.997731 
L 210.877009 175.959609 
L 193.525699 175.790993 
L 193.525699 175.53587 
L 186.002122 175.421505 
L 186.002122 175.289545 
L 201.766845 175.166382 
L 201.766845 175.005097 
L 193.525699 174.883401 
L 201.766845 174.881935 
L 193.525699 174.785164 
L 193.525699 174.716251 
L 186.002122 174.566696 
L 186.002122 174.280783 
L 179.081102 174.072579 
L 201.766845 173.890767 
L 201.766845 173.845314 
L 210.877009 173.722151 
L 210.877009 173.518346 
L 201.766845 173.475826 
L 210.877009 173.425974 
L 210.877009 173.370257 
L 221.061306 173.358528 
L 210.877009 173.321872 
L 221.061306 173.232432 
L 210.877009 173.091675 
L 210.877009 173.027161 
L 193.525699 172.860011 
L 193.525699 172.808694 
L 221.061306 172.632747 
L 221.061306 172.556503 
L 232.60731 172.509584 
L 221.061306 172.4568 
L 221.061306 172.440671 
L 193.525699 172.273522 
L 193.525699 172.228069 
L 210.877009 172.131298 
L 221.061306 172.009602 
L 221.061306 171.921628 
L 232.60731 171.794067 
L 221.061306 171.666505 
L 232.60731 171.541876 
L 221.061306 171.401118 
L 201.766845 171.213442 
L 201.766845 171.12107 
L 186.002122 170.96565 
L 186.002122 170.907001 
L 172.673238 170.67827 
L 172.673238 170.609357 
L 161.127234 170.39089 
L 161.127234 170.311714 
L 155.88523 170.153362 
L 155.88523 170.10351 
L 150.942937 169.9173 
L 150.942937 169.688569 
L 146.267929 169.493561 
L 146.267929 169.361601 
L 137.614053 168.967186 
L 137.614053 168.905605 
L 133.591626 168.736989 
L 126.068049 168.345507 
L 129.748034 168.305919 
L 126.068049 168.109445 
L 126.068049 167.912971 
L 133.591626 167.792741 
L 141.832772 167.578672 
L 141.832772 167.525888 
L 172.673238 167.105082 
L 172.673238 167.075757 
L 179.081102 166.933534 
L 179.081102 166.863155 
L 201.766845 166.584572 
L 201.766845 166.559646 
L 210.877009 166.41449 
L 210.877009 166.323584 
L 193.525699 166.131509 
L 193.525699 166.053799 
L 186.002122 165.913042 
L 186.002122 165.525958 
L 179.081102 165.393998 
L 172.673238 165.273768 
L 179.081102 165.176997 
L 172.673238 165.027442 
L 172.673238 164.986388 
L 166.70766 164.816306 
L 161.127234 164.697542 
L 179.081102 164.484939 
L 179.081102 164.364709 
L 172.673238 164.203424 
L 172.673238 164.103721 
L 166.70766 163.970295 
L 166.70766 163.926308 
L 155.88523 163.710773 
L 161.127234 163.699043 
L 155.88523 163.631597 
L 155.88523 163.197595 
L 166.70766 163.011384 
L 166.70766 162.973262 
L 193.525699 162.685882 
L 193.525699 162.568584 
L 210.877009 162.376509 
L 210.877009 162.199096 
L 186.002122 161.877993 
L 186.002122 161.792952 
L 179.081102 161.646329 
L 179.081102 161.590613 
L 193.525699 161.448389 
L 193.525699 161.254848 
L 186.002122 161.140482 
L 186.002122 161.056907 
L 179.081102 160.905886 
L 193.525699 160.699149 
L 193.525699 160.363383 
L 201.766845 160.338458 
L 193.525699 160.294471 
L 193.525699 160.249018 
L 201.766845 160.246085 
L 193.525699 160.150781 
L 193.525699 160.105328 
L 179.081102 159.91032 
L 179.081102 159.794488 
L 166.70766 159.555494 
L 166.70766 159.482183 
L 161.127234 159.361952 
L 161.127234 159.247587 
L 155.88523 159.130289 
L 155.88523 159.008592 
L 150.942937 158.925018 
L 155.88523 158.913288 
L 155.88523 158.867835 
L 193.525699 158.309203 
L 193.525699 158.212433 
L 210.877009 158.061412 
L 210.877009 157.743241 
L 201.766845 157.587821 
L 210.877009 157.555564 
L 221.061306 157.417739 
L 221.061306 157.17288 
L 232.60731 157.158217 
L 221.061306 157.127427 
L 232.60731 157.004264 
L 232.60731 156.87377 
L 221.061306 156.737411 
L 221.061306 156.667032 
L 210.877009 156.549734 
L 210.877009 156.448565 
L 221.061306 156.345929 
L 221.061306 156.275551 
L 210.877009 156.133327 
L 210.877009 156.095205 
L 193.525699 155.907528 
L 193.525699 155.810758 
L 179.081102 155.614284 
L 179.081102 155.513114 
L 172.673238 155.444202 
L 179.081102 155.438337 
L 179.081102 155.322505 
L 221.061306 155.076179 
L 232.60731 154.92076 
L 210.877009 154.743346 
L 210.877009 154.702292 
L 193.525699 154.514615 
L 193.525699 154.414912 
L 186.002122 154.284418 
L 210.877009 154.16712 
L 232.60731 154.039559 
L 232.60731 153.976511 
L 221.061306 153.838686 
L 201.766845 153.664205 
L 201.766845 153.593827 
L 186.002122 153.38269 
L 221.061306 153.193547 
L 221.061306 152.979479 
L 232.60731 152.953087 
L 221.061306 152.884174 
L 221.061306 152.730221 
L 201.766845 152.554274 
L 201.766845 152.456037 
L 210.877009 152.34607 
L 193.525699 152.303549 
L 221.061306 152.258097 
L 201.766845 152.083616 
L 201.766845 151.983913 
L 179.081102 151.665742 
L 179.081102 151.610025 
L 161.127234 151.211213 
L 161.127234 151.139368 
L 150.942937 150.816798 
L 150.942937 150.740555 
L 146.267929 150.593932 
L 146.267929 150.514756 
L 141.832772 150.363735 
L 141.832772 150.278694 
L 137.614053 150.12474 
L 137.614053 150.036767 
L 133.591626 149.86082 
L 133.591626 149.766982 
L 129.748034 149.601298 
L 155.88523 149.404824 
L 155.88523 149.341777 
L 179.081102 149.151168 
L 186.002122 148.992815 
L 186.002122 148.831531 
L 201.766845 148.696638 
L 201.766845 148.517759 
L 193.525699 148.35794 
L 186.002122 148.227446 
L 186.002122 148.192257 
L 172.673238 147.969391 
L 172.673238 147.790512 
L 179.081102 147.65122 
L 179.081102 147.577909 
L 201.766845 147.379969 
L 201.766845 147.227482 
L 193.525699 147.073528 
L 193.525699 146.981156 
L 186.002122 146.932771 
L 193.525699 146.891716 
L 210.877009 146.831601 
L 210.877009 146.698175 
L 221.061306 146.577944 
L 210.877009 146.541289 
L 221.061306 146.445984 
L 210.877009 146.331619 
L 221.061306 146.202591 
L 221.061306 146.097023 
L 201.766845 145.922542 
L 201.766845 145.865359 
L 179.081102 145.670352 
L 179.081102 145.642493 
L 172.673238 145.588243 
L 179.081102 145.557452 
L 221.061306 145.421093 
L 221.061306 145.369776 
L 186.002122 145.138112 
L 186.002122 145.120518 
L 232.60731 145.042808 
L 232.60731 144.92551 
L 221.061306 144.888854 
L 232.60731 144.837536 
L 232.60731 144.777421 
L 210.877009 144.61467 
L 210.877009 144.550156 
L 193.525699 144.383007 
L 193.525699 144.331689 
L 186.002122 144.24958 
L 201.766845 144.080965 
L 201.766845 144.013518 
L 210.877009 143.893288 
L 210.877009 143.717341 
L 221.061306 143.591246 
L 221.061306 143.560455 
L 193.525699 143.381576 
L 232.60731 143.312663 
L 221.061306 143.280406 
L 232.60731 143.186568 
L 221.061306 143.149912 
L 232.60731 143.095662 
L 232.60731 143.060473 
L 210.877009 142.897722 
L 210.877009 142.8596 
L 193.525699 142.690984 
L 201.766845 142.581017 
L 201.766845 142.413868 
L 186.002122 142.136751 
L 172.673238 141.831777 
L 161.127234 141.531201 
L 161.127234 141.485748 
L 155.88523 141.353788 
L 161.127234 141.306869 
L 155.88523 141.237956 
L 161.127234 141.226226 
L 221.061306 140.976968 
L 221.061306 140.96084 
L 232.60731 140.840609 
L 210.877009 140.699852 
L 210.877009 140.658798 
L 193.525699 140.510709 
L 193.525699 140.456459 
L 186.002122 140.349424 
L 186.002122 140.180809 
L 193.525699 140.040051 
L 193.525699 139.994598 
L 186.002122 139.896361 
L 193.525699 139.893429 
L 193.525699 139.849442 
L 221.061306 139.754137 
L 232.60731 139.645637 
L 221.061306 139.608981 
L 232.60731 139.567927 
L 232.60731 139.516609 
L 193.525699 139.320135 
L 201.766845 139.309871 
L 232.60731 139.265885 
L 221.061306 139.192573 
L 221.061306 138.889065 
L 210.877009 138.749774 
L 210.877009 138.730713 
L 221.061306 138.611949 
L 221.061306 138.581158 
L 232.60731 138.471191 
L 232.60731 138.412542 
L 210.877009 138.227798 
L 193.525699 138.079709 
L 193.525699 137.960945 
L 186.002122 137.814323 
L 186.002122 137.730748 
L 179.081102 137.52401 
L 179.081102 137.333401 
L 172.673238 137.167718 
L 172.673238 137.126664 
L 166.70766 136.977109 
L 166.70766 136.622283 
L 161.127234 136.474194 
L 166.70766 136.374491 
L 166.70766 136.336369 
L 172.673238 136.241064 
L 166.70766 136.075381 
L 166.70766 135.971279 
L 161.127234 135.853981 
L 161.127234 135.739616 
L 155.88523 135.622318 
L 155.88523 135.550473 
L 150.942937 135.371593 
L 161.127234 135.182451 
L 161.127234 134.874543 
L 155.88523 134.70886 
L 155.88523 134.377493 
L 172.673238 134.167823 
L 172.673238 134.10331 
L 221.061306 133.656111 
L 221.061306 133.576935 
L 201.766845 133.402454 
L 201.766845 133.327677 
L 186.002122 133.144399 
L 186.002122 133.047628 
L 193.525699 132.955256 
L 193.525699 132.880479 
L 201.766845 132.761715 
L 201.766845 132.695734 
L 210.877009 132.625356 
L 201.766845 132.582835 
L 210.877009 132.530051 
L 210.877009 132.477267 
L 201.766845 132.33651 
L 201.766845 132.285192 
L 221.061306 132.15763 
L 210.877009 132.018339 
L 221.061306 131.956757 
L 232.60731 131.729493 
L 232.60731 131.653249 
L 221.061306 131.527154 
L 221.061306 131.503694 
L 210.877009 131.3732 
L 210.877009 131.346808 
L 201.766845 131.206051 
L 201.766845 131.176726 
L 193.525699 131.072624 
L 221.061306 130.947995 
L 221.061306 130.862954 
L 201.766845 130.68994 
L 201.766845 130.591703 
L 193.525699 130.462675 
L 186.002122 130.298458 
L 210.877009 130.154768 
L 210.877009 129.977355 
L 193.525699 129.811672 
L 193.525699 129.733962 
L 179.081102 129.537488 
L 179.081102 129.436318 
L 166.70766 129.19879 
L 166.70766 129.129877 
L 201.766845 128.986187 
L 201.766845 128.946599 
L 210.877009 128.84543 
L 210.877009 128.747193 
L 232.60731 128.580043 
L 245.936194 128.49207 
L 232.60731 128.342515 
L 245.936194 127.842533 
L 221.061306 127.659255 
L 221.061306 127.624065 
L 201.766845 127.473044 
L 201.766845 127.423193 
L 186.002122 127.242847 
L 186.002122 127.185664 
L 172.673238 126.956933 
L 172.673238 126.780986 
L 166.70766 126.590377 
L 166.70766 126.484809 
L 155.88523 126.169571 
L 166.70766 126.044942 
L 166.70766 125.687183 
L 161.127234 125.546426 
L 161.127234 125.481912 
L 155.88523 125.326492 
L 155.88523 125.25758 
L 150.942937 125.118288 
L 155.88523 125.027382 
L 155.88523 124.927679 
L 201.766845 124.392507 
L 201.766845 124.099262 
L 221.061306 123.96437 
L 210.877009 123.87493 
L 221.061306 123.857336 
L 221.061306 123.82068 
L 210.877009 123.690186 
L 210.877009 123.650598 
L 232.60731 123.514239 
L 232.60731 123.452658 
L 221.061306 123.314833 
L 221.061306 123.16821 
L 232.60731 123.133021 
L 245.936194 122.69462 
L 245.936194 122.231293 
L 210.877009 121.916055 
L 210.877009 121.877933 
L 193.525699 121.709317 
L 193.525699 121.655067 
L 186.002122 121.523107 
L 166.70766 121.121361 
L 150.942937 120.660967 
L 150.942937 120.570061 
L 133.591626 119.872138 
L 133.591626 119.70059 
L 137.614053 119.586225 
L 137.614053 119.075979 
L 141.832772 118.933755 
L 141.832772 118.788599 
L 150.942937 118.602388 
L 150.942937 118.4543 
L 155.88523 118.322339 
L 155.88523 118.193312 
L 161.127234 118.074548 
L 155.88523 118.005635 
L 161.127234 117.993905 
L 161.127234 117.960182 
L 179.081102 117.769573 
L 179.081102 117.719721 
L 193.525699 117.477794 
L 193.525699 117.386889 
L 201.766845 117.285719 
L 193.525699 117.128833 
L 193.525699 117.087779 
L 232.60731 116.886906 
L 245.936194 116.781338 
L 232.60731 116.622986 
L 232.60731 116.529147 
L 221.061306 116.432377 
L 232.60731 116.426512 
L 232.60731 116.37666 
L 245.936194 116.246166 
L 245.936194 115.963185 
L 221.061306 115.829758 
L 221.061306 115.796035 
L 186.002122 115.428013 
L 186.002122 115.288722 
L 193.525699 115.162627 
L 193.525699 115.001342 
L 186.002122 114.886976 
L 186.002122 114.33421 
L 201.766845 114.212513 
L 201.766845 113.856221 
L 221.061306 113.699335 
L 210.877009 113.662679 
L 221.061306 113.614294 
L 221.061306 113.332779 
L 210.877009 113.265333 
L 221.061306 113.246272 
L 245.936194 113.065926 
L 245.936194 112.97502 
L 221.061306 112.746289 
L 186.002122 112.362138 
L 186.002122 112.326949 
L 172.673238 112.01611 
L 172.673238 111.580641 
L 166.70766 111.40616 
L 166.70766 111.344579 
L 161.127234 111.161301 
L 161.127234 110.983888 
L 155.88523 110.86659 
L 155.88523 110.794745 
L 150.942937 110.653987 
L 150.942937 110.577744 
L 146.267929 110.431121 
L 146.267929 110.296229 
L 141.832772 110.152539 
L 141.832772 109.956065 
L 146.267929 109.796246 
L 146.267929 109.681881 
L 150.942937 109.592441 
L 150.942937 109.237615 
L 166.70766 108.934107 
L 166.70766 108.859329 
L 179.081102 108.667254 
L 179.081102 108.221522 
L 172.673238 108.055838 
L 172.673238 108.014784 
L 186.002122 107.846168 
L 186.002122 107.813911 
L 193.525699 107.659958 
L 193.525699 107.630633 
L 210.877009 107.495741 
L 210.877009 107.438558 
L 221.061306 107.303665 
L 221.061306 107.151178 
L 201.766845 107.001623 
L 221.061306 106.881393 
L 221.061306 106.761162 
L 232.60731 106.662925 
L 232.60731 106.44739 
L 245.936194 106.38141 
L 210.877009 106.057375 
L 186.002122 105.748002 
L 166.70766 105.33306 
L 155.88523 104.984099 
L 155.88523 104.833078 
L 150.942937 104.646867 
L 150.942937 104.573556 
L 146.267929 104.4284 
L 146.267929 104.293507 
L 141.832772 104.123425 
L 141.832772 103.987066 
L 137.614053 103.789126 
L 137.614053 103.648369 
L 133.591626 103.441631 
L 133.591626 103.352191 
L 129.748034 103.185042 
L 129.748034 103.088271 
L 126.068049 102.982703 
L 150.942937 102.674796 
L 150.942937 102.622012 
L 155.88523 102.479788 
L 155.88523 102.387416 
L 161.127234 102.246658 
L 161.127234 102.186543 
L 179.081102 101.940218 
L 179.081102 101.783332 
L 186.002122 101.627912 
L 186.002122 101.52381 
L 193.525699 101.366924 
L 193.525699 101.273086 
L 210.877009 101.166051 
L 210.877009 101.101537 
L 221.061306 100.959314 
L 221.061306 100.833218 
L 232.60731 100.732049 
L 245.936194 100.626481 
L 221.061306 100.424142 
L 221.061306 100.344966 
L 201.766845 100.170485 
L 201.766845 100.127965 
L 172.673238 99.685165 
L 172.673238 99.622117 
L 155.88523 99.163189 
L 141.832772 98.650011 
L 141.832772 98.551774 
L 133.591626 98.274657 
L 133.591626 98.126569 
L 137.614053 97.977014 
L 137.614053 97.915432 
L 146.267929 97.752681 
L 146.267929 97.622187 
L 161.127234 97.430112 
L 172.673238 97.174989 
L 172.673238 96.55331 
L 201.766845 96.317248 
L 201.766845 96.01374 
L 193.525699 95.962422 
L 201.766845 95.911104 
L 201.766845 95.884712 
L 210.877009 95.743954 
L 210.877009 95.672109 
L 193.525699 95.503494 
L 193.525699 95.425784 
L 179.081102 95.255702 
L 179.081102 94.90674 
L 172.673238 94.839294 
L 179.081102 94.80997 
L 179.081102 94.512326 
L 172.673238 94.364238 
L 172.673238 94.307055 
L 166.70766 94.241075 
L 172.673238 94.22348 
L 172.673238 94.135507 
L 179.081102 94.022607 
L 179.081102 93.943431 
L 186.002122 93.914107 
L 179.081102 93.865721 
L 179.081102 93.78068 
L 186.002122 93.667781 
L 186.002122 93.543152 
L 166.70766 93.452246 
L 179.081102 93.421455 
L 179.081102 93.176596 
L 210.877009 93.050501 
L 221.061306 92.878953 
L 221.061306 92.686877 
L 201.766845 92.515329 
L 201.766845 92.387767 
L 193.525699 92.276334 
L 210.877009 92.132644 
L 210.877009 92.069597 
L 201.766845 91.931772 
L 201.766845 91.889251 
L 193.525699 91.73823 
L 221.061306 91.622398 
L 221.061306 91.402465 
L 210.877009 91.249978 
L 221.061306 91.176666 
L 232.60731 90.997787 
L 232.60731 90.915678 
L 221.061306 90.801313 
L 210.877009 90.716272 
L 221.061306 90.694279 
L 221.061306 90.641495 
L 232.60731 90.560852 
L 210.877009 90.403966 
L 210.877009 90.339452 
L 186.002122 90.118053 
L 186.002122 90.096059 
L 150.942937 89.859997 
L 150.942937 89.807213 
L 210.877009 89.622469 
L 210.877009 89.450921 
L 193.525699 89.272041 
L 193.525699 89.225122 
L 179.081102 89.05504 
L 179.081102 88.990526 
L 166.70766 88.735403 
L 172.673238 88.660626 
L 166.70766 88.497875 
L 166.70766 88.189968 
L 155.88523 87.970034 
L 155.88523 87.876196 
L 146.267929 87.685587 
L 146.267929 87.635735 
L 141.832772 87.546295 
L 146.267929 87.534566 
L 193.525699 87.434862 
L 245.936194 87.181206 
L 232.60731 87.172408 
L 245.936194 87.052178 
L 232.60731 86.936346 
L 221.061306 86.788258 
L 245.936194 86.684156 
L 245.936194 86.588851 
L 221.061306 86.436364 
L 221.061306 86.379181 
L 210.877009 86.245755 
L 186.002122 85.936381 
L 166.70766 85.58742 
L 166.70766 85.364554 
L 161.127234 85.219398 
L 161.127234 85.203269 
L 155.88523 85.17981 
L 179.081102 85.171012 
L 245.936194 84.911491 
L 221.061306 84.759003 
L 221.061306 84.644638 
L 210.877009 84.493617 
L 210.877009 84.116797 
L 261.700917 84.021493 
L 232.60731 83.657869 
L 210.877009 83.512713 
L 210.877009 83.445267 
L 221.061306 83.351428 
L 210.877009 83.339698 
L 210.877009 83.330901 
L 201.766845 83.292779 
L 221.061306 83.244394 
L 221.061306 83.23413 
L 221.061306 83.222401 
L 245.936194 83.149089 
L 232.60731 83.10217 
L 232.60731 83.052319 
L 210.877009 82.889568 
L 210.877009 82.851446 
L 193.525699 82.68283 
L 193.525699 82.60512 
L 179.081102 82.40718 
L 179.081102 82.373457 
L 166.70766 82.213638 
L 166.70766 82.178449 
L 150.942937 82.001036 
L 150.942937 81.968779 
L 137.614053 81.845616 
L 141.832772 81.823623 
L 201.766845 81.656473 
L 232.60731 81.650608 
L 261.700917 80.9043 
L 201.766845 80.391122 
L 201.766845 80.34127 
L 186.002122 80.160925 
L 186.002122 80.103742 
L 172.673238 79.899937 
L 172.673238 79.831024 
L 166.70766 79.65801 
L 172.673238 79.498191 
L 172.673238 79.391157 
L 179.081102 79.279724 
L 179.081102 79.218142 
L 221.061306 78.775343 
L 221.061306 78.746018 
L 210.877009 78.602328 
L 210.877009 78.250435 
L 193.525699 78.061292 
L 193.525699 78.030501 
L 179.081102 77.763648 
L 172.673238 77.577438 
L 172.673238 77.517322 
L 166.70766 77.348707 
L 166.70766 77.224078 
L 161.127234 77.081854 
L 161.127234 77.011475 
L 155.88523 76.866319 
L 155.88523 76.649318 
L 150.942937 76.515891 
L 161.127234 76.427918 
L 172.673238 76.284228 
L 172.673238 76.228512 
L 179.081102 76.117078 
L 179.081102 75.973389 
L 172.673238 75.806239 
L 172.673238 75.708002 
L 166.70766 75.574576 
L 166.70766 75.530589 
L 161.127234 75.416223 
L 161.127234 75.348777 
L 155.88523 75.178695 
L 155.88523 74.810673 
L 193.525699 74.290163 
L 193.525699 74.216852 
L 201.766845 74.171399 
L 193.525699 74.127412 
L 193.525699 74.021844 
L 186.002122 73.973459 
L 193.525699 73.933871 
L 201.766845 73.793113 
L 201.766845 73.753525 
L 210.877009 73.677282 
L 201.766845 73.637694 
L 210.877009 73.571713 
L 210.877009 73.521862 
L 221.061306 73.470544 
L 221.061306 73.29753 
L 210.877009 73.255009 
L 221.061306 73.190495 
L 221.061306 73.120116 
L 201.766845 72.947102 
L 201.766845 72.848865 
L 186.002122 72.671452 
L 186.002122 72.614269 
L 179.081102 72.457383 
L 179.081102 72.426592 
L 186.002122 72.30343 
L 186.002122 72.051239 
L 179.081102 71.919279 
L 179.081102 71.828373 
L 172.673238 71.680284 
L 172.673238 71.623102 
L 166.70766 71.557121 
L 172.673238 71.539527 
L 172.673238 71.48381 
L 193.525699 71.281471 
L 193.525699 71.236018 
L 201.766845 71.09966 
L 201.766845 70.995558 
L 186.002122 70.794685 
L 193.525699 70.692049 
L 193.525699 70.530765 
L 186.002122 70.382676 
L 186.002122 70.334291 
L 172.673238 70.046911 
L 172.673238 69.910552 
L 166.70766 69.759531 
L 141.832772 69.252217 
L 126.068049 69.104129 
L 137.614053 69.101196 
L 210.877009 68.982432 
L 221.061306 68.841674 
L 221.061306 68.794755 
L 179.081102 68.532301 
L 150.942937 68.156948 
L 155.88523 68.061643 
L 155.88523 67.523539 
L 150.942937 67.388646 
L 150.942937 67.312403 
L 146.267929 67.220031 
L 150.942937 67.211233 
L 150.942937 67.130591 
L 179.081102 66.825616 
L 179.081102 66.774298 
L 186.002122 66.648203 
L 186.002122 66.621811 
L 179.081102 66.563162 
L 186.002122 66.52504 
L 232.60731 66.167282 
L 232.60731 65.95028 
L 210.877009 65.777266 
L 210.877009 65.714218 
L 193.525699 65.535339 
L 193.525699 65.466427 
L 179.081102 65.26702 
L 179.081102 65.174648 
L 166.70766 64.935653 
L 166.70766 64.818355 
L 161.127234 64.676132 
L 172.673238 64.564699 
L 172.673238 64.294913 
L 201.766845 63.975277 
L 201.766845 63.711356 
L 179.081102 63.346266 
L 172.673238 63.157124 
L 179.081102 63.151259 
L 172.673238 63.094076 
L 172.673238 62.97971 
L 179.081102 62.970913 
L 172.673238 62.91373 
L 172.673238 62.815493 
L 221.061306 62.467998 
L 221.061306 62.195281 
L 201.766845 62.022266 
L 201.766845 61.994408 
L 193.525699 61.849252 
L 221.061306 61.726089 
L 221.061306 61.648379 
L 232.60731 61.509088 
L 232.60731 61.468033 
L 221.061306 61.431378 
L 232.60731 61.390324 
L 245.936194 61.363931 
L 232.60731 61.280357 
L 232.60731 61.211444 
L 210.877009 61.034031 
L 210.877009 60.935794 
L 193.525699 60.756915 
L 193.525699 60.682137 
L 210.877009 60.523785 
L 210.877009 60.418217 
L 201.766845 60.292122 
L 201.766845 60.264263 
L 210.877009 60.135236 
L 210.877009 60.035532 
L 221.061306 59.941694 
L 201.766845 59.76868 
L 201.766845 59.670443 
L 186.002122 59.49303 
L 186.002122 59.233508 
L 232.60731 59.144068 
L 245.936194 59.056095 
L 232.60731 59.028236 
L 245.936194 58.937331 
L 232.60731 58.799506 
L 232.60731 58.726194 
L 210.877009 58.560511 
L 210.877009 58.522389 
L 193.525699 58.374301 
L 193.525699 58.32005 
L 179.081102 58.148502 
L 179.081102 57.982819 
L 186.002122 57.833264 
L 186.002122 57.737959 
L 193.525699 57.652918 
L 193.525699 57.585472 
L 186.002122 57.456444 
L 186.002122 57.371403 
L 179.081102 57.312754 
L 186.002122 57.303957 
L 186.002122 57.230646 
L 193.525699 57.100152 
L 193.525699 57.045901 
L 201.766845 56.903678 
L 201.766845 56.875819 
L 210.877009 56.73213 
L 210.877009 56.408094 
L 245.936194 56.21162 
L 245.936194 55.871456 
L 221.061306 55.743894 
L 210.877009 55.663252 
L 221.061306 55.658853 
L 245.936194 55.54742 
L 221.061306 55.392001 
L 201.766845 55.208723 
L 186.002122 55.051837 
L 186.002122 54.871491 
L 201.766845 54.742463 
L 201.766845 54.675017 
L 245.936194 54.550388 
L 261.700917 53.962432 
L 221.061306 53.717573 
L 221.061306 53.66039 
L 201.766845 53.478578 
L 186.002122 53.321692 
L 186.002122 53.192665 
L 179.081102 53.060704 
L 221.061306 52.824642 
L 221.061306 52.742534 
L 210.877009 52.61204 
L 210.877009 52.547526 
L 193.525699 52.381843 
L 193.525699 52.304133 
L 201.766845 52.1927 
L 201.766845 52.12672 
L 245.936194 51.975698 
L 245.936194 51.949306 
L 232.60731 51.81588 
L 232.60731 51.692717 
L 201.766845 51.431729 
L 201.766845 51.383344 
L 210.877009 51.308567 
L 201.766845 51.181005 
L 201.766845 51.10916 
L 186.002122 50.925882 
L 186.002122 50.87603 
L 179.081102 50.738205 
L 232.60731 50.598914 
L 232.60731 50.565191 
L 245.936194 50.449359 
L 245.936194 50.422967 
L 232.60731 50.395109 
L 261.700917 49.876066 
L 232.60731 49.708916 
L 210.877009 49.471388 
L 210.877009 49.444996 
L 201.766845 49.332096 
L 201.766845 49.289576 
L 186.002122 49.110697 
L 186.002122 49.053514 
L 179.081102 48.915689 
L 245.936194 48.744141 
L 261.700917 48.308672 
L 221.061306 48.132725 
L 232.60731 48.030089 
L 232.60731 48.011029 
L 245.936194 47.965576 
L 261.700917 47.64154 
L 232.60731 47.490519 
L 232.60731 47.409877 
L 245.936194 47.304308 
L 245.936194 47.163551 
L 221.061306 46.990537 
L 245.936194 46.940685 
L 261.700917 46.660636 
L 245.936194 46.628379 
L 261.700917 46.387918 
L 245.936194 46.298479 
L 261.700917 46.115201 
L 245.936194 45.943653 
L 245.936194 45.85128 
L 232.60731 45.66507 
L 232.60731 45.624016 
L 245.936194 45.597624 
L 232.60731 45.52138 
L 221.061306 45.380622 
L 221.061306 45.363028 
L 245.936194 45.270656 
L 261.700917 45.129898 
L 232.60731 44.924627 
L 232.60731 44.792667 
L 221.061306 44.753079 
L 232.60731 44.704693 
L 245.936194 44.635781 
L 232.60731 44.607922 
L 232.60731 44.459834 
L 210.877009 44.278022 
L 210.877009 44.213508 
L 201.766845 44.100609 
L 179.081102 43.75458 
L 179.081102 43.722323 
L 186.002122 43.59916 
L 186.002122 43.279523 
L 166.70766 42.90417 
L 166.70766 42.861649 
L 161.127234 42.732622 
L 172.673238 42.610925 
L 172.673238 42.470168 
L 186.002122 42.314748 
L 186.002122 42.282491 
L 245.936194 41.968719 
L 261.700917 41.829428 
L 221.061306 41.483399 
L 221.061306 41.248803 
L 210.877009 41.143235 
L 245.936194 41.030336 
L 261.700917 40.9277 
L 245.936194 40.886646 
L 261.700917 40.685773 
L 245.936194 40.533286 
L 245.936194 40.410123 
L 261.700917 40.314818 
L 232.60731 40.188723 
L 232.60731 40.155 
L 201.766845 39.942397 
L 201.766845 39.892546 
L 186.002122 39.73566 
L 193.525699 39.619828 
L 193.525699 39.587571 
L 186.002122 39.457077 
L 186.002122 39.421888 
L 172.673238 39.199022 
L 172.673238 39.100785 
L 166.70766 38.924838 
L 166.70766 38.880851 
L 186.002122 38.7181 
L 186.002122 38.707837 
L 232.60731 38.548018 
L 232.60731 38.329551 
L 261.700917 38.226915 
L 261.700917 37.936603 
L 232.60731 37.794379 
L 261.700917 37.763588 
L 245.936194 37.688811 
L 245.936194 37.671216 
L 221.061306 37.518729 
L 221.061306 37.416093 
L 210.877009 37.285599 
L 210.877009 37.206423 
L 186.002122 36.888252 
L 186.002122 36.769488 
L 193.525699 36.630197 
L 193.525699 36.438122 
L 201.766845 36.370675 
L 193.525699 36.216722 
L 201.766845 36.093559 
L 201.766845 35.946937 
L 186.002122 35.741665 
L 172.673238 35.476279 
L 172.673238 35.413231 
L 166.70766 35.215291 
L 166.70766 35.081864 
L 161.127234 34.941107 
L 161.127234 34.876593 
L 155.88523 34.721173 
L 155.88523 34.652261 
L 150.942937 34.474848 
L 150.942937 34.422063 
L 141.832772 34.155211 
L 141.832772 33.584849 
L 161.127234 33.433828 
L 172.673238 33.269611 
L 186.002122 33.048211 
L 186.002122 33.002759 
L 193.525699 32.857602 
L 193.525699 32.790156 
L 201.766845 32.65673 
L 193.525699 32.612743 
L 201.766845 32.586351 
L 201.766845 32.486648 
L 210.877009 32.354687 
L 210.877009 32.205133 
L 221.061306 32.08197 
L 221.061306 31.812185 
L 201.766845 31.637704 
L 201.766845 31.567325 
L 172.673238 31.147985 
L 172.673238 31.040951 
L 186.002122 30.850342 
L 186.002122 30.825416 
L 201.766845 30.686124 
L 201.766845 30.665597 
L 210.877009 30.55563 
L 210.877009 30.518975 
L 221.061306 30.460326 
L 210.877009 30.42367 
L 210.877009 30.363555 
L 193.525699 30.194939 
L 193.525699 30.117229 
L 186.002122 29.979404 
L 186.002122 29.945681 
L 232.60731 29.816654 
L 221.061306 29.779998 
L 232.60731 29.715484 
L 232.60731 29.637774 
L 261.700917 29.551267 
L 245.936194 29.435435 
L 261.700917 29.282948 
L 261.700917 29.256556 
L 245.936194 29.114332 
L 245.936194 29.074744 
L 232.60731 28.9985 
L 245.936194 28.980906 
L 261.700917 28.873871 
L 280.995378 28.316706 
L 245.936194 28.187679 
L 210.877009 27.948684 
L 210.877009 27.923758 
L 201.766845 27.844582 
L 210.877009 27.832852 
L 221.061306 27.725818 
L 221.061306 27.709689 
L 261.700917 27.55427 
L 280.995378 27.25516 
L 261.700917 27.236099 
L 280.995378 27.064551 
L 261.700917 26.923793 
L 261.700917 26.87834 
L 210.877009 26.586562 
L 210.877009 26.542575 
L 201.766845 26.498588 
L 210.877009 26.442872 
L 221.061306 26.319709 
L 221.061306 26.287452 
L 210.877009 26.14083 
L 210.877009 26.114438 
L 201.766845 26.071917 
L 210.877009 26.064586 
L 261.700917 25.797733 
L 210.877009 25.508887 
L 210.877009 25.441441 
L 193.525699 25.275757 
L 280.995378 25.171656 
L 261.700917 25.152595 
L 261.700917 25.104209 
L 232.60731 24.93706 
L 232.60731 24.840289 
L 280.995378 24.714194 
L 221.061306 24.375496 
L 221.061306 24.319779 
L 245.936194 24.20688 
L 261.700917 24.180488 
L 232.60731 24.139434 
L 232.60731 24.126238 
L 210.877009 24.013338 
L 261.700917 23.956156 
L 245.936194 23.882845 
L 232.60731 23.765547 
L 232.60731 23.715695 
L 210.877009 23.538282 
L 210.877009 23.50016 
L 193.525699 23.352071 
L 193.525699 23.297821 
L 186.002122 23.215713 
L 193.525699 23.189321 
L 193.525699 23.167327 
L 210.877009 23.042698 
L 221.061306 22.942995 
L 210.877009 22.812501 
L 210.877009 22.786109 
L 201.766845 22.660014 
L 210.877009 22.56031 
L 201.766845 22.419553 
L 261.700917 22.234809 
L 261.700917 22.133639 
L 245.936194 22.101382 
L 261.700917 22.03247 
L 280.995378 22.02074 
L 261.700917 21.938631 
L 245.936194 21.843327 
L 280.995378 21.755353 
L 261.700917 21.717232 
L 261.700917 21.658583 
L 305.870266 21.654184 
L 280.995378 21.614596 
L 305.870266 21.36827 
L 280.995378 21.352142 
L 305.870266 21.082356 
L 305.870266 20.997315 
L 245.936194 20.855092 
L 221.061306 20.714334 
L 210.877009 20.6073 
L 221.061306 20.514928 
L 221.061306 20.482671 
L 232.60731 20.478272 
L 221.061306 20.375636 
L 221.061306 20.334582 
L 193.525699 20.195291 
L 201.766845 20.18796 
L 305.870266 20.048669 
L 305.870266 19.987087 
L 245.936194 19.853661 
L 245.936194 19.824336 
L 221.061306 19.674781 
L 221.061306 19.591207 
L 305.870266 19.475375 
L 340.929451 19.023778 
L 305.870266 19.012048 
L 340.929451 18.915277 
L 400.863523 18.912345 
L 280.995378 18.833169 
L 280.995378 18.814108 
L 221.061306 18.657222 
L 245.936194 18.641093 
L 245.936194 18.561917 
L 201.766845 18.384504 
L 172.673238 18.108854 
L 172.673238 18.080996 
L 261.700917 17.919711 
L 261.700917 17.906515 
L 400.863523 17.793616 
L 340.929451 17.742298 
L 400.863523 17.730568 
" clip-path="url(#p646be90576)" style="fill: none; stroke: #008000; stroke-width: 2; stroke-linecap: square"/>
   </g>
   <g id="line2d_35">
    <path d="M 66.133977 228.341932 
L 126.068049 228.341932 
L 126.068049 226.858113 
L 129.748034 226.858113 
L 129.748034 225.270192 
L 133.591626 225.270192 
L 133.591626 225.227672 
L 137.614053 225.227672 
L 137.614053 225.147029 
L 141.832772 225.147029 
L 141.832772 225.019468 
L 146.267929 225.019468 
L 146.267929 223.469669 
L 150.942937 223.469669 
L 150.942937 222.396393 
L 155.88523 222.396393 
L 155.88523 220.148671 
L 161.127234 220.148671 
L 161.127234 219.329052 
L 166.70766 219.329052 
L 166.70766 219.157504 
L 172.673238 219.157504 
L 172.673238 218.927307 
L 179.081102 218.927307 
L 179.081102 218.356946 
L 186.002122 218.356946 
L 186.002122 217.595975 
L 193.525699 217.595975 
L 193.525699 217.079864 
L 201.766845 217.079864 
L 201.766845 205.322213 
L 210.877009 205.322213 
L 210.877009 204.457141 
L 221.061306 204.457141 
L 221.061306 184.196856 
L 232.60731 184.196856 
L 232.60731 128.62403 
L 245.936194 128.62403 
L 245.936194 84.062547 
L 261.700917 84.062547 
L 261.700917 38.247442 
L 280.995378 38.247442 
L 280.995378 21.661515 
L 305.870266 21.661515 
L 305.870266 20.048669 
L 340.929451 20.048669 
L 340.929451 18.915277 
L 400.863523 18.915277 
L 400.863523 17.730568 
" clip-path="url(#p646be90576)" style="fill: none; stroke-dasharray: 11.1,4.8; stroke-dashoffset: 0; stroke: #ff0000; stroke-opacity: 0.6; stroke-width: 3"/>
   </g>
   <g id="patch_3">
    <path d="M 49.3975 238.8725 
L 49.3975 7.2 
" style="fill: none; stroke: #000000; stroke-width: 2; stroke-linejoin: miter; stroke-linecap: square"/>
   </g>
   <g id="patch_4">
    <path d="M 417.6 238.8725 
L 417.6 7.2 
" style="fill: none; stroke: #000000; stroke-width: 2; stroke-linejoin: miter; stroke-linecap: square"/>
   </g>
   <g id="patch_5">
    <path d="M 49.3975 238.8725 
L 417.6 238.8725 
" style="fill: none; stroke: #000000; stroke-width: 2; stroke-linejoin: miter; stroke-linecap: square"/>
   </g>
   <g id="patch_6">
    <path d="M 49.3975 7.2 
L 417.6 7.2 
" style="fill: none; stroke: #000000; stroke-width: 2; stroke-linejoin: miter; stroke-linecap: square"/>
   </g>
   <g id="legend_1">
    <g id="line2d_36">
     <path d="M 60.1975 22.918125 
L 72.1975 22.918125 
L 84.1975 22.918125 
" style="fill: none; stroke: #008000; stroke-width: 2; stroke-linecap: square"/>
    </g>
    <g id="text_16">
     <!-- IBIP -->
     <g transform="translate(93.7975 27.118125)scale(0.12 -0.12)">
      <defs>
       <path id="DejaVuSans-49" d="M 628 4666 
L 1259 4666 
L 1259 0 
L 628 0 
L 628 4666 
z
" transform="scale(0.015625)"/>
       <path id="DejaVuSans-42" d="M 1259 2228 
L 1259 519 
L 2272 519 
Q 2781 519 3026 730 
Q 3272 941 3272 1375 
Q 3272 1813 3026 2020 
Q 2781 2228 2272 2228 
L 1259 2228 
z
M 1259 4147 
L 1259 2741 
L 2194 2741 
Q 2656 2741 2882 2914 
Q 3109 3088 3109 3444 
Q 3109 3797 2882 3972 
Q 2656 4147 2194 4147 
L 1259 4147 
z
M 628 4666 
L 2241 4666 
Q 2963 4666 3353 4366 
Q 3744 4066 3744 3513 
Q 3744 3084 3544 2831 
Q 3344 2578 2956 2516 
Q 3422 2416 3680 2098 
Q 3938 1781 3938 1306 
Q 3938 681 3513 340 
Q 3088 0 2303 0 
L 628 0 
L 628 4666 
z
" transform="scale(0.015625)"/>
      </defs>
      <use xlink:href="#DejaVuSans-49"/>
      <use xlink:href="#DejaVuSans-42" x="29.492188"/>
      <use xlink:href="#DejaVuSans-49" x="98.095703"/>
      <use xlink:href="#DejaVuSans-50" x="127.587891"/>
     </g>
    </g>
    <g id="line2d_37">
     <path d="M 60.1975 40.531875 
L 72.1975 40.531875 
L 72.1975 40.531875 
L 84.1975 40.531875 
L 84.1975 40.531875 
" style="fill: none; stroke-dasharray: 11.1,4.8; stroke-dashoffset: 0; stroke: #ff0000; stroke-opacity: 0.6; stroke-width: 3"/>
    </g>
    <g id="text_17">
     <!-- MIO -->
     <g transform="translate(93.7975 44.731875)scale(0.12 -0.12)">
      <defs>
       <path id="DejaVuSans-4d" d="M 628 4666 
L 1569 4666 
L 2759 1491 
L 3956 4666 
L 4897 4666 
L 4897 0 
L 4281 0 
L 4281 4097 
L 3078 897 
L 2444 897 
L 1241 4097 
L 1241 0 
L 628 0 
L 628 4666 
z
" transform="scale(0.015625)"/>
       <path id="DejaVuSans-4f" d="M 2522 4238 
Q 1834 4238 1429 3725 
Q 1025 3213 1025 2328 
Q 1025 1447 1429 934 
Q 1834 422 2522 422 
Q 3209 422 3611 934 
Q 4013 1447 4013 2328 
Q 4013 3213 3611 3725 
Q 3209 4238 2522 4238 
z
M 2522 4750 
Q 3503 4750 4090 4092 
Q 4678 3434 4678 2328 
Q 4678 1225 4090 567 
Q 3503 -91 2522 -91 
Q 1538 -91 948 565 
Q 359 1222 359 2328 
Q 359 3434 948 4092 
Q 1538 4750 2522 4750 
z
" transform="scale(0.015625)"/>
      </defs>
      <use xlink:href="#DejaVuSans-4d"/>
      <use xlink:href="#DejaVuSans-49" x="86.279297"/>
      <use xlink:href="#DejaVuSans-4f" x="115.771484"/>
     </g>
    </g>
   </g>
  </g>
 </g>
 <defs>
  <clipPath id="p646be90576">
   <rect x="49.3975" y="7.2" width="368.2025" height="231.6725"/>
  </clipPath>
 </defs>
</svg>
