<?xml version="1.0" encoding="utf-8" standalone="no"?>
<!DOCTYPE svg PUBLIC "-//W3C//DTD SVG 1.1//EN"
  "http://www.w3.org/Graphics/SVG/1.1/DTD/svg11.dtd">
<svg xmlns:xlink="http://www.w3.org/1999/xlink" width="352.8pt" height="280.8pt" viewBox="0 0 352.8 280.8" xmlns="http://www.w3.org/2000/svg" version="1.1">
 <metadata>
  <rdf:RDF xmlns:dc="http://purl.org/dc/elements/1.1/" xmlns:cc="http://creativecommons.org/ns#" xmlns:rdf="http://www.w3.org/1999/02/22-rdf-syntax-ns#">
   <cc:Work>
    <dc:type rdf:resource="http://purl.org/dc/dcmitype/StillImage"/>
    <dc:date>2022-08-12T21:35:52.463810</dc:date>
    <dc:format>image/svg+xml</dc:format>
    <dc:creator>
     <cc:Agent>
      <dc:title>Matplotlib v3.5.3, https://matplotlib.org/</dc:title>
     </cc:Agent>
    </dc:creator>
   </cc:Work>
  </rdf:RDF>
 </metadata>
 <defs>
  <style type="text/css">*{stroke-linejoin: round; stroke-linecap: butt}</style>
 </defs>
 <g id="figure_1">
  <g id="patch_1">
   <path d="M 0 280.8 
L 352.8 280.8 
L 352.8 0 
L 0 0 
L 0 280.8 
z
" style="fill: none"/>
  </g>
  <g id="axes_1">
   <g id="patch_2">
    <path d="M 49.3975 238.8725 
L 345.6 238.8725 
L 345.6 11.759062 
L 49.3975 11.759062 
z
" style="fill: #ffffff"/>
   </g>
   <g id="matplotlib.axis_1">
    <g id="xtick_1">
     <g id="line2d_1">
      <defs>
       <path id="m0b3bcd9e92" d="M 0 0 
L 0 -6 
" style="stroke: #000000; stroke-width: 2"/>
      </defs>
      <g>
       <use xlink:href="#m0b3bcd9e92" x="62.86125" y="238.8725" style="fill: #ffffff; stroke: #000000; stroke-width: 2"/>
      </g>
     </g>
     <g id="line2d_2">
      <defs>
       <path id="m1244c8baa6" d="M 0 0 
L 0 6 
" style="stroke: #000000; stroke-width: 2"/>
      </defs>
      <g>
       <use xlink:href="#m1244c8baa6" x="62.86125" y="11.759062" style="fill: #ffffff; stroke: #000000; stroke-width: 2"/>
      </g>
     </g>
     <g id="text_1">
      <!-- 0 -->
      <g transform="translate(59.04375 251.490625)scale(0.12 -0.12)">
       <defs>
        <path id="DejaVuSans-30" d="M 2034 4250 
Q 1547 4250 1301 3770 
Q 1056 3291 1056 2328 
Q 1056 1369 1301 889 
Q 1547 409 2034 409 
Q 2525 409 2770 889 
Q 3016 1369 3016 2328 
Q 3016 3291 2770 3770 
Q 2525 4250 2034 4250 
z
M 2034 4750 
Q 2819 4750 3233 4129 
Q 3647 3509 3647 2328 
Q 3647 1150 3233 529 
Q 2819 -91 2034 -91 
Q 1250 -91 836 529 
Q 422 1150 422 2328 
Q 422 3509 836 4129 
Q 1250 4750 2034 4750 
z
" transform="scale(0.015625)"/>
       </defs>
       <use xlink:href="#DejaVuSans-30"/>
      </g>
     </g>
    </g>
    <g id="xtick_2">
     <g id="line2d_3">
      <g>
       <use xlink:href="#m0b3bcd9e92" x="119.911038" y="238.8725" style="fill: #ffffff; stroke: #000000; stroke-width: 2"/>
      </g>
     </g>
     <g id="line2d_4">
      <g>
       <use xlink:href="#m1244c8baa6" x="119.911038" y="11.759062" style="fill: #ffffff; stroke: #000000; stroke-width: 2"/>
      </g>
     </g>
     <g id="text_2">
      <!-- 500 -->
      <g transform="translate(108.458538 251.490625)scale(0.12 -0.12)">
       <defs>
        <path id="DejaVuSans-35" d="M 691 4666 
L 3169 4666 
L 3169 4134 
L 1269 4134 
L 1269 2991 
Q 1406 3038 1543 3061 
Q 1681 3084 1819 3084 
Q 2600 3084 3056 2656 
Q 3513 2228 3513 1497 
Q 3513 744 3044 326 
Q 2575 -91 1722 -91 
Q 1428 -91 1123 -41 
Q 819 9 494 109 
L 494 744 
Q 775 591 1075 516 
Q 1375 441 1709 441 
Q 2250 441 2565 725 
Q 2881 1009 2881 1497 
Q 2881 1984 2565 2268 
Q 2250 2553 1709 2553 
Q 1456 2553 1204 2497 
Q 953 2441 691 2322 
L 691 4666 
z
" transform="scale(0.015625)"/>
       </defs>
       <use xlink:href="#DejaVuSans-35"/>
       <use xlink:href="#DejaVuSans-30" x="63.623047"/>
       <use xlink:href="#DejaVuSans-30" x="127.246094"/>
      </g>
     </g>
    </g>
    <g id="xtick_3">
     <g id="line2d_5">
      <g>
       <use xlink:href="#m0b3bcd9e92" x="176.960826" y="238.8725" style="fill: #ffffff; stroke: #000000; stroke-width: 2"/>
      </g>
     </g>
     <g id="line2d_6">
      <g>
       <use xlink:href="#m1244c8baa6" x="176.960826" y="11.759062" style="fill: #ffffff; stroke: #000000; stroke-width: 2"/>
      </g>
     </g>
     <g id="text_3">
      <!-- 1000 -->
      <g transform="translate(161.690826 251.490625)scale(0.12 -0.12)">
       <defs>
        <path id="DejaVuSans-31" d="M 794 531 
L 1825 531 
L 1825 4091 
L 703 3866 
L 703 4441 
L 1819 4666 
L 2450 4666 
L 2450 531 
L 3481 531 
L 3481 0 
L 794 0 
L 794 531 
z
" transform="scale(0.015625)"/>
       </defs>
       <use xlink:href="#DejaVuSans-31"/>
       <use xlink:href="#DejaVuSans-30" x="63.623047"/>
       <use xlink:href="#DejaVuSans-30" x="127.246094"/>
       <use xlink:href="#DejaVuSans-30" x="190.869141"/>
      </g>
     </g>
    </g>
    <g id="xtick_4">
     <g id="line2d_7">
      <g>
       <use xlink:href="#m0b3bcd9e92" x="234.010614" y="238.8725" style="fill: #ffffff; stroke: #000000; stroke-width: 2"/>
      </g>
     </g>
     <g id="line2d_8">
      <g>
       <use xlink:href="#m1244c8baa6" x="234.010614" y="11.759062" style="fill: #ffffff; stroke: #000000; stroke-width: 2"/>
      </g>
     </g>
     <g id="text_4">
      <!-- 1500 -->
      <g transform="translate(218.740614 251.490625)scale(0.12 -0.12)">
       <use xlink:href="#DejaVuSans-31"/>
       <use xlink:href="#DejaVuSans-35" x="63.623047"/>
       <use xlink:href="#DejaVuSans-30" x="127.246094"/>
       <use xlink:href="#DejaVuSans-30" x="190.869141"/>
      </g>
     </g>
    </g>
    <g id="xtick_5">
     <g id="line2d_9">
      <g>
       <use xlink:href="#m0b3bcd9e92" x="291.060403" y="238.8725" style="fill: #ffffff; stroke: #000000; stroke-width: 2"/>
      </g>
     </g>
     <g id="line2d_10">
      <g>
       <use xlink:href="#m1244c8baa6" x="291.060403" y="11.759062" style="fill: #ffffff; stroke: #000000; stroke-width: 2"/>
      </g>
     </g>
     <g id="text_5">
      <!-- 2000 -->
      <g transform="translate(275.790403 251.490625)scale(0.12 -0.12)">
       <defs>
        <path id="DejaVuSans-32" d="M 1228 531 
L 3431 531 
L 3431 0 
L 469 0 
L 469 531 
Q 828 903 1448 1529 
Q 2069 2156 2228 2338 
Q 2531 2678 2651 2914 
Q 2772 3150 2772 3378 
Q 2772 3750 2511 3984 
Q 2250 4219 1831 4219 
Q 1534 4219 1204 4116 
Q 875 4013 500 3803 
L 500 4441 
Q 881 4594 1212 4672 
Q 1544 4750 1819 4750 
Q 2544 4750 2975 4387 
Q 3406 4025 3406 3419 
Q 3406 3131 3298 2873 
Q 3191 2616 2906 2266 
Q 2828 2175 2409 1742 
Q 1991 1309 1228 531 
z
" transform="scale(0.015625)"/>
       </defs>
       <use xlink:href="#DejaVuSans-32"/>
       <use xlink:href="#DejaVuSans-30" x="63.623047"/>
       <use xlink:href="#DejaVuSans-30" x="127.246094"/>
       <use xlink:href="#DejaVuSans-30" x="190.869141"/>
      </g>
     </g>
    </g>
    <g id="text_6">
     <!-- Position of slice along given axis -->
     <g transform="translate(100.205 271.104375)scale(0.12 -0.12)">
      <defs>
       <path id="DejaVuSans-50" d="M 1259 4147 
L 1259 2394 
L 2053 2394 
Q 2494 2394 2734 2622 
Q 2975 2850 2975 3272 
Q 2975 3691 2734 3919 
Q 2494 4147 2053 4147 
L 1259 4147 
z
M 628 4666 
L 2053 4666 
Q 2838 4666 3239 4311 
Q 3641 3956 3641 3272 
Q 3641 2581 3239 2228 
Q 2838 1875 2053 1875 
L 1259 1875 
L 1259 0 
L 628 0 
L 628 4666 
z
" transform="scale(0.015625)"/>
       <path id="DejaVuSans-6f" d="M 1959 3097 
Q 1497 3097 1228 2736 
Q 959 2375 959 1747 
Q 959 1119 1226 758 
Q 1494 397 1959 397 
Q 2419 397 2687 759 
Q 2956 1122 2956 1747 
Q 2956 2369 2687 2733 
Q 2419 3097 1959 3097 
z
M 1959 3584 
Q 2709 3584 3137 3096 
Q 3566 2609 3566 1747 
Q 3566 888 3137 398 
Q 2709 -91 1959 -91 
Q 1206 -91 779 398 
Q 353 888 353 1747 
Q 353 2609 779 3096 
Q 1206 3584 1959 3584 
z
" transform="scale(0.015625)"/>
       <path id="DejaVuSans-73" d="M 2834 3397 
L 2834 2853 
Q 2591 2978 2328 3040 
Q 2066 3103 1784 3103 
Q 1356 3103 1142 2972 
Q 928 2841 928 2578 
Q 928 2378 1081 2264 
Q 1234 2150 1697 2047 
L 1894 2003 
Q 2506 1872 2764 1633 
Q 3022 1394 3022 966 
Q 3022 478 2636 193 
Q 2250 -91 1575 -91 
Q 1294 -91 989 -36 
Q 684 19 347 128 
L 347 722 
Q 666 556 975 473 
Q 1284 391 1588 391 
Q 1994 391 2212 530 
Q 2431 669 2431 922 
Q 2431 1156 2273 1281 
Q 2116 1406 1581 1522 
L 1381 1569 
Q 847 1681 609 1914 
Q 372 2147 372 2553 
Q 372 3047 722 3315 
Q 1072 3584 1716 3584 
Q 2034 3584 2315 3537 
Q 2597 3491 2834 3397 
z
" transform="scale(0.015625)"/>
       <path id="DejaVuSans-69" d="M 603 3500 
L 1178 3500 
L 1178 0 
L 603 0 
L 603 3500 
z
M 603 4863 
L 1178 4863 
L 1178 4134 
L 603 4134 
L 603 4863 
z
" transform="scale(0.015625)"/>
       <path id="DejaVuSans-74" d="M 1172 4494 
L 1172 3500 
L 2356 3500 
L 2356 3053 
L 1172 3053 
L 1172 1153 
Q 1172 725 1289 603 
Q 1406 481 1766 481 
L 2356 481 
L 2356 0 
L 1766 0 
Q 1100 0 847 248 
Q 594 497 594 1153 
L 594 3053 
L 172 3053 
L 172 3500 
L 594 3500 
L 594 4494 
L 1172 4494 
z
" transform="scale(0.015625)"/>
       <path id="DejaVuSans-6e" d="M 3513 2113 
L 3513 0 
L 2938 0 
L 2938 2094 
Q 2938 2591 2744 2837 
Q 2550 3084 2163 3084 
Q 1697 3084 1428 2787 
Q 1159 2491 1159 1978 
L 1159 0 
L 581 0 
L 581 3500 
L 1159 3500 
L 1159 2956 
Q 1366 3272 1645 3428 
Q 1925 3584 2291 3584 
Q 2894 3584 3203 3211 
Q 3513 2838 3513 2113 
z
" transform="scale(0.015625)"/>
       <path id="DejaVuSans-20" transform="scale(0.015625)"/>
       <path id="DejaVuSans-66" d="M 2375 4863 
L 2375 4384 
L 1825 4384 
Q 1516 4384 1395 4259 
Q 1275 4134 1275 3809 
L 1275 3500 
L 2222 3500 
L 2222 3053 
L 1275 3053 
L 1275 0 
L 697 0 
L 697 3053 
L 147 3053 
L 147 3500 
L 697 3500 
L 697 3744 
Q 697 4328 969 4595 
Q 1241 4863 1831 4863 
L 2375 4863 
z
" transform="scale(0.015625)"/>
       <path id="DejaVuSans-6c" d="M 603 4863 
L 1178 4863 
L 1178 0 
L 603 0 
L 603 4863 
z
" transform="scale(0.015625)"/>
       <path id="DejaVuSans-63" d="M 3122 3366 
L 3122 2828 
Q 2878 2963 2633 3030 
Q 2388 3097 2138 3097 
Q 1578 3097 1268 2742 
Q 959 2388 959 1747 
Q 959 1106 1268 751 
Q 1578 397 2138 397 
Q 2388 397 2633 464 
Q 2878 531 3122 666 
L 3122 134 
Q 2881 22 2623 -34 
Q 2366 -91 2075 -91 
Q 1284 -91 818 406 
Q 353 903 353 1747 
Q 353 2603 823 3093 
Q 1294 3584 2113 3584 
Q 2378 3584 2631 3529 
Q 2884 3475 3122 3366 
z
" transform="scale(0.015625)"/>
       <path id="DejaVuSans-65" d="M 3597 1894 
L 3597 1613 
L 953 1613 
Q 991 1019 1311 708 
Q 1631 397 2203 397 
Q 2534 397 2845 478 
Q 3156 559 3463 722 
L 3463 178 
Q 3153 47 2828 -22 
Q 2503 -91 2169 -91 
Q 1331 -91 842 396 
Q 353 884 353 1716 
Q 353 2575 817 3079 
Q 1281 3584 2069 3584 
Q 2775 3584 3186 3129 
Q 3597 2675 3597 1894 
z
M 3022 2063 
Q 3016 2534 2758 2815 
Q 2500 3097 2075 3097 
Q 1594 3097 1305 2825 
Q 1016 2553 972 2059 
L 3022 2063 
z
" transform="scale(0.015625)"/>
       <path id="DejaVuSans-61" d="M 2194 1759 
Q 1497 1759 1228 1600 
Q 959 1441 959 1056 
Q 959 750 1161 570 
Q 1363 391 1709 391 
Q 2188 391 2477 730 
Q 2766 1069 2766 1631 
L 2766 1759 
L 2194 1759 
z
M 3341 1997 
L 3341 0 
L 2766 0 
L 2766 531 
Q 2569 213 2275 61 
Q 1981 -91 1556 -91 
Q 1019 -91 701 211 
Q 384 513 384 1019 
Q 384 1609 779 1909 
Q 1175 2209 1959 2209 
L 2766 2209 
L 2766 2266 
Q 2766 2663 2505 2880 
Q 2244 3097 1772 3097 
Q 1472 3097 1187 3025 
Q 903 2953 641 2809 
L 641 3341 
Q 956 3463 1253 3523 
Q 1550 3584 1831 3584 
Q 2591 3584 2966 3190 
Q 3341 2797 3341 1997 
z
" transform="scale(0.015625)"/>
       <path id="DejaVuSans-67" d="M 2906 1791 
Q 2906 2416 2648 2759 
Q 2391 3103 1925 3103 
Q 1463 3103 1205 2759 
Q 947 2416 947 1791 
Q 947 1169 1205 825 
Q 1463 481 1925 481 
Q 2391 481 2648 825 
Q 2906 1169 2906 1791 
z
M 3481 434 
Q 3481 -459 3084 -895 
Q 2688 -1331 1869 -1331 
Q 1566 -1331 1297 -1286 
Q 1028 -1241 775 -1147 
L 775 -588 
Q 1028 -725 1275 -790 
Q 1522 -856 1778 -856 
Q 2344 -856 2625 -561 
Q 2906 -266 2906 331 
L 2906 616 
Q 2728 306 2450 153 
Q 2172 0 1784 0 
Q 1141 0 747 490 
Q 353 981 353 1791 
Q 353 2603 747 3093 
Q 1141 3584 1784 3584 
Q 2172 3584 2450 3431 
Q 2728 3278 2906 2969 
L 2906 3500 
L 3481 3500 
L 3481 434 
z
" transform="scale(0.015625)"/>
       <path id="DejaVuSans-76" d="M 191 3500 
L 800 3500 
L 1894 563 
L 2988 3500 
L 3597 3500 
L 2284 0 
L 1503 0 
L 191 3500 
z
" transform="scale(0.015625)"/>
       <path id="DejaVuSans-78" d="M 3513 3500 
L 2247 1797 
L 3578 0 
L 2900 0 
L 1881 1375 
L 863 0 
L 184 0 
L 1544 1831 
L 300 3500 
L 978 3500 
L 1906 2253 
L 2834 3500 
L 3513 3500 
z
" transform="scale(0.015625)"/>
      </defs>
      <use xlink:href="#DejaVuSans-50"/>
      <use xlink:href="#DejaVuSans-6f" x="56.677734"/>
      <use xlink:href="#DejaVuSans-73" x="117.859375"/>
      <use xlink:href="#DejaVuSans-69" x="169.958984"/>
      <use xlink:href="#DejaVuSans-74" x="197.742188"/>
      <use xlink:href="#DejaVuSans-69" x="236.951172"/>
      <use xlink:href="#DejaVuSans-6f" x="264.734375"/>
      <use xlink:href="#DejaVuSans-6e" x="325.916016"/>
      <use xlink:href="#DejaVuSans-20" x="389.294922"/>
      <use xlink:href="#DejaVuSans-6f" x="421.082031"/>
      <use xlink:href="#DejaVuSans-66" x="482.263672"/>
      <use xlink:href="#DejaVuSans-20" x="517.46875"/>
      <use xlink:href="#DejaVuSans-73" x="549.255859"/>
      <use xlink:href="#DejaVuSans-6c" x="601.355469"/>
      <use xlink:href="#DejaVuSans-69" x="629.138672"/>
      <use xlink:href="#DejaVuSans-63" x="656.921875"/>
      <use xlink:href="#DejaVuSans-65" x="711.902344"/>
      <use xlink:href="#DejaVuSans-20" x="773.425781"/>
      <use xlink:href="#DejaVuSans-61" x="805.212891"/>
      <use xlink:href="#DejaVuSans-6c" x="866.492188"/>
      <use xlink:href="#DejaVuSans-6f" x="894.275391"/>
      <use xlink:href="#DejaVuSans-6e" x="955.457031"/>
      <use xlink:href="#DejaVuSans-67" x="1018.835938"/>
      <use xlink:href="#DejaVuSans-20" x="1082.3125"/>
      <use xlink:href="#DejaVuSans-67" x="1114.099609"/>
      <use xlink:href="#DejaVuSans-69" x="1177.576172"/>
      <use xlink:href="#DejaVuSans-76" x="1205.359375"/>
      <use xlink:href="#DejaVuSans-65" x="1264.539062"/>
      <use xlink:href="#DejaVuSans-6e" x="1326.0625"/>
      <use xlink:href="#DejaVuSans-20" x="1389.441406"/>
      <use xlink:href="#DejaVuSans-61" x="1421.228516"/>
      <use xlink:href="#DejaVuSans-78" x="1482.507812"/>
      <use xlink:href="#DejaVuSans-69" x="1541.6875"/>
      <use xlink:href="#DejaVuSans-73" x="1569.470703"/>
     </g>
    </g>
   </g>
   <g id="matplotlib.axis_2">
    <g id="ytick_1">
     <g id="line2d_11">
      <defs>
       <path id="ma4ec88fcca" d="M 0 0 
L 6 0 
" style="stroke: #000000; stroke-width: 2"/>
      </defs>
      <g>
       <use xlink:href="#ma4ec88fcca" x="49.3975" y="238.8725" style="fill: #ffffff; stroke: #000000; stroke-width: 2"/>
      </g>
     </g>
     <g id="line2d_12">
      <defs>
       <path id="m03eb227338" d="M 0 0 
L -6 0 
" style="stroke: #000000; stroke-width: 2"/>
      </defs>
      <g>
       <use xlink:href="#m03eb227338" x="345.6" y="238.8725" style="fill: #ffffff; stroke: #000000; stroke-width: 2"/>
      </g>
     </g>
     <g id="text_7">
      <!-- 0.0 -->
      <g transform="translate(26.81375 243.431562)scale(0.12 -0.12)">
       <defs>
        <path id="DejaVuSans-2e" d="M 684 794 
L 1344 794 
L 1344 0 
L 684 0 
L 684 794 
z
" transform="scale(0.015625)"/>
       </defs>
       <use xlink:href="#DejaVuSans-30"/>
       <use xlink:href="#DejaVuSans-2e" x="63.623047"/>
       <use xlink:href="#DejaVuSans-30" x="95.410156"/>
      </g>
     </g>
    </g>
    <g id="ytick_2">
     <g id="line2d_13">
      <g>
       <use xlink:href="#ma4ec88fcca" x="49.3975" y="193.449812" style="fill: #ffffff; stroke: #000000; stroke-width: 2"/>
      </g>
     </g>
     <g id="line2d_14">
      <g>
       <use xlink:href="#m03eb227338" x="345.6" y="193.449812" style="fill: #ffffff; stroke: #000000; stroke-width: 2"/>
      </g>
     </g>
     <g id="text_8">
      <!-- 0.2 -->
      <g transform="translate(26.81375 198.008875)scale(0.12 -0.12)">
       <use xlink:href="#DejaVuSans-30"/>
       <use xlink:href="#DejaVuSans-2e" x="63.623047"/>
       <use xlink:href="#DejaVuSans-32" x="95.410156"/>
      </g>
     </g>
    </g>
    <g id="ytick_3">
     <g id="line2d_15">
      <g>
       <use xlink:href="#ma4ec88fcca" x="49.3975" y="148.027125" style="fill: #ffffff; stroke: #000000; stroke-width: 2"/>
      </g>
     </g>
     <g id="line2d_16">
      <g>
       <use xlink:href="#m03eb227338" x="345.6" y="148.027125" style="fill: #ffffff; stroke: #000000; stroke-width: 2"/>
      </g>
     </g>
     <g id="text_9">
      <!-- 0.4 -->
      <g transform="translate(26.81375 152.586187)scale(0.12 -0.12)">
       <defs>
        <path id="DejaVuSans-34" d="M 2419 4116 
L 825 1625 
L 2419 1625 
L 2419 4116 
z
M 2253 4666 
L 3047 4666 
L 3047 1625 
L 3713 1625 
L 3713 1100 
L 3047 1100 
L 3047 0 
L 2419 0 
L 2419 1100 
L 313 1100 
L 313 1709 
L 2253 4666 
z
" transform="scale(0.015625)"/>
       </defs>
       <use xlink:href="#DejaVuSans-30"/>
       <use xlink:href="#DejaVuSans-2e" x="63.623047"/>
       <use xlink:href="#DejaVuSans-34" x="95.410156"/>
      </g>
     </g>
    </g>
    <g id="ytick_4">
     <g id="line2d_17">
      <g>
       <use xlink:href="#ma4ec88fcca" x="49.3975" y="102.604437" style="fill: #ffffff; stroke: #000000; stroke-width: 2"/>
      </g>
     </g>
     <g id="line2d_18">
      <g>
       <use xlink:href="#m03eb227338" x="345.6" y="102.604437" style="fill: #ffffff; stroke: #000000; stroke-width: 2"/>
      </g>
     </g>
     <g id="text_10">
      <!-- 0.6 -->
      <g transform="translate(26.81375 107.1635)scale(0.12 -0.12)">
       <defs>
        <path id="DejaVuSans-36" d="M 2113 2584 
Q 1688 2584 1439 2293 
Q 1191 2003 1191 1497 
Q 1191 994 1439 701 
Q 1688 409 2113 409 
Q 2538 409 2786 701 
Q 3034 994 3034 1497 
Q 3034 2003 2786 2293 
Q 2538 2584 2113 2584 
z
M 3366 4563 
L 3366 3988 
Q 3128 4100 2886 4159 
Q 2644 4219 2406 4219 
Q 1781 4219 1451 3797 
Q 1122 3375 1075 2522 
Q 1259 2794 1537 2939 
Q 1816 3084 2150 3084 
Q 2853 3084 3261 2657 
Q 3669 2231 3669 1497 
Q 3669 778 3244 343 
Q 2819 -91 2113 -91 
Q 1303 -91 875 529 
Q 447 1150 447 2328 
Q 447 3434 972 4092 
Q 1497 4750 2381 4750 
Q 2619 4750 2861 4703 
Q 3103 4656 3366 4563 
z
" transform="scale(0.015625)"/>
       </defs>
       <use xlink:href="#DejaVuSans-30"/>
       <use xlink:href="#DejaVuSans-2e" x="63.623047"/>
       <use xlink:href="#DejaVuSans-36" x="95.410156"/>
      </g>
     </g>
    </g>
    <g id="ytick_5">
     <g id="line2d_19">
      <g>
       <use xlink:href="#ma4ec88fcca" x="49.3975" y="57.18175" style="fill: #ffffff; stroke: #000000; stroke-width: 2"/>
      </g>
     </g>
     <g id="line2d_20">
      <g>
       <use xlink:href="#m03eb227338" x="345.6" y="57.18175" style="fill: #ffffff; stroke: #000000; stroke-width: 2"/>
      </g>
     </g>
     <g id="text_11">
      <!-- 0.8 -->
      <g transform="translate(26.81375 61.740812)scale(0.12 -0.12)">
       <defs>
        <path id="DejaVuSans-38" d="M 2034 2216 
Q 1584 2216 1326 1975 
Q 1069 1734 1069 1313 
Q 1069 891 1326 650 
Q 1584 409 2034 409 
Q 2484 409 2743 651 
Q 3003 894 3003 1313 
Q 3003 1734 2745 1975 
Q 2488 2216 2034 2216 
z
M 1403 2484 
Q 997 2584 770 2862 
Q 544 3141 544 3541 
Q 544 4100 942 4425 
Q 1341 4750 2034 4750 
Q 2731 4750 3128 4425 
Q 3525 4100 3525 3541 
Q 3525 3141 3298 2862 
Q 3072 2584 2669 2484 
Q 3125 2378 3379 2068 
Q 3634 1759 3634 1313 
Q 3634 634 3220 271 
Q 2806 -91 2034 -91 
Q 1263 -91 848 271 
Q 434 634 434 1313 
Q 434 1759 690 2068 
Q 947 2378 1403 2484 
z
M 1172 3481 
Q 1172 3119 1398 2916 
Q 1625 2713 2034 2713 
Q 2441 2713 2670 2916 
Q 2900 3119 2900 3481 
Q 2900 3844 2670 4047 
Q 2441 4250 2034 4250 
Q 1625 4250 1398 4047 
Q 1172 3844 1172 3481 
z
" transform="scale(0.015625)"/>
       </defs>
       <use xlink:href="#DejaVuSans-30"/>
       <use xlink:href="#DejaVuSans-2e" x="63.623047"/>
       <use xlink:href="#DejaVuSans-38" x="95.410156"/>
      </g>
     </g>
    </g>
    <g id="ytick_6">
     <g id="line2d_21">
      <g>
       <use xlink:href="#ma4ec88fcca" x="49.3975" y="11.759062" style="fill: #ffffff; stroke: #000000; stroke-width: 2"/>
      </g>
     </g>
     <g id="line2d_22">
      <g>
       <use xlink:href="#m03eb227338" x="345.6" y="11.759062" style="fill: #ffffff; stroke: #000000; stroke-width: 2"/>
      </g>
     </g>
     <g id="text_12">
      <!-- 1.0 -->
      <g transform="translate(26.81375 16.318125)scale(0.12 -0.12)">
       <use xlink:href="#DejaVuSans-31"/>
       <use xlink:href="#DejaVuSans-2e" x="63.623047"/>
       <use xlink:href="#DejaVuSans-30" x="95.410156"/>
      </g>
     </g>
    </g>
    <g id="text_13">
     <!-- Porosity of slice -->
     <g transform="translate(16.318125 172.133594)rotate(-90)scale(0.12 -0.12)">
      <defs>
       <path id="DejaVuSans-72" d="M 2631 2963 
Q 2534 3019 2420 3045 
Q 2306 3072 2169 3072 
Q 1681 3072 1420 2755 
Q 1159 2438 1159 1844 
L 1159 0 
L 581 0 
L 581 3500 
L 1159 3500 
L 1159 2956 
Q 1341 3275 1631 3429 
Q 1922 3584 2338 3584 
Q 2397 3584 2469 3576 
Q 2541 3569 2628 3553 
L 2631 2963 
z
" transform="scale(0.015625)"/>
       <path id="DejaVuSans-79" d="M 2059 -325 
Q 1816 -950 1584 -1140 
Q 1353 -1331 966 -1331 
L 506 -1331 
L 506 -850 
L 844 -850 
Q 1081 -850 1212 -737 
Q 1344 -625 1503 -206 
L 1606 56 
L 191 3500 
L 800 3500 
L 1894 763 
L 2988 3500 
L 3597 3500 
L 2059 -325 
z
" transform="scale(0.015625)"/>
      </defs>
      <use xlink:href="#DejaVuSans-50"/>
      <use xlink:href="#DejaVuSans-6f" x="56.677734"/>
      <use xlink:href="#DejaVuSans-72" x="117.859375"/>
      <use xlink:href="#DejaVuSans-6f" x="156.722656"/>
      <use xlink:href="#DejaVuSans-73" x="217.904297"/>
      <use xlink:href="#DejaVuSans-69" x="270.003906"/>
      <use xlink:href="#DejaVuSans-74" x="297.787109"/>
      <use xlink:href="#DejaVuSans-79" x="336.996094"/>
      <use xlink:href="#DejaVuSans-20" x="396.175781"/>
      <use xlink:href="#DejaVuSans-6f" x="427.962891"/>
      <use xlink:href="#DejaVuSans-66" x="489.144531"/>
      <use xlink:href="#DejaVuSans-20" x="524.349609"/>
      <use xlink:href="#DejaVuSans-73" x="556.136719"/>
      <use xlink:href="#DejaVuSans-6c" x="608.236328"/>
      <use xlink:href="#DejaVuSans-69" x="636.019531"/>
      <use xlink:href="#DejaVuSans-63" x="663.802734"/>
      <use xlink:href="#DejaVuSans-65" x="718.783203"/>
     </g>
    </g>
   </g>
   <g id="line2d_23">
    <path d="M 62.86125 133.813609 
L 63.53782 133.711408 
L 64.214391 133.435087 
L 65.567531 132.617478 
L 67.597242 130.181687 
L 68.273813 129.863728 
L 68.950383 129.030979 
L 70.303524 126.432422 
L 70.980094 125.234399 
L 71.656665 124.431931 
L 73.009805 122.613131 
L 73.686376 121.875013 
L 75.039516 122.132408 
L 76.392657 121.833375 
L 77.069227 121.295873 
L 77.745798 121.216384 
L 78.422368 121.78606 
L 79.775509 124.176429 
L 80.452079 125.648881 
L 81.80522 127.246245 
L 83.158361 128.59 
L 83.834931 128.472658 
L 84.511501 128.101706 
L 85.188072 128.010861 
L 85.864642 127.44497 
L 86.541212 127.117548 
L 87.894353 125.809753 
L 89.247494 124.783957 
L 90.600634 123.377747 
L 91.277205 122.944338 
L 91.953775 123.033291 
L 92.630345 123.559437 
L 93.306916 123.760054 
L 93.983486 124.144254 
L 94.660057 124.390294 
L 95.336627 124.316482 
L 96.013197 124.613622 
L 96.689768 125.160587 
L 97.366338 125.366882 
L 98.042908 124.967541 
L 98.719479 125.020534 
L 99.396049 125.486116 
L 100.74919 125.259003 
L 101.42576 124.922118 
L 102.778901 123.549974 
L 103.455471 122.832674 
L 104.132041 121.827697 
L 104.808612 121.193672 
L 107.514893 120.453661 
L 108.868034 118.875223 
L 110.221175 116.850128 
L 110.897745 116.376975 
L 111.574315 116.252062 
L 112.250886 116.55488 
L 113.604026 118.095467 
L 114.280597 118.545908 
L 114.957167 118.621613 
L 115.633737 118.250661 
L 116.310308 117.694233 
L 116.986878 118.008406 
L 118.340019 118.101144 
L 119.016589 118.320687 
L 120.36973 118.337721 
L 122.399441 119.378657 
L 123.076011 119.863166 
L 123.752582 120.065676 
L 124.429152 120.718627 
L 125.105722 120.637244 
L 125.782293 120.317393 
L 126.458863 120.56911 
L 128.488574 121.65547 
L 129.841715 120.966559 
L 130.518285 120.504762 
L 131.871426 118.835478 
L 132.547996 118.464526 
L 133.224567 118.252553 
L 133.901137 118.513734 
L 134.577707 119.238604 
L 135.930848 121.167176 
L 136.607418 122.177831 
L 137.283989 122.96705 
L 137.960559 123.415599 
L 138.637129 124.10451 
L 140.66684 125.317674 
L 143.373122 127.901089 
L 144.726263 127.954082 
L 146.755974 127.005884 
L 148.109114 125.084883 
L 148.785685 124.727179 
L 149.462255 123.854685 
L 150.138825 122.649091 
L 150.815396 121.163391 
L 151.491966 120.209514 
L 152.168536 119.810173 
L 152.845107 119.955904 
L 153.521677 119.846133 
L 154.198247 120.024038 
L 154.874818 119.798817 
L 156.227959 120.404453 
L 158.93424 122.244072 
L 159.61081 122.321669 
L 160.287381 122.236502 
L 160.963951 122.382233 
L 161.640521 123.114674 
L 162.317092 124.121543 
L 164.346803 124.450858 
L 165.023373 124.537918 
L 166.376514 125.340385 
L 167.053084 126.057685 
L 168.406225 127.931371 
L 169.082795 128.580537 
L 169.759366 129.485205 
L 171.112506 130.545068 
L 172.465647 132.013735 
L 173.142217 133.132269 
L 173.818788 133.900669 
L 174.495358 134.34354 
L 175.171928 134.396534 
L 176.525069 134.262158 
L 177.201639 133.798468 
L 179.907921 130.325525 
L 180.584491 129.880761 
L 181.261062 130.034063 
L 181.937632 130.06813 
L 182.614202 129.954573 
L 183.290773 130.022707 
L 185.320484 131.726058 
L 185.997054 131.686313 
L 186.673624 131.349428 
L 187.350195 130.819497 
L 188.703335 130.310384 
L 190.056476 128.955274 
L 190.733046 128.181196 
L 191.409617 127.624768 
L 194.115898 123.385317 
L 194.792469 121.943147 
L 195.469039 120.879499 
L 196.145609 120.137595 
L 196.82218 119.781784 
L 197.49875 119.630375 
L 197.49875 119.630375 
" clip-path="url(#p96ca4a1301)" style="fill: none; stroke: #0000ff; stroke-opacity: 0.5; stroke-width: 2; stroke-linecap: square"/>
   </g>
   <g id="line2d_24">
    <path d="M 62.86125 118.678391 
L 64.212128 118.246876 
L 65.563006 117.656381 
L 66.913884 117.156731 
L 67.589323 116.901228 
L 68.264762 116.994913 
L 69.61564 117.733031 
L 70.291079 118.34056 
L 70.966518 118.31501 
L 71.641957 119.118423 
L 75.019151 124.109241 
L 75.69459 125.486116 
L 76.370029 126.442832 
L 78.396346 130.468417 
L 79.071785 131.504622 
L 80.422663 133.875119 
L 81.098102 134.099393 
L 82.44898 133.991515 
L 83.124419 134.170366 
L 83.799858 133.889314 
L 84.475297 133.386825 
L 85.826175 130.508162 
L 87.177053 126.025511 
L 89.20337 118.703941 
L 90.554247 112.824542 
L 92.580564 107.212001 
L 93.256003 105.698858 
L 94.606881 103.484502 
L 95.28232 102.30919 
L 95.957759 101.602299 
L 96.633198 101.122522 
L 97.308637 100.330464 
L 97.984076 100.103351 
L 98.659515 100.177163 
L 102.03671 104.730787 
L 103.387588 106.945143 
L 104.063027 107.771268 
L 104.738466 108.943741 
L 105.413905 110.857172 
L 107.440222 115.158133 
L 108.115661 116.307895 
L 109.466538 117.801165 
L 110.817416 118.60174 
L 111.492855 118.624452 
L 112.168294 119.291597 
L 112.843733 119.779891 
L 113.519172 119.62659 
L 114.194611 119.308631 
L 114.87005 118.783431 
L 115.545489 118.110607 
L 116.220928 117.752904 
L 116.896367 117.139697 
L 117.571806 116.966524 
L 118.247245 117.148214 
L 118.922684 117.528629 
L 119.598123 117.593924 
L 120.273562 117.145375 
L 120.949001 116.322089 
L 121.62444 116.08362 
L 122.299879 115.632232 
L 122.975318 115.399441 
L 125.677074 118.485345 
L 126.352513 120.248313 
L 127.027952 121.43498 
L 127.70339 122.874312 
L 129.729707 125.454888 
L 131.080585 125.636579 
L 132.431463 125.806914 
L 133.106902 125.602512 
L 133.782341 125.588317 
L 134.45778 125.889243 
L 135.133219 126.698334 
L 135.808658 127.146883 
L 136.484097 126.701173 
L 137.159536 126.025511 
L 138.510414 126.161779 
L 139.185853 126.269658 
L 139.861292 126.774985 
L 140.536731 126.68414 
L 141.21217 126.201524 
L 141.887609 124.677025 
L 142.563048 123.975812 
L 143.913926 121.196511 
L 144.589365 120.651439 
L 145.264804 121.162444 
L 146.615681 121.35833 
L 147.29112 121.250451 
L 148.641998 120.0723 
L 149.317437 119.430704 
L 150.668315 118.774914 
L 151.343754 119.007706 
L 152.019193 119.740146 
L 153.370071 120.651439 
L 154.720949 122.772111 
L 155.396388 124.762192 
L 156.071827 126.241269 
L 156.747266 127.268957 
L 157.422705 128.069532 
L 158.098144 129.134126 
L 158.773583 130.669981 
L 159.449022 131.691991 
L 160.124461 132.327909 
L 160.7999 133.239201 
L 161.475339 134.394641 
L 162.150778 135.322967 
L 164.177094 136.078119 
L 164.852533 135.870878 
L 165.527972 135.973079 
L 166.87885 135.711899 
L 167.554289 135.794227 
L 168.229728 135.439363 
L 168.905167 134.513875 
L 170.256045 133.480509 
L 170.931484 131.69483 
L 172.282362 129.46344 
L 173.63324 126.610328 
L 174.308679 125.653612 
L 174.984118 125.117057 
L 175.659557 125.190869 
L 178.361313 127.683439 
L 179.712191 129.605386 
L 180.38763 129.420857 
L 181.063069 129.571319 
L 181.738508 129.954573 
L 182.413946 130.14762 
L 183.089385 129.207938 
L 183.764824 128.969469 
L 184.440263 129.034764 
L 185.115702 129.256199 
L 185.791141 129.136965 
L 186.46658 129.261877 
L 187.817458 130.158975 
L 188.492897 130.04258 
L 189.168336 130.235626 
L 189.843775 130.610363 
L 190.519214 131.200858 
L 191.194653 131.356999 
L 191.870092 131.061751 
L 192.545531 130.556424 
L 193.22097 129.312978 
L 193.896409 128.96663 
L 194.571848 128.850234 
L 195.922726 127.220695 
L 196.598165 127.098622 
L 197.273604 127.382514 
L 197.949043 127.303024 
L 198.624482 126.692656 
L 199.299921 126.891381 
L 199.97536 126.94532 
L 202.001676 126.47406 
L 202.677115 126.031189 
L 203.352554 126.823247 
L 204.027993 128.15186 
L 206.05431 130.664303 
L 206.729749 131.19518 
L 208.080627 131.513139 
L 208.756066 131.890715 
L 209.431505 132.012789 
L 210.106944 131.802709 
L 210.782383 131.856648 
L 212.133261 130.036902 
L 212.8087 129.699071 
L 213.484139 130.076647 
L 214.835017 132.072406 
L 215.510456 133.313013 
L 216.185895 134.193078 
L 216.861334 134.156172 
L 217.536773 133.276107 
L 218.212212 132.151896 
L 218.887651 130.621719 
L 219.563089 129.389629 
L 220.238528 128.501047 
L 220.913967 127.317218 
L 221.589406 126.916931 
L 222.264845 126.786341 
L 222.940284 127.206501 
L 223.615723 128.160377 
L 224.291162 129.486152 
L 226.992918 132.512438 
L 227.668357 133.00641 
L 228.343796 132.855947 
L 229.019235 132.520955 
L 231.720991 128.015592 
L 232.39643 127.251923 
L 233.071869 126.752274 
L 233.747308 126.740918 
L 234.422747 127.019132 
L 235.098186 126.931126 
L 235.773625 127.05036 
L 236.449064 126.936803 
L 237.124503 126.360503 
L 237.799941 126.122034 
L 238.47538 126.139067 
L 239.150819 126.005638 
L 239.826258 124.53224 
L 240.501697 123.794121 
L 241.852575 122.56487 
L 243.203453 120.418648 
L 243.878892 119.49316 
L 244.554331 119.603878 
L 245.905209 120.850163 
L 247.256087 122.98503 
L 248.606965 125.968732 
L 249.282404 127.373997 
L 251.308721 130.664303 
L 251.98416 131.515978 
L 253.335038 132.32507 
L 254.010477 132.356298 
L 254.685916 130.987939 
L 255.361355 130.025546 
L 256.036793 129.344206 
L 256.712232 129.153998 
L 258.06311 129.608225 
L 258.738549 129.026247 
L 259.413988 127.606788 
L 260.089427 127.010615 
L 261.440305 126.261141 
L 262.791183 126.36902 
L 263.466622 126.283852 
L 264.142061 126.357664 
L 264.8175 126.31508 
L 264.8175 126.31508 
" clip-path="url(#p96ca4a1301)" style="fill: none; stroke: #ff0000; stroke-opacity: 0.5; stroke-width: 2; stroke-linecap: square"/>
   </g>
   <g id="line2d_25">
    <path d="M 62.86125 117.336529 
L 63.536125 117.495509 
L 64.210999 117.836179 
L 64.885874 118.475882 
L 66.235623 120.360923 
L 66.910498 121.477564 
L 67.585373 121.893939 
L 68.260247 121.795523 
L 70.284872 122.325454 
L 70.959746 121.594906 
L 71.634621 121.591121 
L 72.98437 122.499575 
L 73.659245 124.180214 
L 74.33412 127.223534 
L 75.008994 129.108576 
L 77.033618 131.629535 
L 78.383368 131.746877 
L 79.058242 131.069322 
L 79.733117 129.540091 
L 80.407992 127.295453 
L 81.082867 125.569391 
L 81.757741 124.464106 
L 83.107491 121.799308 
L 85.806989 117.533361 
L 86.481864 117.385737 
L 87.156739 118.048151 
L 87.831613 118.275265 
L 88.506488 117.968662 
L 89.181363 118.089789 
L 89.856237 117.756689 
L 90.531112 118.19956 
L 91.205987 119.781784 
L 91.880862 121.882583 
L 92.555736 124.501958 
L 93.905486 128.026002 
L 95.255235 130.634021 
L 95.93011 132.011842 
L 97.954734 134.899968 
L 98.629608 135.505604 
L 99.304483 135.812207 
L 99.979358 136.243723 
L 101.329107 138.018993 
L 102.678857 140.751925 
L 103.353731 141.652808 
L 104.028606 142.088109 
L 104.703481 142.163813 
L 105.378355 141.932914 
L 106.05323 141.391627 
L 106.728105 139.305969 
L 108.077854 133.83632 
L 108.752729 131.084463 
L 110.777353 124.941044 
L 111.452227 123.756269 
L 112.127102 122.817533 
L 112.801977 122.310313 
L 114.151726 121.958288 
L 115.501476 122.632057 
L 116.17635 123.419384 
L 116.851225 124.524669 
L 117.5261 125.330922 
L 118.200974 126.356718 
L 119.550724 129.044227 
L 120.225598 129.733138 
L 120.900473 128.968522 
L 121.575348 127.802673 
L 123.599972 123.048432 
L 124.274846 121.965858 
L 124.949721 120.56911 
L 126.974345 117.056423 
L 127.64922 116.484854 
L 128.324095 115.731594 
L 128.998969 115.375783 
L 129.673844 115.587756 
L 130.348719 115.56883 
L 131.698468 114.739866 
L 132.373343 114.630094 
L 133.048217 114.913986 
L 135.072841 116.93151 
L 135.747716 117.139697 
L 136.422591 117.192691 
L 137.097466 116.394008 
L 137.77234 116.776316 
L 138.447215 116.711967 
L 139.12209 116.882302 
L 140.471839 116.25774 
L 141.146714 115.727809 
L 141.821588 115.349287 
L 142.496463 115.470414 
L 143.171338 115.83001 
L 143.846212 115.500696 
L 144.521087 115.341716 
L 145.195962 115.629393 
L 145.870836 116.068479 
L 146.545711 117.162409 
L 147.220586 117.930809 
L 147.895461 119.785569 
L 149.920085 126.621684 
L 151.944709 129.907258 
L 153.294458 132.185963 
L 153.969333 133.166336 
L 154.644207 133.734119 
L 155.319082 134.086145 
L 155.993957 133.438872 
L 158.018581 129.93754 
L 158.693456 129.131287 
L 159.36833 128.59757 
L 160.043205 128.226618 
L 161.392954 128.067639 
L 162.742704 126.553549 
L 163.417578 125.883565 
L 164.092453 125.542895 
L 165.442202 123.551867 
L 166.791952 120.186803 
L 168.141701 117.544716 
L 169.491451 115.201663 
L 170.8412 114.073666 
L 171.516075 113.952539 
L 172.190949 113.710285 
L 172.865824 113.982821 
L 173.540699 114.72851 
L 174.215573 115.099462 
L 174.890448 116.019271 
L 175.565323 117.400878 
L 176.240197 119.187504 
L 178.264821 127.806459 
L 178.939696 130.073808 
L 179.614571 131.724165 
L 180.289445 132.761317 
L 180.96432 133.196618 
L 181.639195 133.976374 
L 182.988944 136.387561 
L 184.338694 137.303586 
L 185.013568 136.993197 
L 185.688443 135.861415 
L 187.038192 131.425133 
L 188.387942 126.621684 
L 189.062816 125.160587 
L 189.737691 124.308912 
L 191.08744 123.585934 
L 191.762315 124.161288 
L 192.43719 124.914548 
L 193.786939 127.015347 
L 194.461814 128.624067 
L 195.811563 133.454013 
L 196.486438 135.498034 
L 197.161313 137.087828 
L 198.511062 139.003151 
L 199.185937 140.297698 
L 199.860811 142.012404 
L 200.535686 143.019274 
L 201.210561 143.499997 
L 201.885435 143.344803 
L 202.56031 142.307652 
L 203.235185 140.838985 
L 204.584934 136.213441 
L 207.284433 128.76412 
L 207.959308 126.057685 
L 209.309057 121.598691 
L 211.333681 112.177269 
L 212.008556 109.955342 
L 212.68343 108.236851 
L 213.358305 106.862814 
L 214.708055 107.347323 
L 216.732679 106.529715 
L 217.407553 106.438869 
L 218.082428 106.548641 
L 218.757303 106.983942 
L 220.107052 109.080956 
L 220.781927 110.462562 
L 221.456801 111.26503 
L 222.131676 112.411953 
L 222.806551 114.278068 
L 224.1563 116.147969 
L 224.831175 116.552988 
L 226.855799 115.019972 
L 227.530674 114.724725 
L 228.880423 115.095677 
L 230.905047 116.465928 
L 231.579922 117.529576 
L 233.604546 123.127922 
L 234.27942 125.020534 
L 234.954295 126.477845 
L 235.62917 127.507426 
L 236.304044 127.874593 
L 236.978919 127.613412 
L 237.653794 127.140259 
L 239.003543 125.739726 
L 239.678418 124.797206 
L 240.353293 123.294472 
L 241.703042 119.414617 
L 242.377917 117.294892 
L 243.052791 115.610467 
L 243.727666 114.334847 
L 244.402541 113.365829 
L 245.077415 113.471815 
L 245.75229 113.350688 
L 246.427165 114.179652 
L 247.102039 115.269797 
L 247.776914 116.742249 
L 248.451789 119.694724 
L 249.126664 121.928006 
L 249.801538 123.347465 
L 251.826162 126.050115 
L 252.501037 127.056984 
L 253.175912 127.863237 
L 253.850786 129.01016 
L 255.200536 131.932353 
L 255.87541 132.625049 
L 257.22516 133.503221 
L 257.900034 132.98086 
L 258.574909 132.246526 
L 259.249784 132.484995 
L 259.924659 132.443358 
L 260.599533 131.924782 
L 261.274408 130.565887 
L 261.949283 130.096519 
L 262.624157 129.112361 
L 263.299032 128.400739 
L 263.973907 128.253115 
L 264.648781 128.366672 
L 265.323656 127.745895 
L 265.998531 126.943428 
L 267.34828 124.853984 
L 269.372904 120.217085 
L 270.047779 118.078433 
L 270.722654 115.33036 
L 271.397528 114.236431 
L 272.072403 113.653506 
L 272.747278 113.343118 
L 273.422152 113.267413 
L 274.771902 114.209934 
L 275.446776 114.31592 
L 276.796526 112.495228 
L 277.4714 112.53308 
L 278.146275 112.843468 
L 278.82115 113.312836 
L 279.496024 114.187223 
L 280.170899 115.724024 
L 281.520648 120.22844 
L 282.195523 121.939361 
L 282.870398 124.172644 
L 283.545273 125.7208 
L 284.220147 126.863938 
L 285.569897 129.52495 
L 286.919646 131.319146 
L 287.594521 131.031469 
L 288.269395 130.395552 
L 288.94427 129.225918 
L 290.968894 127.530137 
L 291.643769 127.359802 
L 292.318643 127.639909 
L 293.668393 128.805758 
L 294.343268 129.714211 
L 295.018142 130.380411 
L 295.693017 131.587897 
L 296.367892 131.30022 
L 297.042766 131.413777 
L 298.392516 132.117829 
L 299.742265 133.802253 
L 300.41714 134.279192 
L 301.092014 134.351111 
L 303.116638 134.937821 
L 303.791513 134.83562 
L 305.141263 135.766785 
L 305.816137 136.039321 
L 306.491012 135.834919 
L 307.165887 135.369336 
L 307.840761 135.093015 
L 308.515636 134.627432 
L 309.190511 133.628133 
L 311.215135 129.415179 
L 311.890009 127.109977 
L 312.564884 124.013664 
L 315.939258 111.696545 
L 316.614132 110.871367 
L 317.289007 110.950856 
L 317.963882 110.477703 
L 318.638756 110.356576 
L 319.313631 110.863796 
L 321.338255 115.186522 
L 322.01313 116.734679 
L 322.688004 118.562942 
L 324.037754 124.081798 
L 326.737253 136.588178 
L 327.412127 139.124278 
L 328.087002 140.767065 
L 328.761877 141.808002 
L 329.436751 142.326578 
L 330.786501 142.69753 
L 332.13625 142.78459 
L 332.13625 142.78459 
" clip-path="url(#p96ca4a1301)" style="fill: none; stroke: #008000; stroke-opacity: 0.5; stroke-width: 2; stroke-linecap: square"/>
   </g>
   <g id="patch_3">
    <path d="M 49.3975 238.8725 
L 49.3975 11.759062 
" style="fill: none; stroke: #000000; stroke-width: 2; stroke-linejoin: miter; stroke-linecap: square"/>
   </g>
   <g id="patch_4">
    <path d="M 345.6 238.8725 
L 345.6 11.759062 
" style="fill: none; stroke: #000000; stroke-width: 2; stroke-linejoin: miter; stroke-linecap: square"/>
   </g>
   <g id="patch_5">
    <path d="M 49.3975 238.8725 
L 345.6 238.8725 
" style="fill: none; stroke: #000000; stroke-width: 2; stroke-linejoin: miter; stroke-linecap: square"/>
   </g>
   <g id="patch_6">
    <path d="M 49.3975 11.759062 
L 345.6 11.759062 
" style="fill: none; stroke: #000000; stroke-width: 2; stroke-linejoin: miter; stroke-linecap: square"/>
   </g>
   <g id="legend_1">
    <g id="line2d_26">
     <path d="M 249.58125 27.477187 
L 261.58125 27.477187 
L 273.58125 27.477187 
" style="fill: none; stroke: #0000ff; stroke-opacity: 0.5; stroke-width: 2; stroke-linecap: square"/>
    </g>
    <g id="text_14">
     <!-- yz-plane -->
     <g transform="translate(283.18125 31.677187)scale(0.12 -0.12)">
      <defs>
       <path id="DejaVuSans-7a" d="M 353 3500 
L 3084 3500 
L 3084 2975 
L 922 459 
L 3084 459 
L 3084 0 
L 275 0 
L 275 525 
L 2438 3041 
L 353 3041 
L 353 3500 
z
" transform="scale(0.015625)"/>
       <path id="DejaVuSans-2d" d="M 313 2009 
L 1997 2009 
L 1997 1497 
L 313 1497 
L 313 2009 
z
" transform="scale(0.015625)"/>
       <path id="DejaVuSans-70" d="M 1159 525 
L 1159 -1331 
L 581 -1331 
L 581 3500 
L 1159 3500 
L 1159 2969 
Q 1341 3281 1617 3432 
Q 1894 3584 2278 3584 
Q 2916 3584 3314 3078 
Q 3713 2572 3713 1747 
Q 3713 922 3314 415 
Q 2916 -91 2278 -91 
Q 1894 -91 1617 61 
Q 1341 213 1159 525 
z
M 3116 1747 
Q 3116 2381 2855 2742 
Q 2594 3103 2138 3103 
Q 1681 3103 1420 2742 
Q 1159 2381 1159 1747 
Q 1159 1113 1420 752 
Q 1681 391 2138 391 
Q 2594 391 2855 752 
Q 3116 1113 3116 1747 
z
" transform="scale(0.015625)"/>
      </defs>
      <use xlink:href="#DejaVuSans-79"/>
      <use xlink:href="#DejaVuSans-7a" x="59.179688"/>
      <use xlink:href="#DejaVuSans-2d" x="111.669922"/>
      <use xlink:href="#DejaVuSans-70" x="147.753906"/>
      <use xlink:href="#DejaVuSans-6c" x="211.230469"/>
      <use xlink:href="#DejaVuSans-61" x="239.013672"/>
      <use xlink:href="#DejaVuSans-6e" x="300.292969"/>
      <use xlink:href="#DejaVuSans-65" x="363.671875"/>
     </g>
    </g>
    <g id="line2d_27">
     <path d="M 249.58125 45.090937 
L 261.58125 45.090937 
L 273.58125 45.090937 
" style="fill: none; stroke: #ff0000; stroke-opacity: 0.5; stroke-width: 2; stroke-linecap: square"/>
    </g>
    <g id="text_15">
     <!-- xz-plane -->
     <g transform="translate(283.18125 49.290937)scale(0.12 -0.12)">
      <use xlink:href="#DejaVuSans-78"/>
      <use xlink:href="#DejaVuSans-7a" x="59.179688"/>
      <use xlink:href="#DejaVuSans-2d" x="111.669922"/>
      <use xlink:href="#DejaVuSans-70" x="147.753906"/>
      <use xlink:href="#DejaVuSans-6c" x="211.230469"/>
      <use xlink:href="#DejaVuSans-61" x="239.013672"/>
      <use xlink:href="#DejaVuSans-6e" x="300.292969"/>
      <use xlink:href="#DejaVuSans-65" x="363.671875"/>
     </g>
    </g>
    <g id="line2d_28">
     <path d="M 249.58125 62.704687 
L 261.58125 62.704687 
L 273.58125 62.704687 
" style="fill: none; stroke: #008000; stroke-opacity: 0.5; stroke-width: 2; stroke-linecap: square"/>
    </g>
    <g id="text_16">
     <!-- xy-plane -->
     <g transform="translate(283.18125 66.904687)scale(0.12 -0.12)">
      <use xlink:href="#DejaVuSans-78"/>
      <use xlink:href="#DejaVuSans-79" x="59.179688"/>
      <use xlink:href="#DejaVuSans-2d" x="116.609375"/>
      <use xlink:href="#DejaVuSans-70" x="152.693359"/>
      <use xlink:href="#DejaVuSans-6c" x="216.169922"/>
      <use xlink:href="#DejaVuSans-61" x="243.953125"/>
      <use xlink:href="#DejaVuSans-6e" x="305.232422"/>
      <use xlink:href="#DejaVuSans-65" x="368.611328"/>
     </g>
    </g>
   </g>
  </g>
 </g>
 <defs>
  <clipPath id="p96ca4a1301">
   <rect x="49.3975" y="11.759062" width="296.2025" height="227.113437"/>
  </clipPath>
 </defs>
</svg>
