<?xml version="1.0" encoding="utf-8" standalone="no"?>
<!DOCTYPE svg PUBLIC "-//W3C//DTD SVG 1.1//EN"
  "http://www.w3.org/Graphics/SVG/1.1/DTD/svg11.dtd">
<!-- Created with matplotlib (https://matplotlib.org/) -->
<svg height="276.48pt" version="1.1" viewBox="0 0 348.48 276.48" width="348.48pt" xmlns="http://www.w3.org/2000/svg" xmlns:xlink="http://www.w3.org/1999/xlink">
 <metadata>
  <rdf:RDF xmlns:cc="http://creativecommons.org/ns#" xmlns:dc="http://purl.org/dc/elements/1.1/" xmlns:rdf="http://www.w3.org/1999/02/22-rdf-syntax-ns#">
   <cc:Work>
    <dc:type rdf:resource="http://purl.org/dc/dcmitype/StillImage"/>
    <dc:date>2021-04-01T14:38:51.364675</dc:date>
    <dc:format>image/svg+xml</dc:format>
    <dc:creator>
     <cc:Agent>
      <dc:title>Matplotlib v3.3.4, https://matplotlib.org/</dc:title>
     </cc:Agent>
    </dc:creator>
   </cc:Work>
  </rdf:RDF>
 </metadata>
 <defs>
  <style type="text/css">*{stroke-linecap:butt;stroke-linejoin:round;}</style>
 </defs>
 <g id="figure_1">
  <g id="patch_1">
   <path d="M 0 276.48 
L 348.48 276.48 
L 348.48 0 
L 0 0 
z
" style="fill:none;"/>
  </g>
  <g id="axes_1">
   <g id="patch_2">
    <path d="M 49.3975 234.5525 
L 341.28 234.5525 
L 341.28 11.759062 
L 49.3975 11.759062 
z
" style="fill:#ffffff;"/>
   </g>
   <g id="matplotlib.axis_1">
    <g id="xtick_1">
     <g id="line2d_1">
      <defs>
       <path d="M 0 0 
L 0 -6 
" id="m7202f81b93" style="stroke:#000000;stroke-width:2;"/>
      </defs>
      <g>
       <use style="fill:#ffffff;stroke:#000000;stroke-width:2;" x="62.664886" xlink:href="#m7202f81b93" y="234.5525"/>
      </g>
     </g>
     <g id="line2d_2">
      <defs>
       <path d="M 0 0 
L 0 6 
" id="m12f4870c5c" style="stroke:#000000;stroke-width:2;"/>
      </defs>
      <g>
       <use style="fill:#ffffff;stroke:#000000;stroke-width:2;" x="62.664886" xlink:href="#m12f4870c5c" y="11.759062"/>
      </g>
     </g>
     <g id="text_1">
      <!-- 0.0 -->
      <g transform="translate(53.123011 247.170625)scale(0.12 -0.12)">
       <defs>
        <path d="M 31.78125 66.40625 
Q 24.171875 66.40625 20.328125 58.90625 
Q 16.5 51.421875 16.5 36.375 
Q 16.5 21.390625 20.328125 13.890625 
Q 24.171875 6.390625 31.78125 6.390625 
Q 39.453125 6.390625 43.28125 13.890625 
Q 47.125 21.390625 47.125 36.375 
Q 47.125 51.421875 43.28125 58.90625 
Q 39.453125 66.40625 31.78125 66.40625 
z
M 31.78125 74.21875 
Q 44.046875 74.21875 50.515625 64.515625 
Q 56.984375 54.828125 56.984375 36.375 
Q 56.984375 17.96875 50.515625 8.265625 
Q 44.046875 -1.421875 31.78125 -1.421875 
Q 19.53125 -1.421875 13.0625 8.265625 
Q 6.59375 17.96875 6.59375 36.375 
Q 6.59375 54.828125 13.0625 64.515625 
Q 19.53125 74.21875 31.78125 74.21875 
z
" id="DejaVuSans-48"/>
        <path d="M 10.6875 12.40625 
L 21 12.40625 
L 21 0 
L 10.6875 0 
z
" id="DejaVuSans-46"/>
       </defs>
       <use xlink:href="#DejaVuSans-48"/>
       <use x="63.623047" xlink:href="#DejaVuSans-46"/>
       <use x="95.410156" xlink:href="#DejaVuSans-48"/>
      </g>
     </g>
    </g>
    <g id="xtick_2">
     <g id="line2d_3">
      <g>
       <use style="fill:#ffffff;stroke:#000000;stroke-width:2;" x="115.734432" xlink:href="#m7202f81b93" y="234.5525"/>
      </g>
     </g>
     <g id="line2d_4">
      <g>
       <use style="fill:#ffffff;stroke:#000000;stroke-width:2;" x="115.734432" xlink:href="#m12f4870c5c" y="11.759062"/>
      </g>
     </g>
     <g id="text_2">
      <!-- 0.2 -->
      <g transform="translate(106.192557 247.170625)scale(0.12 -0.12)">
       <defs>
        <path d="M 19.1875 8.296875 
L 53.609375 8.296875 
L 53.609375 0 
L 7.328125 0 
L 7.328125 8.296875 
Q 12.9375 14.109375 22.625 23.890625 
Q 32.328125 33.6875 34.8125 36.53125 
Q 39.546875 41.84375 41.421875 45.53125 
Q 43.3125 49.21875 43.3125 52.78125 
Q 43.3125 58.59375 39.234375 62.25 
Q 35.15625 65.921875 28.609375 65.921875 
Q 23.96875 65.921875 18.8125 64.3125 
Q 13.671875 62.703125 7.8125 59.421875 
L 7.8125 69.390625 
Q 13.765625 71.78125 18.9375 73 
Q 24.125 74.21875 28.421875 74.21875 
Q 39.75 74.21875 46.484375 68.546875 
Q 53.21875 62.890625 53.21875 53.421875 
Q 53.21875 48.921875 51.53125 44.890625 
Q 49.859375 40.875 45.40625 35.40625 
Q 44.1875 33.984375 37.640625 27.21875 
Q 31.109375 20.453125 19.1875 8.296875 
z
" id="DejaVuSans-50"/>
       </defs>
       <use xlink:href="#DejaVuSans-48"/>
       <use x="63.623047" xlink:href="#DejaVuSans-46"/>
       <use x="95.410156" xlink:href="#DejaVuSans-50"/>
      </g>
     </g>
    </g>
    <g id="xtick_3">
     <g id="line2d_5">
      <g>
       <use style="fill:#ffffff;stroke:#000000;stroke-width:2;" x="168.803977" xlink:href="#m7202f81b93" y="234.5525"/>
      </g>
     </g>
     <g id="line2d_6">
      <g>
       <use style="fill:#ffffff;stroke:#000000;stroke-width:2;" x="168.803977" xlink:href="#m12f4870c5c" y="11.759062"/>
      </g>
     </g>
     <g id="text_3">
      <!-- 0.4 -->
      <g transform="translate(159.262102 247.170625)scale(0.12 -0.12)">
       <defs>
        <path d="M 37.796875 64.3125 
L 12.890625 25.390625 
L 37.796875 25.390625 
z
M 35.203125 72.90625 
L 47.609375 72.90625 
L 47.609375 25.390625 
L 58.015625 25.390625 
L 58.015625 17.1875 
L 47.609375 17.1875 
L 47.609375 0 
L 37.796875 0 
L 37.796875 17.1875 
L 4.890625 17.1875 
L 4.890625 26.703125 
z
" id="DejaVuSans-52"/>
       </defs>
       <use xlink:href="#DejaVuSans-48"/>
       <use x="63.623047" xlink:href="#DejaVuSans-46"/>
       <use x="95.410156" xlink:href="#DejaVuSans-52"/>
      </g>
     </g>
    </g>
    <g id="xtick_4">
     <g id="line2d_7">
      <g>
       <use style="fill:#ffffff;stroke:#000000;stroke-width:2;" x="221.873523" xlink:href="#m7202f81b93" y="234.5525"/>
      </g>
     </g>
     <g id="line2d_8">
      <g>
       <use style="fill:#ffffff;stroke:#000000;stroke-width:2;" x="221.873523" xlink:href="#m12f4870c5c" y="11.759062"/>
      </g>
     </g>
     <g id="text_4">
      <!-- 0.6 -->
      <g transform="translate(212.331648 247.170625)scale(0.12 -0.12)">
       <defs>
        <path d="M 33.015625 40.375 
Q 26.375 40.375 22.484375 35.828125 
Q 18.609375 31.296875 18.609375 23.390625 
Q 18.609375 15.53125 22.484375 10.953125 
Q 26.375 6.390625 33.015625 6.390625 
Q 39.65625 6.390625 43.53125 10.953125 
Q 47.40625 15.53125 47.40625 23.390625 
Q 47.40625 31.296875 43.53125 35.828125 
Q 39.65625 40.375 33.015625 40.375 
z
M 52.59375 71.296875 
L 52.59375 62.3125 
Q 48.875 64.0625 45.09375 64.984375 
Q 41.3125 65.921875 37.59375 65.921875 
Q 27.828125 65.921875 22.671875 59.328125 
Q 17.53125 52.734375 16.796875 39.40625 
Q 19.671875 43.65625 24.015625 45.921875 
Q 28.375 48.1875 33.59375 48.1875 
Q 44.578125 48.1875 50.953125 41.515625 
Q 57.328125 34.859375 57.328125 23.390625 
Q 57.328125 12.15625 50.6875 5.359375 
Q 44.046875 -1.421875 33.015625 -1.421875 
Q 20.359375 -1.421875 13.671875 8.265625 
Q 6.984375 17.96875 6.984375 36.375 
Q 6.984375 53.65625 15.1875 63.9375 
Q 23.390625 74.21875 37.203125 74.21875 
Q 40.921875 74.21875 44.703125 73.484375 
Q 48.484375 72.75 52.59375 71.296875 
z
" id="DejaVuSans-54"/>
       </defs>
       <use xlink:href="#DejaVuSans-48"/>
       <use x="63.623047" xlink:href="#DejaVuSans-46"/>
       <use x="95.410156" xlink:href="#DejaVuSans-54"/>
      </g>
     </g>
    </g>
    <g id="xtick_5">
     <g id="line2d_9">
      <g>
       <use style="fill:#ffffff;stroke:#000000;stroke-width:2;" x="274.943068" xlink:href="#m7202f81b93" y="234.5525"/>
      </g>
     </g>
     <g id="line2d_10">
      <g>
       <use style="fill:#ffffff;stroke:#000000;stroke-width:2;" x="274.943068" xlink:href="#m12f4870c5c" y="11.759062"/>
      </g>
     </g>
     <g id="text_5">
      <!-- 0.8 -->
      <g transform="translate(265.401193 247.170625)scale(0.12 -0.12)">
       <defs>
        <path d="M 31.78125 34.625 
Q 24.75 34.625 20.71875 30.859375 
Q 16.703125 27.09375 16.703125 20.515625 
Q 16.703125 13.921875 20.71875 10.15625 
Q 24.75 6.390625 31.78125 6.390625 
Q 38.8125 6.390625 42.859375 10.171875 
Q 46.921875 13.96875 46.921875 20.515625 
Q 46.921875 27.09375 42.890625 30.859375 
Q 38.875 34.625 31.78125 34.625 
z
M 21.921875 38.8125 
Q 15.578125 40.375 12.03125 44.71875 
Q 8.5 49.078125 8.5 55.328125 
Q 8.5 64.0625 14.71875 69.140625 
Q 20.953125 74.21875 31.78125 74.21875 
Q 42.671875 74.21875 48.875 69.140625 
Q 55.078125 64.0625 55.078125 55.328125 
Q 55.078125 49.078125 51.53125 44.71875 
Q 48 40.375 41.703125 38.8125 
Q 48.828125 37.15625 52.796875 32.3125 
Q 56.78125 27.484375 56.78125 20.515625 
Q 56.78125 9.90625 50.3125 4.234375 
Q 43.84375 -1.421875 31.78125 -1.421875 
Q 19.734375 -1.421875 13.25 4.234375 
Q 6.78125 9.90625 6.78125 20.515625 
Q 6.78125 27.484375 10.78125 32.3125 
Q 14.796875 37.15625 21.921875 38.8125 
z
M 18.3125 54.390625 
Q 18.3125 48.734375 21.84375 45.5625 
Q 25.390625 42.390625 31.78125 42.390625 
Q 38.140625 42.390625 41.71875 45.5625 
Q 45.3125 48.734375 45.3125 54.390625 
Q 45.3125 60.0625 41.71875 63.234375 
Q 38.140625 66.40625 31.78125 66.40625 
Q 25.390625 66.40625 21.84375 63.234375 
Q 18.3125 60.0625 18.3125 54.390625 
z
" id="DejaVuSans-56"/>
       </defs>
       <use xlink:href="#DejaVuSans-48"/>
       <use x="63.623047" xlink:href="#DejaVuSans-46"/>
       <use x="95.410156" xlink:href="#DejaVuSans-56"/>
      </g>
     </g>
    </g>
    <g id="xtick_6">
     <g id="line2d_11">
      <g>
       <use style="fill:#ffffff;stroke:#000000;stroke-width:2;" x="328.012614" xlink:href="#m7202f81b93" y="234.5525"/>
      </g>
     </g>
     <g id="line2d_12">
      <g>
       <use style="fill:#ffffff;stroke:#000000;stroke-width:2;" x="328.012614" xlink:href="#m12f4870c5c" y="11.759062"/>
      </g>
     </g>
     <g id="text_6">
      <!-- 1.0 -->
      <g transform="translate(318.470739 247.170625)scale(0.12 -0.12)">
       <defs>
        <path d="M 12.40625 8.296875 
L 28.515625 8.296875 
L 28.515625 63.921875 
L 10.984375 60.40625 
L 10.984375 69.390625 
L 28.421875 72.90625 
L 38.28125 72.90625 
L 38.28125 8.296875 
L 54.390625 8.296875 
L 54.390625 0 
L 12.40625 0 
z
" id="DejaVuSans-49"/>
       </defs>
       <use xlink:href="#DejaVuSans-49"/>
       <use x="63.623047" xlink:href="#DejaVuSans-46"/>
       <use x="95.410156" xlink:href="#DejaVuSans-48"/>
      </g>
     </g>
    </g>
    <g id="text_7">
     <!-- Fractional distance along given axis -->
     <g transform="translate(87.823438 266.784375)scale(0.12 -0.12)">
      <defs>
       <path d="M 9.8125 72.90625 
L 51.703125 72.90625 
L 51.703125 64.59375 
L 19.671875 64.59375 
L 19.671875 43.109375 
L 48.578125 43.109375 
L 48.578125 34.8125 
L 19.671875 34.8125 
L 19.671875 0 
L 9.8125 0 
z
" id="DejaVuSans-70"/>
       <path d="M 41.109375 46.296875 
Q 39.59375 47.171875 37.8125 47.578125 
Q 36.03125 48 33.890625 48 
Q 26.265625 48 22.1875 43.046875 
Q 18.109375 38.09375 18.109375 28.8125 
L 18.109375 0 
L 9.078125 0 
L 9.078125 54.6875 
L 18.109375 54.6875 
L 18.109375 46.1875 
Q 20.953125 51.171875 25.484375 53.578125 
Q 30.03125 56 36.53125 56 
Q 37.453125 56 38.578125 55.875 
Q 39.703125 55.765625 41.0625 55.515625 
z
" id="DejaVuSans-114"/>
       <path d="M 34.28125 27.484375 
Q 23.390625 27.484375 19.1875 25 
Q 14.984375 22.515625 14.984375 16.5 
Q 14.984375 11.71875 18.140625 8.90625 
Q 21.296875 6.109375 26.703125 6.109375 
Q 34.1875 6.109375 38.703125 11.40625 
Q 43.21875 16.703125 43.21875 25.484375 
L 43.21875 27.484375 
z
M 52.203125 31.203125 
L 52.203125 0 
L 43.21875 0 
L 43.21875 8.296875 
Q 40.140625 3.328125 35.546875 0.953125 
Q 30.953125 -1.421875 24.3125 -1.421875 
Q 15.921875 -1.421875 10.953125 3.296875 
Q 6 8.015625 6 15.921875 
Q 6 25.140625 12.171875 29.828125 
Q 18.359375 34.515625 30.609375 34.515625 
L 43.21875 34.515625 
L 43.21875 35.40625 
Q 43.21875 41.609375 39.140625 45 
Q 35.0625 48.390625 27.6875 48.390625 
Q 23 48.390625 18.546875 47.265625 
Q 14.109375 46.140625 10.015625 43.890625 
L 10.015625 52.203125 
Q 14.9375 54.109375 19.578125 55.046875 
Q 24.21875 56 28.609375 56 
Q 40.484375 56 46.34375 49.84375 
Q 52.203125 43.703125 52.203125 31.203125 
z
" id="DejaVuSans-97"/>
       <path d="M 48.78125 52.59375 
L 48.78125 44.1875 
Q 44.96875 46.296875 41.140625 47.34375 
Q 37.3125 48.390625 33.40625 48.390625 
Q 24.65625 48.390625 19.8125 42.84375 
Q 14.984375 37.3125 14.984375 27.296875 
Q 14.984375 17.28125 19.8125 11.734375 
Q 24.65625 6.203125 33.40625 6.203125 
Q 37.3125 6.203125 41.140625 7.25 
Q 44.96875 8.296875 48.78125 10.40625 
L 48.78125 2.09375 
Q 45.015625 0.34375 40.984375 -0.53125 
Q 36.96875 -1.421875 32.421875 -1.421875 
Q 20.0625 -1.421875 12.78125 6.34375 
Q 5.515625 14.109375 5.515625 27.296875 
Q 5.515625 40.671875 12.859375 48.328125 
Q 20.21875 56 33.015625 56 
Q 37.15625 56 41.109375 55.140625 
Q 45.0625 54.296875 48.78125 52.59375 
z
" id="DejaVuSans-99"/>
       <path d="M 18.3125 70.21875 
L 18.3125 54.6875 
L 36.8125 54.6875 
L 36.8125 47.703125 
L 18.3125 47.703125 
L 18.3125 18.015625 
Q 18.3125 11.328125 20.140625 9.421875 
Q 21.96875 7.515625 27.59375 7.515625 
L 36.8125 7.515625 
L 36.8125 0 
L 27.59375 0 
Q 17.1875 0 13.234375 3.875 
Q 9.28125 7.765625 9.28125 18.015625 
L 9.28125 47.703125 
L 2.6875 47.703125 
L 2.6875 54.6875 
L 9.28125 54.6875 
L 9.28125 70.21875 
z
" id="DejaVuSans-116"/>
       <path d="M 9.421875 54.6875 
L 18.40625 54.6875 
L 18.40625 0 
L 9.421875 0 
z
M 9.421875 75.984375 
L 18.40625 75.984375 
L 18.40625 64.59375 
L 9.421875 64.59375 
z
" id="DejaVuSans-105"/>
       <path d="M 30.609375 48.390625 
Q 23.390625 48.390625 19.1875 42.75 
Q 14.984375 37.109375 14.984375 27.296875 
Q 14.984375 17.484375 19.15625 11.84375 
Q 23.34375 6.203125 30.609375 6.203125 
Q 37.796875 6.203125 41.984375 11.859375 
Q 46.1875 17.53125 46.1875 27.296875 
Q 46.1875 37.015625 41.984375 42.703125 
Q 37.796875 48.390625 30.609375 48.390625 
z
M 30.609375 56 
Q 42.328125 56 49.015625 48.375 
Q 55.71875 40.765625 55.71875 27.296875 
Q 55.71875 13.875 49.015625 6.21875 
Q 42.328125 -1.421875 30.609375 -1.421875 
Q 18.84375 -1.421875 12.171875 6.21875 
Q 5.515625 13.875 5.515625 27.296875 
Q 5.515625 40.765625 12.171875 48.375 
Q 18.84375 56 30.609375 56 
z
" id="DejaVuSans-111"/>
       <path d="M 54.890625 33.015625 
L 54.890625 0 
L 45.90625 0 
L 45.90625 32.71875 
Q 45.90625 40.484375 42.875 44.328125 
Q 39.84375 48.1875 33.796875 48.1875 
Q 26.515625 48.1875 22.3125 43.546875 
Q 18.109375 38.921875 18.109375 30.90625 
L 18.109375 0 
L 9.078125 0 
L 9.078125 54.6875 
L 18.109375 54.6875 
L 18.109375 46.1875 
Q 21.34375 51.125 25.703125 53.5625 
Q 30.078125 56 35.796875 56 
Q 45.21875 56 50.046875 50.171875 
Q 54.890625 44.34375 54.890625 33.015625 
z
" id="DejaVuSans-110"/>
       <path d="M 9.421875 75.984375 
L 18.40625 75.984375 
L 18.40625 0 
L 9.421875 0 
z
" id="DejaVuSans-108"/>
       <path id="DejaVuSans-32"/>
       <path d="M 45.40625 46.390625 
L 45.40625 75.984375 
L 54.390625 75.984375 
L 54.390625 0 
L 45.40625 0 
L 45.40625 8.203125 
Q 42.578125 3.328125 38.25 0.953125 
Q 33.9375 -1.421875 27.875 -1.421875 
Q 17.96875 -1.421875 11.734375 6.484375 
Q 5.515625 14.40625 5.515625 27.296875 
Q 5.515625 40.1875 11.734375 48.09375 
Q 17.96875 56 27.875 56 
Q 33.9375 56 38.25 53.625 
Q 42.578125 51.265625 45.40625 46.390625 
z
M 14.796875 27.296875 
Q 14.796875 17.390625 18.875 11.75 
Q 22.953125 6.109375 30.078125 6.109375 
Q 37.203125 6.109375 41.296875 11.75 
Q 45.40625 17.390625 45.40625 27.296875 
Q 45.40625 37.203125 41.296875 42.84375 
Q 37.203125 48.484375 30.078125 48.484375 
Q 22.953125 48.484375 18.875 42.84375 
Q 14.796875 37.203125 14.796875 27.296875 
z
" id="DejaVuSans-100"/>
       <path d="M 44.28125 53.078125 
L 44.28125 44.578125 
Q 40.484375 46.53125 36.375 47.5 
Q 32.28125 48.484375 27.875 48.484375 
Q 21.1875 48.484375 17.84375 46.4375 
Q 14.5 44.390625 14.5 40.28125 
Q 14.5 37.15625 16.890625 35.375 
Q 19.28125 33.59375 26.515625 31.984375 
L 29.59375 31.296875 
Q 39.15625 29.25 43.1875 25.515625 
Q 47.21875 21.78125 47.21875 15.09375 
Q 47.21875 7.46875 41.1875 3.015625 
Q 35.15625 -1.421875 24.609375 -1.421875 
Q 20.21875 -1.421875 15.453125 -0.5625 
Q 10.6875 0.296875 5.421875 2 
L 5.421875 11.28125 
Q 10.40625 8.6875 15.234375 7.390625 
Q 20.0625 6.109375 24.8125 6.109375 
Q 31.15625 6.109375 34.5625 8.28125 
Q 37.984375 10.453125 37.984375 14.40625 
Q 37.984375 18.0625 35.515625 20.015625 
Q 33.0625 21.96875 24.703125 23.78125 
L 21.578125 24.515625 
Q 13.234375 26.265625 9.515625 29.90625 
Q 5.8125 33.546875 5.8125 39.890625 
Q 5.8125 47.609375 11.28125 51.796875 
Q 16.75 56 26.8125 56 
Q 31.78125 56 36.171875 55.265625 
Q 40.578125 54.546875 44.28125 53.078125 
z
" id="DejaVuSans-115"/>
       <path d="M 56.203125 29.59375 
L 56.203125 25.203125 
L 14.890625 25.203125 
Q 15.484375 15.921875 20.484375 11.0625 
Q 25.484375 6.203125 34.421875 6.203125 
Q 39.59375 6.203125 44.453125 7.46875 
Q 49.3125 8.734375 54.109375 11.28125 
L 54.109375 2.78125 
Q 49.265625 0.734375 44.1875 -0.34375 
Q 39.109375 -1.421875 33.890625 -1.421875 
Q 20.796875 -1.421875 13.15625 6.1875 
Q 5.515625 13.8125 5.515625 26.8125 
Q 5.515625 40.234375 12.765625 48.109375 
Q 20.015625 56 32.328125 56 
Q 43.359375 56 49.78125 48.890625 
Q 56.203125 41.796875 56.203125 29.59375 
z
M 47.21875 32.234375 
Q 47.125 39.59375 43.09375 43.984375 
Q 39.0625 48.390625 32.421875 48.390625 
Q 24.90625 48.390625 20.390625 44.140625 
Q 15.875 39.890625 15.1875 32.171875 
z
" id="DejaVuSans-101"/>
       <path d="M 45.40625 27.984375 
Q 45.40625 37.75 41.375 43.109375 
Q 37.359375 48.484375 30.078125 48.484375 
Q 22.859375 48.484375 18.828125 43.109375 
Q 14.796875 37.75 14.796875 27.984375 
Q 14.796875 18.265625 18.828125 12.890625 
Q 22.859375 7.515625 30.078125 7.515625 
Q 37.359375 7.515625 41.375 12.890625 
Q 45.40625 18.265625 45.40625 27.984375 
z
M 54.390625 6.78125 
Q 54.390625 -7.171875 48.1875 -13.984375 
Q 42 -20.796875 29.203125 -20.796875 
Q 24.46875 -20.796875 20.265625 -20.09375 
Q 16.0625 -19.390625 12.109375 -17.921875 
L 12.109375 -9.1875 
Q 16.0625 -11.328125 19.921875 -12.34375 
Q 23.78125 -13.375 27.78125 -13.375 
Q 36.625 -13.375 41.015625 -8.765625 
Q 45.40625 -4.15625 45.40625 5.171875 
L 45.40625 9.625 
Q 42.625 4.78125 38.28125 2.390625 
Q 33.9375 0 27.875 0 
Q 17.828125 0 11.671875 7.65625 
Q 5.515625 15.328125 5.515625 27.984375 
Q 5.515625 40.671875 11.671875 48.328125 
Q 17.828125 56 27.875 56 
Q 33.9375 56 38.28125 53.609375 
Q 42.625 51.21875 45.40625 46.390625 
L 45.40625 54.6875 
L 54.390625 54.6875 
z
" id="DejaVuSans-103"/>
       <path d="M 2.984375 54.6875 
L 12.5 54.6875 
L 29.59375 8.796875 
L 46.6875 54.6875 
L 56.203125 54.6875 
L 35.6875 0 
L 23.484375 0 
z
" id="DejaVuSans-118"/>
       <path d="M 54.890625 54.6875 
L 35.109375 28.078125 
L 55.90625 0 
L 45.3125 0 
L 29.390625 21.484375 
L 13.484375 0 
L 2.875 0 
L 24.125 28.609375 
L 4.6875 54.6875 
L 15.28125 54.6875 
L 29.78125 35.203125 
L 44.28125 54.6875 
z
" id="DejaVuSans-120"/>
      </defs>
      <use xlink:href="#DejaVuSans-70"/>
      <use x="50.269531" xlink:href="#DejaVuSans-114"/>
      <use x="91.382812" xlink:href="#DejaVuSans-97"/>
      <use x="152.662109" xlink:href="#DejaVuSans-99"/>
      <use x="207.642578" xlink:href="#DejaVuSans-116"/>
      <use x="246.851562" xlink:href="#DejaVuSans-105"/>
      <use x="274.634766" xlink:href="#DejaVuSans-111"/>
      <use x="335.816406" xlink:href="#DejaVuSans-110"/>
      <use x="399.195312" xlink:href="#DejaVuSans-97"/>
      <use x="460.474609" xlink:href="#DejaVuSans-108"/>
      <use x="488.257812" xlink:href="#DejaVuSans-32"/>
      <use x="520.044922" xlink:href="#DejaVuSans-100"/>
      <use x="583.521484" xlink:href="#DejaVuSans-105"/>
      <use x="611.304688" xlink:href="#DejaVuSans-115"/>
      <use x="663.404297" xlink:href="#DejaVuSans-116"/>
      <use x="702.613281" xlink:href="#DejaVuSans-97"/>
      <use x="763.892578" xlink:href="#DejaVuSans-110"/>
      <use x="827.271484" xlink:href="#DejaVuSans-99"/>
      <use x="882.251953" xlink:href="#DejaVuSans-101"/>
      <use x="943.775391" xlink:href="#DejaVuSans-32"/>
      <use x="975.5625" xlink:href="#DejaVuSans-97"/>
      <use x="1036.841797" xlink:href="#DejaVuSans-108"/>
      <use x="1064.625" xlink:href="#DejaVuSans-111"/>
      <use x="1125.806641" xlink:href="#DejaVuSans-110"/>
      <use x="1189.185547" xlink:href="#DejaVuSans-103"/>
      <use x="1252.662109" xlink:href="#DejaVuSans-32"/>
      <use x="1284.449219" xlink:href="#DejaVuSans-103"/>
      <use x="1347.925781" xlink:href="#DejaVuSans-105"/>
      <use x="1375.708984" xlink:href="#DejaVuSans-118"/>
      <use x="1434.888672" xlink:href="#DejaVuSans-101"/>
      <use x="1496.412109" xlink:href="#DejaVuSans-110"/>
      <use x="1559.791016" xlink:href="#DejaVuSans-32"/>
      <use x="1591.578125" xlink:href="#DejaVuSans-97"/>
      <use x="1652.857422" xlink:href="#DejaVuSans-120"/>
      <use x="1712.037109" xlink:href="#DejaVuSans-105"/>
      <use x="1739.820312" xlink:href="#DejaVuSans-115"/>
     </g>
    </g>
   </g>
   <g id="matplotlib.axis_2">
    <g id="ytick_1">
     <g id="line2d_13">
      <defs>
       <path d="M 0 0 
L 6 0 
" id="m376fb0e22b" style="stroke:#000000;stroke-width:2;"/>
      </defs>
      <g>
       <use style="fill:#ffffff;stroke:#000000;stroke-width:2;" x="49.3975" xlink:href="#m376fb0e22b" y="234.5525"/>
      </g>
     </g>
     <g id="line2d_14">
      <defs>
       <path d="M 0 0 
L -6 0 
" id="m9ddc5be385" style="stroke:#000000;stroke-width:2;"/>
      </defs>
      <g>
       <use style="fill:#ffffff;stroke:#000000;stroke-width:2;" x="341.28" xlink:href="#m9ddc5be385" y="234.5525"/>
      </g>
     </g>
     <g id="text_8">
      <!-- 0.0 -->
      <g transform="translate(26.81375 239.111562)scale(0.12 -0.12)">
       <use xlink:href="#DejaVuSans-48"/>
       <use x="63.623047" xlink:href="#DejaVuSans-46"/>
       <use x="95.410156" xlink:href="#DejaVuSans-48"/>
      </g>
     </g>
    </g>
    <g id="ytick_2">
     <g id="line2d_15">
      <g>
       <use style="fill:#ffffff;stroke:#000000;stroke-width:2;" x="49.3975" xlink:href="#m376fb0e22b" y="189.993812"/>
      </g>
     </g>
     <g id="line2d_16">
      <g>
       <use style="fill:#ffffff;stroke:#000000;stroke-width:2;" x="341.28" xlink:href="#m9ddc5be385" y="189.993812"/>
      </g>
     </g>
     <g id="text_9">
      <!-- 0.2 -->
      <g transform="translate(26.81375 194.552875)scale(0.12 -0.12)">
       <use xlink:href="#DejaVuSans-48"/>
       <use x="63.623047" xlink:href="#DejaVuSans-46"/>
       <use x="95.410156" xlink:href="#DejaVuSans-50"/>
      </g>
     </g>
    </g>
    <g id="ytick_3">
     <g id="line2d_17">
      <g>
       <use style="fill:#ffffff;stroke:#000000;stroke-width:2;" x="49.3975" xlink:href="#m376fb0e22b" y="145.435125"/>
      </g>
     </g>
     <g id="line2d_18">
      <g>
       <use style="fill:#ffffff;stroke:#000000;stroke-width:2;" x="341.28" xlink:href="#m9ddc5be385" y="145.435125"/>
      </g>
     </g>
     <g id="text_10">
      <!-- 0.4 -->
      <g transform="translate(26.81375 149.994187)scale(0.12 -0.12)">
       <use xlink:href="#DejaVuSans-48"/>
       <use x="63.623047" xlink:href="#DejaVuSans-46"/>
       <use x="95.410156" xlink:href="#DejaVuSans-52"/>
      </g>
     </g>
    </g>
    <g id="ytick_4">
     <g id="line2d_19">
      <g>
       <use style="fill:#ffffff;stroke:#000000;stroke-width:2;" x="49.3975" xlink:href="#m376fb0e22b" y="100.876437"/>
      </g>
     </g>
     <g id="line2d_20">
      <g>
       <use style="fill:#ffffff;stroke:#000000;stroke-width:2;" x="341.28" xlink:href="#m9ddc5be385" y="100.876437"/>
      </g>
     </g>
     <g id="text_11">
      <!-- 0.6 -->
      <g transform="translate(26.81375 105.4355)scale(0.12 -0.12)">
       <use xlink:href="#DejaVuSans-48"/>
       <use x="63.623047" xlink:href="#DejaVuSans-46"/>
       <use x="95.410156" xlink:href="#DejaVuSans-54"/>
      </g>
     </g>
    </g>
    <g id="ytick_5">
     <g id="line2d_21">
      <g>
       <use style="fill:#ffffff;stroke:#000000;stroke-width:2;" x="49.3975" xlink:href="#m376fb0e22b" y="56.31775"/>
      </g>
     </g>
     <g id="line2d_22">
      <g>
       <use style="fill:#ffffff;stroke:#000000;stroke-width:2;" x="341.28" xlink:href="#m9ddc5be385" y="56.31775"/>
      </g>
     </g>
     <g id="text_12">
      <!-- 0.8 -->
      <g transform="translate(26.81375 60.876812)scale(0.12 -0.12)">
       <use xlink:href="#DejaVuSans-48"/>
       <use x="63.623047" xlink:href="#DejaVuSans-46"/>
       <use x="95.410156" xlink:href="#DejaVuSans-56"/>
      </g>
     </g>
    </g>
    <g id="ytick_6">
     <g id="line2d_23">
      <g>
       <use style="fill:#ffffff;stroke:#000000;stroke-width:2;" x="49.3975" xlink:href="#m376fb0e22b" y="11.759062"/>
      </g>
     </g>
     <g id="line2d_24">
      <g>
       <use style="fill:#ffffff;stroke:#000000;stroke-width:2;" x="341.28" xlink:href="#m9ddc5be385" y="11.759062"/>
      </g>
     </g>
     <g id="text_13">
      <!-- 1.0 -->
      <g transform="translate(26.81375 16.318125)scale(0.12 -0.12)">
       <use xlink:href="#DejaVuSans-49"/>
       <use x="63.623047" xlink:href="#DejaVuSans-46"/>
       <use x="95.410156" xlink:href="#DejaVuSans-48"/>
      </g>
     </g>
    </g>
    <g id="text_14">
     <!-- Porosity of slice -->
     <g transform="translate(16.318125 169.973594)rotate(-90)scale(0.12 -0.12)">
      <defs>
       <path d="M 19.671875 64.796875 
L 19.671875 37.40625 
L 32.078125 37.40625 
Q 38.96875 37.40625 42.71875 40.96875 
Q 46.484375 44.53125 46.484375 51.125 
Q 46.484375 57.671875 42.71875 61.234375 
Q 38.96875 64.796875 32.078125 64.796875 
z
M 9.8125 72.90625 
L 32.078125 72.90625 
Q 44.34375 72.90625 50.609375 67.359375 
Q 56.890625 61.8125 56.890625 51.125 
Q 56.890625 40.328125 50.609375 34.8125 
Q 44.34375 29.296875 32.078125 29.296875 
L 19.671875 29.296875 
L 19.671875 0 
L 9.8125 0 
z
" id="DejaVuSans-80"/>
       <path d="M 32.171875 -5.078125 
Q 28.375 -14.84375 24.75 -17.8125 
Q 21.140625 -20.796875 15.09375 -20.796875 
L 7.90625 -20.796875 
L 7.90625 -13.28125 
L 13.1875 -13.28125 
Q 16.890625 -13.28125 18.9375 -11.515625 
Q 21 -9.765625 23.484375 -3.21875 
L 25.09375 0.875 
L 2.984375 54.6875 
L 12.5 54.6875 
L 29.59375 11.921875 
L 46.6875 54.6875 
L 56.203125 54.6875 
z
" id="DejaVuSans-121"/>
       <path d="M 37.109375 75.984375 
L 37.109375 68.5 
L 28.515625 68.5 
Q 23.6875 68.5 21.796875 66.546875 
Q 19.921875 64.59375 19.921875 59.515625 
L 19.921875 54.6875 
L 34.71875 54.6875 
L 34.71875 47.703125 
L 19.921875 47.703125 
L 19.921875 0 
L 10.890625 0 
L 10.890625 47.703125 
L 2.296875 47.703125 
L 2.296875 54.6875 
L 10.890625 54.6875 
L 10.890625 58.5 
Q 10.890625 67.625 15.140625 71.796875 
Q 19.390625 75.984375 28.609375 75.984375 
z
" id="DejaVuSans-102"/>
      </defs>
      <use xlink:href="#DejaVuSans-80"/>
      <use x="56.677734" xlink:href="#DejaVuSans-111"/>
      <use x="117.859375" xlink:href="#DejaVuSans-114"/>
      <use x="156.722656" xlink:href="#DejaVuSans-111"/>
      <use x="217.904297" xlink:href="#DejaVuSans-115"/>
      <use x="270.003906" xlink:href="#DejaVuSans-105"/>
      <use x="297.787109" xlink:href="#DejaVuSans-116"/>
      <use x="336.996094" xlink:href="#DejaVuSans-121"/>
      <use x="396.175781" xlink:href="#DejaVuSans-32"/>
      <use x="427.962891" xlink:href="#DejaVuSans-111"/>
      <use x="489.144531" xlink:href="#DejaVuSans-102"/>
      <use x="524.349609" xlink:href="#DejaVuSans-32"/>
      <use x="556.136719" xlink:href="#DejaVuSans-115"/>
      <use x="608.236328" xlink:href="#DejaVuSans-108"/>
      <use x="636.019531" xlink:href="#DejaVuSans-105"/>
      <use x="663.802734" xlink:href="#DejaVuSans-99"/>
      <use x="718.783203" xlink:href="#DejaVuSans-101"/>
     </g>
    </g>
   </g>
   <g id="line2d_25">
    <path clip-path="url(#p31e5388eeb)" d="M 62.664886 120.192629 
L 63.998292 120.218621 
L 70.66532 121.013251 
L 73.332132 121.054096 
L 74.665537 120.49897 
L 75.998943 119.706196 
L 77.332349 119.338587 
L 79.99916 118.976548 
L 83.999377 118.620078 
L 86.666188 118.050098 
L 87.999594 117.877433 
L 89.333 118.510538 
L 90.666405 119.370149 
L 91.999811 120.621506 
L 93.333217 121.575804 
L 94.666622 122.249755 
L 96.000028 123.1892 
L 97.333434 124.423847 
L 98.666839 125.276032 
L 102.667056 127.349868 
L 105.333868 127.947697 
L 106.667273 127.866006 
L 108.000679 128.146354 
L 109.334085 128.283744 
L 110.66749 127.851153 
L 114.667707 126.02796 
L 116.001113 125.916563 
L 117.334519 125.996398 
L 120.00133 124.585372 
L 122.668141 123.926275 
L 125.334953 123.779603 
L 126.668358 124.020962 
L 128.001764 124.811879 
L 138.669009 133.190769 
L 140.002415 134.317732 
L 141.335821 134.800452 
L 142.669226 135.567232 
L 145.336038 137.35515 
L 146.669443 137.652208 
L 149.336255 137.481399 
L 150.66966 136.955978 
L 154.669877 134.672345 
L 156.003283 133.281743 
L 157.336689 131.664634 
L 158.670094 129.711478 
L 160.0035 128.155637 
L 162.670311 124.217763 
L 165.337123 121.061523 
L 168.003934 117.054954 
L 169.33734 115.480547 
L 170.670745 114.385146 
L 172.004151 114.036103 
L 173.337557 114.223621 
L 174.670962 114.866009 
L 176.004368 115.905711 
L 177.337774 117.392858 
L 178.671179 118.480832 
L 180.004585 119.730332 
L 182.671396 120.93713 
L 184.004802 122.030674 
L 185.338208 122.710194 
L 186.671613 123.159494 
L 188.005019 124.141642 
L 189.338425 125.355866 
L 190.67183 125.550811 
L 192.005236 125.188771 
L 193.338642 124.381145 
L 194.672047 123.337729 
L 196.005453 121.668635 
L 198.672264 119.108367 
L 200.00567 118.265465 
L 201.339075 117.658353 
L 202.672481 116.713338 
L 204.005887 115.591944 
L 205.339292 114.617223 
L 206.672698 113.900571 
L 209.339509 112.864581 
L 210.672915 112.621365 
L 212.006321 112.532248 
L 214.673132 112.11451 
L 216.006538 112.131219 
L 217.339943 111.960411 
L 218.673349 111.934418 
L 220.006755 111.75247 
L 221.34016 111.357012 
L 222.673566 110.411997 
L 224.006972 109.823451 
L 229.340594 109.303599 
L 230.674 109.634076 
L 233.340811 111.10637 
L 234.674217 112.147929 
L 236.007623 112.760611 
L 237.341028 113.670351 
L 238.674434 114.769465 
L 240.00784 116.130362 
L 241.341245 117.162638 
L 244.008057 119.644928 
L 248.008274 122.337015 
L 249.341679 123.022105 
L 250.675085 123.31545 
L 253.341896 123.541957 
L 254.675302 123.9894 
L 256.008708 124.711622 
L 257.342113 125.807023 
L 258.675519 127.544812 
L 261.34233 130.277745 
L 262.675736 131.189341 
L 268.009359 131.930129 
L 269.342764 131.946839 
L 270.67617 131.586656 
L 272.009576 131.076088 
L 273.342981 131.042669 
L 276.009793 130.55995 
L 277.343198 129.789456 
L 278.676604 129.243612 
L 280.01001 128.838871 
L 282.676821 128.929845 
L 284.010227 129.319733 
L 285.343632 129.392141 
L 288.010444 129.057951 
L 290.677255 128.458265 
L 293.344066 126.735329 
L 296.010878 123.939272 
L 297.344283 122.890286 
L 301.3445 120.658638 
L 302.677906 120.110938 
L 305.344717 118.310024 
L 306.678123 117.76975 
L 308.011529 117.630504 
L 309.344934 117.686202 
L 310.67834 118.018536 
L 313.345151 118.185631 
L 314.678557 118.525391 
L 316.011963 119.702483 
L 317.345368 120.467407 
L 320.01218 121.51268 
L 326.679208 122.576518 
L 328.012614 122.626647 
L 328.012614 122.626647 
" style="fill:none;stroke:#0000ff;stroke-linecap:square;stroke-opacity:0.5;stroke-width:2;"/>
   </g>
   <g id="line2d_26">
    <path clip-path="url(#p31e5388eeb)" d="M 62.664886 135.011177 
L 64.439788 134.863576 
L 66.214689 134.635213 
L 68.877041 134.07266 
L 69.764491 133.838727 
L 70.651942 133.164776 
L 72.426843 131.154066 
L 75.089195 123.899354 
L 75.976645 121.788387 
L 76.864096 120.028318 
L 78.638997 117.262895 
L 79.526448 116.148928 
L 80.413898 114.853941 
L 81.301349 113.890359 
L 82.188799 113.18856 
L 83.963701 112.405998 
L 84.851151 111.81838 
L 85.738602 110.907712 
L 86.626052 109.77982 
L 87.513503 108.908141 
L 88.400954 108.715982 
L 89.288404 108.170138 
L 90.175855 107.006042 
L 92.838207 104.491261 
L 93.725657 104.268468 
L 94.613108 104.867225 
L 95.500558 105.248759 
L 96.388009 105.310027 
L 97.275459 105.983977 
L 98.16291 107.189847 
L 99.050361 109.039032 
L 99.937811 110.386932 
L 103.487614 114.55317 
L 104.375064 115.55574 
L 106.149965 116.845157 
L 107.037416 117.870007 
L 107.924867 118.649784 
L 108.812317 119.100941 
L 109.699768 119.279175 
L 111.474669 118.479904 
L 112.36212 118.719407 
L 114.137021 119.827804 
L 117.686823 125.56195 
L 118.574274 126.628574 
L 122.124076 133.922274 
L 123.011527 135.136498 
L 123.898977 135.955264 
L 124.786428 136.470474 
L 125.673878 137.436841 
L 126.561329 137.570517 
L 127.44878 137.949265 
L 128.33623 137.97433 
L 129.223681 137.732042 
L 130.111131 137.002393 
L 130.998582 135.785384 
L 131.886033 134.821803 
L 132.773483 134.259249 
L 133.660934 133.365291 
L 135.435835 131.914348 
L 136.323286 130.895068 
L 138.098187 129.892498 
L 138.985637 129.257537 
L 139.873088 129.098796 
L 140.760539 129.432986 
L 143.42289 129.903637 
L 144.310341 130.326945 
L 145.197792 130.399353 
L 146.085242 130.967476 
L 146.972693 132.148281 
L 147.860143 132.894639 
L 148.747594 133.242754 
L 150.522495 131.772317 
L 151.409946 130.4829 
L 152.297396 129.522104 
L 153.184847 128.363578 
L 154.072297 126.765035 
L 155.847199 124.846226 
L 156.734649 124.492542 
L 157.6221 124.615078 
L 161.171902 124.269748 
L 162.059353 123.807452 
L 163.834254 123.225404 
L 166.496606 120.830375 
L 167.384056 120.919492 
L 168.271507 121.663065 
L 169.158958 121.186844 
L 171.821309 120.624291 
L 172.70876 120.602011 
L 173.59621 119.7916 
L 175.371112 119.203983 
L 177.146013 119.663494 
L 178.033463 119.566022 
L 180.695815 118.276605 
L 181.583266 118.031532 
L 182.470716 117.616579 
L 183.358167 117.427205 
L 184.245618 116.767179 
L 185.133068 116.572235 
L 186.907969 117.09023 
L 187.79542 117.867222 
L 188.682871 119.092586 
L 189.570321 120.596442 
L 190.457772 121.855225 
L 191.345222 123.567949 
L 194.895025 131.594083 
L 195.782475 133.833157 
L 196.669926 135.376001 
L 197.557376 135.868932 
L 198.444827 136.590226 
L 199.332278 137.152779 
L 200.219728 137.381142 
L 201.107179 137.812805 
L 201.994629 137.985469 
L 204.656981 137.991039 
L 205.544432 137.606721 
L 207.319333 137.317089 
L 208.206784 136.459334 
L 209.094234 135.300809 
L 209.981685 133.323517 
L 210.869135 130.911778 
L 211.756586 129.666919 
L 212.644037 128.221547 
L 213.531487 126.291599 
L 214.418938 125.314093 
L 215.306388 125.475618 
L 216.193839 125.135858 
L 217.08129 124.924204 
L 217.96874 124.576089 
L 219.743641 123.275533 
L 220.631092 122.529175 
L 223.293444 119.437916 
L 224.180894 118.77232 
L 225.068345 118.435345 
L 225.955795 117.828233 
L 226.843246 117.015037 
L 228.618147 114.901284 
L 229.505598 113.614652 
L 230.393048 112.801456 
L 231.280499 111.740402 
L 232.16795 111.088732 
L 233.0554 110.921637 
L 233.942851 111.389503 
L 235.717752 112.787532 
L 236.605203 113.86808 
L 237.492653 114.458482 
L 238.380104 114.678491 
L 239.267554 114.352656 
L 241.042456 114.21341 
L 242.817357 114.413924 
L 243.704807 114.296957 
L 244.592258 114.411139 
L 245.479708 114.054669 
L 246.367159 113.959982 
L 247.25461 113.745543 
L 248.14206 114.02682 
L 249.029511 114.929134 
L 249.916961 116.026391 
L 250.804412 118.140144 
L 251.691863 119.724762 
L 252.579313 120.674419 
L 254.354214 123.01375 
L 255.241665 123.437058 
L 256.129116 123.075019 
L 257.016566 122.058524 
L 257.904017 121.303811 
L 258.791467 120.936202 
L 260.566369 119.760966 
L 261.453819 119.432346 
L 262.34127 118.97005 
L 263.22872 118.914351 
L 264.116171 119.749827 
L 265.891072 119.591086 
L 266.778523 119.585516 
L 267.665973 120.365293 
L 268.553424 120.838729 
L 269.440875 121.058738 
L 270.328325 121.072663 
L 271.215776 121.365079 
L 272.103226 121.31495 
L 274.765578 122.18663 
L 275.653029 123.044385 
L 276.540479 123.70441 
L 277.42793 124.180631 
L 278.31538 124.0386 
L 279.202831 123.648712 
L 280.977732 124.470263 
L 281.865183 124.105438 
L 282.752633 124.05531 
L 283.640084 122.818806 
L 285.414985 121.081017 
L 287.189886 120.964051 
L 288.077337 121.48483 
L 288.964788 122.17549 
L 289.852238 123.203125 
L 290.739689 123.86315 
L 292.51459 124.350511 
L 294.289491 123.623647 
L 296.064392 123.37579 
L 299.614195 125.205481 
L 302.276546 125.358651 
L 303.163997 125.495112 
L 304.051448 125.848797 
L 304.938898 125.776389 
L 305.826349 125.458908 
L 306.713799 124.706981 
L 307.60125 123.673776 
L 311.151052 118.429775 
L 312.038503 117.831018 
L 312.925954 116.889716 
L 313.813404 117.212766 
L 314.700855 118.401926 
L 315.588305 118.652569 
L 317.363207 118.60801 
L 318.250657 118.816879 
L 319.138108 119.454625 
L 321.800459 122.317521 
L 322.68791 122.751968 
L 324.462811 123.141857 
L 326.237712 123.918849 
L 328.012614 124.222405 
L 328.012614 124.222405 
" style="fill:none;stroke:#ff0000;stroke-linecap:square;stroke-opacity:0.5;stroke-width:2;"/>
   </g>
   <g id="line2d_27">
    <path clip-path="url(#p31e5388eeb)" d="M 62.664886 119.212337 
L 63.329918 119.405425 
L 63.99495 119.806453 
L 65.325014 120.957553 
L 65.990046 121.752183 
L 67.985142 124.875004 
L 68.650173 125.91842 
L 69.315205 126.37886 
L 71.310301 126.972975 
L 71.975333 127.552238 
L 72.640365 127.789885 
L 73.305397 128.161207 
L 73.970429 128.06095 
L 74.635461 128.28003 
L 75.300492 128.1872 
L 75.965524 128.216906 
L 76.630556 128.543669 
L 77.295588 129.691055 
L 77.96062 131.064948 
L 80.620748 133.712477 
L 81.950811 133.304022 
L 82.615843 132.966119 
L 83.280875 132.873288 
L 84.610939 133.734756 
L 85.275971 134.588798 
L 85.941003 135.747324 
L 86.606035 137.199194 
L 87.936098 138.673344 
L 88.60113 139.869002 
L 89.266162 140.600507 
L 89.931194 141.053521 
L 91.261258 140.002678 
L 92.591322 139.003821 
L 93.256354 138.70305 
L 95.251449 138.268603 
L 95.916481 137.993824 
L 96.581513 136.961548 
L 97.246545 135.379715 
L 99.241641 128.083229 
L 101.236736 122.736187 
L 101.901768 121.733616 
L 102.5668 121.020677 
L 104.561896 117.816165 
L 105.226928 118.087231 
L 106.556992 119.921563 
L 107.222024 120.226048 
L 107.887055 119.966122 
L 108.552087 119.47969 
L 109.217119 118.510538 
L 109.882151 117.277748 
L 110.547183 115.554812 
L 111.877247 111.295744 
L 113.207311 107.938989 
L 115.202406 103.988119 
L 116.53247 102.71077 
L 117.197502 102.36544 
L 117.862534 102.354301 
L 118.527566 103.000402 
L 119.85763 104.827308 
L 121.187693 108.299172 
L 122.517757 110.449129 
L 123.847821 112.528534 
L 125.177885 115.480547 
L 125.842917 117.452269 
L 126.507949 119.060095 
L 128.503044 123.022105 
L 131.828204 130.834728 
L 133.158268 134.258321 
L 134.488331 136.890997 
L 135.153363 137.514818 
L 135.818395 136.649637 
L 137.148459 135.699052 
L 138.478523 135.583942 
L 139.808587 135.98497 
L 140.473618 135.673059 
L 141.13865 135.186627 
L 142.468714 132.02296 
L 143.133746 130.890427 
L 143.798778 130.266605 
L 144.46381 130.481972 
L 145.128842 131.514248 
L 145.793874 132.134357 
L 146.458906 132.026673 
L 147.123937 131.625645 
L 149.784065 132.479687 
L 150.449097 133.055236 
L 151.114129 133.244611 
L 151.779161 133.096082 
L 152.444193 132.234614 
L 153.109224 131.711049 
L 153.774256 130.849581 
L 154.439288 129.750467 
L 155.10432 128.150067 
L 155.769352 126.200625 
L 157.099416 123.30431 
L 158.42948 121.466264 
L 159.759543 120.300312 
L 161.754639 116.976977 
L 162.419671 115.450842 
L 164.414767 112.016109 
L 166.409862 108.024394 
L 167.074894 106.435134 
L 168.404958 104.036391 
L 169.06999 103.423709 
L 169.735022 102.989262 
L 170.400054 102.194632 
L 171.065086 102.283749 
L 171.730118 101.845589 
L 173.060181 102.532535 
L 173.725213 103.375437 
L 174.390245 103.73562 
L 175.055277 104.259185 
L 175.720309 105.239476 
L 176.385341 106.836162 
L 177.715405 110.564239 
L 178.380437 112.21291 
L 182.370628 124.711622 
L 183.03566 125.81445 
L 183.700692 126.371433 
L 184.365724 127.184629 
L 185.695787 128.409993 
L 186.360819 129.345726 
L 188.355915 133.430272 
L 189.685979 136.839012 
L 190.351011 137.243753 
L 191.016043 137.136069 
L 191.681075 136.701622 
L 193.011138 135.468832 
L 193.67617 134.696481 
L 194.341202 134.447695 
L 195.006234 134.700195 
L 195.671266 135.468832 
L 196.336298 136.523387 
L 197.666362 137.150922 
L 198.996425 136.857578 
L 199.661457 136.972688 
L 200.326489 136.586512 
L 200.991521 136.022102 
L 201.656553 135.008392 
L 202.321585 135.067804 
L 202.986617 134.748466 
L 203.651649 134.878429 
L 204.316681 135.238612 
L 204.981713 135.260891 
L 205.646744 134.822731 
L 206.311776 134.941554 
L 206.976808 135.379715 
L 208.306872 135.424273 
L 208.971904 134.989826 
L 209.636936 133.961263 
L 210.967 130.65278 
L 211.632031 128.558522 
L 212.962095 123.207766 
L 213.627127 120.60851 
L 216.287255 107.419138 
L 217.617319 103.345731 
L 218.28235 102.306029 
L 218.947382 101.860442 
L 220.942478 103.668782 
L 221.60751 104.656499 
L 222.272542 106.126936 
L 224.267638 111.522251 
L 225.597701 114.017537 
L 226.262733 114.667351 
L 226.927765 115.733047 
L 228.257829 117.092087 
L 228.922861 117.645357 
L 229.587893 117.110653 
L 230.917957 114.154926 
L 232.24802 112.476549 
L 232.913052 112.198057 
L 233.578084 112.190631 
L 234.243116 111.945558 
L 234.908148 111.900999 
L 236.238212 111.169494 
L 236.903244 110.627364 
L 237.568276 109.873579 
L 238.233307 109.602514 
L 239.563371 110.267181 
L 240.893435 110.471408 
L 242.888531 112.142359 
L 243.553563 112.302028 
L 244.218594 113.312025 
L 244.883626 113.564524 
L 245.548658 114.589374 
L 246.21369 114.429705 
L 247.543754 114.348014 
L 248.208786 114.652498 
L 250.203882 113.727906 
L 250.868913 114.006397 
L 251.533945 113.883861 
L 253.529041 115.521393 
L 254.194073 117.040101 
L 254.859105 118.915279 
L 256.189169 123.32659 
L 258.184264 132.115791 
L 258.849296 134.403137 
L 259.514328 136.166918 
L 260.844392 138.669631 
L 261.509424 138.580514 
L 262.174456 138.008677 
L 263.50452 135.502251 
L 264.169551 134.536813 
L 264.834583 133.909278 
L 266.164647 134.031814 
L 266.829679 134.325159 
L 267.494711 133.987256 
L 268.824775 132.435128 
L 269.489807 131.258036 
L 270.154839 129.806165 
L 272.814966 120.634502 
L 274.14503 116.757896 
L 274.810062 115.413709 
L 275.475094 114.552241 
L 276.140126 115.101798 
L 276.805157 116.304883 
L 277.470189 117.749327 
L 278.135221 118.737045 
L 278.800253 119.487116 
L 280.795349 120.831303 
L 282.125413 122.799312 
L 283.455476 124.351439 
L 284.120508 124.863864 
L 285.450572 125.435701 
L 286.115604 125.539671 
L 286.780636 124.986401 
L 287.445668 124.975261 
L 288.1107 125.647355 
L 288.775732 125.346583 
L 290.770827 123.300597 
L 291.435859 122.168064 
L 292.100891 121.462551 
L 292.765923 120.983545 
L 293.430955 120.679061 
L 294.095987 120.523105 
L 294.761019 120.025533 
L 295.426051 119.037816 
L 296.091083 117.838445 
L 296.756114 117.42999 
L 297.421146 117.166351 
L 298.086178 117.051241 
L 298.75121 116.672492 
L 299.416242 116.546243 
L 300.081274 116.234332 
L 300.746306 115.625363 
L 301.411338 115.413709 
L 302.07637 115.510253 
L 304.071465 116.609367 
L 304.736497 116.620507 
L 306.066561 116.137788 
L 307.396625 115.131504 
L 308.061657 114.789888 
L 308.726689 114.897571 
L 309.39172 115.536246 
L 310.056752 116.371721 
L 311.386816 119.442557 
L 312.051848 121.27689 
L 312.71688 122.621077 
L 313.381912 123.40828 
L 314.046944 123.846441 
L 315.377008 124.269748 
L 316.042039 123.939272 
L 317.372103 123.530817 
L 318.037135 124.436844 
L 319.367199 125.294598 
L 320.032231 126.189485 
L 321.362295 126.664778 
L 322.692358 127.964406 
L 324.022422 128.86672 
L 325.352486 129.022675 
L 326.68255 128.718191 
L 328.012614 128.487971 
L 328.012614 128.487971 
" style="fill:none;stroke:#008000;stroke-linecap:square;stroke-opacity:0.5;stroke-width:2;"/>
   </g>
   <g id="patch_3">
    <path d="M 49.3975 234.5525 
L 49.3975 11.759062 
" style="fill:none;stroke:#000000;stroke-linecap:square;stroke-linejoin:miter;stroke-width:2;"/>
   </g>
   <g id="patch_4">
    <path d="M 341.28 234.5525 
L 341.28 11.759062 
" style="fill:none;stroke:#000000;stroke-linecap:square;stroke-linejoin:miter;stroke-width:2;"/>
   </g>
   <g id="patch_5">
    <path d="M 49.3975 234.5525 
L 341.28 234.5525 
" style="fill:none;stroke:#000000;stroke-linecap:square;stroke-linejoin:miter;stroke-width:2;"/>
   </g>
   <g id="patch_6">
    <path d="M 49.3975 11.759062 
L 341.28 11.759062 
" style="fill:none;stroke:#000000;stroke-linecap:square;stroke-linejoin:miter;stroke-width:2;"/>
   </g>
   <g id="legend_1">
    <g id="line2d_28">
     <path d="M 245.26125 27.477188 
L 269.26125 27.477188 
" style="fill:none;stroke:#0000ff;stroke-linecap:square;stroke-opacity:0.5;stroke-width:2;"/>
    </g>
    <g id="line2d_29"/>
    <g id="text_15">
     <!-- yz-plane -->
     <g transform="translate(278.86125 31.677188)scale(0.12 -0.12)">
      <defs>
       <path d="M 5.515625 54.6875 
L 48.1875 54.6875 
L 48.1875 46.484375 
L 14.40625 7.171875 
L 48.1875 7.171875 
L 48.1875 0 
L 4.296875 0 
L 4.296875 8.203125 
L 38.09375 47.515625 
L 5.515625 47.515625 
z
" id="DejaVuSans-122"/>
       <path d="M 4.890625 31.390625 
L 31.203125 31.390625 
L 31.203125 23.390625 
L 4.890625 23.390625 
z
" id="DejaVuSans-45"/>
       <path d="M 18.109375 8.203125 
L 18.109375 -20.796875 
L 9.078125 -20.796875 
L 9.078125 54.6875 
L 18.109375 54.6875 
L 18.109375 46.390625 
Q 20.953125 51.265625 25.265625 53.625 
Q 29.59375 56 35.59375 56 
Q 45.5625 56 51.78125 48.09375 
Q 58.015625 40.1875 58.015625 27.296875 
Q 58.015625 14.40625 51.78125 6.484375 
Q 45.5625 -1.421875 35.59375 -1.421875 
Q 29.59375 -1.421875 25.265625 0.953125 
Q 20.953125 3.328125 18.109375 8.203125 
z
M 48.6875 27.296875 
Q 48.6875 37.203125 44.609375 42.84375 
Q 40.53125 48.484375 33.40625 48.484375 
Q 26.265625 48.484375 22.1875 42.84375 
Q 18.109375 37.203125 18.109375 27.296875 
Q 18.109375 17.390625 22.1875 11.75 
Q 26.265625 6.109375 33.40625 6.109375 
Q 40.53125 6.109375 44.609375 11.75 
Q 48.6875 17.390625 48.6875 27.296875 
z
" id="DejaVuSans-112"/>
      </defs>
      <use xlink:href="#DejaVuSans-121"/>
      <use x="59.179688" xlink:href="#DejaVuSans-122"/>
      <use x="111.669922" xlink:href="#DejaVuSans-45"/>
      <use x="147.753906" xlink:href="#DejaVuSans-112"/>
      <use x="211.230469" xlink:href="#DejaVuSans-108"/>
      <use x="239.013672" xlink:href="#DejaVuSans-97"/>
      <use x="300.292969" xlink:href="#DejaVuSans-110"/>
      <use x="363.671875" xlink:href="#DejaVuSans-101"/>
     </g>
    </g>
    <g id="line2d_30">
     <path d="M 245.26125 45.090938 
L 269.26125 45.090938 
" style="fill:none;stroke:#ff0000;stroke-linecap:square;stroke-opacity:0.5;stroke-width:2;"/>
    </g>
    <g id="line2d_31"/>
    <g id="text_16">
     <!-- xz-plane -->
     <g transform="translate(278.86125 49.290938)scale(0.12 -0.12)">
      <use xlink:href="#DejaVuSans-120"/>
      <use x="59.179688" xlink:href="#DejaVuSans-122"/>
      <use x="111.669922" xlink:href="#DejaVuSans-45"/>
      <use x="147.753906" xlink:href="#DejaVuSans-112"/>
      <use x="211.230469" xlink:href="#DejaVuSans-108"/>
      <use x="239.013672" xlink:href="#DejaVuSans-97"/>
      <use x="300.292969" xlink:href="#DejaVuSans-110"/>
      <use x="363.671875" xlink:href="#DejaVuSans-101"/>
     </g>
    </g>
    <g id="line2d_32">
     <path d="M 245.26125 62.704687 
L 269.26125 62.704687 
" style="fill:none;stroke:#008000;stroke-linecap:square;stroke-opacity:0.5;stroke-width:2;"/>
    </g>
    <g id="line2d_33"/>
    <g id="text_17">
     <!-- xy-plane -->
     <g transform="translate(278.86125 66.904687)scale(0.12 -0.12)">
      <use xlink:href="#DejaVuSans-120"/>
      <use x="59.179688" xlink:href="#DejaVuSans-121"/>
      <use x="116.609375" xlink:href="#DejaVuSans-45"/>
      <use x="152.693359" xlink:href="#DejaVuSans-112"/>
      <use x="216.169922" xlink:href="#DejaVuSans-108"/>
      <use x="243.953125" xlink:href="#DejaVuSans-97"/>
      <use x="305.232422" xlink:href="#DejaVuSans-110"/>
      <use x="368.611328" xlink:href="#DejaVuSans-101"/>
     </g>
    </g>
   </g>
  </g>
 </g>
 <defs>
  <clipPath id="p31e5388eeb">
   <rect height="222.793437" width="291.8825" x="49.3975" y="11.759062"/>
  </clipPath>
 </defs>
</svg>
