<?xml version="1.0" encoding="utf-8" standalone="no"?>
<!DOCTYPE svg PUBLIC "-//W3C//DTD SVG 1.1//EN"
  "http://www.w3.org/Graphics/SVG/1.1/DTD/svg11.dtd">
<!-- Created with matplotlib (https://matplotlib.org/) -->
<svg height="276.48pt" version="1.1" viewBox="0 0 420.38719 276.48" width="420.38719pt" xmlns="http://www.w3.org/2000/svg" xmlns:xlink="http://www.w3.org/1999/xlink">
 <metadata>
  <rdf:RDF xmlns:cc="http://creativecommons.org/ns#" xmlns:dc="http://purl.org/dc/elements/1.1/" xmlns:rdf="http://www.w3.org/1999/02/22-rdf-syntax-ns#">
   <cc:Work>
    <dc:type rdf:resource="http://purl.org/dc/dcmitype/StillImage"/>
    <dc:date>2021-04-19T20:43:21.880437</dc:date>
    <dc:format>image/svg+xml</dc:format>
    <dc:creator>
     <cc:Agent>
      <dc:title>Matplotlib v3.3.4, https://matplotlib.org/</dc:title>
     </cc:Agent>
    </dc:creator>
   </cc:Work>
  </rdf:RDF>
 </metadata>
 <defs>
  <style type="text/css">*{stroke-linecap:butt;stroke-linejoin:round;}</style>
 </defs>
 <g id="figure_1">
  <g id="patch_1">
   <path d="M 0 276.48 
L 420.38719 276.48 
L 420.38719 0 
L 0 0 
z
" style="fill:none;"/>
  </g>
  <g id="axes_1">
   <g id="patch_2">
    <path d="M 49.3975 234.5525 
L 393.659093 234.5525 
L 393.659093 7.2 
L 49.3975 7.2 
z
" style="fill:#ffffff;"/>
   </g>
   <g id="matplotlib.axis_1">
    <g id="xtick_1">
     <g id="line2d_1">
      <defs>
       <path d="M 0 0 
L 0 -6 
" id="m15d4d2fd30" style="stroke:#000000;stroke-width:2;"/>
      </defs>
      <g>
       <use style="fill:#ffffff;stroke:#000000;stroke-width:2;" x="64.471023" xlink:href="#m15d4d2fd30" y="234.5525"/>
      </g>
     </g>
     <g id="line2d_2">
      <defs>
       <path d="M 0 0 
L 0 6 
" id="m27ab045a1b" style="stroke:#000000;stroke-width:2;"/>
      </defs>
      <g>
       <use style="fill:#ffffff;stroke:#000000;stroke-width:2;" x="64.471023" xlink:href="#m27ab045a1b" y="7.2"/>
      </g>
     </g>
     <g id="text_1">
      <!-- 0 -->
      <g transform="translate(60.653523 247.170625)scale(0.12 -0.12)">
       <defs>
        <path d="M 31.78125 66.40625 
Q 24.171875 66.40625 20.328125 58.90625 
Q 16.5 51.421875 16.5 36.375 
Q 16.5 21.390625 20.328125 13.890625 
Q 24.171875 6.390625 31.78125 6.390625 
Q 39.453125 6.390625 43.28125 13.890625 
Q 47.125 21.390625 47.125 36.375 
Q 47.125 51.421875 43.28125 58.90625 
Q 39.453125 66.40625 31.78125 66.40625 
z
M 31.78125 74.21875 
Q 44.046875 74.21875 50.515625 64.515625 
Q 56.984375 54.828125 56.984375 36.375 
Q 56.984375 17.96875 50.515625 8.265625 
Q 44.046875 -1.421875 31.78125 -1.421875 
Q 19.53125 -1.421875 13.0625 8.265625 
Q 6.59375 17.96875 6.59375 36.375 
Q 6.59375 54.828125 13.0625 64.515625 
Q 19.53125 74.21875 31.78125 74.21875 
z
" id="DejaVuSans-48"/>
       </defs>
       <use xlink:href="#DejaVuSans-48"/>
      </g>
     </g>
    </g>
    <g id="xtick_2">
     <g id="line2d_3">
      <g>
       <use style="fill:#ffffff;stroke:#000000;stroke-width:2;" x="129.633257" xlink:href="#m15d4d2fd30" y="234.5525"/>
      </g>
     </g>
     <g id="line2d_4">
      <g>
       <use style="fill:#ffffff;stroke:#000000;stroke-width:2;" x="129.633257" xlink:href="#m27ab045a1b" y="7.2"/>
      </g>
     </g>
     <g id="text_2">
      <!-- 50000 -->
      <g transform="translate(110.545757 247.170625)scale(0.12 -0.12)">
       <defs>
        <path d="M 10.796875 72.90625 
L 49.515625 72.90625 
L 49.515625 64.59375 
L 19.828125 64.59375 
L 19.828125 46.734375 
Q 21.96875 47.46875 24.109375 47.828125 
Q 26.265625 48.1875 28.421875 48.1875 
Q 40.625 48.1875 47.75 41.5 
Q 54.890625 34.8125 54.890625 23.390625 
Q 54.890625 11.625 47.5625 5.09375 
Q 40.234375 -1.421875 26.90625 -1.421875 
Q 22.3125 -1.421875 17.546875 -0.640625 
Q 12.796875 0.140625 7.71875 1.703125 
L 7.71875 11.625 
Q 12.109375 9.234375 16.796875 8.0625 
Q 21.484375 6.890625 26.703125 6.890625 
Q 35.15625 6.890625 40.078125 11.328125 
Q 45.015625 15.765625 45.015625 23.390625 
Q 45.015625 31 40.078125 35.4375 
Q 35.15625 39.890625 26.703125 39.890625 
Q 22.75 39.890625 18.8125 39.015625 
Q 14.890625 38.140625 10.796875 36.28125 
z
" id="DejaVuSans-53"/>
       </defs>
       <use xlink:href="#DejaVuSans-53"/>
       <use x="63.623047" xlink:href="#DejaVuSans-48"/>
       <use x="127.246094" xlink:href="#DejaVuSans-48"/>
       <use x="190.869141" xlink:href="#DejaVuSans-48"/>
       <use x="254.492188" xlink:href="#DejaVuSans-48"/>
      </g>
     </g>
    </g>
    <g id="xtick_3">
     <g id="line2d_5">
      <g>
       <use style="fill:#ffffff;stroke:#000000;stroke-width:2;" x="194.79549" xlink:href="#m15d4d2fd30" y="234.5525"/>
      </g>
     </g>
     <g id="line2d_6">
      <g>
       <use style="fill:#ffffff;stroke:#000000;stroke-width:2;" x="194.79549" xlink:href="#m27ab045a1b" y="7.2"/>
      </g>
     </g>
     <g id="text_3">
      <!-- 100000 -->
      <g transform="translate(171.89049 247.170625)scale(0.12 -0.12)">
       <defs>
        <path d="M 12.40625 8.296875 
L 28.515625 8.296875 
L 28.515625 63.921875 
L 10.984375 60.40625 
L 10.984375 69.390625 
L 28.421875 72.90625 
L 38.28125 72.90625 
L 38.28125 8.296875 
L 54.390625 8.296875 
L 54.390625 0 
L 12.40625 0 
z
" id="DejaVuSans-49"/>
       </defs>
       <use xlink:href="#DejaVuSans-49"/>
       <use x="63.623047" xlink:href="#DejaVuSans-48"/>
       <use x="127.246094" xlink:href="#DejaVuSans-48"/>
       <use x="190.869141" xlink:href="#DejaVuSans-48"/>
       <use x="254.492188" xlink:href="#DejaVuSans-48"/>
       <use x="318.115234" xlink:href="#DejaVuSans-48"/>
      </g>
     </g>
    </g>
    <g id="xtick_4">
     <g id="line2d_7">
      <g>
       <use style="fill:#ffffff;stroke:#000000;stroke-width:2;" x="259.957723" xlink:href="#m15d4d2fd30" y="234.5525"/>
      </g>
     </g>
     <g id="line2d_8">
      <g>
       <use style="fill:#ffffff;stroke:#000000;stroke-width:2;" x="259.957723" xlink:href="#m27ab045a1b" y="7.2"/>
      </g>
     </g>
     <g id="text_4">
      <!-- 150000 -->
      <g transform="translate(237.052723 247.170625)scale(0.12 -0.12)">
       <use xlink:href="#DejaVuSans-49"/>
       <use x="63.623047" xlink:href="#DejaVuSans-53"/>
       <use x="127.246094" xlink:href="#DejaVuSans-48"/>
       <use x="190.869141" xlink:href="#DejaVuSans-48"/>
       <use x="254.492188" xlink:href="#DejaVuSans-48"/>
       <use x="318.115234" xlink:href="#DejaVuSans-48"/>
      </g>
     </g>
    </g>
    <g id="xtick_5">
     <g id="line2d_9">
      <g>
       <use style="fill:#ffffff;stroke:#000000;stroke-width:2;" x="325.119957" xlink:href="#m15d4d2fd30" y="234.5525"/>
      </g>
     </g>
     <g id="line2d_10">
      <g>
       <use style="fill:#ffffff;stroke:#000000;stroke-width:2;" x="325.119957" xlink:href="#m27ab045a1b" y="7.2"/>
      </g>
     </g>
     <g id="text_5">
      <!-- 200000 -->
      <g transform="translate(302.214957 247.170625)scale(0.12 -0.12)">
       <defs>
        <path d="M 19.1875 8.296875 
L 53.609375 8.296875 
L 53.609375 0 
L 7.328125 0 
L 7.328125 8.296875 
Q 12.9375 14.109375 22.625 23.890625 
Q 32.328125 33.6875 34.8125 36.53125 
Q 39.546875 41.84375 41.421875 45.53125 
Q 43.3125 49.21875 43.3125 52.78125 
Q 43.3125 58.59375 39.234375 62.25 
Q 35.15625 65.921875 28.609375 65.921875 
Q 23.96875 65.921875 18.8125 64.3125 
Q 13.671875 62.703125 7.8125 59.421875 
L 7.8125 69.390625 
Q 13.765625 71.78125 18.9375 73 
Q 24.125 74.21875 28.421875 74.21875 
Q 39.75 74.21875 46.484375 68.546875 
Q 53.21875 62.890625 53.21875 53.421875 
Q 53.21875 48.921875 51.53125 44.890625 
Q 49.859375 40.875 45.40625 35.40625 
Q 44.1875 33.984375 37.640625 27.21875 
Q 31.109375 20.453125 19.1875 8.296875 
z
" id="DejaVuSans-50"/>
       </defs>
       <use xlink:href="#DejaVuSans-50"/>
       <use x="63.623047" xlink:href="#DejaVuSans-48"/>
       <use x="127.246094" xlink:href="#DejaVuSans-48"/>
       <use x="190.869141" xlink:href="#DejaVuSans-48"/>
       <use x="254.492188" xlink:href="#DejaVuSans-48"/>
       <use x="318.115234" xlink:href="#DejaVuSans-48"/>
      </g>
     </g>
    </g>
    <g id="xtick_6">
     <g id="line2d_11">
      <g>
       <use style="fill:#ffffff;stroke:#000000;stroke-width:2;" x="390.28219" xlink:href="#m15d4d2fd30" y="234.5525"/>
      </g>
     </g>
     <g id="line2d_12">
      <g>
       <use style="fill:#ffffff;stroke:#000000;stroke-width:2;" x="390.28219" xlink:href="#m27ab045a1b" y="7.2"/>
      </g>
     </g>
     <g id="text_6">
      <!-- 250000 -->
      <g transform="translate(367.37719 247.170625)scale(0.12 -0.12)">
       <use xlink:href="#DejaVuSans-50"/>
       <use x="63.623047" xlink:href="#DejaVuSans-53"/>
       <use x="127.246094" xlink:href="#DejaVuSans-48"/>
       <use x="190.869141" xlink:href="#DejaVuSans-48"/>
       <use x="254.492188" xlink:href="#DejaVuSans-48"/>
       <use x="318.115234" xlink:href="#DejaVuSans-48"/>
      </g>
     </g>
    </g>
    <g id="text_7">
     <!-- volume -->
     <g transform="translate(199.300171 266.784375)scale(0.12 -0.12)">
      <defs>
       <path d="M 2.984375 54.6875 
L 12.5 54.6875 
L 29.59375 8.796875 
L 46.6875 54.6875 
L 56.203125 54.6875 
L 35.6875 0 
L 23.484375 0 
z
" id="DejaVuSans-118"/>
       <path d="M 30.609375 48.390625 
Q 23.390625 48.390625 19.1875 42.75 
Q 14.984375 37.109375 14.984375 27.296875 
Q 14.984375 17.484375 19.15625 11.84375 
Q 23.34375 6.203125 30.609375 6.203125 
Q 37.796875 6.203125 41.984375 11.859375 
Q 46.1875 17.53125 46.1875 27.296875 
Q 46.1875 37.015625 41.984375 42.703125 
Q 37.796875 48.390625 30.609375 48.390625 
z
M 30.609375 56 
Q 42.328125 56 49.015625 48.375 
Q 55.71875 40.765625 55.71875 27.296875 
Q 55.71875 13.875 49.015625 6.21875 
Q 42.328125 -1.421875 30.609375 -1.421875 
Q 18.84375 -1.421875 12.171875 6.21875 
Q 5.515625 13.875 5.515625 27.296875 
Q 5.515625 40.765625 12.171875 48.375 
Q 18.84375 56 30.609375 56 
z
" id="DejaVuSans-111"/>
       <path d="M 9.421875 75.984375 
L 18.40625 75.984375 
L 18.40625 0 
L 9.421875 0 
z
" id="DejaVuSans-108"/>
       <path d="M 8.5 21.578125 
L 8.5 54.6875 
L 17.484375 54.6875 
L 17.484375 21.921875 
Q 17.484375 14.15625 20.5 10.265625 
Q 23.53125 6.390625 29.59375 6.390625 
Q 36.859375 6.390625 41.078125 11.03125 
Q 45.3125 15.671875 45.3125 23.6875 
L 45.3125 54.6875 
L 54.296875 54.6875 
L 54.296875 0 
L 45.3125 0 
L 45.3125 8.40625 
Q 42.046875 3.421875 37.71875 1 
Q 33.40625 -1.421875 27.6875 -1.421875 
Q 18.265625 -1.421875 13.375 4.4375 
Q 8.5 10.296875 8.5 21.578125 
z
M 31.109375 56 
z
" id="DejaVuSans-117"/>
       <path d="M 52 44.1875 
Q 55.375 50.25 60.0625 53.125 
Q 64.75 56 71.09375 56 
Q 79.640625 56 84.28125 50.015625 
Q 88.921875 44.046875 88.921875 33.015625 
L 88.921875 0 
L 79.890625 0 
L 79.890625 32.71875 
Q 79.890625 40.578125 77.09375 44.375 
Q 74.3125 48.1875 68.609375 48.1875 
Q 61.625 48.1875 57.5625 43.546875 
Q 53.515625 38.921875 53.515625 30.90625 
L 53.515625 0 
L 44.484375 0 
L 44.484375 32.71875 
Q 44.484375 40.625 41.703125 44.40625 
Q 38.921875 48.1875 33.109375 48.1875 
Q 26.21875 48.1875 22.15625 43.53125 
Q 18.109375 38.875 18.109375 30.90625 
L 18.109375 0 
L 9.078125 0 
L 9.078125 54.6875 
L 18.109375 54.6875 
L 18.109375 46.1875 
Q 21.1875 51.21875 25.484375 53.609375 
Q 29.78125 56 35.6875 56 
Q 41.65625 56 45.828125 52.96875 
Q 50 49.953125 52 44.1875 
z
" id="DejaVuSans-109"/>
       <path d="M 56.203125 29.59375 
L 56.203125 25.203125 
L 14.890625 25.203125 
Q 15.484375 15.921875 20.484375 11.0625 
Q 25.484375 6.203125 34.421875 6.203125 
Q 39.59375 6.203125 44.453125 7.46875 
Q 49.3125 8.734375 54.109375 11.28125 
L 54.109375 2.78125 
Q 49.265625 0.734375 44.1875 -0.34375 
Q 39.109375 -1.421875 33.890625 -1.421875 
Q 20.796875 -1.421875 13.15625 6.1875 
Q 5.515625 13.8125 5.515625 26.8125 
Q 5.515625 40.234375 12.765625 48.109375 
Q 20.015625 56 32.328125 56 
Q 43.359375 56 49.78125 48.890625 
Q 56.203125 41.796875 56.203125 29.59375 
z
M 47.21875 32.234375 
Q 47.125 39.59375 43.09375 43.984375 
Q 39.0625 48.390625 32.421875 48.390625 
Q 24.90625 48.390625 20.390625 44.140625 
Q 15.875 39.890625 15.1875 32.171875 
z
" id="DejaVuSans-101"/>
      </defs>
      <use xlink:href="#DejaVuSans-118"/>
      <use x="59.179688" xlink:href="#DejaVuSans-111"/>
      <use x="120.361328" xlink:href="#DejaVuSans-108"/>
      <use x="148.144531" xlink:href="#DejaVuSans-117"/>
      <use x="211.523438" xlink:href="#DejaVuSans-109"/>
      <use x="308.935547" xlink:href="#DejaVuSans-101"/>
     </g>
    </g>
   </g>
   <g id="matplotlib.axis_2">
    <g id="ytick_1">
     <g id="line2d_13">
      <defs>
       <path d="M 0 0 
L 6 0 
" id="mfdc666775b" style="stroke:#000000;stroke-width:2;"/>
      </defs>
      <g>
       <use style="fill:#ffffff;stroke:#000000;stroke-width:2;" x="49.3975" xlink:href="#mfdc666775b" y="205.878416"/>
      </g>
     </g>
     <g id="line2d_14">
      <defs>
       <path d="M 0 0 
L -6 0 
" id="m49072fba73" style="stroke:#000000;stroke-width:2;"/>
      </defs>
      <g>
       <use style="fill:#ffffff;stroke:#000000;stroke-width:2;" x="393.659093" xlink:href="#m49072fba73" y="205.878416"/>
      </g>
     </g>
     <g id="text_8">
      <!-- 0.3 -->
      <g transform="translate(26.81375 210.437478)scale(0.12 -0.12)">
       <defs>
        <path d="M 10.6875 12.40625 
L 21 12.40625 
L 21 0 
L 10.6875 0 
z
" id="DejaVuSans-46"/>
        <path d="M 40.578125 39.3125 
Q 47.65625 37.796875 51.625 33 
Q 55.609375 28.21875 55.609375 21.1875 
Q 55.609375 10.40625 48.1875 4.484375 
Q 40.765625 -1.421875 27.09375 -1.421875 
Q 22.515625 -1.421875 17.65625 -0.515625 
Q 12.796875 0.390625 7.625 2.203125 
L 7.625 11.71875 
Q 11.71875 9.328125 16.59375 8.109375 
Q 21.484375 6.890625 26.8125 6.890625 
Q 36.078125 6.890625 40.9375 10.546875 
Q 45.796875 14.203125 45.796875 21.1875 
Q 45.796875 27.640625 41.28125 31.265625 
Q 36.765625 34.90625 28.71875 34.90625 
L 20.21875 34.90625 
L 20.21875 43.015625 
L 29.109375 43.015625 
Q 36.375 43.015625 40.234375 45.921875 
Q 44.09375 48.828125 44.09375 54.296875 
Q 44.09375 59.90625 40.109375 62.90625 
Q 36.140625 65.921875 28.71875 65.921875 
Q 24.65625 65.921875 20.015625 65.03125 
Q 15.375 64.15625 9.8125 62.3125 
L 9.8125 71.09375 
Q 15.4375 72.65625 20.34375 73.4375 
Q 25.25 74.21875 29.59375 74.21875 
Q 40.828125 74.21875 47.359375 69.109375 
Q 53.90625 64.015625 53.90625 55.328125 
Q 53.90625 49.265625 50.4375 45.09375 
Q 46.96875 40.921875 40.578125 39.3125 
z
" id="DejaVuSans-51"/>
       </defs>
       <use xlink:href="#DejaVuSans-48"/>
       <use x="63.623047" xlink:href="#DejaVuSans-46"/>
       <use x="95.410156" xlink:href="#DejaVuSans-51"/>
      </g>
     </g>
    </g>
    <g id="ytick_2">
     <g id="line2d_15">
      <g>
       <use style="fill:#ffffff;stroke:#000000;stroke-width:2;" x="49.3975" xlink:href="#mfdc666775b" y="171.772746"/>
      </g>
     </g>
     <g id="line2d_16">
      <g>
       <use style="fill:#ffffff;stroke:#000000;stroke-width:2;" x="393.659093" xlink:href="#m49072fba73" y="171.772746"/>
      </g>
     </g>
     <g id="text_9">
      <!-- 0.4 -->
      <g transform="translate(26.81375 176.331809)scale(0.12 -0.12)">
       <defs>
        <path d="M 37.796875 64.3125 
L 12.890625 25.390625 
L 37.796875 25.390625 
z
M 35.203125 72.90625 
L 47.609375 72.90625 
L 47.609375 25.390625 
L 58.015625 25.390625 
L 58.015625 17.1875 
L 47.609375 17.1875 
L 47.609375 0 
L 37.796875 0 
L 37.796875 17.1875 
L 4.890625 17.1875 
L 4.890625 26.703125 
z
" id="DejaVuSans-52"/>
       </defs>
       <use xlink:href="#DejaVuSans-48"/>
       <use x="63.623047" xlink:href="#DejaVuSans-46"/>
       <use x="95.410156" xlink:href="#DejaVuSans-52"/>
      </g>
     </g>
    </g>
    <g id="ytick_3">
     <g id="line2d_17">
      <g>
       <use style="fill:#ffffff;stroke:#000000;stroke-width:2;" x="49.3975" xlink:href="#mfdc666775b" y="137.667077"/>
      </g>
     </g>
     <g id="line2d_18">
      <g>
       <use style="fill:#ffffff;stroke:#000000;stroke-width:2;" x="393.659093" xlink:href="#m49072fba73" y="137.667077"/>
      </g>
     </g>
     <g id="text_10">
      <!-- 0.5 -->
      <g transform="translate(26.81375 142.22614)scale(0.12 -0.12)">
       <use xlink:href="#DejaVuSans-48"/>
       <use x="63.623047" xlink:href="#DejaVuSans-46"/>
       <use x="95.410156" xlink:href="#DejaVuSans-53"/>
      </g>
     </g>
    </g>
    <g id="ytick_4">
     <g id="line2d_19">
      <g>
       <use style="fill:#ffffff;stroke:#000000;stroke-width:2;" x="49.3975" xlink:href="#mfdc666775b" y="103.561408"/>
      </g>
     </g>
     <g id="line2d_20">
      <g>
       <use style="fill:#ffffff;stroke:#000000;stroke-width:2;" x="393.659093" xlink:href="#m49072fba73" y="103.561408"/>
      </g>
     </g>
     <g id="text_11">
      <!-- 0.6 -->
      <g transform="translate(26.81375 108.12047)scale(0.12 -0.12)">
       <defs>
        <path d="M 33.015625 40.375 
Q 26.375 40.375 22.484375 35.828125 
Q 18.609375 31.296875 18.609375 23.390625 
Q 18.609375 15.53125 22.484375 10.953125 
Q 26.375 6.390625 33.015625 6.390625 
Q 39.65625 6.390625 43.53125 10.953125 
Q 47.40625 15.53125 47.40625 23.390625 
Q 47.40625 31.296875 43.53125 35.828125 
Q 39.65625 40.375 33.015625 40.375 
z
M 52.59375 71.296875 
L 52.59375 62.3125 
Q 48.875 64.0625 45.09375 64.984375 
Q 41.3125 65.921875 37.59375 65.921875 
Q 27.828125 65.921875 22.671875 59.328125 
Q 17.53125 52.734375 16.796875 39.40625 
Q 19.671875 43.65625 24.015625 45.921875 
Q 28.375 48.1875 33.59375 48.1875 
Q 44.578125 48.1875 50.953125 41.515625 
Q 57.328125 34.859375 57.328125 23.390625 
Q 57.328125 12.15625 50.6875 5.359375 
Q 44.046875 -1.421875 33.015625 -1.421875 
Q 20.359375 -1.421875 13.671875 8.265625 
Q 6.984375 17.96875 6.984375 36.375 
Q 6.984375 53.65625 15.1875 63.9375 
Q 23.390625 74.21875 37.203125 74.21875 
Q 40.921875 74.21875 44.703125 73.484375 
Q 48.484375 72.75 52.59375 71.296875 
z
" id="DejaVuSans-54"/>
       </defs>
       <use xlink:href="#DejaVuSans-48"/>
       <use x="63.623047" xlink:href="#DejaVuSans-46"/>
       <use x="95.410156" xlink:href="#DejaVuSans-54"/>
      </g>
     </g>
    </g>
    <g id="ytick_5">
     <g id="line2d_21">
      <g>
       <use style="fill:#ffffff;stroke:#000000;stroke-width:2;" x="49.3975" xlink:href="#mfdc666775b" y="69.455739"/>
      </g>
     </g>
     <g id="line2d_22">
      <g>
       <use style="fill:#ffffff;stroke:#000000;stroke-width:2;" x="393.659093" xlink:href="#m49072fba73" y="69.455739"/>
      </g>
     </g>
     <g id="text_12">
      <!-- 0.7 -->
      <g transform="translate(26.81375 74.014801)scale(0.12 -0.12)">
       <defs>
        <path d="M 8.203125 72.90625 
L 55.078125 72.90625 
L 55.078125 68.703125 
L 28.609375 0 
L 18.3125 0 
L 43.21875 64.59375 
L 8.203125 64.59375 
z
" id="DejaVuSans-55"/>
       </defs>
       <use xlink:href="#DejaVuSans-48"/>
       <use x="63.623047" xlink:href="#DejaVuSans-46"/>
       <use x="95.410156" xlink:href="#DejaVuSans-55"/>
      </g>
     </g>
    </g>
    <g id="ytick_6">
     <g id="line2d_23">
      <g>
       <use style="fill:#ffffff;stroke:#000000;stroke-width:2;" x="49.3975" xlink:href="#mfdc666775b" y="35.350069"/>
      </g>
     </g>
     <g id="line2d_24">
      <g>
       <use style="fill:#ffffff;stroke:#000000;stroke-width:2;" x="393.659093" xlink:href="#m49072fba73" y="35.350069"/>
      </g>
     </g>
     <g id="text_13">
      <!-- 0.8 -->
      <g transform="translate(26.81375 39.909132)scale(0.12 -0.12)">
       <defs>
        <path d="M 31.78125 34.625 
Q 24.75 34.625 20.71875 30.859375 
Q 16.703125 27.09375 16.703125 20.515625 
Q 16.703125 13.921875 20.71875 10.15625 
Q 24.75 6.390625 31.78125 6.390625 
Q 38.8125 6.390625 42.859375 10.171875 
Q 46.921875 13.96875 46.921875 20.515625 
Q 46.921875 27.09375 42.890625 30.859375 
Q 38.875 34.625 31.78125 34.625 
z
M 21.921875 38.8125 
Q 15.578125 40.375 12.03125 44.71875 
Q 8.5 49.078125 8.5 55.328125 
Q 8.5 64.0625 14.71875 69.140625 
Q 20.953125 74.21875 31.78125 74.21875 
Q 42.671875 74.21875 48.875 69.140625 
Q 55.078125 64.0625 55.078125 55.328125 
Q 55.078125 49.078125 51.53125 44.71875 
Q 48 40.375 41.703125 38.8125 
Q 48.828125 37.15625 52.796875 32.3125 
Q 56.78125 27.484375 56.78125 20.515625 
Q 56.78125 9.90625 50.3125 4.234375 
Q 43.84375 -1.421875 31.78125 -1.421875 
Q 19.734375 -1.421875 13.25 4.234375 
Q 6.78125 9.90625 6.78125 20.515625 
Q 6.78125 27.484375 10.78125 32.3125 
Q 14.796875 37.15625 21.921875 38.8125 
z
M 18.3125 54.390625 
Q 18.3125 48.734375 21.84375 45.5625 
Q 25.390625 42.390625 31.78125 42.390625 
Q 38.140625 42.390625 41.71875 45.5625 
Q 45.3125 48.734375 45.3125 54.390625 
Q 45.3125 60.0625 41.71875 63.234375 
Q 38.140625 66.40625 31.78125 66.40625 
Q 25.390625 66.40625 21.84375 63.234375 
Q 18.3125 60.0625 18.3125 54.390625 
z
" id="DejaVuSans-56"/>
       </defs>
       <use xlink:href="#DejaVuSans-48"/>
       <use x="63.623047" xlink:href="#DejaVuSans-46"/>
       <use x="95.410156" xlink:href="#DejaVuSans-56"/>
      </g>
     </g>
    </g>
    <g id="text_14">
     <!-- porosity -->
     <g transform="translate(16.318125 145.055312)rotate(-90)scale(0.12 -0.12)">
      <defs>
       <path d="M 18.109375 8.203125 
L 18.109375 -20.796875 
L 9.078125 -20.796875 
L 9.078125 54.6875 
L 18.109375 54.6875 
L 18.109375 46.390625 
Q 20.953125 51.265625 25.265625 53.625 
Q 29.59375 56 35.59375 56 
Q 45.5625 56 51.78125 48.09375 
Q 58.015625 40.1875 58.015625 27.296875 
Q 58.015625 14.40625 51.78125 6.484375 
Q 45.5625 -1.421875 35.59375 -1.421875 
Q 29.59375 -1.421875 25.265625 0.953125 
Q 20.953125 3.328125 18.109375 8.203125 
z
M 48.6875 27.296875 
Q 48.6875 37.203125 44.609375 42.84375 
Q 40.53125 48.484375 33.40625 48.484375 
Q 26.265625 48.484375 22.1875 42.84375 
Q 18.109375 37.203125 18.109375 27.296875 
Q 18.109375 17.390625 22.1875 11.75 
Q 26.265625 6.109375 33.40625 6.109375 
Q 40.53125 6.109375 44.609375 11.75 
Q 48.6875 17.390625 48.6875 27.296875 
z
" id="DejaVuSans-112"/>
       <path d="M 41.109375 46.296875 
Q 39.59375 47.171875 37.8125 47.578125 
Q 36.03125 48 33.890625 48 
Q 26.265625 48 22.1875 43.046875 
Q 18.109375 38.09375 18.109375 28.8125 
L 18.109375 0 
L 9.078125 0 
L 9.078125 54.6875 
L 18.109375 54.6875 
L 18.109375 46.1875 
Q 20.953125 51.171875 25.484375 53.578125 
Q 30.03125 56 36.53125 56 
Q 37.453125 56 38.578125 55.875 
Q 39.703125 55.765625 41.0625 55.515625 
z
" id="DejaVuSans-114"/>
       <path d="M 44.28125 53.078125 
L 44.28125 44.578125 
Q 40.484375 46.53125 36.375 47.5 
Q 32.28125 48.484375 27.875 48.484375 
Q 21.1875 48.484375 17.84375 46.4375 
Q 14.5 44.390625 14.5 40.28125 
Q 14.5 37.15625 16.890625 35.375 
Q 19.28125 33.59375 26.515625 31.984375 
L 29.59375 31.296875 
Q 39.15625 29.25 43.1875 25.515625 
Q 47.21875 21.78125 47.21875 15.09375 
Q 47.21875 7.46875 41.1875 3.015625 
Q 35.15625 -1.421875 24.609375 -1.421875 
Q 20.21875 -1.421875 15.453125 -0.5625 
Q 10.6875 0.296875 5.421875 2 
L 5.421875 11.28125 
Q 10.40625 8.6875 15.234375 7.390625 
Q 20.0625 6.109375 24.8125 6.109375 
Q 31.15625 6.109375 34.5625 8.28125 
Q 37.984375 10.453125 37.984375 14.40625 
Q 37.984375 18.0625 35.515625 20.015625 
Q 33.0625 21.96875 24.703125 23.78125 
L 21.578125 24.515625 
Q 13.234375 26.265625 9.515625 29.90625 
Q 5.8125 33.546875 5.8125 39.890625 
Q 5.8125 47.609375 11.28125 51.796875 
Q 16.75 56 26.8125 56 
Q 31.78125 56 36.171875 55.265625 
Q 40.578125 54.546875 44.28125 53.078125 
z
" id="DejaVuSans-115"/>
       <path d="M 9.421875 54.6875 
L 18.40625 54.6875 
L 18.40625 0 
L 9.421875 0 
z
M 9.421875 75.984375 
L 18.40625 75.984375 
L 18.40625 64.59375 
L 9.421875 64.59375 
z
" id="DejaVuSans-105"/>
       <path d="M 18.3125 70.21875 
L 18.3125 54.6875 
L 36.8125 54.6875 
L 36.8125 47.703125 
L 18.3125 47.703125 
L 18.3125 18.015625 
Q 18.3125 11.328125 20.140625 9.421875 
Q 21.96875 7.515625 27.59375 7.515625 
L 36.8125 7.515625 
L 36.8125 0 
L 27.59375 0 
Q 17.1875 0 13.234375 3.875 
Q 9.28125 7.765625 9.28125 18.015625 
L 9.28125 47.703125 
L 2.6875 47.703125 
L 2.6875 54.6875 
L 9.28125 54.6875 
L 9.28125 70.21875 
z
" id="DejaVuSans-116"/>
       <path d="M 32.171875 -5.078125 
Q 28.375 -14.84375 24.75 -17.8125 
Q 21.140625 -20.796875 15.09375 -20.796875 
L 7.90625 -20.796875 
L 7.90625 -13.28125 
L 13.1875 -13.28125 
Q 16.890625 -13.28125 18.9375 -11.515625 
Q 21 -9.765625 23.484375 -3.21875 
L 25.09375 0.875 
L 2.984375 54.6875 
L 12.5 54.6875 
L 29.59375 11.921875 
L 46.6875 54.6875 
L 56.203125 54.6875 
z
" id="DejaVuSans-121"/>
      </defs>
      <use xlink:href="#DejaVuSans-112"/>
      <use x="63.476562" xlink:href="#DejaVuSans-111"/>
      <use x="124.658203" xlink:href="#DejaVuSans-114"/>
      <use x="163.521484" xlink:href="#DejaVuSans-111"/>
      <use x="224.703125" xlink:href="#DejaVuSans-115"/>
      <use x="276.802734" xlink:href="#DejaVuSans-105"/>
      <use x="304.585938" xlink:href="#DejaVuSans-116"/>
      <use x="343.794922" xlink:href="#DejaVuSans-121"/>
     </g>
    </g>
   </g>
   <g id="line2d_25">
    <defs>
     <path d="M 0 2 
C 0.530406 2 1.03916 1.789267 1.414214 1.414214 
C 1.789267 1.03916 2 0.530406 2 0 
C 2 -0.530406 1.789267 -1.03916 1.414214 -1.414214 
C 1.03916 -1.789267 0.530406 -2 0 -2 
C -0.530406 -2 -1.03916 -1.789267 -1.414214 -1.414214 
C -1.789267 -1.03916 -2 -0.530406 -2 0 
C -2 0.530406 -1.789267 1.03916 -1.414214 1.414214 
C -1.03916 1.789267 -0.530406 2 0 2 
z
" id="m6f4d4d9882" style="stroke:#ff0000;"/>
    </defs>
    <g clip-path="url(#pd9b5c9d99e)">
     <use style="fill:#ffffff;stroke:#ff0000;" x="96.244128" xlink:href="#m6f4d4d9882" y="123.45405"/>
     <use style="fill:#ffffff;stroke:#ff0000;" x="84.5045" xlink:href="#m6f4d4d9882" y="128.592644"/>
     <use style="fill:#ffffff;stroke:#ff0000;" x="119.056123" xlink:href="#m6f4d4d9882" y="128.595901"/>
     <use style="fill:#ffffff;stroke:#ff0000;" x="84.733871" xlink:href="#m6f4d4d9882" y="134.815432"/>
     <use style="fill:#ffffff;stroke:#ff0000;" x="87.769128" xlink:href="#m6f4d4d9882" y="120.52553"/>
     <use style="fill:#ffffff;stroke:#ff0000;" x="68.44592" xlink:href="#m6f4d4d9882" y="67.219301"/>
     <use style="fill:#ffffff;stroke:#ff0000;" x="68.131838" xlink:href="#m6f4d4d9882" y="220.776122"/>
     <use style="fill:#ffffff;stroke:#ff0000;" x="125.56583" xlink:href="#m6f4d4d9882" y="129.937118"/>
     <use style="fill:#ffffff;stroke:#ff0000;" x="114.503889" xlink:href="#m6f4d4d9882" y="101.807752"/>
     <use style="fill:#ffffff;stroke:#ff0000;" x="66.255165" xlink:href="#m6f4d4d9882" y="201.568495"/>
     <use style="fill:#ffffff;stroke:#ff0000;" x="159.657407" xlink:href="#m6f4d4d9882" y="133.926744"/>
     <use style="fill:#ffffff;stroke:#ff0000;" x="122.582703" xlink:href="#m6f4d4d9882" y="123.073308"/>
     <use style="fill:#ffffff;stroke:#ff0000;" x="188.640265" xlink:href="#m6f4d4d9882" y="118.947386"/>
     <use style="fill:#ffffff;stroke:#ff0000;" x="120.994048" xlink:href="#m6f4d4d9882" y="159.154647"/>
     <use style="fill:#ffffff;stroke:#ff0000;" x="212.669491" xlink:href="#m6f4d4d9882" y="137.512617"/>
     <use style="fill:#ffffff;stroke:#ff0000;" x="124.899872" xlink:href="#m6f4d4d9882" y="122.75026"/>
     <use style="fill:#ffffff;stroke:#ff0000;" x="73.021612" xlink:href="#m6f4d4d9882" y="222.996228"/>
     <use style="fill:#ffffff;stroke:#ff0000;" x="125.651844" xlink:href="#m6f4d4d9882" y="133.348018"/>
     <use style="fill:#ffffff;stroke:#ff0000;" x="105.300375" xlink:href="#m6f4d4d9882" y="97.730709"/>
     <use style="fill:#ffffff;stroke:#ff0000;" x="73.449076" xlink:href="#m6f4d4d9882" y="96.947215"/>
     <use style="fill:#ffffff;stroke:#ff0000;" x="120.52097" xlink:href="#m6f4d4d9882" y="118.611105"/>
     <use style="fill:#ffffff;stroke:#ff0000;" x="153.800626" xlink:href="#m6f4d4d9882" y="133.557121"/>
     <use style="fill:#ffffff;stroke:#ff0000;" x="84.073126" xlink:href="#m6f4d4d9882" y="135.819054"/>
     <use style="fill:#ffffff;stroke:#ff0000;" x="160.496697" xlink:href="#m6f4d4d9882" y="133.862232"/>
     <use style="fill:#ffffff;stroke:#ff0000;" x="75.263192" xlink:href="#m6f4d4d9882" y="99.797058"/>
     <use style="fill:#ffffff;stroke:#ff0000;" x="172.176376" xlink:href="#m6f4d4d9882" y="134.666881"/>
     <use style="fill:#ffffff;stroke:#ff0000;" x="136.44271" xlink:href="#m6f4d4d9882" y="142.950445"/>
     <use style="fill:#ffffff;stroke:#ff0000;" x="214.194287" xlink:href="#m6f4d4d9882" y="119.434935"/>
     <use style="fill:#ffffff;stroke:#ff0000;" x="201.938574" xlink:href="#m6f4d4d9882" y="143.71182"/>
     <use style="fill:#ffffff;stroke:#ff0000;" x="83.551828" xlink:href="#m6f4d4d9882" y="118.08794"/>
     <use style="fill:#ffffff;stroke:#ff0000;" x="112.014692" xlink:href="#m6f4d4d9882" y="123.657772"/>
     <use style="fill:#ffffff;stroke:#ff0000;" x="205.080697" xlink:href="#m6f4d4d9882" y="141.567866"/>
     <use style="fill:#ffffff;stroke:#ff0000;" x="223.16061" xlink:href="#m6f4d4d9882" y="143.766128"/>
     <use style="fill:#ffffff;stroke:#ff0000;" x="71.416014" xlink:href="#m6f4d4d9882" y="171.747146"/>
     <use style="fill:#ffffff;stroke:#ff0000;" x="128.122796" xlink:href="#m6f4d4d9882" y="134.584083"/>
     <use style="fill:#ffffff;stroke:#ff0000;" x="65.045754" xlink:href="#m6f4d4d9882" y="76.957439"/>
     <use style="fill:#ffffff;stroke:#ff0000;" x="65.723441" xlink:href="#m6f4d4d9882" y="17.534205"/>
     <use style="fill:#ffffff;stroke:#ff0000;" x="223.207527" xlink:href="#m6f4d4d9882" y="124.110325"/>
     <use style="fill:#ffffff;stroke:#ff0000;" x="219.58972" xlink:href="#m6f4d4d9882" y="134.155504"/>
     <use style="fill:#ffffff;stroke:#ff0000;" x="112.014692" xlink:href="#m6f4d4d9882" y="130.501156"/>
     <use style="fill:#ffffff;stroke:#ff0000;" x="154.073004" xlink:href="#m6f4d4d9882" y="127.788026"/>
     <use style="fill:#ffffff;stroke:#ff0000;" x="198.382019" xlink:href="#m6f4d4d9882" y="131.649328"/>
     <use style="fill:#ffffff;stroke:#ff0000;" x="158.699522" xlink:href="#m6f4d4d9882" y="143.881787"/>
     <use style="fill:#ffffff;stroke:#ff0000;" x="79.954873" xlink:href="#m6f4d4d9882" y="105.817704"/>
     <use style="fill:#ffffff;stroke:#ff0000;" x="96.594701" xlink:href="#m6f4d4d9882" y="91.709034"/>
     <use style="fill:#ffffff;stroke:#ff0000;" x="70.675771" xlink:href="#m6f4d4d9882" y="170.941774"/>
     <use style="fill:#ffffff;stroke:#ff0000;" x="210.912717" xlink:href="#m6f4d4d9882" y="147.891159"/>
     <use style="fill:#ffffff;stroke:#ff0000;" x="98.252428" xlink:href="#m6f4d4d9882" y="148.554945"/>
     <use style="fill:#ffffff;stroke:#ff0000;" x="260.746186" xlink:href="#m6f4d4d9882" y="145.834276"/>
     <use style="fill:#ffffff;stroke:#ff0000;" x="218.612286" xlink:href="#m6f4d4d9882" y="153.029407"/>
     <use style="fill:#ffffff;stroke:#ff0000;" x="219.54541" xlink:href="#m6f4d4d9882" y="138.880929"/>
     <use style="fill:#ffffff;stroke:#ff0000;" x="378.010838" xlink:href="#m6f4d4d9882" y="145.003261"/>
     <use style="fill:#ffffff;stroke:#ff0000;" x="96.537358" xlink:href="#m6f4d4d9882" y="190.125076"/>
     <use style="fill:#ffffff;stroke:#ff0000;" x="79.391872" xlink:href="#m6f4d4d9882" y="81.171836"/>
     <use style="fill:#ffffff;stroke:#ff0000;" x="87.524118" xlink:href="#m6f4d4d9882" y="101.062626"/>
     <use style="fill:#ffffff;stroke:#ff0000;" x="181.274327" xlink:href="#m6f4d4d9882" y="136.65675"/>
     <use style="fill:#ffffff;stroke:#ff0000;" x="137.672973" xlink:href="#m6f4d4d9882" y="128.70788"/>
     <use style="fill:#ffffff;stroke:#ff0000;" x="195.740342" xlink:href="#m6f4d4d9882" y="139.561554"/>
     <use style="fill:#ffffff;stroke:#ff0000;" x="293.267354" xlink:href="#m6f4d4d9882" y="142.62385"/>
     <use style="fill:#ffffff;stroke:#ff0000;" x="70.321289" xlink:href="#m6f4d4d9882" y="131.171121"/>
     <use style="fill:#ffffff;stroke:#ff0000;" x="122.492779" xlink:href="#m6f4d4d9882" y="162.138801"/>
     <use style="fill:#ffffff;stroke:#ff0000;" x="134.646839" xlink:href="#m6f4d4d9882" y="167.337812"/>
     <use style="fill:#ffffff;stroke:#ff0000;" x="161.805155" xlink:href="#m6f4d4d9882" y="131.620977"/>
     <use style="fill:#ffffff;stroke:#ff0000;" x="229.172478" xlink:href="#m6f4d4d9882" y="141.963412"/>
     <use style="fill:#ffffff;stroke:#ff0000;" x="69.320397" xlink:href="#m6f4d4d9882" y="223.687423"/>
     <use style="fill:#ffffff;stroke:#ff0000;" x="92.632837" xlink:href="#m6f4d4d9882" y="142.567725"/>
     <use style="fill:#ffffff;stroke:#ff0000;" x="140.782515" xlink:href="#m6f4d4d9882" y="140.634687"/>
     <use style="fill:#ffffff;stroke:#ff0000;" x="298.103695" xlink:href="#m6f4d4d9882" y="148.729969"/>
     <use style="fill:#ffffff;stroke:#ff0000;" x="149.214508" xlink:href="#m6f4d4d9882" y="163.606268"/>
     <use style="fill:#ffffff;stroke:#ff0000;" x="73.886966" xlink:href="#m6f4d4d9882" y="73.963824"/>
     <use style="fill:#ffffff;stroke:#ff0000;" x="226.855309" xlink:href="#m6f4d4d9882" y="156.931579"/>
     <use style="fill:#ffffff;stroke:#ff0000;" x="161.685256" xlink:href="#m6f4d4d9882" y="135.266686"/>
     <use style="fill:#ffffff;stroke:#ff0000;" x="97.276298" xlink:href="#m6f4d4d9882" y="174.845671"/>
     <use style="fill:#ffffff;stroke:#ff0000;" x="268.701192" xlink:href="#m6f4d4d9882" y="153.335849"/>
     <use style="fill:#ffffff;stroke:#ff0000;" x="234.062252" xlink:href="#m6f4d4d9882" y="145.642452"/>
     <use style="fill:#ffffff;stroke:#ff0000;" x="115.048646" xlink:href="#m6f4d4d9882" y="179.9773"/>
     <use style="fill:#ffffff;stroke:#ff0000;" x="180.667015" xlink:href="#m6f4d4d9882" y="133.889629"/>
     <use style="fill:#ffffff;stroke:#ff0000;" x="212.024385" xlink:href="#m6f4d4d9882" y="158.105777"/>
     <use style="fill:#ffffff;stroke:#ff0000;" x="144.896858" xlink:href="#m6f4d4d9882" y="165.316588"/>
     <use style="fill:#ffffff;stroke:#ff0000;" x="133.967848" xlink:href="#m6f4d4d9882" y="137.667077"/>
     <use style="fill:#ffffff;stroke:#ff0000;" x="196.823339" xlink:href="#m6f4d4d9882" y="145.481868"/>
     <use style="fill:#ffffff;stroke:#ff0000;" x="134.324937" xlink:href="#m6f4d4d9882" y="166.892327"/>
     <use style="fill:#ffffff;stroke:#ff0000;" x="101.646077" xlink:href="#m6f4d4d9882" y="198.83011"/>
     <use style="fill:#ffffff;stroke:#ff0000;" x="91.871742" xlink:href="#m6f4d4d9882" y="145.78593"/>
     <use style="fill:#ffffff;stroke:#ff0000;" x="158.291607" xlink:href="#m6f4d4d9882" y="158.166484"/>
     <use style="fill:#ffffff;stroke:#ff0000;" x="75.263192" xlink:href="#m6f4d4d9882" y="224.218295"/>
     <use style="fill:#ffffff;stroke:#ff0000;" x="80.886693" xlink:href="#m6f4d4d9882" y="185.782173"/>
     <use style="fill:#ffffff;stroke:#ff0000;" x="76.480423" xlink:href="#m6f4d4d9882" y="105.115871"/>
     <use style="fill:#ffffff;stroke:#ff0000;" x="223.167126" xlink:href="#m6f4d4d9882" y="152.976397"/>
     <use style="fill:#ffffff;stroke:#ff0000;" x="97.508276" xlink:href="#m6f4d4d9882" y="149.587244"/>
     <use style="fill:#ffffff;stroke:#ff0000;" x="189.985214" xlink:href="#m6f4d4d9882" y="145.44903"/>
     <use style="fill:#ffffff;stroke:#ff0000;" x="137.826756" xlink:href="#m6f4d4d9882" y="166.027371"/>
     <use style="fill:#ffffff;stroke:#ff0000;" x="79.451821" xlink:href="#m6f4d4d9882" y="162.040985"/>
     <use style="fill:#ffffff;stroke:#ff0000;" x="153.873607" xlink:href="#m6f4d4d9882" y="154.978439"/>
     <use style="fill:#ffffff;stroke:#ff0000;" x="188.683273" xlink:href="#m6f4d4d9882" y="159.366456"/>
     <use style="fill:#ffffff;stroke:#ff0000;" x="66.453258" xlink:href="#m6f4d4d9882" y="101.005164"/>
     <use style="fill:#ffffff;stroke:#ff0000;" x="145.676199" xlink:href="#m6f4d4d9882" y="159.698102"/>
     <use style="fill:#ffffff;stroke:#ff0000;" x="201.208757" xlink:href="#m6f4d4d9882" y="151.672307"/>
     <use style="fill:#ffffff;stroke:#ff0000;" x="98.019148" xlink:href="#m6f4d4d9882" y="154.599345"/>
     <use style="fill:#ffffff;stroke:#ff0000;" x="108.596281" xlink:href="#m6f4d4d9882" y="163.383827"/>
    </g>
   </g>
   <g id="patch_3">
    <path d="M 49.3975 234.5525 
L 49.3975 7.2 
" style="fill:none;stroke:#000000;stroke-linecap:square;stroke-linejoin:miter;stroke-width:2;"/>
   </g>
   <g id="patch_4">
    <path d="M 393.659093 234.5525 
L 393.659093 7.2 
" style="fill:none;stroke:#000000;stroke-linecap:square;stroke-linejoin:miter;stroke-width:2;"/>
   </g>
   <g id="patch_5">
    <path d="M 49.3975 234.5525 
L 393.659093 234.5525 
" style="fill:none;stroke:#000000;stroke-linecap:square;stroke-linejoin:miter;stroke-width:2;"/>
   </g>
   <g id="patch_6">
    <path d="M 49.3975 7.2 
L 393.659093 7.2 
" style="fill:none;stroke:#000000;stroke-linecap:square;stroke-linejoin:miter;stroke-width:2;"/>
   </g>
  </g>
 </g>
 <defs>
  <clipPath id="pd9b5c9d99e">
   <rect height="227.3525" width="344.261593" x="49.3975" y="7.2"/>
  </clipPath>
 </defs>
</svg>
