<?xml version="1.0" encoding="utf-8" standalone="no"?>
<!DOCTYPE svg PUBLIC "-//W3C//DTD SVG 1.1//EN"
  "http://www.w3.org/Graphics/SVG/1.1/DTD/svg11.dtd">
<svg xmlns:xlink="http://www.w3.org/1999/xlink" width="352.8pt" height="280.8pt" viewBox="0 0 352.8 280.8" xmlns="http://www.w3.org/2000/svg" version="1.1">
 <metadata>
  <rdf:RDF xmlns:dc="http://purl.org/dc/elements/1.1/" xmlns:cc="http://creativecommons.org/ns#" xmlns:rdf="http://www.w3.org/1999/02/22-rdf-syntax-ns#">
   <cc:Work>
    <dc:type rdf:resource="http://purl.org/dc/dcmitype/StillImage"/>
    <dc:date>2022-08-12T21:35:52.616027</dc:date>
    <dc:format>image/svg+xml</dc:format>
    <dc:creator>
     <cc:Agent>
      <dc:title>Matplotlib v3.5.3, https://matplotlib.org/</dc:title>
     </cc:Agent>
    </dc:creator>
   </cc:Work>
  </rdf:RDF>
 </metadata>
 <defs>
  <style type="text/css">*{stroke-linejoin: round; stroke-linecap: butt}</style>
 </defs>
 <g id="figure_1">
  <g id="patch_1">
   <path d="M 0 280.8 
L 352.8 280.8 
L 352.8 0 
L 0 0 
L 0 280.8 
z
" style="fill: none"/>
  </g>
  <g id="axes_1">
   <g id="patch_2">
    <path d="M 49.3975 238.8725 
L 345.6 238.8725 
L 345.6 11.759062 
L 49.3975 11.759062 
z
" style="fill: #ffffff"/>
   </g>
   <g id="matplotlib.axis_1">
    <g id="xtick_1">
     <g id="line2d_1">
      <defs>
       <path id="mb1d2889024" d="M 0 0 
L 0 -6 
" style="stroke: #000000; stroke-width: 2"/>
      </defs>
      <g>
       <use xlink:href="#mb1d2889024" x="62.86125" y="238.8725" style="fill: #ffffff; stroke: #000000; stroke-width: 2"/>
      </g>
     </g>
     <g id="line2d_2">
      <defs>
       <path id="m50b8ad0fa8" d="M 0 0 
L 0 6 
" style="stroke: #000000; stroke-width: 2"/>
      </defs>
      <g>
       <use xlink:href="#m50b8ad0fa8" x="62.86125" y="11.759062" style="fill: #ffffff; stroke: #000000; stroke-width: 2"/>
      </g>
     </g>
     <g id="text_1">
      <!-- 0.0 -->
      <g transform="translate(53.319375 251.490625)scale(0.12 -0.12)">
       <defs>
        <path id="DejaVuSans-30" d="M 2034 4250 
Q 1547 4250 1301 3770 
Q 1056 3291 1056 2328 
Q 1056 1369 1301 889 
Q 1547 409 2034 409 
Q 2525 409 2770 889 
Q 3016 1369 3016 2328 
Q 3016 3291 2770 3770 
Q 2525 4250 2034 4250 
z
M 2034 4750 
Q 2819 4750 3233 4129 
Q 3647 3509 3647 2328 
Q 3647 1150 3233 529 
Q 2819 -91 2034 -91 
Q 1250 -91 836 529 
Q 422 1150 422 2328 
Q 422 3509 836 4129 
Q 1250 4750 2034 4750 
z
" transform="scale(0.015625)"/>
        <path id="DejaVuSans-2e" d="M 684 794 
L 1344 794 
L 1344 0 
L 684 0 
L 684 794 
z
" transform="scale(0.015625)"/>
       </defs>
       <use xlink:href="#DejaVuSans-30"/>
       <use xlink:href="#DejaVuSans-2e" x="63.623047"/>
       <use xlink:href="#DejaVuSans-30" x="95.410156"/>
      </g>
     </g>
    </g>
    <g id="xtick_2">
     <g id="line2d_3">
      <g>
       <use xlink:href="#mb1d2889024" x="116.71625" y="238.8725" style="fill: #ffffff; stroke: #000000; stroke-width: 2"/>
      </g>
     </g>
     <g id="line2d_4">
      <g>
       <use xlink:href="#m50b8ad0fa8" x="116.71625" y="11.759062" style="fill: #ffffff; stroke: #000000; stroke-width: 2"/>
      </g>
     </g>
     <g id="text_2">
      <!-- 0.2 -->
      <g transform="translate(107.174375 251.490625)scale(0.12 -0.12)">
       <defs>
        <path id="DejaVuSans-32" d="M 1228 531 
L 3431 531 
L 3431 0 
L 469 0 
L 469 531 
Q 828 903 1448 1529 
Q 2069 2156 2228 2338 
Q 2531 2678 2651 2914 
Q 2772 3150 2772 3378 
Q 2772 3750 2511 3984 
Q 2250 4219 1831 4219 
Q 1534 4219 1204 4116 
Q 875 4013 500 3803 
L 500 4441 
Q 881 4594 1212 4672 
Q 1544 4750 1819 4750 
Q 2544 4750 2975 4387 
Q 3406 4025 3406 3419 
Q 3406 3131 3298 2873 
Q 3191 2616 2906 2266 
Q 2828 2175 2409 1742 
Q 1991 1309 1228 531 
z
" transform="scale(0.015625)"/>
       </defs>
       <use xlink:href="#DejaVuSans-30"/>
       <use xlink:href="#DejaVuSans-2e" x="63.623047"/>
       <use xlink:href="#DejaVuSans-32" x="95.410156"/>
      </g>
     </g>
    </g>
    <g id="xtick_3">
     <g id="line2d_5">
      <g>
       <use xlink:href="#mb1d2889024" x="170.57125" y="238.8725" style="fill: #ffffff; stroke: #000000; stroke-width: 2"/>
      </g>
     </g>
     <g id="line2d_6">
      <g>
       <use xlink:href="#m50b8ad0fa8" x="170.57125" y="11.759062" style="fill: #ffffff; stroke: #000000; stroke-width: 2"/>
      </g>
     </g>
     <g id="text_3">
      <!-- 0.4 -->
      <g transform="translate(161.029375 251.490625)scale(0.12 -0.12)">
       <defs>
        <path id="DejaVuSans-34" d="M 2419 4116 
L 825 1625 
L 2419 1625 
L 2419 4116 
z
M 2253 4666 
L 3047 4666 
L 3047 1625 
L 3713 1625 
L 3713 1100 
L 3047 1100 
L 3047 0 
L 2419 0 
L 2419 1100 
L 313 1100 
L 313 1709 
L 2253 4666 
z
" transform="scale(0.015625)"/>
       </defs>
       <use xlink:href="#DejaVuSans-30"/>
       <use xlink:href="#DejaVuSans-2e" x="63.623047"/>
       <use xlink:href="#DejaVuSans-34" x="95.410156"/>
      </g>
     </g>
    </g>
    <g id="xtick_4">
     <g id="line2d_7">
      <g>
       <use xlink:href="#mb1d2889024" x="224.42625" y="238.8725" style="fill: #ffffff; stroke: #000000; stroke-width: 2"/>
      </g>
     </g>
     <g id="line2d_8">
      <g>
       <use xlink:href="#m50b8ad0fa8" x="224.42625" y="11.759062" style="fill: #ffffff; stroke: #000000; stroke-width: 2"/>
      </g>
     </g>
     <g id="text_4">
      <!-- 0.6 -->
      <g transform="translate(214.884375 251.490625)scale(0.12 -0.12)">
       <defs>
        <path id="DejaVuSans-36" d="M 2113 2584 
Q 1688 2584 1439 2293 
Q 1191 2003 1191 1497 
Q 1191 994 1439 701 
Q 1688 409 2113 409 
Q 2538 409 2786 701 
Q 3034 994 3034 1497 
Q 3034 2003 2786 2293 
Q 2538 2584 2113 2584 
z
M 3366 4563 
L 3366 3988 
Q 3128 4100 2886 4159 
Q 2644 4219 2406 4219 
Q 1781 4219 1451 3797 
Q 1122 3375 1075 2522 
Q 1259 2794 1537 2939 
Q 1816 3084 2150 3084 
Q 2853 3084 3261 2657 
Q 3669 2231 3669 1497 
Q 3669 778 3244 343 
Q 2819 -91 2113 -91 
Q 1303 -91 875 529 
Q 447 1150 447 2328 
Q 447 3434 972 4092 
Q 1497 4750 2381 4750 
Q 2619 4750 2861 4703 
Q 3103 4656 3366 4563 
z
" transform="scale(0.015625)"/>
       </defs>
       <use xlink:href="#DejaVuSans-30"/>
       <use xlink:href="#DejaVuSans-2e" x="63.623047"/>
       <use xlink:href="#DejaVuSans-36" x="95.410156"/>
      </g>
     </g>
    </g>
    <g id="xtick_5">
     <g id="line2d_9">
      <g>
       <use xlink:href="#mb1d2889024" x="278.28125" y="238.8725" style="fill: #ffffff; stroke: #000000; stroke-width: 2"/>
      </g>
     </g>
     <g id="line2d_10">
      <g>
       <use xlink:href="#m50b8ad0fa8" x="278.28125" y="11.759062" style="fill: #ffffff; stroke: #000000; stroke-width: 2"/>
      </g>
     </g>
     <g id="text_5">
      <!-- 0.8 -->
      <g transform="translate(268.739375 251.490625)scale(0.12 -0.12)">
       <defs>
        <path id="DejaVuSans-38" d="M 2034 2216 
Q 1584 2216 1326 1975 
Q 1069 1734 1069 1313 
Q 1069 891 1326 650 
Q 1584 409 2034 409 
Q 2484 409 2743 651 
Q 3003 894 3003 1313 
Q 3003 1734 2745 1975 
Q 2488 2216 2034 2216 
z
M 1403 2484 
Q 997 2584 770 2862 
Q 544 3141 544 3541 
Q 544 4100 942 4425 
Q 1341 4750 2034 4750 
Q 2731 4750 3128 4425 
Q 3525 4100 3525 3541 
Q 3525 3141 3298 2862 
Q 3072 2584 2669 2484 
Q 3125 2378 3379 2068 
Q 3634 1759 3634 1313 
Q 3634 634 3220 271 
Q 2806 -91 2034 -91 
Q 1263 -91 848 271 
Q 434 634 434 1313 
Q 434 1759 690 2068 
Q 947 2378 1403 2484 
z
M 1172 3481 
Q 1172 3119 1398 2916 
Q 1625 2713 2034 2713 
Q 2441 2713 2670 2916 
Q 2900 3119 2900 3481 
Q 2900 3844 2670 4047 
Q 2441 4250 2034 4250 
Q 1625 4250 1398 4047 
Q 1172 3844 1172 3481 
z
" transform="scale(0.015625)"/>
       </defs>
       <use xlink:href="#DejaVuSans-30"/>
       <use xlink:href="#DejaVuSans-2e" x="63.623047"/>
       <use xlink:href="#DejaVuSans-38" x="95.410156"/>
      </g>
     </g>
    </g>
    <g id="xtick_6">
     <g id="line2d_11">
      <g>
       <use xlink:href="#mb1d2889024" x="332.13625" y="238.8725" style="fill: #ffffff; stroke: #000000; stroke-width: 2"/>
      </g>
     </g>
     <g id="line2d_12">
      <g>
       <use xlink:href="#m50b8ad0fa8" x="332.13625" y="11.759062" style="fill: #ffffff; stroke: #000000; stroke-width: 2"/>
      </g>
     </g>
     <g id="text_6">
      <!-- 1.0 -->
      <g transform="translate(322.594375 251.490625)scale(0.12 -0.12)">
       <defs>
        <path id="DejaVuSans-31" d="M 794 531 
L 1825 531 
L 1825 4091 
L 703 3866 
L 703 4441 
L 1819 4666 
L 2450 4666 
L 2450 531 
L 3481 531 
L 3481 0 
L 794 0 
L 794 531 
z
" transform="scale(0.015625)"/>
       </defs>
       <use xlink:href="#DejaVuSans-31"/>
       <use xlink:href="#DejaVuSans-2e" x="63.623047"/>
       <use xlink:href="#DejaVuSans-30" x="95.410156"/>
      </g>
     </g>
    </g>
    <g id="text_7">
     <!-- Fractional distance along given axis -->
     <g transform="translate(89.983438 271.104375)scale(0.12 -0.12)">
      <defs>
       <path id="DejaVuSans-46" d="M 628 4666 
L 3309 4666 
L 3309 4134 
L 1259 4134 
L 1259 2759 
L 3109 2759 
L 3109 2228 
L 1259 2228 
L 1259 0 
L 628 0 
L 628 4666 
z
" transform="scale(0.015625)"/>
       <path id="DejaVuSans-72" d="M 2631 2963 
Q 2534 3019 2420 3045 
Q 2306 3072 2169 3072 
Q 1681 3072 1420 2755 
Q 1159 2438 1159 1844 
L 1159 0 
L 581 0 
L 581 3500 
L 1159 3500 
L 1159 2956 
Q 1341 3275 1631 3429 
Q 1922 3584 2338 3584 
Q 2397 3584 2469 3576 
Q 2541 3569 2628 3553 
L 2631 2963 
z
" transform="scale(0.015625)"/>
       <path id="DejaVuSans-61" d="M 2194 1759 
Q 1497 1759 1228 1600 
Q 959 1441 959 1056 
Q 959 750 1161 570 
Q 1363 391 1709 391 
Q 2188 391 2477 730 
Q 2766 1069 2766 1631 
L 2766 1759 
L 2194 1759 
z
M 3341 1997 
L 3341 0 
L 2766 0 
L 2766 531 
Q 2569 213 2275 61 
Q 1981 -91 1556 -91 
Q 1019 -91 701 211 
Q 384 513 384 1019 
Q 384 1609 779 1909 
Q 1175 2209 1959 2209 
L 2766 2209 
L 2766 2266 
Q 2766 2663 2505 2880 
Q 2244 3097 1772 3097 
Q 1472 3097 1187 3025 
Q 903 2953 641 2809 
L 641 3341 
Q 956 3463 1253 3523 
Q 1550 3584 1831 3584 
Q 2591 3584 2966 3190 
Q 3341 2797 3341 1997 
z
" transform="scale(0.015625)"/>
       <path id="DejaVuSans-63" d="M 3122 3366 
L 3122 2828 
Q 2878 2963 2633 3030 
Q 2388 3097 2138 3097 
Q 1578 3097 1268 2742 
Q 959 2388 959 1747 
Q 959 1106 1268 751 
Q 1578 397 2138 397 
Q 2388 397 2633 464 
Q 2878 531 3122 666 
L 3122 134 
Q 2881 22 2623 -34 
Q 2366 -91 2075 -91 
Q 1284 -91 818 406 
Q 353 903 353 1747 
Q 353 2603 823 3093 
Q 1294 3584 2113 3584 
Q 2378 3584 2631 3529 
Q 2884 3475 3122 3366 
z
" transform="scale(0.015625)"/>
       <path id="DejaVuSans-74" d="M 1172 4494 
L 1172 3500 
L 2356 3500 
L 2356 3053 
L 1172 3053 
L 1172 1153 
Q 1172 725 1289 603 
Q 1406 481 1766 481 
L 2356 481 
L 2356 0 
L 1766 0 
Q 1100 0 847 248 
Q 594 497 594 1153 
L 594 3053 
L 172 3053 
L 172 3500 
L 594 3500 
L 594 4494 
L 1172 4494 
z
" transform="scale(0.015625)"/>
       <path id="DejaVuSans-69" d="M 603 3500 
L 1178 3500 
L 1178 0 
L 603 0 
L 603 3500 
z
M 603 4863 
L 1178 4863 
L 1178 4134 
L 603 4134 
L 603 4863 
z
" transform="scale(0.015625)"/>
       <path id="DejaVuSans-6f" d="M 1959 3097 
Q 1497 3097 1228 2736 
Q 959 2375 959 1747 
Q 959 1119 1226 758 
Q 1494 397 1959 397 
Q 2419 397 2687 759 
Q 2956 1122 2956 1747 
Q 2956 2369 2687 2733 
Q 2419 3097 1959 3097 
z
M 1959 3584 
Q 2709 3584 3137 3096 
Q 3566 2609 3566 1747 
Q 3566 888 3137 398 
Q 2709 -91 1959 -91 
Q 1206 -91 779 398 
Q 353 888 353 1747 
Q 353 2609 779 3096 
Q 1206 3584 1959 3584 
z
" transform="scale(0.015625)"/>
       <path id="DejaVuSans-6e" d="M 3513 2113 
L 3513 0 
L 2938 0 
L 2938 2094 
Q 2938 2591 2744 2837 
Q 2550 3084 2163 3084 
Q 1697 3084 1428 2787 
Q 1159 2491 1159 1978 
L 1159 0 
L 581 0 
L 581 3500 
L 1159 3500 
L 1159 2956 
Q 1366 3272 1645 3428 
Q 1925 3584 2291 3584 
Q 2894 3584 3203 3211 
Q 3513 2838 3513 2113 
z
" transform="scale(0.015625)"/>
       <path id="DejaVuSans-6c" d="M 603 4863 
L 1178 4863 
L 1178 0 
L 603 0 
L 603 4863 
z
" transform="scale(0.015625)"/>
       <path id="DejaVuSans-20" transform="scale(0.015625)"/>
       <path id="DejaVuSans-64" d="M 2906 2969 
L 2906 4863 
L 3481 4863 
L 3481 0 
L 2906 0 
L 2906 525 
Q 2725 213 2448 61 
Q 2172 -91 1784 -91 
Q 1150 -91 751 415 
Q 353 922 353 1747 
Q 353 2572 751 3078 
Q 1150 3584 1784 3584 
Q 2172 3584 2448 3432 
Q 2725 3281 2906 2969 
z
M 947 1747 
Q 947 1113 1208 752 
Q 1469 391 1925 391 
Q 2381 391 2643 752 
Q 2906 1113 2906 1747 
Q 2906 2381 2643 2742 
Q 2381 3103 1925 3103 
Q 1469 3103 1208 2742 
Q 947 2381 947 1747 
z
" transform="scale(0.015625)"/>
       <path id="DejaVuSans-73" d="M 2834 3397 
L 2834 2853 
Q 2591 2978 2328 3040 
Q 2066 3103 1784 3103 
Q 1356 3103 1142 2972 
Q 928 2841 928 2578 
Q 928 2378 1081 2264 
Q 1234 2150 1697 2047 
L 1894 2003 
Q 2506 1872 2764 1633 
Q 3022 1394 3022 966 
Q 3022 478 2636 193 
Q 2250 -91 1575 -91 
Q 1294 -91 989 -36 
Q 684 19 347 128 
L 347 722 
Q 666 556 975 473 
Q 1284 391 1588 391 
Q 1994 391 2212 530 
Q 2431 669 2431 922 
Q 2431 1156 2273 1281 
Q 2116 1406 1581 1522 
L 1381 1569 
Q 847 1681 609 1914 
Q 372 2147 372 2553 
Q 372 3047 722 3315 
Q 1072 3584 1716 3584 
Q 2034 3584 2315 3537 
Q 2597 3491 2834 3397 
z
" transform="scale(0.015625)"/>
       <path id="DejaVuSans-65" d="M 3597 1894 
L 3597 1613 
L 953 1613 
Q 991 1019 1311 708 
Q 1631 397 2203 397 
Q 2534 397 2845 478 
Q 3156 559 3463 722 
L 3463 178 
Q 3153 47 2828 -22 
Q 2503 -91 2169 -91 
Q 1331 -91 842 396 
Q 353 884 353 1716 
Q 353 2575 817 3079 
Q 1281 3584 2069 3584 
Q 2775 3584 3186 3129 
Q 3597 2675 3597 1894 
z
M 3022 2063 
Q 3016 2534 2758 2815 
Q 2500 3097 2075 3097 
Q 1594 3097 1305 2825 
Q 1016 2553 972 2059 
L 3022 2063 
z
" transform="scale(0.015625)"/>
       <path id="DejaVuSans-67" d="M 2906 1791 
Q 2906 2416 2648 2759 
Q 2391 3103 1925 3103 
Q 1463 3103 1205 2759 
Q 947 2416 947 1791 
Q 947 1169 1205 825 
Q 1463 481 1925 481 
Q 2391 481 2648 825 
Q 2906 1169 2906 1791 
z
M 3481 434 
Q 3481 -459 3084 -895 
Q 2688 -1331 1869 -1331 
Q 1566 -1331 1297 -1286 
Q 1028 -1241 775 -1147 
L 775 -588 
Q 1028 -725 1275 -790 
Q 1522 -856 1778 -856 
Q 2344 -856 2625 -561 
Q 2906 -266 2906 331 
L 2906 616 
Q 2728 306 2450 153 
Q 2172 0 1784 0 
Q 1141 0 747 490 
Q 353 981 353 1791 
Q 353 2603 747 3093 
Q 1141 3584 1784 3584 
Q 2172 3584 2450 3431 
Q 2728 3278 2906 2969 
L 2906 3500 
L 3481 3500 
L 3481 434 
z
" transform="scale(0.015625)"/>
       <path id="DejaVuSans-76" d="M 191 3500 
L 800 3500 
L 1894 563 
L 2988 3500 
L 3597 3500 
L 2284 0 
L 1503 0 
L 191 3500 
z
" transform="scale(0.015625)"/>
       <path id="DejaVuSans-78" d="M 3513 3500 
L 2247 1797 
L 3578 0 
L 2900 0 
L 1881 1375 
L 863 0 
L 184 0 
L 1544 1831 
L 300 3500 
L 978 3500 
L 1906 2253 
L 2834 3500 
L 3513 3500 
z
" transform="scale(0.015625)"/>
      </defs>
      <use xlink:href="#DejaVuSans-46"/>
      <use xlink:href="#DejaVuSans-72" x="50.269531"/>
      <use xlink:href="#DejaVuSans-61" x="91.382812"/>
      <use xlink:href="#DejaVuSans-63" x="152.662109"/>
      <use xlink:href="#DejaVuSans-74" x="207.642578"/>
      <use xlink:href="#DejaVuSans-69" x="246.851562"/>
      <use xlink:href="#DejaVuSans-6f" x="274.634766"/>
      <use xlink:href="#DejaVuSans-6e" x="335.816406"/>
      <use xlink:href="#DejaVuSans-61" x="399.195312"/>
      <use xlink:href="#DejaVuSans-6c" x="460.474609"/>
      <use xlink:href="#DejaVuSans-20" x="488.257812"/>
      <use xlink:href="#DejaVuSans-64" x="520.044922"/>
      <use xlink:href="#DejaVuSans-69" x="583.521484"/>
      <use xlink:href="#DejaVuSans-73" x="611.304688"/>
      <use xlink:href="#DejaVuSans-74" x="663.404297"/>
      <use xlink:href="#DejaVuSans-61" x="702.613281"/>
      <use xlink:href="#DejaVuSans-6e" x="763.892578"/>
      <use xlink:href="#DejaVuSans-63" x="827.271484"/>
      <use xlink:href="#DejaVuSans-65" x="882.251953"/>
      <use xlink:href="#DejaVuSans-20" x="943.775391"/>
      <use xlink:href="#DejaVuSans-61" x="975.5625"/>
      <use xlink:href="#DejaVuSans-6c" x="1036.841797"/>
      <use xlink:href="#DejaVuSans-6f" x="1064.625"/>
      <use xlink:href="#DejaVuSans-6e" x="1125.806641"/>
      <use xlink:href="#DejaVuSans-67" x="1189.185547"/>
      <use xlink:href="#DejaVuSans-20" x="1252.662109"/>
      <use xlink:href="#DejaVuSans-67" x="1284.449219"/>
      <use xlink:href="#DejaVuSans-69" x="1347.925781"/>
      <use xlink:href="#DejaVuSans-76" x="1375.708984"/>
      <use xlink:href="#DejaVuSans-65" x="1434.888672"/>
      <use xlink:href="#DejaVuSans-6e" x="1496.412109"/>
      <use xlink:href="#DejaVuSans-20" x="1559.791016"/>
      <use xlink:href="#DejaVuSans-61" x="1591.578125"/>
      <use xlink:href="#DejaVuSans-78" x="1652.857422"/>
      <use xlink:href="#DejaVuSans-69" x="1712.037109"/>
      <use xlink:href="#DejaVuSans-73" x="1739.820312"/>
     </g>
    </g>
   </g>
   <g id="matplotlib.axis_2">
    <g id="ytick_1">
     <g id="line2d_13">
      <defs>
       <path id="mbb57bc39aa" d="M 0 0 
L 6 0 
" style="stroke: #000000; stroke-width: 2"/>
      </defs>
      <g>
       <use xlink:href="#mbb57bc39aa" x="49.3975" y="238.8725" style="fill: #ffffff; stroke: #000000; stroke-width: 2"/>
      </g>
     </g>
     <g id="line2d_14">
      <defs>
       <path id="m5a120669c7" d="M 0 0 
L -6 0 
" style="stroke: #000000; stroke-width: 2"/>
      </defs>
      <g>
       <use xlink:href="#m5a120669c7" x="345.6" y="238.8725" style="fill: #ffffff; stroke: #000000; stroke-width: 2"/>
      </g>
     </g>
     <g id="text_8">
      <!-- 0.0 -->
      <g transform="translate(26.81375 243.431562)scale(0.12 -0.12)">
       <use xlink:href="#DejaVuSans-30"/>
       <use xlink:href="#DejaVuSans-2e" x="63.623047"/>
       <use xlink:href="#DejaVuSans-30" x="95.410156"/>
      </g>
     </g>
    </g>
    <g id="ytick_2">
     <g id="line2d_15">
      <g>
       <use xlink:href="#mbb57bc39aa" x="49.3975" y="193.449812" style="fill: #ffffff; stroke: #000000; stroke-width: 2"/>
      </g>
     </g>
     <g id="line2d_16">
      <g>
       <use xlink:href="#m5a120669c7" x="345.6" y="193.449812" style="fill: #ffffff; stroke: #000000; stroke-width: 2"/>
      </g>
     </g>
     <g id="text_9">
      <!-- 0.2 -->
      <g transform="translate(26.81375 198.008875)scale(0.12 -0.12)">
       <use xlink:href="#DejaVuSans-30"/>
       <use xlink:href="#DejaVuSans-2e" x="63.623047"/>
       <use xlink:href="#DejaVuSans-32" x="95.410156"/>
      </g>
     </g>
    </g>
    <g id="ytick_3">
     <g id="line2d_17">
      <g>
       <use xlink:href="#mbb57bc39aa" x="49.3975" y="148.027125" style="fill: #ffffff; stroke: #000000; stroke-width: 2"/>
      </g>
     </g>
     <g id="line2d_18">
      <g>
       <use xlink:href="#m5a120669c7" x="345.6" y="148.027125" style="fill: #ffffff; stroke: #000000; stroke-width: 2"/>
      </g>
     </g>
     <g id="text_10">
      <!-- 0.4 -->
      <g transform="translate(26.81375 152.586187)scale(0.12 -0.12)">
       <use xlink:href="#DejaVuSans-30"/>
       <use xlink:href="#DejaVuSans-2e" x="63.623047"/>
       <use xlink:href="#DejaVuSans-34" x="95.410156"/>
      </g>
     </g>
    </g>
    <g id="ytick_4">
     <g id="line2d_19">
      <g>
       <use xlink:href="#mbb57bc39aa" x="49.3975" y="102.604437" style="fill: #ffffff; stroke: #000000; stroke-width: 2"/>
      </g>
     </g>
     <g id="line2d_20">
      <g>
       <use xlink:href="#m5a120669c7" x="345.6" y="102.604437" style="fill: #ffffff; stroke: #000000; stroke-width: 2"/>
      </g>
     </g>
     <g id="text_11">
      <!-- 0.6 -->
      <g transform="translate(26.81375 107.1635)scale(0.12 -0.12)">
       <use xlink:href="#DejaVuSans-30"/>
       <use xlink:href="#DejaVuSans-2e" x="63.623047"/>
       <use xlink:href="#DejaVuSans-36" x="95.410156"/>
      </g>
     </g>
    </g>
    <g id="ytick_5">
     <g id="line2d_21">
      <g>
       <use xlink:href="#mbb57bc39aa" x="49.3975" y="57.18175" style="fill: #ffffff; stroke: #000000; stroke-width: 2"/>
      </g>
     </g>
     <g id="line2d_22">
      <g>
       <use xlink:href="#m5a120669c7" x="345.6" y="57.18175" style="fill: #ffffff; stroke: #000000; stroke-width: 2"/>
      </g>
     </g>
     <g id="text_12">
      <!-- 0.8 -->
      <g transform="translate(26.81375 61.740812)scale(0.12 -0.12)">
       <use xlink:href="#DejaVuSans-30"/>
       <use xlink:href="#DejaVuSans-2e" x="63.623047"/>
       <use xlink:href="#DejaVuSans-38" x="95.410156"/>
      </g>
     </g>
    </g>
    <g id="ytick_6">
     <g id="line2d_23">
      <g>
       <use xlink:href="#mbb57bc39aa" x="49.3975" y="11.759062" style="fill: #ffffff; stroke: #000000; stroke-width: 2"/>
      </g>
     </g>
     <g id="line2d_24">
      <g>
       <use xlink:href="#m5a120669c7" x="345.6" y="11.759062" style="fill: #ffffff; stroke: #000000; stroke-width: 2"/>
      </g>
     </g>
     <g id="text_13">
      <!-- 1.0 -->
      <g transform="translate(26.81375 16.318125)scale(0.12 -0.12)">
       <use xlink:href="#DejaVuSans-31"/>
       <use xlink:href="#DejaVuSans-2e" x="63.623047"/>
       <use xlink:href="#DejaVuSans-30" x="95.410156"/>
      </g>
     </g>
    </g>
    <g id="text_14">
     <!-- Porosity of slice -->
     <g transform="translate(16.318125 172.133594)rotate(-90)scale(0.12 -0.12)">
      <defs>
       <path id="DejaVuSans-50" d="M 1259 4147 
L 1259 2394 
L 2053 2394 
Q 2494 2394 2734 2622 
Q 2975 2850 2975 3272 
Q 2975 3691 2734 3919 
Q 2494 4147 2053 4147 
L 1259 4147 
z
M 628 4666 
L 2053 4666 
Q 2838 4666 3239 4311 
Q 3641 3956 3641 3272 
Q 3641 2581 3239 2228 
Q 2838 1875 2053 1875 
L 1259 1875 
L 1259 0 
L 628 0 
L 628 4666 
z
" transform="scale(0.015625)"/>
       <path id="DejaVuSans-79" d="M 2059 -325 
Q 1816 -950 1584 -1140 
Q 1353 -1331 966 -1331 
L 506 -1331 
L 506 -850 
L 844 -850 
Q 1081 -850 1212 -737 
Q 1344 -625 1503 -206 
L 1606 56 
L 191 3500 
L 800 3500 
L 1894 763 
L 2988 3500 
L 3597 3500 
L 2059 -325 
z
" transform="scale(0.015625)"/>
       <path id="DejaVuSans-66" d="M 2375 4863 
L 2375 4384 
L 1825 4384 
Q 1516 4384 1395 4259 
Q 1275 4134 1275 3809 
L 1275 3500 
L 2222 3500 
L 2222 3053 
L 1275 3053 
L 1275 0 
L 697 0 
L 697 3053 
L 147 3053 
L 147 3500 
L 697 3500 
L 697 3744 
Q 697 4328 969 4595 
Q 1241 4863 1831 4863 
L 2375 4863 
z
" transform="scale(0.015625)"/>
      </defs>
      <use xlink:href="#DejaVuSans-50"/>
      <use xlink:href="#DejaVuSans-6f" x="56.677734"/>
      <use xlink:href="#DejaVuSans-72" x="117.859375"/>
      <use xlink:href="#DejaVuSans-6f" x="156.722656"/>
      <use xlink:href="#DejaVuSans-73" x="217.904297"/>
      <use xlink:href="#DejaVuSans-69" x="270.003906"/>
      <use xlink:href="#DejaVuSans-74" x="297.787109"/>
      <use xlink:href="#DejaVuSans-79" x="336.996094"/>
      <use xlink:href="#DejaVuSans-20" x="396.175781"/>
      <use xlink:href="#DejaVuSans-6f" x="427.962891"/>
      <use xlink:href="#DejaVuSans-66" x="489.144531"/>
      <use xlink:href="#DejaVuSans-20" x="524.349609"/>
      <use xlink:href="#DejaVuSans-73" x="556.136719"/>
      <use xlink:href="#DejaVuSans-6c" x="608.236328"/>
      <use xlink:href="#DejaVuSans-69" x="636.019531"/>
      <use xlink:href="#DejaVuSans-63" x="663.802734"/>
      <use xlink:href="#DejaVuSans-65" x="718.783203"/>
     </g>
    </g>
   </g>
   <g id="line2d_25">
    <path d="M 62.86125 133.813609 
L 64.214391 133.711408 
L 65.567531 133.435087 
L 68.273813 132.617478 
L 72.333235 130.181687 
L 73.686376 129.863728 
L 75.039516 129.030979 
L 77.745798 126.432422 
L 79.098938 125.234399 
L 80.452079 124.431931 
L 81.80522 123.43831 
L 84.511501 121.875013 
L 87.217783 122.132408 
L 89.924064 121.833375 
L 91.277205 121.295873 
L 92.630345 121.216384 
L 93.983486 121.78606 
L 96.689768 124.176429 
L 98.042908 125.648881 
L 100.74919 127.246245 
L 103.455471 128.59 
L 104.808612 128.472658 
L 106.161753 128.101706 
L 107.514893 128.010861 
L 108.868034 127.44497 
L 110.221175 127.117548 
L 111.574315 126.383214 
L 114.280597 125.325244 
L 115.633737 124.783957 
L 118.340019 123.377747 
L 119.69316 122.944338 
L 121.0463 123.033291 
L 122.399441 123.559437 
L 123.752582 123.760054 
L 125.105722 124.144254 
L 126.458863 124.390294 
L 127.812004 124.316482 
L 129.165144 124.613622 
L 130.518285 125.160587 
L 131.871426 125.366882 
L 133.224567 124.967541 
L 134.577707 125.020534 
L 135.930848 125.486116 
L 138.637129 125.259003 
L 139.99027 124.922118 
L 141.343411 124.299449 
L 144.049692 122.832674 
L 145.402833 121.827697 
L 146.755974 121.193672 
L 152.168536 120.453661 
L 154.874818 118.875223 
L 156.227959 117.783186 
L 157.581099 116.850128 
L 158.93424 116.376975 
L 160.287381 116.252062 
L 161.640521 116.55488 
L 164.346803 118.095467 
L 165.699943 118.545908 
L 167.053084 118.621613 
L 168.406225 118.250661 
L 169.759366 117.694233 
L 171.112506 118.008406 
L 173.818788 118.101144 
L 175.171928 118.320687 
L 177.87821 118.337721 
L 181.937632 119.378657 
L 183.290773 119.863166 
L 184.643913 120.065676 
L 185.997054 120.718627 
L 187.350195 120.637244 
L 188.703335 120.317393 
L 190.056476 120.56911 
L 194.115898 121.65547 
L 196.82218 120.966559 
L 198.17532 120.504762 
L 200.881602 118.835478 
L 202.234742 118.464526 
L 203.587883 118.252553 
L 204.941024 118.513734 
L 206.294165 119.238604 
L 207.647305 120.130024 
L 210.353587 122.177831 
L 211.706727 122.96705 
L 213.059868 123.415599 
L 214.413009 124.10451 
L 218.472431 125.317674 
L 222.531853 127.40144 
L 223.884994 127.901089 
L 226.591275 127.954082 
L 230.650697 127.005884 
L 233.356979 125.084883 
L 234.710119 124.727179 
L 236.06326 123.854685 
L 237.416401 122.649091 
L 238.769541 121.163391 
L 240.122682 120.209514 
L 241.475823 119.810173 
L 242.828964 119.955904 
L 244.182104 119.846133 
L 245.535245 120.024038 
L 246.888386 119.798817 
L 249.594667 120.404453 
L 255.00723 122.244072 
L 256.360371 122.321669 
L 257.713511 122.236502 
L 259.066652 122.382233 
L 260.419793 123.114674 
L 261.772933 124.121543 
L 265.832356 124.450858 
L 267.185496 124.537918 
L 269.891778 125.340385 
L 271.244918 126.057685 
L 273.9512 127.931371 
L 275.30434 128.580537 
L 276.657481 129.485205 
L 279.363763 130.545068 
L 282.070044 132.013735 
L 283.423185 133.132269 
L 284.776325 133.900669 
L 286.129466 134.34354 
L 287.482607 134.396534 
L 290.188888 134.262158 
L 291.542029 133.798468 
L 295.601451 131.084463 
L 296.954592 130.325525 
L 298.307732 129.880761 
L 299.660873 130.034063 
L 301.014014 130.06813 
L 302.367155 129.954573 
L 303.720295 130.022707 
L 305.073436 130.61888 
L 306.426577 131.339965 
L 307.779717 131.726058 
L 309.132858 131.686313 
L 310.485999 131.349428 
L 311.839139 130.819497 
L 314.545421 130.310384 
L 317.251702 128.955274 
L 318.604843 128.181196 
L 319.957984 127.624768 
L 325.370546 123.385317 
L 326.723687 121.943147 
L 328.076828 120.879499 
L 329.429969 120.137595 
L 330.783109 119.781784 
L 332.13625 119.630375 
L 332.13625 119.630375 
" clip-path="url(#pf7d327b487)" style="fill: none; stroke: #0000ff; stroke-opacity: 0.5; stroke-width: 2; stroke-linecap: square"/>
   </g>
   <g id="line2d_26">
    <path d="M 62.86125 118.678391 
L 64.662421 118.246876 
L 66.463591 117.656381 
L 68.264762 117.156731 
L 69.165347 116.901228 
L 70.065932 116.994913 
L 71.867103 117.733031 
L 72.767688 118.34056 
L 73.668273 118.31501 
L 74.568859 119.118423 
L 77.270615 122.175938 
L 78.1712 122.982191 
L 79.071785 124.109241 
L 79.97237 125.486116 
L 80.872956 126.442832 
L 83.574712 130.468417 
L 84.475297 131.504622 
L 86.276467 133.875119 
L 87.177053 134.099393 
L 88.978223 133.991515 
L 89.878809 134.170366 
L 90.779394 133.889314 
L 91.679979 133.386825 
L 92.580564 132.052534 
L 93.48115 130.508162 
L 95.28232 126.025511 
L 97.984076 118.703941 
L 99.785247 112.824542 
L 101.586417 108.918191 
L 103.387588 105.698858 
L 105.188758 103.484502 
L 106.089344 102.30919 
L 106.989929 101.602299 
L 107.890514 101.122522 
L 108.791099 100.330464 
L 109.691685 100.103351 
L 110.59227 100.177163 
L 115.095196 104.730787 
L 116.896367 106.945143 
L 117.796952 107.771268 
L 118.697538 108.943741 
L 119.598123 110.857172 
L 122.299879 115.158133 
L 123.200464 116.307895 
L 125.001635 117.801165 
L 126.802805 118.60174 
L 127.70339 118.624452 
L 128.603976 119.291597 
L 129.504561 119.779891 
L 130.405146 119.62659 
L 131.305732 119.308631 
L 132.206317 118.783431 
L 133.106902 118.110607 
L 134.007487 117.752904 
L 134.908073 117.139697 
L 135.808658 116.966524 
L 136.709243 117.148214 
L 137.609829 117.528629 
L 138.510414 117.593924 
L 139.410999 117.145375 
L 140.311584 116.322089 
L 141.21217 116.08362 
L 142.112755 115.632232 
L 143.01334 115.399441 
L 145.715096 117.798326 
L 146.615681 118.485345 
L 147.516267 120.248313 
L 148.416852 121.43498 
L 149.317437 122.874312 
L 152.019193 125.454888 
L 153.820364 125.636579 
L 155.621534 125.806914 
L 156.52212 125.602512 
L 157.422705 125.588317 
L 158.32329 125.889243 
L 159.223875 126.698334 
L 160.124461 127.146883 
L 161.025046 126.701173 
L 161.925631 126.025511 
L 163.726802 126.161779 
L 164.627387 126.269658 
L 165.527972 126.774985 
L 166.428558 126.68414 
L 167.329143 126.201524 
L 168.229728 124.677025 
L 169.130314 123.975812 
L 170.931484 121.196511 
L 171.832069 120.651439 
L 172.732655 121.162444 
L 174.533825 121.35833 
L 175.434411 121.250451 
L 176.334996 120.591822 
L 179.036752 119.112745 
L 179.937337 118.774914 
L 180.837922 119.007706 
L 181.738508 119.740146 
L 183.539678 120.651439 
L 185.340849 122.772111 
L 186.241434 124.762192 
L 187.142019 126.241269 
L 188.042605 127.268957 
L 188.94319 128.069532 
L 189.843775 129.134126 
L 190.74436 130.669981 
L 191.644946 131.691991 
L 192.545531 132.327909 
L 193.446116 133.239201 
L 194.346702 134.394641 
L 195.247287 135.322967 
L 197.949043 136.078119 
L 198.849628 135.870878 
L 199.750213 135.973079 
L 201.551384 135.711899 
L 202.451969 135.794227 
L 203.352554 135.439363 
L 204.25314 134.513875 
L 206.05431 133.480509 
L 206.954895 131.69483 
L 208.756066 129.46344 
L 210.557237 126.610328 
L 211.457822 125.653612 
L 212.358407 125.117057 
L 213.258992 125.190869 
L 216.861334 127.683439 
L 218.662504 129.605386 
L 219.563089 129.420857 
L 220.463675 129.571319 
L 221.36426 129.954573 
L 222.264845 130.14762 
L 223.165431 129.207938 
L 224.066016 128.969469 
L 224.966601 129.034764 
L 225.867186 129.256199 
L 226.767772 129.136965 
L 227.668357 129.261877 
L 229.469528 130.158975 
L 230.370113 130.04258 
L 231.270698 130.235626 
L 232.171283 130.610363 
L 233.071869 131.200858 
L 233.972454 131.356999 
L 234.873039 131.061751 
L 235.773625 130.556424 
L 236.67421 129.312978 
L 237.574795 128.96663 
L 238.47538 128.850234 
L 240.276551 127.220695 
L 241.177136 127.098622 
L 242.077722 127.382514 
L 242.978307 127.303024 
L 243.878892 126.692656 
L 244.779477 126.891381 
L 245.680063 126.94532 
L 248.381819 126.47406 
L 249.282404 126.031189 
L 250.182989 126.823247 
L 251.083574 128.15186 
L 253.78533 130.664303 
L 254.685916 131.19518 
L 256.487086 131.513139 
L 257.387671 131.890715 
L 258.288257 132.012789 
L 259.188842 131.802709 
L 260.089427 131.856648 
L 261.890598 130.036902 
L 262.791183 129.699071 
L 263.691768 130.076647 
L 264.592354 130.987939 
L 267.29411 134.193078 
L 268.194695 134.156172 
L 269.09528 133.276107 
L 269.995865 132.151896 
L 270.896451 130.621719 
L 271.797036 129.389629 
L 272.697621 128.501047 
L 273.598207 127.317218 
L 274.498792 126.916931 
L 275.399377 126.786341 
L 276.299962 127.206501 
L 277.200548 128.160377 
L 278.101133 129.486152 
L 281.703474 132.512438 
L 282.604059 133.00641 
L 283.504645 132.855947 
L 284.40523 132.520955 
L 288.007571 128.015592 
L 288.908156 127.251923 
L 289.808742 126.752274 
L 290.709327 126.740918 
L 291.609912 127.019132 
L 292.510497 126.931126 
L 293.411083 127.05036 
L 294.311668 126.936803 
L 295.212253 126.360503 
L 296.112839 126.122034 
L 297.013424 126.139067 
L 297.914009 126.005638 
L 298.814594 124.53224 
L 299.71518 123.794121 
L 301.51635 122.56487 
L 302.416936 121.398074 
L 304.218106 119.49316 
L 305.118691 119.603878 
L 306.919862 120.850163 
L 307.820447 122.019797 
L 308.721033 122.98503 
L 309.621618 124.617407 
L 312.323374 128.475497 
L 313.223959 129.707587 
L 315.02513 131.515978 
L 316.8263 132.32507 
L 317.726885 132.356298 
L 318.627471 130.987939 
L 319.528056 130.025546 
L 320.428641 129.344206 
L 321.329227 129.153998 
L 323.130397 129.608225 
L 324.030982 129.026247 
L 324.931568 127.606788 
L 325.832153 127.010615 
L 327.633324 126.261141 
L 329.434494 126.36902 
L 330.335079 126.283852 
L 331.235665 126.357664 
L 332.13625 126.31508 
L 332.13625 126.31508 
" clip-path="url(#pf7d327b487)" style="fill: none; stroke: #ff0000; stroke-opacity: 0.5; stroke-width: 2; stroke-linecap: square"/>
   </g>
   <g id="line2d_27">
    <path d="M 62.86125 117.336529 
L 63.536125 117.495509 
L 64.210999 117.836179 
L 64.885874 118.475882 
L 66.235623 120.360923 
L 66.910498 121.477564 
L 67.585373 121.893939 
L 68.260247 121.795523 
L 70.284872 122.325454 
L 70.959746 121.594906 
L 71.634621 121.591121 
L 72.98437 122.499575 
L 73.659245 124.180214 
L 74.33412 127.223534 
L 75.008994 129.108576 
L 77.033618 131.629535 
L 78.383368 131.746877 
L 79.058242 131.069322 
L 79.733117 129.540091 
L 80.407992 127.295453 
L 81.082867 125.569391 
L 81.757741 124.464106 
L 83.107491 121.799308 
L 85.806989 117.533361 
L 86.481864 117.385737 
L 87.156739 118.048151 
L 87.831613 118.275265 
L 88.506488 117.968662 
L 89.181363 118.089789 
L 89.856237 117.756689 
L 90.531112 118.19956 
L 91.205987 119.781784 
L 91.880862 121.882583 
L 92.555736 124.501958 
L 93.905486 128.026002 
L 95.255235 130.634021 
L 95.93011 132.011842 
L 97.954734 134.899968 
L 98.629608 135.505604 
L 99.304483 135.812207 
L 99.979358 136.243723 
L 101.329107 138.018993 
L 102.678857 140.751925 
L 103.353731 141.652808 
L 104.028606 142.088109 
L 104.703481 142.163813 
L 105.378355 141.932914 
L 106.05323 141.391627 
L 106.728105 139.305969 
L 108.077854 133.83632 
L 108.752729 131.084463 
L 110.777353 124.941044 
L 111.452227 123.756269 
L 112.127102 122.817533 
L 112.801977 122.310313 
L 114.151726 121.958288 
L 115.501476 122.632057 
L 116.17635 123.419384 
L 116.851225 124.524669 
L 117.5261 125.330922 
L 118.200974 126.356718 
L 119.550724 129.044227 
L 120.225598 129.733138 
L 120.900473 128.968522 
L 121.575348 127.802673 
L 123.599972 123.048432 
L 124.274846 121.965858 
L 124.949721 120.56911 
L 126.974345 117.056423 
L 127.64922 116.484854 
L 128.324095 115.731594 
L 128.998969 115.375783 
L 129.673844 115.587756 
L 130.348719 115.56883 
L 131.698468 114.739866 
L 132.373343 114.630094 
L 133.048217 114.913986 
L 135.072841 116.93151 
L 135.747716 117.139697 
L 136.422591 117.192691 
L 137.097466 116.394008 
L 137.77234 116.776316 
L 138.447215 116.711967 
L 139.12209 116.882302 
L 140.471839 116.25774 
L 141.146714 115.727809 
L 141.821588 115.349287 
L 142.496463 115.470414 
L 143.171338 115.83001 
L 143.846212 115.500696 
L 144.521087 115.341716 
L 145.195962 115.629393 
L 145.870836 116.068479 
L 146.545711 117.162409 
L 147.220586 117.930809 
L 147.895461 119.785569 
L 149.920085 126.621684 
L 151.944709 129.907258 
L 153.294458 132.185963 
L 153.969333 133.166336 
L 154.644207 133.734119 
L 155.319082 134.086145 
L 155.993957 133.438872 
L 158.018581 129.93754 
L 158.693456 129.131287 
L 159.36833 128.59757 
L 160.043205 128.226618 
L 161.392954 128.067639 
L 162.742704 126.553549 
L 163.417578 125.883565 
L 164.092453 125.542895 
L 165.442202 123.551867 
L 166.791952 120.186803 
L 168.141701 117.544716 
L 169.491451 115.201663 
L 170.8412 114.073666 
L 171.516075 113.952539 
L 172.190949 113.710285 
L 172.865824 113.982821 
L 173.540699 114.72851 
L 174.215573 115.099462 
L 174.890448 116.019271 
L 175.565323 117.400878 
L 176.240197 119.187504 
L 178.264821 127.806459 
L 178.939696 130.073808 
L 179.614571 131.724165 
L 180.289445 132.761317 
L 180.96432 133.196618 
L 181.639195 133.976374 
L 182.988944 136.387561 
L 184.338694 137.303586 
L 185.013568 136.993197 
L 185.688443 135.861415 
L 187.038192 131.425133 
L 188.387942 126.621684 
L 189.062816 125.160587 
L 189.737691 124.308912 
L 191.08744 123.585934 
L 191.762315 124.161288 
L 192.43719 124.914548 
L 193.786939 127.015347 
L 194.461814 128.624067 
L 195.811563 133.454013 
L 196.486438 135.498034 
L 197.161313 137.087828 
L 198.511062 139.003151 
L 199.185937 140.297698 
L 199.860811 142.012404 
L 200.535686 143.019274 
L 201.210561 143.499997 
L 201.885435 143.344803 
L 202.56031 142.307652 
L 203.235185 140.838985 
L 204.584934 136.213441 
L 207.284433 128.76412 
L 207.959308 126.057685 
L 209.309057 121.598691 
L 211.333681 112.177269 
L 212.008556 109.955342 
L 212.68343 108.236851 
L 213.358305 106.862814 
L 214.708055 107.347323 
L 216.732679 106.529715 
L 217.407553 106.438869 
L 218.082428 106.548641 
L 218.757303 106.983942 
L 220.107052 109.080956 
L 220.781927 110.462562 
L 221.456801 111.26503 
L 222.131676 112.411953 
L 222.806551 114.278068 
L 224.1563 116.147969 
L 224.831175 116.552988 
L 226.855799 115.019972 
L 227.530674 114.724725 
L 228.880423 115.095677 
L 230.905047 116.465928 
L 231.579922 117.529576 
L 233.604546 123.127922 
L 234.27942 125.020534 
L 234.954295 126.477845 
L 235.62917 127.507426 
L 236.304044 127.874593 
L 236.978919 127.613412 
L 237.653794 127.140259 
L 239.003543 125.739726 
L 239.678418 124.797206 
L 240.353293 123.294472 
L 241.703042 119.414617 
L 242.377917 117.294892 
L 243.052791 115.610467 
L 243.727666 114.334847 
L 244.402541 113.365829 
L 245.077415 113.471815 
L 245.75229 113.350688 
L 246.427165 114.179652 
L 247.102039 115.269797 
L 247.776914 116.742249 
L 248.451789 119.694724 
L 249.126664 121.928006 
L 249.801538 123.347465 
L 251.826162 126.050115 
L 252.501037 127.056984 
L 253.175912 127.863237 
L 253.850786 129.01016 
L 255.200536 131.932353 
L 255.87541 132.625049 
L 257.22516 133.503221 
L 257.900034 132.98086 
L 258.574909 132.246526 
L 259.249784 132.484995 
L 259.924659 132.443358 
L 260.599533 131.924782 
L 261.274408 130.565887 
L 261.949283 130.096519 
L 262.624157 129.112361 
L 263.299032 128.400739 
L 263.973907 128.253115 
L 264.648781 128.366672 
L 265.323656 127.745895 
L 265.998531 126.943428 
L 267.34828 124.853984 
L 269.372904 120.217085 
L 270.047779 118.078433 
L 270.722654 115.33036 
L 271.397528 114.236431 
L 272.072403 113.653506 
L 272.747278 113.343118 
L 273.422152 113.267413 
L 274.771902 114.209934 
L 275.446776 114.31592 
L 276.796526 112.495228 
L 277.4714 112.53308 
L 278.146275 112.843468 
L 278.82115 113.312836 
L 279.496024 114.187223 
L 280.170899 115.724024 
L 281.520648 120.22844 
L 282.195523 121.939361 
L 282.870398 124.172644 
L 283.545273 125.7208 
L 284.220147 126.863938 
L 285.569897 129.52495 
L 286.919646 131.319146 
L 287.594521 131.031469 
L 288.269395 130.395552 
L 288.94427 129.225918 
L 290.968894 127.530137 
L 291.643769 127.359802 
L 292.318643 127.639909 
L 293.668393 128.805758 
L 294.343268 129.714211 
L 295.018142 130.380411 
L 295.693017 131.587897 
L 296.367892 131.30022 
L 297.042766 131.413777 
L 298.392516 132.117829 
L 299.742265 133.802253 
L 300.41714 134.279192 
L 301.092014 134.351111 
L 303.116638 134.937821 
L 303.791513 134.83562 
L 305.141263 135.766785 
L 305.816137 136.039321 
L 306.491012 135.834919 
L 307.165887 135.369336 
L 307.840761 135.093015 
L 308.515636 134.627432 
L 309.190511 133.628133 
L 311.215135 129.415179 
L 311.890009 127.109977 
L 312.564884 124.013664 
L 315.939258 111.696545 
L 316.614132 110.871367 
L 317.289007 110.950856 
L 317.963882 110.477703 
L 318.638756 110.356576 
L 319.313631 110.863796 
L 321.338255 115.186522 
L 322.01313 116.734679 
L 322.688004 118.562942 
L 324.037754 124.081798 
L 326.737253 136.588178 
L 327.412127 139.124278 
L 328.087002 140.767065 
L 328.761877 141.808002 
L 329.436751 142.326578 
L 330.786501 142.69753 
L 332.13625 142.78459 
L 332.13625 142.78459 
" clip-path="url(#pf7d327b487)" style="fill: none; stroke: #008000; stroke-opacity: 0.5; stroke-width: 2; stroke-linecap: square"/>
   </g>
   <g id="patch_3">
    <path d="M 49.3975 238.8725 
L 49.3975 11.759062 
" style="fill: none; stroke: #000000; stroke-width: 2; stroke-linejoin: miter; stroke-linecap: square"/>
   </g>
   <g id="patch_4">
    <path d="M 345.6 238.8725 
L 345.6 11.759062 
" style="fill: none; stroke: #000000; stroke-width: 2; stroke-linejoin: miter; stroke-linecap: square"/>
   </g>
   <g id="patch_5">
    <path d="M 49.3975 238.8725 
L 345.6 238.8725 
" style="fill: none; stroke: #000000; stroke-width: 2; stroke-linejoin: miter; stroke-linecap: square"/>
   </g>
   <g id="patch_6">
    <path d="M 49.3975 11.759062 
L 345.6 11.759062 
" style="fill: none; stroke: #000000; stroke-width: 2; stroke-linejoin: miter; stroke-linecap: square"/>
   </g>
   <g id="legend_1">
    <g id="line2d_28">
     <path d="M 249.58125 27.477187 
L 261.58125 27.477187 
L 273.58125 27.477187 
" style="fill: none; stroke: #0000ff; stroke-opacity: 0.5; stroke-width: 2; stroke-linecap: square"/>
    </g>
    <g id="text_15">
     <!-- yz-plane -->
     <g transform="translate(283.18125 31.677187)scale(0.12 -0.12)">
      <defs>
       <path id="DejaVuSans-7a" d="M 353 3500 
L 3084 3500 
L 3084 2975 
L 922 459 
L 3084 459 
L 3084 0 
L 275 0 
L 275 525 
L 2438 3041 
L 353 3041 
L 353 3500 
z
" transform="scale(0.015625)"/>
       <path id="DejaVuSans-2d" d="M 313 2009 
L 1997 2009 
L 1997 1497 
L 313 1497 
L 313 2009 
z
" transform="scale(0.015625)"/>
       <path id="DejaVuSans-70" d="M 1159 525 
L 1159 -1331 
L 581 -1331 
L 581 3500 
L 1159 3500 
L 1159 2969 
Q 1341 3281 1617 3432 
Q 1894 3584 2278 3584 
Q 2916 3584 3314 3078 
Q 3713 2572 3713 1747 
Q 3713 922 3314 415 
Q 2916 -91 2278 -91 
Q 1894 -91 1617 61 
Q 1341 213 1159 525 
z
M 3116 1747 
Q 3116 2381 2855 2742 
Q 2594 3103 2138 3103 
Q 1681 3103 1420 2742 
Q 1159 2381 1159 1747 
Q 1159 1113 1420 752 
Q 1681 391 2138 391 
Q 2594 391 2855 752 
Q 3116 1113 3116 1747 
z
" transform="scale(0.015625)"/>
      </defs>
      <use xlink:href="#DejaVuSans-79"/>
      <use xlink:href="#DejaVuSans-7a" x="59.179688"/>
      <use xlink:href="#DejaVuSans-2d" x="111.669922"/>
      <use xlink:href="#DejaVuSans-70" x="147.753906"/>
      <use xlink:href="#DejaVuSans-6c" x="211.230469"/>
      <use xlink:href="#DejaVuSans-61" x="239.013672"/>
      <use xlink:href="#DejaVuSans-6e" x="300.292969"/>
      <use xlink:href="#DejaVuSans-65" x="363.671875"/>
     </g>
    </g>
    <g id="line2d_29">
     <path d="M 249.58125 45.090937 
L 261.58125 45.090937 
L 273.58125 45.090937 
" style="fill: none; stroke: #ff0000; stroke-opacity: 0.5; stroke-width: 2; stroke-linecap: square"/>
    </g>
    <g id="text_16">
     <!-- xz-plane -->
     <g transform="translate(283.18125 49.290937)scale(0.12 -0.12)">
      <use xlink:href="#DejaVuSans-78"/>
      <use xlink:href="#DejaVuSans-7a" x="59.179688"/>
      <use xlink:href="#DejaVuSans-2d" x="111.669922"/>
      <use xlink:href="#DejaVuSans-70" x="147.753906"/>
      <use xlink:href="#DejaVuSans-6c" x="211.230469"/>
      <use xlink:href="#DejaVuSans-61" x="239.013672"/>
      <use xlink:href="#DejaVuSans-6e" x="300.292969"/>
      <use xlink:href="#DejaVuSans-65" x="363.671875"/>
     </g>
    </g>
    <g id="line2d_30">
     <path d="M 249.58125 62.704687 
L 261.58125 62.704687 
L 273.58125 62.704687 
" style="fill: none; stroke: #008000; stroke-opacity: 0.5; stroke-width: 2; stroke-linecap: square"/>
    </g>
    <g id="text_17">
     <!-- xy-plane -->
     <g transform="translate(283.18125 66.904687)scale(0.12 -0.12)">
      <use xlink:href="#DejaVuSans-78"/>
      <use xlink:href="#DejaVuSans-79" x="59.179688"/>
      <use xlink:href="#DejaVuSans-2d" x="116.609375"/>
      <use xlink:href="#DejaVuSans-70" x="152.693359"/>
      <use xlink:href="#DejaVuSans-6c" x="216.169922"/>
      <use xlink:href="#DejaVuSans-61" x="243.953125"/>
      <use xlink:href="#DejaVuSans-6e" x="305.232422"/>
      <use xlink:href="#DejaVuSans-65" x="368.611328"/>
     </g>
    </g>
   </g>
  </g>
 </g>
 <defs>
  <clipPath id="pf7d327b487">
   <rect x="49.3975" y="11.759062" width="296.2025" height="227.113437"/>
  </clipPath>
 </defs>
</svg>
