<?xml version="1.0" encoding="utf-8" standalone="no"?>
<!DOCTYPE svg PUBLIC "-//W3C//DTD SVG 1.1//EN"
  "http://www.w3.org/Graphics/SVG/1.1/DTD/svg11.dtd">
<svg xmlns:xlink="http://www.w3.org/1999/xlink" width="348.48pt" height="276.48pt" viewBox="0 0 348.48 276.48" xmlns="http://www.w3.org/2000/svg" version="1.1">
 <metadata>
  <rdf:RDF xmlns:dc="http://purl.org/dc/elements/1.1/" xmlns:cc="http://creativecommons.org/ns#" xmlns:rdf="http://www.w3.org/1999/02/22-rdf-syntax-ns#">
   <cc:Work>
    <dc:type rdf:resource="http://purl.org/dc/dcmitype/StillImage"/>
    <dc:date>2022-09-08T00:02:02.795980</dc:date>
    <dc:format>image/svg+xml</dc:format>
    <dc:creator>
     <cc:Agent>
      <dc:title>Matplotlib v3.5.3, https://matplotlib.org/</dc:title>
     </cc:Agent>
    </dc:creator>
   </cc:Work>
  </rdf:RDF>
 </metadata>
 <defs>
  <style type="text/css">*{stroke-linejoin: round; stroke-linecap: butt}</style>
 </defs>
 <g id="figure_1">
  <g id="patch_1">
   <path d="M 0 276.48 
L 348.48 276.48 
L 348.48 0 
L 0 0 
z
" style="fill: #ffffff"/>
  </g>
  <g id="axes_1">
   <g id="patch_2">
    <path d="M 49.3975 234.5525 
L 341.28 234.5525 
L 341.28 11.759062 
L 49.3975 11.759062 
z
" style="fill: #ffffff"/>
   </g>
   <g id="matplotlib.axis_1">
    <g id="xtick_1">
     <g id="line2d_1">
      <defs>
       <path id="m930e3bcb92" d="M 0 0 
L 0 -6 
" style="stroke: #000000; stroke-width: 2"/>
      </defs>
      <g>
       <use xlink:href="#m930e3bcb92" x="62.664886" y="234.5525" style="fill: #ffffff; stroke: #000000; stroke-width: 2"/>
      </g>
     </g>
     <g id="line2d_2">
      <defs>
       <path id="m3bae61b86c" d="M 0 0 
L 0 6 
" style="stroke: #000000; stroke-width: 2"/>
      </defs>
      <g>
       <use xlink:href="#m3bae61b86c" x="62.664886" y="11.759062" style="fill: #ffffff; stroke: #000000; stroke-width: 2"/>
      </g>
     </g>
     <g id="text_1">
      <!-- 0.0 -->
      <g transform="translate(53.123011 247.170625)scale(0.12 -0.12)">
       <defs>
        <path id="DejaVuSans-30" d="M 2034 4250 
Q 1547 4250 1301 3770 
Q 1056 3291 1056 2328 
Q 1056 1369 1301 889 
Q 1547 409 2034 409 
Q 2525 409 2770 889 
Q 3016 1369 3016 2328 
Q 3016 3291 2770 3770 
Q 2525 4250 2034 4250 
z
M 2034 4750 
Q 2819 4750 3233 4129 
Q 3647 3509 3647 2328 
Q 3647 1150 3233 529 
Q 2819 -91 2034 -91 
Q 1250 -91 836 529 
Q 422 1150 422 2328 
Q 422 3509 836 4129 
Q 1250 4750 2034 4750 
z
" transform="scale(0.015625)"/>
        <path id="DejaVuSans-2e" d="M 684 794 
L 1344 794 
L 1344 0 
L 684 0 
L 684 794 
z
" transform="scale(0.015625)"/>
       </defs>
       <use xlink:href="#DejaVuSans-30"/>
       <use xlink:href="#DejaVuSans-2e" x="63.623047"/>
       <use xlink:href="#DejaVuSans-30" x="95.410156"/>
      </g>
     </g>
    </g>
    <g id="xtick_2">
     <g id="line2d_3">
      <g>
       <use xlink:href="#m930e3bcb92" x="115.734432" y="234.5525" style="fill: #ffffff; stroke: #000000; stroke-width: 2"/>
      </g>
     </g>
     <g id="line2d_4">
      <g>
       <use xlink:href="#m3bae61b86c" x="115.734432" y="11.759062" style="fill: #ffffff; stroke: #000000; stroke-width: 2"/>
      </g>
     </g>
     <g id="text_2">
      <!-- 0.2 -->
      <g transform="translate(106.192557 247.170625)scale(0.12 -0.12)">
       <defs>
        <path id="DejaVuSans-32" d="M 1228 531 
L 3431 531 
L 3431 0 
L 469 0 
L 469 531 
Q 828 903 1448 1529 
Q 2069 2156 2228 2338 
Q 2531 2678 2651 2914 
Q 2772 3150 2772 3378 
Q 2772 3750 2511 3984 
Q 2250 4219 1831 4219 
Q 1534 4219 1204 4116 
Q 875 4013 500 3803 
L 500 4441 
Q 881 4594 1212 4672 
Q 1544 4750 1819 4750 
Q 2544 4750 2975 4387 
Q 3406 4025 3406 3419 
Q 3406 3131 3298 2873 
Q 3191 2616 2906 2266 
Q 2828 2175 2409 1742 
Q 1991 1309 1228 531 
z
" transform="scale(0.015625)"/>
       </defs>
       <use xlink:href="#DejaVuSans-30"/>
       <use xlink:href="#DejaVuSans-2e" x="63.623047"/>
       <use xlink:href="#DejaVuSans-32" x="95.410156"/>
      </g>
     </g>
    </g>
    <g id="xtick_3">
     <g id="line2d_5">
      <g>
       <use xlink:href="#m930e3bcb92" x="168.803977" y="234.5525" style="fill: #ffffff; stroke: #000000; stroke-width: 2"/>
      </g>
     </g>
     <g id="line2d_6">
      <g>
       <use xlink:href="#m3bae61b86c" x="168.803977" y="11.759062" style="fill: #ffffff; stroke: #000000; stroke-width: 2"/>
      </g>
     </g>
     <g id="text_3">
      <!-- 0.4 -->
      <g transform="translate(159.262102 247.170625)scale(0.12 -0.12)">
       <defs>
        <path id="DejaVuSans-34" d="M 2419 4116 
L 825 1625 
L 2419 1625 
L 2419 4116 
z
M 2253 4666 
L 3047 4666 
L 3047 1625 
L 3713 1625 
L 3713 1100 
L 3047 1100 
L 3047 0 
L 2419 0 
L 2419 1100 
L 313 1100 
L 313 1709 
L 2253 4666 
z
" transform="scale(0.015625)"/>
       </defs>
       <use xlink:href="#DejaVuSans-30"/>
       <use xlink:href="#DejaVuSans-2e" x="63.623047"/>
       <use xlink:href="#DejaVuSans-34" x="95.410156"/>
      </g>
     </g>
    </g>
    <g id="xtick_4">
     <g id="line2d_7">
      <g>
       <use xlink:href="#m930e3bcb92" x="221.873523" y="234.5525" style="fill: #ffffff; stroke: #000000; stroke-width: 2"/>
      </g>
     </g>
     <g id="line2d_8">
      <g>
       <use xlink:href="#m3bae61b86c" x="221.873523" y="11.759062" style="fill: #ffffff; stroke: #000000; stroke-width: 2"/>
      </g>
     </g>
     <g id="text_4">
      <!-- 0.6 -->
      <g transform="translate(212.331648 247.170625)scale(0.12 -0.12)">
       <defs>
        <path id="DejaVuSans-36" d="M 2113 2584 
Q 1688 2584 1439 2293 
Q 1191 2003 1191 1497 
Q 1191 994 1439 701 
Q 1688 409 2113 409 
Q 2538 409 2786 701 
Q 3034 994 3034 1497 
Q 3034 2003 2786 2293 
Q 2538 2584 2113 2584 
z
M 3366 4563 
L 3366 3988 
Q 3128 4100 2886 4159 
Q 2644 4219 2406 4219 
Q 1781 4219 1451 3797 
Q 1122 3375 1075 2522 
Q 1259 2794 1537 2939 
Q 1816 3084 2150 3084 
Q 2853 3084 3261 2657 
Q 3669 2231 3669 1497 
Q 3669 778 3244 343 
Q 2819 -91 2113 -91 
Q 1303 -91 875 529 
Q 447 1150 447 2328 
Q 447 3434 972 4092 
Q 1497 4750 2381 4750 
Q 2619 4750 2861 4703 
Q 3103 4656 3366 4563 
z
" transform="scale(0.015625)"/>
       </defs>
       <use xlink:href="#DejaVuSans-30"/>
       <use xlink:href="#DejaVuSans-2e" x="63.623047"/>
       <use xlink:href="#DejaVuSans-36" x="95.410156"/>
      </g>
     </g>
    </g>
    <g id="xtick_5">
     <g id="line2d_9">
      <g>
       <use xlink:href="#m930e3bcb92" x="274.943068" y="234.5525" style="fill: #ffffff; stroke: #000000; stroke-width: 2"/>
      </g>
     </g>
     <g id="line2d_10">
      <g>
       <use xlink:href="#m3bae61b86c" x="274.943068" y="11.759062" style="fill: #ffffff; stroke: #000000; stroke-width: 2"/>
      </g>
     </g>
     <g id="text_5">
      <!-- 0.8 -->
      <g transform="translate(265.401193 247.170625)scale(0.12 -0.12)">
       <defs>
        <path id="DejaVuSans-38" d="M 2034 2216 
Q 1584 2216 1326 1975 
Q 1069 1734 1069 1313 
Q 1069 891 1326 650 
Q 1584 409 2034 409 
Q 2484 409 2743 651 
Q 3003 894 3003 1313 
Q 3003 1734 2745 1975 
Q 2488 2216 2034 2216 
z
M 1403 2484 
Q 997 2584 770 2862 
Q 544 3141 544 3541 
Q 544 4100 942 4425 
Q 1341 4750 2034 4750 
Q 2731 4750 3128 4425 
Q 3525 4100 3525 3541 
Q 3525 3141 3298 2862 
Q 3072 2584 2669 2484 
Q 3125 2378 3379 2068 
Q 3634 1759 3634 1313 
Q 3634 634 3220 271 
Q 2806 -91 2034 -91 
Q 1263 -91 848 271 
Q 434 634 434 1313 
Q 434 1759 690 2068 
Q 947 2378 1403 2484 
z
M 1172 3481 
Q 1172 3119 1398 2916 
Q 1625 2713 2034 2713 
Q 2441 2713 2670 2916 
Q 2900 3119 2900 3481 
Q 2900 3844 2670 4047 
Q 2441 4250 2034 4250 
Q 1625 4250 1398 4047 
Q 1172 3844 1172 3481 
z
" transform="scale(0.015625)"/>
       </defs>
       <use xlink:href="#DejaVuSans-30"/>
       <use xlink:href="#DejaVuSans-2e" x="63.623047"/>
       <use xlink:href="#DejaVuSans-38" x="95.410156"/>
      </g>
     </g>
    </g>
    <g id="xtick_6">
     <g id="line2d_11">
      <g>
       <use xlink:href="#m930e3bcb92" x="328.012614" y="234.5525" style="fill: #ffffff; stroke: #000000; stroke-width: 2"/>
      </g>
     </g>
     <g id="line2d_12">
      <g>
       <use xlink:href="#m3bae61b86c" x="328.012614" y="11.759062" style="fill: #ffffff; stroke: #000000; stroke-width: 2"/>
      </g>
     </g>
     <g id="text_6">
      <!-- 1.0 -->
      <g transform="translate(318.470739 247.170625)scale(0.12 -0.12)">
       <defs>
        <path id="DejaVuSans-31" d="M 794 531 
L 1825 531 
L 1825 4091 
L 703 3866 
L 703 4441 
L 1819 4666 
L 2450 4666 
L 2450 531 
L 3481 531 
L 3481 0 
L 794 0 
L 794 531 
z
" transform="scale(0.015625)"/>
       </defs>
       <use xlink:href="#DejaVuSans-31"/>
       <use xlink:href="#DejaVuSans-2e" x="63.623047"/>
       <use xlink:href="#DejaVuSans-30" x="95.410156"/>
      </g>
     </g>
    </g>
    <g id="text_7">
     <!-- Fractional distance along given axis -->
     <g transform="translate(87.823438 266.784375)scale(0.12 -0.12)">
      <defs>
       <path id="DejaVuSans-46" d="M 628 4666 
L 3309 4666 
L 3309 4134 
L 1259 4134 
L 1259 2759 
L 3109 2759 
L 3109 2228 
L 1259 2228 
L 1259 0 
L 628 0 
L 628 4666 
z
" transform="scale(0.015625)"/>
       <path id="DejaVuSans-72" d="M 2631 2963 
Q 2534 3019 2420 3045 
Q 2306 3072 2169 3072 
Q 1681 3072 1420 2755 
Q 1159 2438 1159 1844 
L 1159 0 
L 581 0 
L 581 3500 
L 1159 3500 
L 1159 2956 
Q 1341 3275 1631 3429 
Q 1922 3584 2338 3584 
Q 2397 3584 2469 3576 
Q 2541 3569 2628 3553 
L 2631 2963 
z
" transform="scale(0.015625)"/>
       <path id="DejaVuSans-61" d="M 2194 1759 
Q 1497 1759 1228 1600 
Q 959 1441 959 1056 
Q 959 750 1161 570 
Q 1363 391 1709 391 
Q 2188 391 2477 730 
Q 2766 1069 2766 1631 
L 2766 1759 
L 2194 1759 
z
M 3341 1997 
L 3341 0 
L 2766 0 
L 2766 531 
Q 2569 213 2275 61 
Q 1981 -91 1556 -91 
Q 1019 -91 701 211 
Q 384 513 384 1019 
Q 384 1609 779 1909 
Q 1175 2209 1959 2209 
L 2766 2209 
L 2766 2266 
Q 2766 2663 2505 2880 
Q 2244 3097 1772 3097 
Q 1472 3097 1187 3025 
Q 903 2953 641 2809 
L 641 3341 
Q 956 3463 1253 3523 
Q 1550 3584 1831 3584 
Q 2591 3584 2966 3190 
Q 3341 2797 3341 1997 
z
" transform="scale(0.015625)"/>
       <path id="DejaVuSans-63" d="M 3122 3366 
L 3122 2828 
Q 2878 2963 2633 3030 
Q 2388 3097 2138 3097 
Q 1578 3097 1268 2742 
Q 959 2388 959 1747 
Q 959 1106 1268 751 
Q 1578 397 2138 397 
Q 2388 397 2633 464 
Q 2878 531 3122 666 
L 3122 134 
Q 2881 22 2623 -34 
Q 2366 -91 2075 -91 
Q 1284 -91 818 406 
Q 353 903 353 1747 
Q 353 2603 823 3093 
Q 1294 3584 2113 3584 
Q 2378 3584 2631 3529 
Q 2884 3475 3122 3366 
z
" transform="scale(0.015625)"/>
       <path id="DejaVuSans-74" d="M 1172 4494 
L 1172 3500 
L 2356 3500 
L 2356 3053 
L 1172 3053 
L 1172 1153 
Q 1172 725 1289 603 
Q 1406 481 1766 481 
L 2356 481 
L 2356 0 
L 1766 0 
Q 1100 0 847 248 
Q 594 497 594 1153 
L 594 3053 
L 172 3053 
L 172 3500 
L 594 3500 
L 594 4494 
L 1172 4494 
z
" transform="scale(0.015625)"/>
       <path id="DejaVuSans-69" d="M 603 3500 
L 1178 3500 
L 1178 0 
L 603 0 
L 603 3500 
z
M 603 4863 
L 1178 4863 
L 1178 4134 
L 603 4134 
L 603 4863 
z
" transform="scale(0.015625)"/>
       <path id="DejaVuSans-6f" d="M 1959 3097 
Q 1497 3097 1228 2736 
Q 959 2375 959 1747 
Q 959 1119 1226 758 
Q 1494 397 1959 397 
Q 2419 397 2687 759 
Q 2956 1122 2956 1747 
Q 2956 2369 2687 2733 
Q 2419 3097 1959 3097 
z
M 1959 3584 
Q 2709 3584 3137 3096 
Q 3566 2609 3566 1747 
Q 3566 888 3137 398 
Q 2709 -91 1959 -91 
Q 1206 -91 779 398 
Q 353 888 353 1747 
Q 353 2609 779 3096 
Q 1206 3584 1959 3584 
z
" transform="scale(0.015625)"/>
       <path id="DejaVuSans-6e" d="M 3513 2113 
L 3513 0 
L 2938 0 
L 2938 2094 
Q 2938 2591 2744 2837 
Q 2550 3084 2163 3084 
Q 1697 3084 1428 2787 
Q 1159 2491 1159 1978 
L 1159 0 
L 581 0 
L 581 3500 
L 1159 3500 
L 1159 2956 
Q 1366 3272 1645 3428 
Q 1925 3584 2291 3584 
Q 2894 3584 3203 3211 
Q 3513 2838 3513 2113 
z
" transform="scale(0.015625)"/>
       <path id="DejaVuSans-6c" d="M 603 4863 
L 1178 4863 
L 1178 0 
L 603 0 
L 603 4863 
z
" transform="scale(0.015625)"/>
       <path id="DejaVuSans-20" transform="scale(0.015625)"/>
       <path id="DejaVuSans-64" d="M 2906 2969 
L 2906 4863 
L 3481 4863 
L 3481 0 
L 2906 0 
L 2906 525 
Q 2725 213 2448 61 
Q 2172 -91 1784 -91 
Q 1150 -91 751 415 
Q 353 922 353 1747 
Q 353 2572 751 3078 
Q 1150 3584 1784 3584 
Q 2172 3584 2448 3432 
Q 2725 3281 2906 2969 
z
M 947 1747 
Q 947 1113 1208 752 
Q 1469 391 1925 391 
Q 2381 391 2643 752 
Q 2906 1113 2906 1747 
Q 2906 2381 2643 2742 
Q 2381 3103 1925 3103 
Q 1469 3103 1208 2742 
Q 947 2381 947 1747 
z
" transform="scale(0.015625)"/>
       <path id="DejaVuSans-73" d="M 2834 3397 
L 2834 2853 
Q 2591 2978 2328 3040 
Q 2066 3103 1784 3103 
Q 1356 3103 1142 2972 
Q 928 2841 928 2578 
Q 928 2378 1081 2264 
Q 1234 2150 1697 2047 
L 1894 2003 
Q 2506 1872 2764 1633 
Q 3022 1394 3022 966 
Q 3022 478 2636 193 
Q 2250 -91 1575 -91 
Q 1294 -91 989 -36 
Q 684 19 347 128 
L 347 722 
Q 666 556 975 473 
Q 1284 391 1588 391 
Q 1994 391 2212 530 
Q 2431 669 2431 922 
Q 2431 1156 2273 1281 
Q 2116 1406 1581 1522 
L 1381 1569 
Q 847 1681 609 1914 
Q 372 2147 372 2553 
Q 372 3047 722 3315 
Q 1072 3584 1716 3584 
Q 2034 3584 2315 3537 
Q 2597 3491 2834 3397 
z
" transform="scale(0.015625)"/>
       <path id="DejaVuSans-65" d="M 3597 1894 
L 3597 1613 
L 953 1613 
Q 991 1019 1311 708 
Q 1631 397 2203 397 
Q 2534 397 2845 478 
Q 3156 559 3463 722 
L 3463 178 
Q 3153 47 2828 -22 
Q 2503 -91 2169 -91 
Q 1331 -91 842 396 
Q 353 884 353 1716 
Q 353 2575 817 3079 
Q 1281 3584 2069 3584 
Q 2775 3584 3186 3129 
Q 3597 2675 3597 1894 
z
M 3022 2063 
Q 3016 2534 2758 2815 
Q 2500 3097 2075 3097 
Q 1594 3097 1305 2825 
Q 1016 2553 972 2059 
L 3022 2063 
z
" transform="scale(0.015625)"/>
       <path id="DejaVuSans-67" d="M 2906 1791 
Q 2906 2416 2648 2759 
Q 2391 3103 1925 3103 
Q 1463 3103 1205 2759 
Q 947 2416 947 1791 
Q 947 1169 1205 825 
Q 1463 481 1925 481 
Q 2391 481 2648 825 
Q 2906 1169 2906 1791 
z
M 3481 434 
Q 3481 -459 3084 -895 
Q 2688 -1331 1869 -1331 
Q 1566 -1331 1297 -1286 
Q 1028 -1241 775 -1147 
L 775 -588 
Q 1028 -725 1275 -790 
Q 1522 -856 1778 -856 
Q 2344 -856 2625 -561 
Q 2906 -266 2906 331 
L 2906 616 
Q 2728 306 2450 153 
Q 2172 0 1784 0 
Q 1141 0 747 490 
Q 353 981 353 1791 
Q 353 2603 747 3093 
Q 1141 3584 1784 3584 
Q 2172 3584 2450 3431 
Q 2728 3278 2906 2969 
L 2906 3500 
L 3481 3500 
L 3481 434 
z
" transform="scale(0.015625)"/>
       <path id="DejaVuSans-76" d="M 191 3500 
L 800 3500 
L 1894 563 
L 2988 3500 
L 3597 3500 
L 2284 0 
L 1503 0 
L 191 3500 
z
" transform="scale(0.015625)"/>
       <path id="DejaVuSans-78" d="M 3513 3500 
L 2247 1797 
L 3578 0 
L 2900 0 
L 1881 1375 
L 863 0 
L 184 0 
L 1544 1831 
L 300 3500 
L 978 3500 
L 1906 2253 
L 2834 3500 
L 3513 3500 
z
" transform="scale(0.015625)"/>
      </defs>
      <use xlink:href="#DejaVuSans-46"/>
      <use xlink:href="#DejaVuSans-72" x="50.269531"/>
      <use xlink:href="#DejaVuSans-61" x="91.382812"/>
      <use xlink:href="#DejaVuSans-63" x="152.662109"/>
      <use xlink:href="#DejaVuSans-74" x="207.642578"/>
      <use xlink:href="#DejaVuSans-69" x="246.851562"/>
      <use xlink:href="#DejaVuSans-6f" x="274.634766"/>
      <use xlink:href="#DejaVuSans-6e" x="335.816406"/>
      <use xlink:href="#DejaVuSans-61" x="399.195312"/>
      <use xlink:href="#DejaVuSans-6c" x="460.474609"/>
      <use xlink:href="#DejaVuSans-20" x="488.257812"/>
      <use xlink:href="#DejaVuSans-64" x="520.044922"/>
      <use xlink:href="#DejaVuSans-69" x="583.521484"/>
      <use xlink:href="#DejaVuSans-73" x="611.304688"/>
      <use xlink:href="#DejaVuSans-74" x="663.404297"/>
      <use xlink:href="#DejaVuSans-61" x="702.613281"/>
      <use xlink:href="#DejaVuSans-6e" x="763.892578"/>
      <use xlink:href="#DejaVuSans-63" x="827.271484"/>
      <use xlink:href="#DejaVuSans-65" x="882.251953"/>
      <use xlink:href="#DejaVuSans-20" x="943.775391"/>
      <use xlink:href="#DejaVuSans-61" x="975.5625"/>
      <use xlink:href="#DejaVuSans-6c" x="1036.841797"/>
      <use xlink:href="#DejaVuSans-6f" x="1064.625"/>
      <use xlink:href="#DejaVuSans-6e" x="1125.806641"/>
      <use xlink:href="#DejaVuSans-67" x="1189.185547"/>
      <use xlink:href="#DejaVuSans-20" x="1252.662109"/>
      <use xlink:href="#DejaVuSans-67" x="1284.449219"/>
      <use xlink:href="#DejaVuSans-69" x="1347.925781"/>
      <use xlink:href="#DejaVuSans-76" x="1375.708984"/>
      <use xlink:href="#DejaVuSans-65" x="1434.888672"/>
      <use xlink:href="#DejaVuSans-6e" x="1496.412109"/>
      <use xlink:href="#DejaVuSans-20" x="1559.791016"/>
      <use xlink:href="#DejaVuSans-61" x="1591.578125"/>
      <use xlink:href="#DejaVuSans-78" x="1652.857422"/>
      <use xlink:href="#DejaVuSans-69" x="1712.037109"/>
      <use xlink:href="#DejaVuSans-73" x="1739.820312"/>
     </g>
    </g>
   </g>
   <g id="matplotlib.axis_2">
    <g id="ytick_1">
     <g id="line2d_13">
      <defs>
       <path id="m4e994a074b" d="M 0 0 
L 6 0 
" style="stroke: #000000; stroke-width: 2"/>
      </defs>
      <g>
       <use xlink:href="#m4e994a074b" x="49.3975" y="234.5525" style="fill: #ffffff; stroke: #000000; stroke-width: 2"/>
      </g>
     </g>
     <g id="line2d_14">
      <defs>
       <path id="m982d102fb5" d="M 0 0 
L -6 0 
" style="stroke: #000000; stroke-width: 2"/>
      </defs>
      <g>
       <use xlink:href="#m982d102fb5" x="341.28" y="234.5525" style="fill: #ffffff; stroke: #000000; stroke-width: 2"/>
      </g>
     </g>
     <g id="text_8">
      <!-- 0.0 -->
      <g transform="translate(26.81375 239.111562)scale(0.12 -0.12)">
       <use xlink:href="#DejaVuSans-30"/>
       <use xlink:href="#DejaVuSans-2e" x="63.623047"/>
       <use xlink:href="#DejaVuSans-30" x="95.410156"/>
      </g>
     </g>
    </g>
    <g id="ytick_2">
     <g id="line2d_15">
      <g>
       <use xlink:href="#m4e994a074b" x="49.3975" y="189.993812" style="fill: #ffffff; stroke: #000000; stroke-width: 2"/>
      </g>
     </g>
     <g id="line2d_16">
      <g>
       <use xlink:href="#m982d102fb5" x="341.28" y="189.993812" style="fill: #ffffff; stroke: #000000; stroke-width: 2"/>
      </g>
     </g>
     <g id="text_9">
      <!-- 0.2 -->
      <g transform="translate(26.81375 194.552875)scale(0.12 -0.12)">
       <use xlink:href="#DejaVuSans-30"/>
       <use xlink:href="#DejaVuSans-2e" x="63.623047"/>
       <use xlink:href="#DejaVuSans-32" x="95.410156"/>
      </g>
     </g>
    </g>
    <g id="ytick_3">
     <g id="line2d_17">
      <g>
       <use xlink:href="#m4e994a074b" x="49.3975" y="145.435125" style="fill: #ffffff; stroke: #000000; stroke-width: 2"/>
      </g>
     </g>
     <g id="line2d_18">
      <g>
       <use xlink:href="#m982d102fb5" x="341.28" y="145.435125" style="fill: #ffffff; stroke: #000000; stroke-width: 2"/>
      </g>
     </g>
     <g id="text_10">
      <!-- 0.4 -->
      <g transform="translate(26.81375 149.994187)scale(0.12 -0.12)">
       <use xlink:href="#DejaVuSans-30"/>
       <use xlink:href="#DejaVuSans-2e" x="63.623047"/>
       <use xlink:href="#DejaVuSans-34" x="95.410156"/>
      </g>
     </g>
    </g>
    <g id="ytick_4">
     <g id="line2d_19">
      <g>
       <use xlink:href="#m4e994a074b" x="49.3975" y="100.876437" style="fill: #ffffff; stroke: #000000; stroke-width: 2"/>
      </g>
     </g>
     <g id="line2d_20">
      <g>
       <use xlink:href="#m982d102fb5" x="341.28" y="100.876437" style="fill: #ffffff; stroke: #000000; stroke-width: 2"/>
      </g>
     </g>
     <g id="text_11">
      <!-- 0.6 -->
      <g transform="translate(26.81375 105.4355)scale(0.12 -0.12)">
       <use xlink:href="#DejaVuSans-30"/>
       <use xlink:href="#DejaVuSans-2e" x="63.623047"/>
       <use xlink:href="#DejaVuSans-36" x="95.410156"/>
      </g>
     </g>
    </g>
    <g id="ytick_5">
     <g id="line2d_21">
      <g>
       <use xlink:href="#m4e994a074b" x="49.3975" y="56.31775" style="fill: #ffffff; stroke: #000000; stroke-width: 2"/>
      </g>
     </g>
     <g id="line2d_22">
      <g>
       <use xlink:href="#m982d102fb5" x="341.28" y="56.31775" style="fill: #ffffff; stroke: #000000; stroke-width: 2"/>
      </g>
     </g>
     <g id="text_12">
      <!-- 0.8 -->
      <g transform="translate(26.81375 60.876812)scale(0.12 -0.12)">
       <use xlink:href="#DejaVuSans-30"/>
       <use xlink:href="#DejaVuSans-2e" x="63.623047"/>
       <use xlink:href="#DejaVuSans-38" x="95.410156"/>
      </g>
     </g>
    </g>
    <g id="ytick_6">
     <g id="line2d_23">
      <g>
       <use xlink:href="#m4e994a074b" x="49.3975" y="11.759062" style="fill: #ffffff; stroke: #000000; stroke-width: 2"/>
      </g>
     </g>
     <g id="line2d_24">
      <g>
       <use xlink:href="#m982d102fb5" x="341.28" y="11.759062" style="fill: #ffffff; stroke: #000000; stroke-width: 2"/>
      </g>
     </g>
     <g id="text_13">
      <!-- 1.0 -->
      <g transform="translate(26.81375 16.318125)scale(0.12 -0.12)">
       <use xlink:href="#DejaVuSans-31"/>
       <use xlink:href="#DejaVuSans-2e" x="63.623047"/>
       <use xlink:href="#DejaVuSans-30" x="95.410156"/>
      </g>
     </g>
    </g>
    <g id="text_14">
     <!-- Porosity of slice -->
     <g transform="translate(16.318125 169.973594)rotate(-90)scale(0.12 -0.12)">
      <defs>
       <path id="DejaVuSans-50" d="M 1259 4147 
L 1259 2394 
L 2053 2394 
Q 2494 2394 2734 2622 
Q 2975 2850 2975 3272 
Q 2975 3691 2734 3919 
Q 2494 4147 2053 4147 
L 1259 4147 
z
M 628 4666 
L 2053 4666 
Q 2838 4666 3239 4311 
Q 3641 3956 3641 3272 
Q 3641 2581 3239 2228 
Q 2838 1875 2053 1875 
L 1259 1875 
L 1259 0 
L 628 0 
L 628 4666 
z
" transform="scale(0.015625)"/>
       <path id="DejaVuSans-79" d="M 2059 -325 
Q 1816 -950 1584 -1140 
Q 1353 -1331 966 -1331 
L 506 -1331 
L 506 -850 
L 844 -850 
Q 1081 -850 1212 -737 
Q 1344 -625 1503 -206 
L 1606 56 
L 191 3500 
L 800 3500 
L 1894 763 
L 2988 3500 
L 3597 3500 
L 2059 -325 
z
" transform="scale(0.015625)"/>
       <path id="DejaVuSans-66" d="M 2375 4863 
L 2375 4384 
L 1825 4384 
Q 1516 4384 1395 4259 
Q 1275 4134 1275 3809 
L 1275 3500 
L 2222 3500 
L 2222 3053 
L 1275 3053 
L 1275 0 
L 697 0 
L 697 3053 
L 147 3053 
L 147 3500 
L 697 3500 
L 697 3744 
Q 697 4328 969 4595 
Q 1241 4863 1831 4863 
L 2375 4863 
z
" transform="scale(0.015625)"/>
      </defs>
      <use xlink:href="#DejaVuSans-50"/>
      <use xlink:href="#DejaVuSans-6f" x="56.677734"/>
      <use xlink:href="#DejaVuSans-72" x="117.859375"/>
      <use xlink:href="#DejaVuSans-6f" x="156.722656"/>
      <use xlink:href="#DejaVuSans-73" x="217.904297"/>
      <use xlink:href="#DejaVuSans-69" x="270.003906"/>
      <use xlink:href="#DejaVuSans-74" x="297.787109"/>
      <use xlink:href="#DejaVuSans-79" x="336.996094"/>
      <use xlink:href="#DejaVuSans-20" x="396.175781"/>
      <use xlink:href="#DejaVuSans-6f" x="427.962891"/>
      <use xlink:href="#DejaVuSans-66" x="489.144531"/>
      <use xlink:href="#DejaVuSans-20" x="524.349609"/>
      <use xlink:href="#DejaVuSans-73" x="556.136719"/>
      <use xlink:href="#DejaVuSans-6c" x="608.236328"/>
      <use xlink:href="#DejaVuSans-69" x="636.019531"/>
      <use xlink:href="#DejaVuSans-63" x="663.802734"/>
      <use xlink:href="#DejaVuSans-65" x="718.783203"/>
     </g>
    </g>
   </g>
   <g id="line2d_25">
    <path d="M 62.664886 118.376862 
L 66.665103 118.642358 
L 67.998509 118.584803 
L 69.331915 118.7946 
L 70.66532 118.880004 
L 74.665537 119.501969 
L 78.665754 119.995828 
L 81.332566 119.35901 
L 82.665971 118.291458 
L 86.666188 116.056097 
L 87.999594 115.649499 
L 89.333 115.671778 
L 90.666405 116.187916 
L 91.999811 117.43556 
L 93.333217 117.929419 
L 94.666622 118.298884 
L 98.666839 118.575519 
L 100.000245 118.428847 
L 102.667056 117.894143 
L 105.333868 117.740044 
L 109.334085 115.770179 
L 112.000896 115.187203 
L 113.334302 114.438988 
L 114.667707 114.091802 
L 116.001113 114.011967 
L 117.334519 113.596086 
L 118.667924 113.516252 
L 120.00133 113.640645 
L 121.334736 113.356583 
L 122.668141 113.224764 
L 124.001547 113.46798 
L 125.334953 113.421565 
L 126.668358 112.977834 
L 128.001764 112.760611 
L 129.33517 112.784747 
L 132.001981 113.752042 
L 136.002198 115.350584 
L 137.335604 116.078376 
L 138.669009 117.255468 
L 140.002415 117.870007 
L 141.335821 118.969121 
L 144.002632 120.859152 
L 145.336038 121.559095 
L 146.669443 122.446555 
L 148.002849 123.042528 
L 149.336255 122.98126 
L 152.003066 122.650783 
L 153.336472 122.899569 
L 157.336689 123.324733 
L 160.0035 123.811165 
L 161.336906 123.716478 
L 162.670311 124.10451 
L 168.003934 126.453124 
L 169.33734 127.59494 
L 170.670745 128.205766 
L 173.337557 128.876003 
L 174.670962 129.429273 
L 176.004368 130.277745 
L 177.337774 131.289598 
L 178.671179 131.976545 
L 180.004585 132.069375 
L 181.337991 131.972832 
L 182.671396 131.503109 
L 184.004802 131.230187 
L 185.338208 130.793883 
L 186.671613 130.164491 
L 190.67183 130.235043 
L 192.005236 130.803166 
L 193.338642 131.816876 
L 194.672047 132.325588 
L 196.005453 133.177773 
L 197.338858 133.781172 
L 198.672264 134.161777 
L 204.005887 133.981686 
L 205.339292 133.170346 
L 206.672698 132.539098 
L 208.006104 131.729615 
L 209.339509 131.109507 
L 210.672915 130.636071 
L 212.006321 129.782029 
L 213.339726 129.087657 
L 214.673132 129.041241 
L 216.006538 128.777602 
L 220.006755 129.902709 
L 222.673566 131.274745 
L 224.006972 131.631215 
L 226.673783 132.01182 
L 229.340594 131.141069 
L 230.674 130.582229 
L 233.340811 130.131072 
L 234.674217 129.752324 
L 241.341245 126.221048 
L 242.674651 125.068092 
L 244.008057 124.156495 
L 245.341462 122.973833 
L 246.674868 121.997255 
L 248.008274 121.314022 
L 249.341679 120.385716 
L 250.675085 119.962409 
L 252.008491 119.375719 
L 254.675302 119.734045 
L 258.675519 120.5918 
L 261.34233 120.599227 
L 264.009142 120.242757 
L 265.342547 120.253897 
L 266.675953 119.893714 
L 269.342764 118.961695 
L 270.67617 118.722192 
L 273.342981 116.976977 
L 274.676387 115.768322 
L 277.343198 114.028677 
L 278.676604 113.609082 
L 280.01001 113.805883 
L 281.343415 114.375863 
L 285.343632 117.491258 
L 286.677038 118.271035 
L 288.010444 118.813166 
L 289.343849 119.219764 
L 290.677255 119.79717 
L 292.010661 120.92599 
L 294.677472 122.615507 
L 296.010878 123.948555 
L 297.344283 124.969691 
L 302.677906 130.036385 
L 304.011312 130.805023 
L 305.344717 131.187485 
L 306.678123 131.439984 
L 308.011529 130.994397 
L 309.344934 130.294454 
L 310.67834 130.077231 
L 312.011746 130.043812 
L 314.678557 129.674346 
L 316.011963 129.596368 
L 318.678774 127.596797 
L 320.01218 126.334301 
L 321.345585 125.485829 
L 322.678991 124.856438 
L 325.345802 124.176918 
L 328.012614 123.837158 
L 328.012614 123.837158 
" clip-path="url(#p66509660f6)" style="fill: none; stroke: #0000ff; stroke-opacity: 0.5; stroke-width: 2; stroke-linecap: square"/>
   </g>
   <g id="line2d_26">
    <path d="M 62.664886 131.644211 
L 64.439788 132.229044 
L 66.214689 133.095153 
L 67.98959 134.256464 
L 68.877041 134.298238 
L 69.764491 134.738255 
L 70.651942 134.958264 
L 71.539392 135.378786 
L 73.314293 135.654493 
L 74.201744 134.306593 
L 75.089195 132.334871 
L 75.976645 130.853295 
L 77.751546 129.641855 
L 79.526448 128.221547 
L 83.07625 125.670562 
L 83.963701 125.316878 
L 85.738602 126.149568 
L 86.626052 125.940699 
L 87.513503 125.236115 
L 89.288404 123.20034 
L 90.175855 123.133502 
L 91.063305 122.153211 
L 92.838207 121.768892 
L 93.725657 121.114436 
L 94.613108 119.805525 
L 95.500558 118.961695 
L 97.275459 116.867436 
L 98.16291 116.327162 
L 99.050361 115.953983 
L 99.937811 115.970693 
L 101.712712 117.212766 
L 102.600163 118.064951 
L 106.149965 120.835945 
L 107.924867 121.685345 
L 108.812317 121.816236 
L 109.699768 122.395499 
L 110.587218 122.353725 
L 111.474669 122.108652 
L 112.36212 121.590657 
L 113.24957 120.705053 
L 114.137021 120.184274 
L 115.024471 120.039458 
L 116.799373 119.178918 
L 117.686823 118.499398 
L 118.574274 118.084446 
L 119.461724 117.914566 
L 120.349175 117.190487 
L 121.236625 116.268679 
L 123.011527 115.260539 
L 124.786428 114.650642 
L 125.673878 114.486332 
L 126.561329 114.670136 
L 127.44878 114.299742 
L 128.33623 113.51718 
L 129.223681 112.51461 
L 130.111131 112.408783 
L 130.998582 112.951842 
L 133.660934 115.099014 
L 134.548384 116.357796 
L 135.435835 117.324163 
L 136.323286 117.973049 
L 138.098187 121.000255 
L 138.985637 122.687915 
L 139.873088 124.0386 
L 142.53544 128.809165 
L 143.42289 129.842369 
L 144.310341 129.864649 
L 146.972693 127.191127 
L 147.860143 125.896141 
L 148.747594 123.829731 
L 151.409946 118.738901 
L 152.297396 117.106939 
L 153.184847 114.898499 
L 154.072297 113.210839 
L 154.959748 112.709554 
L 155.847199 113.141216 
L 158.50955 116.318808 
L 159.397001 117.076305 
L 160.284452 118.034317 
L 162.059353 119.610581 
L 162.946803 120.730118 
L 166.496606 127.018462 
L 167.384056 128.948411 
L 169.158958 131.685985 
L 170.046408 132.749824 
L 170.933859 133.434913 
L 171.821309 133.54631 
L 173.59621 133.086799 
L 174.483661 132.618933 
L 175.371112 131.825231 
L 176.258562 130.404923 
L 177.146013 128.672704 
L 178.033463 126.650853 
L 178.920914 125.05231 
L 182.470716 117.048456 
L 183.358167 115.775749 
L 185.133068 112.495115 
L 186.907969 108.75497 
L 187.79542 107.930635 
L 189.570321 107.540746 
L 190.457772 107.075665 
L 194.895025 107.930635 
L 195.782475 107.861012 
L 196.669926 107.646573 
L 197.557376 107.891646 
L 198.444827 107.774679 
L 199.332278 108.721551 
L 200.219728 110.98012 
L 201.994629 117.524677 
L 202.88208 120.273391 
L 203.769531 122.640571 
L 205.544432 126.595155 
L 207.319333 130.722403 
L 208.206784 133.03667 
L 209.094234 134.90535 
L 209.981685 136.4287 
L 211.756586 138.9769 
L 213.531487 140.982041 
L 216.193839 142.441338 
L 217.96874 143.55252 
L 219.743641 143.633283 
L 220.631092 143.176557 
L 223.293444 141.36079 
L 224.180894 141.104578 
L 225.955795 139.589582 
L 226.843246 139.419702 
L 228.618147 137.503679 
L 229.505598 136.27553 
L 230.393048 134.579515 
L 231.280499 132.109293 
L 232.16795 130.045668 
L 233.942851 125.369791 
L 235.717752 121.223048 
L 237.492653 118.340658 
L 239.267554 116.466408 
L 241.929906 113.798457 
L 242.817357 112.578663 
L 243.704807 111.793316 
L 244.592258 111.551028 
L 246.367159 112.074593 
L 247.25461 112.522964 
L 248.14206 112.717909 
L 249.029511 113.149571 
L 249.916961 113.901499 
L 250.804412 114.879005 
L 252.579313 115.750684 
L 255.241665 116.691987 
L 256.129116 116.778319 
L 257.016566 117.349227 
L 257.904017 118.064951 
L 258.791467 118.605225 
L 261.453819 120.551883 
L 262.34127 121.189629 
L 263.22872 122.395499 
L 264.116171 123.306167 
L 265.003622 123.846441 
L 265.891072 124.651282 
L 266.778523 125.848797 
L 267.665973 127.310879 
L 268.553424 128.254966 
L 269.440875 128.149139 
L 270.328325 127.464049 
L 271.215776 126.957194 
L 272.990677 125.497897 
L 273.878127 124.539885 
L 276.540479 122.726904 
L 280.977732 119.822234 
L 281.865183 119.070307 
L 282.752633 118.688773 
L 284.527535 118.96448 
L 285.414985 119.752611 
L 287.189886 122.829946 
L 288.964788 124.473047 
L 289.852238 125.781959 
L 290.739689 126.687057 
L 291.627139 126.742756 
L 292.51459 126.670348 
L 294.289491 125.667777 
L 296.951843 125.662207 
L 297.839293 125.121933 
L 298.726744 124.823947 
L 299.614195 125.06902 
L 301.389096 126.344512 
L 302.276546 126.25261 
L 303.163997 126.021462 
L 304.938898 126.653638 
L 305.826349 127.065806 
L 306.713799 127.731401 
L 307.60125 127.759251 
L 308.488701 128.575232 
L 309.376151 128.594726 
L 310.263602 128.491684 
L 311.151052 129.327159 
L 312.038503 129.730973 
L 312.925954 129.14057 
L 313.813404 128.338514 
L 314.700855 126.595155 
L 315.588305 124.381145 
L 317.363207 121.51268 
L 318.250657 120.30124 
L 319.138108 119.518678 
L 320.913009 118.543957 
L 321.800459 117.560881 
L 323.575361 116.160067 
L 325.350262 115.608654 
L 327.125163 115.441558 
L 328.012614 115.37472 
L 328.012614 115.37472 
" clip-path="url(#p66509660f6)" style="fill: none; stroke: #ff0000; stroke-opacity: 0.5; stroke-width: 2; stroke-linecap: square"/>
   </g>
   <g id="line2d_27">
    <path d="M 62.664886 106.178921 
L 63.99495 106.078664 
L 64.659982 106.156642 
L 65.325014 106.542817 
L 66.655078 108.2509 
L 69.315205 115.328305 
L 69.980237 116.795029 
L 71.310301 120.322591 
L 71.975333 120.927847 
L 72.640365 120.890715 
L 73.305397 121.083802 
L 74.635461 120.634502 
L 75.300492 119.301455 
L 76.630556 117.548813 
L 79.290684 115.692201 
L 79.955716 114.912424 
L 80.620748 113.323164 
L 81.28578 111.414567 
L 81.950811 110.434276 
L 82.615843 109.810454 
L 83.280875 109.524536 
L 83.945907 108.637076 
L 84.610939 107.136933 
L 85.275971 106.617082 
L 85.941003 106.576236 
L 87.936098 108.830163 
L 88.60113 110.478835 
L 89.266162 113.074378 
L 91.261258 122.572805 
L 91.92629 125.498826 
L 93.921386 131.57366 
L 95.251449 137.084084 
L 95.916481 138.729043 
L 96.581513 139.003821 
L 97.246545 138.92213 
L 97.911577 139.011248 
L 98.576609 139.765032 
L 99.241641 139.571944 
L 99.906673 139.078086 
L 101.236736 137.670774 
L 101.901768 136.879857 
L 102.5668 136.697909 
L 103.231832 135.654493 
L 103.896864 135.045524 
L 105.226928 132.780458 
L 109.217119 123.86872 
L 110.547183 121.96755 
L 111.212215 121.295456 
L 113.207311 117.786459 
L 113.872343 116.668779 
L 115.202406 115.929847 
L 115.867438 116.787602 
L 116.53247 117.912709 
L 117.862534 119.483403 
L 118.527566 119.542814 
L 119.85763 118.55881 
L 120.522661 117.374292 
L 122.517757 113.130077 
L 123.182789 112.175778 
L 123.847821 111.67078 
L 125.842917 111.904713 
L 126.507949 112.9964 
L 127.17298 114.771322 
L 128.503044 117.452269 
L 129.168076 119.401712 
L 129.833108 121.845013 
L 131.163172 123.801882 
L 132.493236 125.836729 
L 133.158268 125.877574 
L 133.823299 126.545955 
L 134.488331 126.891285 
L 135.818395 126.505109 
L 137.148459 124.574233 
L 137.813491 123.411994 
L 138.478523 122.881003 
L 139.143555 122.078946 
L 139.808587 120.857296 
L 140.473618 120.92042 
L 141.13865 121.640786 
L 141.803682 121.707624 
L 142.468714 121.930417 
L 143.133746 122.569092 
L 145.128842 123.259752 
L 147.788969 123.334016 
L 148.454001 123.935558 
L 149.784065 125.654781 
L 150.449097 125.784744 
L 151.779161 128.840727 
L 153.109224 130.326017 
L 153.774256 130.649067 
L 154.439288 130.021532 
L 155.769352 128.254038 
L 157.099416 125.328017 
L 158.42948 124.065521 
L 159.094512 123.415707 
L 160.424575 121.525676 
L 161.089607 121.733616 
L 163.749735 125.287172 
L 164.414767 125.736472 
L 165.079799 125.91842 
L 165.744831 125.736472 
L 166.409862 125.729045 
L 167.074894 125.90728 
L 168.404958 125.6882 
L 169.06999 125.762464 
L 170.400054 126.638785 
L 171.065086 127.418562 
L 171.730118 127.979259 
L 173.060181 127.741613 
L 173.725213 127.890142 
L 174.390245 127.819591 
L 175.055277 128.380287 
L 175.720309 129.145211 
L 177.050373 131.302595 
L 177.715405 131.848439 
L 178.380437 131.692483 
L 179.045469 132.353437 
L 179.7105 133.972403 
L 180.375532 135.892139 
L 181.705596 138.469117 
L 182.370628 139.003821 
L 183.03566 139.074372 
L 183.700692 138.584227 
L 185.695787 135.30545 
L 187.690883 130.207194 
L 189.685979 124.266035 
L 191.016043 121.72619 
L 192.346106 120.485973 
L 194.341202 119.609652 
L 195.671266 120.831303 
L 196.336298 121.670492 
L 197.666362 123.913279 
L 198.331394 124.540814 
L 199.661457 126.430845 
L 200.326489 128.008965 
L 200.991521 129.122932 
L 201.656553 129.223189 
L 202.321585 128.064663 
L 202.986617 126.456837 
L 204.316681 123.709052 
L 204.981713 122.390857 
L 205.646744 121.429132 
L 206.311776 120.979832 
L 206.976808 121.62222 
L 207.64184 123.140928 
L 208.306872 124.20291 
L 208.971904 124.67449 
L 210.301968 124.863864 
L 210.967 125.599083 
L 212.297063 126.549668 
L 212.962095 126.880145 
L 213.627127 127.076946 
L 214.292159 127.570805 
L 214.957191 128.863006 
L 216.952287 136.010963 
L 218.28235 138.658491 
L 218.947382 139.38257 
L 219.612414 139.408563 
L 220.277446 138.918417 
L 220.942478 137.759891 
L 221.60751 136.90585 
L 222.937574 132.37943 
L 224.267638 126.568234 
L 225.597701 121.176633 
L 228.257829 109.665639 
L 228.922861 107.760755 
L 230.252925 104.983263 
L 230.917957 104.266611 
L 231.582988 104.667639 
L 232.24802 104.701058 
L 233.578084 105.833591 
L 234.243116 106.598516 
L 235.57318 108.507113 
L 236.238212 108.82645 
L 238.233307 108.741046 
L 238.898339 108.068952 
L 239.563371 107.91671 
L 240.893435 106.984691 
L 241.558467 107.315168 
L 242.888531 110.527107 
L 243.553563 111.53339 
L 244.883626 114.359154 
L 246.21369 117.389144 
L 246.878722 118.22462 
L 247.543754 119.305168 
L 248.208786 120.151783 
L 248.873818 119.899284 
L 249.53885 120.129504 
L 250.868913 120.82759 
L 251.533945 121.04667 
L 252.198977 120.679061 
L 252.864009 119.765608 
L 254.194073 118.525391 
L 254.859105 118.053812 
L 256.854201 114.782461 
L 257.519232 114.429705 
L 259.514328 114.329448 
L 260.17936 115.528819 
L 260.844392 117.504254 
L 263.50452 127.971833 
L 264.169551 129.30488 
L 264.834583 129.160064 
L 266.164647 129.460836 
L 266.829679 129.349439 
L 268.159743 128.677345 
L 268.824775 128.725617 
L 270.154839 129.178631 
L 270.81987 129.85815 
L 271.484902 130.173775 
L 272.814966 129.813592 
L 274.14503 131.35458 
L 275.475094 133.545382 
L 276.805157 134.366004 
L 277.470189 134.07266 
L 278.800253 133.790455 
L 279.465285 133.786741 
L 282.125413 131.644211 
L 282.790445 131.083514 
L 283.455476 130.025246 
L 284.120508 129.950981 
L 284.78554 129.65021 
L 285.450572 129.063521 
L 286.115604 128.034958 
L 288.775732 125.888714 
L 290.105795 123.757324 
L 292.100891 121.937844 
L 293.430955 121.250897 
L 294.095987 120.953839 
L 294.761019 121.224905 
L 296.756114 122.346298 
L 297.421146 122.650783 
L 298.086178 122.253468 
L 298.75121 122.747327 
L 299.416242 122.513394 
L 300.081274 121.358581 
L 300.746306 120.93156 
L 301.411338 121.132074 
L 302.07637 122.264607 
L 302.741402 122.684202 
L 303.406433 122.736187 
L 306.066561 119.546528 
L 306.731593 119.22719 
L 307.396625 118.477119 
L 308.061657 117.470835 
L 308.726689 116.795029 
L 309.39172 116.427419 
L 310.056752 116.297457 
L 310.721784 115.926134 
L 311.386816 115.981833 
L 312.71688 117.132932 
L 313.381912 117.292601 
L 314.046944 116.587088 
L 314.711976 116.048671 
L 315.377008 116.182347 
L 316.042039 117.203483 
L 316.707071 117.248042 
L 317.372103 118.246899 
L 318.037135 119.01925 
L 318.702167 120.218621 
L 319.367199 122.101226 
L 320.032231 124.782173 
L 322.692358 133.61222 
L 324.687454 138.186912 
L 325.352486 139.386283 
L 326.017518 139.939554 
L 327.347582 140.808448 
L 328.012614 140.945837 
L 328.012614 140.945837 
" clip-path="url(#p66509660f6)" style="fill: none; stroke: #008000; stroke-opacity: 0.5; stroke-width: 2; stroke-linecap: square"/>
   </g>
   <g id="patch_3">
    <path d="M 49.3975 234.5525 
L 49.3975 11.759062 
" style="fill: none; stroke: #000000; stroke-width: 2; stroke-linejoin: miter; stroke-linecap: square"/>
   </g>
   <g id="patch_4">
    <path d="M 341.28 234.5525 
L 341.28 11.759062 
" style="fill: none; stroke: #000000; stroke-width: 2; stroke-linejoin: miter; stroke-linecap: square"/>
   </g>
   <g id="patch_5">
    <path d="M 49.3975 234.5525 
L 341.28 234.5525 
" style="fill: none; stroke: #000000; stroke-width: 2; stroke-linejoin: miter; stroke-linecap: square"/>
   </g>
   <g id="patch_6">
    <path d="M 49.3975 11.759062 
L 341.28 11.759062 
" style="fill: none; stroke: #000000; stroke-width: 2; stroke-linejoin: miter; stroke-linecap: square"/>
   </g>
   <g id="legend_1">
    <g id="line2d_28">
     <path d="M 245.26125 27.477188 
L 257.26125 27.477188 
L 269.26125 27.477188 
" style="fill: none; stroke: #0000ff; stroke-opacity: 0.5; stroke-width: 2; stroke-linecap: square"/>
    </g>
    <g id="text_15">
     <!-- yz-plane -->
     <g transform="translate(278.86125 31.677188)scale(0.12 -0.12)">
      <defs>
       <path id="DejaVuSans-7a" d="M 353 3500 
L 3084 3500 
L 3084 2975 
L 922 459 
L 3084 459 
L 3084 0 
L 275 0 
L 275 525 
L 2438 3041 
L 353 3041 
L 353 3500 
z
" transform="scale(0.015625)"/>
       <path id="DejaVuSans-2d" d="M 313 2009 
L 1997 2009 
L 1997 1497 
L 313 1497 
L 313 2009 
z
" transform="scale(0.015625)"/>
       <path id="DejaVuSans-70" d="M 1159 525 
L 1159 -1331 
L 581 -1331 
L 581 3500 
L 1159 3500 
L 1159 2969 
Q 1341 3281 1617 3432 
Q 1894 3584 2278 3584 
Q 2916 3584 3314 3078 
Q 3713 2572 3713 1747 
Q 3713 922 3314 415 
Q 2916 -91 2278 -91 
Q 1894 -91 1617 61 
Q 1341 213 1159 525 
z
M 3116 1747 
Q 3116 2381 2855 2742 
Q 2594 3103 2138 3103 
Q 1681 3103 1420 2742 
Q 1159 2381 1159 1747 
Q 1159 1113 1420 752 
Q 1681 391 2138 391 
Q 2594 391 2855 752 
Q 3116 1113 3116 1747 
z
" transform="scale(0.015625)"/>
      </defs>
      <use xlink:href="#DejaVuSans-79"/>
      <use xlink:href="#DejaVuSans-7a" x="59.179688"/>
      <use xlink:href="#DejaVuSans-2d" x="111.669922"/>
      <use xlink:href="#DejaVuSans-70" x="147.753906"/>
      <use xlink:href="#DejaVuSans-6c" x="211.230469"/>
      <use xlink:href="#DejaVuSans-61" x="239.013672"/>
      <use xlink:href="#DejaVuSans-6e" x="300.292969"/>
      <use xlink:href="#DejaVuSans-65" x="363.671875"/>
     </g>
    </g>
    <g id="line2d_29">
     <path d="M 245.26125 45.090938 
L 257.26125 45.090938 
L 269.26125 45.090938 
" style="fill: none; stroke: #ff0000; stroke-opacity: 0.5; stroke-width: 2; stroke-linecap: square"/>
    </g>
    <g id="text_16">
     <!-- xz-plane -->
     <g transform="translate(278.86125 49.290938)scale(0.12 -0.12)">
      <use xlink:href="#DejaVuSans-78"/>
      <use xlink:href="#DejaVuSans-7a" x="59.179688"/>
      <use xlink:href="#DejaVuSans-2d" x="111.669922"/>
      <use xlink:href="#DejaVuSans-70" x="147.753906"/>
      <use xlink:href="#DejaVuSans-6c" x="211.230469"/>
      <use xlink:href="#DejaVuSans-61" x="239.013672"/>
      <use xlink:href="#DejaVuSans-6e" x="300.292969"/>
      <use xlink:href="#DejaVuSans-65" x="363.671875"/>
     </g>
    </g>
    <g id="line2d_30">
     <path d="M 245.26125 62.704687 
L 257.26125 62.704687 
L 269.26125 62.704687 
" style="fill: none; stroke: #008000; stroke-opacity: 0.5; stroke-width: 2; stroke-linecap: square"/>
    </g>
    <g id="text_17">
     <!-- xy-plane -->
     <g transform="translate(278.86125 66.904687)scale(0.12 -0.12)">
      <use xlink:href="#DejaVuSans-78"/>
      <use xlink:href="#DejaVuSans-79" x="59.179688"/>
      <use xlink:href="#DejaVuSans-2d" x="116.609375"/>
      <use xlink:href="#DejaVuSans-70" x="152.693359"/>
      <use xlink:href="#DejaVuSans-6c" x="216.169922"/>
      <use xlink:href="#DejaVuSans-61" x="243.953125"/>
      <use xlink:href="#DejaVuSans-6e" x="305.232422"/>
      <use xlink:href="#DejaVuSans-65" x="368.611328"/>
     </g>
    </g>
   </g>
  </g>
 </g>
 <defs>
  <clipPath id="p66509660f6">
   <rect x="49.3975" y="11.759062" width="291.8825" height="222.793437"/>
  </clipPath>
 </defs>
</svg>
