<?xml version="1.0" encoding="utf-8" standalone="no"?>
<!DOCTYPE svg PUBLIC "-//W3C//DTD SVG 1.1//EN"
  "http://www.w3.org/Graphics/SVG/1.1/DTD/svg11.dtd">
<svg xmlns:xlink="http://www.w3.org/1999/xlink" width="348.48pt" height="276.48pt" viewBox="0 0 348.48 276.48" xmlns="http://www.w3.org/2000/svg" version="1.1">
 <metadata>
  <rdf:RDF xmlns:dc="http://purl.org/dc/elements/1.1/" xmlns:cc="http://creativecommons.org/ns#" xmlns:rdf="http://www.w3.org/1999/02/22-rdf-syntax-ns#">
   <cc:Work>
    <dc:type rdf:resource="http://purl.org/dc/dcmitype/StillImage"/>
    <dc:date>2022-09-08T00:02:02.644358</dc:date>
    <dc:format>image/svg+xml</dc:format>
    <dc:creator>
     <cc:Agent>
      <dc:title>Matplotlib v3.5.3, https://matplotlib.org/</dc:title>
     </cc:Agent>
    </dc:creator>
   </cc:Work>
  </rdf:RDF>
 </metadata>
 <defs>
  <style type="text/css">*{stroke-linejoin: round; stroke-linecap: butt}</style>
 </defs>
 <g id="figure_1">
  <g id="patch_1">
   <path d="M 0 276.48 
L 348.48 276.48 
L 348.48 0 
L 0 0 
z
" style="fill: #ffffff"/>
  </g>
  <g id="axes_1">
   <g id="patch_2">
    <path d="M 49.3975 234.5525 
L 341.28 234.5525 
L 341.28 11.759062 
L 49.3975 11.759062 
z
" style="fill: #ffffff"/>
   </g>
   <g id="matplotlib.axis_1">
    <g id="xtick_1">
     <g id="line2d_1">
      <defs>
       <path id="m8c2a2edb08" d="M 0 0 
L 0 -6 
" style="stroke: #000000; stroke-width: 2"/>
      </defs>
      <g>
       <use xlink:href="#m8c2a2edb08" x="62.664886" y="234.5525" style="fill: #ffffff; stroke: #000000; stroke-width: 2"/>
      </g>
     </g>
     <g id="line2d_2">
      <defs>
       <path id="ma3d4cac864" d="M 0 0 
L 0 6 
" style="stroke: #000000; stroke-width: 2"/>
      </defs>
      <g>
       <use xlink:href="#ma3d4cac864" x="62.664886" y="11.759062" style="fill: #ffffff; stroke: #000000; stroke-width: 2"/>
      </g>
     </g>
     <g id="text_1">
      <!-- 0 -->
      <g transform="translate(58.847386 247.170625)scale(0.12 -0.12)">
       <defs>
        <path id="DejaVuSans-30" d="M 2034 4250 
Q 1547 4250 1301 3770 
Q 1056 3291 1056 2328 
Q 1056 1369 1301 889 
Q 1547 409 2034 409 
Q 2525 409 2770 889 
Q 3016 1369 3016 2328 
Q 3016 3291 2770 3770 
Q 2525 4250 2034 4250 
z
M 2034 4750 
Q 2819 4750 3233 4129 
Q 3647 3509 3647 2328 
Q 3647 1150 3233 529 
Q 2819 -91 2034 -91 
Q 1250 -91 836 529 
Q 422 1150 422 2328 
Q 422 3509 836 4129 
Q 1250 4750 2034 4750 
z
" transform="scale(0.015625)"/>
       </defs>
       <use xlink:href="#DejaVuSans-30"/>
      </g>
     </g>
    </g>
    <g id="xtick_2">
     <g id="line2d_3">
      <g>
       <use xlink:href="#m8c2a2edb08" x="118.882625" y="234.5525" style="fill: #ffffff; stroke: #000000; stroke-width: 2"/>
      </g>
     </g>
     <g id="line2d_4">
      <g>
       <use xlink:href="#ma3d4cac864" x="118.882625" y="11.759062" style="fill: #ffffff; stroke: #000000; stroke-width: 2"/>
      </g>
     </g>
     <g id="text_2">
      <!-- 500 -->
      <g transform="translate(107.430125 247.170625)scale(0.12 -0.12)">
       <defs>
        <path id="DejaVuSans-35" d="M 691 4666 
L 3169 4666 
L 3169 4134 
L 1269 4134 
L 1269 2991 
Q 1406 3038 1543 3061 
Q 1681 3084 1819 3084 
Q 2600 3084 3056 2656 
Q 3513 2228 3513 1497 
Q 3513 744 3044 326 
Q 2575 -91 1722 -91 
Q 1428 -91 1123 -41 
Q 819 9 494 109 
L 494 744 
Q 775 591 1075 516 
Q 1375 441 1709 441 
Q 2250 441 2565 725 
Q 2881 1009 2881 1497 
Q 2881 1984 2565 2268 
Q 2250 2553 1709 2553 
Q 1456 2553 1204 2497 
Q 953 2441 691 2322 
L 691 4666 
z
" transform="scale(0.015625)"/>
       </defs>
       <use xlink:href="#DejaVuSans-35"/>
       <use xlink:href="#DejaVuSans-30" x="63.623047"/>
       <use xlink:href="#DejaVuSans-30" x="127.246094"/>
      </g>
     </g>
    </g>
    <g id="xtick_3">
     <g id="line2d_5">
      <g>
       <use xlink:href="#m8c2a2edb08" x="175.100364" y="234.5525" style="fill: #ffffff; stroke: #000000; stroke-width: 2"/>
      </g>
     </g>
     <g id="line2d_6">
      <g>
       <use xlink:href="#ma3d4cac864" x="175.100364" y="11.759062" style="fill: #ffffff; stroke: #000000; stroke-width: 2"/>
      </g>
     </g>
     <g id="text_3">
      <!-- 1000 -->
      <g transform="translate(159.830364 247.170625)scale(0.12 -0.12)">
       <defs>
        <path id="DejaVuSans-31" d="M 794 531 
L 1825 531 
L 1825 4091 
L 703 3866 
L 703 4441 
L 1819 4666 
L 2450 4666 
L 2450 531 
L 3481 531 
L 3481 0 
L 794 0 
L 794 531 
z
" transform="scale(0.015625)"/>
       </defs>
       <use xlink:href="#DejaVuSans-31"/>
       <use xlink:href="#DejaVuSans-30" x="63.623047"/>
       <use xlink:href="#DejaVuSans-30" x="127.246094"/>
       <use xlink:href="#DejaVuSans-30" x="190.869141"/>
      </g>
     </g>
    </g>
    <g id="xtick_4">
     <g id="line2d_7">
      <g>
       <use xlink:href="#m8c2a2edb08" x="231.318103" y="234.5525" style="fill: #ffffff; stroke: #000000; stroke-width: 2"/>
      </g>
     </g>
     <g id="line2d_8">
      <g>
       <use xlink:href="#ma3d4cac864" x="231.318103" y="11.759062" style="fill: #ffffff; stroke: #000000; stroke-width: 2"/>
      </g>
     </g>
     <g id="text_4">
      <!-- 1500 -->
      <g transform="translate(216.048103 247.170625)scale(0.12 -0.12)">
       <use xlink:href="#DejaVuSans-31"/>
       <use xlink:href="#DejaVuSans-35" x="63.623047"/>
       <use xlink:href="#DejaVuSans-30" x="127.246094"/>
       <use xlink:href="#DejaVuSans-30" x="190.869141"/>
      </g>
     </g>
    </g>
    <g id="xtick_5">
     <g id="line2d_9">
      <g>
       <use xlink:href="#m8c2a2edb08" x="287.535842" y="234.5525" style="fill: #ffffff; stroke: #000000; stroke-width: 2"/>
      </g>
     </g>
     <g id="line2d_10">
      <g>
       <use xlink:href="#ma3d4cac864" x="287.535842" y="11.759062" style="fill: #ffffff; stroke: #000000; stroke-width: 2"/>
      </g>
     </g>
     <g id="text_5">
      <!-- 2000 -->
      <g transform="translate(272.265842 247.170625)scale(0.12 -0.12)">
       <defs>
        <path id="DejaVuSans-32" d="M 1228 531 
L 3431 531 
L 3431 0 
L 469 0 
L 469 531 
Q 828 903 1448 1529 
Q 2069 2156 2228 2338 
Q 2531 2678 2651 2914 
Q 2772 3150 2772 3378 
Q 2772 3750 2511 3984 
Q 2250 4219 1831 4219 
Q 1534 4219 1204 4116 
Q 875 4013 500 3803 
L 500 4441 
Q 881 4594 1212 4672 
Q 1544 4750 1819 4750 
Q 2544 4750 2975 4387 
Q 3406 4025 3406 3419 
Q 3406 3131 3298 2873 
Q 3191 2616 2906 2266 
Q 2828 2175 2409 1742 
Q 1991 1309 1228 531 
z
" transform="scale(0.015625)"/>
       </defs>
       <use xlink:href="#DejaVuSans-32"/>
       <use xlink:href="#DejaVuSans-30" x="63.623047"/>
       <use xlink:href="#DejaVuSans-30" x="127.246094"/>
       <use xlink:href="#DejaVuSans-30" x="190.869141"/>
      </g>
     </g>
    </g>
    <g id="text_6">
     <!-- Position of slice along given axis -->
     <g transform="translate(98.045 266.784375)scale(0.12 -0.12)">
      <defs>
       <path id="DejaVuSans-50" d="M 1259 4147 
L 1259 2394 
L 2053 2394 
Q 2494 2394 2734 2622 
Q 2975 2850 2975 3272 
Q 2975 3691 2734 3919 
Q 2494 4147 2053 4147 
L 1259 4147 
z
M 628 4666 
L 2053 4666 
Q 2838 4666 3239 4311 
Q 3641 3956 3641 3272 
Q 3641 2581 3239 2228 
Q 2838 1875 2053 1875 
L 1259 1875 
L 1259 0 
L 628 0 
L 628 4666 
z
" transform="scale(0.015625)"/>
       <path id="DejaVuSans-6f" d="M 1959 3097 
Q 1497 3097 1228 2736 
Q 959 2375 959 1747 
Q 959 1119 1226 758 
Q 1494 397 1959 397 
Q 2419 397 2687 759 
Q 2956 1122 2956 1747 
Q 2956 2369 2687 2733 
Q 2419 3097 1959 3097 
z
M 1959 3584 
Q 2709 3584 3137 3096 
Q 3566 2609 3566 1747 
Q 3566 888 3137 398 
Q 2709 -91 1959 -91 
Q 1206 -91 779 398 
Q 353 888 353 1747 
Q 353 2609 779 3096 
Q 1206 3584 1959 3584 
z
" transform="scale(0.015625)"/>
       <path id="DejaVuSans-73" d="M 2834 3397 
L 2834 2853 
Q 2591 2978 2328 3040 
Q 2066 3103 1784 3103 
Q 1356 3103 1142 2972 
Q 928 2841 928 2578 
Q 928 2378 1081 2264 
Q 1234 2150 1697 2047 
L 1894 2003 
Q 2506 1872 2764 1633 
Q 3022 1394 3022 966 
Q 3022 478 2636 193 
Q 2250 -91 1575 -91 
Q 1294 -91 989 -36 
Q 684 19 347 128 
L 347 722 
Q 666 556 975 473 
Q 1284 391 1588 391 
Q 1994 391 2212 530 
Q 2431 669 2431 922 
Q 2431 1156 2273 1281 
Q 2116 1406 1581 1522 
L 1381 1569 
Q 847 1681 609 1914 
Q 372 2147 372 2553 
Q 372 3047 722 3315 
Q 1072 3584 1716 3584 
Q 2034 3584 2315 3537 
Q 2597 3491 2834 3397 
z
" transform="scale(0.015625)"/>
       <path id="DejaVuSans-69" d="M 603 3500 
L 1178 3500 
L 1178 0 
L 603 0 
L 603 3500 
z
M 603 4863 
L 1178 4863 
L 1178 4134 
L 603 4134 
L 603 4863 
z
" transform="scale(0.015625)"/>
       <path id="DejaVuSans-74" d="M 1172 4494 
L 1172 3500 
L 2356 3500 
L 2356 3053 
L 1172 3053 
L 1172 1153 
Q 1172 725 1289 603 
Q 1406 481 1766 481 
L 2356 481 
L 2356 0 
L 1766 0 
Q 1100 0 847 248 
Q 594 497 594 1153 
L 594 3053 
L 172 3053 
L 172 3500 
L 594 3500 
L 594 4494 
L 1172 4494 
z
" transform="scale(0.015625)"/>
       <path id="DejaVuSans-6e" d="M 3513 2113 
L 3513 0 
L 2938 0 
L 2938 2094 
Q 2938 2591 2744 2837 
Q 2550 3084 2163 3084 
Q 1697 3084 1428 2787 
Q 1159 2491 1159 1978 
L 1159 0 
L 581 0 
L 581 3500 
L 1159 3500 
L 1159 2956 
Q 1366 3272 1645 3428 
Q 1925 3584 2291 3584 
Q 2894 3584 3203 3211 
Q 3513 2838 3513 2113 
z
" transform="scale(0.015625)"/>
       <path id="DejaVuSans-20" transform="scale(0.015625)"/>
       <path id="DejaVuSans-66" d="M 2375 4863 
L 2375 4384 
L 1825 4384 
Q 1516 4384 1395 4259 
Q 1275 4134 1275 3809 
L 1275 3500 
L 2222 3500 
L 2222 3053 
L 1275 3053 
L 1275 0 
L 697 0 
L 697 3053 
L 147 3053 
L 147 3500 
L 697 3500 
L 697 3744 
Q 697 4328 969 4595 
Q 1241 4863 1831 4863 
L 2375 4863 
z
" transform="scale(0.015625)"/>
       <path id="DejaVuSans-6c" d="M 603 4863 
L 1178 4863 
L 1178 0 
L 603 0 
L 603 4863 
z
" transform="scale(0.015625)"/>
       <path id="DejaVuSans-63" d="M 3122 3366 
L 3122 2828 
Q 2878 2963 2633 3030 
Q 2388 3097 2138 3097 
Q 1578 3097 1268 2742 
Q 959 2388 959 1747 
Q 959 1106 1268 751 
Q 1578 397 2138 397 
Q 2388 397 2633 464 
Q 2878 531 3122 666 
L 3122 134 
Q 2881 22 2623 -34 
Q 2366 -91 2075 -91 
Q 1284 -91 818 406 
Q 353 903 353 1747 
Q 353 2603 823 3093 
Q 1294 3584 2113 3584 
Q 2378 3584 2631 3529 
Q 2884 3475 3122 3366 
z
" transform="scale(0.015625)"/>
       <path id="DejaVuSans-65" d="M 3597 1894 
L 3597 1613 
L 953 1613 
Q 991 1019 1311 708 
Q 1631 397 2203 397 
Q 2534 397 2845 478 
Q 3156 559 3463 722 
L 3463 178 
Q 3153 47 2828 -22 
Q 2503 -91 2169 -91 
Q 1331 -91 842 396 
Q 353 884 353 1716 
Q 353 2575 817 3079 
Q 1281 3584 2069 3584 
Q 2775 3584 3186 3129 
Q 3597 2675 3597 1894 
z
M 3022 2063 
Q 3016 2534 2758 2815 
Q 2500 3097 2075 3097 
Q 1594 3097 1305 2825 
Q 1016 2553 972 2059 
L 3022 2063 
z
" transform="scale(0.015625)"/>
       <path id="DejaVuSans-61" d="M 2194 1759 
Q 1497 1759 1228 1600 
Q 959 1441 959 1056 
Q 959 750 1161 570 
Q 1363 391 1709 391 
Q 2188 391 2477 730 
Q 2766 1069 2766 1631 
L 2766 1759 
L 2194 1759 
z
M 3341 1997 
L 3341 0 
L 2766 0 
L 2766 531 
Q 2569 213 2275 61 
Q 1981 -91 1556 -91 
Q 1019 -91 701 211 
Q 384 513 384 1019 
Q 384 1609 779 1909 
Q 1175 2209 1959 2209 
L 2766 2209 
L 2766 2266 
Q 2766 2663 2505 2880 
Q 2244 3097 1772 3097 
Q 1472 3097 1187 3025 
Q 903 2953 641 2809 
L 641 3341 
Q 956 3463 1253 3523 
Q 1550 3584 1831 3584 
Q 2591 3584 2966 3190 
Q 3341 2797 3341 1997 
z
" transform="scale(0.015625)"/>
       <path id="DejaVuSans-67" d="M 2906 1791 
Q 2906 2416 2648 2759 
Q 2391 3103 1925 3103 
Q 1463 3103 1205 2759 
Q 947 2416 947 1791 
Q 947 1169 1205 825 
Q 1463 481 1925 481 
Q 2391 481 2648 825 
Q 2906 1169 2906 1791 
z
M 3481 434 
Q 3481 -459 3084 -895 
Q 2688 -1331 1869 -1331 
Q 1566 -1331 1297 -1286 
Q 1028 -1241 775 -1147 
L 775 -588 
Q 1028 -725 1275 -790 
Q 1522 -856 1778 -856 
Q 2344 -856 2625 -561 
Q 2906 -266 2906 331 
L 2906 616 
Q 2728 306 2450 153 
Q 2172 0 1784 0 
Q 1141 0 747 490 
Q 353 981 353 1791 
Q 353 2603 747 3093 
Q 1141 3584 1784 3584 
Q 2172 3584 2450 3431 
Q 2728 3278 2906 2969 
L 2906 3500 
L 3481 3500 
L 3481 434 
z
" transform="scale(0.015625)"/>
       <path id="DejaVuSans-76" d="M 191 3500 
L 800 3500 
L 1894 563 
L 2988 3500 
L 3597 3500 
L 2284 0 
L 1503 0 
L 191 3500 
z
" transform="scale(0.015625)"/>
       <path id="DejaVuSans-78" d="M 3513 3500 
L 2247 1797 
L 3578 0 
L 2900 0 
L 1881 1375 
L 863 0 
L 184 0 
L 1544 1831 
L 300 3500 
L 978 3500 
L 1906 2253 
L 2834 3500 
L 3513 3500 
z
" transform="scale(0.015625)"/>
      </defs>
      <use xlink:href="#DejaVuSans-50"/>
      <use xlink:href="#DejaVuSans-6f" x="56.677734"/>
      <use xlink:href="#DejaVuSans-73" x="117.859375"/>
      <use xlink:href="#DejaVuSans-69" x="169.958984"/>
      <use xlink:href="#DejaVuSans-74" x="197.742188"/>
      <use xlink:href="#DejaVuSans-69" x="236.951172"/>
      <use xlink:href="#DejaVuSans-6f" x="264.734375"/>
      <use xlink:href="#DejaVuSans-6e" x="325.916016"/>
      <use xlink:href="#DejaVuSans-20" x="389.294922"/>
      <use xlink:href="#DejaVuSans-6f" x="421.082031"/>
      <use xlink:href="#DejaVuSans-66" x="482.263672"/>
      <use xlink:href="#DejaVuSans-20" x="517.46875"/>
      <use xlink:href="#DejaVuSans-73" x="549.255859"/>
      <use xlink:href="#DejaVuSans-6c" x="601.355469"/>
      <use xlink:href="#DejaVuSans-69" x="629.138672"/>
      <use xlink:href="#DejaVuSans-63" x="656.921875"/>
      <use xlink:href="#DejaVuSans-65" x="711.902344"/>
      <use xlink:href="#DejaVuSans-20" x="773.425781"/>
      <use xlink:href="#DejaVuSans-61" x="805.212891"/>
      <use xlink:href="#DejaVuSans-6c" x="866.492188"/>
      <use xlink:href="#DejaVuSans-6f" x="894.275391"/>
      <use xlink:href="#DejaVuSans-6e" x="955.457031"/>
      <use xlink:href="#DejaVuSans-67" x="1018.835938"/>
      <use xlink:href="#DejaVuSans-20" x="1082.3125"/>
      <use xlink:href="#DejaVuSans-67" x="1114.099609"/>
      <use xlink:href="#DejaVuSans-69" x="1177.576172"/>
      <use xlink:href="#DejaVuSans-76" x="1205.359375"/>
      <use xlink:href="#DejaVuSans-65" x="1264.539062"/>
      <use xlink:href="#DejaVuSans-6e" x="1326.0625"/>
      <use xlink:href="#DejaVuSans-20" x="1389.441406"/>
      <use xlink:href="#DejaVuSans-61" x="1421.228516"/>
      <use xlink:href="#DejaVuSans-78" x="1482.507812"/>
      <use xlink:href="#DejaVuSans-69" x="1541.6875"/>
      <use xlink:href="#DejaVuSans-73" x="1569.470703"/>
     </g>
    </g>
   </g>
   <g id="matplotlib.axis_2">
    <g id="ytick_1">
     <g id="line2d_11">
      <defs>
       <path id="m13d05b06c5" d="M 0 0 
L 6 0 
" style="stroke: #000000; stroke-width: 2"/>
      </defs>
      <g>
       <use xlink:href="#m13d05b06c5" x="49.3975" y="234.5525" style="fill: #ffffff; stroke: #000000; stroke-width: 2"/>
      </g>
     </g>
     <g id="line2d_12">
      <defs>
       <path id="mf6f8ffac0a" d="M 0 0 
L -6 0 
" style="stroke: #000000; stroke-width: 2"/>
      </defs>
      <g>
       <use xlink:href="#mf6f8ffac0a" x="341.28" y="234.5525" style="fill: #ffffff; stroke: #000000; stroke-width: 2"/>
      </g>
     </g>
     <g id="text_7">
      <!-- 0.0 -->
      <g transform="translate(26.81375 239.111562)scale(0.12 -0.12)">
       <defs>
        <path id="DejaVuSans-2e" d="M 684 794 
L 1344 794 
L 1344 0 
L 684 0 
L 684 794 
z
" transform="scale(0.015625)"/>
       </defs>
       <use xlink:href="#DejaVuSans-30"/>
       <use xlink:href="#DejaVuSans-2e" x="63.623047"/>
       <use xlink:href="#DejaVuSans-30" x="95.410156"/>
      </g>
     </g>
    </g>
    <g id="ytick_2">
     <g id="line2d_13">
      <g>
       <use xlink:href="#m13d05b06c5" x="49.3975" y="189.993812" style="fill: #ffffff; stroke: #000000; stroke-width: 2"/>
      </g>
     </g>
     <g id="line2d_14">
      <g>
       <use xlink:href="#mf6f8ffac0a" x="341.28" y="189.993812" style="fill: #ffffff; stroke: #000000; stroke-width: 2"/>
      </g>
     </g>
     <g id="text_8">
      <!-- 0.2 -->
      <g transform="translate(26.81375 194.552875)scale(0.12 -0.12)">
       <use xlink:href="#DejaVuSans-30"/>
       <use xlink:href="#DejaVuSans-2e" x="63.623047"/>
       <use xlink:href="#DejaVuSans-32" x="95.410156"/>
      </g>
     </g>
    </g>
    <g id="ytick_3">
     <g id="line2d_15">
      <g>
       <use xlink:href="#m13d05b06c5" x="49.3975" y="145.435125" style="fill: #ffffff; stroke: #000000; stroke-width: 2"/>
      </g>
     </g>
     <g id="line2d_16">
      <g>
       <use xlink:href="#mf6f8ffac0a" x="341.28" y="145.435125" style="fill: #ffffff; stroke: #000000; stroke-width: 2"/>
      </g>
     </g>
     <g id="text_9">
      <!-- 0.4 -->
      <g transform="translate(26.81375 149.994187)scale(0.12 -0.12)">
       <defs>
        <path id="DejaVuSans-34" d="M 2419 4116 
L 825 1625 
L 2419 1625 
L 2419 4116 
z
M 2253 4666 
L 3047 4666 
L 3047 1625 
L 3713 1625 
L 3713 1100 
L 3047 1100 
L 3047 0 
L 2419 0 
L 2419 1100 
L 313 1100 
L 313 1709 
L 2253 4666 
z
" transform="scale(0.015625)"/>
       </defs>
       <use xlink:href="#DejaVuSans-30"/>
       <use xlink:href="#DejaVuSans-2e" x="63.623047"/>
       <use xlink:href="#DejaVuSans-34" x="95.410156"/>
      </g>
     </g>
    </g>
    <g id="ytick_4">
     <g id="line2d_17">
      <g>
       <use xlink:href="#m13d05b06c5" x="49.3975" y="100.876437" style="fill: #ffffff; stroke: #000000; stroke-width: 2"/>
      </g>
     </g>
     <g id="line2d_18">
      <g>
       <use xlink:href="#mf6f8ffac0a" x="341.28" y="100.876437" style="fill: #ffffff; stroke: #000000; stroke-width: 2"/>
      </g>
     </g>
     <g id="text_10">
      <!-- 0.6 -->
      <g transform="translate(26.81375 105.4355)scale(0.12 -0.12)">
       <defs>
        <path id="DejaVuSans-36" d="M 2113 2584 
Q 1688 2584 1439 2293 
Q 1191 2003 1191 1497 
Q 1191 994 1439 701 
Q 1688 409 2113 409 
Q 2538 409 2786 701 
Q 3034 994 3034 1497 
Q 3034 2003 2786 2293 
Q 2538 2584 2113 2584 
z
M 3366 4563 
L 3366 3988 
Q 3128 4100 2886 4159 
Q 2644 4219 2406 4219 
Q 1781 4219 1451 3797 
Q 1122 3375 1075 2522 
Q 1259 2794 1537 2939 
Q 1816 3084 2150 3084 
Q 2853 3084 3261 2657 
Q 3669 2231 3669 1497 
Q 3669 778 3244 343 
Q 2819 -91 2113 -91 
Q 1303 -91 875 529 
Q 447 1150 447 2328 
Q 447 3434 972 4092 
Q 1497 4750 2381 4750 
Q 2619 4750 2861 4703 
Q 3103 4656 3366 4563 
z
" transform="scale(0.015625)"/>
       </defs>
       <use xlink:href="#DejaVuSans-30"/>
       <use xlink:href="#DejaVuSans-2e" x="63.623047"/>
       <use xlink:href="#DejaVuSans-36" x="95.410156"/>
      </g>
     </g>
    </g>
    <g id="ytick_5">
     <g id="line2d_19">
      <g>
       <use xlink:href="#m13d05b06c5" x="49.3975" y="56.31775" style="fill: #ffffff; stroke: #000000; stroke-width: 2"/>
      </g>
     </g>
     <g id="line2d_20">
      <g>
       <use xlink:href="#mf6f8ffac0a" x="341.28" y="56.31775" style="fill: #ffffff; stroke: #000000; stroke-width: 2"/>
      </g>
     </g>
     <g id="text_11">
      <!-- 0.8 -->
      <g transform="translate(26.81375 60.876812)scale(0.12 -0.12)">
       <defs>
        <path id="DejaVuSans-38" d="M 2034 2216 
Q 1584 2216 1326 1975 
Q 1069 1734 1069 1313 
Q 1069 891 1326 650 
Q 1584 409 2034 409 
Q 2484 409 2743 651 
Q 3003 894 3003 1313 
Q 3003 1734 2745 1975 
Q 2488 2216 2034 2216 
z
M 1403 2484 
Q 997 2584 770 2862 
Q 544 3141 544 3541 
Q 544 4100 942 4425 
Q 1341 4750 2034 4750 
Q 2731 4750 3128 4425 
Q 3525 4100 3525 3541 
Q 3525 3141 3298 2862 
Q 3072 2584 2669 2484 
Q 3125 2378 3379 2068 
Q 3634 1759 3634 1313 
Q 3634 634 3220 271 
Q 2806 -91 2034 -91 
Q 1263 -91 848 271 
Q 434 634 434 1313 
Q 434 1759 690 2068 
Q 947 2378 1403 2484 
z
M 1172 3481 
Q 1172 3119 1398 2916 
Q 1625 2713 2034 2713 
Q 2441 2713 2670 2916 
Q 2900 3119 2900 3481 
Q 2900 3844 2670 4047 
Q 2441 4250 2034 4250 
Q 1625 4250 1398 4047 
Q 1172 3844 1172 3481 
z
" transform="scale(0.015625)"/>
       </defs>
       <use xlink:href="#DejaVuSans-30"/>
       <use xlink:href="#DejaVuSans-2e" x="63.623047"/>
       <use xlink:href="#DejaVuSans-38" x="95.410156"/>
      </g>
     </g>
    </g>
    <g id="ytick_6">
     <g id="line2d_21">
      <g>
       <use xlink:href="#m13d05b06c5" x="49.3975" y="11.759062" style="fill: #ffffff; stroke: #000000; stroke-width: 2"/>
      </g>
     </g>
     <g id="line2d_22">
      <g>
       <use xlink:href="#mf6f8ffac0a" x="341.28" y="11.759062" style="fill: #ffffff; stroke: #000000; stroke-width: 2"/>
      </g>
     </g>
     <g id="text_12">
      <!-- 1.0 -->
      <g transform="translate(26.81375 16.318125)scale(0.12 -0.12)">
       <use xlink:href="#DejaVuSans-31"/>
       <use xlink:href="#DejaVuSans-2e" x="63.623047"/>
       <use xlink:href="#DejaVuSans-30" x="95.410156"/>
      </g>
     </g>
    </g>
    <g id="text_13">
     <!-- Porosity of slice -->
     <g transform="translate(16.318125 169.973594)rotate(-90)scale(0.12 -0.12)">
      <defs>
       <path id="DejaVuSans-72" d="M 2631 2963 
Q 2534 3019 2420 3045 
Q 2306 3072 2169 3072 
Q 1681 3072 1420 2755 
Q 1159 2438 1159 1844 
L 1159 0 
L 581 0 
L 581 3500 
L 1159 3500 
L 1159 2956 
Q 1341 3275 1631 3429 
Q 1922 3584 2338 3584 
Q 2397 3584 2469 3576 
Q 2541 3569 2628 3553 
L 2631 2963 
z
" transform="scale(0.015625)"/>
       <path id="DejaVuSans-79" d="M 2059 -325 
Q 1816 -950 1584 -1140 
Q 1353 -1331 966 -1331 
L 506 -1331 
L 506 -850 
L 844 -850 
Q 1081 -850 1212 -737 
Q 1344 -625 1503 -206 
L 1606 56 
L 191 3500 
L 800 3500 
L 1894 763 
L 2988 3500 
L 3597 3500 
L 2059 -325 
z
" transform="scale(0.015625)"/>
      </defs>
      <use xlink:href="#DejaVuSans-50"/>
      <use xlink:href="#DejaVuSans-6f" x="56.677734"/>
      <use xlink:href="#DejaVuSans-72" x="117.859375"/>
      <use xlink:href="#DejaVuSans-6f" x="156.722656"/>
      <use xlink:href="#DejaVuSans-73" x="217.904297"/>
      <use xlink:href="#DejaVuSans-69" x="270.003906"/>
      <use xlink:href="#DejaVuSans-74" x="297.787109"/>
      <use xlink:href="#DejaVuSans-79" x="336.996094"/>
      <use xlink:href="#DejaVuSans-20" x="396.175781"/>
      <use xlink:href="#DejaVuSans-6f" x="427.962891"/>
      <use xlink:href="#DejaVuSans-66" x="489.144531"/>
      <use xlink:href="#DejaVuSans-20" x="524.349609"/>
      <use xlink:href="#DejaVuSans-73" x="556.136719"/>
      <use xlink:href="#DejaVuSans-6c" x="608.236328"/>
      <use xlink:href="#DejaVuSans-69" x="636.019531"/>
      <use xlink:href="#DejaVuSans-63" x="663.802734"/>
      <use xlink:href="#DejaVuSans-65" x="718.783203"/>
     </g>
    </g>
   </g>
   <g id="line2d_23">
    <path d="M 62.664886 118.376862 
L 64.664995 118.642358 
L 65.331698 118.584803 
L 65.998401 118.7946 
L 66.665103 118.880004 
L 68.665212 119.501969 
L 70.66532 119.995828 
L 71.998726 119.35901 
L 72.665429 118.291458 
L 74.665537 116.056097 
L 75.33224 115.649499 
L 75.998943 115.671778 
L 76.665646 116.187916 
L 77.332349 117.43556 
L 78.665754 118.298884 
L 80.665863 118.575519 
L 81.332566 118.428847 
L 82.665971 117.894143 
L 83.999377 117.740044 
L 85.999485 115.770179 
L 87.332891 115.187203 
L 87.999594 114.438988 
L 88.666297 114.091802 
L 89.333 114.011967 
L 89.999702 113.596086 
L 90.666405 113.516252 
L 91.333108 113.640645 
L 91.999811 113.356583 
L 92.666514 113.224764 
L 93.333217 113.46798 
L 93.999919 113.421565 
L 94.666622 112.977834 
L 95.333325 112.760611 
L 96.000028 112.784747 
L 97.333434 113.752042 
L 99.333542 115.350584 
L 100.000245 116.078376 
L 100.666948 117.255468 
L 101.333651 117.870007 
L 102.667056 119.882574 
L 103.333759 120.859152 
L 104.000462 121.559095 
L 104.667165 122.446555 
L 105.333868 123.042528 
L 106.00057 122.98126 
L 107.333976 122.650783 
L 108.000679 122.899569 
L 110.000787 123.324733 
L 111.334193 123.811165 
L 112.000896 123.716478 
L 112.667599 124.10451 
L 115.33441 126.453124 
L 116.001113 127.59494 
L 116.667816 128.205766 
L 118.001221 128.876003 
L 118.667924 129.429273 
L 120.668033 131.976545 
L 121.334736 132.069375 
L 122.001438 131.972832 
L 122.668141 131.503109 
L 123.334844 131.230187 
L 124.001547 130.793883 
L 124.66825 130.164491 
L 126.668358 130.235043 
L 127.335061 130.803166 
L 128.001764 131.816876 
L 128.668467 132.325588 
L 129.33517 133.177773 
L 130.001872 133.781172 
L 130.668575 134.161777 
L 133.335387 133.981686 
L 134.002089 133.170346 
L 134.668792 132.539098 
L 135.335495 131.729615 
L 137.335604 129.782029 
L 138.002306 129.087657 
L 138.669009 129.041241 
L 139.335712 128.777602 
L 141.335821 129.902709 
L 142.669226 131.274745 
L 144.002632 131.870718 
L 144.669335 132.01182 
L 146.00274 131.141069 
L 146.669443 130.582229 
L 148.002849 130.131072 
L 148.669552 129.752324 
L 152.003066 126.221048 
L 152.669769 125.068092 
L 153.336472 124.156495 
L 154.669877 121.997255 
L 155.33658 121.314022 
L 156.003283 120.385716 
L 156.669986 119.962409 
L 157.336689 119.375719 
L 158.670094 119.734045 
L 160.670203 120.5918 
L 162.003608 120.599227 
L 163.337014 120.242757 
L 164.003717 120.253897 
L 164.67042 119.893714 
L 166.003825 118.961695 
L 166.670528 118.722192 
L 168.003934 116.976977 
L 168.670637 115.768322 
L 170.004042 114.028677 
L 170.670745 113.609082 
L 171.337448 113.805883 
L 172.004151 114.375863 
L 174.004259 117.491258 
L 174.670962 118.271035 
L 176.671071 119.79717 
L 177.337774 120.92599 
L 178.671179 122.615507 
L 179.337882 123.948555 
L 180.004585 124.969691 
L 182.671396 130.036385 
L 183.338099 130.805023 
L 184.004802 131.187485 
L 184.671505 131.439984 
L 185.338208 130.994397 
L 186.00491 130.294454 
L 186.671613 130.077231 
L 187.338316 130.043812 
L 188.671722 129.674346 
L 189.338425 129.596368 
L 192.005236 125.485829 
L 192.671939 124.856438 
L 194.005344 124.176918 
L 195.33875 123.837158 
L 195.33875 123.837158 
" clip-path="url(#p3c07b6b8ca)" style="fill: none; stroke: #0000ff; stroke-opacity: 0.5; stroke-width: 2; stroke-linecap: square"/>
   </g>
   <g id="line2d_24">
    <path d="M 62.664886 131.644211 
L 63.996062 132.229044 
L 65.327238 133.095153 
L 66.658414 134.256464 
L 67.324002 134.298238 
L 67.98959 134.738255 
L 68.655178 134.958264 
L 69.320766 135.378786 
L 70.651942 135.654493 
L 71.31753 134.306593 
L 71.983118 132.334871 
L 72.648706 130.853295 
L 73.979881 129.641855 
L 75.976645 127.581016 
L 76.642233 127.001753 
L 77.307821 126.219191 
L 77.973409 125.670562 
L 78.638997 125.316878 
L 79.970173 126.149568 
L 80.635761 125.940699 
L 81.301349 125.236115 
L 82.632525 123.20034 
L 83.298113 123.133502 
L 83.963701 122.153211 
L 85.294876 121.768892 
L 85.960464 121.114436 
L 86.626052 119.805525 
L 87.29164 118.961695 
L 88.622816 116.867436 
L 89.288404 116.327162 
L 89.953992 115.953983 
L 90.61958 115.970693 
L 91.950756 117.212766 
L 93.281932 118.761181 
L 94.613108 120.019964 
L 95.278696 120.835945 
L 96.609872 121.685345 
L 97.275459 121.816236 
L 97.941047 122.395499 
L 98.606635 122.353725 
L 99.272223 122.108652 
L 99.937811 121.590657 
L 100.603399 120.705053 
L 101.268987 120.184274 
L 101.934575 120.039458 
L 103.265751 119.178918 
L 103.931339 118.499398 
L 104.596927 118.084446 
L 105.262515 117.914566 
L 105.928103 117.190487 
L 106.593691 116.268679 
L 107.924867 115.260539 
L 109.256042 114.650642 
L 109.92163 114.486332 
L 110.587218 114.670136 
L 111.252806 114.299742 
L 111.918394 113.51718 
L 112.583982 112.51461 
L 113.24957 112.408783 
L 114.580746 113.634147 
L 115.246334 114.244044 
L 115.911922 115.099014 
L 116.57751 116.357796 
L 117.243098 117.324163 
L 117.908686 117.973049 
L 119.239862 121.000255 
L 119.90545 122.687915 
L 121.236625 125.623219 
L 122.567801 128.809165 
L 123.233389 129.842369 
L 123.898977 129.864649 
L 125.895741 127.191127 
L 126.561329 125.896141 
L 127.892505 122.080803 
L 129.223681 118.738901 
L 129.889269 117.106939 
L 130.554857 114.898499 
L 131.220445 113.210839 
L 131.886033 112.709554 
L 132.551621 113.141216 
L 134.548384 116.318808 
L 135.213972 117.076305 
L 136.545148 118.822449 
L 137.210736 119.610581 
L 137.876324 120.730118 
L 142.53544 131.685985 
L 143.201028 132.749824 
L 143.866616 133.434913 
L 144.532204 133.54631 
L 145.863379 133.086799 
L 146.528967 132.618933 
L 147.194555 131.825231 
L 147.860143 130.404923 
L 149.856907 125.05231 
L 152.519259 117.048456 
L 153.184847 115.775749 
L 154.516023 112.495115 
L 155.847199 108.75497 
L 156.512787 107.930635 
L 157.843962 107.540746 
L 158.50955 107.075665 
L 161.83749 107.930635 
L 162.503078 107.861012 
L 163.168666 107.646573 
L 163.834254 107.891646 
L 164.499842 107.774679 
L 165.16543 108.721551 
L 165.831018 110.98012 
L 167.827782 120.273391 
L 168.49337 122.640571 
L 169.824545 126.595155 
L 171.155721 130.722403 
L 171.821309 133.03667 
L 172.486897 134.90535 
L 173.818073 137.704193 
L 174.483661 138.9769 
L 175.814837 140.982041 
L 179.142777 143.55252 
L 180.473953 143.633283 
L 181.805128 142.591724 
L 183.136304 141.36079 
L 183.801892 141.104578 
L 185.133068 139.589582 
L 185.798656 139.419702 
L 187.129832 137.503679 
L 187.79542 136.27553 
L 188.461008 134.579515 
L 190.457772 127.550382 
L 192.454536 121.223048 
L 193.785711 118.340658 
L 195.782475 115.5446 
L 198.444827 111.793316 
L 199.110415 111.551028 
L 200.441591 112.074593 
L 201.107179 112.522964 
L 201.772767 112.717909 
L 202.438355 113.149571 
L 203.103943 113.901499 
L 203.769531 114.879005 
L 205.100707 115.750684 
L 207.09747 116.691987 
L 207.763058 116.778319 
L 209.759822 118.605225 
L 211.756586 120.551883 
L 212.422174 121.189629 
L 213.087762 122.395499 
L 213.75335 123.306167 
L 214.418938 123.846441 
L 215.084526 124.651282 
L 215.750114 125.848797 
L 216.415702 127.310879 
L 217.08129 128.254966 
L 217.746877 128.149139 
L 218.412465 127.464049 
L 219.078053 126.957194 
L 220.409229 125.497897 
L 221.074817 124.539885 
L 223.071581 122.726904 
L 226.399521 119.822234 
L 227.065109 119.070307 
L 227.730697 118.688773 
L 229.061873 118.96448 
L 229.72746 119.752611 
L 231.058636 122.829946 
L 232.389812 124.473047 
L 233.0554 125.781959 
L 233.720988 126.687057 
L 234.386576 126.742756 
L 235.052164 126.670348 
L 236.38334 125.667777 
L 238.380104 125.662207 
L 239.045692 125.121933 
L 239.71128 124.823947 
L 240.376868 125.06902 
L 241.708043 126.344512 
L 242.373631 126.25261 
L 243.039219 126.021462 
L 244.370395 126.653638 
L 245.035983 127.065806 
L 245.701571 127.731401 
L 246.367159 127.759251 
L 247.032747 128.575232 
L 247.698335 128.594726 
L 248.363923 128.491684 
L 249.029511 129.327159 
L 249.695099 129.730973 
L 250.360687 129.14057 
L 251.026275 128.338514 
L 251.691863 126.595155 
L 252.357451 124.381145 
L 253.688626 121.51268 
L 254.354214 120.30124 
L 255.019802 119.518678 
L 256.350978 118.543957 
L 257.016566 117.560881 
L 258.347742 116.160067 
L 259.678918 115.608654 
L 261.010094 115.441558 
L 261.675682 115.37472 
L 261.675682 115.37472 
" clip-path="url(#p3c07b6b8ca)" style="fill: none; stroke: #ff0000; stroke-opacity: 0.5; stroke-width: 2; stroke-linecap: square"/>
   </g>
   <g id="line2d_25">
    <path d="M 62.664886 106.178921 
L 63.99495 106.078664 
L 64.659982 106.156642 
L 65.325014 106.542817 
L 66.655078 108.2509 
L 69.315205 115.328305 
L 69.980237 116.795029 
L 71.310301 120.322591 
L 71.975333 120.927847 
L 72.640365 120.890715 
L 73.305397 121.083802 
L 74.635461 120.634502 
L 75.300492 119.301455 
L 76.630556 117.548813 
L 79.290684 115.692201 
L 79.955716 114.912424 
L 80.620748 113.323164 
L 81.28578 111.414567 
L 81.950811 110.434276 
L 82.615843 109.810454 
L 83.280875 109.524536 
L 83.945907 108.637076 
L 84.610939 107.136933 
L 85.275971 106.617082 
L 85.941003 106.576236 
L 87.936098 108.830163 
L 88.60113 110.478835 
L 89.266162 113.074378 
L 91.261258 122.572805 
L 91.92629 125.498826 
L 93.921386 131.57366 
L 95.251449 137.084084 
L 95.916481 138.729043 
L 96.581513 139.003821 
L 97.246545 138.92213 
L 97.911577 139.011248 
L 98.576609 139.765032 
L 99.241641 139.571944 
L 99.906673 139.078086 
L 101.236736 137.670774 
L 101.901768 136.879857 
L 102.5668 136.697909 
L 103.231832 135.654493 
L 103.896864 135.045524 
L 105.226928 132.780458 
L 109.217119 123.86872 
L 110.547183 121.96755 
L 111.212215 121.295456 
L 113.207311 117.786459 
L 113.872343 116.668779 
L 115.202406 115.929847 
L 115.867438 116.787602 
L 116.53247 117.912709 
L 117.862534 119.483403 
L 118.527566 119.542814 
L 119.85763 118.55881 
L 120.522661 117.374292 
L 122.517757 113.130077 
L 123.182789 112.175778 
L 123.847821 111.67078 
L 125.842917 111.904713 
L 126.507949 112.9964 
L 127.17298 114.771322 
L 128.503044 117.452269 
L 129.168076 119.401712 
L 129.833108 121.845013 
L 131.163172 123.801882 
L 132.493236 125.836729 
L 133.158268 125.877574 
L 133.823299 126.545955 
L 134.488331 126.891285 
L 135.818395 126.505109 
L 137.148459 124.574233 
L 137.813491 123.411994 
L 138.478523 122.881003 
L 139.143555 122.078946 
L 139.808587 120.857296 
L 140.473618 120.92042 
L 141.13865 121.640786 
L 141.803682 121.707624 
L 142.468714 121.930417 
L 143.133746 122.569092 
L 145.128842 123.259752 
L 147.788969 123.334016 
L 148.454001 123.935558 
L 149.784065 125.654781 
L 150.449097 125.784744 
L 151.779161 128.840727 
L 153.109224 130.326017 
L 153.774256 130.649067 
L 154.439288 130.021532 
L 155.769352 128.254038 
L 157.099416 125.328017 
L 158.42948 124.065521 
L 159.094512 123.415707 
L 160.424575 121.525676 
L 161.089607 121.733616 
L 163.749735 125.287172 
L 164.414767 125.736472 
L 165.079799 125.91842 
L 165.744831 125.736472 
L 166.409862 125.729045 
L 167.074894 125.90728 
L 168.404958 125.6882 
L 169.06999 125.762464 
L 170.400054 126.638785 
L 171.065086 127.418562 
L 171.730118 127.979259 
L 173.060181 127.741613 
L 173.725213 127.890142 
L 174.390245 127.819591 
L 175.055277 128.380287 
L 175.720309 129.145211 
L 177.050373 131.302595 
L 177.715405 131.848439 
L 178.380437 131.692483 
L 179.045469 132.353437 
L 179.7105 133.972403 
L 180.375532 135.892139 
L 181.705596 138.469117 
L 182.370628 139.003821 
L 183.03566 139.074372 
L 183.700692 138.584227 
L 185.695787 135.30545 
L 187.690883 130.207194 
L 189.685979 124.266035 
L 191.016043 121.72619 
L 192.346106 120.485973 
L 194.341202 119.609652 
L 195.671266 120.831303 
L 196.336298 121.670492 
L 197.666362 123.913279 
L 198.331394 124.540814 
L 199.661457 126.430845 
L 200.326489 128.008965 
L 200.991521 129.122932 
L 201.656553 129.223189 
L 202.321585 128.064663 
L 202.986617 126.456837 
L 204.316681 123.709052 
L 204.981713 122.390857 
L 205.646744 121.429132 
L 206.311776 120.979832 
L 206.976808 121.62222 
L 207.64184 123.140928 
L 208.306872 124.20291 
L 208.971904 124.67449 
L 210.301968 124.863864 
L 210.967 125.599083 
L 212.297063 126.549668 
L 212.962095 126.880145 
L 213.627127 127.076946 
L 214.292159 127.570805 
L 214.957191 128.863006 
L 216.952287 136.010963 
L 218.28235 138.658491 
L 218.947382 139.38257 
L 219.612414 139.408563 
L 220.277446 138.918417 
L 220.942478 137.759891 
L 221.60751 136.90585 
L 222.937574 132.37943 
L 224.267638 126.568234 
L 225.597701 121.176633 
L 228.257829 109.665639 
L 228.922861 107.760755 
L 230.252925 104.983263 
L 230.917957 104.266611 
L 231.582988 104.667639 
L 232.24802 104.701058 
L 233.578084 105.833591 
L 234.243116 106.598516 
L 235.57318 108.507113 
L 236.238212 108.82645 
L 238.233307 108.741046 
L 238.898339 108.068952 
L 239.563371 107.91671 
L 240.893435 106.984691 
L 241.558467 107.315168 
L 242.888531 110.527107 
L 243.553563 111.53339 
L 244.883626 114.359154 
L 246.21369 117.389144 
L 246.878722 118.22462 
L 247.543754 119.305168 
L 248.208786 120.151783 
L 248.873818 119.899284 
L 249.53885 120.129504 
L 250.868913 120.82759 
L 251.533945 121.04667 
L 252.198977 120.679061 
L 252.864009 119.765608 
L 254.194073 118.525391 
L 254.859105 118.053812 
L 256.854201 114.782461 
L 257.519232 114.429705 
L 259.514328 114.329448 
L 260.17936 115.528819 
L 260.844392 117.504254 
L 263.50452 127.971833 
L 264.169551 129.30488 
L 264.834583 129.160064 
L 266.164647 129.460836 
L 266.829679 129.349439 
L 268.159743 128.677345 
L 268.824775 128.725617 
L 270.154839 129.178631 
L 270.81987 129.85815 
L 271.484902 130.173775 
L 272.814966 129.813592 
L 274.14503 131.35458 
L 275.475094 133.545382 
L 276.805157 134.366004 
L 277.470189 134.07266 
L 278.800253 133.790455 
L 279.465285 133.786741 
L 282.125413 131.644211 
L 282.790445 131.083514 
L 283.455476 130.025246 
L 284.120508 129.950981 
L 284.78554 129.65021 
L 285.450572 129.063521 
L 286.115604 128.034958 
L 288.775732 125.888714 
L 290.105795 123.757324 
L 292.100891 121.937844 
L 293.430955 121.250897 
L 294.095987 120.953839 
L 294.761019 121.224905 
L 296.756114 122.346298 
L 297.421146 122.650783 
L 298.086178 122.253468 
L 298.75121 122.747327 
L 299.416242 122.513394 
L 300.081274 121.358581 
L 300.746306 120.93156 
L 301.411338 121.132074 
L 302.07637 122.264607 
L 302.741402 122.684202 
L 303.406433 122.736187 
L 306.066561 119.546528 
L 306.731593 119.22719 
L 307.396625 118.477119 
L 308.061657 117.470835 
L 308.726689 116.795029 
L 309.39172 116.427419 
L 310.056752 116.297457 
L 310.721784 115.926134 
L 311.386816 115.981833 
L 312.71688 117.132932 
L 313.381912 117.292601 
L 314.046944 116.587088 
L 314.711976 116.048671 
L 315.377008 116.182347 
L 316.042039 117.203483 
L 316.707071 117.248042 
L 317.372103 118.246899 
L 318.037135 119.01925 
L 318.702167 120.218621 
L 319.367199 122.101226 
L 320.032231 124.782173 
L 322.692358 133.61222 
L 324.687454 138.186912 
L 325.352486 139.386283 
L 326.017518 139.939554 
L 327.347582 140.808448 
L 328.012614 140.945837 
L 328.012614 140.945837 
" clip-path="url(#p3c07b6b8ca)" style="fill: none; stroke: #008000; stroke-opacity: 0.5; stroke-width: 2; stroke-linecap: square"/>
   </g>
   <g id="patch_3">
    <path d="M 49.3975 234.5525 
L 49.3975 11.759062 
" style="fill: none; stroke: #000000; stroke-width: 2; stroke-linejoin: miter; stroke-linecap: square"/>
   </g>
   <g id="patch_4">
    <path d="M 341.28 234.5525 
L 341.28 11.759062 
" style="fill: none; stroke: #000000; stroke-width: 2; stroke-linejoin: miter; stroke-linecap: square"/>
   </g>
   <g id="patch_5">
    <path d="M 49.3975 234.5525 
L 341.28 234.5525 
" style="fill: none; stroke: #000000; stroke-width: 2; stroke-linejoin: miter; stroke-linecap: square"/>
   </g>
   <g id="patch_6">
    <path d="M 49.3975 11.759062 
L 341.28 11.759062 
" style="fill: none; stroke: #000000; stroke-width: 2; stroke-linejoin: miter; stroke-linecap: square"/>
   </g>
   <g id="legend_1">
    <g id="line2d_26">
     <path d="M 245.26125 27.477188 
L 257.26125 27.477188 
L 269.26125 27.477188 
" style="fill: none; stroke: #0000ff; stroke-opacity: 0.5; stroke-width: 2; stroke-linecap: square"/>
    </g>
    <g id="text_14">
     <!-- yz-plane -->
     <g transform="translate(278.86125 31.677188)scale(0.12 -0.12)">
      <defs>
       <path id="DejaVuSans-7a" d="M 353 3500 
L 3084 3500 
L 3084 2975 
L 922 459 
L 3084 459 
L 3084 0 
L 275 0 
L 275 525 
L 2438 3041 
L 353 3041 
L 353 3500 
z
" transform="scale(0.015625)"/>
       <path id="DejaVuSans-2d" d="M 313 2009 
L 1997 2009 
L 1997 1497 
L 313 1497 
L 313 2009 
z
" transform="scale(0.015625)"/>
       <path id="DejaVuSans-70" d="M 1159 525 
L 1159 -1331 
L 581 -1331 
L 581 3500 
L 1159 3500 
L 1159 2969 
Q 1341 3281 1617 3432 
Q 1894 3584 2278 3584 
Q 2916 3584 3314 3078 
Q 3713 2572 3713 1747 
Q 3713 922 3314 415 
Q 2916 -91 2278 -91 
Q 1894 -91 1617 61 
Q 1341 213 1159 525 
z
M 3116 1747 
Q 3116 2381 2855 2742 
Q 2594 3103 2138 3103 
Q 1681 3103 1420 2742 
Q 1159 2381 1159 1747 
Q 1159 1113 1420 752 
Q 1681 391 2138 391 
Q 2594 391 2855 752 
Q 3116 1113 3116 1747 
z
" transform="scale(0.015625)"/>
      </defs>
      <use xlink:href="#DejaVuSans-79"/>
      <use xlink:href="#DejaVuSans-7a" x="59.179688"/>
      <use xlink:href="#DejaVuSans-2d" x="111.669922"/>
      <use xlink:href="#DejaVuSans-70" x="147.753906"/>
      <use xlink:href="#DejaVuSans-6c" x="211.230469"/>
      <use xlink:href="#DejaVuSans-61" x="239.013672"/>
      <use xlink:href="#DejaVuSans-6e" x="300.292969"/>
      <use xlink:href="#DejaVuSans-65" x="363.671875"/>
     </g>
    </g>
    <g id="line2d_27">
     <path d="M 245.26125 45.090938 
L 257.26125 45.090938 
L 269.26125 45.090938 
" style="fill: none; stroke: #ff0000; stroke-opacity: 0.5; stroke-width: 2; stroke-linecap: square"/>
    </g>
    <g id="text_15">
     <!-- xz-plane -->
     <g transform="translate(278.86125 49.290938)scale(0.12 -0.12)">
      <use xlink:href="#DejaVuSans-78"/>
      <use xlink:href="#DejaVuSans-7a" x="59.179688"/>
      <use xlink:href="#DejaVuSans-2d" x="111.669922"/>
      <use xlink:href="#DejaVuSans-70" x="147.753906"/>
      <use xlink:href="#DejaVuSans-6c" x="211.230469"/>
      <use xlink:href="#DejaVuSans-61" x="239.013672"/>
      <use xlink:href="#DejaVuSans-6e" x="300.292969"/>
      <use xlink:href="#DejaVuSans-65" x="363.671875"/>
     </g>
    </g>
    <g id="line2d_28">
     <path d="M 245.26125 62.704687 
L 257.26125 62.704687 
L 269.26125 62.704687 
" style="fill: none; stroke: #008000; stroke-opacity: 0.5; stroke-width: 2; stroke-linecap: square"/>
    </g>
    <g id="text_16">
     <!-- xy-plane -->
     <g transform="translate(278.86125 66.904687)scale(0.12 -0.12)">
      <use xlink:href="#DejaVuSans-78"/>
      <use xlink:href="#DejaVuSans-79" x="59.179688"/>
      <use xlink:href="#DejaVuSans-2d" x="116.609375"/>
      <use xlink:href="#DejaVuSans-70" x="152.693359"/>
      <use xlink:href="#DejaVuSans-6c" x="216.169922"/>
      <use xlink:href="#DejaVuSans-61" x="243.953125"/>
      <use xlink:href="#DejaVuSans-6e" x="305.232422"/>
      <use xlink:href="#DejaVuSans-65" x="368.611328"/>
     </g>
    </g>
   </g>
  </g>
 </g>
 <defs>
  <clipPath id="p3c07b6b8ca">
   <rect x="49.3975" y="11.759062" width="291.8825" height="222.793437"/>
  </clipPath>
 </defs>
</svg>
