<?xml version="1.0" encoding="utf-8" standalone="no"?>
<!DOCTYPE svg PUBLIC "-//W3C//DTD SVG 1.1//EN"
  "http://www.w3.org/Graphics/SVG/1.1/DTD/svg11.dtd">
<svg xmlns:xlink="http://www.w3.org/1999/xlink" width="348.48pt" height="276.48pt" viewBox="0 0 348.48 276.48" xmlns="http://www.w3.org/2000/svg" version="1.1">
 <metadata>
  <rdf:RDF xmlns:dc="http://purl.org/dc/elements/1.1/" xmlns:cc="http://creativecommons.org/ns#" xmlns:rdf="http://www.w3.org/1999/02/22-rdf-syntax-ns#">
   <cc:Work>
    <dc:type rdf:resource="http://purl.org/dc/dcmitype/StillImage"/>
    <dc:date>2022-02-01T22:27:36.748615</dc:date>
    <dc:format>image/svg+xml</dc:format>
    <dc:creator>
     <cc:Agent>
      <dc:title>Matplotlib v3.5.0, https://matplotlib.org/</dc:title>
     </cc:Agent>
    </dc:creator>
   </cc:Work>
  </rdf:RDF>
 </metadata>
 <defs>
  <style type="text/css">*{stroke-linejoin: round; stroke-linecap: butt}</style>
 </defs>
 <g id="figure_1">
  <g id="patch_1">
   <path d="M 0 276.48 
L 348.48 276.48 
L 348.48 0 
L 0 0 
L 0 276.48 
z
" style="fill: none"/>
  </g>
  <g id="axes_1">
   <g id="patch_2">
    <path d="M 49.3975 234.5525 
L 341.28 234.5525 
L 341.28 11.759062 
L 49.3975 11.759062 
z
" style="fill: #ffffff"/>
   </g>
   <g id="matplotlib.axis_1">
    <g id="xtick_1">
     <g id="line2d_1">
      <defs>
       <path id="mae0670d7bb" d="M 0 0 
L 0 -6 
" style="stroke: #000000; stroke-width: 2"/>
      </defs>
      <g>
       <use xlink:href="#mae0670d7bb" x="62.664886" y="234.5525" style="fill: #ffffff; stroke: #000000; stroke-width: 2"/>
      </g>
     </g>
     <g id="line2d_2">
      <defs>
       <path id="md16e25dfb6" d="M 0 0 
L 0 6 
" style="stroke: #000000; stroke-width: 2"/>
      </defs>
      <g>
       <use xlink:href="#md16e25dfb6" x="62.664886" y="11.759062" style="fill: #ffffff; stroke: #000000; stroke-width: 2"/>
      </g>
     </g>
     <g id="text_1">
      <!-- 0 -->
      <g transform="translate(58.847386 247.170625)scale(0.12 -0.12)">
       <defs>
        <path id="DejaVuSans-30" d="M 2034 4250 
Q 1547 4250 1301 3770 
Q 1056 3291 1056 2328 
Q 1056 1369 1301 889 
Q 1547 409 2034 409 
Q 2525 409 2770 889 
Q 3016 1369 3016 2328 
Q 3016 3291 2770 3770 
Q 2525 4250 2034 4250 
z
M 2034 4750 
Q 2819 4750 3233 4129 
Q 3647 3509 3647 2328 
Q 3647 1150 3233 529 
Q 2819 -91 2034 -91 
Q 1250 -91 836 529 
Q 422 1150 422 2328 
Q 422 3509 836 4129 
Q 1250 4750 2034 4750 
z
" transform="scale(0.015625)"/>
       </defs>
       <use xlink:href="#DejaVuSans-30"/>
      </g>
     </g>
    </g>
    <g id="xtick_2">
     <g id="line2d_3">
      <g>
       <use xlink:href="#mae0670d7bb" x="118.882625" y="234.5525" style="fill: #ffffff; stroke: #000000; stroke-width: 2"/>
      </g>
     </g>
     <g id="line2d_4">
      <g>
       <use xlink:href="#md16e25dfb6" x="118.882625" y="11.759062" style="fill: #ffffff; stroke: #000000; stroke-width: 2"/>
      </g>
     </g>
     <g id="text_2">
      <!-- 500 -->
      <g transform="translate(107.430125 247.170625)scale(0.12 -0.12)">
       <defs>
        <path id="DejaVuSans-35" d="M 691 4666 
L 3169 4666 
L 3169 4134 
L 1269 4134 
L 1269 2991 
Q 1406 3038 1543 3061 
Q 1681 3084 1819 3084 
Q 2600 3084 3056 2656 
Q 3513 2228 3513 1497 
Q 3513 744 3044 326 
Q 2575 -91 1722 -91 
Q 1428 -91 1123 -41 
Q 819 9 494 109 
L 494 744 
Q 775 591 1075 516 
Q 1375 441 1709 441 
Q 2250 441 2565 725 
Q 2881 1009 2881 1497 
Q 2881 1984 2565 2268 
Q 2250 2553 1709 2553 
Q 1456 2553 1204 2497 
Q 953 2441 691 2322 
L 691 4666 
z
" transform="scale(0.015625)"/>
       </defs>
       <use xlink:href="#DejaVuSans-35"/>
       <use xlink:href="#DejaVuSans-30" x="63.623047"/>
       <use xlink:href="#DejaVuSans-30" x="127.246094"/>
      </g>
     </g>
    </g>
    <g id="xtick_3">
     <g id="line2d_5">
      <g>
       <use xlink:href="#mae0670d7bb" x="175.100364" y="234.5525" style="fill: #ffffff; stroke: #000000; stroke-width: 2"/>
      </g>
     </g>
     <g id="line2d_6">
      <g>
       <use xlink:href="#md16e25dfb6" x="175.100364" y="11.759062" style="fill: #ffffff; stroke: #000000; stroke-width: 2"/>
      </g>
     </g>
     <g id="text_3">
      <!-- 1000 -->
      <g transform="translate(159.830364 247.170625)scale(0.12 -0.12)">
       <defs>
        <path id="DejaVuSans-31" d="M 794 531 
L 1825 531 
L 1825 4091 
L 703 3866 
L 703 4441 
L 1819 4666 
L 2450 4666 
L 2450 531 
L 3481 531 
L 3481 0 
L 794 0 
L 794 531 
z
" transform="scale(0.015625)"/>
       </defs>
       <use xlink:href="#DejaVuSans-31"/>
       <use xlink:href="#DejaVuSans-30" x="63.623047"/>
       <use xlink:href="#DejaVuSans-30" x="127.246094"/>
       <use xlink:href="#DejaVuSans-30" x="190.869141"/>
      </g>
     </g>
    </g>
    <g id="xtick_4">
     <g id="line2d_7">
      <g>
       <use xlink:href="#mae0670d7bb" x="231.318103" y="234.5525" style="fill: #ffffff; stroke: #000000; stroke-width: 2"/>
      </g>
     </g>
     <g id="line2d_8">
      <g>
       <use xlink:href="#md16e25dfb6" x="231.318103" y="11.759062" style="fill: #ffffff; stroke: #000000; stroke-width: 2"/>
      </g>
     </g>
     <g id="text_4">
      <!-- 1500 -->
      <g transform="translate(216.048103 247.170625)scale(0.12 -0.12)">
       <use xlink:href="#DejaVuSans-31"/>
       <use xlink:href="#DejaVuSans-35" x="63.623047"/>
       <use xlink:href="#DejaVuSans-30" x="127.246094"/>
       <use xlink:href="#DejaVuSans-30" x="190.869141"/>
      </g>
     </g>
    </g>
    <g id="xtick_5">
     <g id="line2d_9">
      <g>
       <use xlink:href="#mae0670d7bb" x="287.535842" y="234.5525" style="fill: #ffffff; stroke: #000000; stroke-width: 2"/>
      </g>
     </g>
     <g id="line2d_10">
      <g>
       <use xlink:href="#md16e25dfb6" x="287.535842" y="11.759062" style="fill: #ffffff; stroke: #000000; stroke-width: 2"/>
      </g>
     </g>
     <g id="text_5">
      <!-- 2000 -->
      <g transform="translate(272.265842 247.170625)scale(0.12 -0.12)">
       <defs>
        <path id="DejaVuSans-32" d="M 1228 531 
L 3431 531 
L 3431 0 
L 469 0 
L 469 531 
Q 828 903 1448 1529 
Q 2069 2156 2228 2338 
Q 2531 2678 2651 2914 
Q 2772 3150 2772 3378 
Q 2772 3750 2511 3984 
Q 2250 4219 1831 4219 
Q 1534 4219 1204 4116 
Q 875 4013 500 3803 
L 500 4441 
Q 881 4594 1212 4672 
Q 1544 4750 1819 4750 
Q 2544 4750 2975 4387 
Q 3406 4025 3406 3419 
Q 3406 3131 3298 2873 
Q 3191 2616 2906 2266 
Q 2828 2175 2409 1742 
Q 1991 1309 1228 531 
z
" transform="scale(0.015625)"/>
       </defs>
       <use xlink:href="#DejaVuSans-32"/>
       <use xlink:href="#DejaVuSans-30" x="63.623047"/>
       <use xlink:href="#DejaVuSans-30" x="127.246094"/>
       <use xlink:href="#DejaVuSans-30" x="190.869141"/>
      </g>
     </g>
    </g>
    <g id="text_6">
     <!-- Position of slice along given axis -->
     <g transform="translate(98.045 266.784375)scale(0.12 -0.12)">
      <defs>
       <path id="DejaVuSans-50" d="M 1259 4147 
L 1259 2394 
L 2053 2394 
Q 2494 2394 2734 2622 
Q 2975 2850 2975 3272 
Q 2975 3691 2734 3919 
Q 2494 4147 2053 4147 
L 1259 4147 
z
M 628 4666 
L 2053 4666 
Q 2838 4666 3239 4311 
Q 3641 3956 3641 3272 
Q 3641 2581 3239 2228 
Q 2838 1875 2053 1875 
L 1259 1875 
L 1259 0 
L 628 0 
L 628 4666 
z
" transform="scale(0.015625)"/>
       <path id="DejaVuSans-6f" d="M 1959 3097 
Q 1497 3097 1228 2736 
Q 959 2375 959 1747 
Q 959 1119 1226 758 
Q 1494 397 1959 397 
Q 2419 397 2687 759 
Q 2956 1122 2956 1747 
Q 2956 2369 2687 2733 
Q 2419 3097 1959 3097 
z
M 1959 3584 
Q 2709 3584 3137 3096 
Q 3566 2609 3566 1747 
Q 3566 888 3137 398 
Q 2709 -91 1959 -91 
Q 1206 -91 779 398 
Q 353 888 353 1747 
Q 353 2609 779 3096 
Q 1206 3584 1959 3584 
z
" transform="scale(0.015625)"/>
       <path id="DejaVuSans-73" d="M 2834 3397 
L 2834 2853 
Q 2591 2978 2328 3040 
Q 2066 3103 1784 3103 
Q 1356 3103 1142 2972 
Q 928 2841 928 2578 
Q 928 2378 1081 2264 
Q 1234 2150 1697 2047 
L 1894 2003 
Q 2506 1872 2764 1633 
Q 3022 1394 3022 966 
Q 3022 478 2636 193 
Q 2250 -91 1575 -91 
Q 1294 -91 989 -36 
Q 684 19 347 128 
L 347 722 
Q 666 556 975 473 
Q 1284 391 1588 391 
Q 1994 391 2212 530 
Q 2431 669 2431 922 
Q 2431 1156 2273 1281 
Q 2116 1406 1581 1522 
L 1381 1569 
Q 847 1681 609 1914 
Q 372 2147 372 2553 
Q 372 3047 722 3315 
Q 1072 3584 1716 3584 
Q 2034 3584 2315 3537 
Q 2597 3491 2834 3397 
z
" transform="scale(0.015625)"/>
       <path id="DejaVuSans-69" d="M 603 3500 
L 1178 3500 
L 1178 0 
L 603 0 
L 603 3500 
z
M 603 4863 
L 1178 4863 
L 1178 4134 
L 603 4134 
L 603 4863 
z
" transform="scale(0.015625)"/>
       <path id="DejaVuSans-74" d="M 1172 4494 
L 1172 3500 
L 2356 3500 
L 2356 3053 
L 1172 3053 
L 1172 1153 
Q 1172 725 1289 603 
Q 1406 481 1766 481 
L 2356 481 
L 2356 0 
L 1766 0 
Q 1100 0 847 248 
Q 594 497 594 1153 
L 594 3053 
L 172 3053 
L 172 3500 
L 594 3500 
L 594 4494 
L 1172 4494 
z
" transform="scale(0.015625)"/>
       <path id="DejaVuSans-6e" d="M 3513 2113 
L 3513 0 
L 2938 0 
L 2938 2094 
Q 2938 2591 2744 2837 
Q 2550 3084 2163 3084 
Q 1697 3084 1428 2787 
Q 1159 2491 1159 1978 
L 1159 0 
L 581 0 
L 581 3500 
L 1159 3500 
L 1159 2956 
Q 1366 3272 1645 3428 
Q 1925 3584 2291 3584 
Q 2894 3584 3203 3211 
Q 3513 2838 3513 2113 
z
" transform="scale(0.015625)"/>
       <path id="DejaVuSans-20" transform="scale(0.015625)"/>
       <path id="DejaVuSans-66" d="M 2375 4863 
L 2375 4384 
L 1825 4384 
Q 1516 4384 1395 4259 
Q 1275 4134 1275 3809 
L 1275 3500 
L 2222 3500 
L 2222 3053 
L 1275 3053 
L 1275 0 
L 697 0 
L 697 3053 
L 147 3053 
L 147 3500 
L 697 3500 
L 697 3744 
Q 697 4328 969 4595 
Q 1241 4863 1831 4863 
L 2375 4863 
z
" transform="scale(0.015625)"/>
       <path id="DejaVuSans-6c" d="M 603 4863 
L 1178 4863 
L 1178 0 
L 603 0 
L 603 4863 
z
" transform="scale(0.015625)"/>
       <path id="DejaVuSans-63" d="M 3122 3366 
L 3122 2828 
Q 2878 2963 2633 3030 
Q 2388 3097 2138 3097 
Q 1578 3097 1268 2742 
Q 959 2388 959 1747 
Q 959 1106 1268 751 
Q 1578 397 2138 397 
Q 2388 397 2633 464 
Q 2878 531 3122 666 
L 3122 134 
Q 2881 22 2623 -34 
Q 2366 -91 2075 -91 
Q 1284 -91 818 406 
Q 353 903 353 1747 
Q 353 2603 823 3093 
Q 1294 3584 2113 3584 
Q 2378 3584 2631 3529 
Q 2884 3475 3122 3366 
z
" transform="scale(0.015625)"/>
       <path id="DejaVuSans-65" d="M 3597 1894 
L 3597 1613 
L 953 1613 
Q 991 1019 1311 708 
Q 1631 397 2203 397 
Q 2534 397 2845 478 
Q 3156 559 3463 722 
L 3463 178 
Q 3153 47 2828 -22 
Q 2503 -91 2169 -91 
Q 1331 -91 842 396 
Q 353 884 353 1716 
Q 353 2575 817 3079 
Q 1281 3584 2069 3584 
Q 2775 3584 3186 3129 
Q 3597 2675 3597 1894 
z
M 3022 2063 
Q 3016 2534 2758 2815 
Q 2500 3097 2075 3097 
Q 1594 3097 1305 2825 
Q 1016 2553 972 2059 
L 3022 2063 
z
" transform="scale(0.015625)"/>
       <path id="DejaVuSans-61" d="M 2194 1759 
Q 1497 1759 1228 1600 
Q 959 1441 959 1056 
Q 959 750 1161 570 
Q 1363 391 1709 391 
Q 2188 391 2477 730 
Q 2766 1069 2766 1631 
L 2766 1759 
L 2194 1759 
z
M 3341 1997 
L 3341 0 
L 2766 0 
L 2766 531 
Q 2569 213 2275 61 
Q 1981 -91 1556 -91 
Q 1019 -91 701 211 
Q 384 513 384 1019 
Q 384 1609 779 1909 
Q 1175 2209 1959 2209 
L 2766 2209 
L 2766 2266 
Q 2766 2663 2505 2880 
Q 2244 3097 1772 3097 
Q 1472 3097 1187 3025 
Q 903 2953 641 2809 
L 641 3341 
Q 956 3463 1253 3523 
Q 1550 3584 1831 3584 
Q 2591 3584 2966 3190 
Q 3341 2797 3341 1997 
z
" transform="scale(0.015625)"/>
       <path id="DejaVuSans-67" d="M 2906 1791 
Q 2906 2416 2648 2759 
Q 2391 3103 1925 3103 
Q 1463 3103 1205 2759 
Q 947 2416 947 1791 
Q 947 1169 1205 825 
Q 1463 481 1925 481 
Q 2391 481 2648 825 
Q 2906 1169 2906 1791 
z
M 3481 434 
Q 3481 -459 3084 -895 
Q 2688 -1331 1869 -1331 
Q 1566 -1331 1297 -1286 
Q 1028 -1241 775 -1147 
L 775 -588 
Q 1028 -725 1275 -790 
Q 1522 -856 1778 -856 
Q 2344 -856 2625 -561 
Q 2906 -266 2906 331 
L 2906 616 
Q 2728 306 2450 153 
Q 2172 0 1784 0 
Q 1141 0 747 490 
Q 353 981 353 1791 
Q 353 2603 747 3093 
Q 1141 3584 1784 3584 
Q 2172 3584 2450 3431 
Q 2728 3278 2906 2969 
L 2906 3500 
L 3481 3500 
L 3481 434 
z
" transform="scale(0.015625)"/>
       <path id="DejaVuSans-76" d="M 191 3500 
L 800 3500 
L 1894 563 
L 2988 3500 
L 3597 3500 
L 2284 0 
L 1503 0 
L 191 3500 
z
" transform="scale(0.015625)"/>
       <path id="DejaVuSans-78" d="M 3513 3500 
L 2247 1797 
L 3578 0 
L 2900 0 
L 1881 1375 
L 863 0 
L 184 0 
L 1544 1831 
L 300 3500 
L 978 3500 
L 1906 2253 
L 2834 3500 
L 3513 3500 
z
" transform="scale(0.015625)"/>
      </defs>
      <use xlink:href="#DejaVuSans-50"/>
      <use xlink:href="#DejaVuSans-6f" x="56.677734"/>
      <use xlink:href="#DejaVuSans-73" x="117.859375"/>
      <use xlink:href="#DejaVuSans-69" x="169.958984"/>
      <use xlink:href="#DejaVuSans-74" x="197.742188"/>
      <use xlink:href="#DejaVuSans-69" x="236.951172"/>
      <use xlink:href="#DejaVuSans-6f" x="264.734375"/>
      <use xlink:href="#DejaVuSans-6e" x="325.916016"/>
      <use xlink:href="#DejaVuSans-20" x="389.294922"/>
      <use xlink:href="#DejaVuSans-6f" x="421.082031"/>
      <use xlink:href="#DejaVuSans-66" x="482.263672"/>
      <use xlink:href="#DejaVuSans-20" x="517.46875"/>
      <use xlink:href="#DejaVuSans-73" x="549.255859"/>
      <use xlink:href="#DejaVuSans-6c" x="601.355469"/>
      <use xlink:href="#DejaVuSans-69" x="629.138672"/>
      <use xlink:href="#DejaVuSans-63" x="656.921875"/>
      <use xlink:href="#DejaVuSans-65" x="711.902344"/>
      <use xlink:href="#DejaVuSans-20" x="773.425781"/>
      <use xlink:href="#DejaVuSans-61" x="805.212891"/>
      <use xlink:href="#DejaVuSans-6c" x="866.492188"/>
      <use xlink:href="#DejaVuSans-6f" x="894.275391"/>
      <use xlink:href="#DejaVuSans-6e" x="955.457031"/>
      <use xlink:href="#DejaVuSans-67" x="1018.835938"/>
      <use xlink:href="#DejaVuSans-20" x="1082.3125"/>
      <use xlink:href="#DejaVuSans-67" x="1114.099609"/>
      <use xlink:href="#DejaVuSans-69" x="1177.576172"/>
      <use xlink:href="#DejaVuSans-76" x="1205.359375"/>
      <use xlink:href="#DejaVuSans-65" x="1264.539062"/>
      <use xlink:href="#DejaVuSans-6e" x="1326.0625"/>
      <use xlink:href="#DejaVuSans-20" x="1389.441406"/>
      <use xlink:href="#DejaVuSans-61" x="1421.228516"/>
      <use xlink:href="#DejaVuSans-78" x="1482.507812"/>
      <use xlink:href="#DejaVuSans-69" x="1541.6875"/>
      <use xlink:href="#DejaVuSans-73" x="1569.470703"/>
     </g>
    </g>
   </g>
   <g id="matplotlib.axis_2">
    <g id="ytick_1">
     <g id="line2d_11">
      <defs>
       <path id="m39f520537a" d="M 0 0 
L 6 0 
" style="stroke: #000000; stroke-width: 2"/>
      </defs>
      <g>
       <use xlink:href="#m39f520537a" x="49.3975" y="234.5525" style="fill: #ffffff; stroke: #000000; stroke-width: 2"/>
      </g>
     </g>
     <g id="line2d_12">
      <defs>
       <path id="m645c1bb9a1" d="M 0 0 
L -6 0 
" style="stroke: #000000; stroke-width: 2"/>
      </defs>
      <g>
       <use xlink:href="#m645c1bb9a1" x="341.28" y="234.5525" style="fill: #ffffff; stroke: #000000; stroke-width: 2"/>
      </g>
     </g>
     <g id="text_7">
      <!-- 0.0 -->
      <g transform="translate(26.81375 239.111562)scale(0.12 -0.12)">
       <defs>
        <path id="DejaVuSans-2e" d="M 684 794 
L 1344 794 
L 1344 0 
L 684 0 
L 684 794 
z
" transform="scale(0.015625)"/>
       </defs>
       <use xlink:href="#DejaVuSans-30"/>
       <use xlink:href="#DejaVuSans-2e" x="63.623047"/>
       <use xlink:href="#DejaVuSans-30" x="95.410156"/>
      </g>
     </g>
    </g>
    <g id="ytick_2">
     <g id="line2d_13">
      <g>
       <use xlink:href="#m39f520537a" x="49.3975" y="189.993812" style="fill: #ffffff; stroke: #000000; stroke-width: 2"/>
      </g>
     </g>
     <g id="line2d_14">
      <g>
       <use xlink:href="#m645c1bb9a1" x="341.28" y="189.993812" style="fill: #ffffff; stroke: #000000; stroke-width: 2"/>
      </g>
     </g>
     <g id="text_8">
      <!-- 0.2 -->
      <g transform="translate(26.81375 194.552875)scale(0.12 -0.12)">
       <use xlink:href="#DejaVuSans-30"/>
       <use xlink:href="#DejaVuSans-2e" x="63.623047"/>
       <use xlink:href="#DejaVuSans-32" x="95.410156"/>
      </g>
     </g>
    </g>
    <g id="ytick_3">
     <g id="line2d_15">
      <g>
       <use xlink:href="#m39f520537a" x="49.3975" y="145.435125" style="fill: #ffffff; stroke: #000000; stroke-width: 2"/>
      </g>
     </g>
     <g id="line2d_16">
      <g>
       <use xlink:href="#m645c1bb9a1" x="341.28" y="145.435125" style="fill: #ffffff; stroke: #000000; stroke-width: 2"/>
      </g>
     </g>
     <g id="text_9">
      <!-- 0.4 -->
      <g transform="translate(26.81375 149.994187)scale(0.12 -0.12)">
       <defs>
        <path id="DejaVuSans-34" d="M 2419 4116 
L 825 1625 
L 2419 1625 
L 2419 4116 
z
M 2253 4666 
L 3047 4666 
L 3047 1625 
L 3713 1625 
L 3713 1100 
L 3047 1100 
L 3047 0 
L 2419 0 
L 2419 1100 
L 313 1100 
L 313 1709 
L 2253 4666 
z
" transform="scale(0.015625)"/>
       </defs>
       <use xlink:href="#DejaVuSans-30"/>
       <use xlink:href="#DejaVuSans-2e" x="63.623047"/>
       <use xlink:href="#DejaVuSans-34" x="95.410156"/>
      </g>
     </g>
    </g>
    <g id="ytick_4">
     <g id="line2d_17">
      <g>
       <use xlink:href="#m39f520537a" x="49.3975" y="100.876437" style="fill: #ffffff; stroke: #000000; stroke-width: 2"/>
      </g>
     </g>
     <g id="line2d_18">
      <g>
       <use xlink:href="#m645c1bb9a1" x="341.28" y="100.876437" style="fill: #ffffff; stroke: #000000; stroke-width: 2"/>
      </g>
     </g>
     <g id="text_10">
      <!-- 0.6 -->
      <g transform="translate(26.81375 105.4355)scale(0.12 -0.12)">
       <defs>
        <path id="DejaVuSans-36" d="M 2113 2584 
Q 1688 2584 1439 2293 
Q 1191 2003 1191 1497 
Q 1191 994 1439 701 
Q 1688 409 2113 409 
Q 2538 409 2786 701 
Q 3034 994 3034 1497 
Q 3034 2003 2786 2293 
Q 2538 2584 2113 2584 
z
M 3366 4563 
L 3366 3988 
Q 3128 4100 2886 4159 
Q 2644 4219 2406 4219 
Q 1781 4219 1451 3797 
Q 1122 3375 1075 2522 
Q 1259 2794 1537 2939 
Q 1816 3084 2150 3084 
Q 2853 3084 3261 2657 
Q 3669 2231 3669 1497 
Q 3669 778 3244 343 
Q 2819 -91 2113 -91 
Q 1303 -91 875 529 
Q 447 1150 447 2328 
Q 447 3434 972 4092 
Q 1497 4750 2381 4750 
Q 2619 4750 2861 4703 
Q 3103 4656 3366 4563 
z
" transform="scale(0.015625)"/>
       </defs>
       <use xlink:href="#DejaVuSans-30"/>
       <use xlink:href="#DejaVuSans-2e" x="63.623047"/>
       <use xlink:href="#DejaVuSans-36" x="95.410156"/>
      </g>
     </g>
    </g>
    <g id="ytick_5">
     <g id="line2d_19">
      <g>
       <use xlink:href="#m39f520537a" x="49.3975" y="56.31775" style="fill: #ffffff; stroke: #000000; stroke-width: 2"/>
      </g>
     </g>
     <g id="line2d_20">
      <g>
       <use xlink:href="#m645c1bb9a1" x="341.28" y="56.31775" style="fill: #ffffff; stroke: #000000; stroke-width: 2"/>
      </g>
     </g>
     <g id="text_11">
      <!-- 0.8 -->
      <g transform="translate(26.81375 60.876812)scale(0.12 -0.12)">
       <defs>
        <path id="DejaVuSans-38" d="M 2034 2216 
Q 1584 2216 1326 1975 
Q 1069 1734 1069 1313 
Q 1069 891 1326 650 
Q 1584 409 2034 409 
Q 2484 409 2743 651 
Q 3003 894 3003 1313 
Q 3003 1734 2745 1975 
Q 2488 2216 2034 2216 
z
M 1403 2484 
Q 997 2584 770 2862 
Q 544 3141 544 3541 
Q 544 4100 942 4425 
Q 1341 4750 2034 4750 
Q 2731 4750 3128 4425 
Q 3525 4100 3525 3541 
Q 3525 3141 3298 2862 
Q 3072 2584 2669 2484 
Q 3125 2378 3379 2068 
Q 3634 1759 3634 1313 
Q 3634 634 3220 271 
Q 2806 -91 2034 -91 
Q 1263 -91 848 271 
Q 434 634 434 1313 
Q 434 1759 690 2068 
Q 947 2378 1403 2484 
z
M 1172 3481 
Q 1172 3119 1398 2916 
Q 1625 2713 2034 2713 
Q 2441 2713 2670 2916 
Q 2900 3119 2900 3481 
Q 2900 3844 2670 4047 
Q 2441 4250 2034 4250 
Q 1625 4250 1398 4047 
Q 1172 3844 1172 3481 
z
" transform="scale(0.015625)"/>
       </defs>
       <use xlink:href="#DejaVuSans-30"/>
       <use xlink:href="#DejaVuSans-2e" x="63.623047"/>
       <use xlink:href="#DejaVuSans-38" x="95.410156"/>
      </g>
     </g>
    </g>
    <g id="ytick_6">
     <g id="line2d_21">
      <g>
       <use xlink:href="#m39f520537a" x="49.3975" y="11.759062" style="fill: #ffffff; stroke: #000000; stroke-width: 2"/>
      </g>
     </g>
     <g id="line2d_22">
      <g>
       <use xlink:href="#m645c1bb9a1" x="341.28" y="11.759062" style="fill: #ffffff; stroke: #000000; stroke-width: 2"/>
      </g>
     </g>
     <g id="text_12">
      <!-- 1.0 -->
      <g transform="translate(26.81375 16.318125)scale(0.12 -0.12)">
       <use xlink:href="#DejaVuSans-31"/>
       <use xlink:href="#DejaVuSans-2e" x="63.623047"/>
       <use xlink:href="#DejaVuSans-30" x="95.410156"/>
      </g>
     </g>
    </g>
    <g id="text_13">
     <!-- Porosity of slice -->
     <g transform="translate(16.318125 169.973594)rotate(-90)scale(0.12 -0.12)">
      <defs>
       <path id="DejaVuSans-72" d="M 2631 2963 
Q 2534 3019 2420 3045 
Q 2306 3072 2169 3072 
Q 1681 3072 1420 2755 
Q 1159 2438 1159 1844 
L 1159 0 
L 581 0 
L 581 3500 
L 1159 3500 
L 1159 2956 
Q 1341 3275 1631 3429 
Q 1922 3584 2338 3584 
Q 2397 3584 2469 3576 
Q 2541 3569 2628 3553 
L 2631 2963 
z
" transform="scale(0.015625)"/>
       <path id="DejaVuSans-79" d="M 2059 -325 
Q 1816 -950 1584 -1140 
Q 1353 -1331 966 -1331 
L 506 -1331 
L 506 -850 
L 844 -850 
Q 1081 -850 1212 -737 
Q 1344 -625 1503 -206 
L 1606 56 
L 191 3500 
L 800 3500 
L 1894 763 
L 2988 3500 
L 3597 3500 
L 2059 -325 
z
" transform="scale(0.015625)"/>
      </defs>
      <use xlink:href="#DejaVuSans-50"/>
      <use xlink:href="#DejaVuSans-6f" x="56.677734"/>
      <use xlink:href="#DejaVuSans-72" x="117.859375"/>
      <use xlink:href="#DejaVuSans-6f" x="156.722656"/>
      <use xlink:href="#DejaVuSans-73" x="217.904297"/>
      <use xlink:href="#DejaVuSans-69" x="270.003906"/>
      <use xlink:href="#DejaVuSans-74" x="297.787109"/>
      <use xlink:href="#DejaVuSans-79" x="336.996094"/>
      <use xlink:href="#DejaVuSans-20" x="396.175781"/>
      <use xlink:href="#DejaVuSans-6f" x="427.962891"/>
      <use xlink:href="#DejaVuSans-66" x="489.144531"/>
      <use xlink:href="#DejaVuSans-20" x="524.349609"/>
      <use xlink:href="#DejaVuSans-73" x="556.136719"/>
      <use xlink:href="#DejaVuSans-6c" x="608.236328"/>
      <use xlink:href="#DejaVuSans-69" x="636.019531"/>
      <use xlink:href="#DejaVuSans-63" x="663.802734"/>
      <use xlink:href="#DejaVuSans-65" x="718.783203"/>
     </g>
    </g>
   </g>
   <g id="line2d_23">
    <path d="M 62.664886 120.110938 
L 63.331589 120.387573 
L 63.998292 120.974262 
L 65.998401 123.426847 
L 66.665103 124.514821 
L 67.998509 127.312735 
L 69.998618 132.375716 
L 71.332023 135.181057 
L 71.998726 136.109363 
L 72.665429 136.794453 
L 73.332132 137.067375 
L 73.998835 136.801879 
L 74.665537 136.265318 
L 75.998943 135.767746 
L 76.665646 135.745467 
L 77.332349 135.99054 
L 77.999052 136.380428 
L 78.665754 136.462119 
L 79.99916 135.509677 
L 81.332566 135.171774 
L 82.665971 136.152065 
L 83.332674 135.932985 
L 83.999377 135.333299 
L 84.66608 134.553522 
L 85.999485 134.202623 
L 86.666188 134.230472 
L 87.332891 134.442125 
L 89.999702 133.205622 
L 90.666405 132.628216 
L 93.333217 129.371718 
L 94.666622 128.482401 
L 95.333325 127.943984 
L 96.000028 127.010108 
L 96.666731 125.855295 
L 98.000136 123.09637 
L 99.333542 119.843585 
L 100.666948 117.262895 
L 101.333651 116.260324 
L 104.667165 113.219194 
L 105.333868 112.961125 
L 106.00057 113.170922 
L 106.667273 113.592373 
L 107.333976 113.516252 
L 108.667382 113.078091 
L 109.334085 113.11708 
L 110.000787 113.36401 
L 111.334193 114.897571 
L 112.000896 115.198342 
L 112.667599 115.874149 
L 115.33441 117.662066 
L 116.001113 117.611938 
L 116.667816 117.41885 
L 117.334519 116.939844 
L 118.667924 115.502827 
L 119.334627 115.263324 
L 120.00133 116.291887 
L 120.668033 116.895286 
L 122.001438 117.004826 
L 122.668141 117.365008 
L 124.001547 118.759324 
L 124.66825 118.672063 
L 126.001655 116.893429 
L 127.335061 115.651356 
L 130.001872 114.440845 
L 130.668575 114.568951 
L 131.335278 114.513252 
L 132.001981 114.6952 
L 132.668684 115.157497 
L 133.335387 115.794315 
L 134.668792 117.871864 
L 136.002198 117.877433 
L 137.335604 118.601512 
L 138.669009 119.967978 
L 139.335712 120.25204 
L 140.669118 120.036673 
L 142.002523 119.091658 
L 142.669226 118.918993 
L 143.335929 118.928276 
L 144.002632 119.286602 
L 145.336038 119.151069 
L 146.00274 119.500112 
L 147.336146 120.539815 
L 150.002957 121.752183 
L 151.336363 121.904425 
L 152.669769 122.775176 
L 153.336472 122.996113 
L 154.003174 123.009109 
L 154.669877 122.873576 
L 157.336689 120.972406 
L 159.336797 118.7946 
L 160.0035 118.698056 
L 160.670203 119.203054 
L 161.336906 119.969835 
L 162.003608 119.886288 
L 162.670311 119.362723 
L 163.337014 119.436987 
L 164.67042 119.151069 
L 165.337123 118.716622 
L 166.003825 118.915279 
L 166.670528 118.993257 
L 168.003934 119.548384 
L 168.670637 119.553954 
L 169.33734 119.962409 
L 170.004042 120.595513 
L 170.670745 121.466264 
L 171.337448 122.127218 
L 172.670854 123.092656 
L 173.337557 123.987543 
L 174.004259 125.242613 
L 174.670962 125.719762 
L 178.004476 125.940699 
L 180.004585 127.440842 
L 180.671288 127.691484 
L 181.337991 127.141927 
L 182.004693 126.441984 
L 183.338099 124.847155 
L 184.671505 123.76475 
L 185.338208 122.892142 
L 186.00491 122.218192 
L 186.671613 121.716907 
L 187.338316 121.631503 
L 188.005019 121.417992 
L 189.338425 120.291029 
L 190.005127 119.702483 
L 192.005236 119.292172 
L 194.005344 118.161495 
L 194.672047 117.912709 
L 195.33875 117.790173 
L 195.33875 117.790173 
" clip-path="url(#p1de765cdf7)" style="fill: none; stroke: #0000ff; stroke-opacity: 0.5; stroke-width: 2; stroke-linecap: square"/>
   </g>
   <g id="line2d_24">
    <path d="M 62.664886 112.383719 
L 63.330474 112.481191 
L 65.327238 112.188774 
L 65.992826 112.770822 
L 66.658414 113.937703 
L 67.98959 113.946058 
L 69.320766 114.814952 
L 69.986354 115.934489 
L 70.651942 117.310238 
L 71.983118 120.677204 
L 72.648706 121.621291 
L 73.314293 122.245113 
L 73.979881 122.353725 
L 75.976645 121.083802 
L 76.642233 121.153425 
L 77.973409 121.094942 
L 78.638997 121.370649 
L 79.970173 121.120006 
L 80.635761 120.432131 
L 81.301349 119.362723 
L 81.966937 117.995328 
L 82.632525 117.015037 
L 83.298113 116.316023 
L 83.963701 116.107154 
L 84.629289 116.455269 
L 87.29164 120.003254 
L 87.957228 120.585302 
L 88.622816 121.704839 
L 89.288404 122.487401 
L 89.953992 123.464907 
L 90.61958 124.097084 
L 91.285168 124.194556 
L 91.950756 123.679346 
L 92.616344 122.50411 
L 93.281932 121.607367 
L 93.94752 120.407067 
L 94.613108 119.549312 
L 95.944284 118.312809 
L 96.609872 118.123434 
L 97.941047 118.134574 
L 98.606635 118.502183 
L 99.272223 118.538387 
L 100.603399 119.46855 
L 101.268987 119.454625 
L 101.934575 118.981189 
L 102.600163 118.090015 
L 103.265751 117.446699 
L 103.931339 117.457839 
L 104.596927 117.669493 
L 105.262515 118.190273 
L 105.928103 118.165208 
L 108.590455 118.972834 
L 109.256042 119.518678 
L 109.92163 120.251112 
L 110.587218 120.774676 
L 111.252806 121.131146 
L 111.918394 121.184059 
L 112.583982 120.989115 
L 113.915158 120.259467 
L 114.580746 120.420992 
L 115.911922 121.529389 
L 117.243098 123.136287 
L 118.574274 124.191771 
L 119.90545 125.681702 
L 120.571038 125.965763 
L 121.236625 125.784744 
L 122.567801 124.54267 
L 123.233389 124.464693 
L 123.898977 124.617863 
L 124.564565 125.280674 
L 125.230153 126.208051 
L 125.895741 126.9377 
L 127.226917 128.051667 
L 127.892505 128.009893 
L 128.558093 127.603295 
L 129.223681 127.372147 
L 129.889269 127.647854 
L 130.554857 128.405352 
L 131.220445 129.683629 
L 131.886033 131.722189 
L 132.551621 133.084014 
L 133.217208 133.459978 
L 133.882796 133.203765 
L 134.548384 132.605008 
L 135.213972 132.20955 
L 135.87956 132.20398 
L 137.210736 131.165205 
L 137.876324 130.413277 
L 139.2075 128.029388 
L 139.873088 126.739971 
L 141.204264 123.687701 
L 141.869852 122.84944 
L 142.53544 121.690914 
L 143.201028 120.785816 
L 143.866616 120.434916 
L 144.532204 119.933631 
L 145.197792 119.97262 
L 145.863379 120.80531 
L 146.528967 121.933202 
L 147.194555 122.821591 
L 147.860143 123.175276 
L 149.191319 123.278318 
L 149.856907 123.35908 
L 150.522495 123.180846 
L 151.188083 122.660066 
L 151.853671 122.311951 
L 152.519259 122.378789 
L 153.850435 123.01932 
L 154.516023 123.063879 
L 155.181611 123.230974 
L 155.847199 122.751968 
L 156.512787 122.832731 
L 157.843962 122.272962 
L 159.175138 124.130503 
L 159.840726 125.433844 
L 161.171902 126.650853 
L 161.83749 126.887571 
L 163.168666 129.115506 
L 163.834254 130.563663 
L 164.499842 132.293097 
L 165.16543 133.142497 
L 166.496606 134.094939 
L 167.162194 134.431914 
L 169.824545 135.083585 
L 170.490133 135.509677 
L 171.155721 135.74918 
L 171.821309 136.849223 
L 172.486897 137.620645 
L 173.152485 137.96876 
L 175.149249 136.985684 
L 175.814837 136.373002 
L 176.480425 135.534742 
L 177.811601 133.145282 
L 178.477189 131.925488 
L 179.808365 129.126645 
L 181.139541 126.826303 
L 183.136304 121.855225 
L 183.801892 120.682774 
L 185.133068 116.123863 
L 187.129832 110.982905 
L 188.461008 109.167138 
L 189.126596 109.027892 
L 189.792184 109.384362 
L 191.12336 108.980549 
L 191.788948 109.267395 
L 193.785711 109.409426 
L 195.116887 111.214053 
L 196.448063 113.52832 
L 197.779239 114.982047 
L 198.444827 115.469408 
L 199.110415 116.494257 
L 199.776003 117.92292 
L 200.441591 119.708053 
L 201.107179 120.66885 
L 202.438355 123.136287 
L 203.103943 124.088729 
L 203.769531 125.358651 
L 204.435119 125.893356 
L 205.100707 125.433844 
L 205.766294 125.450554 
L 206.431882 125.283459 
L 207.763058 124.035815 
L 208.428646 124.035815 
L 209.094234 123.114007 
L 209.759822 122.537529 
L 211.090998 120.757967 
L 212.422174 117.789244 
L 213.087762 116.143358 
L 213.75335 115.536246 
L 214.418938 115.539031 
L 215.084526 116.391216 
L 216.415702 117.5943 
L 217.746877 119.432346 
L 218.412465 120.82759 
L 220.409229 123.846441 
L 221.740405 123.843656 
L 224.402757 123.322876 
L 225.068345 123.434273 
L 225.733933 123.687701 
L 227.730697 123.016535 
L 228.396285 122.609937 
L 229.061873 121.718764 
L 229.72746 121.340015 
L 231.724224 120.855439 
L 232.389812 120.448841 
L 233.0554 120.32909 
L 233.720988 120.682774 
L 234.386576 121.270392 
L 235.717752 122.061308 
L 236.38334 122.242328 
L 237.048928 121.768892 
L 237.714516 121.707624 
L 238.380104 121.972191 
L 239.045692 122.069663 
L 240.376868 122.618292 
L 241.042456 122.827161 
L 241.708043 123.295027 
L 242.373631 123.54567 
L 243.704807 124.818377 
L 244.370395 124.835087 
L 245.035983 125.102439 
L 245.701571 125.637143 
L 246.367159 126.325018 
L 247.032747 126.486543 
L 248.363923 125.520177 
L 249.029511 125.043956 
L 249.695099 125.046741 
L 250.360687 125.534101 
L 251.026275 125.840442 
L 251.691863 125.846012 
L 252.357451 125.289028 
L 253.688626 125.592584 
L 254.354214 126.221976 
L 255.019802 126.575661 
L 255.68539 125.974118 
L 256.350978 125.043956 
L 257.016566 124.823947 
L 257.682154 124.04417 
L 258.347742 123.066664 
L 259.01333 122.289672 
L 260.344506 121.565593 
L 261.010094 121.301026 
L 261.675682 121.273177 
L 261.675682 121.273177 
" clip-path="url(#p1de765cdf7)" style="fill: none; stroke: #ff0000; stroke-opacity: 0.5; stroke-width: 2; stroke-linecap: square"/>
   </g>
   <g id="line2d_25">
    <path d="M 62.664886 124.046955 
L 63.99495 124.00611 
L 65.325014 124.485115 
L 66.655078 125.431988 
L 67.32011 125.925846 
L 68.650173 126.60908 
L 69.315205 126.204338 
L 70.645269 123.972691 
L 71.975333 120.745899 
L 72.640365 119.56138 
L 73.305397 118.867008 
L 73.970429 119.175205 
L 74.635461 119.308881 
L 75.300492 120.549098 
L 76.630556 121.863579 
L 77.96062 123.400854 
L 79.290684 125.873861 
L 79.955716 127.466834 
L 80.620748 128.762749 
L 81.950811 129.598225 
L 82.615843 129.475688 
L 83.280875 129.594512 
L 83.945907 129.876717 
L 84.610939 129.847011 
L 85.275971 130.634214 
L 85.941003 131.603366 
L 87.936098 136.861291 
L 88.60113 138.001251 
L 89.266162 138.625072 
L 89.931194 139.631356 
L 90.596226 141.354292 
L 91.261258 143.89785 
L 91.92629 145.353434 
L 92.591322 145.758175 
L 93.921386 144.740752 
L 94.586417 144.551378 
L 96.581513 141.721901 
L 97.246545 140.775029 
L 97.911577 139.50882 
L 98.576609 137.952979 
L 99.241641 135.498538 
L 99.906673 131.558807 
L 101.236736 125.565664 
L 101.901768 123.022105 
L 103.231832 116.553669 
L 103.896864 114.763895 
L 104.561896 113.895001 
L 105.226928 113.831876 
L 105.89196 114.047243 
L 106.556992 114.689631 
L 109.882151 119.13436 
L 110.547183 119.873291 
L 111.212215 120.018107 
L 111.877247 120.382003 
L 112.542279 120.14807 
L 113.872343 119.268036 
L 114.537374 119.126933 
L 115.202406 119.171492 
L 117.197502 120.14807 
L 117.862534 120.790458 
L 118.527566 121.596227 
L 119.192598 122.097512 
L 120.522661 123.571662 
L 121.187693 125.086658 
L 122.517757 127.541099 
L 123.182789 128.172347 
L 124.512853 128.142641 
L 125.842917 126.620219 
L 126.507949 126.571947 
L 127.17298 125.933273 
L 127.838012 125.569377 
L 128.503044 125.030959 
L 129.168076 125.35401 
L 129.833108 126.159779 
L 130.49814 127.314592 
L 131.163172 128.840727 
L 131.828204 129.252895 
L 132.493236 129.030102 
L 133.158268 128.992969 
L 133.823299 128.588228 
L 134.488331 127.61165 
L 135.818395 125.068092 
L 137.813491 122.606224 
L 138.478523 121.540529 
L 139.808587 120.667921 
L 141.803682 120.073805 
L 143.133746 118.90414 
L 144.46381 117.5451 
L 145.128842 116.902712 
L 145.793874 116.542529 
L 146.458906 115.974406 
L 147.123937 115.651356 
L 147.788969 115.179776 
L 148.454001 115.343158 
L 149.119033 115.669922 
L 149.784065 115.417423 
L 150.449097 116.208339 
L 151.779161 118.677633 
L 152.444193 119.873291 
L 153.109224 119.999541 
L 155.10432 119.264323 
L 155.769352 119.550241 
L 156.434384 120.036673 
L 157.099416 120.177776 
L 157.764448 119.628218 
L 159.094512 118.072378 
L 159.759543 117.697342 
L 160.424575 117.129219 
L 161.754639 116.553669 
L 162.419671 116.594515 
L 163.749735 118.770464 
L 164.414767 120.526819 
L 166.409862 124.681916 
L 167.074894 125.721619 
L 167.739926 126.486543 
L 169.06999 127.180916 
L 170.400054 127.296026 
L 171.065086 127.26632 
L 171.730118 127.552238 
L 172.39515 127.214335 
L 174.390245 123.007252 
L 175.720309 121.198912 
L 176.385341 120.775605 
L 179.045469 117.077234 
L 179.7105 116.53139 
L 181.040564 114.997828 
L 181.705596 114.760182 
L 182.370628 114.767608 
L 183.03566 114.117794 
L 183.700692 113.204341 
L 184.365724 113.033533 
L 185.030756 113.063239 
L 185.695787 113.445701 
L 186.360819 114.25147 
L 187.025851 114.604226 
L 187.690883 114.626506 
L 188.355915 114.82702 
L 189.020947 114.708197 
L 189.685979 114.83816 
L 191.016043 115.759039 
L 191.681075 116.479405 
L 193.011138 120.133217 
L 194.341202 124.730188 
L 195.006234 126.698197 
L 196.336298 129.453409 
L 197.00133 129.991827 
L 197.666362 129.787599 
L 198.331394 129.015249 
L 198.996425 128.562235 
L 200.326489 128.246611 
L 200.991521 128.695911 
L 202.986617 128.818448 
L 203.651649 129.21205 
L 204.316681 129.178631 
L 204.981713 129.275174 
L 205.646744 128.759036 
L 206.311776 127.938414 
L 208.306872 124.607652 
L 208.971904 122.951554 
L 209.636936 120.370863 
L 210.967 116.460838 
L 211.632031 114.830733 
L 212.962095 111.065524 
L 213.627127 109.795601 
L 214.292159 109.892145 
L 214.957191 110.166924 
L 215.622223 110.601371 
L 216.952287 112.766181 
L 217.617319 114.180919 
L 218.28235 114.734189 
L 219.612414 116.264038 
L 220.277446 117.626791 
L 221.60751 118.963551 
L 222.272542 119.750755 
L 222.937574 120.14807 
L 223.602606 119.728476 
L 225.597701 117.262895 
L 226.262733 116.650213 
L 226.927765 116.598228 
L 227.592797 117.103226 
L 228.257829 117.975834 
L 229.587893 121.321449 
L 230.252925 122.18663 
L 230.917957 122.602511 
L 231.582988 122.661922 
L 232.913052 121.366007 
L 233.578084 120.645642 
L 234.243116 119.695057 
L 234.908148 118.491972 
L 236.238212 116.96955 
L 237.568276 116.004112 
L 238.233307 115.239188 
L 239.563371 113.471693 
L 240.228403 113.178348 
L 240.893435 112.636218 
L 241.558467 112.253756 
L 242.223499 112.417138 
L 242.888531 112.279748 
L 243.553563 112.509968 
L 244.218594 113.100371 
L 245.548658 115.937274 
L 246.878722 119.643071 
L 248.208786 123.668206 
L 248.873818 125.420848 
L 249.53885 125.977831 
L 250.868913 127.812164 
L 251.533945 127.559665 
L 252.198977 126.894998 
L 252.864009 126.69077 
L 254.194073 127.310879 
L 254.859105 127.567091 
L 255.524137 127.466834 
L 256.189169 126.880145 
L 257.519232 124.956695 
L 258.184264 124.633644 
L 259.514328 127.307166 
L 260.17936 127.786172 
L 260.844392 127.455695 
L 261.509424 127.459408 
L 262.174456 126.883858 
L 262.839488 125.922133 
L 263.50452 125.350297 
L 264.169551 125.476546 
L 264.834583 125.36515 
L 265.499615 125.910993 
L 267.494711 126.25261 
L 268.159743 126.445698 
L 268.824775 126.297169 
L 269.489807 125.859008 
L 270.154839 125.157209 
L 270.81987 123.742471 
L 271.484902 121.562808 
L 272.149934 120.259467 
L 272.814966 119.386859 
L 273.479998 119.108367 
L 274.14503 118.696199 
L 274.810062 118.77789 
L 275.475094 118.287745 
L 276.805157 116.223192 
L 277.470189 114.808454 
L 278.800253 112.342873 
L 279.465285 111.719051 
L 280.130317 110.612511 
L 280.795349 109.060383 
L 281.460381 107.809027 
L 282.125413 107.359727 
L 282.790445 108.072666 
L 283.455476 109.50597 
L 284.78554 114.002684 
L 287.445668 120.552811 
L 288.775732 122.892142 
L 290.105795 126.130074 
L 290.770827 127.2886 
L 291.435859 128.06095 
L 292.100891 128.402567 
L 292.765923 129.271461 
L 294.095987 132.479687 
L 294.761019 133.50825 
L 295.426051 134.228615 
L 296.756114 136.315447 
L 297.421146 136.148352 
L 298.086178 136.816732 
L 299.416242 137.685627 
L 300.081274 137.693053 
L 300.746306 137.318017 
L 301.411338 136.230043 
L 302.741402 133.378287 
L 303.406433 132.501966 
L 304.071465 131.284028 
L 305.401529 128.124075 
L 306.731593 125.517392 
L 307.396625 124.113793 
L 308.061657 123.048098 
L 308.726689 123.308023 
L 310.721784 125.914707 
L 311.386816 126.063236 
L 312.051848 126.066949 
L 314.711976 124.173205 
L 315.377008 123.374861 
L 316.042039 123.092656 
L 316.707071 122.372291 
L 318.037135 120.344871 
L 318.702167 119.509395 
L 319.367199 118.280318 
L 321.362295 112.506255 
L 322.027327 111.347729 
L 322.692358 110.957841 
L 323.35739 110.215196 
L 324.687454 109.658212 
L 325.352486 109.353728 
L 326.017518 109.260897 
L 327.347582 109.357441 
L 328.012614 109.446558 
L 328.012614 109.446558 
" clip-path="url(#p1de765cdf7)" style="fill: none; stroke: #008000; stroke-opacity: 0.5; stroke-width: 2; stroke-linecap: square"/>
   </g>
   <g id="patch_3">
    <path d="M 49.3975 234.5525 
L 49.3975 11.759062 
" style="fill: none; stroke: #000000; stroke-width: 2; stroke-linejoin: miter; stroke-linecap: square"/>
   </g>
   <g id="patch_4">
    <path d="M 341.28 234.5525 
L 341.28 11.759062 
" style="fill: none; stroke: #000000; stroke-width: 2; stroke-linejoin: miter; stroke-linecap: square"/>
   </g>
   <g id="patch_5">
    <path d="M 49.3975 234.5525 
L 341.28 234.5525 
" style="fill: none; stroke: #000000; stroke-width: 2; stroke-linejoin: miter; stroke-linecap: square"/>
   </g>
   <g id="patch_6">
    <path d="M 49.3975 11.759062 
L 341.28 11.759062 
" style="fill: none; stroke: #000000; stroke-width: 2; stroke-linejoin: miter; stroke-linecap: square"/>
   </g>
   <g id="legend_1">
    <g id="line2d_26">
     <path d="M 245.26125 27.477188 
L 257.26125 27.477188 
L 269.26125 27.477188 
" style="fill: none; stroke: #0000ff; stroke-opacity: 0.5; stroke-width: 2; stroke-linecap: square"/>
    </g>
    <g id="text_14">
     <!-- yz-plane -->
     <g transform="translate(278.86125 31.677188)scale(0.12 -0.12)">
      <defs>
       <path id="DejaVuSans-7a" d="M 353 3500 
L 3084 3500 
L 3084 2975 
L 922 459 
L 3084 459 
L 3084 0 
L 275 0 
L 275 525 
L 2438 3041 
L 353 3041 
L 353 3500 
z
" transform="scale(0.015625)"/>
       <path id="DejaVuSans-2d" d="M 313 2009 
L 1997 2009 
L 1997 1497 
L 313 1497 
L 313 2009 
z
" transform="scale(0.015625)"/>
       <path id="DejaVuSans-70" d="M 1159 525 
L 1159 -1331 
L 581 -1331 
L 581 3500 
L 1159 3500 
L 1159 2969 
Q 1341 3281 1617 3432 
Q 1894 3584 2278 3584 
Q 2916 3584 3314 3078 
Q 3713 2572 3713 1747 
Q 3713 922 3314 415 
Q 2916 -91 2278 -91 
Q 1894 -91 1617 61 
Q 1341 213 1159 525 
z
M 3116 1747 
Q 3116 2381 2855 2742 
Q 2594 3103 2138 3103 
Q 1681 3103 1420 2742 
Q 1159 2381 1159 1747 
Q 1159 1113 1420 752 
Q 1681 391 2138 391 
Q 2594 391 2855 752 
Q 3116 1113 3116 1747 
z
" transform="scale(0.015625)"/>
      </defs>
      <use xlink:href="#DejaVuSans-79"/>
      <use xlink:href="#DejaVuSans-7a" x="59.179688"/>
      <use xlink:href="#DejaVuSans-2d" x="111.669922"/>
      <use xlink:href="#DejaVuSans-70" x="147.753906"/>
      <use xlink:href="#DejaVuSans-6c" x="211.230469"/>
      <use xlink:href="#DejaVuSans-61" x="239.013672"/>
      <use xlink:href="#DejaVuSans-6e" x="300.292969"/>
      <use xlink:href="#DejaVuSans-65" x="363.671875"/>
     </g>
    </g>
    <g id="line2d_27">
     <path d="M 245.26125 45.090938 
L 257.26125 45.090938 
L 269.26125 45.090938 
" style="fill: none; stroke: #ff0000; stroke-opacity: 0.5; stroke-width: 2; stroke-linecap: square"/>
    </g>
    <g id="text_15">
     <!-- xz-plane -->
     <g transform="translate(278.86125 49.290938)scale(0.12 -0.12)">
      <use xlink:href="#DejaVuSans-78"/>
      <use xlink:href="#DejaVuSans-7a" x="59.179688"/>
      <use xlink:href="#DejaVuSans-2d" x="111.669922"/>
      <use xlink:href="#DejaVuSans-70" x="147.753906"/>
      <use xlink:href="#DejaVuSans-6c" x="211.230469"/>
      <use xlink:href="#DejaVuSans-61" x="239.013672"/>
      <use xlink:href="#DejaVuSans-6e" x="300.292969"/>
      <use xlink:href="#DejaVuSans-65" x="363.671875"/>
     </g>
    </g>
    <g id="line2d_28">
     <path d="M 245.26125 62.704687 
L 257.26125 62.704687 
L 269.26125 62.704687 
" style="fill: none; stroke: #008000; stroke-opacity: 0.5; stroke-width: 2; stroke-linecap: square"/>
    </g>
    <g id="text_16">
     <!-- xy-plane -->
     <g transform="translate(278.86125 66.904687)scale(0.12 -0.12)">
      <use xlink:href="#DejaVuSans-78"/>
      <use xlink:href="#DejaVuSans-79" x="59.179688"/>
      <use xlink:href="#DejaVuSans-2d" x="116.609375"/>
      <use xlink:href="#DejaVuSans-70" x="152.693359"/>
      <use xlink:href="#DejaVuSans-6c" x="216.169922"/>
      <use xlink:href="#DejaVuSans-61" x="243.953125"/>
      <use xlink:href="#DejaVuSans-6e" x="305.232422"/>
      <use xlink:href="#DejaVuSans-65" x="368.611328"/>
     </g>
    </g>
   </g>
  </g>
 </g>
 <defs>
  <clipPath id="p1de765cdf7">
   <rect x="49.3975" y="11.759062" width="291.8825" height="222.793437"/>
  </clipPath>
 </defs>
</svg>
