<?xml version="1.0" encoding="utf-8" standalone="no"?>
<!DOCTYPE svg PUBLIC "-//W3C//DTD SVG 1.1//EN"
  "http://www.w3.org/Graphics/SVG/1.1/DTD/svg11.dtd">
<!-- Created with matplotlib (https://matplotlib.org/) -->
<svg height="276.48pt" version="1.1" viewBox="0 0 564.48 276.48" width="564.48pt" xmlns="http://www.w3.org/2000/svg" xmlns:xlink="http://www.w3.org/1999/xlink">
 <metadata>
  <rdf:RDF xmlns:cc="http://creativecommons.org/ns#" xmlns:dc="http://purl.org/dc/elements/1.1/" xmlns:rdf="http://www.w3.org/1999/02/22-rdf-syntax-ns#">
   <cc:Work>
    <dc:type rdf:resource="http://purl.org/dc/dcmitype/StillImage"/>
    <dc:date>2021-04-01T14:38:45.129680</dc:date>
    <dc:format>image/svg+xml</dc:format>
    <dc:creator>
     <cc:Agent>
      <dc:title>Matplotlib v3.3.4, https://matplotlib.org/</dc:title>
     </cc:Agent>
    </dc:creator>
   </cc:Work>
  </rdf:RDF>
 </metadata>
 <defs>
  <style type="text/css">*{stroke-linecap:butt;stroke-linejoin:round;}</style>
 </defs>
 <g id="figure_1">
  <g id="patch_1">
   <path d="M 0 276.48 
L 564.48 276.48 
L 564.48 0 
L 0 0 
z
" style="fill:none;"/>
  </g>
  <g id="axes_1">
   <g id="patch_2">
    <path d="M 57.0325 234.5525 
L 285.566875 234.5525 
L 285.566875 22.318125 
L 57.0325 22.318125 
z
" style="fill:#ffffff;"/>
   </g>
   <g id="patch_3">
    <path clip-path="url(#p7c1f4b5444)" d="M 67.420426 234.5525 
L 71.575597 234.5525 
L 71.575597 233.477351 
L 67.420426 233.477351 
z
" style="fill:#1f77b4;stroke:#000000;stroke-linejoin:miter;"/>
   </g>
   <g id="patch_4">
    <path clip-path="url(#p7c1f4b5444)" d="M 71.575597 234.5525 
L 75.730767 234.5525 
L 75.730767 234.5525 
L 71.575597 234.5525 
z
" style="fill:#1f77b4;stroke:#000000;stroke-linejoin:miter;"/>
   </g>
   <g id="patch_5">
    <path clip-path="url(#p7c1f4b5444)" d="M 75.730767 234.5525 
L 79.885938 234.5525 
L 79.885938 234.5525 
L 75.730767 234.5525 
z
" style="fill:#1f77b4;stroke:#000000;stroke-linejoin:miter;"/>
   </g>
   <g id="patch_6">
    <path clip-path="url(#p7c1f4b5444)" d="M 79.885938 234.5525 
L 84.041108 234.5525 
L 84.041108 234.5525 
L 79.885938 234.5525 
z
" style="fill:#1f77b4;stroke:#000000;stroke-linejoin:miter;"/>
   </g>
   <g id="patch_7">
    <path clip-path="url(#p7c1f4b5444)" d="M 84.041108 234.5525 
L 88.196278 234.5525 
L 88.196278 234.5525 
L 84.041108 234.5525 
z
" style="fill:#1f77b4;stroke:#000000;stroke-linejoin:miter;"/>
   </g>
   <g id="patch_8">
    <path clip-path="url(#p7c1f4b5444)" d="M 88.196278 234.5525 
L 92.351449 234.5525 
L 92.351449 231.327054 
L 88.196278 231.327054 
z
" style="fill:#1f77b4;stroke:#000000;stroke-linejoin:miter;"/>
   </g>
   <g id="patch_9">
    <path clip-path="url(#p7c1f4b5444)" d="M 92.351449 234.5525 
L 96.506619 234.5525 
L 96.506619 234.5525 
L 92.351449 234.5525 
z
" style="fill:#1f77b4;stroke:#000000;stroke-linejoin:miter;"/>
   </g>
   <g id="patch_10">
    <path clip-path="url(#p7c1f4b5444)" d="M 96.506619 234.5525 
L 100.66179 234.5525 
L 100.66179 234.5525 
L 96.506619 234.5525 
z
" style="fill:#1f77b4;stroke:#000000;stroke-linejoin:miter;"/>
   </g>
   <g id="patch_11">
    <path clip-path="url(#p7c1f4b5444)" d="M 100.66179 234.5525 
L 104.81696 234.5525 
L 104.81696 234.5525 
L 100.66179 234.5525 
z
" style="fill:#1f77b4;stroke:#000000;stroke-linejoin:miter;"/>
   </g>
   <g id="patch_12">
    <path clip-path="url(#p7c1f4b5444)" d="M 104.81696 234.5525 
L 108.972131 234.5525 
L 108.972131 223.801012 
L 104.81696 223.801012 
z
" style="fill:#1f77b4;stroke:#000000;stroke-linejoin:miter;"/>
   </g>
   <g id="patch_13">
    <path clip-path="url(#p7c1f4b5444)" d="M 108.972131 234.5525 
L 113.127301 234.5525 
L 113.127301 234.5525 
L 108.972131 234.5525 
z
" style="fill:#1f77b4;stroke:#000000;stroke-linejoin:miter;"/>
   </g>
   <g id="patch_14">
    <path clip-path="url(#p7c1f4b5444)" d="M 113.127301 234.5525 
L 117.282472 234.5525 
L 117.282472 228.101607 
L 113.127301 228.101607 
z
" style="fill:#1f77b4;stroke:#000000;stroke-linejoin:miter;"/>
   </g>
   <g id="patch_15">
    <path clip-path="url(#p7c1f4b5444)" d="M 117.282472 234.5525 
L 121.437642 234.5525 
L 121.437642 234.5525 
L 117.282472 234.5525 
z
" style="fill:#1f77b4;stroke:#000000;stroke-linejoin:miter;"/>
   </g>
   <g id="patch_16">
    <path clip-path="url(#p7c1f4b5444)" d="M 121.437642 234.5525 
L 125.592813 234.5525 
L 125.592813 222.725863 
L 121.437642 222.725863 
z
" style="fill:#1f77b4;stroke:#000000;stroke-linejoin:miter;"/>
   </g>
   <g id="patch_17">
    <path clip-path="url(#p7c1f4b5444)" d="M 125.592813 234.5525 
L 129.747983 234.5525 
L 129.747983 234.5525 
L 125.592813 234.5525 
z
" style="fill:#1f77b4;stroke:#000000;stroke-linejoin:miter;"/>
   </g>
   <g id="patch_18">
    <path clip-path="url(#p7c1f4b5444)" d="M 129.747983 234.5525 
L 133.903153 234.5525 
L 133.903153 223.801012 
L 129.747983 223.801012 
z
" style="fill:#1f77b4;stroke:#000000;stroke-linejoin:miter;"/>
   </g>
   <g id="patch_19">
    <path clip-path="url(#p7c1f4b5444)" d="M 133.903153 234.5525 
L 138.058324 234.5525 
L 138.058324 221.650714 
L 133.903153 221.650714 
z
" style="fill:#1f77b4;stroke:#000000;stroke-linejoin:miter;"/>
   </g>
   <g id="patch_20">
    <path clip-path="url(#p7c1f4b5444)" d="M 138.058324 234.5525 
L 142.213494 234.5525 
L 142.213494 216.27497 
L 138.058324 216.27497 
z
" style="fill:#1f77b4;stroke:#000000;stroke-linejoin:miter;"/>
   </g>
   <g id="patch_21">
    <path clip-path="url(#p7c1f4b5444)" d="M 142.213494 234.5525 
L 146.368665 234.5525 
L 146.368665 218.425268 
L 142.213494 218.425268 
z
" style="fill:#1f77b4;stroke:#000000;stroke-linejoin:miter;"/>
   </g>
   <g id="patch_22">
    <path clip-path="url(#p7c1f4b5444)" d="M 146.368665 234.5525 
L 150.523835 234.5525 
L 150.523835 217.350119 
L 146.368665 217.350119 
z
" style="fill:#1f77b4;stroke:#000000;stroke-linejoin:miter;"/>
   </g>
   <g id="patch_23">
    <path clip-path="url(#p7c1f4b5444)" d="M 150.523835 234.5525 
L 154.679006 234.5525 
L 154.679006 205.523482 
L 150.523835 205.523482 
z
" style="fill:#1f77b4;stroke:#000000;stroke-linejoin:miter;"/>
   </g>
   <g id="patch_24">
    <path clip-path="url(#p7c1f4b5444)" d="M 154.679006 234.5525 
L 158.834176 234.5525 
L 158.834176 185.095655 
L 154.679006 185.095655 
z
" style="fill:#1f77b4;stroke:#000000;stroke-linejoin:miter;"/>
   </g>
   <g id="patch_25">
    <path clip-path="url(#p7c1f4b5444)" d="M 158.834176 234.5525 
L 162.989347 234.5525 
L 162.989347 168.968423 
L 158.834176 168.968423 
z
" style="fill:#1f77b4;stroke:#000000;stroke-linejoin:miter;"/>
   </g>
   <g id="patch_26">
    <path clip-path="url(#p7c1f4b5444)" d="M 162.989347 234.5525 
L 167.144517 234.5525 
L 167.144517 171.11872 
L 162.989347 171.11872 
z
" style="fill:#1f77b4;stroke:#000000;stroke-linejoin:miter;"/>
   </g>
   <g id="patch_27">
    <path clip-path="url(#p7c1f4b5444)" d="M 167.144517 234.5525 
L 171.299688 234.5525 
L 171.299688 158.216935 
L 167.144517 158.216935 
z
" style="fill:#1f77b4;stroke:#000000;stroke-linejoin:miter;"/>
   </g>
   <g id="patch_28">
    <path clip-path="url(#p7c1f4b5444)" d="M 171.299688 234.5525 
L 175.454858 234.5525 
L 175.454858 172.193869 
L 171.299688 172.193869 
z
" style="fill:#1f77b4;stroke:#000000;stroke-linejoin:miter;"/>
   </g>
   <g id="patch_29">
    <path clip-path="url(#p7c1f4b5444)" d="M 175.454858 234.5525 
L 179.610028 234.5525 
L 179.610028 111.985536 
L 175.454858 111.985536 
z
" style="fill:#1f77b4;stroke:#000000;stroke-linejoin:miter;"/>
   </g>
   <g id="patch_30">
    <path clip-path="url(#p7c1f4b5444)" d="M 179.610028 234.5525 
L 183.765199 234.5525 
L 183.765199 103.384345 
L 179.610028 103.384345 
z
" style="fill:#1f77b4;stroke:#000000;stroke-linejoin:miter;"/>
   </g>
   <g id="patch_31">
    <path clip-path="url(#p7c1f4b5444)" d="M 183.765199 234.5525 
L 187.920369 234.5525 
L 187.920369 108.760089 
L 183.765199 108.760089 
z
" style="fill:#1f77b4;stroke:#000000;stroke-linejoin:miter;"/>
   </g>
   <g id="patch_32">
    <path clip-path="url(#p7c1f4b5444)" d="M 187.920369 234.5525 
L 192.07554 234.5525 
L 192.07554 32.424524 
L 187.920369 32.424524 
z
" style="fill:#1f77b4;stroke:#000000;stroke-linejoin:miter;"/>
   </g>
   <g id="patch_33">
    <path clip-path="url(#p7c1f4b5444)" d="M 192.07554 234.5525 
L 196.23071 234.5525 
L 196.23071 91.557708 
L 192.07554 91.557708 
z
" style="fill:#1f77b4;stroke:#000000;stroke-linejoin:miter;"/>
   </g>
   <g id="patch_34">
    <path clip-path="url(#p7c1f4b5444)" d="M 196.23071 234.5525 
L 200.385881 234.5525 
L 200.385881 77.580774 
L 196.23071 77.580774 
z
" style="fill:#1f77b4;stroke:#000000;stroke-linejoin:miter;"/>
   </g>
   <g id="patch_35">
    <path clip-path="url(#p7c1f4b5444)" d="M 200.385881 234.5525 
L 204.541051 234.5525 
L 204.541051 33.499673 
L 200.385881 33.499673 
z
" style="fill:#1f77b4;stroke:#000000;stroke-linejoin:miter;"/>
   </g>
   <g id="patch_36">
    <path clip-path="url(#p7c1f4b5444)" d="M 204.541051 234.5525 
L 208.696222 234.5525 
L 208.696222 49.626905 
L 204.541051 49.626905 
z
" style="fill:#1f77b4;stroke:#000000;stroke-linejoin:miter;"/>
   </g>
   <g id="patch_37">
    <path clip-path="url(#p7c1f4b5444)" d="M 208.696222 234.5525 
L 212.851392 234.5525 
L 212.851392 88.332262 
L 208.696222 88.332262 
z
" style="fill:#1f77b4;stroke:#000000;stroke-linejoin:miter;"/>
   </g>
   <g id="patch_38">
    <path clip-path="url(#p7c1f4b5444)" d="M 212.851392 234.5525 
L 217.006563 234.5525 
L 217.006563 101.234048 
L 212.851392 101.234048 
z
" style="fill:#1f77b4;stroke:#000000;stroke-linejoin:miter;"/>
   </g>
   <g id="patch_39">
    <path clip-path="url(#p7c1f4b5444)" d="M 217.006563 234.5525 
L 221.161733 234.5525 
L 221.161733 113.060685 
L 217.006563 113.060685 
z
" style="fill:#1f77b4;stroke:#000000;stroke-linejoin:miter;"/>
   </g>
   <g id="patch_40">
    <path clip-path="url(#p7c1f4b5444)" d="M 221.161733 234.5525 
L 225.316903 234.5525 
L 225.316903 123.812173 
L 221.161733 123.812173 
z
" style="fill:#1f77b4;stroke:#000000;stroke-linejoin:miter;"/>
   </g>
   <g id="patch_41">
    <path clip-path="url(#p7c1f4b5444)" d="M 225.316903 234.5525 
L 229.472074 234.5525 
L 229.472074 114.135833 
L 225.316903 114.135833 
z
" style="fill:#1f77b4;stroke:#000000;stroke-linejoin:miter;"/>
   </g>
   <g id="patch_42">
    <path clip-path="url(#p7c1f4b5444)" d="M 229.472074 234.5525 
L 233.627244 234.5525 
L 233.627244 201.222887 
L 229.472074 201.222887 
z
" style="fill:#1f77b4;stroke:#000000;stroke-linejoin:miter;"/>
   </g>
   <g id="patch_43">
    <path clip-path="url(#p7c1f4b5444)" d="M 233.627244 234.5525 
L 237.782415 234.5525 
L 237.782415 197.99744 
L 233.627244 197.99744 
z
" style="fill:#1f77b4;stroke:#000000;stroke-linejoin:miter;"/>
   </g>
   <g id="patch_44">
    <path clip-path="url(#p7c1f4b5444)" d="M 237.782415 234.5525 
L 241.937585 234.5525 
L 241.937585 165.742976 
L 237.782415 165.742976 
z
" style="fill:#1f77b4;stroke:#000000;stroke-linejoin:miter;"/>
   </g>
   <g id="patch_45">
    <path clip-path="url(#p7c1f4b5444)" d="M 241.937585 234.5525 
L 246.092756 234.5525 
L 246.092756 188.321101 
L 241.937585 188.321101 
z
" style="fill:#1f77b4;stroke:#000000;stroke-linejoin:miter;"/>
   </g>
   <g id="patch_46">
    <path clip-path="url(#p7c1f4b5444)" d="M 246.092756 234.5525 
L 250.247926 234.5525 
L 250.247926 217.350119 
L 246.092756 217.350119 
z
" style="fill:#1f77b4;stroke:#000000;stroke-linejoin:miter;"/>
   </g>
   <g id="patch_47">
    <path clip-path="url(#p7c1f4b5444)" d="M 250.247926 234.5525 
L 254.403097 234.5525 
L 254.403097 210.899226 
L 250.247926 210.899226 
z
" style="fill:#1f77b4;stroke:#000000;stroke-linejoin:miter;"/>
   </g>
   <g id="patch_48">
    <path clip-path="url(#p7c1f4b5444)" d="M 254.403097 234.5525 
L 258.558267 234.5525 
L 258.558267 228.101607 
L 254.403097 228.101607 
z
" style="fill:#1f77b4;stroke:#000000;stroke-linejoin:miter;"/>
   </g>
   <g id="patch_49">
    <path clip-path="url(#p7c1f4b5444)" d="M 258.558267 234.5525 
L 262.713438 234.5525 
L 262.713438 227.026458 
L 258.558267 227.026458 
z
" style="fill:#1f77b4;stroke:#000000;stroke-linejoin:miter;"/>
   </g>
   <g id="patch_50">
    <path clip-path="url(#p7c1f4b5444)" d="M 262.713438 234.5525 
L 266.868608 234.5525 
L 266.868608 221.650714 
L 262.713438 221.650714 
z
" style="fill:#1f77b4;stroke:#000000;stroke-linejoin:miter;"/>
   </g>
   <g id="patch_51">
    <path clip-path="url(#p7c1f4b5444)" d="M 266.868608 234.5525 
L 271.023778 234.5525 
L 271.023778 234.5525 
L 266.868608 234.5525 
z
" style="fill:#1f77b4;stroke:#000000;stroke-linejoin:miter;"/>
   </g>
   <g id="patch_52">
    <path clip-path="url(#p7c1f4b5444)" d="M 271.023778 234.5525 
L 275.178949 234.5525 
L 275.178949 232.402202 
L 271.023778 232.402202 
z
" style="fill:#1f77b4;stroke:#000000;stroke-linejoin:miter;"/>
   </g>
   <g id="matplotlib.axis_1">
    <g id="xtick_1">
     <g id="line2d_1">
      <defs>
       <path d="M 0 0 
L 0 -6 
" id="m06b9dc8587" style="stroke:#000000;stroke-width:2;"/>
      </defs>
      <g>
       <use style="fill:#ffffff;stroke:#000000;stroke-width:2;" x="67.420426" xlink:href="#m06b9dc8587" y="234.5525"/>
      </g>
     </g>
     <g id="line2d_2">
      <defs>
       <path d="M 0 0 
L 0 6 
" id="m35591722e6" style="stroke:#000000;stroke-width:2;"/>
      </defs>
      <g>
       <use style="fill:#ffffff;stroke:#000000;stroke-width:2;" x="67.420426" xlink:href="#m35591722e6" y="22.318125"/>
      </g>
     </g>
     <g id="text_1">
      <!-- 0.0 -->
      <g transform="translate(57.878551 247.170625)scale(0.12 -0.12)">
       <defs>
        <path d="M 31.78125 66.40625 
Q 24.171875 66.40625 20.328125 58.90625 
Q 16.5 51.421875 16.5 36.375 
Q 16.5 21.390625 20.328125 13.890625 
Q 24.171875 6.390625 31.78125 6.390625 
Q 39.453125 6.390625 43.28125 13.890625 
Q 47.125 21.390625 47.125 36.375 
Q 47.125 51.421875 43.28125 58.90625 
Q 39.453125 66.40625 31.78125 66.40625 
z
M 31.78125 74.21875 
Q 44.046875 74.21875 50.515625 64.515625 
Q 56.984375 54.828125 56.984375 36.375 
Q 56.984375 17.96875 50.515625 8.265625 
Q 44.046875 -1.421875 31.78125 -1.421875 
Q 19.53125 -1.421875 13.0625 8.265625 
Q 6.59375 17.96875 6.59375 36.375 
Q 6.59375 54.828125 13.0625 64.515625 
Q 19.53125 74.21875 31.78125 74.21875 
z
" id="DejaVuSans-48"/>
        <path d="M 10.6875 12.40625 
L 21 12.40625 
L 21 0 
L 10.6875 0 
z
" id="DejaVuSans-46"/>
       </defs>
       <use xlink:href="#DejaVuSans-48"/>
       <use x="63.623047" xlink:href="#DejaVuSans-46"/>
       <use x="95.410156" xlink:href="#DejaVuSans-48"/>
      </g>
     </g>
    </g>
    <g id="xtick_2">
     <g id="line2d_3">
      <g>
       <use style="fill:#ffffff;stroke:#000000;stroke-width:2;" x="107.905782" xlink:href="#m06b9dc8587" y="234.5525"/>
      </g>
     </g>
     <g id="line2d_4">
      <g>
       <use style="fill:#ffffff;stroke:#000000;stroke-width:2;" x="107.905782" xlink:href="#m35591722e6" y="22.318125"/>
      </g>
     </g>
     <g id="text_2">
      <!-- 0.5 -->
      <g transform="translate(98.363907 247.170625)scale(0.12 -0.12)">
       <defs>
        <path d="M 10.796875 72.90625 
L 49.515625 72.90625 
L 49.515625 64.59375 
L 19.828125 64.59375 
L 19.828125 46.734375 
Q 21.96875 47.46875 24.109375 47.828125 
Q 26.265625 48.1875 28.421875 48.1875 
Q 40.625 48.1875 47.75 41.5 
Q 54.890625 34.8125 54.890625 23.390625 
Q 54.890625 11.625 47.5625 5.09375 
Q 40.234375 -1.421875 26.90625 -1.421875 
Q 22.3125 -1.421875 17.546875 -0.640625 
Q 12.796875 0.140625 7.71875 1.703125 
L 7.71875 11.625 
Q 12.109375 9.234375 16.796875 8.0625 
Q 21.484375 6.890625 26.703125 6.890625 
Q 35.15625 6.890625 40.078125 11.328125 
Q 45.015625 15.765625 45.015625 23.390625 
Q 45.015625 31 40.078125 35.4375 
Q 35.15625 39.890625 26.703125 39.890625 
Q 22.75 39.890625 18.8125 39.015625 
Q 14.890625 38.140625 10.796875 36.28125 
z
" id="DejaVuSans-53"/>
       </defs>
       <use xlink:href="#DejaVuSans-48"/>
       <use x="63.623047" xlink:href="#DejaVuSans-46"/>
       <use x="95.410156" xlink:href="#DejaVuSans-53"/>
      </g>
     </g>
    </g>
    <g id="xtick_3">
     <g id="line2d_5">
      <g>
       <use style="fill:#ffffff;stroke:#000000;stroke-width:2;" x="148.391137" xlink:href="#m06b9dc8587" y="234.5525"/>
      </g>
     </g>
     <g id="line2d_6">
      <g>
       <use style="fill:#ffffff;stroke:#000000;stroke-width:2;" x="148.391137" xlink:href="#m35591722e6" y="22.318125"/>
      </g>
     </g>
     <g id="text_3">
      <!-- 1.0 -->
      <g transform="translate(138.849262 247.170625)scale(0.12 -0.12)">
       <defs>
        <path d="M 12.40625 8.296875 
L 28.515625 8.296875 
L 28.515625 63.921875 
L 10.984375 60.40625 
L 10.984375 69.390625 
L 28.421875 72.90625 
L 38.28125 72.90625 
L 38.28125 8.296875 
L 54.390625 8.296875 
L 54.390625 0 
L 12.40625 0 
z
" id="DejaVuSans-49"/>
       </defs>
       <use xlink:href="#DejaVuSans-49"/>
       <use x="63.623047" xlink:href="#DejaVuSans-46"/>
       <use x="95.410156" xlink:href="#DejaVuSans-48"/>
      </g>
     </g>
    </g>
    <g id="xtick_4">
     <g id="line2d_7">
      <g>
       <use style="fill:#ffffff;stroke:#000000;stroke-width:2;" x="188.876493" xlink:href="#m06b9dc8587" y="234.5525"/>
      </g>
     </g>
     <g id="line2d_8">
      <g>
       <use style="fill:#ffffff;stroke:#000000;stroke-width:2;" x="188.876493" xlink:href="#m35591722e6" y="22.318125"/>
      </g>
     </g>
     <g id="text_4">
      <!-- 1.5 -->
      <g transform="translate(179.334618 247.170625)scale(0.12 -0.12)">
       <use xlink:href="#DejaVuSans-49"/>
       <use x="63.623047" xlink:href="#DejaVuSans-46"/>
       <use x="95.410156" xlink:href="#DejaVuSans-53"/>
      </g>
     </g>
    </g>
    <g id="xtick_5">
     <g id="line2d_9">
      <g>
       <use style="fill:#ffffff;stroke:#000000;stroke-width:2;" x="229.361849" xlink:href="#m06b9dc8587" y="234.5525"/>
      </g>
     </g>
     <g id="line2d_10">
      <g>
       <use style="fill:#ffffff;stroke:#000000;stroke-width:2;" x="229.361849" xlink:href="#m35591722e6" y="22.318125"/>
      </g>
     </g>
     <g id="text_5">
      <!-- 2.0 -->
      <g transform="translate(219.819974 247.170625)scale(0.12 -0.12)">
       <defs>
        <path d="M 19.1875 8.296875 
L 53.609375 8.296875 
L 53.609375 0 
L 7.328125 0 
L 7.328125 8.296875 
Q 12.9375 14.109375 22.625 23.890625 
Q 32.328125 33.6875 34.8125 36.53125 
Q 39.546875 41.84375 41.421875 45.53125 
Q 43.3125 49.21875 43.3125 52.78125 
Q 43.3125 58.59375 39.234375 62.25 
Q 35.15625 65.921875 28.609375 65.921875 
Q 23.96875 65.921875 18.8125 64.3125 
Q 13.671875 62.703125 7.8125 59.421875 
L 7.8125 69.390625 
Q 13.765625 71.78125 18.9375 73 
Q 24.125 74.21875 28.421875 74.21875 
Q 39.75 74.21875 46.484375 68.546875 
Q 53.21875 62.890625 53.21875 53.421875 
Q 53.21875 48.921875 51.53125 44.890625 
Q 49.859375 40.875 45.40625 35.40625 
Q 44.1875 33.984375 37.640625 27.21875 
Q 31.109375 20.453125 19.1875 8.296875 
z
" id="DejaVuSans-50"/>
       </defs>
       <use xlink:href="#DejaVuSans-50"/>
       <use x="63.623047" xlink:href="#DejaVuSans-46"/>
       <use x="95.410156" xlink:href="#DejaVuSans-48"/>
      </g>
     </g>
    </g>
    <g id="xtick_6">
     <g id="line2d_11">
      <g>
       <use style="fill:#ffffff;stroke:#000000;stroke-width:2;" x="269.847204" xlink:href="#m06b9dc8587" y="234.5525"/>
      </g>
     </g>
     <g id="line2d_12">
      <g>
       <use style="fill:#ffffff;stroke:#000000;stroke-width:2;" x="269.847204" xlink:href="#m35591722e6" y="22.318125"/>
      </g>
     </g>
     <g id="text_6">
      <!-- 2.5 -->
      <g transform="translate(260.305329 247.170625)scale(0.12 -0.12)">
       <use xlink:href="#DejaVuSans-50"/>
       <use x="63.623047" xlink:href="#DejaVuSans-46"/>
       <use x="95.410156" xlink:href="#DejaVuSans-53"/>
      </g>
     </g>
    </g>
    <g id="text_7">
     <!-- Chord length -->
     <g transform="translate(132.43375 266.784375)scale(0.12 -0.12)">
      <defs>
       <path d="M 64.40625 67.28125 
L 64.40625 56.890625 
Q 59.421875 61.53125 53.78125 63.8125 
Q 48.140625 66.109375 41.796875 66.109375 
Q 29.296875 66.109375 22.65625 58.46875 
Q 16.015625 50.828125 16.015625 36.375 
Q 16.015625 21.96875 22.65625 14.328125 
Q 29.296875 6.6875 41.796875 6.6875 
Q 48.140625 6.6875 53.78125 8.984375 
Q 59.421875 11.28125 64.40625 15.921875 
L 64.40625 5.609375 
Q 59.234375 2.09375 53.4375 0.328125 
Q 47.65625 -1.421875 41.21875 -1.421875 
Q 24.65625 -1.421875 15.125 8.703125 
Q 5.609375 18.84375 5.609375 36.375 
Q 5.609375 53.953125 15.125 64.078125 
Q 24.65625 74.21875 41.21875 74.21875 
Q 47.75 74.21875 53.53125 72.484375 
Q 59.328125 70.75 64.40625 67.28125 
z
" id="DejaVuSans-67"/>
       <path d="M 54.890625 33.015625 
L 54.890625 0 
L 45.90625 0 
L 45.90625 32.71875 
Q 45.90625 40.484375 42.875 44.328125 
Q 39.84375 48.1875 33.796875 48.1875 
Q 26.515625 48.1875 22.3125 43.546875 
Q 18.109375 38.921875 18.109375 30.90625 
L 18.109375 0 
L 9.078125 0 
L 9.078125 75.984375 
L 18.109375 75.984375 
L 18.109375 46.1875 
Q 21.34375 51.125 25.703125 53.5625 
Q 30.078125 56 35.796875 56 
Q 45.21875 56 50.046875 50.171875 
Q 54.890625 44.34375 54.890625 33.015625 
z
" id="DejaVuSans-104"/>
       <path d="M 30.609375 48.390625 
Q 23.390625 48.390625 19.1875 42.75 
Q 14.984375 37.109375 14.984375 27.296875 
Q 14.984375 17.484375 19.15625 11.84375 
Q 23.34375 6.203125 30.609375 6.203125 
Q 37.796875 6.203125 41.984375 11.859375 
Q 46.1875 17.53125 46.1875 27.296875 
Q 46.1875 37.015625 41.984375 42.703125 
Q 37.796875 48.390625 30.609375 48.390625 
z
M 30.609375 56 
Q 42.328125 56 49.015625 48.375 
Q 55.71875 40.765625 55.71875 27.296875 
Q 55.71875 13.875 49.015625 6.21875 
Q 42.328125 -1.421875 30.609375 -1.421875 
Q 18.84375 -1.421875 12.171875 6.21875 
Q 5.515625 13.875 5.515625 27.296875 
Q 5.515625 40.765625 12.171875 48.375 
Q 18.84375 56 30.609375 56 
z
" id="DejaVuSans-111"/>
       <path d="M 41.109375 46.296875 
Q 39.59375 47.171875 37.8125 47.578125 
Q 36.03125 48 33.890625 48 
Q 26.265625 48 22.1875 43.046875 
Q 18.109375 38.09375 18.109375 28.8125 
L 18.109375 0 
L 9.078125 0 
L 9.078125 54.6875 
L 18.109375 54.6875 
L 18.109375 46.1875 
Q 20.953125 51.171875 25.484375 53.578125 
Q 30.03125 56 36.53125 56 
Q 37.453125 56 38.578125 55.875 
Q 39.703125 55.765625 41.0625 55.515625 
z
" id="DejaVuSans-114"/>
       <path d="M 45.40625 46.390625 
L 45.40625 75.984375 
L 54.390625 75.984375 
L 54.390625 0 
L 45.40625 0 
L 45.40625 8.203125 
Q 42.578125 3.328125 38.25 0.953125 
Q 33.9375 -1.421875 27.875 -1.421875 
Q 17.96875 -1.421875 11.734375 6.484375 
Q 5.515625 14.40625 5.515625 27.296875 
Q 5.515625 40.1875 11.734375 48.09375 
Q 17.96875 56 27.875 56 
Q 33.9375 56 38.25 53.625 
Q 42.578125 51.265625 45.40625 46.390625 
z
M 14.796875 27.296875 
Q 14.796875 17.390625 18.875 11.75 
Q 22.953125 6.109375 30.078125 6.109375 
Q 37.203125 6.109375 41.296875 11.75 
Q 45.40625 17.390625 45.40625 27.296875 
Q 45.40625 37.203125 41.296875 42.84375 
Q 37.203125 48.484375 30.078125 48.484375 
Q 22.953125 48.484375 18.875 42.84375 
Q 14.796875 37.203125 14.796875 27.296875 
z
" id="DejaVuSans-100"/>
       <path id="DejaVuSans-32"/>
       <path d="M 9.421875 75.984375 
L 18.40625 75.984375 
L 18.40625 0 
L 9.421875 0 
z
" id="DejaVuSans-108"/>
       <path d="M 56.203125 29.59375 
L 56.203125 25.203125 
L 14.890625 25.203125 
Q 15.484375 15.921875 20.484375 11.0625 
Q 25.484375 6.203125 34.421875 6.203125 
Q 39.59375 6.203125 44.453125 7.46875 
Q 49.3125 8.734375 54.109375 11.28125 
L 54.109375 2.78125 
Q 49.265625 0.734375 44.1875 -0.34375 
Q 39.109375 -1.421875 33.890625 -1.421875 
Q 20.796875 -1.421875 13.15625 6.1875 
Q 5.515625 13.8125 5.515625 26.8125 
Q 5.515625 40.234375 12.765625 48.109375 
Q 20.015625 56 32.328125 56 
Q 43.359375 56 49.78125 48.890625 
Q 56.203125 41.796875 56.203125 29.59375 
z
M 47.21875 32.234375 
Q 47.125 39.59375 43.09375 43.984375 
Q 39.0625 48.390625 32.421875 48.390625 
Q 24.90625 48.390625 20.390625 44.140625 
Q 15.875 39.890625 15.1875 32.171875 
z
" id="DejaVuSans-101"/>
       <path d="M 54.890625 33.015625 
L 54.890625 0 
L 45.90625 0 
L 45.90625 32.71875 
Q 45.90625 40.484375 42.875 44.328125 
Q 39.84375 48.1875 33.796875 48.1875 
Q 26.515625 48.1875 22.3125 43.546875 
Q 18.109375 38.921875 18.109375 30.90625 
L 18.109375 0 
L 9.078125 0 
L 9.078125 54.6875 
L 18.109375 54.6875 
L 18.109375 46.1875 
Q 21.34375 51.125 25.703125 53.5625 
Q 30.078125 56 35.796875 56 
Q 45.21875 56 50.046875 50.171875 
Q 54.890625 44.34375 54.890625 33.015625 
z
" id="DejaVuSans-110"/>
       <path d="M 45.40625 27.984375 
Q 45.40625 37.75 41.375 43.109375 
Q 37.359375 48.484375 30.078125 48.484375 
Q 22.859375 48.484375 18.828125 43.109375 
Q 14.796875 37.75 14.796875 27.984375 
Q 14.796875 18.265625 18.828125 12.890625 
Q 22.859375 7.515625 30.078125 7.515625 
Q 37.359375 7.515625 41.375 12.890625 
Q 45.40625 18.265625 45.40625 27.984375 
z
M 54.390625 6.78125 
Q 54.390625 -7.171875 48.1875 -13.984375 
Q 42 -20.796875 29.203125 -20.796875 
Q 24.46875 -20.796875 20.265625 -20.09375 
Q 16.0625 -19.390625 12.109375 -17.921875 
L 12.109375 -9.1875 
Q 16.0625 -11.328125 19.921875 -12.34375 
Q 23.78125 -13.375 27.78125 -13.375 
Q 36.625 -13.375 41.015625 -8.765625 
Q 45.40625 -4.15625 45.40625 5.171875 
L 45.40625 9.625 
Q 42.625 4.78125 38.28125 2.390625 
Q 33.9375 0 27.875 0 
Q 17.828125 0 11.671875 7.65625 
Q 5.515625 15.328125 5.515625 27.984375 
Q 5.515625 40.671875 11.671875 48.328125 
Q 17.828125 56 27.875 56 
Q 33.9375 56 38.28125 53.609375 
Q 42.625 51.21875 45.40625 46.390625 
L 45.40625 54.6875 
L 54.390625 54.6875 
z
" id="DejaVuSans-103"/>
       <path d="M 18.3125 70.21875 
L 18.3125 54.6875 
L 36.8125 54.6875 
L 36.8125 47.703125 
L 18.3125 47.703125 
L 18.3125 18.015625 
Q 18.3125 11.328125 20.140625 9.421875 
Q 21.96875 7.515625 27.59375 7.515625 
L 36.8125 7.515625 
L 36.8125 0 
L 27.59375 0 
Q 17.1875 0 13.234375 3.875 
Q 9.28125 7.765625 9.28125 18.015625 
L 9.28125 47.703125 
L 2.6875 47.703125 
L 2.6875 54.6875 
L 9.28125 54.6875 
L 9.28125 70.21875 
z
" id="DejaVuSans-116"/>
      </defs>
      <use xlink:href="#DejaVuSans-67"/>
      <use x="69.824219" xlink:href="#DejaVuSans-104"/>
      <use x="133.203125" xlink:href="#DejaVuSans-111"/>
      <use x="194.384766" xlink:href="#DejaVuSans-114"/>
      <use x="233.748047" xlink:href="#DejaVuSans-100"/>
      <use x="297.224609" xlink:href="#DejaVuSans-32"/>
      <use x="329.011719" xlink:href="#DejaVuSans-108"/>
      <use x="356.794922" xlink:href="#DejaVuSans-101"/>
      <use x="418.318359" xlink:href="#DejaVuSans-110"/>
      <use x="481.697266" xlink:href="#DejaVuSans-103"/>
      <use x="545.173828" xlink:href="#DejaVuSans-116"/>
      <use x="584.382812" xlink:href="#DejaVuSans-104"/>
     </g>
    </g>
   </g>
   <g id="matplotlib.axis_2">
    <g id="ytick_1">
     <g id="line2d_13">
      <defs>
       <path d="M 0 0 
L 6 0 
" id="m4894c10f1a" style="stroke:#000000;stroke-width:2;"/>
      </defs>
      <g>
       <use style="fill:#ffffff;stroke:#000000;stroke-width:2;" x="57.0325" xlink:href="#m4894c10f1a" y="234.5525"/>
      </g>
     </g>
     <g id="line2d_14">
      <defs>
       <path d="M 0 0 
L -6 0 
" id="m7196d5f70c" style="stroke:#000000;stroke-width:2;"/>
      </defs>
      <g>
       <use style="fill:#ffffff;stroke:#000000;stroke-width:2;" x="285.566875" xlink:href="#m7196d5f70c" y="234.5525"/>
      </g>
     </g>
     <g id="text_8">
      <!-- 0.00 -->
      <g transform="translate(26.81375 239.111563)scale(0.12 -0.12)">
       <use xlink:href="#DejaVuSans-48"/>
       <use x="63.623047" xlink:href="#DejaVuSans-46"/>
       <use x="95.410156" xlink:href="#DejaVuSans-48"/>
       <use x="159.033203" xlink:href="#DejaVuSans-48"/>
      </g>
     </g>
    </g>
    <g id="ytick_2">
     <g id="line2d_15">
      <g>
       <use style="fill:#ffffff;stroke:#000000;stroke-width:2;" x="57.0325" xlink:href="#m4894c10f1a" y="182.364777"/>
      </g>
     </g>
     <g id="line2d_16">
      <g>
       <use style="fill:#ffffff;stroke:#000000;stroke-width:2;" x="285.566875" xlink:href="#m7196d5f70c" y="182.364777"/>
      </g>
     </g>
     <g id="text_9">
      <!-- 0.02 -->
      <g transform="translate(26.81375 186.923839)scale(0.12 -0.12)">
       <use xlink:href="#DejaVuSans-48"/>
       <use x="63.623047" xlink:href="#DejaVuSans-46"/>
       <use x="95.410156" xlink:href="#DejaVuSans-48"/>
       <use x="159.033203" xlink:href="#DejaVuSans-50"/>
      </g>
     </g>
    </g>
    <g id="ytick_3">
     <g id="line2d_17">
      <g>
       <use style="fill:#ffffff;stroke:#000000;stroke-width:2;" x="57.0325" xlink:href="#m4894c10f1a" y="130.177054"/>
      </g>
     </g>
     <g id="line2d_18">
      <g>
       <use style="fill:#ffffff;stroke:#000000;stroke-width:2;" x="285.566875" xlink:href="#m7196d5f70c" y="130.177054"/>
      </g>
     </g>
     <g id="text_10">
      <!-- 0.04 -->
      <g transform="translate(26.81375 134.736116)scale(0.12 -0.12)">
       <defs>
        <path d="M 37.796875 64.3125 
L 12.890625 25.390625 
L 37.796875 25.390625 
z
M 35.203125 72.90625 
L 47.609375 72.90625 
L 47.609375 25.390625 
L 58.015625 25.390625 
L 58.015625 17.1875 
L 47.609375 17.1875 
L 47.609375 0 
L 37.796875 0 
L 37.796875 17.1875 
L 4.890625 17.1875 
L 4.890625 26.703125 
z
" id="DejaVuSans-52"/>
       </defs>
       <use xlink:href="#DejaVuSans-48"/>
       <use x="63.623047" xlink:href="#DejaVuSans-46"/>
       <use x="95.410156" xlink:href="#DejaVuSans-48"/>
       <use x="159.033203" xlink:href="#DejaVuSans-52"/>
      </g>
     </g>
    </g>
    <g id="ytick_4">
     <g id="line2d_19">
      <g>
       <use style="fill:#ffffff;stroke:#000000;stroke-width:2;" x="57.0325" xlink:href="#m4894c10f1a" y="77.98933"/>
      </g>
     </g>
     <g id="line2d_20">
      <g>
       <use style="fill:#ffffff;stroke:#000000;stroke-width:2;" x="285.566875" xlink:href="#m7196d5f70c" y="77.98933"/>
      </g>
     </g>
     <g id="text_11">
      <!-- 0.06 -->
      <g transform="translate(26.81375 82.548393)scale(0.12 -0.12)">
       <defs>
        <path d="M 33.015625 40.375 
Q 26.375 40.375 22.484375 35.828125 
Q 18.609375 31.296875 18.609375 23.390625 
Q 18.609375 15.53125 22.484375 10.953125 
Q 26.375 6.390625 33.015625 6.390625 
Q 39.65625 6.390625 43.53125 10.953125 
Q 47.40625 15.53125 47.40625 23.390625 
Q 47.40625 31.296875 43.53125 35.828125 
Q 39.65625 40.375 33.015625 40.375 
z
M 52.59375 71.296875 
L 52.59375 62.3125 
Q 48.875 64.0625 45.09375 64.984375 
Q 41.3125 65.921875 37.59375 65.921875 
Q 27.828125 65.921875 22.671875 59.328125 
Q 17.53125 52.734375 16.796875 39.40625 
Q 19.671875 43.65625 24.015625 45.921875 
Q 28.375 48.1875 33.59375 48.1875 
Q 44.578125 48.1875 50.953125 41.515625 
Q 57.328125 34.859375 57.328125 23.390625 
Q 57.328125 12.15625 50.6875 5.359375 
Q 44.046875 -1.421875 33.015625 -1.421875 
Q 20.359375 -1.421875 13.671875 8.265625 
Q 6.984375 17.96875 6.984375 36.375 
Q 6.984375 53.65625 15.1875 63.9375 
Q 23.390625 74.21875 37.203125 74.21875 
Q 40.921875 74.21875 44.703125 73.484375 
Q 48.484375 72.75 52.59375 71.296875 
z
" id="DejaVuSans-54"/>
       </defs>
       <use xlink:href="#DejaVuSans-48"/>
       <use x="63.623047" xlink:href="#DejaVuSans-46"/>
       <use x="95.410156" xlink:href="#DejaVuSans-48"/>
       <use x="159.033203" xlink:href="#DejaVuSans-54"/>
      </g>
     </g>
    </g>
    <g id="ytick_5">
     <g id="line2d_21">
      <g>
       <use style="fill:#ffffff;stroke:#000000;stroke-width:2;" x="57.0325" xlink:href="#m4894c10f1a" y="25.801607"/>
      </g>
     </g>
     <g id="line2d_22">
      <g>
       <use style="fill:#ffffff;stroke:#000000;stroke-width:2;" x="285.566875" xlink:href="#m7196d5f70c" y="25.801607"/>
      </g>
     </g>
     <g id="text_12">
      <!-- 0.08 -->
      <g transform="translate(26.81375 30.36067)scale(0.12 -0.12)">
       <defs>
        <path d="M 31.78125 34.625 
Q 24.75 34.625 20.71875 30.859375 
Q 16.703125 27.09375 16.703125 20.515625 
Q 16.703125 13.921875 20.71875 10.15625 
Q 24.75 6.390625 31.78125 6.390625 
Q 38.8125 6.390625 42.859375 10.171875 
Q 46.921875 13.96875 46.921875 20.515625 
Q 46.921875 27.09375 42.890625 30.859375 
Q 38.875 34.625 31.78125 34.625 
z
M 21.921875 38.8125 
Q 15.578125 40.375 12.03125 44.71875 
Q 8.5 49.078125 8.5 55.328125 
Q 8.5 64.0625 14.71875 69.140625 
Q 20.953125 74.21875 31.78125 74.21875 
Q 42.671875 74.21875 48.875 69.140625 
Q 55.078125 64.0625 55.078125 55.328125 
Q 55.078125 49.078125 51.53125 44.71875 
Q 48 40.375 41.703125 38.8125 
Q 48.828125 37.15625 52.796875 32.3125 
Q 56.78125 27.484375 56.78125 20.515625 
Q 56.78125 9.90625 50.3125 4.234375 
Q 43.84375 -1.421875 31.78125 -1.421875 
Q 19.734375 -1.421875 13.25 4.234375 
Q 6.78125 9.90625 6.78125 20.515625 
Q 6.78125 27.484375 10.78125 32.3125 
Q 14.796875 37.15625 21.921875 38.8125 
z
M 18.3125 54.390625 
Q 18.3125 48.734375 21.84375 45.5625 
Q 25.390625 42.390625 31.78125 42.390625 
Q 38.140625 42.390625 41.71875 45.5625 
Q 45.3125 48.734375 45.3125 54.390625 
Q 45.3125 60.0625 41.71875 63.234375 
Q 38.140625 66.40625 31.78125 66.40625 
Q 25.390625 66.40625 21.84375 63.234375 
Q 18.3125 60.0625 18.3125 54.390625 
z
" id="DejaVuSans-56"/>
       </defs>
       <use xlink:href="#DejaVuSans-48"/>
       <use x="63.623047" xlink:href="#DejaVuSans-46"/>
       <use x="95.410156" xlink:href="#DejaVuSans-48"/>
       <use x="159.033203" xlink:href="#DejaVuSans-56"/>
      </g>
     </g>
    </g>
    <g id="text_13">
     <!-- Frequency -->
     <g transform="translate(16.318125 159.430938)rotate(-90)scale(0.12 -0.12)">
      <defs>
       <path d="M 9.8125 72.90625 
L 51.703125 72.90625 
L 51.703125 64.59375 
L 19.671875 64.59375 
L 19.671875 43.109375 
L 48.578125 43.109375 
L 48.578125 34.8125 
L 19.671875 34.8125 
L 19.671875 0 
L 9.8125 0 
z
" id="DejaVuSans-70"/>
       <path d="M 14.796875 27.296875 
Q 14.796875 17.390625 18.875 11.75 
Q 22.953125 6.109375 30.078125 6.109375 
Q 37.203125 6.109375 41.296875 11.75 
Q 45.40625 17.390625 45.40625 27.296875 
Q 45.40625 37.203125 41.296875 42.84375 
Q 37.203125 48.484375 30.078125 48.484375 
Q 22.953125 48.484375 18.875 42.84375 
Q 14.796875 37.203125 14.796875 27.296875 
z
M 45.40625 8.203125 
Q 42.578125 3.328125 38.25 0.953125 
Q 33.9375 -1.421875 27.875 -1.421875 
Q 17.96875 -1.421875 11.734375 6.484375 
Q 5.515625 14.40625 5.515625 27.296875 
Q 5.515625 40.1875 11.734375 48.09375 
Q 17.96875 56 27.875 56 
Q 33.9375 56 38.25 53.625 
Q 42.578125 51.265625 45.40625 46.390625 
L 45.40625 54.6875 
L 54.390625 54.6875 
L 54.390625 -20.796875 
L 45.40625 -20.796875 
z
" id="DejaVuSans-113"/>
       <path d="M 8.5 21.578125 
L 8.5 54.6875 
L 17.484375 54.6875 
L 17.484375 21.921875 
Q 17.484375 14.15625 20.5 10.265625 
Q 23.53125 6.390625 29.59375 6.390625 
Q 36.859375 6.390625 41.078125 11.03125 
Q 45.3125 15.671875 45.3125 23.6875 
L 45.3125 54.6875 
L 54.296875 54.6875 
L 54.296875 0 
L 45.3125 0 
L 45.3125 8.40625 
Q 42.046875 3.421875 37.71875 1 
Q 33.40625 -1.421875 27.6875 -1.421875 
Q 18.265625 -1.421875 13.375 4.4375 
Q 8.5 10.296875 8.5 21.578125 
z
M 31.109375 56 
z
" id="DejaVuSans-117"/>
       <path d="M 48.78125 52.59375 
L 48.78125 44.1875 
Q 44.96875 46.296875 41.140625 47.34375 
Q 37.3125 48.390625 33.40625 48.390625 
Q 24.65625 48.390625 19.8125 42.84375 
Q 14.984375 37.3125 14.984375 27.296875 
Q 14.984375 17.28125 19.8125 11.734375 
Q 24.65625 6.203125 33.40625 6.203125 
Q 37.3125 6.203125 41.140625 7.25 
Q 44.96875 8.296875 48.78125 10.40625 
L 48.78125 2.09375 
Q 45.015625 0.34375 40.984375 -0.53125 
Q 36.96875 -1.421875 32.421875 -1.421875 
Q 20.0625 -1.421875 12.78125 6.34375 
Q 5.515625 14.109375 5.515625 27.296875 
Q 5.515625 40.671875 12.859375 48.328125 
Q 20.21875 56 33.015625 56 
Q 37.15625 56 41.109375 55.140625 
Q 45.0625 54.296875 48.78125 52.59375 
z
" id="DejaVuSans-99"/>
       <path d="M 32.171875 -5.078125 
Q 28.375 -14.84375 24.75 -17.8125 
Q 21.140625 -20.796875 15.09375 -20.796875 
L 7.90625 -20.796875 
L 7.90625 -13.28125 
L 13.1875 -13.28125 
Q 16.890625 -13.28125 18.9375 -11.515625 
Q 21 -9.765625 23.484375 -3.21875 
L 25.09375 0.875 
L 2.984375 54.6875 
L 12.5 54.6875 
L 29.59375 11.921875 
L 46.6875 54.6875 
L 56.203125 54.6875 
z
" id="DejaVuSans-121"/>
      </defs>
      <use xlink:href="#DejaVuSans-70"/>
      <use x="50.269531" xlink:href="#DejaVuSans-114"/>
      <use x="89.132812" xlink:href="#DejaVuSans-101"/>
      <use x="150.65625" xlink:href="#DejaVuSans-113"/>
      <use x="214.132812" xlink:href="#DejaVuSans-117"/>
      <use x="277.511719" xlink:href="#DejaVuSans-101"/>
      <use x="339.035156" xlink:href="#DejaVuSans-110"/>
      <use x="402.414062" xlink:href="#DejaVuSans-99"/>
      <use x="457.394531" xlink:href="#DejaVuSans-121"/>
     </g>
    </g>
   </g>
   <g id="patch_53">
    <path d="M 57.0325 234.5525 
L 57.0325 22.318125 
" style="fill:none;stroke:#000000;stroke-linecap:square;stroke-linejoin:miter;stroke-width:2;"/>
   </g>
   <g id="patch_54">
    <path d="M 285.566875 234.5525 
L 285.566875 22.318125 
" style="fill:none;stroke:#000000;stroke-linecap:square;stroke-linejoin:miter;stroke-width:2;"/>
   </g>
   <g id="patch_55">
    <path d="M 57.0325 234.5525 
L 285.566875 234.5525 
" style="fill:none;stroke:#000000;stroke-linecap:square;stroke-linejoin:miter;stroke-width:2;"/>
   </g>
   <g id="patch_56">
    <path d="M 57.0325 22.318125 
L 285.566875 22.318125 
" style="fill:none;stroke:#000000;stroke-linecap:square;stroke-linejoin:miter;stroke-width:2;"/>
   </g>
   <g id="text_14">
    <!-- Chord length dist. (x-axis) -->
    <g transform="translate(93.340938 16.318125)scale(0.12 -0.12)">
     <defs>
      <path d="M 9.421875 54.6875 
L 18.40625 54.6875 
L 18.40625 0 
L 9.421875 0 
z
M 9.421875 75.984375 
L 18.40625 75.984375 
L 18.40625 64.59375 
L 9.421875 64.59375 
z
" id="DejaVuSans-105"/>
      <path d="M 44.28125 53.078125 
L 44.28125 44.578125 
Q 40.484375 46.53125 36.375 47.5 
Q 32.28125 48.484375 27.875 48.484375 
Q 21.1875 48.484375 17.84375 46.4375 
Q 14.5 44.390625 14.5 40.28125 
Q 14.5 37.15625 16.890625 35.375 
Q 19.28125 33.59375 26.515625 31.984375 
L 29.59375 31.296875 
Q 39.15625 29.25 43.1875 25.515625 
Q 47.21875 21.78125 47.21875 15.09375 
Q 47.21875 7.46875 41.1875 3.015625 
Q 35.15625 -1.421875 24.609375 -1.421875 
Q 20.21875 -1.421875 15.453125 -0.5625 
Q 10.6875 0.296875 5.421875 2 
L 5.421875 11.28125 
Q 10.40625 8.6875 15.234375 7.390625 
Q 20.0625 6.109375 24.8125 6.109375 
Q 31.15625 6.109375 34.5625 8.28125 
Q 37.984375 10.453125 37.984375 14.40625 
Q 37.984375 18.0625 35.515625 20.015625 
Q 33.0625 21.96875 24.703125 23.78125 
L 21.578125 24.515625 
Q 13.234375 26.265625 9.515625 29.90625 
Q 5.8125 33.546875 5.8125 39.890625 
Q 5.8125 47.609375 11.28125 51.796875 
Q 16.75 56 26.8125 56 
Q 31.78125 56 36.171875 55.265625 
Q 40.578125 54.546875 44.28125 53.078125 
z
" id="DejaVuSans-115"/>
      <path d="M 31 75.875 
Q 24.46875 64.65625 21.28125 53.65625 
Q 18.109375 42.671875 18.109375 31.390625 
Q 18.109375 20.125 21.3125 9.0625 
Q 24.515625 -2 31 -13.1875 
L 23.1875 -13.1875 
Q 15.875 -1.703125 12.234375 9.375 
Q 8.59375 20.453125 8.59375 31.390625 
Q 8.59375 42.28125 12.203125 53.3125 
Q 15.828125 64.359375 23.1875 75.875 
z
" id="DejaVuSans-40"/>
      <path d="M 54.890625 54.6875 
L 35.109375 28.078125 
L 55.90625 0 
L 45.3125 0 
L 29.390625 21.484375 
L 13.484375 0 
L 2.875 0 
L 24.125 28.609375 
L 4.6875 54.6875 
L 15.28125 54.6875 
L 29.78125 35.203125 
L 44.28125 54.6875 
z
" id="DejaVuSans-120"/>
      <path d="M 4.890625 31.390625 
L 31.203125 31.390625 
L 31.203125 23.390625 
L 4.890625 23.390625 
z
" id="DejaVuSans-45"/>
      <path d="M 34.28125 27.484375 
Q 23.390625 27.484375 19.1875 25 
Q 14.984375 22.515625 14.984375 16.5 
Q 14.984375 11.71875 18.140625 8.90625 
Q 21.296875 6.109375 26.703125 6.109375 
Q 34.1875 6.109375 38.703125 11.40625 
Q 43.21875 16.703125 43.21875 25.484375 
L 43.21875 27.484375 
z
M 52.203125 31.203125 
L 52.203125 0 
L 43.21875 0 
L 43.21875 8.296875 
Q 40.140625 3.328125 35.546875 0.953125 
Q 30.953125 -1.421875 24.3125 -1.421875 
Q 15.921875 -1.421875 10.953125 3.296875 
Q 6 8.015625 6 15.921875 
Q 6 25.140625 12.171875 29.828125 
Q 18.359375 34.515625 30.609375 34.515625 
L 43.21875 34.515625 
L 43.21875 35.40625 
Q 43.21875 41.609375 39.140625 45 
Q 35.0625 48.390625 27.6875 48.390625 
Q 23 48.390625 18.546875 47.265625 
Q 14.109375 46.140625 10.015625 43.890625 
L 10.015625 52.203125 
Q 14.9375 54.109375 19.578125 55.046875 
Q 24.21875 56 28.609375 56 
Q 40.484375 56 46.34375 49.84375 
Q 52.203125 43.703125 52.203125 31.203125 
z
" id="DejaVuSans-97"/>
      <path d="M 8.015625 75.875 
L 15.828125 75.875 
Q 23.140625 64.359375 26.78125 53.3125 
Q 30.421875 42.28125 30.421875 31.390625 
Q 30.421875 20.453125 26.78125 9.375 
Q 23.140625 -1.703125 15.828125 -13.1875 
L 8.015625 -13.1875 
Q 14.5 -2 17.703125 9.0625 
Q 20.90625 20.125 20.90625 31.390625 
Q 20.90625 42.671875 17.703125 53.65625 
Q 14.5 64.65625 8.015625 75.875 
z
" id="DejaVuSans-41"/>
     </defs>
     <use xlink:href="#DejaVuSans-67"/>
     <use x="69.824219" xlink:href="#DejaVuSans-104"/>
     <use x="133.203125" xlink:href="#DejaVuSans-111"/>
     <use x="194.384766" xlink:href="#DejaVuSans-114"/>
     <use x="233.748047" xlink:href="#DejaVuSans-100"/>
     <use x="297.224609" xlink:href="#DejaVuSans-32"/>
     <use x="329.011719" xlink:href="#DejaVuSans-108"/>
     <use x="356.794922" xlink:href="#DejaVuSans-101"/>
     <use x="418.318359" xlink:href="#DejaVuSans-110"/>
     <use x="481.697266" xlink:href="#DejaVuSans-103"/>
     <use x="545.173828" xlink:href="#DejaVuSans-116"/>
     <use x="584.382812" xlink:href="#DejaVuSans-104"/>
     <use x="647.761719" xlink:href="#DejaVuSans-32"/>
     <use x="679.548828" xlink:href="#DejaVuSans-100"/>
     <use x="743.025391" xlink:href="#DejaVuSans-105"/>
     <use x="770.808594" xlink:href="#DejaVuSans-115"/>
     <use x="822.908203" xlink:href="#DejaVuSans-116"/>
     <use x="862.117188" xlink:href="#DejaVuSans-46"/>
     <use x="893.904297" xlink:href="#DejaVuSans-32"/>
     <use x="925.691406" xlink:href="#DejaVuSans-40"/>
     <use x="964.705078" xlink:href="#DejaVuSans-120"/>
     <use x="1023.884766" xlink:href="#DejaVuSans-45"/>
     <use x="1059.96875" xlink:href="#DejaVuSans-97"/>
     <use x="1121.248047" xlink:href="#DejaVuSans-120"/>
     <use x="1180.427734" xlink:href="#DejaVuSans-105"/>
     <use x="1208.210938" xlink:href="#DejaVuSans-115"/>
     <use x="1260.310547" xlink:href="#DejaVuSans-41"/>
    </g>
   </g>
  </g>
  <g id="axes_2">
   <g id="patch_57">
    <path d="M 328.745625 234.5525 
L 557.28 234.5525 
L 557.28 22.318125 
L 328.745625 22.318125 
z
" style="fill:#ffffff;"/>
   </g>
   <g id="patch_58">
    <path clip-path="url(#pa705cdb70b)" d="M 339.133551 234.5525 
L 343.288722 234.5525 
L 343.288722 232.680945 
L 339.133551 232.680945 
z
" style="fill:#1f77b4;stroke:#000000;stroke-linejoin:miter;"/>
   </g>
   <g id="patch_59">
    <path clip-path="url(#pa705cdb70b)" d="M 343.288722 234.5525 
L 347.443892 234.5525 
L 347.443892 234.5525 
L 343.288722 234.5525 
z
" style="fill:#1f77b4;stroke:#000000;stroke-linejoin:miter;"/>
   </g>
   <g id="patch_60">
    <path clip-path="url(#pa705cdb70b)" d="M 347.443892 234.5525 
L 351.599063 234.5525 
L 351.599063 234.5525 
L 347.443892 234.5525 
z
" style="fill:#1f77b4;stroke:#000000;stroke-linejoin:miter;"/>
   </g>
   <g id="patch_61">
    <path clip-path="url(#pa705cdb70b)" d="M 351.599063 234.5525 
L 355.754233 234.5525 
L 355.754233 230.809389 
L 351.599063 230.809389 
z
" style="fill:#1f77b4;stroke:#000000;stroke-linejoin:miter;"/>
   </g>
   <g id="patch_62">
    <path clip-path="url(#pa705cdb70b)" d="M 355.754233 234.5525 
L 359.909403 234.5525 
L 359.909403 234.5525 
L 355.754233 234.5525 
z
" style="fill:#1f77b4;stroke:#000000;stroke-linejoin:miter;"/>
   </g>
   <g id="patch_63">
    <path clip-path="url(#pa705cdb70b)" d="M 359.909403 234.5525 
L 364.064574 234.5525 
L 364.064574 234.5525 
L 359.909403 234.5525 
z
" style="fill:#1f77b4;stroke:#000000;stroke-linejoin:miter;"/>
   </g>
   <g id="patch_64">
    <path clip-path="url(#pa705cdb70b)" d="M 364.064574 234.5525 
L 368.219744 234.5525 
L 368.219744 232.680945 
L 364.064574 232.680945 
z
" style="fill:#1f77b4;stroke:#000000;stroke-linejoin:miter;"/>
   </g>
   <g id="patch_65">
    <path clip-path="url(#pa705cdb70b)" d="M 368.219744 234.5525 
L 372.374915 234.5525 
L 372.374915 234.5525 
L 368.219744 234.5525 
z
" style="fill:#1f77b4;stroke:#000000;stroke-linejoin:miter;"/>
   </g>
   <g id="patch_66">
    <path clip-path="url(#pa705cdb70b)" d="M 372.374915 234.5525 
L 376.530085 234.5525 
L 376.530085 230.809389 
L 372.374915 230.809389 
z
" style="fill:#1f77b4;stroke:#000000;stroke-linejoin:miter;"/>
   </g>
   <g id="patch_67">
    <path clip-path="url(#pa705cdb70b)" d="M 376.530085 234.5525 
L 380.685256 234.5525 
L 380.685256 234.5525 
L 376.530085 234.5525 
z
" style="fill:#1f77b4;stroke:#000000;stroke-linejoin:miter;"/>
   </g>
   <g id="patch_68">
    <path clip-path="url(#pa705cdb70b)" d="M 380.685256 234.5525 
L 384.840426 234.5525 
L 384.840426 227.066279 
L 380.685256 227.066279 
z
" style="fill:#1f77b4;stroke:#000000;stroke-linejoin:miter;"/>
   </g>
   <g id="patch_69">
    <path clip-path="url(#pa705cdb70b)" d="M 384.840426 234.5525 
L 388.995597 234.5525 
L 388.995597 227.066279 
L 384.840426 227.066279 
z
" style="fill:#1f77b4;stroke:#000000;stroke-linejoin:miter;"/>
   </g>
   <g id="patch_70">
    <path clip-path="url(#pa705cdb70b)" d="M 388.995597 234.5525 
L 393.150767 234.5525 
L 393.150767 234.5525 
L 388.995597 234.5525 
z
" style="fill:#1f77b4;stroke:#000000;stroke-linejoin:miter;"/>
   </g>
   <g id="patch_71">
    <path clip-path="url(#pa705cdb70b)" d="M 393.150767 234.5525 
L 397.305938 234.5525 
L 397.305938 223.323168 
L 393.150767 223.323168 
z
" style="fill:#1f77b4;stroke:#000000;stroke-linejoin:miter;"/>
   </g>
   <g id="patch_72">
    <path clip-path="url(#pa705cdb70b)" d="M 397.305938 234.5525 
L 401.461108 234.5525 
L 401.461108 230.809389 
L 397.305938 230.809389 
z
" style="fill:#1f77b4;stroke:#000000;stroke-linejoin:miter;"/>
   </g>
   <g id="patch_73">
    <path clip-path="url(#pa705cdb70b)" d="M 401.461108 234.5525 
L 405.616278 234.5525 
L 405.616278 217.708502 
L 401.461108 217.708502 
z
" style="fill:#1f77b4;stroke:#000000;stroke-linejoin:miter;"/>
   </g>
   <g id="patch_74">
    <path clip-path="url(#pa705cdb70b)" d="M 405.616278 234.5525 
L 409.771449 234.5525 
L 409.771449 213.965391 
L 405.616278 213.965391 
z
" style="fill:#1f77b4;stroke:#000000;stroke-linejoin:miter;"/>
   </g>
   <g id="patch_75">
    <path clip-path="url(#pa705cdb70b)" d="M 409.771449 234.5525 
L 413.926619 234.5525 
L 413.926619 213.965391 
L 409.771449 213.965391 
z
" style="fill:#1f77b4;stroke:#000000;stroke-linejoin:miter;"/>
   </g>
   <g id="patch_76">
    <path clip-path="url(#pa705cdb70b)" d="M 413.926619 234.5525 
L 418.08179 234.5525 
L 418.08179 225.194723 
L 413.926619 225.194723 
z
" style="fill:#1f77b4;stroke:#000000;stroke-linejoin:miter;"/>
   </g>
   <g id="patch_77">
    <path clip-path="url(#pa705cdb70b)" d="M 418.08179 234.5525 
L 422.23696 234.5525 
L 422.23696 202.736059 
L 418.08179 202.736059 
z
" style="fill:#1f77b4;stroke:#000000;stroke-linejoin:miter;"/>
   </g>
   <g id="patch_78">
    <path clip-path="url(#pa705cdb70b)" d="M 422.23696 234.5525 
L 426.392131 234.5525 
L 426.392131 198.992949 
L 422.23696 198.992949 
z
" style="fill:#1f77b4;stroke:#000000;stroke-linejoin:miter;"/>
   </g>
   <g id="patch_79">
    <path clip-path="url(#pa705cdb70b)" d="M 426.392131 234.5525 
L 430.547301 234.5525 
L 430.547301 185.892061 
L 426.392131 185.892061 
z
" style="fill:#1f77b4;stroke:#000000;stroke-linejoin:miter;"/>
   </g>
   <g id="patch_80">
    <path clip-path="url(#pa705cdb70b)" d="M 430.547301 234.5525 
L 434.702472 234.5525 
L 434.702472 184.020506 
L 430.547301 184.020506 
z
" style="fill:#1f77b4;stroke:#000000;stroke-linejoin:miter;"/>
   </g>
   <g id="patch_81">
    <path clip-path="url(#pa705cdb70b)" d="M 434.702472 234.5525 
L 438.857642 234.5525 
L 438.857642 169.048063 
L 434.702472 169.048063 
z
" style="fill:#1f77b4;stroke:#000000;stroke-linejoin:miter;"/>
   </g>
   <g id="patch_82">
    <path clip-path="url(#pa705cdb70b)" d="M 438.857642 234.5525 
L 443.012812 234.5525 
L 443.012812 187.763617 
L 438.857642 187.763617 
z
" style="fill:#1f77b4;stroke:#000000;stroke-linejoin:miter;"/>
   </g>
   <g id="patch_83">
    <path clip-path="url(#pa705cdb70b)" d="M 443.012812 234.5525 
L 447.167983 234.5525 
L 447.167983 155.947176 
L 443.012812 155.947176 
z
" style="fill:#1f77b4;stroke:#000000;stroke-linejoin:miter;"/>
   </g>
   <g id="patch_84">
    <path clip-path="url(#pa705cdb70b)" d="M 447.167983 234.5525 
L 451.323153 234.5525 
L 451.323153 146.589399 
L 447.167983 146.589399 
z
" style="fill:#1f77b4;stroke:#000000;stroke-linejoin:miter;"/>
   </g>
   <g id="patch_85">
    <path clip-path="url(#pa705cdb70b)" d="M 451.323153 234.5525 
L 455.478324 234.5525 
L 455.478324 96.057405 
L 451.323153 96.057405 
z
" style="fill:#1f77b4;stroke:#000000;stroke-linejoin:miter;"/>
   </g>
   <g id="patch_86">
    <path clip-path="url(#pa705cdb70b)" d="M 455.478324 234.5525 
L 459.633494 234.5525 
L 459.633494 86.699629 
L 455.478324 86.699629 
z
" style="fill:#1f77b4;stroke:#000000;stroke-linejoin:miter;"/>
   </g>
   <g id="patch_87">
    <path clip-path="url(#pa705cdb70b)" d="M 459.633494 234.5525 
L 463.788665 234.5525 
L 463.788665 67.984075 
L 459.633494 67.984075 
z
" style="fill:#1f77b4;stroke:#000000;stroke-linejoin:miter;"/>
   </g>
   <g id="patch_88">
    <path clip-path="url(#pa705cdb70b)" d="M 463.788665 234.5525 
L 467.943835 234.5525 
L 467.943835 71.727186 
L 463.788665 71.727186 
z
" style="fill:#1f77b4;stroke:#000000;stroke-linejoin:miter;"/>
   </g>
   <g id="patch_89">
    <path clip-path="url(#pa705cdb70b)" d="M 467.943835 234.5525 
L 472.099006 234.5525 
L 472.099006 39.910745 
L 467.943835 39.910745 
z
" style="fill:#1f77b4;stroke:#000000;stroke-linejoin:miter;"/>
   </g>
   <g id="patch_90">
    <path clip-path="url(#pa705cdb70b)" d="M 472.099006 234.5525 
L 476.254176 234.5525 
L 476.254176 81.084963 
L 472.099006 81.084963 
z
" style="fill:#1f77b4;stroke:#000000;stroke-linejoin:miter;"/>
   </g>
   <g id="patch_91">
    <path clip-path="url(#pa705cdb70b)" d="M 476.254176 234.5525 
L 480.409347 234.5525 
L 480.409347 32.424524 
L 476.254176 32.424524 
z
" style="fill:#1f77b4;stroke:#000000;stroke-linejoin:miter;"/>
   </g>
   <g id="patch_92">
    <path clip-path="url(#pa705cdb70b)" d="M 480.409347 234.5525 
L 484.564517 234.5525 
L 484.564517 62.369409 
L 480.409347 62.369409 
z
" style="fill:#1f77b4;stroke:#000000;stroke-linejoin:miter;"/>
   </g>
   <g id="patch_93">
    <path clip-path="url(#pa705cdb70b)" d="M 484.564517 234.5525 
L 488.719687 234.5525 
L 488.719687 99.800516 
L 484.564517 99.800516 
z
" style="fill:#1f77b4;stroke:#000000;stroke-linejoin:miter;"/>
   </g>
   <g id="patch_94">
    <path clip-path="url(#pa705cdb70b)" d="M 488.719687 234.5525 
L 492.874858 234.5525 
L 492.874858 73.598741 
L 488.719687 73.598741 
z
" style="fill:#1f77b4;stroke:#000000;stroke-linejoin:miter;"/>
   </g>
   <g id="patch_95">
    <path clip-path="url(#pa705cdb70b)" d="M 492.874858 234.5525 
L 497.030028 234.5525 
L 497.030028 69.855631 
L 492.874858 69.855631 
z
" style="fill:#1f77b4;stroke:#000000;stroke-linejoin:miter;"/>
   </g>
   <g id="patch_96">
    <path clip-path="url(#pa705cdb70b)" d="M 497.030028 234.5525 
L 501.185199 234.5525 
L 501.185199 99.800516 
L 497.030028 99.800516 
z
" style="fill:#1f77b4;stroke:#000000;stroke-linejoin:miter;"/>
   </g>
   <g id="patch_97">
    <path clip-path="url(#pa705cdb70b)" d="M 501.185199 234.5525 
L 505.340369 234.5525 
L 505.340369 154.075621 
L 501.185199 154.075621 
z
" style="fill:#1f77b4;stroke:#000000;stroke-linejoin:miter;"/>
   </g>
   <g id="patch_98">
    <path clip-path="url(#pa705cdb70b)" d="M 505.340369 234.5525 
L 509.49554 234.5525 
L 509.49554 142.846289 
L 505.340369 142.846289 
z
" style="fill:#1f77b4;stroke:#000000;stroke-linejoin:miter;"/>
   </g>
   <g id="patch_99">
    <path clip-path="url(#pa705cdb70b)" d="M 509.49554 234.5525 
L 513.65071 234.5525 
L 513.65071 178.40584 
L 509.49554 178.40584 
z
" style="fill:#1f77b4;stroke:#000000;stroke-linejoin:miter;"/>
   </g>
   <g id="patch_100">
    <path clip-path="url(#pa705cdb70b)" d="M 513.65071 234.5525 
L 517.805881 234.5525 
L 517.805881 184.020506 
L 513.65071 184.020506 
z
" style="fill:#1f77b4;stroke:#000000;stroke-linejoin:miter;"/>
   </g>
   <g id="patch_101">
    <path clip-path="url(#pa705cdb70b)" d="M 517.805881 234.5525 
L 521.961051 234.5525 
L 521.961051 198.992949 
L 517.805881 198.992949 
z
" style="fill:#1f77b4;stroke:#000000;stroke-linejoin:miter;"/>
   </g>
   <g id="patch_102">
    <path clip-path="url(#pa705cdb70b)" d="M 521.961051 234.5525 
L 526.116222 234.5525 
L 526.116222 178.40584 
L 521.961051 178.40584 
z
" style="fill:#1f77b4;stroke:#000000;stroke-linejoin:miter;"/>
   </g>
   <g id="patch_103">
    <path clip-path="url(#pa705cdb70b)" d="M 526.116222 234.5525 
L 530.271392 234.5525 
L 530.271392 187.763617 
L 526.116222 187.763617 
z
" style="fill:#1f77b4;stroke:#000000;stroke-linejoin:miter;"/>
   </g>
   <g id="patch_104">
    <path clip-path="url(#pa705cdb70b)" d="M 530.271392 234.5525 
L 534.426563 234.5525 
L 534.426563 219.580057 
L 530.271392 219.580057 
z
" style="fill:#1f77b4;stroke:#000000;stroke-linejoin:miter;"/>
   </g>
   <g id="patch_105">
    <path clip-path="url(#pa705cdb70b)" d="M 534.426563 234.5525 
L 538.581733 234.5525 
L 538.581733 219.580057 
L 534.426563 219.580057 
z
" style="fill:#1f77b4;stroke:#000000;stroke-linejoin:miter;"/>
   </g>
   <g id="patch_106">
    <path clip-path="url(#pa705cdb70b)" d="M 538.581733 234.5525 
L 542.736903 234.5525 
L 542.736903 234.5525 
L 538.581733 234.5525 
z
" style="fill:#1f77b4;stroke:#000000;stroke-linejoin:miter;"/>
   </g>
   <g id="patch_107">
    <path clip-path="url(#pa705cdb70b)" d="M 542.736903 234.5525 
L 546.892074 234.5525 
L 546.892074 213.965391 
L 542.736903 213.965391 
z
" style="fill:#1f77b4;stroke:#000000;stroke-linejoin:miter;"/>
   </g>
   <g id="matplotlib.axis_3">
    <g id="xtick_7">
     <g id="line2d_23">
      <g>
       <use style="fill:#ffffff;stroke:#000000;stroke-width:2;" x="357.184682" xlink:href="#m06b9dc8587" y="234.5525"/>
      </g>
     </g>
     <g id="line2d_24">
      <g>
       <use style="fill:#ffffff;stroke:#000000;stroke-width:2;" x="357.184682" xlink:href="#m35591722e6" y="22.318125"/>
      </g>
     </g>
     <g id="text_15">
      <!-- 0.5 -->
      <g transform="translate(347.642807 247.170625)scale(0.12 -0.12)">
       <use xlink:href="#DejaVuSans-48"/>
       <use x="63.623047" xlink:href="#DejaVuSans-46"/>
       <use x="95.410156" xlink:href="#DejaVuSans-53"/>
      </g>
     </g>
    </g>
    <g id="xtick_8">
     <g id="line2d_25">
      <g>
       <use style="fill:#ffffff;stroke:#000000;stroke-width:2;" x="402.546119" xlink:href="#m06b9dc8587" y="234.5525"/>
      </g>
     </g>
     <g id="line2d_26">
      <g>
       <use style="fill:#ffffff;stroke:#000000;stroke-width:2;" x="402.546119" xlink:href="#m35591722e6" y="22.318125"/>
      </g>
     </g>
     <g id="text_16">
      <!-- 1.0 -->
      <g transform="translate(393.004244 247.170625)scale(0.12 -0.12)">
       <use xlink:href="#DejaVuSans-49"/>
       <use x="63.623047" xlink:href="#DejaVuSans-46"/>
       <use x="95.410156" xlink:href="#DejaVuSans-48"/>
      </g>
     </g>
    </g>
    <g id="xtick_9">
     <g id="line2d_27">
      <g>
       <use style="fill:#ffffff;stroke:#000000;stroke-width:2;" x="447.907556" xlink:href="#m06b9dc8587" y="234.5525"/>
      </g>
     </g>
     <g id="line2d_28">
      <g>
       <use style="fill:#ffffff;stroke:#000000;stroke-width:2;" x="447.907556" xlink:href="#m35591722e6" y="22.318125"/>
      </g>
     </g>
     <g id="text_17">
      <!-- 1.5 -->
      <g transform="translate(438.365681 247.170625)scale(0.12 -0.12)">
       <use xlink:href="#DejaVuSans-49"/>
       <use x="63.623047" xlink:href="#DejaVuSans-46"/>
       <use x="95.410156" xlink:href="#DejaVuSans-53"/>
      </g>
     </g>
    </g>
    <g id="xtick_10">
     <g id="line2d_29">
      <g>
       <use style="fill:#ffffff;stroke:#000000;stroke-width:2;" x="493.268994" xlink:href="#m06b9dc8587" y="234.5525"/>
      </g>
     </g>
     <g id="line2d_30">
      <g>
       <use style="fill:#ffffff;stroke:#000000;stroke-width:2;" x="493.268994" xlink:href="#m35591722e6" y="22.318125"/>
      </g>
     </g>
     <g id="text_18">
      <!-- 2.0 -->
      <g transform="translate(483.727119 247.170625)scale(0.12 -0.12)">
       <use xlink:href="#DejaVuSans-50"/>
       <use x="63.623047" xlink:href="#DejaVuSans-46"/>
       <use x="95.410156" xlink:href="#DejaVuSans-48"/>
      </g>
     </g>
    </g>
    <g id="xtick_11">
     <g id="line2d_31">
      <g>
       <use style="fill:#ffffff;stroke:#000000;stroke-width:2;" x="538.630431" xlink:href="#m06b9dc8587" y="234.5525"/>
      </g>
     </g>
     <g id="line2d_32">
      <g>
       <use style="fill:#ffffff;stroke:#000000;stroke-width:2;" x="538.630431" xlink:href="#m35591722e6" y="22.318125"/>
      </g>
     </g>
     <g id="text_19">
      <!-- 2.5 -->
      <g transform="translate(529.088556 247.170625)scale(0.12 -0.12)">
       <use xlink:href="#DejaVuSans-50"/>
       <use x="63.623047" xlink:href="#DejaVuSans-46"/>
       <use x="95.410156" xlink:href="#DejaVuSans-53"/>
      </g>
     </g>
    </g>
    <g id="text_20">
     <!-- Chord length -->
     <g transform="translate(404.146875 266.784375)scale(0.12 -0.12)">
      <use xlink:href="#DejaVuSans-67"/>
      <use x="69.824219" xlink:href="#DejaVuSans-104"/>
      <use x="133.203125" xlink:href="#DejaVuSans-111"/>
      <use x="194.384766" xlink:href="#DejaVuSans-114"/>
      <use x="233.748047" xlink:href="#DejaVuSans-100"/>
      <use x="297.224609" xlink:href="#DejaVuSans-32"/>
      <use x="329.011719" xlink:href="#DejaVuSans-108"/>
      <use x="356.794922" xlink:href="#DejaVuSans-101"/>
      <use x="418.318359" xlink:href="#DejaVuSans-110"/>
      <use x="481.697266" xlink:href="#DejaVuSans-103"/>
      <use x="545.173828" xlink:href="#DejaVuSans-116"/>
      <use x="584.382812" xlink:href="#DejaVuSans-104"/>
     </g>
    </g>
   </g>
   <g id="matplotlib.axis_4">
    <g id="ytick_6">
     <g id="line2d_33">
      <g>
       <use style="fill:#ffffff;stroke:#000000;stroke-width:2;" x="328.745625" xlink:href="#m4894c10f1a" y="234.5525"/>
      </g>
     </g>
     <g id="line2d_34">
      <g>
       <use style="fill:#ffffff;stroke:#000000;stroke-width:2;" x="557.28" xlink:href="#m7196d5f70c" y="234.5525"/>
      </g>
     </g>
     <g id="text_21">
      <!-- 0.00 -->
      <g transform="translate(298.526875 239.111563)scale(0.12 -0.12)">
       <use xlink:href="#DejaVuSans-48"/>
       <use x="63.623047" xlink:href="#DejaVuSans-46"/>
       <use x="95.410156" xlink:href="#DejaVuSans-48"/>
       <use x="159.033203" xlink:href="#DejaVuSans-48"/>
      </g>
     </g>
    </g>
    <g id="ytick_7">
     <g id="line2d_35">
      <g>
       <use style="fill:#ffffff;stroke:#000000;stroke-width:2;" x="328.745625" xlink:href="#m4894c10f1a" y="205.000641"/>
      </g>
     </g>
     <g id="line2d_36">
      <g>
       <use style="fill:#ffffff;stroke:#000000;stroke-width:2;" x="557.28" xlink:href="#m7196d5f70c" y="205.000641"/>
      </g>
     </g>
     <g id="text_22">
      <!-- 0.01 -->
      <g transform="translate(298.526875 209.559704)scale(0.12 -0.12)">
       <use xlink:href="#DejaVuSans-48"/>
       <use x="63.623047" xlink:href="#DejaVuSans-46"/>
       <use x="95.410156" xlink:href="#DejaVuSans-48"/>
       <use x="159.033203" xlink:href="#DejaVuSans-49"/>
      </g>
     </g>
    </g>
    <g id="ytick_8">
     <g id="line2d_37">
      <g>
       <use style="fill:#ffffff;stroke:#000000;stroke-width:2;" x="328.745625" xlink:href="#m4894c10f1a" y="175.448783"/>
      </g>
     </g>
     <g id="line2d_38">
      <g>
       <use style="fill:#ffffff;stroke:#000000;stroke-width:2;" x="557.28" xlink:href="#m7196d5f70c" y="175.448783"/>
      </g>
     </g>
     <g id="text_23">
      <!-- 0.02 -->
      <g transform="translate(298.526875 180.007845)scale(0.12 -0.12)">
       <use xlink:href="#DejaVuSans-48"/>
       <use x="63.623047" xlink:href="#DejaVuSans-46"/>
       <use x="95.410156" xlink:href="#DejaVuSans-48"/>
       <use x="159.033203" xlink:href="#DejaVuSans-50"/>
      </g>
     </g>
    </g>
    <g id="ytick_9">
     <g id="line2d_39">
      <g>
       <use style="fill:#ffffff;stroke:#000000;stroke-width:2;" x="328.745625" xlink:href="#m4894c10f1a" y="145.896924"/>
      </g>
     </g>
     <g id="line2d_40">
      <g>
       <use style="fill:#ffffff;stroke:#000000;stroke-width:2;" x="557.28" xlink:href="#m7196d5f70c" y="145.896924"/>
      </g>
     </g>
     <g id="text_24">
      <!-- 0.03 -->
      <g transform="translate(298.526875 150.455986)scale(0.12 -0.12)">
       <defs>
        <path d="M 40.578125 39.3125 
Q 47.65625 37.796875 51.625 33 
Q 55.609375 28.21875 55.609375 21.1875 
Q 55.609375 10.40625 48.1875 4.484375 
Q 40.765625 -1.421875 27.09375 -1.421875 
Q 22.515625 -1.421875 17.65625 -0.515625 
Q 12.796875 0.390625 7.625 2.203125 
L 7.625 11.71875 
Q 11.71875 9.328125 16.59375 8.109375 
Q 21.484375 6.890625 26.8125 6.890625 
Q 36.078125 6.890625 40.9375 10.546875 
Q 45.796875 14.203125 45.796875 21.1875 
Q 45.796875 27.640625 41.28125 31.265625 
Q 36.765625 34.90625 28.71875 34.90625 
L 20.21875 34.90625 
L 20.21875 43.015625 
L 29.109375 43.015625 
Q 36.375 43.015625 40.234375 45.921875 
Q 44.09375 48.828125 44.09375 54.296875 
Q 44.09375 59.90625 40.109375 62.90625 
Q 36.140625 65.921875 28.71875 65.921875 
Q 24.65625 65.921875 20.015625 65.03125 
Q 15.375 64.15625 9.8125 62.3125 
L 9.8125 71.09375 
Q 15.4375 72.65625 20.34375 73.4375 
Q 25.25 74.21875 29.59375 74.21875 
Q 40.828125 74.21875 47.359375 69.109375 
Q 53.90625 64.015625 53.90625 55.328125 
Q 53.90625 49.265625 50.4375 45.09375 
Q 46.96875 40.921875 40.578125 39.3125 
z
" id="DejaVuSans-51"/>
       </defs>
       <use xlink:href="#DejaVuSans-48"/>
       <use x="63.623047" xlink:href="#DejaVuSans-46"/>
       <use x="95.410156" xlink:href="#DejaVuSans-48"/>
       <use x="159.033203" xlink:href="#DejaVuSans-51"/>
      </g>
     </g>
    </g>
    <g id="ytick_10">
     <g id="line2d_41">
      <g>
       <use style="fill:#ffffff;stroke:#000000;stroke-width:2;" x="328.745625" xlink:href="#m4894c10f1a" y="116.345065"/>
      </g>
     </g>
     <g id="line2d_42">
      <g>
       <use style="fill:#ffffff;stroke:#000000;stroke-width:2;" x="557.28" xlink:href="#m7196d5f70c" y="116.345065"/>
      </g>
     </g>
     <g id="text_25">
      <!-- 0.04 -->
      <g transform="translate(298.526875 120.904128)scale(0.12 -0.12)">
       <use xlink:href="#DejaVuSans-48"/>
       <use x="63.623047" xlink:href="#DejaVuSans-46"/>
       <use x="95.410156" xlink:href="#DejaVuSans-48"/>
       <use x="159.033203" xlink:href="#DejaVuSans-52"/>
      </g>
     </g>
    </g>
    <g id="ytick_11">
     <g id="line2d_43">
      <g>
       <use style="fill:#ffffff;stroke:#000000;stroke-width:2;" x="328.745625" xlink:href="#m4894c10f1a" y="86.793206"/>
      </g>
     </g>
     <g id="line2d_44">
      <g>
       <use style="fill:#ffffff;stroke:#000000;stroke-width:2;" x="557.28" xlink:href="#m7196d5f70c" y="86.793206"/>
      </g>
     </g>
     <g id="text_26">
      <!-- 0.05 -->
      <g transform="translate(298.526875 91.352269)scale(0.12 -0.12)">
       <use xlink:href="#DejaVuSans-48"/>
       <use x="63.623047" xlink:href="#DejaVuSans-46"/>
       <use x="95.410156" xlink:href="#DejaVuSans-48"/>
       <use x="159.033203" xlink:href="#DejaVuSans-53"/>
      </g>
     </g>
    </g>
    <g id="ytick_12">
     <g id="line2d_45">
      <g>
       <use style="fill:#ffffff;stroke:#000000;stroke-width:2;" x="328.745625" xlink:href="#m4894c10f1a" y="57.241348"/>
      </g>
     </g>
     <g id="line2d_46">
      <g>
       <use style="fill:#ffffff;stroke:#000000;stroke-width:2;" x="557.28" xlink:href="#m7196d5f70c" y="57.241348"/>
      </g>
     </g>
     <g id="text_27">
      <!-- 0.06 -->
      <g transform="translate(298.526875 61.80041)scale(0.12 -0.12)">
       <use xlink:href="#DejaVuSans-48"/>
       <use x="63.623047" xlink:href="#DejaVuSans-46"/>
       <use x="95.410156" xlink:href="#DejaVuSans-48"/>
       <use x="159.033203" xlink:href="#DejaVuSans-54"/>
      </g>
     </g>
    </g>
    <g id="ytick_13">
     <g id="line2d_47">
      <g>
       <use style="fill:#ffffff;stroke:#000000;stroke-width:2;" x="328.745625" xlink:href="#m4894c10f1a" y="27.689489"/>
      </g>
     </g>
     <g id="line2d_48">
      <g>
       <use style="fill:#ffffff;stroke:#000000;stroke-width:2;" x="557.28" xlink:href="#m7196d5f70c" y="27.689489"/>
      </g>
     </g>
     <g id="text_28">
      <!-- 0.07 -->
      <g transform="translate(298.526875 32.248551)scale(0.12 -0.12)">
       <defs>
        <path d="M 8.203125 72.90625 
L 55.078125 72.90625 
L 55.078125 68.703125 
L 28.609375 0 
L 18.3125 0 
L 43.21875 64.59375 
L 8.203125 64.59375 
z
" id="DejaVuSans-55"/>
       </defs>
       <use xlink:href="#DejaVuSans-48"/>
       <use x="63.623047" xlink:href="#DejaVuSans-46"/>
       <use x="95.410156" xlink:href="#DejaVuSans-48"/>
       <use x="159.033203" xlink:href="#DejaVuSans-55"/>
      </g>
     </g>
    </g>
   </g>
   <g id="patch_108">
    <path d="M 328.745625 234.5525 
L 328.745625 22.318125 
" style="fill:none;stroke:#000000;stroke-linecap:square;stroke-linejoin:miter;stroke-width:2;"/>
   </g>
   <g id="patch_109">
    <path d="M 557.28 234.5525 
L 557.28 22.318125 
" style="fill:none;stroke:#000000;stroke-linecap:square;stroke-linejoin:miter;stroke-width:2;"/>
   </g>
   <g id="patch_110">
    <path d="M 328.745625 234.5525 
L 557.28 234.5525 
" style="fill:none;stroke:#000000;stroke-linecap:square;stroke-linejoin:miter;stroke-width:2;"/>
   </g>
   <g id="patch_111">
    <path d="M 328.745625 22.318125 
L 557.28 22.318125 
" style="fill:none;stroke:#000000;stroke-linecap:square;stroke-linejoin:miter;stroke-width:2;"/>
   </g>
   <g id="text_29">
    <!-- Chord length dist. (y-axis) -->
    <g transform="translate(365.159063 16.318125)scale(0.12 -0.12)">
     <use xlink:href="#DejaVuSans-67"/>
     <use x="69.824219" xlink:href="#DejaVuSans-104"/>
     <use x="133.203125" xlink:href="#DejaVuSans-111"/>
     <use x="194.384766" xlink:href="#DejaVuSans-114"/>
     <use x="233.748047" xlink:href="#DejaVuSans-100"/>
     <use x="297.224609" xlink:href="#DejaVuSans-32"/>
     <use x="329.011719" xlink:href="#DejaVuSans-108"/>
     <use x="356.794922" xlink:href="#DejaVuSans-101"/>
     <use x="418.318359" xlink:href="#DejaVuSans-110"/>
     <use x="481.697266" xlink:href="#DejaVuSans-103"/>
     <use x="545.173828" xlink:href="#DejaVuSans-116"/>
     <use x="584.382812" xlink:href="#DejaVuSans-104"/>
     <use x="647.761719" xlink:href="#DejaVuSans-32"/>
     <use x="679.548828" xlink:href="#DejaVuSans-100"/>
     <use x="743.025391" xlink:href="#DejaVuSans-105"/>
     <use x="770.808594" xlink:href="#DejaVuSans-115"/>
     <use x="822.908203" xlink:href="#DejaVuSans-116"/>
     <use x="862.117188" xlink:href="#DejaVuSans-46"/>
     <use x="893.904297" xlink:href="#DejaVuSans-32"/>
     <use x="925.691406" xlink:href="#DejaVuSans-40"/>
     <use x="964.705078" xlink:href="#DejaVuSans-121"/>
     <use x="1022.134766" xlink:href="#DejaVuSans-45"/>
     <use x="1058.21875" xlink:href="#DejaVuSans-97"/>
     <use x="1119.498047" xlink:href="#DejaVuSans-120"/>
     <use x="1178.677734" xlink:href="#DejaVuSans-105"/>
     <use x="1206.460938" xlink:href="#DejaVuSans-115"/>
     <use x="1258.560547" xlink:href="#DejaVuSans-41"/>
    </g>
   </g>
  </g>
 </g>
 <defs>
  <clipPath id="p7c1f4b5444">
   <rect height="212.234375" width="228.534375" x="57.0325" y="22.318125"/>
  </clipPath>
  <clipPath id="pa705cdb70b">
   <rect height="212.234375" width="228.534375" x="328.745625" y="22.318125"/>
  </clipPath>
 </defs>
</svg>
