<?xml version="1.0" encoding="utf-8" standalone="no"?>
<!DOCTYPE svg PUBLIC "-//W3C//DTD SVG 1.1//EN"
  "http://www.w3.org/Graphics/SVG/1.1/DTD/svg11.dtd">
<svg xmlns:xlink="http://www.w3.org/1999/xlink" width="348.48pt" height="276.48pt" viewBox="0 0 348.48 276.48" xmlns="http://www.w3.org/2000/svg" version="1.1">
 <metadata>
  <rdf:RDF xmlns:dc="http://purl.org/dc/elements/1.1/" xmlns:cc="http://creativecommons.org/ns#" xmlns:rdf="http://www.w3.org/1999/02/22-rdf-syntax-ns#">
   <cc:Work>
    <dc:type rdf:resource="http://purl.org/dc/dcmitype/StillImage"/>
    <dc:date>2022-03-30T13:46:15.716185</dc:date>
    <dc:format>image/svg+xml</dc:format>
    <dc:creator>
     <cc:Agent>
      <dc:title>Matplotlib v3.5.1, https://matplotlib.org/</dc:title>
     </cc:Agent>
    </dc:creator>
   </cc:Work>
  </rdf:RDF>
 </metadata>
 <defs>
  <style type="text/css">*{stroke-linejoin: round; stroke-linecap: butt}</style>
 </defs>
 <g id="figure_1">
  <g id="patch_1">
   <path d="M 0 276.48 
L 348.48 276.48 
L 348.48 0 
L 0 0 
L 0 276.48 
z
" style="fill: none"/>
  </g>
  <g id="axes_1">
   <g id="patch_2">
    <path d="M 49.3975 234.5525 
L 341.28 234.5525 
L 341.28 11.759062 
L 49.3975 11.759062 
z
" style="fill: #ffffff"/>
   </g>
   <g id="matplotlib.axis_1">
    <g id="xtick_1">
     <g id="line2d_1">
      <defs>
       <path id="md9b4da6efc" d="M 0 0 
L 0 -6 
" style="stroke: #000000; stroke-width: 2"/>
      </defs>
      <g>
       <use xlink:href="#md9b4da6efc" x="62.664886" y="234.5525" style="fill: #ffffff; stroke: #000000; stroke-width: 2"/>
      </g>
     </g>
     <g id="line2d_2">
      <defs>
       <path id="m9ad300581c" d="M 0 0 
L 0 6 
" style="stroke: #000000; stroke-width: 2"/>
      </defs>
      <g>
       <use xlink:href="#m9ad300581c" x="62.664886" y="11.759062" style="fill: #ffffff; stroke: #000000; stroke-width: 2"/>
      </g>
     </g>
     <g id="text_1">
      <!-- 0 -->
      <g transform="translate(58.847386 247.170625)scale(0.12 -0.12)">
       <defs>
        <path id="DejaVuSans-30" d="M 2034 4250 
Q 1547 4250 1301 3770 
Q 1056 3291 1056 2328 
Q 1056 1369 1301 889 
Q 1547 409 2034 409 
Q 2525 409 2770 889 
Q 3016 1369 3016 2328 
Q 3016 3291 2770 3770 
Q 2525 4250 2034 4250 
z
M 2034 4750 
Q 2819 4750 3233 4129 
Q 3647 3509 3647 2328 
Q 3647 1150 3233 529 
Q 2819 -91 2034 -91 
Q 1250 -91 836 529 
Q 422 1150 422 2328 
Q 422 3509 836 4129 
Q 1250 4750 2034 4750 
z
" transform="scale(0.015625)"/>
       </defs>
       <use xlink:href="#DejaVuSans-30"/>
      </g>
     </g>
    </g>
    <g id="xtick_2">
     <g id="line2d_3">
      <g>
       <use xlink:href="#md9b4da6efc" x="118.882625" y="234.5525" style="fill: #ffffff; stroke: #000000; stroke-width: 2"/>
      </g>
     </g>
     <g id="line2d_4">
      <g>
       <use xlink:href="#m9ad300581c" x="118.882625" y="11.759062" style="fill: #ffffff; stroke: #000000; stroke-width: 2"/>
      </g>
     </g>
     <g id="text_2">
      <!-- 500 -->
      <g transform="translate(107.430125 247.170625)scale(0.12 -0.12)">
       <defs>
        <path id="DejaVuSans-35" d="M 691 4666 
L 3169 4666 
L 3169 4134 
L 1269 4134 
L 1269 2991 
Q 1406 3038 1543 3061 
Q 1681 3084 1819 3084 
Q 2600 3084 3056 2656 
Q 3513 2228 3513 1497 
Q 3513 744 3044 326 
Q 2575 -91 1722 -91 
Q 1428 -91 1123 -41 
Q 819 9 494 109 
L 494 744 
Q 775 591 1075 516 
Q 1375 441 1709 441 
Q 2250 441 2565 725 
Q 2881 1009 2881 1497 
Q 2881 1984 2565 2268 
Q 2250 2553 1709 2553 
Q 1456 2553 1204 2497 
Q 953 2441 691 2322 
L 691 4666 
z
" transform="scale(0.015625)"/>
       </defs>
       <use xlink:href="#DejaVuSans-35"/>
       <use xlink:href="#DejaVuSans-30" x="63.623047"/>
       <use xlink:href="#DejaVuSans-30" x="127.246094"/>
      </g>
     </g>
    </g>
    <g id="xtick_3">
     <g id="line2d_5">
      <g>
       <use xlink:href="#md9b4da6efc" x="175.100364" y="234.5525" style="fill: #ffffff; stroke: #000000; stroke-width: 2"/>
      </g>
     </g>
     <g id="line2d_6">
      <g>
       <use xlink:href="#m9ad300581c" x="175.100364" y="11.759062" style="fill: #ffffff; stroke: #000000; stroke-width: 2"/>
      </g>
     </g>
     <g id="text_3">
      <!-- 1000 -->
      <g transform="translate(159.830364 247.170625)scale(0.12 -0.12)">
       <defs>
        <path id="DejaVuSans-31" d="M 794 531 
L 1825 531 
L 1825 4091 
L 703 3866 
L 703 4441 
L 1819 4666 
L 2450 4666 
L 2450 531 
L 3481 531 
L 3481 0 
L 794 0 
L 794 531 
z
" transform="scale(0.015625)"/>
       </defs>
       <use xlink:href="#DejaVuSans-31"/>
       <use xlink:href="#DejaVuSans-30" x="63.623047"/>
       <use xlink:href="#DejaVuSans-30" x="127.246094"/>
       <use xlink:href="#DejaVuSans-30" x="190.869141"/>
      </g>
     </g>
    </g>
    <g id="xtick_4">
     <g id="line2d_7">
      <g>
       <use xlink:href="#md9b4da6efc" x="231.318103" y="234.5525" style="fill: #ffffff; stroke: #000000; stroke-width: 2"/>
      </g>
     </g>
     <g id="line2d_8">
      <g>
       <use xlink:href="#m9ad300581c" x="231.318103" y="11.759062" style="fill: #ffffff; stroke: #000000; stroke-width: 2"/>
      </g>
     </g>
     <g id="text_4">
      <!-- 1500 -->
      <g transform="translate(216.048103 247.170625)scale(0.12 -0.12)">
       <use xlink:href="#DejaVuSans-31"/>
       <use xlink:href="#DejaVuSans-35" x="63.623047"/>
       <use xlink:href="#DejaVuSans-30" x="127.246094"/>
       <use xlink:href="#DejaVuSans-30" x="190.869141"/>
      </g>
     </g>
    </g>
    <g id="xtick_5">
     <g id="line2d_9">
      <g>
       <use xlink:href="#md9b4da6efc" x="287.535842" y="234.5525" style="fill: #ffffff; stroke: #000000; stroke-width: 2"/>
      </g>
     </g>
     <g id="line2d_10">
      <g>
       <use xlink:href="#m9ad300581c" x="287.535842" y="11.759062" style="fill: #ffffff; stroke: #000000; stroke-width: 2"/>
      </g>
     </g>
     <g id="text_5">
      <!-- 2000 -->
      <g transform="translate(272.265842 247.170625)scale(0.12 -0.12)">
       <defs>
        <path id="DejaVuSans-32" d="M 1228 531 
L 3431 531 
L 3431 0 
L 469 0 
L 469 531 
Q 828 903 1448 1529 
Q 2069 2156 2228 2338 
Q 2531 2678 2651 2914 
Q 2772 3150 2772 3378 
Q 2772 3750 2511 3984 
Q 2250 4219 1831 4219 
Q 1534 4219 1204 4116 
Q 875 4013 500 3803 
L 500 4441 
Q 881 4594 1212 4672 
Q 1544 4750 1819 4750 
Q 2544 4750 2975 4387 
Q 3406 4025 3406 3419 
Q 3406 3131 3298 2873 
Q 3191 2616 2906 2266 
Q 2828 2175 2409 1742 
Q 1991 1309 1228 531 
z
" transform="scale(0.015625)"/>
       </defs>
       <use xlink:href="#DejaVuSans-32"/>
       <use xlink:href="#DejaVuSans-30" x="63.623047"/>
       <use xlink:href="#DejaVuSans-30" x="127.246094"/>
       <use xlink:href="#DejaVuSans-30" x="190.869141"/>
      </g>
     </g>
    </g>
    <g id="text_6">
     <!-- Position of slice along given axis -->
     <g transform="translate(98.045 266.784375)scale(0.12 -0.12)">
      <defs>
       <path id="DejaVuSans-50" d="M 1259 4147 
L 1259 2394 
L 2053 2394 
Q 2494 2394 2734 2622 
Q 2975 2850 2975 3272 
Q 2975 3691 2734 3919 
Q 2494 4147 2053 4147 
L 1259 4147 
z
M 628 4666 
L 2053 4666 
Q 2838 4666 3239 4311 
Q 3641 3956 3641 3272 
Q 3641 2581 3239 2228 
Q 2838 1875 2053 1875 
L 1259 1875 
L 1259 0 
L 628 0 
L 628 4666 
z
" transform="scale(0.015625)"/>
       <path id="DejaVuSans-6f" d="M 1959 3097 
Q 1497 3097 1228 2736 
Q 959 2375 959 1747 
Q 959 1119 1226 758 
Q 1494 397 1959 397 
Q 2419 397 2687 759 
Q 2956 1122 2956 1747 
Q 2956 2369 2687 2733 
Q 2419 3097 1959 3097 
z
M 1959 3584 
Q 2709 3584 3137 3096 
Q 3566 2609 3566 1747 
Q 3566 888 3137 398 
Q 2709 -91 1959 -91 
Q 1206 -91 779 398 
Q 353 888 353 1747 
Q 353 2609 779 3096 
Q 1206 3584 1959 3584 
z
" transform="scale(0.015625)"/>
       <path id="DejaVuSans-73" d="M 2834 3397 
L 2834 2853 
Q 2591 2978 2328 3040 
Q 2066 3103 1784 3103 
Q 1356 3103 1142 2972 
Q 928 2841 928 2578 
Q 928 2378 1081 2264 
Q 1234 2150 1697 2047 
L 1894 2003 
Q 2506 1872 2764 1633 
Q 3022 1394 3022 966 
Q 3022 478 2636 193 
Q 2250 -91 1575 -91 
Q 1294 -91 989 -36 
Q 684 19 347 128 
L 347 722 
Q 666 556 975 473 
Q 1284 391 1588 391 
Q 1994 391 2212 530 
Q 2431 669 2431 922 
Q 2431 1156 2273 1281 
Q 2116 1406 1581 1522 
L 1381 1569 
Q 847 1681 609 1914 
Q 372 2147 372 2553 
Q 372 3047 722 3315 
Q 1072 3584 1716 3584 
Q 2034 3584 2315 3537 
Q 2597 3491 2834 3397 
z
" transform="scale(0.015625)"/>
       <path id="DejaVuSans-69" d="M 603 3500 
L 1178 3500 
L 1178 0 
L 603 0 
L 603 3500 
z
M 603 4863 
L 1178 4863 
L 1178 4134 
L 603 4134 
L 603 4863 
z
" transform="scale(0.015625)"/>
       <path id="DejaVuSans-74" d="M 1172 4494 
L 1172 3500 
L 2356 3500 
L 2356 3053 
L 1172 3053 
L 1172 1153 
Q 1172 725 1289 603 
Q 1406 481 1766 481 
L 2356 481 
L 2356 0 
L 1766 0 
Q 1100 0 847 248 
Q 594 497 594 1153 
L 594 3053 
L 172 3053 
L 172 3500 
L 594 3500 
L 594 4494 
L 1172 4494 
z
" transform="scale(0.015625)"/>
       <path id="DejaVuSans-6e" d="M 3513 2113 
L 3513 0 
L 2938 0 
L 2938 2094 
Q 2938 2591 2744 2837 
Q 2550 3084 2163 3084 
Q 1697 3084 1428 2787 
Q 1159 2491 1159 1978 
L 1159 0 
L 581 0 
L 581 3500 
L 1159 3500 
L 1159 2956 
Q 1366 3272 1645 3428 
Q 1925 3584 2291 3584 
Q 2894 3584 3203 3211 
Q 3513 2838 3513 2113 
z
" transform="scale(0.015625)"/>
       <path id="DejaVuSans-20" transform="scale(0.015625)"/>
       <path id="DejaVuSans-66" d="M 2375 4863 
L 2375 4384 
L 1825 4384 
Q 1516 4384 1395 4259 
Q 1275 4134 1275 3809 
L 1275 3500 
L 2222 3500 
L 2222 3053 
L 1275 3053 
L 1275 0 
L 697 0 
L 697 3053 
L 147 3053 
L 147 3500 
L 697 3500 
L 697 3744 
Q 697 4328 969 4595 
Q 1241 4863 1831 4863 
L 2375 4863 
z
" transform="scale(0.015625)"/>
       <path id="DejaVuSans-6c" d="M 603 4863 
L 1178 4863 
L 1178 0 
L 603 0 
L 603 4863 
z
" transform="scale(0.015625)"/>
       <path id="DejaVuSans-63" d="M 3122 3366 
L 3122 2828 
Q 2878 2963 2633 3030 
Q 2388 3097 2138 3097 
Q 1578 3097 1268 2742 
Q 959 2388 959 1747 
Q 959 1106 1268 751 
Q 1578 397 2138 397 
Q 2388 397 2633 464 
Q 2878 531 3122 666 
L 3122 134 
Q 2881 22 2623 -34 
Q 2366 -91 2075 -91 
Q 1284 -91 818 406 
Q 353 903 353 1747 
Q 353 2603 823 3093 
Q 1294 3584 2113 3584 
Q 2378 3584 2631 3529 
Q 2884 3475 3122 3366 
z
" transform="scale(0.015625)"/>
       <path id="DejaVuSans-65" d="M 3597 1894 
L 3597 1613 
L 953 1613 
Q 991 1019 1311 708 
Q 1631 397 2203 397 
Q 2534 397 2845 478 
Q 3156 559 3463 722 
L 3463 178 
Q 3153 47 2828 -22 
Q 2503 -91 2169 -91 
Q 1331 -91 842 396 
Q 353 884 353 1716 
Q 353 2575 817 3079 
Q 1281 3584 2069 3584 
Q 2775 3584 3186 3129 
Q 3597 2675 3597 1894 
z
M 3022 2063 
Q 3016 2534 2758 2815 
Q 2500 3097 2075 3097 
Q 1594 3097 1305 2825 
Q 1016 2553 972 2059 
L 3022 2063 
z
" transform="scale(0.015625)"/>
       <path id="DejaVuSans-61" d="M 2194 1759 
Q 1497 1759 1228 1600 
Q 959 1441 959 1056 
Q 959 750 1161 570 
Q 1363 391 1709 391 
Q 2188 391 2477 730 
Q 2766 1069 2766 1631 
L 2766 1759 
L 2194 1759 
z
M 3341 1997 
L 3341 0 
L 2766 0 
L 2766 531 
Q 2569 213 2275 61 
Q 1981 -91 1556 -91 
Q 1019 -91 701 211 
Q 384 513 384 1019 
Q 384 1609 779 1909 
Q 1175 2209 1959 2209 
L 2766 2209 
L 2766 2266 
Q 2766 2663 2505 2880 
Q 2244 3097 1772 3097 
Q 1472 3097 1187 3025 
Q 903 2953 641 2809 
L 641 3341 
Q 956 3463 1253 3523 
Q 1550 3584 1831 3584 
Q 2591 3584 2966 3190 
Q 3341 2797 3341 1997 
z
" transform="scale(0.015625)"/>
       <path id="DejaVuSans-67" d="M 2906 1791 
Q 2906 2416 2648 2759 
Q 2391 3103 1925 3103 
Q 1463 3103 1205 2759 
Q 947 2416 947 1791 
Q 947 1169 1205 825 
Q 1463 481 1925 481 
Q 2391 481 2648 825 
Q 2906 1169 2906 1791 
z
M 3481 434 
Q 3481 -459 3084 -895 
Q 2688 -1331 1869 -1331 
Q 1566 -1331 1297 -1286 
Q 1028 -1241 775 -1147 
L 775 -588 
Q 1028 -725 1275 -790 
Q 1522 -856 1778 -856 
Q 2344 -856 2625 -561 
Q 2906 -266 2906 331 
L 2906 616 
Q 2728 306 2450 153 
Q 2172 0 1784 0 
Q 1141 0 747 490 
Q 353 981 353 1791 
Q 353 2603 747 3093 
Q 1141 3584 1784 3584 
Q 2172 3584 2450 3431 
Q 2728 3278 2906 2969 
L 2906 3500 
L 3481 3500 
L 3481 434 
z
" transform="scale(0.015625)"/>
       <path id="DejaVuSans-76" d="M 191 3500 
L 800 3500 
L 1894 563 
L 2988 3500 
L 3597 3500 
L 2284 0 
L 1503 0 
L 191 3500 
z
" transform="scale(0.015625)"/>
       <path id="DejaVuSans-78" d="M 3513 3500 
L 2247 1797 
L 3578 0 
L 2900 0 
L 1881 1375 
L 863 0 
L 184 0 
L 1544 1831 
L 300 3500 
L 978 3500 
L 1906 2253 
L 2834 3500 
L 3513 3500 
z
" transform="scale(0.015625)"/>
      </defs>
      <use xlink:href="#DejaVuSans-50"/>
      <use xlink:href="#DejaVuSans-6f" x="56.677734"/>
      <use xlink:href="#DejaVuSans-73" x="117.859375"/>
      <use xlink:href="#DejaVuSans-69" x="169.958984"/>
      <use xlink:href="#DejaVuSans-74" x="197.742188"/>
      <use xlink:href="#DejaVuSans-69" x="236.951172"/>
      <use xlink:href="#DejaVuSans-6f" x="264.734375"/>
      <use xlink:href="#DejaVuSans-6e" x="325.916016"/>
      <use xlink:href="#DejaVuSans-20" x="389.294922"/>
      <use xlink:href="#DejaVuSans-6f" x="421.082031"/>
      <use xlink:href="#DejaVuSans-66" x="482.263672"/>
      <use xlink:href="#DejaVuSans-20" x="517.46875"/>
      <use xlink:href="#DejaVuSans-73" x="549.255859"/>
      <use xlink:href="#DejaVuSans-6c" x="601.355469"/>
      <use xlink:href="#DejaVuSans-69" x="629.138672"/>
      <use xlink:href="#DejaVuSans-63" x="656.921875"/>
      <use xlink:href="#DejaVuSans-65" x="711.902344"/>
      <use xlink:href="#DejaVuSans-20" x="773.425781"/>
      <use xlink:href="#DejaVuSans-61" x="805.212891"/>
      <use xlink:href="#DejaVuSans-6c" x="866.492188"/>
      <use xlink:href="#DejaVuSans-6f" x="894.275391"/>
      <use xlink:href="#DejaVuSans-6e" x="955.457031"/>
      <use xlink:href="#DejaVuSans-67" x="1018.835938"/>
      <use xlink:href="#DejaVuSans-20" x="1082.3125"/>
      <use xlink:href="#DejaVuSans-67" x="1114.099609"/>
      <use xlink:href="#DejaVuSans-69" x="1177.576172"/>
      <use xlink:href="#DejaVuSans-76" x="1205.359375"/>
      <use xlink:href="#DejaVuSans-65" x="1264.539062"/>
      <use xlink:href="#DejaVuSans-6e" x="1326.0625"/>
      <use xlink:href="#DejaVuSans-20" x="1389.441406"/>
      <use xlink:href="#DejaVuSans-61" x="1421.228516"/>
      <use xlink:href="#DejaVuSans-78" x="1482.507812"/>
      <use xlink:href="#DejaVuSans-69" x="1541.6875"/>
      <use xlink:href="#DejaVuSans-73" x="1569.470703"/>
     </g>
    </g>
   </g>
   <g id="matplotlib.axis_2">
    <g id="ytick_1">
     <g id="line2d_11">
      <defs>
       <path id="m368183bf0c" d="M 0 0 
L 6 0 
" style="stroke: #000000; stroke-width: 2"/>
      </defs>
      <g>
       <use xlink:href="#m368183bf0c" x="49.3975" y="234.5525" style="fill: #ffffff; stroke: #000000; stroke-width: 2"/>
      </g>
     </g>
     <g id="line2d_12">
      <defs>
       <path id="mdbfd825ef0" d="M 0 0 
L -6 0 
" style="stroke: #000000; stroke-width: 2"/>
      </defs>
      <g>
       <use xlink:href="#mdbfd825ef0" x="341.28" y="234.5525" style="fill: #ffffff; stroke: #000000; stroke-width: 2"/>
      </g>
     </g>
     <g id="text_7">
      <!-- 0.0 -->
      <g transform="translate(26.81375 239.111562)scale(0.12 -0.12)">
       <defs>
        <path id="DejaVuSans-2e" d="M 684 794 
L 1344 794 
L 1344 0 
L 684 0 
L 684 794 
z
" transform="scale(0.015625)"/>
       </defs>
       <use xlink:href="#DejaVuSans-30"/>
       <use xlink:href="#DejaVuSans-2e" x="63.623047"/>
       <use xlink:href="#DejaVuSans-30" x="95.410156"/>
      </g>
     </g>
    </g>
    <g id="ytick_2">
     <g id="line2d_13">
      <g>
       <use xlink:href="#m368183bf0c" x="49.3975" y="189.993812" style="fill: #ffffff; stroke: #000000; stroke-width: 2"/>
      </g>
     </g>
     <g id="line2d_14">
      <g>
       <use xlink:href="#mdbfd825ef0" x="341.28" y="189.993812" style="fill: #ffffff; stroke: #000000; stroke-width: 2"/>
      </g>
     </g>
     <g id="text_8">
      <!-- 0.2 -->
      <g transform="translate(26.81375 194.552875)scale(0.12 -0.12)">
       <use xlink:href="#DejaVuSans-30"/>
       <use xlink:href="#DejaVuSans-2e" x="63.623047"/>
       <use xlink:href="#DejaVuSans-32" x="95.410156"/>
      </g>
     </g>
    </g>
    <g id="ytick_3">
     <g id="line2d_15">
      <g>
       <use xlink:href="#m368183bf0c" x="49.3975" y="145.435125" style="fill: #ffffff; stroke: #000000; stroke-width: 2"/>
      </g>
     </g>
     <g id="line2d_16">
      <g>
       <use xlink:href="#mdbfd825ef0" x="341.28" y="145.435125" style="fill: #ffffff; stroke: #000000; stroke-width: 2"/>
      </g>
     </g>
     <g id="text_9">
      <!-- 0.4 -->
      <g transform="translate(26.81375 149.994187)scale(0.12 -0.12)">
       <defs>
        <path id="DejaVuSans-34" d="M 2419 4116 
L 825 1625 
L 2419 1625 
L 2419 4116 
z
M 2253 4666 
L 3047 4666 
L 3047 1625 
L 3713 1625 
L 3713 1100 
L 3047 1100 
L 3047 0 
L 2419 0 
L 2419 1100 
L 313 1100 
L 313 1709 
L 2253 4666 
z
" transform="scale(0.015625)"/>
       </defs>
       <use xlink:href="#DejaVuSans-30"/>
       <use xlink:href="#DejaVuSans-2e" x="63.623047"/>
       <use xlink:href="#DejaVuSans-34" x="95.410156"/>
      </g>
     </g>
    </g>
    <g id="ytick_4">
     <g id="line2d_17">
      <g>
       <use xlink:href="#m368183bf0c" x="49.3975" y="100.876437" style="fill: #ffffff; stroke: #000000; stroke-width: 2"/>
      </g>
     </g>
     <g id="line2d_18">
      <g>
       <use xlink:href="#mdbfd825ef0" x="341.28" y="100.876437" style="fill: #ffffff; stroke: #000000; stroke-width: 2"/>
      </g>
     </g>
     <g id="text_10">
      <!-- 0.6 -->
      <g transform="translate(26.81375 105.4355)scale(0.12 -0.12)">
       <defs>
        <path id="DejaVuSans-36" d="M 2113 2584 
Q 1688 2584 1439 2293 
Q 1191 2003 1191 1497 
Q 1191 994 1439 701 
Q 1688 409 2113 409 
Q 2538 409 2786 701 
Q 3034 994 3034 1497 
Q 3034 2003 2786 2293 
Q 2538 2584 2113 2584 
z
M 3366 4563 
L 3366 3988 
Q 3128 4100 2886 4159 
Q 2644 4219 2406 4219 
Q 1781 4219 1451 3797 
Q 1122 3375 1075 2522 
Q 1259 2794 1537 2939 
Q 1816 3084 2150 3084 
Q 2853 3084 3261 2657 
Q 3669 2231 3669 1497 
Q 3669 778 3244 343 
Q 2819 -91 2113 -91 
Q 1303 -91 875 529 
Q 447 1150 447 2328 
Q 447 3434 972 4092 
Q 1497 4750 2381 4750 
Q 2619 4750 2861 4703 
Q 3103 4656 3366 4563 
z
" transform="scale(0.015625)"/>
       </defs>
       <use xlink:href="#DejaVuSans-30"/>
       <use xlink:href="#DejaVuSans-2e" x="63.623047"/>
       <use xlink:href="#DejaVuSans-36" x="95.410156"/>
      </g>
     </g>
    </g>
    <g id="ytick_5">
     <g id="line2d_19">
      <g>
       <use xlink:href="#m368183bf0c" x="49.3975" y="56.31775" style="fill: #ffffff; stroke: #000000; stroke-width: 2"/>
      </g>
     </g>
     <g id="line2d_20">
      <g>
       <use xlink:href="#mdbfd825ef0" x="341.28" y="56.31775" style="fill: #ffffff; stroke: #000000; stroke-width: 2"/>
      </g>
     </g>
     <g id="text_11">
      <!-- 0.8 -->
      <g transform="translate(26.81375 60.876812)scale(0.12 -0.12)">
       <defs>
        <path id="DejaVuSans-38" d="M 2034 2216 
Q 1584 2216 1326 1975 
Q 1069 1734 1069 1313 
Q 1069 891 1326 650 
Q 1584 409 2034 409 
Q 2484 409 2743 651 
Q 3003 894 3003 1313 
Q 3003 1734 2745 1975 
Q 2488 2216 2034 2216 
z
M 1403 2484 
Q 997 2584 770 2862 
Q 544 3141 544 3541 
Q 544 4100 942 4425 
Q 1341 4750 2034 4750 
Q 2731 4750 3128 4425 
Q 3525 4100 3525 3541 
Q 3525 3141 3298 2862 
Q 3072 2584 2669 2484 
Q 3125 2378 3379 2068 
Q 3634 1759 3634 1313 
Q 3634 634 3220 271 
Q 2806 -91 2034 -91 
Q 1263 -91 848 271 
Q 434 634 434 1313 
Q 434 1759 690 2068 
Q 947 2378 1403 2484 
z
M 1172 3481 
Q 1172 3119 1398 2916 
Q 1625 2713 2034 2713 
Q 2441 2713 2670 2916 
Q 2900 3119 2900 3481 
Q 2900 3844 2670 4047 
Q 2441 4250 2034 4250 
Q 1625 4250 1398 4047 
Q 1172 3844 1172 3481 
z
" transform="scale(0.015625)"/>
       </defs>
       <use xlink:href="#DejaVuSans-30"/>
       <use xlink:href="#DejaVuSans-2e" x="63.623047"/>
       <use xlink:href="#DejaVuSans-38" x="95.410156"/>
      </g>
     </g>
    </g>
    <g id="ytick_6">
     <g id="line2d_21">
      <g>
       <use xlink:href="#m368183bf0c" x="49.3975" y="11.759062" style="fill: #ffffff; stroke: #000000; stroke-width: 2"/>
      </g>
     </g>
     <g id="line2d_22">
      <g>
       <use xlink:href="#mdbfd825ef0" x="341.28" y="11.759062" style="fill: #ffffff; stroke: #000000; stroke-width: 2"/>
      </g>
     </g>
     <g id="text_12">
      <!-- 1.0 -->
      <g transform="translate(26.81375 16.318125)scale(0.12 -0.12)">
       <use xlink:href="#DejaVuSans-31"/>
       <use xlink:href="#DejaVuSans-2e" x="63.623047"/>
       <use xlink:href="#DejaVuSans-30" x="95.410156"/>
      </g>
     </g>
    </g>
    <g id="text_13">
     <!-- Porosity of slice -->
     <g transform="translate(16.318125 169.973594)rotate(-90)scale(0.12 -0.12)">
      <defs>
       <path id="DejaVuSans-72" d="M 2631 2963 
Q 2534 3019 2420 3045 
Q 2306 3072 2169 3072 
Q 1681 3072 1420 2755 
Q 1159 2438 1159 1844 
L 1159 0 
L 581 0 
L 581 3500 
L 1159 3500 
L 1159 2956 
Q 1341 3275 1631 3429 
Q 1922 3584 2338 3584 
Q 2397 3584 2469 3576 
Q 2541 3569 2628 3553 
L 2631 2963 
z
" transform="scale(0.015625)"/>
       <path id="DejaVuSans-79" d="M 2059 -325 
Q 1816 -950 1584 -1140 
Q 1353 -1331 966 -1331 
L 506 -1331 
L 506 -850 
L 844 -850 
Q 1081 -850 1212 -737 
Q 1344 -625 1503 -206 
L 1606 56 
L 191 3500 
L 800 3500 
L 1894 763 
L 2988 3500 
L 3597 3500 
L 2059 -325 
z
" transform="scale(0.015625)"/>
      </defs>
      <use xlink:href="#DejaVuSans-50"/>
      <use xlink:href="#DejaVuSans-6f" x="56.677734"/>
      <use xlink:href="#DejaVuSans-72" x="117.859375"/>
      <use xlink:href="#DejaVuSans-6f" x="156.722656"/>
      <use xlink:href="#DejaVuSans-73" x="217.904297"/>
      <use xlink:href="#DejaVuSans-69" x="270.003906"/>
      <use xlink:href="#DejaVuSans-74" x="297.787109"/>
      <use xlink:href="#DejaVuSans-79" x="336.996094"/>
      <use xlink:href="#DejaVuSans-20" x="396.175781"/>
      <use xlink:href="#DejaVuSans-6f" x="427.962891"/>
      <use xlink:href="#DejaVuSans-66" x="489.144531"/>
      <use xlink:href="#DejaVuSans-20" x="524.349609"/>
      <use xlink:href="#DejaVuSans-73" x="556.136719"/>
      <use xlink:href="#DejaVuSans-6c" x="608.236328"/>
      <use xlink:href="#DejaVuSans-69" x="636.019531"/>
      <use xlink:href="#DejaVuSans-63" x="663.802734"/>
      <use xlink:href="#DejaVuSans-65" x="718.783203"/>
     </g>
    </g>
   </g>
   <g id="line2d_23">
    <path d="M 62.664886 120.862865 
L 63.331589 120.803454 
L 64.664995 120.006967 
L 67.331806 117.87372 
L 68.665212 116.731904 
L 69.998618 115.942844 
L 72.665429 113.538531 
L 73.998835 113.183918 
L 75.33224 113.839302 
L 75.998943 114.357297 
L 77.999052 116.479405 
L 78.665754 116.434846 
L 79.99916 117.584089 
L 81.999269 119.656068 
L 82.665971 120.747756 
L 85.332783 127.791741 
L 85.999485 128.84444 
L 86.666188 129.557379 
L 87.332891 129.722618 
L 88.666297 129.264035 
L 89.333 129.497968 
L 89.999702 130.09394 
L 90.666405 130.378002 
L 91.333108 130.216477 
L 91.999811 130.361292 
L 92.666514 130.023389 
L 93.333217 129.303024 
L 93.999919 129.026388 
L 94.666622 128.467548 
L 95.333325 127.684058 
L 98.000136 123.449126 
L 98.666839 122.026961 
L 100.000245 120.278033 
L 100.666948 119.576233 
L 101.333651 119.383146 
L 102.000353 119.060095 
L 104.000462 116.926848 
L 104.667165 116.741187 
L 108.667382 116.655783 
L 109.334085 117.025248 
L 111.334193 117.30374 
L 112.000896 116.962124 
L 113.334302 117.257325 
L 114.001004 116.787602 
L 114.667707 115.981833 
L 115.33441 115.909425 
L 116.667816 117.058668 
L 118.667924 120.72362 
L 119.334627 122.201483 
L 120.668033 123.916992 
L 122.001438 126.553381 
L 122.668141 127.385143 
L 123.334844 127.775032 
L 124.001547 128.772032 
L 124.66825 129.41442 
L 125.334953 129.837728 
L 126.001655 129.960264 
L 126.668358 130.223903 
L 127.335061 130.030815 
L 128.001764 129.674346 
L 128.668467 129.581515 
L 129.33517 129.631644 
L 130.668575 130.866291 
L 132.001981 132.459264 
L 132.668684 133.016247 
L 134.002089 133.643782 
L 134.668792 133.667918 
L 135.335495 133.274317 
L 136.002198 132.449981 
L 136.668901 131.861435 
L 137.335604 131.081658 
L 138.002306 130.56552 
L 140.002415 130.084657 
L 140.669118 129.847011 
L 141.335821 129.258465 
L 142.002523 129.145211 
L 144.669335 127.479831 
L 145.336038 127.219905 
L 146.00274 127.130787 
L 147.336146 126.005681 
L 148.669552 124.31802 
L 149.336255 123.9894 
L 150.66966 124.111936 
L 151.336363 123.965264 
L 152.669769 124.969691 
L 154.003174 126.646212 
L 154.669877 127.676631 
L 155.33658 128.28003 
L 156.003283 128.393284 
L 156.669986 128.786885 
L 157.336689 128.632787 
L 159.336797 128.638356 
L 160.0035 128.818448 
L 160.670203 129.282601 
L 161.336906 129.934272 
L 162.003608 130.236899 
L 162.670311 131.514248 
L 163.337014 132.262463 
L 164.67042 131.805736 
L 165.337123 131.807593 
L 166.670528 132.212334 
L 168.003934 132.93827 
L 168.670637 132.574374 
L 170.004042 132.47783 
L 170.670745 132.37386 
L 171.337448 132.854722 
L 172.004151 132.448124 
L 173.337557 130.832872 
L 175.337665 127.279316 
L 176.004368 126.594227 
L 176.671071 125.615792 
L 178.004476 122.968263 
L 178.671179 121.601797 
L 180.004585 118.371292 
L 180.671288 117.717765 
L 181.337991 117.31488 
L 182.671396 115.358011 
L 183.338099 114.349871 
L 184.671505 113.202484 
L 185.338208 112.851585 
L 186.00491 113.13936 
L 188.671722 116.210196 
L 189.338425 116.843301 
L 190.005127 118.050098 
L 190.67183 118.488259 
L 192.671939 120.764465 
L 193.338642 121.356724 
L 194.672047 122.045527 
L 195.33875 122.190343 
L 195.33875 122.190343 
" clip-path="url(#p4f36226d76)" style="fill: none; stroke: #0000ff; stroke-opacity: 0.5; stroke-width: 2; stroke-linecap: square"/>
   </g>
   <g id="line2d_24">
    <path d="M 62.664886 128.731187 
L 65.992826 128.586371 
L 66.658414 128.263321 
L 67.324002 128.218762 
L 67.98959 127.870647 
L 68.655178 127.294169 
L 69.986354 126.75668 
L 70.651942 126.848582 
L 71.983118 125.982473 
L 73.314293 125.976903 
L 73.979881 125.308523 
L 76.642233 120.936202 
L 77.307821 120.48783 
L 77.973409 120.710623 
L 78.638997 120.593657 
L 79.304585 120.769107 
L 79.970173 121.259252 
L 80.635761 122.910708 
L 81.301349 125.041171 
L 81.966937 126.759465 
L 83.298113 130.878359 
L 84.629289 134.047595 
L 85.960464 135.142068 
L 86.626052 135.582085 
L 87.29164 135.857792 
L 87.957228 135.685127 
L 89.288404 137.183413 
L 90.61958 138.375358 
L 91.285168 138.614861 
L 91.950756 138.422702 
L 92.616344 137.885212 
L 93.281932 137.921416 
L 94.613108 139.230328 
L 95.944284 140.837225 
L 97.275459 142.341081 
L 97.941047 142.914774 
L 98.606635 143.326942 
L 99.272223 143.446694 
L 100.603399 143.928484 
L 101.268987 144.014817 
L 101.934575 144.301663 
L 102.600163 144.438124 
L 103.931339 143.084654 
L 104.596927 142.134997 
L 105.262515 140.739753 
L 107.259279 133.799738 
L 109.92163 127.029602 
L 110.587218 125.450554 
L 111.252806 124.796098 
L 112.583982 124.687486 
L 113.24957 124.926989 
L 113.915158 125.612079 
L 114.580746 125.960194 
L 115.246334 125.840442 
L 117.243098 124.244684 
L 117.908686 123.403639 
L 119.90545 123.86872 
L 121.236625 123.105653 
L 122.567801 123.010966 
L 123.233389 123.361865 
L 125.230153 126.316663 
L 125.895741 127.678488 
L 126.561329 128.27446 
L 128.558093 131.875359 
L 129.223681 133.429344 
L 129.889269 134.663062 
L 130.554857 135.389926 
L 131.220445 136.459334 
L 131.886033 136.804664 
L 132.551621 136.882642 
L 133.217208 136.821374 
L 133.882796 136.453765 
L 135.87956 133.838727 
L 136.545148 133.55745 
L 137.876324 134.379001 
L 139.2075 134.860791 
L 139.873088 134.482043 
L 141.204264 133.966833 
L 141.869852 133.390355 
L 143.201028 130.744683 
L 143.866616 129.207408 
L 146.528967 121.618507 
L 147.194555 120.170349 
L 147.860143 119.081446 
L 148.525731 118.708267 
L 149.191319 118.685988 
L 149.856907 118.332303 
L 150.522495 118.229261 
L 151.188083 117.78089 
L 151.853671 117.786459 
L 152.519259 118.000898 
L 153.184847 118.571806 
L 154.516023 119.404497 
L 155.847199 120.526819 
L 156.512787 121.184059 
L 157.843962 122.863365 
L 159.175138 123.977332 
L 159.840726 124.726475 
L 160.506314 125.141428 
L 162.503078 123.063879 
L 163.168666 122.072448 
L 164.499842 118.198627 
L 165.16543 115.876006 
L 166.496606 111.879648 
L 167.162194 109.877292 
L 169.158958 106.220695 
L 170.490133 105.454843 
L 171.155721 104.920138 
L 171.821309 104.198845 
L 174.483661 104.023395 
L 175.814837 104.477336 
L 176.480425 104.338091 
L 177.146013 104.516325 
L 177.811601 104.87001 
L 178.477189 105.393574 
L 179.142777 105.53839 
L 180.473953 105.237619 
L 181.139541 104.844946 
L 181.805128 104.741904 
L 182.470716 104.811527 
L 183.136304 104.485691 
L 184.46748 101.711913 
L 185.798656 98.528752 
L 186.464244 97.670997 
L 187.129832 97.281108 
L 187.79542 97.651502 
L 188.461008 98.517612 
L 189.792184 99.027252 
L 190.457772 99.450559 
L 191.12336 100.230337 
L 191.788948 101.182778 
L 192.454536 102.374723 
L 193.120124 104.611012 
L 193.785711 107.459984 
L 194.451299 109.529178 
L 195.116887 111.200128 
L 195.782475 112.364224 
L 196.448063 113.781747 
L 197.113651 114.386075 
L 198.444827 115.8955 
L 199.776003 116.75047 
L 201.772767 116.321593 
L 203.103943 116.884146 
L 203.769531 116.953769 
L 204.435119 117.41328 
L 205.100707 118.477119 
L 207.09747 124.236329 
L 208.428646 129.040313 
L 209.094234 130.741898 
L 209.759822 131.234828 
L 210.42541 132.117647 
L 211.090998 132.268033 
L 211.756586 132.284742 
L 212.422174 133.017176 
L 213.087762 134.097724 
L 213.75335 134.938769 
L 215.084526 137.138854 
L 215.750114 138.573087 
L 216.415702 139.127286 
L 217.08129 138.525744 
L 217.746877 137.350508 
L 218.412465 136.648709 
L 219.078053 135.774245 
L 220.409229 133.242754 
L 222.405993 128.558522 
L 225.068345 125.07459 
L 226.399521 121.905353 
L 227.730697 118.248756 
L 229.72746 113.525535 
L 230.393048 112.277892 
L 231.058636 111.846229 
L 231.724224 111.879648 
L 232.389812 112.286246 
L 233.720988 113.909854 
L 234.386576 114.70077 
L 235.052164 115.828662 
L 235.717752 116.711481 
L 237.048928 119.657924 
L 238.380104 122.576518 
L 239.045692 123.275533 
L 239.71128 123.448198 
L 241.042456 124.144427 
L 241.708043 124.250254 
L 242.373631 124.163922 
L 243.039219 124.690271 
L 243.704807 126.130074 
L 244.370395 128.071161 
L 245.035983 129.580587 
L 245.701571 130.808736 
L 246.367159 131.557879 
L 247.032747 131.839155 
L 247.698335 132.460192 
L 248.363923 133.265033 
L 249.029511 133.746824 
L 249.695099 133.819232 
L 250.360687 133.420989 
L 251.026275 132.524245 
L 252.357451 129.608436 
L 255.019802 122.401068 
L 255.68539 121.649141 
L 256.350978 121.122791 
L 257.682154 120.930632 
L 258.347742 120.390358 
L 259.01333 119.669064 
L 259.678918 118.652569 
L 260.344506 118.184703 
L 261.675682 117.803169 
L 261.675682 117.803169 
" clip-path="url(#p4f36226d76)" style="fill: none; stroke: #ff0000; stroke-opacity: 0.5; stroke-width: 2; stroke-linecap: square"/>
   </g>
   <g id="line2d_25">
    <path d="M 62.664886 115.606797 
L 64.659982 115.569665 
L 65.325014 115.9447 
L 67.985142 120.025533 
L 68.650173 120.452554 
L 69.315205 120.348584 
L 69.980237 119.657924 
L 71.975333 119.089801 
L 72.640365 118.629361 
L 73.305397 118.306311 
L 73.970429 117.285174 
L 74.635461 116.468265 
L 76.630556 111.462839 
L 77.295588 110.523393 
L 77.96062 109.843873 
L 78.625652 108.982405 
L 79.290684 107.604799 
L 79.955716 105.90043 
L 80.620748 105.336019 
L 81.950811 105.803886 
L 82.615843 106.086091 
L 83.280875 107.00697 
L 85.275971 110.824164 
L 85.941003 112.394858 
L 86.606035 114.325735 
L 87.271067 115.584518 
L 87.936098 116.546243 
L 89.931194 118.543957 
L 90.596226 119.501969 
L 91.92629 120.508253 
L 92.591322 120.890715 
L 94.586417 121.469978 
L 95.251449 122.08266 
L 95.916481 122.364865 
L 96.581513 122.223762 
L 97.246545 122.398284 
L 97.911577 122.398284 
L 98.576609 122.702768 
L 99.241641 123.248612 
L 99.906673 123.627361 
L 100.571705 124.314307 
L 101.236736 125.439414 
L 102.5668 128.179773 
L 103.231832 129.171204 
L 103.896864 130.370575 
L 104.561896 132.071232 
L 105.226928 133.025531 
L 105.89196 134.343725 
L 106.556992 136.155778 
L 107.222024 137.403422 
L 107.887055 138.379999 
L 108.552087 139.156063 
L 109.882151 141.42113 
L 110.547183 141.914989 
L 111.212215 142.026385 
L 111.877247 141.99668 
L 113.207311 141.272601 
L 113.872343 140.904992 
L 114.537374 140.266317 
L 115.202406 140.039811 
L 116.53247 140.151207 
L 117.197502 139.961833 
L 117.862534 139.609077 
L 119.192598 139.683341 
L 119.85763 139.898708 
L 120.522661 140.336869 
L 123.182789 146.107219 
L 123.847821 147.172914 
L 124.512853 147.466259 
L 125.177885 146.771886 
L 126.507949 145.851006 
L 127.17298 145.030384 
L 127.838012 143.957262 
L 129.168076 143.392852 
L 129.833108 142.679913 
L 130.49814 140.652493 
L 131.828204 135.446553 
L 132.493236 133.72733 
L 133.158268 132.791597 
L 133.823299 132.591083 
L 134.488331 132.190055 
L 135.153363 132.045239 
L 135.818395 131.714762 
L 136.483427 131.543954 
L 137.148459 131.142926 
L 137.813491 130.99811 
L 138.478523 131.168919 
L 139.143555 130.912706 
L 139.808587 129.828445 
L 140.473618 128.443412 
L 141.13865 128.101796 
L 141.803682 129.204623 
L 142.468714 130.084657 
L 143.133746 130.615648 
L 144.46381 130.069804 
L 145.128842 131.064948 
L 145.793874 132.475973 
L 147.788969 133.530529 
L 148.454001 134.488541 
L 149.119033 134.755893 
L 149.784065 134.380857 
L 150.449097 134.38457 
L 151.114129 133.835013 
L 151.779161 133.055236 
L 153.109224 132.201195 
L 153.774256 131.503109 
L 154.439288 131.142926 
L 156.434384 129.598225 
L 157.099416 129.453409 
L 158.42948 129.509107 
L 160.424575 130.415134 
L 161.754639 131.911563 
L 162.419671 132.386856 
L 163.084703 133.701337 
L 163.749735 135.301737 
L 164.414767 137.514818 
L 165.079799 138.457977 
L 165.744831 139.193196 
L 166.409862 139.631356 
L 167.074894 139.471687 
L 167.739926 139.449408 
L 169.06999 139.007534 
L 170.400054 137.188055 
L 171.730118 135.153208 
L 173.060181 132.628216 
L 175.720309 125.547097 
L 176.385341 124.388572 
L 177.050373 123.694199 
L 178.380437 122.784459 
L 179.045469 122.119792 
L 179.7105 121.997255 
L 180.375532 122.602511 
L 181.040564 122.357438 
L 181.705596 122.372291 
L 182.370628 122.773319 
L 183.700692 123.044385 
L 185.030756 124.199197 
L 185.695787 123.913279 
L 186.360819 123.055524 
L 187.025851 122.572805 
L 187.690883 122.673062 
L 188.355915 122.643356 
L 189.020947 122.940414 
L 189.685979 122.695341 
L 190.351011 121.971263 
L 191.016043 121.607367 
L 191.681075 121.83016 
L 192.346106 122.936701 
L 193.011138 123.055524 
L 193.67617 121.462551 
L 195.006234 116.271464 
L 195.671266 114.102941 
L 196.336298 113.260039 
L 197.00133 113.137503 
L 197.666362 113.360296 
L 198.331394 113.727906 
L 198.996425 114.496543 
L 199.661457 115.023821 
L 200.326489 116.044957 
L 201.656553 117.162638 
L 202.321585 118.083517 
L 202.986617 119.35344 
L 204.316681 121.369721 
L 204.981713 123.233759 
L 206.976808 127.054666 
L 207.64184 127.986686 
L 208.971904 129.52396 
L 209.636936 129.720761 
L 210.301968 129.464549 
L 210.967 128.940984 
L 211.632031 128.621647 
L 212.297063 128.06095 
L 213.627127 128.205766 
L 214.292159 127.470547 
L 214.957191 127.188342 
L 216.287255 124.871291 
L 216.952287 123.86872 
L 217.617319 122.654496 
L 218.28235 122.067807 
L 218.947382 121.919278 
L 220.277446 122.973833 
L 220.942478 122.932988 
L 221.60751 122.205196 
L 222.272542 121.781888 
L 222.937574 121.733616 
L 224.267638 120.912994 
L 225.597701 120.604796 
L 226.262733 119.995828 
L 226.927765 120.229761 
L 228.257829 120.006967 
L 228.922861 119.505682 
L 229.587893 119.375719 
L 230.252925 119.104654 
L 230.917957 118.536531 
L 231.582988 118.157782 
L 232.24802 117.385431 
L 232.913052 117.192344 
L 235.57318 118.937559 
L 236.903244 119.316308 
L 237.568276 119.149213 
L 238.233307 118.744471 
L 239.563371 116.445986 
L 240.893435 113.505112 
L 241.558467 113.040959 
L 242.223499 113.200628 
L 243.553563 113.909854 
L 244.218594 114.693344 
L 244.883626 114.808454 
L 246.21369 114.451984 
L 247.543754 114.500256 
L 248.873818 113.026106 
L 249.53885 113.783604 
L 250.203882 115.291173 
L 250.868913 115.733047 
L 251.533945 116.568522 
L 252.198977 116.902712 
L 252.864009 117.403997 
L 253.529041 117.366865 
L 254.194073 117.058668 
L 255.524137 115.688488 
L 256.189169 115.324592 
L 256.854201 114.72305 
L 257.519232 114.288602 
L 258.184264 113.453127 
L 258.849296 113.033533 
L 260.17936 111.121222 
L 260.844392 110.723907 
L 262.174456 111.863867 
L 263.50452 114.912424 
L 264.834583 117.147785 
L 265.499615 118.272892 
L 266.829679 121.845013 
L 268.159743 126.215478 
L 268.824775 128.606794 
L 269.489807 131.740755 
L 270.81987 137.150922 
L 272.149934 142.327157 
L 272.814966 144.269173 
L 273.479998 145.104648 
L 274.14503 145.223471 
L 274.810062 144.477113 
L 276.805157 141.343152 
L 278.135221 139.720473 
L 278.800253 138.491396 
L 279.465285 136.553093 
L 282.790445 119.22719 
L 283.455476 116.913852 
L 284.78554 113.553384 
L 285.450572 111.373722 
L 286.115604 109.673065 
L 287.445668 107.140646 
L 288.1107 106.420281 
L 289.440764 105.465982 
L 290.105795 105.65907 
L 290.770827 106.138076 
L 291.435859 105.996973 
L 292.100891 106.045245 
L 292.765923 106.836162 
L 293.430955 107.816453 
L 295.426051 112.116366 
L 296.091083 113.185775 
L 296.756114 113.534818 
L 297.421146 113.620222 
L 298.086178 114.385146 
L 299.416242 116.200913 
L 300.081274 116.976977 
L 300.746306 117.44113 
L 301.411338 118.146642 
L 302.07637 118.651641 
L 302.741402 118.614508 
L 304.071465 119.334874 
L 304.736497 118.818736 
L 305.401529 117.838445 
L 306.066561 117.481975 
L 306.731593 117.307454 
L 307.396625 116.672492 
L 308.061657 116.338302 
L 308.726689 116.880433 
L 309.39172 117.229476 
L 310.056752 117.860724 
L 311.386816 119.832446 
L 312.051848 119.940129 
L 312.71688 119.843585 
L 313.381912 119.178918 
L 314.046944 118.88186 
L 314.711976 118.967265 
L 315.377008 118.878147 
L 316.042039 117.949841 
L 317.372103 115.588231 
L 318.702167 114.890145 
L 320.032231 115.320879 
L 320.697263 116.145214 
L 322.027327 118.128076 
L 322.692358 118.45484 
L 323.35739 117.827305 
L 324.022422 118.265465 
L 325.352486 118.10951 
L 326.68255 118.491972 
L 327.347582 118.376862 
L 328.012614 118.484546 
L 328.012614 118.484546 
" clip-path="url(#p4f36226d76)" style="fill: none; stroke: #008000; stroke-opacity: 0.5; stroke-width: 2; stroke-linecap: square"/>
   </g>
   <g id="patch_3">
    <path d="M 49.3975 234.5525 
L 49.3975 11.759062 
" style="fill: none; stroke: #000000; stroke-width: 2; stroke-linejoin: miter; stroke-linecap: square"/>
   </g>
   <g id="patch_4">
    <path d="M 341.28 234.5525 
L 341.28 11.759062 
" style="fill: none; stroke: #000000; stroke-width: 2; stroke-linejoin: miter; stroke-linecap: square"/>
   </g>
   <g id="patch_5">
    <path d="M 49.3975 234.5525 
L 341.28 234.5525 
" style="fill: none; stroke: #000000; stroke-width: 2; stroke-linejoin: miter; stroke-linecap: square"/>
   </g>
   <g id="patch_6">
    <path d="M 49.3975 11.759062 
L 341.28 11.759062 
" style="fill: none; stroke: #000000; stroke-width: 2; stroke-linejoin: miter; stroke-linecap: square"/>
   </g>
   <g id="legend_1">
    <g id="line2d_26">
     <path d="M 245.26125 27.477188 
L 257.26125 27.477188 
L 269.26125 27.477188 
" style="fill: none; stroke: #0000ff; stroke-opacity: 0.5; stroke-width: 2; stroke-linecap: square"/>
    </g>
    <g id="text_14">
     <!-- yz-plane -->
     <g transform="translate(278.86125 31.677188)scale(0.12 -0.12)">
      <defs>
       <path id="DejaVuSans-7a" d="M 353 3500 
L 3084 3500 
L 3084 2975 
L 922 459 
L 3084 459 
L 3084 0 
L 275 0 
L 275 525 
L 2438 3041 
L 353 3041 
L 353 3500 
z
" transform="scale(0.015625)"/>
       <path id="DejaVuSans-2d" d="M 313 2009 
L 1997 2009 
L 1997 1497 
L 313 1497 
L 313 2009 
z
" transform="scale(0.015625)"/>
       <path id="DejaVuSans-70" d="M 1159 525 
L 1159 -1331 
L 581 -1331 
L 581 3500 
L 1159 3500 
L 1159 2969 
Q 1341 3281 1617 3432 
Q 1894 3584 2278 3584 
Q 2916 3584 3314 3078 
Q 3713 2572 3713 1747 
Q 3713 922 3314 415 
Q 2916 -91 2278 -91 
Q 1894 -91 1617 61 
Q 1341 213 1159 525 
z
M 3116 1747 
Q 3116 2381 2855 2742 
Q 2594 3103 2138 3103 
Q 1681 3103 1420 2742 
Q 1159 2381 1159 1747 
Q 1159 1113 1420 752 
Q 1681 391 2138 391 
Q 2594 391 2855 752 
Q 3116 1113 3116 1747 
z
" transform="scale(0.015625)"/>
      </defs>
      <use xlink:href="#DejaVuSans-79"/>
      <use xlink:href="#DejaVuSans-7a" x="59.179688"/>
      <use xlink:href="#DejaVuSans-2d" x="111.669922"/>
      <use xlink:href="#DejaVuSans-70" x="147.753906"/>
      <use xlink:href="#DejaVuSans-6c" x="211.230469"/>
      <use xlink:href="#DejaVuSans-61" x="239.013672"/>
      <use xlink:href="#DejaVuSans-6e" x="300.292969"/>
      <use xlink:href="#DejaVuSans-65" x="363.671875"/>
     </g>
    </g>
    <g id="line2d_27">
     <path d="M 245.26125 45.090938 
L 257.26125 45.090938 
L 269.26125 45.090938 
" style="fill: none; stroke: #ff0000; stroke-opacity: 0.5; stroke-width: 2; stroke-linecap: square"/>
    </g>
    <g id="text_15">
     <!-- xz-plane -->
     <g transform="translate(278.86125 49.290938)scale(0.12 -0.12)">
      <use xlink:href="#DejaVuSans-78"/>
      <use xlink:href="#DejaVuSans-7a" x="59.179688"/>
      <use xlink:href="#DejaVuSans-2d" x="111.669922"/>
      <use xlink:href="#DejaVuSans-70" x="147.753906"/>
      <use xlink:href="#DejaVuSans-6c" x="211.230469"/>
      <use xlink:href="#DejaVuSans-61" x="239.013672"/>
      <use xlink:href="#DejaVuSans-6e" x="300.292969"/>
      <use xlink:href="#DejaVuSans-65" x="363.671875"/>
     </g>
    </g>
    <g id="line2d_28">
     <path d="M 245.26125 62.704687 
L 257.26125 62.704687 
L 269.26125 62.704687 
" style="fill: none; stroke: #008000; stroke-opacity: 0.5; stroke-width: 2; stroke-linecap: square"/>
    </g>
    <g id="text_16">
     <!-- xy-plane -->
     <g transform="translate(278.86125 66.904687)scale(0.12 -0.12)">
      <use xlink:href="#DejaVuSans-78"/>
      <use xlink:href="#DejaVuSans-79" x="59.179688"/>
      <use xlink:href="#DejaVuSans-2d" x="116.609375"/>
      <use xlink:href="#DejaVuSans-70" x="152.693359"/>
      <use xlink:href="#DejaVuSans-6c" x="216.169922"/>
      <use xlink:href="#DejaVuSans-61" x="243.953125"/>
      <use xlink:href="#DejaVuSans-6e" x="305.232422"/>
      <use xlink:href="#DejaVuSans-65" x="368.611328"/>
     </g>
    </g>
   </g>
  </g>
 </g>
 <defs>
  <clipPath id="p4f36226d76">
   <rect x="49.3975" y="11.759062" width="291.8825" height="222.793437"/>
  </clipPath>
 </defs>
</svg>
