<?xml version="1.0" encoding="utf-8" standalone="no"?>
<!DOCTYPE svg PUBLIC "-//W3C//DTD SVG 1.1//EN"
  "http://www.w3.org/Graphics/SVG/1.1/DTD/svg11.dtd">
<svg xmlns:xlink="http://www.w3.org/1999/xlink" width="348.48pt" height="276.48pt" viewBox="0 0 348.48 276.48" xmlns="http://www.w3.org/2000/svg" version="1.1">
 <metadata>
  <rdf:RDF xmlns:dc="http://purl.org/dc/elements/1.1/" xmlns:cc="http://creativecommons.org/ns#" xmlns:rdf="http://www.w3.org/1999/02/22-rdf-syntax-ns#">
   <cc:Work>
    <dc:type rdf:resource="http://purl.org/dc/dcmitype/StillImage"/>
    <dc:date>2022-04-26T09:10:10.556323</dc:date>
    <dc:format>image/svg+xml</dc:format>
    <dc:creator>
     <cc:Agent>
      <dc:title>Matplotlib v3.5.1, https://matplotlib.org/</dc:title>
     </cc:Agent>
    </dc:creator>
   </cc:Work>
  </rdf:RDF>
 </metadata>
 <defs>
  <style type="text/css">*{stroke-linejoin: round; stroke-linecap: butt}</style>
 </defs>
 <g id="figure_1">
  <g id="patch_1">
   <path d="M 0 276.48 
L 348.48 276.48 
L 348.48 0 
L 0 0 
L 0 276.48 
z
" style="fill: none"/>
  </g>
  <g id="axes_1">
   <g id="patch_2">
    <path d="M 49.3975 234.5525 
L 341.28 234.5525 
L 341.28 11.759062 
L 49.3975 11.759062 
z
" style="fill: #ffffff"/>
   </g>
   <g id="matplotlib.axis_1">
    <g id="xtick_1">
     <g id="line2d_1">
      <defs>
       <path id="m0c587652bc" d="M 0 0 
L 0 -6 
" style="stroke: #000000; stroke-width: 2"/>
      </defs>
      <g>
       <use xlink:href="#m0c587652bc" x="62.664886" y="234.5525" style="fill: #ffffff; stroke: #000000; stroke-width: 2"/>
      </g>
     </g>
     <g id="line2d_2">
      <defs>
       <path id="m792a8ef17d" d="M 0 0 
L 0 6 
" style="stroke: #000000; stroke-width: 2"/>
      </defs>
      <g>
       <use xlink:href="#m792a8ef17d" x="62.664886" y="11.759062" style="fill: #ffffff; stroke: #000000; stroke-width: 2"/>
      </g>
     </g>
     <g id="text_1">
      <!-- 0.0 -->
      <g transform="translate(53.123011 247.170625)scale(0.12 -0.12)">
       <defs>
        <path id="DejaVuSans-30" d="M 2034 4250 
Q 1547 4250 1301 3770 
Q 1056 3291 1056 2328 
Q 1056 1369 1301 889 
Q 1547 409 2034 409 
Q 2525 409 2770 889 
Q 3016 1369 3016 2328 
Q 3016 3291 2770 3770 
Q 2525 4250 2034 4250 
z
M 2034 4750 
Q 2819 4750 3233 4129 
Q 3647 3509 3647 2328 
Q 3647 1150 3233 529 
Q 2819 -91 2034 -91 
Q 1250 -91 836 529 
Q 422 1150 422 2328 
Q 422 3509 836 4129 
Q 1250 4750 2034 4750 
z
" transform="scale(0.015625)"/>
        <path id="DejaVuSans-2e" d="M 684 794 
L 1344 794 
L 1344 0 
L 684 0 
L 684 794 
z
" transform="scale(0.015625)"/>
       </defs>
       <use xlink:href="#DejaVuSans-30"/>
       <use xlink:href="#DejaVuSans-2e" x="63.623047"/>
       <use xlink:href="#DejaVuSans-30" x="95.410156"/>
      </g>
     </g>
    </g>
    <g id="xtick_2">
     <g id="line2d_3">
      <g>
       <use xlink:href="#m0c587652bc" x="115.734432" y="234.5525" style="fill: #ffffff; stroke: #000000; stroke-width: 2"/>
      </g>
     </g>
     <g id="line2d_4">
      <g>
       <use xlink:href="#m792a8ef17d" x="115.734432" y="11.759062" style="fill: #ffffff; stroke: #000000; stroke-width: 2"/>
      </g>
     </g>
     <g id="text_2">
      <!-- 0.2 -->
      <g transform="translate(106.192557 247.170625)scale(0.12 -0.12)">
       <defs>
        <path id="DejaVuSans-32" d="M 1228 531 
L 3431 531 
L 3431 0 
L 469 0 
L 469 531 
Q 828 903 1448 1529 
Q 2069 2156 2228 2338 
Q 2531 2678 2651 2914 
Q 2772 3150 2772 3378 
Q 2772 3750 2511 3984 
Q 2250 4219 1831 4219 
Q 1534 4219 1204 4116 
Q 875 4013 500 3803 
L 500 4441 
Q 881 4594 1212 4672 
Q 1544 4750 1819 4750 
Q 2544 4750 2975 4387 
Q 3406 4025 3406 3419 
Q 3406 3131 3298 2873 
Q 3191 2616 2906 2266 
Q 2828 2175 2409 1742 
Q 1991 1309 1228 531 
z
" transform="scale(0.015625)"/>
       </defs>
       <use xlink:href="#DejaVuSans-30"/>
       <use xlink:href="#DejaVuSans-2e" x="63.623047"/>
       <use xlink:href="#DejaVuSans-32" x="95.410156"/>
      </g>
     </g>
    </g>
    <g id="xtick_3">
     <g id="line2d_5">
      <g>
       <use xlink:href="#m0c587652bc" x="168.803977" y="234.5525" style="fill: #ffffff; stroke: #000000; stroke-width: 2"/>
      </g>
     </g>
     <g id="line2d_6">
      <g>
       <use xlink:href="#m792a8ef17d" x="168.803977" y="11.759062" style="fill: #ffffff; stroke: #000000; stroke-width: 2"/>
      </g>
     </g>
     <g id="text_3">
      <!-- 0.4 -->
      <g transform="translate(159.262102 247.170625)scale(0.12 -0.12)">
       <defs>
        <path id="DejaVuSans-34" d="M 2419 4116 
L 825 1625 
L 2419 1625 
L 2419 4116 
z
M 2253 4666 
L 3047 4666 
L 3047 1625 
L 3713 1625 
L 3713 1100 
L 3047 1100 
L 3047 0 
L 2419 0 
L 2419 1100 
L 313 1100 
L 313 1709 
L 2253 4666 
z
" transform="scale(0.015625)"/>
       </defs>
       <use xlink:href="#DejaVuSans-30"/>
       <use xlink:href="#DejaVuSans-2e" x="63.623047"/>
       <use xlink:href="#DejaVuSans-34" x="95.410156"/>
      </g>
     </g>
    </g>
    <g id="xtick_4">
     <g id="line2d_7">
      <g>
       <use xlink:href="#m0c587652bc" x="221.873523" y="234.5525" style="fill: #ffffff; stroke: #000000; stroke-width: 2"/>
      </g>
     </g>
     <g id="line2d_8">
      <g>
       <use xlink:href="#m792a8ef17d" x="221.873523" y="11.759062" style="fill: #ffffff; stroke: #000000; stroke-width: 2"/>
      </g>
     </g>
     <g id="text_4">
      <!-- 0.6 -->
      <g transform="translate(212.331648 247.170625)scale(0.12 -0.12)">
       <defs>
        <path id="DejaVuSans-36" d="M 2113 2584 
Q 1688 2584 1439 2293 
Q 1191 2003 1191 1497 
Q 1191 994 1439 701 
Q 1688 409 2113 409 
Q 2538 409 2786 701 
Q 3034 994 3034 1497 
Q 3034 2003 2786 2293 
Q 2538 2584 2113 2584 
z
M 3366 4563 
L 3366 3988 
Q 3128 4100 2886 4159 
Q 2644 4219 2406 4219 
Q 1781 4219 1451 3797 
Q 1122 3375 1075 2522 
Q 1259 2794 1537 2939 
Q 1816 3084 2150 3084 
Q 2853 3084 3261 2657 
Q 3669 2231 3669 1497 
Q 3669 778 3244 343 
Q 2819 -91 2113 -91 
Q 1303 -91 875 529 
Q 447 1150 447 2328 
Q 447 3434 972 4092 
Q 1497 4750 2381 4750 
Q 2619 4750 2861 4703 
Q 3103 4656 3366 4563 
z
" transform="scale(0.015625)"/>
       </defs>
       <use xlink:href="#DejaVuSans-30"/>
       <use xlink:href="#DejaVuSans-2e" x="63.623047"/>
       <use xlink:href="#DejaVuSans-36" x="95.410156"/>
      </g>
     </g>
    </g>
    <g id="xtick_5">
     <g id="line2d_9">
      <g>
       <use xlink:href="#m0c587652bc" x="274.943068" y="234.5525" style="fill: #ffffff; stroke: #000000; stroke-width: 2"/>
      </g>
     </g>
     <g id="line2d_10">
      <g>
       <use xlink:href="#m792a8ef17d" x="274.943068" y="11.759062" style="fill: #ffffff; stroke: #000000; stroke-width: 2"/>
      </g>
     </g>
     <g id="text_5">
      <!-- 0.8 -->
      <g transform="translate(265.401193 247.170625)scale(0.12 -0.12)">
       <defs>
        <path id="DejaVuSans-38" d="M 2034 2216 
Q 1584 2216 1326 1975 
Q 1069 1734 1069 1313 
Q 1069 891 1326 650 
Q 1584 409 2034 409 
Q 2484 409 2743 651 
Q 3003 894 3003 1313 
Q 3003 1734 2745 1975 
Q 2488 2216 2034 2216 
z
M 1403 2484 
Q 997 2584 770 2862 
Q 544 3141 544 3541 
Q 544 4100 942 4425 
Q 1341 4750 2034 4750 
Q 2731 4750 3128 4425 
Q 3525 4100 3525 3541 
Q 3525 3141 3298 2862 
Q 3072 2584 2669 2484 
Q 3125 2378 3379 2068 
Q 3634 1759 3634 1313 
Q 3634 634 3220 271 
Q 2806 -91 2034 -91 
Q 1263 -91 848 271 
Q 434 634 434 1313 
Q 434 1759 690 2068 
Q 947 2378 1403 2484 
z
M 1172 3481 
Q 1172 3119 1398 2916 
Q 1625 2713 2034 2713 
Q 2441 2713 2670 2916 
Q 2900 3119 2900 3481 
Q 2900 3844 2670 4047 
Q 2441 4250 2034 4250 
Q 1625 4250 1398 4047 
Q 1172 3844 1172 3481 
z
" transform="scale(0.015625)"/>
       </defs>
       <use xlink:href="#DejaVuSans-30"/>
       <use xlink:href="#DejaVuSans-2e" x="63.623047"/>
       <use xlink:href="#DejaVuSans-38" x="95.410156"/>
      </g>
     </g>
    </g>
    <g id="xtick_6">
     <g id="line2d_11">
      <g>
       <use xlink:href="#m0c587652bc" x="328.012614" y="234.5525" style="fill: #ffffff; stroke: #000000; stroke-width: 2"/>
      </g>
     </g>
     <g id="line2d_12">
      <g>
       <use xlink:href="#m792a8ef17d" x="328.012614" y="11.759062" style="fill: #ffffff; stroke: #000000; stroke-width: 2"/>
      </g>
     </g>
     <g id="text_6">
      <!-- 1.0 -->
      <g transform="translate(318.470739 247.170625)scale(0.12 -0.12)">
       <defs>
        <path id="DejaVuSans-31" d="M 794 531 
L 1825 531 
L 1825 4091 
L 703 3866 
L 703 4441 
L 1819 4666 
L 2450 4666 
L 2450 531 
L 3481 531 
L 3481 0 
L 794 0 
L 794 531 
z
" transform="scale(0.015625)"/>
       </defs>
       <use xlink:href="#DejaVuSans-31"/>
       <use xlink:href="#DejaVuSans-2e" x="63.623047"/>
       <use xlink:href="#DejaVuSans-30" x="95.410156"/>
      </g>
     </g>
    </g>
    <g id="text_7">
     <!-- Fractional distance along given axis -->
     <g transform="translate(87.823438 266.784375)scale(0.12 -0.12)">
      <defs>
       <path id="DejaVuSans-46" d="M 628 4666 
L 3309 4666 
L 3309 4134 
L 1259 4134 
L 1259 2759 
L 3109 2759 
L 3109 2228 
L 1259 2228 
L 1259 0 
L 628 0 
L 628 4666 
z
" transform="scale(0.015625)"/>
       <path id="DejaVuSans-72" d="M 2631 2963 
Q 2534 3019 2420 3045 
Q 2306 3072 2169 3072 
Q 1681 3072 1420 2755 
Q 1159 2438 1159 1844 
L 1159 0 
L 581 0 
L 581 3500 
L 1159 3500 
L 1159 2956 
Q 1341 3275 1631 3429 
Q 1922 3584 2338 3584 
Q 2397 3584 2469 3576 
Q 2541 3569 2628 3553 
L 2631 2963 
z
" transform="scale(0.015625)"/>
       <path id="DejaVuSans-61" d="M 2194 1759 
Q 1497 1759 1228 1600 
Q 959 1441 959 1056 
Q 959 750 1161 570 
Q 1363 391 1709 391 
Q 2188 391 2477 730 
Q 2766 1069 2766 1631 
L 2766 1759 
L 2194 1759 
z
M 3341 1997 
L 3341 0 
L 2766 0 
L 2766 531 
Q 2569 213 2275 61 
Q 1981 -91 1556 -91 
Q 1019 -91 701 211 
Q 384 513 384 1019 
Q 384 1609 779 1909 
Q 1175 2209 1959 2209 
L 2766 2209 
L 2766 2266 
Q 2766 2663 2505 2880 
Q 2244 3097 1772 3097 
Q 1472 3097 1187 3025 
Q 903 2953 641 2809 
L 641 3341 
Q 956 3463 1253 3523 
Q 1550 3584 1831 3584 
Q 2591 3584 2966 3190 
Q 3341 2797 3341 1997 
z
" transform="scale(0.015625)"/>
       <path id="DejaVuSans-63" d="M 3122 3366 
L 3122 2828 
Q 2878 2963 2633 3030 
Q 2388 3097 2138 3097 
Q 1578 3097 1268 2742 
Q 959 2388 959 1747 
Q 959 1106 1268 751 
Q 1578 397 2138 397 
Q 2388 397 2633 464 
Q 2878 531 3122 666 
L 3122 134 
Q 2881 22 2623 -34 
Q 2366 -91 2075 -91 
Q 1284 -91 818 406 
Q 353 903 353 1747 
Q 353 2603 823 3093 
Q 1294 3584 2113 3584 
Q 2378 3584 2631 3529 
Q 2884 3475 3122 3366 
z
" transform="scale(0.015625)"/>
       <path id="DejaVuSans-74" d="M 1172 4494 
L 1172 3500 
L 2356 3500 
L 2356 3053 
L 1172 3053 
L 1172 1153 
Q 1172 725 1289 603 
Q 1406 481 1766 481 
L 2356 481 
L 2356 0 
L 1766 0 
Q 1100 0 847 248 
Q 594 497 594 1153 
L 594 3053 
L 172 3053 
L 172 3500 
L 594 3500 
L 594 4494 
L 1172 4494 
z
" transform="scale(0.015625)"/>
       <path id="DejaVuSans-69" d="M 603 3500 
L 1178 3500 
L 1178 0 
L 603 0 
L 603 3500 
z
M 603 4863 
L 1178 4863 
L 1178 4134 
L 603 4134 
L 603 4863 
z
" transform="scale(0.015625)"/>
       <path id="DejaVuSans-6f" d="M 1959 3097 
Q 1497 3097 1228 2736 
Q 959 2375 959 1747 
Q 959 1119 1226 758 
Q 1494 397 1959 397 
Q 2419 397 2687 759 
Q 2956 1122 2956 1747 
Q 2956 2369 2687 2733 
Q 2419 3097 1959 3097 
z
M 1959 3584 
Q 2709 3584 3137 3096 
Q 3566 2609 3566 1747 
Q 3566 888 3137 398 
Q 2709 -91 1959 -91 
Q 1206 -91 779 398 
Q 353 888 353 1747 
Q 353 2609 779 3096 
Q 1206 3584 1959 3584 
z
" transform="scale(0.015625)"/>
       <path id="DejaVuSans-6e" d="M 3513 2113 
L 3513 0 
L 2938 0 
L 2938 2094 
Q 2938 2591 2744 2837 
Q 2550 3084 2163 3084 
Q 1697 3084 1428 2787 
Q 1159 2491 1159 1978 
L 1159 0 
L 581 0 
L 581 3500 
L 1159 3500 
L 1159 2956 
Q 1366 3272 1645 3428 
Q 1925 3584 2291 3584 
Q 2894 3584 3203 3211 
Q 3513 2838 3513 2113 
z
" transform="scale(0.015625)"/>
       <path id="DejaVuSans-6c" d="M 603 4863 
L 1178 4863 
L 1178 0 
L 603 0 
L 603 4863 
z
" transform="scale(0.015625)"/>
       <path id="DejaVuSans-20" transform="scale(0.015625)"/>
       <path id="DejaVuSans-64" d="M 2906 2969 
L 2906 4863 
L 3481 4863 
L 3481 0 
L 2906 0 
L 2906 525 
Q 2725 213 2448 61 
Q 2172 -91 1784 -91 
Q 1150 -91 751 415 
Q 353 922 353 1747 
Q 353 2572 751 3078 
Q 1150 3584 1784 3584 
Q 2172 3584 2448 3432 
Q 2725 3281 2906 2969 
z
M 947 1747 
Q 947 1113 1208 752 
Q 1469 391 1925 391 
Q 2381 391 2643 752 
Q 2906 1113 2906 1747 
Q 2906 2381 2643 2742 
Q 2381 3103 1925 3103 
Q 1469 3103 1208 2742 
Q 947 2381 947 1747 
z
" transform="scale(0.015625)"/>
       <path id="DejaVuSans-73" d="M 2834 3397 
L 2834 2853 
Q 2591 2978 2328 3040 
Q 2066 3103 1784 3103 
Q 1356 3103 1142 2972 
Q 928 2841 928 2578 
Q 928 2378 1081 2264 
Q 1234 2150 1697 2047 
L 1894 2003 
Q 2506 1872 2764 1633 
Q 3022 1394 3022 966 
Q 3022 478 2636 193 
Q 2250 -91 1575 -91 
Q 1294 -91 989 -36 
Q 684 19 347 128 
L 347 722 
Q 666 556 975 473 
Q 1284 391 1588 391 
Q 1994 391 2212 530 
Q 2431 669 2431 922 
Q 2431 1156 2273 1281 
Q 2116 1406 1581 1522 
L 1381 1569 
Q 847 1681 609 1914 
Q 372 2147 372 2553 
Q 372 3047 722 3315 
Q 1072 3584 1716 3584 
Q 2034 3584 2315 3537 
Q 2597 3491 2834 3397 
z
" transform="scale(0.015625)"/>
       <path id="DejaVuSans-65" d="M 3597 1894 
L 3597 1613 
L 953 1613 
Q 991 1019 1311 708 
Q 1631 397 2203 397 
Q 2534 397 2845 478 
Q 3156 559 3463 722 
L 3463 178 
Q 3153 47 2828 -22 
Q 2503 -91 2169 -91 
Q 1331 -91 842 396 
Q 353 884 353 1716 
Q 353 2575 817 3079 
Q 1281 3584 2069 3584 
Q 2775 3584 3186 3129 
Q 3597 2675 3597 1894 
z
M 3022 2063 
Q 3016 2534 2758 2815 
Q 2500 3097 2075 3097 
Q 1594 3097 1305 2825 
Q 1016 2553 972 2059 
L 3022 2063 
z
" transform="scale(0.015625)"/>
       <path id="DejaVuSans-67" d="M 2906 1791 
Q 2906 2416 2648 2759 
Q 2391 3103 1925 3103 
Q 1463 3103 1205 2759 
Q 947 2416 947 1791 
Q 947 1169 1205 825 
Q 1463 481 1925 481 
Q 2391 481 2648 825 
Q 2906 1169 2906 1791 
z
M 3481 434 
Q 3481 -459 3084 -895 
Q 2688 -1331 1869 -1331 
Q 1566 -1331 1297 -1286 
Q 1028 -1241 775 -1147 
L 775 -588 
Q 1028 -725 1275 -790 
Q 1522 -856 1778 -856 
Q 2344 -856 2625 -561 
Q 2906 -266 2906 331 
L 2906 616 
Q 2728 306 2450 153 
Q 2172 0 1784 0 
Q 1141 0 747 490 
Q 353 981 353 1791 
Q 353 2603 747 3093 
Q 1141 3584 1784 3584 
Q 2172 3584 2450 3431 
Q 2728 3278 2906 2969 
L 2906 3500 
L 3481 3500 
L 3481 434 
z
" transform="scale(0.015625)"/>
       <path id="DejaVuSans-76" d="M 191 3500 
L 800 3500 
L 1894 563 
L 2988 3500 
L 3597 3500 
L 2284 0 
L 1503 0 
L 191 3500 
z
" transform="scale(0.015625)"/>
       <path id="DejaVuSans-78" d="M 3513 3500 
L 2247 1797 
L 3578 0 
L 2900 0 
L 1881 1375 
L 863 0 
L 184 0 
L 1544 1831 
L 300 3500 
L 978 3500 
L 1906 2253 
L 2834 3500 
L 3513 3500 
z
" transform="scale(0.015625)"/>
      </defs>
      <use xlink:href="#DejaVuSans-46"/>
      <use xlink:href="#DejaVuSans-72" x="50.269531"/>
      <use xlink:href="#DejaVuSans-61" x="91.382812"/>
      <use xlink:href="#DejaVuSans-63" x="152.662109"/>
      <use xlink:href="#DejaVuSans-74" x="207.642578"/>
      <use xlink:href="#DejaVuSans-69" x="246.851562"/>
      <use xlink:href="#DejaVuSans-6f" x="274.634766"/>
      <use xlink:href="#DejaVuSans-6e" x="335.816406"/>
      <use xlink:href="#DejaVuSans-61" x="399.195312"/>
      <use xlink:href="#DejaVuSans-6c" x="460.474609"/>
      <use xlink:href="#DejaVuSans-20" x="488.257812"/>
      <use xlink:href="#DejaVuSans-64" x="520.044922"/>
      <use xlink:href="#DejaVuSans-69" x="583.521484"/>
      <use xlink:href="#DejaVuSans-73" x="611.304688"/>
      <use xlink:href="#DejaVuSans-74" x="663.404297"/>
      <use xlink:href="#DejaVuSans-61" x="702.613281"/>
      <use xlink:href="#DejaVuSans-6e" x="763.892578"/>
      <use xlink:href="#DejaVuSans-63" x="827.271484"/>
      <use xlink:href="#DejaVuSans-65" x="882.251953"/>
      <use xlink:href="#DejaVuSans-20" x="943.775391"/>
      <use xlink:href="#DejaVuSans-61" x="975.5625"/>
      <use xlink:href="#DejaVuSans-6c" x="1036.841797"/>
      <use xlink:href="#DejaVuSans-6f" x="1064.625"/>
      <use xlink:href="#DejaVuSans-6e" x="1125.806641"/>
      <use xlink:href="#DejaVuSans-67" x="1189.185547"/>
      <use xlink:href="#DejaVuSans-20" x="1252.662109"/>
      <use xlink:href="#DejaVuSans-67" x="1284.449219"/>
      <use xlink:href="#DejaVuSans-69" x="1347.925781"/>
      <use xlink:href="#DejaVuSans-76" x="1375.708984"/>
      <use xlink:href="#DejaVuSans-65" x="1434.888672"/>
      <use xlink:href="#DejaVuSans-6e" x="1496.412109"/>
      <use xlink:href="#DejaVuSans-20" x="1559.791016"/>
      <use xlink:href="#DejaVuSans-61" x="1591.578125"/>
      <use xlink:href="#DejaVuSans-78" x="1652.857422"/>
      <use xlink:href="#DejaVuSans-69" x="1712.037109"/>
      <use xlink:href="#DejaVuSans-73" x="1739.820312"/>
     </g>
    </g>
   </g>
   <g id="matplotlib.axis_2">
    <g id="ytick_1">
     <g id="line2d_13">
      <defs>
       <path id="m31d3711fd6" d="M 0 0 
L 6 0 
" style="stroke: #000000; stroke-width: 2"/>
      </defs>
      <g>
       <use xlink:href="#m31d3711fd6" x="49.3975" y="234.5525" style="fill: #ffffff; stroke: #000000; stroke-width: 2"/>
      </g>
     </g>
     <g id="line2d_14">
      <defs>
       <path id="m1815dff2b6" d="M 0 0 
L -6 0 
" style="stroke: #000000; stroke-width: 2"/>
      </defs>
      <g>
       <use xlink:href="#m1815dff2b6" x="341.28" y="234.5525" style="fill: #ffffff; stroke: #000000; stroke-width: 2"/>
      </g>
     </g>
     <g id="text_8">
      <!-- 0.0 -->
      <g transform="translate(26.81375 239.111562)scale(0.12 -0.12)">
       <use xlink:href="#DejaVuSans-30"/>
       <use xlink:href="#DejaVuSans-2e" x="63.623047"/>
       <use xlink:href="#DejaVuSans-30" x="95.410156"/>
      </g>
     </g>
    </g>
    <g id="ytick_2">
     <g id="line2d_15">
      <g>
       <use xlink:href="#m31d3711fd6" x="49.3975" y="189.993812" style="fill: #ffffff; stroke: #000000; stroke-width: 2"/>
      </g>
     </g>
     <g id="line2d_16">
      <g>
       <use xlink:href="#m1815dff2b6" x="341.28" y="189.993812" style="fill: #ffffff; stroke: #000000; stroke-width: 2"/>
      </g>
     </g>
     <g id="text_9">
      <!-- 0.2 -->
      <g transform="translate(26.81375 194.552875)scale(0.12 -0.12)">
       <use xlink:href="#DejaVuSans-30"/>
       <use xlink:href="#DejaVuSans-2e" x="63.623047"/>
       <use xlink:href="#DejaVuSans-32" x="95.410156"/>
      </g>
     </g>
    </g>
    <g id="ytick_3">
     <g id="line2d_17">
      <g>
       <use xlink:href="#m31d3711fd6" x="49.3975" y="145.435125" style="fill: #ffffff; stroke: #000000; stroke-width: 2"/>
      </g>
     </g>
     <g id="line2d_18">
      <g>
       <use xlink:href="#m1815dff2b6" x="341.28" y="145.435125" style="fill: #ffffff; stroke: #000000; stroke-width: 2"/>
      </g>
     </g>
     <g id="text_10">
      <!-- 0.4 -->
      <g transform="translate(26.81375 149.994187)scale(0.12 -0.12)">
       <use xlink:href="#DejaVuSans-30"/>
       <use xlink:href="#DejaVuSans-2e" x="63.623047"/>
       <use xlink:href="#DejaVuSans-34" x="95.410156"/>
      </g>
     </g>
    </g>
    <g id="ytick_4">
     <g id="line2d_19">
      <g>
       <use xlink:href="#m31d3711fd6" x="49.3975" y="100.876437" style="fill: #ffffff; stroke: #000000; stroke-width: 2"/>
      </g>
     </g>
     <g id="line2d_20">
      <g>
       <use xlink:href="#m1815dff2b6" x="341.28" y="100.876437" style="fill: #ffffff; stroke: #000000; stroke-width: 2"/>
      </g>
     </g>
     <g id="text_11">
      <!-- 0.6 -->
      <g transform="translate(26.81375 105.4355)scale(0.12 -0.12)">
       <use xlink:href="#DejaVuSans-30"/>
       <use xlink:href="#DejaVuSans-2e" x="63.623047"/>
       <use xlink:href="#DejaVuSans-36" x="95.410156"/>
      </g>
     </g>
    </g>
    <g id="ytick_5">
     <g id="line2d_21">
      <g>
       <use xlink:href="#m31d3711fd6" x="49.3975" y="56.31775" style="fill: #ffffff; stroke: #000000; stroke-width: 2"/>
      </g>
     </g>
     <g id="line2d_22">
      <g>
       <use xlink:href="#m1815dff2b6" x="341.28" y="56.31775" style="fill: #ffffff; stroke: #000000; stroke-width: 2"/>
      </g>
     </g>
     <g id="text_12">
      <!-- 0.8 -->
      <g transform="translate(26.81375 60.876812)scale(0.12 -0.12)">
       <use xlink:href="#DejaVuSans-30"/>
       <use xlink:href="#DejaVuSans-2e" x="63.623047"/>
       <use xlink:href="#DejaVuSans-38" x="95.410156"/>
      </g>
     </g>
    </g>
    <g id="ytick_6">
     <g id="line2d_23">
      <g>
       <use xlink:href="#m31d3711fd6" x="49.3975" y="11.759062" style="fill: #ffffff; stroke: #000000; stroke-width: 2"/>
      </g>
     </g>
     <g id="line2d_24">
      <g>
       <use xlink:href="#m1815dff2b6" x="341.28" y="11.759062" style="fill: #ffffff; stroke: #000000; stroke-width: 2"/>
      </g>
     </g>
     <g id="text_13">
      <!-- 1.0 -->
      <g transform="translate(26.81375 16.318125)scale(0.12 -0.12)">
       <use xlink:href="#DejaVuSans-31"/>
       <use xlink:href="#DejaVuSans-2e" x="63.623047"/>
       <use xlink:href="#DejaVuSans-30" x="95.410156"/>
      </g>
     </g>
    </g>
    <g id="text_14">
     <!-- Porosity of slice -->
     <g transform="translate(16.318125 169.973594)rotate(-90)scale(0.12 -0.12)">
      <defs>
       <path id="DejaVuSans-50" d="M 1259 4147 
L 1259 2394 
L 2053 2394 
Q 2494 2394 2734 2622 
Q 2975 2850 2975 3272 
Q 2975 3691 2734 3919 
Q 2494 4147 2053 4147 
L 1259 4147 
z
M 628 4666 
L 2053 4666 
Q 2838 4666 3239 4311 
Q 3641 3956 3641 3272 
Q 3641 2581 3239 2228 
Q 2838 1875 2053 1875 
L 1259 1875 
L 1259 0 
L 628 0 
L 628 4666 
z
" transform="scale(0.015625)"/>
       <path id="DejaVuSans-79" d="M 2059 -325 
Q 1816 -950 1584 -1140 
Q 1353 -1331 966 -1331 
L 506 -1331 
L 506 -850 
L 844 -850 
Q 1081 -850 1212 -737 
Q 1344 -625 1503 -206 
L 1606 56 
L 191 3500 
L 800 3500 
L 1894 763 
L 2988 3500 
L 3597 3500 
L 2059 -325 
z
" transform="scale(0.015625)"/>
       <path id="DejaVuSans-66" d="M 2375 4863 
L 2375 4384 
L 1825 4384 
Q 1516 4384 1395 4259 
Q 1275 4134 1275 3809 
L 1275 3500 
L 2222 3500 
L 2222 3053 
L 1275 3053 
L 1275 0 
L 697 0 
L 697 3053 
L 147 3053 
L 147 3500 
L 697 3500 
L 697 3744 
Q 697 4328 969 4595 
Q 1241 4863 1831 4863 
L 2375 4863 
z
" transform="scale(0.015625)"/>
      </defs>
      <use xlink:href="#DejaVuSans-50"/>
      <use xlink:href="#DejaVuSans-6f" x="56.677734"/>
      <use xlink:href="#DejaVuSans-72" x="117.859375"/>
      <use xlink:href="#DejaVuSans-6f" x="156.722656"/>
      <use xlink:href="#DejaVuSans-73" x="217.904297"/>
      <use xlink:href="#DejaVuSans-69" x="270.003906"/>
      <use xlink:href="#DejaVuSans-74" x="297.787109"/>
      <use xlink:href="#DejaVuSans-79" x="336.996094"/>
      <use xlink:href="#DejaVuSans-20" x="396.175781"/>
      <use xlink:href="#DejaVuSans-6f" x="427.962891"/>
      <use xlink:href="#DejaVuSans-66" x="489.144531"/>
      <use xlink:href="#DejaVuSans-20" x="524.349609"/>
      <use xlink:href="#DejaVuSans-73" x="556.136719"/>
      <use xlink:href="#DejaVuSans-6c" x="608.236328"/>
      <use xlink:href="#DejaVuSans-69" x="636.019531"/>
      <use xlink:href="#DejaVuSans-63" x="663.802734"/>
      <use xlink:href="#DejaVuSans-65" x="718.783203"/>
     </g>
    </g>
   </g>
   <g id="line2d_25">
    <path d="M 62.664886 126.748325 
L 66.665103 126.456837 
L 67.998509 126.042813 
L 70.66532 124.55938 
L 73.332132 123.137215 
L 77.332349 120.196342 
L 78.665754 120.185202 
L 81.332566 120.883288 
L 82.665971 121.456981 
L 83.999377 122.268321 
L 85.332783 122.08266 
L 90.666405 120.073805 
L 91.999811 119.141786 
L 93.333217 117.598942 
L 97.333434 111.761754 
L 98.666839 110.558669 
L 100.000245 110.150214 
L 101.333651 110.161354 
L 102.667056 110.517824 
L 105.333868 112.166495 
L 106.667273 112.404141 
L 109.334085 112.515538 
L 110.66749 113.00197 
L 112.000896 113.789174 
L 113.334302 115.16121 
L 114.667707 116.161924 
L 116.001113 116.176777 
L 117.334519 116.917565 
L 118.667924 118.300741 
L 120.00133 119.065665 
L 122.668141 120.732903 
L 125.334953 121.993542 
L 128.001764 121.534959 
L 129.33517 121.638929 
L 130.668575 121.889572 
L 134.668792 123.040671 
L 140.002415 126.02796 
L 141.335821 127.03053 
L 142.669226 127.747183 
L 144.002632 128.30231 
L 145.336038 129.137785 
L 148.002849 130.047525 
L 150.66966 130.175631 
L 152.003066 129.835871 
L 154.669877 128.772032 
L 156.003283 128.326446 
L 157.336689 127.728617 
L 158.670094 127.286743 
L 160.0035 126.323161 
L 161.336906 125.043956 
L 162.670311 123.954124 
L 164.003717 123.066664 
L 165.337123 123.049954 
L 166.670528 123.265321 
L 168.003934 123.662636 
L 169.33734 123.755467 
L 170.670745 124.048812 
L 172.004151 124.626218 
L 174.670962 125.398569 
L 176.004368 125.541528 
L 178.671179 124.531531 
L 180.004585 123.54567 
L 181.337991 121.978689 
L 182.671396 120.660495 
L 185.338208 119.030389 
L 186.671613 118.042672 
L 188.005019 117.376148 
L 192.005236 116.202769 
L 193.338642 116.163781 
L 194.672047 115.900142 
L 198.672264 114.819593 
L 200.00567 114.606083 
L 201.339075 114.684061 
L 202.672481 114.581947 
L 204.005887 114.112224 
L 205.339292 113.469837 
L 208.006104 113.596086 
L 209.339509 113.876435 
L 210.672915 115.064666 
L 214.673132 117.821735 
L 216.006538 118.588516 
L 217.339943 119.021106 
L 218.673349 119.208624 
L 221.34016 118.857725 
L 222.673566 118.970978 
L 228.007189 118.885574 
L 230.674 117.416994 
L 232.007406 116.783889 
L 233.340811 116.696628 
L 234.674217 116.796885 
L 236.007623 117.131075 
L 237.341028 117.639787 
L 238.674434 118.681346 
L 241.341245 119.91785 
L 244.008057 121.226761 
L 245.341462 121.969406 
L 246.674868 122.205196 
L 249.341679 121.239758 
L 250.675085 120.523105 
L 252.008491 120.006967 
L 253.341896 119.990258 
L 254.675302 120.957553 
L 257.342113 123.386001 
L 258.675519 123.99497 
L 260.008925 124.163922 
L 261.34233 124.852725 
L 262.675736 125.378146 
L 264.009142 125.56752 
L 265.342547 125.517392 
L 266.675953 125.753181 
L 268.009359 126.128217 
L 272.009576 126.549668 
L 273.342981 127.056523 
L 274.676387 127.747183 
L 276.009793 128.881573 
L 280.01001 134.000252 
L 282.676821 138.107078 
L 284.010227 139.610933 
L 285.343632 140.853007 
L 286.677038 142.687339 
L 288.010444 143.864431 
L 289.343849 144.341581 
L 292.010661 144.91713 
L 293.344066 145.143637 
L 294.677472 145.143637 
L 296.010878 144.800164 
L 297.344283 143.416988 
L 300.011095 139.360291 
L 301.3445 136.852008 
L 302.677906 134.943411 
L 304.011312 133.435842 
L 305.344717 132.295882 
L 309.344934 127.860436 
L 310.67834 126.757608 
L 312.011746 126.000111 
L 313.345151 124.967835 
L 314.678557 124.399711 
L 316.011963 123.703482 
L 318.678774 122.634073 
L 320.01218 122.450269 
L 321.345585 122.414993 
L 322.678991 122.585801 
L 326.679208 122.275747 
L 328.012614 122.277604 
L 328.012614 122.277604 
" clip-path="url(#pbd0d3d11c7)" style="fill: none; stroke: #0000ff; stroke-opacity: 0.5; stroke-width: 2; stroke-linecap: square"/>
   </g>
   <g id="line2d_26">
    <path d="M 62.664886 104.53025 
L 63.552337 104.396574 
L 64.439788 104.148716 
L 65.327238 103.666925 
L 67.98959 101.600516 
L 69.764491 100.753901 
L 72.426843 101.018468 
L 73.314293 100.979479 
L 74.201744 101.400002 
L 75.976645 103.17678 
L 76.864096 103.853515 
L 77.751546 104.363155 
L 78.638997 104.276822 
L 80.413898 102.750687 
L 81.301349 102.296746 
L 82.188799 102.001544 
L 83.07625 102.32738 
L 83.963701 102.962341 
L 84.851151 103.83402 
L 85.738602 104.54139 
L 87.513503 108.117224 
L 88.400954 109.997044 
L 89.288404 111.481405 
L 91.950756 117.034532 
L 93.725657 122.02232 
L 95.500558 125.690057 
L 97.275459 127.60051 
L 98.16291 128.934486 
L 99.050361 130.026174 
L 99.937811 130.485685 
L 100.825262 131.1847 
L 101.712712 132.048024 
L 102.600163 132.677416 
L 103.487614 133.766319 
L 105.262515 136.718332 
L 106.149965 138.603721 
L 107.037416 140.18277 
L 108.812317 141.268888 
L 110.587218 141.463832 
L 111.474669 141.176985 
L 113.24957 139.893138 
L 114.137021 139.542239 
L 115.024471 138.414347 
L 115.911922 137.088726 
L 116.799373 135.325873 
L 117.686823 134.092154 
L 118.574274 132.307022 
L 121.236625 128.054452 
L 123.011527 126.659208 
L 123.898977 126.194127 
L 125.673878 125.56752 
L 126.561329 125.642713 
L 127.44878 125.857152 
L 128.33623 126.286029 
L 130.111131 128.697768 
L 130.998582 129.444126 
L 131.886033 129.856294 
L 132.773483 130.931272 
L 133.660934 132.315376 
L 134.548384 133.287313 
L 137.210736 137.386712 
L 138.098187 137.673559 
L 138.985637 137.773816 
L 140.760539 136.623645 
L 141.647989 135.518032 
L 142.53544 133.947338 
L 146.085242 128.566877 
L 146.972693 126.806809 
L 147.860143 125.600939 
L 148.747594 124.673562 
L 149.635044 124.420134 
L 150.522495 124.56495 
L 151.409946 124.297598 
L 153.184847 124.188986 
L 154.959748 123.172491 
L 156.734649 121.610152 
L 158.50955 119.371078 
L 159.397001 118.424206 
L 162.059353 117.340873 
L 162.946803 117.755825 
L 164.721705 119.176133 
L 165.609155 119.393357 
L 166.496606 119.449055 
L 167.384056 119.928061 
L 168.271507 120.226048 
L 169.158958 121.005825 
L 170.046408 122.133716 
L 170.933859 122.451197 
L 171.821309 123.01375 
L 174.483661 124.331017 
L 175.371112 125.252824 
L 178.033463 129.12386 
L 178.920914 130.262892 
L 179.808365 131.103937 
L 180.695815 131.549524 
L 181.583266 131.655351 
L 182.470716 131.067733 
L 183.358167 130.819875 
L 184.245618 130.276816 
L 185.133068 129.221333 
L 186.020519 128.778531 
L 186.907969 128.747897 
L 187.79542 128.313449 
L 188.682871 127.636714 
L 189.570321 126.745541 
L 192.232673 122.676775 
L 193.120124 121.963836 
L 194.007574 121.482046 
L 194.895025 120.167564 
L 195.782475 119.499184 
L 196.669926 119.29867 
L 197.557376 119.46298 
L 198.444827 120.284531 
L 200.219728 122.707409 
L 201.107179 124.122148 
L 201.994629 125.032816 
L 202.88208 124.720905 
L 204.656981 125.656638 
L 205.544432 126.327803 
L 207.319333 126.453124 
L 209.094234 127.007323 
L 209.981685 126.75111 
L 211.756586 125.302953 
L 212.644037 124.169491 
L 213.531487 122.802097 
L 215.306388 118.713837 
L 216.193839 116.747685 
L 217.96874 114.035175 
L 219.743641 111.940917 
L 220.631092 111.188989 
L 221.518542 111.097086 
L 222.405993 111.297601 
L 223.293444 111.709768 
L 224.180894 112.687275 
L 225.068345 113.957197 
L 225.955795 115.853726 
L 226.843246 117.443914 
L 229.505598 121.189629 
L 231.280499 125.180417 
L 233.942851 131.098367 
L 234.830301 132.131572 
L 235.717752 132.496396 
L 236.605203 133.086799 
L 237.492653 133.025531 
L 238.380104 132.429558 
L 240.155005 130.352009 
L 241.929906 128.146354 
L 242.817357 126.92656 
L 243.704807 125.962979 
L 245.479708 124.576089 
L 246.367159 123.414779 
L 247.25461 122.963622 
L 249.029511 123.191985 
L 249.916961 123.152996 
L 252.579313 120.025533 
L 255.241665 115.207625 
L 256.129116 113.990616 
L 257.016566 113.1997 
L 257.904017 112.910068 
L 259.678918 111.227978 
L 260.566369 110.342374 
L 261.453819 109.891217 
L 262.34127 109.994259 
L 263.22872 110.960625 
L 264.116171 112.205484 
L 266.778523 117.427205 
L 268.553424 120.579732 
L 270.328325 124.255824 
L 272.103226 126.856937 
L 272.990677 126.692627 
L 273.878127 126.712121 
L 275.653029 127.60608 
L 276.540479 128.293955 
L 277.42793 128.837014 
L 278.31538 128.689413 
L 279.202831 127.915206 
L 280.090282 127.711907 
L 280.977732 128.015463 
L 281.865183 128.012678 
L 282.752633 127.408351 
L 283.640084 127.193912 
L 284.527535 127.349868 
L 285.414985 127.127074 
L 286.302436 127.218977 
L 287.189886 127.4362 
L 288.077337 127.416706 
L 289.852238 126.09944 
L 290.739689 124.988257 
L 291.627139 123.208695 
L 292.51459 122.816021 
L 294.289491 123.417564 
L 297.839293 126.216406 
L 301.389096 131.418633 
L 302.276546 132.279173 
L 303.163997 132.234614 
L 304.938898 132.396139 
L 306.713799 133.195411 
L 308.488701 133.693911 
L 309.376151 133.679986 
L 311.151052 132.153851 
L 312.038503 131.652566 
L 312.925954 130.697339 
L 313.813404 129.458051 
L 316.475756 124.773819 
L 317.363207 122.601583 
L 318.250657 121.139501 
L 320.025558 119.184488 
L 320.913009 118.627505 
L 323.575361 118.621935 
L 325.350262 118.173563 
L 326.237712 118.056596 
L 328.012614 118.087231 
L 328.012614 118.087231 
" clip-path="url(#pbd0d3d11c7)" style="fill: none; stroke: #ff0000; stroke-opacity: 0.5; stroke-width: 2; stroke-linecap: square"/>
   </g>
   <g id="line2d_27">
    <path d="M 62.664886 124.262322 
L 65.325014 125.01982 
L 65.990046 125.380002 
L 66.655078 125.120077 
L 67.985142 125.22776 
L 68.650173 124.466549 
L 69.315205 123.905852 
L 71.310301 121.039244 
L 71.975333 119.980975 
L 72.640365 118.384288 
L 73.970429 116.579662 
L 74.635461 115.859296 
L 75.300492 115.447128 
L 75.965524 115.272607 
L 76.630556 115.291173 
L 77.295588 115.584518 
L 79.290684 117.63793 
L 79.955716 118.751898 
L 81.28578 121.544242 
L 81.950811 124.217763 
L 83.280875 128.034958 
L 83.945907 129.757893 
L 84.610939 131.098367 
L 86.606035 137.262319 
L 87.271067 138.35772 
L 87.936098 138.24261 
L 88.60113 137.800737 
L 89.266162 135.788169 
L 89.931194 134.180343 
L 91.261258 129.048668 
L 92.591322 122.75104 
L 93.256354 120.218621 
L 95.916481 112.380005 
L 98.576609 107.445131 
L 99.241641 107.021823 
L 99.906673 106.951272 
L 100.571705 107.534248 
L 101.236736 108.685347 
L 101.901768 110.263468 
L 102.5668 111.236332 
L 103.896864 112.376292 
L 105.226928 113.00754 
L 105.89196 112.855298 
L 106.556992 113.040959 
L 107.222024 114.13636 
L 108.552087 115.432275 
L 109.217119 116.683632 
L 110.547183 119.854725 
L 111.877247 121.362294 
L 112.542279 122.372291 
L 113.207311 123.159494 
L 113.872343 123.374861 
L 114.537374 122.583945 
L 115.867438 119.932703 
L 116.53247 118.413994 
L 118.527566 111.618794 
L 119.192598 109.929278 
L 119.85763 108.793031 
L 120.522661 107.240903 
L 121.187693 106.134363 
L 121.852725 105.272895 
L 122.517757 103.887862 
L 123.182789 102.046103 
L 123.847821 100.657357 
L 125.177885 99.183207 
L 125.842917 98.470268 
L 126.507949 98.42571 
L 127.17298 98.700488 
L 127.838012 99.365155 
L 129.168076 101.151216 
L 129.833108 102.580807 
L 131.163172 103.702201 
L 131.828204 104.545103 
L 132.493236 104.637933 
L 133.158268 105.31374 
L 134.488331 107.233477 
L 135.818395 110.664496 
L 137.148459 115.439702 
L 137.813491 117.582232 
L 138.478523 118.930132 
L 139.143555 120.010681 
L 139.808587 120.623363 
L 140.473618 120.909281 
L 141.13865 120.775605 
L 141.803682 120.181489 
L 143.133746 118.573663 
L 143.798778 118.477119 
L 144.46381 119.067522 
L 145.128842 119.825019 
L 145.793874 120.950126 
L 147.123937 122.561665 
L 147.788969 123.09637 
L 148.454001 124.414564 
L 149.119033 125.030959 
L 149.784065 126.089228 
L 150.449097 126.779888 
L 151.779161 128.788742 
L 152.444193 130.300024 
L 153.109224 131.076088 
L 153.774256 132.323731 
L 154.439288 134.016961 
L 155.769352 135.338869 
L 156.434384 135.53567 
L 157.099416 135.598795 
L 157.764448 135.090083 
L 158.42948 134.815304 
L 159.094512 134.670489 
L 161.089607 135.268318 
L 161.754639 134.38457 
L 162.419671 132.888141 
L 164.414767 129.821018 
L 165.744831 127.140071 
L 166.409862 126.742756 
L 167.074894 126.074375 
L 167.739926 125.877574 
L 168.404958 126.048383 
L 169.06999 127.099225 
L 171.730118 133.352294 
L 173.725213 140.273744 
L 174.390245 141.736754 
L 175.055277 142.353149 
L 177.050373 141.577085 
L 178.380437 140.169773 
L 179.045469 139.698194 
L 180.375532 138.079228 
L 181.705596 137.34401 
L 182.370628 138.042096 
L 184.365724 142.928699 
L 185.030756 143.890424 
L 185.695787 144.395422 
L 186.360819 144.555091 
L 187.025851 144.915274 
L 187.690883 144.313731 
L 189.020947 143.489396 
L 191.016043 140.73047 
L 191.681075 139.137497 
L 192.346106 137.180628 
L 193.67617 134.655636 
L 195.671266 129.163778 
L 197.666362 125.506252 
L 198.331394 124.834158 
L 199.661457 124.139786 
L 200.991521 122.483688 
L 202.321585 121.15064 
L 203.651649 118.770464 
L 204.316681 117.76418 
L 205.646744 114.507683 
L 206.311776 113.739045 
L 206.976808 113.156069 
L 207.64184 112.755041 
L 208.306872 112.209197 
L 209.636936 110.775893 
L 210.301968 110.616224 
L 212.297063 109.168067 
L 212.962095 109.197772 
L 213.627127 109.060383 
L 214.292159 108.618509 
L 215.622223 107.162926 
L 216.287255 107.266896 
L 216.952287 107.567667 
L 217.617319 108.325165 
L 218.28235 108.859869 
L 218.947382 109.751043 
L 219.612414 110.207769 
L 220.277446 111.10637 
L 221.60751 112.034675 
L 222.272542 112.573093 
L 223.602606 114.192059 
L 224.267638 115.16121 
L 225.597701 118.12065 
L 226.262733 119.899284 
L 228.922861 129.980687 
L 229.587893 132.048953 
L 230.252925 133.389426 
L 231.582988 134.915562 
L 232.24802 134.796738 
L 232.913052 134.054094 
L 234.243116 130.76789 
L 237.568276 119.68763 
L 238.898339 115.016394 
L 240.228403 111.711625 
L 240.893435 110.218909 
L 241.558467 109.413139 
L 242.223499 109.097515 
L 243.553563 111.466552 
L 244.218594 113.02982 
L 246.21369 116.824734 
L 248.208786 120.029247 
L 248.873818 120.604796 
L 249.53885 120.708767 
L 250.203882 121.016964 
L 250.868913 121.04667 
L 251.533945 121.521963 
L 252.198977 121.804168 
L 252.864009 122.312879 
L 253.529041 123.653353 
L 254.194073 126.12636 
L 256.854201 131.80388 
L 257.519232 132.665348 
L 258.849296 132.973545 
L 260.17936 132.182629 
L 260.844392 132.591083 
L 262.174456 132.825016 
L 262.839488 132.442554 
L 263.50452 131.922703 
L 264.169551 131.996967 
L 264.834583 132.282886 
L 265.499615 132.160349 
L 266.829679 131.766748 
L 267.494711 132.279173 
L 268.159743 132.342297 
L 268.824775 132.657921 
L 270.154839 131.57366 
L 270.81987 131.391712 
L 271.484902 130.90528 
L 272.149934 130.797596 
L 272.814966 131.172632 
L 273.479998 132.372003 
L 274.14503 133.211192 
L 274.810062 133.62336 
L 275.475094 133.723617 
L 276.140126 134.102365 
L 276.805157 134.161777 
L 277.470189 134.068946 
L 278.800253 133.110935 
L 279.465285 132.80645 
L 280.130317 132.245753 
L 280.795349 131.11322 
L 281.460381 129.561093 
L 282.790445 125.424561 
L 284.120508 121.481117 
L 285.450572 119.149213 
L 286.115604 118.410281 
L 287.445668 116.148928 
L 288.1107 115.231761 
L 289.440764 113.991545 
L 290.105795 113.568237 
L 290.770827 112.959268 
L 291.435859 112.703056 
L 292.100891 113.564524 
L 294.095987 118.031532 
L 294.761019 119.539101 
L 295.426051 120.71248 
L 296.091083 122.134645 
L 296.756114 124.440557 
L 297.421146 126.111508 
L 298.086178 126.668491 
L 298.75121 126.579374 
L 300.081274 127.114078 
L 302.741402 125.936986 
L 303.406433 125.428274 
L 304.736497 124.815592 
L 305.401529 125.758751 
L 306.066561 127.344298 
L 306.731593 129.356865 
L 308.061657 131.347153 
L 310.056752 135.327729 
L 310.721784 136.34144 
L 311.386816 136.935555 
L 313.381912 140.184626 
L 314.046944 140.422273 
L 314.711976 139.943267 
L 315.377008 139.25632 
L 316.707071 136.586512 
L 318.037135 133.196339 
L 319.367199 127.555952 
L 322.027327 113.170922 
L 322.692358 110.861297 
L 323.35739 109.788175 
L 324.022422 109.602514 
L 324.687454 109.557955 
L 325.352486 109.624793 
L 326.68255 110.233762 
L 328.012614 110.486261 
L 328.012614 110.486261 
" clip-path="url(#pbd0d3d11c7)" style="fill: none; stroke: #008000; stroke-opacity: 0.5; stroke-width: 2; stroke-linecap: square"/>
   </g>
   <g id="patch_3">
    <path d="M 49.3975 234.5525 
L 49.3975 11.759062 
" style="fill: none; stroke: #000000; stroke-width: 2; stroke-linejoin: miter; stroke-linecap: square"/>
   </g>
   <g id="patch_4">
    <path d="M 341.28 234.5525 
L 341.28 11.759062 
" style="fill: none; stroke: #000000; stroke-width: 2; stroke-linejoin: miter; stroke-linecap: square"/>
   </g>
   <g id="patch_5">
    <path d="M 49.3975 234.5525 
L 341.28 234.5525 
" style="fill: none; stroke: #000000; stroke-width: 2; stroke-linejoin: miter; stroke-linecap: square"/>
   </g>
   <g id="patch_6">
    <path d="M 49.3975 11.759062 
L 341.28 11.759062 
" style="fill: none; stroke: #000000; stroke-width: 2; stroke-linejoin: miter; stroke-linecap: square"/>
   </g>
   <g id="legend_1">
    <g id="line2d_28">
     <path d="M 245.26125 27.477188 
L 257.26125 27.477188 
L 269.26125 27.477188 
" style="fill: none; stroke: #0000ff; stroke-opacity: 0.5; stroke-width: 2; stroke-linecap: square"/>
    </g>
    <g id="text_15">
     <!-- yz-plane -->
     <g transform="translate(278.86125 31.677188)scale(0.12 -0.12)">
      <defs>
       <path id="DejaVuSans-7a" d="M 353 3500 
L 3084 3500 
L 3084 2975 
L 922 459 
L 3084 459 
L 3084 0 
L 275 0 
L 275 525 
L 2438 3041 
L 353 3041 
L 353 3500 
z
" transform="scale(0.015625)"/>
       <path id="DejaVuSans-2d" d="M 313 2009 
L 1997 2009 
L 1997 1497 
L 313 1497 
L 313 2009 
z
" transform="scale(0.015625)"/>
       <path id="DejaVuSans-70" d="M 1159 525 
L 1159 -1331 
L 581 -1331 
L 581 3500 
L 1159 3500 
L 1159 2969 
Q 1341 3281 1617 3432 
Q 1894 3584 2278 3584 
Q 2916 3584 3314 3078 
Q 3713 2572 3713 1747 
Q 3713 922 3314 415 
Q 2916 -91 2278 -91 
Q 1894 -91 1617 61 
Q 1341 213 1159 525 
z
M 3116 1747 
Q 3116 2381 2855 2742 
Q 2594 3103 2138 3103 
Q 1681 3103 1420 2742 
Q 1159 2381 1159 1747 
Q 1159 1113 1420 752 
Q 1681 391 2138 391 
Q 2594 391 2855 752 
Q 3116 1113 3116 1747 
z
" transform="scale(0.015625)"/>
      </defs>
      <use xlink:href="#DejaVuSans-79"/>
      <use xlink:href="#DejaVuSans-7a" x="59.179688"/>
      <use xlink:href="#DejaVuSans-2d" x="111.669922"/>
      <use xlink:href="#DejaVuSans-70" x="147.753906"/>
      <use xlink:href="#DejaVuSans-6c" x="211.230469"/>
      <use xlink:href="#DejaVuSans-61" x="239.013672"/>
      <use xlink:href="#DejaVuSans-6e" x="300.292969"/>
      <use xlink:href="#DejaVuSans-65" x="363.671875"/>
     </g>
    </g>
    <g id="line2d_29">
     <path d="M 245.26125 45.090938 
L 257.26125 45.090938 
L 269.26125 45.090938 
" style="fill: none; stroke: #ff0000; stroke-opacity: 0.5; stroke-width: 2; stroke-linecap: square"/>
    </g>
    <g id="text_16">
     <!-- xz-plane -->
     <g transform="translate(278.86125 49.290938)scale(0.12 -0.12)">
      <use xlink:href="#DejaVuSans-78"/>
      <use xlink:href="#DejaVuSans-7a" x="59.179688"/>
      <use xlink:href="#DejaVuSans-2d" x="111.669922"/>
      <use xlink:href="#DejaVuSans-70" x="147.753906"/>
      <use xlink:href="#DejaVuSans-6c" x="211.230469"/>
      <use xlink:href="#DejaVuSans-61" x="239.013672"/>
      <use xlink:href="#DejaVuSans-6e" x="300.292969"/>
      <use xlink:href="#DejaVuSans-65" x="363.671875"/>
     </g>
    </g>
    <g id="line2d_30">
     <path d="M 245.26125 62.704687 
L 257.26125 62.704687 
L 269.26125 62.704687 
" style="fill: none; stroke: #008000; stroke-opacity: 0.5; stroke-width: 2; stroke-linecap: square"/>
    </g>
    <g id="text_17">
     <!-- xy-plane -->
     <g transform="translate(278.86125 66.904687)scale(0.12 -0.12)">
      <use xlink:href="#DejaVuSans-78"/>
      <use xlink:href="#DejaVuSans-79" x="59.179688"/>
      <use xlink:href="#DejaVuSans-2d" x="116.609375"/>
      <use xlink:href="#DejaVuSans-70" x="152.693359"/>
      <use xlink:href="#DejaVuSans-6c" x="216.169922"/>
      <use xlink:href="#DejaVuSans-61" x="243.953125"/>
      <use xlink:href="#DejaVuSans-6e" x="305.232422"/>
      <use xlink:href="#DejaVuSans-65" x="368.611328"/>
     </g>
    </g>
   </g>
  </g>
 </g>
 <defs>
  <clipPath id="pbd0d3d11c7">
   <rect x="49.3975" y="11.759062" width="291.8825" height="222.793437"/>
  </clipPath>
 </defs>
</svg>
