<?xml version="1.0" encoding="utf-8" standalone="no"?>
<!DOCTYPE svg PUBLIC "-//W3C//DTD SVG 1.1//EN"
  "http://www.w3.org/Graphics/SVG/1.1/DTD/svg11.dtd">
<svg xmlns:xlink="http://www.w3.org/1999/xlink" width="348.48pt" height="276.48pt" viewBox="0 0 348.48 276.48" xmlns="http://www.w3.org/2000/svg" version="1.1">
 <metadata>
  <rdf:RDF xmlns:dc="http://purl.org/dc/elements/1.1/" xmlns:cc="http://creativecommons.org/ns#" xmlns:rdf="http://www.w3.org/1999/02/22-rdf-syntax-ns#">
   <cc:Work>
    <dc:type rdf:resource="http://purl.org/dc/dcmitype/StillImage"/>
    <dc:date>2022-08-23T01:45:30.072986</dc:date>
    <dc:format>image/svg+xml</dc:format>
    <dc:creator>
     <cc:Agent>
      <dc:title>Matplotlib v3.5.3, https://matplotlib.org/</dc:title>
     </cc:Agent>
    </dc:creator>
   </cc:Work>
  </rdf:RDF>
 </metadata>
 <defs>
  <style type="text/css">*{stroke-linejoin: round; stroke-linecap: butt}</style>
 </defs>
 <g id="figure_1">
  <g id="patch_1">
   <path d="M 0 276.48 
L 348.48 276.48 
L 348.48 0 
L 0 0 
z
" style="fill: #ffffff"/>
  </g>
  <g id="axes_1">
   <g id="patch_2">
    <path d="M 49.3975 234.5525 
L 341.28 234.5525 
L 341.28 11.759062 
L 49.3975 11.759062 
z
" style="fill: #ffffff"/>
   </g>
   <g id="matplotlib.axis_1">
    <g id="xtick_1">
     <g id="line2d_1">
      <defs>
       <path id="m98070f6bdb" d="M 0 0 
L 0 -6 
" style="stroke: #000000; stroke-width: 2"/>
      </defs>
      <g>
       <use xlink:href="#m98070f6bdb" x="62.664886" y="234.5525" style="fill: #ffffff; stroke: #000000; stroke-width: 2"/>
      </g>
     </g>
     <g id="line2d_2">
      <defs>
       <path id="m79fccc5e7f" d="M 0 0 
L 0 6 
" style="stroke: #000000; stroke-width: 2"/>
      </defs>
      <g>
       <use xlink:href="#m79fccc5e7f" x="62.664886" y="11.759062" style="fill: #ffffff; stroke: #000000; stroke-width: 2"/>
      </g>
     </g>
     <g id="text_1">
      <!-- 0 -->
      <g transform="translate(58.847386 247.170625)scale(0.12 -0.12)">
       <defs>
        <path id="DejaVuSans-30" d="M 2034 4250 
Q 1547 4250 1301 3770 
Q 1056 3291 1056 2328 
Q 1056 1369 1301 889 
Q 1547 409 2034 409 
Q 2525 409 2770 889 
Q 3016 1369 3016 2328 
Q 3016 3291 2770 3770 
Q 2525 4250 2034 4250 
z
M 2034 4750 
Q 2819 4750 3233 4129 
Q 3647 3509 3647 2328 
Q 3647 1150 3233 529 
Q 2819 -91 2034 -91 
Q 1250 -91 836 529 
Q 422 1150 422 2328 
Q 422 3509 836 4129 
Q 1250 4750 2034 4750 
z
" transform="scale(0.015625)"/>
       </defs>
       <use xlink:href="#DejaVuSans-30"/>
      </g>
     </g>
    </g>
    <g id="xtick_2">
     <g id="line2d_3">
      <g>
       <use xlink:href="#m98070f6bdb" x="118.882625" y="234.5525" style="fill: #ffffff; stroke: #000000; stroke-width: 2"/>
      </g>
     </g>
     <g id="line2d_4">
      <g>
       <use xlink:href="#m79fccc5e7f" x="118.882625" y="11.759062" style="fill: #ffffff; stroke: #000000; stroke-width: 2"/>
      </g>
     </g>
     <g id="text_2">
      <!-- 500 -->
      <g transform="translate(107.430125 247.170625)scale(0.12 -0.12)">
       <defs>
        <path id="DejaVuSans-35" d="M 691 4666 
L 3169 4666 
L 3169 4134 
L 1269 4134 
L 1269 2991 
Q 1406 3038 1543 3061 
Q 1681 3084 1819 3084 
Q 2600 3084 3056 2656 
Q 3513 2228 3513 1497 
Q 3513 744 3044 326 
Q 2575 -91 1722 -91 
Q 1428 -91 1123 -41 
Q 819 9 494 109 
L 494 744 
Q 775 591 1075 516 
Q 1375 441 1709 441 
Q 2250 441 2565 725 
Q 2881 1009 2881 1497 
Q 2881 1984 2565 2268 
Q 2250 2553 1709 2553 
Q 1456 2553 1204 2497 
Q 953 2441 691 2322 
L 691 4666 
z
" transform="scale(0.015625)"/>
       </defs>
       <use xlink:href="#DejaVuSans-35"/>
       <use xlink:href="#DejaVuSans-30" x="63.623047"/>
       <use xlink:href="#DejaVuSans-30" x="127.246094"/>
      </g>
     </g>
    </g>
    <g id="xtick_3">
     <g id="line2d_5">
      <g>
       <use xlink:href="#m98070f6bdb" x="175.100364" y="234.5525" style="fill: #ffffff; stroke: #000000; stroke-width: 2"/>
      </g>
     </g>
     <g id="line2d_6">
      <g>
       <use xlink:href="#m79fccc5e7f" x="175.100364" y="11.759062" style="fill: #ffffff; stroke: #000000; stroke-width: 2"/>
      </g>
     </g>
     <g id="text_3">
      <!-- 1000 -->
      <g transform="translate(159.830364 247.170625)scale(0.12 -0.12)">
       <defs>
        <path id="DejaVuSans-31" d="M 794 531 
L 1825 531 
L 1825 4091 
L 703 3866 
L 703 4441 
L 1819 4666 
L 2450 4666 
L 2450 531 
L 3481 531 
L 3481 0 
L 794 0 
L 794 531 
z
" transform="scale(0.015625)"/>
       </defs>
       <use xlink:href="#DejaVuSans-31"/>
       <use xlink:href="#DejaVuSans-30" x="63.623047"/>
       <use xlink:href="#DejaVuSans-30" x="127.246094"/>
       <use xlink:href="#DejaVuSans-30" x="190.869141"/>
      </g>
     </g>
    </g>
    <g id="xtick_4">
     <g id="line2d_7">
      <g>
       <use xlink:href="#m98070f6bdb" x="231.318103" y="234.5525" style="fill: #ffffff; stroke: #000000; stroke-width: 2"/>
      </g>
     </g>
     <g id="line2d_8">
      <g>
       <use xlink:href="#m79fccc5e7f" x="231.318103" y="11.759062" style="fill: #ffffff; stroke: #000000; stroke-width: 2"/>
      </g>
     </g>
     <g id="text_4">
      <!-- 1500 -->
      <g transform="translate(216.048103 247.170625)scale(0.12 -0.12)">
       <use xlink:href="#DejaVuSans-31"/>
       <use xlink:href="#DejaVuSans-35" x="63.623047"/>
       <use xlink:href="#DejaVuSans-30" x="127.246094"/>
       <use xlink:href="#DejaVuSans-30" x="190.869141"/>
      </g>
     </g>
    </g>
    <g id="xtick_5">
     <g id="line2d_9">
      <g>
       <use xlink:href="#m98070f6bdb" x="287.535842" y="234.5525" style="fill: #ffffff; stroke: #000000; stroke-width: 2"/>
      </g>
     </g>
     <g id="line2d_10">
      <g>
       <use xlink:href="#m79fccc5e7f" x="287.535842" y="11.759062" style="fill: #ffffff; stroke: #000000; stroke-width: 2"/>
      </g>
     </g>
     <g id="text_5">
      <!-- 2000 -->
      <g transform="translate(272.265842 247.170625)scale(0.12 -0.12)">
       <defs>
        <path id="DejaVuSans-32" d="M 1228 531 
L 3431 531 
L 3431 0 
L 469 0 
L 469 531 
Q 828 903 1448 1529 
Q 2069 2156 2228 2338 
Q 2531 2678 2651 2914 
Q 2772 3150 2772 3378 
Q 2772 3750 2511 3984 
Q 2250 4219 1831 4219 
Q 1534 4219 1204 4116 
Q 875 4013 500 3803 
L 500 4441 
Q 881 4594 1212 4672 
Q 1544 4750 1819 4750 
Q 2544 4750 2975 4387 
Q 3406 4025 3406 3419 
Q 3406 3131 3298 2873 
Q 3191 2616 2906 2266 
Q 2828 2175 2409 1742 
Q 1991 1309 1228 531 
z
" transform="scale(0.015625)"/>
       </defs>
       <use xlink:href="#DejaVuSans-32"/>
       <use xlink:href="#DejaVuSans-30" x="63.623047"/>
       <use xlink:href="#DejaVuSans-30" x="127.246094"/>
       <use xlink:href="#DejaVuSans-30" x="190.869141"/>
      </g>
     </g>
    </g>
    <g id="text_6">
     <!-- Position of slice along given axis -->
     <g transform="translate(98.045 266.784375)scale(0.12 -0.12)">
      <defs>
       <path id="DejaVuSans-50" d="M 1259 4147 
L 1259 2394 
L 2053 2394 
Q 2494 2394 2734 2622 
Q 2975 2850 2975 3272 
Q 2975 3691 2734 3919 
Q 2494 4147 2053 4147 
L 1259 4147 
z
M 628 4666 
L 2053 4666 
Q 2838 4666 3239 4311 
Q 3641 3956 3641 3272 
Q 3641 2581 3239 2228 
Q 2838 1875 2053 1875 
L 1259 1875 
L 1259 0 
L 628 0 
L 628 4666 
z
" transform="scale(0.015625)"/>
       <path id="DejaVuSans-6f" d="M 1959 3097 
Q 1497 3097 1228 2736 
Q 959 2375 959 1747 
Q 959 1119 1226 758 
Q 1494 397 1959 397 
Q 2419 397 2687 759 
Q 2956 1122 2956 1747 
Q 2956 2369 2687 2733 
Q 2419 3097 1959 3097 
z
M 1959 3584 
Q 2709 3584 3137 3096 
Q 3566 2609 3566 1747 
Q 3566 888 3137 398 
Q 2709 -91 1959 -91 
Q 1206 -91 779 398 
Q 353 888 353 1747 
Q 353 2609 779 3096 
Q 1206 3584 1959 3584 
z
" transform="scale(0.015625)"/>
       <path id="DejaVuSans-73" d="M 2834 3397 
L 2834 2853 
Q 2591 2978 2328 3040 
Q 2066 3103 1784 3103 
Q 1356 3103 1142 2972 
Q 928 2841 928 2578 
Q 928 2378 1081 2264 
Q 1234 2150 1697 2047 
L 1894 2003 
Q 2506 1872 2764 1633 
Q 3022 1394 3022 966 
Q 3022 478 2636 193 
Q 2250 -91 1575 -91 
Q 1294 -91 989 -36 
Q 684 19 347 128 
L 347 722 
Q 666 556 975 473 
Q 1284 391 1588 391 
Q 1994 391 2212 530 
Q 2431 669 2431 922 
Q 2431 1156 2273 1281 
Q 2116 1406 1581 1522 
L 1381 1569 
Q 847 1681 609 1914 
Q 372 2147 372 2553 
Q 372 3047 722 3315 
Q 1072 3584 1716 3584 
Q 2034 3584 2315 3537 
Q 2597 3491 2834 3397 
z
" transform="scale(0.015625)"/>
       <path id="DejaVuSans-69" d="M 603 3500 
L 1178 3500 
L 1178 0 
L 603 0 
L 603 3500 
z
M 603 4863 
L 1178 4863 
L 1178 4134 
L 603 4134 
L 603 4863 
z
" transform="scale(0.015625)"/>
       <path id="DejaVuSans-74" d="M 1172 4494 
L 1172 3500 
L 2356 3500 
L 2356 3053 
L 1172 3053 
L 1172 1153 
Q 1172 725 1289 603 
Q 1406 481 1766 481 
L 2356 481 
L 2356 0 
L 1766 0 
Q 1100 0 847 248 
Q 594 497 594 1153 
L 594 3053 
L 172 3053 
L 172 3500 
L 594 3500 
L 594 4494 
L 1172 4494 
z
" transform="scale(0.015625)"/>
       <path id="DejaVuSans-6e" d="M 3513 2113 
L 3513 0 
L 2938 0 
L 2938 2094 
Q 2938 2591 2744 2837 
Q 2550 3084 2163 3084 
Q 1697 3084 1428 2787 
Q 1159 2491 1159 1978 
L 1159 0 
L 581 0 
L 581 3500 
L 1159 3500 
L 1159 2956 
Q 1366 3272 1645 3428 
Q 1925 3584 2291 3584 
Q 2894 3584 3203 3211 
Q 3513 2838 3513 2113 
z
" transform="scale(0.015625)"/>
       <path id="DejaVuSans-20" transform="scale(0.015625)"/>
       <path id="DejaVuSans-66" d="M 2375 4863 
L 2375 4384 
L 1825 4384 
Q 1516 4384 1395 4259 
Q 1275 4134 1275 3809 
L 1275 3500 
L 2222 3500 
L 2222 3053 
L 1275 3053 
L 1275 0 
L 697 0 
L 697 3053 
L 147 3053 
L 147 3500 
L 697 3500 
L 697 3744 
Q 697 4328 969 4595 
Q 1241 4863 1831 4863 
L 2375 4863 
z
" transform="scale(0.015625)"/>
       <path id="DejaVuSans-6c" d="M 603 4863 
L 1178 4863 
L 1178 0 
L 603 0 
L 603 4863 
z
" transform="scale(0.015625)"/>
       <path id="DejaVuSans-63" d="M 3122 3366 
L 3122 2828 
Q 2878 2963 2633 3030 
Q 2388 3097 2138 3097 
Q 1578 3097 1268 2742 
Q 959 2388 959 1747 
Q 959 1106 1268 751 
Q 1578 397 2138 397 
Q 2388 397 2633 464 
Q 2878 531 3122 666 
L 3122 134 
Q 2881 22 2623 -34 
Q 2366 -91 2075 -91 
Q 1284 -91 818 406 
Q 353 903 353 1747 
Q 353 2603 823 3093 
Q 1294 3584 2113 3584 
Q 2378 3584 2631 3529 
Q 2884 3475 3122 3366 
z
" transform="scale(0.015625)"/>
       <path id="DejaVuSans-65" d="M 3597 1894 
L 3597 1613 
L 953 1613 
Q 991 1019 1311 708 
Q 1631 397 2203 397 
Q 2534 397 2845 478 
Q 3156 559 3463 722 
L 3463 178 
Q 3153 47 2828 -22 
Q 2503 -91 2169 -91 
Q 1331 -91 842 396 
Q 353 884 353 1716 
Q 353 2575 817 3079 
Q 1281 3584 2069 3584 
Q 2775 3584 3186 3129 
Q 3597 2675 3597 1894 
z
M 3022 2063 
Q 3016 2534 2758 2815 
Q 2500 3097 2075 3097 
Q 1594 3097 1305 2825 
Q 1016 2553 972 2059 
L 3022 2063 
z
" transform="scale(0.015625)"/>
       <path id="DejaVuSans-61" d="M 2194 1759 
Q 1497 1759 1228 1600 
Q 959 1441 959 1056 
Q 959 750 1161 570 
Q 1363 391 1709 391 
Q 2188 391 2477 730 
Q 2766 1069 2766 1631 
L 2766 1759 
L 2194 1759 
z
M 3341 1997 
L 3341 0 
L 2766 0 
L 2766 531 
Q 2569 213 2275 61 
Q 1981 -91 1556 -91 
Q 1019 -91 701 211 
Q 384 513 384 1019 
Q 384 1609 779 1909 
Q 1175 2209 1959 2209 
L 2766 2209 
L 2766 2266 
Q 2766 2663 2505 2880 
Q 2244 3097 1772 3097 
Q 1472 3097 1187 3025 
Q 903 2953 641 2809 
L 641 3341 
Q 956 3463 1253 3523 
Q 1550 3584 1831 3584 
Q 2591 3584 2966 3190 
Q 3341 2797 3341 1997 
z
" transform="scale(0.015625)"/>
       <path id="DejaVuSans-67" d="M 2906 1791 
Q 2906 2416 2648 2759 
Q 2391 3103 1925 3103 
Q 1463 3103 1205 2759 
Q 947 2416 947 1791 
Q 947 1169 1205 825 
Q 1463 481 1925 481 
Q 2391 481 2648 825 
Q 2906 1169 2906 1791 
z
M 3481 434 
Q 3481 -459 3084 -895 
Q 2688 -1331 1869 -1331 
Q 1566 -1331 1297 -1286 
Q 1028 -1241 775 -1147 
L 775 -588 
Q 1028 -725 1275 -790 
Q 1522 -856 1778 -856 
Q 2344 -856 2625 -561 
Q 2906 -266 2906 331 
L 2906 616 
Q 2728 306 2450 153 
Q 2172 0 1784 0 
Q 1141 0 747 490 
Q 353 981 353 1791 
Q 353 2603 747 3093 
Q 1141 3584 1784 3584 
Q 2172 3584 2450 3431 
Q 2728 3278 2906 2969 
L 2906 3500 
L 3481 3500 
L 3481 434 
z
" transform="scale(0.015625)"/>
       <path id="DejaVuSans-76" d="M 191 3500 
L 800 3500 
L 1894 563 
L 2988 3500 
L 3597 3500 
L 2284 0 
L 1503 0 
L 191 3500 
z
" transform="scale(0.015625)"/>
       <path id="DejaVuSans-78" d="M 3513 3500 
L 2247 1797 
L 3578 0 
L 2900 0 
L 1881 1375 
L 863 0 
L 184 0 
L 1544 1831 
L 300 3500 
L 978 3500 
L 1906 2253 
L 2834 3500 
L 3513 3500 
z
" transform="scale(0.015625)"/>
      </defs>
      <use xlink:href="#DejaVuSans-50"/>
      <use xlink:href="#DejaVuSans-6f" x="56.677734"/>
      <use xlink:href="#DejaVuSans-73" x="117.859375"/>
      <use xlink:href="#DejaVuSans-69" x="169.958984"/>
      <use xlink:href="#DejaVuSans-74" x="197.742188"/>
      <use xlink:href="#DejaVuSans-69" x="236.951172"/>
      <use xlink:href="#DejaVuSans-6f" x="264.734375"/>
      <use xlink:href="#DejaVuSans-6e" x="325.916016"/>
      <use xlink:href="#DejaVuSans-20" x="389.294922"/>
      <use xlink:href="#DejaVuSans-6f" x="421.082031"/>
      <use xlink:href="#DejaVuSans-66" x="482.263672"/>
      <use xlink:href="#DejaVuSans-20" x="517.46875"/>
      <use xlink:href="#DejaVuSans-73" x="549.255859"/>
      <use xlink:href="#DejaVuSans-6c" x="601.355469"/>
      <use xlink:href="#DejaVuSans-69" x="629.138672"/>
      <use xlink:href="#DejaVuSans-63" x="656.921875"/>
      <use xlink:href="#DejaVuSans-65" x="711.902344"/>
      <use xlink:href="#DejaVuSans-20" x="773.425781"/>
      <use xlink:href="#DejaVuSans-61" x="805.212891"/>
      <use xlink:href="#DejaVuSans-6c" x="866.492188"/>
      <use xlink:href="#DejaVuSans-6f" x="894.275391"/>
      <use xlink:href="#DejaVuSans-6e" x="955.457031"/>
      <use xlink:href="#DejaVuSans-67" x="1018.835938"/>
      <use xlink:href="#DejaVuSans-20" x="1082.3125"/>
      <use xlink:href="#DejaVuSans-67" x="1114.099609"/>
      <use xlink:href="#DejaVuSans-69" x="1177.576172"/>
      <use xlink:href="#DejaVuSans-76" x="1205.359375"/>
      <use xlink:href="#DejaVuSans-65" x="1264.539062"/>
      <use xlink:href="#DejaVuSans-6e" x="1326.0625"/>
      <use xlink:href="#DejaVuSans-20" x="1389.441406"/>
      <use xlink:href="#DejaVuSans-61" x="1421.228516"/>
      <use xlink:href="#DejaVuSans-78" x="1482.507812"/>
      <use xlink:href="#DejaVuSans-69" x="1541.6875"/>
      <use xlink:href="#DejaVuSans-73" x="1569.470703"/>
     </g>
    </g>
   </g>
   <g id="matplotlib.axis_2">
    <g id="ytick_1">
     <g id="line2d_11">
      <defs>
       <path id="m1c634e8a53" d="M 0 0 
L 6 0 
" style="stroke: #000000; stroke-width: 2"/>
      </defs>
      <g>
       <use xlink:href="#m1c634e8a53" x="49.3975" y="234.5525" style="fill: #ffffff; stroke: #000000; stroke-width: 2"/>
      </g>
     </g>
     <g id="line2d_12">
      <defs>
       <path id="m33843a0724" d="M 0 0 
L -6 0 
" style="stroke: #000000; stroke-width: 2"/>
      </defs>
      <g>
       <use xlink:href="#m33843a0724" x="341.28" y="234.5525" style="fill: #ffffff; stroke: #000000; stroke-width: 2"/>
      </g>
     </g>
     <g id="text_7">
      <!-- 0.0 -->
      <g transform="translate(26.81375 239.111562)scale(0.12 -0.12)">
       <defs>
        <path id="DejaVuSans-2e" d="M 684 794 
L 1344 794 
L 1344 0 
L 684 0 
L 684 794 
z
" transform="scale(0.015625)"/>
       </defs>
       <use xlink:href="#DejaVuSans-30"/>
       <use xlink:href="#DejaVuSans-2e" x="63.623047"/>
       <use xlink:href="#DejaVuSans-30" x="95.410156"/>
      </g>
     </g>
    </g>
    <g id="ytick_2">
     <g id="line2d_13">
      <g>
       <use xlink:href="#m1c634e8a53" x="49.3975" y="189.993812" style="fill: #ffffff; stroke: #000000; stroke-width: 2"/>
      </g>
     </g>
     <g id="line2d_14">
      <g>
       <use xlink:href="#m33843a0724" x="341.28" y="189.993812" style="fill: #ffffff; stroke: #000000; stroke-width: 2"/>
      </g>
     </g>
     <g id="text_8">
      <!-- 0.2 -->
      <g transform="translate(26.81375 194.552875)scale(0.12 -0.12)">
       <use xlink:href="#DejaVuSans-30"/>
       <use xlink:href="#DejaVuSans-2e" x="63.623047"/>
       <use xlink:href="#DejaVuSans-32" x="95.410156"/>
      </g>
     </g>
    </g>
    <g id="ytick_3">
     <g id="line2d_15">
      <g>
       <use xlink:href="#m1c634e8a53" x="49.3975" y="145.435125" style="fill: #ffffff; stroke: #000000; stroke-width: 2"/>
      </g>
     </g>
     <g id="line2d_16">
      <g>
       <use xlink:href="#m33843a0724" x="341.28" y="145.435125" style="fill: #ffffff; stroke: #000000; stroke-width: 2"/>
      </g>
     </g>
     <g id="text_9">
      <!-- 0.4 -->
      <g transform="translate(26.81375 149.994187)scale(0.12 -0.12)">
       <defs>
        <path id="DejaVuSans-34" d="M 2419 4116 
L 825 1625 
L 2419 1625 
L 2419 4116 
z
M 2253 4666 
L 3047 4666 
L 3047 1625 
L 3713 1625 
L 3713 1100 
L 3047 1100 
L 3047 0 
L 2419 0 
L 2419 1100 
L 313 1100 
L 313 1709 
L 2253 4666 
z
" transform="scale(0.015625)"/>
       </defs>
       <use xlink:href="#DejaVuSans-30"/>
       <use xlink:href="#DejaVuSans-2e" x="63.623047"/>
       <use xlink:href="#DejaVuSans-34" x="95.410156"/>
      </g>
     </g>
    </g>
    <g id="ytick_4">
     <g id="line2d_17">
      <g>
       <use xlink:href="#m1c634e8a53" x="49.3975" y="100.876437" style="fill: #ffffff; stroke: #000000; stroke-width: 2"/>
      </g>
     </g>
     <g id="line2d_18">
      <g>
       <use xlink:href="#m33843a0724" x="341.28" y="100.876437" style="fill: #ffffff; stroke: #000000; stroke-width: 2"/>
      </g>
     </g>
     <g id="text_10">
      <!-- 0.6 -->
      <g transform="translate(26.81375 105.4355)scale(0.12 -0.12)">
       <defs>
        <path id="DejaVuSans-36" d="M 2113 2584 
Q 1688 2584 1439 2293 
Q 1191 2003 1191 1497 
Q 1191 994 1439 701 
Q 1688 409 2113 409 
Q 2538 409 2786 701 
Q 3034 994 3034 1497 
Q 3034 2003 2786 2293 
Q 2538 2584 2113 2584 
z
M 3366 4563 
L 3366 3988 
Q 3128 4100 2886 4159 
Q 2644 4219 2406 4219 
Q 1781 4219 1451 3797 
Q 1122 3375 1075 2522 
Q 1259 2794 1537 2939 
Q 1816 3084 2150 3084 
Q 2853 3084 3261 2657 
Q 3669 2231 3669 1497 
Q 3669 778 3244 343 
Q 2819 -91 2113 -91 
Q 1303 -91 875 529 
Q 447 1150 447 2328 
Q 447 3434 972 4092 
Q 1497 4750 2381 4750 
Q 2619 4750 2861 4703 
Q 3103 4656 3366 4563 
z
" transform="scale(0.015625)"/>
       </defs>
       <use xlink:href="#DejaVuSans-30"/>
       <use xlink:href="#DejaVuSans-2e" x="63.623047"/>
       <use xlink:href="#DejaVuSans-36" x="95.410156"/>
      </g>
     </g>
    </g>
    <g id="ytick_5">
     <g id="line2d_19">
      <g>
       <use xlink:href="#m1c634e8a53" x="49.3975" y="56.31775" style="fill: #ffffff; stroke: #000000; stroke-width: 2"/>
      </g>
     </g>
     <g id="line2d_20">
      <g>
       <use xlink:href="#m33843a0724" x="341.28" y="56.31775" style="fill: #ffffff; stroke: #000000; stroke-width: 2"/>
      </g>
     </g>
     <g id="text_11">
      <!-- 0.8 -->
      <g transform="translate(26.81375 60.876812)scale(0.12 -0.12)">
       <defs>
        <path id="DejaVuSans-38" d="M 2034 2216 
Q 1584 2216 1326 1975 
Q 1069 1734 1069 1313 
Q 1069 891 1326 650 
Q 1584 409 2034 409 
Q 2484 409 2743 651 
Q 3003 894 3003 1313 
Q 3003 1734 2745 1975 
Q 2488 2216 2034 2216 
z
M 1403 2484 
Q 997 2584 770 2862 
Q 544 3141 544 3541 
Q 544 4100 942 4425 
Q 1341 4750 2034 4750 
Q 2731 4750 3128 4425 
Q 3525 4100 3525 3541 
Q 3525 3141 3298 2862 
Q 3072 2584 2669 2484 
Q 3125 2378 3379 2068 
Q 3634 1759 3634 1313 
Q 3634 634 3220 271 
Q 2806 -91 2034 -91 
Q 1263 -91 848 271 
Q 434 634 434 1313 
Q 434 1759 690 2068 
Q 947 2378 1403 2484 
z
M 1172 3481 
Q 1172 3119 1398 2916 
Q 1625 2713 2034 2713 
Q 2441 2713 2670 2916 
Q 2900 3119 2900 3481 
Q 2900 3844 2670 4047 
Q 2441 4250 2034 4250 
Q 1625 4250 1398 4047 
Q 1172 3844 1172 3481 
z
" transform="scale(0.015625)"/>
       </defs>
       <use xlink:href="#DejaVuSans-30"/>
       <use xlink:href="#DejaVuSans-2e" x="63.623047"/>
       <use xlink:href="#DejaVuSans-38" x="95.410156"/>
      </g>
     </g>
    </g>
    <g id="ytick_6">
     <g id="line2d_21">
      <g>
       <use xlink:href="#m1c634e8a53" x="49.3975" y="11.759062" style="fill: #ffffff; stroke: #000000; stroke-width: 2"/>
      </g>
     </g>
     <g id="line2d_22">
      <g>
       <use xlink:href="#m33843a0724" x="341.28" y="11.759062" style="fill: #ffffff; stroke: #000000; stroke-width: 2"/>
      </g>
     </g>
     <g id="text_12">
      <!-- 1.0 -->
      <g transform="translate(26.81375 16.318125)scale(0.12 -0.12)">
       <use xlink:href="#DejaVuSans-31"/>
       <use xlink:href="#DejaVuSans-2e" x="63.623047"/>
       <use xlink:href="#DejaVuSans-30" x="95.410156"/>
      </g>
     </g>
    </g>
    <g id="text_13">
     <!-- Porosity of slice -->
     <g transform="translate(16.318125 169.973594)rotate(-90)scale(0.12 -0.12)">
      <defs>
       <path id="DejaVuSans-72" d="M 2631 2963 
Q 2534 3019 2420 3045 
Q 2306 3072 2169 3072 
Q 1681 3072 1420 2755 
Q 1159 2438 1159 1844 
L 1159 0 
L 581 0 
L 581 3500 
L 1159 3500 
L 1159 2956 
Q 1341 3275 1631 3429 
Q 1922 3584 2338 3584 
Q 2397 3584 2469 3576 
Q 2541 3569 2628 3553 
L 2631 2963 
z
" transform="scale(0.015625)"/>
       <path id="DejaVuSans-79" d="M 2059 -325 
Q 1816 -950 1584 -1140 
Q 1353 -1331 966 -1331 
L 506 -1331 
L 506 -850 
L 844 -850 
Q 1081 -850 1212 -737 
Q 1344 -625 1503 -206 
L 1606 56 
L 191 3500 
L 800 3500 
L 1894 763 
L 2988 3500 
L 3597 3500 
L 2059 -325 
z
" transform="scale(0.015625)"/>
      </defs>
      <use xlink:href="#DejaVuSans-50"/>
      <use xlink:href="#DejaVuSans-6f" x="56.677734"/>
      <use xlink:href="#DejaVuSans-72" x="117.859375"/>
      <use xlink:href="#DejaVuSans-6f" x="156.722656"/>
      <use xlink:href="#DejaVuSans-73" x="217.904297"/>
      <use xlink:href="#DejaVuSans-69" x="270.003906"/>
      <use xlink:href="#DejaVuSans-74" x="297.787109"/>
      <use xlink:href="#DejaVuSans-79" x="336.996094"/>
      <use xlink:href="#DejaVuSans-20" x="396.175781"/>
      <use xlink:href="#DejaVuSans-6f" x="427.962891"/>
      <use xlink:href="#DejaVuSans-66" x="489.144531"/>
      <use xlink:href="#DejaVuSans-20" x="524.349609"/>
      <use xlink:href="#DejaVuSans-73" x="556.136719"/>
      <use xlink:href="#DejaVuSans-6c" x="608.236328"/>
      <use xlink:href="#DejaVuSans-69" x="636.019531"/>
      <use xlink:href="#DejaVuSans-63" x="663.802734"/>
      <use xlink:href="#DejaVuSans-65" x="718.783203"/>
     </g>
    </g>
   </g>
   <g id="line2d_23">
    <path d="M 62.664886 128.894569 
L 63.998292 128.801738 
L 66.665103 128.235472 
L 68.665212 127.498397 
L 69.331915 126.92099 
L 71.332023 123.478832 
L 72.665429 121.948983 
L 73.332132 121.438415 
L 73.998835 120.680917 
L 74.665537 120.26318 
L 75.33224 120.235331 
L 75.998943 120.006967 
L 76.665646 119.236473 
L 78.665754 115.389573 
L 79.332457 114.92542 
L 79.99916 115.198342 
L 80.665863 115.668065 
L 81.332566 116.321593 
L 81.999269 117.255468 
L 83.999377 120.987258 
L 84.66608 121.637073 
L 85.332783 121.895142 
L 87.999594 124.013536 
L 89.333 124.327303 
L 90.666405 123.803739 
L 91.999811 122.52082 
L 92.666514 122.052954 
L 93.999919 121.663065 
L 96.000028 122.938558 
L 98.000136 126.906137 
L 98.666839 127.463121 
L 99.333542 127.693341 
L 100.000245 127.325732 
L 100.666948 127.361007 
L 101.333651 127.223618 
L 102.000353 127.214335 
L 102.667056 126.859722 
L 103.333759 126.213621 
L 104.667165 124.408994 
L 108.000679 118.081661 
L 108.667382 117.29817 
L 110.000787 116.588945 
L 110.66749 116.700341 
L 111.334193 116.392144 
L 112.000896 115.933561 
L 113.334302 116.18606 
L 114.667707 116.704055 
L 115.33441 117.229476 
L 116.001113 118.126219 
L 118.001221 121.787458 
L 120.00133 124.529674 
L 120.668033 125.212907 
L 122.001438 126.066949 
L 122.668141 126.243327 
L 124.001547 125.328017 
L 124.66825 125.084801 
L 125.334953 125.077375 
L 126.001655 124.934416 
L 126.668358 124.930702 
L 127.335061 125.140499 
L 128.001764 125.016106 
L 128.668467 124.654067 
L 129.33517 124.130503 
L 130.668575 123.942985 
L 131.335278 123.848298 
L 132.001981 123.452839 
L 132.668684 122.743613 
L 134.668792 119.815736 
L 135.335495 119.362723 
L 136.002198 119.669064 
L 137.335604 119.79717 
L 139.335712 121.906281 
L 140.002415 122.27946 
L 142.669226 120.532389 
L 143.335929 120.012537 
L 144.669335 119.526105 
L 145.336038 119.240187 
L 146.00274 119.329304 
L 146.669443 119.756325 
L 148.002849 121.210052 
L 148.669552 121.61665 
L 150.002957 123.009109 
L 150.66966 124.689343 
L 151.336363 126.876432 
L 152.669769 130.114363 
L 153.336472 131.657208 
L 155.33658 135.090083 
L 156.669986 135.819732 
L 157.336689 135.747324 
L 158.670094 135.062234 
L 160.0035 135.411277 
L 160.670203 135.288741 
L 161.336906 134.924845 
L 162.003608 134.83944 
L 162.670311 134.991683 
L 164.003717 135.856864 
L 164.67042 135.842011 
L 165.337123 135.405707 
L 166.003825 134.640783 
L 167.337231 132.288456 
L 168.670637 129.111792 
L 170.004042 125.539671 
L 170.670745 124.537101 
L 171.337448 123.850154 
L 174.670962 124.505538 
L 175.337665 125.405995 
L 176.004368 125.948126 
L 176.671071 126.076232 
L 177.337774 125.480259 
L 178.004476 125.147926 
L 179.337882 124.217763 
L 180.004585 123.872433 
L 181.337991 124.293884 
L 182.004693 124.238186 
L 182.671396 124.028389 
L 184.004802 124.247469 
L 184.671505 124.137929 
L 185.338208 124.269748 
L 186.00491 124.204767 
L 186.671613 123.755467 
L 187.338316 122.927418 
L 188.005019 122.478118 
L 188.671722 122.570948 
L 190.005127 123.757324 
L 190.67183 124.332873 
L 191.338533 124.563093 
L 193.338642 124.256752 
L 195.33875 124.11008 
L 195.33875 124.11008 
" clip-path="url(#p54114222b0)" style="fill: none; stroke: #0000ff; stroke-opacity: 0.5; stroke-width: 2; stroke-linecap: square"/>
   </g>
   <g id="line2d_24">
    <path d="M 62.664886 115.355226 
L 63.330474 115.474977 
L 63.996062 115.817522 
L 64.66165 116.41071 
L 65.327238 116.664137 
L 65.992826 117.07909 
L 69.320766 120.621506 
L 69.986354 121.142286 
L 70.651942 121.211909 
L 71.31753 121.863579 
L 71.983118 123.111223 
L 73.314293 126.884786 
L 74.645469 130.190484 
L 75.976645 131.961692 
L 76.642233 132.936413 
L 77.307821 133.273388 
L 77.973409 134.184056 
L 78.638997 134.796738 
L 79.304585 134.671417 
L 79.970173 135.26182 
L 80.635761 136.406421 
L 81.966937 138.160919 
L 82.632525 138.294595 
L 83.298113 138.280671 
L 83.963701 137.874073 
L 85.294876 136.425915 
L 86.626052 135.013962 
L 87.29164 133.938984 
L 87.957228 132.607793 
L 89.288404 129.173989 
L 90.61958 125.470048 
L 92.616344 121.688129 
L 93.281932 120.66328 
L 93.94752 119.362723 
L 94.613108 118.396356 
L 95.278696 117.633289 
L 95.944284 116.249185 
L 96.609872 115.190916 
L 97.275459 116.026391 
L 97.941047 117.132004 
L 98.606635 117.911781 
L 99.272223 119.017393 
L 99.937811 119.535388 
L 101.934575 123.760108 
L 102.600163 124.782173 
L 103.931339 127.542027 
L 104.596927 128.647639 
L 105.928103 131.691555 
L 107.259279 135.479043 
L 107.924867 137.311519 
L 108.590455 138.509034 
L 109.256042 139.433627 
L 109.92163 139.756677 
L 111.252806 141.341296 
L 111.918394 141.388639 
L 112.583982 140.987611 
L 113.24957 140.202264 
L 115.246334 139.366789 
L 115.911922 139.31666 
L 116.57751 139.113361 
L 117.908686 138.294595 
L 119.239862 135.518032 
L 119.90545 133.326302 
L 121.236625 129.923132 
L 123.233389 123.632002 
L 123.898977 122.364865 
L 124.564565 121.551668 
L 125.230153 121.081017 
L 125.895741 120.755182 
L 126.561329 120.610366 
L 127.226917 120.106296 
L 127.892505 119.847299 
L 128.558093 119.925276 
L 129.889269 120.63543 
L 130.554857 120.861009 
L 131.220445 122.052954 
L 131.886033 123.016535 
L 132.551621 123.537315 
L 133.217208 124.562165 
L 133.882796 125.932344 
L 134.548384 126.912636 
L 135.213972 127.427845 
L 135.87956 127.294169 
L 136.545148 126.720476 
L 138.541912 124.292028 
L 139.2075 123.331231 
L 140.538676 122.409423 
L 141.204264 121.317735 
L 143.201028 116.226905 
L 143.866616 114.174421 
L 145.197792 109.484619 
L 147.194555 104.903429 
L 148.525731 102.358014 
L 149.191319 101.681279 
L 149.856907 101.218982 
L 151.188083 100.80403 
L 151.853671 100.943276 
L 152.519259 101.235692 
L 153.184847 102.405357 
L 153.850435 104.71127 
L 155.181611 109.718552 
L 157.843962 117.644429 
L 158.50955 120.12579 
L 159.840726 123.924419 
L 161.171902 127.082516 
L 161.83749 129.087657 
L 163.168666 134.217475 
L 163.834254 136.175273 
L 165.16543 139.007534 
L 165.831018 139.887568 
L 166.496606 140.305306 
L 167.827782 141.380284 
L 169.158958 138.974115 
L 169.824545 138.202693 
L 173.152485 131.777887 
L 174.483661 128.419276 
L 175.149249 127.196697 
L 176.480425 124.322662 
L 177.811601 121.805096 
L 179.808365 119.095371 
L 180.473953 118.975619 
L 181.139541 119.020178 
L 181.805128 119.396142 
L 182.470716 120.426562 
L 183.136304 121.738258 
L 185.133068 124.578874 
L 185.798656 125.294598 
L 186.464244 126.249825 
L 187.129832 126.77896 
L 187.79542 127.503038 
L 188.461008 128.552952 
L 189.126596 129.018034 
L 189.792184 129.652995 
L 191.12336 130.157065 
L 191.788948 131.006465 
L 192.454536 131.608007 
L 193.120124 131.964477 
L 193.785711 132.1817 
L 194.451299 131.939413 
L 195.116887 131.212549 
L 195.782475 129.758822 
L 196.448063 127.642284 
L 197.113651 126.299954 
L 197.779239 125.829302 
L 198.444827 125.536886 
L 199.110415 124.662422 
L 200.441591 123.439843 
L 201.107179 123.0416 
L 201.772767 122.818806 
L 202.438355 121.796741 
L 203.103943 121.122791 
L 203.769531 120.888858 
L 205.100707 122.724119 
L 205.766294 123.559594 
L 207.09747 124.222405 
L 208.428646 124.177846 
L 209.094234 124.069234 
L 209.759822 123.790743 
L 210.42541 122.671206 
L 211.090998 121.33166 
L 212.422174 120.415422 
L 213.087762 120.48783 
L 213.75335 120.849869 
L 214.418938 120.783031 
L 215.084526 120.858224 
L 216.415702 121.626861 
L 217.08129 122.153211 
L 219.743641 128.569662 
L 221.074817 130.961906 
L 223.071581 133.799738 
L 223.737169 134.487612 
L 224.402757 134.871931 
L 225.068345 134.866361 
L 225.733933 134.523816 
L 226.399521 134.629643 
L 227.065109 134.963833 
L 228.396285 136.183628 
L 229.061873 136.097295 
L 230.393048 134.941554 
L 231.724224 134.000252 
L 232.389812 133.905565 
L 233.0554 133.237184 
L 234.386576 130.995325 
L 235.052164 130.009464 
L 235.717752 128.814735 
L 236.38334 126.93213 
L 237.048928 125.489543 
L 237.714516 123.732259 
L 239.045692 120.925062 
L 240.376868 117.808739 
L 241.708043 115.05724 
L 242.373631 114.653427 
L 243.039219 114.909639 
L 244.370395 115.979048 
L 245.701571 115.976263 
L 246.367159 115.878791 
L 247.032747 116.012467 
L 247.698335 116.530461 
L 248.363923 116.650213 
L 249.695099 115.739545 
L 250.360687 114.656212 
L 251.026275 114.040745 
L 251.691863 112.985261 
L 253.023039 109.623865 
L 254.354214 105.780678 
L 255.019802 104.391004 
L 255.68539 103.52211 
L 256.350978 102.920567 
L 257.016566 102.706129 
L 259.01333 102.341304 
L 261.010094 103.057028 
L 261.675682 103.179565 
L 261.675682 103.179565 
" clip-path="url(#p54114222b0)" style="fill: none; stroke: #ff0000; stroke-opacity: 0.5; stroke-width: 2; stroke-linecap: square"/>
   </g>
   <g id="line2d_25">
    <path d="M 62.664886 128.012678 
L 63.329918 128.183486 
L 65.325014 130.701052 
L 67.32011 134.347438 
L 67.985142 134.232328 
L 68.650173 133.972403 
L 69.980237 134.154351 
L 70.645269 134.221189 
L 71.975333 135.379715 
L 72.640365 135.101223 
L 73.305397 133.909278 
L 73.970429 133.526816 
L 74.635461 132.624502 
L 75.300492 131.235757 
L 75.965524 129.286314 
L 76.630556 127.719333 
L 77.295588 126.698197 
L 78.625652 125.621362 
L 80.620748 122.984973 
L 81.28578 122.08266 
L 81.950811 120.82759 
L 82.615843 120.185202 
L 83.280875 119.90671 
L 83.945907 119.190058 
L 85.941003 116.238045 
L 86.606035 114.633932 
L 87.271067 113.746472 
L 87.936098 113.196915 
L 89.931194 114.002684 
L 90.596226 114.537388 
L 91.261258 116.037531 
L 91.92629 117.262895 
L 92.591322 117.990687 
L 93.256354 118.540244 
L 93.921386 119.605939 
L 95.251449 120.304025 
L 95.916481 121.299169 
L 97.246545 122.372291 
L 97.911577 122.699055 
L 98.576609 123.170634 
L 99.241641 122.86615 
L 99.906673 122.383431 
L 100.571705 122.316593 
L 101.236736 121.685345 
L 101.901768 120.37829 
L 103.231832 117.006682 
L 104.561896 115.369151 
L 105.226928 115.053527 
L 105.89196 115.012681 
L 107.887055 117.370578 
L 108.552087 118.284031 
L 109.217119 119.646785 
L 110.547183 121.135787 
L 111.212215 121.637073 
L 112.542279 122.888429 
L 113.207311 123.285744 
L 113.872343 123.055524 
L 114.537374 122.513394 
L 115.202406 121.503397 
L 116.53247 120.018107 
L 118.527566 119.472263 
L 119.85763 118.399141 
L 120.522661 117.771607 
L 121.187693 117.831018 
L 121.852725 117.567379 
L 122.517757 116.939844 
L 123.182789 116.561095 
L 125.177885 114.526249 
L 126.507949 113.876435 
L 127.17298 113.90614 
L 127.838012 114.110368 
L 128.503044 114.574521 
L 129.833108 115.773892 
L 130.49814 115.721907 
L 131.163172 115.242901 
L 131.828204 115.242901 
L 133.823299 116.386574 
L 135.153363 118.31745 
L 135.818395 118.896713 
L 136.483427 118.796456 
L 137.813491 119.100941 
L 138.478523 119.546528 
L 139.808587 120.185202 
L 141.13865 121.937844 
L 142.468714 124.132359 
L 143.133746 125.532245 
L 144.46381 128.974403 
L 145.128842 130.155208 
L 145.793874 130.819875 
L 147.123937 130.734471 
L 147.788969 130.578516 
L 148.454001 129.653923 
L 149.784065 127.559665 
L 150.449097 126.809594 
L 151.779161 126.508822 
L 152.444193 127.50768 
L 153.109224 129.015249 
L 153.774256 129.672489 
L 154.439288 128.963264 
L 155.769352 128.892712 
L 156.434384 129.301167 
L 157.099416 129.497968 
L 158.42948 129.356865 
L 159.094512 129.683629 
L 159.759543 130.355723 
L 161.089607 131.161492 
L 161.754639 131.280315 
L 162.419671 132.019247 
L 163.749735 132.877002 
L 164.414767 132.761892 
L 165.744831 132.294025 
L 167.074894 132.175202 
L 167.739926 132.004394 
L 168.404958 132.078658 
L 169.06999 131.744468 
L 169.735022 131.258036 
L 171.065086 130.890427 
L 171.730118 131.911563 
L 172.39515 132.654208 
L 173.060181 132.865862 
L 173.725213 132.409135 
L 175.720309 129.364292 
L 176.385341 127.864149 
L 177.050373 126.998968 
L 179.7105 122.617364 
L 180.375532 122.331446 
L 181.705596 122.260894 
L 182.370628 123.20034 
L 183.03566 123.931845 
L 183.700692 124.050668 
L 185.695787 124.830445 
L 186.360819 125.235187 
L 187.025851 126.256323 
L 187.690883 126.980402 
L 188.355915 128.792455 
L 189.020947 130.132929 
L 189.685979 130.927559 
L 190.351011 130.782743 
L 191.016043 130.522818 
L 191.681075 130.552523 
L 192.346106 130.426274 
L 193.011138 129.761607 
L 193.67617 129.538813 
L 194.341202 129.527674 
L 195.006234 129.839584 
L 195.671266 129.9844 
L 197.00133 130.968404 
L 198.331394 132.565091 
L 198.996425 133.823874 
L 199.661457 135.387141 
L 200.991521 137.381142 
L 201.656553 138.988968 
L 202.321585 140.084369 
L 202.986617 140.548522 
L 203.651649 141.309733 
L 204.316681 141.543666 
L 204.981713 141.060947 
L 205.646744 140.403707 
L 206.311776 140.173487 
L 206.976808 140.529956 
L 207.64184 140.574515 
L 208.306872 139.828157 
L 208.971904 138.591653 
L 210.301968 134.807878 
L 211.632031 131.347153 
L 213.627127 126.230331 
L 214.292159 125.376289 
L 214.957191 125.747612 
L 216.287255 128.328302 
L 216.952287 128.799882 
L 217.617319 128.6365 
L 218.28235 127.886429 
L 220.942478 123.040671 
L 221.60751 122.461408 
L 222.272542 122.628503 
L 223.602606 122.409423 
L 224.932669 121.596227 
L 225.597701 121.106082 
L 226.262733 120.2409 
L 226.927765 120.278033 
L 227.592797 120.500826 
L 228.257829 120.162923 
L 228.922861 119.12322 
L 230.252925 118.332303 
L 230.917957 118.124363 
L 232.24802 119.509395 
L 232.913052 119.312594 
L 233.578084 119.516822 
L 234.243116 119.256896 
L 234.908148 118.610795 
L 235.57318 118.941272 
L 236.238212 119.435131 
L 236.903244 119.271749 
L 237.568276 118.974691 
L 239.563371 116.976977 
L 240.228403 116.783889 
L 240.893435 117.032675 
L 241.558467 116.787602 
L 242.223499 116.375434 
L 242.888531 115.647642 
L 243.553563 115.216908 
L 244.218594 114.960696 
L 244.883626 114.890145 
L 245.548658 115.153784 
L 250.868913 125.398569 
L 251.533945 126.857866 
L 252.198977 127.38143 
L 252.864009 126.839299 
L 254.194073 126.605366 
L 254.859105 126.349154 
L 255.524137 125.67706 
L 256.189169 124.726475 
L 257.519232 123.939272 
L 258.184264 123.75361 
L 260.844392 125.194341 
L 261.509424 125.079231 
L 262.839488 125.413421 
L 263.50452 124.875004 
L 264.169551 123.757324 
L 264.834583 123.586515 
L 265.499615 123.857581 
L 266.164647 123.809309 
L 266.829679 124.032102 
L 267.494711 124.629931 
L 268.824775 125.46912 
L 269.489807 125.328017 
L 270.81987 123.916992 
L 271.484902 122.695341 
L 272.149934 121.778175 
L 274.14503 118.246899 
L 276.140126 113.427134 
L 277.470189 110.612511 
L 278.135221 109.814168 
L 278.800253 109.242331 
L 279.465285 109.112368 
L 280.130317 109.112368 
L 281.460381 109.751043 
L 284.120508 109.762182 
L 286.780636 113.289745 
L 287.445668 115.138931 
L 288.775732 119.654211 
L 290.105795 122.743613 
L 291.435859 125.443127 
L 292.100891 126.661065 
L 294.761019 130.400281 
L 295.426051 130.619361 
L 296.091083 130.689913 
L 297.421146 130.31859 
L 298.086178 130.363149 
L 298.75121 129.887856 
L 299.416242 129.873003 
L 300.081274 130.095797 
L 300.746306 129.947268 
L 301.411338 130.990684 
L 303.406433 135.31659 
L 305.401529 142.531384 
L 306.066561 143.571087 
L 306.731593 143.871858 
L 307.396625 143.359433 
L 308.061657 142.11179 
L 309.39172 138.70305 
L 310.721784 136.42313 
L 311.386816 135.632214 
L 312.051848 135.595082 
L 312.71688 135.803022 
L 313.381912 135.108649 
L 314.046944 133.389426 
L 314.711976 130.994397 
L 316.707071 126.245184 
L 319.367199 116.850727 
L 320.032231 114.94213 
L 321.362295 111.990117 
L 322.027327 109.751043 
L 322.692358 108.2509 
L 324.022422 106.906713 
L 325.352486 105.703629 
L 326.017518 105.447416 
L 326.68255 105.376865 
L 327.347582 105.447416 
L 328.012614 105.369438 
L 328.012614 105.369438 
" clip-path="url(#p54114222b0)" style="fill: none; stroke: #008000; stroke-opacity: 0.5; stroke-width: 2; stroke-linecap: square"/>
   </g>
   <g id="patch_3">
    <path d="M 49.3975 234.5525 
L 49.3975 11.759062 
" style="fill: none; stroke: #000000; stroke-width: 2; stroke-linejoin: miter; stroke-linecap: square"/>
   </g>
   <g id="patch_4">
    <path d="M 341.28 234.5525 
L 341.28 11.759062 
" style="fill: none; stroke: #000000; stroke-width: 2; stroke-linejoin: miter; stroke-linecap: square"/>
   </g>
   <g id="patch_5">
    <path d="M 49.3975 234.5525 
L 341.28 234.5525 
" style="fill: none; stroke: #000000; stroke-width: 2; stroke-linejoin: miter; stroke-linecap: square"/>
   </g>
   <g id="patch_6">
    <path d="M 49.3975 11.759062 
L 341.28 11.759062 
" style="fill: none; stroke: #000000; stroke-width: 2; stroke-linejoin: miter; stroke-linecap: square"/>
   </g>
   <g id="legend_1">
    <g id="line2d_26">
     <path d="M 245.26125 27.477188 
L 257.26125 27.477188 
L 269.26125 27.477188 
" style="fill: none; stroke: #0000ff; stroke-opacity: 0.5; stroke-width: 2; stroke-linecap: square"/>
    </g>
    <g id="text_14">
     <!-- yz-plane -->
     <g transform="translate(278.86125 31.677188)scale(0.12 -0.12)">
      <defs>
       <path id="DejaVuSans-7a" d="M 353 3500 
L 3084 3500 
L 3084 2975 
L 922 459 
L 3084 459 
L 3084 0 
L 275 0 
L 275 525 
L 2438 3041 
L 353 3041 
L 353 3500 
z
" transform="scale(0.015625)"/>
       <path id="DejaVuSans-2d" d="M 313 2009 
L 1997 2009 
L 1997 1497 
L 313 1497 
L 313 2009 
z
" transform="scale(0.015625)"/>
       <path id="DejaVuSans-70" d="M 1159 525 
L 1159 -1331 
L 581 -1331 
L 581 3500 
L 1159 3500 
L 1159 2969 
Q 1341 3281 1617 3432 
Q 1894 3584 2278 3584 
Q 2916 3584 3314 3078 
Q 3713 2572 3713 1747 
Q 3713 922 3314 415 
Q 2916 -91 2278 -91 
Q 1894 -91 1617 61 
Q 1341 213 1159 525 
z
M 3116 1747 
Q 3116 2381 2855 2742 
Q 2594 3103 2138 3103 
Q 1681 3103 1420 2742 
Q 1159 2381 1159 1747 
Q 1159 1113 1420 752 
Q 1681 391 2138 391 
Q 2594 391 2855 752 
Q 3116 1113 3116 1747 
z
" transform="scale(0.015625)"/>
      </defs>
      <use xlink:href="#DejaVuSans-79"/>
      <use xlink:href="#DejaVuSans-7a" x="59.179688"/>
      <use xlink:href="#DejaVuSans-2d" x="111.669922"/>
      <use xlink:href="#DejaVuSans-70" x="147.753906"/>
      <use xlink:href="#DejaVuSans-6c" x="211.230469"/>
      <use xlink:href="#DejaVuSans-61" x="239.013672"/>
      <use xlink:href="#DejaVuSans-6e" x="300.292969"/>
      <use xlink:href="#DejaVuSans-65" x="363.671875"/>
     </g>
    </g>
    <g id="line2d_27">
     <path d="M 245.26125 45.090938 
L 257.26125 45.090938 
L 269.26125 45.090938 
" style="fill: none; stroke: #ff0000; stroke-opacity: 0.5; stroke-width: 2; stroke-linecap: square"/>
    </g>
    <g id="text_15">
     <!-- xz-plane -->
     <g transform="translate(278.86125 49.290938)scale(0.12 -0.12)">
      <use xlink:href="#DejaVuSans-78"/>
      <use xlink:href="#DejaVuSans-7a" x="59.179688"/>
      <use xlink:href="#DejaVuSans-2d" x="111.669922"/>
      <use xlink:href="#DejaVuSans-70" x="147.753906"/>
      <use xlink:href="#DejaVuSans-6c" x="211.230469"/>
      <use xlink:href="#DejaVuSans-61" x="239.013672"/>
      <use xlink:href="#DejaVuSans-6e" x="300.292969"/>
      <use xlink:href="#DejaVuSans-65" x="363.671875"/>
     </g>
    </g>
    <g id="line2d_28">
     <path d="M 245.26125 62.704687 
L 257.26125 62.704687 
L 269.26125 62.704687 
" style="fill: none; stroke: #008000; stroke-opacity: 0.5; stroke-width: 2; stroke-linecap: square"/>
    </g>
    <g id="text_16">
     <!-- xy-plane -->
     <g transform="translate(278.86125 66.904687)scale(0.12 -0.12)">
      <use xlink:href="#DejaVuSans-78"/>
      <use xlink:href="#DejaVuSans-79" x="59.179688"/>
      <use xlink:href="#DejaVuSans-2d" x="116.609375"/>
      <use xlink:href="#DejaVuSans-70" x="152.693359"/>
      <use xlink:href="#DejaVuSans-6c" x="216.169922"/>
      <use xlink:href="#DejaVuSans-61" x="243.953125"/>
      <use xlink:href="#DejaVuSans-6e" x="305.232422"/>
      <use xlink:href="#DejaVuSans-65" x="368.611328"/>
     </g>
    </g>
   </g>
  </g>
 </g>
 <defs>
  <clipPath id="p54114222b0">
   <rect x="49.3975" y="11.759062" width="291.8825" height="222.793437"/>
  </clipPath>
 </defs>
</svg>
