<?xml version="1.0" encoding="utf-8" standalone="no"?>
<!DOCTYPE svg PUBLIC "-//W3C//DTD SVG 1.1//EN"
  "http://www.w3.org/Graphics/SVG/1.1/DTD/svg11.dtd">
<svg xmlns:xlink="http://www.w3.org/1999/xlink" width="352.8pt" height="280.8pt" viewBox="0 0 352.8 280.8" xmlns="http://www.w3.org/2000/svg" version="1.1">
 <metadata>
  <rdf:RDF xmlns:dc="http://purl.org/dc/elements/1.1/" xmlns:cc="http://creativecommons.org/ns#" xmlns:rdf="http://www.w3.org/1999/02/22-rdf-syntax-ns#">
   <cc:Work>
    <dc:type rdf:resource="http://purl.org/dc/dcmitype/StillImage"/>
    <dc:date>2022-05-25T19:27:55.415091</dc:date>
    <dc:format>image/svg+xml</dc:format>
    <dc:creator>
     <cc:Agent>
      <dc:title>Matplotlib v3.5.2, https://matplotlib.org/</dc:title>
     </cc:Agent>
    </dc:creator>
   </cc:Work>
  </rdf:RDF>
 </metadata>
 <defs>
  <style type="text/css">*{stroke-linejoin: round; stroke-linecap: butt}</style>
 </defs>
 <g id="figure_1">
  <g id="patch_1">
   <path d="M 0 280.8 
L 352.8 280.8 
L 352.8 0 
L 0 0 
L 0 280.8 
z
" style="fill: none"/>
  </g>
  <g id="axes_1">
   <g id="patch_2">
    <path d="M 49.3975 238.8725 
L 345.6 238.8725 
L 345.6 11.759062 
L 49.3975 11.759062 
z
" style="fill: #ffffff"/>
   </g>
   <g id="matplotlib.axis_1">
    <g id="xtick_1">
     <g id="line2d_1">
      <defs>
       <path id="m7527ee833a" d="M 0 0 
L 0 -6 
" style="stroke: #000000; stroke-width: 2"/>
      </defs>
      <g>
       <use xlink:href="#m7527ee833a" x="62.86125" y="238.8725" style="fill: #ffffff; stroke: #000000; stroke-width: 2"/>
      </g>
     </g>
     <g id="line2d_2">
      <defs>
       <path id="mcf6779ca03" d="M 0 0 
L 0 6 
" style="stroke: #000000; stroke-width: 2"/>
      </defs>
      <g>
       <use xlink:href="#mcf6779ca03" x="62.86125" y="11.759062" style="fill: #ffffff; stroke: #000000; stroke-width: 2"/>
      </g>
     </g>
     <g id="text_1">
      <!-- 0 -->
      <g transform="translate(59.04375 251.490625)scale(0.12 -0.12)">
       <defs>
        <path id="DejaVuSans-30" d="M 2034 4250 
Q 1547 4250 1301 3770 
Q 1056 3291 1056 2328 
Q 1056 1369 1301 889 
Q 1547 409 2034 409 
Q 2525 409 2770 889 
Q 3016 1369 3016 2328 
Q 3016 3291 2770 3770 
Q 2525 4250 2034 4250 
z
M 2034 4750 
Q 2819 4750 3233 4129 
Q 3647 3509 3647 2328 
Q 3647 1150 3233 529 
Q 2819 -91 2034 -91 
Q 1250 -91 836 529 
Q 422 1150 422 2328 
Q 422 3509 836 4129 
Q 1250 4750 2034 4750 
z
" transform="scale(0.015625)"/>
       </defs>
       <use xlink:href="#DejaVuSans-30"/>
      </g>
     </g>
    </g>
    <g id="xtick_2">
     <g id="line2d_3">
      <g>
       <use xlink:href="#m7527ee833a" x="119.911038" y="238.8725" style="fill: #ffffff; stroke: #000000; stroke-width: 2"/>
      </g>
     </g>
     <g id="line2d_4">
      <g>
       <use xlink:href="#mcf6779ca03" x="119.911038" y="11.759062" style="fill: #ffffff; stroke: #000000; stroke-width: 2"/>
      </g>
     </g>
     <g id="text_2">
      <!-- 500 -->
      <g transform="translate(108.458538 251.490625)scale(0.12 -0.12)">
       <defs>
        <path id="DejaVuSans-35" d="M 691 4666 
L 3169 4666 
L 3169 4134 
L 1269 4134 
L 1269 2991 
Q 1406 3038 1543 3061 
Q 1681 3084 1819 3084 
Q 2600 3084 3056 2656 
Q 3513 2228 3513 1497 
Q 3513 744 3044 326 
Q 2575 -91 1722 -91 
Q 1428 -91 1123 -41 
Q 819 9 494 109 
L 494 744 
Q 775 591 1075 516 
Q 1375 441 1709 441 
Q 2250 441 2565 725 
Q 2881 1009 2881 1497 
Q 2881 1984 2565 2268 
Q 2250 2553 1709 2553 
Q 1456 2553 1204 2497 
Q 953 2441 691 2322 
L 691 4666 
z
" transform="scale(0.015625)"/>
       </defs>
       <use xlink:href="#DejaVuSans-35"/>
       <use xlink:href="#DejaVuSans-30" x="63.623047"/>
       <use xlink:href="#DejaVuSans-30" x="127.246094"/>
      </g>
     </g>
    </g>
    <g id="xtick_3">
     <g id="line2d_5">
      <g>
       <use xlink:href="#m7527ee833a" x="176.960826" y="238.8725" style="fill: #ffffff; stroke: #000000; stroke-width: 2"/>
      </g>
     </g>
     <g id="line2d_6">
      <g>
       <use xlink:href="#mcf6779ca03" x="176.960826" y="11.759062" style="fill: #ffffff; stroke: #000000; stroke-width: 2"/>
      </g>
     </g>
     <g id="text_3">
      <!-- 1000 -->
      <g transform="translate(161.690826 251.490625)scale(0.12 -0.12)">
       <defs>
        <path id="DejaVuSans-31" d="M 794 531 
L 1825 531 
L 1825 4091 
L 703 3866 
L 703 4441 
L 1819 4666 
L 2450 4666 
L 2450 531 
L 3481 531 
L 3481 0 
L 794 0 
L 794 531 
z
" transform="scale(0.015625)"/>
       </defs>
       <use xlink:href="#DejaVuSans-31"/>
       <use xlink:href="#DejaVuSans-30" x="63.623047"/>
       <use xlink:href="#DejaVuSans-30" x="127.246094"/>
       <use xlink:href="#DejaVuSans-30" x="190.869141"/>
      </g>
     </g>
    </g>
    <g id="xtick_4">
     <g id="line2d_7">
      <g>
       <use xlink:href="#m7527ee833a" x="234.010614" y="238.8725" style="fill: #ffffff; stroke: #000000; stroke-width: 2"/>
      </g>
     </g>
     <g id="line2d_8">
      <g>
       <use xlink:href="#mcf6779ca03" x="234.010614" y="11.759062" style="fill: #ffffff; stroke: #000000; stroke-width: 2"/>
      </g>
     </g>
     <g id="text_4">
      <!-- 1500 -->
      <g transform="translate(218.740614 251.490625)scale(0.12 -0.12)">
       <use xlink:href="#DejaVuSans-31"/>
       <use xlink:href="#DejaVuSans-35" x="63.623047"/>
       <use xlink:href="#DejaVuSans-30" x="127.246094"/>
       <use xlink:href="#DejaVuSans-30" x="190.869141"/>
      </g>
     </g>
    </g>
    <g id="xtick_5">
     <g id="line2d_9">
      <g>
       <use xlink:href="#m7527ee833a" x="291.060403" y="238.8725" style="fill: #ffffff; stroke: #000000; stroke-width: 2"/>
      </g>
     </g>
     <g id="line2d_10">
      <g>
       <use xlink:href="#mcf6779ca03" x="291.060403" y="11.759062" style="fill: #ffffff; stroke: #000000; stroke-width: 2"/>
      </g>
     </g>
     <g id="text_5">
      <!-- 2000 -->
      <g transform="translate(275.790403 251.490625)scale(0.12 -0.12)">
       <defs>
        <path id="DejaVuSans-32" d="M 1228 531 
L 3431 531 
L 3431 0 
L 469 0 
L 469 531 
Q 828 903 1448 1529 
Q 2069 2156 2228 2338 
Q 2531 2678 2651 2914 
Q 2772 3150 2772 3378 
Q 2772 3750 2511 3984 
Q 2250 4219 1831 4219 
Q 1534 4219 1204 4116 
Q 875 4013 500 3803 
L 500 4441 
Q 881 4594 1212 4672 
Q 1544 4750 1819 4750 
Q 2544 4750 2975 4387 
Q 3406 4025 3406 3419 
Q 3406 3131 3298 2873 
Q 3191 2616 2906 2266 
Q 2828 2175 2409 1742 
Q 1991 1309 1228 531 
z
" transform="scale(0.015625)"/>
       </defs>
       <use xlink:href="#DejaVuSans-32"/>
       <use xlink:href="#DejaVuSans-30" x="63.623047"/>
       <use xlink:href="#DejaVuSans-30" x="127.246094"/>
       <use xlink:href="#DejaVuSans-30" x="190.869141"/>
      </g>
     </g>
    </g>
    <g id="text_6">
     <!-- Position of slice along given axis -->
     <g transform="translate(100.205 271.104375)scale(0.12 -0.12)">
      <defs>
       <path id="DejaVuSans-50" d="M 1259 4147 
L 1259 2394 
L 2053 2394 
Q 2494 2394 2734 2622 
Q 2975 2850 2975 3272 
Q 2975 3691 2734 3919 
Q 2494 4147 2053 4147 
L 1259 4147 
z
M 628 4666 
L 2053 4666 
Q 2838 4666 3239 4311 
Q 3641 3956 3641 3272 
Q 3641 2581 3239 2228 
Q 2838 1875 2053 1875 
L 1259 1875 
L 1259 0 
L 628 0 
L 628 4666 
z
" transform="scale(0.015625)"/>
       <path id="DejaVuSans-6f" d="M 1959 3097 
Q 1497 3097 1228 2736 
Q 959 2375 959 1747 
Q 959 1119 1226 758 
Q 1494 397 1959 397 
Q 2419 397 2687 759 
Q 2956 1122 2956 1747 
Q 2956 2369 2687 2733 
Q 2419 3097 1959 3097 
z
M 1959 3584 
Q 2709 3584 3137 3096 
Q 3566 2609 3566 1747 
Q 3566 888 3137 398 
Q 2709 -91 1959 -91 
Q 1206 -91 779 398 
Q 353 888 353 1747 
Q 353 2609 779 3096 
Q 1206 3584 1959 3584 
z
" transform="scale(0.015625)"/>
       <path id="DejaVuSans-73" d="M 2834 3397 
L 2834 2853 
Q 2591 2978 2328 3040 
Q 2066 3103 1784 3103 
Q 1356 3103 1142 2972 
Q 928 2841 928 2578 
Q 928 2378 1081 2264 
Q 1234 2150 1697 2047 
L 1894 2003 
Q 2506 1872 2764 1633 
Q 3022 1394 3022 966 
Q 3022 478 2636 193 
Q 2250 -91 1575 -91 
Q 1294 -91 989 -36 
Q 684 19 347 128 
L 347 722 
Q 666 556 975 473 
Q 1284 391 1588 391 
Q 1994 391 2212 530 
Q 2431 669 2431 922 
Q 2431 1156 2273 1281 
Q 2116 1406 1581 1522 
L 1381 1569 
Q 847 1681 609 1914 
Q 372 2147 372 2553 
Q 372 3047 722 3315 
Q 1072 3584 1716 3584 
Q 2034 3584 2315 3537 
Q 2597 3491 2834 3397 
z
" transform="scale(0.015625)"/>
       <path id="DejaVuSans-69" d="M 603 3500 
L 1178 3500 
L 1178 0 
L 603 0 
L 603 3500 
z
M 603 4863 
L 1178 4863 
L 1178 4134 
L 603 4134 
L 603 4863 
z
" transform="scale(0.015625)"/>
       <path id="DejaVuSans-74" d="M 1172 4494 
L 1172 3500 
L 2356 3500 
L 2356 3053 
L 1172 3053 
L 1172 1153 
Q 1172 725 1289 603 
Q 1406 481 1766 481 
L 2356 481 
L 2356 0 
L 1766 0 
Q 1100 0 847 248 
Q 594 497 594 1153 
L 594 3053 
L 172 3053 
L 172 3500 
L 594 3500 
L 594 4494 
L 1172 4494 
z
" transform="scale(0.015625)"/>
       <path id="DejaVuSans-6e" d="M 3513 2113 
L 3513 0 
L 2938 0 
L 2938 2094 
Q 2938 2591 2744 2837 
Q 2550 3084 2163 3084 
Q 1697 3084 1428 2787 
Q 1159 2491 1159 1978 
L 1159 0 
L 581 0 
L 581 3500 
L 1159 3500 
L 1159 2956 
Q 1366 3272 1645 3428 
Q 1925 3584 2291 3584 
Q 2894 3584 3203 3211 
Q 3513 2838 3513 2113 
z
" transform="scale(0.015625)"/>
       <path id="DejaVuSans-20" transform="scale(0.015625)"/>
       <path id="DejaVuSans-66" d="M 2375 4863 
L 2375 4384 
L 1825 4384 
Q 1516 4384 1395 4259 
Q 1275 4134 1275 3809 
L 1275 3500 
L 2222 3500 
L 2222 3053 
L 1275 3053 
L 1275 0 
L 697 0 
L 697 3053 
L 147 3053 
L 147 3500 
L 697 3500 
L 697 3744 
Q 697 4328 969 4595 
Q 1241 4863 1831 4863 
L 2375 4863 
z
" transform="scale(0.015625)"/>
       <path id="DejaVuSans-6c" d="M 603 4863 
L 1178 4863 
L 1178 0 
L 603 0 
L 603 4863 
z
" transform="scale(0.015625)"/>
       <path id="DejaVuSans-63" d="M 3122 3366 
L 3122 2828 
Q 2878 2963 2633 3030 
Q 2388 3097 2138 3097 
Q 1578 3097 1268 2742 
Q 959 2388 959 1747 
Q 959 1106 1268 751 
Q 1578 397 2138 397 
Q 2388 397 2633 464 
Q 2878 531 3122 666 
L 3122 134 
Q 2881 22 2623 -34 
Q 2366 -91 2075 -91 
Q 1284 -91 818 406 
Q 353 903 353 1747 
Q 353 2603 823 3093 
Q 1294 3584 2113 3584 
Q 2378 3584 2631 3529 
Q 2884 3475 3122 3366 
z
" transform="scale(0.015625)"/>
       <path id="DejaVuSans-65" d="M 3597 1894 
L 3597 1613 
L 953 1613 
Q 991 1019 1311 708 
Q 1631 397 2203 397 
Q 2534 397 2845 478 
Q 3156 559 3463 722 
L 3463 178 
Q 3153 47 2828 -22 
Q 2503 -91 2169 -91 
Q 1331 -91 842 396 
Q 353 884 353 1716 
Q 353 2575 817 3079 
Q 1281 3584 2069 3584 
Q 2775 3584 3186 3129 
Q 3597 2675 3597 1894 
z
M 3022 2063 
Q 3016 2534 2758 2815 
Q 2500 3097 2075 3097 
Q 1594 3097 1305 2825 
Q 1016 2553 972 2059 
L 3022 2063 
z
" transform="scale(0.015625)"/>
       <path id="DejaVuSans-61" d="M 2194 1759 
Q 1497 1759 1228 1600 
Q 959 1441 959 1056 
Q 959 750 1161 570 
Q 1363 391 1709 391 
Q 2188 391 2477 730 
Q 2766 1069 2766 1631 
L 2766 1759 
L 2194 1759 
z
M 3341 1997 
L 3341 0 
L 2766 0 
L 2766 531 
Q 2569 213 2275 61 
Q 1981 -91 1556 -91 
Q 1019 -91 701 211 
Q 384 513 384 1019 
Q 384 1609 779 1909 
Q 1175 2209 1959 2209 
L 2766 2209 
L 2766 2266 
Q 2766 2663 2505 2880 
Q 2244 3097 1772 3097 
Q 1472 3097 1187 3025 
Q 903 2953 641 2809 
L 641 3341 
Q 956 3463 1253 3523 
Q 1550 3584 1831 3584 
Q 2591 3584 2966 3190 
Q 3341 2797 3341 1997 
z
" transform="scale(0.015625)"/>
       <path id="DejaVuSans-67" d="M 2906 1791 
Q 2906 2416 2648 2759 
Q 2391 3103 1925 3103 
Q 1463 3103 1205 2759 
Q 947 2416 947 1791 
Q 947 1169 1205 825 
Q 1463 481 1925 481 
Q 2391 481 2648 825 
Q 2906 1169 2906 1791 
z
M 3481 434 
Q 3481 -459 3084 -895 
Q 2688 -1331 1869 -1331 
Q 1566 -1331 1297 -1286 
Q 1028 -1241 775 -1147 
L 775 -588 
Q 1028 -725 1275 -790 
Q 1522 -856 1778 -856 
Q 2344 -856 2625 -561 
Q 2906 -266 2906 331 
L 2906 616 
Q 2728 306 2450 153 
Q 2172 0 1784 0 
Q 1141 0 747 490 
Q 353 981 353 1791 
Q 353 2603 747 3093 
Q 1141 3584 1784 3584 
Q 2172 3584 2450 3431 
Q 2728 3278 2906 2969 
L 2906 3500 
L 3481 3500 
L 3481 434 
z
" transform="scale(0.015625)"/>
       <path id="DejaVuSans-76" d="M 191 3500 
L 800 3500 
L 1894 563 
L 2988 3500 
L 3597 3500 
L 2284 0 
L 1503 0 
L 191 3500 
z
" transform="scale(0.015625)"/>
       <path id="DejaVuSans-78" d="M 3513 3500 
L 2247 1797 
L 3578 0 
L 2900 0 
L 1881 1375 
L 863 0 
L 184 0 
L 1544 1831 
L 300 3500 
L 978 3500 
L 1906 2253 
L 2834 3500 
L 3513 3500 
z
" transform="scale(0.015625)"/>
      </defs>
      <use xlink:href="#DejaVuSans-50"/>
      <use xlink:href="#DejaVuSans-6f" x="56.677734"/>
      <use xlink:href="#DejaVuSans-73" x="117.859375"/>
      <use xlink:href="#DejaVuSans-69" x="169.958984"/>
      <use xlink:href="#DejaVuSans-74" x="197.742188"/>
      <use xlink:href="#DejaVuSans-69" x="236.951172"/>
      <use xlink:href="#DejaVuSans-6f" x="264.734375"/>
      <use xlink:href="#DejaVuSans-6e" x="325.916016"/>
      <use xlink:href="#DejaVuSans-20" x="389.294922"/>
      <use xlink:href="#DejaVuSans-6f" x="421.082031"/>
      <use xlink:href="#DejaVuSans-66" x="482.263672"/>
      <use xlink:href="#DejaVuSans-20" x="517.46875"/>
      <use xlink:href="#DejaVuSans-73" x="549.255859"/>
      <use xlink:href="#DejaVuSans-6c" x="601.355469"/>
      <use xlink:href="#DejaVuSans-69" x="629.138672"/>
      <use xlink:href="#DejaVuSans-63" x="656.921875"/>
      <use xlink:href="#DejaVuSans-65" x="711.902344"/>
      <use xlink:href="#DejaVuSans-20" x="773.425781"/>
      <use xlink:href="#DejaVuSans-61" x="805.212891"/>
      <use xlink:href="#DejaVuSans-6c" x="866.492188"/>
      <use xlink:href="#DejaVuSans-6f" x="894.275391"/>
      <use xlink:href="#DejaVuSans-6e" x="955.457031"/>
      <use xlink:href="#DejaVuSans-67" x="1018.835938"/>
      <use xlink:href="#DejaVuSans-20" x="1082.3125"/>
      <use xlink:href="#DejaVuSans-67" x="1114.099609"/>
      <use xlink:href="#DejaVuSans-69" x="1177.576172"/>
      <use xlink:href="#DejaVuSans-76" x="1205.359375"/>
      <use xlink:href="#DejaVuSans-65" x="1264.539062"/>
      <use xlink:href="#DejaVuSans-6e" x="1326.0625"/>
      <use xlink:href="#DejaVuSans-20" x="1389.441406"/>
      <use xlink:href="#DejaVuSans-61" x="1421.228516"/>
      <use xlink:href="#DejaVuSans-78" x="1482.507812"/>
      <use xlink:href="#DejaVuSans-69" x="1541.6875"/>
      <use xlink:href="#DejaVuSans-73" x="1569.470703"/>
     </g>
    </g>
   </g>
   <g id="matplotlib.axis_2">
    <g id="ytick_1">
     <g id="line2d_11">
      <defs>
       <path id="m9637a880bf" d="M 0 0 
L 6 0 
" style="stroke: #000000; stroke-width: 2"/>
      </defs>
      <g>
       <use xlink:href="#m9637a880bf" x="49.3975" y="238.8725" style="fill: #ffffff; stroke: #000000; stroke-width: 2"/>
      </g>
     </g>
     <g id="line2d_12">
      <defs>
       <path id="m6a2a235edf" d="M 0 0 
L -6 0 
" style="stroke: #000000; stroke-width: 2"/>
      </defs>
      <g>
       <use xlink:href="#m6a2a235edf" x="345.6" y="238.8725" style="fill: #ffffff; stroke: #000000; stroke-width: 2"/>
      </g>
     </g>
     <g id="text_7">
      <!-- 0.0 -->
      <g transform="translate(26.81375 243.431562)scale(0.12 -0.12)">
       <defs>
        <path id="DejaVuSans-2e" d="M 684 794 
L 1344 794 
L 1344 0 
L 684 0 
L 684 794 
z
" transform="scale(0.015625)"/>
       </defs>
       <use xlink:href="#DejaVuSans-30"/>
       <use xlink:href="#DejaVuSans-2e" x="63.623047"/>
       <use xlink:href="#DejaVuSans-30" x="95.410156"/>
      </g>
     </g>
    </g>
    <g id="ytick_2">
     <g id="line2d_13">
      <g>
       <use xlink:href="#m9637a880bf" x="49.3975" y="193.449812" style="fill: #ffffff; stroke: #000000; stroke-width: 2"/>
      </g>
     </g>
     <g id="line2d_14">
      <g>
       <use xlink:href="#m6a2a235edf" x="345.6" y="193.449812" style="fill: #ffffff; stroke: #000000; stroke-width: 2"/>
      </g>
     </g>
     <g id="text_8">
      <!-- 0.2 -->
      <g transform="translate(26.81375 198.008875)scale(0.12 -0.12)">
       <use xlink:href="#DejaVuSans-30"/>
       <use xlink:href="#DejaVuSans-2e" x="63.623047"/>
       <use xlink:href="#DejaVuSans-32" x="95.410156"/>
      </g>
     </g>
    </g>
    <g id="ytick_3">
     <g id="line2d_15">
      <g>
       <use xlink:href="#m9637a880bf" x="49.3975" y="148.027125" style="fill: #ffffff; stroke: #000000; stroke-width: 2"/>
      </g>
     </g>
     <g id="line2d_16">
      <g>
       <use xlink:href="#m6a2a235edf" x="345.6" y="148.027125" style="fill: #ffffff; stroke: #000000; stroke-width: 2"/>
      </g>
     </g>
     <g id="text_9">
      <!-- 0.4 -->
      <g transform="translate(26.81375 152.586187)scale(0.12 -0.12)">
       <defs>
        <path id="DejaVuSans-34" d="M 2419 4116 
L 825 1625 
L 2419 1625 
L 2419 4116 
z
M 2253 4666 
L 3047 4666 
L 3047 1625 
L 3713 1625 
L 3713 1100 
L 3047 1100 
L 3047 0 
L 2419 0 
L 2419 1100 
L 313 1100 
L 313 1709 
L 2253 4666 
z
" transform="scale(0.015625)"/>
       </defs>
       <use xlink:href="#DejaVuSans-30"/>
       <use xlink:href="#DejaVuSans-2e" x="63.623047"/>
       <use xlink:href="#DejaVuSans-34" x="95.410156"/>
      </g>
     </g>
    </g>
    <g id="ytick_4">
     <g id="line2d_17">
      <g>
       <use xlink:href="#m9637a880bf" x="49.3975" y="102.604437" style="fill: #ffffff; stroke: #000000; stroke-width: 2"/>
      </g>
     </g>
     <g id="line2d_18">
      <g>
       <use xlink:href="#m6a2a235edf" x="345.6" y="102.604437" style="fill: #ffffff; stroke: #000000; stroke-width: 2"/>
      </g>
     </g>
     <g id="text_10">
      <!-- 0.6 -->
      <g transform="translate(26.81375 107.1635)scale(0.12 -0.12)">
       <defs>
        <path id="DejaVuSans-36" d="M 2113 2584 
Q 1688 2584 1439 2293 
Q 1191 2003 1191 1497 
Q 1191 994 1439 701 
Q 1688 409 2113 409 
Q 2538 409 2786 701 
Q 3034 994 3034 1497 
Q 3034 2003 2786 2293 
Q 2538 2584 2113 2584 
z
M 3366 4563 
L 3366 3988 
Q 3128 4100 2886 4159 
Q 2644 4219 2406 4219 
Q 1781 4219 1451 3797 
Q 1122 3375 1075 2522 
Q 1259 2794 1537 2939 
Q 1816 3084 2150 3084 
Q 2853 3084 3261 2657 
Q 3669 2231 3669 1497 
Q 3669 778 3244 343 
Q 2819 -91 2113 -91 
Q 1303 -91 875 529 
Q 447 1150 447 2328 
Q 447 3434 972 4092 
Q 1497 4750 2381 4750 
Q 2619 4750 2861 4703 
Q 3103 4656 3366 4563 
z
" transform="scale(0.015625)"/>
       </defs>
       <use xlink:href="#DejaVuSans-30"/>
       <use xlink:href="#DejaVuSans-2e" x="63.623047"/>
       <use xlink:href="#DejaVuSans-36" x="95.410156"/>
      </g>
     </g>
    </g>
    <g id="ytick_5">
     <g id="line2d_19">
      <g>
       <use xlink:href="#m9637a880bf" x="49.3975" y="57.18175" style="fill: #ffffff; stroke: #000000; stroke-width: 2"/>
      </g>
     </g>
     <g id="line2d_20">
      <g>
       <use xlink:href="#m6a2a235edf" x="345.6" y="57.18175" style="fill: #ffffff; stroke: #000000; stroke-width: 2"/>
      </g>
     </g>
     <g id="text_11">
      <!-- 0.8 -->
      <g transform="translate(26.81375 61.740812)scale(0.12 -0.12)">
       <defs>
        <path id="DejaVuSans-38" d="M 2034 2216 
Q 1584 2216 1326 1975 
Q 1069 1734 1069 1313 
Q 1069 891 1326 650 
Q 1584 409 2034 409 
Q 2484 409 2743 651 
Q 3003 894 3003 1313 
Q 3003 1734 2745 1975 
Q 2488 2216 2034 2216 
z
M 1403 2484 
Q 997 2584 770 2862 
Q 544 3141 544 3541 
Q 544 4100 942 4425 
Q 1341 4750 2034 4750 
Q 2731 4750 3128 4425 
Q 3525 4100 3525 3541 
Q 3525 3141 3298 2862 
Q 3072 2584 2669 2484 
Q 3125 2378 3379 2068 
Q 3634 1759 3634 1313 
Q 3634 634 3220 271 
Q 2806 -91 2034 -91 
Q 1263 -91 848 271 
Q 434 634 434 1313 
Q 434 1759 690 2068 
Q 947 2378 1403 2484 
z
M 1172 3481 
Q 1172 3119 1398 2916 
Q 1625 2713 2034 2713 
Q 2441 2713 2670 2916 
Q 2900 3119 2900 3481 
Q 2900 3844 2670 4047 
Q 2441 4250 2034 4250 
Q 1625 4250 1398 4047 
Q 1172 3844 1172 3481 
z
" transform="scale(0.015625)"/>
       </defs>
       <use xlink:href="#DejaVuSans-30"/>
       <use xlink:href="#DejaVuSans-2e" x="63.623047"/>
       <use xlink:href="#DejaVuSans-38" x="95.410156"/>
      </g>
     </g>
    </g>
    <g id="ytick_6">
     <g id="line2d_21">
      <g>
       <use xlink:href="#m9637a880bf" x="49.3975" y="11.759062" style="fill: #ffffff; stroke: #000000; stroke-width: 2"/>
      </g>
     </g>
     <g id="line2d_22">
      <g>
       <use xlink:href="#m6a2a235edf" x="345.6" y="11.759062" style="fill: #ffffff; stroke: #000000; stroke-width: 2"/>
      </g>
     </g>
     <g id="text_12">
      <!-- 1.0 -->
      <g transform="translate(26.81375 16.318125)scale(0.12 -0.12)">
       <use xlink:href="#DejaVuSans-31"/>
       <use xlink:href="#DejaVuSans-2e" x="63.623047"/>
       <use xlink:href="#DejaVuSans-30" x="95.410156"/>
      </g>
     </g>
    </g>
    <g id="text_13">
     <!-- Porosity of slice -->
     <g transform="translate(16.318125 172.133594)rotate(-90)scale(0.12 -0.12)">
      <defs>
       <path id="DejaVuSans-72" d="M 2631 2963 
Q 2534 3019 2420 3045 
Q 2306 3072 2169 3072 
Q 1681 3072 1420 2755 
Q 1159 2438 1159 1844 
L 1159 0 
L 581 0 
L 581 3500 
L 1159 3500 
L 1159 2956 
Q 1341 3275 1631 3429 
Q 1922 3584 2338 3584 
Q 2397 3584 2469 3576 
Q 2541 3569 2628 3553 
L 2631 2963 
z
" transform="scale(0.015625)"/>
       <path id="DejaVuSans-79" d="M 2059 -325 
Q 1816 -950 1584 -1140 
Q 1353 -1331 966 -1331 
L 506 -1331 
L 506 -850 
L 844 -850 
Q 1081 -850 1212 -737 
Q 1344 -625 1503 -206 
L 1606 56 
L 191 3500 
L 800 3500 
L 1894 763 
L 2988 3500 
L 3597 3500 
L 2059 -325 
z
" transform="scale(0.015625)"/>
      </defs>
      <use xlink:href="#DejaVuSans-50"/>
      <use xlink:href="#DejaVuSans-6f" x="56.677734"/>
      <use xlink:href="#DejaVuSans-72" x="117.859375"/>
      <use xlink:href="#DejaVuSans-6f" x="156.722656"/>
      <use xlink:href="#DejaVuSans-73" x="217.904297"/>
      <use xlink:href="#DejaVuSans-69" x="270.003906"/>
      <use xlink:href="#DejaVuSans-74" x="297.787109"/>
      <use xlink:href="#DejaVuSans-79" x="336.996094"/>
      <use xlink:href="#DejaVuSans-20" x="396.175781"/>
      <use xlink:href="#DejaVuSans-6f" x="427.962891"/>
      <use xlink:href="#DejaVuSans-66" x="489.144531"/>
      <use xlink:href="#DejaVuSans-20" x="524.349609"/>
      <use xlink:href="#DejaVuSans-73" x="556.136719"/>
      <use xlink:href="#DejaVuSans-6c" x="608.236328"/>
      <use xlink:href="#DejaVuSans-69" x="636.019531"/>
      <use xlink:href="#DejaVuSans-63" x="663.802734"/>
      <use xlink:href="#DejaVuSans-65" x="718.783203"/>
     </g>
    </g>
   </g>
   <g id="line2d_23">
    <path d="M 62.86125 119.991864 
L 63.53782 120.01079 
L 65.567531 120.748909 
L 66.244102 121.195565 
L 66.920672 122.158904 
L 67.597242 122.811856 
L 68.950383 125.101916 
L 69.626954 126.449456 
L 70.303524 127.441185 
L 70.980094 128.915529 
L 71.656665 129.685822 
L 72.333235 130.102197 
L 73.009805 130.327418 
L 73.686376 130.781645 
L 74.362946 130.997402 
L 75.039516 130.953872 
L 79.098938 127.424151 
L 79.775509 126.657643 
L 80.452079 125.506935 
L 81.128649 124.74989 
L 81.80522 124.710145 
L 83.834931 126.661428 
L 84.511501 127.844311 
L 85.188072 129.31487 
L 86.541212 131.341858 
L 87.217783 131.989131 
L 87.894353 132.129184 
L 88.570923 132.416861 
L 89.924064 132.519062 
L 90.600634 132.772672 
L 92.630345 132.844592 
L 94.660057 129.121824 
L 97.366338 123.046539 
L 98.042908 121.681966 
L 99.396049 119.649301 
L 100.072619 118.913075 
L 102.10233 117.364918 
L 102.778901 117.096167 
L 103.455471 117.26461 
L 104.132041 117.30814 
L 104.808612 117.696125 
L 105.485182 118.820337 
L 106.161753 120.217085 
L 107.514893 124.193462 
L 108.868034 128.798187 
L 109.544604 130.306599 
L 110.221175 131.281294 
L 110.897745 131.949386 
L 111.574315 132.174607 
L 112.927456 132.025091 
L 113.604026 132.199211 
L 115.633737 131.920997 
L 116.310308 131.360784 
L 117.663448 129.859943 
L 118.340019 128.981771 
L 119.016589 127.867022 
L 119.69316 127.03238 
L 121.0463 125.819216 
L 123.076011 123.928497 
L 123.752582 123.786551 
L 124.429152 123.864148 
L 125.105722 124.108295 
L 127.135433 125.639418 
L 127.812004 125.635633 
L 129.165144 124.806669 
L 129.841715 124.590911 
L 131.194856 125.124627 
L 131.871426 125.166265 
L 132.547996 125.408519 
L 133.224567 125.298748 
L 134.577707 123.875504 
L 135.930848 122.891345 
L 136.607418 122.079415 
L 137.283989 121.517309 
L 137.960559 121.135001 
L 138.637129 120.620211 
L 139.3137 119.229141 
L 139.99027 118.360432 
L 140.66684 117.739655 
L 141.343411 117.417911 
L 142.019981 117.330851 
L 142.696552 117.130234 
L 143.373122 117.310033 
L 144.049692 118.178741 
L 144.726263 118.687854 
L 145.402833 118.869545 
L 146.079403 118.740847 
L 146.755974 118.754096 
L 147.432544 118.595116 
L 148.109114 118.089789 
L 149.462255 116.305056 
L 150.138825 115.860292 
L 150.815396 115.027543 
L 151.491966 114.444618 
L 152.845107 114.215612 
L 154.874818 114.546819 
L 156.227959 115.188415 
L 156.904529 115.773232 
L 158.25767 116.049553 
L 158.93424 116.501887 
L 160.287381 119.232926 
L 160.963951 120.309823 
L 161.640521 120.820828 
L 163.670232 121.969643 
L 164.346803 122.552568 
L 167.053084 125.813538 
L 167.729655 125.938451 
L 168.406225 125.917632 
L 169.082795 125.698089 
L 170.435936 125.535324 
L 171.112506 125.276036 
L 171.789077 124.676078 
L 172.465647 123.856577 
L 173.142217 123.47427 
L 173.818788 123.523478 
L 174.495358 124.225637 
L 175.171928 124.518992 
L 176.525069 125.682948 
L 177.201639 126.644395 
L 179.231351 130.883846 
L 179.907921 131.960742 
L 180.584491 132.450928 
L 181.261062 132.112151 
L 182.614202 130.82896 
L 183.290773 130.546961 
L 183.967343 130.056774 
L 184.643913 129.922399 
L 185.997054 128.703557 
L 186.673624 128.044928 
L 187.350195 127.130796 
L 188.026765 126.773092 
L 188.703335 126.668999 
L 189.379906 126.986958 
L 190.056476 127.823492 
L 190.733046 128.468873 
L 191.409617 129.685822 
L 192.086187 131.404314 
L 192.762758 132.651545 
L 193.439328 133.563784 
L 194.115898 134.247017 
L 194.792469 134.646358 
L 196.145609 135.022988 
L 197.49875 135.040022 
L 197.49875 135.040022 
" clip-path="url(#pafdb306eac)" style="fill: none; stroke: #0000ff; stroke-opacity: 0.5; stroke-width: 2; stroke-linecap: square"/>
   </g>
   <g id="line2d_24">
    <path d="M 62.86125 146.982403 
L 64.212128 147.54167 
L 64.887567 147.927763 
L 65.563006 148.552325 
L 66.238445 149.006552 
L 66.913884 149.866744 
L 67.589323 150.9796 
L 68.264762 151.808564 
L 70.291079 153.259251 
L 71.641957 153.384163 
L 72.992834 152.532488 
L 73.668273 152.217368 
L 74.343712 151.615517 
L 75.69459 150.065468 
L 76.370029 149.685053 
L 78.396346 145.99446 
L 79.071785 144.992322 
L 79.747224 144.376276 
L 81.098102 141.835445 
L 81.773541 140.804918 
L 84.475297 137.724692 
L 85.150736 137.156908 
L 87.177053 134.440064 
L 87.852492 133.159712 
L 88.527931 132.194479 
L 89.20337 130.874383 
L 89.878809 128.960952 
L 91.229686 123.092908 
L 93.931442 114.684033 
L 94.606881 113.46046 
L 95.28232 112.552006 
L 95.957759 111.839438 
L 96.633198 112.009773 
L 99.334954 113.715962 
L 100.010393 114.397303 
L 100.685832 115.538548 
L 102.712149 119.632267 
L 104.738466 121.656416 
L 105.413905 122.979352 
L 106.764783 126.533677 
L 107.440222 127.83674 
L 109.466538 129.971607 
L 110.141977 130.590491 
L 110.817416 130.987939 
L 111.492855 131.229247 
L 112.168294 130.956711 
L 112.843733 130.474095 
L 113.519172 129.733138 
L 114.87005 129.247683 
L 116.220928 130.570618 
L 116.896367 130.982262 
L 117.571806 131.215053 
L 118.247245 131.618179 
L 119.598123 133.066027 
L 120.273562 133.940414 
L 120.949001 134.479808 
L 121.62444 134.616077 
L 122.299879 135.192377 
L 122.975318 135.382584 
L 124.326196 134.951069 
L 125.001635 134.888613 
L 125.677074 135.144115 
L 126.352513 134.993653 
L 127.027952 135.093015 
L 128.378829 135.99863 
L 129.054268 135.924818 
L 130.405146 136.007146 
L 131.756024 134.89429 
L 132.431463 134.530909 
L 133.106902 134.400319 
L 133.782341 133.619616 
L 135.133219 130.706886 
L 137.159536 126.652912 
L 137.834975 124.577663 
L 138.510414 123.768571 
L 139.185853 123.240532 
L 139.861292 122.292334 
L 140.536731 121.009143 
L 142.563048 118.093574 
L 143.913926 115.544226 
L 144.589365 114.454081 
L 145.264804 113.599567 
L 145.940242 112.926743 
L 146.615681 112.543489 
L 147.29112 112.574717 
L 147.966559 113.051656 
L 148.641998 113.389487 
L 149.317437 113.576855 
L 149.992876 114.087861 
L 150.668315 115.589648 
L 151.343754 116.05807 
L 152.694632 117.593924 
L 153.370071 118.746525 
L 154.720949 121.517309 
L 155.396388 122.32924 
L 156.071827 122.914057 
L 156.747266 123.277438 
L 157.422705 123.433579 
L 158.098144 123.118459 
L 158.773583 122.272461 
L 160.124461 119.899126 
L 160.7999 118.720975 
L 161.475339 116.946651 
L 162.150778 115.938835 
L 162.826217 117.102792 
L 163.501656 116.486746 
L 164.177094 116.191499 
L 164.852533 116.429968 
L 165.527972 116.427129 
L 166.87885 117.168087 
L 167.554289 117.310033 
L 168.229728 118.093574 
L 168.905167 119.266047 
L 172.282362 127.515943 
L 173.63324 129.8836 
L 174.308679 130.817604 
L 176.334996 132.015628 
L 177.010435 131.530173 
L 177.685874 130.607524 
L 179.712191 125.508828 
L 180.38763 125.244808 
L 181.063069 125.349848 
L 181.738508 124.943883 
L 183.089385 123.121298 
L 184.440263 121.93463 
L 185.115702 120.906942 
L 185.791141 119.44206 
L 186.46658 117.335583 
L 187.817458 112.248242 
L 190.519214 103.424885 
L 191.194653 101.326924 
L 191.870092 100.89257 
L 192.545531 100.109029 
L 193.22097 99.575312 
L 193.896409 99.864882 
L 195.247287 100.940832 
L 195.922726 101.301374 
L 196.598165 101.204851 
L 198.624482 103.027436 
L 199.299921 103.938729 
L 202.001676 108.881285 
L 202.677115 109.31564 
L 203.352554 108.957936 
L 204.027993 108.123294 
L 205.378871 107.263102 
L 206.05431 107.106961 
L 206.729749 106.825909 
L 207.405188 106.397232 
L 208.080627 105.647758 
L 208.756066 105.238953 
L 210.106944 104.980612 
L 210.782383 104.063641 
L 211.457822 103.88479 
L 212.133261 104.605875 
L 214.159578 107.484537 
L 214.835017 108.628621 
L 215.510456 110.814588 
L 216.185895 112.251081 
L 216.861334 112.83022 
L 218.212212 114.655644 
L 219.563089 115.816762 
L 220.913967 116.137559 
L 221.589406 116.702504 
L 222.940284 119.087195 
L 223.615723 121.040371 
L 224.291162 122.536481 
L 224.966601 123.433579 
L 225.64204 123.961617 
L 226.317479 124.231315 
L 228.343796 127.010615 
L 230.370113 130.831799 
L 232.39643 135.251994 
L 233.071869 135.612537 
L 234.422747 133.622455 
L 236.449064 130.337827 
L 239.150819 125.040406 
L 240.501697 121.997086 
L 241.177136 120.458393 
L 242.528014 119.04745 
L 243.878892 120.881391 
L 247.256087 126.201524 
L 249.957843 133.0859 
L 251.98416 136.580608 
L 253.335038 139.689223 
L 254.010477 140.560771 
L 255.361355 140.875891 
L 256.036793 140.881568 
L 256.712232 140.665811 
L 257.387671 140.628905 
L 258.06311 139.737485 
L 260.764866 131.56424 
L 262.115744 128.838878 
L 263.466622 127.095783 
L 264.142061 126.47406 
L 264.8175 126.173134 
L 264.8175 126.173134 
" clip-path="url(#pafdb306eac)" style="fill: none; stroke: #ff0000; stroke-opacity: 0.5; stroke-width: 2; stroke-linecap: square"/>
   </g>
   <g id="line2d_25">
    <path d="M 62.86125 136.065817 
L 63.536125 136.37242 
L 64.210999 136.875855 
L 64.885874 137.723745 
L 66.235623 140.063014 
L 66.910498 140.937401 
L 67.585373 141.433265 
L 68.260247 141.039602 
L 68.935122 140.350691 
L 70.284872 138.594347 
L 70.959746 137.996282 
L 72.309496 135.498034 
L 74.33412 131.769588 
L 75.683869 128.434806 
L 77.033618 125.277929 
L 77.708493 124.922118 
L 79.058242 124.891836 
L 79.733117 124.585233 
L 81.082867 123.324753 
L 81.757741 122.420085 
L 82.432616 121.931791 
L 83.107491 121.632758 
L 84.45724 121.988569 
L 85.806989 122.722903 
L 86.481864 123.862255 
L 87.831613 125.508828 
L 88.506488 126.379429 
L 89.181363 126.379429 
L 89.856237 126.163671 
L 91.205987 126.371859 
L 91.880862 126.235591 
L 92.555736 125.860853 
L 93.905486 124.017449 
L 94.58036 123.990953 
L 96.604984 126.084182 
L 97.279859 126.413496 
L 97.954734 126.30751 
L 98.629608 126.761737 
L 99.304483 127.469574 
L 99.979358 128.374242 
L 100.654232 129.808842 
L 102.678857 133.037638 
L 103.353731 133.737905 
L 104.028606 134.229984 
L 104.703481 134.532802 
L 105.378355 134.51009 
L 106.728105 133.378308 
L 107.402979 133.014927 
L 108.077854 133.65463 
L 109.427603 134.317044 
L 111.452227 133.340456 
L 112.801977 132.167037 
L 113.476852 130.876275 
L 114.826601 129.6915 
L 115.501476 129.808842 
L 117.5261 131.349428 
L 118.200974 132.030769 
L 118.875849 133.219329 
L 120.900473 137.788094 
L 121.575348 139.309754 
L 122.925097 141.474902 
L 123.599972 142.11082 
L 124.274846 143.447004 
L 125.624596 146.721223 
L 126.299471 147.421489 
L 126.974345 147.133812 
L 128.324095 145.578085 
L 128.998969 145.49481 
L 129.673844 145.650004 
L 131.023593 145.282838 
L 131.698468 145.210918 
L 132.373343 144.033714 
L 133.048217 141.94427 
L 133.723092 140.418825 
L 134.397967 139.340036 
L 137.77234 132.178392 
L 138.447215 132.008057 
L 139.12209 132.114043 
L 139.796964 132.844592 
L 140.471839 133.344241 
L 141.146714 133.567569 
L 142.496463 133.798468 
L 143.846212 130.516679 
L 144.521087 129.702856 
L 145.195962 128.514295 
L 145.870836 126.352933 
L 147.220586 120.993055 
L 147.895461 119.376765 
L 148.570335 118.305546 
L 149.920085 117.336529 
L 150.594959 115.326575 
L 151.269834 113.710285 
L 151.944709 112.86618 
L 152.619583 113.112219 
L 153.294458 114.486256 
L 153.969333 116.954222 
L 154.644207 118.918753 
L 155.319082 120.039179 
L 155.993957 120.773512 
L 156.668831 120.557755 
L 158.018581 121.731174 
L 158.693456 122.469293 
L 159.36833 123.033291 
L 160.043205 123.260405 
L 162.067829 125.035675 
L 162.742704 125.959269 
L 163.417578 126.273443 
L 164.092453 126.860153 
L 164.767328 127.030488 
L 166.117077 126.90179 
L 166.791952 126.239376 
L 168.141701 125.925202 
L 168.816576 125.981981 
L 169.491451 125.804075 
L 170.8412 125.857068 
L 172.190949 125.281714 
L 172.865824 125.145446 
L 173.540699 125.149231 
L 174.890448 126.292369 
L 176.240197 128.150914 
L 176.915072 129.680144 
L 177.589947 130.232787 
L 178.939696 129.566588 
L 180.289445 128.290967 
L 182.31407 124.982682 
L 182.988944 124.293771 
L 183.663819 123.192271 
L 184.338694 121.719818 
L 185.013568 120.523688 
L 185.688443 119.675798 
L 186.363318 119.581167 
L 187.038192 119.732576 
L 187.713067 120.077031 
L 188.387942 120.236011 
L 189.062816 119.505462 
L 190.412566 117.450086 
L 191.08744 116.674115 
L 191.762315 115.705098 
L 192.43719 114.077451 
L 193.112065 111.537566 
L 195.136689 105.844589 
L 195.811563 104.17152 
L 197.161313 102.06315 
L 199.185937 100.337088 
L 199.860811 100.435504 
L 200.535686 100.749678 
L 201.210561 101.279609 
L 203.235185 104.012541 
L 203.91006 105.742388 
L 204.584934 106.942304 
L 205.934684 108.172502 
L 206.609558 109.300499 
L 207.284433 109.864497 
L 207.959308 110.068899 
L 208.634182 109.739585 
L 209.309057 109.217224 
L 211.333681 105.288161 
L 212.008556 104.788512 
L 212.68343 104.459197 
L 213.358305 104.610606 
L 214.03318 105.954361 
L 214.708055 107.593363 
L 215.382929 108.297414 
L 216.057804 108.149791 
L 218.757303 104.444056 
L 219.432177 103.861132 
L 220.781927 102.31676 
L 221.456801 101.007073 
L 222.131676 99.43999 
L 224.1563 98.42555 
L 224.831175 98.349846 
L 225.506049 98.588315 
L 226.855799 99.795801 
L 227.530674 100.291666 
L 228.205548 101.328817 
L 229.555298 104.709022 
L 230.230172 106.253393 
L 232.254796 113.354474 
L 232.929671 116.976933 
L 233.604546 118.986887 
L 236.978919 126.557335 
L 237.653794 127.632338 
L 238.328669 128.063854 
L 239.003543 128.026002 
L 241.028167 127.1554 
L 241.703042 126.515697 
L 242.377917 125.611029 
L 243.052791 124.002309 
L 243.727666 123.502659 
L 244.402541 123.161989 
L 245.077415 123.01058 
L 245.75229 122.692621 
L 246.427165 122.938661 
L 247.102039 123.483733 
L 247.776914 124.668508 
L 248.451789 125.274144 
L 249.126664 125.508828 
L 250.476413 125.421768 
L 251.151288 125.796505 
L 251.826162 126.538409 
L 252.501037 126.795804 
L 253.175912 126.424852 
L 254.525661 124.259704 
L 255.87541 120.671311 
L 256.550285 119.198859 
L 257.22516 118.347184 
L 257.900034 118.305546 
L 258.574909 118.116285 
L 259.249784 117.741548 
L 260.599533 116.284237 
L 261.274408 115.962493 
L 261.949283 116.212318 
L 262.624157 116.730893 
L 264.648781 120.955203 
L 266.673405 123.495089 
L 267.34828 124.089369 
L 268.023155 125.55425 
L 269.372904 128.737624 
L 270.047779 129.744493 
L 270.722654 130.28578 
L 271.397528 131.228301 
L 272.072403 132.924081 
L 274.097027 136.300501 
L 274.771902 137.617759 
L 275.446776 139.552009 
L 276.796526 141.989693 
L 277.4714 143.447004 
L 278.146275 144.128344 
L 278.82115 145.267697 
L 279.496024 146.914269 
L 280.845774 148.481352 
L 282.195523 148.924223 
L 282.870398 148.553271 
L 283.545273 147.985488 
L 284.220147 146.391908 
L 284.895022 143.537849 
L 286.244771 136.421628 
L 286.919646 133.643274 
L 287.594521 131.659817 
L 288.269395 130.338773 
L 290.968894 127.106192 
L 291.643769 126.065256 
L 292.318643 125.781364 
L 292.993518 125.304426 
L 294.343268 125.228721 
L 295.018142 125.698089 
L 295.693017 125.421768 
L 297.042766 124.10451 
L 297.717641 123.457236 
L 298.392516 122.351951 
L 299.06739 120.652385 
L 299.742265 119.441114 
L 300.41714 118.892256 
L 301.092014 117.896742 
L 301.766889 116.594625 
L 302.441764 115.943567 
L 303.116638 116.182036 
L 303.791513 117.68477 
L 304.466388 119.732576 
L 305.816137 126.265872 
L 306.491012 128.976093 
L 307.165887 131.076892 
L 307.840761 132.689398 
L 309.190511 134.309473 
L 309.865385 134.759915 
L 310.54026 134.445741 
L 312.564884 132.288164 
L 313.914633 131.538689 
L 314.589508 132.079976 
L 315.939258 134.536587 
L 317.963882 136.925063 
L 318.638756 136.8645 
L 319.313631 136.61089 
L 320.66338 135.043807 
L 321.338255 133.722764 
L 322.01313 132.776458 
L 324.037754 129.172924 
L 324.712628 128.431021 
L 325.387503 127.291668 
L 326.737253 123.616216 
L 328.761877 117.510649 
L 329.436751 115.970063 
L 330.111626 114.732295 
L 330.786501 113.857908 
L 331.461375 113.225776 
L 332.13625 112.869965 
L 332.13625 112.869965 
" clip-path="url(#pafdb306eac)" style="fill: none; stroke: #008000; stroke-opacity: 0.5; stroke-width: 2; stroke-linecap: square"/>
   </g>
   <g id="patch_3">
    <path d="M 49.3975 238.8725 
L 49.3975 11.759062 
" style="fill: none; stroke: #000000; stroke-width: 2; stroke-linejoin: miter; stroke-linecap: square"/>
   </g>
   <g id="patch_4">
    <path d="M 345.6 238.8725 
L 345.6 11.759062 
" style="fill: none; stroke: #000000; stroke-width: 2; stroke-linejoin: miter; stroke-linecap: square"/>
   </g>
   <g id="patch_5">
    <path d="M 49.3975 238.8725 
L 345.6 238.8725 
" style="fill: none; stroke: #000000; stroke-width: 2; stroke-linejoin: miter; stroke-linecap: square"/>
   </g>
   <g id="patch_6">
    <path d="M 49.3975 11.759062 
L 345.6 11.759062 
" style="fill: none; stroke: #000000; stroke-width: 2; stroke-linejoin: miter; stroke-linecap: square"/>
   </g>
   <g id="legend_1">
    <g id="line2d_26">
     <path d="M 249.58125 27.477187 
L 261.58125 27.477187 
L 273.58125 27.477187 
" style="fill: none; stroke: #0000ff; stroke-opacity: 0.5; stroke-width: 2; stroke-linecap: square"/>
    </g>
    <g id="text_14">
     <!-- yz-plane -->
     <g transform="translate(283.18125 31.677187)scale(0.12 -0.12)">
      <defs>
       <path id="DejaVuSans-7a" d="M 353 3500 
L 3084 3500 
L 3084 2975 
L 922 459 
L 3084 459 
L 3084 0 
L 275 0 
L 275 525 
L 2438 3041 
L 353 3041 
L 353 3500 
z
" transform="scale(0.015625)"/>
       <path id="DejaVuSans-2d" d="M 313 2009 
L 1997 2009 
L 1997 1497 
L 313 1497 
L 313 2009 
z
" transform="scale(0.015625)"/>
       <path id="DejaVuSans-70" d="M 1159 525 
L 1159 -1331 
L 581 -1331 
L 581 3500 
L 1159 3500 
L 1159 2969 
Q 1341 3281 1617 3432 
Q 1894 3584 2278 3584 
Q 2916 3584 3314 3078 
Q 3713 2572 3713 1747 
Q 3713 922 3314 415 
Q 2916 -91 2278 -91 
Q 1894 -91 1617 61 
Q 1341 213 1159 525 
z
M 3116 1747 
Q 3116 2381 2855 2742 
Q 2594 3103 2138 3103 
Q 1681 3103 1420 2742 
Q 1159 2381 1159 1747 
Q 1159 1113 1420 752 
Q 1681 391 2138 391 
Q 2594 391 2855 752 
Q 3116 1113 3116 1747 
z
" transform="scale(0.015625)"/>
      </defs>
      <use xlink:href="#DejaVuSans-79"/>
      <use xlink:href="#DejaVuSans-7a" x="59.179688"/>
      <use xlink:href="#DejaVuSans-2d" x="111.669922"/>
      <use xlink:href="#DejaVuSans-70" x="147.753906"/>
      <use xlink:href="#DejaVuSans-6c" x="211.230469"/>
      <use xlink:href="#DejaVuSans-61" x="239.013672"/>
      <use xlink:href="#DejaVuSans-6e" x="300.292969"/>
      <use xlink:href="#DejaVuSans-65" x="363.671875"/>
     </g>
    </g>
    <g id="line2d_27">
     <path d="M 249.58125 45.090937 
L 261.58125 45.090937 
L 273.58125 45.090937 
" style="fill: none; stroke: #ff0000; stroke-opacity: 0.5; stroke-width: 2; stroke-linecap: square"/>
    </g>
    <g id="text_15">
     <!-- xz-plane -->
     <g transform="translate(283.18125 49.290937)scale(0.12 -0.12)">
      <use xlink:href="#DejaVuSans-78"/>
      <use xlink:href="#DejaVuSans-7a" x="59.179688"/>
      <use xlink:href="#DejaVuSans-2d" x="111.669922"/>
      <use xlink:href="#DejaVuSans-70" x="147.753906"/>
      <use xlink:href="#DejaVuSans-6c" x="211.230469"/>
      <use xlink:href="#DejaVuSans-61" x="239.013672"/>
      <use xlink:href="#DejaVuSans-6e" x="300.292969"/>
      <use xlink:href="#DejaVuSans-65" x="363.671875"/>
     </g>
    </g>
    <g id="line2d_28">
     <path d="M 249.58125 62.704687 
L 261.58125 62.704687 
L 273.58125 62.704687 
" style="fill: none; stroke: #008000; stroke-opacity: 0.5; stroke-width: 2; stroke-linecap: square"/>
    </g>
    <g id="text_16">
     <!-- xy-plane -->
     <g transform="translate(283.18125 66.904687)scale(0.12 -0.12)">
      <use xlink:href="#DejaVuSans-78"/>
      <use xlink:href="#DejaVuSans-79" x="59.179688"/>
      <use xlink:href="#DejaVuSans-2d" x="116.609375"/>
      <use xlink:href="#DejaVuSans-70" x="152.693359"/>
      <use xlink:href="#DejaVuSans-6c" x="216.169922"/>
      <use xlink:href="#DejaVuSans-61" x="243.953125"/>
      <use xlink:href="#DejaVuSans-6e" x="305.232422"/>
      <use xlink:href="#DejaVuSans-65" x="368.611328"/>
     </g>
    </g>
   </g>
  </g>
 </g>
 <defs>
  <clipPath id="pafdb306eac">
   <rect x="49.3975" y="11.759062" width="296.2025" height="227.113437"/>
  </clipPath>
 </defs>
</svg>
