<?xml version="1.0" encoding="utf-8" standalone="no"?>
<!DOCTYPE svg PUBLIC "-//W3C//DTD SVG 1.1//EN"
  "http://www.w3.org/Graphics/SVG/1.1/DTD/svg11.dtd">
<svg xmlns:xlink="http://www.w3.org/1999/xlink" width="352.8pt" height="280.8pt" viewBox="0 0 352.8 280.8" xmlns="http://www.w3.org/2000/svg" version="1.1">
 <metadata>
  <rdf:RDF xmlns:dc="http://purl.org/dc/elements/1.1/" xmlns:cc="http://creativecommons.org/ns#" xmlns:rdf="http://www.w3.org/1999/02/22-rdf-syntax-ns#">
   <cc:Work>
    <dc:type rdf:resource="http://purl.org/dc/dcmitype/StillImage"/>
    <dc:date>2022-08-12T21:52:21.976460</dc:date>
    <dc:format>image/svg+xml</dc:format>
    <dc:creator>
     <cc:Agent>
      <dc:title>Matplotlib v3.5.3, https://matplotlib.org/</dc:title>
     </cc:Agent>
    </dc:creator>
   </cc:Work>
  </rdf:RDF>
 </metadata>
 <defs>
  <style type="text/css">*{stroke-linejoin: round; stroke-linecap: butt}</style>
 </defs>
 <g id="figure_1">
  <g id="patch_1">
   <path d="M 0 280.8 
L 352.8 280.8 
L 352.8 0 
L 0 0 
L 0 280.8 
z
" style="fill: none"/>
  </g>
  <g id="axes_1">
   <g id="patch_2">
    <path d="M 49.3975 238.8725 
L 345.6 238.8725 
L 345.6 11.759062 
L 49.3975 11.759062 
z
" style="fill: #ffffff"/>
   </g>
   <g id="matplotlib.axis_1">
    <g id="xtick_1">
     <g id="line2d_1">
      <defs>
       <path id="m4805cc77f3" d="M 0 0 
L 0 -6 
" style="stroke: #000000; stroke-width: 2"/>
      </defs>
      <g>
       <use xlink:href="#m4805cc77f3" x="62.86125" y="238.8725" style="fill: #ffffff; stroke: #000000; stroke-width: 2"/>
      </g>
     </g>
     <g id="line2d_2">
      <defs>
       <path id="m360cf440fc" d="M 0 0 
L 0 6 
" style="stroke: #000000; stroke-width: 2"/>
      </defs>
      <g>
       <use xlink:href="#m360cf440fc" x="62.86125" y="11.759062" style="fill: #ffffff; stroke: #000000; stroke-width: 2"/>
      </g>
     </g>
     <g id="text_1">
      <!-- 0 -->
      <g transform="translate(59.04375 251.490625)scale(0.12 -0.12)">
       <defs>
        <path id="DejaVuSans-30" d="M 2034 4250 
Q 1547 4250 1301 3770 
Q 1056 3291 1056 2328 
Q 1056 1369 1301 889 
Q 1547 409 2034 409 
Q 2525 409 2770 889 
Q 3016 1369 3016 2328 
Q 3016 3291 2770 3770 
Q 2525 4250 2034 4250 
z
M 2034 4750 
Q 2819 4750 3233 4129 
Q 3647 3509 3647 2328 
Q 3647 1150 3233 529 
Q 2819 -91 2034 -91 
Q 1250 -91 836 529 
Q 422 1150 422 2328 
Q 422 3509 836 4129 
Q 1250 4750 2034 4750 
z
" transform="scale(0.015625)"/>
       </defs>
       <use xlink:href="#DejaVuSans-30"/>
      </g>
     </g>
    </g>
    <g id="xtick_2">
     <g id="line2d_3">
      <g>
       <use xlink:href="#m4805cc77f3" x="119.911038" y="238.8725" style="fill: #ffffff; stroke: #000000; stroke-width: 2"/>
      </g>
     </g>
     <g id="line2d_4">
      <g>
       <use xlink:href="#m360cf440fc" x="119.911038" y="11.759062" style="fill: #ffffff; stroke: #000000; stroke-width: 2"/>
      </g>
     </g>
     <g id="text_2">
      <!-- 500 -->
      <g transform="translate(108.458538 251.490625)scale(0.12 -0.12)">
       <defs>
        <path id="DejaVuSans-35" d="M 691 4666 
L 3169 4666 
L 3169 4134 
L 1269 4134 
L 1269 2991 
Q 1406 3038 1543 3061 
Q 1681 3084 1819 3084 
Q 2600 3084 3056 2656 
Q 3513 2228 3513 1497 
Q 3513 744 3044 326 
Q 2575 -91 1722 -91 
Q 1428 -91 1123 -41 
Q 819 9 494 109 
L 494 744 
Q 775 591 1075 516 
Q 1375 441 1709 441 
Q 2250 441 2565 725 
Q 2881 1009 2881 1497 
Q 2881 1984 2565 2268 
Q 2250 2553 1709 2553 
Q 1456 2553 1204 2497 
Q 953 2441 691 2322 
L 691 4666 
z
" transform="scale(0.015625)"/>
       </defs>
       <use xlink:href="#DejaVuSans-35"/>
       <use xlink:href="#DejaVuSans-30" x="63.623047"/>
       <use xlink:href="#DejaVuSans-30" x="127.246094"/>
      </g>
     </g>
    </g>
    <g id="xtick_3">
     <g id="line2d_5">
      <g>
       <use xlink:href="#m4805cc77f3" x="176.960826" y="238.8725" style="fill: #ffffff; stroke: #000000; stroke-width: 2"/>
      </g>
     </g>
     <g id="line2d_6">
      <g>
       <use xlink:href="#m360cf440fc" x="176.960826" y="11.759062" style="fill: #ffffff; stroke: #000000; stroke-width: 2"/>
      </g>
     </g>
     <g id="text_3">
      <!-- 1000 -->
      <g transform="translate(161.690826 251.490625)scale(0.12 -0.12)">
       <defs>
        <path id="DejaVuSans-31" d="M 794 531 
L 1825 531 
L 1825 4091 
L 703 3866 
L 703 4441 
L 1819 4666 
L 2450 4666 
L 2450 531 
L 3481 531 
L 3481 0 
L 794 0 
L 794 531 
z
" transform="scale(0.015625)"/>
       </defs>
       <use xlink:href="#DejaVuSans-31"/>
       <use xlink:href="#DejaVuSans-30" x="63.623047"/>
       <use xlink:href="#DejaVuSans-30" x="127.246094"/>
       <use xlink:href="#DejaVuSans-30" x="190.869141"/>
      </g>
     </g>
    </g>
    <g id="xtick_4">
     <g id="line2d_7">
      <g>
       <use xlink:href="#m4805cc77f3" x="234.010614" y="238.8725" style="fill: #ffffff; stroke: #000000; stroke-width: 2"/>
      </g>
     </g>
     <g id="line2d_8">
      <g>
       <use xlink:href="#m360cf440fc" x="234.010614" y="11.759062" style="fill: #ffffff; stroke: #000000; stroke-width: 2"/>
      </g>
     </g>
     <g id="text_4">
      <!-- 1500 -->
      <g transform="translate(218.740614 251.490625)scale(0.12 -0.12)">
       <use xlink:href="#DejaVuSans-31"/>
       <use xlink:href="#DejaVuSans-35" x="63.623047"/>
       <use xlink:href="#DejaVuSans-30" x="127.246094"/>
       <use xlink:href="#DejaVuSans-30" x="190.869141"/>
      </g>
     </g>
    </g>
    <g id="xtick_5">
     <g id="line2d_9">
      <g>
       <use xlink:href="#m4805cc77f3" x="291.060403" y="238.8725" style="fill: #ffffff; stroke: #000000; stroke-width: 2"/>
      </g>
     </g>
     <g id="line2d_10">
      <g>
       <use xlink:href="#m360cf440fc" x="291.060403" y="11.759062" style="fill: #ffffff; stroke: #000000; stroke-width: 2"/>
      </g>
     </g>
     <g id="text_5">
      <!-- 2000 -->
      <g transform="translate(275.790403 251.490625)scale(0.12 -0.12)">
       <defs>
        <path id="DejaVuSans-32" d="M 1228 531 
L 3431 531 
L 3431 0 
L 469 0 
L 469 531 
Q 828 903 1448 1529 
Q 2069 2156 2228 2338 
Q 2531 2678 2651 2914 
Q 2772 3150 2772 3378 
Q 2772 3750 2511 3984 
Q 2250 4219 1831 4219 
Q 1534 4219 1204 4116 
Q 875 4013 500 3803 
L 500 4441 
Q 881 4594 1212 4672 
Q 1544 4750 1819 4750 
Q 2544 4750 2975 4387 
Q 3406 4025 3406 3419 
Q 3406 3131 3298 2873 
Q 3191 2616 2906 2266 
Q 2828 2175 2409 1742 
Q 1991 1309 1228 531 
z
" transform="scale(0.015625)"/>
       </defs>
       <use xlink:href="#DejaVuSans-32"/>
       <use xlink:href="#DejaVuSans-30" x="63.623047"/>
       <use xlink:href="#DejaVuSans-30" x="127.246094"/>
       <use xlink:href="#DejaVuSans-30" x="190.869141"/>
      </g>
     </g>
    </g>
    <g id="text_6">
     <!-- Position of slice along given axis -->
     <g transform="translate(100.205 271.104375)scale(0.12 -0.12)">
      <defs>
       <path id="DejaVuSans-50" d="M 1259 4147 
L 1259 2394 
L 2053 2394 
Q 2494 2394 2734 2622 
Q 2975 2850 2975 3272 
Q 2975 3691 2734 3919 
Q 2494 4147 2053 4147 
L 1259 4147 
z
M 628 4666 
L 2053 4666 
Q 2838 4666 3239 4311 
Q 3641 3956 3641 3272 
Q 3641 2581 3239 2228 
Q 2838 1875 2053 1875 
L 1259 1875 
L 1259 0 
L 628 0 
L 628 4666 
z
" transform="scale(0.015625)"/>
       <path id="DejaVuSans-6f" d="M 1959 3097 
Q 1497 3097 1228 2736 
Q 959 2375 959 1747 
Q 959 1119 1226 758 
Q 1494 397 1959 397 
Q 2419 397 2687 759 
Q 2956 1122 2956 1747 
Q 2956 2369 2687 2733 
Q 2419 3097 1959 3097 
z
M 1959 3584 
Q 2709 3584 3137 3096 
Q 3566 2609 3566 1747 
Q 3566 888 3137 398 
Q 2709 -91 1959 -91 
Q 1206 -91 779 398 
Q 353 888 353 1747 
Q 353 2609 779 3096 
Q 1206 3584 1959 3584 
z
" transform="scale(0.015625)"/>
       <path id="DejaVuSans-73" d="M 2834 3397 
L 2834 2853 
Q 2591 2978 2328 3040 
Q 2066 3103 1784 3103 
Q 1356 3103 1142 2972 
Q 928 2841 928 2578 
Q 928 2378 1081 2264 
Q 1234 2150 1697 2047 
L 1894 2003 
Q 2506 1872 2764 1633 
Q 3022 1394 3022 966 
Q 3022 478 2636 193 
Q 2250 -91 1575 -91 
Q 1294 -91 989 -36 
Q 684 19 347 128 
L 347 722 
Q 666 556 975 473 
Q 1284 391 1588 391 
Q 1994 391 2212 530 
Q 2431 669 2431 922 
Q 2431 1156 2273 1281 
Q 2116 1406 1581 1522 
L 1381 1569 
Q 847 1681 609 1914 
Q 372 2147 372 2553 
Q 372 3047 722 3315 
Q 1072 3584 1716 3584 
Q 2034 3584 2315 3537 
Q 2597 3491 2834 3397 
z
" transform="scale(0.015625)"/>
       <path id="DejaVuSans-69" d="M 603 3500 
L 1178 3500 
L 1178 0 
L 603 0 
L 603 3500 
z
M 603 4863 
L 1178 4863 
L 1178 4134 
L 603 4134 
L 603 4863 
z
" transform="scale(0.015625)"/>
       <path id="DejaVuSans-74" d="M 1172 4494 
L 1172 3500 
L 2356 3500 
L 2356 3053 
L 1172 3053 
L 1172 1153 
Q 1172 725 1289 603 
Q 1406 481 1766 481 
L 2356 481 
L 2356 0 
L 1766 0 
Q 1100 0 847 248 
Q 594 497 594 1153 
L 594 3053 
L 172 3053 
L 172 3500 
L 594 3500 
L 594 4494 
L 1172 4494 
z
" transform="scale(0.015625)"/>
       <path id="DejaVuSans-6e" d="M 3513 2113 
L 3513 0 
L 2938 0 
L 2938 2094 
Q 2938 2591 2744 2837 
Q 2550 3084 2163 3084 
Q 1697 3084 1428 2787 
Q 1159 2491 1159 1978 
L 1159 0 
L 581 0 
L 581 3500 
L 1159 3500 
L 1159 2956 
Q 1366 3272 1645 3428 
Q 1925 3584 2291 3584 
Q 2894 3584 3203 3211 
Q 3513 2838 3513 2113 
z
" transform="scale(0.015625)"/>
       <path id="DejaVuSans-20" transform="scale(0.015625)"/>
       <path id="DejaVuSans-66" d="M 2375 4863 
L 2375 4384 
L 1825 4384 
Q 1516 4384 1395 4259 
Q 1275 4134 1275 3809 
L 1275 3500 
L 2222 3500 
L 2222 3053 
L 1275 3053 
L 1275 0 
L 697 0 
L 697 3053 
L 147 3053 
L 147 3500 
L 697 3500 
L 697 3744 
Q 697 4328 969 4595 
Q 1241 4863 1831 4863 
L 2375 4863 
z
" transform="scale(0.015625)"/>
       <path id="DejaVuSans-6c" d="M 603 4863 
L 1178 4863 
L 1178 0 
L 603 0 
L 603 4863 
z
" transform="scale(0.015625)"/>
       <path id="DejaVuSans-63" d="M 3122 3366 
L 3122 2828 
Q 2878 2963 2633 3030 
Q 2388 3097 2138 3097 
Q 1578 3097 1268 2742 
Q 959 2388 959 1747 
Q 959 1106 1268 751 
Q 1578 397 2138 397 
Q 2388 397 2633 464 
Q 2878 531 3122 666 
L 3122 134 
Q 2881 22 2623 -34 
Q 2366 -91 2075 -91 
Q 1284 -91 818 406 
Q 353 903 353 1747 
Q 353 2603 823 3093 
Q 1294 3584 2113 3584 
Q 2378 3584 2631 3529 
Q 2884 3475 3122 3366 
z
" transform="scale(0.015625)"/>
       <path id="DejaVuSans-65" d="M 3597 1894 
L 3597 1613 
L 953 1613 
Q 991 1019 1311 708 
Q 1631 397 2203 397 
Q 2534 397 2845 478 
Q 3156 559 3463 722 
L 3463 178 
Q 3153 47 2828 -22 
Q 2503 -91 2169 -91 
Q 1331 -91 842 396 
Q 353 884 353 1716 
Q 353 2575 817 3079 
Q 1281 3584 2069 3584 
Q 2775 3584 3186 3129 
Q 3597 2675 3597 1894 
z
M 3022 2063 
Q 3016 2534 2758 2815 
Q 2500 3097 2075 3097 
Q 1594 3097 1305 2825 
Q 1016 2553 972 2059 
L 3022 2063 
z
" transform="scale(0.015625)"/>
       <path id="DejaVuSans-61" d="M 2194 1759 
Q 1497 1759 1228 1600 
Q 959 1441 959 1056 
Q 959 750 1161 570 
Q 1363 391 1709 391 
Q 2188 391 2477 730 
Q 2766 1069 2766 1631 
L 2766 1759 
L 2194 1759 
z
M 3341 1997 
L 3341 0 
L 2766 0 
L 2766 531 
Q 2569 213 2275 61 
Q 1981 -91 1556 -91 
Q 1019 -91 701 211 
Q 384 513 384 1019 
Q 384 1609 779 1909 
Q 1175 2209 1959 2209 
L 2766 2209 
L 2766 2266 
Q 2766 2663 2505 2880 
Q 2244 3097 1772 3097 
Q 1472 3097 1187 3025 
Q 903 2953 641 2809 
L 641 3341 
Q 956 3463 1253 3523 
Q 1550 3584 1831 3584 
Q 2591 3584 2966 3190 
Q 3341 2797 3341 1997 
z
" transform="scale(0.015625)"/>
       <path id="DejaVuSans-67" d="M 2906 1791 
Q 2906 2416 2648 2759 
Q 2391 3103 1925 3103 
Q 1463 3103 1205 2759 
Q 947 2416 947 1791 
Q 947 1169 1205 825 
Q 1463 481 1925 481 
Q 2391 481 2648 825 
Q 2906 1169 2906 1791 
z
M 3481 434 
Q 3481 -459 3084 -895 
Q 2688 -1331 1869 -1331 
Q 1566 -1331 1297 -1286 
Q 1028 -1241 775 -1147 
L 775 -588 
Q 1028 -725 1275 -790 
Q 1522 -856 1778 -856 
Q 2344 -856 2625 -561 
Q 2906 -266 2906 331 
L 2906 616 
Q 2728 306 2450 153 
Q 2172 0 1784 0 
Q 1141 0 747 490 
Q 353 981 353 1791 
Q 353 2603 747 3093 
Q 1141 3584 1784 3584 
Q 2172 3584 2450 3431 
Q 2728 3278 2906 2969 
L 2906 3500 
L 3481 3500 
L 3481 434 
z
" transform="scale(0.015625)"/>
       <path id="DejaVuSans-76" d="M 191 3500 
L 800 3500 
L 1894 563 
L 2988 3500 
L 3597 3500 
L 2284 0 
L 1503 0 
L 191 3500 
z
" transform="scale(0.015625)"/>
       <path id="DejaVuSans-78" d="M 3513 3500 
L 2247 1797 
L 3578 0 
L 2900 0 
L 1881 1375 
L 863 0 
L 184 0 
L 1544 1831 
L 300 3500 
L 978 3500 
L 1906 2253 
L 2834 3500 
L 3513 3500 
z
" transform="scale(0.015625)"/>
      </defs>
      <use xlink:href="#DejaVuSans-50"/>
      <use xlink:href="#DejaVuSans-6f" x="56.677734"/>
      <use xlink:href="#DejaVuSans-73" x="117.859375"/>
      <use xlink:href="#DejaVuSans-69" x="169.958984"/>
      <use xlink:href="#DejaVuSans-74" x="197.742188"/>
      <use xlink:href="#DejaVuSans-69" x="236.951172"/>
      <use xlink:href="#DejaVuSans-6f" x="264.734375"/>
      <use xlink:href="#DejaVuSans-6e" x="325.916016"/>
      <use xlink:href="#DejaVuSans-20" x="389.294922"/>
      <use xlink:href="#DejaVuSans-6f" x="421.082031"/>
      <use xlink:href="#DejaVuSans-66" x="482.263672"/>
      <use xlink:href="#DejaVuSans-20" x="517.46875"/>
      <use xlink:href="#DejaVuSans-73" x="549.255859"/>
      <use xlink:href="#DejaVuSans-6c" x="601.355469"/>
      <use xlink:href="#DejaVuSans-69" x="629.138672"/>
      <use xlink:href="#DejaVuSans-63" x="656.921875"/>
      <use xlink:href="#DejaVuSans-65" x="711.902344"/>
      <use xlink:href="#DejaVuSans-20" x="773.425781"/>
      <use xlink:href="#DejaVuSans-61" x="805.212891"/>
      <use xlink:href="#DejaVuSans-6c" x="866.492188"/>
      <use xlink:href="#DejaVuSans-6f" x="894.275391"/>
      <use xlink:href="#DejaVuSans-6e" x="955.457031"/>
      <use xlink:href="#DejaVuSans-67" x="1018.835938"/>
      <use xlink:href="#DejaVuSans-20" x="1082.3125"/>
      <use xlink:href="#DejaVuSans-67" x="1114.099609"/>
      <use xlink:href="#DejaVuSans-69" x="1177.576172"/>
      <use xlink:href="#DejaVuSans-76" x="1205.359375"/>
      <use xlink:href="#DejaVuSans-65" x="1264.539062"/>
      <use xlink:href="#DejaVuSans-6e" x="1326.0625"/>
      <use xlink:href="#DejaVuSans-20" x="1389.441406"/>
      <use xlink:href="#DejaVuSans-61" x="1421.228516"/>
      <use xlink:href="#DejaVuSans-78" x="1482.507812"/>
      <use xlink:href="#DejaVuSans-69" x="1541.6875"/>
      <use xlink:href="#DejaVuSans-73" x="1569.470703"/>
     </g>
    </g>
   </g>
   <g id="matplotlib.axis_2">
    <g id="ytick_1">
     <g id="line2d_11">
      <defs>
       <path id="m29007e49b5" d="M 0 0 
L 6 0 
" style="stroke: #000000; stroke-width: 2"/>
      </defs>
      <g>
       <use xlink:href="#m29007e49b5" x="49.3975" y="238.8725" style="fill: #ffffff; stroke: #000000; stroke-width: 2"/>
      </g>
     </g>
     <g id="line2d_12">
      <defs>
       <path id="mb6c10796f7" d="M 0 0 
L -6 0 
" style="stroke: #000000; stroke-width: 2"/>
      </defs>
      <g>
       <use xlink:href="#mb6c10796f7" x="345.6" y="238.8725" style="fill: #ffffff; stroke: #000000; stroke-width: 2"/>
      </g>
     </g>
     <g id="text_7">
      <!-- 0.0 -->
      <g transform="translate(26.81375 243.431562)scale(0.12 -0.12)">
       <defs>
        <path id="DejaVuSans-2e" d="M 684 794 
L 1344 794 
L 1344 0 
L 684 0 
L 684 794 
z
" transform="scale(0.015625)"/>
       </defs>
       <use xlink:href="#DejaVuSans-30"/>
       <use xlink:href="#DejaVuSans-2e" x="63.623047"/>
       <use xlink:href="#DejaVuSans-30" x="95.410156"/>
      </g>
     </g>
    </g>
    <g id="ytick_2">
     <g id="line2d_13">
      <g>
       <use xlink:href="#m29007e49b5" x="49.3975" y="193.449812" style="fill: #ffffff; stroke: #000000; stroke-width: 2"/>
      </g>
     </g>
     <g id="line2d_14">
      <g>
       <use xlink:href="#mb6c10796f7" x="345.6" y="193.449812" style="fill: #ffffff; stroke: #000000; stroke-width: 2"/>
      </g>
     </g>
     <g id="text_8">
      <!-- 0.2 -->
      <g transform="translate(26.81375 198.008875)scale(0.12 -0.12)">
       <use xlink:href="#DejaVuSans-30"/>
       <use xlink:href="#DejaVuSans-2e" x="63.623047"/>
       <use xlink:href="#DejaVuSans-32" x="95.410156"/>
      </g>
     </g>
    </g>
    <g id="ytick_3">
     <g id="line2d_15">
      <g>
       <use xlink:href="#m29007e49b5" x="49.3975" y="148.027125" style="fill: #ffffff; stroke: #000000; stroke-width: 2"/>
      </g>
     </g>
     <g id="line2d_16">
      <g>
       <use xlink:href="#mb6c10796f7" x="345.6" y="148.027125" style="fill: #ffffff; stroke: #000000; stroke-width: 2"/>
      </g>
     </g>
     <g id="text_9">
      <!-- 0.4 -->
      <g transform="translate(26.81375 152.586187)scale(0.12 -0.12)">
       <defs>
        <path id="DejaVuSans-34" d="M 2419 4116 
L 825 1625 
L 2419 1625 
L 2419 4116 
z
M 2253 4666 
L 3047 4666 
L 3047 1625 
L 3713 1625 
L 3713 1100 
L 3047 1100 
L 3047 0 
L 2419 0 
L 2419 1100 
L 313 1100 
L 313 1709 
L 2253 4666 
z
" transform="scale(0.015625)"/>
       </defs>
       <use xlink:href="#DejaVuSans-30"/>
       <use xlink:href="#DejaVuSans-2e" x="63.623047"/>
       <use xlink:href="#DejaVuSans-34" x="95.410156"/>
      </g>
     </g>
    </g>
    <g id="ytick_4">
     <g id="line2d_17">
      <g>
       <use xlink:href="#m29007e49b5" x="49.3975" y="102.604437" style="fill: #ffffff; stroke: #000000; stroke-width: 2"/>
      </g>
     </g>
     <g id="line2d_18">
      <g>
       <use xlink:href="#mb6c10796f7" x="345.6" y="102.604437" style="fill: #ffffff; stroke: #000000; stroke-width: 2"/>
      </g>
     </g>
     <g id="text_10">
      <!-- 0.6 -->
      <g transform="translate(26.81375 107.1635)scale(0.12 -0.12)">
       <defs>
        <path id="DejaVuSans-36" d="M 2113 2584 
Q 1688 2584 1439 2293 
Q 1191 2003 1191 1497 
Q 1191 994 1439 701 
Q 1688 409 2113 409 
Q 2538 409 2786 701 
Q 3034 994 3034 1497 
Q 3034 2003 2786 2293 
Q 2538 2584 2113 2584 
z
M 3366 4563 
L 3366 3988 
Q 3128 4100 2886 4159 
Q 2644 4219 2406 4219 
Q 1781 4219 1451 3797 
Q 1122 3375 1075 2522 
Q 1259 2794 1537 2939 
Q 1816 3084 2150 3084 
Q 2853 3084 3261 2657 
Q 3669 2231 3669 1497 
Q 3669 778 3244 343 
Q 2819 -91 2113 -91 
Q 1303 -91 875 529 
Q 447 1150 447 2328 
Q 447 3434 972 4092 
Q 1497 4750 2381 4750 
Q 2619 4750 2861 4703 
Q 3103 4656 3366 4563 
z
" transform="scale(0.015625)"/>
       </defs>
       <use xlink:href="#DejaVuSans-30"/>
       <use xlink:href="#DejaVuSans-2e" x="63.623047"/>
       <use xlink:href="#DejaVuSans-36" x="95.410156"/>
      </g>
     </g>
    </g>
    <g id="ytick_5">
     <g id="line2d_19">
      <g>
       <use xlink:href="#m29007e49b5" x="49.3975" y="57.18175" style="fill: #ffffff; stroke: #000000; stroke-width: 2"/>
      </g>
     </g>
     <g id="line2d_20">
      <g>
       <use xlink:href="#mb6c10796f7" x="345.6" y="57.18175" style="fill: #ffffff; stroke: #000000; stroke-width: 2"/>
      </g>
     </g>
     <g id="text_11">
      <!-- 0.8 -->
      <g transform="translate(26.81375 61.740812)scale(0.12 -0.12)">
       <defs>
        <path id="DejaVuSans-38" d="M 2034 2216 
Q 1584 2216 1326 1975 
Q 1069 1734 1069 1313 
Q 1069 891 1326 650 
Q 1584 409 2034 409 
Q 2484 409 2743 651 
Q 3003 894 3003 1313 
Q 3003 1734 2745 1975 
Q 2488 2216 2034 2216 
z
M 1403 2484 
Q 997 2584 770 2862 
Q 544 3141 544 3541 
Q 544 4100 942 4425 
Q 1341 4750 2034 4750 
Q 2731 4750 3128 4425 
Q 3525 4100 3525 3541 
Q 3525 3141 3298 2862 
Q 3072 2584 2669 2484 
Q 3125 2378 3379 2068 
Q 3634 1759 3634 1313 
Q 3634 634 3220 271 
Q 2806 -91 2034 -91 
Q 1263 -91 848 271 
Q 434 634 434 1313 
Q 434 1759 690 2068 
Q 947 2378 1403 2484 
z
M 1172 3481 
Q 1172 3119 1398 2916 
Q 1625 2713 2034 2713 
Q 2441 2713 2670 2916 
Q 2900 3119 2900 3481 
Q 2900 3844 2670 4047 
Q 2441 4250 2034 4250 
Q 1625 4250 1398 4047 
Q 1172 3844 1172 3481 
z
" transform="scale(0.015625)"/>
       </defs>
       <use xlink:href="#DejaVuSans-30"/>
       <use xlink:href="#DejaVuSans-2e" x="63.623047"/>
       <use xlink:href="#DejaVuSans-38" x="95.410156"/>
      </g>
     </g>
    </g>
    <g id="ytick_6">
     <g id="line2d_21">
      <g>
       <use xlink:href="#m29007e49b5" x="49.3975" y="11.759062" style="fill: #ffffff; stroke: #000000; stroke-width: 2"/>
      </g>
     </g>
     <g id="line2d_22">
      <g>
       <use xlink:href="#mb6c10796f7" x="345.6" y="11.759062" style="fill: #ffffff; stroke: #000000; stroke-width: 2"/>
      </g>
     </g>
     <g id="text_12">
      <!-- 1.0 -->
      <g transform="translate(26.81375 16.318125)scale(0.12 -0.12)">
       <use xlink:href="#DejaVuSans-31"/>
       <use xlink:href="#DejaVuSans-2e" x="63.623047"/>
       <use xlink:href="#DejaVuSans-30" x="95.410156"/>
      </g>
     </g>
    </g>
    <g id="text_13">
     <!-- Porosity of slice -->
     <g transform="translate(16.318125 172.133594)rotate(-90)scale(0.12 -0.12)">
      <defs>
       <path id="DejaVuSans-72" d="M 2631 2963 
Q 2534 3019 2420 3045 
Q 2306 3072 2169 3072 
Q 1681 3072 1420 2755 
Q 1159 2438 1159 1844 
L 1159 0 
L 581 0 
L 581 3500 
L 1159 3500 
L 1159 2956 
Q 1341 3275 1631 3429 
Q 1922 3584 2338 3584 
Q 2397 3584 2469 3576 
Q 2541 3569 2628 3553 
L 2631 2963 
z
" transform="scale(0.015625)"/>
       <path id="DejaVuSans-79" d="M 2059 -325 
Q 1816 -950 1584 -1140 
Q 1353 -1331 966 -1331 
L 506 -1331 
L 506 -850 
L 844 -850 
Q 1081 -850 1212 -737 
Q 1344 -625 1503 -206 
L 1606 56 
L 191 3500 
L 800 3500 
L 1894 763 
L 2988 3500 
L 3597 3500 
L 2059 -325 
z
" transform="scale(0.015625)"/>
      </defs>
      <use xlink:href="#DejaVuSans-50"/>
      <use xlink:href="#DejaVuSans-6f" x="56.677734"/>
      <use xlink:href="#DejaVuSans-72" x="117.859375"/>
      <use xlink:href="#DejaVuSans-6f" x="156.722656"/>
      <use xlink:href="#DejaVuSans-73" x="217.904297"/>
      <use xlink:href="#DejaVuSans-69" x="270.003906"/>
      <use xlink:href="#DejaVuSans-74" x="297.787109"/>
      <use xlink:href="#DejaVuSans-79" x="336.996094"/>
      <use xlink:href="#DejaVuSans-20" x="396.175781"/>
      <use xlink:href="#DejaVuSans-6f" x="427.962891"/>
      <use xlink:href="#DejaVuSans-66" x="489.144531"/>
      <use xlink:href="#DejaVuSans-20" x="524.349609"/>
      <use xlink:href="#DejaVuSans-73" x="556.136719"/>
      <use xlink:href="#DejaVuSans-6c" x="608.236328"/>
      <use xlink:href="#DejaVuSans-69" x="636.019531"/>
      <use xlink:href="#DejaVuSans-63" x="663.802734"/>
      <use xlink:href="#DejaVuSans-65" x="718.783203"/>
     </g>
    </g>
   </g>
   <g id="line2d_23">
    <path d="M 62.86125 123.239586 
L 64.214391 123.487518 
L 64.890961 123.688135 
L 65.567531 123.756269 
L 66.244102 123.972027 
L 67.597242 124.036376 
L 68.273813 123.722202 
L 69.626954 123.905785 
L 70.303524 124.15561 
L 71.656665 125.686733 
L 74.362946 130.450438 
L 75.039516 130.774074 
L 75.716087 130.671873 
L 76.392657 130.015137 
L 77.745798 129.842909 
L 78.422368 129.846694 
L 80.452079 130.317955 
L 81.128649 129.94511 
L 81.80522 129.432212 
L 82.48179 128.574859 
L 83.158361 128.487799 
L 83.834931 127.88027 
L 84.511501 127.503641 
L 85.188072 127.535815 
L 85.864642 128.044928 
L 86.541212 128.873892 
L 87.217783 129.500346 
L 87.894353 130.431511 
L 88.570923 131.012543 
L 89.247494 130.885738 
L 89.924064 131.063644 
L 91.953775 130.984154 
L 93.983486 129.867513 
L 97.366338 130.961443 
L 98.719479 130.919805 
L 100.072619 131.383495 
L 100.74919 131.417562 
L 101.42576 130.753255 
L 102.10233 129.841016 
L 102.778901 129.144535 
L 103.455471 128.131988 
L 104.808612 125.495579 
L 105.485182 124.24267 
L 107.514893 119.749609 
L 108.868034 117.868353 
L 109.544604 116.668437 
L 110.221175 116.104439 
L 110.897745 115.903822 
L 111.574315 115.956815 
L 112.927456 116.456465 
L 113.604026 116.331552 
L 114.280597 116.37319 
L 114.957167 117.037496 
L 116.310308 119.09098 
L 117.663448 121.82959 
L 119.016589 123.707061 
L 119.69316 124.384616 
L 120.36973 124.740427 
L 123.752582 128.754657 
L 124.429152 129.428427 
L 125.105722 130.333096 
L 125.782293 131.037147 
L 126.458863 131.540582 
L 127.135433 131.637105 
L 127.812004 131.862326 
L 128.488574 131.779051 
L 129.165144 131.54626 
L 129.841715 131.014436 
L 130.518285 130.876275 
L 131.194856 130.535605 
L 131.871426 130.628343 
L 132.547996 130.878168 
L 133.901137 129.831553 
L 134.577707 129.880761 
L 135.254278 130.043526 
L 137.283989 130.972798 
L 137.960559 131.621964 
L 138.637129 131.754447 
L 139.3137 131.498945 
L 141.343411 131.1261 
L 142.019981 130.853564 
L 142.696552 130.274425 
L 143.373122 129.112361 
L 144.049692 127.524459 
L 146.079403 124.942937 
L 148.109114 123.404243 
L 150.138825 121.049834 
L 152.168536 119.427865 
L 152.845107 118.415318 
L 153.521677 117.713159 
L 155.551388 117.565535 
L 156.227959 117.321388 
L 156.904529 117.713159 
L 157.581099 117.584461 
L 158.25767 117.328959 
L 158.93424 116.723323 
L 160.287381 114.85153 
L 160.963951 114.289424 
L 162.317092 114.408658 
L 162.993662 114.817463 
L 163.670232 115.608574 
L 165.023373 118.369895 
L 166.376514 121.072545 
L 167.053084 122.049133 
L 168.406225 124.835058 
L 169.082795 125.50315 
L 169.759366 125.701874 
L 170.435936 125.709445 
L 171.112506 125.397164 
L 172.465647 125.223043 
L 173.142217 125.16248 
L 175.848499 121.702785 
L 177.87821 120.408238 
L 179.231351 120.436628 
L 179.907921 120.162199 
L 180.584491 119.745824 
L 181.937632 119.726898 
L 182.614202 119.830992 
L 183.290773 120.406346 
L 183.967343 121.189887 
L 185.320484 122.331132 
L 187.350195 124.24267 
L 188.026765 125.056493 
L 190.056476 128.767905 
L 190.733046 130.529927 
L 193.439328 136.018502 
L 194.115898 137.12568 
L 195.469039 138.414549 
L 196.82218 139.19052 
L 197.49875 139.305969 
L 197.49875 139.305969 
" clip-path="url(#pf62b6b59c1)" style="fill: none; stroke: #0000ff; stroke-opacity: 0.5; stroke-width: 2; stroke-linecap: square"/>
   </g>
   <g id="line2d_24">
    <path d="M 62.86125 111.342627 
L 63.536689 111.217715 
L 64.887567 110.638575 
L 65.563006 110.357522 
L 66.913884 109.009036 
L 67.589323 108.219817 
L 69.61564 106.595956 
L 70.291079 106.317742 
L 70.966518 106.40291 
L 71.641957 106.837264 
L 72.992834 108.432736 
L 73.668273 109.176533 
L 75.019151 111.061574 
L 76.370029 114.073666 
L 77.045468 115.294401 
L 77.720907 115.805406 
L 78.396346 115.121227 
L 79.071785 113.945915 
L 79.747224 113.639312 
L 80.422663 113.483171 
L 81.098102 113.585372 
L 81.773541 113.98566 
L 82.44898 114.050955 
L 83.124419 114.329169 
L 83.799858 115.095677 
L 84.475297 116.912584 
L 85.826175 121.403752 
L 86.501614 124.759353 
L 87.852492 132.591928 
L 89.20337 137.46635 
L 90.554247 139.981631 
L 91.229686 141.239272 
L 91.905125 142.133531 
L 92.580564 143.325877 
L 93.931442 144.401827 
L 94.606881 144.492672 
L 95.28232 143.964633 
L 95.957759 142.420262 
L 97.308637 138.519589 
L 97.984076 136.773654 
L 98.659515 134.454258 
L 100.685832 126.445671 
L 101.361271 124.475462 
L 102.03671 123.487518 
L 102.712149 122.791983 
L 103.387588 122.973674 
L 104.738466 124.248348 
L 105.413905 124.498173 
L 106.089344 125.244808 
L 106.764783 125.412304 
L 107.440222 126.051061 
L 108.115661 125.92331 
L 108.791099 125.366882 
L 110.141977 123.268921 
L 110.817416 122.8516 
L 111.492855 121.93463 
L 112.168294 120.46407 
L 112.843733 118.590385 
L 113.519172 116.279505 
L 114.194611 114.508021 
L 114.87005 113.806808 
L 115.545489 113.324192 
L 116.220928 113.559822 
L 117.571806 114.908308 
L 118.247245 115.481769 
L 118.922684 116.393062 
L 119.598123 116.779155 
L 120.273562 116.946651 
L 121.62444 116.361834 
L 122.299879 116.651404 
L 122.975318 117.514435 
L 123.650757 118.777753 
L 125.677074 123.708954 
L 126.352513 125.259003 
L 127.027952 125.81827 
L 127.70339 126.153262 
L 128.378829 125.855176 
L 130.405146 125.894921 
L 131.080585 125.988605 
L 131.756024 125.628062 
L 132.431463 125.733102 
L 133.106902 125.452049 
L 133.782341 124.76787 
L 134.45778 125.051762 
L 135.133219 124.992145 
L 135.808658 124.713931 
L 136.484097 124.799098 
L 137.159536 125.185191 
L 137.834975 125.909115 
L 138.510414 126.351986 
L 139.185853 126.590455 
L 139.861292 127.189467 
L 140.536731 128.02127 
L 141.21217 129.375434 
L 141.887609 130.218593 
L 143.238487 132.591928 
L 143.913926 133.395342 
L 145.264804 134.051132 
L 145.940242 134.752345 
L 146.615681 134.794928 
L 148.641998 137.097291 
L 149.317437 137.792826 
L 149.992876 137.872315 
L 151.343754 138.627468 
L 152.019193 138.5423 
L 152.694632 138.695602 
L 153.370071 139.036272 
L 154.04551 139.973115 
L 154.720949 140.095188 
L 155.396388 139.873753 
L 156.071827 139.476304 
L 157.422705 138.12214 
L 158.098144 137.040512 
L 158.773583 136.398917 
L 160.124461 136.038374 
L 160.7999 136.132059 
L 161.475339 135.822617 
L 162.150778 135.178182 
L 164.177094 131.334287 
L 165.527972 130.332149 
L 166.87885 129.224971 
L 168.229728 129.148321 
L 168.905167 128.665704 
L 170.931484 127.728862 
L 171.606923 127.163917 
L 172.282362 126.792019 
L 173.63324 125.077312 
L 174.308679 124.109241 
L 174.984118 123.635142 
L 176.334996 123.422223 
L 177.010435 123.731665 
L 177.685874 124.174536 
L 178.361313 125.256164 
L 179.712191 127.714667 
L 180.38763 128.662866 
L 181.063069 129.023408 
L 181.738508 128.705449 
L 182.413946 127.359802 
L 183.764824 125.463405 
L 185.115702 122.882829 
L 185.791141 122.153227 
L 186.46658 121.900563 
L 187.142019 121.926113 
L 187.817458 122.164582 
L 188.492897 122.644359 
L 189.168336 122.90554 
L 189.843775 122.962318 
L 190.519214 122.474024 
L 191.870092 123.280277 
L 193.22097 123.368284 
L 193.896409 123.030452 
L 194.571848 122.925412 
L 195.247287 122.403051 
L 195.922726 122.156066 
L 196.598165 122.482541 
L 199.299921 126.13339 
L 200.650798 128.069532 
L 202.001676 130.973745 
L 202.677115 132.075245 
L 204.027993 133.11145 
L 204.703432 133.171067 
L 207.405188 134.306634 
L 208.080627 134.045454 
L 208.756066 133.375469 
L 210.106944 132.966665 
L 210.782383 133.151195 
L 211.457822 133.579871 
L 212.133261 133.233523 
L 213.484139 131.652246 
L 214.159578 130.64443 
L 214.835017 129.968768 
L 216.185895 128.214316 
L 217.536773 126.533677 
L 218.887651 124.853038 
L 220.238528 122.936768 
L 222.264845 122.581903 
L 222.940284 121.713194 
L 223.615723 121.102827 
L 224.966601 120.180179 
L 225.64204 119.57265 
L 226.992918 118.769236 
L 227.668357 118.283781 
L 228.343796 118.644324 
L 229.019235 118.692586 
L 230.370113 119.351215 
L 231.045552 119.921837 
L 232.39643 122.192971 
L 233.071869 122.990707 
L 234.422747 125.227775 
L 235.098186 125.937504 
L 237.124503 129.134126 
L 238.47538 130.153297 
L 239.150819 130.528035 
L 239.826258 131.036201 
L 240.501697 131.368354 
L 241.177136 131.220731 
L 242.528014 129.452085 
L 243.203453 128.177411 
L 244.554331 125.304426 
L 245.22977 124.472623 
L 245.905209 124.143308 
L 246.580648 124.143308 
L 247.256087 124.76787 
L 247.931526 125.000661 
L 248.606965 124.972272 
L 249.282404 124.654313 
L 249.957843 124.151825 
L 250.633282 123.479001 
L 251.98416 120.804741 
L 252.659599 120.671311 
L 254.010477 122.377501 
L 254.685916 122.567709 
L 255.361355 123.041808 
L 256.036793 123.921873 
L 256.712232 124.600374 
L 257.387671 125.517344 
L 258.06311 126.022672 
L 258.738549 126.241269 
L 260.089427 127.288829 
L 261.440305 128.665704 
L 262.115744 129.102898 
L 264.8175 129.863728 
L 264.8175 129.863728 
" clip-path="url(#pf62b6b59c1)" style="fill: none; stroke: #ff0000; stroke-opacity: 0.5; stroke-width: 2; stroke-linecap: square"/>
   </g>
   <g id="line2d_25">
    <path d="M 62.86125 129.831553 
L 64.210999 129.415179 
L 64.885874 128.783046 
L 66.235623 126.898005 
L 66.910498 126.008477 
L 67.585373 125.425553 
L 68.260247 125.402841 
L 68.935122 125.54668 
L 69.609997 125.819216 
L 70.284872 126.439993 
L 71.634621 126.337792 
L 72.309496 126.591402 
L 73.659245 127.511211 
L 74.33412 127.034273 
L 75.008994 126.341577 
L 75.683869 125.823001 
L 76.358744 125.050816 
L 77.708493 122.563923 
L 78.383368 121.901509 
L 79.058242 121.019552 
L 80.407992 119.717435 
L 81.082867 118.771129 
L 82.432616 118.074648 
L 83.782365 119.081517 
L 84.45724 119.895341 
L 85.132115 121.526772 
L 87.156739 127.4885 
L 91.205987 149.177833 
L 91.880862 151.536028 
L 92.555736 152.826789 
L 93.230611 153.156103 
L 93.905486 152.259005 
L 94.58036 151.100727 
L 95.255235 150.343682 
L 96.604984 146.910484 
L 97.954734 144.317606 
L 99.304483 141.251574 
L 100.654232 138.234751 
L 101.329107 137.470135 
L 102.678857 137.761598 
L 103.353731 137.477706 
L 104.028606 136.913707 
L 104.703481 135.274705 
L 106.728105 129.142643 
L 108.077854 126.985065 
L 108.752729 126.667106 
L 110.777353 127.549063 
L 111.452227 128.041142 
L 112.127102 127.984364 
L 112.801977 128.446161 
L 114.151726 131.190449 
L 114.826601 132.924081 
L 115.501476 134.093716 
L 116.17635 134.790197 
L 116.851225 135.187645 
L 117.5261 135.157364 
L 118.200974 134.404104 
L 120.225598 130.043526 
L 120.900473 128.858751 
L 121.575348 127.011562 
L 123.599972 123.8509 
L 125.624596 120.56911 
L 126.299471 118.725706 
L 126.974345 116.356156 
L 127.64922 114.732295 
L 128.324095 113.740566 
L 128.998969 112.457375 
L 129.673844 111.51864 
L 130.348719 110.939501 
L 131.023593 110.625327 
L 131.698468 110.015906 
L 133.723092 107.642571 
L 134.397967 106.775754 
L 135.072841 106.094414 
L 135.747716 106.147407 
L 136.422591 106.771969 
L 137.097466 108.429897 
L 137.77234 109.361062 
L 139.796964 115.546118 
L 140.471839 117.041282 
L 141.146714 117.892957 
L 142.496463 119.865059 
L 145.195962 121.803093 
L 146.545711 121.958288 
L 147.220586 122.185401 
L 147.895461 123.294472 
L 149.24521 126.042544 
L 149.920085 126.792019 
L 150.594959 126.932072 
L 151.269834 126.538409 
L 151.944709 125.7208 
L 152.619583 124.6193 
L 153.294458 123.748699 
L 153.969333 123.775195 
L 154.644207 123.631357 
L 155.319082 123.324753 
L 155.993957 122.825104 
L 157.343706 122.355736 
L 158.018581 121.90908 
L 159.36833 120.175447 
L 160.043205 120.008897 
L 160.71808 119.97483 
L 161.392954 120.213299 
L 162.742704 122.435226 
L 163.417578 124.123436 
L 164.767328 129.002589 
L 165.442202 130.543176 
L 166.117077 131.773373 
L 166.791952 133.279892 
L 167.466826 134.127783 
L 168.141701 133.980159 
L 168.816576 133.533502 
L 169.491451 132.905155 
L 170.8412 132.413076 
L 171.516075 131.803655 
L 173.540699 128.945811 
L 175.565323 126.621684 
L 176.240197 125.277929 
L 178.264821 123.396673 
L 178.939696 123.218767 
L 179.614571 123.661638 
L 180.96432 122.533642 
L 182.31407 120.319286 
L 182.988944 120.413916 
L 183.663819 120.201944 
L 185.013568 118.45317 
L 186.363318 115.356857 
L 187.038192 114.206149 
L 187.713067 113.642151 
L 188.387942 112.798046 
L 189.062816 112.184839 
L 189.737691 111.249889 
L 190.412566 111.651123 
L 191.762315 113.28634 
L 192.43719 114.278068 
L 193.112065 115.633178 
L 193.786939 116.730893 
L 194.461814 117.26461 
L 195.136689 117.631777 
L 195.811563 118.28662 
L 197.161313 121.799308 
L 198.511062 124.078013 
L 199.185937 125.660237 
L 199.860811 128.010861 
L 201.210561 133.404805 
L 201.885435 135.384477 
L 204.584934 140.184141 
L 205.934684 143.916372 
L 206.609558 144.72641 
L 207.284433 144.56743 
L 208.634182 142.932214 
L 209.309057 141.577103 
L 209.983932 139.813189 
L 210.658806 138.601917 
L 211.333681 137.947074 
L 212.68343 137.55341 
L 213.358305 137.447424 
L 214.708055 136.70552 
L 215.382929 136.599534 
L 216.057804 135.69108 
L 216.732679 134.41546 
L 217.407553 132.424432 
L 218.082428 131.432703 
L 218.757303 130.815712 
L 219.432177 131.508408 
L 221.456801 132.946793 
L 222.131676 133.306389 
L 223.481425 134.574439 
L 224.831175 136.107455 
L 225.506049 136.516259 
L 226.180924 136.648742 
L 226.855799 135.812207 
L 228.205548 132.360083 
L 228.880423 131.20559 
L 230.230172 127.738325 
L 231.579922 123.313398 
L 232.254796 120.860573 
L 232.929671 119.38055 
L 233.604546 118.665143 
L 234.27942 118.154138 
L 234.954295 118.415318 
L 235.62917 119.679583 
L 236.978919 123.419384 
L 239.003543 127.99572 
L 239.678418 130.202505 
L 240.353293 133.083061 
L 241.703042 136.796366 
L 242.377917 138.81389 
L 243.052791 139.786692 
L 243.727666 139.926746 
L 244.402541 139.491445 
L 245.077415 139.230265 
L 245.75229 137.674537 
L 247.102039 135.918194 
L 247.776914 135.43747 
L 248.451789 134.661499 
L 249.801538 131.815011 
L 250.476413 129.543876 
L 251.151288 127.938941 
L 252.501037 125.985766 
L 254.525661 121.825805 
L 255.87541 120.731875 
L 256.550285 120.629674 
L 257.22516 121.000626 
L 257.900034 121.769026 
L 258.574909 122.957587 
L 259.249784 123.680564 
L 260.599533 123.207412 
L 261.949283 124.183999 
L 263.299032 124.483032 
L 263.973907 124.422468 
L 264.648781 124.134791 
L 265.998531 123.408028 
L 266.673405 123.786551 
L 267.34828 124.528455 
L 268.023155 124.380831 
L 269.372904 123.347465 
L 270.047779 123.135492 
L 271.397528 123.442095 
L 272.072403 123.86604 
L 273.422152 125.622384 
L 274.097027 126.269658 
L 274.771902 126.387 
L 275.446776 125.978195 
L 276.121651 124.888051 
L 277.4714 124.562522 
L 278.146275 124.520884 
L 278.82115 124.19914 
L 281.520648 126.841227 
L 282.195523 126.633039 
L 282.870398 127.034273 
L 283.545273 127.711828 
L 284.220147 127.462003 
L 284.895022 126.792019 
L 286.244771 124.369475 
L 286.919646 123.725987 
L 287.594521 122.825104 
L 288.269395 121.451068 
L 291.643769 110.803233 
L 292.993518 109.644954 
L 294.343268 107.165632 
L 295.018142 106.393447 
L 295.693017 106.291246 
L 296.367892 106.639486 
L 297.042766 107.317041 
L 297.717641 108.596447 
L 298.392516 110.360361 
L 299.06739 111.291526 
L 301.092014 111.484573 
L 301.766889 111.405083 
L 303.116638 110.920575 
L 303.791513 111.329379 
L 304.466388 112.128061 
L 305.141263 113.377185 
L 305.816137 115.254656 
L 307.165887 120.323071 
L 308.515636 126.125819 
L 309.190511 128.760335 
L 310.54026 132.708324 
L 311.890009 135.672154 
L 312.564884 136.660097 
L 313.239759 136.803936 
L 313.914633 136.701735 
L 314.589508 136.773654 
L 315.264383 136.270219 
L 315.939258 134.892398 
L 317.289007 130.95198 
L 317.963882 129.687715 
L 318.638756 128.177411 
L 319.313631 127.079696 
L 320.66338 125.527754 
L 322.01313 124.388401 
L 322.688004 123.286901 
L 324.037754 118.975531 
L 326.062378 114.463544 
L 326.737253 112.237832 
L 327.412127 110.738884 
L 328.087002 109.732014 
L 329.436751 108.516957 
L 330.786501 107.983241 
L 332.13625 107.710705 
L 332.13625 107.710705 
" clip-path="url(#pf62b6b59c1)" style="fill: none; stroke: #008000; stroke-opacity: 0.5; stroke-width: 2; stroke-linecap: square"/>
   </g>
   <g id="patch_3">
    <path d="M 49.3975 238.8725 
L 49.3975 11.759062 
" style="fill: none; stroke: #000000; stroke-width: 2; stroke-linejoin: miter; stroke-linecap: square"/>
   </g>
   <g id="patch_4">
    <path d="M 345.6 238.8725 
L 345.6 11.759062 
" style="fill: none; stroke: #000000; stroke-width: 2; stroke-linejoin: miter; stroke-linecap: square"/>
   </g>
   <g id="patch_5">
    <path d="M 49.3975 238.8725 
L 345.6 238.8725 
" style="fill: none; stroke: #000000; stroke-width: 2; stroke-linejoin: miter; stroke-linecap: square"/>
   </g>
   <g id="patch_6">
    <path d="M 49.3975 11.759062 
L 345.6 11.759062 
" style="fill: none; stroke: #000000; stroke-width: 2; stroke-linejoin: miter; stroke-linecap: square"/>
   </g>
   <g id="legend_1">
    <g id="line2d_26">
     <path d="M 249.58125 27.477187 
L 261.58125 27.477187 
L 273.58125 27.477187 
" style="fill: none; stroke: #0000ff; stroke-opacity: 0.5; stroke-width: 2; stroke-linecap: square"/>
    </g>
    <g id="text_14">
     <!-- yz-plane -->
     <g transform="translate(283.18125 31.677187)scale(0.12 -0.12)">
      <defs>
       <path id="DejaVuSans-7a" d="M 353 3500 
L 3084 3500 
L 3084 2975 
L 922 459 
L 3084 459 
L 3084 0 
L 275 0 
L 275 525 
L 2438 3041 
L 353 3041 
L 353 3500 
z
" transform="scale(0.015625)"/>
       <path id="DejaVuSans-2d" d="M 313 2009 
L 1997 2009 
L 1997 1497 
L 313 1497 
L 313 2009 
z
" transform="scale(0.015625)"/>
       <path id="DejaVuSans-70" d="M 1159 525 
L 1159 -1331 
L 581 -1331 
L 581 3500 
L 1159 3500 
L 1159 2969 
Q 1341 3281 1617 3432 
Q 1894 3584 2278 3584 
Q 2916 3584 3314 3078 
Q 3713 2572 3713 1747 
Q 3713 922 3314 415 
Q 2916 -91 2278 -91 
Q 1894 -91 1617 61 
Q 1341 213 1159 525 
z
M 3116 1747 
Q 3116 2381 2855 2742 
Q 2594 3103 2138 3103 
Q 1681 3103 1420 2742 
Q 1159 2381 1159 1747 
Q 1159 1113 1420 752 
Q 1681 391 2138 391 
Q 2594 391 2855 752 
Q 3116 1113 3116 1747 
z
" transform="scale(0.015625)"/>
      </defs>
      <use xlink:href="#DejaVuSans-79"/>
      <use xlink:href="#DejaVuSans-7a" x="59.179688"/>
      <use xlink:href="#DejaVuSans-2d" x="111.669922"/>
      <use xlink:href="#DejaVuSans-70" x="147.753906"/>
      <use xlink:href="#DejaVuSans-6c" x="211.230469"/>
      <use xlink:href="#DejaVuSans-61" x="239.013672"/>
      <use xlink:href="#DejaVuSans-6e" x="300.292969"/>
      <use xlink:href="#DejaVuSans-65" x="363.671875"/>
     </g>
    </g>
    <g id="line2d_27">
     <path d="M 249.58125 45.090937 
L 261.58125 45.090937 
L 273.58125 45.090937 
" style="fill: none; stroke: #ff0000; stroke-opacity: 0.5; stroke-width: 2; stroke-linecap: square"/>
    </g>
    <g id="text_15">
     <!-- xz-plane -->
     <g transform="translate(283.18125 49.290937)scale(0.12 -0.12)">
      <use xlink:href="#DejaVuSans-78"/>
      <use xlink:href="#DejaVuSans-7a" x="59.179688"/>
      <use xlink:href="#DejaVuSans-2d" x="111.669922"/>
      <use xlink:href="#DejaVuSans-70" x="147.753906"/>
      <use xlink:href="#DejaVuSans-6c" x="211.230469"/>
      <use xlink:href="#DejaVuSans-61" x="239.013672"/>
      <use xlink:href="#DejaVuSans-6e" x="300.292969"/>
      <use xlink:href="#DejaVuSans-65" x="363.671875"/>
     </g>
    </g>
    <g id="line2d_28">
     <path d="M 249.58125 62.704687 
L 261.58125 62.704687 
L 273.58125 62.704687 
" style="fill: none; stroke: #008000; stroke-opacity: 0.5; stroke-width: 2; stroke-linecap: square"/>
    </g>
    <g id="text_16">
     <!-- xy-plane -->
     <g transform="translate(283.18125 66.904687)scale(0.12 -0.12)">
      <use xlink:href="#DejaVuSans-78"/>
      <use xlink:href="#DejaVuSans-79" x="59.179688"/>
      <use xlink:href="#DejaVuSans-2d" x="116.609375"/>
      <use xlink:href="#DejaVuSans-70" x="152.693359"/>
      <use xlink:href="#DejaVuSans-6c" x="216.169922"/>
      <use xlink:href="#DejaVuSans-61" x="243.953125"/>
      <use xlink:href="#DejaVuSans-6e" x="305.232422"/>
      <use xlink:href="#DejaVuSans-65" x="368.611328"/>
     </g>
    </g>
   </g>
  </g>
 </g>
 <defs>
  <clipPath id="pf62b6b59c1">
   <rect x="49.3975" y="11.759062" width="296.2025" height="227.113437"/>
  </clipPath>
 </defs>
</svg>
