<?xml version="1.0" encoding="utf-8" standalone="no"?>
<!DOCTYPE svg PUBLIC "-//W3C//DTD SVG 1.1//EN"
  "http://www.w3.org/Graphics/SVG/1.1/DTD/svg11.dtd">
<svg xmlns:xlink="http://www.w3.org/1999/xlink" width="348.48pt" height="276.48pt" viewBox="0 0 348.48 276.48" xmlns="http://www.w3.org/2000/svg" version="1.1">
 <metadata>
  <rdf:RDF xmlns:dc="http://purl.org/dc/elements/1.1/" xmlns:cc="http://creativecommons.org/ns#" xmlns:rdf="http://www.w3.org/1999/02/22-rdf-syntax-ns#">
   <cc:Work>
    <dc:type rdf:resource="http://purl.org/dc/dcmitype/StillImage"/>
    <dc:date>2022-04-01T17:06:00.858524</dc:date>
    <dc:format>image/svg+xml</dc:format>
    <dc:creator>
     <cc:Agent>
      <dc:title>Matplotlib v3.5.1, https://matplotlib.org/</dc:title>
     </cc:Agent>
    </dc:creator>
   </cc:Work>
  </rdf:RDF>
 </metadata>
 <defs>
  <style type="text/css">*{stroke-linejoin: round; stroke-linecap: butt}</style>
 </defs>
 <g id="figure_1">
  <g id="patch_1">
   <path d="M 0 276.48 
L 348.48 276.48 
L 348.48 0 
L 0 0 
L 0 276.48 
z
" style="fill: none"/>
  </g>
  <g id="axes_1">
   <g id="patch_2">
    <path d="M 49.3975 234.5525 
L 341.28 234.5525 
L 341.28 11.759062 
L 49.3975 11.759062 
z
" style="fill: #ffffff"/>
   </g>
   <g id="matplotlib.axis_1">
    <g id="xtick_1">
     <g id="line2d_1">
      <defs>
       <path id="m98cafe37e2" d="M 0 0 
L 0 -6 
" style="stroke: #000000; stroke-width: 2"/>
      </defs>
      <g>
       <use xlink:href="#m98cafe37e2" x="62.664886" y="234.5525" style="fill: #ffffff; stroke: #000000; stroke-width: 2"/>
      </g>
     </g>
     <g id="line2d_2">
      <defs>
       <path id="mc158872362" d="M 0 0 
L 0 6 
" style="stroke: #000000; stroke-width: 2"/>
      </defs>
      <g>
       <use xlink:href="#mc158872362" x="62.664886" y="11.759062" style="fill: #ffffff; stroke: #000000; stroke-width: 2"/>
      </g>
     </g>
     <g id="text_1">
      <!-- 0.0 -->
      <g transform="translate(53.123011 247.170625)scale(0.12 -0.12)">
       <defs>
        <path id="DejaVuSans-30" d="M 2034 4250 
Q 1547 4250 1301 3770 
Q 1056 3291 1056 2328 
Q 1056 1369 1301 889 
Q 1547 409 2034 409 
Q 2525 409 2770 889 
Q 3016 1369 3016 2328 
Q 3016 3291 2770 3770 
Q 2525 4250 2034 4250 
z
M 2034 4750 
Q 2819 4750 3233 4129 
Q 3647 3509 3647 2328 
Q 3647 1150 3233 529 
Q 2819 -91 2034 -91 
Q 1250 -91 836 529 
Q 422 1150 422 2328 
Q 422 3509 836 4129 
Q 1250 4750 2034 4750 
z
" transform="scale(0.015625)"/>
        <path id="DejaVuSans-2e" d="M 684 794 
L 1344 794 
L 1344 0 
L 684 0 
L 684 794 
z
" transform="scale(0.015625)"/>
       </defs>
       <use xlink:href="#DejaVuSans-30"/>
       <use xlink:href="#DejaVuSans-2e" x="63.623047"/>
       <use xlink:href="#DejaVuSans-30" x="95.410156"/>
      </g>
     </g>
    </g>
    <g id="xtick_2">
     <g id="line2d_3">
      <g>
       <use xlink:href="#m98cafe37e2" x="115.734432" y="234.5525" style="fill: #ffffff; stroke: #000000; stroke-width: 2"/>
      </g>
     </g>
     <g id="line2d_4">
      <g>
       <use xlink:href="#mc158872362" x="115.734432" y="11.759062" style="fill: #ffffff; stroke: #000000; stroke-width: 2"/>
      </g>
     </g>
     <g id="text_2">
      <!-- 0.2 -->
      <g transform="translate(106.192557 247.170625)scale(0.12 -0.12)">
       <defs>
        <path id="DejaVuSans-32" d="M 1228 531 
L 3431 531 
L 3431 0 
L 469 0 
L 469 531 
Q 828 903 1448 1529 
Q 2069 2156 2228 2338 
Q 2531 2678 2651 2914 
Q 2772 3150 2772 3378 
Q 2772 3750 2511 3984 
Q 2250 4219 1831 4219 
Q 1534 4219 1204 4116 
Q 875 4013 500 3803 
L 500 4441 
Q 881 4594 1212 4672 
Q 1544 4750 1819 4750 
Q 2544 4750 2975 4387 
Q 3406 4025 3406 3419 
Q 3406 3131 3298 2873 
Q 3191 2616 2906 2266 
Q 2828 2175 2409 1742 
Q 1991 1309 1228 531 
z
" transform="scale(0.015625)"/>
       </defs>
       <use xlink:href="#DejaVuSans-30"/>
       <use xlink:href="#DejaVuSans-2e" x="63.623047"/>
       <use xlink:href="#DejaVuSans-32" x="95.410156"/>
      </g>
     </g>
    </g>
    <g id="xtick_3">
     <g id="line2d_5">
      <g>
       <use xlink:href="#m98cafe37e2" x="168.803977" y="234.5525" style="fill: #ffffff; stroke: #000000; stroke-width: 2"/>
      </g>
     </g>
     <g id="line2d_6">
      <g>
       <use xlink:href="#mc158872362" x="168.803977" y="11.759062" style="fill: #ffffff; stroke: #000000; stroke-width: 2"/>
      </g>
     </g>
     <g id="text_3">
      <!-- 0.4 -->
      <g transform="translate(159.262102 247.170625)scale(0.12 -0.12)">
       <defs>
        <path id="DejaVuSans-34" d="M 2419 4116 
L 825 1625 
L 2419 1625 
L 2419 4116 
z
M 2253 4666 
L 3047 4666 
L 3047 1625 
L 3713 1625 
L 3713 1100 
L 3047 1100 
L 3047 0 
L 2419 0 
L 2419 1100 
L 313 1100 
L 313 1709 
L 2253 4666 
z
" transform="scale(0.015625)"/>
       </defs>
       <use xlink:href="#DejaVuSans-30"/>
       <use xlink:href="#DejaVuSans-2e" x="63.623047"/>
       <use xlink:href="#DejaVuSans-34" x="95.410156"/>
      </g>
     </g>
    </g>
    <g id="xtick_4">
     <g id="line2d_7">
      <g>
       <use xlink:href="#m98cafe37e2" x="221.873523" y="234.5525" style="fill: #ffffff; stroke: #000000; stroke-width: 2"/>
      </g>
     </g>
     <g id="line2d_8">
      <g>
       <use xlink:href="#mc158872362" x="221.873523" y="11.759062" style="fill: #ffffff; stroke: #000000; stroke-width: 2"/>
      </g>
     </g>
     <g id="text_4">
      <!-- 0.6 -->
      <g transform="translate(212.331648 247.170625)scale(0.12 -0.12)">
       <defs>
        <path id="DejaVuSans-36" d="M 2113 2584 
Q 1688 2584 1439 2293 
Q 1191 2003 1191 1497 
Q 1191 994 1439 701 
Q 1688 409 2113 409 
Q 2538 409 2786 701 
Q 3034 994 3034 1497 
Q 3034 2003 2786 2293 
Q 2538 2584 2113 2584 
z
M 3366 4563 
L 3366 3988 
Q 3128 4100 2886 4159 
Q 2644 4219 2406 4219 
Q 1781 4219 1451 3797 
Q 1122 3375 1075 2522 
Q 1259 2794 1537 2939 
Q 1816 3084 2150 3084 
Q 2853 3084 3261 2657 
Q 3669 2231 3669 1497 
Q 3669 778 3244 343 
Q 2819 -91 2113 -91 
Q 1303 -91 875 529 
Q 447 1150 447 2328 
Q 447 3434 972 4092 
Q 1497 4750 2381 4750 
Q 2619 4750 2861 4703 
Q 3103 4656 3366 4563 
z
" transform="scale(0.015625)"/>
       </defs>
       <use xlink:href="#DejaVuSans-30"/>
       <use xlink:href="#DejaVuSans-2e" x="63.623047"/>
       <use xlink:href="#DejaVuSans-36" x="95.410156"/>
      </g>
     </g>
    </g>
    <g id="xtick_5">
     <g id="line2d_9">
      <g>
       <use xlink:href="#m98cafe37e2" x="274.943068" y="234.5525" style="fill: #ffffff; stroke: #000000; stroke-width: 2"/>
      </g>
     </g>
     <g id="line2d_10">
      <g>
       <use xlink:href="#mc158872362" x="274.943068" y="11.759062" style="fill: #ffffff; stroke: #000000; stroke-width: 2"/>
      </g>
     </g>
     <g id="text_5">
      <!-- 0.8 -->
      <g transform="translate(265.401193 247.170625)scale(0.12 -0.12)">
       <defs>
        <path id="DejaVuSans-38" d="M 2034 2216 
Q 1584 2216 1326 1975 
Q 1069 1734 1069 1313 
Q 1069 891 1326 650 
Q 1584 409 2034 409 
Q 2484 409 2743 651 
Q 3003 894 3003 1313 
Q 3003 1734 2745 1975 
Q 2488 2216 2034 2216 
z
M 1403 2484 
Q 997 2584 770 2862 
Q 544 3141 544 3541 
Q 544 4100 942 4425 
Q 1341 4750 2034 4750 
Q 2731 4750 3128 4425 
Q 3525 4100 3525 3541 
Q 3525 3141 3298 2862 
Q 3072 2584 2669 2484 
Q 3125 2378 3379 2068 
Q 3634 1759 3634 1313 
Q 3634 634 3220 271 
Q 2806 -91 2034 -91 
Q 1263 -91 848 271 
Q 434 634 434 1313 
Q 434 1759 690 2068 
Q 947 2378 1403 2484 
z
M 1172 3481 
Q 1172 3119 1398 2916 
Q 1625 2713 2034 2713 
Q 2441 2713 2670 2916 
Q 2900 3119 2900 3481 
Q 2900 3844 2670 4047 
Q 2441 4250 2034 4250 
Q 1625 4250 1398 4047 
Q 1172 3844 1172 3481 
z
" transform="scale(0.015625)"/>
       </defs>
       <use xlink:href="#DejaVuSans-30"/>
       <use xlink:href="#DejaVuSans-2e" x="63.623047"/>
       <use xlink:href="#DejaVuSans-38" x="95.410156"/>
      </g>
     </g>
    </g>
    <g id="xtick_6">
     <g id="line2d_11">
      <g>
       <use xlink:href="#m98cafe37e2" x="328.012614" y="234.5525" style="fill: #ffffff; stroke: #000000; stroke-width: 2"/>
      </g>
     </g>
     <g id="line2d_12">
      <g>
       <use xlink:href="#mc158872362" x="328.012614" y="11.759062" style="fill: #ffffff; stroke: #000000; stroke-width: 2"/>
      </g>
     </g>
     <g id="text_6">
      <!-- 1.0 -->
      <g transform="translate(318.470739 247.170625)scale(0.12 -0.12)">
       <defs>
        <path id="DejaVuSans-31" d="M 794 531 
L 1825 531 
L 1825 4091 
L 703 3866 
L 703 4441 
L 1819 4666 
L 2450 4666 
L 2450 531 
L 3481 531 
L 3481 0 
L 794 0 
L 794 531 
z
" transform="scale(0.015625)"/>
       </defs>
       <use xlink:href="#DejaVuSans-31"/>
       <use xlink:href="#DejaVuSans-2e" x="63.623047"/>
       <use xlink:href="#DejaVuSans-30" x="95.410156"/>
      </g>
     </g>
    </g>
    <g id="text_7">
     <!-- Fractional distance along given axis -->
     <g transform="translate(87.823438 266.784375)scale(0.12 -0.12)">
      <defs>
       <path id="DejaVuSans-46" d="M 628 4666 
L 3309 4666 
L 3309 4134 
L 1259 4134 
L 1259 2759 
L 3109 2759 
L 3109 2228 
L 1259 2228 
L 1259 0 
L 628 0 
L 628 4666 
z
" transform="scale(0.015625)"/>
       <path id="DejaVuSans-72" d="M 2631 2963 
Q 2534 3019 2420 3045 
Q 2306 3072 2169 3072 
Q 1681 3072 1420 2755 
Q 1159 2438 1159 1844 
L 1159 0 
L 581 0 
L 581 3500 
L 1159 3500 
L 1159 2956 
Q 1341 3275 1631 3429 
Q 1922 3584 2338 3584 
Q 2397 3584 2469 3576 
Q 2541 3569 2628 3553 
L 2631 2963 
z
" transform="scale(0.015625)"/>
       <path id="DejaVuSans-61" d="M 2194 1759 
Q 1497 1759 1228 1600 
Q 959 1441 959 1056 
Q 959 750 1161 570 
Q 1363 391 1709 391 
Q 2188 391 2477 730 
Q 2766 1069 2766 1631 
L 2766 1759 
L 2194 1759 
z
M 3341 1997 
L 3341 0 
L 2766 0 
L 2766 531 
Q 2569 213 2275 61 
Q 1981 -91 1556 -91 
Q 1019 -91 701 211 
Q 384 513 384 1019 
Q 384 1609 779 1909 
Q 1175 2209 1959 2209 
L 2766 2209 
L 2766 2266 
Q 2766 2663 2505 2880 
Q 2244 3097 1772 3097 
Q 1472 3097 1187 3025 
Q 903 2953 641 2809 
L 641 3341 
Q 956 3463 1253 3523 
Q 1550 3584 1831 3584 
Q 2591 3584 2966 3190 
Q 3341 2797 3341 1997 
z
" transform="scale(0.015625)"/>
       <path id="DejaVuSans-63" d="M 3122 3366 
L 3122 2828 
Q 2878 2963 2633 3030 
Q 2388 3097 2138 3097 
Q 1578 3097 1268 2742 
Q 959 2388 959 1747 
Q 959 1106 1268 751 
Q 1578 397 2138 397 
Q 2388 397 2633 464 
Q 2878 531 3122 666 
L 3122 134 
Q 2881 22 2623 -34 
Q 2366 -91 2075 -91 
Q 1284 -91 818 406 
Q 353 903 353 1747 
Q 353 2603 823 3093 
Q 1294 3584 2113 3584 
Q 2378 3584 2631 3529 
Q 2884 3475 3122 3366 
z
" transform="scale(0.015625)"/>
       <path id="DejaVuSans-74" d="M 1172 4494 
L 1172 3500 
L 2356 3500 
L 2356 3053 
L 1172 3053 
L 1172 1153 
Q 1172 725 1289 603 
Q 1406 481 1766 481 
L 2356 481 
L 2356 0 
L 1766 0 
Q 1100 0 847 248 
Q 594 497 594 1153 
L 594 3053 
L 172 3053 
L 172 3500 
L 594 3500 
L 594 4494 
L 1172 4494 
z
" transform="scale(0.015625)"/>
       <path id="DejaVuSans-69" d="M 603 3500 
L 1178 3500 
L 1178 0 
L 603 0 
L 603 3500 
z
M 603 4863 
L 1178 4863 
L 1178 4134 
L 603 4134 
L 603 4863 
z
" transform="scale(0.015625)"/>
       <path id="DejaVuSans-6f" d="M 1959 3097 
Q 1497 3097 1228 2736 
Q 959 2375 959 1747 
Q 959 1119 1226 758 
Q 1494 397 1959 397 
Q 2419 397 2687 759 
Q 2956 1122 2956 1747 
Q 2956 2369 2687 2733 
Q 2419 3097 1959 3097 
z
M 1959 3584 
Q 2709 3584 3137 3096 
Q 3566 2609 3566 1747 
Q 3566 888 3137 398 
Q 2709 -91 1959 -91 
Q 1206 -91 779 398 
Q 353 888 353 1747 
Q 353 2609 779 3096 
Q 1206 3584 1959 3584 
z
" transform="scale(0.015625)"/>
       <path id="DejaVuSans-6e" d="M 3513 2113 
L 3513 0 
L 2938 0 
L 2938 2094 
Q 2938 2591 2744 2837 
Q 2550 3084 2163 3084 
Q 1697 3084 1428 2787 
Q 1159 2491 1159 1978 
L 1159 0 
L 581 0 
L 581 3500 
L 1159 3500 
L 1159 2956 
Q 1366 3272 1645 3428 
Q 1925 3584 2291 3584 
Q 2894 3584 3203 3211 
Q 3513 2838 3513 2113 
z
" transform="scale(0.015625)"/>
       <path id="DejaVuSans-6c" d="M 603 4863 
L 1178 4863 
L 1178 0 
L 603 0 
L 603 4863 
z
" transform="scale(0.015625)"/>
       <path id="DejaVuSans-20" transform="scale(0.015625)"/>
       <path id="DejaVuSans-64" d="M 2906 2969 
L 2906 4863 
L 3481 4863 
L 3481 0 
L 2906 0 
L 2906 525 
Q 2725 213 2448 61 
Q 2172 -91 1784 -91 
Q 1150 -91 751 415 
Q 353 922 353 1747 
Q 353 2572 751 3078 
Q 1150 3584 1784 3584 
Q 2172 3584 2448 3432 
Q 2725 3281 2906 2969 
z
M 947 1747 
Q 947 1113 1208 752 
Q 1469 391 1925 391 
Q 2381 391 2643 752 
Q 2906 1113 2906 1747 
Q 2906 2381 2643 2742 
Q 2381 3103 1925 3103 
Q 1469 3103 1208 2742 
Q 947 2381 947 1747 
z
" transform="scale(0.015625)"/>
       <path id="DejaVuSans-73" d="M 2834 3397 
L 2834 2853 
Q 2591 2978 2328 3040 
Q 2066 3103 1784 3103 
Q 1356 3103 1142 2972 
Q 928 2841 928 2578 
Q 928 2378 1081 2264 
Q 1234 2150 1697 2047 
L 1894 2003 
Q 2506 1872 2764 1633 
Q 3022 1394 3022 966 
Q 3022 478 2636 193 
Q 2250 -91 1575 -91 
Q 1294 -91 989 -36 
Q 684 19 347 128 
L 347 722 
Q 666 556 975 473 
Q 1284 391 1588 391 
Q 1994 391 2212 530 
Q 2431 669 2431 922 
Q 2431 1156 2273 1281 
Q 2116 1406 1581 1522 
L 1381 1569 
Q 847 1681 609 1914 
Q 372 2147 372 2553 
Q 372 3047 722 3315 
Q 1072 3584 1716 3584 
Q 2034 3584 2315 3537 
Q 2597 3491 2834 3397 
z
" transform="scale(0.015625)"/>
       <path id="DejaVuSans-65" d="M 3597 1894 
L 3597 1613 
L 953 1613 
Q 991 1019 1311 708 
Q 1631 397 2203 397 
Q 2534 397 2845 478 
Q 3156 559 3463 722 
L 3463 178 
Q 3153 47 2828 -22 
Q 2503 -91 2169 -91 
Q 1331 -91 842 396 
Q 353 884 353 1716 
Q 353 2575 817 3079 
Q 1281 3584 2069 3584 
Q 2775 3584 3186 3129 
Q 3597 2675 3597 1894 
z
M 3022 2063 
Q 3016 2534 2758 2815 
Q 2500 3097 2075 3097 
Q 1594 3097 1305 2825 
Q 1016 2553 972 2059 
L 3022 2063 
z
" transform="scale(0.015625)"/>
       <path id="DejaVuSans-67" d="M 2906 1791 
Q 2906 2416 2648 2759 
Q 2391 3103 1925 3103 
Q 1463 3103 1205 2759 
Q 947 2416 947 1791 
Q 947 1169 1205 825 
Q 1463 481 1925 481 
Q 2391 481 2648 825 
Q 2906 1169 2906 1791 
z
M 3481 434 
Q 3481 -459 3084 -895 
Q 2688 -1331 1869 -1331 
Q 1566 -1331 1297 -1286 
Q 1028 -1241 775 -1147 
L 775 -588 
Q 1028 -725 1275 -790 
Q 1522 -856 1778 -856 
Q 2344 -856 2625 -561 
Q 2906 -266 2906 331 
L 2906 616 
Q 2728 306 2450 153 
Q 2172 0 1784 0 
Q 1141 0 747 490 
Q 353 981 353 1791 
Q 353 2603 747 3093 
Q 1141 3584 1784 3584 
Q 2172 3584 2450 3431 
Q 2728 3278 2906 2969 
L 2906 3500 
L 3481 3500 
L 3481 434 
z
" transform="scale(0.015625)"/>
       <path id="DejaVuSans-76" d="M 191 3500 
L 800 3500 
L 1894 563 
L 2988 3500 
L 3597 3500 
L 2284 0 
L 1503 0 
L 191 3500 
z
" transform="scale(0.015625)"/>
       <path id="DejaVuSans-78" d="M 3513 3500 
L 2247 1797 
L 3578 0 
L 2900 0 
L 1881 1375 
L 863 0 
L 184 0 
L 1544 1831 
L 300 3500 
L 978 3500 
L 1906 2253 
L 2834 3500 
L 3513 3500 
z
" transform="scale(0.015625)"/>
      </defs>
      <use xlink:href="#DejaVuSans-46"/>
      <use xlink:href="#DejaVuSans-72" x="50.269531"/>
      <use xlink:href="#DejaVuSans-61" x="91.382812"/>
      <use xlink:href="#DejaVuSans-63" x="152.662109"/>
      <use xlink:href="#DejaVuSans-74" x="207.642578"/>
      <use xlink:href="#DejaVuSans-69" x="246.851562"/>
      <use xlink:href="#DejaVuSans-6f" x="274.634766"/>
      <use xlink:href="#DejaVuSans-6e" x="335.816406"/>
      <use xlink:href="#DejaVuSans-61" x="399.195312"/>
      <use xlink:href="#DejaVuSans-6c" x="460.474609"/>
      <use xlink:href="#DejaVuSans-20" x="488.257812"/>
      <use xlink:href="#DejaVuSans-64" x="520.044922"/>
      <use xlink:href="#DejaVuSans-69" x="583.521484"/>
      <use xlink:href="#DejaVuSans-73" x="611.304688"/>
      <use xlink:href="#DejaVuSans-74" x="663.404297"/>
      <use xlink:href="#DejaVuSans-61" x="702.613281"/>
      <use xlink:href="#DejaVuSans-6e" x="763.892578"/>
      <use xlink:href="#DejaVuSans-63" x="827.271484"/>
      <use xlink:href="#DejaVuSans-65" x="882.251953"/>
      <use xlink:href="#DejaVuSans-20" x="943.775391"/>
      <use xlink:href="#DejaVuSans-61" x="975.5625"/>
      <use xlink:href="#DejaVuSans-6c" x="1036.841797"/>
      <use xlink:href="#DejaVuSans-6f" x="1064.625"/>
      <use xlink:href="#DejaVuSans-6e" x="1125.806641"/>
      <use xlink:href="#DejaVuSans-67" x="1189.185547"/>
      <use xlink:href="#DejaVuSans-20" x="1252.662109"/>
      <use xlink:href="#DejaVuSans-67" x="1284.449219"/>
      <use xlink:href="#DejaVuSans-69" x="1347.925781"/>
      <use xlink:href="#DejaVuSans-76" x="1375.708984"/>
      <use xlink:href="#DejaVuSans-65" x="1434.888672"/>
      <use xlink:href="#DejaVuSans-6e" x="1496.412109"/>
      <use xlink:href="#DejaVuSans-20" x="1559.791016"/>
      <use xlink:href="#DejaVuSans-61" x="1591.578125"/>
      <use xlink:href="#DejaVuSans-78" x="1652.857422"/>
      <use xlink:href="#DejaVuSans-69" x="1712.037109"/>
      <use xlink:href="#DejaVuSans-73" x="1739.820312"/>
     </g>
    </g>
   </g>
   <g id="matplotlib.axis_2">
    <g id="ytick_1">
     <g id="line2d_13">
      <defs>
       <path id="m770e362589" d="M 0 0 
L 6 0 
" style="stroke: #000000; stroke-width: 2"/>
      </defs>
      <g>
       <use xlink:href="#m770e362589" x="49.3975" y="234.5525" style="fill: #ffffff; stroke: #000000; stroke-width: 2"/>
      </g>
     </g>
     <g id="line2d_14">
      <defs>
       <path id="m7b45b17b8f" d="M 0 0 
L -6 0 
" style="stroke: #000000; stroke-width: 2"/>
      </defs>
      <g>
       <use xlink:href="#m7b45b17b8f" x="341.28" y="234.5525" style="fill: #ffffff; stroke: #000000; stroke-width: 2"/>
      </g>
     </g>
     <g id="text_8">
      <!-- 0.0 -->
      <g transform="translate(26.81375 239.111562)scale(0.12 -0.12)">
       <use xlink:href="#DejaVuSans-30"/>
       <use xlink:href="#DejaVuSans-2e" x="63.623047"/>
       <use xlink:href="#DejaVuSans-30" x="95.410156"/>
      </g>
     </g>
    </g>
    <g id="ytick_2">
     <g id="line2d_15">
      <g>
       <use xlink:href="#m770e362589" x="49.3975" y="189.993812" style="fill: #ffffff; stroke: #000000; stroke-width: 2"/>
      </g>
     </g>
     <g id="line2d_16">
      <g>
       <use xlink:href="#m7b45b17b8f" x="341.28" y="189.993812" style="fill: #ffffff; stroke: #000000; stroke-width: 2"/>
      </g>
     </g>
     <g id="text_9">
      <!-- 0.2 -->
      <g transform="translate(26.81375 194.552875)scale(0.12 -0.12)">
       <use xlink:href="#DejaVuSans-30"/>
       <use xlink:href="#DejaVuSans-2e" x="63.623047"/>
       <use xlink:href="#DejaVuSans-32" x="95.410156"/>
      </g>
     </g>
    </g>
    <g id="ytick_3">
     <g id="line2d_17">
      <g>
       <use xlink:href="#m770e362589" x="49.3975" y="145.435125" style="fill: #ffffff; stroke: #000000; stroke-width: 2"/>
      </g>
     </g>
     <g id="line2d_18">
      <g>
       <use xlink:href="#m7b45b17b8f" x="341.28" y="145.435125" style="fill: #ffffff; stroke: #000000; stroke-width: 2"/>
      </g>
     </g>
     <g id="text_10">
      <!-- 0.4 -->
      <g transform="translate(26.81375 149.994187)scale(0.12 -0.12)">
       <use xlink:href="#DejaVuSans-30"/>
       <use xlink:href="#DejaVuSans-2e" x="63.623047"/>
       <use xlink:href="#DejaVuSans-34" x="95.410156"/>
      </g>
     </g>
    </g>
    <g id="ytick_4">
     <g id="line2d_19">
      <g>
       <use xlink:href="#m770e362589" x="49.3975" y="100.876437" style="fill: #ffffff; stroke: #000000; stroke-width: 2"/>
      </g>
     </g>
     <g id="line2d_20">
      <g>
       <use xlink:href="#m7b45b17b8f" x="341.28" y="100.876437" style="fill: #ffffff; stroke: #000000; stroke-width: 2"/>
      </g>
     </g>
     <g id="text_11">
      <!-- 0.6 -->
      <g transform="translate(26.81375 105.4355)scale(0.12 -0.12)">
       <use xlink:href="#DejaVuSans-30"/>
       <use xlink:href="#DejaVuSans-2e" x="63.623047"/>
       <use xlink:href="#DejaVuSans-36" x="95.410156"/>
      </g>
     </g>
    </g>
    <g id="ytick_5">
     <g id="line2d_21">
      <g>
       <use xlink:href="#m770e362589" x="49.3975" y="56.31775" style="fill: #ffffff; stroke: #000000; stroke-width: 2"/>
      </g>
     </g>
     <g id="line2d_22">
      <g>
       <use xlink:href="#m7b45b17b8f" x="341.28" y="56.31775" style="fill: #ffffff; stroke: #000000; stroke-width: 2"/>
      </g>
     </g>
     <g id="text_12">
      <!-- 0.8 -->
      <g transform="translate(26.81375 60.876812)scale(0.12 -0.12)">
       <use xlink:href="#DejaVuSans-30"/>
       <use xlink:href="#DejaVuSans-2e" x="63.623047"/>
       <use xlink:href="#DejaVuSans-38" x="95.410156"/>
      </g>
     </g>
    </g>
    <g id="ytick_6">
     <g id="line2d_23">
      <g>
       <use xlink:href="#m770e362589" x="49.3975" y="11.759062" style="fill: #ffffff; stroke: #000000; stroke-width: 2"/>
      </g>
     </g>
     <g id="line2d_24">
      <g>
       <use xlink:href="#m7b45b17b8f" x="341.28" y="11.759062" style="fill: #ffffff; stroke: #000000; stroke-width: 2"/>
      </g>
     </g>
     <g id="text_13">
      <!-- 1.0 -->
      <g transform="translate(26.81375 16.318125)scale(0.12 -0.12)">
       <use xlink:href="#DejaVuSans-31"/>
       <use xlink:href="#DejaVuSans-2e" x="63.623047"/>
       <use xlink:href="#DejaVuSans-30" x="95.410156"/>
      </g>
     </g>
    </g>
    <g id="text_14">
     <!-- Porosity of slice -->
     <g transform="translate(16.318125 169.973594)rotate(-90)scale(0.12 -0.12)">
      <defs>
       <path id="DejaVuSans-50" d="M 1259 4147 
L 1259 2394 
L 2053 2394 
Q 2494 2394 2734 2622 
Q 2975 2850 2975 3272 
Q 2975 3691 2734 3919 
Q 2494 4147 2053 4147 
L 1259 4147 
z
M 628 4666 
L 2053 4666 
Q 2838 4666 3239 4311 
Q 3641 3956 3641 3272 
Q 3641 2581 3239 2228 
Q 2838 1875 2053 1875 
L 1259 1875 
L 1259 0 
L 628 0 
L 628 4666 
z
" transform="scale(0.015625)"/>
       <path id="DejaVuSans-79" d="M 2059 -325 
Q 1816 -950 1584 -1140 
Q 1353 -1331 966 -1331 
L 506 -1331 
L 506 -850 
L 844 -850 
Q 1081 -850 1212 -737 
Q 1344 -625 1503 -206 
L 1606 56 
L 191 3500 
L 800 3500 
L 1894 763 
L 2988 3500 
L 3597 3500 
L 2059 -325 
z
" transform="scale(0.015625)"/>
       <path id="DejaVuSans-66" d="M 2375 4863 
L 2375 4384 
L 1825 4384 
Q 1516 4384 1395 4259 
Q 1275 4134 1275 3809 
L 1275 3500 
L 2222 3500 
L 2222 3053 
L 1275 3053 
L 1275 0 
L 697 0 
L 697 3053 
L 147 3053 
L 147 3500 
L 697 3500 
L 697 3744 
Q 697 4328 969 4595 
Q 1241 4863 1831 4863 
L 2375 4863 
z
" transform="scale(0.015625)"/>
      </defs>
      <use xlink:href="#DejaVuSans-50"/>
      <use xlink:href="#DejaVuSans-6f" x="56.677734"/>
      <use xlink:href="#DejaVuSans-72" x="117.859375"/>
      <use xlink:href="#DejaVuSans-6f" x="156.722656"/>
      <use xlink:href="#DejaVuSans-73" x="217.904297"/>
      <use xlink:href="#DejaVuSans-69" x="270.003906"/>
      <use xlink:href="#DejaVuSans-74" x="297.787109"/>
      <use xlink:href="#DejaVuSans-79" x="336.996094"/>
      <use xlink:href="#DejaVuSans-20" x="396.175781"/>
      <use xlink:href="#DejaVuSans-6f" x="427.962891"/>
      <use xlink:href="#DejaVuSans-66" x="489.144531"/>
      <use xlink:href="#DejaVuSans-20" x="524.349609"/>
      <use xlink:href="#DejaVuSans-73" x="556.136719"/>
      <use xlink:href="#DejaVuSans-6c" x="608.236328"/>
      <use xlink:href="#DejaVuSans-69" x="636.019531"/>
      <use xlink:href="#DejaVuSans-63" x="663.802734"/>
      <use xlink:href="#DejaVuSans-65" x="718.783203"/>
     </g>
    </g>
   </g>
   <g id="line2d_25">
    <path d="M 62.664886 120.376433 
L 63.998292 120.174062 
L 66.665103 119.251326 
L 70.66532 116.950984 
L 71.998726 116.696628 
L 73.332132 116.900855 
L 74.665537 117.693629 
L 75.998943 118.714765 
L 77.332349 120.37272 
L 81.332566 124.722762 
L 85.332783 130.628644 
L 86.666188 132.359007 
L 87.999594 133.862863 
L 89.333 134.859863 
L 90.666405 135.51896 
L 91.999811 136.363719 
L 93.333217 137.427558 
L 94.666622 138.749465 
L 96.000028 139.165346 
L 97.333434 139.05395 
L 98.666839 138.550808 
L 100.000245 137.635498 
L 101.333651 137.011676 
L 102.667056 135.845724 
L 104.000462 134.200766 
L 105.333868 132.899281 
L 108.000679 130.725188 
L 110.66749 128.924275 
L 112.000896 128.276317 
L 113.334302 128.255894 
L 114.667707 128.63093 
L 116.001113 129.600081 
L 117.334519 130.918276 
L 120.00133 132.501966 
L 121.334736 133.127644 
L 122.668141 133.567661 
L 125.334953 134.863576 
L 126.668358 135.077087 
L 129.33517 134.169204 
L 130.668575 133.361577 
L 132.001981 132.061949 
L 133.335387 130.42813 
L 138.669009 121.71505 
L 141.335821 118.22462 
L 144.002632 115.237331 
L 146.669443 112.342873 
L 148.002849 111.271608 
L 149.336255 109.927421 
L 150.66966 108.013254 
L 152.003066 106.54653 
L 153.336472 105.805742 
L 154.669877 106.372009 
L 156.003283 107.123937 
L 158.670094 109.082662 
L 161.336906 110.200343 
L 165.337123 114.622793 
L 166.670528 115.62722 
L 169.33734 117.196057 
L 170.670745 117.786459 
L 172.004151 118.527248 
L 174.670962 119.546528 
L 176.004368 119.485259 
L 177.337774 119.281032 
L 178.671179 118.484546 
L 180.004585 117.918279 
L 181.337991 117.504254 
L 182.671396 117.385431 
L 184.004802 116.889716 
L 185.338208 115.97255 
L 188.005019 114.834446 
L 193.338642 111.637361 
L 197.338858 110.543816 
L 198.672264 110.400857 
L 200.00567 111.019109 
L 201.339075 112.006826 
L 202.672481 113.13936 
L 205.339292 114.823307 
L 206.672698 115.929847 
L 208.006104 116.644643 
L 210.672915 117.442986 
L 213.339726 116.484974 
L 214.673132 115.892715 
L 217.339943 115.042387 
L 220.006755 115.463838 
L 221.34016 115.718194 
L 222.673566 115.209482 
L 224.006972 114.247757 
L 225.340377 113.560811 
L 226.673783 113.154213 
L 228.007189 113.085518 
L 229.340594 113.183918 
L 230.674 113.052099 
L 234.674217 115.371007 
L 236.007623 116.717051 
L 237.341028 117.88486 
L 240.00784 119.537245 
L 241.341245 120.097941 
L 245.341462 122.366721 
L 246.674868 123.209623 
L 249.341679 124.331017 
L 250.675085 124.849011 
L 252.008491 125.587943 
L 253.341896 126.610936 
L 254.675302 128.06095 
L 256.008708 129.154495 
L 261.34233 131.45855 
L 262.675736 132.500109 
L 264.009142 133.363434 
L 265.342547 133.632643 
L 268.009359 133.040383 
L 269.342764 132.81759 
L 270.67617 133.344868 
L 272.009576 134.026244 
L 273.342981 134.908135 
L 274.676387 135.06409 
L 276.009793 134.707621 
L 280.01001 133.205622 
L 281.343415 132.700623 
L 282.676821 132.000681 
L 284.010227 130.643497 
L 285.343632 129.496111 
L 286.677038 128.042384 
L 288.010444 127.234758 
L 289.343849 126.248897 
L 290.677255 125.443127 
L 292.010661 124.815592 
L 294.677472 125.608366 
L 300.011095 127.633929 
L 301.3445 127.685914 
L 302.677906 127.38143 
L 304.011312 126.81145 
L 305.344717 126.425275 
L 306.678123 125.519248 
L 308.011529 124.42756 
L 309.344934 122.98683 
L 310.67834 121.885859 
L 313.345151 120.628932 
L 314.678557 119.919707 
L 316.011963 119.498256 
L 318.678774 117.916422 
L 321.345585 116.808025 
L 328.012614 116.802455 
L 328.012614 116.802455 
" clip-path="url(#p7d612aa469)" style="fill: none; stroke: #0000ff; stroke-opacity: 0.5; stroke-width: 2; stroke-linecap: square"/>
   </g>
   <g id="line2d_26">
    <path d="M 62.664886 127.625575 
L 64.439788 128.124075 
L 65.327238 128.64207 
L 67.102139 130.198839 
L 67.98959 130.66392 
L 69.764491 132.596653 
L 70.651942 133.819232 
L 71.539392 134.57673 
L 74.201744 134.557235 
L 75.089195 134.601794 
L 76.864096 134.351151 
L 77.751546 134.846867 
L 78.638997 135.810448 
L 80.413898 137.177843 
L 81.301349 137.434056 
L 82.188799 137.509248 
L 83.963701 138.492325 
L 84.851151 138.570302 
L 86.626052 137.350508 
L 87.513503 136.690483 
L 88.400954 136.526172 
L 89.288404 135.520817 
L 91.063305 132.284742 
L 91.950756 130.182129 
L 92.838207 128.47219 
L 93.725657 127.199482 
L 95.500558 125.146998 
L 96.388009 124.342156 
L 97.275459 123.88543 
L 98.16291 123.576304 
L 99.050361 122.665636 
L 100.825262 121.33166 
L 103.487614 118.195842 
L 105.262515 117.75861 
L 107.924867 117.349227 
L 112.36212 117.825448 
L 114.137021 117.652783 
L 115.024471 117.975834 
L 115.911922 118.159638 
L 116.799373 118.020393 
L 118.574274 116.435774 
L 119.461724 115.291173 
L 120.349175 114.441773 
L 122.124076 112.233333 
L 123.011527 111.286461 
L 123.898977 110.871508 
L 125.673878 110.620865 
L 126.561329 109.932991 
L 128.33623 108.083805 
L 130.111131 107.602014 
L 130.998582 107.638218 
L 132.773483 108.228621 
L 134.548384 108.465339 
L 135.435835 109.013968 
L 136.323286 109.868938 
L 138.098187 112.614867 
L 140.760539 118.064951 
L 142.53544 121.540529 
L 144.310341 125.915635 
L 146.972693 129.959336 
L 148.747594 133.04224 
L 149.635044 133.950123 
L 150.522495 134.454193 
L 151.409946 135.111434 
L 153.184847 136.888212 
L 154.072297 137.503679 
L 154.959748 138.277886 
L 155.847199 139.50325 
L 156.734649 140.363789 
L 157.6221 140.539239 
L 158.50955 141.204835 
L 159.397001 141.597508 
L 160.284452 141.772958 
L 162.059353 140.876214 
L 162.946803 139.592367 
L 163.834254 138.587012 
L 165.609155 135.648923 
L 166.496606 134.682557 
L 167.384056 133.462763 
L 168.271507 131.786242 
L 169.158958 130.67506 
L 170.933859 129.600081 
L 171.821309 129.265891 
L 172.70876 128.689413 
L 174.483661 127.202267 
L 176.258562 125.503467 
L 177.146013 125.620434 
L 178.920914 125.667777 
L 180.695815 125.695626 
L 181.583266 126.063236 
L 182.470716 127.500253 
L 183.358167 129.160064 
L 184.245618 131.198624 
L 185.133068 132.293097 
L 186.020519 132.894639 
L 186.907969 132.635642 
L 187.79542 132.134357 
L 189.570321 130.268462 
L 191.345222 127.700767 
L 194.007574 124.640143 
L 195.782475 121.888644 
L 198.444827 117.432775 
L 201.107179 113.965552 
L 202.88208 112.754113 
L 203.769531 112.230548 
L 204.656981 112.386503 
L 205.544432 113.068808 
L 206.431882 113.169065 
L 207.319333 112.965766 
L 208.206784 113.082733 
L 209.094234 112.790317 
L 209.981685 112.929562 
L 210.869135 112.66778 
L 211.756586 112.628791 
L 212.644037 112.297386 
L 213.531487 111.603942 
L 214.418938 110.732262 
L 215.306388 110.178064 
L 216.193839 109.894002 
L 217.96874 110.82138 
L 218.856191 111.514824 
L 219.743641 111.929777 
L 220.631092 111.542673 
L 221.518542 110.999614 
L 222.405993 110.253256 
L 224.180894 107.05617 
L 225.068345 106.050815 
L 225.955795 105.479907 
L 226.843246 105.530035 
L 228.618147 106.385005 
L 229.505598 106.585519 
L 230.393048 106.944774 
L 231.280499 107.980763 
L 232.16795 109.26461 
L 233.0554 110.751757 
L 233.942851 111.512039 
L 235.717752 111.871294 
L 236.605203 111.810025 
L 238.380104 112.213839 
L 241.042456 111.9994 
L 243.704807 112.729048 
L 244.592258 113.653641 
L 245.479708 114.38329 
L 247.25461 116.647428 
L 249.029511 119.415636 
L 249.916961 120.432131 
L 250.804412 121.668635 
L 251.691863 122.52639 
L 254.354214 126.157923 
L 255.241665 126.584015 
L 256.129116 127.235686 
L 257.904017 127.079731 
L 258.791467 126.508822 
L 260.566369 125.043956 
L 261.453819 123.517821 
L 262.34127 122.317521 
L 264.116171 120.883288 
L 265.003622 119.866793 
L 266.778523 116.861867 
L 267.665973 114.586589 
L 268.553424 111.857369 
L 269.440875 109.902357 
L 271.215776 108.406856 
L 272.103226 107.838732 
L 272.990677 107.744045 
L 273.878127 107.510112 
L 274.765578 107.06174 
L 275.653029 107.657713 
L 277.42793 109.420566 
L 278.31538 110.364653 
L 279.202831 112.202699 
L 280.090282 114.36101 
L 282.752633 118.655354 
L 284.527535 121.16735 
L 285.414985 122.125362 
L 286.302436 123.267178 
L 288.077337 124.676346 
L 288.964788 125.770819 
L 292.51459 126.843013 
L 293.402041 126.893141 
L 296.064392 125.673347 
L 296.951843 124.977118 
L 297.839293 123.718335 
L 298.726744 123.668206 
L 299.614195 124.506466 
L 301.389096 127.071376 
L 303.163997 129.073732 
L 304.051448 129.519319 
L 304.938898 129.792241 
L 308.488701 132.797167 
L 309.376151 133.198195 
L 310.263602 132.928058 
L 311.151052 133.189841 
L 313.813404 134.933199 
L 314.700855 135.133713 
L 315.588305 134.997252 
L 317.363207 133.936199 
L 319.138108 131.897639 
L 320.025558 130.616576 
L 320.913009 129.6335 
L 321.800459 127.806594 
L 322.68791 125.475618 
L 323.575361 124.136072 
L 324.462811 123.186415 
L 326.237712 122.281317 
L 327.125163 122.019535 
L 328.012614 121.922063 
L 328.012614 121.922063 
" clip-path="url(#p7d612aa469)" style="fill: none; stroke: #ff0000; stroke-opacity: 0.5; stroke-width: 2; stroke-linecap: square"/>
   </g>
   <g id="line2d_27">
    <path d="M 62.664886 120.285459 
L 63.329918 120.084945 
L 63.99495 119.750755 
L 65.325014 118.358296 
L 66.655078 116.832161 
L 67.985142 115.543672 
L 69.315205 114.908711 
L 69.980237 114.982975 
L 70.645269 115.673635 
L 71.310301 116.880433 
L 72.640365 117.749327 
L 74.635461 118.22462 
L 75.965524 117.467122 
L 76.630556 117.344586 
L 77.295588 116.910139 
L 77.96062 117.355725 
L 78.625652 118.310024 
L 79.955716 117.871864 
L 80.620748 117.942415 
L 82.615843 117.236902 
L 83.280875 117.196057 
L 85.275971 118.373149 
L 85.941003 119.654211 
L 86.606035 121.184059 
L 87.271067 123.055524 
L 88.60113 125.962979 
L 89.266162 127.749039 
L 89.931194 128.710764 
L 90.596226 129.033815 
L 91.261258 129.0858 
L 91.92629 128.881573 
L 92.591322 128.079516 
L 93.256354 126.415992 
L 95.251449 124.21405 
L 95.916481 124.188058 
L 97.246545 123.939272 
L 97.911577 123.144642 
L 99.241641 120.757039 
L 99.906673 120.047813 
L 100.571705 119.728476 
L 101.236736 119.91785 
L 101.901768 120.474834 
L 102.5668 121.588801 
L 103.896864 124.566806 
L 106.556992 130.849581 
L 107.222024 131.480829 
L 107.887055 130.923846 
L 108.552087 129.130359 
L 109.217119 128.220619 
L 110.547183 128.157494 
L 111.212215 127.72676 
L 114.537374 124.388572 
L 115.202406 123.619934 
L 116.53247 123.044385 
L 117.197502 123.285744 
L 117.862534 123.144642 
L 118.527566 121.711337 
L 119.85763 119.780461 
L 120.522661 119.338587 
L 121.187693 119.145499 
L 121.852725 119.253183 
L 122.517757 119.190058 
L 123.182789 118.833589 
L 124.512853 117.500541 
L 125.177885 117.010396 
L 125.842917 116.943558 
L 126.507949 117.203483 
L 127.17298 116.943558 
L 127.838012 116.52025 
L 128.503044 116.769036 
L 129.833108 119.546528 
L 130.49814 121.618507 
L 133.158268 131.477116 
L 133.823299 133.114648 
L 134.488331 134.068946 
L 135.153363 134.507107 
L 135.818395 134.755893 
L 136.483427 135.156921 
L 137.148459 135.758463 
L 137.813491 136.619931 
L 138.478523 135.966404 
L 139.808587 134.299166 
L 140.473618 133.883285 
L 141.13865 134.228615 
L 144.46381 140.515103 
L 145.128842 140.964403 
L 145.793874 140.682198 
L 146.458906 139.839296 
L 147.788969 137.2289 
L 148.454001 135.338869 
L 149.784065 132.605936 
L 151.114129 129.007822 
L 151.779161 125.591656 
L 153.109224 120.779318 
L 154.439288 116.939844 
L 155.10432 116.52025 
L 157.099416 114.559668 
L 157.764448 113.241473 
L 159.094512 111.529677 
L 159.759543 110.998686 
L 161.754639 110.348872 
L 162.419671 110.660783 
L 163.084703 111.771037 
L 163.749735 112.647357 
L 164.414767 113.152356 
L 165.079799 114.099228 
L 165.744831 114.485403 
L 166.409862 115.209482 
L 167.074894 114.682204 
L 167.739926 113.627649 
L 168.404958 112.138646 
L 170.400054 105.618224 
L 171.065086 103.657642 
L 172.39515 101.440848 
L 173.725213 100.482836 
L 175.055277 98.7599 
L 177.050373 98.440563 
L 177.715405 99.019826 
L 178.380437 100.364013 
L 179.045469 102.487977 
L 180.375532 105.707342 
L 181.040564 106.810169 
L 181.705596 107.474836 
L 182.370628 107.786747 
L 183.03566 107.664211 
L 183.700692 107.757041 
L 184.365724 108.588804 
L 185.030756 108.922994 
L 185.695787 109.075236 
L 186.360819 109.528249 
L 189.020947 113.267466 
L 189.685979 114.1475 
L 190.351011 115.242901 
L 191.016043 115.63279 
L 191.681075 115.61051 
L 192.346106 115.413709 
L 193.011138 115.528819 
L 193.67617 115.239188 
L 194.341202 116.501684 
L 195.006234 118.272892 
L 196.336298 120.842443 
L 197.666362 122.710194 
L 198.996425 123.215193 
L 200.326489 124.89357 
L 200.991521 126.200625 
L 201.656553 127.262607 
L 202.986617 128.673632 
L 204.316681 131.417705 
L 205.646744 132.680201 
L 206.311776 133.389426 
L 206.976808 133.901851 
L 207.64184 134.009535 
L 208.971904 133.768175 
L 209.636936 132.947553 
L 210.301968 131.670204 
L 210.967 129.735614 
L 211.632031 127.270033 
L 212.297063 124.310594 
L 214.292159 118.815022 
L 214.957191 117.058668 
L 216.287255 115.187203 
L 216.952287 114.904998 
L 217.617319 114.897571 
L 218.947382 115.699628 
L 219.612414 116.453412 
L 220.942478 118.551384 
L 221.60751 119.3423 
L 222.272542 119.691343 
L 222.937574 119.865865 
L 223.602606 120.255753 
L 224.267638 120.096085 
L 228.257829 115.818451 
L 228.922861 116.267751 
L 229.587893 117.08466 
L 230.917957 119.268036 
L 231.582988 119.910424 
L 232.913052 120.883288 
L 234.908148 124.878717 
L 236.238212 128.785029 
L 236.903244 130.819875 
L 237.568276 131.952409 
L 238.233307 132.739612 
L 238.898339 134.273174 
L 240.228403 136.430557 
L 240.893435 137.035812 
L 242.223499 139.252607 
L 244.218594 139.519959 
L 245.548658 138.706763 
L 246.21369 137.499965 
L 246.878722 135.791882 
L 247.543754 134.514533 
L 248.208786 133.530529 
L 248.873818 132.769318 
L 249.53885 132.349724 
L 250.203882 132.505679 
L 252.198977 131.491969 
L 254.194073 128.354295 
L 254.859105 127.526246 
L 255.524137 126.222904 
L 256.189169 124.176918 
L 258.184264 120.664208 
L 259.514328 118.22462 
L 261.509424 113.286032 
L 262.174456 112.101514 
L 262.839488 110.657069 
L 263.50452 109.51711 
L 264.169551 108.696487 
L 264.834583 108.737333 
L 265.499615 109.16064 
L 266.164647 109.353728 
L 268.159743 110.504827 
L 268.824775 110.512254 
L 269.489807 110.114939 
L 271.484902 107.875865 
L 272.149934 108.529392 
L 273.479998 111.344016 
L 274.14503 112.435704 
L 275.475094 116.334589 
L 276.805157 122.390857 
L 278.135221 125.896141 
L 278.800253 128.202053 
L 279.465285 130.095797 
L 280.130317 132.628216 
L 280.795349 135.762177 
L 281.460381 137.503679 
L 282.790445 140.344295 
L 283.455476 142.063518 
L 284.120508 143.266602 
L 284.78554 144.878141 
L 285.450572 145.95869 
L 286.115604 147.391994 
L 286.780636 148.286881 
L 287.445668 148.706475 
L 288.1107 148.3203 
L 289.440764 146.266887 
L 290.105795 144.321158 
L 290.770827 142.873 
L 291.435859 141.153778 
L 293.430955 134.770746 
L 294.761019 130.032672 
L 295.426051 128.042384 
L 296.091083 126.553381 
L 296.756114 126.256323 
L 298.086178 126.969262 
L 298.75121 127.247754 
L 299.416242 127.366577 
L 300.081274 127.62279 
L 300.746306 127.641356 
L 302.07637 128.989256 
L 302.741402 129.364292 
L 304.071465 129.130359 
L 304.736497 129.353152 
L 305.401529 129.026388 
L 306.066561 128.306023 
L 307.396625 125.068092 
L 308.061657 123.801882 
L 309.39172 120.946413 
L 311.386816 119.602226 
L 312.051848 119.631932 
L 312.71688 120.430275 
L 313.381912 121.002111 
L 314.046944 121.837587 
L 315.377008 124.477689 
L 316.707071 126.753895 
L 317.372103 127.552238 
L 318.037135 128.098082 
L 318.702167 127.529959 
L 319.367199 124.719049 
L 321.362295 119.427704 
L 322.692358 116.668779 
L 323.35739 116.089516 
L 324.022422 116.208339 
L 324.687454 116.208339 
L 325.352486 116.743043 
L 328.012614 117.110653 
L 328.012614 117.110653 
" clip-path="url(#p7d612aa469)" style="fill: none; stroke: #008000; stroke-opacity: 0.5; stroke-width: 2; stroke-linecap: square"/>
   </g>
   <g id="patch_3">
    <path d="M 49.3975 234.5525 
L 49.3975 11.759062 
" style="fill: none; stroke: #000000; stroke-width: 2; stroke-linejoin: miter; stroke-linecap: square"/>
   </g>
   <g id="patch_4">
    <path d="M 341.28 234.5525 
L 341.28 11.759062 
" style="fill: none; stroke: #000000; stroke-width: 2; stroke-linejoin: miter; stroke-linecap: square"/>
   </g>
   <g id="patch_5">
    <path d="M 49.3975 234.5525 
L 341.28 234.5525 
" style="fill: none; stroke: #000000; stroke-width: 2; stroke-linejoin: miter; stroke-linecap: square"/>
   </g>
   <g id="patch_6">
    <path d="M 49.3975 11.759062 
L 341.28 11.759062 
" style="fill: none; stroke: #000000; stroke-width: 2; stroke-linejoin: miter; stroke-linecap: square"/>
   </g>
   <g id="legend_1">
    <g id="line2d_28">
     <path d="M 245.26125 27.477188 
L 257.26125 27.477188 
L 269.26125 27.477188 
" style="fill: none; stroke: #0000ff; stroke-opacity: 0.5; stroke-width: 2; stroke-linecap: square"/>
    </g>
    <g id="text_15">
     <!-- yz-plane -->
     <g transform="translate(278.86125 31.677188)scale(0.12 -0.12)">
      <defs>
       <path id="DejaVuSans-7a" d="M 353 3500 
L 3084 3500 
L 3084 2975 
L 922 459 
L 3084 459 
L 3084 0 
L 275 0 
L 275 525 
L 2438 3041 
L 353 3041 
L 353 3500 
z
" transform="scale(0.015625)"/>
       <path id="DejaVuSans-2d" d="M 313 2009 
L 1997 2009 
L 1997 1497 
L 313 1497 
L 313 2009 
z
" transform="scale(0.015625)"/>
       <path id="DejaVuSans-70" d="M 1159 525 
L 1159 -1331 
L 581 -1331 
L 581 3500 
L 1159 3500 
L 1159 2969 
Q 1341 3281 1617 3432 
Q 1894 3584 2278 3584 
Q 2916 3584 3314 3078 
Q 3713 2572 3713 1747 
Q 3713 922 3314 415 
Q 2916 -91 2278 -91 
Q 1894 -91 1617 61 
Q 1341 213 1159 525 
z
M 3116 1747 
Q 3116 2381 2855 2742 
Q 2594 3103 2138 3103 
Q 1681 3103 1420 2742 
Q 1159 2381 1159 1747 
Q 1159 1113 1420 752 
Q 1681 391 2138 391 
Q 2594 391 2855 752 
Q 3116 1113 3116 1747 
z
" transform="scale(0.015625)"/>
      </defs>
      <use xlink:href="#DejaVuSans-79"/>
      <use xlink:href="#DejaVuSans-7a" x="59.179688"/>
      <use xlink:href="#DejaVuSans-2d" x="111.669922"/>
      <use xlink:href="#DejaVuSans-70" x="147.753906"/>
      <use xlink:href="#DejaVuSans-6c" x="211.230469"/>
      <use xlink:href="#DejaVuSans-61" x="239.013672"/>
      <use xlink:href="#DejaVuSans-6e" x="300.292969"/>
      <use xlink:href="#DejaVuSans-65" x="363.671875"/>
     </g>
    </g>
    <g id="line2d_29">
     <path d="M 245.26125 45.090938 
L 257.26125 45.090938 
L 269.26125 45.090938 
" style="fill: none; stroke: #ff0000; stroke-opacity: 0.5; stroke-width: 2; stroke-linecap: square"/>
    </g>
    <g id="text_16">
     <!-- xz-plane -->
     <g transform="translate(278.86125 49.290938)scale(0.12 -0.12)">
      <use xlink:href="#DejaVuSans-78"/>
      <use xlink:href="#DejaVuSans-7a" x="59.179688"/>
      <use xlink:href="#DejaVuSans-2d" x="111.669922"/>
      <use xlink:href="#DejaVuSans-70" x="147.753906"/>
      <use xlink:href="#DejaVuSans-6c" x="211.230469"/>
      <use xlink:href="#DejaVuSans-61" x="239.013672"/>
      <use xlink:href="#DejaVuSans-6e" x="300.292969"/>
      <use xlink:href="#DejaVuSans-65" x="363.671875"/>
     </g>
    </g>
    <g id="line2d_30">
     <path d="M 245.26125 62.704687 
L 257.26125 62.704687 
L 269.26125 62.704687 
" style="fill: none; stroke: #008000; stroke-opacity: 0.5; stroke-width: 2; stroke-linecap: square"/>
    </g>
    <g id="text_17">
     <!-- xy-plane -->
     <g transform="translate(278.86125 66.904687)scale(0.12 -0.12)">
      <use xlink:href="#DejaVuSans-78"/>
      <use xlink:href="#DejaVuSans-79" x="59.179688"/>
      <use xlink:href="#DejaVuSans-2d" x="116.609375"/>
      <use xlink:href="#DejaVuSans-70" x="152.693359"/>
      <use xlink:href="#DejaVuSans-6c" x="216.169922"/>
      <use xlink:href="#DejaVuSans-61" x="243.953125"/>
      <use xlink:href="#DejaVuSans-6e" x="305.232422"/>
      <use xlink:href="#DejaVuSans-65" x="368.611328"/>
     </g>
    </g>
   </g>
  </g>
 </g>
 <defs>
  <clipPath id="p7d612aa469">
   <rect x="49.3975" y="11.759062" width="291.8825" height="222.793437"/>
  </clipPath>
 </defs>
</svg>
