<?xml version="1.0" encoding="utf-8" standalone="no"?>
<!DOCTYPE svg PUBLIC "-//W3C//DTD SVG 1.1//EN"
  "http://www.w3.org/Graphics/SVG/1.1/DTD/svg11.dtd">
<svg xmlns:xlink="http://www.w3.org/1999/xlink" width="348.48pt" height="276.48pt" viewBox="0 0 348.48 276.48" xmlns="http://www.w3.org/2000/svg" version="1.1">
 <metadata>
  <rdf:RDF xmlns:dc="http://purl.org/dc/elements/1.1/" xmlns:cc="http://creativecommons.org/ns#" xmlns:rdf="http://www.w3.org/1999/02/22-rdf-syntax-ns#">
   <cc:Work>
    <dc:type rdf:resource="http://purl.org/dc/dcmitype/StillImage"/>
    <dc:date>2022-03-29T23:54:58.487790</dc:date>
    <dc:format>image/svg+xml</dc:format>
    <dc:creator>
     <cc:Agent>
      <dc:title>Matplotlib v3.5.1, https://matplotlib.org/</dc:title>
     </cc:Agent>
    </dc:creator>
   </cc:Work>
  </rdf:RDF>
 </metadata>
 <defs>
  <style type="text/css">*{stroke-linejoin: round; stroke-linecap: butt}</style>
 </defs>
 <g id="figure_1">
  <g id="patch_1">
   <path d="M 0 276.48 
L 348.48 276.48 
L 348.48 0 
L 0 0 
L 0 276.48 
z
" style="fill: none"/>
  </g>
  <g id="axes_1">
   <g id="patch_2">
    <path d="M 49.3975 234.5525 
L 341.28 234.5525 
L 341.28 11.759062 
L 49.3975 11.759062 
z
" style="fill: #ffffff"/>
   </g>
   <g id="matplotlib.axis_1">
    <g id="xtick_1">
     <g id="line2d_1">
      <defs>
       <path id="mb6bd075f39" d="M 0 0 
L 0 -6 
" style="stroke: #000000; stroke-width: 2"/>
      </defs>
      <g>
       <use xlink:href="#mb6bd075f39" x="62.664886" y="234.5525" style="fill: #ffffff; stroke: #000000; stroke-width: 2"/>
      </g>
     </g>
     <g id="line2d_2">
      <defs>
       <path id="m68e68f2f62" d="M 0 0 
L 0 6 
" style="stroke: #000000; stroke-width: 2"/>
      </defs>
      <g>
       <use xlink:href="#m68e68f2f62" x="62.664886" y="11.759062" style="fill: #ffffff; stroke: #000000; stroke-width: 2"/>
      </g>
     </g>
     <g id="text_1">
      <!-- 0.0 -->
      <g transform="translate(53.123011 247.170625)scale(0.12 -0.12)">
       <defs>
        <path id="DejaVuSans-30" d="M 2034 4250 
Q 1547 4250 1301 3770 
Q 1056 3291 1056 2328 
Q 1056 1369 1301 889 
Q 1547 409 2034 409 
Q 2525 409 2770 889 
Q 3016 1369 3016 2328 
Q 3016 3291 2770 3770 
Q 2525 4250 2034 4250 
z
M 2034 4750 
Q 2819 4750 3233 4129 
Q 3647 3509 3647 2328 
Q 3647 1150 3233 529 
Q 2819 -91 2034 -91 
Q 1250 -91 836 529 
Q 422 1150 422 2328 
Q 422 3509 836 4129 
Q 1250 4750 2034 4750 
z
" transform="scale(0.015625)"/>
        <path id="DejaVuSans-2e" d="M 684 794 
L 1344 794 
L 1344 0 
L 684 0 
L 684 794 
z
" transform="scale(0.015625)"/>
       </defs>
       <use xlink:href="#DejaVuSans-30"/>
       <use xlink:href="#DejaVuSans-2e" x="63.623047"/>
       <use xlink:href="#DejaVuSans-30" x="95.410156"/>
      </g>
     </g>
    </g>
    <g id="xtick_2">
     <g id="line2d_3">
      <g>
       <use xlink:href="#mb6bd075f39" x="115.734432" y="234.5525" style="fill: #ffffff; stroke: #000000; stroke-width: 2"/>
      </g>
     </g>
     <g id="line2d_4">
      <g>
       <use xlink:href="#m68e68f2f62" x="115.734432" y="11.759062" style="fill: #ffffff; stroke: #000000; stroke-width: 2"/>
      </g>
     </g>
     <g id="text_2">
      <!-- 0.2 -->
      <g transform="translate(106.192557 247.170625)scale(0.12 -0.12)">
       <defs>
        <path id="DejaVuSans-32" d="M 1228 531 
L 3431 531 
L 3431 0 
L 469 0 
L 469 531 
Q 828 903 1448 1529 
Q 2069 2156 2228 2338 
Q 2531 2678 2651 2914 
Q 2772 3150 2772 3378 
Q 2772 3750 2511 3984 
Q 2250 4219 1831 4219 
Q 1534 4219 1204 4116 
Q 875 4013 500 3803 
L 500 4441 
Q 881 4594 1212 4672 
Q 1544 4750 1819 4750 
Q 2544 4750 2975 4387 
Q 3406 4025 3406 3419 
Q 3406 3131 3298 2873 
Q 3191 2616 2906 2266 
Q 2828 2175 2409 1742 
Q 1991 1309 1228 531 
z
" transform="scale(0.015625)"/>
       </defs>
       <use xlink:href="#DejaVuSans-30"/>
       <use xlink:href="#DejaVuSans-2e" x="63.623047"/>
       <use xlink:href="#DejaVuSans-32" x="95.410156"/>
      </g>
     </g>
    </g>
    <g id="xtick_3">
     <g id="line2d_5">
      <g>
       <use xlink:href="#mb6bd075f39" x="168.803977" y="234.5525" style="fill: #ffffff; stroke: #000000; stroke-width: 2"/>
      </g>
     </g>
     <g id="line2d_6">
      <g>
       <use xlink:href="#m68e68f2f62" x="168.803977" y="11.759062" style="fill: #ffffff; stroke: #000000; stroke-width: 2"/>
      </g>
     </g>
     <g id="text_3">
      <!-- 0.4 -->
      <g transform="translate(159.262102 247.170625)scale(0.12 -0.12)">
       <defs>
        <path id="DejaVuSans-34" d="M 2419 4116 
L 825 1625 
L 2419 1625 
L 2419 4116 
z
M 2253 4666 
L 3047 4666 
L 3047 1625 
L 3713 1625 
L 3713 1100 
L 3047 1100 
L 3047 0 
L 2419 0 
L 2419 1100 
L 313 1100 
L 313 1709 
L 2253 4666 
z
" transform="scale(0.015625)"/>
       </defs>
       <use xlink:href="#DejaVuSans-30"/>
       <use xlink:href="#DejaVuSans-2e" x="63.623047"/>
       <use xlink:href="#DejaVuSans-34" x="95.410156"/>
      </g>
     </g>
    </g>
    <g id="xtick_4">
     <g id="line2d_7">
      <g>
       <use xlink:href="#mb6bd075f39" x="221.873523" y="234.5525" style="fill: #ffffff; stroke: #000000; stroke-width: 2"/>
      </g>
     </g>
     <g id="line2d_8">
      <g>
       <use xlink:href="#m68e68f2f62" x="221.873523" y="11.759062" style="fill: #ffffff; stroke: #000000; stroke-width: 2"/>
      </g>
     </g>
     <g id="text_4">
      <!-- 0.6 -->
      <g transform="translate(212.331648 247.170625)scale(0.12 -0.12)">
       <defs>
        <path id="DejaVuSans-36" d="M 2113 2584 
Q 1688 2584 1439 2293 
Q 1191 2003 1191 1497 
Q 1191 994 1439 701 
Q 1688 409 2113 409 
Q 2538 409 2786 701 
Q 3034 994 3034 1497 
Q 3034 2003 2786 2293 
Q 2538 2584 2113 2584 
z
M 3366 4563 
L 3366 3988 
Q 3128 4100 2886 4159 
Q 2644 4219 2406 4219 
Q 1781 4219 1451 3797 
Q 1122 3375 1075 2522 
Q 1259 2794 1537 2939 
Q 1816 3084 2150 3084 
Q 2853 3084 3261 2657 
Q 3669 2231 3669 1497 
Q 3669 778 3244 343 
Q 2819 -91 2113 -91 
Q 1303 -91 875 529 
Q 447 1150 447 2328 
Q 447 3434 972 4092 
Q 1497 4750 2381 4750 
Q 2619 4750 2861 4703 
Q 3103 4656 3366 4563 
z
" transform="scale(0.015625)"/>
       </defs>
       <use xlink:href="#DejaVuSans-30"/>
       <use xlink:href="#DejaVuSans-2e" x="63.623047"/>
       <use xlink:href="#DejaVuSans-36" x="95.410156"/>
      </g>
     </g>
    </g>
    <g id="xtick_5">
     <g id="line2d_9">
      <g>
       <use xlink:href="#mb6bd075f39" x="274.943068" y="234.5525" style="fill: #ffffff; stroke: #000000; stroke-width: 2"/>
      </g>
     </g>
     <g id="line2d_10">
      <g>
       <use xlink:href="#m68e68f2f62" x="274.943068" y="11.759062" style="fill: #ffffff; stroke: #000000; stroke-width: 2"/>
      </g>
     </g>
     <g id="text_5">
      <!-- 0.8 -->
      <g transform="translate(265.401193 247.170625)scale(0.12 -0.12)">
       <defs>
        <path id="DejaVuSans-38" d="M 2034 2216 
Q 1584 2216 1326 1975 
Q 1069 1734 1069 1313 
Q 1069 891 1326 650 
Q 1584 409 2034 409 
Q 2484 409 2743 651 
Q 3003 894 3003 1313 
Q 3003 1734 2745 1975 
Q 2488 2216 2034 2216 
z
M 1403 2484 
Q 997 2584 770 2862 
Q 544 3141 544 3541 
Q 544 4100 942 4425 
Q 1341 4750 2034 4750 
Q 2731 4750 3128 4425 
Q 3525 4100 3525 3541 
Q 3525 3141 3298 2862 
Q 3072 2584 2669 2484 
Q 3125 2378 3379 2068 
Q 3634 1759 3634 1313 
Q 3634 634 3220 271 
Q 2806 -91 2034 -91 
Q 1263 -91 848 271 
Q 434 634 434 1313 
Q 434 1759 690 2068 
Q 947 2378 1403 2484 
z
M 1172 3481 
Q 1172 3119 1398 2916 
Q 1625 2713 2034 2713 
Q 2441 2713 2670 2916 
Q 2900 3119 2900 3481 
Q 2900 3844 2670 4047 
Q 2441 4250 2034 4250 
Q 1625 4250 1398 4047 
Q 1172 3844 1172 3481 
z
" transform="scale(0.015625)"/>
       </defs>
       <use xlink:href="#DejaVuSans-30"/>
       <use xlink:href="#DejaVuSans-2e" x="63.623047"/>
       <use xlink:href="#DejaVuSans-38" x="95.410156"/>
      </g>
     </g>
    </g>
    <g id="xtick_6">
     <g id="line2d_11">
      <g>
       <use xlink:href="#mb6bd075f39" x="328.012614" y="234.5525" style="fill: #ffffff; stroke: #000000; stroke-width: 2"/>
      </g>
     </g>
     <g id="line2d_12">
      <g>
       <use xlink:href="#m68e68f2f62" x="328.012614" y="11.759062" style="fill: #ffffff; stroke: #000000; stroke-width: 2"/>
      </g>
     </g>
     <g id="text_6">
      <!-- 1.0 -->
      <g transform="translate(318.470739 247.170625)scale(0.12 -0.12)">
       <defs>
        <path id="DejaVuSans-31" d="M 794 531 
L 1825 531 
L 1825 4091 
L 703 3866 
L 703 4441 
L 1819 4666 
L 2450 4666 
L 2450 531 
L 3481 531 
L 3481 0 
L 794 0 
L 794 531 
z
" transform="scale(0.015625)"/>
       </defs>
       <use xlink:href="#DejaVuSans-31"/>
       <use xlink:href="#DejaVuSans-2e" x="63.623047"/>
       <use xlink:href="#DejaVuSans-30" x="95.410156"/>
      </g>
     </g>
    </g>
    <g id="text_7">
     <!-- Fractional distance along given axis -->
     <g transform="translate(87.823438 266.784375)scale(0.12 -0.12)">
      <defs>
       <path id="DejaVuSans-46" d="M 628 4666 
L 3309 4666 
L 3309 4134 
L 1259 4134 
L 1259 2759 
L 3109 2759 
L 3109 2228 
L 1259 2228 
L 1259 0 
L 628 0 
L 628 4666 
z
" transform="scale(0.015625)"/>
       <path id="DejaVuSans-72" d="M 2631 2963 
Q 2534 3019 2420 3045 
Q 2306 3072 2169 3072 
Q 1681 3072 1420 2755 
Q 1159 2438 1159 1844 
L 1159 0 
L 581 0 
L 581 3500 
L 1159 3500 
L 1159 2956 
Q 1341 3275 1631 3429 
Q 1922 3584 2338 3584 
Q 2397 3584 2469 3576 
Q 2541 3569 2628 3553 
L 2631 2963 
z
" transform="scale(0.015625)"/>
       <path id="DejaVuSans-61" d="M 2194 1759 
Q 1497 1759 1228 1600 
Q 959 1441 959 1056 
Q 959 750 1161 570 
Q 1363 391 1709 391 
Q 2188 391 2477 730 
Q 2766 1069 2766 1631 
L 2766 1759 
L 2194 1759 
z
M 3341 1997 
L 3341 0 
L 2766 0 
L 2766 531 
Q 2569 213 2275 61 
Q 1981 -91 1556 -91 
Q 1019 -91 701 211 
Q 384 513 384 1019 
Q 384 1609 779 1909 
Q 1175 2209 1959 2209 
L 2766 2209 
L 2766 2266 
Q 2766 2663 2505 2880 
Q 2244 3097 1772 3097 
Q 1472 3097 1187 3025 
Q 903 2953 641 2809 
L 641 3341 
Q 956 3463 1253 3523 
Q 1550 3584 1831 3584 
Q 2591 3584 2966 3190 
Q 3341 2797 3341 1997 
z
" transform="scale(0.015625)"/>
       <path id="DejaVuSans-63" d="M 3122 3366 
L 3122 2828 
Q 2878 2963 2633 3030 
Q 2388 3097 2138 3097 
Q 1578 3097 1268 2742 
Q 959 2388 959 1747 
Q 959 1106 1268 751 
Q 1578 397 2138 397 
Q 2388 397 2633 464 
Q 2878 531 3122 666 
L 3122 134 
Q 2881 22 2623 -34 
Q 2366 -91 2075 -91 
Q 1284 -91 818 406 
Q 353 903 353 1747 
Q 353 2603 823 3093 
Q 1294 3584 2113 3584 
Q 2378 3584 2631 3529 
Q 2884 3475 3122 3366 
z
" transform="scale(0.015625)"/>
       <path id="DejaVuSans-74" d="M 1172 4494 
L 1172 3500 
L 2356 3500 
L 2356 3053 
L 1172 3053 
L 1172 1153 
Q 1172 725 1289 603 
Q 1406 481 1766 481 
L 2356 481 
L 2356 0 
L 1766 0 
Q 1100 0 847 248 
Q 594 497 594 1153 
L 594 3053 
L 172 3053 
L 172 3500 
L 594 3500 
L 594 4494 
L 1172 4494 
z
" transform="scale(0.015625)"/>
       <path id="DejaVuSans-69" d="M 603 3500 
L 1178 3500 
L 1178 0 
L 603 0 
L 603 3500 
z
M 603 4863 
L 1178 4863 
L 1178 4134 
L 603 4134 
L 603 4863 
z
" transform="scale(0.015625)"/>
       <path id="DejaVuSans-6f" d="M 1959 3097 
Q 1497 3097 1228 2736 
Q 959 2375 959 1747 
Q 959 1119 1226 758 
Q 1494 397 1959 397 
Q 2419 397 2687 759 
Q 2956 1122 2956 1747 
Q 2956 2369 2687 2733 
Q 2419 3097 1959 3097 
z
M 1959 3584 
Q 2709 3584 3137 3096 
Q 3566 2609 3566 1747 
Q 3566 888 3137 398 
Q 2709 -91 1959 -91 
Q 1206 -91 779 398 
Q 353 888 353 1747 
Q 353 2609 779 3096 
Q 1206 3584 1959 3584 
z
" transform="scale(0.015625)"/>
       <path id="DejaVuSans-6e" d="M 3513 2113 
L 3513 0 
L 2938 0 
L 2938 2094 
Q 2938 2591 2744 2837 
Q 2550 3084 2163 3084 
Q 1697 3084 1428 2787 
Q 1159 2491 1159 1978 
L 1159 0 
L 581 0 
L 581 3500 
L 1159 3500 
L 1159 2956 
Q 1366 3272 1645 3428 
Q 1925 3584 2291 3584 
Q 2894 3584 3203 3211 
Q 3513 2838 3513 2113 
z
" transform="scale(0.015625)"/>
       <path id="DejaVuSans-6c" d="M 603 4863 
L 1178 4863 
L 1178 0 
L 603 0 
L 603 4863 
z
" transform="scale(0.015625)"/>
       <path id="DejaVuSans-20" transform="scale(0.015625)"/>
       <path id="DejaVuSans-64" d="M 2906 2969 
L 2906 4863 
L 3481 4863 
L 3481 0 
L 2906 0 
L 2906 525 
Q 2725 213 2448 61 
Q 2172 -91 1784 -91 
Q 1150 -91 751 415 
Q 353 922 353 1747 
Q 353 2572 751 3078 
Q 1150 3584 1784 3584 
Q 2172 3584 2448 3432 
Q 2725 3281 2906 2969 
z
M 947 1747 
Q 947 1113 1208 752 
Q 1469 391 1925 391 
Q 2381 391 2643 752 
Q 2906 1113 2906 1747 
Q 2906 2381 2643 2742 
Q 2381 3103 1925 3103 
Q 1469 3103 1208 2742 
Q 947 2381 947 1747 
z
" transform="scale(0.015625)"/>
       <path id="DejaVuSans-73" d="M 2834 3397 
L 2834 2853 
Q 2591 2978 2328 3040 
Q 2066 3103 1784 3103 
Q 1356 3103 1142 2972 
Q 928 2841 928 2578 
Q 928 2378 1081 2264 
Q 1234 2150 1697 2047 
L 1894 2003 
Q 2506 1872 2764 1633 
Q 3022 1394 3022 966 
Q 3022 478 2636 193 
Q 2250 -91 1575 -91 
Q 1294 -91 989 -36 
Q 684 19 347 128 
L 347 722 
Q 666 556 975 473 
Q 1284 391 1588 391 
Q 1994 391 2212 530 
Q 2431 669 2431 922 
Q 2431 1156 2273 1281 
Q 2116 1406 1581 1522 
L 1381 1569 
Q 847 1681 609 1914 
Q 372 2147 372 2553 
Q 372 3047 722 3315 
Q 1072 3584 1716 3584 
Q 2034 3584 2315 3537 
Q 2597 3491 2834 3397 
z
" transform="scale(0.015625)"/>
       <path id="DejaVuSans-65" d="M 3597 1894 
L 3597 1613 
L 953 1613 
Q 991 1019 1311 708 
Q 1631 397 2203 397 
Q 2534 397 2845 478 
Q 3156 559 3463 722 
L 3463 178 
Q 3153 47 2828 -22 
Q 2503 -91 2169 -91 
Q 1331 -91 842 396 
Q 353 884 353 1716 
Q 353 2575 817 3079 
Q 1281 3584 2069 3584 
Q 2775 3584 3186 3129 
Q 3597 2675 3597 1894 
z
M 3022 2063 
Q 3016 2534 2758 2815 
Q 2500 3097 2075 3097 
Q 1594 3097 1305 2825 
Q 1016 2553 972 2059 
L 3022 2063 
z
" transform="scale(0.015625)"/>
       <path id="DejaVuSans-67" d="M 2906 1791 
Q 2906 2416 2648 2759 
Q 2391 3103 1925 3103 
Q 1463 3103 1205 2759 
Q 947 2416 947 1791 
Q 947 1169 1205 825 
Q 1463 481 1925 481 
Q 2391 481 2648 825 
Q 2906 1169 2906 1791 
z
M 3481 434 
Q 3481 -459 3084 -895 
Q 2688 -1331 1869 -1331 
Q 1566 -1331 1297 -1286 
Q 1028 -1241 775 -1147 
L 775 -588 
Q 1028 -725 1275 -790 
Q 1522 -856 1778 -856 
Q 2344 -856 2625 -561 
Q 2906 -266 2906 331 
L 2906 616 
Q 2728 306 2450 153 
Q 2172 0 1784 0 
Q 1141 0 747 490 
Q 353 981 353 1791 
Q 353 2603 747 3093 
Q 1141 3584 1784 3584 
Q 2172 3584 2450 3431 
Q 2728 3278 2906 2969 
L 2906 3500 
L 3481 3500 
L 3481 434 
z
" transform="scale(0.015625)"/>
       <path id="DejaVuSans-76" d="M 191 3500 
L 800 3500 
L 1894 563 
L 2988 3500 
L 3597 3500 
L 2284 0 
L 1503 0 
L 191 3500 
z
" transform="scale(0.015625)"/>
       <path id="DejaVuSans-78" d="M 3513 3500 
L 2247 1797 
L 3578 0 
L 2900 0 
L 1881 1375 
L 863 0 
L 184 0 
L 1544 1831 
L 300 3500 
L 978 3500 
L 1906 2253 
L 2834 3500 
L 3513 3500 
z
" transform="scale(0.015625)"/>
      </defs>
      <use xlink:href="#DejaVuSans-46"/>
      <use xlink:href="#DejaVuSans-72" x="50.269531"/>
      <use xlink:href="#DejaVuSans-61" x="91.382812"/>
      <use xlink:href="#DejaVuSans-63" x="152.662109"/>
      <use xlink:href="#DejaVuSans-74" x="207.642578"/>
      <use xlink:href="#DejaVuSans-69" x="246.851562"/>
      <use xlink:href="#DejaVuSans-6f" x="274.634766"/>
      <use xlink:href="#DejaVuSans-6e" x="335.816406"/>
      <use xlink:href="#DejaVuSans-61" x="399.195312"/>
      <use xlink:href="#DejaVuSans-6c" x="460.474609"/>
      <use xlink:href="#DejaVuSans-20" x="488.257812"/>
      <use xlink:href="#DejaVuSans-64" x="520.044922"/>
      <use xlink:href="#DejaVuSans-69" x="583.521484"/>
      <use xlink:href="#DejaVuSans-73" x="611.304688"/>
      <use xlink:href="#DejaVuSans-74" x="663.404297"/>
      <use xlink:href="#DejaVuSans-61" x="702.613281"/>
      <use xlink:href="#DejaVuSans-6e" x="763.892578"/>
      <use xlink:href="#DejaVuSans-63" x="827.271484"/>
      <use xlink:href="#DejaVuSans-65" x="882.251953"/>
      <use xlink:href="#DejaVuSans-20" x="943.775391"/>
      <use xlink:href="#DejaVuSans-61" x="975.5625"/>
      <use xlink:href="#DejaVuSans-6c" x="1036.841797"/>
      <use xlink:href="#DejaVuSans-6f" x="1064.625"/>
      <use xlink:href="#DejaVuSans-6e" x="1125.806641"/>
      <use xlink:href="#DejaVuSans-67" x="1189.185547"/>
      <use xlink:href="#DejaVuSans-20" x="1252.662109"/>
      <use xlink:href="#DejaVuSans-67" x="1284.449219"/>
      <use xlink:href="#DejaVuSans-69" x="1347.925781"/>
      <use xlink:href="#DejaVuSans-76" x="1375.708984"/>
      <use xlink:href="#DejaVuSans-65" x="1434.888672"/>
      <use xlink:href="#DejaVuSans-6e" x="1496.412109"/>
      <use xlink:href="#DejaVuSans-20" x="1559.791016"/>
      <use xlink:href="#DejaVuSans-61" x="1591.578125"/>
      <use xlink:href="#DejaVuSans-78" x="1652.857422"/>
      <use xlink:href="#DejaVuSans-69" x="1712.037109"/>
      <use xlink:href="#DejaVuSans-73" x="1739.820312"/>
     </g>
    </g>
   </g>
   <g id="matplotlib.axis_2">
    <g id="ytick_1">
     <g id="line2d_13">
      <defs>
       <path id="m62dd3ecf40" d="M 0 0 
L 6 0 
" style="stroke: #000000; stroke-width: 2"/>
      </defs>
      <g>
       <use xlink:href="#m62dd3ecf40" x="49.3975" y="234.5525" style="fill: #ffffff; stroke: #000000; stroke-width: 2"/>
      </g>
     </g>
     <g id="line2d_14">
      <defs>
       <path id="m889b9bb131" d="M 0 0 
L -6 0 
" style="stroke: #000000; stroke-width: 2"/>
      </defs>
      <g>
       <use xlink:href="#m889b9bb131" x="341.28" y="234.5525" style="fill: #ffffff; stroke: #000000; stroke-width: 2"/>
      </g>
     </g>
     <g id="text_8">
      <!-- 0.0 -->
      <g transform="translate(26.81375 239.111562)scale(0.12 -0.12)">
       <use xlink:href="#DejaVuSans-30"/>
       <use xlink:href="#DejaVuSans-2e" x="63.623047"/>
       <use xlink:href="#DejaVuSans-30" x="95.410156"/>
      </g>
     </g>
    </g>
    <g id="ytick_2">
     <g id="line2d_15">
      <g>
       <use xlink:href="#m62dd3ecf40" x="49.3975" y="189.993812" style="fill: #ffffff; stroke: #000000; stroke-width: 2"/>
      </g>
     </g>
     <g id="line2d_16">
      <g>
       <use xlink:href="#m889b9bb131" x="341.28" y="189.993812" style="fill: #ffffff; stroke: #000000; stroke-width: 2"/>
      </g>
     </g>
     <g id="text_9">
      <!-- 0.2 -->
      <g transform="translate(26.81375 194.552875)scale(0.12 -0.12)">
       <use xlink:href="#DejaVuSans-30"/>
       <use xlink:href="#DejaVuSans-2e" x="63.623047"/>
       <use xlink:href="#DejaVuSans-32" x="95.410156"/>
      </g>
     </g>
    </g>
    <g id="ytick_3">
     <g id="line2d_17">
      <g>
       <use xlink:href="#m62dd3ecf40" x="49.3975" y="145.435125" style="fill: #ffffff; stroke: #000000; stroke-width: 2"/>
      </g>
     </g>
     <g id="line2d_18">
      <g>
       <use xlink:href="#m889b9bb131" x="341.28" y="145.435125" style="fill: #ffffff; stroke: #000000; stroke-width: 2"/>
      </g>
     </g>
     <g id="text_10">
      <!-- 0.4 -->
      <g transform="translate(26.81375 149.994187)scale(0.12 -0.12)">
       <use xlink:href="#DejaVuSans-30"/>
       <use xlink:href="#DejaVuSans-2e" x="63.623047"/>
       <use xlink:href="#DejaVuSans-34" x="95.410156"/>
      </g>
     </g>
    </g>
    <g id="ytick_4">
     <g id="line2d_19">
      <g>
       <use xlink:href="#m62dd3ecf40" x="49.3975" y="100.876437" style="fill: #ffffff; stroke: #000000; stroke-width: 2"/>
      </g>
     </g>
     <g id="line2d_20">
      <g>
       <use xlink:href="#m889b9bb131" x="341.28" y="100.876437" style="fill: #ffffff; stroke: #000000; stroke-width: 2"/>
      </g>
     </g>
     <g id="text_11">
      <!-- 0.6 -->
      <g transform="translate(26.81375 105.4355)scale(0.12 -0.12)">
       <use xlink:href="#DejaVuSans-30"/>
       <use xlink:href="#DejaVuSans-2e" x="63.623047"/>
       <use xlink:href="#DejaVuSans-36" x="95.410156"/>
      </g>
     </g>
    </g>
    <g id="ytick_5">
     <g id="line2d_21">
      <g>
       <use xlink:href="#m62dd3ecf40" x="49.3975" y="56.31775" style="fill: #ffffff; stroke: #000000; stroke-width: 2"/>
      </g>
     </g>
     <g id="line2d_22">
      <g>
       <use xlink:href="#m889b9bb131" x="341.28" y="56.31775" style="fill: #ffffff; stroke: #000000; stroke-width: 2"/>
      </g>
     </g>
     <g id="text_12">
      <!-- 0.8 -->
      <g transform="translate(26.81375 60.876812)scale(0.12 -0.12)">
       <use xlink:href="#DejaVuSans-30"/>
       <use xlink:href="#DejaVuSans-2e" x="63.623047"/>
       <use xlink:href="#DejaVuSans-38" x="95.410156"/>
      </g>
     </g>
    </g>
    <g id="ytick_6">
     <g id="line2d_23">
      <g>
       <use xlink:href="#m62dd3ecf40" x="49.3975" y="11.759062" style="fill: #ffffff; stroke: #000000; stroke-width: 2"/>
      </g>
     </g>
     <g id="line2d_24">
      <g>
       <use xlink:href="#m889b9bb131" x="341.28" y="11.759062" style="fill: #ffffff; stroke: #000000; stroke-width: 2"/>
      </g>
     </g>
     <g id="text_13">
      <!-- 1.0 -->
      <g transform="translate(26.81375 16.318125)scale(0.12 -0.12)">
       <use xlink:href="#DejaVuSans-31"/>
       <use xlink:href="#DejaVuSans-2e" x="63.623047"/>
       <use xlink:href="#DejaVuSans-30" x="95.410156"/>
      </g>
     </g>
    </g>
    <g id="text_14">
     <!-- Porosity of slice -->
     <g transform="translate(16.318125 169.973594)rotate(-90)scale(0.12 -0.12)">
      <defs>
       <path id="DejaVuSans-50" d="M 1259 4147 
L 1259 2394 
L 2053 2394 
Q 2494 2394 2734 2622 
Q 2975 2850 2975 3272 
Q 2975 3691 2734 3919 
Q 2494 4147 2053 4147 
L 1259 4147 
z
M 628 4666 
L 2053 4666 
Q 2838 4666 3239 4311 
Q 3641 3956 3641 3272 
Q 3641 2581 3239 2228 
Q 2838 1875 2053 1875 
L 1259 1875 
L 1259 0 
L 628 0 
L 628 4666 
z
" transform="scale(0.015625)"/>
       <path id="DejaVuSans-79" d="M 2059 -325 
Q 1816 -950 1584 -1140 
Q 1353 -1331 966 -1331 
L 506 -1331 
L 506 -850 
L 844 -850 
Q 1081 -850 1212 -737 
Q 1344 -625 1503 -206 
L 1606 56 
L 191 3500 
L 800 3500 
L 1894 763 
L 2988 3500 
L 3597 3500 
L 2059 -325 
z
" transform="scale(0.015625)"/>
       <path id="DejaVuSans-66" d="M 2375 4863 
L 2375 4384 
L 1825 4384 
Q 1516 4384 1395 4259 
Q 1275 4134 1275 3809 
L 1275 3500 
L 2222 3500 
L 2222 3053 
L 1275 3053 
L 1275 0 
L 697 0 
L 697 3053 
L 147 3053 
L 147 3500 
L 697 3500 
L 697 3744 
Q 697 4328 969 4595 
Q 1241 4863 1831 4863 
L 2375 4863 
z
" transform="scale(0.015625)"/>
      </defs>
      <use xlink:href="#DejaVuSans-50"/>
      <use xlink:href="#DejaVuSans-6f" x="56.677734"/>
      <use xlink:href="#DejaVuSans-72" x="117.859375"/>
      <use xlink:href="#DejaVuSans-6f" x="156.722656"/>
      <use xlink:href="#DejaVuSans-73" x="217.904297"/>
      <use xlink:href="#DejaVuSans-69" x="270.003906"/>
      <use xlink:href="#DejaVuSans-74" x="297.787109"/>
      <use xlink:href="#DejaVuSans-79" x="336.996094"/>
      <use xlink:href="#DejaVuSans-20" x="396.175781"/>
      <use xlink:href="#DejaVuSans-6f" x="427.962891"/>
      <use xlink:href="#DejaVuSans-66" x="489.144531"/>
      <use xlink:href="#DejaVuSans-20" x="524.349609"/>
      <use xlink:href="#DejaVuSans-73" x="556.136719"/>
      <use xlink:href="#DejaVuSans-6c" x="608.236328"/>
      <use xlink:href="#DejaVuSans-69" x="636.019531"/>
      <use xlink:href="#DejaVuSans-63" x="663.802734"/>
      <use xlink:href="#DejaVuSans-65" x="718.783203"/>
     </g>
    </g>
   </g>
   <g id="line2d_25">
    <path d="M 62.664886 119.995828 
L 65.331698 120.276176 
L 67.998509 120.861009 
L 69.331915 121.338158 
L 70.66532 121.401283 
L 73.332132 122.686058 
L 74.665537 123.003539 
L 75.998943 123.103796 
L 77.332349 123.774033 
L 78.665754 124.847155 
L 79.99916 126.441984 
L 82.665971 129.369862 
L 83.999377 130.352009 
L 85.332783 131.139213 
L 94.666622 134.883999 
L 96.000028 135.290597 
L 97.333434 135.557949 
L 98.666839 135.580229 
L 100.000245 134.993539 
L 101.333651 133.82016 
L 105.333868 131.103937 
L 106.667273 130.662063 
L 108.000679 129.737471 
L 110.66749 127.687771 
L 112.000896 126.815163 
L 114.667707 125.513678 
L 116.001113 124.919563 
L 117.334519 124.453553 
L 120.00133 123.176204 
L 122.668141 123.172491 
L 124.001547 123.614364 
L 125.334953 124.462836 
L 126.668358 124.676346 
L 129.33517 123.954124 
L 130.668575 124.052525 
L 132.001981 123.944841 
L 133.335387 123.677489 
L 137.335604 122.132788 
L 138.669009 121.336302 
L 140.002415 121.087516 
L 142.669226 121.588801 
L 146.669443 124.954838 
L 149.336255 127.028674 
L 150.66966 127.773175 
L 153.336472 129.826588 
L 154.669877 130.496825 
L 156.003283 130.481972 
L 157.336689 129.958408 
L 158.670094 129.275174 
L 160.0035 128.398853 
L 161.336906 127.108508 
L 164.003717 124.776604 
L 165.337123 124.293884 
L 166.670528 123.562379 
L 168.003934 123.686772 
L 172.004151 126.590513 
L 173.337557 127.294169 
L 176.004368 127.60051 
L 181.337991 128.818448 
L 182.671396 128.814735 
L 184.004802 128.955837 
L 186.671613 129.913849 
L 188.005019 130.034529 
L 189.338425 130.357579 
L 190.67183 131.059378 
L 193.338642 133.27803 
L 196.005453 134.328872 
L 201.339075 136.194767 
L 202.672481 136.957835 
L 204.005887 137.266032 
L 205.339292 137.032099 
L 206.672698 136.592082 
L 209.339509 135.136498 
L 210.672915 134.06152 
L 213.339726 132.492683 
L 214.673132 131.534671 
L 218.673349 130.066091 
L 220.006755 129.910136 
L 221.34016 129.470119 
L 222.673566 129.171204 
L 226.673783 127.097368 
L 228.007189 126.0391 
L 229.340594 124.758037 
L 230.674 123.929988 
L 232.007406 122.942271 
L 233.340811 122.314736 
L 234.674217 121.50711 
L 237.341028 121.054096 
L 238.674434 121.223048 
L 240.00784 121.505253 
L 241.341245 121.492257 
L 242.674651 121.963836 
L 244.008057 122.743613 
L 246.674868 123.538243 
L 248.008274 123.356295 
L 253.341896 123.664493 
L 258.675519 124.938129 
L 260.008925 125.034673 
L 261.34233 124.529674 
L 264.009142 122.6415 
L 265.342547 122.000969 
L 268.009359 121.833874 
L 269.342764 122.000969 
L 270.67617 121.815307 
L 272.009576 121.135787 
L 273.342981 120.304025 
L 274.676387 119.193771 
L 280.01001 115.545529 
L 284.010227 113.766894 
L 285.343632 113.748328 
L 286.677038 113.972978 
L 288.010444 114.398143 
L 289.343849 114.955126 
L 292.010661 116.375434 
L 293.344066 117.060524 
L 294.677472 117.933132 
L 296.010878 118.178205 
L 300.011095 118.027819 
L 301.3445 117.87372 
L 302.677906 117.426277 
L 305.344717 115.018251 
L 306.678123 113.349157 
L 308.011529 111.941845 
L 309.344934 110.800029 
L 312.011746 108.776321 
L 314.678557 105.913426 
L 318.678774 104.480121 
L 320.01218 104.608228 
L 321.345585 105.059384 
L 324.012397 105.499401 
L 326.679208 105.841018 
L 328.012614 105.87815 
L 328.012614 105.87815 
" clip-path="url(#pc46cbbab23)" style="fill: none; stroke: #0000ff; stroke-opacity: 0.5; stroke-width: 2; stroke-linecap: square"/>
   </g>
   <g id="line2d_26">
    <path d="M 62.664886 116.265894 
L 63.552337 116.143358 
L 64.439788 115.689416 
L 66.214689 113.904284 
L 68.877041 108.866367 
L 71.539392 102.110156 
L 72.426843 100.405786 
L 73.314293 99.503473 
L 74.201744 99.236121 
L 75.089195 99.868297 
L 76.864096 102.889933 
L 77.751546 103.950987 
L 78.638997 105.39079 
L 80.413898 107.184277 
L 81.301349 107.615939 
L 83.963701 110.82138 
L 84.851151 111.481405 
L 87.513503 114.271893 
L 88.400954 114.600513 
L 90.175855 114.358225 
L 91.950756 113.497686 
L 92.838207 113.439202 
L 93.725657 113.700985 
L 94.613108 114.199485 
L 95.500558 114.920779 
L 96.388009 116.368936 
L 97.275459 117.184917 
L 98.16291 117.285174 
L 99.937811 119.212337 
L 100.825262 119.62172 
L 101.712712 120.340229 
L 102.600163 121.615722 
L 103.487614 123.164136 
L 104.375064 125.188771 
L 107.037416 129.162849 
L 107.924867 130.357579 
L 108.812317 132.067519 
L 109.699768 133.382 
L 110.587218 134.415205 
L 111.474669 134.958264 
L 112.36212 135.147638 
L 115.911922 139.124501 
L 116.799373 140.152136 
L 117.686823 140.18834 
L 119.461724 139.313875 
L 121.236625 137.537098 
L 122.124076 137.383927 
L 123.011527 136.818589 
L 123.898977 136.044382 
L 124.786428 134.966618 
L 127.44878 130.961906 
L 130.998582 124.392285 
L 131.886033 123.520606 
L 132.773483 123.03603 
L 134.548384 122.70184 
L 135.435835 122.707409 
L 137.210736 123.102868 
L 138.098187 123.787958 
L 138.985637 124.141642 
L 140.760539 125.325232 
L 141.647989 126.361222 
L 143.42289 129.037528 
L 144.310341 130.059593 
L 145.197792 131.271032 
L 146.085242 131.814091 
L 147.860143 131.814091 
L 148.747594 131.644211 
L 150.522495 130.223903 
L 152.297396 128.040527 
L 153.184847 127.207837 
L 154.072297 126.76225 
L 154.959748 126.500468 
L 155.847199 126.525532 
L 156.734649 127.179988 
L 157.6221 127.692413 
L 158.50955 128.46662 
L 159.397001 128.772961 
L 160.284452 128.750681 
L 161.171902 128.137999 
L 162.946803 126.040956 
L 164.721705 123.347941 
L 166.496606 121.855225 
L 167.384056 121.264822 
L 168.271507 120.983545 
L 169.158958 120.181489 
L 170.046408 119.045242 
L 170.933859 117.051241 
L 171.821309 114.486332 
L 172.70876 112.553599 
L 173.59621 111.211268 
L 174.483661 110.116795 
L 175.371112 109.245116 
L 177.146013 108.910926 
L 179.808365 109.518038 
L 180.695815 110.158569 
L 181.583266 110.548458 
L 182.470716 111.31431 
L 183.358167 112.3503 
L 185.133068 113.85137 
L 186.020519 114.675706 
L 186.907969 115.03496 
L 187.79542 115.171421 
L 188.682871 114.260753 
L 190.457772 111.943702 
L 191.345222 110.512254 
L 192.232673 110.370223 
L 193.120124 110.757326 
L 194.007574 111.862939 
L 195.782475 114.817737 
L 196.669926 116.029176 
L 197.557376 118.028747 
L 199.332278 121.395713 
L 200.219728 122.804882 
L 201.107179 123.718335 
L 201.994629 124.938129 
L 202.88208 126.455909 
L 203.769531 128.408137 
L 204.656981 130.037314 
L 205.544432 131.390784 
L 207.319333 133.192626 
L 208.206784 133.749609 
L 209.981685 135.543096 
L 210.869135 136.169703 
L 212.644037 136.840868 
L 213.531487 136.963405 
L 214.418938 136.946695 
L 215.306388 137.266961 
L 216.193839 137.926986 
L 217.08129 138.094081 
L 217.96874 138.380928 
L 218.856191 139.266532 
L 219.743641 139.993395 
L 221.518542 140.17163 
L 222.405993 140.241253 
L 223.293444 140.029599 
L 224.180894 139.670345 
L 225.068345 138.9769 
L 226.843246 136.60972 
L 227.730697 135.186627 
L 230.393048 130.126431 
L 232.16795 128.29117 
L 234.830301 123.659851 
L 235.717752 122.479046 
L 236.605203 122.01118 
L 237.492653 121.802311 
L 238.380104 121.8413 
L 241.042456 121.690914 
L 242.817357 122.893999 
L 243.704807 123.857581 
L 244.592258 125.158137 
L 245.479708 126.723261 
L 246.367159 127.196697 
L 248.14206 127.656209 
L 249.029511 128.260536 
L 249.916961 129.132215 
L 250.804412 130.605437 
L 251.691863 131.460407 
L 254.354214 132.574374 
L 256.129116 132.279173 
L 257.904017 130.193269 
L 258.791467 129.625146 
L 259.678918 129.332729 
L 261.453819 129.806165 
L 262.34127 130.455051 
L 265.003622 131.956122 
L 265.891072 131.797382 
L 268.553424 130.700124 
L 269.440875 130.037314 
L 270.328325 129.728188 
L 271.215776 129.717048 
L 272.103226 130.062378 
L 272.990677 129.728188 
L 273.878127 128.906637 
L 274.765578 128.61422 
L 275.653029 128.168634 
L 276.540479 127.461264 
L 277.42793 126.915421 
L 278.31538 125.651068 
L 280.090282 123.509466 
L 280.977732 122.913493 
L 281.865183 122.648926 
L 282.752633 122.51525 
L 284.527535 123.320091 
L 286.302436 125.007752 
L 287.189886 125.859937 
L 288.077337 126.001967 
L 288.964788 126.25818 
L 290.739689 126.308308 
L 291.627139 126.486543 
L 295.176942 123.169706 
L 296.064392 122.880074 
L 296.951843 123.208695 
L 297.839293 123.417564 
L 298.726744 123.968977 
L 299.614195 124.111008 
L 300.501645 124.046955 
L 301.389096 123.668206 
L 302.276546 123.640357 
L 303.163997 124.269748 
L 304.051448 125.539671 
L 304.938898 126.040956 
L 306.713799 126.731616 
L 307.60125 126.815163 
L 308.488701 126.42249 
L 309.376151 125.74854 
L 310.263602 124.924204 
L 311.151052 123.846441 
L 312.038503 123.016535 
L 312.925954 121.791171 
L 314.700855 120.31795 
L 316.475756 119.081446 
L 317.363207 118.925491 
L 318.250657 119.579947 
L 319.138108 120.047813 
L 320.913009 121.370649 
L 321.800459 122.091943 
L 322.68791 123.008181 
L 325.350262 125.05788 
L 327.125163 125.843227 
L 328.012614 126.060451 
L 328.012614 126.060451 
" clip-path="url(#pc46cbbab23)" style="fill: none; stroke: #ff0000; stroke-opacity: 0.5; stroke-width: 2; stroke-linecap: square"/>
   </g>
   <g id="line2d_27">
    <path d="M 62.664886 107.155499 
L 63.99495 107.140646 
L 66.655078 107.760755 
L 67.32011 108.488547 
L 67.985142 108.793031 
L 68.650173 108.614796 
L 69.315205 108.770752 
L 69.980237 109.1495 
L 70.645269 109.951557 
L 71.310301 111.035818 
L 71.975333 111.789603 
L 73.970429 113.230334 
L 75.965524 116.134075 
L 76.630556 117.708482 
L 77.295588 118.692486 
L 77.96062 119.372006 
L 78.625652 119.847299 
L 79.290684 120.641929 
L 79.955716 121.633359 
L 81.950811 126.066949 
L 82.615843 126.876432 
L 83.280875 127.147497 
L 83.945907 127.775032 
L 84.610939 128.773889 
L 85.275971 129.111792 
L 85.941003 128.721904 
L 86.606035 127.84187 
L 87.271067 125.829302 
L 87.936098 124.88243 
L 88.60113 124.251182 
L 89.266162 123.857581 
L 89.931194 123.252325 
L 91.92629 122.576518 
L 92.591322 122.784459 
L 93.256354 123.553096 
L 94.586417 123.657066 
L 95.251449 124.139786 
L 95.916481 124.43313 
L 96.581513 124.269748 
L 97.246545 123.824162 
L 97.911577 123.950411 
L 99.241641 125.944412 
L 99.906673 127.875289 
L 100.571705 130.177488 
L 101.236736 133.274317 
L 101.901768 135.773316 
L 103.896864 141.109219 
L 105.226928 143.55252 
L 105.89196 143.875571 
L 106.556992 144.03524 
L 107.222024 143.481969 
L 107.887055 142.505391 
L 108.552087 141.874143 
L 109.217119 142.19348 
L 111.212215 144.930127 
L 111.877247 145.041523 
L 112.542279 144.525385 
L 113.207311 143.170058 
L 114.537374 139.768745 
L 117.862534 133.148067 
L 119.192598 130.842155 
L 120.522661 128.190913 
L 122.517757 122.583945 
L 123.182789 120.9427 
L 126.507949 114.916137 
L 127.17298 114.381433 
L 128.503044 114.968122 
L 129.168076 115.770179 
L 129.833108 117.89043 
L 130.49814 119.416565 
L 131.828204 121.774462 
L 132.493236 122.803025 
L 133.158268 123.360009 
L 133.823299 123.493685 
L 134.488331 123.757324 
L 135.818395 124.655924 
L 137.148459 124.975261 
L 137.813491 124.678203 
L 138.478523 124.540814 
L 139.143555 124.815592 
L 139.808587 124.466549 
L 140.473618 123.902139 
L 141.803682 120.757039 
L 143.133746 118.878147 
L 143.798778 117.422563 
L 145.128842 113.954412 
L 146.458906 112.112653 
L 147.123937 111.674493 
L 147.788969 111.756184 
L 148.454001 111.180634 
L 149.784065 109.676778 
L 150.449097 109.368581 
L 151.114129 109.372294 
L 151.779161 110.033248 
L 155.10432 112.33916 
L 155.769352 112.313167 
L 157.099416 112.688203 
L 157.764448 112.825592 
L 158.42948 112.45427 
L 159.094512 112.795886 
L 159.759543 113.705626 
L 162.419671 114.214338 
L 163.084703 114.218051 
L 164.414767 115.569665 
L 165.079799 115.547385 
L 165.744831 115.216908 
L 168.404958 112.595372 
L 169.06999 112.324307 
L 169.735022 112.316881 
L 170.400054 112.12008 
L 171.065086 112.617652 
L 173.060181 112.502542 
L 173.725213 111.86758 
L 175.055277 111.76361 
L 175.720309 113.000114 
L 176.385341 114.923564 
L 179.7105 126.876432 
L 180.375532 128.554809 
L 181.705596 130.827302 
L 183.03566 132.724759 
L 183.700692 134.094939 
L 185.030756 136.085227 
L 185.695787 136.523387 
L 186.360819 136.456549 
L 187.690883 135.531957 
L 188.355915 134.793025 
L 189.685979 131.328587 
L 190.351011 130.210907 
L 191.681075 129.371718 
L 192.346106 128.688485 
L 193.011138 127.143784 
L 193.67617 125.914707 
L 194.341202 124.43313 
L 195.671266 120.627076 
L 196.336298 119.591086 
L 197.00133 118.284031 
L 201.656553 105.829878 
L 202.986617 102.124081 
L 203.651649 101.370296 
L 204.316681 101.633935 
L 204.981713 102.153787 
L 205.646744 102.131507 
L 207.64184 99.19806 
L 208.306872 98.819311 
L 208.971904 99.053245 
L 209.636936 99.476552 
L 210.301968 99.454273 
L 210.967 99.290891 
L 211.632031 99.576809 
L 212.297063 100.11894 
L 212.962095 100.839305 
L 213.627127 102.109228 
L 214.292159 103.100659 
L 214.957191 103.876722 
L 216.287255 106.542817 
L 216.952287 107.619652 
L 218.28235 111.622508 
L 219.612414 115.9447 
L 220.942478 120.170349 
L 222.272542 125.25004 
L 222.937574 127.307166 
L 223.602606 128.874146 
L 224.932669 131.265462 
L 225.597701 131.993254 
L 226.262733 133.809021 
L 226.927765 134.611077 
L 227.592797 135.669346 
L 228.257829 137.266032 
L 229.587893 139.401136 
L 230.252925 139.404849 
L 230.917957 140.140068 
L 231.582988 140.39628 
L 232.24802 140.466831 
L 232.913052 139.932127 
L 233.578084 138.729043 
L 234.243116 138.001251 
L 234.908148 136.909563 
L 235.57318 136.166918 
L 236.903244 132.865862 
L 238.233307 130.118076 
L 238.898339 128.940984 
L 239.563371 128.688485 
L 241.558467 127.128931 
L 242.223499 126.315735 
L 242.888531 125.955552 
L 243.553563 125.368863 
L 244.883626 124.804453 
L 245.548658 124.752468 
L 246.21369 125.00868 
L 246.878722 124.31802 
L 248.208786 121.488544 
L 248.873818 120.738472 
L 250.868913 119.943843 
L 251.533945 119.36458 
L 252.198977 119.234617 
L 254.194073 120.259467 
L 254.859105 121.239758 
L 255.524137 121.570235 
L 256.189169 122.056667 
L 256.854201 122.324019 
L 257.519232 121.889572 
L 258.184264 120.582517 
L 258.849296 120.155496 
L 259.514328 120.478547 
L 260.17936 121.555382 
L 260.844392 122.962694 
L 261.509424 124.039529 
L 262.174456 124.700482 
L 262.839488 124.715335 
L 263.50452 124.875004 
L 264.834583 125.684487 
L 265.499615 125.695626 
L 266.164647 125.443127 
L 267.494711 123.31545 
L 268.824775 120.950126 
L 269.489807 120.619649 
L 270.154839 120.103511 
L 271.484902 120.177776 
L 272.149934 119.988401 
L 272.814966 119.349727 
L 273.479998 119.004397 
L 274.14503 118.915279 
L 275.475094 117.437416 
L 277.470189 113.557097 
L 278.135221 112.539674 
L 279.465285 112.354013 
L 281.460381 110.920708 
L 282.125413 110.252328 
L 282.790445 109.82902 
L 283.455476 110.018395 
L 284.120508 111.050671 
L 284.78554 111.826735 
L 285.450572 112.417138 
L 287.445668 116.720764 
L 288.1107 118.350869 
L 288.775732 121.05781 
L 290.105795 127.247754 
L 292.765923 135.98497 
L 293.430955 137.696766 
L 294.095987 138.680771 
L 294.761019 140.095509 
L 295.426051 141.213189 
L 296.091083 141.632784 
L 296.756114 141.64021 
L 297.421146 142.037525 
L 298.086178 143.214617 
L 299.416242 144.80759 
L 300.081274 145.876999 
L 300.746306 146.519386 
L 301.411338 147.466259 
L 302.741402 148.294307 
L 303.406433 147.863573 
L 304.071465 147.874713 
L 304.736497 148.353719 
L 305.401529 148.491108 
L 306.066561 148.754747 
L 306.731593 149.181768 
L 307.396625 149.861288 
L 308.061657 150.25489 
L 308.726689 150.421985 
L 309.39172 149.942979 
L 310.056752 149.036952 
L 311.386816 146.775599 
L 312.71688 145.631926 
L 313.381912 144.488253 
L 314.711976 143.036382 
L 315.377008 142.713332 
L 316.042039 142.063518 
L 316.707071 141.172344 
L 318.037135 139.995252 
L 318.702167 139.215475 
L 320.032231 138.287169 
L 320.697263 138.365147 
L 321.362295 139.100365 
L 322.027327 139.490253 
L 322.692358 139.148637 
L 326.68255 134.414276 
L 327.347582 134.087513 
L 328.012614 133.912991 
L 328.012614 133.912991 
" clip-path="url(#pc46cbbab23)" style="fill: none; stroke: #008000; stroke-opacity: 0.5; stroke-width: 2; stroke-linecap: square"/>
   </g>
   <g id="patch_3">
    <path d="M 49.3975 234.5525 
L 49.3975 11.759062 
" style="fill: none; stroke: #000000; stroke-width: 2; stroke-linejoin: miter; stroke-linecap: square"/>
   </g>
   <g id="patch_4">
    <path d="M 341.28 234.5525 
L 341.28 11.759062 
" style="fill: none; stroke: #000000; stroke-width: 2; stroke-linejoin: miter; stroke-linecap: square"/>
   </g>
   <g id="patch_5">
    <path d="M 49.3975 234.5525 
L 341.28 234.5525 
" style="fill: none; stroke: #000000; stroke-width: 2; stroke-linejoin: miter; stroke-linecap: square"/>
   </g>
   <g id="patch_6">
    <path d="M 49.3975 11.759062 
L 341.28 11.759062 
" style="fill: none; stroke: #000000; stroke-width: 2; stroke-linejoin: miter; stroke-linecap: square"/>
   </g>
   <g id="legend_1">
    <g id="line2d_28">
     <path d="M 245.26125 27.477188 
L 257.26125 27.477188 
L 269.26125 27.477188 
" style="fill: none; stroke: #0000ff; stroke-opacity: 0.5; stroke-width: 2; stroke-linecap: square"/>
    </g>
    <g id="text_15">
     <!-- yz-plane -->
     <g transform="translate(278.86125 31.677188)scale(0.12 -0.12)">
      <defs>
       <path id="DejaVuSans-7a" d="M 353 3500 
L 3084 3500 
L 3084 2975 
L 922 459 
L 3084 459 
L 3084 0 
L 275 0 
L 275 525 
L 2438 3041 
L 353 3041 
L 353 3500 
z
" transform="scale(0.015625)"/>
       <path id="DejaVuSans-2d" d="M 313 2009 
L 1997 2009 
L 1997 1497 
L 313 1497 
L 313 2009 
z
" transform="scale(0.015625)"/>
       <path id="DejaVuSans-70" d="M 1159 525 
L 1159 -1331 
L 581 -1331 
L 581 3500 
L 1159 3500 
L 1159 2969 
Q 1341 3281 1617 3432 
Q 1894 3584 2278 3584 
Q 2916 3584 3314 3078 
Q 3713 2572 3713 1747 
Q 3713 922 3314 415 
Q 2916 -91 2278 -91 
Q 1894 -91 1617 61 
Q 1341 213 1159 525 
z
M 3116 1747 
Q 3116 2381 2855 2742 
Q 2594 3103 2138 3103 
Q 1681 3103 1420 2742 
Q 1159 2381 1159 1747 
Q 1159 1113 1420 752 
Q 1681 391 2138 391 
Q 2594 391 2855 752 
Q 3116 1113 3116 1747 
z
" transform="scale(0.015625)"/>
      </defs>
      <use xlink:href="#DejaVuSans-79"/>
      <use xlink:href="#DejaVuSans-7a" x="59.179688"/>
      <use xlink:href="#DejaVuSans-2d" x="111.669922"/>
      <use xlink:href="#DejaVuSans-70" x="147.753906"/>
      <use xlink:href="#DejaVuSans-6c" x="211.230469"/>
      <use xlink:href="#DejaVuSans-61" x="239.013672"/>
      <use xlink:href="#DejaVuSans-6e" x="300.292969"/>
      <use xlink:href="#DejaVuSans-65" x="363.671875"/>
     </g>
    </g>
    <g id="line2d_29">
     <path d="M 245.26125 45.090938 
L 257.26125 45.090938 
L 269.26125 45.090938 
" style="fill: none; stroke: #ff0000; stroke-opacity: 0.5; stroke-width: 2; stroke-linecap: square"/>
    </g>
    <g id="text_16">
     <!-- xz-plane -->
     <g transform="translate(278.86125 49.290938)scale(0.12 -0.12)">
      <use xlink:href="#DejaVuSans-78"/>
      <use xlink:href="#DejaVuSans-7a" x="59.179688"/>
      <use xlink:href="#DejaVuSans-2d" x="111.669922"/>
      <use xlink:href="#DejaVuSans-70" x="147.753906"/>
      <use xlink:href="#DejaVuSans-6c" x="211.230469"/>
      <use xlink:href="#DejaVuSans-61" x="239.013672"/>
      <use xlink:href="#DejaVuSans-6e" x="300.292969"/>
      <use xlink:href="#DejaVuSans-65" x="363.671875"/>
     </g>
    </g>
    <g id="line2d_30">
     <path d="M 245.26125 62.704687 
L 257.26125 62.704687 
L 269.26125 62.704687 
" style="fill: none; stroke: #008000; stroke-opacity: 0.5; stroke-width: 2; stroke-linecap: square"/>
    </g>
    <g id="text_17">
     <!-- xy-plane -->
     <g transform="translate(278.86125 66.904687)scale(0.12 -0.12)">
      <use xlink:href="#DejaVuSans-78"/>
      <use xlink:href="#DejaVuSans-79" x="59.179688"/>
      <use xlink:href="#DejaVuSans-2d" x="116.609375"/>
      <use xlink:href="#DejaVuSans-70" x="152.693359"/>
      <use xlink:href="#DejaVuSans-6c" x="216.169922"/>
      <use xlink:href="#DejaVuSans-61" x="243.953125"/>
      <use xlink:href="#DejaVuSans-6e" x="305.232422"/>
      <use xlink:href="#DejaVuSans-65" x="368.611328"/>
     </g>
    </g>
   </g>
  </g>
 </g>
 <defs>
  <clipPath id="pc46cbbab23">
   <rect x="49.3975" y="11.759062" width="291.8825" height="222.793437"/>
  </clipPath>
 </defs>
</svg>
