<?xml version="1.0" encoding="utf-8" standalone="no"?>
<!DOCTYPE svg PUBLIC "-//W3C//DTD SVG 1.1//EN"
  "http://www.w3.org/Graphics/SVG/1.1/DTD/svg11.dtd">
<svg xmlns:xlink="http://www.w3.org/1999/xlink" width="348.48pt" height="276.48pt" viewBox="0 0 348.48 276.48" xmlns="http://www.w3.org/2000/svg" version="1.1">
 <metadata>
  <rdf:RDF xmlns:dc="http://purl.org/dc/elements/1.1/" xmlns:cc="http://creativecommons.org/ns#" xmlns:rdf="http://www.w3.org/1999/02/22-rdf-syntax-ns#">
   <cc:Work>
    <dc:type rdf:resource="http://purl.org/dc/dcmitype/StillImage"/>
    <dc:date>2022-08-22T18:53:19.446138</dc:date>
    <dc:format>image/svg+xml</dc:format>
    <dc:creator>
     <cc:Agent>
      <dc:title>Matplotlib v3.5.3, https://matplotlib.org/</dc:title>
     </cc:Agent>
    </dc:creator>
   </cc:Work>
  </rdf:RDF>
 </metadata>
 <defs>
  <style type="text/css">*{stroke-linejoin: round; stroke-linecap: butt}</style>
 </defs>
 <g id="figure_1">
  <g id="patch_1">
   <path d="M 0 276.48 
L 348.48 276.48 
L 348.48 0 
L 0 0 
z
" style="fill: #ffffff"/>
  </g>
  <g id="axes_1">
   <g id="patch_2">
    <path d="M 49.3975 234.5525 
L 341.28 234.5525 
L 341.28 11.759062 
L 49.3975 11.759062 
z
" style="fill: #ffffff"/>
   </g>
   <g id="matplotlib.axis_1">
    <g id="xtick_1">
     <g id="line2d_1">
      <defs>
       <path id="m098c3b62d3" d="M 0 0 
L 0 -6 
" style="stroke: #000000; stroke-width: 2"/>
      </defs>
      <g>
       <use xlink:href="#m098c3b62d3" x="62.664886" y="234.5525" style="fill: #ffffff; stroke: #000000; stroke-width: 2"/>
      </g>
     </g>
     <g id="line2d_2">
      <defs>
       <path id="m987cbd6cf0" d="M 0 0 
L 0 6 
" style="stroke: #000000; stroke-width: 2"/>
      </defs>
      <g>
       <use xlink:href="#m987cbd6cf0" x="62.664886" y="11.759062" style="fill: #ffffff; stroke: #000000; stroke-width: 2"/>
      </g>
     </g>
     <g id="text_1">
      <!-- 0.0 -->
      <g transform="translate(53.123011 247.170625)scale(0.12 -0.12)">
       <defs>
        <path id="DejaVuSans-30" d="M 2034 4250 
Q 1547 4250 1301 3770 
Q 1056 3291 1056 2328 
Q 1056 1369 1301 889 
Q 1547 409 2034 409 
Q 2525 409 2770 889 
Q 3016 1369 3016 2328 
Q 3016 3291 2770 3770 
Q 2525 4250 2034 4250 
z
M 2034 4750 
Q 2819 4750 3233 4129 
Q 3647 3509 3647 2328 
Q 3647 1150 3233 529 
Q 2819 -91 2034 -91 
Q 1250 -91 836 529 
Q 422 1150 422 2328 
Q 422 3509 836 4129 
Q 1250 4750 2034 4750 
z
" transform="scale(0.015625)"/>
        <path id="DejaVuSans-2e" d="M 684 794 
L 1344 794 
L 1344 0 
L 684 0 
L 684 794 
z
" transform="scale(0.015625)"/>
       </defs>
       <use xlink:href="#DejaVuSans-30"/>
       <use xlink:href="#DejaVuSans-2e" x="63.623047"/>
       <use xlink:href="#DejaVuSans-30" x="95.410156"/>
      </g>
     </g>
    </g>
    <g id="xtick_2">
     <g id="line2d_3">
      <g>
       <use xlink:href="#m098c3b62d3" x="115.734432" y="234.5525" style="fill: #ffffff; stroke: #000000; stroke-width: 2"/>
      </g>
     </g>
     <g id="line2d_4">
      <g>
       <use xlink:href="#m987cbd6cf0" x="115.734432" y="11.759062" style="fill: #ffffff; stroke: #000000; stroke-width: 2"/>
      </g>
     </g>
     <g id="text_2">
      <!-- 0.2 -->
      <g transform="translate(106.192557 247.170625)scale(0.12 -0.12)">
       <defs>
        <path id="DejaVuSans-32" d="M 1228 531 
L 3431 531 
L 3431 0 
L 469 0 
L 469 531 
Q 828 903 1448 1529 
Q 2069 2156 2228 2338 
Q 2531 2678 2651 2914 
Q 2772 3150 2772 3378 
Q 2772 3750 2511 3984 
Q 2250 4219 1831 4219 
Q 1534 4219 1204 4116 
Q 875 4013 500 3803 
L 500 4441 
Q 881 4594 1212 4672 
Q 1544 4750 1819 4750 
Q 2544 4750 2975 4387 
Q 3406 4025 3406 3419 
Q 3406 3131 3298 2873 
Q 3191 2616 2906 2266 
Q 2828 2175 2409 1742 
Q 1991 1309 1228 531 
z
" transform="scale(0.015625)"/>
       </defs>
       <use xlink:href="#DejaVuSans-30"/>
       <use xlink:href="#DejaVuSans-2e" x="63.623047"/>
       <use xlink:href="#DejaVuSans-32" x="95.410156"/>
      </g>
     </g>
    </g>
    <g id="xtick_3">
     <g id="line2d_5">
      <g>
       <use xlink:href="#m098c3b62d3" x="168.803977" y="234.5525" style="fill: #ffffff; stroke: #000000; stroke-width: 2"/>
      </g>
     </g>
     <g id="line2d_6">
      <g>
       <use xlink:href="#m987cbd6cf0" x="168.803977" y="11.759062" style="fill: #ffffff; stroke: #000000; stroke-width: 2"/>
      </g>
     </g>
     <g id="text_3">
      <!-- 0.4 -->
      <g transform="translate(159.262102 247.170625)scale(0.12 -0.12)">
       <defs>
        <path id="DejaVuSans-34" d="M 2419 4116 
L 825 1625 
L 2419 1625 
L 2419 4116 
z
M 2253 4666 
L 3047 4666 
L 3047 1625 
L 3713 1625 
L 3713 1100 
L 3047 1100 
L 3047 0 
L 2419 0 
L 2419 1100 
L 313 1100 
L 313 1709 
L 2253 4666 
z
" transform="scale(0.015625)"/>
       </defs>
       <use xlink:href="#DejaVuSans-30"/>
       <use xlink:href="#DejaVuSans-2e" x="63.623047"/>
       <use xlink:href="#DejaVuSans-34" x="95.410156"/>
      </g>
     </g>
    </g>
    <g id="xtick_4">
     <g id="line2d_7">
      <g>
       <use xlink:href="#m098c3b62d3" x="221.873523" y="234.5525" style="fill: #ffffff; stroke: #000000; stroke-width: 2"/>
      </g>
     </g>
     <g id="line2d_8">
      <g>
       <use xlink:href="#m987cbd6cf0" x="221.873523" y="11.759062" style="fill: #ffffff; stroke: #000000; stroke-width: 2"/>
      </g>
     </g>
     <g id="text_4">
      <!-- 0.6 -->
      <g transform="translate(212.331648 247.170625)scale(0.12 -0.12)">
       <defs>
        <path id="DejaVuSans-36" d="M 2113 2584 
Q 1688 2584 1439 2293 
Q 1191 2003 1191 1497 
Q 1191 994 1439 701 
Q 1688 409 2113 409 
Q 2538 409 2786 701 
Q 3034 994 3034 1497 
Q 3034 2003 2786 2293 
Q 2538 2584 2113 2584 
z
M 3366 4563 
L 3366 3988 
Q 3128 4100 2886 4159 
Q 2644 4219 2406 4219 
Q 1781 4219 1451 3797 
Q 1122 3375 1075 2522 
Q 1259 2794 1537 2939 
Q 1816 3084 2150 3084 
Q 2853 3084 3261 2657 
Q 3669 2231 3669 1497 
Q 3669 778 3244 343 
Q 2819 -91 2113 -91 
Q 1303 -91 875 529 
Q 447 1150 447 2328 
Q 447 3434 972 4092 
Q 1497 4750 2381 4750 
Q 2619 4750 2861 4703 
Q 3103 4656 3366 4563 
z
" transform="scale(0.015625)"/>
       </defs>
       <use xlink:href="#DejaVuSans-30"/>
       <use xlink:href="#DejaVuSans-2e" x="63.623047"/>
       <use xlink:href="#DejaVuSans-36" x="95.410156"/>
      </g>
     </g>
    </g>
    <g id="xtick_5">
     <g id="line2d_9">
      <g>
       <use xlink:href="#m098c3b62d3" x="274.943068" y="234.5525" style="fill: #ffffff; stroke: #000000; stroke-width: 2"/>
      </g>
     </g>
     <g id="line2d_10">
      <g>
       <use xlink:href="#m987cbd6cf0" x="274.943068" y="11.759062" style="fill: #ffffff; stroke: #000000; stroke-width: 2"/>
      </g>
     </g>
     <g id="text_5">
      <!-- 0.8 -->
      <g transform="translate(265.401193 247.170625)scale(0.12 -0.12)">
       <defs>
        <path id="DejaVuSans-38" d="M 2034 2216 
Q 1584 2216 1326 1975 
Q 1069 1734 1069 1313 
Q 1069 891 1326 650 
Q 1584 409 2034 409 
Q 2484 409 2743 651 
Q 3003 894 3003 1313 
Q 3003 1734 2745 1975 
Q 2488 2216 2034 2216 
z
M 1403 2484 
Q 997 2584 770 2862 
Q 544 3141 544 3541 
Q 544 4100 942 4425 
Q 1341 4750 2034 4750 
Q 2731 4750 3128 4425 
Q 3525 4100 3525 3541 
Q 3525 3141 3298 2862 
Q 3072 2584 2669 2484 
Q 3125 2378 3379 2068 
Q 3634 1759 3634 1313 
Q 3634 634 3220 271 
Q 2806 -91 2034 -91 
Q 1263 -91 848 271 
Q 434 634 434 1313 
Q 434 1759 690 2068 
Q 947 2378 1403 2484 
z
M 1172 3481 
Q 1172 3119 1398 2916 
Q 1625 2713 2034 2713 
Q 2441 2713 2670 2916 
Q 2900 3119 2900 3481 
Q 2900 3844 2670 4047 
Q 2441 4250 2034 4250 
Q 1625 4250 1398 4047 
Q 1172 3844 1172 3481 
z
" transform="scale(0.015625)"/>
       </defs>
       <use xlink:href="#DejaVuSans-30"/>
       <use xlink:href="#DejaVuSans-2e" x="63.623047"/>
       <use xlink:href="#DejaVuSans-38" x="95.410156"/>
      </g>
     </g>
    </g>
    <g id="xtick_6">
     <g id="line2d_11">
      <g>
       <use xlink:href="#m098c3b62d3" x="328.012614" y="234.5525" style="fill: #ffffff; stroke: #000000; stroke-width: 2"/>
      </g>
     </g>
     <g id="line2d_12">
      <g>
       <use xlink:href="#m987cbd6cf0" x="328.012614" y="11.759062" style="fill: #ffffff; stroke: #000000; stroke-width: 2"/>
      </g>
     </g>
     <g id="text_6">
      <!-- 1.0 -->
      <g transform="translate(318.470739 247.170625)scale(0.12 -0.12)">
       <defs>
        <path id="DejaVuSans-31" d="M 794 531 
L 1825 531 
L 1825 4091 
L 703 3866 
L 703 4441 
L 1819 4666 
L 2450 4666 
L 2450 531 
L 3481 531 
L 3481 0 
L 794 0 
L 794 531 
z
" transform="scale(0.015625)"/>
       </defs>
       <use xlink:href="#DejaVuSans-31"/>
       <use xlink:href="#DejaVuSans-2e" x="63.623047"/>
       <use xlink:href="#DejaVuSans-30" x="95.410156"/>
      </g>
     </g>
    </g>
    <g id="text_7">
     <!-- Fractional distance along given axis -->
     <g transform="translate(87.823438 266.784375)scale(0.12 -0.12)">
      <defs>
       <path id="DejaVuSans-46" d="M 628 4666 
L 3309 4666 
L 3309 4134 
L 1259 4134 
L 1259 2759 
L 3109 2759 
L 3109 2228 
L 1259 2228 
L 1259 0 
L 628 0 
L 628 4666 
z
" transform="scale(0.015625)"/>
       <path id="DejaVuSans-72" d="M 2631 2963 
Q 2534 3019 2420 3045 
Q 2306 3072 2169 3072 
Q 1681 3072 1420 2755 
Q 1159 2438 1159 1844 
L 1159 0 
L 581 0 
L 581 3500 
L 1159 3500 
L 1159 2956 
Q 1341 3275 1631 3429 
Q 1922 3584 2338 3584 
Q 2397 3584 2469 3576 
Q 2541 3569 2628 3553 
L 2631 2963 
z
" transform="scale(0.015625)"/>
       <path id="DejaVuSans-61" d="M 2194 1759 
Q 1497 1759 1228 1600 
Q 959 1441 959 1056 
Q 959 750 1161 570 
Q 1363 391 1709 391 
Q 2188 391 2477 730 
Q 2766 1069 2766 1631 
L 2766 1759 
L 2194 1759 
z
M 3341 1997 
L 3341 0 
L 2766 0 
L 2766 531 
Q 2569 213 2275 61 
Q 1981 -91 1556 -91 
Q 1019 -91 701 211 
Q 384 513 384 1019 
Q 384 1609 779 1909 
Q 1175 2209 1959 2209 
L 2766 2209 
L 2766 2266 
Q 2766 2663 2505 2880 
Q 2244 3097 1772 3097 
Q 1472 3097 1187 3025 
Q 903 2953 641 2809 
L 641 3341 
Q 956 3463 1253 3523 
Q 1550 3584 1831 3584 
Q 2591 3584 2966 3190 
Q 3341 2797 3341 1997 
z
" transform="scale(0.015625)"/>
       <path id="DejaVuSans-63" d="M 3122 3366 
L 3122 2828 
Q 2878 2963 2633 3030 
Q 2388 3097 2138 3097 
Q 1578 3097 1268 2742 
Q 959 2388 959 1747 
Q 959 1106 1268 751 
Q 1578 397 2138 397 
Q 2388 397 2633 464 
Q 2878 531 3122 666 
L 3122 134 
Q 2881 22 2623 -34 
Q 2366 -91 2075 -91 
Q 1284 -91 818 406 
Q 353 903 353 1747 
Q 353 2603 823 3093 
Q 1294 3584 2113 3584 
Q 2378 3584 2631 3529 
Q 2884 3475 3122 3366 
z
" transform="scale(0.015625)"/>
       <path id="DejaVuSans-74" d="M 1172 4494 
L 1172 3500 
L 2356 3500 
L 2356 3053 
L 1172 3053 
L 1172 1153 
Q 1172 725 1289 603 
Q 1406 481 1766 481 
L 2356 481 
L 2356 0 
L 1766 0 
Q 1100 0 847 248 
Q 594 497 594 1153 
L 594 3053 
L 172 3053 
L 172 3500 
L 594 3500 
L 594 4494 
L 1172 4494 
z
" transform="scale(0.015625)"/>
       <path id="DejaVuSans-69" d="M 603 3500 
L 1178 3500 
L 1178 0 
L 603 0 
L 603 3500 
z
M 603 4863 
L 1178 4863 
L 1178 4134 
L 603 4134 
L 603 4863 
z
" transform="scale(0.015625)"/>
       <path id="DejaVuSans-6f" d="M 1959 3097 
Q 1497 3097 1228 2736 
Q 959 2375 959 1747 
Q 959 1119 1226 758 
Q 1494 397 1959 397 
Q 2419 397 2687 759 
Q 2956 1122 2956 1747 
Q 2956 2369 2687 2733 
Q 2419 3097 1959 3097 
z
M 1959 3584 
Q 2709 3584 3137 3096 
Q 3566 2609 3566 1747 
Q 3566 888 3137 398 
Q 2709 -91 1959 -91 
Q 1206 -91 779 398 
Q 353 888 353 1747 
Q 353 2609 779 3096 
Q 1206 3584 1959 3584 
z
" transform="scale(0.015625)"/>
       <path id="DejaVuSans-6e" d="M 3513 2113 
L 3513 0 
L 2938 0 
L 2938 2094 
Q 2938 2591 2744 2837 
Q 2550 3084 2163 3084 
Q 1697 3084 1428 2787 
Q 1159 2491 1159 1978 
L 1159 0 
L 581 0 
L 581 3500 
L 1159 3500 
L 1159 2956 
Q 1366 3272 1645 3428 
Q 1925 3584 2291 3584 
Q 2894 3584 3203 3211 
Q 3513 2838 3513 2113 
z
" transform="scale(0.015625)"/>
       <path id="DejaVuSans-6c" d="M 603 4863 
L 1178 4863 
L 1178 0 
L 603 0 
L 603 4863 
z
" transform="scale(0.015625)"/>
       <path id="DejaVuSans-20" transform="scale(0.015625)"/>
       <path id="DejaVuSans-64" d="M 2906 2969 
L 2906 4863 
L 3481 4863 
L 3481 0 
L 2906 0 
L 2906 525 
Q 2725 213 2448 61 
Q 2172 -91 1784 -91 
Q 1150 -91 751 415 
Q 353 922 353 1747 
Q 353 2572 751 3078 
Q 1150 3584 1784 3584 
Q 2172 3584 2448 3432 
Q 2725 3281 2906 2969 
z
M 947 1747 
Q 947 1113 1208 752 
Q 1469 391 1925 391 
Q 2381 391 2643 752 
Q 2906 1113 2906 1747 
Q 2906 2381 2643 2742 
Q 2381 3103 1925 3103 
Q 1469 3103 1208 2742 
Q 947 2381 947 1747 
z
" transform="scale(0.015625)"/>
       <path id="DejaVuSans-73" d="M 2834 3397 
L 2834 2853 
Q 2591 2978 2328 3040 
Q 2066 3103 1784 3103 
Q 1356 3103 1142 2972 
Q 928 2841 928 2578 
Q 928 2378 1081 2264 
Q 1234 2150 1697 2047 
L 1894 2003 
Q 2506 1872 2764 1633 
Q 3022 1394 3022 966 
Q 3022 478 2636 193 
Q 2250 -91 1575 -91 
Q 1294 -91 989 -36 
Q 684 19 347 128 
L 347 722 
Q 666 556 975 473 
Q 1284 391 1588 391 
Q 1994 391 2212 530 
Q 2431 669 2431 922 
Q 2431 1156 2273 1281 
Q 2116 1406 1581 1522 
L 1381 1569 
Q 847 1681 609 1914 
Q 372 2147 372 2553 
Q 372 3047 722 3315 
Q 1072 3584 1716 3584 
Q 2034 3584 2315 3537 
Q 2597 3491 2834 3397 
z
" transform="scale(0.015625)"/>
       <path id="DejaVuSans-65" d="M 3597 1894 
L 3597 1613 
L 953 1613 
Q 991 1019 1311 708 
Q 1631 397 2203 397 
Q 2534 397 2845 478 
Q 3156 559 3463 722 
L 3463 178 
Q 3153 47 2828 -22 
Q 2503 -91 2169 -91 
Q 1331 -91 842 396 
Q 353 884 353 1716 
Q 353 2575 817 3079 
Q 1281 3584 2069 3584 
Q 2775 3584 3186 3129 
Q 3597 2675 3597 1894 
z
M 3022 2063 
Q 3016 2534 2758 2815 
Q 2500 3097 2075 3097 
Q 1594 3097 1305 2825 
Q 1016 2553 972 2059 
L 3022 2063 
z
" transform="scale(0.015625)"/>
       <path id="DejaVuSans-67" d="M 2906 1791 
Q 2906 2416 2648 2759 
Q 2391 3103 1925 3103 
Q 1463 3103 1205 2759 
Q 947 2416 947 1791 
Q 947 1169 1205 825 
Q 1463 481 1925 481 
Q 2391 481 2648 825 
Q 2906 1169 2906 1791 
z
M 3481 434 
Q 3481 -459 3084 -895 
Q 2688 -1331 1869 -1331 
Q 1566 -1331 1297 -1286 
Q 1028 -1241 775 -1147 
L 775 -588 
Q 1028 -725 1275 -790 
Q 1522 -856 1778 -856 
Q 2344 -856 2625 -561 
Q 2906 -266 2906 331 
L 2906 616 
Q 2728 306 2450 153 
Q 2172 0 1784 0 
Q 1141 0 747 490 
Q 353 981 353 1791 
Q 353 2603 747 3093 
Q 1141 3584 1784 3584 
Q 2172 3584 2450 3431 
Q 2728 3278 2906 2969 
L 2906 3500 
L 3481 3500 
L 3481 434 
z
" transform="scale(0.015625)"/>
       <path id="DejaVuSans-76" d="M 191 3500 
L 800 3500 
L 1894 563 
L 2988 3500 
L 3597 3500 
L 2284 0 
L 1503 0 
L 191 3500 
z
" transform="scale(0.015625)"/>
       <path id="DejaVuSans-78" d="M 3513 3500 
L 2247 1797 
L 3578 0 
L 2900 0 
L 1881 1375 
L 863 0 
L 184 0 
L 1544 1831 
L 300 3500 
L 978 3500 
L 1906 2253 
L 2834 3500 
L 3513 3500 
z
" transform="scale(0.015625)"/>
      </defs>
      <use xlink:href="#DejaVuSans-46"/>
      <use xlink:href="#DejaVuSans-72" x="50.269531"/>
      <use xlink:href="#DejaVuSans-61" x="91.382812"/>
      <use xlink:href="#DejaVuSans-63" x="152.662109"/>
      <use xlink:href="#DejaVuSans-74" x="207.642578"/>
      <use xlink:href="#DejaVuSans-69" x="246.851562"/>
      <use xlink:href="#DejaVuSans-6f" x="274.634766"/>
      <use xlink:href="#DejaVuSans-6e" x="335.816406"/>
      <use xlink:href="#DejaVuSans-61" x="399.195312"/>
      <use xlink:href="#DejaVuSans-6c" x="460.474609"/>
      <use xlink:href="#DejaVuSans-20" x="488.257812"/>
      <use xlink:href="#DejaVuSans-64" x="520.044922"/>
      <use xlink:href="#DejaVuSans-69" x="583.521484"/>
      <use xlink:href="#DejaVuSans-73" x="611.304688"/>
      <use xlink:href="#DejaVuSans-74" x="663.404297"/>
      <use xlink:href="#DejaVuSans-61" x="702.613281"/>
      <use xlink:href="#DejaVuSans-6e" x="763.892578"/>
      <use xlink:href="#DejaVuSans-63" x="827.271484"/>
      <use xlink:href="#DejaVuSans-65" x="882.251953"/>
      <use xlink:href="#DejaVuSans-20" x="943.775391"/>
      <use xlink:href="#DejaVuSans-61" x="975.5625"/>
      <use xlink:href="#DejaVuSans-6c" x="1036.841797"/>
      <use xlink:href="#DejaVuSans-6f" x="1064.625"/>
      <use xlink:href="#DejaVuSans-6e" x="1125.806641"/>
      <use xlink:href="#DejaVuSans-67" x="1189.185547"/>
      <use xlink:href="#DejaVuSans-20" x="1252.662109"/>
      <use xlink:href="#DejaVuSans-67" x="1284.449219"/>
      <use xlink:href="#DejaVuSans-69" x="1347.925781"/>
      <use xlink:href="#DejaVuSans-76" x="1375.708984"/>
      <use xlink:href="#DejaVuSans-65" x="1434.888672"/>
      <use xlink:href="#DejaVuSans-6e" x="1496.412109"/>
      <use xlink:href="#DejaVuSans-20" x="1559.791016"/>
      <use xlink:href="#DejaVuSans-61" x="1591.578125"/>
      <use xlink:href="#DejaVuSans-78" x="1652.857422"/>
      <use xlink:href="#DejaVuSans-69" x="1712.037109"/>
      <use xlink:href="#DejaVuSans-73" x="1739.820312"/>
     </g>
    </g>
   </g>
   <g id="matplotlib.axis_2">
    <g id="ytick_1">
     <g id="line2d_13">
      <defs>
       <path id="m99edda21ec" d="M 0 0 
L 6 0 
" style="stroke: #000000; stroke-width: 2"/>
      </defs>
      <g>
       <use xlink:href="#m99edda21ec" x="49.3975" y="234.5525" style="fill: #ffffff; stroke: #000000; stroke-width: 2"/>
      </g>
     </g>
     <g id="line2d_14">
      <defs>
       <path id="md0b30a8a3a" d="M 0 0 
L -6 0 
" style="stroke: #000000; stroke-width: 2"/>
      </defs>
      <g>
       <use xlink:href="#md0b30a8a3a" x="341.28" y="234.5525" style="fill: #ffffff; stroke: #000000; stroke-width: 2"/>
      </g>
     </g>
     <g id="text_8">
      <!-- 0.0 -->
      <g transform="translate(26.81375 239.111562)scale(0.12 -0.12)">
       <use xlink:href="#DejaVuSans-30"/>
       <use xlink:href="#DejaVuSans-2e" x="63.623047"/>
       <use xlink:href="#DejaVuSans-30" x="95.410156"/>
      </g>
     </g>
    </g>
    <g id="ytick_2">
     <g id="line2d_15">
      <g>
       <use xlink:href="#m99edda21ec" x="49.3975" y="189.993812" style="fill: #ffffff; stroke: #000000; stroke-width: 2"/>
      </g>
     </g>
     <g id="line2d_16">
      <g>
       <use xlink:href="#md0b30a8a3a" x="341.28" y="189.993812" style="fill: #ffffff; stroke: #000000; stroke-width: 2"/>
      </g>
     </g>
     <g id="text_9">
      <!-- 0.2 -->
      <g transform="translate(26.81375 194.552875)scale(0.12 -0.12)">
       <use xlink:href="#DejaVuSans-30"/>
       <use xlink:href="#DejaVuSans-2e" x="63.623047"/>
       <use xlink:href="#DejaVuSans-32" x="95.410156"/>
      </g>
     </g>
    </g>
    <g id="ytick_3">
     <g id="line2d_17">
      <g>
       <use xlink:href="#m99edda21ec" x="49.3975" y="145.435125" style="fill: #ffffff; stroke: #000000; stroke-width: 2"/>
      </g>
     </g>
     <g id="line2d_18">
      <g>
       <use xlink:href="#md0b30a8a3a" x="341.28" y="145.435125" style="fill: #ffffff; stroke: #000000; stroke-width: 2"/>
      </g>
     </g>
     <g id="text_10">
      <!-- 0.4 -->
      <g transform="translate(26.81375 149.994187)scale(0.12 -0.12)">
       <use xlink:href="#DejaVuSans-30"/>
       <use xlink:href="#DejaVuSans-2e" x="63.623047"/>
       <use xlink:href="#DejaVuSans-34" x="95.410156"/>
      </g>
     </g>
    </g>
    <g id="ytick_4">
     <g id="line2d_19">
      <g>
       <use xlink:href="#m99edda21ec" x="49.3975" y="100.876437" style="fill: #ffffff; stroke: #000000; stroke-width: 2"/>
      </g>
     </g>
     <g id="line2d_20">
      <g>
       <use xlink:href="#md0b30a8a3a" x="341.28" y="100.876437" style="fill: #ffffff; stroke: #000000; stroke-width: 2"/>
      </g>
     </g>
     <g id="text_11">
      <!-- 0.6 -->
      <g transform="translate(26.81375 105.4355)scale(0.12 -0.12)">
       <use xlink:href="#DejaVuSans-30"/>
       <use xlink:href="#DejaVuSans-2e" x="63.623047"/>
       <use xlink:href="#DejaVuSans-36" x="95.410156"/>
      </g>
     </g>
    </g>
    <g id="ytick_5">
     <g id="line2d_21">
      <g>
       <use xlink:href="#m99edda21ec" x="49.3975" y="56.31775" style="fill: #ffffff; stroke: #000000; stroke-width: 2"/>
      </g>
     </g>
     <g id="line2d_22">
      <g>
       <use xlink:href="#md0b30a8a3a" x="341.28" y="56.31775" style="fill: #ffffff; stroke: #000000; stroke-width: 2"/>
      </g>
     </g>
     <g id="text_12">
      <!-- 0.8 -->
      <g transform="translate(26.81375 60.876812)scale(0.12 -0.12)">
       <use xlink:href="#DejaVuSans-30"/>
       <use xlink:href="#DejaVuSans-2e" x="63.623047"/>
       <use xlink:href="#DejaVuSans-38" x="95.410156"/>
      </g>
     </g>
    </g>
    <g id="ytick_6">
     <g id="line2d_23">
      <g>
       <use xlink:href="#m99edda21ec" x="49.3975" y="11.759062" style="fill: #ffffff; stroke: #000000; stroke-width: 2"/>
      </g>
     </g>
     <g id="line2d_24">
      <g>
       <use xlink:href="#md0b30a8a3a" x="341.28" y="11.759062" style="fill: #ffffff; stroke: #000000; stroke-width: 2"/>
      </g>
     </g>
     <g id="text_13">
      <!-- 1.0 -->
      <g transform="translate(26.81375 16.318125)scale(0.12 -0.12)">
       <use xlink:href="#DejaVuSans-31"/>
       <use xlink:href="#DejaVuSans-2e" x="63.623047"/>
       <use xlink:href="#DejaVuSans-30" x="95.410156"/>
      </g>
     </g>
    </g>
    <g id="text_14">
     <!-- Porosity of slice -->
     <g transform="translate(16.318125 169.973594)rotate(-90)scale(0.12 -0.12)">
      <defs>
       <path id="DejaVuSans-50" d="M 1259 4147 
L 1259 2394 
L 2053 2394 
Q 2494 2394 2734 2622 
Q 2975 2850 2975 3272 
Q 2975 3691 2734 3919 
Q 2494 4147 2053 4147 
L 1259 4147 
z
M 628 4666 
L 2053 4666 
Q 2838 4666 3239 4311 
Q 3641 3956 3641 3272 
Q 3641 2581 3239 2228 
Q 2838 1875 2053 1875 
L 1259 1875 
L 1259 0 
L 628 0 
L 628 4666 
z
" transform="scale(0.015625)"/>
       <path id="DejaVuSans-79" d="M 2059 -325 
Q 1816 -950 1584 -1140 
Q 1353 -1331 966 -1331 
L 506 -1331 
L 506 -850 
L 844 -850 
Q 1081 -850 1212 -737 
Q 1344 -625 1503 -206 
L 1606 56 
L 191 3500 
L 800 3500 
L 1894 763 
L 2988 3500 
L 3597 3500 
L 2059 -325 
z
" transform="scale(0.015625)"/>
       <path id="DejaVuSans-66" d="M 2375 4863 
L 2375 4384 
L 1825 4384 
Q 1516 4384 1395 4259 
Q 1275 4134 1275 3809 
L 1275 3500 
L 2222 3500 
L 2222 3053 
L 1275 3053 
L 1275 0 
L 697 0 
L 697 3053 
L 147 3053 
L 147 3500 
L 697 3500 
L 697 3744 
Q 697 4328 969 4595 
Q 1241 4863 1831 4863 
L 2375 4863 
z
" transform="scale(0.015625)"/>
      </defs>
      <use xlink:href="#DejaVuSans-50"/>
      <use xlink:href="#DejaVuSans-6f" x="56.677734"/>
      <use xlink:href="#DejaVuSans-72" x="117.859375"/>
      <use xlink:href="#DejaVuSans-6f" x="156.722656"/>
      <use xlink:href="#DejaVuSans-73" x="217.904297"/>
      <use xlink:href="#DejaVuSans-69" x="270.003906"/>
      <use xlink:href="#DejaVuSans-74" x="297.787109"/>
      <use xlink:href="#DejaVuSans-79" x="336.996094"/>
      <use xlink:href="#DejaVuSans-20" x="396.175781"/>
      <use xlink:href="#DejaVuSans-6f" x="427.962891"/>
      <use xlink:href="#DejaVuSans-66" x="489.144531"/>
      <use xlink:href="#DejaVuSans-20" x="524.349609"/>
      <use xlink:href="#DejaVuSans-73" x="556.136719"/>
      <use xlink:href="#DejaVuSans-6c" x="608.236328"/>
      <use xlink:href="#DejaVuSans-69" x="636.019531"/>
      <use xlink:href="#DejaVuSans-63" x="663.802734"/>
      <use xlink:href="#DejaVuSans-65" x="718.783203"/>
     </g>
    </g>
   </g>
   <g id="line2d_25">
    <path d="M 62.664886 120.809024 
L 63.998292 120.83316 
L 66.665103 121.16735 
L 67.998509 121.120935 
L 70.66532 121.364151 
L 71.998726 122.000969 
L 73.332132 122.427989 
L 74.665537 122.622934 
L 75.998943 122.997969 
L 78.665754 122.98126 
L 81.332566 122.671206 
L 83.999377 122.376004 
L 86.666188 121.538672 
L 87.999594 121.263894 
L 89.333 120.784888 
L 90.666405 120.862865 
L 94.666622 121.642642 
L 96.000028 122.316593 
L 97.333434 122.817878 
L 100.000245 124.254896 
L 102.667056 125.34844 
L 104.000462 126.01682 
L 106.667273 126.222904 
L 108.000679 126.397426 
L 113.334302 125.498826 
L 114.667707 125.159066 
L 116.001113 125.717906 
L 118.667924 129.037528 
L 121.334736 131.659064 
L 122.668141 132.589227 
L 124.001547 133.287313 
L 125.334953 133.586227 
L 126.668358 133.576944 
L 129.33517 134.555379 
L 130.668575 134.824588 
L 132.001981 134.911848 
L 134.668792 134.508964 
L 136.002198 134.254608 
L 138.669009 133.161063 
L 140.002415 132.021103 
L 142.669226 130.442983 
L 144.002632 129.065377 
L 145.336038 128.090656 
L 148.002849 126.783601 
L 149.336255 126.453124 
L 152.003066 126.278603 
L 153.336472 126.087372 
L 154.669877 126.47169 
L 157.336689 128.029388 
L 158.670094 128.330159 
L 160.0035 128.023818 
L 161.336906 127.374004 
L 162.670311 126.518106 
L 164.003717 125.313164 
L 165.337123 124.305024 
L 166.670528 122.997969 
L 168.003934 122.129075 
L 173.337557 119.594799 
L 176.004368 118.855868 
L 177.337774 118.961695 
L 178.671179 118.694343 
L 180.004585 118.038959 
L 182.671396 116.1972 
L 184.004802 115.064666 
L 185.338208 114.214338 
L 188.005019 113.584946 
L 189.338425 113.70377 
L 190.67183 114.394429 
L 192.005236 115.398856 
L 194.672047 119.058239 
L 196.005453 120.406139 
L 197.338858 121.51268 
L 198.672264 122.450269 
L 200.00567 122.921848 
L 201.339075 123.092656 
L 204.005887 122.992399 
L 205.339292 122.697198 
L 206.672698 122.247898 
L 208.006104 122.687915 
L 210.672915 122.938558 
L 214.673132 122.225619 
L 216.006538 121.393856 
L 218.673349 120.313308 
L 220.006755 119.930846 
L 221.34016 119.945699 
L 226.673783 118.915279 
L 228.007189 118.957982 
L 229.340594 119.386859 
L 232.007406 120.662351 
L 233.340811 121.488544 
L 236.007623 123.738757 
L 237.341028 124.652211 
L 238.674434 125.209194 
L 240.00784 125.478403 
L 241.341245 125.46912 
L 242.674651 125.647355 
L 244.008057 125.662207 
L 245.341462 125.478403 
L 248.008274 124.407138 
L 252.008491 121.891428 
L 253.341896 121.915564 
L 254.675302 122.409423 
L 256.008708 123.19477 
L 258.675519 123.900283 
L 260.008925 124.007966 
L 262.675736 125.870148 
L 264.009142 126.596083 
L 265.342547 127.177203 
L 266.675953 127.943984 
L 268.009359 128.207622 
L 269.342764 127.49654 
L 273.342981 126.512536 
L 274.676387 126.521819 
L 276.009793 126.26375 
L 277.343198 126.341727 
L 280.01001 125.859008 
L 281.343415 125.680774 
L 284.010227 124.89914 
L 286.677038 123.916992 
L 288.010444 123.20034 
L 290.677255 120.612223 
L 293.344066 118.727762 
L 294.677472 118.332303 
L 297.344283 118.00554 
L 298.677689 117.509824 
L 300.011095 116.815451 
L 301.3445 116.29003 
L 302.677906 115.965123 
L 304.011312 115.482404 
L 306.678123 114.975549 
L 309.344934 114.736046 
L 310.67834 114.977405 
L 314.678557 117.385431 
L 316.011963 117.777176 
L 320.01218 118.027819 
L 321.345585 118.070521 
L 322.678991 118.363866 
L 324.012397 118.508681 
L 325.345802 118.766751 
L 328.012614 118.907853 
L 328.012614 118.907853 
" clip-path="url(#p71daf9c353)" style="fill: none; stroke: #0000ff; stroke-opacity: 0.5; stroke-width: 2; stroke-linecap: square"/>
   </g>
   <g id="line2d_26">
    <path d="M 62.664886 128.722832 
L 65.327238 129.296525 
L 67.98959 131.006465 
L 69.764491 132.788813 
L 70.651942 132.983757 
L 71.539392 132.738684 
L 72.426843 132.914134 
L 74.201744 133.774673 
L 75.089195 133.827587 
L 76.864096 134.863576 
L 77.751546 134.671417 
L 78.638997 134.72433 
L 79.526448 134.175702 
L 81.301349 132.045239 
L 83.963701 127.539242 
L 85.738602 125.73183 
L 86.626052 124.693056 
L 88.400954 123.1892 
L 89.288404 122.676775 
L 90.175855 122.977546 
L 91.063305 123.088943 
L 91.950756 123.398069 
L 92.838207 123.587444 
L 94.613108 124.592799 
L 95.500558 124.823947 
L 96.388009 124.495327 
L 97.275459 124.748754 
L 99.050361 126.007537 
L 100.825262 127.848368 
L 101.712712 128.747897 
L 103.487614 130.811521 
L 104.375064 131.719404 
L 105.262515 132.056379 
L 106.149965 132.215119 
L 107.924867 130.073517 
L 111.474669 124.606724 
L 113.24957 122.51525 
L 114.137021 121.590657 
L 115.024471 121.476476 
L 115.911922 121.546099 
L 118.574274 120.81088 
L 119.461724 120.866579 
L 120.349175 120.231617 
L 123.011527 119.034103 
L 123.898977 118.025962 
L 124.786428 116.7449 
L 126.561329 114.801027 
L 127.44878 114.480762 
L 128.33623 114.834446 
L 129.223681 114.709125 
L 130.111131 115.171421 
L 130.998582 116.24083 
L 131.886033 116.934275 
L 132.773483 117.209981 
L 135.435835 117.040101 
L 136.323286 117.098585 
L 137.210736 116.820093 
L 138.098187 116.304883 
L 138.985637 116.121078 
L 139.873088 116.40514 
L 140.760539 116.92592 
L 141.647989 117.012252 
L 142.53544 116.533246 
L 143.42289 115.536246 
L 144.310341 115.012681 
L 145.197792 114.20227 
L 146.085242 113.132861 
L 146.972693 112.325235 
L 147.860143 111.888003 
L 148.747594 111.687489 
L 149.635044 111.65407 
L 150.522495 112.00497 
L 151.409946 112.631576 
L 153.184847 114.244044 
L 154.072297 114.929134 
L 154.959748 115.185346 
L 155.847199 115.238259 
L 156.734649 115.001541 
L 157.6221 115.065595 
L 158.50955 114.920779 
L 159.397001 114.578234 
L 160.284452 114.010111 
L 161.171902 114.001756 
L 162.059353 114.686846 
L 162.946803 115.188131 
L 163.834254 116.023606 
L 164.721705 116.355012 
L 165.609155 116.499827 
L 166.496606 116.998328 
L 168.271507 119.159424 
L 169.158958 120.019964 
L 170.046408 120.398712 
L 171.821309 121.459766 
L 173.59621 122.1922 
L 174.483661 122.607152 
L 176.258562 121.793956 
L 177.146013 121.415208 
L 178.033463 121.192414 
L 178.920914 120.738472 
L 179.808365 120.46555 
L 180.695815 119.902997 
L 181.583266 119.7916 
L 182.470716 120.265036 
L 185.133068 120.340229 
L 186.020519 120.916707 
L 187.79542 121.727118 
L 188.682871 122.36208 
L 189.570321 123.233759 
L 191.345222 125.39207 
L 192.232673 126.59794 
L 194.007574 128.11572 
L 194.895025 128.591941 
L 195.782475 128.658779 
L 196.669926 128.494469 
L 197.557376 126.834658 
L 198.444827 125.545241 
L 199.332278 125.121933 
L 201.107179 125.999182 
L 201.994629 126.157923 
L 202.88208 125.73183 
L 203.769531 125.06902 
L 204.656981 124.782173 
L 205.544432 124.977118 
L 206.431882 124.751539 
L 208.206784 124.108223 
L 209.981685 125.489543 
L 210.869135 125.631573 
L 211.756586 125.536886 
L 212.644037 125.2389 
L 215.306388 122.921848 
L 216.193839 121.562808 
L 217.96874 118.385217 
L 220.631092 115.878791 
L 221.518542 115.22155 
L 222.405993 115.252184 
L 224.180894 115.90107 
L 225.068345 116.541601 
L 225.955795 116.594515 
L 228.618147 115.647642 
L 229.505598 115.129648 
L 231.280499 115.399785 
L 232.16795 116.199056 
L 233.0554 117.335303 
L 234.830301 119.078661 
L 235.717752 119.833374 
L 236.605203 121.136716 
L 240.155005 125.364221 
L 241.042456 125.837657 
L 241.929906 126.517177 
L 243.704807 126.004752 
L 244.592258 126.032602 
L 245.479708 125.542456 
L 246.367159 125.183202 
L 247.25461 125.055095 
L 248.14206 125.417135 
L 249.029511 125.609294 
L 249.916961 125.684487 
L 250.804412 126.558951 
L 251.691863 126.982259 
L 252.579313 127.244041 
L 254.354214 127.007323 
L 255.241665 126.294384 
L 257.016566 125.25004 
L 257.904017 124.979903 
L 258.791467 125.144213 
L 259.678918 125.163707 
L 260.566369 124.431274 
L 261.453819 123.985687 
L 263.22872 121.974976 
L 264.116171 121.376219 
L 265.003622 121.039244 
L 266.778523 120.702269 
L 267.665973 120.688344 
L 268.553424 120.510109 
L 269.440875 120.156425 
L 270.328325 120.654925 
L 272.103226 123.403639 
L 276.540479 129.015249 
L 277.42793 130.789241 
L 278.31538 132.307022 
L 279.202831 132.755393 
L 280.090282 133.549095 
L 280.977732 133.718975 
L 281.865183 133.164776 
L 282.752633 132.423988 
L 283.640084 130.750253 
L 284.527535 130.17099 
L 285.414985 129.371718 
L 288.077337 125.514607 
L 288.964788 123.829731 
L 289.852238 121.590657 
L 290.739689 120.203768 
L 292.51459 118.457625 
L 293.402041 118.599655 
L 294.289491 118.989544 
L 295.176942 118.880932 
L 296.064392 119.103726 
L 296.951843 119.708053 
L 297.839293 119.694128 
L 300.501645 121.000255 
L 301.389096 120.925062 
L 303.163997 121.454196 
L 304.938898 120.340229 
L 305.826349 120.231617 
L 307.60125 120.785816 
L 308.488701 121.348369 
L 309.376151 121.593442 
L 310.263602 121.587872 
L 311.151052 121.888644 
L 312.038503 122.543099 
L 313.813404 123.267178 
L 314.700855 123.748969 
L 315.588305 123.857581 
L 316.475756 125.06902 
L 317.363207 126.739971 
L 318.250657 129.115506 
L 319.138108 131.170775 
L 320.025558 131.85865 
L 320.913009 131.981186 
L 322.68791 132.802737 
L 323.575361 132.858435 
L 324.462811 133.072874 
L 328.012614 133.04781 
L 328.012614 133.04781 
" clip-path="url(#p71daf9c353)" style="fill: none; stroke: #ff0000; stroke-opacity: 0.5; stroke-width: 2; stroke-linecap: square"/>
   </g>
   <g id="line2d_27">
    <path d="M 62.664886 130.385428 
L 63.329918 130.415134 
L 63.99495 130.589656 
L 65.325014 131.146639 
L 65.990046 130.990684 
L 66.655078 131.265462 
L 67.32011 131.187485 
L 67.985142 130.704766 
L 68.650173 130.593369 
L 69.315205 130.686199 
L 69.980237 131.180058 
L 70.645269 131.425131 
L 71.975333 131.295168 
L 72.640365 131.380572 
L 73.970429 128.825874 
L 75.300492 127.422276 
L 75.965524 127.377717 
L 76.630556 126.761322 
L 77.96062 126.731616 
L 79.290684 127.002681 
L 80.620748 128.903852 
L 81.28578 129.873003 
L 82.615843 132.234614 
L 83.280875 132.765605 
L 83.945907 132.449981 
L 84.610939 132.375716 
L 85.275971 132.832443 
L 85.941003 132.561378 
L 86.606035 131.844725 
L 87.271067 130.181201 
L 89.266162 123.627361 
L 90.596226 120.2409 
L 91.92629 116.780176 
L 93.256354 115.291173 
L 93.921386 114.674778 
L 94.586417 114.388859 
L 95.251449 114.552241 
L 95.916481 115.231761 
L 97.246545 115.61051 
L 97.911577 115.9447 
L 98.576609 116.516537 
L 99.906673 118.280318 
L 100.571705 118.302598 
L 101.236736 118.113223 
L 101.901768 118.347156 
L 102.5668 118.699912 
L 103.231832 119.821306 
L 103.896864 120.649355 
L 105.89196 126.720476 
L 107.222024 132.02296 
L 108.552087 135.576515 
L 109.882151 139.352864 
L 111.212215 142.850721 
L 111.877247 144.105791 
L 113.207311 145.253177 
L 113.872343 145.39428 
L 114.537374 145.03781 
L 115.867438 143.611932 
L 118.527566 140.158634 
L 119.192598 140.006392 
L 119.85763 140.125215 
L 120.522661 140.05095 
L 121.852725 138.524815 
L 122.517757 138.305735 
L 125.177885 136.178058 
L 125.842917 134.830157 
L 126.507949 134.228615 
L 127.17298 134.198909 
L 127.838012 134.039241 
L 128.503044 133.764462 
L 129.168076 133.667918 
L 130.49814 134.469975 
L 131.163172 134.224902 
L 131.828204 132.643068 
L 132.493236 131.365719 
L 133.823299 129.676203 
L 134.488331 128.042384 
L 136.483427 125.261179 
L 139.143555 121.763322 
L 139.808587 119.980975 
L 140.473618 118.770464 
L 142.468714 117.53396 
L 143.133746 118.042672 
L 143.798778 118.707339 
L 144.46381 119.825019 
L 145.793874 121.135787 
L 147.123937 122.398284 
L 147.788969 122.205196 
L 148.454001 122.572805 
L 149.119033 122.350012 
L 149.784065 122.30174 
L 150.449097 122.123505 
L 151.114129 121.510823 
L 152.444193 119.308881 
L 153.109224 117.782746 
L 154.439288 115.409996 
L 155.10432 114.830733 
L 155.769352 114.853012 
L 156.434384 114.763895 
L 157.099416 114.927277 
L 158.42948 116.52025 
L 159.759543 118.855868 
L 160.424575 119.397999 
L 161.089607 119.67649 
L 161.754639 119.732189 
L 162.419671 120.508253 
L 163.749735 121.068949 
L 164.414767 121.937844 
L 165.079799 122.479974 
L 165.744831 122.260894 
L 166.409862 122.918135 
L 167.074894 123.772176 
L 167.739926 124.266035 
L 168.404958 124.470263 
L 169.06999 125.298311 
L 169.735022 125.725332 
L 170.400054 126.01125 
L 172.39515 126.360294 
L 173.725213 128.283744 
L 175.720309 132.858435 
L 176.385341 133.107221 
L 177.050373 132.969832 
L 177.715405 132.201195 
L 181.705596 124.325447 
L 182.370628 123.935558 
L 183.03566 123.768463 
L 183.700692 124.072948 
L 184.365724 125.480259 
L 185.030756 125.350297 
L 185.695787 125.417135 
L 186.360819 125.955552 
L 187.025851 126.078089 
L 187.690883 125.807023 
L 188.355915 124.964121 
L 190.351011 119.286602 
L 191.681075 116.30117 
L 192.346106 115.458268 
L 193.011138 115.354298 
L 195.006234 115.788745 
L 195.671266 116.397714 
L 197.00133 119.119507 
L 197.666362 120.248327 
L 198.331394 120.497113 
L 198.996425 120.987258 
L 199.661457 120.998398 
L 200.326489 121.28803 
L 200.991521 121.848726 
L 201.656553 122.650783 
L 202.986617 124.55938 
L 203.651649 124.99754 
L 204.316681 124.834158 
L 204.981713 123.991257 
L 206.976808 118.43256 
L 207.64184 118.23576 
L 208.306872 117.912709 
L 208.971904 116.932418 
L 209.636936 115.313452 
L 210.301968 112.881291 
L 210.967 109.847587 
L 211.632031 108.392003 
L 212.962095 106.323737 
L 213.627127 105.454843 
L 214.292159 104.28889 
L 214.957191 103.527679 
L 215.622223 103.51654 
L 216.287255 103.394003 
L 216.952287 103.442275 
L 217.617319 104.136648 
L 218.28235 104.611941 
L 219.612414 105.803886 
L 222.937574 108.343731 
L 223.602606 109.795601 
L 224.267638 111.589089 
L 224.932669 112.372579 
L 225.597701 112.981548 
L 226.262733 114.076949 
L 229.587893 124.169491 
L 230.252925 125.480259 
L 230.917957 126.338014 
L 232.24802 126.430845 
L 232.913052 126.03353 
L 233.578084 125.769891 
L 234.243116 125.190628 
L 235.57318 123.148355 
L 237.568276 118.56995 
L 238.898339 114.221764 
L 240.228403 110.456555 
L 240.893435 109.16064 
L 242.888531 103.902715 
L 244.218594 100.828166 
L 244.883626 100.248903 
L 245.548658 100.059528 
L 246.21369 99.498831 
L 246.878722 99.654787 
L 247.543754 100.152359 
L 248.208786 101.117797 
L 248.873818 102.421139 
L 250.203882 106.754471 
L 252.198977 113.909854 
L 252.864009 115.766466 
L 253.529041 116.720764 
L 254.194073 118.146642 
L 255.524137 122.019535 
L 256.189169 123.657066 
L 257.519232 125.658494 
L 258.184264 126.245184 
L 258.849296 126.590513 
L 259.514328 126.24147 
L 260.17936 125.517392 
L 260.844392 124.99754 
L 261.509424 123.913279 
L 262.174456 123.560523 
L 262.839488 122.795599 
L 263.50452 122.479974 
L 264.169551 122.702768 
L 264.834583 123.100083 
L 265.499615 123.152068 
L 266.829679 122.361151 
L 267.494711 121.833874 
L 268.824775 120.370863 
L 269.489807 120.15921 
L 270.154839 119.516822 
L 271.484902 116.431133 
L 273.479998 113.486546 
L 274.14503 113.430848 
L 274.810062 112.929562 
L 275.475094 112.654784 
L 276.140126 112.758754 
L 278.800253 115.948414 
L 279.465285 116.924991 
L 280.130317 118.172635 
L 281.460381 121.028104 
L 282.125413 121.663065 
L 283.455476 122.249755 
L 284.120508 122.331446 
L 284.78554 122.268321 
L 286.115604 122.639643 
L 286.780636 122.041814 
L 288.1107 120.066379 
L 288.775732 118.692486 
L 290.105795 117.834731 
L 290.770827 117.634217 
L 291.435859 117.166351 
L 292.100891 116.494257 
L 294.095987 118.506825 
L 294.761019 119.034103 
L 297.421146 119.747042 
L 298.75121 119.100941 
L 300.081274 119.004397 
L 300.746306 119.58366 
L 302.07637 124.162065 
L 302.741402 126.018677 
L 304.736497 129.824731 
L 305.401529 130.712192 
L 306.731593 132.0341 
L 307.396625 132.620789 
L 308.061657 132.973545 
L 308.726689 133.192626 
L 309.39172 131.889284 
L 310.056752 131.603366 
L 310.721784 131.837299 
L 311.386816 132.617076 
L 312.051848 133.05895 
L 314.711976 133.122074 
L 315.377008 132.69134 
L 316.042039 132.449981 
L 316.707071 132.531672 
L 317.372103 132.821303 
L 318.037135 133.478544 
L 318.702167 133.938984 
L 319.367199 133.003251 
L 320.697263 134.076373 
L 321.362295 134.028101 
L 322.692358 133.15178 
L 323.35739 133.070089 
L 324.022422 132.706193 
L 324.687454 132.925273 
L 326.017518 133.006964 
L 328.012614 132.825016 
L 328.012614 132.825016 
" clip-path="url(#p71daf9c353)" style="fill: none; stroke: #008000; stroke-opacity: 0.5; stroke-width: 2; stroke-linecap: square"/>
   </g>
   <g id="patch_3">
    <path d="M 49.3975 234.5525 
L 49.3975 11.759062 
" style="fill: none; stroke: #000000; stroke-width: 2; stroke-linejoin: miter; stroke-linecap: square"/>
   </g>
   <g id="patch_4">
    <path d="M 341.28 234.5525 
L 341.28 11.759062 
" style="fill: none; stroke: #000000; stroke-width: 2; stroke-linejoin: miter; stroke-linecap: square"/>
   </g>
   <g id="patch_5">
    <path d="M 49.3975 234.5525 
L 341.28 234.5525 
" style="fill: none; stroke: #000000; stroke-width: 2; stroke-linejoin: miter; stroke-linecap: square"/>
   </g>
   <g id="patch_6">
    <path d="M 49.3975 11.759062 
L 341.28 11.759062 
" style="fill: none; stroke: #000000; stroke-width: 2; stroke-linejoin: miter; stroke-linecap: square"/>
   </g>
   <g id="legend_1">
    <g id="line2d_28">
     <path d="M 245.26125 27.477188 
L 257.26125 27.477188 
L 269.26125 27.477188 
" style="fill: none; stroke: #0000ff; stroke-opacity: 0.5; stroke-width: 2; stroke-linecap: square"/>
    </g>
    <g id="text_15">
     <!-- yz-plane -->
     <g transform="translate(278.86125 31.677188)scale(0.12 -0.12)">
      <defs>
       <path id="DejaVuSans-7a" d="M 353 3500 
L 3084 3500 
L 3084 2975 
L 922 459 
L 3084 459 
L 3084 0 
L 275 0 
L 275 525 
L 2438 3041 
L 353 3041 
L 353 3500 
z
" transform="scale(0.015625)"/>
       <path id="DejaVuSans-2d" d="M 313 2009 
L 1997 2009 
L 1997 1497 
L 313 1497 
L 313 2009 
z
" transform="scale(0.015625)"/>
       <path id="DejaVuSans-70" d="M 1159 525 
L 1159 -1331 
L 581 -1331 
L 581 3500 
L 1159 3500 
L 1159 2969 
Q 1341 3281 1617 3432 
Q 1894 3584 2278 3584 
Q 2916 3584 3314 3078 
Q 3713 2572 3713 1747 
Q 3713 922 3314 415 
Q 2916 -91 2278 -91 
Q 1894 -91 1617 61 
Q 1341 213 1159 525 
z
M 3116 1747 
Q 3116 2381 2855 2742 
Q 2594 3103 2138 3103 
Q 1681 3103 1420 2742 
Q 1159 2381 1159 1747 
Q 1159 1113 1420 752 
Q 1681 391 2138 391 
Q 2594 391 2855 752 
Q 3116 1113 3116 1747 
z
" transform="scale(0.015625)"/>
      </defs>
      <use xlink:href="#DejaVuSans-79"/>
      <use xlink:href="#DejaVuSans-7a" x="59.179688"/>
      <use xlink:href="#DejaVuSans-2d" x="111.669922"/>
      <use xlink:href="#DejaVuSans-70" x="147.753906"/>
      <use xlink:href="#DejaVuSans-6c" x="211.230469"/>
      <use xlink:href="#DejaVuSans-61" x="239.013672"/>
      <use xlink:href="#DejaVuSans-6e" x="300.292969"/>
      <use xlink:href="#DejaVuSans-65" x="363.671875"/>
     </g>
    </g>
    <g id="line2d_29">
     <path d="M 245.26125 45.090938 
L 257.26125 45.090938 
L 269.26125 45.090938 
" style="fill: none; stroke: #ff0000; stroke-opacity: 0.5; stroke-width: 2; stroke-linecap: square"/>
    </g>
    <g id="text_16">
     <!-- xz-plane -->
     <g transform="translate(278.86125 49.290938)scale(0.12 -0.12)">
      <use xlink:href="#DejaVuSans-78"/>
      <use xlink:href="#DejaVuSans-7a" x="59.179688"/>
      <use xlink:href="#DejaVuSans-2d" x="111.669922"/>
      <use xlink:href="#DejaVuSans-70" x="147.753906"/>
      <use xlink:href="#DejaVuSans-6c" x="211.230469"/>
      <use xlink:href="#DejaVuSans-61" x="239.013672"/>
      <use xlink:href="#DejaVuSans-6e" x="300.292969"/>
      <use xlink:href="#DejaVuSans-65" x="363.671875"/>
     </g>
    </g>
    <g id="line2d_30">
     <path d="M 245.26125 62.704687 
L 257.26125 62.704687 
L 269.26125 62.704687 
" style="fill: none; stroke: #008000; stroke-opacity: 0.5; stroke-width: 2; stroke-linecap: square"/>
    </g>
    <g id="text_17">
     <!-- xy-plane -->
     <g transform="translate(278.86125 66.904687)scale(0.12 -0.12)">
      <use xlink:href="#DejaVuSans-78"/>
      <use xlink:href="#DejaVuSans-79" x="59.179688"/>
      <use xlink:href="#DejaVuSans-2d" x="116.609375"/>
      <use xlink:href="#DejaVuSans-70" x="152.693359"/>
      <use xlink:href="#DejaVuSans-6c" x="216.169922"/>
      <use xlink:href="#DejaVuSans-61" x="243.953125"/>
      <use xlink:href="#DejaVuSans-6e" x="305.232422"/>
      <use xlink:href="#DejaVuSans-65" x="368.611328"/>
     </g>
    </g>
   </g>
  </g>
 </g>
 <defs>
  <clipPath id="p71daf9c353">
   <rect x="49.3975" y="11.759062" width="291.8825" height="222.793437"/>
  </clipPath>
 </defs>
</svg>
