<?xml version="1.0" encoding="utf-8" standalone="no"?>
<!DOCTYPE svg PUBLIC "-//W3C//DTD SVG 1.1//EN"
  "http://www.w3.org/Graphics/SVG/1.1/DTD/svg11.dtd">
<svg xmlns:xlink="http://www.w3.org/1999/xlink" width="352.8pt" height="280.8pt" viewBox="0 0 352.8 280.8" xmlns="http://www.w3.org/2000/svg" version="1.1">
 <metadata>
  <rdf:RDF xmlns:dc="http://purl.org/dc/elements/1.1/" xmlns:cc="http://creativecommons.org/ns#" xmlns:rdf="http://www.w3.org/1999/02/22-rdf-syntax-ns#">
   <cc:Work>
    <dc:type rdf:resource="http://purl.org/dc/dcmitype/StillImage"/>
    <dc:date>2022-06-22T19:27:40.318137</dc:date>
    <dc:format>image/svg+xml</dc:format>
    <dc:creator>
     <cc:Agent>
      <dc:title>Matplotlib v3.5.2, https://matplotlib.org/</dc:title>
     </cc:Agent>
    </dc:creator>
   </cc:Work>
  </rdf:RDF>
 </metadata>
 <defs>
  <style type="text/css">*{stroke-linejoin: round; stroke-linecap: butt}</style>
 </defs>
 <g id="figure_1">
  <g id="patch_1">
   <path d="M 0 280.8 
L 352.8 280.8 
L 352.8 0 
L 0 0 
L 0 280.8 
z
" style="fill: none"/>
  </g>
  <g id="axes_1">
   <g id="patch_2">
    <path d="M 49.3975 238.8725 
L 345.6 238.8725 
L 345.6 11.759062 
L 49.3975 11.759062 
z
" style="fill: #ffffff"/>
   </g>
   <g id="matplotlib.axis_1">
    <g id="xtick_1">
     <g id="line2d_1">
      <defs>
       <path id="m1924224681" d="M 0 0 
L 0 -6 
" style="stroke: #000000; stroke-width: 2"/>
      </defs>
      <g>
       <use xlink:href="#m1924224681" x="62.86125" y="238.8725" style="fill: #ffffff; stroke: #000000; stroke-width: 2"/>
      </g>
     </g>
     <g id="line2d_2">
      <defs>
       <path id="m1e9f9c3479" d="M 0 0 
L 0 6 
" style="stroke: #000000; stroke-width: 2"/>
      </defs>
      <g>
       <use xlink:href="#m1e9f9c3479" x="62.86125" y="11.759062" style="fill: #ffffff; stroke: #000000; stroke-width: 2"/>
      </g>
     </g>
     <g id="text_1">
      <!-- 0.0 -->
      <g transform="translate(53.319375 251.490625)scale(0.12 -0.12)">
       <defs>
        <path id="DejaVuSans-30" d="M 2034 4250 
Q 1547 4250 1301 3770 
Q 1056 3291 1056 2328 
Q 1056 1369 1301 889 
Q 1547 409 2034 409 
Q 2525 409 2770 889 
Q 3016 1369 3016 2328 
Q 3016 3291 2770 3770 
Q 2525 4250 2034 4250 
z
M 2034 4750 
Q 2819 4750 3233 4129 
Q 3647 3509 3647 2328 
Q 3647 1150 3233 529 
Q 2819 -91 2034 -91 
Q 1250 -91 836 529 
Q 422 1150 422 2328 
Q 422 3509 836 4129 
Q 1250 4750 2034 4750 
z
" transform="scale(0.015625)"/>
        <path id="DejaVuSans-2e" d="M 684 794 
L 1344 794 
L 1344 0 
L 684 0 
L 684 794 
z
" transform="scale(0.015625)"/>
       </defs>
       <use xlink:href="#DejaVuSans-30"/>
       <use xlink:href="#DejaVuSans-2e" x="63.623047"/>
       <use xlink:href="#DejaVuSans-30" x="95.410156"/>
      </g>
     </g>
    </g>
    <g id="xtick_2">
     <g id="line2d_3">
      <g>
       <use xlink:href="#m1924224681" x="116.71625" y="238.8725" style="fill: #ffffff; stroke: #000000; stroke-width: 2"/>
      </g>
     </g>
     <g id="line2d_4">
      <g>
       <use xlink:href="#m1e9f9c3479" x="116.71625" y="11.759062" style="fill: #ffffff; stroke: #000000; stroke-width: 2"/>
      </g>
     </g>
     <g id="text_2">
      <!-- 0.2 -->
      <g transform="translate(107.174375 251.490625)scale(0.12 -0.12)">
       <defs>
        <path id="DejaVuSans-32" d="M 1228 531 
L 3431 531 
L 3431 0 
L 469 0 
L 469 531 
Q 828 903 1448 1529 
Q 2069 2156 2228 2338 
Q 2531 2678 2651 2914 
Q 2772 3150 2772 3378 
Q 2772 3750 2511 3984 
Q 2250 4219 1831 4219 
Q 1534 4219 1204 4116 
Q 875 4013 500 3803 
L 500 4441 
Q 881 4594 1212 4672 
Q 1544 4750 1819 4750 
Q 2544 4750 2975 4387 
Q 3406 4025 3406 3419 
Q 3406 3131 3298 2873 
Q 3191 2616 2906 2266 
Q 2828 2175 2409 1742 
Q 1991 1309 1228 531 
z
" transform="scale(0.015625)"/>
       </defs>
       <use xlink:href="#DejaVuSans-30"/>
       <use xlink:href="#DejaVuSans-2e" x="63.623047"/>
       <use xlink:href="#DejaVuSans-32" x="95.410156"/>
      </g>
     </g>
    </g>
    <g id="xtick_3">
     <g id="line2d_5">
      <g>
       <use xlink:href="#m1924224681" x="170.57125" y="238.8725" style="fill: #ffffff; stroke: #000000; stroke-width: 2"/>
      </g>
     </g>
     <g id="line2d_6">
      <g>
       <use xlink:href="#m1e9f9c3479" x="170.57125" y="11.759062" style="fill: #ffffff; stroke: #000000; stroke-width: 2"/>
      </g>
     </g>
     <g id="text_3">
      <!-- 0.4 -->
      <g transform="translate(161.029375 251.490625)scale(0.12 -0.12)">
       <defs>
        <path id="DejaVuSans-34" d="M 2419 4116 
L 825 1625 
L 2419 1625 
L 2419 4116 
z
M 2253 4666 
L 3047 4666 
L 3047 1625 
L 3713 1625 
L 3713 1100 
L 3047 1100 
L 3047 0 
L 2419 0 
L 2419 1100 
L 313 1100 
L 313 1709 
L 2253 4666 
z
" transform="scale(0.015625)"/>
       </defs>
       <use xlink:href="#DejaVuSans-30"/>
       <use xlink:href="#DejaVuSans-2e" x="63.623047"/>
       <use xlink:href="#DejaVuSans-34" x="95.410156"/>
      </g>
     </g>
    </g>
    <g id="xtick_4">
     <g id="line2d_7">
      <g>
       <use xlink:href="#m1924224681" x="224.42625" y="238.8725" style="fill: #ffffff; stroke: #000000; stroke-width: 2"/>
      </g>
     </g>
     <g id="line2d_8">
      <g>
       <use xlink:href="#m1e9f9c3479" x="224.42625" y="11.759062" style="fill: #ffffff; stroke: #000000; stroke-width: 2"/>
      </g>
     </g>
     <g id="text_4">
      <!-- 0.6 -->
      <g transform="translate(214.884375 251.490625)scale(0.12 -0.12)">
       <defs>
        <path id="DejaVuSans-36" d="M 2113 2584 
Q 1688 2584 1439 2293 
Q 1191 2003 1191 1497 
Q 1191 994 1439 701 
Q 1688 409 2113 409 
Q 2538 409 2786 701 
Q 3034 994 3034 1497 
Q 3034 2003 2786 2293 
Q 2538 2584 2113 2584 
z
M 3366 4563 
L 3366 3988 
Q 3128 4100 2886 4159 
Q 2644 4219 2406 4219 
Q 1781 4219 1451 3797 
Q 1122 3375 1075 2522 
Q 1259 2794 1537 2939 
Q 1816 3084 2150 3084 
Q 2853 3084 3261 2657 
Q 3669 2231 3669 1497 
Q 3669 778 3244 343 
Q 2819 -91 2113 -91 
Q 1303 -91 875 529 
Q 447 1150 447 2328 
Q 447 3434 972 4092 
Q 1497 4750 2381 4750 
Q 2619 4750 2861 4703 
Q 3103 4656 3366 4563 
z
" transform="scale(0.015625)"/>
       </defs>
       <use xlink:href="#DejaVuSans-30"/>
       <use xlink:href="#DejaVuSans-2e" x="63.623047"/>
       <use xlink:href="#DejaVuSans-36" x="95.410156"/>
      </g>
     </g>
    </g>
    <g id="xtick_5">
     <g id="line2d_9">
      <g>
       <use xlink:href="#m1924224681" x="278.28125" y="238.8725" style="fill: #ffffff; stroke: #000000; stroke-width: 2"/>
      </g>
     </g>
     <g id="line2d_10">
      <g>
       <use xlink:href="#m1e9f9c3479" x="278.28125" y="11.759062" style="fill: #ffffff; stroke: #000000; stroke-width: 2"/>
      </g>
     </g>
     <g id="text_5">
      <!-- 0.8 -->
      <g transform="translate(268.739375 251.490625)scale(0.12 -0.12)">
       <defs>
        <path id="DejaVuSans-38" d="M 2034 2216 
Q 1584 2216 1326 1975 
Q 1069 1734 1069 1313 
Q 1069 891 1326 650 
Q 1584 409 2034 409 
Q 2484 409 2743 651 
Q 3003 894 3003 1313 
Q 3003 1734 2745 1975 
Q 2488 2216 2034 2216 
z
M 1403 2484 
Q 997 2584 770 2862 
Q 544 3141 544 3541 
Q 544 4100 942 4425 
Q 1341 4750 2034 4750 
Q 2731 4750 3128 4425 
Q 3525 4100 3525 3541 
Q 3525 3141 3298 2862 
Q 3072 2584 2669 2484 
Q 3125 2378 3379 2068 
Q 3634 1759 3634 1313 
Q 3634 634 3220 271 
Q 2806 -91 2034 -91 
Q 1263 -91 848 271 
Q 434 634 434 1313 
Q 434 1759 690 2068 
Q 947 2378 1403 2484 
z
M 1172 3481 
Q 1172 3119 1398 2916 
Q 1625 2713 2034 2713 
Q 2441 2713 2670 2916 
Q 2900 3119 2900 3481 
Q 2900 3844 2670 4047 
Q 2441 4250 2034 4250 
Q 1625 4250 1398 4047 
Q 1172 3844 1172 3481 
z
" transform="scale(0.015625)"/>
       </defs>
       <use xlink:href="#DejaVuSans-30"/>
       <use xlink:href="#DejaVuSans-2e" x="63.623047"/>
       <use xlink:href="#DejaVuSans-38" x="95.410156"/>
      </g>
     </g>
    </g>
    <g id="xtick_6">
     <g id="line2d_11">
      <g>
       <use xlink:href="#m1924224681" x="332.13625" y="238.8725" style="fill: #ffffff; stroke: #000000; stroke-width: 2"/>
      </g>
     </g>
     <g id="line2d_12">
      <g>
       <use xlink:href="#m1e9f9c3479" x="332.13625" y="11.759062" style="fill: #ffffff; stroke: #000000; stroke-width: 2"/>
      </g>
     </g>
     <g id="text_6">
      <!-- 1.0 -->
      <g transform="translate(322.594375 251.490625)scale(0.12 -0.12)">
       <defs>
        <path id="DejaVuSans-31" d="M 794 531 
L 1825 531 
L 1825 4091 
L 703 3866 
L 703 4441 
L 1819 4666 
L 2450 4666 
L 2450 531 
L 3481 531 
L 3481 0 
L 794 0 
L 794 531 
z
" transform="scale(0.015625)"/>
       </defs>
       <use xlink:href="#DejaVuSans-31"/>
       <use xlink:href="#DejaVuSans-2e" x="63.623047"/>
       <use xlink:href="#DejaVuSans-30" x="95.410156"/>
      </g>
     </g>
    </g>
    <g id="text_7">
     <!-- Fractional distance along given axis -->
     <g transform="translate(89.983438 271.104375)scale(0.12 -0.12)">
      <defs>
       <path id="DejaVuSans-46" d="M 628 4666 
L 3309 4666 
L 3309 4134 
L 1259 4134 
L 1259 2759 
L 3109 2759 
L 3109 2228 
L 1259 2228 
L 1259 0 
L 628 0 
L 628 4666 
z
" transform="scale(0.015625)"/>
       <path id="DejaVuSans-72" d="M 2631 2963 
Q 2534 3019 2420 3045 
Q 2306 3072 2169 3072 
Q 1681 3072 1420 2755 
Q 1159 2438 1159 1844 
L 1159 0 
L 581 0 
L 581 3500 
L 1159 3500 
L 1159 2956 
Q 1341 3275 1631 3429 
Q 1922 3584 2338 3584 
Q 2397 3584 2469 3576 
Q 2541 3569 2628 3553 
L 2631 2963 
z
" transform="scale(0.015625)"/>
       <path id="DejaVuSans-61" d="M 2194 1759 
Q 1497 1759 1228 1600 
Q 959 1441 959 1056 
Q 959 750 1161 570 
Q 1363 391 1709 391 
Q 2188 391 2477 730 
Q 2766 1069 2766 1631 
L 2766 1759 
L 2194 1759 
z
M 3341 1997 
L 3341 0 
L 2766 0 
L 2766 531 
Q 2569 213 2275 61 
Q 1981 -91 1556 -91 
Q 1019 -91 701 211 
Q 384 513 384 1019 
Q 384 1609 779 1909 
Q 1175 2209 1959 2209 
L 2766 2209 
L 2766 2266 
Q 2766 2663 2505 2880 
Q 2244 3097 1772 3097 
Q 1472 3097 1187 3025 
Q 903 2953 641 2809 
L 641 3341 
Q 956 3463 1253 3523 
Q 1550 3584 1831 3584 
Q 2591 3584 2966 3190 
Q 3341 2797 3341 1997 
z
" transform="scale(0.015625)"/>
       <path id="DejaVuSans-63" d="M 3122 3366 
L 3122 2828 
Q 2878 2963 2633 3030 
Q 2388 3097 2138 3097 
Q 1578 3097 1268 2742 
Q 959 2388 959 1747 
Q 959 1106 1268 751 
Q 1578 397 2138 397 
Q 2388 397 2633 464 
Q 2878 531 3122 666 
L 3122 134 
Q 2881 22 2623 -34 
Q 2366 -91 2075 -91 
Q 1284 -91 818 406 
Q 353 903 353 1747 
Q 353 2603 823 3093 
Q 1294 3584 2113 3584 
Q 2378 3584 2631 3529 
Q 2884 3475 3122 3366 
z
" transform="scale(0.015625)"/>
       <path id="DejaVuSans-74" d="M 1172 4494 
L 1172 3500 
L 2356 3500 
L 2356 3053 
L 1172 3053 
L 1172 1153 
Q 1172 725 1289 603 
Q 1406 481 1766 481 
L 2356 481 
L 2356 0 
L 1766 0 
Q 1100 0 847 248 
Q 594 497 594 1153 
L 594 3053 
L 172 3053 
L 172 3500 
L 594 3500 
L 594 4494 
L 1172 4494 
z
" transform="scale(0.015625)"/>
       <path id="DejaVuSans-69" d="M 603 3500 
L 1178 3500 
L 1178 0 
L 603 0 
L 603 3500 
z
M 603 4863 
L 1178 4863 
L 1178 4134 
L 603 4134 
L 603 4863 
z
" transform="scale(0.015625)"/>
       <path id="DejaVuSans-6f" d="M 1959 3097 
Q 1497 3097 1228 2736 
Q 959 2375 959 1747 
Q 959 1119 1226 758 
Q 1494 397 1959 397 
Q 2419 397 2687 759 
Q 2956 1122 2956 1747 
Q 2956 2369 2687 2733 
Q 2419 3097 1959 3097 
z
M 1959 3584 
Q 2709 3584 3137 3096 
Q 3566 2609 3566 1747 
Q 3566 888 3137 398 
Q 2709 -91 1959 -91 
Q 1206 -91 779 398 
Q 353 888 353 1747 
Q 353 2609 779 3096 
Q 1206 3584 1959 3584 
z
" transform="scale(0.015625)"/>
       <path id="DejaVuSans-6e" d="M 3513 2113 
L 3513 0 
L 2938 0 
L 2938 2094 
Q 2938 2591 2744 2837 
Q 2550 3084 2163 3084 
Q 1697 3084 1428 2787 
Q 1159 2491 1159 1978 
L 1159 0 
L 581 0 
L 581 3500 
L 1159 3500 
L 1159 2956 
Q 1366 3272 1645 3428 
Q 1925 3584 2291 3584 
Q 2894 3584 3203 3211 
Q 3513 2838 3513 2113 
z
" transform="scale(0.015625)"/>
       <path id="DejaVuSans-6c" d="M 603 4863 
L 1178 4863 
L 1178 0 
L 603 0 
L 603 4863 
z
" transform="scale(0.015625)"/>
       <path id="DejaVuSans-20" transform="scale(0.015625)"/>
       <path id="DejaVuSans-64" d="M 2906 2969 
L 2906 4863 
L 3481 4863 
L 3481 0 
L 2906 0 
L 2906 525 
Q 2725 213 2448 61 
Q 2172 -91 1784 -91 
Q 1150 -91 751 415 
Q 353 922 353 1747 
Q 353 2572 751 3078 
Q 1150 3584 1784 3584 
Q 2172 3584 2448 3432 
Q 2725 3281 2906 2969 
z
M 947 1747 
Q 947 1113 1208 752 
Q 1469 391 1925 391 
Q 2381 391 2643 752 
Q 2906 1113 2906 1747 
Q 2906 2381 2643 2742 
Q 2381 3103 1925 3103 
Q 1469 3103 1208 2742 
Q 947 2381 947 1747 
z
" transform="scale(0.015625)"/>
       <path id="DejaVuSans-73" d="M 2834 3397 
L 2834 2853 
Q 2591 2978 2328 3040 
Q 2066 3103 1784 3103 
Q 1356 3103 1142 2972 
Q 928 2841 928 2578 
Q 928 2378 1081 2264 
Q 1234 2150 1697 2047 
L 1894 2003 
Q 2506 1872 2764 1633 
Q 3022 1394 3022 966 
Q 3022 478 2636 193 
Q 2250 -91 1575 -91 
Q 1294 -91 989 -36 
Q 684 19 347 128 
L 347 722 
Q 666 556 975 473 
Q 1284 391 1588 391 
Q 1994 391 2212 530 
Q 2431 669 2431 922 
Q 2431 1156 2273 1281 
Q 2116 1406 1581 1522 
L 1381 1569 
Q 847 1681 609 1914 
Q 372 2147 372 2553 
Q 372 3047 722 3315 
Q 1072 3584 1716 3584 
Q 2034 3584 2315 3537 
Q 2597 3491 2834 3397 
z
" transform="scale(0.015625)"/>
       <path id="DejaVuSans-65" d="M 3597 1894 
L 3597 1613 
L 953 1613 
Q 991 1019 1311 708 
Q 1631 397 2203 397 
Q 2534 397 2845 478 
Q 3156 559 3463 722 
L 3463 178 
Q 3153 47 2828 -22 
Q 2503 -91 2169 -91 
Q 1331 -91 842 396 
Q 353 884 353 1716 
Q 353 2575 817 3079 
Q 1281 3584 2069 3584 
Q 2775 3584 3186 3129 
Q 3597 2675 3597 1894 
z
M 3022 2063 
Q 3016 2534 2758 2815 
Q 2500 3097 2075 3097 
Q 1594 3097 1305 2825 
Q 1016 2553 972 2059 
L 3022 2063 
z
" transform="scale(0.015625)"/>
       <path id="DejaVuSans-67" d="M 2906 1791 
Q 2906 2416 2648 2759 
Q 2391 3103 1925 3103 
Q 1463 3103 1205 2759 
Q 947 2416 947 1791 
Q 947 1169 1205 825 
Q 1463 481 1925 481 
Q 2391 481 2648 825 
Q 2906 1169 2906 1791 
z
M 3481 434 
Q 3481 -459 3084 -895 
Q 2688 -1331 1869 -1331 
Q 1566 -1331 1297 -1286 
Q 1028 -1241 775 -1147 
L 775 -588 
Q 1028 -725 1275 -790 
Q 1522 -856 1778 -856 
Q 2344 -856 2625 -561 
Q 2906 -266 2906 331 
L 2906 616 
Q 2728 306 2450 153 
Q 2172 0 1784 0 
Q 1141 0 747 490 
Q 353 981 353 1791 
Q 353 2603 747 3093 
Q 1141 3584 1784 3584 
Q 2172 3584 2450 3431 
Q 2728 3278 2906 2969 
L 2906 3500 
L 3481 3500 
L 3481 434 
z
" transform="scale(0.015625)"/>
       <path id="DejaVuSans-76" d="M 191 3500 
L 800 3500 
L 1894 563 
L 2988 3500 
L 3597 3500 
L 2284 0 
L 1503 0 
L 191 3500 
z
" transform="scale(0.015625)"/>
       <path id="DejaVuSans-78" d="M 3513 3500 
L 2247 1797 
L 3578 0 
L 2900 0 
L 1881 1375 
L 863 0 
L 184 0 
L 1544 1831 
L 300 3500 
L 978 3500 
L 1906 2253 
L 2834 3500 
L 3513 3500 
z
" transform="scale(0.015625)"/>
      </defs>
      <use xlink:href="#DejaVuSans-46"/>
      <use xlink:href="#DejaVuSans-72" x="50.269531"/>
      <use xlink:href="#DejaVuSans-61" x="91.382812"/>
      <use xlink:href="#DejaVuSans-63" x="152.662109"/>
      <use xlink:href="#DejaVuSans-74" x="207.642578"/>
      <use xlink:href="#DejaVuSans-69" x="246.851562"/>
      <use xlink:href="#DejaVuSans-6f" x="274.634766"/>
      <use xlink:href="#DejaVuSans-6e" x="335.816406"/>
      <use xlink:href="#DejaVuSans-61" x="399.195312"/>
      <use xlink:href="#DejaVuSans-6c" x="460.474609"/>
      <use xlink:href="#DejaVuSans-20" x="488.257812"/>
      <use xlink:href="#DejaVuSans-64" x="520.044922"/>
      <use xlink:href="#DejaVuSans-69" x="583.521484"/>
      <use xlink:href="#DejaVuSans-73" x="611.304688"/>
      <use xlink:href="#DejaVuSans-74" x="663.404297"/>
      <use xlink:href="#DejaVuSans-61" x="702.613281"/>
      <use xlink:href="#DejaVuSans-6e" x="763.892578"/>
      <use xlink:href="#DejaVuSans-63" x="827.271484"/>
      <use xlink:href="#DejaVuSans-65" x="882.251953"/>
      <use xlink:href="#DejaVuSans-20" x="943.775391"/>
      <use xlink:href="#DejaVuSans-61" x="975.5625"/>
      <use xlink:href="#DejaVuSans-6c" x="1036.841797"/>
      <use xlink:href="#DejaVuSans-6f" x="1064.625"/>
      <use xlink:href="#DejaVuSans-6e" x="1125.806641"/>
      <use xlink:href="#DejaVuSans-67" x="1189.185547"/>
      <use xlink:href="#DejaVuSans-20" x="1252.662109"/>
      <use xlink:href="#DejaVuSans-67" x="1284.449219"/>
      <use xlink:href="#DejaVuSans-69" x="1347.925781"/>
      <use xlink:href="#DejaVuSans-76" x="1375.708984"/>
      <use xlink:href="#DejaVuSans-65" x="1434.888672"/>
      <use xlink:href="#DejaVuSans-6e" x="1496.412109"/>
      <use xlink:href="#DejaVuSans-20" x="1559.791016"/>
      <use xlink:href="#DejaVuSans-61" x="1591.578125"/>
      <use xlink:href="#DejaVuSans-78" x="1652.857422"/>
      <use xlink:href="#DejaVuSans-69" x="1712.037109"/>
      <use xlink:href="#DejaVuSans-73" x="1739.820312"/>
     </g>
    </g>
   </g>
   <g id="matplotlib.axis_2">
    <g id="ytick_1">
     <g id="line2d_13">
      <defs>
       <path id="m0d7d328533" d="M 0 0 
L 6 0 
" style="stroke: #000000; stroke-width: 2"/>
      </defs>
      <g>
       <use xlink:href="#m0d7d328533" x="49.3975" y="238.8725" style="fill: #ffffff; stroke: #000000; stroke-width: 2"/>
      </g>
     </g>
     <g id="line2d_14">
      <defs>
       <path id="mb6f98e1211" d="M 0 0 
L -6 0 
" style="stroke: #000000; stroke-width: 2"/>
      </defs>
      <g>
       <use xlink:href="#mb6f98e1211" x="345.6" y="238.8725" style="fill: #ffffff; stroke: #000000; stroke-width: 2"/>
      </g>
     </g>
     <g id="text_8">
      <!-- 0.0 -->
      <g transform="translate(26.81375 243.431562)scale(0.12 -0.12)">
       <use xlink:href="#DejaVuSans-30"/>
       <use xlink:href="#DejaVuSans-2e" x="63.623047"/>
       <use xlink:href="#DejaVuSans-30" x="95.410156"/>
      </g>
     </g>
    </g>
    <g id="ytick_2">
     <g id="line2d_15">
      <g>
       <use xlink:href="#m0d7d328533" x="49.3975" y="193.449812" style="fill: #ffffff; stroke: #000000; stroke-width: 2"/>
      </g>
     </g>
     <g id="line2d_16">
      <g>
       <use xlink:href="#mb6f98e1211" x="345.6" y="193.449812" style="fill: #ffffff; stroke: #000000; stroke-width: 2"/>
      </g>
     </g>
     <g id="text_9">
      <!-- 0.2 -->
      <g transform="translate(26.81375 198.008875)scale(0.12 -0.12)">
       <use xlink:href="#DejaVuSans-30"/>
       <use xlink:href="#DejaVuSans-2e" x="63.623047"/>
       <use xlink:href="#DejaVuSans-32" x="95.410156"/>
      </g>
     </g>
    </g>
    <g id="ytick_3">
     <g id="line2d_17">
      <g>
       <use xlink:href="#m0d7d328533" x="49.3975" y="148.027125" style="fill: #ffffff; stroke: #000000; stroke-width: 2"/>
      </g>
     </g>
     <g id="line2d_18">
      <g>
       <use xlink:href="#mb6f98e1211" x="345.6" y="148.027125" style="fill: #ffffff; stroke: #000000; stroke-width: 2"/>
      </g>
     </g>
     <g id="text_10">
      <!-- 0.4 -->
      <g transform="translate(26.81375 152.586187)scale(0.12 -0.12)">
       <use xlink:href="#DejaVuSans-30"/>
       <use xlink:href="#DejaVuSans-2e" x="63.623047"/>
       <use xlink:href="#DejaVuSans-34" x="95.410156"/>
      </g>
     </g>
    </g>
    <g id="ytick_4">
     <g id="line2d_19">
      <g>
       <use xlink:href="#m0d7d328533" x="49.3975" y="102.604437" style="fill: #ffffff; stroke: #000000; stroke-width: 2"/>
      </g>
     </g>
     <g id="line2d_20">
      <g>
       <use xlink:href="#mb6f98e1211" x="345.6" y="102.604437" style="fill: #ffffff; stroke: #000000; stroke-width: 2"/>
      </g>
     </g>
     <g id="text_11">
      <!-- 0.6 -->
      <g transform="translate(26.81375 107.1635)scale(0.12 -0.12)">
       <use xlink:href="#DejaVuSans-30"/>
       <use xlink:href="#DejaVuSans-2e" x="63.623047"/>
       <use xlink:href="#DejaVuSans-36" x="95.410156"/>
      </g>
     </g>
    </g>
    <g id="ytick_5">
     <g id="line2d_21">
      <g>
       <use xlink:href="#m0d7d328533" x="49.3975" y="57.18175" style="fill: #ffffff; stroke: #000000; stroke-width: 2"/>
      </g>
     </g>
     <g id="line2d_22">
      <g>
       <use xlink:href="#mb6f98e1211" x="345.6" y="57.18175" style="fill: #ffffff; stroke: #000000; stroke-width: 2"/>
      </g>
     </g>
     <g id="text_12">
      <!-- 0.8 -->
      <g transform="translate(26.81375 61.740812)scale(0.12 -0.12)">
       <use xlink:href="#DejaVuSans-30"/>
       <use xlink:href="#DejaVuSans-2e" x="63.623047"/>
       <use xlink:href="#DejaVuSans-38" x="95.410156"/>
      </g>
     </g>
    </g>
    <g id="ytick_6">
     <g id="line2d_23">
      <g>
       <use xlink:href="#m0d7d328533" x="49.3975" y="11.759062" style="fill: #ffffff; stroke: #000000; stroke-width: 2"/>
      </g>
     </g>
     <g id="line2d_24">
      <g>
       <use xlink:href="#mb6f98e1211" x="345.6" y="11.759062" style="fill: #ffffff; stroke: #000000; stroke-width: 2"/>
      </g>
     </g>
     <g id="text_13">
      <!-- 1.0 -->
      <g transform="translate(26.81375 16.318125)scale(0.12 -0.12)">
       <use xlink:href="#DejaVuSans-31"/>
       <use xlink:href="#DejaVuSans-2e" x="63.623047"/>
       <use xlink:href="#DejaVuSans-30" x="95.410156"/>
      </g>
     </g>
    </g>
    <g id="text_14">
     <!-- Porosity of slice -->
     <g transform="translate(16.318125 172.133594)rotate(-90)scale(0.12 -0.12)">
      <defs>
       <path id="DejaVuSans-50" d="M 1259 4147 
L 1259 2394 
L 2053 2394 
Q 2494 2394 2734 2622 
Q 2975 2850 2975 3272 
Q 2975 3691 2734 3919 
Q 2494 4147 2053 4147 
L 1259 4147 
z
M 628 4666 
L 2053 4666 
Q 2838 4666 3239 4311 
Q 3641 3956 3641 3272 
Q 3641 2581 3239 2228 
Q 2838 1875 2053 1875 
L 1259 1875 
L 1259 0 
L 628 0 
L 628 4666 
z
" transform="scale(0.015625)"/>
       <path id="DejaVuSans-79" d="M 2059 -325 
Q 1816 -950 1584 -1140 
Q 1353 -1331 966 -1331 
L 506 -1331 
L 506 -850 
L 844 -850 
Q 1081 -850 1212 -737 
Q 1344 -625 1503 -206 
L 1606 56 
L 191 3500 
L 800 3500 
L 1894 763 
L 2988 3500 
L 3597 3500 
L 2059 -325 
z
" transform="scale(0.015625)"/>
       <path id="DejaVuSans-66" d="M 2375 4863 
L 2375 4384 
L 1825 4384 
Q 1516 4384 1395 4259 
Q 1275 4134 1275 3809 
L 1275 3500 
L 2222 3500 
L 2222 3053 
L 1275 3053 
L 1275 0 
L 697 0 
L 697 3053 
L 147 3053 
L 147 3500 
L 697 3500 
L 697 3744 
Q 697 4328 969 4595 
Q 1241 4863 1831 4863 
L 2375 4863 
z
" transform="scale(0.015625)"/>
      </defs>
      <use xlink:href="#DejaVuSans-50"/>
      <use xlink:href="#DejaVuSans-6f" x="56.677734"/>
      <use xlink:href="#DejaVuSans-72" x="117.859375"/>
      <use xlink:href="#DejaVuSans-6f" x="156.722656"/>
      <use xlink:href="#DejaVuSans-73" x="217.904297"/>
      <use xlink:href="#DejaVuSans-69" x="270.003906"/>
      <use xlink:href="#DejaVuSans-74" x="297.787109"/>
      <use xlink:href="#DejaVuSans-79" x="336.996094"/>
      <use xlink:href="#DejaVuSans-20" x="396.175781"/>
      <use xlink:href="#DejaVuSans-6f" x="427.962891"/>
      <use xlink:href="#DejaVuSans-66" x="489.144531"/>
      <use xlink:href="#DejaVuSans-20" x="524.349609"/>
      <use xlink:href="#DejaVuSans-73" x="556.136719"/>
      <use xlink:href="#DejaVuSans-6c" x="608.236328"/>
      <use xlink:href="#DejaVuSans-69" x="636.019531"/>
      <use xlink:href="#DejaVuSans-63" x="663.802734"/>
      <use xlink:href="#DejaVuSans-65" x="718.783203"/>
     </g>
    </g>
   </g>
   <g id="line2d_25">
    <path d="M 62.86125 121.223954 
L 64.214391 121.110397 
L 65.567531 120.885177 
L 68.273813 120.800009 
L 69.626954 120.921136 
L 73.686376 121.729282 
L 75.039516 122.158904 
L 77.745798 122.774003 
L 79.098938 122.539319 
L 80.452079 122.172153 
L 83.158361 121.131216 
L 85.864642 120.341997 
L 88.570923 119.620912 
L 89.924064 119.700402 
L 91.277205 119.906696 
L 93.983486 121.447282 
L 96.689768 123.440203 
L 98.042908 124.528455 
L 99.396049 125.209795 
L 102.10233 127.323843 
L 103.455471 128.022216 
L 104.808612 128.194444 
L 108.868034 128.275826 
L 110.221175 128.478336 
L 111.574315 128.548363 
L 114.280597 129.383004 
L 115.633737 130.194935 
L 118.340019 132.066728 
L 121.0463 132.662901 
L 122.399441 132.657223 
L 123.752582 133.028175 
L 125.105722 133.701945 
L 126.458863 133.718978 
L 130.518285 132.908941 
L 131.871426 132.910833 
L 133.224567 132.698861 
L 134.577707 132.746176 
L 137.283989 133.120913 
L 138.637129 133.455905 
L 139.99027 133.95177 
L 142.696552 134.523339 
L 144.049692 134.29244 
L 145.402833 133.007356 
L 148.109114 131.847185 
L 149.462255 131.222623 
L 150.815396 130.770289 
L 153.521677 128.949596 
L 154.874818 127.795103 
L 156.227959 127.132689 
L 158.93424 126.689818 
L 164.346803 128.45941 
L 165.699943 128.599463 
L 167.053084 128.431021 
L 168.406225 128.109277 
L 169.759366 128.024109 
L 171.112506 128.283397 
L 173.818788 128.608926 
L 175.171928 128.366672 
L 177.87821 127.426044 
L 179.231351 126.43053 
L 181.937632 123.385317 
L 184.643913 120.637244 
L 185.997054 119.630375 
L 187.350195 118.784377 
L 188.703335 118.508056 
L 190.056476 118.031118 
L 191.409617 117.978125 
L 198.17532 119.936978 
L 199.528461 120.457446 
L 202.234742 121.24288 
L 204.941024 122.476863 
L 207.647305 122.770218 
L 210.353587 122.54689 
L 214.413009 123.338002 
L 215.766149 123.796014 
L 217.11929 124.543596 
L 219.825572 126.746596 
L 221.178712 127.689117 
L 222.531853 128.364779 
L 223.884994 129.252414 
L 225.238134 130.433404 
L 227.944416 133.10388 
L 229.297557 133.6622 
L 230.650697 133.508899 
L 232.003838 132.575841 
L 233.356979 131.040932 
L 234.710119 129.795594 
L 236.06326 128.991234 
L 237.416401 128.319356 
L 240.122682 127.44497 
L 244.182104 126.458919 
L 246.888386 125.446371 
L 249.594667 125.821109 
L 250.947808 126.218557 
L 253.654089 126.536516 
L 255.00723 127.183789 
L 256.360371 128.105491 
L 257.713511 128.771691 
L 259.066652 128.752765 
L 260.419793 129.01016 
L 264.479215 128.054391 
L 265.832356 127.717506 
L 268.538637 126.890434 
L 269.891778 126.538409 
L 273.9512 122.891345 
L 275.30434 122.181616 
L 276.657481 121.943147 
L 278.010622 122.317884 
L 279.363763 122.985976 
L 280.716903 123.05411 
L 282.070044 123.249049 
L 283.423185 123.637034 
L 284.776325 124.221852 
L 286.129466 124.609837 
L 288.835747 124.935366 
L 290.188888 124.797206 
L 291.542029 124.310804 
L 292.89517 124.433824 
L 294.24831 124.676078 
L 295.601451 124.797206 
L 296.954592 124.717716 
L 298.307732 124.397864 
L 299.660873 123.805477 
L 301.014014 122.897023 
L 302.367155 121.352652 
L 305.073436 117.009107 
L 306.426577 115.591541 
L 307.779717 115.001046 
L 309.132858 114.660376 
L 311.839139 114.813677 
L 313.19228 115.283045 
L 314.545421 115.95303 
L 315.898562 116.802813 
L 317.251702 117.385737 
L 319.957984 117.071563 
L 321.311124 117.094275 
L 322.664265 117.283536 
L 324.017406 117.997051 
L 325.370546 118.570512 
L 326.723687 119.285919 
L 328.076828 119.834777 
L 329.429969 120.241689 
L 332.13625 120.574788 
L 332.13625 120.574788 
" clip-path="url(#p4625f3a5b0)" style="fill: none; stroke: #0000ff; stroke-opacity: 0.5; stroke-width: 2; stroke-linecap: square"/>
   </g>
   <g id="line2d_26">
    <path d="M 62.86125 123.56133 
L 63.761835 123.751537 
L 67.364176 126.21004 
L 68.264762 126.965193 
L 70.065932 128.217155 
L 70.966518 128.997858 
L 71.867103 129.525897 
L 72.767688 130.706886 
L 73.668273 131.470555 
L 75.469444 132.603284 
L 76.370029 133.47767 
L 78.1712 135.751644 
L 79.071785 136.557896 
L 79.97237 136.353494 
L 80.872956 135.728932 
L 81.773541 134.417352 
L 82.674126 131.990077 
L 83.574712 129.236327 
L 88.077638 118.456955 
L 88.978223 116.864322 
L 89.878809 115.674816 
L 90.779394 114.732295 
L 91.679979 114.190062 
L 92.580564 113.273091 
L 93.48115 111.9899 
L 94.381735 111.586774 
L 95.28232 110.760649 
L 96.182906 110.215577 
L 97.083491 109.869229 
L 97.984076 109.81245 
L 98.884661 109.940202 
L 100.685832 109.721605 
L 103.387588 111.830921 
L 104.288173 112.884159 
L 106.089344 115.660621 
L 109.691685 122.973674 
L 112.393441 126.519482 
L 113.294026 128.004237 
L 115.995782 131.700508 
L 117.796952 135.141276 
L 118.697538 136.640225 
L 119.598123 137.875154 
L 122.299879 139.720451 
L 123.200464 140.643099 
L 124.101049 141.352829 
L 125.90222 141.727566 
L 126.802805 141.108682 
L 129.504561 141.142749 
L 130.405146 140.816273 
L 131.305732 140.251329 
L 132.206317 139.220801 
L 133.106902 137.895027 
L 134.908073 133.912025 
L 136.709243 129.156837 
L 137.609829 127.498909 
L 138.510414 126.542194 
L 139.410999 125.931826 
L 141.21217 123.919034 
L 142.112755 124.361905 
L 143.913926 125.483277 
L 144.814511 126.774985 
L 146.615681 128.109277 
L 147.516267 128.185927 
L 148.416852 128.381813 
L 149.317437 129.207938 
L 151.118608 131.595468 
L 152.019193 132.555022 
L 153.820364 134.014226 
L 155.621534 134.820479 
L 158.32329 136.591963 
L 159.223875 136.251293 
L 161.025046 134.019904 
L 163.726802 128.694094 
L 165.527972 126.936803 
L 168.229728 122.448474 
L 169.130314 121.628027 
L 170.030899 121.077277 
L 170.931484 120.688345 
L 171.832069 119.884931 
L 172.732655 119.266047 
L 173.63324 119.354054 
L 176.334996 120.523688 
L 178.136166 122.164582 
L 179.036752 122.655715 
L 179.937337 123.544296 
L 181.738508 126.681301 
L 182.639093 128.208639 
L 187.142019 136.850305 
L 188.042605 137.926255 
L 188.94319 138.25273 
L 190.74436 137.923416 
L 191.644946 136.214387 
L 194.346702 132.194479 
L 197.949043 125.568445 
L 198.849628 123.541458 
L 200.650798 121.233417 
L 201.551384 120.245474 
L 202.451969 119.589684 
L 203.352554 120.001327 
L 204.25314 119.981454 
L 205.153725 119.518711 
L 207.855481 117.664897 
L 208.756066 116.804705 
L 210.557237 113.95727 
L 212.358407 109.752833 
L 215.060163 105.625046 
L 215.960748 105.065779 
L 216.861334 104.960739 
L 218.662504 104.063641 
L 219.563089 104.202748 
L 220.463675 104.991968 
L 222.264845 107.200646 
L 223.165431 108.168717 
L 224.966601 110.962212 
L 225.867186 112.324893 
L 226.767772 113.891975 
L 227.668357 115.700366 
L 229.469528 120.72809 
L 230.370113 123.356928 
L 231.270698 125.23913 
L 233.071869 127.904874 
L 233.972454 129.33285 
L 234.873039 130.022707 
L 235.773625 129.892117 
L 236.67421 129.247683 
L 237.574795 128.410202 
L 238.47538 128.316518 
L 239.375966 128.665704 
L 240.276551 128.617443 
L 241.177136 129.372595 
L 242.077722 129.460601 
L 242.978307 129.171032 
L 245.680063 128.770744 
L 246.580648 128.731 
L 248.381819 128.370457 
L 249.282404 128.770744 
L 251.083574 130.048258 
L 252.884745 132.06105 
L 253.78533 132.958148 
L 254.685916 133.034799 
L 255.586501 133.454959 
L 258.288257 135.362712 
L 259.188842 135.544403 
L 260.089427 135.396779 
L 260.990013 134.346379 
L 261.890598 132.864464 
L 262.791183 130.581974 
L 263.691768 127.967331 
L 264.592354 125.812592 
L 265.492939 124.515206 
L 266.393524 123.436418 
L 267.29411 122.66991 
L 268.194695 121.582604 
L 269.995865 120.384581 
L 271.797036 120.146112 
L 272.697621 120.165984 
L 273.598207 120.407292 
L 275.399377 120.347675 
L 276.299962 120.620211 
L 278.101133 122.627326 
L 279.902304 123.155365 
L 280.802889 123.419384 
L 281.703474 123.921873 
L 282.604059 124.929688 
L 284.40523 127.47052 
L 285.305815 128.49253 
L 286.206401 128.975147 
L 287.106986 129.716104 
L 288.908156 131.422294 
L 290.709327 133.108611 
L 292.510497 133.585549 
L 293.411083 133.091578 
L 294.311668 132.154735 
L 296.112839 130.053935 
L 297.013424 129.190904 
L 297.914009 127.589755 
L 298.814594 125.596834 
L 299.71518 123.899161 
L 302.416936 117.273127 
L 303.317521 115.66346 
L 305.118691 112.046679 
L 306.019277 110.729421 
L 306.919862 109.872067 
L 308.721033 109.309962 
L 309.621618 109.34119 
L 310.522203 109.721605 
L 312.323374 112.17443 
L 314.124544 115.7174 
L 315.02513 117.131181 
L 317.726885 122.942446 
L 318.627471 124.021235 
L 319.528056 124.594696 
L 323.130397 126.269658 
L 324.931568 127.399547 
L 325.832153 127.714667 
L 328.533909 128.001398 
L 329.434494 127.893519 
L 332.13625 128.225672 
L 332.13625 128.225672 
" clip-path="url(#p4625f3a5b0)" style="fill: none; stroke: #ff0000; stroke-opacity: 0.5; stroke-width: 2; stroke-linecap: square"/>
   </g>
   <g id="line2d_27">
    <path d="M 62.86125 120.217085 
L 64.210999 120.376064 
L 64.885874 120.64103 
L 66.235623 120.837861 
L 67.585373 119.709865 
L 68.260247 118.4456 
L 68.935122 116.92394 
L 70.959746 114.209934 
L 72.98437 113.649721 
L 73.659245 114.081237 
L 74.33412 114.777718 
L 75.683869 115.417421 
L 76.358744 115.970063 
L 77.033618 116.681685 
L 77.708493 117.809682 
L 78.383368 117.957306 
L 79.058242 117.892957 
L 79.733117 117.688555 
L 81.082867 119.149651 
L 81.757741 120.205729 
L 82.432616 121.640329 
L 83.782365 125.361204 
L 86.481864 132.8938 
L 87.831613 134.888613 
L 88.506488 135.062733 
L 89.181363 134.983243 
L 89.856237 134.529016 
L 90.531112 133.298819 
L 91.880862 130.149512 
L 95.255235 127.268957 
L 95.93011 126.496771 
L 96.604984 125.081097 
L 97.954734 123.169559 
L 99.304483 120.058105 
L 99.979358 119.327557 
L 100.654232 119.448684 
L 101.329107 119.263208 
L 102.003982 117.915668 
L 102.678857 116.908799 
L 104.028606 117.397093 
L 104.703481 118.02544 
L 106.05323 120.758372 
L 108.752729 129.403823 
L 110.102478 131.924782 
L 111.452227 133.109557 
L 112.127102 133.715193 
L 113.476852 134.419245 
L 114.151726 135.123297 
L 115.501476 137.780524 
L 116.17635 139.105352 
L 116.851225 139.885108 
L 117.5261 141.043387 
L 118.200974 141.539251 
L 118.875849 142.266014 
L 120.225598 145.078436 
L 120.900473 145.536448 
L 121.575348 145.305549 
L 122.250222 144.870248 
L 122.925097 144.298679 
L 123.599972 143.541635 
L 124.274846 142.406067 
L 124.949721 141.917774 
L 126.974345 136.769869 
L 127.64922 134.623647 
L 128.998969 129.381112 
L 129.673844 125.925202 
L 131.698468 117.241899 
L 133.723092 107.237552 
L 134.397967 104.905854 
L 135.072841 103.07002 
L 135.747716 101.991231 
L 136.422591 101.805755 
L 137.097466 102.343257 
L 137.77234 103.376623 
L 138.447215 105.170819 
L 139.796964 110.292227 
L 142.496463 122.348166 
L 143.171338 125.001608 
L 143.846212 126.996421 
L 144.521087 127.984364 
L 145.195962 128.695986 
L 145.870836 129.127502 
L 146.545711 129.044227 
L 147.220586 128.241759 
L 149.920085 122.079415 
L 150.594959 121.572195 
L 151.944709 121.053619 
L 152.619583 121.205028 
L 153.294458 122.026422 
L 153.969333 122.620702 
L 155.319082 122.847815 
L 155.993957 123.408028 
L 157.343706 124.876695 
L 158.018581 124.377046 
L 158.693456 122.83646 
L 159.36833 122.223253 
L 160.043205 121.772812 
L 160.71808 121.49649 
L 162.067829 119.043665 
L 162.742704 119.005813 
L 164.092453 119.270779 
L 164.767328 119.781784 
L 165.442202 119.940763 
L 166.117077 120.3155 
L 166.791952 120.943848 
L 167.466826 121.746315 
L 168.816576 122.42387 
L 169.491451 122.563923 
L 170.166325 122.34438 
L 170.8412 122.613131 
L 172.190949 122.647198 
L 172.865824 122.696406 
L 173.540699 122.900808 
L 174.215573 123.782766 
L 174.890448 125.436908 
L 175.565323 126.379429 
L 176.240197 126.98128 
L 177.589947 127.280312 
L 178.264821 127.019132 
L 178.939696 127.022917 
L 180.289445 128.109277 
L 181.639195 127.303024 
L 182.988944 126.193953 
L 183.663819 125.171943 
L 184.338694 123.839544 
L 185.013568 122.798607 
L 185.688443 122.34438 
L 186.363318 122.139978 
L 187.713067 122.052918 
L 189.062816 122.66991 
L 189.737691 123.68435 
L 191.08744 126.413496 
L 192.43719 127.954082 
L 194.461814 131.13367 
L 195.136689 131.03904 
L 195.811563 130.819497 
L 196.486438 130.728652 
L 197.161313 131.421347 
L 198.511062 133.49565 
L 199.185937 135.115726 
L 199.860811 136.406487 
L 200.535686 137.129465 
L 201.210561 138.261247 
L 201.885435 139.018292 
L 202.56031 139.533082 
L 203.235185 139.336251 
L 204.584934 137.261948 
L 205.259809 135.142223 
L 205.934684 132.413076 
L 206.609558 130.293351 
L 208.634182 125.785149 
L 209.309057 125.478546 
L 211.333681 125.569391 
L 212.68343 126.087967 
L 214.03318 127.40144 
L 214.708055 127.689117 
L 215.382929 126.863938 
L 216.057804 125.71323 
L 216.732679 125.145446 
L 217.407553 124.812346 
L 218.082428 124.819917 
L 218.757303 124.558736 
L 219.432177 124.596589 
L 220.781927 126.137175 
L 221.456801 126.027403 
L 222.131676 125.770008 
L 223.481425 125.565606 
L 224.831175 127.272742 
L 226.180924 128.533222 
L 228.205548 130.206291 
L 228.880423 131.815011 
L 229.555298 132.64019 
L 230.230172 133.722764 
L 230.905047 134.229984 
L 231.579922 134.570654 
L 232.254796 134.313259 
L 232.929671 133.877958 
L 233.604546 133.612992 
L 234.954295 132.704538 
L 235.62917 132.636404 
L 236.304044 133.030068 
L 236.978919 133.813609 
L 237.653794 134.044508 
L 238.328669 133.919595 
L 239.003543 134.071004 
L 239.678418 134.725848 
L 240.353293 135.130867 
L 241.028167 134.585795 
L 241.703042 133.647059 
L 242.377917 133.877958 
L 243.052791 134.305688 
L 244.402541 134.487379 
L 245.077415 134.385178 
L 245.75229 133.912025 
L 246.427165 133.200403 
L 247.102039 133.207973 
L 247.776914 132.787813 
L 248.451789 131.37214 
L 249.126664 129.536306 
L 249.801538 128.347746 
L 251.151288 125.107594 
L 252.501037 122.616917 
L 253.175912 121.644114 
L 254.525661 120.447983 
L 255.87541 120.262507 
L 256.550285 120.425272 
L 257.900034 119.535744 
L 258.574909 120.209514 
L 259.924659 122.605561 
L 260.599533 122.961372 
L 261.274408 122.927305 
L 261.949283 123.389102 
L 262.624157 124.146147 
L 263.299032 124.324053 
L 263.973907 125.005393 
L 265.323656 125.542895 
L 265.998531 125.550465 
L 268.023155 127.579345 
L 269.372904 126.863938 
L 270.047779 126.458919 
L 270.722654 126.769307 
L 273.422152 126.262087 
L 274.097027 126.784448 
L 274.771902 126.591402 
L 275.446776 126.22045 
L 276.121651 126.212879 
L 277.4714 125.648881 
L 278.82115 123.873611 
L 279.496024 122.76454 
L 280.170899 122.719118 
L 281.520648 122.908379 
L 282.195523 123.491303 
L 283.545273 125.584532 
L 284.220147 126.591402 
L 284.895022 127.219749 
L 285.569897 127.291668 
L 286.244771 126.712529 
L 286.919646 125.864639 
L 287.594521 124.043946 
L 288.269395 123.029506 
L 288.94427 122.454152 
L 289.619145 121.723604 
L 290.294019 121.719818 
L 290.968894 121.82959 
L 292.318643 122.454152 
L 292.993518 123.116566 
L 293.668393 123.426954 
L 294.343268 123.900107 
L 295.018142 124.043946 
L 295.693017 124.327838 
L 296.367892 124.324053 
L 298.392516 126.284799 
L 299.06739 126.686032 
L 299.742265 127.848096 
L 300.41714 128.631637 
L 301.092014 128.972308 
L 301.766889 129.994318 
L 302.441764 130.687014 
L 303.116638 130.736222 
L 303.791513 131.266153 
L 304.466388 131.216945 
L 305.141263 130.512894 
L 306.491012 129.581729 
L 307.165887 129.259985 
L 308.515636 126.527053 
L 309.190511 126.439993 
L 309.865385 126.784448 
L 310.54026 127.647479 
L 311.215135 128.237974 
L 311.890009 128.010861 
L 312.564884 127.348447 
L 313.239759 126.337792 
L 313.914633 125.997122 
L 314.589508 126.508127 
L 315.264383 126.277228 
L 315.939258 125.898706 
L 316.614132 125.311996 
L 317.963882 123.601075 
L 318.638756 122.707762 
L 319.313631 120.720519 
L 319.988506 118.362325 
L 322.01313 112.968381 
L 323.362879 108.146005 
L 324.037754 107.222411 
L 324.712628 105.905153 
L 326.062378 103.9974 
L 326.737253 103.702152 
L 327.412127 104.057963 
L 328.761877 105.458496 
L 330.111626 106.226897 
L 330.786501 106.571352 
L 332.13625 106.843888 
L 332.13625 106.843888 
" clip-path="url(#p4625f3a5b0)" style="fill: none; stroke: #008000; stroke-opacity: 0.5; stroke-width: 2; stroke-linecap: square"/>
   </g>
   <g id="patch_3">
    <path d="M 49.3975 238.8725 
L 49.3975 11.759062 
" style="fill: none; stroke: #000000; stroke-width: 2; stroke-linejoin: miter; stroke-linecap: square"/>
   </g>
   <g id="patch_4">
    <path d="M 345.6 238.8725 
L 345.6 11.759062 
" style="fill: none; stroke: #000000; stroke-width: 2; stroke-linejoin: miter; stroke-linecap: square"/>
   </g>
   <g id="patch_5">
    <path d="M 49.3975 238.8725 
L 345.6 238.8725 
" style="fill: none; stroke: #000000; stroke-width: 2; stroke-linejoin: miter; stroke-linecap: square"/>
   </g>
   <g id="patch_6">
    <path d="M 49.3975 11.759062 
L 345.6 11.759062 
" style="fill: none; stroke: #000000; stroke-width: 2; stroke-linejoin: miter; stroke-linecap: square"/>
   </g>
   <g id="legend_1">
    <g id="line2d_28">
     <path d="M 249.58125 27.477187 
L 261.58125 27.477187 
L 273.58125 27.477187 
" style="fill: none; stroke: #0000ff; stroke-opacity: 0.5; stroke-width: 2; stroke-linecap: square"/>
    </g>
    <g id="text_15">
     <!-- yz-plane -->
     <g transform="translate(283.18125 31.677187)scale(0.12 -0.12)">
      <defs>
       <path id="DejaVuSans-7a" d="M 353 3500 
L 3084 3500 
L 3084 2975 
L 922 459 
L 3084 459 
L 3084 0 
L 275 0 
L 275 525 
L 2438 3041 
L 353 3041 
L 353 3500 
z
" transform="scale(0.015625)"/>
       <path id="DejaVuSans-2d" d="M 313 2009 
L 1997 2009 
L 1997 1497 
L 313 1497 
L 313 2009 
z
" transform="scale(0.015625)"/>
       <path id="DejaVuSans-70" d="M 1159 525 
L 1159 -1331 
L 581 -1331 
L 581 3500 
L 1159 3500 
L 1159 2969 
Q 1341 3281 1617 3432 
Q 1894 3584 2278 3584 
Q 2916 3584 3314 3078 
Q 3713 2572 3713 1747 
Q 3713 922 3314 415 
Q 2916 -91 2278 -91 
Q 1894 -91 1617 61 
Q 1341 213 1159 525 
z
M 3116 1747 
Q 3116 2381 2855 2742 
Q 2594 3103 2138 3103 
Q 1681 3103 1420 2742 
Q 1159 2381 1159 1747 
Q 1159 1113 1420 752 
Q 1681 391 2138 391 
Q 2594 391 2855 752 
Q 3116 1113 3116 1747 
z
" transform="scale(0.015625)"/>
      </defs>
      <use xlink:href="#DejaVuSans-79"/>
      <use xlink:href="#DejaVuSans-7a" x="59.179688"/>
      <use xlink:href="#DejaVuSans-2d" x="111.669922"/>
      <use xlink:href="#DejaVuSans-70" x="147.753906"/>
      <use xlink:href="#DejaVuSans-6c" x="211.230469"/>
      <use xlink:href="#DejaVuSans-61" x="239.013672"/>
      <use xlink:href="#DejaVuSans-6e" x="300.292969"/>
      <use xlink:href="#DejaVuSans-65" x="363.671875"/>
     </g>
    </g>
    <g id="line2d_29">
     <path d="M 249.58125 45.090937 
L 261.58125 45.090937 
L 273.58125 45.090937 
" style="fill: none; stroke: #ff0000; stroke-opacity: 0.5; stroke-width: 2; stroke-linecap: square"/>
    </g>
    <g id="text_16">
     <!-- xz-plane -->
     <g transform="translate(283.18125 49.290937)scale(0.12 -0.12)">
      <use xlink:href="#DejaVuSans-78"/>
      <use xlink:href="#DejaVuSans-7a" x="59.179688"/>
      <use xlink:href="#DejaVuSans-2d" x="111.669922"/>
      <use xlink:href="#DejaVuSans-70" x="147.753906"/>
      <use xlink:href="#DejaVuSans-6c" x="211.230469"/>
      <use xlink:href="#DejaVuSans-61" x="239.013672"/>
      <use xlink:href="#DejaVuSans-6e" x="300.292969"/>
      <use xlink:href="#DejaVuSans-65" x="363.671875"/>
     </g>
    </g>
    <g id="line2d_30">
     <path d="M 249.58125 62.704687 
L 261.58125 62.704687 
L 273.58125 62.704687 
" style="fill: none; stroke: #008000; stroke-opacity: 0.5; stroke-width: 2; stroke-linecap: square"/>
    </g>
    <g id="text_17">
     <!-- xy-plane -->
     <g transform="translate(283.18125 66.904687)scale(0.12 -0.12)">
      <use xlink:href="#DejaVuSans-78"/>
      <use xlink:href="#DejaVuSans-79" x="59.179688"/>
      <use xlink:href="#DejaVuSans-2d" x="116.609375"/>
      <use xlink:href="#DejaVuSans-70" x="152.693359"/>
      <use xlink:href="#DejaVuSans-6c" x="216.169922"/>
      <use xlink:href="#DejaVuSans-61" x="243.953125"/>
      <use xlink:href="#DejaVuSans-6e" x="305.232422"/>
      <use xlink:href="#DejaVuSans-65" x="368.611328"/>
     </g>
    </g>
   </g>
  </g>
 </g>
 <defs>
  <clipPath id="p4625f3a5b0">
   <rect x="49.3975" y="11.759062" width="296.2025" height="227.113437"/>
  </clipPath>
 </defs>
</svg>
