<?xml version="1.0" encoding="utf-8" standalone="no"?>
<!DOCTYPE svg PUBLIC "-//W3C//DTD SVG 1.1//EN"
  "http://www.w3.org/Graphics/SVG/1.1/DTD/svg11.dtd">
<svg xmlns:xlink="http://www.w3.org/1999/xlink" width="348.48pt" height="276.48pt" viewBox="0 0 348.48 276.48" xmlns="http://www.w3.org/2000/svg" version="1.1">
 <metadata>
  <rdf:RDF xmlns:dc="http://purl.org/dc/elements/1.1/" xmlns:cc="http://creativecommons.org/ns#" xmlns:rdf="http://www.w3.org/1999/02/22-rdf-syntax-ns#">
   <cc:Work>
    <dc:type rdf:resource="http://purl.org/dc/dcmitype/StillImage"/>
    <dc:date>2022-03-30T13:46:15.859751</dc:date>
    <dc:format>image/svg+xml</dc:format>
    <dc:creator>
     <cc:Agent>
      <dc:title>Matplotlib v3.5.1, https://matplotlib.org/</dc:title>
     </cc:Agent>
    </dc:creator>
   </cc:Work>
  </rdf:RDF>
 </metadata>
 <defs>
  <style type="text/css">*{stroke-linejoin: round; stroke-linecap: butt}</style>
 </defs>
 <g id="figure_1">
  <g id="patch_1">
   <path d="M 0 276.48 
L 348.48 276.48 
L 348.48 0 
L 0 0 
L 0 276.48 
z
" style="fill: none"/>
  </g>
  <g id="axes_1">
   <g id="patch_2">
    <path d="M 49.3975 234.5525 
L 341.28 234.5525 
L 341.28 11.759062 
L 49.3975 11.759062 
z
" style="fill: #ffffff"/>
   </g>
   <g id="matplotlib.axis_1">
    <g id="xtick_1">
     <g id="line2d_1">
      <defs>
       <path id="m470120ece8" d="M 0 0 
L 0 -6 
" style="stroke: #000000; stroke-width: 2"/>
      </defs>
      <g>
       <use xlink:href="#m470120ece8" x="62.664886" y="234.5525" style="fill: #ffffff; stroke: #000000; stroke-width: 2"/>
      </g>
     </g>
     <g id="line2d_2">
      <defs>
       <path id="m82b385541d" d="M 0 0 
L 0 6 
" style="stroke: #000000; stroke-width: 2"/>
      </defs>
      <g>
       <use xlink:href="#m82b385541d" x="62.664886" y="11.759062" style="fill: #ffffff; stroke: #000000; stroke-width: 2"/>
      </g>
     </g>
     <g id="text_1">
      <!-- 0.0 -->
      <g transform="translate(53.123011 247.170625)scale(0.12 -0.12)">
       <defs>
        <path id="DejaVuSans-30" d="M 2034 4250 
Q 1547 4250 1301 3770 
Q 1056 3291 1056 2328 
Q 1056 1369 1301 889 
Q 1547 409 2034 409 
Q 2525 409 2770 889 
Q 3016 1369 3016 2328 
Q 3016 3291 2770 3770 
Q 2525 4250 2034 4250 
z
M 2034 4750 
Q 2819 4750 3233 4129 
Q 3647 3509 3647 2328 
Q 3647 1150 3233 529 
Q 2819 -91 2034 -91 
Q 1250 -91 836 529 
Q 422 1150 422 2328 
Q 422 3509 836 4129 
Q 1250 4750 2034 4750 
z
" transform="scale(0.015625)"/>
        <path id="DejaVuSans-2e" d="M 684 794 
L 1344 794 
L 1344 0 
L 684 0 
L 684 794 
z
" transform="scale(0.015625)"/>
       </defs>
       <use xlink:href="#DejaVuSans-30"/>
       <use xlink:href="#DejaVuSans-2e" x="63.623047"/>
       <use xlink:href="#DejaVuSans-30" x="95.410156"/>
      </g>
     </g>
    </g>
    <g id="xtick_2">
     <g id="line2d_3">
      <g>
       <use xlink:href="#m470120ece8" x="115.734432" y="234.5525" style="fill: #ffffff; stroke: #000000; stroke-width: 2"/>
      </g>
     </g>
     <g id="line2d_4">
      <g>
       <use xlink:href="#m82b385541d" x="115.734432" y="11.759062" style="fill: #ffffff; stroke: #000000; stroke-width: 2"/>
      </g>
     </g>
     <g id="text_2">
      <!-- 0.2 -->
      <g transform="translate(106.192557 247.170625)scale(0.12 -0.12)">
       <defs>
        <path id="DejaVuSans-32" d="M 1228 531 
L 3431 531 
L 3431 0 
L 469 0 
L 469 531 
Q 828 903 1448 1529 
Q 2069 2156 2228 2338 
Q 2531 2678 2651 2914 
Q 2772 3150 2772 3378 
Q 2772 3750 2511 3984 
Q 2250 4219 1831 4219 
Q 1534 4219 1204 4116 
Q 875 4013 500 3803 
L 500 4441 
Q 881 4594 1212 4672 
Q 1544 4750 1819 4750 
Q 2544 4750 2975 4387 
Q 3406 4025 3406 3419 
Q 3406 3131 3298 2873 
Q 3191 2616 2906 2266 
Q 2828 2175 2409 1742 
Q 1991 1309 1228 531 
z
" transform="scale(0.015625)"/>
       </defs>
       <use xlink:href="#DejaVuSans-30"/>
       <use xlink:href="#DejaVuSans-2e" x="63.623047"/>
       <use xlink:href="#DejaVuSans-32" x="95.410156"/>
      </g>
     </g>
    </g>
    <g id="xtick_3">
     <g id="line2d_5">
      <g>
       <use xlink:href="#m470120ece8" x="168.803977" y="234.5525" style="fill: #ffffff; stroke: #000000; stroke-width: 2"/>
      </g>
     </g>
     <g id="line2d_6">
      <g>
       <use xlink:href="#m82b385541d" x="168.803977" y="11.759062" style="fill: #ffffff; stroke: #000000; stroke-width: 2"/>
      </g>
     </g>
     <g id="text_3">
      <!-- 0.4 -->
      <g transform="translate(159.262102 247.170625)scale(0.12 -0.12)">
       <defs>
        <path id="DejaVuSans-34" d="M 2419 4116 
L 825 1625 
L 2419 1625 
L 2419 4116 
z
M 2253 4666 
L 3047 4666 
L 3047 1625 
L 3713 1625 
L 3713 1100 
L 3047 1100 
L 3047 0 
L 2419 0 
L 2419 1100 
L 313 1100 
L 313 1709 
L 2253 4666 
z
" transform="scale(0.015625)"/>
       </defs>
       <use xlink:href="#DejaVuSans-30"/>
       <use xlink:href="#DejaVuSans-2e" x="63.623047"/>
       <use xlink:href="#DejaVuSans-34" x="95.410156"/>
      </g>
     </g>
    </g>
    <g id="xtick_4">
     <g id="line2d_7">
      <g>
       <use xlink:href="#m470120ece8" x="221.873523" y="234.5525" style="fill: #ffffff; stroke: #000000; stroke-width: 2"/>
      </g>
     </g>
     <g id="line2d_8">
      <g>
       <use xlink:href="#m82b385541d" x="221.873523" y="11.759062" style="fill: #ffffff; stroke: #000000; stroke-width: 2"/>
      </g>
     </g>
     <g id="text_4">
      <!-- 0.6 -->
      <g transform="translate(212.331648 247.170625)scale(0.12 -0.12)">
       <defs>
        <path id="DejaVuSans-36" d="M 2113 2584 
Q 1688 2584 1439 2293 
Q 1191 2003 1191 1497 
Q 1191 994 1439 701 
Q 1688 409 2113 409 
Q 2538 409 2786 701 
Q 3034 994 3034 1497 
Q 3034 2003 2786 2293 
Q 2538 2584 2113 2584 
z
M 3366 4563 
L 3366 3988 
Q 3128 4100 2886 4159 
Q 2644 4219 2406 4219 
Q 1781 4219 1451 3797 
Q 1122 3375 1075 2522 
Q 1259 2794 1537 2939 
Q 1816 3084 2150 3084 
Q 2853 3084 3261 2657 
Q 3669 2231 3669 1497 
Q 3669 778 3244 343 
Q 2819 -91 2113 -91 
Q 1303 -91 875 529 
Q 447 1150 447 2328 
Q 447 3434 972 4092 
Q 1497 4750 2381 4750 
Q 2619 4750 2861 4703 
Q 3103 4656 3366 4563 
z
" transform="scale(0.015625)"/>
       </defs>
       <use xlink:href="#DejaVuSans-30"/>
       <use xlink:href="#DejaVuSans-2e" x="63.623047"/>
       <use xlink:href="#DejaVuSans-36" x="95.410156"/>
      </g>
     </g>
    </g>
    <g id="xtick_5">
     <g id="line2d_9">
      <g>
       <use xlink:href="#m470120ece8" x="274.943068" y="234.5525" style="fill: #ffffff; stroke: #000000; stroke-width: 2"/>
      </g>
     </g>
     <g id="line2d_10">
      <g>
       <use xlink:href="#m82b385541d" x="274.943068" y="11.759062" style="fill: #ffffff; stroke: #000000; stroke-width: 2"/>
      </g>
     </g>
     <g id="text_5">
      <!-- 0.8 -->
      <g transform="translate(265.401193 247.170625)scale(0.12 -0.12)">
       <defs>
        <path id="DejaVuSans-38" d="M 2034 2216 
Q 1584 2216 1326 1975 
Q 1069 1734 1069 1313 
Q 1069 891 1326 650 
Q 1584 409 2034 409 
Q 2484 409 2743 651 
Q 3003 894 3003 1313 
Q 3003 1734 2745 1975 
Q 2488 2216 2034 2216 
z
M 1403 2484 
Q 997 2584 770 2862 
Q 544 3141 544 3541 
Q 544 4100 942 4425 
Q 1341 4750 2034 4750 
Q 2731 4750 3128 4425 
Q 3525 4100 3525 3541 
Q 3525 3141 3298 2862 
Q 3072 2584 2669 2484 
Q 3125 2378 3379 2068 
Q 3634 1759 3634 1313 
Q 3634 634 3220 271 
Q 2806 -91 2034 -91 
Q 1263 -91 848 271 
Q 434 634 434 1313 
Q 434 1759 690 2068 
Q 947 2378 1403 2484 
z
M 1172 3481 
Q 1172 3119 1398 2916 
Q 1625 2713 2034 2713 
Q 2441 2713 2670 2916 
Q 2900 3119 2900 3481 
Q 2900 3844 2670 4047 
Q 2441 4250 2034 4250 
Q 1625 4250 1398 4047 
Q 1172 3844 1172 3481 
z
" transform="scale(0.015625)"/>
       </defs>
       <use xlink:href="#DejaVuSans-30"/>
       <use xlink:href="#DejaVuSans-2e" x="63.623047"/>
       <use xlink:href="#DejaVuSans-38" x="95.410156"/>
      </g>
     </g>
    </g>
    <g id="xtick_6">
     <g id="line2d_11">
      <g>
       <use xlink:href="#m470120ece8" x="328.012614" y="234.5525" style="fill: #ffffff; stroke: #000000; stroke-width: 2"/>
      </g>
     </g>
     <g id="line2d_12">
      <g>
       <use xlink:href="#m82b385541d" x="328.012614" y="11.759062" style="fill: #ffffff; stroke: #000000; stroke-width: 2"/>
      </g>
     </g>
     <g id="text_6">
      <!-- 1.0 -->
      <g transform="translate(318.470739 247.170625)scale(0.12 -0.12)">
       <defs>
        <path id="DejaVuSans-31" d="M 794 531 
L 1825 531 
L 1825 4091 
L 703 3866 
L 703 4441 
L 1819 4666 
L 2450 4666 
L 2450 531 
L 3481 531 
L 3481 0 
L 794 0 
L 794 531 
z
" transform="scale(0.015625)"/>
       </defs>
       <use xlink:href="#DejaVuSans-31"/>
       <use xlink:href="#DejaVuSans-2e" x="63.623047"/>
       <use xlink:href="#DejaVuSans-30" x="95.410156"/>
      </g>
     </g>
    </g>
    <g id="text_7">
     <!-- Fractional distance along given axis -->
     <g transform="translate(87.823438 266.784375)scale(0.12 -0.12)">
      <defs>
       <path id="DejaVuSans-46" d="M 628 4666 
L 3309 4666 
L 3309 4134 
L 1259 4134 
L 1259 2759 
L 3109 2759 
L 3109 2228 
L 1259 2228 
L 1259 0 
L 628 0 
L 628 4666 
z
" transform="scale(0.015625)"/>
       <path id="DejaVuSans-72" d="M 2631 2963 
Q 2534 3019 2420 3045 
Q 2306 3072 2169 3072 
Q 1681 3072 1420 2755 
Q 1159 2438 1159 1844 
L 1159 0 
L 581 0 
L 581 3500 
L 1159 3500 
L 1159 2956 
Q 1341 3275 1631 3429 
Q 1922 3584 2338 3584 
Q 2397 3584 2469 3576 
Q 2541 3569 2628 3553 
L 2631 2963 
z
" transform="scale(0.015625)"/>
       <path id="DejaVuSans-61" d="M 2194 1759 
Q 1497 1759 1228 1600 
Q 959 1441 959 1056 
Q 959 750 1161 570 
Q 1363 391 1709 391 
Q 2188 391 2477 730 
Q 2766 1069 2766 1631 
L 2766 1759 
L 2194 1759 
z
M 3341 1997 
L 3341 0 
L 2766 0 
L 2766 531 
Q 2569 213 2275 61 
Q 1981 -91 1556 -91 
Q 1019 -91 701 211 
Q 384 513 384 1019 
Q 384 1609 779 1909 
Q 1175 2209 1959 2209 
L 2766 2209 
L 2766 2266 
Q 2766 2663 2505 2880 
Q 2244 3097 1772 3097 
Q 1472 3097 1187 3025 
Q 903 2953 641 2809 
L 641 3341 
Q 956 3463 1253 3523 
Q 1550 3584 1831 3584 
Q 2591 3584 2966 3190 
Q 3341 2797 3341 1997 
z
" transform="scale(0.015625)"/>
       <path id="DejaVuSans-63" d="M 3122 3366 
L 3122 2828 
Q 2878 2963 2633 3030 
Q 2388 3097 2138 3097 
Q 1578 3097 1268 2742 
Q 959 2388 959 1747 
Q 959 1106 1268 751 
Q 1578 397 2138 397 
Q 2388 397 2633 464 
Q 2878 531 3122 666 
L 3122 134 
Q 2881 22 2623 -34 
Q 2366 -91 2075 -91 
Q 1284 -91 818 406 
Q 353 903 353 1747 
Q 353 2603 823 3093 
Q 1294 3584 2113 3584 
Q 2378 3584 2631 3529 
Q 2884 3475 3122 3366 
z
" transform="scale(0.015625)"/>
       <path id="DejaVuSans-74" d="M 1172 4494 
L 1172 3500 
L 2356 3500 
L 2356 3053 
L 1172 3053 
L 1172 1153 
Q 1172 725 1289 603 
Q 1406 481 1766 481 
L 2356 481 
L 2356 0 
L 1766 0 
Q 1100 0 847 248 
Q 594 497 594 1153 
L 594 3053 
L 172 3053 
L 172 3500 
L 594 3500 
L 594 4494 
L 1172 4494 
z
" transform="scale(0.015625)"/>
       <path id="DejaVuSans-69" d="M 603 3500 
L 1178 3500 
L 1178 0 
L 603 0 
L 603 3500 
z
M 603 4863 
L 1178 4863 
L 1178 4134 
L 603 4134 
L 603 4863 
z
" transform="scale(0.015625)"/>
       <path id="DejaVuSans-6f" d="M 1959 3097 
Q 1497 3097 1228 2736 
Q 959 2375 959 1747 
Q 959 1119 1226 758 
Q 1494 397 1959 397 
Q 2419 397 2687 759 
Q 2956 1122 2956 1747 
Q 2956 2369 2687 2733 
Q 2419 3097 1959 3097 
z
M 1959 3584 
Q 2709 3584 3137 3096 
Q 3566 2609 3566 1747 
Q 3566 888 3137 398 
Q 2709 -91 1959 -91 
Q 1206 -91 779 398 
Q 353 888 353 1747 
Q 353 2609 779 3096 
Q 1206 3584 1959 3584 
z
" transform="scale(0.015625)"/>
       <path id="DejaVuSans-6e" d="M 3513 2113 
L 3513 0 
L 2938 0 
L 2938 2094 
Q 2938 2591 2744 2837 
Q 2550 3084 2163 3084 
Q 1697 3084 1428 2787 
Q 1159 2491 1159 1978 
L 1159 0 
L 581 0 
L 581 3500 
L 1159 3500 
L 1159 2956 
Q 1366 3272 1645 3428 
Q 1925 3584 2291 3584 
Q 2894 3584 3203 3211 
Q 3513 2838 3513 2113 
z
" transform="scale(0.015625)"/>
       <path id="DejaVuSans-6c" d="M 603 4863 
L 1178 4863 
L 1178 0 
L 603 0 
L 603 4863 
z
" transform="scale(0.015625)"/>
       <path id="DejaVuSans-20" transform="scale(0.015625)"/>
       <path id="DejaVuSans-64" d="M 2906 2969 
L 2906 4863 
L 3481 4863 
L 3481 0 
L 2906 0 
L 2906 525 
Q 2725 213 2448 61 
Q 2172 -91 1784 -91 
Q 1150 -91 751 415 
Q 353 922 353 1747 
Q 353 2572 751 3078 
Q 1150 3584 1784 3584 
Q 2172 3584 2448 3432 
Q 2725 3281 2906 2969 
z
M 947 1747 
Q 947 1113 1208 752 
Q 1469 391 1925 391 
Q 2381 391 2643 752 
Q 2906 1113 2906 1747 
Q 2906 2381 2643 2742 
Q 2381 3103 1925 3103 
Q 1469 3103 1208 2742 
Q 947 2381 947 1747 
z
" transform="scale(0.015625)"/>
       <path id="DejaVuSans-73" d="M 2834 3397 
L 2834 2853 
Q 2591 2978 2328 3040 
Q 2066 3103 1784 3103 
Q 1356 3103 1142 2972 
Q 928 2841 928 2578 
Q 928 2378 1081 2264 
Q 1234 2150 1697 2047 
L 1894 2003 
Q 2506 1872 2764 1633 
Q 3022 1394 3022 966 
Q 3022 478 2636 193 
Q 2250 -91 1575 -91 
Q 1294 -91 989 -36 
Q 684 19 347 128 
L 347 722 
Q 666 556 975 473 
Q 1284 391 1588 391 
Q 1994 391 2212 530 
Q 2431 669 2431 922 
Q 2431 1156 2273 1281 
Q 2116 1406 1581 1522 
L 1381 1569 
Q 847 1681 609 1914 
Q 372 2147 372 2553 
Q 372 3047 722 3315 
Q 1072 3584 1716 3584 
Q 2034 3584 2315 3537 
Q 2597 3491 2834 3397 
z
" transform="scale(0.015625)"/>
       <path id="DejaVuSans-65" d="M 3597 1894 
L 3597 1613 
L 953 1613 
Q 991 1019 1311 708 
Q 1631 397 2203 397 
Q 2534 397 2845 478 
Q 3156 559 3463 722 
L 3463 178 
Q 3153 47 2828 -22 
Q 2503 -91 2169 -91 
Q 1331 -91 842 396 
Q 353 884 353 1716 
Q 353 2575 817 3079 
Q 1281 3584 2069 3584 
Q 2775 3584 3186 3129 
Q 3597 2675 3597 1894 
z
M 3022 2063 
Q 3016 2534 2758 2815 
Q 2500 3097 2075 3097 
Q 1594 3097 1305 2825 
Q 1016 2553 972 2059 
L 3022 2063 
z
" transform="scale(0.015625)"/>
       <path id="DejaVuSans-67" d="M 2906 1791 
Q 2906 2416 2648 2759 
Q 2391 3103 1925 3103 
Q 1463 3103 1205 2759 
Q 947 2416 947 1791 
Q 947 1169 1205 825 
Q 1463 481 1925 481 
Q 2391 481 2648 825 
Q 2906 1169 2906 1791 
z
M 3481 434 
Q 3481 -459 3084 -895 
Q 2688 -1331 1869 -1331 
Q 1566 -1331 1297 -1286 
Q 1028 -1241 775 -1147 
L 775 -588 
Q 1028 -725 1275 -790 
Q 1522 -856 1778 -856 
Q 2344 -856 2625 -561 
Q 2906 -266 2906 331 
L 2906 616 
Q 2728 306 2450 153 
Q 2172 0 1784 0 
Q 1141 0 747 490 
Q 353 981 353 1791 
Q 353 2603 747 3093 
Q 1141 3584 1784 3584 
Q 2172 3584 2450 3431 
Q 2728 3278 2906 2969 
L 2906 3500 
L 3481 3500 
L 3481 434 
z
" transform="scale(0.015625)"/>
       <path id="DejaVuSans-76" d="M 191 3500 
L 800 3500 
L 1894 563 
L 2988 3500 
L 3597 3500 
L 2284 0 
L 1503 0 
L 191 3500 
z
" transform="scale(0.015625)"/>
       <path id="DejaVuSans-78" d="M 3513 3500 
L 2247 1797 
L 3578 0 
L 2900 0 
L 1881 1375 
L 863 0 
L 184 0 
L 1544 1831 
L 300 3500 
L 978 3500 
L 1906 2253 
L 2834 3500 
L 3513 3500 
z
" transform="scale(0.015625)"/>
      </defs>
      <use xlink:href="#DejaVuSans-46"/>
      <use xlink:href="#DejaVuSans-72" x="50.269531"/>
      <use xlink:href="#DejaVuSans-61" x="91.382812"/>
      <use xlink:href="#DejaVuSans-63" x="152.662109"/>
      <use xlink:href="#DejaVuSans-74" x="207.642578"/>
      <use xlink:href="#DejaVuSans-69" x="246.851562"/>
      <use xlink:href="#DejaVuSans-6f" x="274.634766"/>
      <use xlink:href="#DejaVuSans-6e" x="335.816406"/>
      <use xlink:href="#DejaVuSans-61" x="399.195312"/>
      <use xlink:href="#DejaVuSans-6c" x="460.474609"/>
      <use xlink:href="#DejaVuSans-20" x="488.257812"/>
      <use xlink:href="#DejaVuSans-64" x="520.044922"/>
      <use xlink:href="#DejaVuSans-69" x="583.521484"/>
      <use xlink:href="#DejaVuSans-73" x="611.304688"/>
      <use xlink:href="#DejaVuSans-74" x="663.404297"/>
      <use xlink:href="#DejaVuSans-61" x="702.613281"/>
      <use xlink:href="#DejaVuSans-6e" x="763.892578"/>
      <use xlink:href="#DejaVuSans-63" x="827.271484"/>
      <use xlink:href="#DejaVuSans-65" x="882.251953"/>
      <use xlink:href="#DejaVuSans-20" x="943.775391"/>
      <use xlink:href="#DejaVuSans-61" x="975.5625"/>
      <use xlink:href="#DejaVuSans-6c" x="1036.841797"/>
      <use xlink:href="#DejaVuSans-6f" x="1064.625"/>
      <use xlink:href="#DejaVuSans-6e" x="1125.806641"/>
      <use xlink:href="#DejaVuSans-67" x="1189.185547"/>
      <use xlink:href="#DejaVuSans-20" x="1252.662109"/>
      <use xlink:href="#DejaVuSans-67" x="1284.449219"/>
      <use xlink:href="#DejaVuSans-69" x="1347.925781"/>
      <use xlink:href="#DejaVuSans-76" x="1375.708984"/>
      <use xlink:href="#DejaVuSans-65" x="1434.888672"/>
      <use xlink:href="#DejaVuSans-6e" x="1496.412109"/>
      <use xlink:href="#DejaVuSans-20" x="1559.791016"/>
      <use xlink:href="#DejaVuSans-61" x="1591.578125"/>
      <use xlink:href="#DejaVuSans-78" x="1652.857422"/>
      <use xlink:href="#DejaVuSans-69" x="1712.037109"/>
      <use xlink:href="#DejaVuSans-73" x="1739.820312"/>
     </g>
    </g>
   </g>
   <g id="matplotlib.axis_2">
    <g id="ytick_1">
     <g id="line2d_13">
      <defs>
       <path id="m99520e7673" d="M 0 0 
L 6 0 
" style="stroke: #000000; stroke-width: 2"/>
      </defs>
      <g>
       <use xlink:href="#m99520e7673" x="49.3975" y="234.5525" style="fill: #ffffff; stroke: #000000; stroke-width: 2"/>
      </g>
     </g>
     <g id="line2d_14">
      <defs>
       <path id="m0ffe43aecd" d="M 0 0 
L -6 0 
" style="stroke: #000000; stroke-width: 2"/>
      </defs>
      <g>
       <use xlink:href="#m0ffe43aecd" x="341.28" y="234.5525" style="fill: #ffffff; stroke: #000000; stroke-width: 2"/>
      </g>
     </g>
     <g id="text_8">
      <!-- 0.0 -->
      <g transform="translate(26.81375 239.111562)scale(0.12 -0.12)">
       <use xlink:href="#DejaVuSans-30"/>
       <use xlink:href="#DejaVuSans-2e" x="63.623047"/>
       <use xlink:href="#DejaVuSans-30" x="95.410156"/>
      </g>
     </g>
    </g>
    <g id="ytick_2">
     <g id="line2d_15">
      <g>
       <use xlink:href="#m99520e7673" x="49.3975" y="189.993812" style="fill: #ffffff; stroke: #000000; stroke-width: 2"/>
      </g>
     </g>
     <g id="line2d_16">
      <g>
       <use xlink:href="#m0ffe43aecd" x="341.28" y="189.993812" style="fill: #ffffff; stroke: #000000; stroke-width: 2"/>
      </g>
     </g>
     <g id="text_9">
      <!-- 0.2 -->
      <g transform="translate(26.81375 194.552875)scale(0.12 -0.12)">
       <use xlink:href="#DejaVuSans-30"/>
       <use xlink:href="#DejaVuSans-2e" x="63.623047"/>
       <use xlink:href="#DejaVuSans-32" x="95.410156"/>
      </g>
     </g>
    </g>
    <g id="ytick_3">
     <g id="line2d_17">
      <g>
       <use xlink:href="#m99520e7673" x="49.3975" y="145.435125" style="fill: #ffffff; stroke: #000000; stroke-width: 2"/>
      </g>
     </g>
     <g id="line2d_18">
      <g>
       <use xlink:href="#m0ffe43aecd" x="341.28" y="145.435125" style="fill: #ffffff; stroke: #000000; stroke-width: 2"/>
      </g>
     </g>
     <g id="text_10">
      <!-- 0.4 -->
      <g transform="translate(26.81375 149.994187)scale(0.12 -0.12)">
       <use xlink:href="#DejaVuSans-30"/>
       <use xlink:href="#DejaVuSans-2e" x="63.623047"/>
       <use xlink:href="#DejaVuSans-34" x="95.410156"/>
      </g>
     </g>
    </g>
    <g id="ytick_4">
     <g id="line2d_19">
      <g>
       <use xlink:href="#m99520e7673" x="49.3975" y="100.876437" style="fill: #ffffff; stroke: #000000; stroke-width: 2"/>
      </g>
     </g>
     <g id="line2d_20">
      <g>
       <use xlink:href="#m0ffe43aecd" x="341.28" y="100.876437" style="fill: #ffffff; stroke: #000000; stroke-width: 2"/>
      </g>
     </g>
     <g id="text_11">
      <!-- 0.6 -->
      <g transform="translate(26.81375 105.4355)scale(0.12 -0.12)">
       <use xlink:href="#DejaVuSans-30"/>
       <use xlink:href="#DejaVuSans-2e" x="63.623047"/>
       <use xlink:href="#DejaVuSans-36" x="95.410156"/>
      </g>
     </g>
    </g>
    <g id="ytick_5">
     <g id="line2d_21">
      <g>
       <use xlink:href="#m99520e7673" x="49.3975" y="56.31775" style="fill: #ffffff; stroke: #000000; stroke-width: 2"/>
      </g>
     </g>
     <g id="line2d_22">
      <g>
       <use xlink:href="#m0ffe43aecd" x="341.28" y="56.31775" style="fill: #ffffff; stroke: #000000; stroke-width: 2"/>
      </g>
     </g>
     <g id="text_12">
      <!-- 0.8 -->
      <g transform="translate(26.81375 60.876812)scale(0.12 -0.12)">
       <use xlink:href="#DejaVuSans-30"/>
       <use xlink:href="#DejaVuSans-2e" x="63.623047"/>
       <use xlink:href="#DejaVuSans-38" x="95.410156"/>
      </g>
     </g>
    </g>
    <g id="ytick_6">
     <g id="line2d_23">
      <g>
       <use xlink:href="#m99520e7673" x="49.3975" y="11.759062" style="fill: #ffffff; stroke: #000000; stroke-width: 2"/>
      </g>
     </g>
     <g id="line2d_24">
      <g>
       <use xlink:href="#m0ffe43aecd" x="341.28" y="11.759062" style="fill: #ffffff; stroke: #000000; stroke-width: 2"/>
      </g>
     </g>
     <g id="text_13">
      <!-- 1.0 -->
      <g transform="translate(26.81375 16.318125)scale(0.12 -0.12)">
       <use xlink:href="#DejaVuSans-31"/>
       <use xlink:href="#DejaVuSans-2e" x="63.623047"/>
       <use xlink:href="#DejaVuSans-30" x="95.410156"/>
      </g>
     </g>
    </g>
    <g id="text_14">
     <!-- Porosity of slice -->
     <g transform="translate(16.318125 169.973594)rotate(-90)scale(0.12 -0.12)">
      <defs>
       <path id="DejaVuSans-50" d="M 1259 4147 
L 1259 2394 
L 2053 2394 
Q 2494 2394 2734 2622 
Q 2975 2850 2975 3272 
Q 2975 3691 2734 3919 
Q 2494 4147 2053 4147 
L 1259 4147 
z
M 628 4666 
L 2053 4666 
Q 2838 4666 3239 4311 
Q 3641 3956 3641 3272 
Q 3641 2581 3239 2228 
Q 2838 1875 2053 1875 
L 1259 1875 
L 1259 0 
L 628 0 
L 628 4666 
z
" transform="scale(0.015625)"/>
       <path id="DejaVuSans-79" d="M 2059 -325 
Q 1816 -950 1584 -1140 
Q 1353 -1331 966 -1331 
L 506 -1331 
L 506 -850 
L 844 -850 
Q 1081 -850 1212 -737 
Q 1344 -625 1503 -206 
L 1606 56 
L 191 3500 
L 800 3500 
L 1894 763 
L 2988 3500 
L 3597 3500 
L 2059 -325 
z
" transform="scale(0.015625)"/>
       <path id="DejaVuSans-66" d="M 2375 4863 
L 2375 4384 
L 1825 4384 
Q 1516 4384 1395 4259 
Q 1275 4134 1275 3809 
L 1275 3500 
L 2222 3500 
L 2222 3053 
L 1275 3053 
L 1275 0 
L 697 0 
L 697 3053 
L 147 3053 
L 147 3500 
L 697 3500 
L 697 3744 
Q 697 4328 969 4595 
Q 1241 4863 1831 4863 
L 2375 4863 
z
" transform="scale(0.015625)"/>
      </defs>
      <use xlink:href="#DejaVuSans-50"/>
      <use xlink:href="#DejaVuSans-6f" x="56.677734"/>
      <use xlink:href="#DejaVuSans-72" x="117.859375"/>
      <use xlink:href="#DejaVuSans-6f" x="156.722656"/>
      <use xlink:href="#DejaVuSans-73" x="217.904297"/>
      <use xlink:href="#DejaVuSans-69" x="270.003906"/>
      <use xlink:href="#DejaVuSans-74" x="297.787109"/>
      <use xlink:href="#DejaVuSans-79" x="336.996094"/>
      <use xlink:href="#DejaVuSans-20" x="396.175781"/>
      <use xlink:href="#DejaVuSans-6f" x="427.962891"/>
      <use xlink:href="#DejaVuSans-66" x="489.144531"/>
      <use xlink:href="#DejaVuSans-20" x="524.349609"/>
      <use xlink:href="#DejaVuSans-73" x="556.136719"/>
      <use xlink:href="#DejaVuSans-6c" x="608.236328"/>
      <use xlink:href="#DejaVuSans-69" x="636.019531"/>
      <use xlink:href="#DejaVuSans-63" x="663.802734"/>
      <use xlink:href="#DejaVuSans-65" x="718.783203"/>
     </g>
    </g>
   </g>
   <g id="line2d_25">
    <path d="M 62.664886 120.862865 
L 63.998292 120.803454 
L 66.665103 120.006967 
L 67.998509 119.488973 
L 69.331915 119.095371 
L 70.66532 118.55324 
L 73.332132 117.272178 
L 74.665537 116.731904 
L 77.332349 115.942844 
L 81.332566 114.034247 
L 82.665971 113.538531 
L 85.332783 113.183918 
L 87.999594 113.839302 
L 89.333 114.357297 
L 93.333217 116.479405 
L 94.666622 116.434846 
L 97.333434 117.584089 
L 101.333651 119.656068 
L 102.667056 120.747756 
L 108.000679 127.791741 
L 109.334085 128.84444 
L 110.66749 129.557379 
L 112.000896 129.722618 
L 114.667707 129.264035 
L 116.001113 129.497968 
L 117.334519 130.09394 
L 118.667924 130.378002 
L 120.00133 130.216477 
L 121.334736 130.361292 
L 122.668141 130.023389 
L 124.001547 129.303024 
L 125.334953 129.026388 
L 126.668358 128.467548 
L 128.001764 127.684058 
L 130.668575 125.537814 
L 132.001981 124.646641 
L 133.335387 123.449126 
L 134.668792 122.026961 
L 136.002198 121.068949 
L 138.669009 119.576233 
L 140.002415 119.383146 
L 141.335821 119.060095 
L 145.336038 116.926848 
L 146.669443 116.741187 
L 154.669877 116.655783 
L 156.003283 117.025248 
L 160.0035 117.30374 
L 161.336906 116.962124 
L 164.003717 117.257325 
L 165.337123 116.787602 
L 166.670528 115.981833 
L 168.003934 115.909425 
L 170.670745 117.058668 
L 174.670962 120.72362 
L 176.004368 122.201483 
L 178.671179 123.916992 
L 181.337991 126.553381 
L 182.671396 127.385143 
L 184.004802 127.775032 
L 185.338208 128.772032 
L 186.671613 129.41442 
L 188.005019 129.837728 
L 189.338425 129.960264 
L 190.67183 130.223903 
L 192.005236 130.030815 
L 193.338642 129.674346 
L 194.672047 129.581515 
L 196.005453 129.631644 
L 198.672264 130.866291 
L 201.339075 132.459264 
L 202.672481 133.016247 
L 205.339292 133.643782 
L 206.672698 133.667918 
L 208.006104 133.274317 
L 209.339509 132.449981 
L 210.672915 131.861435 
L 212.006321 131.081658 
L 213.339726 130.56552 
L 217.339943 130.084657 
L 218.673349 129.847011 
L 220.006755 129.258465 
L 221.34016 129.145211 
L 226.673783 127.479831 
L 228.007189 127.219905 
L 229.340594 127.130787 
L 232.007406 126.005681 
L 234.674217 124.31802 
L 236.007623 123.9894 
L 238.674434 124.111936 
L 240.00784 123.965264 
L 242.674651 124.969691 
L 245.341462 126.646212 
L 246.674868 127.676631 
L 248.008274 128.28003 
L 249.341679 128.393284 
L 250.675085 128.786885 
L 252.008491 128.632787 
L 256.008708 128.638356 
L 257.342113 128.818448 
L 258.675519 129.282601 
L 260.008925 129.934272 
L 261.34233 130.236899 
L 262.675736 131.514248 
L 264.009142 132.262463 
L 266.675953 131.805736 
L 268.009359 131.807593 
L 270.67617 132.212334 
L 273.342981 132.93827 
L 274.676387 132.574374 
L 277.343198 132.47783 
L 278.676604 132.37386 
L 280.01001 132.854722 
L 281.343415 132.448124 
L 284.010227 130.832872 
L 285.343632 129.616791 
L 286.677038 128.224332 
L 288.010444 127.279316 
L 289.343849 126.594227 
L 290.677255 125.615792 
L 292.010661 124.395998 
L 294.677472 121.601797 
L 297.344283 118.371292 
L 298.677689 117.717765 
L 300.011095 117.31488 
L 302.677906 115.358011 
L 304.011312 114.349871 
L 306.678123 113.202484 
L 308.011529 112.851585 
L 309.344934 113.13936 
L 310.67834 113.920993 
L 312.011746 114.548528 
L 314.678557 116.210196 
L 316.011963 116.843301 
L 317.345368 118.050098 
L 318.678774 118.488259 
L 321.345585 120.123934 
L 324.012397 121.356724 
L 325.345802 121.761466 
L 326.679208 122.045527 
L 328.012614 122.190343 
L 328.012614 122.190343 
" clip-path="url(#p03015106df)" style="fill: none; stroke: #0000ff; stroke-opacity: 0.5; stroke-width: 2; stroke-linecap: square"/>
   </g>
   <g id="line2d_26">
    <path d="M 62.664886 128.731187 
L 67.102139 128.586371 
L 67.98959 128.263321 
L 68.877041 128.218762 
L 69.764491 127.870647 
L 70.651942 127.294169 
L 72.426843 126.75668 
L 73.314293 126.848582 
L 75.089195 125.982473 
L 76.864096 125.976903 
L 77.751546 125.308523 
L 81.301349 120.936202 
L 82.188799 120.48783 
L 83.07625 120.710623 
L 83.963701 120.593657 
L 84.851151 120.769107 
L 85.738602 121.259252 
L 86.626052 122.910708 
L 87.513503 125.041171 
L 88.400954 126.759465 
L 90.175855 130.878359 
L 91.950756 134.047595 
L 93.725657 135.142068 
L 94.613108 135.582085 
L 95.500558 135.857792 
L 96.388009 135.685127 
L 98.16291 137.183413 
L 99.937811 138.375358 
L 100.825262 138.614861 
L 101.712712 138.422702 
L 102.600163 137.885212 
L 103.487614 137.921416 
L 105.262515 139.230328 
L 107.037416 140.837225 
L 108.812317 142.341081 
L 109.699768 142.914774 
L 110.587218 143.326942 
L 111.474669 143.446694 
L 113.24957 143.928484 
L 114.137021 144.014817 
L 115.024471 144.301663 
L 115.911922 144.438124 
L 117.686823 143.084654 
L 118.574274 142.134997 
L 119.461724 140.739753 
L 121.236625 135.855007 
L 122.124076 133.799738 
L 124.786428 128.6365 
L 126.561329 125.450554 
L 127.44878 124.796098 
L 129.223681 124.687486 
L 130.111131 124.926989 
L 130.998582 125.612079 
L 131.886033 125.960194 
L 132.773483 125.840442 
L 135.435835 124.244684 
L 136.323286 123.403639 
L 138.985637 123.86872 
L 140.760539 123.105653 
L 142.53544 123.010966 
L 143.42289 123.361865 
L 146.085242 126.316663 
L 146.972693 127.678488 
L 147.860143 128.27446 
L 149.635044 130.527459 
L 150.522495 131.875359 
L 151.409946 133.429344 
L 152.297396 134.663062 
L 153.184847 135.389926 
L 154.072297 136.459334 
L 154.959748 136.804664 
L 155.847199 136.882642 
L 156.734649 136.821374 
L 157.6221 136.453765 
L 160.284452 133.838727 
L 161.171902 133.55745 
L 162.946803 134.379001 
L 164.721705 134.860791 
L 165.609155 134.482043 
L 167.384056 133.966833 
L 168.271507 133.390355 
L 169.158958 132.1817 
L 170.933859 129.207408 
L 174.483661 121.618507 
L 175.371112 120.170349 
L 176.258562 119.081446 
L 177.146013 118.708267 
L 178.033463 118.685988 
L 178.920914 118.332303 
L 179.808365 118.229261 
L 180.695815 117.78089 
L 181.583266 117.786459 
L 182.470716 118.000898 
L 183.358167 118.571806 
L 185.133068 119.404497 
L 186.907969 120.526819 
L 187.79542 121.184059 
L 189.570321 122.863365 
L 191.345222 123.977332 
L 192.232673 124.726475 
L 193.120124 125.141428 
L 195.782475 123.063879 
L 196.669926 122.072448 
L 198.444827 118.198627 
L 199.332278 115.876006 
L 201.107179 111.879648 
L 201.994629 109.877292 
L 202.88208 108.579521 
L 203.769531 107.070095 
L 204.656981 106.220695 
L 206.431882 105.454843 
L 207.319333 104.920138 
L 208.206784 104.198845 
L 211.756586 104.023395 
L 213.531487 104.477336 
L 214.418938 104.338091 
L 215.306388 104.516325 
L 216.193839 104.87001 
L 217.08129 105.393574 
L 217.96874 105.53839 
L 219.743641 105.237619 
L 220.631092 104.844946 
L 221.518542 104.741904 
L 222.405993 104.811527 
L 223.293444 104.485691 
L 224.180894 103.204629 
L 226.843246 98.528752 
L 227.730697 97.670997 
L 228.618147 97.281108 
L 229.505598 97.651502 
L 230.393048 98.517612 
L 232.16795 99.027252 
L 233.0554 99.450559 
L 233.942851 100.230337 
L 234.830301 101.182778 
L 235.717752 102.374723 
L 236.605203 104.611012 
L 237.492653 107.459984 
L 238.380104 109.529178 
L 239.267554 111.200128 
L 240.155005 112.364224 
L 241.042456 113.781747 
L 241.929906 114.386075 
L 243.704807 115.8955 
L 245.479708 116.75047 
L 248.14206 116.321593 
L 249.916961 116.884146 
L 250.804412 116.953769 
L 251.691863 117.41328 
L 252.579313 118.477119 
L 255.241665 124.236329 
L 257.016566 129.040313 
L 257.904017 130.741898 
L 258.791467 131.234828 
L 259.678918 132.117647 
L 260.566369 132.268033 
L 261.453819 132.284742 
L 262.34127 133.017176 
L 263.22872 134.097724 
L 264.116171 134.938769 
L 265.891072 137.138854 
L 266.778523 138.573087 
L 267.665973 139.127286 
L 268.553424 138.525744 
L 269.440875 137.350508 
L 270.328325 136.648709 
L 271.215776 135.774245 
L 272.990677 133.242754 
L 275.653029 128.558522 
L 279.202831 125.07459 
L 280.977732 121.905353 
L 281.865183 119.925276 
L 284.527535 114.792673 
L 286.302436 112.277892 
L 287.189886 111.846229 
L 288.077337 111.879648 
L 288.964788 112.286246 
L 290.739689 113.909854 
L 291.627139 114.70077 
L 292.51459 115.828662 
L 293.402041 116.711481 
L 294.289491 118.312809 
L 296.064392 121.047598 
L 296.951843 122.576518 
L 297.839293 123.275533 
L 298.726744 123.448198 
L 300.501645 124.144427 
L 301.389096 124.250254 
L 302.276546 124.163922 
L 303.163997 124.690271 
L 304.051448 126.130074 
L 304.938898 128.071161 
L 305.826349 129.580587 
L 306.713799 130.808736 
L 307.60125 131.557879 
L 308.488701 131.839155 
L 309.376151 132.460192 
L 310.263602 133.265033 
L 311.151052 133.746824 
L 312.038503 133.819232 
L 312.925954 133.420989 
L 313.813404 132.524245 
L 314.700855 131.16799 
L 315.588305 129.608436 
L 318.250657 123.968977 
L 319.138108 122.401068 
L 320.025558 121.649141 
L 320.913009 121.122791 
L 322.68791 120.930632 
L 323.575361 120.390358 
L 324.462811 119.669064 
L 325.350262 118.652569 
L 326.237712 118.184703 
L 328.012614 117.803169 
L 328.012614 117.803169 
" clip-path="url(#p03015106df)" style="fill: none; stroke: #ff0000; stroke-opacity: 0.5; stroke-width: 2; stroke-linecap: square"/>
   </g>
   <g id="line2d_27">
    <path d="M 62.664886 115.606797 
L 64.659982 115.569665 
L 65.325014 115.9447 
L 67.985142 120.025533 
L 68.650173 120.452554 
L 69.315205 120.348584 
L 69.980237 119.657924 
L 71.975333 119.089801 
L 72.640365 118.629361 
L 73.305397 118.306311 
L 73.970429 117.285174 
L 74.635461 116.468265 
L 76.630556 111.462839 
L 77.295588 110.523393 
L 77.96062 109.843873 
L 78.625652 108.982405 
L 79.290684 107.604799 
L 79.955716 105.90043 
L 80.620748 105.336019 
L 81.950811 105.803886 
L 82.615843 106.086091 
L 83.280875 107.00697 
L 85.275971 110.824164 
L 85.941003 112.394858 
L 86.606035 114.325735 
L 87.271067 115.584518 
L 87.936098 116.546243 
L 89.931194 118.543957 
L 90.596226 119.501969 
L 91.92629 120.508253 
L 92.591322 120.890715 
L 94.586417 121.469978 
L 95.251449 122.08266 
L 95.916481 122.364865 
L 96.581513 122.223762 
L 97.246545 122.398284 
L 97.911577 122.398284 
L 98.576609 122.702768 
L 99.241641 123.248612 
L 99.906673 123.627361 
L 100.571705 124.314307 
L 101.236736 125.439414 
L 102.5668 128.179773 
L 103.231832 129.171204 
L 103.896864 130.370575 
L 104.561896 132.071232 
L 105.226928 133.025531 
L 105.89196 134.343725 
L 106.556992 136.155778 
L 107.222024 137.403422 
L 107.887055 138.379999 
L 108.552087 139.156063 
L 109.882151 141.42113 
L 110.547183 141.914989 
L 111.212215 142.026385 
L 111.877247 141.99668 
L 113.207311 141.272601 
L 113.872343 140.904992 
L 114.537374 140.266317 
L 115.202406 140.039811 
L 116.53247 140.151207 
L 117.197502 139.961833 
L 117.862534 139.609077 
L 119.192598 139.683341 
L 119.85763 139.898708 
L 120.522661 140.336869 
L 123.182789 146.107219 
L 123.847821 147.172914 
L 124.512853 147.466259 
L 125.177885 146.771886 
L 126.507949 145.851006 
L 127.17298 145.030384 
L 127.838012 143.957262 
L 129.168076 143.392852 
L 129.833108 142.679913 
L 130.49814 140.652493 
L 131.828204 135.446553 
L 132.493236 133.72733 
L 133.158268 132.791597 
L 133.823299 132.591083 
L 134.488331 132.190055 
L 135.153363 132.045239 
L 135.818395 131.714762 
L 136.483427 131.543954 
L 137.148459 131.142926 
L 137.813491 130.99811 
L 138.478523 131.168919 
L 139.143555 130.912706 
L 139.808587 129.828445 
L 140.473618 128.443412 
L 141.13865 128.101796 
L 141.803682 129.204623 
L 142.468714 130.084657 
L 143.133746 130.615648 
L 144.46381 130.069804 
L 145.128842 131.064948 
L 145.793874 132.475973 
L 147.788969 133.530529 
L 148.454001 134.488541 
L 149.119033 134.755893 
L 149.784065 134.380857 
L 150.449097 134.38457 
L 151.114129 133.835013 
L 151.779161 133.055236 
L 153.109224 132.201195 
L 153.774256 131.503109 
L 154.439288 131.142926 
L 156.434384 129.598225 
L 157.099416 129.453409 
L 158.42948 129.509107 
L 160.424575 130.415134 
L 161.754639 131.911563 
L 162.419671 132.386856 
L 163.084703 133.701337 
L 163.749735 135.301737 
L 164.414767 137.514818 
L 165.079799 138.457977 
L 165.744831 139.193196 
L 166.409862 139.631356 
L 167.074894 139.471687 
L 167.739926 139.449408 
L 169.06999 139.007534 
L 170.400054 137.188055 
L 171.730118 135.153208 
L 173.060181 132.628216 
L 175.720309 125.547097 
L 176.385341 124.388572 
L 177.050373 123.694199 
L 178.380437 122.784459 
L 179.045469 122.119792 
L 179.7105 121.997255 
L 180.375532 122.602511 
L 181.040564 122.357438 
L 181.705596 122.372291 
L 182.370628 122.773319 
L 183.700692 123.044385 
L 185.030756 124.199197 
L 185.695787 123.913279 
L 186.360819 123.055524 
L 187.025851 122.572805 
L 187.690883 122.673062 
L 188.355915 122.643356 
L 189.020947 122.940414 
L 189.685979 122.695341 
L 190.351011 121.971263 
L 191.016043 121.607367 
L 191.681075 121.83016 
L 192.346106 122.936701 
L 193.011138 123.055524 
L 193.67617 121.462551 
L 195.006234 116.271464 
L 195.671266 114.102941 
L 196.336298 113.260039 
L 197.00133 113.137503 
L 197.666362 113.360296 
L 198.331394 113.727906 
L 198.996425 114.496543 
L 199.661457 115.023821 
L 200.326489 116.044957 
L 201.656553 117.162638 
L 202.321585 118.083517 
L 202.986617 119.35344 
L 204.316681 121.369721 
L 204.981713 123.233759 
L 206.976808 127.054666 
L 207.64184 127.986686 
L 208.971904 129.52396 
L 209.636936 129.720761 
L 210.301968 129.464549 
L 210.967 128.940984 
L 211.632031 128.621647 
L 212.297063 128.06095 
L 213.627127 128.205766 
L 214.292159 127.470547 
L 214.957191 127.188342 
L 216.287255 124.871291 
L 216.952287 123.86872 
L 217.617319 122.654496 
L 218.28235 122.067807 
L 218.947382 121.919278 
L 220.277446 122.973833 
L 220.942478 122.932988 
L 221.60751 122.205196 
L 222.272542 121.781888 
L 222.937574 121.733616 
L 224.267638 120.912994 
L 225.597701 120.604796 
L 226.262733 119.995828 
L 226.927765 120.229761 
L 228.257829 120.006967 
L 228.922861 119.505682 
L 229.587893 119.375719 
L 230.252925 119.104654 
L 230.917957 118.536531 
L 231.582988 118.157782 
L 232.24802 117.385431 
L 232.913052 117.192344 
L 235.57318 118.937559 
L 236.903244 119.316308 
L 237.568276 119.149213 
L 238.233307 118.744471 
L 239.563371 116.445986 
L 240.893435 113.505112 
L 241.558467 113.040959 
L 242.223499 113.200628 
L 243.553563 113.909854 
L 244.218594 114.693344 
L 244.883626 114.808454 
L 246.21369 114.451984 
L 247.543754 114.500256 
L 248.873818 113.026106 
L 249.53885 113.783604 
L 250.203882 115.291173 
L 250.868913 115.733047 
L 251.533945 116.568522 
L 252.198977 116.902712 
L 252.864009 117.403997 
L 253.529041 117.366865 
L 254.194073 117.058668 
L 255.524137 115.688488 
L 256.189169 115.324592 
L 256.854201 114.72305 
L 257.519232 114.288602 
L 258.184264 113.453127 
L 258.849296 113.033533 
L 260.17936 111.121222 
L 260.844392 110.723907 
L 262.174456 111.863867 
L 263.50452 114.912424 
L 264.834583 117.147785 
L 265.499615 118.272892 
L 266.829679 121.845013 
L 268.159743 126.215478 
L 268.824775 128.606794 
L 269.489807 131.740755 
L 270.81987 137.150922 
L 272.149934 142.327157 
L 272.814966 144.269173 
L 273.479998 145.104648 
L 274.14503 145.223471 
L 274.810062 144.477113 
L 276.805157 141.343152 
L 278.135221 139.720473 
L 278.800253 138.491396 
L 279.465285 136.553093 
L 282.790445 119.22719 
L 283.455476 116.913852 
L 284.78554 113.553384 
L 285.450572 111.373722 
L 286.115604 109.673065 
L 287.445668 107.140646 
L 288.1107 106.420281 
L 289.440764 105.465982 
L 290.105795 105.65907 
L 290.770827 106.138076 
L 291.435859 105.996973 
L 292.100891 106.045245 
L 292.765923 106.836162 
L 293.430955 107.816453 
L 295.426051 112.116366 
L 296.091083 113.185775 
L 296.756114 113.534818 
L 297.421146 113.620222 
L 298.086178 114.385146 
L 299.416242 116.200913 
L 300.081274 116.976977 
L 300.746306 117.44113 
L 301.411338 118.146642 
L 302.07637 118.651641 
L 302.741402 118.614508 
L 304.071465 119.334874 
L 304.736497 118.818736 
L 305.401529 117.838445 
L 306.066561 117.481975 
L 306.731593 117.307454 
L 307.396625 116.672492 
L 308.061657 116.338302 
L 308.726689 116.880433 
L 309.39172 117.229476 
L 310.056752 117.860724 
L 311.386816 119.832446 
L 312.051848 119.940129 
L 312.71688 119.843585 
L 313.381912 119.178918 
L 314.046944 118.88186 
L 314.711976 118.967265 
L 315.377008 118.878147 
L 316.042039 117.949841 
L 317.372103 115.588231 
L 318.702167 114.890145 
L 320.032231 115.320879 
L 320.697263 116.145214 
L 322.027327 118.128076 
L 322.692358 118.45484 
L 323.35739 117.827305 
L 324.022422 118.265465 
L 325.352486 118.10951 
L 326.68255 118.491972 
L 327.347582 118.376862 
L 328.012614 118.484546 
L 328.012614 118.484546 
" clip-path="url(#p03015106df)" style="fill: none; stroke: #008000; stroke-opacity: 0.5; stroke-width: 2; stroke-linecap: square"/>
   </g>
   <g id="patch_3">
    <path d="M 49.3975 234.5525 
L 49.3975 11.759062 
" style="fill: none; stroke: #000000; stroke-width: 2; stroke-linejoin: miter; stroke-linecap: square"/>
   </g>
   <g id="patch_4">
    <path d="M 341.28 234.5525 
L 341.28 11.759062 
" style="fill: none; stroke: #000000; stroke-width: 2; stroke-linejoin: miter; stroke-linecap: square"/>
   </g>
   <g id="patch_5">
    <path d="M 49.3975 234.5525 
L 341.28 234.5525 
" style="fill: none; stroke: #000000; stroke-width: 2; stroke-linejoin: miter; stroke-linecap: square"/>
   </g>
   <g id="patch_6">
    <path d="M 49.3975 11.759062 
L 341.28 11.759062 
" style="fill: none; stroke: #000000; stroke-width: 2; stroke-linejoin: miter; stroke-linecap: square"/>
   </g>
   <g id="legend_1">
    <g id="line2d_28">
     <path d="M 245.26125 27.477188 
L 257.26125 27.477188 
L 269.26125 27.477188 
" style="fill: none; stroke: #0000ff; stroke-opacity: 0.5; stroke-width: 2; stroke-linecap: square"/>
    </g>
    <g id="text_15">
     <!-- yz-plane -->
     <g transform="translate(278.86125 31.677188)scale(0.12 -0.12)">
      <defs>
       <path id="DejaVuSans-7a" d="M 353 3500 
L 3084 3500 
L 3084 2975 
L 922 459 
L 3084 459 
L 3084 0 
L 275 0 
L 275 525 
L 2438 3041 
L 353 3041 
L 353 3500 
z
" transform="scale(0.015625)"/>
       <path id="DejaVuSans-2d" d="M 313 2009 
L 1997 2009 
L 1997 1497 
L 313 1497 
L 313 2009 
z
" transform="scale(0.015625)"/>
       <path id="DejaVuSans-70" d="M 1159 525 
L 1159 -1331 
L 581 -1331 
L 581 3500 
L 1159 3500 
L 1159 2969 
Q 1341 3281 1617 3432 
Q 1894 3584 2278 3584 
Q 2916 3584 3314 3078 
Q 3713 2572 3713 1747 
Q 3713 922 3314 415 
Q 2916 -91 2278 -91 
Q 1894 -91 1617 61 
Q 1341 213 1159 525 
z
M 3116 1747 
Q 3116 2381 2855 2742 
Q 2594 3103 2138 3103 
Q 1681 3103 1420 2742 
Q 1159 2381 1159 1747 
Q 1159 1113 1420 752 
Q 1681 391 2138 391 
Q 2594 391 2855 752 
Q 3116 1113 3116 1747 
z
" transform="scale(0.015625)"/>
      </defs>
      <use xlink:href="#DejaVuSans-79"/>
      <use xlink:href="#DejaVuSans-7a" x="59.179688"/>
      <use xlink:href="#DejaVuSans-2d" x="111.669922"/>
      <use xlink:href="#DejaVuSans-70" x="147.753906"/>
      <use xlink:href="#DejaVuSans-6c" x="211.230469"/>
      <use xlink:href="#DejaVuSans-61" x="239.013672"/>
      <use xlink:href="#DejaVuSans-6e" x="300.292969"/>
      <use xlink:href="#DejaVuSans-65" x="363.671875"/>
     </g>
    </g>
    <g id="line2d_29">
     <path d="M 245.26125 45.090938 
L 257.26125 45.090938 
L 269.26125 45.090938 
" style="fill: none; stroke: #ff0000; stroke-opacity: 0.5; stroke-width: 2; stroke-linecap: square"/>
    </g>
    <g id="text_16">
     <!-- xz-plane -->
     <g transform="translate(278.86125 49.290938)scale(0.12 -0.12)">
      <use xlink:href="#DejaVuSans-78"/>
      <use xlink:href="#DejaVuSans-7a" x="59.179688"/>
      <use xlink:href="#DejaVuSans-2d" x="111.669922"/>
      <use xlink:href="#DejaVuSans-70" x="147.753906"/>
      <use xlink:href="#DejaVuSans-6c" x="211.230469"/>
      <use xlink:href="#DejaVuSans-61" x="239.013672"/>
      <use xlink:href="#DejaVuSans-6e" x="300.292969"/>
      <use xlink:href="#DejaVuSans-65" x="363.671875"/>
     </g>
    </g>
    <g id="line2d_30">
     <path d="M 245.26125 62.704687 
L 257.26125 62.704687 
L 269.26125 62.704687 
" style="fill: none; stroke: #008000; stroke-opacity: 0.5; stroke-width: 2; stroke-linecap: square"/>
    </g>
    <g id="text_17">
     <!-- xy-plane -->
     <g transform="translate(278.86125 66.904687)scale(0.12 -0.12)">
      <use xlink:href="#DejaVuSans-78"/>
      <use xlink:href="#DejaVuSans-79" x="59.179688"/>
      <use xlink:href="#DejaVuSans-2d" x="116.609375"/>
      <use xlink:href="#DejaVuSans-70" x="152.693359"/>
      <use xlink:href="#DejaVuSans-6c" x="216.169922"/>
      <use xlink:href="#DejaVuSans-61" x="243.953125"/>
      <use xlink:href="#DejaVuSans-6e" x="305.232422"/>
      <use xlink:href="#DejaVuSans-65" x="368.611328"/>
     </g>
    </g>
   </g>
  </g>
 </g>
 <defs>
  <clipPath id="p03015106df">
   <rect x="49.3975" y="11.759062" width="291.8825" height="222.793437"/>
  </clipPath>
 </defs>
</svg>
