<?xml version="1.0" encoding="utf-8" standalone="no"?>
<!DOCTYPE svg PUBLIC "-//W3C//DTD SVG 1.1//EN"
  "http://www.w3.org/Graphics/SVG/1.1/DTD/svg11.dtd">
<svg xmlns:xlink="http://www.w3.org/1999/xlink" width="348.48pt" height="276.48pt" viewBox="0 0 348.48 276.48" xmlns="http://www.w3.org/2000/svg" version="1.1">
 <metadata>
  <rdf:RDF xmlns:dc="http://purl.org/dc/elements/1.1/" xmlns:cc="http://creativecommons.org/ns#" xmlns:rdf="http://www.w3.org/1999/02/22-rdf-syntax-ns#">
   <cc:Work>
    <dc:type rdf:resource="http://purl.org/dc/dcmitype/StillImage"/>
    <dc:date>2022-09-09T11:04:21.281207</dc:date>
    <dc:format>image/svg+xml</dc:format>
    <dc:creator>
     <cc:Agent>
      <dc:title>Matplotlib v3.5.3, https://matplotlib.org/</dc:title>
     </cc:Agent>
    </dc:creator>
   </cc:Work>
  </rdf:RDF>
 </metadata>
 <defs>
  <style type="text/css">*{stroke-linejoin: round; stroke-linecap: butt}</style>
 </defs>
 <g id="figure_1">
  <g id="patch_1">
   <path d="M 0 276.48 
L 348.48 276.48 
L 348.48 0 
L 0 0 
z
" style="fill: #ffffff"/>
  </g>
  <g id="axes_1">
   <g id="patch_2">
    <path d="M 49.3975 234.5525 
L 341.28 234.5525 
L 341.28 11.759062 
L 49.3975 11.759062 
z
" style="fill: #ffffff"/>
   </g>
   <g id="matplotlib.axis_1">
    <g id="xtick_1">
     <g id="line2d_1">
      <defs>
       <path id="mbf2d41082e" d="M 0 0 
L 0 -6 
" style="stroke: #000000; stroke-width: 2"/>
      </defs>
      <g>
       <use xlink:href="#mbf2d41082e" x="62.664886" y="234.5525" style="fill: #ffffff; stroke: #000000; stroke-width: 2"/>
      </g>
     </g>
     <g id="line2d_2">
      <defs>
       <path id="m14d2aa717b" d="M 0 0 
L 0 6 
" style="stroke: #000000; stroke-width: 2"/>
      </defs>
      <g>
       <use xlink:href="#m14d2aa717b" x="62.664886" y="11.759062" style="fill: #ffffff; stroke: #000000; stroke-width: 2"/>
      </g>
     </g>
     <g id="text_1">
      <!-- 0 -->
      <g transform="translate(58.847386 247.170625)scale(0.12 -0.12)">
       <defs>
        <path id="DejaVuSans-30" d="M 2034 4250 
Q 1547 4250 1301 3770 
Q 1056 3291 1056 2328 
Q 1056 1369 1301 889 
Q 1547 409 2034 409 
Q 2525 409 2770 889 
Q 3016 1369 3016 2328 
Q 3016 3291 2770 3770 
Q 2525 4250 2034 4250 
z
M 2034 4750 
Q 2819 4750 3233 4129 
Q 3647 3509 3647 2328 
Q 3647 1150 3233 529 
Q 2819 -91 2034 -91 
Q 1250 -91 836 529 
Q 422 1150 422 2328 
Q 422 3509 836 4129 
Q 1250 4750 2034 4750 
z
" transform="scale(0.015625)"/>
       </defs>
       <use xlink:href="#DejaVuSans-30"/>
      </g>
     </g>
    </g>
    <g id="xtick_2">
     <g id="line2d_3">
      <g>
       <use xlink:href="#mbf2d41082e" x="118.882625" y="234.5525" style="fill: #ffffff; stroke: #000000; stroke-width: 2"/>
      </g>
     </g>
     <g id="line2d_4">
      <g>
       <use xlink:href="#m14d2aa717b" x="118.882625" y="11.759062" style="fill: #ffffff; stroke: #000000; stroke-width: 2"/>
      </g>
     </g>
     <g id="text_2">
      <!-- 500 -->
      <g transform="translate(107.430125 247.170625)scale(0.12 -0.12)">
       <defs>
        <path id="DejaVuSans-35" d="M 691 4666 
L 3169 4666 
L 3169 4134 
L 1269 4134 
L 1269 2991 
Q 1406 3038 1543 3061 
Q 1681 3084 1819 3084 
Q 2600 3084 3056 2656 
Q 3513 2228 3513 1497 
Q 3513 744 3044 326 
Q 2575 -91 1722 -91 
Q 1428 -91 1123 -41 
Q 819 9 494 109 
L 494 744 
Q 775 591 1075 516 
Q 1375 441 1709 441 
Q 2250 441 2565 725 
Q 2881 1009 2881 1497 
Q 2881 1984 2565 2268 
Q 2250 2553 1709 2553 
Q 1456 2553 1204 2497 
Q 953 2441 691 2322 
L 691 4666 
z
" transform="scale(0.015625)"/>
       </defs>
       <use xlink:href="#DejaVuSans-35"/>
       <use xlink:href="#DejaVuSans-30" x="63.623047"/>
       <use xlink:href="#DejaVuSans-30" x="127.246094"/>
      </g>
     </g>
    </g>
    <g id="xtick_3">
     <g id="line2d_5">
      <g>
       <use xlink:href="#mbf2d41082e" x="175.100364" y="234.5525" style="fill: #ffffff; stroke: #000000; stroke-width: 2"/>
      </g>
     </g>
     <g id="line2d_6">
      <g>
       <use xlink:href="#m14d2aa717b" x="175.100364" y="11.759062" style="fill: #ffffff; stroke: #000000; stroke-width: 2"/>
      </g>
     </g>
     <g id="text_3">
      <!-- 1000 -->
      <g transform="translate(159.830364 247.170625)scale(0.12 -0.12)">
       <defs>
        <path id="DejaVuSans-31" d="M 794 531 
L 1825 531 
L 1825 4091 
L 703 3866 
L 703 4441 
L 1819 4666 
L 2450 4666 
L 2450 531 
L 3481 531 
L 3481 0 
L 794 0 
L 794 531 
z
" transform="scale(0.015625)"/>
       </defs>
       <use xlink:href="#DejaVuSans-31"/>
       <use xlink:href="#DejaVuSans-30" x="63.623047"/>
       <use xlink:href="#DejaVuSans-30" x="127.246094"/>
       <use xlink:href="#DejaVuSans-30" x="190.869141"/>
      </g>
     </g>
    </g>
    <g id="xtick_4">
     <g id="line2d_7">
      <g>
       <use xlink:href="#mbf2d41082e" x="231.318103" y="234.5525" style="fill: #ffffff; stroke: #000000; stroke-width: 2"/>
      </g>
     </g>
     <g id="line2d_8">
      <g>
       <use xlink:href="#m14d2aa717b" x="231.318103" y="11.759062" style="fill: #ffffff; stroke: #000000; stroke-width: 2"/>
      </g>
     </g>
     <g id="text_4">
      <!-- 1500 -->
      <g transform="translate(216.048103 247.170625)scale(0.12 -0.12)">
       <use xlink:href="#DejaVuSans-31"/>
       <use xlink:href="#DejaVuSans-35" x="63.623047"/>
       <use xlink:href="#DejaVuSans-30" x="127.246094"/>
       <use xlink:href="#DejaVuSans-30" x="190.869141"/>
      </g>
     </g>
    </g>
    <g id="xtick_5">
     <g id="line2d_9">
      <g>
       <use xlink:href="#mbf2d41082e" x="287.535842" y="234.5525" style="fill: #ffffff; stroke: #000000; stroke-width: 2"/>
      </g>
     </g>
     <g id="line2d_10">
      <g>
       <use xlink:href="#m14d2aa717b" x="287.535842" y="11.759062" style="fill: #ffffff; stroke: #000000; stroke-width: 2"/>
      </g>
     </g>
     <g id="text_5">
      <!-- 2000 -->
      <g transform="translate(272.265842 247.170625)scale(0.12 -0.12)">
       <defs>
        <path id="DejaVuSans-32" d="M 1228 531 
L 3431 531 
L 3431 0 
L 469 0 
L 469 531 
Q 828 903 1448 1529 
Q 2069 2156 2228 2338 
Q 2531 2678 2651 2914 
Q 2772 3150 2772 3378 
Q 2772 3750 2511 3984 
Q 2250 4219 1831 4219 
Q 1534 4219 1204 4116 
Q 875 4013 500 3803 
L 500 4441 
Q 881 4594 1212 4672 
Q 1544 4750 1819 4750 
Q 2544 4750 2975 4387 
Q 3406 4025 3406 3419 
Q 3406 3131 3298 2873 
Q 3191 2616 2906 2266 
Q 2828 2175 2409 1742 
Q 1991 1309 1228 531 
z
" transform="scale(0.015625)"/>
       </defs>
       <use xlink:href="#DejaVuSans-32"/>
       <use xlink:href="#DejaVuSans-30" x="63.623047"/>
       <use xlink:href="#DejaVuSans-30" x="127.246094"/>
       <use xlink:href="#DejaVuSans-30" x="190.869141"/>
      </g>
     </g>
    </g>
    <g id="text_6">
     <!-- Position of slice along given axis -->
     <g transform="translate(98.045 266.784375)scale(0.12 -0.12)">
      <defs>
       <path id="DejaVuSans-50" d="M 1259 4147 
L 1259 2394 
L 2053 2394 
Q 2494 2394 2734 2622 
Q 2975 2850 2975 3272 
Q 2975 3691 2734 3919 
Q 2494 4147 2053 4147 
L 1259 4147 
z
M 628 4666 
L 2053 4666 
Q 2838 4666 3239 4311 
Q 3641 3956 3641 3272 
Q 3641 2581 3239 2228 
Q 2838 1875 2053 1875 
L 1259 1875 
L 1259 0 
L 628 0 
L 628 4666 
z
" transform="scale(0.015625)"/>
       <path id="DejaVuSans-6f" d="M 1959 3097 
Q 1497 3097 1228 2736 
Q 959 2375 959 1747 
Q 959 1119 1226 758 
Q 1494 397 1959 397 
Q 2419 397 2687 759 
Q 2956 1122 2956 1747 
Q 2956 2369 2687 2733 
Q 2419 3097 1959 3097 
z
M 1959 3584 
Q 2709 3584 3137 3096 
Q 3566 2609 3566 1747 
Q 3566 888 3137 398 
Q 2709 -91 1959 -91 
Q 1206 -91 779 398 
Q 353 888 353 1747 
Q 353 2609 779 3096 
Q 1206 3584 1959 3584 
z
" transform="scale(0.015625)"/>
       <path id="DejaVuSans-73" d="M 2834 3397 
L 2834 2853 
Q 2591 2978 2328 3040 
Q 2066 3103 1784 3103 
Q 1356 3103 1142 2972 
Q 928 2841 928 2578 
Q 928 2378 1081 2264 
Q 1234 2150 1697 2047 
L 1894 2003 
Q 2506 1872 2764 1633 
Q 3022 1394 3022 966 
Q 3022 478 2636 193 
Q 2250 -91 1575 -91 
Q 1294 -91 989 -36 
Q 684 19 347 128 
L 347 722 
Q 666 556 975 473 
Q 1284 391 1588 391 
Q 1994 391 2212 530 
Q 2431 669 2431 922 
Q 2431 1156 2273 1281 
Q 2116 1406 1581 1522 
L 1381 1569 
Q 847 1681 609 1914 
Q 372 2147 372 2553 
Q 372 3047 722 3315 
Q 1072 3584 1716 3584 
Q 2034 3584 2315 3537 
Q 2597 3491 2834 3397 
z
" transform="scale(0.015625)"/>
       <path id="DejaVuSans-69" d="M 603 3500 
L 1178 3500 
L 1178 0 
L 603 0 
L 603 3500 
z
M 603 4863 
L 1178 4863 
L 1178 4134 
L 603 4134 
L 603 4863 
z
" transform="scale(0.015625)"/>
       <path id="DejaVuSans-74" d="M 1172 4494 
L 1172 3500 
L 2356 3500 
L 2356 3053 
L 1172 3053 
L 1172 1153 
Q 1172 725 1289 603 
Q 1406 481 1766 481 
L 2356 481 
L 2356 0 
L 1766 0 
Q 1100 0 847 248 
Q 594 497 594 1153 
L 594 3053 
L 172 3053 
L 172 3500 
L 594 3500 
L 594 4494 
L 1172 4494 
z
" transform="scale(0.015625)"/>
       <path id="DejaVuSans-6e" d="M 3513 2113 
L 3513 0 
L 2938 0 
L 2938 2094 
Q 2938 2591 2744 2837 
Q 2550 3084 2163 3084 
Q 1697 3084 1428 2787 
Q 1159 2491 1159 1978 
L 1159 0 
L 581 0 
L 581 3500 
L 1159 3500 
L 1159 2956 
Q 1366 3272 1645 3428 
Q 1925 3584 2291 3584 
Q 2894 3584 3203 3211 
Q 3513 2838 3513 2113 
z
" transform="scale(0.015625)"/>
       <path id="DejaVuSans-20" transform="scale(0.015625)"/>
       <path id="DejaVuSans-66" d="M 2375 4863 
L 2375 4384 
L 1825 4384 
Q 1516 4384 1395 4259 
Q 1275 4134 1275 3809 
L 1275 3500 
L 2222 3500 
L 2222 3053 
L 1275 3053 
L 1275 0 
L 697 0 
L 697 3053 
L 147 3053 
L 147 3500 
L 697 3500 
L 697 3744 
Q 697 4328 969 4595 
Q 1241 4863 1831 4863 
L 2375 4863 
z
" transform="scale(0.015625)"/>
       <path id="DejaVuSans-6c" d="M 603 4863 
L 1178 4863 
L 1178 0 
L 603 0 
L 603 4863 
z
" transform="scale(0.015625)"/>
       <path id="DejaVuSans-63" d="M 3122 3366 
L 3122 2828 
Q 2878 2963 2633 3030 
Q 2388 3097 2138 3097 
Q 1578 3097 1268 2742 
Q 959 2388 959 1747 
Q 959 1106 1268 751 
Q 1578 397 2138 397 
Q 2388 397 2633 464 
Q 2878 531 3122 666 
L 3122 134 
Q 2881 22 2623 -34 
Q 2366 -91 2075 -91 
Q 1284 -91 818 406 
Q 353 903 353 1747 
Q 353 2603 823 3093 
Q 1294 3584 2113 3584 
Q 2378 3584 2631 3529 
Q 2884 3475 3122 3366 
z
" transform="scale(0.015625)"/>
       <path id="DejaVuSans-65" d="M 3597 1894 
L 3597 1613 
L 953 1613 
Q 991 1019 1311 708 
Q 1631 397 2203 397 
Q 2534 397 2845 478 
Q 3156 559 3463 722 
L 3463 178 
Q 3153 47 2828 -22 
Q 2503 -91 2169 -91 
Q 1331 -91 842 396 
Q 353 884 353 1716 
Q 353 2575 817 3079 
Q 1281 3584 2069 3584 
Q 2775 3584 3186 3129 
Q 3597 2675 3597 1894 
z
M 3022 2063 
Q 3016 2534 2758 2815 
Q 2500 3097 2075 3097 
Q 1594 3097 1305 2825 
Q 1016 2553 972 2059 
L 3022 2063 
z
" transform="scale(0.015625)"/>
       <path id="DejaVuSans-61" d="M 2194 1759 
Q 1497 1759 1228 1600 
Q 959 1441 959 1056 
Q 959 750 1161 570 
Q 1363 391 1709 391 
Q 2188 391 2477 730 
Q 2766 1069 2766 1631 
L 2766 1759 
L 2194 1759 
z
M 3341 1997 
L 3341 0 
L 2766 0 
L 2766 531 
Q 2569 213 2275 61 
Q 1981 -91 1556 -91 
Q 1019 -91 701 211 
Q 384 513 384 1019 
Q 384 1609 779 1909 
Q 1175 2209 1959 2209 
L 2766 2209 
L 2766 2266 
Q 2766 2663 2505 2880 
Q 2244 3097 1772 3097 
Q 1472 3097 1187 3025 
Q 903 2953 641 2809 
L 641 3341 
Q 956 3463 1253 3523 
Q 1550 3584 1831 3584 
Q 2591 3584 2966 3190 
Q 3341 2797 3341 1997 
z
" transform="scale(0.015625)"/>
       <path id="DejaVuSans-67" d="M 2906 1791 
Q 2906 2416 2648 2759 
Q 2391 3103 1925 3103 
Q 1463 3103 1205 2759 
Q 947 2416 947 1791 
Q 947 1169 1205 825 
Q 1463 481 1925 481 
Q 2391 481 2648 825 
Q 2906 1169 2906 1791 
z
M 3481 434 
Q 3481 -459 3084 -895 
Q 2688 -1331 1869 -1331 
Q 1566 -1331 1297 -1286 
Q 1028 -1241 775 -1147 
L 775 -588 
Q 1028 -725 1275 -790 
Q 1522 -856 1778 -856 
Q 2344 -856 2625 -561 
Q 2906 -266 2906 331 
L 2906 616 
Q 2728 306 2450 153 
Q 2172 0 1784 0 
Q 1141 0 747 490 
Q 353 981 353 1791 
Q 353 2603 747 3093 
Q 1141 3584 1784 3584 
Q 2172 3584 2450 3431 
Q 2728 3278 2906 2969 
L 2906 3500 
L 3481 3500 
L 3481 434 
z
" transform="scale(0.015625)"/>
       <path id="DejaVuSans-76" d="M 191 3500 
L 800 3500 
L 1894 563 
L 2988 3500 
L 3597 3500 
L 2284 0 
L 1503 0 
L 191 3500 
z
" transform="scale(0.015625)"/>
       <path id="DejaVuSans-78" d="M 3513 3500 
L 2247 1797 
L 3578 0 
L 2900 0 
L 1881 1375 
L 863 0 
L 184 0 
L 1544 1831 
L 300 3500 
L 978 3500 
L 1906 2253 
L 2834 3500 
L 3513 3500 
z
" transform="scale(0.015625)"/>
      </defs>
      <use xlink:href="#DejaVuSans-50"/>
      <use xlink:href="#DejaVuSans-6f" x="56.677734"/>
      <use xlink:href="#DejaVuSans-73" x="117.859375"/>
      <use xlink:href="#DejaVuSans-69" x="169.958984"/>
      <use xlink:href="#DejaVuSans-74" x="197.742188"/>
      <use xlink:href="#DejaVuSans-69" x="236.951172"/>
      <use xlink:href="#DejaVuSans-6f" x="264.734375"/>
      <use xlink:href="#DejaVuSans-6e" x="325.916016"/>
      <use xlink:href="#DejaVuSans-20" x="389.294922"/>
      <use xlink:href="#DejaVuSans-6f" x="421.082031"/>
      <use xlink:href="#DejaVuSans-66" x="482.263672"/>
      <use xlink:href="#DejaVuSans-20" x="517.46875"/>
      <use xlink:href="#DejaVuSans-73" x="549.255859"/>
      <use xlink:href="#DejaVuSans-6c" x="601.355469"/>
      <use xlink:href="#DejaVuSans-69" x="629.138672"/>
      <use xlink:href="#DejaVuSans-63" x="656.921875"/>
      <use xlink:href="#DejaVuSans-65" x="711.902344"/>
      <use xlink:href="#DejaVuSans-20" x="773.425781"/>
      <use xlink:href="#DejaVuSans-61" x="805.212891"/>
      <use xlink:href="#DejaVuSans-6c" x="866.492188"/>
      <use xlink:href="#DejaVuSans-6f" x="894.275391"/>
      <use xlink:href="#DejaVuSans-6e" x="955.457031"/>
      <use xlink:href="#DejaVuSans-67" x="1018.835938"/>
      <use xlink:href="#DejaVuSans-20" x="1082.3125"/>
      <use xlink:href="#DejaVuSans-67" x="1114.099609"/>
      <use xlink:href="#DejaVuSans-69" x="1177.576172"/>
      <use xlink:href="#DejaVuSans-76" x="1205.359375"/>
      <use xlink:href="#DejaVuSans-65" x="1264.539062"/>
      <use xlink:href="#DejaVuSans-6e" x="1326.0625"/>
      <use xlink:href="#DejaVuSans-20" x="1389.441406"/>
      <use xlink:href="#DejaVuSans-61" x="1421.228516"/>
      <use xlink:href="#DejaVuSans-78" x="1482.507812"/>
      <use xlink:href="#DejaVuSans-69" x="1541.6875"/>
      <use xlink:href="#DejaVuSans-73" x="1569.470703"/>
     </g>
    </g>
   </g>
   <g id="matplotlib.axis_2">
    <g id="ytick_1">
     <g id="line2d_11">
      <defs>
       <path id="mc17ad312aa" d="M 0 0 
L 6 0 
" style="stroke: #000000; stroke-width: 2"/>
      </defs>
      <g>
       <use xlink:href="#mc17ad312aa" x="49.3975" y="234.5525" style="fill: #ffffff; stroke: #000000; stroke-width: 2"/>
      </g>
     </g>
     <g id="line2d_12">
      <defs>
       <path id="m85753cdd84" d="M 0 0 
L -6 0 
" style="stroke: #000000; stroke-width: 2"/>
      </defs>
      <g>
       <use xlink:href="#m85753cdd84" x="341.28" y="234.5525" style="fill: #ffffff; stroke: #000000; stroke-width: 2"/>
      </g>
     </g>
     <g id="text_7">
      <!-- 0.0 -->
      <g transform="translate(26.81375 239.111562)scale(0.12 -0.12)">
       <defs>
        <path id="DejaVuSans-2e" d="M 684 794 
L 1344 794 
L 1344 0 
L 684 0 
L 684 794 
z
" transform="scale(0.015625)"/>
       </defs>
       <use xlink:href="#DejaVuSans-30"/>
       <use xlink:href="#DejaVuSans-2e" x="63.623047"/>
       <use xlink:href="#DejaVuSans-30" x="95.410156"/>
      </g>
     </g>
    </g>
    <g id="ytick_2">
     <g id="line2d_13">
      <g>
       <use xlink:href="#mc17ad312aa" x="49.3975" y="189.993812" style="fill: #ffffff; stroke: #000000; stroke-width: 2"/>
      </g>
     </g>
     <g id="line2d_14">
      <g>
       <use xlink:href="#m85753cdd84" x="341.28" y="189.993812" style="fill: #ffffff; stroke: #000000; stroke-width: 2"/>
      </g>
     </g>
     <g id="text_8">
      <!-- 0.2 -->
      <g transform="translate(26.81375 194.552875)scale(0.12 -0.12)">
       <use xlink:href="#DejaVuSans-30"/>
       <use xlink:href="#DejaVuSans-2e" x="63.623047"/>
       <use xlink:href="#DejaVuSans-32" x="95.410156"/>
      </g>
     </g>
    </g>
    <g id="ytick_3">
     <g id="line2d_15">
      <g>
       <use xlink:href="#mc17ad312aa" x="49.3975" y="145.435125" style="fill: #ffffff; stroke: #000000; stroke-width: 2"/>
      </g>
     </g>
     <g id="line2d_16">
      <g>
       <use xlink:href="#m85753cdd84" x="341.28" y="145.435125" style="fill: #ffffff; stroke: #000000; stroke-width: 2"/>
      </g>
     </g>
     <g id="text_9">
      <!-- 0.4 -->
      <g transform="translate(26.81375 149.994187)scale(0.12 -0.12)">
       <defs>
        <path id="DejaVuSans-34" d="M 2419 4116 
L 825 1625 
L 2419 1625 
L 2419 4116 
z
M 2253 4666 
L 3047 4666 
L 3047 1625 
L 3713 1625 
L 3713 1100 
L 3047 1100 
L 3047 0 
L 2419 0 
L 2419 1100 
L 313 1100 
L 313 1709 
L 2253 4666 
z
" transform="scale(0.015625)"/>
       </defs>
       <use xlink:href="#DejaVuSans-30"/>
       <use xlink:href="#DejaVuSans-2e" x="63.623047"/>
       <use xlink:href="#DejaVuSans-34" x="95.410156"/>
      </g>
     </g>
    </g>
    <g id="ytick_4">
     <g id="line2d_17">
      <g>
       <use xlink:href="#mc17ad312aa" x="49.3975" y="100.876437" style="fill: #ffffff; stroke: #000000; stroke-width: 2"/>
      </g>
     </g>
     <g id="line2d_18">
      <g>
       <use xlink:href="#m85753cdd84" x="341.28" y="100.876437" style="fill: #ffffff; stroke: #000000; stroke-width: 2"/>
      </g>
     </g>
     <g id="text_10">
      <!-- 0.6 -->
      <g transform="translate(26.81375 105.4355)scale(0.12 -0.12)">
       <defs>
        <path id="DejaVuSans-36" d="M 2113 2584 
Q 1688 2584 1439 2293 
Q 1191 2003 1191 1497 
Q 1191 994 1439 701 
Q 1688 409 2113 409 
Q 2538 409 2786 701 
Q 3034 994 3034 1497 
Q 3034 2003 2786 2293 
Q 2538 2584 2113 2584 
z
M 3366 4563 
L 3366 3988 
Q 3128 4100 2886 4159 
Q 2644 4219 2406 4219 
Q 1781 4219 1451 3797 
Q 1122 3375 1075 2522 
Q 1259 2794 1537 2939 
Q 1816 3084 2150 3084 
Q 2853 3084 3261 2657 
Q 3669 2231 3669 1497 
Q 3669 778 3244 343 
Q 2819 -91 2113 -91 
Q 1303 -91 875 529 
Q 447 1150 447 2328 
Q 447 3434 972 4092 
Q 1497 4750 2381 4750 
Q 2619 4750 2861 4703 
Q 3103 4656 3366 4563 
z
" transform="scale(0.015625)"/>
       </defs>
       <use xlink:href="#DejaVuSans-30"/>
       <use xlink:href="#DejaVuSans-2e" x="63.623047"/>
       <use xlink:href="#DejaVuSans-36" x="95.410156"/>
      </g>
     </g>
    </g>
    <g id="ytick_5">
     <g id="line2d_19">
      <g>
       <use xlink:href="#mc17ad312aa" x="49.3975" y="56.31775" style="fill: #ffffff; stroke: #000000; stroke-width: 2"/>
      </g>
     </g>
     <g id="line2d_20">
      <g>
       <use xlink:href="#m85753cdd84" x="341.28" y="56.31775" style="fill: #ffffff; stroke: #000000; stroke-width: 2"/>
      </g>
     </g>
     <g id="text_11">
      <!-- 0.8 -->
      <g transform="translate(26.81375 60.876812)scale(0.12 -0.12)">
       <defs>
        <path id="DejaVuSans-38" d="M 2034 2216 
Q 1584 2216 1326 1975 
Q 1069 1734 1069 1313 
Q 1069 891 1326 650 
Q 1584 409 2034 409 
Q 2484 409 2743 651 
Q 3003 894 3003 1313 
Q 3003 1734 2745 1975 
Q 2488 2216 2034 2216 
z
M 1403 2484 
Q 997 2584 770 2862 
Q 544 3141 544 3541 
Q 544 4100 942 4425 
Q 1341 4750 2034 4750 
Q 2731 4750 3128 4425 
Q 3525 4100 3525 3541 
Q 3525 3141 3298 2862 
Q 3072 2584 2669 2484 
Q 3125 2378 3379 2068 
Q 3634 1759 3634 1313 
Q 3634 634 3220 271 
Q 2806 -91 2034 -91 
Q 1263 -91 848 271 
Q 434 634 434 1313 
Q 434 1759 690 2068 
Q 947 2378 1403 2484 
z
M 1172 3481 
Q 1172 3119 1398 2916 
Q 1625 2713 2034 2713 
Q 2441 2713 2670 2916 
Q 2900 3119 2900 3481 
Q 2900 3844 2670 4047 
Q 2441 4250 2034 4250 
Q 1625 4250 1398 4047 
Q 1172 3844 1172 3481 
z
" transform="scale(0.015625)"/>
       </defs>
       <use xlink:href="#DejaVuSans-30"/>
       <use xlink:href="#DejaVuSans-2e" x="63.623047"/>
       <use xlink:href="#DejaVuSans-38" x="95.410156"/>
      </g>
     </g>
    </g>
    <g id="ytick_6">
     <g id="line2d_21">
      <g>
       <use xlink:href="#mc17ad312aa" x="49.3975" y="11.759062" style="fill: #ffffff; stroke: #000000; stroke-width: 2"/>
      </g>
     </g>
     <g id="line2d_22">
      <g>
       <use xlink:href="#m85753cdd84" x="341.28" y="11.759062" style="fill: #ffffff; stroke: #000000; stroke-width: 2"/>
      </g>
     </g>
     <g id="text_12">
      <!-- 1.0 -->
      <g transform="translate(26.81375 16.318125)scale(0.12 -0.12)">
       <use xlink:href="#DejaVuSans-31"/>
       <use xlink:href="#DejaVuSans-2e" x="63.623047"/>
       <use xlink:href="#DejaVuSans-30" x="95.410156"/>
      </g>
     </g>
    </g>
    <g id="text_13">
     <!-- Porosity of slice -->
     <g transform="translate(16.318125 169.973594)rotate(-90)scale(0.12 -0.12)">
      <defs>
       <path id="DejaVuSans-72" d="M 2631 2963 
Q 2534 3019 2420 3045 
Q 2306 3072 2169 3072 
Q 1681 3072 1420 2755 
Q 1159 2438 1159 1844 
L 1159 0 
L 581 0 
L 581 3500 
L 1159 3500 
L 1159 2956 
Q 1341 3275 1631 3429 
Q 1922 3584 2338 3584 
Q 2397 3584 2469 3576 
Q 2541 3569 2628 3553 
L 2631 2963 
z
" transform="scale(0.015625)"/>
       <path id="DejaVuSans-79" d="M 2059 -325 
Q 1816 -950 1584 -1140 
Q 1353 -1331 966 -1331 
L 506 -1331 
L 506 -850 
L 844 -850 
Q 1081 -850 1212 -737 
Q 1344 -625 1503 -206 
L 1606 56 
L 191 3500 
L 800 3500 
L 1894 763 
L 2988 3500 
L 3597 3500 
L 2059 -325 
z
" transform="scale(0.015625)"/>
      </defs>
      <use xlink:href="#DejaVuSans-50"/>
      <use xlink:href="#DejaVuSans-6f" x="56.677734"/>
      <use xlink:href="#DejaVuSans-72" x="117.859375"/>
      <use xlink:href="#DejaVuSans-6f" x="156.722656"/>
      <use xlink:href="#DejaVuSans-73" x="217.904297"/>
      <use xlink:href="#DejaVuSans-69" x="270.003906"/>
      <use xlink:href="#DejaVuSans-74" x="297.787109"/>
      <use xlink:href="#DejaVuSans-79" x="336.996094"/>
      <use xlink:href="#DejaVuSans-20" x="396.175781"/>
      <use xlink:href="#DejaVuSans-6f" x="427.962891"/>
      <use xlink:href="#DejaVuSans-66" x="489.144531"/>
      <use xlink:href="#DejaVuSans-20" x="524.349609"/>
      <use xlink:href="#DejaVuSans-73" x="556.136719"/>
      <use xlink:href="#DejaVuSans-6c" x="608.236328"/>
      <use xlink:href="#DejaVuSans-69" x="636.019531"/>
      <use xlink:href="#DejaVuSans-63" x="663.802734"/>
      <use xlink:href="#DejaVuSans-65" x="718.783203"/>
     </g>
    </g>
   </g>
   <g id="line2d_23">
    <path d="M 62.664886 141.753463 
L 63.331589 141.718188 
L 64.664995 140.891995 
L 65.998401 138.671488 
L 67.331806 135.871717 
L 68.665212 133.194482 
L 69.998618 131.096511 
L 70.66532 130.301881 
L 71.332023 129.969547 
L 72.665429 129.819162 
L 73.998835 130.541384 
L 74.665537 130.892283 
L 75.998943 132.24204 
L 77.999052 132.386856 
L 78.665754 132.277316 
L 79.332457 131.952409 
L 80.665863 130.875574 
L 81.332566 130.168205 
L 83.332674 126.941413 
L 83.999377 126.328731 
L 84.66608 126.339871 
L 85.999485 125.274176 
L 86.666188 124.902853 
L 87.332891 124.750611 
L 87.999594 125.02539 
L 89.999702 126.317591 
L 90.666405 126.375146 
L 91.333108 126.894998 
L 92.666514 128.690342 
L 93.999919 129.821018 
L 94.666622 130.171918 
L 95.333325 130.758607 
L 96.000028 130.307451 
L 96.666731 130.207194 
L 99.333542 131.280315 
L 101.333651 130.890427 
L 102.000353 130.53767 
L 102.667056 129.860007 
L 104.000462 126.397426 
L 104.667165 125.485829 
L 106.00057 122.886573 
L 106.667273 121.531246 
L 107.333976 120.758895 
L 108.000679 120.188915 
L 109.334085 120.363437 
L 110.66749 119.873291 
L 111.334193 119.812023 
L 112.000896 120.177776 
L 112.667599 120.276176 
L 113.334302 120.4934 
L 114.001004 120.972406 
L 114.667707 120.927847 
L 116.001113 120.216764 
L 118.667924 121.969406 
L 120.668033 124.611365 
L 121.334736 124.969691 
L 124.001547 125.016106 
L 124.66825 124.576089 
L 125.334953 123.456552 
L 127.335061 119.492686 
L 128.001764 118.623791 
L 129.33517 116.436702 
L 130.668575 115.140787 
L 131.335278 115.094372 
L 132.001981 115.233618 
L 132.668684 114.968122 
L 134.668792 114.82145 
L 135.335495 114.895715 
L 136.668901 114.429705 
L 138.669009 112.567523 
L 139.335712 112.56938 
L 140.002415 112.760611 
L 141.335821 114.554098 
L 142.002523 114.877148 
L 143.335929 114.357297 
L 144.002632 113.523678 
L 144.669335 112.34473 
L 146.669443 109.622937 
L 147.336146 108.562811 
L 148.002849 107.90557 
L 148.669552 107.770038 
L 149.336255 108.028107 
L 150.002957 107.669781 
L 150.66966 107.656784 
L 151.336363 107.959412 
L 152.003066 108.113511 
L 152.669769 107.842446 
L 154.003174 106.073094 
L 154.669877 105.399144 
L 155.33658 105.070524 
L 156.003283 104.892289 
L 156.669986 105.465982 
L 157.336689 106.539104 
L 158.670094 109.151357 
L 160.0035 110.707198 
L 160.670203 111.408997 
L 163.337014 113.085518 
L 164.003717 113.969265 
L 165.337123 116.763466 
L 166.670528 120.025533 
L 168.003934 122.305453 
L 170.004042 127.689628 
L 170.670745 128.720047 
L 171.337448 129.260321 
L 172.670854 129.893426 
L 173.337557 130.288884 
L 175.337665 132.297739 
L 176.004368 132.054522 
L 176.671071 131.603366 
L 177.337774 131.3323 
L 178.004476 130.840298 
L 178.671179 130.188627 
L 179.337882 128.985543 
L 180.671288 127.301596 
L 182.004693 125.424561 
L 182.671396 124.576089 
L 184.004802 123.441699 
L 184.671505 123.389714 
L 185.338208 123.690485 
L 187.338316 123.360009 
L 188.005019 122.86058 
L 188.671722 122.63036 
L 189.338425 122.036244 
L 190.67183 119.927133 
L 191.338533 119.579947 
L 192.005236 119.602226 
L 194.672047 118.867008 
L 195.33875 118.78903 
L 195.33875 118.78903 
" clip-path="url(#p2d644c1a21)" style="fill: none; stroke: #0000ff; stroke-opacity: 0.5; stroke-width: 2; stroke-linecap: square"/>
   </g>
   <g id="line2d_24">
    <path d="M 62.664886 112.213839 
L 63.996062 112.489545 
L 64.66165 112.745758 
L 65.327238 113.441987 
L 65.992826 114.330376 
L 67.324002 117.006682 
L 68.655178 121.184059 
L 69.320766 122.86058 
L 69.986354 123.743399 
L 71.31753 126.965549 
L 72.648706 130.878359 
L 73.314293 132.089798 
L 73.979881 132.566019 
L 74.645469 132.307022 
L 75.976645 132.780458 
L 77.307821 131.404708 
L 79.304585 129.786671 
L 79.970173 129.335514 
L 81.966937 125.962979 
L 82.632525 125.425489 
L 83.298113 125.347512 
L 83.963701 125.915635 
L 85.294876 126.032602 
L 85.960464 126.152353 
L 86.626052 126.478188 
L 87.957228 127.536457 
L 88.622816 127.731401 
L 89.288404 128.271676 
L 90.61958 128.617005 
L 91.950756 128.644855 
L 92.616344 127.917991 
L 93.94752 125.968548 
L 94.613108 124.907495 
L 95.278696 124.283673 
L 95.944284 123.470477 
L 96.609872 123.010966 
L 97.275459 123.20591 
L 98.606635 123.907709 
L 99.272223 124.626218 
L 99.937811 125.634358 
L 101.934575 130.15428 
L 102.600163 130.99254 
L 103.265751 131.50775 
L 103.931339 130.82823 
L 104.596927 130.722403 
L 105.262515 131.435342 
L 105.928103 131.844725 
L 106.593691 131.621932 
L 107.924867 130.485685 
L 108.590455 130.084657 
L 109.256042 129.886928 
L 109.92163 129.572232 
L 110.587218 128.486114 
L 111.252806 126.790099 
L 112.583982 124.71812 
L 113.24957 125.046741 
L 114.580746 124.782173 
L 115.911922 123.757324 
L 116.57751 123.679346 
L 117.243098 123.470477 
L 117.908686 122.810451 
L 118.574274 122.958052 
L 119.239862 123.481617 
L 120.571038 124.04974 
L 121.236625 123.927204 
L 121.902213 123.55124 
L 122.567801 123.350726 
L 123.233389 122.919063 
L 123.898977 122.270177 
L 124.564565 122.091943 
L 125.230153 121.465336 
L 125.895741 120.376433 
L 127.226917 117.134789 
L 128.558093 115.252184 
L 129.223681 114.803812 
L 129.889269 113.770608 
L 130.554857 112.954627 
L 132.551621 112.283461 
L 133.882796 112.745758 
L 134.548384 112.876649 
L 136.545148 113.837446 
L 137.210736 113.762253 
L 137.876324 114.561524 
L 139.2075 116.40514 
L 141.204264 116.588945 
L 141.869852 116.207411 
L 142.53544 116.109939 
L 143.201028 116.263109 
L 143.866616 116.274249 
L 144.532204 116.884146 
L 145.197792 118.123434 
L 145.863379 118.919921 
L 146.528967 119.357153 
L 148.525731 121.885859 
L 149.191319 122.944127 
L 149.856907 123.002611 
L 150.522495 122.841086 
L 151.188083 122.952482 
L 151.853671 123.331231 
L 152.519259 123.932773 
L 153.184847 125.110794 
L 153.850435 126.790099 
L 154.516023 127.349868 
L 155.181611 126.865292 
L 156.512787 125.692842 
L 157.178375 125.367006 
L 158.50955 123.913279 
L 159.840726 122.813236 
L 160.506314 121.913708 
L 161.171902 121.334445 
L 161.83749 120.98076 
L 163.168666 118.349013 
L 164.499842 116.385646 
L 165.831018 114.096443 
L 166.496606 113.979477 
L 167.162194 114.057454 
L 167.827782 113.882004 
L 168.49337 113.361225 
L 169.158958 113.299957 
L 170.490133 114.427848 
L 171.155721 115.124078 
L 172.486897 117.858867 
L 175.149249 121.757752 
L 175.814837 122.829946 
L 176.480425 123.531745 
L 177.146013 123.105653 
L 177.811601 122.952482 
L 179.142777 123.086158 
L 179.808365 122.85501 
L 180.473953 122.492971 
L 181.139541 121.949912 
L 181.805128 121.153425 
L 184.46748 116.923135 
L 185.133068 116.112724 
L 185.798656 115.739545 
L 186.464244 116.135003 
L 187.79542 117.808739 
L 189.792184 121.863579 
L 190.457772 122.582088 
L 191.12336 123.01375 
L 191.788948 122.852225 
L 192.454536 122.214479 
L 193.120124 122.1922 
L 193.785711 122.838301 
L 195.116887 122.896784 
L 195.782475 123.994042 
L 196.448063 125.470048 
L 197.113651 125.971333 
L 197.779239 125.41992 
L 198.444827 124.534316 
L 199.776003 123.197555 
L 200.441591 122.078018 
L 201.107179 121.365079 
L 201.772767 121.039244 
L 202.438355 120.99747 
L 203.769531 120.340229 
L 205.766294 119.042457 
L 206.431882 118.758396 
L 207.09747 118.769535 
L 207.763058 119.039672 
L 208.428646 119.674634 
L 209.094234 119.45741 
L 210.42541 119.460195 
L 211.090998 119.073092 
L 211.756586 118.488259 
L 213.75335 116.165637 
L 214.418938 115.945629 
L 215.750114 115.984617 
L 217.08129 117.697342 
L 218.412465 118.833589 
L 219.743641 120.46555 
L 220.409229 121.32609 
L 221.074817 122.615507 
L 221.740405 123.425918 
L 222.405993 124.420134 
L 223.071581 125.626003 
L 224.402757 127.207837 
L 225.068345 128.633715 
L 225.733933 129.703123 
L 226.399521 131.01482 
L 227.065109 132.025745 
L 227.730697 132.677416 
L 228.396285 133.014391 
L 229.061873 133.170346 
L 230.393048 133.950123 
L 231.058636 134.122788 
L 231.724224 134.000252 
L 232.389812 132.688555 
L 233.0554 132.056379 
L 233.720988 132.045239 
L 234.386576 131.245968 
L 235.052164 130.786456 
L 236.38334 130.407708 
L 237.048928 130.404923 
L 237.714516 129.909207 
L 238.380104 128.98183 
L 241.708043 121.793956 
L 242.373631 119.81945 
L 243.704807 116.775534 
L 244.370395 115.747899 
L 245.035983 115.578019 
L 245.701571 115.254969 
L 246.367159 115.321807 
L 247.032747 116.118294 
L 249.029511 117.663923 
L 249.695099 118.106725 
L 251.026275 119.577162 
L 251.691863 120.028318 
L 252.357451 120.256682 
L 253.688626 120.540743 
L 254.354214 121.044813 
L 255.68539 123.389714 
L 256.350978 124.289243 
L 261.675682 126.617434 
L 261.675682 126.617434 
" clip-path="url(#p2d644c1a21)" style="fill: none; stroke: #ff0000; stroke-opacity: 0.5; stroke-width: 2; stroke-linecap: square"/>
   </g>
   <g id="line2d_25">
    <path d="M 62.664886 136.155778 
L 63.99495 135.680486 
L 64.659982 135.350009 
L 65.325014 134.674202 
L 65.990046 133.797881 
L 67.985142 128.525103 
L 69.315205 123.579089 
L 69.980237 121.176633 
L 71.310301 118.220907 
L 72.640365 115.435989 
L 73.305397 115.202056 
L 75.300492 115.688488 
L 75.965524 116.449699 
L 76.630556 117.678776 
L 77.295588 117.886716 
L 77.96062 118.56995 
L 78.625652 119.661638 
L 79.290684 121.113508 
L 79.955716 121.83016 
L 80.620748 122.788172 
L 81.28578 122.84387 
L 82.615843 122.494827 
L 83.280875 122.621077 
L 83.945907 122.888429 
L 84.610939 122.97012 
L 85.275971 123.54567 
L 85.941003 123.374861 
L 86.606035 123.010966 
L 87.271067 122.494827 
L 87.936098 121.377147 
L 89.266162 120.222334 
L 89.931194 119.902997 
L 91.261258 119.806453 
L 91.92629 119.67649 
L 92.591322 119.412851 
L 93.921386 119.442557 
L 95.251449 119.349727 
L 95.916481 120.006967 
L 96.581513 121.770749 
L 97.246545 122.283174 
L 97.911577 121.755896 
L 99.241641 120.129504 
L 99.906673 119.442557 
L 100.571705 119.401712 
L 101.236736 119.620792 
L 101.901768 120.162923 
L 102.5668 121.369721 
L 103.231832 121.187773 
L 105.226928 115.332018 
L 105.89196 114.797314 
L 107.222024 114.589374 
L 107.887055 115.669922 
L 108.552087 117.779033 
L 109.217119 119.46855 
L 110.547183 120.162923 
L 111.877247 120.352297 
L 112.542279 120.25204 
L 113.872343 119.750755 
L 114.537374 119.030389 
L 115.867438 116.401427 
L 116.53247 114.986689 
L 117.197502 114.117794 
L 117.862534 112.981548 
L 118.527566 113.189488 
L 119.192598 113.649928 
L 119.85763 113.768751 
L 120.522661 113.68706 
L 123.182789 115.640216 
L 123.847821 115.799885 
L 124.512853 116.182347 
L 125.177885 116.932418 
L 127.17298 122.973833 
L 129.168076 130.251752 
L 131.163172 135.249752 
L 132.493236 137.555664 
L 133.823299 139.25632 
L 134.488331 140.080656 
L 135.153363 140.18834 
L 135.818395 140.017531 
L 136.483427 139.553378 
L 137.813491 137.477686 
L 139.143555 136.3303 
L 139.808587 134.993539 
L 143.133746 125.46912 
L 143.798778 124.785887 
L 144.46381 123.924419 
L 145.793874 122.736187 
L 146.458906 122.249755 
L 147.123937 123.103796 
L 147.788969 123.679346 
L 148.454001 123.98383 
L 149.119033 123.876147 
L 149.784065 123.163208 
L 150.449097 122.840157 
L 151.114129 122.123505 
L 153.774256 117.741901 
L 155.10432 117.307454 
L 155.769352 116.765323 
L 156.434384 116.772749 
L 157.099416 117.192344 
L 157.764448 118.035245 
L 158.42948 119.613366 
L 159.759543 124.878717 
L 161.754639 133.890712 
L 162.419671 136.605078 
L 164.414767 142.854434 
L 165.079799 144.629355 
L 165.744831 145.84358 
L 166.409862 146.203762 
L 167.074894 145.951263 
L 167.739926 145.097222 
L 168.404958 143.723329 
L 169.735022 139.694481 
L 170.400054 137.377429 
L 173.725213 123.185487 
L 174.390245 120.114651 
L 175.720309 115.584518 
L 176.385341 114.106654 
L 177.050373 113.252613 
L 177.715405 112.933276 
L 178.380437 113.189488 
L 179.045469 114.518822 
L 180.375532 118.436274 
L 181.040564 119.817593 
L 183.03566 122.517107 
L 183.700692 123.909566 
L 185.030756 126.215478 
L 187.690883 128.621647 
L 188.355915 129.044954 
L 189.020947 129.921275 
L 189.685979 130.028959 
L 190.351011 130.270318 
L 191.016043 131.109507 
L 191.681075 132.260606 
L 192.346106 132.936413 
L 193.67617 131.209764 
L 195.671266 129.070947 
L 197.666362 125.925846 
L 198.331394 125.056952 
L 199.661457 124.061808 
L 200.326489 123.296884 
L 200.991521 122.847584 
L 202.321585 120.441415 
L 202.986617 119.776747 
L 203.651649 119.531675 
L 204.316681 119.594799 
L 204.981713 120.404282 
L 205.646744 121.458838 
L 206.976808 122.97012 
L 207.64184 124.158352 
L 208.306872 125.714193 
L 208.971904 126.887571 
L 209.636936 128.343155 
L 211.632031 134.150637 
L 212.962095 135.873573 
L 213.627127 136.839012 
L 214.292159 137.258606 
L 214.957191 138.101508 
L 215.622223 138.413418 
L 216.952287 139.315732 
L 217.617319 139.174629 
L 218.28235 138.662204 
L 218.947382 138.361433 
L 220.277446 136.018389 
L 220.942478 134.358578 
L 222.272542 130.463406 
L 224.267638 124.77846 
L 225.597701 119.256896 
L 226.262733 117.225763 
L 226.927765 115.770179 
L 227.592797 114.845586 
L 228.257829 114.255183 
L 228.922861 114.128934 
L 229.587893 114.348014 
L 230.252925 115.242901 
L 230.917957 116.386574 
L 231.582988 117.808739 
L 232.24802 119.498256 
L 232.913052 119.954982 
L 234.243116 121.306596 
L 235.57318 122.134645 
L 236.238212 123.059237 
L 237.568276 125.391142 
L 238.233307 126.423418 
L 238.898339 127.827017 
L 239.563371 128.216906 
L 240.228403 128.413706 
L 241.558467 128.17606 
L 242.223499 127.890142 
L 244.883626 125.706766 
L 245.548658 124.551953 
L 246.878722 121.340015 
L 248.873818 115.387717 
L 249.53885 114.169779 
L 250.203882 113.464267 
L 250.868913 113.735332 
L 251.533945 114.240331 
L 252.198977 114.166066 
L 252.864009 114.630219 
L 253.529041 115.785032 
L 254.859105 117.151498 
L 256.854201 119.449984 
L 257.519232 120.853582 
L 259.514328 124.206624 
L 260.17936 125.599083 
L 260.844392 127.971833 
L 261.509424 129.241755 
L 262.174456 129.902709 
L 262.839488 131.5848 
L 264.169551 136.482542 
L 264.834583 138.643638 
L 266.164647 143.68991 
L 266.829679 144.354577 
L 267.494711 144.038953 
L 268.824775 143.931269 
L 269.489807 143.504249 
L 271.484902 140.463118 
L 272.149934 139.230328 
L 272.814966 136.749894 
L 273.479998 133.745896 
L 274.14503 131.766748 
L 274.810062 130.326017 
L 276.805157 124.384858 
L 280.130317 109.765896 
L 282.125413 104.374294 
L 282.790445 103.386577 
L 283.455476 103.791318 
L 284.120508 103.936134 
L 285.450572 102.421139 
L 286.115604 101.912427 
L 286.780636 101.102944 
L 288.1107 98.886149 
L 288.775732 98.232622 
L 289.440764 97.757329 
L 290.105795 98.19549 
L 290.770827 98.132365 
L 291.435859 97.883579 
L 294.095987 98.388577 
L 295.426051 98.158358 
L 296.091083 98.347732 
L 296.756114 98.893576 
L 297.421146 99.246332 
L 298.086178 100.066955 
L 299.416242 102.027537 
L 300.081274 102.785035 
L 300.746306 103.806171 
L 301.411338 105.562526 
L 302.07637 106.925279 
L 302.741402 107.58252 
L 303.406433 108.752186 
L 304.736497 111.882433 
L 306.066561 113.642501 
L 307.396625 114.834446 
L 308.726689 116.160067 
L 309.39172 117.181204 
L 310.056752 119.041529 
L 310.721784 121.26575 
L 311.386816 122.658209 
L 312.051848 123.64964 
L 312.71688 123.322876 
L 314.046944 120.979832 
L 315.377008 119.253183 
L 316.042039 118.595942 
L 316.707071 117.381718 
L 317.372103 115.837017 
L 318.702167 113.6982 
L 319.367199 113.438274 
L 320.032231 114.396286 
L 321.362295 117.155211 
L 323.35739 121.451411 
L 324.022422 122.086373 
L 324.687454 122.940414 
L 325.352486 123.560523 
L 326.017518 123.946698 
L 327.347582 124.32916 
L 328.012614 124.370005 
L 328.012614 124.370005 
" clip-path="url(#p2d644c1a21)" style="fill: none; stroke: #008000; stroke-opacity: 0.5; stroke-width: 2; stroke-linecap: square"/>
   </g>
   <g id="patch_3">
    <path d="M 49.3975 234.5525 
L 49.3975 11.759062 
" style="fill: none; stroke: #000000; stroke-width: 2; stroke-linejoin: miter; stroke-linecap: square"/>
   </g>
   <g id="patch_4">
    <path d="M 341.28 234.5525 
L 341.28 11.759062 
" style="fill: none; stroke: #000000; stroke-width: 2; stroke-linejoin: miter; stroke-linecap: square"/>
   </g>
   <g id="patch_5">
    <path d="M 49.3975 234.5525 
L 341.28 234.5525 
" style="fill: none; stroke: #000000; stroke-width: 2; stroke-linejoin: miter; stroke-linecap: square"/>
   </g>
   <g id="patch_6">
    <path d="M 49.3975 11.759062 
L 341.28 11.759062 
" style="fill: none; stroke: #000000; stroke-width: 2; stroke-linejoin: miter; stroke-linecap: square"/>
   </g>
   <g id="legend_1">
    <g id="line2d_26">
     <path d="M 245.26125 27.477188 
L 257.26125 27.477188 
L 269.26125 27.477188 
" style="fill: none; stroke: #0000ff; stroke-opacity: 0.5; stroke-width: 2; stroke-linecap: square"/>
    </g>
    <g id="text_14">
     <!-- yz-plane -->
     <g transform="translate(278.86125 31.677188)scale(0.12 -0.12)">
      <defs>
       <path id="DejaVuSans-7a" d="M 353 3500 
L 3084 3500 
L 3084 2975 
L 922 459 
L 3084 459 
L 3084 0 
L 275 0 
L 275 525 
L 2438 3041 
L 353 3041 
L 353 3500 
z
" transform="scale(0.015625)"/>
       <path id="DejaVuSans-2d" d="M 313 2009 
L 1997 2009 
L 1997 1497 
L 313 1497 
L 313 2009 
z
" transform="scale(0.015625)"/>
       <path id="DejaVuSans-70" d="M 1159 525 
L 1159 -1331 
L 581 -1331 
L 581 3500 
L 1159 3500 
L 1159 2969 
Q 1341 3281 1617 3432 
Q 1894 3584 2278 3584 
Q 2916 3584 3314 3078 
Q 3713 2572 3713 1747 
Q 3713 922 3314 415 
Q 2916 -91 2278 -91 
Q 1894 -91 1617 61 
Q 1341 213 1159 525 
z
M 3116 1747 
Q 3116 2381 2855 2742 
Q 2594 3103 2138 3103 
Q 1681 3103 1420 2742 
Q 1159 2381 1159 1747 
Q 1159 1113 1420 752 
Q 1681 391 2138 391 
Q 2594 391 2855 752 
Q 3116 1113 3116 1747 
z
" transform="scale(0.015625)"/>
      </defs>
      <use xlink:href="#DejaVuSans-79"/>
      <use xlink:href="#DejaVuSans-7a" x="59.179688"/>
      <use xlink:href="#DejaVuSans-2d" x="111.669922"/>
      <use xlink:href="#DejaVuSans-70" x="147.753906"/>
      <use xlink:href="#DejaVuSans-6c" x="211.230469"/>
      <use xlink:href="#DejaVuSans-61" x="239.013672"/>
      <use xlink:href="#DejaVuSans-6e" x="300.292969"/>
      <use xlink:href="#DejaVuSans-65" x="363.671875"/>
     </g>
    </g>
    <g id="line2d_27">
     <path d="M 245.26125 45.090938 
L 257.26125 45.090938 
L 269.26125 45.090938 
" style="fill: none; stroke: #ff0000; stroke-opacity: 0.5; stroke-width: 2; stroke-linecap: square"/>
    </g>
    <g id="text_15">
     <!-- xz-plane -->
     <g transform="translate(278.86125 49.290938)scale(0.12 -0.12)">
      <use xlink:href="#DejaVuSans-78"/>
      <use xlink:href="#DejaVuSans-7a" x="59.179688"/>
      <use xlink:href="#DejaVuSans-2d" x="111.669922"/>
      <use xlink:href="#DejaVuSans-70" x="147.753906"/>
      <use xlink:href="#DejaVuSans-6c" x="211.230469"/>
      <use xlink:href="#DejaVuSans-61" x="239.013672"/>
      <use xlink:href="#DejaVuSans-6e" x="300.292969"/>
      <use xlink:href="#DejaVuSans-65" x="363.671875"/>
     </g>
    </g>
    <g id="line2d_28">
     <path d="M 245.26125 62.704687 
L 257.26125 62.704687 
L 269.26125 62.704687 
" style="fill: none; stroke: #008000; stroke-opacity: 0.5; stroke-width: 2; stroke-linecap: square"/>
    </g>
    <g id="text_16">
     <!-- xy-plane -->
     <g transform="translate(278.86125 66.904687)scale(0.12 -0.12)">
      <use xlink:href="#DejaVuSans-78"/>
      <use xlink:href="#DejaVuSans-79" x="59.179688"/>
      <use xlink:href="#DejaVuSans-2d" x="116.609375"/>
      <use xlink:href="#DejaVuSans-70" x="152.693359"/>
      <use xlink:href="#DejaVuSans-6c" x="216.169922"/>
      <use xlink:href="#DejaVuSans-61" x="243.953125"/>
      <use xlink:href="#DejaVuSans-6e" x="305.232422"/>
      <use xlink:href="#DejaVuSans-65" x="368.611328"/>
     </g>
    </g>
   </g>
  </g>
 </g>
 <defs>
  <clipPath id="p2d644c1a21">
   <rect x="49.3975" y="11.759062" width="291.8825" height="222.793437"/>
  </clipPath>
 </defs>
</svg>
