<?xml version="1.0" encoding="utf-8" standalone="no"?>
<!DOCTYPE svg PUBLIC "-//W3C//DTD SVG 1.1//EN"
  "http://www.w3.org/Graphics/SVG/1.1/DTD/svg11.dtd">
<!-- Created with matplotlib (https://matplotlib.org/) -->
<svg height="276.48pt" version="1.1" viewBox="0 0 708.48 276.48" width="708.48pt" xmlns="http://www.w3.org/2000/svg" xmlns:xlink="http://www.w3.org/1999/xlink">
 <metadata>
  <rdf:RDF xmlns:cc="http://creativecommons.org/ns#" xmlns:dc="http://purl.org/dc/elements/1.1/" xmlns:rdf="http://www.w3.org/1999/02/22-rdf-syntax-ns#">
   <cc:Work>
    <dc:type rdf:resource="http://purl.org/dc/dcmitype/StillImage"/>
    <dc:date>2021-04-19T19:47:55.897686</dc:date>
    <dc:format>image/svg+xml</dc:format>
    <dc:creator>
     <cc:Agent>
      <dc:title>Matplotlib v3.3.4, https://matplotlib.org/</dc:title>
     </cc:Agent>
    </dc:creator>
   </cc:Work>
  </rdf:RDF>
 </metadata>
 <defs>
  <style type="text/css">*{stroke-linecap:butt;stroke-linejoin:round;}</style>
 </defs>
 <g id="figure_1">
  <g id="patch_1">
   <path d="M 0 276.48 
L 708.48 276.48 
L 708.48 0 
L 0 0 
z
" style="fill:none;"/>
  </g>
  <g id="axes_1">
   <g id="patch_2">
    <path d="M 29.78375 254.16625 
L 229.92 254.16625 
L 229.92 22.318125 
L 29.78375 22.318125 
z
" style="fill:#ffffff;"/>
   </g>
   <g id="matplotlib.axis_1">
    <g id="xtick_1">
     <g id="line2d_1">
      <defs>
       <path d="M 0 0 
L 0 -6 
" id="m8c47b38745" style="stroke:#000000;stroke-width:2;"/>
      </defs>
      <g>
       <use style="fill:#ffffff;stroke:#000000;stroke-width:2;" x="38.880852" xlink:href="#m8c47b38745" y="254.16625"/>
      </g>
     </g>
     <g id="line2d_2">
      <defs>
       <path d="M 0 0 
L 0 6 
" id="me1c405da47" style="stroke:#000000;stroke-width:2;"/>
      </defs>
      <g>
       <use style="fill:#ffffff;stroke:#000000;stroke-width:2;" x="38.880852" xlink:href="#me1c405da47" y="22.318125"/>
      </g>
     </g>
     <g id="text_1">
      <!-- 0 -->
      <g transform="translate(35.063352 266.784375)scale(0.12 -0.12)">
       <defs>
        <path d="M 31.78125 66.40625 
Q 24.171875 66.40625 20.328125 58.90625 
Q 16.5 51.421875 16.5 36.375 
Q 16.5 21.390625 20.328125 13.890625 
Q 24.171875 6.390625 31.78125 6.390625 
Q 39.453125 6.390625 43.28125 13.890625 
Q 47.125 21.390625 47.125 36.375 
Q 47.125 51.421875 43.28125 58.90625 
Q 39.453125 66.40625 31.78125 66.40625 
z
M 31.78125 74.21875 
Q 44.046875 74.21875 50.515625 64.515625 
Q 56.984375 54.828125 56.984375 36.375 
Q 56.984375 17.96875 50.515625 8.265625 
Q 44.046875 -1.421875 31.78125 -1.421875 
Q 19.53125 -1.421875 13.0625 8.265625 
Q 6.59375 17.96875 6.59375 36.375 
Q 6.59375 54.828125 13.0625 64.515625 
Q 19.53125 74.21875 31.78125 74.21875 
z
" id="DejaVuSans-48"/>
       </defs>
       <use xlink:href="#DejaVuSans-48"/>
      </g>
     </g>
    </g>
    <g id="xtick_2">
     <g id="line2d_3">
      <g>
       <use style="fill:#ffffff;stroke:#000000;stroke-width:2;" x="81.590253" xlink:href="#m8c47b38745" y="254.16625"/>
      </g>
     </g>
     <g id="line2d_4">
      <g>
       <use style="fill:#ffffff;stroke:#000000;stroke-width:2;" x="81.590253" xlink:href="#me1c405da47" y="22.318125"/>
      </g>
     </g>
     <g id="text_2">
      <!-- 50 -->
      <g transform="translate(73.955253 266.784375)scale(0.12 -0.12)">
       <defs>
        <path d="M 10.796875 72.90625 
L 49.515625 72.90625 
L 49.515625 64.59375 
L 19.828125 64.59375 
L 19.828125 46.734375 
Q 21.96875 47.46875 24.109375 47.828125 
Q 26.265625 48.1875 28.421875 48.1875 
Q 40.625 48.1875 47.75 41.5 
Q 54.890625 34.8125 54.890625 23.390625 
Q 54.890625 11.625 47.5625 5.09375 
Q 40.234375 -1.421875 26.90625 -1.421875 
Q 22.3125 -1.421875 17.546875 -0.640625 
Q 12.796875 0.140625 7.71875 1.703125 
L 7.71875 11.625 
Q 12.109375 9.234375 16.796875 8.0625 
Q 21.484375 6.890625 26.703125 6.890625 
Q 35.15625 6.890625 40.078125 11.328125 
Q 45.015625 15.765625 45.015625 23.390625 
Q 45.015625 31 40.078125 35.4375 
Q 35.15625 39.890625 26.703125 39.890625 
Q 22.75 39.890625 18.8125 39.015625 
Q 14.890625 38.140625 10.796875 36.28125 
z
" id="DejaVuSans-53"/>
       </defs>
       <use xlink:href="#DejaVuSans-53"/>
       <use x="63.623047" xlink:href="#DejaVuSans-48"/>
      </g>
     </g>
    </g>
    <g id="xtick_3">
     <g id="line2d_5">
      <g>
       <use style="fill:#ffffff;stroke:#000000;stroke-width:2;" x="124.299653" xlink:href="#m8c47b38745" y="254.16625"/>
      </g>
     </g>
     <g id="line2d_6">
      <g>
       <use style="fill:#ffffff;stroke:#000000;stroke-width:2;" x="124.299653" xlink:href="#me1c405da47" y="22.318125"/>
      </g>
     </g>
     <g id="text_3">
      <!-- 100 -->
      <g transform="translate(112.847153 266.784375)scale(0.12 -0.12)">
       <defs>
        <path d="M 12.40625 8.296875 
L 28.515625 8.296875 
L 28.515625 63.921875 
L 10.984375 60.40625 
L 10.984375 69.390625 
L 28.421875 72.90625 
L 38.28125 72.90625 
L 38.28125 8.296875 
L 54.390625 8.296875 
L 54.390625 0 
L 12.40625 0 
z
" id="DejaVuSans-49"/>
       </defs>
       <use xlink:href="#DejaVuSans-49"/>
       <use x="63.623047" xlink:href="#DejaVuSans-48"/>
       <use x="127.246094" xlink:href="#DejaVuSans-48"/>
      </g>
     </g>
    </g>
    <g id="xtick_4">
     <g id="line2d_7">
      <g>
       <use style="fill:#ffffff;stroke:#000000;stroke-width:2;" x="167.009053" xlink:href="#m8c47b38745" y="254.16625"/>
      </g>
     </g>
     <g id="line2d_8">
      <g>
       <use style="fill:#ffffff;stroke:#000000;stroke-width:2;" x="167.009053" xlink:href="#me1c405da47" y="22.318125"/>
      </g>
     </g>
     <g id="text_4">
      <!-- 150 -->
      <g transform="translate(155.556553 266.784375)scale(0.12 -0.12)">
       <use xlink:href="#DejaVuSans-49"/>
       <use x="63.623047" xlink:href="#DejaVuSans-53"/>
       <use x="127.246094" xlink:href="#DejaVuSans-48"/>
      </g>
     </g>
    </g>
    <g id="xtick_5">
     <g id="line2d_9">
      <g>
       <use style="fill:#ffffff;stroke:#000000;stroke-width:2;" x="209.718454" xlink:href="#m8c47b38745" y="254.16625"/>
      </g>
     </g>
     <g id="line2d_10">
      <g>
       <use style="fill:#ffffff;stroke:#000000;stroke-width:2;" x="209.718454" xlink:href="#me1c405da47" y="22.318125"/>
      </g>
     </g>
     <g id="text_5">
      <!-- 200 -->
      <g transform="translate(198.265954 266.784375)scale(0.12 -0.12)">
       <defs>
        <path d="M 19.1875 8.296875 
L 53.609375 8.296875 
L 53.609375 0 
L 7.328125 0 
L 7.328125 8.296875 
Q 12.9375 14.109375 22.625 23.890625 
Q 32.328125 33.6875 34.8125 36.53125 
Q 39.546875 41.84375 41.421875 45.53125 
Q 43.3125 49.21875 43.3125 52.78125 
Q 43.3125 58.59375 39.234375 62.25 
Q 35.15625 65.921875 28.609375 65.921875 
Q 23.96875 65.921875 18.8125 64.3125 
Q 13.671875 62.703125 7.8125 59.421875 
L 7.8125 69.390625 
Q 13.765625 71.78125 18.9375 73 
Q 24.125 74.21875 28.421875 74.21875 
Q 39.75 74.21875 46.484375 68.546875 
Q 53.21875 62.890625 53.21875 53.421875 
Q 53.21875 48.921875 51.53125 44.890625 
Q 49.859375 40.875 45.40625 35.40625 
Q 44.1875 33.984375 37.640625 27.21875 
Q 31.109375 20.453125 19.1875 8.296875 
z
" id="DejaVuSans-50"/>
       </defs>
       <use xlink:href="#DejaVuSans-50"/>
       <use x="63.623047" xlink:href="#DejaVuSans-48"/>
       <use x="127.246094" xlink:href="#DejaVuSans-48"/>
      </g>
     </g>
    </g>
   </g>
   <g id="matplotlib.axis_2">
    <g id="ytick_1">
     <g id="line2d_11">
      <defs>
       <path d="M 0 0 
L 6 0 
" id="meb5b64858b" style="stroke:#000000;stroke-width:2;"/>
      </defs>
      <g>
       <use style="fill:#ffffff;stroke:#000000;stroke-width:2;" x="29.78375" xlink:href="#meb5b64858b" y="243.627699"/>
      </g>
     </g>
     <g id="line2d_12">
      <defs>
       <path d="M 0 0 
L -6 0 
" id="mf96c273928" style="stroke:#000000;stroke-width:2;"/>
      </defs>
      <g>
       <use style="fill:#ffffff;stroke:#000000;stroke-width:2;" x="229.92" xlink:href="#mf96c273928" y="243.627699"/>
      </g>
     </g>
     <g id="text_6">
      <!-- 0.0 -->
      <g transform="translate(7.2 248.186761)scale(0.12 -0.12)">
       <defs>
        <path d="M 10.6875 12.40625 
L 21 12.40625 
L 21 0 
L 10.6875 0 
z
" id="DejaVuSans-46"/>
       </defs>
       <use xlink:href="#DejaVuSans-48"/>
       <use x="63.623047" xlink:href="#DejaVuSans-46"/>
       <use x="95.410156" xlink:href="#DejaVuSans-48"/>
      </g>
     </g>
    </g>
    <g id="ytick_2">
     <g id="line2d_13">
      <g>
       <use style="fill:#ffffff;stroke:#000000;stroke-width:2;" x="29.78375" xlink:href="#meb5b64858b" y="195.715847"/>
      </g>
     </g>
     <g id="line2d_14">
      <g>
       <use style="fill:#ffffff;stroke:#000000;stroke-width:2;" x="229.92" xlink:href="#mf96c273928" y="195.715847"/>
      </g>
     </g>
     <g id="text_7">
      <!-- 0.2 -->
      <g transform="translate(7.2 200.274909)scale(0.12 -0.12)">
       <use xlink:href="#DejaVuSans-48"/>
       <use x="63.623047" xlink:href="#DejaVuSans-46"/>
       <use x="95.410156" xlink:href="#DejaVuSans-50"/>
      </g>
     </g>
    </g>
    <g id="ytick_3">
     <g id="line2d_15">
      <g>
       <use style="fill:#ffffff;stroke:#000000;stroke-width:2;" x="29.78375" xlink:href="#meb5b64858b" y="147.803995"/>
      </g>
     </g>
     <g id="line2d_16">
      <g>
       <use style="fill:#ffffff;stroke:#000000;stroke-width:2;" x="229.92" xlink:href="#mf96c273928" y="147.803995"/>
      </g>
     </g>
     <g id="text_8">
      <!-- 0.4 -->
      <g transform="translate(7.2 152.363057)scale(0.12 -0.12)">
       <defs>
        <path d="M 37.796875 64.3125 
L 12.890625 25.390625 
L 37.796875 25.390625 
z
M 35.203125 72.90625 
L 47.609375 72.90625 
L 47.609375 25.390625 
L 58.015625 25.390625 
L 58.015625 17.1875 
L 47.609375 17.1875 
L 47.609375 0 
L 37.796875 0 
L 37.796875 17.1875 
L 4.890625 17.1875 
L 4.890625 26.703125 
z
" id="DejaVuSans-52"/>
       </defs>
       <use xlink:href="#DejaVuSans-48"/>
       <use x="63.623047" xlink:href="#DejaVuSans-46"/>
       <use x="95.410156" xlink:href="#DejaVuSans-52"/>
      </g>
     </g>
    </g>
    <g id="ytick_4">
     <g id="line2d_17">
      <g>
       <use style="fill:#ffffff;stroke:#000000;stroke-width:2;" x="29.78375" xlink:href="#meb5b64858b" y="99.892143"/>
      </g>
     </g>
     <g id="line2d_18">
      <g>
       <use style="fill:#ffffff;stroke:#000000;stroke-width:2;" x="229.92" xlink:href="#mf96c273928" y="99.892143"/>
      </g>
     </g>
     <g id="text_9">
      <!-- 0.6 -->
      <g transform="translate(7.2 104.451205)scale(0.12 -0.12)">
       <defs>
        <path d="M 33.015625 40.375 
Q 26.375 40.375 22.484375 35.828125 
Q 18.609375 31.296875 18.609375 23.390625 
Q 18.609375 15.53125 22.484375 10.953125 
Q 26.375 6.390625 33.015625 6.390625 
Q 39.65625 6.390625 43.53125 10.953125 
Q 47.40625 15.53125 47.40625 23.390625 
Q 47.40625 31.296875 43.53125 35.828125 
Q 39.65625 40.375 33.015625 40.375 
z
M 52.59375 71.296875 
L 52.59375 62.3125 
Q 48.875 64.0625 45.09375 64.984375 
Q 41.3125 65.921875 37.59375 65.921875 
Q 27.828125 65.921875 22.671875 59.328125 
Q 17.53125 52.734375 16.796875 39.40625 
Q 19.671875 43.65625 24.015625 45.921875 
Q 28.375 48.1875 33.59375 48.1875 
Q 44.578125 48.1875 50.953125 41.515625 
Q 57.328125 34.859375 57.328125 23.390625 
Q 57.328125 12.15625 50.6875 5.359375 
Q 44.046875 -1.421875 33.015625 -1.421875 
Q 20.359375 -1.421875 13.671875 8.265625 
Q 6.984375 17.96875 6.984375 36.375 
Q 6.984375 53.65625 15.1875 63.9375 
Q 23.390625 74.21875 37.203125 74.21875 
Q 40.921875 74.21875 44.703125 73.484375 
Q 48.484375 72.75 52.59375 71.296875 
z
" id="DejaVuSans-54"/>
       </defs>
       <use xlink:href="#DejaVuSans-48"/>
       <use x="63.623047" xlink:href="#DejaVuSans-46"/>
       <use x="95.410156" xlink:href="#DejaVuSans-54"/>
      </g>
     </g>
    </g>
    <g id="ytick_5">
     <g id="line2d_19">
      <g>
       <use style="fill:#ffffff;stroke:#000000;stroke-width:2;" x="29.78375" xlink:href="#meb5b64858b" y="51.980291"/>
      </g>
     </g>
     <g id="line2d_20">
      <g>
       <use style="fill:#ffffff;stroke:#000000;stroke-width:2;" x="229.92" xlink:href="#mf96c273928" y="51.980291"/>
      </g>
     </g>
     <g id="text_10">
      <!-- 0.8 -->
      <g transform="translate(7.2 56.539353)scale(0.12 -0.12)">
       <defs>
        <path d="M 31.78125 34.625 
Q 24.75 34.625 20.71875 30.859375 
Q 16.703125 27.09375 16.703125 20.515625 
Q 16.703125 13.921875 20.71875 10.15625 
Q 24.75 6.390625 31.78125 6.390625 
Q 38.8125 6.390625 42.859375 10.171875 
Q 46.921875 13.96875 46.921875 20.515625 
Q 46.921875 27.09375 42.890625 30.859375 
Q 38.875 34.625 31.78125 34.625 
z
M 21.921875 38.8125 
Q 15.578125 40.375 12.03125 44.71875 
Q 8.5 49.078125 8.5 55.328125 
Q 8.5 64.0625 14.71875 69.140625 
Q 20.953125 74.21875 31.78125 74.21875 
Q 42.671875 74.21875 48.875 69.140625 
Q 55.078125 64.0625 55.078125 55.328125 
Q 55.078125 49.078125 51.53125 44.71875 
Q 48 40.375 41.703125 38.8125 
Q 48.828125 37.15625 52.796875 32.3125 
Q 56.78125 27.484375 56.78125 20.515625 
Q 56.78125 9.90625 50.3125 4.234375 
Q 43.84375 -1.421875 31.78125 -1.421875 
Q 19.734375 -1.421875 13.25 4.234375 
Q 6.78125 9.90625 6.78125 20.515625 
Q 6.78125 27.484375 10.78125 32.3125 
Q 14.796875 37.15625 21.921875 38.8125 
z
M 18.3125 54.390625 
Q 18.3125 48.734375 21.84375 45.5625 
Q 25.390625 42.390625 31.78125 42.390625 
Q 38.140625 42.390625 41.71875 45.5625 
Q 45.3125 48.734375 45.3125 54.390625 
Q 45.3125 60.0625 41.71875 63.234375 
Q 38.140625 66.40625 31.78125 66.40625 
Q 25.390625 66.40625 21.84375 63.234375 
Q 18.3125 60.0625 18.3125 54.390625 
z
" id="DejaVuSans-56"/>
       </defs>
       <use xlink:href="#DejaVuSans-48"/>
       <use x="63.623047" xlink:href="#DejaVuSans-46"/>
       <use x="95.410156" xlink:href="#DejaVuSans-56"/>
      </g>
     </g>
    </g>
   </g>
   <g id="line2d_21">
    <path clip-path="url(#p0d39f1d0e4)" d="M 38.880852 234.888413 
L 39.73504 32.856676 
L 40.589228 223.578748 
L 41.443416 243.627699 
L 220.822898 243.627699 
L 220.822898 243.627699 
" style="fill:none;stroke:#1f77b4;stroke-linecap:square;stroke-width:2;"/>
   </g>
   <g id="patch_3">
    <path d="M 29.78375 254.16625 
L 29.78375 22.318125 
" style="fill:none;stroke:#000000;stroke-linecap:square;stroke-linejoin:miter;stroke-width:2;"/>
   </g>
   <g id="patch_4">
    <path d="M 229.92 254.16625 
L 229.92 22.318125 
" style="fill:none;stroke:#000000;stroke-linecap:square;stroke-linejoin:miter;stroke-width:2;"/>
   </g>
   <g id="patch_5">
    <path d="M 29.78375 254.16625 
L 229.92 254.16625 
" style="fill:none;stroke:#000000;stroke-linecap:square;stroke-linejoin:miter;stroke-width:2;"/>
   </g>
   <g id="patch_6">
    <path d="M 29.78375 22.318125 
L 229.92 22.318125 
" style="fill:none;stroke:#000000;stroke-linecap:square;stroke-linejoin:miter;stroke-width:2;"/>
   </g>
   <g id="text_11">
    <!-- Probability Density Function -->
    <g transform="translate(45.995312 16.318125)scale(0.12 -0.12)">
     <defs>
      <path d="M 19.671875 64.796875 
L 19.671875 37.40625 
L 32.078125 37.40625 
Q 38.96875 37.40625 42.71875 40.96875 
Q 46.484375 44.53125 46.484375 51.125 
Q 46.484375 57.671875 42.71875 61.234375 
Q 38.96875 64.796875 32.078125 64.796875 
z
M 9.8125 72.90625 
L 32.078125 72.90625 
Q 44.34375 72.90625 50.609375 67.359375 
Q 56.890625 61.8125 56.890625 51.125 
Q 56.890625 40.328125 50.609375 34.8125 
Q 44.34375 29.296875 32.078125 29.296875 
L 19.671875 29.296875 
L 19.671875 0 
L 9.8125 0 
z
" id="DejaVuSans-80"/>
      <path d="M 41.109375 46.296875 
Q 39.59375 47.171875 37.8125 47.578125 
Q 36.03125 48 33.890625 48 
Q 26.265625 48 22.1875 43.046875 
Q 18.109375 38.09375 18.109375 28.8125 
L 18.109375 0 
L 9.078125 0 
L 9.078125 54.6875 
L 18.109375 54.6875 
L 18.109375 46.1875 
Q 20.953125 51.171875 25.484375 53.578125 
Q 30.03125 56 36.53125 56 
Q 37.453125 56 38.578125 55.875 
Q 39.703125 55.765625 41.0625 55.515625 
z
" id="DejaVuSans-114"/>
      <path d="M 30.609375 48.390625 
Q 23.390625 48.390625 19.1875 42.75 
Q 14.984375 37.109375 14.984375 27.296875 
Q 14.984375 17.484375 19.15625 11.84375 
Q 23.34375 6.203125 30.609375 6.203125 
Q 37.796875 6.203125 41.984375 11.859375 
Q 46.1875 17.53125 46.1875 27.296875 
Q 46.1875 37.015625 41.984375 42.703125 
Q 37.796875 48.390625 30.609375 48.390625 
z
M 30.609375 56 
Q 42.328125 56 49.015625 48.375 
Q 55.71875 40.765625 55.71875 27.296875 
Q 55.71875 13.875 49.015625 6.21875 
Q 42.328125 -1.421875 30.609375 -1.421875 
Q 18.84375 -1.421875 12.171875 6.21875 
Q 5.515625 13.875 5.515625 27.296875 
Q 5.515625 40.765625 12.171875 48.375 
Q 18.84375 56 30.609375 56 
z
" id="DejaVuSans-111"/>
      <path d="M 48.6875 27.296875 
Q 48.6875 37.203125 44.609375 42.84375 
Q 40.53125 48.484375 33.40625 48.484375 
Q 26.265625 48.484375 22.1875 42.84375 
Q 18.109375 37.203125 18.109375 27.296875 
Q 18.109375 17.390625 22.1875 11.75 
Q 26.265625 6.109375 33.40625 6.109375 
Q 40.53125 6.109375 44.609375 11.75 
Q 48.6875 17.390625 48.6875 27.296875 
z
M 18.109375 46.390625 
Q 20.953125 51.265625 25.265625 53.625 
Q 29.59375 56 35.59375 56 
Q 45.5625 56 51.78125 48.09375 
Q 58.015625 40.1875 58.015625 27.296875 
Q 58.015625 14.40625 51.78125 6.484375 
Q 45.5625 -1.421875 35.59375 -1.421875 
Q 29.59375 -1.421875 25.265625 0.953125 
Q 20.953125 3.328125 18.109375 8.203125 
L 18.109375 0 
L 9.078125 0 
L 9.078125 75.984375 
L 18.109375 75.984375 
z
" id="DejaVuSans-98"/>
      <path d="M 34.28125 27.484375 
Q 23.390625 27.484375 19.1875 25 
Q 14.984375 22.515625 14.984375 16.5 
Q 14.984375 11.71875 18.140625 8.90625 
Q 21.296875 6.109375 26.703125 6.109375 
Q 34.1875 6.109375 38.703125 11.40625 
Q 43.21875 16.703125 43.21875 25.484375 
L 43.21875 27.484375 
z
M 52.203125 31.203125 
L 52.203125 0 
L 43.21875 0 
L 43.21875 8.296875 
Q 40.140625 3.328125 35.546875 0.953125 
Q 30.953125 -1.421875 24.3125 -1.421875 
Q 15.921875 -1.421875 10.953125 3.296875 
Q 6 8.015625 6 15.921875 
Q 6 25.140625 12.171875 29.828125 
Q 18.359375 34.515625 30.609375 34.515625 
L 43.21875 34.515625 
L 43.21875 35.40625 
Q 43.21875 41.609375 39.140625 45 
Q 35.0625 48.390625 27.6875 48.390625 
Q 23 48.390625 18.546875 47.265625 
Q 14.109375 46.140625 10.015625 43.890625 
L 10.015625 52.203125 
Q 14.9375 54.109375 19.578125 55.046875 
Q 24.21875 56 28.609375 56 
Q 40.484375 56 46.34375 49.84375 
Q 52.203125 43.703125 52.203125 31.203125 
z
" id="DejaVuSans-97"/>
      <path d="M 9.421875 54.6875 
L 18.40625 54.6875 
L 18.40625 0 
L 9.421875 0 
z
M 9.421875 75.984375 
L 18.40625 75.984375 
L 18.40625 64.59375 
L 9.421875 64.59375 
z
" id="DejaVuSans-105"/>
      <path d="M 9.421875 75.984375 
L 18.40625 75.984375 
L 18.40625 0 
L 9.421875 0 
z
" id="DejaVuSans-108"/>
      <path d="M 18.3125 70.21875 
L 18.3125 54.6875 
L 36.8125 54.6875 
L 36.8125 47.703125 
L 18.3125 47.703125 
L 18.3125 18.015625 
Q 18.3125 11.328125 20.140625 9.421875 
Q 21.96875 7.515625 27.59375 7.515625 
L 36.8125 7.515625 
L 36.8125 0 
L 27.59375 0 
Q 17.1875 0 13.234375 3.875 
Q 9.28125 7.765625 9.28125 18.015625 
L 9.28125 47.703125 
L 2.6875 47.703125 
L 2.6875 54.6875 
L 9.28125 54.6875 
L 9.28125 70.21875 
z
" id="DejaVuSans-116"/>
      <path d="M 32.171875 -5.078125 
Q 28.375 -14.84375 24.75 -17.8125 
Q 21.140625 -20.796875 15.09375 -20.796875 
L 7.90625 -20.796875 
L 7.90625 -13.28125 
L 13.1875 -13.28125 
Q 16.890625 -13.28125 18.9375 -11.515625 
Q 21 -9.765625 23.484375 -3.21875 
L 25.09375 0.875 
L 2.984375 54.6875 
L 12.5 54.6875 
L 29.59375 11.921875 
L 46.6875 54.6875 
L 56.203125 54.6875 
z
" id="DejaVuSans-121"/>
      <path id="DejaVuSans-32"/>
      <path d="M 19.671875 64.796875 
L 19.671875 8.109375 
L 31.59375 8.109375 
Q 46.6875 8.109375 53.6875 14.9375 
Q 60.6875 21.78125 60.6875 36.53125 
Q 60.6875 51.171875 53.6875 57.984375 
Q 46.6875 64.796875 31.59375 64.796875 
z
M 9.8125 72.90625 
L 30.078125 72.90625 
Q 51.265625 72.90625 61.171875 64.09375 
Q 71.09375 55.28125 71.09375 36.53125 
Q 71.09375 17.671875 61.125 8.828125 
Q 51.171875 0 30.078125 0 
L 9.8125 0 
z
" id="DejaVuSans-68"/>
      <path d="M 56.203125 29.59375 
L 56.203125 25.203125 
L 14.890625 25.203125 
Q 15.484375 15.921875 20.484375 11.0625 
Q 25.484375 6.203125 34.421875 6.203125 
Q 39.59375 6.203125 44.453125 7.46875 
Q 49.3125 8.734375 54.109375 11.28125 
L 54.109375 2.78125 
Q 49.265625 0.734375 44.1875 -0.34375 
Q 39.109375 -1.421875 33.890625 -1.421875 
Q 20.796875 -1.421875 13.15625 6.1875 
Q 5.515625 13.8125 5.515625 26.8125 
Q 5.515625 40.234375 12.765625 48.109375 
Q 20.015625 56 32.328125 56 
Q 43.359375 56 49.78125 48.890625 
Q 56.203125 41.796875 56.203125 29.59375 
z
M 47.21875 32.234375 
Q 47.125 39.59375 43.09375 43.984375 
Q 39.0625 48.390625 32.421875 48.390625 
Q 24.90625 48.390625 20.390625 44.140625 
Q 15.875 39.890625 15.1875 32.171875 
z
" id="DejaVuSans-101"/>
      <path d="M 54.890625 33.015625 
L 54.890625 0 
L 45.90625 0 
L 45.90625 32.71875 
Q 45.90625 40.484375 42.875 44.328125 
Q 39.84375 48.1875 33.796875 48.1875 
Q 26.515625 48.1875 22.3125 43.546875 
Q 18.109375 38.921875 18.109375 30.90625 
L 18.109375 0 
L 9.078125 0 
L 9.078125 54.6875 
L 18.109375 54.6875 
L 18.109375 46.1875 
Q 21.34375 51.125 25.703125 53.5625 
Q 30.078125 56 35.796875 56 
Q 45.21875 56 50.046875 50.171875 
Q 54.890625 44.34375 54.890625 33.015625 
z
" id="DejaVuSans-110"/>
      <path d="M 44.28125 53.078125 
L 44.28125 44.578125 
Q 40.484375 46.53125 36.375 47.5 
Q 32.28125 48.484375 27.875 48.484375 
Q 21.1875 48.484375 17.84375 46.4375 
Q 14.5 44.390625 14.5 40.28125 
Q 14.5 37.15625 16.890625 35.375 
Q 19.28125 33.59375 26.515625 31.984375 
L 29.59375 31.296875 
Q 39.15625 29.25 43.1875 25.515625 
Q 47.21875 21.78125 47.21875 15.09375 
Q 47.21875 7.46875 41.1875 3.015625 
Q 35.15625 -1.421875 24.609375 -1.421875 
Q 20.21875 -1.421875 15.453125 -0.5625 
Q 10.6875 0.296875 5.421875 2 
L 5.421875 11.28125 
Q 10.40625 8.6875 15.234375 7.390625 
Q 20.0625 6.109375 24.8125 6.109375 
Q 31.15625 6.109375 34.5625 8.28125 
Q 37.984375 10.453125 37.984375 14.40625 
Q 37.984375 18.0625 35.515625 20.015625 
Q 33.0625 21.96875 24.703125 23.78125 
L 21.578125 24.515625 
Q 13.234375 26.265625 9.515625 29.90625 
Q 5.8125 33.546875 5.8125 39.890625 
Q 5.8125 47.609375 11.28125 51.796875 
Q 16.75 56 26.8125 56 
Q 31.78125 56 36.171875 55.265625 
Q 40.578125 54.546875 44.28125 53.078125 
z
" id="DejaVuSans-115"/>
      <path d="M 9.8125 72.90625 
L 51.703125 72.90625 
L 51.703125 64.59375 
L 19.671875 64.59375 
L 19.671875 43.109375 
L 48.578125 43.109375 
L 48.578125 34.8125 
L 19.671875 34.8125 
L 19.671875 0 
L 9.8125 0 
z
" id="DejaVuSans-70"/>
      <path d="M 8.5 21.578125 
L 8.5 54.6875 
L 17.484375 54.6875 
L 17.484375 21.921875 
Q 17.484375 14.15625 20.5 10.265625 
Q 23.53125 6.390625 29.59375 6.390625 
Q 36.859375 6.390625 41.078125 11.03125 
Q 45.3125 15.671875 45.3125 23.6875 
L 45.3125 54.6875 
L 54.296875 54.6875 
L 54.296875 0 
L 45.3125 0 
L 45.3125 8.40625 
Q 42.046875 3.421875 37.71875 1 
Q 33.40625 -1.421875 27.6875 -1.421875 
Q 18.265625 -1.421875 13.375 4.4375 
Q 8.5 10.296875 8.5 21.578125 
z
M 31.109375 56 
z
" id="DejaVuSans-117"/>
      <path d="M 48.78125 52.59375 
L 48.78125 44.1875 
Q 44.96875 46.296875 41.140625 47.34375 
Q 37.3125 48.390625 33.40625 48.390625 
Q 24.65625 48.390625 19.8125 42.84375 
Q 14.984375 37.3125 14.984375 27.296875 
Q 14.984375 17.28125 19.8125 11.734375 
Q 24.65625 6.203125 33.40625 6.203125 
Q 37.3125 6.203125 41.140625 7.25 
Q 44.96875 8.296875 48.78125 10.40625 
L 48.78125 2.09375 
Q 45.015625 0.34375 40.984375 -0.53125 
Q 36.96875 -1.421875 32.421875 -1.421875 
Q 20.0625 -1.421875 12.78125 6.34375 
Q 5.515625 14.109375 5.515625 27.296875 
Q 5.515625 40.671875 12.859375 48.328125 
Q 20.21875 56 33.015625 56 
Q 37.15625 56 41.109375 55.140625 
Q 45.0625 54.296875 48.78125 52.59375 
z
" id="DejaVuSans-99"/>
     </defs>
     <use xlink:href="#DejaVuSans-80"/>
     <use x="58.552734" xlink:href="#DejaVuSans-114"/>
     <use x="97.416016" xlink:href="#DejaVuSans-111"/>
     <use x="158.597656" xlink:href="#DejaVuSans-98"/>
     <use x="222.074219" xlink:href="#DejaVuSans-97"/>
     <use x="283.353516" xlink:href="#DejaVuSans-98"/>
     <use x="346.830078" xlink:href="#DejaVuSans-105"/>
     <use x="374.613281" xlink:href="#DejaVuSans-108"/>
     <use x="402.396484" xlink:href="#DejaVuSans-105"/>
     <use x="430.179688" xlink:href="#DejaVuSans-116"/>
     <use x="469.388672" xlink:href="#DejaVuSans-121"/>
     <use x="528.568359" xlink:href="#DejaVuSans-32"/>
     <use x="560.355469" xlink:href="#DejaVuSans-68"/>
     <use x="637.357422" xlink:href="#DejaVuSans-101"/>
     <use x="698.880859" xlink:href="#DejaVuSans-110"/>
     <use x="762.259766" xlink:href="#DejaVuSans-115"/>
     <use x="814.359375" xlink:href="#DejaVuSans-105"/>
     <use x="842.142578" xlink:href="#DejaVuSans-116"/>
     <use x="881.351562" xlink:href="#DejaVuSans-121"/>
     <use x="940.53125" xlink:href="#DejaVuSans-32"/>
     <use x="972.318359" xlink:href="#DejaVuSans-70"/>
     <use x="1024.337891" xlink:href="#DejaVuSans-117"/>
     <use x="1087.716797" xlink:href="#DejaVuSans-110"/>
     <use x="1151.095703" xlink:href="#DejaVuSans-99"/>
     <use x="1206.076172" xlink:href="#DejaVuSans-116"/>
     <use x="1245.285156" xlink:href="#DejaVuSans-105"/>
     <use x="1273.068359" xlink:href="#DejaVuSans-111"/>
     <use x="1334.25" xlink:href="#DejaVuSans-110"/>
    </g>
   </g>
  </g>
  <g id="axes_2">
   <g id="patch_7">
    <path d="M 265.46375 254.16625 
L 465.6 254.16625 
L 465.6 22.318125 
L 265.46375 22.318125 
z
" style="fill:#ffffff;"/>
   </g>
   <g id="matplotlib.axis_3">
    <g id="xtick_6">
     <g id="line2d_22">
      <g>
       <use style="fill:#ffffff;stroke:#000000;stroke-width:2;" x="274.560852" xlink:href="#m8c47b38745" y="254.16625"/>
      </g>
     </g>
     <g id="line2d_23">
      <g>
       <use style="fill:#ffffff;stroke:#000000;stroke-width:2;" x="274.560852" xlink:href="#me1c405da47" y="22.318125"/>
      </g>
     </g>
     <g id="text_12">
      <!-- 0 -->
      <g transform="translate(270.743352 266.784375)scale(0.12 -0.12)">
       <use xlink:href="#DejaVuSans-48"/>
      </g>
     </g>
    </g>
    <g id="xtick_7">
     <g id="line2d_24">
      <g>
       <use style="fill:#ffffff;stroke:#000000;stroke-width:2;" x="317.270253" xlink:href="#m8c47b38745" y="254.16625"/>
      </g>
     </g>
     <g id="line2d_25">
      <g>
       <use style="fill:#ffffff;stroke:#000000;stroke-width:2;" x="317.270253" xlink:href="#me1c405da47" y="22.318125"/>
      </g>
     </g>
     <g id="text_13">
      <!-- 50 -->
      <g transform="translate(309.635253 266.784375)scale(0.12 -0.12)">
       <use xlink:href="#DejaVuSans-53"/>
       <use x="63.623047" xlink:href="#DejaVuSans-48"/>
      </g>
     </g>
    </g>
    <g id="xtick_8">
     <g id="line2d_26">
      <g>
       <use style="fill:#ffffff;stroke:#000000;stroke-width:2;" x="359.979653" xlink:href="#m8c47b38745" y="254.16625"/>
      </g>
     </g>
     <g id="line2d_27">
      <g>
       <use style="fill:#ffffff;stroke:#000000;stroke-width:2;" x="359.979653" xlink:href="#me1c405da47" y="22.318125"/>
      </g>
     </g>
     <g id="text_14">
      <!-- 100 -->
      <g transform="translate(348.527153 266.784375)scale(0.12 -0.12)">
       <use xlink:href="#DejaVuSans-49"/>
       <use x="63.623047" xlink:href="#DejaVuSans-48"/>
       <use x="127.246094" xlink:href="#DejaVuSans-48"/>
      </g>
     </g>
    </g>
    <g id="xtick_9">
     <g id="line2d_28">
      <g>
       <use style="fill:#ffffff;stroke:#000000;stroke-width:2;" x="402.689053" xlink:href="#m8c47b38745" y="254.16625"/>
      </g>
     </g>
     <g id="line2d_29">
      <g>
       <use style="fill:#ffffff;stroke:#000000;stroke-width:2;" x="402.689053" xlink:href="#me1c405da47" y="22.318125"/>
      </g>
     </g>
     <g id="text_15">
      <!-- 150 -->
      <g transform="translate(391.236553 266.784375)scale(0.12 -0.12)">
       <use xlink:href="#DejaVuSans-49"/>
       <use x="63.623047" xlink:href="#DejaVuSans-53"/>
       <use x="127.246094" xlink:href="#DejaVuSans-48"/>
      </g>
     </g>
    </g>
    <g id="xtick_10">
     <g id="line2d_30">
      <g>
       <use style="fill:#ffffff;stroke:#000000;stroke-width:2;" x="445.398454" xlink:href="#m8c47b38745" y="254.16625"/>
      </g>
     </g>
     <g id="line2d_31">
      <g>
       <use style="fill:#ffffff;stroke:#000000;stroke-width:2;" x="445.398454" xlink:href="#me1c405da47" y="22.318125"/>
      </g>
     </g>
     <g id="text_16">
      <!-- 200 -->
      <g transform="translate(433.945954 266.784375)scale(0.12 -0.12)">
       <use xlink:href="#DejaVuSans-50"/>
       <use x="63.623047" xlink:href="#DejaVuSans-48"/>
       <use x="127.246094" xlink:href="#DejaVuSans-48"/>
      </g>
     </g>
    </g>
   </g>
   <g id="matplotlib.axis_4">
    <g id="ytick_6">
     <g id="line2d_32">
      <g>
       <use style="fill:#ffffff;stroke:#000000;stroke-width:2;" x="265.46375" xlink:href="#meb5b64858b" y="243.627699"/>
      </g>
     </g>
     <g id="line2d_33">
      <g>
       <use style="fill:#ffffff;stroke:#000000;stroke-width:2;" x="465.6" xlink:href="#mf96c273928" y="243.627699"/>
      </g>
     </g>
     <g id="text_17">
      <!-- 0.0 -->
      <g transform="translate(242.88 248.186761)scale(0.12 -0.12)">
       <use xlink:href="#DejaVuSans-48"/>
       <use x="63.623047" xlink:href="#DejaVuSans-46"/>
       <use x="95.410156" xlink:href="#DejaVuSans-48"/>
      </g>
     </g>
    </g>
    <g id="ytick_7">
     <g id="line2d_34">
      <g>
       <use style="fill:#ffffff;stroke:#000000;stroke-width:2;" x="265.46375" xlink:href="#meb5b64858b" y="201.473494"/>
      </g>
     </g>
     <g id="line2d_35">
      <g>
       <use style="fill:#ffffff;stroke:#000000;stroke-width:2;" x="465.6" xlink:href="#mf96c273928" y="201.473494"/>
      </g>
     </g>
     <g id="text_18">
      <!-- 0.2 -->
      <g transform="translate(242.88 206.032557)scale(0.12 -0.12)">
       <use xlink:href="#DejaVuSans-48"/>
       <use x="63.623047" xlink:href="#DejaVuSans-46"/>
       <use x="95.410156" xlink:href="#DejaVuSans-50"/>
      </g>
     </g>
    </g>
    <g id="ytick_8">
     <g id="line2d_36">
      <g>
       <use style="fill:#ffffff;stroke:#000000;stroke-width:2;" x="265.46375" xlink:href="#meb5b64858b" y="159.31929"/>
      </g>
     </g>
     <g id="line2d_37">
      <g>
       <use style="fill:#ffffff;stroke:#000000;stroke-width:2;" x="465.6" xlink:href="#mf96c273928" y="159.31929"/>
      </g>
     </g>
     <g id="text_19">
      <!-- 0.4 -->
      <g transform="translate(242.88 163.878352)scale(0.12 -0.12)">
       <use xlink:href="#DejaVuSans-48"/>
       <use x="63.623047" xlink:href="#DejaVuSans-46"/>
       <use x="95.410156" xlink:href="#DejaVuSans-52"/>
      </g>
     </g>
    </g>
    <g id="ytick_9">
     <g id="line2d_38">
      <g>
       <use style="fill:#ffffff;stroke:#000000;stroke-width:2;" x="265.46375" xlink:href="#meb5b64858b" y="117.165085"/>
      </g>
     </g>
     <g id="line2d_39">
      <g>
       <use style="fill:#ffffff;stroke:#000000;stroke-width:2;" x="465.6" xlink:href="#mf96c273928" y="117.165085"/>
      </g>
     </g>
     <g id="text_20">
      <!-- 0.6 -->
      <g transform="translate(242.88 121.724148)scale(0.12 -0.12)">
       <use xlink:href="#DejaVuSans-48"/>
       <use x="63.623047" xlink:href="#DejaVuSans-46"/>
       <use x="95.410156" xlink:href="#DejaVuSans-54"/>
      </g>
     </g>
    </g>
    <g id="ytick_10">
     <g id="line2d_40">
      <g>
       <use style="fill:#ffffff;stroke:#000000;stroke-width:2;" x="265.46375" xlink:href="#meb5b64858b" y="75.010881"/>
      </g>
     </g>
     <g id="line2d_41">
      <g>
       <use style="fill:#ffffff;stroke:#000000;stroke-width:2;" x="465.6" xlink:href="#mf96c273928" y="75.010881"/>
      </g>
     </g>
     <g id="text_21">
      <!-- 0.8 -->
      <g transform="translate(242.88 79.569943)scale(0.12 -0.12)">
       <use xlink:href="#DejaVuSans-48"/>
       <use x="63.623047" xlink:href="#DejaVuSans-46"/>
       <use x="95.410156" xlink:href="#DejaVuSans-56"/>
      </g>
     </g>
    </g>
    <g id="ytick_11">
     <g id="line2d_42">
      <g>
       <use style="fill:#ffffff;stroke:#000000;stroke-width:2;" x="265.46375" xlink:href="#meb5b64858b" y="32.856676"/>
      </g>
     </g>
     <g id="line2d_43">
      <g>
       <use style="fill:#ffffff;stroke:#000000;stroke-width:2;" x="465.6" xlink:href="#mf96c273928" y="32.856676"/>
      </g>
     </g>
     <g id="text_22">
      <!-- 1.0 -->
      <g transform="translate(242.88 37.415739)scale(0.12 -0.12)">
       <use xlink:href="#DejaVuSans-49"/>
       <use x="63.623047" xlink:href="#DejaVuSans-46"/>
       <use x="95.410156" xlink:href="#DejaVuSans-48"/>
      </g>
     </g>
    </g>
   </g>
   <g id="line2d_44">
    <path clip-path="url(#pba23c72361)" d="M 274.560852 32.856676 
L 275.41504 40.545748 
L 276.269228 225.988064 
L 277.123416 243.627699 
L 456.502898 243.627699 
L 456.502898 243.627699 
" style="fill:none;stroke:#1f77b4;stroke-linecap:square;stroke-width:2;"/>
   </g>
   <g id="patch_8">
    <path d="M 265.46375 254.16625 
L 265.46375 22.318125 
" style="fill:none;stroke:#000000;stroke-linecap:square;stroke-linejoin:miter;stroke-width:2;"/>
   </g>
   <g id="patch_9">
    <path d="M 465.6 254.16625 
L 465.6 22.318125 
" style="fill:none;stroke:#000000;stroke-linecap:square;stroke-linejoin:miter;stroke-width:2;"/>
   </g>
   <g id="patch_10">
    <path d="M 265.46375 254.16625 
L 465.6 254.16625 
" style="fill:none;stroke:#000000;stroke-linecap:square;stroke-linejoin:miter;stroke-width:2;"/>
   </g>
   <g id="patch_11">
    <path d="M 265.46375 22.318125 
L 465.6 22.318125 
" style="fill:none;stroke:#000000;stroke-linecap:square;stroke-linejoin:miter;stroke-width:2;"/>
   </g>
   <g id="text_23">
    <!-- Cumulative Density Function -->
    <g transform="translate(279.145 16.318125)scale(0.12 -0.12)">
     <defs>
      <path d="M 64.40625 67.28125 
L 64.40625 56.890625 
Q 59.421875 61.53125 53.78125 63.8125 
Q 48.140625 66.109375 41.796875 66.109375 
Q 29.296875 66.109375 22.65625 58.46875 
Q 16.015625 50.828125 16.015625 36.375 
Q 16.015625 21.96875 22.65625 14.328125 
Q 29.296875 6.6875 41.796875 6.6875 
Q 48.140625 6.6875 53.78125 8.984375 
Q 59.421875 11.28125 64.40625 15.921875 
L 64.40625 5.609375 
Q 59.234375 2.09375 53.4375 0.328125 
Q 47.65625 -1.421875 41.21875 -1.421875 
Q 24.65625 -1.421875 15.125 8.703125 
Q 5.609375 18.84375 5.609375 36.375 
Q 5.609375 53.953125 15.125 64.078125 
Q 24.65625 74.21875 41.21875 74.21875 
Q 47.75 74.21875 53.53125 72.484375 
Q 59.328125 70.75 64.40625 67.28125 
z
" id="DejaVuSans-67"/>
      <path d="M 52 44.1875 
Q 55.375 50.25 60.0625 53.125 
Q 64.75 56 71.09375 56 
Q 79.640625 56 84.28125 50.015625 
Q 88.921875 44.046875 88.921875 33.015625 
L 88.921875 0 
L 79.890625 0 
L 79.890625 32.71875 
Q 79.890625 40.578125 77.09375 44.375 
Q 74.3125 48.1875 68.609375 48.1875 
Q 61.625 48.1875 57.5625 43.546875 
Q 53.515625 38.921875 53.515625 30.90625 
L 53.515625 0 
L 44.484375 0 
L 44.484375 32.71875 
Q 44.484375 40.625 41.703125 44.40625 
Q 38.921875 48.1875 33.109375 48.1875 
Q 26.21875 48.1875 22.15625 43.53125 
Q 18.109375 38.875 18.109375 30.90625 
L 18.109375 0 
L 9.078125 0 
L 9.078125 54.6875 
L 18.109375 54.6875 
L 18.109375 46.1875 
Q 21.1875 51.21875 25.484375 53.609375 
Q 29.78125 56 35.6875 56 
Q 41.65625 56 45.828125 52.96875 
Q 50 49.953125 52 44.1875 
z
" id="DejaVuSans-109"/>
      <path d="M 2.984375 54.6875 
L 12.5 54.6875 
L 29.59375 8.796875 
L 46.6875 54.6875 
L 56.203125 54.6875 
L 35.6875 0 
L 23.484375 0 
z
" id="DejaVuSans-118"/>
     </defs>
     <use xlink:href="#DejaVuSans-67"/>
     <use x="69.824219" xlink:href="#DejaVuSans-117"/>
     <use x="133.203125" xlink:href="#DejaVuSans-109"/>
     <use x="230.615234" xlink:href="#DejaVuSans-117"/>
     <use x="293.994141" xlink:href="#DejaVuSans-108"/>
     <use x="321.777344" xlink:href="#DejaVuSans-97"/>
     <use x="383.056641" xlink:href="#DejaVuSans-116"/>
     <use x="422.265625" xlink:href="#DejaVuSans-105"/>
     <use x="450.048828" xlink:href="#DejaVuSans-118"/>
     <use x="509.228516" xlink:href="#DejaVuSans-101"/>
     <use x="570.751953" xlink:href="#DejaVuSans-32"/>
     <use x="602.539062" xlink:href="#DejaVuSans-68"/>
     <use x="679.541016" xlink:href="#DejaVuSans-101"/>
     <use x="741.064453" xlink:href="#DejaVuSans-110"/>
     <use x="804.443359" xlink:href="#DejaVuSans-115"/>
     <use x="856.542969" xlink:href="#DejaVuSans-105"/>
     <use x="884.326172" xlink:href="#DejaVuSans-116"/>
     <use x="923.535156" xlink:href="#DejaVuSans-121"/>
     <use x="982.714844" xlink:href="#DejaVuSans-32"/>
     <use x="1014.501953" xlink:href="#DejaVuSans-70"/>
     <use x="1066.521484" xlink:href="#DejaVuSans-117"/>
     <use x="1129.900391" xlink:href="#DejaVuSans-110"/>
     <use x="1193.279297" xlink:href="#DejaVuSans-99"/>
     <use x="1248.259766" xlink:href="#DejaVuSans-116"/>
     <use x="1287.46875" xlink:href="#DejaVuSans-105"/>
     <use x="1315.251953" xlink:href="#DejaVuSans-111"/>
     <use x="1376.433594" xlink:href="#DejaVuSans-110"/>
    </g>
   </g>
  </g>
  <g id="axes_3">
   <g id="patch_12">
    <path d="M 501.14375 254.16625 
L 701.28 254.16625 
L 701.28 22.318125 
L 501.14375 22.318125 
z
" style="fill:#ffffff;"/>
   </g>
   <g id="patch_13">
    <path clip-path="url(#p5b146796ff)" d="M 510.240852 254.16625 
L 511.091049 254.16625 
L 511.091049 33.358512 
L 510.240852 33.358512 
z
" style="fill:#1f77b4;stroke:#000000;stroke-linejoin:miter;"/>
   </g>
   <g id="patch_14">
    <path clip-path="url(#p5b146796ff)" d="M 511.091049 254.16625 
L 511.941245 254.16625 
L 511.941245 41.41373 
L 511.091049 41.41373 
z
" style="fill:#1f77b4;stroke:#000000;stroke-linejoin:miter;"/>
   </g>
   <g id="patch_15">
    <path clip-path="url(#p5b146796ff)" d="M 511.941245 254.16625 
L 512.791442 254.16625 
L 512.791442 235.686632 
L 511.941245 235.686632 
z
" style="fill:#1f77b4;stroke:#000000;stroke-linejoin:miter;"/>
   </g>
   <g id="patch_16">
    <path clip-path="url(#p5b146796ff)" d="M 512.791442 254.16625 
L 513.641638 254.16625 
L 513.641638 254.16625 
L 512.791442 254.16625 
z
" style="fill:#1f77b4;stroke:#000000;stroke-linejoin:miter;"/>
   </g>
   <g id="patch_17">
    <path clip-path="url(#p5b146796ff)" d="M 513.641638 254.16625 
L 514.491835 254.16625 
L 514.491835 254.16625 
L 513.641638 254.16625 
z
" style="fill:#1f77b4;stroke:#000000;stroke-linejoin:miter;"/>
   </g>
   <g id="patch_18">
    <path clip-path="url(#p5b146796ff)" d="M 514.491835 254.16625 
L 515.342031 254.16625 
L 515.342031 254.16625 
L 514.491835 254.16625 
z
" style="fill:#1f77b4;stroke:#000000;stroke-linejoin:miter;"/>
   </g>
   <g id="patch_19">
    <path clip-path="url(#p5b146796ff)" d="M 515.342031 254.16625 
L 516.192228 254.16625 
L 516.192228 254.16625 
L 515.342031 254.16625 
z
" style="fill:#1f77b4;stroke:#000000;stroke-linejoin:miter;"/>
   </g>
   <g id="patch_20">
    <path clip-path="url(#p5b146796ff)" d="M 516.192228 254.16625 
L 517.042424 254.16625 
L 517.042424 254.16625 
L 516.192228 254.16625 
z
" style="fill:#1f77b4;stroke:#000000;stroke-linejoin:miter;"/>
   </g>
   <g id="patch_21">
    <path clip-path="url(#p5b146796ff)" d="M 517.042424 254.16625 
L 517.892621 254.16625 
L 517.892621 254.16625 
L 517.042424 254.16625 
z
" style="fill:#1f77b4;stroke:#000000;stroke-linejoin:miter;"/>
   </g>
   <g id="patch_22">
    <path clip-path="url(#p5b146796ff)" d="M 517.892621 254.16625 
L 518.742817 254.16625 
L 518.742817 254.16625 
L 517.892621 254.16625 
z
" style="fill:#1f77b4;stroke:#000000;stroke-linejoin:miter;"/>
   </g>
   <g id="patch_23">
    <path clip-path="url(#p5b146796ff)" d="M 518.742817 254.16625 
L 519.593013 254.16625 
L 519.593013 254.16625 
L 518.742817 254.16625 
z
" style="fill:#1f77b4;stroke:#000000;stroke-linejoin:miter;"/>
   </g>
   <g id="patch_24">
    <path clip-path="url(#p5b146796ff)" d="M 519.593013 254.16625 
L 520.44321 254.16625 
L 520.44321 254.16625 
L 519.593013 254.16625 
z
" style="fill:#1f77b4;stroke:#000000;stroke-linejoin:miter;"/>
   </g>
   <g id="patch_25">
    <path clip-path="url(#p5b146796ff)" d="M 520.44321 254.16625 
L 521.293406 254.16625 
L 521.293406 254.16625 
L 520.44321 254.16625 
z
" style="fill:#1f77b4;stroke:#000000;stroke-linejoin:miter;"/>
   </g>
   <g id="patch_26">
    <path clip-path="url(#p5b146796ff)" d="M 521.293406 254.16625 
L 522.143603 254.16625 
L 522.143603 254.16625 
L 521.293406 254.16625 
z
" style="fill:#1f77b4;stroke:#000000;stroke-linejoin:miter;"/>
   </g>
   <g id="patch_27">
    <path clip-path="url(#p5b146796ff)" d="M 522.143603 254.16625 
L 522.993799 254.16625 
L 522.993799 254.16625 
L 522.143603 254.16625 
z
" style="fill:#1f77b4;stroke:#000000;stroke-linejoin:miter;"/>
   </g>
   <g id="patch_28">
    <path clip-path="url(#p5b146796ff)" d="M 522.993799 254.16625 
L 523.843996 254.16625 
L 523.843996 254.16625 
L 522.993799 254.16625 
z
" style="fill:#1f77b4;stroke:#000000;stroke-linejoin:miter;"/>
   </g>
   <g id="patch_29">
    <path clip-path="url(#p5b146796ff)" d="M 523.843996 254.16625 
L 524.694192 254.16625 
L 524.694192 254.16625 
L 523.843996 254.16625 
z
" style="fill:#1f77b4;stroke:#000000;stroke-linejoin:miter;"/>
   </g>
   <g id="patch_30">
    <path clip-path="url(#p5b146796ff)" d="M 524.694192 254.16625 
L 525.544389 254.16625 
L 525.544389 254.16625 
L 524.694192 254.16625 
z
" style="fill:#1f77b4;stroke:#000000;stroke-linejoin:miter;"/>
   </g>
   <g id="patch_31">
    <path clip-path="url(#p5b146796ff)" d="M 525.544389 254.16625 
L 526.394585 254.16625 
L 526.394585 254.16625 
L 525.544389 254.16625 
z
" style="fill:#1f77b4;stroke:#000000;stroke-linejoin:miter;"/>
   </g>
   <g id="patch_32">
    <path clip-path="url(#p5b146796ff)" d="M 526.394585 254.16625 
L 527.244782 254.16625 
L 527.244782 254.16625 
L 526.394585 254.16625 
z
" style="fill:#1f77b4;stroke:#000000;stroke-linejoin:miter;"/>
   </g>
   <g id="patch_33">
    <path clip-path="url(#p5b146796ff)" d="M 527.244782 254.16625 
L 528.094978 254.16625 
L 528.094978 254.16625 
L 527.244782 254.16625 
z
" style="fill:#1f77b4;stroke:#000000;stroke-linejoin:miter;"/>
   </g>
   <g id="patch_34">
    <path clip-path="url(#p5b146796ff)" d="M 528.094978 254.16625 
L 528.945175 254.16625 
L 528.945175 254.16625 
L 528.094978 254.16625 
z
" style="fill:#1f77b4;stroke:#000000;stroke-linejoin:miter;"/>
   </g>
   <g id="patch_35">
    <path clip-path="url(#p5b146796ff)" d="M 528.945175 254.16625 
L 529.795371 254.16625 
L 529.795371 254.16625 
L 528.945175 254.16625 
z
" style="fill:#1f77b4;stroke:#000000;stroke-linejoin:miter;"/>
   </g>
   <g id="patch_36">
    <path clip-path="url(#p5b146796ff)" d="M 529.795371 254.16625 
L 530.645568 254.16625 
L 530.645568 254.16625 
L 529.795371 254.16625 
z
" style="fill:#1f77b4;stroke:#000000;stroke-linejoin:miter;"/>
   </g>
   <g id="patch_37">
    <path clip-path="url(#p5b146796ff)" d="M 530.645568 254.16625 
L 531.495764 254.16625 
L 531.495764 254.16625 
L 530.645568 254.16625 
z
" style="fill:#1f77b4;stroke:#000000;stroke-linejoin:miter;"/>
   </g>
   <g id="patch_38">
    <path clip-path="url(#p5b146796ff)" d="M 531.495764 254.16625 
L 532.345961 254.16625 
L 532.345961 254.16625 
L 531.495764 254.16625 
z
" style="fill:#1f77b4;stroke:#000000;stroke-linejoin:miter;"/>
   </g>
   <g id="patch_39">
    <path clip-path="url(#p5b146796ff)" d="M 532.345961 254.16625 
L 533.196157 254.16625 
L 533.196157 254.16625 
L 532.345961 254.16625 
z
" style="fill:#1f77b4;stroke:#000000;stroke-linejoin:miter;"/>
   </g>
   <g id="patch_40">
    <path clip-path="url(#p5b146796ff)" d="M 533.196157 254.16625 
L 534.046354 254.16625 
L 534.046354 254.16625 
L 533.196157 254.16625 
z
" style="fill:#1f77b4;stroke:#000000;stroke-linejoin:miter;"/>
   </g>
   <g id="patch_41">
    <path clip-path="url(#p5b146796ff)" d="M 534.046354 254.16625 
L 534.89655 254.16625 
L 534.89655 254.16625 
L 534.046354 254.16625 
z
" style="fill:#1f77b4;stroke:#000000;stroke-linejoin:miter;"/>
   </g>
   <g id="patch_42">
    <path clip-path="url(#p5b146796ff)" d="M 534.89655 254.16625 
L 535.746746 254.16625 
L 535.746746 254.16625 
L 534.89655 254.16625 
z
" style="fill:#1f77b4;stroke:#000000;stroke-linejoin:miter;"/>
   </g>
   <g id="patch_43">
    <path clip-path="url(#p5b146796ff)" d="M 535.746746 254.16625 
L 536.596943 254.16625 
L 536.596943 254.16625 
L 535.746746 254.16625 
z
" style="fill:#1f77b4;stroke:#000000;stroke-linejoin:miter;"/>
   </g>
   <g id="patch_44">
    <path clip-path="url(#p5b146796ff)" d="M 536.596943 254.16625 
L 537.447139 254.16625 
L 537.447139 254.16625 
L 536.596943 254.16625 
z
" style="fill:#1f77b4;stroke:#000000;stroke-linejoin:miter;"/>
   </g>
   <g id="patch_45">
    <path clip-path="url(#p5b146796ff)" d="M 537.447139 254.16625 
L 538.297336 254.16625 
L 538.297336 254.16625 
L 537.447139 254.16625 
z
" style="fill:#1f77b4;stroke:#000000;stroke-linejoin:miter;"/>
   </g>
   <g id="patch_46">
    <path clip-path="url(#p5b146796ff)" d="M 538.297336 254.16625 
L 539.147532 254.16625 
L 539.147532 254.16625 
L 538.297336 254.16625 
z
" style="fill:#1f77b4;stroke:#000000;stroke-linejoin:miter;"/>
   </g>
   <g id="patch_47">
    <path clip-path="url(#p5b146796ff)" d="M 539.147532 254.16625 
L 539.997729 254.16625 
L 539.997729 254.16625 
L 539.147532 254.16625 
z
" style="fill:#1f77b4;stroke:#000000;stroke-linejoin:miter;"/>
   </g>
   <g id="patch_48">
    <path clip-path="url(#p5b146796ff)" d="M 539.997729 254.16625 
L 540.847925 254.16625 
L 540.847925 254.16625 
L 539.997729 254.16625 
z
" style="fill:#1f77b4;stroke:#000000;stroke-linejoin:miter;"/>
   </g>
   <g id="patch_49">
    <path clip-path="url(#p5b146796ff)" d="M 540.847925 254.16625 
L 541.698122 254.16625 
L 541.698122 254.16625 
L 540.847925 254.16625 
z
" style="fill:#1f77b4;stroke:#000000;stroke-linejoin:miter;"/>
   </g>
   <g id="patch_50">
    <path clip-path="url(#p5b146796ff)" d="M 541.698122 254.16625 
L 542.548318 254.16625 
L 542.548318 254.16625 
L 541.698122 254.16625 
z
" style="fill:#1f77b4;stroke:#000000;stroke-linejoin:miter;"/>
   </g>
   <g id="patch_51">
    <path clip-path="url(#p5b146796ff)" d="M 542.548318 254.16625 
L 543.398515 254.16625 
L 543.398515 254.16625 
L 542.548318 254.16625 
z
" style="fill:#1f77b4;stroke:#000000;stroke-linejoin:miter;"/>
   </g>
   <g id="patch_52">
    <path clip-path="url(#p5b146796ff)" d="M 543.398515 254.16625 
L 544.248711 254.16625 
L 544.248711 254.16625 
L 543.398515 254.16625 
z
" style="fill:#1f77b4;stroke:#000000;stroke-linejoin:miter;"/>
   </g>
   <g id="patch_53">
    <path clip-path="url(#p5b146796ff)" d="M 544.248711 254.16625 
L 545.098908 254.16625 
L 545.098908 254.16625 
L 544.248711 254.16625 
z
" style="fill:#1f77b4;stroke:#000000;stroke-linejoin:miter;"/>
   </g>
   <g id="patch_54">
    <path clip-path="url(#p5b146796ff)" d="M 545.098908 254.16625 
L 545.949104 254.16625 
L 545.949104 254.16625 
L 545.098908 254.16625 
z
" style="fill:#1f77b4;stroke:#000000;stroke-linejoin:miter;"/>
   </g>
   <g id="patch_55">
    <path clip-path="url(#p5b146796ff)" d="M 545.949104 254.16625 
L 546.799301 254.16625 
L 546.799301 254.16625 
L 545.949104 254.16625 
z
" style="fill:#1f77b4;stroke:#000000;stroke-linejoin:miter;"/>
   </g>
   <g id="patch_56">
    <path clip-path="url(#p5b146796ff)" d="M 546.799301 254.16625 
L 547.649497 254.16625 
L 547.649497 254.16625 
L 546.799301 254.16625 
z
" style="fill:#1f77b4;stroke:#000000;stroke-linejoin:miter;"/>
   </g>
   <g id="patch_57">
    <path clip-path="url(#p5b146796ff)" d="M 547.649497 254.16625 
L 548.499694 254.16625 
L 548.499694 254.16625 
L 547.649497 254.16625 
z
" style="fill:#1f77b4;stroke:#000000;stroke-linejoin:miter;"/>
   </g>
   <g id="patch_58">
    <path clip-path="url(#p5b146796ff)" d="M 548.499694 254.16625 
L 549.34989 254.16625 
L 549.34989 254.16625 
L 548.499694 254.16625 
z
" style="fill:#1f77b4;stroke:#000000;stroke-linejoin:miter;"/>
   </g>
   <g id="patch_59">
    <path clip-path="url(#p5b146796ff)" d="M 549.34989 254.16625 
L 550.200087 254.16625 
L 550.200087 254.16625 
L 549.34989 254.16625 
z
" style="fill:#1f77b4;stroke:#000000;stroke-linejoin:miter;"/>
   </g>
   <g id="patch_60">
    <path clip-path="url(#p5b146796ff)" d="M 550.200087 254.16625 
L 551.050283 254.16625 
L 551.050283 254.16625 
L 550.200087 254.16625 
z
" style="fill:#1f77b4;stroke:#000000;stroke-linejoin:miter;"/>
   </g>
   <g id="patch_61">
    <path clip-path="url(#p5b146796ff)" d="M 551.050283 254.16625 
L 551.90048 254.16625 
L 551.90048 254.16625 
L 551.050283 254.16625 
z
" style="fill:#1f77b4;stroke:#000000;stroke-linejoin:miter;"/>
   </g>
   <g id="patch_62">
    <path clip-path="url(#p5b146796ff)" d="M 551.90048 254.16625 
L 552.750676 254.16625 
L 552.750676 254.16625 
L 551.90048 254.16625 
z
" style="fill:#1f77b4;stroke:#000000;stroke-linejoin:miter;"/>
   </g>
   <g id="patch_63">
    <path clip-path="url(#p5b146796ff)" d="M 552.750676 254.16625 
L 553.600872 254.16625 
L 553.600872 254.16625 
L 552.750676 254.16625 
z
" style="fill:#1f77b4;stroke:#000000;stroke-linejoin:miter;"/>
   </g>
   <g id="patch_64">
    <path clip-path="url(#p5b146796ff)" d="M 553.600872 254.16625 
L 554.451069 254.16625 
L 554.451069 254.16625 
L 553.600872 254.16625 
z
" style="fill:#1f77b4;stroke:#000000;stroke-linejoin:miter;"/>
   </g>
   <g id="patch_65">
    <path clip-path="url(#p5b146796ff)" d="M 554.451069 254.16625 
L 555.301265 254.16625 
L 555.301265 254.16625 
L 554.451069 254.16625 
z
" style="fill:#1f77b4;stroke:#000000;stroke-linejoin:miter;"/>
   </g>
   <g id="patch_66">
    <path clip-path="url(#p5b146796ff)" d="M 555.301265 254.16625 
L 556.151462 254.16625 
L 556.151462 254.16625 
L 555.301265 254.16625 
z
" style="fill:#1f77b4;stroke:#000000;stroke-linejoin:miter;"/>
   </g>
   <g id="patch_67">
    <path clip-path="url(#p5b146796ff)" d="M 556.151462 254.16625 
L 557.001658 254.16625 
L 557.001658 254.16625 
L 556.151462 254.16625 
z
" style="fill:#1f77b4;stroke:#000000;stroke-linejoin:miter;"/>
   </g>
   <g id="patch_68">
    <path clip-path="url(#p5b146796ff)" d="M 557.001658 254.16625 
L 557.851855 254.16625 
L 557.851855 254.16625 
L 557.001658 254.16625 
z
" style="fill:#1f77b4;stroke:#000000;stroke-linejoin:miter;"/>
   </g>
   <g id="patch_69">
    <path clip-path="url(#p5b146796ff)" d="M 557.851855 254.16625 
L 558.702051 254.16625 
L 558.702051 254.16625 
L 557.851855 254.16625 
z
" style="fill:#1f77b4;stroke:#000000;stroke-linejoin:miter;"/>
   </g>
   <g id="patch_70">
    <path clip-path="url(#p5b146796ff)" d="M 558.702051 254.16625 
L 559.552248 254.16625 
L 559.552248 254.16625 
L 558.702051 254.16625 
z
" style="fill:#1f77b4;stroke:#000000;stroke-linejoin:miter;"/>
   </g>
   <g id="patch_71">
    <path clip-path="url(#p5b146796ff)" d="M 559.552248 254.16625 
L 560.402444 254.16625 
L 560.402444 254.16625 
L 559.552248 254.16625 
z
" style="fill:#1f77b4;stroke:#000000;stroke-linejoin:miter;"/>
   </g>
   <g id="patch_72">
    <path clip-path="url(#p5b146796ff)" d="M 560.402444 254.16625 
L 561.252641 254.16625 
L 561.252641 254.16625 
L 560.402444 254.16625 
z
" style="fill:#1f77b4;stroke:#000000;stroke-linejoin:miter;"/>
   </g>
   <g id="patch_73">
    <path clip-path="url(#p5b146796ff)" d="M 561.252641 254.16625 
L 562.102837 254.16625 
L 562.102837 254.16625 
L 561.252641 254.16625 
z
" style="fill:#1f77b4;stroke:#000000;stroke-linejoin:miter;"/>
   </g>
   <g id="patch_74">
    <path clip-path="url(#p5b146796ff)" d="M 562.102837 254.16625 
L 562.953034 254.16625 
L 562.953034 254.16625 
L 562.102837 254.16625 
z
" style="fill:#1f77b4;stroke:#000000;stroke-linejoin:miter;"/>
   </g>
   <g id="patch_75">
    <path clip-path="url(#p5b146796ff)" d="M 562.953034 254.16625 
L 563.80323 254.16625 
L 563.80323 254.16625 
L 562.953034 254.16625 
z
" style="fill:#1f77b4;stroke:#000000;stroke-linejoin:miter;"/>
   </g>
   <g id="patch_76">
    <path clip-path="url(#p5b146796ff)" d="M 563.80323 254.16625 
L 564.653427 254.16625 
L 564.653427 254.16625 
L 563.80323 254.16625 
z
" style="fill:#1f77b4;stroke:#000000;stroke-linejoin:miter;"/>
   </g>
   <g id="patch_77">
    <path clip-path="url(#p5b146796ff)" d="M 564.653427 254.16625 
L 565.503623 254.16625 
L 565.503623 254.16625 
L 564.653427 254.16625 
z
" style="fill:#1f77b4;stroke:#000000;stroke-linejoin:miter;"/>
   </g>
   <g id="patch_78">
    <path clip-path="url(#p5b146796ff)" d="M 565.503623 254.16625 
L 566.35382 254.16625 
L 566.35382 254.16625 
L 565.503623 254.16625 
z
" style="fill:#1f77b4;stroke:#000000;stroke-linejoin:miter;"/>
   </g>
   <g id="patch_79">
    <path clip-path="url(#p5b146796ff)" d="M 566.35382 254.16625 
L 567.204016 254.16625 
L 567.204016 254.16625 
L 566.35382 254.16625 
z
" style="fill:#1f77b4;stroke:#000000;stroke-linejoin:miter;"/>
   </g>
   <g id="patch_80">
    <path clip-path="url(#p5b146796ff)" d="M 567.204016 254.16625 
L 568.054213 254.16625 
L 568.054213 254.16625 
L 567.204016 254.16625 
z
" style="fill:#1f77b4;stroke:#000000;stroke-linejoin:miter;"/>
   </g>
   <g id="patch_81">
    <path clip-path="url(#p5b146796ff)" d="M 568.054213 254.16625 
L 568.904409 254.16625 
L 568.904409 254.16625 
L 568.054213 254.16625 
z
" style="fill:#1f77b4;stroke:#000000;stroke-linejoin:miter;"/>
   </g>
   <g id="patch_82">
    <path clip-path="url(#p5b146796ff)" d="M 568.904409 254.16625 
L 569.754605 254.16625 
L 569.754605 254.16625 
L 568.904409 254.16625 
z
" style="fill:#1f77b4;stroke:#000000;stroke-linejoin:miter;"/>
   </g>
   <g id="patch_83">
    <path clip-path="url(#p5b146796ff)" d="M 569.754605 254.16625 
L 570.604802 254.16625 
L 570.604802 254.16625 
L 569.754605 254.16625 
z
" style="fill:#1f77b4;stroke:#000000;stroke-linejoin:miter;"/>
   </g>
   <g id="patch_84">
    <path clip-path="url(#p5b146796ff)" d="M 570.604802 254.16625 
L 571.454998 254.16625 
L 571.454998 254.16625 
L 570.604802 254.16625 
z
" style="fill:#1f77b4;stroke:#000000;stroke-linejoin:miter;"/>
   </g>
   <g id="patch_85">
    <path clip-path="url(#p5b146796ff)" d="M 571.454998 254.16625 
L 572.305195 254.16625 
L 572.305195 254.16625 
L 571.454998 254.16625 
z
" style="fill:#1f77b4;stroke:#000000;stroke-linejoin:miter;"/>
   </g>
   <g id="patch_86">
    <path clip-path="url(#p5b146796ff)" d="M 572.305195 254.16625 
L 573.155391 254.16625 
L 573.155391 254.16625 
L 572.305195 254.16625 
z
" style="fill:#1f77b4;stroke:#000000;stroke-linejoin:miter;"/>
   </g>
   <g id="patch_87">
    <path clip-path="url(#p5b146796ff)" d="M 573.155391 254.16625 
L 574.005588 254.16625 
L 574.005588 254.16625 
L 573.155391 254.16625 
z
" style="fill:#1f77b4;stroke:#000000;stroke-linejoin:miter;"/>
   </g>
   <g id="patch_88">
    <path clip-path="url(#p5b146796ff)" d="M 574.005588 254.16625 
L 574.855784 254.16625 
L 574.855784 254.16625 
L 574.005588 254.16625 
z
" style="fill:#1f77b4;stroke:#000000;stroke-linejoin:miter;"/>
   </g>
   <g id="patch_89">
    <path clip-path="url(#p5b146796ff)" d="M 574.855784 254.16625 
L 575.705981 254.16625 
L 575.705981 254.16625 
L 574.855784 254.16625 
z
" style="fill:#1f77b4;stroke:#000000;stroke-linejoin:miter;"/>
   </g>
   <g id="patch_90">
    <path clip-path="url(#p5b146796ff)" d="M 575.705981 254.16625 
L 576.556177 254.16625 
L 576.556177 254.16625 
L 575.705981 254.16625 
z
" style="fill:#1f77b4;stroke:#000000;stroke-linejoin:miter;"/>
   </g>
   <g id="patch_91">
    <path clip-path="url(#p5b146796ff)" d="M 576.556177 254.16625 
L 577.406374 254.16625 
L 577.406374 254.16625 
L 576.556177 254.16625 
z
" style="fill:#1f77b4;stroke:#000000;stroke-linejoin:miter;"/>
   </g>
   <g id="patch_92">
    <path clip-path="url(#p5b146796ff)" d="M 577.406374 254.16625 
L 578.25657 254.16625 
L 578.25657 254.16625 
L 577.406374 254.16625 
z
" style="fill:#1f77b4;stroke:#000000;stroke-linejoin:miter;"/>
   </g>
   <g id="patch_93">
    <path clip-path="url(#p5b146796ff)" d="M 578.25657 254.16625 
L 579.106767 254.16625 
L 579.106767 254.16625 
L 578.25657 254.16625 
z
" style="fill:#1f77b4;stroke:#000000;stroke-linejoin:miter;"/>
   </g>
   <g id="patch_94">
    <path clip-path="url(#p5b146796ff)" d="M 579.106767 254.16625 
L 579.956963 254.16625 
L 579.956963 254.16625 
L 579.106767 254.16625 
z
" style="fill:#1f77b4;stroke:#000000;stroke-linejoin:miter;"/>
   </g>
   <g id="patch_95">
    <path clip-path="url(#p5b146796ff)" d="M 579.956963 254.16625 
L 580.80716 254.16625 
L 580.80716 254.16625 
L 579.956963 254.16625 
z
" style="fill:#1f77b4;stroke:#000000;stroke-linejoin:miter;"/>
   </g>
   <g id="patch_96">
    <path clip-path="url(#p5b146796ff)" d="M 580.80716 254.16625 
L 581.657356 254.16625 
L 581.657356 254.16625 
L 580.80716 254.16625 
z
" style="fill:#1f77b4;stroke:#000000;stroke-linejoin:miter;"/>
   </g>
   <g id="patch_97">
    <path clip-path="url(#p5b146796ff)" d="M 581.657356 254.16625 
L 582.507553 254.16625 
L 582.507553 254.16625 
L 581.657356 254.16625 
z
" style="fill:#1f77b4;stroke:#000000;stroke-linejoin:miter;"/>
   </g>
   <g id="patch_98">
    <path clip-path="url(#p5b146796ff)" d="M 582.507553 254.16625 
L 583.357749 254.16625 
L 583.357749 254.16625 
L 582.507553 254.16625 
z
" style="fill:#1f77b4;stroke:#000000;stroke-linejoin:miter;"/>
   </g>
   <g id="patch_99">
    <path clip-path="url(#p5b146796ff)" d="M 583.357749 254.16625 
L 584.207946 254.16625 
L 584.207946 254.16625 
L 583.357749 254.16625 
z
" style="fill:#1f77b4;stroke:#000000;stroke-linejoin:miter;"/>
   </g>
   <g id="patch_100">
    <path clip-path="url(#p5b146796ff)" d="M 584.207946 254.16625 
L 585.058142 254.16625 
L 585.058142 254.16625 
L 584.207946 254.16625 
z
" style="fill:#1f77b4;stroke:#000000;stroke-linejoin:miter;"/>
   </g>
   <g id="patch_101">
    <path clip-path="url(#p5b146796ff)" d="M 585.058142 254.16625 
L 585.908338 254.16625 
L 585.908338 254.16625 
L 585.058142 254.16625 
z
" style="fill:#1f77b4;stroke:#000000;stroke-linejoin:miter;"/>
   </g>
   <g id="patch_102">
    <path clip-path="url(#p5b146796ff)" d="M 585.908338 254.16625 
L 586.758535 254.16625 
L 586.758535 254.16625 
L 585.908338 254.16625 
z
" style="fill:#1f77b4;stroke:#000000;stroke-linejoin:miter;"/>
   </g>
   <g id="patch_103">
    <path clip-path="url(#p5b146796ff)" d="M 586.758535 254.16625 
L 587.608731 254.16625 
L 587.608731 254.16625 
L 586.758535 254.16625 
z
" style="fill:#1f77b4;stroke:#000000;stroke-linejoin:miter;"/>
   </g>
   <g id="patch_104">
    <path clip-path="url(#p5b146796ff)" d="M 587.608731 254.16625 
L 588.458928 254.16625 
L 588.458928 254.16625 
L 587.608731 254.16625 
z
" style="fill:#1f77b4;stroke:#000000;stroke-linejoin:miter;"/>
   </g>
   <g id="patch_105">
    <path clip-path="url(#p5b146796ff)" d="M 588.458928 254.16625 
L 589.309124 254.16625 
L 589.309124 254.16625 
L 588.458928 254.16625 
z
" style="fill:#1f77b4;stroke:#000000;stroke-linejoin:miter;"/>
   </g>
   <g id="patch_106">
    <path clip-path="url(#p5b146796ff)" d="M 589.309124 254.16625 
L 590.159321 254.16625 
L 590.159321 254.16625 
L 589.309124 254.16625 
z
" style="fill:#1f77b4;stroke:#000000;stroke-linejoin:miter;"/>
   </g>
   <g id="patch_107">
    <path clip-path="url(#p5b146796ff)" d="M 590.159321 254.16625 
L 591.009517 254.16625 
L 591.009517 254.16625 
L 590.159321 254.16625 
z
" style="fill:#1f77b4;stroke:#000000;stroke-linejoin:miter;"/>
   </g>
   <g id="patch_108">
    <path clip-path="url(#p5b146796ff)" d="M 591.009517 254.16625 
L 591.859714 254.16625 
L 591.859714 254.16625 
L 591.009517 254.16625 
z
" style="fill:#1f77b4;stroke:#000000;stroke-linejoin:miter;"/>
   </g>
   <g id="patch_109">
    <path clip-path="url(#p5b146796ff)" d="M 591.859714 254.16625 
L 592.70991 254.16625 
L 592.70991 254.16625 
L 591.859714 254.16625 
z
" style="fill:#1f77b4;stroke:#000000;stroke-linejoin:miter;"/>
   </g>
   <g id="patch_110">
    <path clip-path="url(#p5b146796ff)" d="M 592.70991 254.16625 
L 593.560107 254.16625 
L 593.560107 254.16625 
L 592.70991 254.16625 
z
" style="fill:#1f77b4;stroke:#000000;stroke-linejoin:miter;"/>
   </g>
   <g id="patch_111">
    <path clip-path="url(#p5b146796ff)" d="M 593.560107 254.16625 
L 594.410303 254.16625 
L 594.410303 254.16625 
L 593.560107 254.16625 
z
" style="fill:#1f77b4;stroke:#000000;stroke-linejoin:miter;"/>
   </g>
   <g id="patch_112">
    <path clip-path="url(#p5b146796ff)" d="M 594.410303 254.16625 
L 595.2605 254.16625 
L 595.2605 254.16625 
L 594.410303 254.16625 
z
" style="fill:#1f77b4;stroke:#000000;stroke-linejoin:miter;"/>
   </g>
   <g id="patch_113">
    <path clip-path="url(#p5b146796ff)" d="M 595.2605 254.16625 
L 596.110696 254.16625 
L 596.110696 254.16625 
L 595.2605 254.16625 
z
" style="fill:#1f77b4;stroke:#000000;stroke-linejoin:miter;"/>
   </g>
   <g id="patch_114">
    <path clip-path="url(#p5b146796ff)" d="M 596.110696 254.16625 
L 596.960893 254.16625 
L 596.960893 254.16625 
L 596.110696 254.16625 
z
" style="fill:#1f77b4;stroke:#000000;stroke-linejoin:miter;"/>
   </g>
   <g id="patch_115">
    <path clip-path="url(#p5b146796ff)" d="M 596.960893 254.16625 
L 597.811089 254.16625 
L 597.811089 254.16625 
L 596.960893 254.16625 
z
" style="fill:#1f77b4;stroke:#000000;stroke-linejoin:miter;"/>
   </g>
   <g id="patch_116">
    <path clip-path="url(#p5b146796ff)" d="M 597.811089 254.16625 
L 598.661286 254.16625 
L 598.661286 254.16625 
L 597.811089 254.16625 
z
" style="fill:#1f77b4;stroke:#000000;stroke-linejoin:miter;"/>
   </g>
   <g id="patch_117">
    <path clip-path="url(#p5b146796ff)" d="M 598.661286 254.16625 
L 599.511482 254.16625 
L 599.511482 254.16625 
L 598.661286 254.16625 
z
" style="fill:#1f77b4;stroke:#000000;stroke-linejoin:miter;"/>
   </g>
   <g id="patch_118">
    <path clip-path="url(#p5b146796ff)" d="M 599.511482 254.16625 
L 600.361679 254.16625 
L 600.361679 254.16625 
L 599.511482 254.16625 
z
" style="fill:#1f77b4;stroke:#000000;stroke-linejoin:miter;"/>
   </g>
   <g id="patch_119">
    <path clip-path="url(#p5b146796ff)" d="M 600.361679 254.16625 
L 601.211875 254.16625 
L 601.211875 254.16625 
L 600.361679 254.16625 
z
" style="fill:#1f77b4;stroke:#000000;stroke-linejoin:miter;"/>
   </g>
   <g id="patch_120">
    <path clip-path="url(#p5b146796ff)" d="M 601.211875 254.16625 
L 602.062071 254.16625 
L 602.062071 254.16625 
L 601.211875 254.16625 
z
" style="fill:#1f77b4;stroke:#000000;stroke-linejoin:miter;"/>
   </g>
   <g id="patch_121">
    <path clip-path="url(#p5b146796ff)" d="M 602.062071 254.16625 
L 602.912268 254.16625 
L 602.912268 254.16625 
L 602.062071 254.16625 
z
" style="fill:#1f77b4;stroke:#000000;stroke-linejoin:miter;"/>
   </g>
   <g id="patch_122">
    <path clip-path="url(#p5b146796ff)" d="M 602.912268 254.16625 
L 603.762464 254.16625 
L 603.762464 254.16625 
L 602.912268 254.16625 
z
" style="fill:#1f77b4;stroke:#000000;stroke-linejoin:miter;"/>
   </g>
   <g id="patch_123">
    <path clip-path="url(#p5b146796ff)" d="M 603.762464 254.16625 
L 604.612661 254.16625 
L 604.612661 254.16625 
L 603.762464 254.16625 
z
" style="fill:#1f77b4;stroke:#000000;stroke-linejoin:miter;"/>
   </g>
   <g id="patch_124">
    <path clip-path="url(#p5b146796ff)" d="M 604.612661 254.16625 
L 605.462857 254.16625 
L 605.462857 254.16625 
L 604.612661 254.16625 
z
" style="fill:#1f77b4;stroke:#000000;stroke-linejoin:miter;"/>
   </g>
   <g id="patch_125">
    <path clip-path="url(#p5b146796ff)" d="M 605.462857 254.16625 
L 606.313054 254.16625 
L 606.313054 254.16625 
L 605.462857 254.16625 
z
" style="fill:#1f77b4;stroke:#000000;stroke-linejoin:miter;"/>
   </g>
   <g id="patch_126">
    <path clip-path="url(#p5b146796ff)" d="M 606.313054 254.16625 
L 607.16325 254.16625 
L 607.16325 254.16625 
L 606.313054 254.16625 
z
" style="fill:#1f77b4;stroke:#000000;stroke-linejoin:miter;"/>
   </g>
   <g id="patch_127">
    <path clip-path="url(#p5b146796ff)" d="M 607.16325 254.16625 
L 608.013447 254.16625 
L 608.013447 254.16625 
L 607.16325 254.16625 
z
" style="fill:#1f77b4;stroke:#000000;stroke-linejoin:miter;"/>
   </g>
   <g id="patch_128">
    <path clip-path="url(#p5b146796ff)" d="M 608.013447 254.16625 
L 608.863643 254.16625 
L 608.863643 254.16625 
L 608.013447 254.16625 
z
" style="fill:#1f77b4;stroke:#000000;stroke-linejoin:miter;"/>
   </g>
   <g id="patch_129">
    <path clip-path="url(#p5b146796ff)" d="M 608.863643 254.16625 
L 609.71384 254.16625 
L 609.71384 254.16625 
L 608.863643 254.16625 
z
" style="fill:#1f77b4;stroke:#000000;stroke-linejoin:miter;"/>
   </g>
   <g id="patch_130">
    <path clip-path="url(#p5b146796ff)" d="M 609.71384 254.16625 
L 610.564036 254.16625 
L 610.564036 254.16625 
L 609.71384 254.16625 
z
" style="fill:#1f77b4;stroke:#000000;stroke-linejoin:miter;"/>
   </g>
   <g id="patch_131">
    <path clip-path="url(#p5b146796ff)" d="M 610.564036 254.16625 
L 611.414233 254.16625 
L 611.414233 254.16625 
L 610.564036 254.16625 
z
" style="fill:#1f77b4;stroke:#000000;stroke-linejoin:miter;"/>
   </g>
   <g id="patch_132">
    <path clip-path="url(#p5b146796ff)" d="M 611.414233 254.16625 
L 612.264429 254.16625 
L 612.264429 254.16625 
L 611.414233 254.16625 
z
" style="fill:#1f77b4;stroke:#000000;stroke-linejoin:miter;"/>
   </g>
   <g id="patch_133">
    <path clip-path="url(#p5b146796ff)" d="M 612.264429 254.16625 
L 613.114626 254.16625 
L 613.114626 254.16625 
L 612.264429 254.16625 
z
" style="fill:#1f77b4;stroke:#000000;stroke-linejoin:miter;"/>
   </g>
   <g id="patch_134">
    <path clip-path="url(#p5b146796ff)" d="M 613.114626 254.16625 
L 613.964822 254.16625 
L 613.964822 254.16625 
L 613.114626 254.16625 
z
" style="fill:#1f77b4;stroke:#000000;stroke-linejoin:miter;"/>
   </g>
   <g id="patch_135">
    <path clip-path="url(#p5b146796ff)" d="M 613.964822 254.16625 
L 614.815019 254.16625 
L 614.815019 254.16625 
L 613.964822 254.16625 
z
" style="fill:#1f77b4;stroke:#000000;stroke-linejoin:miter;"/>
   </g>
   <g id="patch_136">
    <path clip-path="url(#p5b146796ff)" d="M 614.815019 254.16625 
L 615.665215 254.16625 
L 615.665215 254.16625 
L 614.815019 254.16625 
z
" style="fill:#1f77b4;stroke:#000000;stroke-linejoin:miter;"/>
   </g>
   <g id="patch_137">
    <path clip-path="url(#p5b146796ff)" d="M 615.665215 254.16625 
L 616.515412 254.16625 
L 616.515412 254.16625 
L 615.665215 254.16625 
z
" style="fill:#1f77b4;stroke:#000000;stroke-linejoin:miter;"/>
   </g>
   <g id="patch_138">
    <path clip-path="url(#p5b146796ff)" d="M 616.515412 254.16625 
L 617.365608 254.16625 
L 617.365608 254.16625 
L 616.515412 254.16625 
z
" style="fill:#1f77b4;stroke:#000000;stroke-linejoin:miter;"/>
   </g>
   <g id="patch_139">
    <path clip-path="url(#p5b146796ff)" d="M 617.365608 254.16625 
L 618.215804 254.16625 
L 618.215804 254.16625 
L 617.365608 254.16625 
z
" style="fill:#1f77b4;stroke:#000000;stroke-linejoin:miter;"/>
   </g>
   <g id="patch_140">
    <path clip-path="url(#p5b146796ff)" d="M 618.215804 254.16625 
L 619.066001 254.16625 
L 619.066001 254.16625 
L 618.215804 254.16625 
z
" style="fill:#1f77b4;stroke:#000000;stroke-linejoin:miter;"/>
   </g>
   <g id="patch_141">
    <path clip-path="url(#p5b146796ff)" d="M 619.066001 254.16625 
L 619.916197 254.16625 
L 619.916197 254.16625 
L 619.066001 254.16625 
z
" style="fill:#1f77b4;stroke:#000000;stroke-linejoin:miter;"/>
   </g>
   <g id="patch_142">
    <path clip-path="url(#p5b146796ff)" d="M 619.916197 254.16625 
L 620.766394 254.16625 
L 620.766394 254.16625 
L 619.916197 254.16625 
z
" style="fill:#1f77b4;stroke:#000000;stroke-linejoin:miter;"/>
   </g>
   <g id="patch_143">
    <path clip-path="url(#p5b146796ff)" d="M 620.766394 254.16625 
L 621.61659 254.16625 
L 621.61659 254.16625 
L 620.766394 254.16625 
z
" style="fill:#1f77b4;stroke:#000000;stroke-linejoin:miter;"/>
   </g>
   <g id="patch_144">
    <path clip-path="url(#p5b146796ff)" d="M 621.61659 254.16625 
L 622.466787 254.16625 
L 622.466787 254.16625 
L 621.61659 254.16625 
z
" style="fill:#1f77b4;stroke:#000000;stroke-linejoin:miter;"/>
   </g>
   <g id="patch_145">
    <path clip-path="url(#p5b146796ff)" d="M 622.466787 254.16625 
L 623.316983 254.16625 
L 623.316983 254.16625 
L 622.466787 254.16625 
z
" style="fill:#1f77b4;stroke:#000000;stroke-linejoin:miter;"/>
   </g>
   <g id="patch_146">
    <path clip-path="url(#p5b146796ff)" d="M 623.316983 254.16625 
L 624.16718 254.16625 
L 624.16718 254.16625 
L 623.316983 254.16625 
z
" style="fill:#1f77b4;stroke:#000000;stroke-linejoin:miter;"/>
   </g>
   <g id="patch_147">
    <path clip-path="url(#p5b146796ff)" d="M 624.16718 254.16625 
L 625.017376 254.16625 
L 625.017376 254.16625 
L 624.16718 254.16625 
z
" style="fill:#1f77b4;stroke:#000000;stroke-linejoin:miter;"/>
   </g>
   <g id="patch_148">
    <path clip-path="url(#p5b146796ff)" d="M 625.017376 254.16625 
L 625.867573 254.16625 
L 625.867573 254.16625 
L 625.017376 254.16625 
z
" style="fill:#1f77b4;stroke:#000000;stroke-linejoin:miter;"/>
   </g>
   <g id="patch_149">
    <path clip-path="url(#p5b146796ff)" d="M 625.867573 254.16625 
L 626.717769 254.16625 
L 626.717769 254.16625 
L 625.867573 254.16625 
z
" style="fill:#1f77b4;stroke:#000000;stroke-linejoin:miter;"/>
   </g>
   <g id="patch_150">
    <path clip-path="url(#p5b146796ff)" d="M 626.717769 254.16625 
L 627.567966 254.16625 
L 627.567966 254.16625 
L 626.717769 254.16625 
z
" style="fill:#1f77b4;stroke:#000000;stroke-linejoin:miter;"/>
   </g>
   <g id="patch_151">
    <path clip-path="url(#p5b146796ff)" d="M 627.567966 254.16625 
L 628.418162 254.16625 
L 628.418162 254.16625 
L 627.567966 254.16625 
z
" style="fill:#1f77b4;stroke:#000000;stroke-linejoin:miter;"/>
   </g>
   <g id="patch_152">
    <path clip-path="url(#p5b146796ff)" d="M 628.418162 254.16625 
L 629.268359 254.16625 
L 629.268359 254.16625 
L 628.418162 254.16625 
z
" style="fill:#1f77b4;stroke:#000000;stroke-linejoin:miter;"/>
   </g>
   <g id="patch_153">
    <path clip-path="url(#p5b146796ff)" d="M 629.268359 254.16625 
L 630.118555 254.16625 
L 630.118555 254.16625 
L 629.268359 254.16625 
z
" style="fill:#1f77b4;stroke:#000000;stroke-linejoin:miter;"/>
   </g>
   <g id="patch_154">
    <path clip-path="url(#p5b146796ff)" d="M 630.118555 254.16625 
L 630.968752 254.16625 
L 630.968752 254.16625 
L 630.118555 254.16625 
z
" style="fill:#1f77b4;stroke:#000000;stroke-linejoin:miter;"/>
   </g>
   <g id="patch_155">
    <path clip-path="url(#p5b146796ff)" d="M 630.968752 254.16625 
L 631.818948 254.16625 
L 631.818948 254.16625 
L 630.968752 254.16625 
z
" style="fill:#1f77b4;stroke:#000000;stroke-linejoin:miter;"/>
   </g>
   <g id="patch_156">
    <path clip-path="url(#p5b146796ff)" d="M 631.818948 254.16625 
L 632.669145 254.16625 
L 632.669145 254.16625 
L 631.818948 254.16625 
z
" style="fill:#1f77b4;stroke:#000000;stroke-linejoin:miter;"/>
   </g>
   <g id="patch_157">
    <path clip-path="url(#p5b146796ff)" d="M 632.669145 254.16625 
L 633.519341 254.16625 
L 633.519341 254.16625 
L 632.669145 254.16625 
z
" style="fill:#1f77b4;stroke:#000000;stroke-linejoin:miter;"/>
   </g>
   <g id="patch_158">
    <path clip-path="url(#p5b146796ff)" d="M 633.519341 254.16625 
L 634.369537 254.16625 
L 634.369537 254.16625 
L 633.519341 254.16625 
z
" style="fill:#1f77b4;stroke:#000000;stroke-linejoin:miter;"/>
   </g>
   <g id="patch_159">
    <path clip-path="url(#p5b146796ff)" d="M 634.369537 254.16625 
L 635.219734 254.16625 
L 635.219734 254.16625 
L 634.369537 254.16625 
z
" style="fill:#1f77b4;stroke:#000000;stroke-linejoin:miter;"/>
   </g>
   <g id="patch_160">
    <path clip-path="url(#p5b146796ff)" d="M 635.219734 254.16625 
L 636.06993 254.16625 
L 636.06993 254.16625 
L 635.219734 254.16625 
z
" style="fill:#1f77b4;stroke:#000000;stroke-linejoin:miter;"/>
   </g>
   <g id="patch_161">
    <path clip-path="url(#p5b146796ff)" d="M 636.06993 254.16625 
L 636.920127 254.16625 
L 636.920127 254.16625 
L 636.06993 254.16625 
z
" style="fill:#1f77b4;stroke:#000000;stroke-linejoin:miter;"/>
   </g>
   <g id="patch_162">
    <path clip-path="url(#p5b146796ff)" d="M 636.920127 254.16625 
L 637.770323 254.16625 
L 637.770323 254.16625 
L 636.920127 254.16625 
z
" style="fill:#1f77b4;stroke:#000000;stroke-linejoin:miter;"/>
   </g>
   <g id="patch_163">
    <path clip-path="url(#p5b146796ff)" d="M 637.770323 254.16625 
L 638.62052 254.16625 
L 638.62052 254.16625 
L 637.770323 254.16625 
z
" style="fill:#1f77b4;stroke:#000000;stroke-linejoin:miter;"/>
   </g>
   <g id="patch_164">
    <path clip-path="url(#p5b146796ff)" d="M 638.62052 254.16625 
L 639.470716 254.16625 
L 639.470716 254.16625 
L 638.62052 254.16625 
z
" style="fill:#1f77b4;stroke:#000000;stroke-linejoin:miter;"/>
   </g>
   <g id="patch_165">
    <path clip-path="url(#p5b146796ff)" d="M 639.470716 254.16625 
L 640.320913 254.16625 
L 640.320913 254.16625 
L 639.470716 254.16625 
z
" style="fill:#1f77b4;stroke:#000000;stroke-linejoin:miter;"/>
   </g>
   <g id="patch_166">
    <path clip-path="url(#p5b146796ff)" d="M 640.320913 254.16625 
L 641.171109 254.16625 
L 641.171109 254.16625 
L 640.320913 254.16625 
z
" style="fill:#1f77b4;stroke:#000000;stroke-linejoin:miter;"/>
   </g>
   <g id="patch_167">
    <path clip-path="url(#p5b146796ff)" d="M 641.171109 254.16625 
L 642.021306 254.16625 
L 642.021306 254.16625 
L 641.171109 254.16625 
z
" style="fill:#1f77b4;stroke:#000000;stroke-linejoin:miter;"/>
   </g>
   <g id="patch_168">
    <path clip-path="url(#p5b146796ff)" d="M 642.021306 254.16625 
L 642.871502 254.16625 
L 642.871502 254.16625 
L 642.021306 254.16625 
z
" style="fill:#1f77b4;stroke:#000000;stroke-linejoin:miter;"/>
   </g>
   <g id="patch_169">
    <path clip-path="url(#p5b146796ff)" d="M 642.871502 254.16625 
L 643.721699 254.16625 
L 643.721699 254.16625 
L 642.871502 254.16625 
z
" style="fill:#1f77b4;stroke:#000000;stroke-linejoin:miter;"/>
   </g>
   <g id="patch_170">
    <path clip-path="url(#p5b146796ff)" d="M 643.721699 254.16625 
L 644.571895 254.16625 
L 644.571895 254.16625 
L 643.721699 254.16625 
z
" style="fill:#1f77b4;stroke:#000000;stroke-linejoin:miter;"/>
   </g>
   <g id="patch_171">
    <path clip-path="url(#p5b146796ff)" d="M 644.571895 254.16625 
L 645.422092 254.16625 
L 645.422092 254.16625 
L 644.571895 254.16625 
z
" style="fill:#1f77b4;stroke:#000000;stroke-linejoin:miter;"/>
   </g>
   <g id="patch_172">
    <path clip-path="url(#p5b146796ff)" d="M 645.422092 254.16625 
L 646.272288 254.16625 
L 646.272288 254.16625 
L 645.422092 254.16625 
z
" style="fill:#1f77b4;stroke:#000000;stroke-linejoin:miter;"/>
   </g>
   <g id="patch_173">
    <path clip-path="url(#p5b146796ff)" d="M 646.272288 254.16625 
L 647.122485 254.16625 
L 647.122485 254.16625 
L 646.272288 254.16625 
z
" style="fill:#1f77b4;stroke:#000000;stroke-linejoin:miter;"/>
   </g>
   <g id="patch_174">
    <path clip-path="url(#p5b146796ff)" d="M 647.122485 254.16625 
L 647.972681 254.16625 
L 647.972681 254.16625 
L 647.122485 254.16625 
z
" style="fill:#1f77b4;stroke:#000000;stroke-linejoin:miter;"/>
   </g>
   <g id="patch_175">
    <path clip-path="url(#p5b146796ff)" d="M 647.972681 254.16625 
L 648.822878 254.16625 
L 648.822878 254.16625 
L 647.972681 254.16625 
z
" style="fill:#1f77b4;stroke:#000000;stroke-linejoin:miter;"/>
   </g>
   <g id="patch_176">
    <path clip-path="url(#p5b146796ff)" d="M 648.822878 254.16625 
L 649.673074 254.16625 
L 649.673074 254.16625 
L 648.822878 254.16625 
z
" style="fill:#1f77b4;stroke:#000000;stroke-linejoin:miter;"/>
   </g>
   <g id="patch_177">
    <path clip-path="url(#p5b146796ff)" d="M 649.673074 254.16625 
L 650.52327 254.16625 
L 650.52327 254.16625 
L 649.673074 254.16625 
z
" style="fill:#1f77b4;stroke:#000000;stroke-linejoin:miter;"/>
   </g>
   <g id="patch_178">
    <path clip-path="url(#p5b146796ff)" d="M 650.52327 254.16625 
L 651.373467 254.16625 
L 651.373467 254.16625 
L 650.52327 254.16625 
z
" style="fill:#1f77b4;stroke:#000000;stroke-linejoin:miter;"/>
   </g>
   <g id="patch_179">
    <path clip-path="url(#p5b146796ff)" d="M 651.373467 254.16625 
L 652.223663 254.16625 
L 652.223663 254.16625 
L 651.373467 254.16625 
z
" style="fill:#1f77b4;stroke:#000000;stroke-linejoin:miter;"/>
   </g>
   <g id="patch_180">
    <path clip-path="url(#p5b146796ff)" d="M 652.223663 254.16625 
L 653.07386 254.16625 
L 653.07386 254.16625 
L 652.223663 254.16625 
z
" style="fill:#1f77b4;stroke:#000000;stroke-linejoin:miter;"/>
   </g>
   <g id="patch_181">
    <path clip-path="url(#p5b146796ff)" d="M 653.07386 254.16625 
L 653.924056 254.16625 
L 653.924056 254.16625 
L 653.07386 254.16625 
z
" style="fill:#1f77b4;stroke:#000000;stroke-linejoin:miter;"/>
   </g>
   <g id="patch_182">
    <path clip-path="url(#p5b146796ff)" d="M 653.924056 254.16625 
L 654.774253 254.16625 
L 654.774253 254.16625 
L 653.924056 254.16625 
z
" style="fill:#1f77b4;stroke:#000000;stroke-linejoin:miter;"/>
   </g>
   <g id="patch_183">
    <path clip-path="url(#p5b146796ff)" d="M 654.774253 254.16625 
L 655.624449 254.16625 
L 655.624449 254.16625 
L 654.774253 254.16625 
z
" style="fill:#1f77b4;stroke:#000000;stroke-linejoin:miter;"/>
   </g>
   <g id="patch_184">
    <path clip-path="url(#p5b146796ff)" d="M 655.624449 254.16625 
L 656.474646 254.16625 
L 656.474646 254.16625 
L 655.624449 254.16625 
z
" style="fill:#1f77b4;stroke:#000000;stroke-linejoin:miter;"/>
   </g>
   <g id="patch_185">
    <path clip-path="url(#p5b146796ff)" d="M 656.474646 254.16625 
L 657.324842 254.16625 
L 657.324842 254.16625 
L 656.474646 254.16625 
z
" style="fill:#1f77b4;stroke:#000000;stroke-linejoin:miter;"/>
   </g>
   <g id="patch_186">
    <path clip-path="url(#p5b146796ff)" d="M 657.324842 254.16625 
L 658.175039 254.16625 
L 658.175039 254.16625 
L 657.324842 254.16625 
z
" style="fill:#1f77b4;stroke:#000000;stroke-linejoin:miter;"/>
   </g>
   <g id="patch_187">
    <path clip-path="url(#p5b146796ff)" d="M 658.175039 254.16625 
L 659.025235 254.16625 
L 659.025235 254.16625 
L 658.175039 254.16625 
z
" style="fill:#1f77b4;stroke:#000000;stroke-linejoin:miter;"/>
   </g>
   <g id="patch_188">
    <path clip-path="url(#p5b146796ff)" d="M 659.025235 254.16625 
L 659.875432 254.16625 
L 659.875432 254.16625 
L 659.025235 254.16625 
z
" style="fill:#1f77b4;stroke:#000000;stroke-linejoin:miter;"/>
   </g>
   <g id="patch_189">
    <path clip-path="url(#p5b146796ff)" d="M 659.875432 254.16625 
L 660.725628 254.16625 
L 660.725628 254.16625 
L 659.875432 254.16625 
z
" style="fill:#1f77b4;stroke:#000000;stroke-linejoin:miter;"/>
   </g>
   <g id="patch_190">
    <path clip-path="url(#p5b146796ff)" d="M 660.725628 254.16625 
L 661.575825 254.16625 
L 661.575825 254.16625 
L 660.725628 254.16625 
z
" style="fill:#1f77b4;stroke:#000000;stroke-linejoin:miter;"/>
   </g>
   <g id="patch_191">
    <path clip-path="url(#p5b146796ff)" d="M 661.575825 254.16625 
L 662.426021 254.16625 
L 662.426021 254.16625 
L 661.575825 254.16625 
z
" style="fill:#1f77b4;stroke:#000000;stroke-linejoin:miter;"/>
   </g>
   <g id="patch_192">
    <path clip-path="url(#p5b146796ff)" d="M 662.426021 254.16625 
L 663.276218 254.16625 
L 663.276218 254.16625 
L 662.426021 254.16625 
z
" style="fill:#1f77b4;stroke:#000000;stroke-linejoin:miter;"/>
   </g>
   <g id="patch_193">
    <path clip-path="url(#p5b146796ff)" d="M 663.276218 254.16625 
L 664.126414 254.16625 
L 664.126414 254.16625 
L 663.276218 254.16625 
z
" style="fill:#1f77b4;stroke:#000000;stroke-linejoin:miter;"/>
   </g>
   <g id="patch_194">
    <path clip-path="url(#p5b146796ff)" d="M 664.126414 254.16625 
L 664.976611 254.16625 
L 664.976611 254.16625 
L 664.126414 254.16625 
z
" style="fill:#1f77b4;stroke:#000000;stroke-linejoin:miter;"/>
   </g>
   <g id="patch_195">
    <path clip-path="url(#p5b146796ff)" d="M 664.976611 254.16625 
L 665.826807 254.16625 
L 665.826807 254.16625 
L 664.976611 254.16625 
z
" style="fill:#1f77b4;stroke:#000000;stroke-linejoin:miter;"/>
   </g>
   <g id="patch_196">
    <path clip-path="url(#p5b146796ff)" d="M 665.826807 254.16625 
L 666.677004 254.16625 
L 666.677004 254.16625 
L 665.826807 254.16625 
z
" style="fill:#1f77b4;stroke:#000000;stroke-linejoin:miter;"/>
   </g>
   <g id="patch_197">
    <path clip-path="url(#p5b146796ff)" d="M 666.677004 254.16625 
L 667.5272 254.16625 
L 667.5272 254.16625 
L 666.677004 254.16625 
z
" style="fill:#1f77b4;stroke:#000000;stroke-linejoin:miter;"/>
   </g>
   <g id="patch_198">
    <path clip-path="url(#p5b146796ff)" d="M 667.5272 254.16625 
L 668.377396 254.16625 
L 668.377396 254.16625 
L 667.5272 254.16625 
z
" style="fill:#1f77b4;stroke:#000000;stroke-linejoin:miter;"/>
   </g>
   <g id="patch_199">
    <path clip-path="url(#p5b146796ff)" d="M 668.377396 254.16625 
L 669.227593 254.16625 
L 669.227593 254.16625 
L 668.377396 254.16625 
z
" style="fill:#1f77b4;stroke:#000000;stroke-linejoin:miter;"/>
   </g>
   <g id="patch_200">
    <path clip-path="url(#p5b146796ff)" d="M 669.227593 254.16625 
L 670.077789 254.16625 
L 670.077789 254.16625 
L 669.227593 254.16625 
z
" style="fill:#1f77b4;stroke:#000000;stroke-linejoin:miter;"/>
   </g>
   <g id="patch_201">
    <path clip-path="url(#p5b146796ff)" d="M 670.077789 254.16625 
L 670.927986 254.16625 
L 670.927986 254.16625 
L 670.077789 254.16625 
z
" style="fill:#1f77b4;stroke:#000000;stroke-linejoin:miter;"/>
   </g>
   <g id="patch_202">
    <path clip-path="url(#p5b146796ff)" d="M 670.927986 254.16625 
L 671.778182 254.16625 
L 671.778182 254.16625 
L 670.927986 254.16625 
z
" style="fill:#1f77b4;stroke:#000000;stroke-linejoin:miter;"/>
   </g>
   <g id="patch_203">
    <path clip-path="url(#p5b146796ff)" d="M 671.778182 254.16625 
L 672.628379 254.16625 
L 672.628379 254.16625 
L 671.778182 254.16625 
z
" style="fill:#1f77b4;stroke:#000000;stroke-linejoin:miter;"/>
   </g>
   <g id="patch_204">
    <path clip-path="url(#p5b146796ff)" d="M 672.628379 254.16625 
L 673.478575 254.16625 
L 673.478575 254.16625 
L 672.628379 254.16625 
z
" style="fill:#1f77b4;stroke:#000000;stroke-linejoin:miter;"/>
   </g>
   <g id="patch_205">
    <path clip-path="url(#p5b146796ff)" d="M 673.478575 254.16625 
L 674.328772 254.16625 
L 674.328772 254.16625 
L 673.478575 254.16625 
z
" style="fill:#1f77b4;stroke:#000000;stroke-linejoin:miter;"/>
   </g>
   <g id="patch_206">
    <path clip-path="url(#p5b146796ff)" d="M 674.328772 254.16625 
L 675.178968 254.16625 
L 675.178968 254.16625 
L 674.328772 254.16625 
z
" style="fill:#1f77b4;stroke:#000000;stroke-linejoin:miter;"/>
   </g>
   <g id="patch_207">
    <path clip-path="url(#p5b146796ff)" d="M 675.178968 254.16625 
L 676.029165 254.16625 
L 676.029165 254.16625 
L 675.178968 254.16625 
z
" style="fill:#1f77b4;stroke:#000000;stroke-linejoin:miter;"/>
   </g>
   <g id="patch_208">
    <path clip-path="url(#p5b146796ff)" d="M 676.029165 254.16625 
L 676.879361 254.16625 
L 676.879361 254.16625 
L 676.029165 254.16625 
z
" style="fill:#1f77b4;stroke:#000000;stroke-linejoin:miter;"/>
   </g>
   <g id="patch_209">
    <path clip-path="url(#p5b146796ff)" d="M 676.879361 254.16625 
L 677.729558 254.16625 
L 677.729558 254.16625 
L 676.879361 254.16625 
z
" style="fill:#1f77b4;stroke:#000000;stroke-linejoin:miter;"/>
   </g>
   <g id="patch_210">
    <path clip-path="url(#p5b146796ff)" d="M 677.729558 254.16625 
L 678.579754 254.16625 
L 678.579754 254.16625 
L 677.729558 254.16625 
z
" style="fill:#1f77b4;stroke:#000000;stroke-linejoin:miter;"/>
   </g>
   <g id="patch_211">
    <path clip-path="url(#p5b146796ff)" d="M 678.579754 254.16625 
L 679.429951 254.16625 
L 679.429951 254.16625 
L 678.579754 254.16625 
z
" style="fill:#1f77b4;stroke:#000000;stroke-linejoin:miter;"/>
   </g>
   <g id="patch_212">
    <path clip-path="url(#p5b146796ff)" d="M 679.429951 254.16625 
L 680.280147 254.16625 
L 680.280147 254.16625 
L 679.429951 254.16625 
z
" style="fill:#1f77b4;stroke:#000000;stroke-linejoin:miter;"/>
   </g>
   <g id="patch_213">
    <path clip-path="url(#p5b146796ff)" d="M 680.280147 254.16625 
L 681.130344 254.16625 
L 681.130344 254.16625 
L 680.280147 254.16625 
z
" style="fill:#1f77b4;stroke:#000000;stroke-linejoin:miter;"/>
   </g>
   <g id="patch_214">
    <path clip-path="url(#p5b146796ff)" d="M 681.130344 254.16625 
L 681.98054 254.16625 
L 681.98054 254.16625 
L 681.130344 254.16625 
z
" style="fill:#1f77b4;stroke:#000000;stroke-linejoin:miter;"/>
   </g>
   <g id="patch_215">
    <path clip-path="url(#p5b146796ff)" d="M 681.98054 254.16625 
L 682.830737 254.16625 
L 682.830737 254.16625 
L 681.98054 254.16625 
z
" style="fill:#1f77b4;stroke:#000000;stroke-linejoin:miter;"/>
   </g>
   <g id="patch_216">
    <path clip-path="url(#p5b146796ff)" d="M 682.830737 254.16625 
L 683.680933 254.16625 
L 683.680933 254.16625 
L 682.830737 254.16625 
z
" style="fill:#1f77b4;stroke:#000000;stroke-linejoin:miter;"/>
   </g>
   <g id="patch_217">
    <path clip-path="url(#p5b146796ff)" d="M 683.680933 254.16625 
L 684.531129 254.16625 
L 684.531129 254.16625 
L 683.680933 254.16625 
z
" style="fill:#1f77b4;stroke:#000000;stroke-linejoin:miter;"/>
   </g>
   <g id="patch_218">
    <path clip-path="url(#p5b146796ff)" d="M 684.531129 254.16625 
L 685.381326 254.16625 
L 685.381326 254.16625 
L 684.531129 254.16625 
z
" style="fill:#1f77b4;stroke:#000000;stroke-linejoin:miter;"/>
   </g>
   <g id="patch_219">
    <path clip-path="url(#p5b146796ff)" d="M 685.381326 254.16625 
L 686.231522 254.16625 
L 686.231522 254.16625 
L 685.381326 254.16625 
z
" style="fill:#1f77b4;stroke:#000000;stroke-linejoin:miter;"/>
   </g>
   <g id="patch_220">
    <path clip-path="url(#p5b146796ff)" d="M 686.231522 254.16625 
L 687.081719 254.16625 
L 687.081719 254.16625 
L 686.231522 254.16625 
z
" style="fill:#1f77b4;stroke:#000000;stroke-linejoin:miter;"/>
   </g>
   <g id="patch_221">
    <path clip-path="url(#p5b146796ff)" d="M 687.081719 254.16625 
L 687.931915 254.16625 
L 687.931915 254.16625 
L 687.081719 254.16625 
z
" style="fill:#1f77b4;stroke:#000000;stroke-linejoin:miter;"/>
   </g>
   <g id="patch_222">
    <path clip-path="url(#p5b146796ff)" d="M 687.931915 254.16625 
L 688.782112 254.16625 
L 688.782112 254.16625 
L 687.931915 254.16625 
z
" style="fill:#1f77b4;stroke:#000000;stroke-linejoin:miter;"/>
   </g>
   <g id="patch_223">
    <path clip-path="url(#p5b146796ff)" d="M 688.782112 254.16625 
L 689.632308 254.16625 
L 689.632308 254.16625 
L 688.782112 254.16625 
z
" style="fill:#1f77b4;stroke:#000000;stroke-linejoin:miter;"/>
   </g>
   <g id="patch_224">
    <path clip-path="url(#p5b146796ff)" d="M 689.632308 254.16625 
L 690.482505 254.16625 
L 690.482505 254.16625 
L 689.632308 254.16625 
z
" style="fill:#1f77b4;stroke:#000000;stroke-linejoin:miter;"/>
   </g>
   <g id="patch_225">
    <path clip-path="url(#p5b146796ff)" d="M 690.482505 254.16625 
L 691.332701 254.16625 
L 691.332701 254.16625 
L 690.482505 254.16625 
z
" style="fill:#1f77b4;stroke:#000000;stroke-linejoin:miter;"/>
   </g>
   <g id="patch_226">
    <path clip-path="url(#p5b146796ff)" d="M 691.332701 254.16625 
L 692.182898 254.16625 
L 692.182898 254.16625 
L 691.332701 254.16625 
z
" style="fill:#1f77b4;stroke:#000000;stroke-linejoin:miter;"/>
   </g>
   <g id="matplotlib.axis_5">
    <g id="xtick_11">
     <g id="line2d_45">
      <g>
       <use style="fill:#ffffff;stroke:#000000;stroke-width:2;" x="510.240852" xlink:href="#m8c47b38745" y="254.16625"/>
      </g>
     </g>
     <g id="line2d_46">
      <g>
       <use style="fill:#ffffff;stroke:#000000;stroke-width:2;" x="510.240852" xlink:href="#me1c405da47" y="22.318125"/>
      </g>
     </g>
     <g id="text_24">
      <!-- 0 -->
      <g transform="translate(506.423352 266.784375)scale(0.12 -0.12)">
       <use xlink:href="#DejaVuSans-48"/>
      </g>
     </g>
    </g>
    <g id="xtick_12">
     <g id="line2d_47">
      <g>
       <use style="fill:#ffffff;stroke:#000000;stroke-width:2;" x="552.750676" xlink:href="#m8c47b38745" y="254.16625"/>
      </g>
     </g>
     <g id="line2d_48">
      <g>
       <use style="fill:#ffffff;stroke:#000000;stroke-width:2;" x="552.750676" xlink:href="#me1c405da47" y="22.318125"/>
      </g>
     </g>
     <g id="text_25">
      <!-- 50 -->
      <g transform="translate(545.115676 266.784375)scale(0.12 -0.12)">
       <use xlink:href="#DejaVuSans-53"/>
       <use x="63.623047" xlink:href="#DejaVuSans-48"/>
      </g>
     </g>
    </g>
    <g id="xtick_13">
     <g id="line2d_49">
      <g>
       <use style="fill:#ffffff;stroke:#000000;stroke-width:2;" x="595.2605" xlink:href="#m8c47b38745" y="254.16625"/>
      </g>
     </g>
     <g id="line2d_50">
      <g>
       <use style="fill:#ffffff;stroke:#000000;stroke-width:2;" x="595.2605" xlink:href="#me1c405da47" y="22.318125"/>
      </g>
     </g>
     <g id="text_26">
      <!-- 100 -->
      <g transform="translate(583.808 266.784375)scale(0.12 -0.12)">
       <use xlink:href="#DejaVuSans-49"/>
       <use x="63.623047" xlink:href="#DejaVuSans-48"/>
       <use x="127.246094" xlink:href="#DejaVuSans-48"/>
      </g>
     </g>
    </g>
    <g id="xtick_14">
     <g id="line2d_51">
      <g>
       <use style="fill:#ffffff;stroke:#000000;stroke-width:2;" x="637.770323" xlink:href="#m8c47b38745" y="254.16625"/>
      </g>
     </g>
     <g id="line2d_52">
      <g>
       <use style="fill:#ffffff;stroke:#000000;stroke-width:2;" x="637.770323" xlink:href="#me1c405da47" y="22.318125"/>
      </g>
     </g>
     <g id="text_27">
      <!-- 150 -->
      <g transform="translate(626.317823 266.784375)scale(0.12 -0.12)">
       <use xlink:href="#DejaVuSans-49"/>
       <use x="63.623047" xlink:href="#DejaVuSans-53"/>
       <use x="127.246094" xlink:href="#DejaVuSans-48"/>
      </g>
     </g>
    </g>
    <g id="xtick_15">
     <g id="line2d_53">
      <g>
       <use style="fill:#ffffff;stroke:#000000;stroke-width:2;" x="680.280147" xlink:href="#m8c47b38745" y="254.16625"/>
      </g>
     </g>
     <g id="line2d_54">
      <g>
       <use style="fill:#ffffff;stroke:#000000;stroke-width:2;" x="680.280147" xlink:href="#me1c405da47" y="22.318125"/>
      </g>
     </g>
     <g id="text_28">
      <!-- 200 -->
      <g transform="translate(668.827647 266.784375)scale(0.12 -0.12)">
       <use xlink:href="#DejaVuSans-50"/>
       <use x="63.623047" xlink:href="#DejaVuSans-48"/>
       <use x="127.246094" xlink:href="#DejaVuSans-48"/>
      </g>
     </g>
    </g>
   </g>
   <g id="matplotlib.axis_6">
    <g id="ytick_12">
     <g id="line2d_55">
      <g>
       <use style="fill:#ffffff;stroke:#000000;stroke-width:2;" x="501.14375" xlink:href="#meb5b64858b" y="254.16625"/>
      </g>
     </g>
     <g id="line2d_56">
      <g>
       <use style="fill:#ffffff;stroke:#000000;stroke-width:2;" x="701.28" xlink:href="#mf96c273928" y="254.16625"/>
      </g>
     </g>
     <g id="text_29">
      <!-- 0.0 -->
      <g transform="translate(478.56 258.725313)scale(0.12 -0.12)">
       <use xlink:href="#DejaVuSans-48"/>
       <use x="63.623047" xlink:href="#DejaVuSans-46"/>
       <use x="95.410156" xlink:href="#DejaVuSans-48"/>
      </g>
     </g>
    </g>
    <g id="ytick_13">
     <g id="line2d_57">
      <g>
       <use style="fill:#ffffff;stroke:#000000;stroke-width:2;" x="501.14375" xlink:href="#meb5b64858b" y="210.004702"/>
      </g>
     </g>
     <g id="line2d_58">
      <g>
       <use style="fill:#ffffff;stroke:#000000;stroke-width:2;" x="701.28" xlink:href="#mf96c273928" y="210.004702"/>
      </g>
     </g>
     <g id="text_30">
      <!-- 0.2 -->
      <g transform="translate(478.56 214.563765)scale(0.12 -0.12)">
       <use xlink:href="#DejaVuSans-48"/>
       <use x="63.623047" xlink:href="#DejaVuSans-46"/>
       <use x="95.410156" xlink:href="#DejaVuSans-50"/>
      </g>
     </g>
    </g>
    <g id="ytick_14">
     <g id="line2d_59">
      <g>
       <use style="fill:#ffffff;stroke:#000000;stroke-width:2;" x="501.14375" xlink:href="#meb5b64858b" y="165.843155"/>
      </g>
     </g>
     <g id="line2d_60">
      <g>
       <use style="fill:#ffffff;stroke:#000000;stroke-width:2;" x="701.28" xlink:href="#mf96c273928" y="165.843155"/>
      </g>
     </g>
     <g id="text_31">
      <!-- 0.4 -->
      <g transform="translate(478.56 170.402217)scale(0.12 -0.12)">
       <use xlink:href="#DejaVuSans-48"/>
       <use x="63.623047" xlink:href="#DejaVuSans-46"/>
       <use x="95.410156" xlink:href="#DejaVuSans-52"/>
      </g>
     </g>
    </g>
    <g id="ytick_15">
     <g id="line2d_61">
      <g>
       <use style="fill:#ffffff;stroke:#000000;stroke-width:2;" x="501.14375" xlink:href="#meb5b64858b" y="121.681607"/>
      </g>
     </g>
     <g id="line2d_62">
      <g>
       <use style="fill:#ffffff;stroke:#000000;stroke-width:2;" x="701.28" xlink:href="#mf96c273928" y="121.681607"/>
      </g>
     </g>
     <g id="text_32">
      <!-- 0.6 -->
      <g transform="translate(478.56 126.24067)scale(0.12 -0.12)">
       <use xlink:href="#DejaVuSans-48"/>
       <use x="63.623047" xlink:href="#DejaVuSans-46"/>
       <use x="95.410156" xlink:href="#DejaVuSans-54"/>
      </g>
     </g>
    </g>
    <g id="ytick_16">
     <g id="line2d_63">
      <g>
       <use style="fill:#ffffff;stroke:#000000;stroke-width:2;" x="501.14375" xlink:href="#meb5b64858b" y="77.52006"/>
      </g>
     </g>
     <g id="line2d_64">
      <g>
       <use style="fill:#ffffff;stroke:#000000;stroke-width:2;" x="701.28" xlink:href="#mf96c273928" y="77.52006"/>
      </g>
     </g>
     <g id="text_33">
      <!-- 0.8 -->
      <g transform="translate(478.56 82.079122)scale(0.12 -0.12)">
       <use xlink:href="#DejaVuSans-48"/>
       <use x="63.623047" xlink:href="#DejaVuSans-46"/>
       <use x="95.410156" xlink:href="#DejaVuSans-56"/>
      </g>
     </g>
    </g>
    <g id="ytick_17">
     <g id="line2d_65">
      <g>
       <use style="fill:#ffffff;stroke:#000000;stroke-width:2;" x="501.14375" xlink:href="#meb5b64858b" y="33.358512"/>
      </g>
     </g>
     <g id="line2d_66">
      <g>
       <use style="fill:#ffffff;stroke:#000000;stroke-width:2;" x="701.28" xlink:href="#mf96c273928" y="33.358512"/>
      </g>
     </g>
     <g id="text_34">
      <!-- 1.0 -->
      <g transform="translate(478.56 37.917574)scale(0.12 -0.12)">
       <use xlink:href="#DejaVuSans-49"/>
       <use x="63.623047" xlink:href="#DejaVuSans-46"/>
       <use x="95.410156" xlink:href="#DejaVuSans-48"/>
      </g>
     </g>
    </g>
   </g>
   <g id="patch_227">
    <path d="M 501.14375 254.16625 
L 501.14375 22.318125 
" style="fill:none;stroke:#000000;stroke-linecap:square;stroke-linejoin:miter;stroke-width:2;"/>
   </g>
   <g id="patch_228">
    <path d="M 701.28 254.16625 
L 701.28 22.318125 
" style="fill:none;stroke:#000000;stroke-linecap:square;stroke-linejoin:miter;stroke-width:2;"/>
   </g>
   <g id="patch_229">
    <path d="M 501.14375 254.16625 
L 701.28 254.16625 
" style="fill:none;stroke:#000000;stroke-linecap:square;stroke-linejoin:miter;stroke-width:2;"/>
   </g>
   <g id="patch_230">
    <path d="M 501.14375 22.318125 
L 701.28 22.318125 
" style="fill:none;stroke:#000000;stroke-linecap:square;stroke-linejoin:miter;stroke-width:2;"/>
   </g>
   <g id="text_35">
    <!-- Bar Plot -->
    <g transform="translate(577.736875 16.318125)scale(0.12 -0.12)">
     <defs>
      <path d="M 19.671875 34.8125 
L 19.671875 8.109375 
L 35.5 8.109375 
Q 43.453125 8.109375 47.28125 11.40625 
Q 51.125 14.703125 51.125 21.484375 
Q 51.125 28.328125 47.28125 31.5625 
Q 43.453125 34.8125 35.5 34.8125 
z
M 19.671875 64.796875 
L 19.671875 42.828125 
L 34.28125 42.828125 
Q 41.5 42.828125 45.03125 45.53125 
Q 48.578125 48.25 48.578125 53.8125 
Q 48.578125 59.328125 45.03125 62.0625 
Q 41.5 64.796875 34.28125 64.796875 
z
M 9.8125 72.90625 
L 35.015625 72.90625 
Q 46.296875 72.90625 52.390625 68.21875 
Q 58.5 63.53125 58.5 54.890625 
Q 58.5 48.1875 55.375 44.234375 
Q 52.25 40.28125 46.1875 39.3125 
Q 53.46875 37.75 57.5 32.78125 
Q 61.53125 27.828125 61.53125 20.40625 
Q 61.53125 10.640625 54.890625 5.3125 
Q 48.25 0 35.984375 0 
L 9.8125 0 
z
" id="DejaVuSans-66"/>
     </defs>
     <use xlink:href="#DejaVuSans-66"/>
     <use x="68.603516" xlink:href="#DejaVuSans-97"/>
     <use x="129.882812" xlink:href="#DejaVuSans-114"/>
     <use x="170.996094" xlink:href="#DejaVuSans-32"/>
     <use x="202.783203" xlink:href="#DejaVuSans-80"/>
     <use x="263.085938" xlink:href="#DejaVuSans-108"/>
     <use x="290.869141" xlink:href="#DejaVuSans-111"/>
     <use x="352.050781" xlink:href="#DejaVuSans-116"/>
    </g>
   </g>
  </g>
 </g>
 <defs>
  <clipPath id="p0d39f1d0e4">
   <rect height="231.848125" width="200.13625" x="29.78375" y="22.318125"/>
  </clipPath>
  <clipPath id="pba23c72361">
   <rect height="231.848125" width="200.13625" x="265.46375" y="22.318125"/>
  </clipPath>
  <clipPath id="p5b146796ff">
   <rect height="231.848125" width="200.13625" x="501.14375" y="22.318125"/>
  </clipPath>
 </defs>
</svg>
