<?xml version="1.0" encoding="utf-8" standalone="no"?>
<!DOCTYPE svg PUBLIC "-//W3C//DTD SVG 1.1//EN"
  "http://www.w3.org/Graphics/SVG/1.1/DTD/svg11.dtd">
<svg xmlns:xlink="http://www.w3.org/1999/xlink" width="352.8pt" height="280.8pt" viewBox="0 0 352.8 280.8" xmlns="http://www.w3.org/2000/svg" version="1.1">
 <metadata>
  <rdf:RDF xmlns:dc="http://purl.org/dc/elements/1.1/" xmlns:cc="http://creativecommons.org/ns#" xmlns:rdf="http://www.w3.org/1999/02/22-rdf-syntax-ns#">
   <cc:Work>
    <dc:type rdf:resource="http://purl.org/dc/dcmitype/StillImage"/>
    <dc:date>2022-05-25T17:20:45.216362</dc:date>
    <dc:format>image/svg+xml</dc:format>
    <dc:creator>
     <cc:Agent>
      <dc:title>Matplotlib v3.5.2, https://matplotlib.org/</dc:title>
     </cc:Agent>
    </dc:creator>
   </cc:Work>
  </rdf:RDF>
 </metadata>
 <defs>
  <style type="text/css">*{stroke-linejoin: round; stroke-linecap: butt}</style>
 </defs>
 <g id="figure_1">
  <g id="patch_1">
   <path d="M 0 280.8 
L 352.8 280.8 
L 352.8 0 
L 0 0 
L 0 280.8 
z
" style="fill: none"/>
  </g>
  <g id="axes_1">
   <g id="patch_2">
    <path d="M 49.3975 238.8725 
L 345.6 238.8725 
L 345.6 11.759062 
L 49.3975 11.759062 
z
" style="fill: #ffffff"/>
   </g>
   <g id="matplotlib.axis_1">
    <g id="xtick_1">
     <g id="line2d_1">
      <defs>
       <path id="m4fd72e70af" d="M 0 0 
L 0 -6 
" style="stroke: #000000; stroke-width: 2"/>
      </defs>
      <g>
       <use xlink:href="#m4fd72e70af" x="62.86125" y="238.8725" style="fill: #ffffff; stroke: #000000; stroke-width: 2"/>
      </g>
     </g>
     <g id="line2d_2">
      <defs>
       <path id="m94c51809b4" d="M 0 0 
L 0 6 
" style="stroke: #000000; stroke-width: 2"/>
      </defs>
      <g>
       <use xlink:href="#m94c51809b4" x="62.86125" y="11.759062" style="fill: #ffffff; stroke: #000000; stroke-width: 2"/>
      </g>
     </g>
     <g id="text_1">
      <!-- 0.0 -->
      <g transform="translate(53.319375 251.490625)scale(0.12 -0.12)">
       <defs>
        <path id="DejaVuSans-30" d="M 2034 4250 
Q 1547 4250 1301 3770 
Q 1056 3291 1056 2328 
Q 1056 1369 1301 889 
Q 1547 409 2034 409 
Q 2525 409 2770 889 
Q 3016 1369 3016 2328 
Q 3016 3291 2770 3770 
Q 2525 4250 2034 4250 
z
M 2034 4750 
Q 2819 4750 3233 4129 
Q 3647 3509 3647 2328 
Q 3647 1150 3233 529 
Q 2819 -91 2034 -91 
Q 1250 -91 836 529 
Q 422 1150 422 2328 
Q 422 3509 836 4129 
Q 1250 4750 2034 4750 
z
" transform="scale(0.015625)"/>
        <path id="DejaVuSans-2e" d="M 684 794 
L 1344 794 
L 1344 0 
L 684 0 
L 684 794 
z
" transform="scale(0.015625)"/>
       </defs>
       <use xlink:href="#DejaVuSans-30"/>
       <use xlink:href="#DejaVuSans-2e" x="63.623047"/>
       <use xlink:href="#DejaVuSans-30" x="95.410156"/>
      </g>
     </g>
    </g>
    <g id="xtick_2">
     <g id="line2d_3">
      <g>
       <use xlink:href="#m4fd72e70af" x="116.71625" y="238.8725" style="fill: #ffffff; stroke: #000000; stroke-width: 2"/>
      </g>
     </g>
     <g id="line2d_4">
      <g>
       <use xlink:href="#m94c51809b4" x="116.71625" y="11.759062" style="fill: #ffffff; stroke: #000000; stroke-width: 2"/>
      </g>
     </g>
     <g id="text_2">
      <!-- 0.2 -->
      <g transform="translate(107.174375 251.490625)scale(0.12 -0.12)">
       <defs>
        <path id="DejaVuSans-32" d="M 1228 531 
L 3431 531 
L 3431 0 
L 469 0 
L 469 531 
Q 828 903 1448 1529 
Q 2069 2156 2228 2338 
Q 2531 2678 2651 2914 
Q 2772 3150 2772 3378 
Q 2772 3750 2511 3984 
Q 2250 4219 1831 4219 
Q 1534 4219 1204 4116 
Q 875 4013 500 3803 
L 500 4441 
Q 881 4594 1212 4672 
Q 1544 4750 1819 4750 
Q 2544 4750 2975 4387 
Q 3406 4025 3406 3419 
Q 3406 3131 3298 2873 
Q 3191 2616 2906 2266 
Q 2828 2175 2409 1742 
Q 1991 1309 1228 531 
z
" transform="scale(0.015625)"/>
       </defs>
       <use xlink:href="#DejaVuSans-30"/>
       <use xlink:href="#DejaVuSans-2e" x="63.623047"/>
       <use xlink:href="#DejaVuSans-32" x="95.410156"/>
      </g>
     </g>
    </g>
    <g id="xtick_3">
     <g id="line2d_5">
      <g>
       <use xlink:href="#m4fd72e70af" x="170.57125" y="238.8725" style="fill: #ffffff; stroke: #000000; stroke-width: 2"/>
      </g>
     </g>
     <g id="line2d_6">
      <g>
       <use xlink:href="#m94c51809b4" x="170.57125" y="11.759062" style="fill: #ffffff; stroke: #000000; stroke-width: 2"/>
      </g>
     </g>
     <g id="text_3">
      <!-- 0.4 -->
      <g transform="translate(161.029375 251.490625)scale(0.12 -0.12)">
       <defs>
        <path id="DejaVuSans-34" d="M 2419 4116 
L 825 1625 
L 2419 1625 
L 2419 4116 
z
M 2253 4666 
L 3047 4666 
L 3047 1625 
L 3713 1625 
L 3713 1100 
L 3047 1100 
L 3047 0 
L 2419 0 
L 2419 1100 
L 313 1100 
L 313 1709 
L 2253 4666 
z
" transform="scale(0.015625)"/>
       </defs>
       <use xlink:href="#DejaVuSans-30"/>
       <use xlink:href="#DejaVuSans-2e" x="63.623047"/>
       <use xlink:href="#DejaVuSans-34" x="95.410156"/>
      </g>
     </g>
    </g>
    <g id="xtick_4">
     <g id="line2d_7">
      <g>
       <use xlink:href="#m4fd72e70af" x="224.42625" y="238.8725" style="fill: #ffffff; stroke: #000000; stroke-width: 2"/>
      </g>
     </g>
     <g id="line2d_8">
      <g>
       <use xlink:href="#m94c51809b4" x="224.42625" y="11.759062" style="fill: #ffffff; stroke: #000000; stroke-width: 2"/>
      </g>
     </g>
     <g id="text_4">
      <!-- 0.6 -->
      <g transform="translate(214.884375 251.490625)scale(0.12 -0.12)">
       <defs>
        <path id="DejaVuSans-36" d="M 2113 2584 
Q 1688 2584 1439 2293 
Q 1191 2003 1191 1497 
Q 1191 994 1439 701 
Q 1688 409 2113 409 
Q 2538 409 2786 701 
Q 3034 994 3034 1497 
Q 3034 2003 2786 2293 
Q 2538 2584 2113 2584 
z
M 3366 4563 
L 3366 3988 
Q 3128 4100 2886 4159 
Q 2644 4219 2406 4219 
Q 1781 4219 1451 3797 
Q 1122 3375 1075 2522 
Q 1259 2794 1537 2939 
Q 1816 3084 2150 3084 
Q 2853 3084 3261 2657 
Q 3669 2231 3669 1497 
Q 3669 778 3244 343 
Q 2819 -91 2113 -91 
Q 1303 -91 875 529 
Q 447 1150 447 2328 
Q 447 3434 972 4092 
Q 1497 4750 2381 4750 
Q 2619 4750 2861 4703 
Q 3103 4656 3366 4563 
z
" transform="scale(0.015625)"/>
       </defs>
       <use xlink:href="#DejaVuSans-30"/>
       <use xlink:href="#DejaVuSans-2e" x="63.623047"/>
       <use xlink:href="#DejaVuSans-36" x="95.410156"/>
      </g>
     </g>
    </g>
    <g id="xtick_5">
     <g id="line2d_9">
      <g>
       <use xlink:href="#m4fd72e70af" x="278.28125" y="238.8725" style="fill: #ffffff; stroke: #000000; stroke-width: 2"/>
      </g>
     </g>
     <g id="line2d_10">
      <g>
       <use xlink:href="#m94c51809b4" x="278.28125" y="11.759062" style="fill: #ffffff; stroke: #000000; stroke-width: 2"/>
      </g>
     </g>
     <g id="text_5">
      <!-- 0.8 -->
      <g transform="translate(268.739375 251.490625)scale(0.12 -0.12)">
       <defs>
        <path id="DejaVuSans-38" d="M 2034 2216 
Q 1584 2216 1326 1975 
Q 1069 1734 1069 1313 
Q 1069 891 1326 650 
Q 1584 409 2034 409 
Q 2484 409 2743 651 
Q 3003 894 3003 1313 
Q 3003 1734 2745 1975 
Q 2488 2216 2034 2216 
z
M 1403 2484 
Q 997 2584 770 2862 
Q 544 3141 544 3541 
Q 544 4100 942 4425 
Q 1341 4750 2034 4750 
Q 2731 4750 3128 4425 
Q 3525 4100 3525 3541 
Q 3525 3141 3298 2862 
Q 3072 2584 2669 2484 
Q 3125 2378 3379 2068 
Q 3634 1759 3634 1313 
Q 3634 634 3220 271 
Q 2806 -91 2034 -91 
Q 1263 -91 848 271 
Q 434 634 434 1313 
Q 434 1759 690 2068 
Q 947 2378 1403 2484 
z
M 1172 3481 
Q 1172 3119 1398 2916 
Q 1625 2713 2034 2713 
Q 2441 2713 2670 2916 
Q 2900 3119 2900 3481 
Q 2900 3844 2670 4047 
Q 2441 4250 2034 4250 
Q 1625 4250 1398 4047 
Q 1172 3844 1172 3481 
z
" transform="scale(0.015625)"/>
       </defs>
       <use xlink:href="#DejaVuSans-30"/>
       <use xlink:href="#DejaVuSans-2e" x="63.623047"/>
       <use xlink:href="#DejaVuSans-38" x="95.410156"/>
      </g>
     </g>
    </g>
    <g id="xtick_6">
     <g id="line2d_11">
      <g>
       <use xlink:href="#m4fd72e70af" x="332.13625" y="238.8725" style="fill: #ffffff; stroke: #000000; stroke-width: 2"/>
      </g>
     </g>
     <g id="line2d_12">
      <g>
       <use xlink:href="#m94c51809b4" x="332.13625" y="11.759062" style="fill: #ffffff; stroke: #000000; stroke-width: 2"/>
      </g>
     </g>
     <g id="text_6">
      <!-- 1.0 -->
      <g transform="translate(322.594375 251.490625)scale(0.12 -0.12)">
       <defs>
        <path id="DejaVuSans-31" d="M 794 531 
L 1825 531 
L 1825 4091 
L 703 3866 
L 703 4441 
L 1819 4666 
L 2450 4666 
L 2450 531 
L 3481 531 
L 3481 0 
L 794 0 
L 794 531 
z
" transform="scale(0.015625)"/>
       </defs>
       <use xlink:href="#DejaVuSans-31"/>
       <use xlink:href="#DejaVuSans-2e" x="63.623047"/>
       <use xlink:href="#DejaVuSans-30" x="95.410156"/>
      </g>
     </g>
    </g>
    <g id="text_7">
     <!-- Fractional distance along given axis -->
     <g transform="translate(89.983438 271.104375)scale(0.12 -0.12)">
      <defs>
       <path id="DejaVuSans-46" d="M 628 4666 
L 3309 4666 
L 3309 4134 
L 1259 4134 
L 1259 2759 
L 3109 2759 
L 3109 2228 
L 1259 2228 
L 1259 0 
L 628 0 
L 628 4666 
z
" transform="scale(0.015625)"/>
       <path id="DejaVuSans-72" d="M 2631 2963 
Q 2534 3019 2420 3045 
Q 2306 3072 2169 3072 
Q 1681 3072 1420 2755 
Q 1159 2438 1159 1844 
L 1159 0 
L 581 0 
L 581 3500 
L 1159 3500 
L 1159 2956 
Q 1341 3275 1631 3429 
Q 1922 3584 2338 3584 
Q 2397 3584 2469 3576 
Q 2541 3569 2628 3553 
L 2631 2963 
z
" transform="scale(0.015625)"/>
       <path id="DejaVuSans-61" d="M 2194 1759 
Q 1497 1759 1228 1600 
Q 959 1441 959 1056 
Q 959 750 1161 570 
Q 1363 391 1709 391 
Q 2188 391 2477 730 
Q 2766 1069 2766 1631 
L 2766 1759 
L 2194 1759 
z
M 3341 1997 
L 3341 0 
L 2766 0 
L 2766 531 
Q 2569 213 2275 61 
Q 1981 -91 1556 -91 
Q 1019 -91 701 211 
Q 384 513 384 1019 
Q 384 1609 779 1909 
Q 1175 2209 1959 2209 
L 2766 2209 
L 2766 2266 
Q 2766 2663 2505 2880 
Q 2244 3097 1772 3097 
Q 1472 3097 1187 3025 
Q 903 2953 641 2809 
L 641 3341 
Q 956 3463 1253 3523 
Q 1550 3584 1831 3584 
Q 2591 3584 2966 3190 
Q 3341 2797 3341 1997 
z
" transform="scale(0.015625)"/>
       <path id="DejaVuSans-63" d="M 3122 3366 
L 3122 2828 
Q 2878 2963 2633 3030 
Q 2388 3097 2138 3097 
Q 1578 3097 1268 2742 
Q 959 2388 959 1747 
Q 959 1106 1268 751 
Q 1578 397 2138 397 
Q 2388 397 2633 464 
Q 2878 531 3122 666 
L 3122 134 
Q 2881 22 2623 -34 
Q 2366 -91 2075 -91 
Q 1284 -91 818 406 
Q 353 903 353 1747 
Q 353 2603 823 3093 
Q 1294 3584 2113 3584 
Q 2378 3584 2631 3529 
Q 2884 3475 3122 3366 
z
" transform="scale(0.015625)"/>
       <path id="DejaVuSans-74" d="M 1172 4494 
L 1172 3500 
L 2356 3500 
L 2356 3053 
L 1172 3053 
L 1172 1153 
Q 1172 725 1289 603 
Q 1406 481 1766 481 
L 2356 481 
L 2356 0 
L 1766 0 
Q 1100 0 847 248 
Q 594 497 594 1153 
L 594 3053 
L 172 3053 
L 172 3500 
L 594 3500 
L 594 4494 
L 1172 4494 
z
" transform="scale(0.015625)"/>
       <path id="DejaVuSans-69" d="M 603 3500 
L 1178 3500 
L 1178 0 
L 603 0 
L 603 3500 
z
M 603 4863 
L 1178 4863 
L 1178 4134 
L 603 4134 
L 603 4863 
z
" transform="scale(0.015625)"/>
       <path id="DejaVuSans-6f" d="M 1959 3097 
Q 1497 3097 1228 2736 
Q 959 2375 959 1747 
Q 959 1119 1226 758 
Q 1494 397 1959 397 
Q 2419 397 2687 759 
Q 2956 1122 2956 1747 
Q 2956 2369 2687 2733 
Q 2419 3097 1959 3097 
z
M 1959 3584 
Q 2709 3584 3137 3096 
Q 3566 2609 3566 1747 
Q 3566 888 3137 398 
Q 2709 -91 1959 -91 
Q 1206 -91 779 398 
Q 353 888 353 1747 
Q 353 2609 779 3096 
Q 1206 3584 1959 3584 
z
" transform="scale(0.015625)"/>
       <path id="DejaVuSans-6e" d="M 3513 2113 
L 3513 0 
L 2938 0 
L 2938 2094 
Q 2938 2591 2744 2837 
Q 2550 3084 2163 3084 
Q 1697 3084 1428 2787 
Q 1159 2491 1159 1978 
L 1159 0 
L 581 0 
L 581 3500 
L 1159 3500 
L 1159 2956 
Q 1366 3272 1645 3428 
Q 1925 3584 2291 3584 
Q 2894 3584 3203 3211 
Q 3513 2838 3513 2113 
z
" transform="scale(0.015625)"/>
       <path id="DejaVuSans-6c" d="M 603 4863 
L 1178 4863 
L 1178 0 
L 603 0 
L 603 4863 
z
" transform="scale(0.015625)"/>
       <path id="DejaVuSans-20" transform="scale(0.015625)"/>
       <path id="DejaVuSans-64" d="M 2906 2969 
L 2906 4863 
L 3481 4863 
L 3481 0 
L 2906 0 
L 2906 525 
Q 2725 213 2448 61 
Q 2172 -91 1784 -91 
Q 1150 -91 751 415 
Q 353 922 353 1747 
Q 353 2572 751 3078 
Q 1150 3584 1784 3584 
Q 2172 3584 2448 3432 
Q 2725 3281 2906 2969 
z
M 947 1747 
Q 947 1113 1208 752 
Q 1469 391 1925 391 
Q 2381 391 2643 752 
Q 2906 1113 2906 1747 
Q 2906 2381 2643 2742 
Q 2381 3103 1925 3103 
Q 1469 3103 1208 2742 
Q 947 2381 947 1747 
z
" transform="scale(0.015625)"/>
       <path id="DejaVuSans-73" d="M 2834 3397 
L 2834 2853 
Q 2591 2978 2328 3040 
Q 2066 3103 1784 3103 
Q 1356 3103 1142 2972 
Q 928 2841 928 2578 
Q 928 2378 1081 2264 
Q 1234 2150 1697 2047 
L 1894 2003 
Q 2506 1872 2764 1633 
Q 3022 1394 3022 966 
Q 3022 478 2636 193 
Q 2250 -91 1575 -91 
Q 1294 -91 989 -36 
Q 684 19 347 128 
L 347 722 
Q 666 556 975 473 
Q 1284 391 1588 391 
Q 1994 391 2212 530 
Q 2431 669 2431 922 
Q 2431 1156 2273 1281 
Q 2116 1406 1581 1522 
L 1381 1569 
Q 847 1681 609 1914 
Q 372 2147 372 2553 
Q 372 3047 722 3315 
Q 1072 3584 1716 3584 
Q 2034 3584 2315 3537 
Q 2597 3491 2834 3397 
z
" transform="scale(0.015625)"/>
       <path id="DejaVuSans-65" d="M 3597 1894 
L 3597 1613 
L 953 1613 
Q 991 1019 1311 708 
Q 1631 397 2203 397 
Q 2534 397 2845 478 
Q 3156 559 3463 722 
L 3463 178 
Q 3153 47 2828 -22 
Q 2503 -91 2169 -91 
Q 1331 -91 842 396 
Q 353 884 353 1716 
Q 353 2575 817 3079 
Q 1281 3584 2069 3584 
Q 2775 3584 3186 3129 
Q 3597 2675 3597 1894 
z
M 3022 2063 
Q 3016 2534 2758 2815 
Q 2500 3097 2075 3097 
Q 1594 3097 1305 2825 
Q 1016 2553 972 2059 
L 3022 2063 
z
" transform="scale(0.015625)"/>
       <path id="DejaVuSans-67" d="M 2906 1791 
Q 2906 2416 2648 2759 
Q 2391 3103 1925 3103 
Q 1463 3103 1205 2759 
Q 947 2416 947 1791 
Q 947 1169 1205 825 
Q 1463 481 1925 481 
Q 2391 481 2648 825 
Q 2906 1169 2906 1791 
z
M 3481 434 
Q 3481 -459 3084 -895 
Q 2688 -1331 1869 -1331 
Q 1566 -1331 1297 -1286 
Q 1028 -1241 775 -1147 
L 775 -588 
Q 1028 -725 1275 -790 
Q 1522 -856 1778 -856 
Q 2344 -856 2625 -561 
Q 2906 -266 2906 331 
L 2906 616 
Q 2728 306 2450 153 
Q 2172 0 1784 0 
Q 1141 0 747 490 
Q 353 981 353 1791 
Q 353 2603 747 3093 
Q 1141 3584 1784 3584 
Q 2172 3584 2450 3431 
Q 2728 3278 2906 2969 
L 2906 3500 
L 3481 3500 
L 3481 434 
z
" transform="scale(0.015625)"/>
       <path id="DejaVuSans-76" d="M 191 3500 
L 800 3500 
L 1894 563 
L 2988 3500 
L 3597 3500 
L 2284 0 
L 1503 0 
L 191 3500 
z
" transform="scale(0.015625)"/>
       <path id="DejaVuSans-78" d="M 3513 3500 
L 2247 1797 
L 3578 0 
L 2900 0 
L 1881 1375 
L 863 0 
L 184 0 
L 1544 1831 
L 300 3500 
L 978 3500 
L 1906 2253 
L 2834 3500 
L 3513 3500 
z
" transform="scale(0.015625)"/>
      </defs>
      <use xlink:href="#DejaVuSans-46"/>
      <use xlink:href="#DejaVuSans-72" x="50.269531"/>
      <use xlink:href="#DejaVuSans-61" x="91.382812"/>
      <use xlink:href="#DejaVuSans-63" x="152.662109"/>
      <use xlink:href="#DejaVuSans-74" x="207.642578"/>
      <use xlink:href="#DejaVuSans-69" x="246.851562"/>
      <use xlink:href="#DejaVuSans-6f" x="274.634766"/>
      <use xlink:href="#DejaVuSans-6e" x="335.816406"/>
      <use xlink:href="#DejaVuSans-61" x="399.195312"/>
      <use xlink:href="#DejaVuSans-6c" x="460.474609"/>
      <use xlink:href="#DejaVuSans-20" x="488.257812"/>
      <use xlink:href="#DejaVuSans-64" x="520.044922"/>
      <use xlink:href="#DejaVuSans-69" x="583.521484"/>
      <use xlink:href="#DejaVuSans-73" x="611.304688"/>
      <use xlink:href="#DejaVuSans-74" x="663.404297"/>
      <use xlink:href="#DejaVuSans-61" x="702.613281"/>
      <use xlink:href="#DejaVuSans-6e" x="763.892578"/>
      <use xlink:href="#DejaVuSans-63" x="827.271484"/>
      <use xlink:href="#DejaVuSans-65" x="882.251953"/>
      <use xlink:href="#DejaVuSans-20" x="943.775391"/>
      <use xlink:href="#DejaVuSans-61" x="975.5625"/>
      <use xlink:href="#DejaVuSans-6c" x="1036.841797"/>
      <use xlink:href="#DejaVuSans-6f" x="1064.625"/>
      <use xlink:href="#DejaVuSans-6e" x="1125.806641"/>
      <use xlink:href="#DejaVuSans-67" x="1189.185547"/>
      <use xlink:href="#DejaVuSans-20" x="1252.662109"/>
      <use xlink:href="#DejaVuSans-67" x="1284.449219"/>
      <use xlink:href="#DejaVuSans-69" x="1347.925781"/>
      <use xlink:href="#DejaVuSans-76" x="1375.708984"/>
      <use xlink:href="#DejaVuSans-65" x="1434.888672"/>
      <use xlink:href="#DejaVuSans-6e" x="1496.412109"/>
      <use xlink:href="#DejaVuSans-20" x="1559.791016"/>
      <use xlink:href="#DejaVuSans-61" x="1591.578125"/>
      <use xlink:href="#DejaVuSans-78" x="1652.857422"/>
      <use xlink:href="#DejaVuSans-69" x="1712.037109"/>
      <use xlink:href="#DejaVuSans-73" x="1739.820312"/>
     </g>
    </g>
   </g>
   <g id="matplotlib.axis_2">
    <g id="ytick_1">
     <g id="line2d_13">
      <defs>
       <path id="m75111e0cf5" d="M 0 0 
L 6 0 
" style="stroke: #000000; stroke-width: 2"/>
      </defs>
      <g>
       <use xlink:href="#m75111e0cf5" x="49.3975" y="238.8725" style="fill: #ffffff; stroke: #000000; stroke-width: 2"/>
      </g>
     </g>
     <g id="line2d_14">
      <defs>
       <path id="m0436de6f03" d="M 0 0 
L -6 0 
" style="stroke: #000000; stroke-width: 2"/>
      </defs>
      <g>
       <use xlink:href="#m0436de6f03" x="345.6" y="238.8725" style="fill: #ffffff; stroke: #000000; stroke-width: 2"/>
      </g>
     </g>
     <g id="text_8">
      <!-- 0.0 -->
      <g transform="translate(26.81375 243.431562)scale(0.12 -0.12)">
       <use xlink:href="#DejaVuSans-30"/>
       <use xlink:href="#DejaVuSans-2e" x="63.623047"/>
       <use xlink:href="#DejaVuSans-30" x="95.410156"/>
      </g>
     </g>
    </g>
    <g id="ytick_2">
     <g id="line2d_15">
      <g>
       <use xlink:href="#m75111e0cf5" x="49.3975" y="193.449812" style="fill: #ffffff; stroke: #000000; stroke-width: 2"/>
      </g>
     </g>
     <g id="line2d_16">
      <g>
       <use xlink:href="#m0436de6f03" x="345.6" y="193.449812" style="fill: #ffffff; stroke: #000000; stroke-width: 2"/>
      </g>
     </g>
     <g id="text_9">
      <!-- 0.2 -->
      <g transform="translate(26.81375 198.008875)scale(0.12 -0.12)">
       <use xlink:href="#DejaVuSans-30"/>
       <use xlink:href="#DejaVuSans-2e" x="63.623047"/>
       <use xlink:href="#DejaVuSans-32" x="95.410156"/>
      </g>
     </g>
    </g>
    <g id="ytick_3">
     <g id="line2d_17">
      <g>
       <use xlink:href="#m75111e0cf5" x="49.3975" y="148.027125" style="fill: #ffffff; stroke: #000000; stroke-width: 2"/>
      </g>
     </g>
     <g id="line2d_18">
      <g>
       <use xlink:href="#m0436de6f03" x="345.6" y="148.027125" style="fill: #ffffff; stroke: #000000; stroke-width: 2"/>
      </g>
     </g>
     <g id="text_10">
      <!-- 0.4 -->
      <g transform="translate(26.81375 152.586187)scale(0.12 -0.12)">
       <use xlink:href="#DejaVuSans-30"/>
       <use xlink:href="#DejaVuSans-2e" x="63.623047"/>
       <use xlink:href="#DejaVuSans-34" x="95.410156"/>
      </g>
     </g>
    </g>
    <g id="ytick_4">
     <g id="line2d_19">
      <g>
       <use xlink:href="#m75111e0cf5" x="49.3975" y="102.604437" style="fill: #ffffff; stroke: #000000; stroke-width: 2"/>
      </g>
     </g>
     <g id="line2d_20">
      <g>
       <use xlink:href="#m0436de6f03" x="345.6" y="102.604437" style="fill: #ffffff; stroke: #000000; stroke-width: 2"/>
      </g>
     </g>
     <g id="text_11">
      <!-- 0.6 -->
      <g transform="translate(26.81375 107.1635)scale(0.12 -0.12)">
       <use xlink:href="#DejaVuSans-30"/>
       <use xlink:href="#DejaVuSans-2e" x="63.623047"/>
       <use xlink:href="#DejaVuSans-36" x="95.410156"/>
      </g>
     </g>
    </g>
    <g id="ytick_5">
     <g id="line2d_21">
      <g>
       <use xlink:href="#m75111e0cf5" x="49.3975" y="57.18175" style="fill: #ffffff; stroke: #000000; stroke-width: 2"/>
      </g>
     </g>
     <g id="line2d_22">
      <g>
       <use xlink:href="#m0436de6f03" x="345.6" y="57.18175" style="fill: #ffffff; stroke: #000000; stroke-width: 2"/>
      </g>
     </g>
     <g id="text_12">
      <!-- 0.8 -->
      <g transform="translate(26.81375 61.740812)scale(0.12 -0.12)">
       <use xlink:href="#DejaVuSans-30"/>
       <use xlink:href="#DejaVuSans-2e" x="63.623047"/>
       <use xlink:href="#DejaVuSans-38" x="95.410156"/>
      </g>
     </g>
    </g>
    <g id="ytick_6">
     <g id="line2d_23">
      <g>
       <use xlink:href="#m75111e0cf5" x="49.3975" y="11.759062" style="fill: #ffffff; stroke: #000000; stroke-width: 2"/>
      </g>
     </g>
     <g id="line2d_24">
      <g>
       <use xlink:href="#m0436de6f03" x="345.6" y="11.759062" style="fill: #ffffff; stroke: #000000; stroke-width: 2"/>
      </g>
     </g>
     <g id="text_13">
      <!-- 1.0 -->
      <g transform="translate(26.81375 16.318125)scale(0.12 -0.12)">
       <use xlink:href="#DejaVuSans-31"/>
       <use xlink:href="#DejaVuSans-2e" x="63.623047"/>
       <use xlink:href="#DejaVuSans-30" x="95.410156"/>
      </g>
     </g>
    </g>
    <g id="text_14">
     <!-- Porosity of slice -->
     <g transform="translate(16.318125 172.133594)rotate(-90)scale(0.12 -0.12)">
      <defs>
       <path id="DejaVuSans-50" d="M 1259 4147 
L 1259 2394 
L 2053 2394 
Q 2494 2394 2734 2622 
Q 2975 2850 2975 3272 
Q 2975 3691 2734 3919 
Q 2494 4147 2053 4147 
L 1259 4147 
z
M 628 4666 
L 2053 4666 
Q 2838 4666 3239 4311 
Q 3641 3956 3641 3272 
Q 3641 2581 3239 2228 
Q 2838 1875 2053 1875 
L 1259 1875 
L 1259 0 
L 628 0 
L 628 4666 
z
" transform="scale(0.015625)"/>
       <path id="DejaVuSans-79" d="M 2059 -325 
Q 1816 -950 1584 -1140 
Q 1353 -1331 966 -1331 
L 506 -1331 
L 506 -850 
L 844 -850 
Q 1081 -850 1212 -737 
Q 1344 -625 1503 -206 
L 1606 56 
L 191 3500 
L 800 3500 
L 1894 763 
L 2988 3500 
L 3597 3500 
L 2059 -325 
z
" transform="scale(0.015625)"/>
       <path id="DejaVuSans-66" d="M 2375 4863 
L 2375 4384 
L 1825 4384 
Q 1516 4384 1395 4259 
Q 1275 4134 1275 3809 
L 1275 3500 
L 2222 3500 
L 2222 3053 
L 1275 3053 
L 1275 0 
L 697 0 
L 697 3053 
L 147 3053 
L 147 3500 
L 697 3500 
L 697 3744 
Q 697 4328 969 4595 
Q 1241 4863 1831 4863 
L 2375 4863 
z
" transform="scale(0.015625)"/>
      </defs>
      <use xlink:href="#DejaVuSans-50"/>
      <use xlink:href="#DejaVuSans-6f" x="56.677734"/>
      <use xlink:href="#DejaVuSans-72" x="117.859375"/>
      <use xlink:href="#DejaVuSans-6f" x="156.722656"/>
      <use xlink:href="#DejaVuSans-73" x="217.904297"/>
      <use xlink:href="#DejaVuSans-69" x="270.003906"/>
      <use xlink:href="#DejaVuSans-74" x="297.787109"/>
      <use xlink:href="#DejaVuSans-79" x="336.996094"/>
      <use xlink:href="#DejaVuSans-20" x="396.175781"/>
      <use xlink:href="#DejaVuSans-6f" x="427.962891"/>
      <use xlink:href="#DejaVuSans-66" x="489.144531"/>
      <use xlink:href="#DejaVuSans-20" x="524.349609"/>
      <use xlink:href="#DejaVuSans-73" x="556.136719"/>
      <use xlink:href="#DejaVuSans-6c" x="608.236328"/>
      <use xlink:href="#DejaVuSans-69" x="636.019531"/>
      <use xlink:href="#DejaVuSans-63" x="663.802734"/>
      <use xlink:href="#DejaVuSans-65" x="718.783203"/>
     </g>
    </g>
   </g>
   <g id="line2d_25">
    <path d="M 62.86125 124.82181 
L 64.214391 124.965648 
L 65.567531 125.241969 
L 66.920672 125.699981 
L 68.273813 125.989551 
L 69.626954 126.029296 
L 72.333235 125.484224 
L 73.686376 125.6697 
L 76.392657 126.807159 
L 77.745798 127.490392 
L 80.452079 129.076401 
L 81.80522 129.498454 
L 83.158361 128.845503 
L 84.511501 127.79321 
L 85.864642 126.915038 
L 89.924064 124.647689 
L 92.630345 122.934875 
L 93.983486 122.563923 
L 95.336627 122.643413 
L 96.689768 122.853493 
L 98.042908 123.449666 
L 100.74919 124.331623 
L 102.10233 124.216174 
L 103.455471 123.962564 
L 104.808612 123.845222 
L 106.161753 123.500766 
L 107.514893 122.976513 
L 108.868034 122.703977 
L 110.221175 122.934875 
L 111.574315 123.750591 
L 112.927456 124.174536 
L 114.280597 124.225637 
L 115.633737 124.144254 
L 116.986878 123.360713 
L 119.69316 121.195565 
L 121.0463 119.798817 
L 122.399441 118.844941 
L 123.752582 118.439922 
L 127.812004 116.53974 
L 130.518285 115.792158 
L 131.871426 114.785288 
L 133.224567 114.226968 
L 134.577707 114.756899 
L 135.930848 115.464736 
L 137.283989 116.327767 
L 138.637129 117.336529 
L 141.343411 118.725706 
L 142.696552 119.325664 
L 145.402833 119.312416 
L 146.755974 119.942656 
L 148.109114 120.703486 
L 150.815396 122.077522 
L 153.521677 123.623786 
L 154.874818 124.257811 
L 157.581099 126.207201 
L 158.93424 126.759844 
L 160.287381 127.172434 
L 161.640521 127.745895 
L 164.346803 127.779962 
L 165.699943 127.562312 
L 167.053084 127.585023 
L 168.406225 126.795804 
L 169.759366 125.355526 
L 171.112506 124.825595 
L 176.525069 123.970134 
L 180.584491 121.343189 
L 181.937632 120.911673 
L 183.290773 120.234118 
L 184.643913 119.015276 
L 185.997054 117.599602 
L 187.350195 116.700612 
L 188.703335 116.074157 
L 191.409617 116.032519 
L 192.762758 116.318304 
L 195.469039 116.208532 
L 196.82218 116.833094 
L 198.17532 117.624206 
L 200.881602 119.601986 
L 203.587883 121.984784 
L 204.941024 122.245965 
L 206.294165 122.134301 
L 207.647305 121.708463 
L 209.000446 120.924921 
L 210.353587 120.582359 
L 211.706727 120.737553 
L 219.825572 122.919734 
L 221.178712 122.904594 
L 222.531853 123.027613 
L 223.884994 123.557545 
L 225.238134 124.566307 
L 226.591275 125.762438 
L 229.297557 128.803865 
L 230.650697 129.753956 
L 232.003838 130.227109 
L 234.710119 129.841016 
L 236.06326 130.210076 
L 237.416401 131.012543 
L 238.769541 131.542475 
L 241.475823 133.026282 
L 246.888386 137.914899 
L 248.241526 138.276388 
L 249.594667 138.399408 
L 250.947808 138.293422 
L 252.300948 138.05306 
L 253.654089 137.66886 
L 255.00723 136.845573 
L 256.360371 135.251994 
L 257.713511 133.395342 
L 259.066652 131.977775 
L 260.419793 131.092033 
L 263.126074 128.83604 
L 265.832356 126.059578 
L 267.185496 125.355526 
L 268.538637 125.202225 
L 271.244918 125.440694 
L 275.30434 125.885457 
L 276.657481 126.35104 
L 278.010622 126.260195 
L 279.363763 125.968732 
L 280.716903 125.179513 
L 284.776325 122.374662 
L 286.129466 121.712248 
L 287.482607 120.909781 
L 288.835747 120.476372 
L 290.188888 120.758372 
L 291.542029 121.466208 
L 292.89517 122.524179 
L 294.24831 123.22823 
L 295.601451 123.635142 
L 298.307732 125.103809 
L 299.660873 126.209094 
L 301.014014 127.469574 
L 302.367155 128.567289 
L 303.720295 129.328119 
L 305.073436 130.221431 
L 306.426577 130.571565 
L 307.779717 130.7419 
L 309.132858 130.711618 
L 310.485999 130.37284 
L 311.839139 129.208884 
L 314.545421 126.587616 
L 315.898562 125.414197 
L 319.957984 122.368984 
L 321.311124 121.167176 
L 322.664265 120.145165 
L 324.017406 119.796925 
L 325.370546 119.798817 
L 326.723687 119.513033 
L 329.429969 119.232926 
L 332.13625 119.17047 
L 332.13625 119.17047 
" clip-path="url(#pc131b33104)" style="fill: none; stroke: #0000ff; stroke-opacity: 0.5; stroke-width: 2; stroke-linecap: square"/>
   </g>
   <g id="line2d_26">
    <path d="M 62.86125 120.288058 
L 63.761835 120.364708 
L 66.463591 121.142572 
L 67.364176 121.236256 
L 68.264762 120.994948 
L 69.165347 120.245474 
L 71.867103 114.933858 
L 72.767688 114.706745 
L 73.668273 115.260334 
L 75.469444 117.298677 
L 76.370029 117.514435 
L 77.270615 117.539985 
L 79.071785 116.773477 
L 81.773541 114.79759 
L 82.674126 114.306457 
L 83.574712 114.544926 
L 84.475297 114.360397 
L 86.276467 113.53995 
L 87.177053 113.398004 
L 88.077638 113.372453 
L 88.978223 113.608084 
L 89.878809 113.53995 
L 90.779394 113.690412 
L 91.679979 114.252518 
L 92.580564 115.197878 
L 93.48115 116.324928 
L 94.381735 118.016923 
L 95.28232 120.055266 
L 96.182906 121.815395 
L 97.083491 123.135492 
L 97.984076 123.683403 
L 99.785247 125.037567 
L 100.685832 125.494633 
L 101.586417 126.229913 
L 102.487003 126.809052 
L 103.387588 127.70615 
L 104.288173 129.224971 
L 105.188758 130.221431 
L 106.089344 130.661464 
L 106.989929 130.757987 
L 107.890514 130.675658 
L 108.791099 130.448545 
L 109.691685 130.562102 
L 110.59227 130.522357 
L 111.492855 130.650108 
L 113.294026 130.388928 
L 114.194611 130.107875 
L 115.095196 130.085163 
L 115.995782 129.659326 
L 116.896367 129.835339 
L 117.796952 130.783537 
L 118.697538 131.138402 
L 119.598123 131.075946 
L 120.498708 130.556424 
L 121.399293 129.872245 
L 122.299879 129.046119 
L 123.200464 128.549309 
L 124.101049 128.202961 
L 125.90222 126.298047 
L 126.802805 126.110678 
L 127.70339 126.218557 
L 128.603976 126.570583 
L 130.405146 125.829625 
L 131.305732 125.795558 
L 132.206317 126.173134 
L 134.007487 125.679163 
L 134.908073 125.270359 
L 135.808658 124.202925 
L 136.709243 123.79696 
L 137.609829 124.075174 
L 138.510414 124.728125 
L 139.410999 125.13409 
L 140.311584 125.928988 
L 141.21217 126.922609 
L 143.01334 128.554987 
L 144.814511 128.447108 
L 145.715096 128.926885 
L 146.615681 129.09722 
L 147.516267 129.100059 
L 148.416852 128.881462 
L 149.317437 128.444269 
L 150.218023 128.398846 
L 151.118608 128.819006 
L 152.019193 128.997858 
L 153.820364 130.286727 
L 154.720949 130.442867 
L 156.52212 132.137701 
L 157.422705 132.569217 
L 158.32329 132.628834 
L 159.223875 132.87582 
L 160.124461 132.989377 
L 161.025046 133.596905 
L 161.925631 133.693428 
L 162.826217 134.780734 
L 163.726802 136.07528 
L 164.627387 136.702681 
L 165.527972 136.873016 
L 166.428558 137.20517 
L 167.329143 137.943288 
L 168.229728 138.942587 
L 170.030899 142.352128 
L 170.931484 142.985207 
L 171.832069 143.005079 
L 172.732655 142.590597 
L 173.63324 141.526003 
L 174.533825 140.032732 
L 176.334996 136.237099 
L 177.235581 133.770079 
L 178.136166 132.14054 
L 179.036752 130.760826 
L 179.937337 129.761527 
L 182.639093 127.410903 
L 183.539678 126.738079 
L 184.440263 125.781364 
L 185.340849 125.190869 
L 186.241434 124.447072 
L 188.042605 120.818935 
L 188.94319 119.52155 
L 189.843775 118.789109 
L 190.74436 118.380305 
L 191.644946 118.150352 
L 192.545531 117.440623 
L 194.346702 115.257495 
L 196.147872 113.95727 
L 197.048457 114.01121 
L 197.949043 114.212773 
L 198.849628 114.899791 
L 202.451969 115.473253 
L 204.25314 116.728054 
L 205.153725 117.432106 
L 206.05431 118.414372 
L 206.954895 120.790546 
L 208.756066 124.89846 
L 212.358407 133.733173 
L 213.258992 134.857385 
L 214.159578 135.362712 
L 215.060163 135.618215 
L 215.960748 135.362712 
L 216.861334 134.124944 
L 217.761919 132.225708 
L 218.662504 130.976584 
L 219.563089 130.272532 
L 220.463675 129.051797 
L 221.36426 127.564204 
L 224.966601 122.573386 
L 225.867186 121.210706 
L 226.767772 120.180179 
L 227.668357 118.950927 
L 228.568942 118.13048 
L 229.469528 118.099252 
L 232.171283 120.148951 
L 233.071869 121.551376 
L 233.972454 122.723849 
L 234.873039 124.123436 
L 236.67421 125.071634 
L 237.574795 125.222097 
L 238.47538 125.168158 
L 239.375966 124.921172 
L 240.276551 124.438556 
L 241.177136 123.56133 
L 242.978307 119.004867 
L 243.878892 116.444163 
L 244.779477 114.834496 
L 247.481233 110.959373 
L 249.282404 109.344029 
L 251.083574 107.277296 
L 251.98416 106.973532 
L 252.884745 107.308525 
L 253.78533 107.359625 
L 254.685916 107.768429 
L 255.586501 108.392991 
L 256.487086 109.344029 
L 257.387671 110.902595 
L 259.188842 114.499504 
L 260.990013 116.262472 
L 262.791183 119.087195 
L 264.592354 121.747261 
L 266.393524 125.784203 
L 268.194695 128.469819 
L 269.09528 128.946757 
L 269.995865 129.230649 
L 271.797036 129.301622 
L 272.697621 128.765067 
L 273.598207 128.092243 
L 275.399377 127.885002 
L 276.299962 126.993582 
L 277.200548 125.903437 
L 278.101133 126.31508 
L 279.001718 126.959515 
L 280.802889 127.356963 
L 281.703474 127.257601 
L 282.604059 127.547171 
L 283.504645 128.384652 
L 285.305815 128.464141 
L 286.206401 127.975847 
L 288.007571 128.370457 
L 288.908156 128.824684 
L 291.609912 130.95955 
L 292.510497 131.311576 
L 294.311668 131.19518 
L 297.013424 132.151896 
L 297.914009 132.123507 
L 298.814594 131.410938 
L 299.71518 129.787077 
L 300.615765 127.885002 
L 302.416936 123.606753 
L 305.118691 118.312171 
L 306.019277 116.742249 
L 306.919862 115.941674 
L 307.820447 115.388085 
L 309.621618 115.723077 
L 310.522203 115.984258 
L 311.422788 116.600303 
L 312.323374 116.912584 
L 313.223959 116.696826 
L 314.124544 116.305056 
L 315.02513 116.219888 
L 315.925715 116.63437 
L 318.627471 119.907643 
L 319.528056 121.065921 
L 320.428641 122.763594 
L 321.329227 123.839544 
L 323.130397 127.161078 
L 324.030982 128.342068 
L 325.832153 130.062452 
L 326.732738 130.899933 
L 327.633324 131.053234 
L 328.533909 130.987939 
L 330.335079 130.61888 
L 332.13625 130.485451 
L 332.13625 130.485451 
" clip-path="url(#pc131b33104)" style="fill: none; stroke: #ff0000; stroke-opacity: 0.5; stroke-width: 2; stroke-linecap: square"/>
   </g>
   <g id="line2d_27">
    <path d="M 62.86125 116.969362 
L 63.536125 116.889873 
L 64.885874 116.166895 
L 66.235623 115.201663 
L 67.585373 114.792859 
L 68.935122 112.502798 
L 69.609997 112.680704 
L 70.284872 112.487657 
L 71.634621 111.087124 
L 72.309496 110.644253 
L 73.659245 111.477002 
L 74.33412 111.870666 
L 75.683869 112.173484 
L 76.358744 112.945669 
L 77.033618 113.960109 
L 77.708493 114.437048 
L 78.383368 114.550604 
L 79.058242 114.785288 
L 79.733117 115.640749 
L 80.407992 116.178251 
L 81.082867 116.496209 
L 81.757741 116.564343 
L 82.432616 116.806598 
L 84.45724 115.091891 
L 85.132115 114.266713 
L 85.806989 114.747436 
L 86.481864 116.238814 
L 87.831613 118.426674 
L 88.506488 119.248067 
L 89.181363 119.331342 
L 90.531112 118.627291 
L 91.205987 117.783186 
L 91.880862 117.298677 
L 92.555736 117.166194 
L 93.230611 116.787672 
L 93.905486 116.087405 
L 95.255235 113.876834 
L 96.604984 112.022075 
L 97.279859 110.409569 
L 100.654232 104.387278 
L 102.003982 103.963333 
L 102.678857 103.463683 
L 103.353731 103.789213 
L 104.028606 103.887628 
L 104.703481 104.606821 
L 105.378355 106.851459 
L 106.05323 108.558595 
L 110.102478 114.331061 
L 110.777353 115.455273 
L 112.127102 118.509949 
L 112.801977 119.936978 
L 113.476852 122.007496 
L 114.826601 126.530838 
L 115.501476 127.677761 
L 116.17635 128.427235 
L 116.851225 128.714912 
L 117.5261 128.711127 
L 118.200974 129.301622 
L 119.550724 131.088248 
L 120.225598 131.481911 
L 120.900473 131.46677 
L 121.575348 131.088248 
L 122.250222 131.186664 
L 122.925097 131.497052 
L 123.599972 131.179093 
L 124.949721 129.589299 
L 126.299471 128.889033 
L 126.974345 129.26377 
L 127.64922 128.904174 
L 128.324095 128.870107 
L 129.673844 127.49607 
L 130.348719 126.939642 
L 131.023593 126.606543 
L 131.698468 127.284098 
L 133.048217 127.806459 
L 134.397967 127.708043 
L 135.747716 128.34396 
L 136.422591 127.480929 
L 137.097466 127.931371 
L 137.77234 128.188766 
L 138.447215 128.601356 
L 139.12209 129.316763 
L 139.796964 129.706641 
L 140.471839 129.695285 
L 141.146714 129.259985 
L 141.821588 128.646778 
L 142.496463 128.298538 
L 143.171338 128.355316 
L 143.846212 128.84361 
L 144.521087 129.956466 
L 145.195962 130.69837 
L 145.870836 131.652246 
L 146.545711 132.042124 
L 147.220586 132.73482 
L 147.895461 133.726549 
L 148.570335 134.430601 
L 149.24521 135.388262 
L 150.594959 135.69108 
L 151.269834 136.266434 
L 151.944709 137.2998 
L 153.294458 138.950158 
L 153.969333 138.832816 
L 155.993957 137.296015 
L 156.668831 136.474621 
L 157.343706 135.024881 
L 158.693456 130.717296 
L 160.043205 126.837441 
L 160.71808 124.630656 
L 162.067829 121.522987 
L 162.742704 120.319286 
L 164.092453 118.986887 
L 164.767328 118.702995 
L 165.442202 119.202645 
L 166.117077 119.319986 
L 167.466826 119.005813 
L 168.141701 118.502378 
L 168.816576 117.427375 
L 169.491451 116.67033 
L 170.166325 116.284237 
L 170.8412 116.481069 
L 171.516075 116.397794 
L 172.190949 116.515136 
L 172.865824 117.029926 
L 173.540699 117.896742 
L 174.215573 118.528875 
L 174.890448 119.422188 
L 175.565323 119.865059 
L 176.240197 119.827207 
L 176.915072 120.13381 
L 177.589947 121.326155 
L 179.614571 123.063573 
L 180.289445 123.555652 
L 180.96432 124.411113 
L 182.988944 129.827768 
L 184.338694 132.076191 
L 185.688443 133.700052 
L 186.363318 134.907539 
L 187.713067 139.249191 
L 188.387942 140.736784 
L 189.062816 141.213722 
L 189.737691 140.967682 
L 190.412566 140.320409 
L 191.08744 138.72683 
L 192.43719 133.590281 
L 193.112065 130.44476 
L 194.461814 125.561821 
L 195.136689 122.079415 
L 196.486438 116.893658 
L 197.836187 112.377886 
L 199.860811 106.896881 
L 200.535686 105.818093 
L 201.210561 105.537986 
L 201.885435 105.731032 
L 202.56031 105.560697 
L 203.235185 105.867301 
L 203.91006 105.818093 
L 204.584934 105.564483 
L 207.284433 103.058664 
L 208.634182 102.305405 
L 209.309057 102.184278 
L 210.658806 103.240355 
L 211.333681 104.167735 
L 212.008556 104.822579 
L 212.68343 105.912723 
L 213.358305 106.605419 
L 216.057804 110.390643 
L 216.732679 111.893377 
L 218.757303 118.4456 
L 219.432177 120.304145 
L 220.107052 121.011982 
L 220.781927 121.375363 
L 221.456801 121.928006 
L 222.131676 121.458638 
L 222.806551 121.352652 
L 223.481425 121.485135 
L 224.1563 121.046049 
L 224.831175 120.769727 
L 226.180924 119.637945 
L 227.530674 119.637945 
L 228.205548 120.270078 
L 229.555298 122.109697 
L 230.230172 123.479948 
L 230.905047 125.21358 
L 231.579922 126.56112 
L 232.929671 127.810244 
L 233.604546 128.692201 
L 234.954295 131.425133 
L 235.62917 132.250312 
L 237.653794 136.743372 
L 238.328669 137.333867 
L 239.678418 138.037919 
L 240.353293 138.003852 
L 241.028167 137.648041 
L 241.703042 136.87964 
L 242.377917 135.895482 
L 243.727666 134.699351 
L 244.402541 133.673556 
L 245.077415 132.076191 
L 246.427165 126.122034 
L 247.102039 123.744913 
L 247.776914 122.397374 
L 248.451789 121.863657 
L 249.801538 122.136193 
L 250.476413 122.984083 
L 251.151288 123.61243 
L 251.826162 123.69192 
L 252.501037 123.423169 
L 253.175912 122.775896 
L 254.525661 121.731174 
L 255.200536 120.694023 
L 256.550285 119.690938 
L 257.22516 119.543315 
L 257.900034 119.8802 
L 258.574909 119.914267 
L 259.249784 119.448684 
L 260.599533 120.050535 
L 261.274408 120.050535 
L 261.949283 119.520603 
L 262.624157 119.255638 
L 263.299032 120.478265 
L 264.648781 122.147549 
L 265.998531 124.630656 
L 266.673405 125.493687 
L 267.34828 126.81473 
L 268.698029 130.323633 
L 269.372904 131.849078 
L 270.722654 136.44434 
L 272.072403 138.806319 
L 272.747278 140.214423 
L 274.097027 143.484856 
L 274.771902 144.805899 
L 275.446776 145.619723 
L 276.121651 146.157224 
L 276.796526 146.055023 
L 278.146275 146.126943 
L 279.496024 144.934597 
L 280.170899 143.288025 
L 281.520648 139.446022 
L 282.870398 136.383776 
L 283.545273 135.032451 
L 284.895022 133.230685 
L 286.244771 132.170822 
L 286.919646 131.977775 
L 288.94427 131.917212 
L 289.619145 132.802954 
L 290.294019 133.336671 
L 290.968894 134.703137 
L 291.643769 135.717577 
L 292.318643 136.122596 
L 292.993518 136.202085 
L 294.343268 136.088529 
L 295.018142 136.202085 
L 295.693017 136.845573 
L 296.367892 136.478407 
L 297.042766 134.517661 
L 297.717641 132.026983 
L 300.41714 120.421487 
L 301.092014 118.385036 
L 301.766889 116.833094 
L 303.116638 114.724725 
L 303.791513 114.766362 
L 304.466388 115.035113 
L 305.141263 113.642151 
L 305.816137 112.763979 
L 306.491012 112.400597 
L 307.165887 112.972166 
L 307.840761 114.527893 
L 309.190511 119.111799 
L 309.865385 120.853002 
L 310.54026 122.189186 
L 311.215135 123.025721 
L 311.890009 123.608645 
L 312.564884 124.35812 
L 313.239759 126.016048 
L 315.939258 131.198019 
L 316.614132 131.739306 
L 317.289007 132.428217 
L 317.963882 132.8938 
L 318.638756 133.559999 
L 319.313631 134.653929 
L 319.988506 134.975673 
L 320.66338 135.698651 
L 321.338255 137.000768 
L 322.01313 138.617058 
L 322.688004 140.657294 
L 324.037754 142.826227 
L 326.737253 144.635564 
L 327.412127 145.566729 
L 328.087002 146.020956 
L 328.761877 145.612152 
L 330.786501 143.231246 
L 331.461375 142.689959 
L 332.13625 142.553691 
L 332.13625 142.553691 
" clip-path="url(#pc131b33104)" style="fill: none; stroke: #008000; stroke-opacity: 0.5; stroke-width: 2; stroke-linecap: square"/>
   </g>
   <g id="patch_3">
    <path d="M 49.3975 238.8725 
L 49.3975 11.759062 
" style="fill: none; stroke: #000000; stroke-width: 2; stroke-linejoin: miter; stroke-linecap: square"/>
   </g>
   <g id="patch_4">
    <path d="M 345.6 238.8725 
L 345.6 11.759062 
" style="fill: none; stroke: #000000; stroke-width: 2; stroke-linejoin: miter; stroke-linecap: square"/>
   </g>
   <g id="patch_5">
    <path d="M 49.3975 238.8725 
L 345.6 238.8725 
" style="fill: none; stroke: #000000; stroke-width: 2; stroke-linejoin: miter; stroke-linecap: square"/>
   </g>
   <g id="patch_6">
    <path d="M 49.3975 11.759062 
L 345.6 11.759062 
" style="fill: none; stroke: #000000; stroke-width: 2; stroke-linejoin: miter; stroke-linecap: square"/>
   </g>
   <g id="legend_1">
    <g id="line2d_28">
     <path d="M 249.58125 27.477187 
L 261.58125 27.477187 
L 273.58125 27.477187 
" style="fill: none; stroke: #0000ff; stroke-opacity: 0.5; stroke-width: 2; stroke-linecap: square"/>
    </g>
    <g id="text_15">
     <!-- yz-plane -->
     <g transform="translate(283.18125 31.677187)scale(0.12 -0.12)">
      <defs>
       <path id="DejaVuSans-7a" d="M 353 3500 
L 3084 3500 
L 3084 2975 
L 922 459 
L 3084 459 
L 3084 0 
L 275 0 
L 275 525 
L 2438 3041 
L 353 3041 
L 353 3500 
z
" transform="scale(0.015625)"/>
       <path id="DejaVuSans-2d" d="M 313 2009 
L 1997 2009 
L 1997 1497 
L 313 1497 
L 313 2009 
z
" transform="scale(0.015625)"/>
       <path id="DejaVuSans-70" d="M 1159 525 
L 1159 -1331 
L 581 -1331 
L 581 3500 
L 1159 3500 
L 1159 2969 
Q 1341 3281 1617 3432 
Q 1894 3584 2278 3584 
Q 2916 3584 3314 3078 
Q 3713 2572 3713 1747 
Q 3713 922 3314 415 
Q 2916 -91 2278 -91 
Q 1894 -91 1617 61 
Q 1341 213 1159 525 
z
M 3116 1747 
Q 3116 2381 2855 2742 
Q 2594 3103 2138 3103 
Q 1681 3103 1420 2742 
Q 1159 2381 1159 1747 
Q 1159 1113 1420 752 
Q 1681 391 2138 391 
Q 2594 391 2855 752 
Q 3116 1113 3116 1747 
z
" transform="scale(0.015625)"/>
      </defs>
      <use xlink:href="#DejaVuSans-79"/>
      <use xlink:href="#DejaVuSans-7a" x="59.179688"/>
      <use xlink:href="#DejaVuSans-2d" x="111.669922"/>
      <use xlink:href="#DejaVuSans-70" x="147.753906"/>
      <use xlink:href="#DejaVuSans-6c" x="211.230469"/>
      <use xlink:href="#DejaVuSans-61" x="239.013672"/>
      <use xlink:href="#DejaVuSans-6e" x="300.292969"/>
      <use xlink:href="#DejaVuSans-65" x="363.671875"/>
     </g>
    </g>
    <g id="line2d_29">
     <path d="M 249.58125 45.090937 
L 261.58125 45.090937 
L 273.58125 45.090937 
" style="fill: none; stroke: #ff0000; stroke-opacity: 0.5; stroke-width: 2; stroke-linecap: square"/>
    </g>
    <g id="text_16">
     <!-- xz-plane -->
     <g transform="translate(283.18125 49.290937)scale(0.12 -0.12)">
      <use xlink:href="#DejaVuSans-78"/>
      <use xlink:href="#DejaVuSans-7a" x="59.179688"/>
      <use xlink:href="#DejaVuSans-2d" x="111.669922"/>
      <use xlink:href="#DejaVuSans-70" x="147.753906"/>
      <use xlink:href="#DejaVuSans-6c" x="211.230469"/>
      <use xlink:href="#DejaVuSans-61" x="239.013672"/>
      <use xlink:href="#DejaVuSans-6e" x="300.292969"/>
      <use xlink:href="#DejaVuSans-65" x="363.671875"/>
     </g>
    </g>
    <g id="line2d_30">
     <path d="M 249.58125 62.704687 
L 261.58125 62.704687 
L 273.58125 62.704687 
" style="fill: none; stroke: #008000; stroke-opacity: 0.5; stroke-width: 2; stroke-linecap: square"/>
    </g>
    <g id="text_17">
     <!-- xy-plane -->
     <g transform="translate(283.18125 66.904687)scale(0.12 -0.12)">
      <use xlink:href="#DejaVuSans-78"/>
      <use xlink:href="#DejaVuSans-79" x="59.179688"/>
      <use xlink:href="#DejaVuSans-2d" x="116.609375"/>
      <use xlink:href="#DejaVuSans-70" x="152.693359"/>
      <use xlink:href="#DejaVuSans-6c" x="216.169922"/>
      <use xlink:href="#DejaVuSans-61" x="243.953125"/>
      <use xlink:href="#DejaVuSans-6e" x="305.232422"/>
      <use xlink:href="#DejaVuSans-65" x="368.611328"/>
     </g>
    </g>
   </g>
  </g>
 </g>
 <defs>
  <clipPath id="pc131b33104">
   <rect x="49.3975" y="11.759062" width="296.2025" height="227.113437"/>
  </clipPath>
 </defs>
</svg>
