<?xml version="1.0" encoding="utf-8" standalone="no"?>
<!DOCTYPE svg PUBLIC "-//W3C//DTD SVG 1.1//EN"
  "http://www.w3.org/Graphics/SVG/1.1/DTD/svg11.dtd">
<!-- Created with matplotlib (https://matplotlib.org/) -->
<svg height="276.48pt" version="1.1" viewBox="0 0 420.48 276.48" width="420.48pt" xmlns="http://www.w3.org/2000/svg" xmlns:xlink="http://www.w3.org/1999/xlink">
 <metadata>
  <rdf:RDF xmlns:cc="http://creativecommons.org/ns#" xmlns:dc="http://purl.org/dc/elements/1.1/" xmlns:rdf="http://www.w3.org/1999/02/22-rdf-syntax-ns#">
   <cc:Work>
    <dc:type rdf:resource="http://purl.org/dc/dcmitype/StillImage"/>
    <dc:date>2021-04-19T20:03:52.382246</dc:date>
    <dc:format>image/svg+xml</dc:format>
    <dc:creator>
     <cc:Agent>
      <dc:title>Matplotlib v3.3.4, https://matplotlib.org/</dc:title>
     </cc:Agent>
    </dc:creator>
   </cc:Work>
  </rdf:RDF>
 </metadata>
 <defs>
  <style type="text/css">*{stroke-linecap:butt;stroke-linejoin:round;}</style>
 </defs>
 <g id="figure_1">
  <g id="patch_1">
   <path d="M 0 276.48 
L 420.48 276.48 
L 420.48 0 
L 0 0 
z
" style="fill:none;"/>
  </g>
  <g id="axes_1">
   <g id="patch_2">
    <path d="M 45.58375 234.5525 
L 413.28 234.5525 
L 413.28 7.2 
L 45.58375 7.2 
z
" style="fill:#ffffff;"/>
   </g>
   <g id="matplotlib.axis_1">
    <g id="xtick_1">
     <g id="line2d_1">
      <defs>
       <path d="M 0 0 
L 0 -6 
" id="ma484b0ae02" style="stroke:#000000;stroke-width:2;"/>
      </defs>
      <g>
       <use style="fill:#ffffff;stroke:#000000;stroke-width:2;" x="62.297216" xlink:href="#ma484b0ae02" y="234.5525"/>
      </g>
     </g>
     <g id="line2d_2">
      <defs>
       <path d="M 0 0 
L 0 6 
" id="m938594b5f9" style="stroke:#000000;stroke-width:2;"/>
      </defs>
      <g>
       <use style="fill:#ffffff;stroke:#000000;stroke-width:2;" x="62.297216" xlink:href="#m938594b5f9" y="7.2"/>
      </g>
     </g>
     <g id="text_1">
      <!-- 0 -->
      <g transform="translate(58.479716 247.170625)scale(0.12 -0.12)">
       <defs>
        <path d="M 31.78125 66.40625 
Q 24.171875 66.40625 20.328125 58.90625 
Q 16.5 51.421875 16.5 36.375 
Q 16.5 21.390625 20.328125 13.890625 
Q 24.171875 6.390625 31.78125 6.390625 
Q 39.453125 6.390625 43.28125 13.890625 
Q 47.125 21.390625 47.125 36.375 
Q 47.125 51.421875 43.28125 58.90625 
Q 39.453125 66.40625 31.78125 66.40625 
z
M 31.78125 74.21875 
Q 44.046875 74.21875 50.515625 64.515625 
Q 56.984375 54.828125 56.984375 36.375 
Q 56.984375 17.96875 50.515625 8.265625 
Q 44.046875 -1.421875 31.78125 -1.421875 
Q 19.53125 -1.421875 13.0625 8.265625 
Q 6.59375 17.96875 6.59375 36.375 
Q 6.59375 54.828125 13.0625 64.515625 
Q 19.53125 74.21875 31.78125 74.21875 
z
" id="DejaVuSans-48"/>
       </defs>
       <use xlink:href="#DejaVuSans-48"/>
      </g>
     </g>
    </g>
    <g id="xtick_2">
     <g id="line2d_3">
      <g>
       <use style="fill:#ffffff;stroke:#000000;stroke-width:2;" x="118.008769" xlink:href="#ma484b0ae02" y="234.5525"/>
      </g>
     </g>
     <g id="line2d_4">
      <g>
       <use style="fill:#ffffff;stroke:#000000;stroke-width:2;" x="118.008769" xlink:href="#m938594b5f9" y="7.2"/>
      </g>
     </g>
     <g id="text_2">
      <!-- 10 -->
      <g transform="translate(110.373769 247.170625)scale(0.12 -0.12)">
       <defs>
        <path d="M 12.40625 8.296875 
L 28.515625 8.296875 
L 28.515625 63.921875 
L 10.984375 60.40625 
L 10.984375 69.390625 
L 28.421875 72.90625 
L 38.28125 72.90625 
L 38.28125 8.296875 
L 54.390625 8.296875 
L 54.390625 0 
L 12.40625 0 
z
" id="DejaVuSans-49"/>
       </defs>
       <use xlink:href="#DejaVuSans-49"/>
       <use x="63.623047" xlink:href="#DejaVuSans-48"/>
      </g>
     </g>
    </g>
    <g id="xtick_3">
     <g id="line2d_5">
      <g>
       <use style="fill:#ffffff;stroke:#000000;stroke-width:2;" x="173.720322" xlink:href="#ma484b0ae02" y="234.5525"/>
      </g>
     </g>
     <g id="line2d_6">
      <g>
       <use style="fill:#ffffff;stroke:#000000;stroke-width:2;" x="173.720322" xlink:href="#m938594b5f9" y="7.2"/>
      </g>
     </g>
     <g id="text_3">
      <!-- 20 -->
      <g transform="translate(166.085322 247.170625)scale(0.12 -0.12)">
       <defs>
        <path d="M 19.1875 8.296875 
L 53.609375 8.296875 
L 53.609375 0 
L 7.328125 0 
L 7.328125 8.296875 
Q 12.9375 14.109375 22.625 23.890625 
Q 32.328125 33.6875 34.8125 36.53125 
Q 39.546875 41.84375 41.421875 45.53125 
Q 43.3125 49.21875 43.3125 52.78125 
Q 43.3125 58.59375 39.234375 62.25 
Q 35.15625 65.921875 28.609375 65.921875 
Q 23.96875 65.921875 18.8125 64.3125 
Q 13.671875 62.703125 7.8125 59.421875 
L 7.8125 69.390625 
Q 13.765625 71.78125 18.9375 73 
Q 24.125 74.21875 28.421875 74.21875 
Q 39.75 74.21875 46.484375 68.546875 
Q 53.21875 62.890625 53.21875 53.421875 
Q 53.21875 48.921875 51.53125 44.890625 
Q 49.859375 40.875 45.40625 35.40625 
Q 44.1875 33.984375 37.640625 27.21875 
Q 31.109375 20.453125 19.1875 8.296875 
z
" id="DejaVuSans-50"/>
       </defs>
       <use xlink:href="#DejaVuSans-50"/>
       <use x="63.623047" xlink:href="#DejaVuSans-48"/>
      </g>
     </g>
    </g>
    <g id="xtick_4">
     <g id="line2d_7">
      <g>
       <use style="fill:#ffffff;stroke:#000000;stroke-width:2;" x="229.431875" xlink:href="#ma484b0ae02" y="234.5525"/>
      </g>
     </g>
     <g id="line2d_8">
      <g>
       <use style="fill:#ffffff;stroke:#000000;stroke-width:2;" x="229.431875" xlink:href="#m938594b5f9" y="7.2"/>
      </g>
     </g>
     <g id="text_4">
      <!-- 30 -->
      <g transform="translate(221.796875 247.170625)scale(0.12 -0.12)">
       <defs>
        <path d="M 40.578125 39.3125 
Q 47.65625 37.796875 51.625 33 
Q 55.609375 28.21875 55.609375 21.1875 
Q 55.609375 10.40625 48.1875 4.484375 
Q 40.765625 -1.421875 27.09375 -1.421875 
Q 22.515625 -1.421875 17.65625 -0.515625 
Q 12.796875 0.390625 7.625 2.203125 
L 7.625 11.71875 
Q 11.71875 9.328125 16.59375 8.109375 
Q 21.484375 6.890625 26.8125 6.890625 
Q 36.078125 6.890625 40.9375 10.546875 
Q 45.796875 14.203125 45.796875 21.1875 
Q 45.796875 27.640625 41.28125 31.265625 
Q 36.765625 34.90625 28.71875 34.90625 
L 20.21875 34.90625 
L 20.21875 43.015625 
L 29.109375 43.015625 
Q 36.375 43.015625 40.234375 45.921875 
Q 44.09375 48.828125 44.09375 54.296875 
Q 44.09375 59.90625 40.109375 62.90625 
Q 36.140625 65.921875 28.71875 65.921875 
Q 24.65625 65.921875 20.015625 65.03125 
Q 15.375 64.15625 9.8125 62.3125 
L 9.8125 71.09375 
Q 15.4375 72.65625 20.34375 73.4375 
Q 25.25 74.21875 29.59375 74.21875 
Q 40.828125 74.21875 47.359375 69.109375 
Q 53.90625 64.015625 53.90625 55.328125 
Q 53.90625 49.265625 50.4375 45.09375 
Q 46.96875 40.921875 40.578125 39.3125 
z
" id="DejaVuSans-51"/>
       </defs>
       <use xlink:href="#DejaVuSans-51"/>
       <use x="63.623047" xlink:href="#DejaVuSans-48"/>
      </g>
     </g>
    </g>
    <g id="xtick_5">
     <g id="line2d_9">
      <g>
       <use style="fill:#ffffff;stroke:#000000;stroke-width:2;" x="285.143428" xlink:href="#ma484b0ae02" y="234.5525"/>
      </g>
     </g>
     <g id="line2d_10">
      <g>
       <use style="fill:#ffffff;stroke:#000000;stroke-width:2;" x="285.143428" xlink:href="#m938594b5f9" y="7.2"/>
      </g>
     </g>
     <g id="text_5">
      <!-- 40 -->
      <g transform="translate(277.508428 247.170625)scale(0.12 -0.12)">
       <defs>
        <path d="M 37.796875 64.3125 
L 12.890625 25.390625 
L 37.796875 25.390625 
z
M 35.203125 72.90625 
L 47.609375 72.90625 
L 47.609375 25.390625 
L 58.015625 25.390625 
L 58.015625 17.1875 
L 47.609375 17.1875 
L 47.609375 0 
L 37.796875 0 
L 37.796875 17.1875 
L 4.890625 17.1875 
L 4.890625 26.703125 
z
" id="DejaVuSans-52"/>
       </defs>
       <use xlink:href="#DejaVuSans-52"/>
       <use x="63.623047" xlink:href="#DejaVuSans-48"/>
      </g>
     </g>
    </g>
    <g id="xtick_6">
     <g id="line2d_11">
      <g>
       <use style="fill:#ffffff;stroke:#000000;stroke-width:2;" x="340.854981" xlink:href="#ma484b0ae02" y="234.5525"/>
      </g>
     </g>
     <g id="line2d_12">
      <g>
       <use style="fill:#ffffff;stroke:#000000;stroke-width:2;" x="340.854981" xlink:href="#m938594b5f9" y="7.2"/>
      </g>
     </g>
     <g id="text_6">
      <!-- 50 -->
      <g transform="translate(333.219981 247.170625)scale(0.12 -0.12)">
       <defs>
        <path d="M 10.796875 72.90625 
L 49.515625 72.90625 
L 49.515625 64.59375 
L 19.828125 64.59375 
L 19.828125 46.734375 
Q 21.96875 47.46875 24.109375 47.828125 
Q 26.265625 48.1875 28.421875 48.1875 
Q 40.625 48.1875 47.75 41.5 
Q 54.890625 34.8125 54.890625 23.390625 
Q 54.890625 11.625 47.5625 5.09375 
Q 40.234375 -1.421875 26.90625 -1.421875 
Q 22.3125 -1.421875 17.546875 -0.640625 
Q 12.796875 0.140625 7.71875 1.703125 
L 7.71875 11.625 
Q 12.109375 9.234375 16.796875 8.0625 
Q 21.484375 6.890625 26.703125 6.890625 
Q 35.15625 6.890625 40.078125 11.328125 
Q 45.015625 15.765625 45.015625 23.390625 
Q 45.015625 31 40.078125 35.4375 
Q 35.15625 39.890625 26.703125 39.890625 
Q 22.75 39.890625 18.8125 39.015625 
Q 14.890625 38.140625 10.796875 36.28125 
z
" id="DejaVuSans-53"/>
       </defs>
       <use xlink:href="#DejaVuSans-53"/>
       <use x="63.623047" xlink:href="#DejaVuSans-48"/>
      </g>
     </g>
    </g>
    <g id="xtick_7">
     <g id="line2d_13">
      <g>
       <use style="fill:#ffffff;stroke:#000000;stroke-width:2;" x="396.566534" xlink:href="#ma484b0ae02" y="234.5525"/>
      </g>
     </g>
     <g id="line2d_14">
      <g>
       <use style="fill:#ffffff;stroke:#000000;stroke-width:2;" x="396.566534" xlink:href="#m938594b5f9" y="7.2"/>
      </g>
     </g>
     <g id="text_7">
      <!-- 60 -->
      <g transform="translate(388.931534 247.170625)scale(0.12 -0.12)">
       <defs>
        <path d="M 33.015625 40.375 
Q 26.375 40.375 22.484375 35.828125 
Q 18.609375 31.296875 18.609375 23.390625 
Q 18.609375 15.53125 22.484375 10.953125 
Q 26.375 6.390625 33.015625 6.390625 
Q 39.65625 6.390625 43.53125 10.953125 
Q 47.40625 15.53125 47.40625 23.390625 
Q 47.40625 31.296875 43.53125 35.828125 
Q 39.65625 40.375 33.015625 40.375 
z
M 52.59375 71.296875 
L 52.59375 62.3125 
Q 48.875 64.0625 45.09375 64.984375 
Q 41.3125 65.921875 37.59375 65.921875 
Q 27.828125 65.921875 22.671875 59.328125 
Q 17.53125 52.734375 16.796875 39.40625 
Q 19.671875 43.65625 24.015625 45.921875 
Q 28.375 48.1875 33.59375 48.1875 
Q 44.578125 48.1875 50.953125 41.515625 
Q 57.328125 34.859375 57.328125 23.390625 
Q 57.328125 12.15625 50.6875 5.359375 
Q 44.046875 -1.421875 33.015625 -1.421875 
Q 20.359375 -1.421875 13.671875 8.265625 
Q 6.984375 17.96875 6.984375 36.375 
Q 6.984375 53.65625 15.1875 63.9375 
Q 23.390625 74.21875 37.203125 74.21875 
Q 40.921875 74.21875 44.703125 73.484375 
Q 48.484375 72.75 52.59375 71.296875 
z
" id="DejaVuSans-54"/>
       </defs>
       <use xlink:href="#DejaVuSans-54"/>
       <use x="63.623047" xlink:href="#DejaVuSans-48"/>
      </g>
     </g>
    </g>
    <g id="text_8">
     <!-- throat number -->
     <g transform="translate(185.921562 266.784375)scale(0.12 -0.12)">
      <defs>
       <path d="M 18.3125 70.21875 
L 18.3125 54.6875 
L 36.8125 54.6875 
L 36.8125 47.703125 
L 18.3125 47.703125 
L 18.3125 18.015625 
Q 18.3125 11.328125 20.140625 9.421875 
Q 21.96875 7.515625 27.59375 7.515625 
L 36.8125 7.515625 
L 36.8125 0 
L 27.59375 0 
Q 17.1875 0 13.234375 3.875 
Q 9.28125 7.765625 9.28125 18.015625 
L 9.28125 47.703125 
L 2.6875 47.703125 
L 2.6875 54.6875 
L 9.28125 54.6875 
L 9.28125 70.21875 
z
" id="DejaVuSans-116"/>
       <path d="M 54.890625 33.015625 
L 54.890625 0 
L 45.90625 0 
L 45.90625 32.71875 
Q 45.90625 40.484375 42.875 44.328125 
Q 39.84375 48.1875 33.796875 48.1875 
Q 26.515625 48.1875 22.3125 43.546875 
Q 18.109375 38.921875 18.109375 30.90625 
L 18.109375 0 
L 9.078125 0 
L 9.078125 75.984375 
L 18.109375 75.984375 
L 18.109375 46.1875 
Q 21.34375 51.125 25.703125 53.5625 
Q 30.078125 56 35.796875 56 
Q 45.21875 56 50.046875 50.171875 
Q 54.890625 44.34375 54.890625 33.015625 
z
" id="DejaVuSans-104"/>
       <path d="M 41.109375 46.296875 
Q 39.59375 47.171875 37.8125 47.578125 
Q 36.03125 48 33.890625 48 
Q 26.265625 48 22.1875 43.046875 
Q 18.109375 38.09375 18.109375 28.8125 
L 18.109375 0 
L 9.078125 0 
L 9.078125 54.6875 
L 18.109375 54.6875 
L 18.109375 46.1875 
Q 20.953125 51.171875 25.484375 53.578125 
Q 30.03125 56 36.53125 56 
Q 37.453125 56 38.578125 55.875 
Q 39.703125 55.765625 41.0625 55.515625 
z
" id="DejaVuSans-114"/>
       <path d="M 30.609375 48.390625 
Q 23.390625 48.390625 19.1875 42.75 
Q 14.984375 37.109375 14.984375 27.296875 
Q 14.984375 17.484375 19.15625 11.84375 
Q 23.34375 6.203125 30.609375 6.203125 
Q 37.796875 6.203125 41.984375 11.859375 
Q 46.1875 17.53125 46.1875 27.296875 
Q 46.1875 37.015625 41.984375 42.703125 
Q 37.796875 48.390625 30.609375 48.390625 
z
M 30.609375 56 
Q 42.328125 56 49.015625 48.375 
Q 55.71875 40.765625 55.71875 27.296875 
Q 55.71875 13.875 49.015625 6.21875 
Q 42.328125 -1.421875 30.609375 -1.421875 
Q 18.84375 -1.421875 12.171875 6.21875 
Q 5.515625 13.875 5.515625 27.296875 
Q 5.515625 40.765625 12.171875 48.375 
Q 18.84375 56 30.609375 56 
z
" id="DejaVuSans-111"/>
       <path d="M 34.28125 27.484375 
Q 23.390625 27.484375 19.1875 25 
Q 14.984375 22.515625 14.984375 16.5 
Q 14.984375 11.71875 18.140625 8.90625 
Q 21.296875 6.109375 26.703125 6.109375 
Q 34.1875 6.109375 38.703125 11.40625 
Q 43.21875 16.703125 43.21875 25.484375 
L 43.21875 27.484375 
z
M 52.203125 31.203125 
L 52.203125 0 
L 43.21875 0 
L 43.21875 8.296875 
Q 40.140625 3.328125 35.546875 0.953125 
Q 30.953125 -1.421875 24.3125 -1.421875 
Q 15.921875 -1.421875 10.953125 3.296875 
Q 6 8.015625 6 15.921875 
Q 6 25.140625 12.171875 29.828125 
Q 18.359375 34.515625 30.609375 34.515625 
L 43.21875 34.515625 
L 43.21875 35.40625 
Q 43.21875 41.609375 39.140625 45 
Q 35.0625 48.390625 27.6875 48.390625 
Q 23 48.390625 18.546875 47.265625 
Q 14.109375 46.140625 10.015625 43.890625 
L 10.015625 52.203125 
Q 14.9375 54.109375 19.578125 55.046875 
Q 24.21875 56 28.609375 56 
Q 40.484375 56 46.34375 49.84375 
Q 52.203125 43.703125 52.203125 31.203125 
z
" id="DejaVuSans-97"/>
       <path id="DejaVuSans-32"/>
       <path d="M 54.890625 33.015625 
L 54.890625 0 
L 45.90625 0 
L 45.90625 32.71875 
Q 45.90625 40.484375 42.875 44.328125 
Q 39.84375 48.1875 33.796875 48.1875 
Q 26.515625 48.1875 22.3125 43.546875 
Q 18.109375 38.921875 18.109375 30.90625 
L 18.109375 0 
L 9.078125 0 
L 9.078125 54.6875 
L 18.109375 54.6875 
L 18.109375 46.1875 
Q 21.34375 51.125 25.703125 53.5625 
Q 30.078125 56 35.796875 56 
Q 45.21875 56 50.046875 50.171875 
Q 54.890625 44.34375 54.890625 33.015625 
z
" id="DejaVuSans-110"/>
       <path d="M 8.5 21.578125 
L 8.5 54.6875 
L 17.484375 54.6875 
L 17.484375 21.921875 
Q 17.484375 14.15625 20.5 10.265625 
Q 23.53125 6.390625 29.59375 6.390625 
Q 36.859375 6.390625 41.078125 11.03125 
Q 45.3125 15.671875 45.3125 23.6875 
L 45.3125 54.6875 
L 54.296875 54.6875 
L 54.296875 0 
L 45.3125 0 
L 45.3125 8.40625 
Q 42.046875 3.421875 37.71875 1 
Q 33.40625 -1.421875 27.6875 -1.421875 
Q 18.265625 -1.421875 13.375 4.4375 
Q 8.5 10.296875 8.5 21.578125 
z
M 31.109375 56 
z
" id="DejaVuSans-117"/>
       <path d="M 52 44.1875 
Q 55.375 50.25 60.0625 53.125 
Q 64.75 56 71.09375 56 
Q 79.640625 56 84.28125 50.015625 
Q 88.921875 44.046875 88.921875 33.015625 
L 88.921875 0 
L 79.890625 0 
L 79.890625 32.71875 
Q 79.890625 40.578125 77.09375 44.375 
Q 74.3125 48.1875 68.609375 48.1875 
Q 61.625 48.1875 57.5625 43.546875 
Q 53.515625 38.921875 53.515625 30.90625 
L 53.515625 0 
L 44.484375 0 
L 44.484375 32.71875 
Q 44.484375 40.625 41.703125 44.40625 
Q 38.921875 48.1875 33.109375 48.1875 
Q 26.21875 48.1875 22.15625 43.53125 
Q 18.109375 38.875 18.109375 30.90625 
L 18.109375 0 
L 9.078125 0 
L 9.078125 54.6875 
L 18.109375 54.6875 
L 18.109375 46.1875 
Q 21.1875 51.21875 25.484375 53.609375 
Q 29.78125 56 35.6875 56 
Q 41.65625 56 45.828125 52.96875 
Q 50 49.953125 52 44.1875 
z
" id="DejaVuSans-109"/>
       <path d="M 48.6875 27.296875 
Q 48.6875 37.203125 44.609375 42.84375 
Q 40.53125 48.484375 33.40625 48.484375 
Q 26.265625 48.484375 22.1875 42.84375 
Q 18.109375 37.203125 18.109375 27.296875 
Q 18.109375 17.390625 22.1875 11.75 
Q 26.265625 6.109375 33.40625 6.109375 
Q 40.53125 6.109375 44.609375 11.75 
Q 48.6875 17.390625 48.6875 27.296875 
z
M 18.109375 46.390625 
Q 20.953125 51.265625 25.265625 53.625 
Q 29.59375 56 35.59375 56 
Q 45.5625 56 51.78125 48.09375 
Q 58.015625 40.1875 58.015625 27.296875 
Q 58.015625 14.40625 51.78125 6.484375 
Q 45.5625 -1.421875 35.59375 -1.421875 
Q 29.59375 -1.421875 25.265625 0.953125 
Q 20.953125 3.328125 18.109375 8.203125 
L 18.109375 0 
L 9.078125 0 
L 9.078125 75.984375 
L 18.109375 75.984375 
z
" id="DejaVuSans-98"/>
       <path d="M 56.203125 29.59375 
L 56.203125 25.203125 
L 14.890625 25.203125 
Q 15.484375 15.921875 20.484375 11.0625 
Q 25.484375 6.203125 34.421875 6.203125 
Q 39.59375 6.203125 44.453125 7.46875 
Q 49.3125 8.734375 54.109375 11.28125 
L 54.109375 2.78125 
Q 49.265625 0.734375 44.1875 -0.34375 
Q 39.109375 -1.421875 33.890625 -1.421875 
Q 20.796875 -1.421875 13.15625 6.1875 
Q 5.515625 13.8125 5.515625 26.8125 
Q 5.515625 40.234375 12.765625 48.109375 
Q 20.015625 56 32.328125 56 
Q 43.359375 56 49.78125 48.890625 
Q 56.203125 41.796875 56.203125 29.59375 
z
M 47.21875 32.234375 
Q 47.125 39.59375 43.09375 43.984375 
Q 39.0625 48.390625 32.421875 48.390625 
Q 24.90625 48.390625 20.390625 44.140625 
Q 15.875 39.890625 15.1875 32.171875 
z
" id="DejaVuSans-101"/>
      </defs>
      <use xlink:href="#DejaVuSans-116"/>
      <use x="39.208984" xlink:href="#DejaVuSans-104"/>
      <use x="102.587891" xlink:href="#DejaVuSans-114"/>
      <use x="141.451172" xlink:href="#DejaVuSans-111"/>
      <use x="202.632812" xlink:href="#DejaVuSans-97"/>
      <use x="263.912109" xlink:href="#DejaVuSans-116"/>
      <use x="303.121094" xlink:href="#DejaVuSans-32"/>
      <use x="334.908203" xlink:href="#DejaVuSans-110"/>
      <use x="398.287109" xlink:href="#DejaVuSans-117"/>
      <use x="461.666016" xlink:href="#DejaVuSans-109"/>
      <use x="559.078125" xlink:href="#DejaVuSans-98"/>
      <use x="622.554688" xlink:href="#DejaVuSans-101"/>
      <use x="684.078125" xlink:href="#DejaVuSans-114"/>
     </g>
    </g>
   </g>
   <g id="matplotlib.axis_2">
    <g id="ytick_1">
     <g id="line2d_15">
      <defs>
       <path d="M 0 0 
L 6 0 
" id="mb1b5aebd5c" style="stroke:#000000;stroke-width:2;"/>
      </defs>
      <g>
       <use style="fill:#ffffff;stroke:#000000;stroke-width:2;" x="45.58375" xlink:href="#mb1b5aebd5c" y="226.435228"/>
      </g>
     </g>
     <g id="line2d_16">
      <defs>
       <path d="M 0 0 
L -6 0 
" id="m48e389d491" style="stroke:#000000;stroke-width:2;"/>
      </defs>
      <g>
       <use style="fill:#ffffff;stroke:#000000;stroke-width:2;" x="413.28" xlink:href="#m48e389d491" y="226.435228"/>
      </g>
     </g>
     <g id="text_9">
      <!-- 0 -->
      <g transform="translate(34.44875 230.99429)scale(0.12 -0.12)">
       <use xlink:href="#DejaVuSans-48"/>
      </g>
     </g>
    </g>
    <g id="ytick_2">
     <g id="line2d_17">
      <g>
       <use style="fill:#ffffff;stroke:#000000;stroke-width:2;" x="45.58375" xlink:href="#mb1b5aebd5c" y="186.920192"/>
      </g>
     </g>
     <g id="line2d_18">
      <g>
       <use style="fill:#ffffff;stroke:#000000;stroke-width:2;" x="413.28" xlink:href="#m48e389d491" y="186.920192"/>
      </g>
     </g>
     <g id="text_10">
      <!-- 5 -->
      <g transform="translate(34.44875 191.479254)scale(0.12 -0.12)">
       <use xlink:href="#DejaVuSans-53"/>
      </g>
     </g>
    </g>
    <g id="ytick_3">
     <g id="line2d_19">
      <g>
       <use style="fill:#ffffff;stroke:#000000;stroke-width:2;" x="45.58375" xlink:href="#mb1b5aebd5c" y="147.405156"/>
      </g>
     </g>
     <g id="line2d_20">
      <g>
       <use style="fill:#ffffff;stroke:#000000;stroke-width:2;" x="413.28" xlink:href="#m48e389d491" y="147.405156"/>
      </g>
     </g>
     <g id="text_11">
      <!-- 10 -->
      <g transform="translate(26.81375 151.964218)scale(0.12 -0.12)">
       <use xlink:href="#DejaVuSans-49"/>
       <use x="63.623047" xlink:href="#DejaVuSans-48"/>
      </g>
     </g>
    </g>
    <g id="ytick_4">
     <g id="line2d_21">
      <g>
       <use style="fill:#ffffff;stroke:#000000;stroke-width:2;" x="45.58375" xlink:href="#mb1b5aebd5c" y="107.89012"/>
      </g>
     </g>
     <g id="line2d_22">
      <g>
       <use style="fill:#ffffff;stroke:#000000;stroke-width:2;" x="413.28" xlink:href="#m48e389d491" y="107.89012"/>
      </g>
     </g>
     <g id="text_12">
      <!-- 15 -->
      <g transform="translate(26.81375 112.449182)scale(0.12 -0.12)">
       <use xlink:href="#DejaVuSans-49"/>
       <use x="63.623047" xlink:href="#DejaVuSans-53"/>
      </g>
     </g>
    </g>
    <g id="ytick_5">
     <g id="line2d_23">
      <g>
       <use style="fill:#ffffff;stroke:#000000;stroke-width:2;" x="45.58375" xlink:href="#mb1b5aebd5c" y="68.375084"/>
      </g>
     </g>
     <g id="line2d_24">
      <g>
       <use style="fill:#ffffff;stroke:#000000;stroke-width:2;" x="413.28" xlink:href="#m48e389d491" y="68.375084"/>
      </g>
     </g>
     <g id="text_13">
      <!-- 20 -->
      <g transform="translate(26.81375 72.934146)scale(0.12 -0.12)">
       <use xlink:href="#DejaVuSans-50"/>
       <use x="63.623047" xlink:href="#DejaVuSans-48"/>
      </g>
     </g>
    </g>
    <g id="ytick_6">
     <g id="line2d_25">
      <g>
       <use style="fill:#ffffff;stroke:#000000;stroke-width:2;" x="45.58375" xlink:href="#mb1b5aebd5c" y="28.860047"/>
      </g>
     </g>
     <g id="line2d_26">
      <g>
       <use style="fill:#ffffff;stroke:#000000;stroke-width:2;" x="413.28" xlink:href="#m48e389d491" y="28.860047"/>
      </g>
     </g>
     <g id="text_14">
      <!-- 25 -->
      <g transform="translate(26.81375 33.41911)scale(0.12 -0.12)">
       <use xlink:href="#DejaVuSans-50"/>
       <use x="63.623047" xlink:href="#DejaVuSans-53"/>
      </g>
     </g>
    </g>
    <g id="text_15">
     <!-- interface area -->
     <g transform="translate(16.318125 162.920312)rotate(-90)scale(0.12 -0.12)">
      <defs>
       <path d="M 9.421875 54.6875 
L 18.40625 54.6875 
L 18.40625 0 
L 9.421875 0 
z
M 9.421875 75.984375 
L 18.40625 75.984375 
L 18.40625 64.59375 
L 9.421875 64.59375 
z
" id="DejaVuSans-105"/>
       <path d="M 37.109375 75.984375 
L 37.109375 68.5 
L 28.515625 68.5 
Q 23.6875 68.5 21.796875 66.546875 
Q 19.921875 64.59375 19.921875 59.515625 
L 19.921875 54.6875 
L 34.71875 54.6875 
L 34.71875 47.703125 
L 19.921875 47.703125 
L 19.921875 0 
L 10.890625 0 
L 10.890625 47.703125 
L 2.296875 47.703125 
L 2.296875 54.6875 
L 10.890625 54.6875 
L 10.890625 58.5 
Q 10.890625 67.625 15.140625 71.796875 
Q 19.390625 75.984375 28.609375 75.984375 
z
" id="DejaVuSans-102"/>
       <path d="M 48.78125 52.59375 
L 48.78125 44.1875 
Q 44.96875 46.296875 41.140625 47.34375 
Q 37.3125 48.390625 33.40625 48.390625 
Q 24.65625 48.390625 19.8125 42.84375 
Q 14.984375 37.3125 14.984375 27.296875 
Q 14.984375 17.28125 19.8125 11.734375 
Q 24.65625 6.203125 33.40625 6.203125 
Q 37.3125 6.203125 41.140625 7.25 
Q 44.96875 8.296875 48.78125 10.40625 
L 48.78125 2.09375 
Q 45.015625 0.34375 40.984375 -0.53125 
Q 36.96875 -1.421875 32.421875 -1.421875 
Q 20.0625 -1.421875 12.78125 6.34375 
Q 5.515625 14.109375 5.515625 27.296875 
Q 5.515625 40.671875 12.859375 48.328125 
Q 20.21875 56 33.015625 56 
Q 37.15625 56 41.109375 55.140625 
Q 45.0625 54.296875 48.78125 52.59375 
z
" id="DejaVuSans-99"/>
      </defs>
      <use xlink:href="#DejaVuSans-105"/>
      <use x="27.783203" xlink:href="#DejaVuSans-110"/>
      <use x="91.162109" xlink:href="#DejaVuSans-116"/>
      <use x="130.371094" xlink:href="#DejaVuSans-101"/>
      <use x="191.894531" xlink:href="#DejaVuSans-114"/>
      <use x="233.007812" xlink:href="#DejaVuSans-102"/>
      <use x="268.212891" xlink:href="#DejaVuSans-97"/>
      <use x="329.492188" xlink:href="#DejaVuSans-99"/>
      <use x="384.472656" xlink:href="#DejaVuSans-101"/>
      <use x="445.996094" xlink:href="#DejaVuSans-32"/>
      <use x="477.783203" xlink:href="#DejaVuSans-97"/>
      <use x="539.0625" xlink:href="#DejaVuSans-114"/>
      <use x="577.925781" xlink:href="#DejaVuSans-101"/>
      <use x="639.449219" xlink:href="#DejaVuSans-97"/>
     </g>
    </g>
   </g>
   <g id="line2d_27">
    <defs>
     <path d="M 0 -4 
L -0.898056 -1.236068 
L -3.804226 -1.236068 
L -1.453085 0.472136 
L -2.351141 3.236068 
L -0 1.527864 
L 2.351141 3.236068 
L 1.453085 0.472136 
L 3.804226 -1.236068 
L 0.898056 -1.236068 
z
" id="mf571141f77" style="stroke:#1f77b4;stroke-linejoin:bevel;"/>
    </defs>
    <g clip-path="url(#p8ff2c1d39f)">
     <use style="fill:#ffffff;stroke:#1f77b4;stroke-linejoin:bevel;" x="62.297216" xlink:href="#mf571141f77" y="155.47506"/>
     <use style="fill:#ffffff;stroke:#1f77b4;stroke-linejoin:bevel;" x="67.868371" xlink:href="#mf571141f77" y="101.345442"/>
     <use style="fill:#ffffff;stroke:#1f77b4;stroke-linejoin:bevel;" x="73.439527" xlink:href="#mf571141f77" y="166.059031"/>
     <use style="fill:#ffffff;stroke:#1f77b4;stroke-linejoin:bevel;" x="79.010682" xlink:href="#mf571141f77" y="122.741059"/>
     <use style="fill:#ffffff;stroke:#1f77b4;stroke-linejoin:bevel;" x="84.581837" xlink:href="#mf571141f77" y="191.484294"/>
     <use style="fill:#ffffff;stroke:#1f77b4;stroke-linejoin:bevel;" x="90.152992" xlink:href="#mf571141f77" y="187.22215"/>
     <use style="fill:#ffffff;stroke:#1f77b4;stroke-linejoin:bevel;" x="95.724148" xlink:href="#mf571141f77" y="158.748846"/>
     <use style="fill:#ffffff;stroke:#1f77b4;stroke-linejoin:bevel;" x="101.295303" xlink:href="#mf571141f77" y="155.476989"/>
     <use style="fill:#ffffff;stroke:#1f77b4;stroke-linejoin:bevel;" x="106.866458" xlink:href="#mf571141f77" y="155.857814"/>
     <use style="fill:#ffffff;stroke:#1f77b4;stroke-linejoin:bevel;" x="112.437614" xlink:href="#mf571141f77" y="126.397116"/>
     <use style="fill:#ffffff;stroke:#1f77b4;stroke-linejoin:bevel;" x="118.008769" xlink:href="#mf571141f77" y="125.941043"/>
     <use style="fill:#ffffff;stroke:#1f77b4;stroke-linejoin:bevel;" x="123.579924" xlink:href="#mf571141f77" y="152.965817"/>
     <use style="fill:#ffffff;stroke:#1f77b4;stroke-linejoin:bevel;" x="129.15108" xlink:href="#mf571141f77" y="132.940106"/>
     <use style="fill:#ffffff;stroke:#1f77b4;stroke-linejoin:bevel;" x="134.722235" xlink:href="#mf571141f77" y="32.688067"/>
     <use style="fill:#ffffff;stroke:#1f77b4;stroke-linejoin:bevel;" x="140.29339" xlink:href="#mf571141f77" y="50.647342"/>
     <use style="fill:#ffffff;stroke:#1f77b4;stroke-linejoin:bevel;" x="145.864545" xlink:href="#mf571141f77" y="123.88522"/>
     <use style="fill:#ffffff;stroke:#1f77b4;stroke-linejoin:bevel;" x="151.435701" xlink:href="#mf571141f77" y="137.358294"/>
     <use style="fill:#ffffff;stroke:#1f77b4;stroke-linejoin:bevel;" x="157.006856" xlink:href="#mf571141f77" y="132.561934"/>
     <use style="fill:#ffffff;stroke:#1f77b4;stroke-linejoin:bevel;" x="162.578011" xlink:href="#mf571141f77" y="136.97747"/>
     <use style="fill:#ffffff;stroke:#1f77b4;stroke-linejoin:bevel;" x="168.149167" xlink:href="#mf571141f77" y="126.394463"/>
     <use style="fill:#ffffff;stroke:#1f77b4;stroke-linejoin:bevel;" x="173.720322" xlink:href="#mf571141f77" y="145.660214"/>
     <use style="fill:#ffffff;stroke:#1f77b4;stroke-linejoin:bevel;" x="179.291477" xlink:href="#mf571141f77" y="149.695648"/>
     <use style="fill:#ffffff;stroke:#1f77b4;stroke-linejoin:bevel;" x="184.862633" xlink:href="#mf571141f77" y="197.273594"/>
     <use style="fill:#ffffff;stroke:#1f77b4;stroke-linejoin:bevel;" x="190.433788" xlink:href="#mf571141f77" y="181.664383"/>
     <use style="fill:#ffffff;stroke:#1f77b4;stroke-linejoin:bevel;" x="196.004943" xlink:href="#mf571141f77" y="165.68086"/>
     <use style="fill:#ffffff;stroke:#1f77b4;stroke-linejoin:bevel;" x="201.576098" xlink:href="#mf571141f77" y="116.348807"/>
     <use style="fill:#ffffff;stroke:#1f77b4;stroke-linejoin:bevel;" x="207.147254" xlink:href="#mf571141f77" y="159.285714"/>
     <use style="fill:#ffffff;stroke:#1f77b4;stroke-linejoin:bevel;" x="212.718409" xlink:href="#mf571141f77" y="155.475301"/>
     <use style="fill:#ffffff;stroke:#1f77b4;stroke-linejoin:bevel;" x="218.289564" xlink:href="#mf571141f77" y="184.938652"/>
     <use style="fill:#ffffff;stroke:#1f77b4;stroke-linejoin:bevel;" x="223.86072" xlink:href="#mf571141f77" y="119.092478"/>
     <use style="fill:#ffffff;stroke:#1f77b4;stroke-linejoin:bevel;" x="229.431875" xlink:href="#mf571141f77" y="133.3231"/>
     <use style="fill:#ffffff;stroke:#1f77b4;stroke-linejoin:bevel;" x="235.00303" xlink:href="#mf571141f77" y="169.105625"/>
     <use style="fill:#ffffff;stroke:#1f77b4;stroke-linejoin:bevel;" x="240.574186" xlink:href="#mf571141f77" y="158.748364"/>
     <use style="fill:#ffffff;stroke:#1f77b4;stroke-linejoin:bevel;" x="246.145341" xlink:href="#mf571141f77" y="184.937687"/>
     <use style="fill:#ffffff;stroke:#1f77b4;stroke-linejoin:bevel;" x="251.716496" xlink:href="#mf571141f77" y="63.278454"/>
     <use style="fill:#ffffff;stroke:#1f77b4;stroke-linejoin:bevel;" x="257.287652" xlink:href="#mf571141f77" y="100.206104"/>
     <use style="fill:#ffffff;stroke:#1f77b4;stroke-linejoin:bevel;" x="262.858807" xlink:href="#mf571141f77" y="178.774074"/>
     <use style="fill:#ffffff;stroke:#1f77b4;stroke-linejoin:bevel;" x="268.429962" xlink:href="#mf571141f77" y="158.750775"/>
     <use style="fill:#ffffff;stroke:#1f77b4;stroke-linejoin:bevel;" x="274.001117" xlink:href="#mf571141f77" y="162.403215"/>
     <use style="fill:#ffffff;stroke:#1f77b4;stroke-linejoin:bevel;" x="279.572273" xlink:href="#mf571141f77" y="159.130394"/>
     <use style="fill:#ffffff;stroke:#1f77b4;stroke-linejoin:bevel;" x="285.143428" xlink:href="#mf571141f77" y="191.86536"/>
     <use style="fill:#ffffff;stroke:#1f77b4;stroke-linejoin:bevel;" x="290.714583" xlink:href="#mf571141f77" y="123.50126"/>
     <use style="fill:#ffffff;stroke:#1f77b4;stroke-linejoin:bevel;" x="296.285739" xlink:href="#mf571141f77" y="186.081848"/>
     <use style="fill:#ffffff;stroke:#1f77b4;stroke-linejoin:bevel;" x="301.856894" xlink:href="#mf571141f77" y="146.798828"/>
     <use style="fill:#ffffff;stroke:#1f77b4;stroke-linejoin:bevel;" x="307.428049" xlink:href="#mf571141f77" y="17.534205"/>
     <use style="fill:#ffffff;stroke:#1f77b4;stroke-linejoin:bevel;" x="312.999205" xlink:href="#mf571141f77" y="177.554665"/>
     <use style="fill:#ffffff;stroke:#1f77b4;stroke-linejoin:bevel;" x="318.57036" xlink:href="#mf571141f77" y="167.810485"/>
     <use style="fill:#ffffff;stroke:#1f77b4;stroke-linejoin:bevel;" x="324.141515" xlink:href="#mf571141f77" y="106.373576"/>
     <use style="fill:#ffffff;stroke:#1f77b4;stroke-linejoin:bevel;" x="329.71267" xlink:href="#mf571141f77" y="109.264849"/>
     <use style="fill:#ffffff;stroke:#1f77b4;stroke-linejoin:bevel;" x="335.283826" xlink:href="#mf571141f77" y="123.121159"/>
     <use style="fill:#ffffff;stroke:#1f77b4;stroke-linejoin:bevel;" x="340.854981" xlink:href="#mf571141f77" y="191.485259"/>
     <use style="fill:#ffffff;stroke:#1f77b4;stroke-linejoin:bevel;" x="346.426136" xlink:href="#mf571141f77" y="100.58524"/>
     <use style="fill:#ffffff;stroke:#1f77b4;stroke-linejoin:bevel;" x="351.997292" xlink:href="#mf571141f77" y="142.760981"/>
     <use style="fill:#ffffff;stroke:#1f77b4;stroke-linejoin:bevel;" x="357.568447" xlink:href="#mf571141f77" y="165.67893"/>
     <use style="fill:#ffffff;stroke:#1f77b4;stroke-linejoin:bevel;" x="363.139602" xlink:href="#mf571141f77" y="181.284765"/>
     <use style="fill:#ffffff;stroke:#1f77b4;stroke-linejoin:bevel;" x="368.710758" xlink:href="#mf571141f77" y="83.762408"/>
     <use style="fill:#ffffff;stroke:#1f77b4;stroke-linejoin:bevel;" x="374.281913" xlink:href="#mf571141f77" y="198.032349"/>
     <use style="fill:#ffffff;stroke:#1f77b4;stroke-linejoin:bevel;" x="379.853068" xlink:href="#mf571141f77" y="109.263885"/>
     <use style="fill:#ffffff;stroke:#1f77b4;stroke-linejoin:bevel;" x="385.424223" xlink:href="#mf571141f77" y="110.029874"/>
     <use style="fill:#ffffff;stroke:#1f77b4;stroke-linejoin:bevel;" x="390.995379" xlink:href="#mf571141f77" y="143.070175"/>
     <use style="fill:#ffffff;stroke:#1f77b4;stroke-linejoin:bevel;" x="396.566534" xlink:href="#mf571141f77" y="224.218295"/>
    </g>
   </g>
   <g id="patch_3">
    <path d="M 45.58375 234.5525 
L 45.58375 7.2 
" style="fill:none;stroke:#000000;stroke-linecap:square;stroke-linejoin:miter;stroke-width:2;"/>
   </g>
   <g id="patch_4">
    <path d="M 413.28 234.5525 
L 413.28 7.2 
" style="fill:none;stroke:#000000;stroke-linecap:square;stroke-linejoin:miter;stroke-width:2;"/>
   </g>
   <g id="patch_5">
    <path d="M 45.58375 234.5525 
L 413.28 234.5525 
" style="fill:none;stroke:#000000;stroke-linecap:square;stroke-linejoin:miter;stroke-width:2;"/>
   </g>
   <g id="patch_6">
    <path d="M 45.58375 7.2 
L 413.28 7.2 
" style="fill:none;stroke:#000000;stroke-linecap:square;stroke-linejoin:miter;stroke-width:2;"/>
   </g>
  </g>
 </g>
 <defs>
  <clipPath id="p8ff2c1d39f">
   <rect height="227.3525" width="367.69625" x="45.58375" y="7.2"/>
  </clipPath>
 </defs>
</svg>
