<?xml version="1.0" encoding="utf-8" standalone="no"?>
<!DOCTYPE svg PUBLIC "-//W3C//DTD SVG 1.1//EN"
  "http://www.w3.org/Graphics/SVG/1.1/DTD/svg11.dtd">
<svg xmlns:xlink="http://www.w3.org/1999/xlink" width="348.48pt" height="276.48pt" viewBox="0 0 348.48 276.48" xmlns="http://www.w3.org/2000/svg" version="1.1">
 <metadata>
  <rdf:RDF xmlns:dc="http://purl.org/dc/elements/1.1/" xmlns:cc="http://creativecommons.org/ns#" xmlns:rdf="http://www.w3.org/1999/02/22-rdf-syntax-ns#">
   <cc:Work>
    <dc:type rdf:resource="http://purl.org/dc/dcmitype/StillImage"/>
    <dc:date>2022-08-22T18:53:19.281406</dc:date>
    <dc:format>image/svg+xml</dc:format>
    <dc:creator>
     <cc:Agent>
      <dc:title>Matplotlib v3.5.3, https://matplotlib.org/</dc:title>
     </cc:Agent>
    </dc:creator>
   </cc:Work>
  </rdf:RDF>
 </metadata>
 <defs>
  <style type="text/css">*{stroke-linejoin: round; stroke-linecap: butt}</style>
 </defs>
 <g id="figure_1">
  <g id="patch_1">
   <path d="M 0 276.48 
L 348.48 276.48 
L 348.48 0 
L 0 0 
z
" style="fill: #ffffff"/>
  </g>
  <g id="axes_1">
   <g id="patch_2">
    <path d="M 49.3975 234.5525 
L 341.28 234.5525 
L 341.28 11.759062 
L 49.3975 11.759062 
z
" style="fill: #ffffff"/>
   </g>
   <g id="matplotlib.axis_1">
    <g id="xtick_1">
     <g id="line2d_1">
      <defs>
       <path id="m03be66436e" d="M 0 0 
L 0 -6 
" style="stroke: #000000; stroke-width: 2"/>
      </defs>
      <g>
       <use xlink:href="#m03be66436e" x="62.664886" y="234.5525" style="fill: #ffffff; stroke: #000000; stroke-width: 2"/>
      </g>
     </g>
     <g id="line2d_2">
      <defs>
       <path id="maa63d5a205" d="M 0 0 
L 0 6 
" style="stroke: #000000; stroke-width: 2"/>
      </defs>
      <g>
       <use xlink:href="#maa63d5a205" x="62.664886" y="11.759062" style="fill: #ffffff; stroke: #000000; stroke-width: 2"/>
      </g>
     </g>
     <g id="text_1">
      <!-- 0 -->
      <g transform="translate(58.847386 247.170625)scale(0.12 -0.12)">
       <defs>
        <path id="DejaVuSans-30" d="M 2034 4250 
Q 1547 4250 1301 3770 
Q 1056 3291 1056 2328 
Q 1056 1369 1301 889 
Q 1547 409 2034 409 
Q 2525 409 2770 889 
Q 3016 1369 3016 2328 
Q 3016 3291 2770 3770 
Q 2525 4250 2034 4250 
z
M 2034 4750 
Q 2819 4750 3233 4129 
Q 3647 3509 3647 2328 
Q 3647 1150 3233 529 
Q 2819 -91 2034 -91 
Q 1250 -91 836 529 
Q 422 1150 422 2328 
Q 422 3509 836 4129 
Q 1250 4750 2034 4750 
z
" transform="scale(0.015625)"/>
       </defs>
       <use xlink:href="#DejaVuSans-30"/>
      </g>
     </g>
    </g>
    <g id="xtick_2">
     <g id="line2d_3">
      <g>
       <use xlink:href="#m03be66436e" x="118.882625" y="234.5525" style="fill: #ffffff; stroke: #000000; stroke-width: 2"/>
      </g>
     </g>
     <g id="line2d_4">
      <g>
       <use xlink:href="#maa63d5a205" x="118.882625" y="11.759062" style="fill: #ffffff; stroke: #000000; stroke-width: 2"/>
      </g>
     </g>
     <g id="text_2">
      <!-- 500 -->
      <g transform="translate(107.430125 247.170625)scale(0.12 -0.12)">
       <defs>
        <path id="DejaVuSans-35" d="M 691 4666 
L 3169 4666 
L 3169 4134 
L 1269 4134 
L 1269 2991 
Q 1406 3038 1543 3061 
Q 1681 3084 1819 3084 
Q 2600 3084 3056 2656 
Q 3513 2228 3513 1497 
Q 3513 744 3044 326 
Q 2575 -91 1722 -91 
Q 1428 -91 1123 -41 
Q 819 9 494 109 
L 494 744 
Q 775 591 1075 516 
Q 1375 441 1709 441 
Q 2250 441 2565 725 
Q 2881 1009 2881 1497 
Q 2881 1984 2565 2268 
Q 2250 2553 1709 2553 
Q 1456 2553 1204 2497 
Q 953 2441 691 2322 
L 691 4666 
z
" transform="scale(0.015625)"/>
       </defs>
       <use xlink:href="#DejaVuSans-35"/>
       <use xlink:href="#DejaVuSans-30" x="63.623047"/>
       <use xlink:href="#DejaVuSans-30" x="127.246094"/>
      </g>
     </g>
    </g>
    <g id="xtick_3">
     <g id="line2d_5">
      <g>
       <use xlink:href="#m03be66436e" x="175.100364" y="234.5525" style="fill: #ffffff; stroke: #000000; stroke-width: 2"/>
      </g>
     </g>
     <g id="line2d_6">
      <g>
       <use xlink:href="#maa63d5a205" x="175.100364" y="11.759062" style="fill: #ffffff; stroke: #000000; stroke-width: 2"/>
      </g>
     </g>
     <g id="text_3">
      <!-- 1000 -->
      <g transform="translate(159.830364 247.170625)scale(0.12 -0.12)">
       <defs>
        <path id="DejaVuSans-31" d="M 794 531 
L 1825 531 
L 1825 4091 
L 703 3866 
L 703 4441 
L 1819 4666 
L 2450 4666 
L 2450 531 
L 3481 531 
L 3481 0 
L 794 0 
L 794 531 
z
" transform="scale(0.015625)"/>
       </defs>
       <use xlink:href="#DejaVuSans-31"/>
       <use xlink:href="#DejaVuSans-30" x="63.623047"/>
       <use xlink:href="#DejaVuSans-30" x="127.246094"/>
       <use xlink:href="#DejaVuSans-30" x="190.869141"/>
      </g>
     </g>
    </g>
    <g id="xtick_4">
     <g id="line2d_7">
      <g>
       <use xlink:href="#m03be66436e" x="231.318103" y="234.5525" style="fill: #ffffff; stroke: #000000; stroke-width: 2"/>
      </g>
     </g>
     <g id="line2d_8">
      <g>
       <use xlink:href="#maa63d5a205" x="231.318103" y="11.759062" style="fill: #ffffff; stroke: #000000; stroke-width: 2"/>
      </g>
     </g>
     <g id="text_4">
      <!-- 1500 -->
      <g transform="translate(216.048103 247.170625)scale(0.12 -0.12)">
       <use xlink:href="#DejaVuSans-31"/>
       <use xlink:href="#DejaVuSans-35" x="63.623047"/>
       <use xlink:href="#DejaVuSans-30" x="127.246094"/>
       <use xlink:href="#DejaVuSans-30" x="190.869141"/>
      </g>
     </g>
    </g>
    <g id="xtick_5">
     <g id="line2d_9">
      <g>
       <use xlink:href="#m03be66436e" x="287.535842" y="234.5525" style="fill: #ffffff; stroke: #000000; stroke-width: 2"/>
      </g>
     </g>
     <g id="line2d_10">
      <g>
       <use xlink:href="#maa63d5a205" x="287.535842" y="11.759062" style="fill: #ffffff; stroke: #000000; stroke-width: 2"/>
      </g>
     </g>
     <g id="text_5">
      <!-- 2000 -->
      <g transform="translate(272.265842 247.170625)scale(0.12 -0.12)">
       <defs>
        <path id="DejaVuSans-32" d="M 1228 531 
L 3431 531 
L 3431 0 
L 469 0 
L 469 531 
Q 828 903 1448 1529 
Q 2069 2156 2228 2338 
Q 2531 2678 2651 2914 
Q 2772 3150 2772 3378 
Q 2772 3750 2511 3984 
Q 2250 4219 1831 4219 
Q 1534 4219 1204 4116 
Q 875 4013 500 3803 
L 500 4441 
Q 881 4594 1212 4672 
Q 1544 4750 1819 4750 
Q 2544 4750 2975 4387 
Q 3406 4025 3406 3419 
Q 3406 3131 3298 2873 
Q 3191 2616 2906 2266 
Q 2828 2175 2409 1742 
Q 1991 1309 1228 531 
z
" transform="scale(0.015625)"/>
       </defs>
       <use xlink:href="#DejaVuSans-32"/>
       <use xlink:href="#DejaVuSans-30" x="63.623047"/>
       <use xlink:href="#DejaVuSans-30" x="127.246094"/>
       <use xlink:href="#DejaVuSans-30" x="190.869141"/>
      </g>
     </g>
    </g>
    <g id="text_6">
     <!-- Position of slice along given axis -->
     <g transform="translate(98.045 266.784375)scale(0.12 -0.12)">
      <defs>
       <path id="DejaVuSans-50" d="M 1259 4147 
L 1259 2394 
L 2053 2394 
Q 2494 2394 2734 2622 
Q 2975 2850 2975 3272 
Q 2975 3691 2734 3919 
Q 2494 4147 2053 4147 
L 1259 4147 
z
M 628 4666 
L 2053 4666 
Q 2838 4666 3239 4311 
Q 3641 3956 3641 3272 
Q 3641 2581 3239 2228 
Q 2838 1875 2053 1875 
L 1259 1875 
L 1259 0 
L 628 0 
L 628 4666 
z
" transform="scale(0.015625)"/>
       <path id="DejaVuSans-6f" d="M 1959 3097 
Q 1497 3097 1228 2736 
Q 959 2375 959 1747 
Q 959 1119 1226 758 
Q 1494 397 1959 397 
Q 2419 397 2687 759 
Q 2956 1122 2956 1747 
Q 2956 2369 2687 2733 
Q 2419 3097 1959 3097 
z
M 1959 3584 
Q 2709 3584 3137 3096 
Q 3566 2609 3566 1747 
Q 3566 888 3137 398 
Q 2709 -91 1959 -91 
Q 1206 -91 779 398 
Q 353 888 353 1747 
Q 353 2609 779 3096 
Q 1206 3584 1959 3584 
z
" transform="scale(0.015625)"/>
       <path id="DejaVuSans-73" d="M 2834 3397 
L 2834 2853 
Q 2591 2978 2328 3040 
Q 2066 3103 1784 3103 
Q 1356 3103 1142 2972 
Q 928 2841 928 2578 
Q 928 2378 1081 2264 
Q 1234 2150 1697 2047 
L 1894 2003 
Q 2506 1872 2764 1633 
Q 3022 1394 3022 966 
Q 3022 478 2636 193 
Q 2250 -91 1575 -91 
Q 1294 -91 989 -36 
Q 684 19 347 128 
L 347 722 
Q 666 556 975 473 
Q 1284 391 1588 391 
Q 1994 391 2212 530 
Q 2431 669 2431 922 
Q 2431 1156 2273 1281 
Q 2116 1406 1581 1522 
L 1381 1569 
Q 847 1681 609 1914 
Q 372 2147 372 2553 
Q 372 3047 722 3315 
Q 1072 3584 1716 3584 
Q 2034 3584 2315 3537 
Q 2597 3491 2834 3397 
z
" transform="scale(0.015625)"/>
       <path id="DejaVuSans-69" d="M 603 3500 
L 1178 3500 
L 1178 0 
L 603 0 
L 603 3500 
z
M 603 4863 
L 1178 4863 
L 1178 4134 
L 603 4134 
L 603 4863 
z
" transform="scale(0.015625)"/>
       <path id="DejaVuSans-74" d="M 1172 4494 
L 1172 3500 
L 2356 3500 
L 2356 3053 
L 1172 3053 
L 1172 1153 
Q 1172 725 1289 603 
Q 1406 481 1766 481 
L 2356 481 
L 2356 0 
L 1766 0 
Q 1100 0 847 248 
Q 594 497 594 1153 
L 594 3053 
L 172 3053 
L 172 3500 
L 594 3500 
L 594 4494 
L 1172 4494 
z
" transform="scale(0.015625)"/>
       <path id="DejaVuSans-6e" d="M 3513 2113 
L 3513 0 
L 2938 0 
L 2938 2094 
Q 2938 2591 2744 2837 
Q 2550 3084 2163 3084 
Q 1697 3084 1428 2787 
Q 1159 2491 1159 1978 
L 1159 0 
L 581 0 
L 581 3500 
L 1159 3500 
L 1159 2956 
Q 1366 3272 1645 3428 
Q 1925 3584 2291 3584 
Q 2894 3584 3203 3211 
Q 3513 2838 3513 2113 
z
" transform="scale(0.015625)"/>
       <path id="DejaVuSans-20" transform="scale(0.015625)"/>
       <path id="DejaVuSans-66" d="M 2375 4863 
L 2375 4384 
L 1825 4384 
Q 1516 4384 1395 4259 
Q 1275 4134 1275 3809 
L 1275 3500 
L 2222 3500 
L 2222 3053 
L 1275 3053 
L 1275 0 
L 697 0 
L 697 3053 
L 147 3053 
L 147 3500 
L 697 3500 
L 697 3744 
Q 697 4328 969 4595 
Q 1241 4863 1831 4863 
L 2375 4863 
z
" transform="scale(0.015625)"/>
       <path id="DejaVuSans-6c" d="M 603 4863 
L 1178 4863 
L 1178 0 
L 603 0 
L 603 4863 
z
" transform="scale(0.015625)"/>
       <path id="DejaVuSans-63" d="M 3122 3366 
L 3122 2828 
Q 2878 2963 2633 3030 
Q 2388 3097 2138 3097 
Q 1578 3097 1268 2742 
Q 959 2388 959 1747 
Q 959 1106 1268 751 
Q 1578 397 2138 397 
Q 2388 397 2633 464 
Q 2878 531 3122 666 
L 3122 134 
Q 2881 22 2623 -34 
Q 2366 -91 2075 -91 
Q 1284 -91 818 406 
Q 353 903 353 1747 
Q 353 2603 823 3093 
Q 1294 3584 2113 3584 
Q 2378 3584 2631 3529 
Q 2884 3475 3122 3366 
z
" transform="scale(0.015625)"/>
       <path id="DejaVuSans-65" d="M 3597 1894 
L 3597 1613 
L 953 1613 
Q 991 1019 1311 708 
Q 1631 397 2203 397 
Q 2534 397 2845 478 
Q 3156 559 3463 722 
L 3463 178 
Q 3153 47 2828 -22 
Q 2503 -91 2169 -91 
Q 1331 -91 842 396 
Q 353 884 353 1716 
Q 353 2575 817 3079 
Q 1281 3584 2069 3584 
Q 2775 3584 3186 3129 
Q 3597 2675 3597 1894 
z
M 3022 2063 
Q 3016 2534 2758 2815 
Q 2500 3097 2075 3097 
Q 1594 3097 1305 2825 
Q 1016 2553 972 2059 
L 3022 2063 
z
" transform="scale(0.015625)"/>
       <path id="DejaVuSans-61" d="M 2194 1759 
Q 1497 1759 1228 1600 
Q 959 1441 959 1056 
Q 959 750 1161 570 
Q 1363 391 1709 391 
Q 2188 391 2477 730 
Q 2766 1069 2766 1631 
L 2766 1759 
L 2194 1759 
z
M 3341 1997 
L 3341 0 
L 2766 0 
L 2766 531 
Q 2569 213 2275 61 
Q 1981 -91 1556 -91 
Q 1019 -91 701 211 
Q 384 513 384 1019 
Q 384 1609 779 1909 
Q 1175 2209 1959 2209 
L 2766 2209 
L 2766 2266 
Q 2766 2663 2505 2880 
Q 2244 3097 1772 3097 
Q 1472 3097 1187 3025 
Q 903 2953 641 2809 
L 641 3341 
Q 956 3463 1253 3523 
Q 1550 3584 1831 3584 
Q 2591 3584 2966 3190 
Q 3341 2797 3341 1997 
z
" transform="scale(0.015625)"/>
       <path id="DejaVuSans-67" d="M 2906 1791 
Q 2906 2416 2648 2759 
Q 2391 3103 1925 3103 
Q 1463 3103 1205 2759 
Q 947 2416 947 1791 
Q 947 1169 1205 825 
Q 1463 481 1925 481 
Q 2391 481 2648 825 
Q 2906 1169 2906 1791 
z
M 3481 434 
Q 3481 -459 3084 -895 
Q 2688 -1331 1869 -1331 
Q 1566 -1331 1297 -1286 
Q 1028 -1241 775 -1147 
L 775 -588 
Q 1028 -725 1275 -790 
Q 1522 -856 1778 -856 
Q 2344 -856 2625 -561 
Q 2906 -266 2906 331 
L 2906 616 
Q 2728 306 2450 153 
Q 2172 0 1784 0 
Q 1141 0 747 490 
Q 353 981 353 1791 
Q 353 2603 747 3093 
Q 1141 3584 1784 3584 
Q 2172 3584 2450 3431 
Q 2728 3278 2906 2969 
L 2906 3500 
L 3481 3500 
L 3481 434 
z
" transform="scale(0.015625)"/>
       <path id="DejaVuSans-76" d="M 191 3500 
L 800 3500 
L 1894 563 
L 2988 3500 
L 3597 3500 
L 2284 0 
L 1503 0 
L 191 3500 
z
" transform="scale(0.015625)"/>
       <path id="DejaVuSans-78" d="M 3513 3500 
L 2247 1797 
L 3578 0 
L 2900 0 
L 1881 1375 
L 863 0 
L 184 0 
L 1544 1831 
L 300 3500 
L 978 3500 
L 1906 2253 
L 2834 3500 
L 3513 3500 
z
" transform="scale(0.015625)"/>
      </defs>
      <use xlink:href="#DejaVuSans-50"/>
      <use xlink:href="#DejaVuSans-6f" x="56.677734"/>
      <use xlink:href="#DejaVuSans-73" x="117.859375"/>
      <use xlink:href="#DejaVuSans-69" x="169.958984"/>
      <use xlink:href="#DejaVuSans-74" x="197.742188"/>
      <use xlink:href="#DejaVuSans-69" x="236.951172"/>
      <use xlink:href="#DejaVuSans-6f" x="264.734375"/>
      <use xlink:href="#DejaVuSans-6e" x="325.916016"/>
      <use xlink:href="#DejaVuSans-20" x="389.294922"/>
      <use xlink:href="#DejaVuSans-6f" x="421.082031"/>
      <use xlink:href="#DejaVuSans-66" x="482.263672"/>
      <use xlink:href="#DejaVuSans-20" x="517.46875"/>
      <use xlink:href="#DejaVuSans-73" x="549.255859"/>
      <use xlink:href="#DejaVuSans-6c" x="601.355469"/>
      <use xlink:href="#DejaVuSans-69" x="629.138672"/>
      <use xlink:href="#DejaVuSans-63" x="656.921875"/>
      <use xlink:href="#DejaVuSans-65" x="711.902344"/>
      <use xlink:href="#DejaVuSans-20" x="773.425781"/>
      <use xlink:href="#DejaVuSans-61" x="805.212891"/>
      <use xlink:href="#DejaVuSans-6c" x="866.492188"/>
      <use xlink:href="#DejaVuSans-6f" x="894.275391"/>
      <use xlink:href="#DejaVuSans-6e" x="955.457031"/>
      <use xlink:href="#DejaVuSans-67" x="1018.835938"/>
      <use xlink:href="#DejaVuSans-20" x="1082.3125"/>
      <use xlink:href="#DejaVuSans-67" x="1114.099609"/>
      <use xlink:href="#DejaVuSans-69" x="1177.576172"/>
      <use xlink:href="#DejaVuSans-76" x="1205.359375"/>
      <use xlink:href="#DejaVuSans-65" x="1264.539062"/>
      <use xlink:href="#DejaVuSans-6e" x="1326.0625"/>
      <use xlink:href="#DejaVuSans-20" x="1389.441406"/>
      <use xlink:href="#DejaVuSans-61" x="1421.228516"/>
      <use xlink:href="#DejaVuSans-78" x="1482.507812"/>
      <use xlink:href="#DejaVuSans-69" x="1541.6875"/>
      <use xlink:href="#DejaVuSans-73" x="1569.470703"/>
     </g>
    </g>
   </g>
   <g id="matplotlib.axis_2">
    <g id="ytick_1">
     <g id="line2d_11">
      <defs>
       <path id="mbb12b6f06a" d="M 0 0 
L 6 0 
" style="stroke: #000000; stroke-width: 2"/>
      </defs>
      <g>
       <use xlink:href="#mbb12b6f06a" x="49.3975" y="234.5525" style="fill: #ffffff; stroke: #000000; stroke-width: 2"/>
      </g>
     </g>
     <g id="line2d_12">
      <defs>
       <path id="ma8971e0873" d="M 0 0 
L -6 0 
" style="stroke: #000000; stroke-width: 2"/>
      </defs>
      <g>
       <use xlink:href="#ma8971e0873" x="341.28" y="234.5525" style="fill: #ffffff; stroke: #000000; stroke-width: 2"/>
      </g>
     </g>
     <g id="text_7">
      <!-- 0.0 -->
      <g transform="translate(26.81375 239.111562)scale(0.12 -0.12)">
       <defs>
        <path id="DejaVuSans-2e" d="M 684 794 
L 1344 794 
L 1344 0 
L 684 0 
L 684 794 
z
" transform="scale(0.015625)"/>
       </defs>
       <use xlink:href="#DejaVuSans-30"/>
       <use xlink:href="#DejaVuSans-2e" x="63.623047"/>
       <use xlink:href="#DejaVuSans-30" x="95.410156"/>
      </g>
     </g>
    </g>
    <g id="ytick_2">
     <g id="line2d_13">
      <g>
       <use xlink:href="#mbb12b6f06a" x="49.3975" y="189.993812" style="fill: #ffffff; stroke: #000000; stroke-width: 2"/>
      </g>
     </g>
     <g id="line2d_14">
      <g>
       <use xlink:href="#ma8971e0873" x="341.28" y="189.993812" style="fill: #ffffff; stroke: #000000; stroke-width: 2"/>
      </g>
     </g>
     <g id="text_8">
      <!-- 0.2 -->
      <g transform="translate(26.81375 194.552875)scale(0.12 -0.12)">
       <use xlink:href="#DejaVuSans-30"/>
       <use xlink:href="#DejaVuSans-2e" x="63.623047"/>
       <use xlink:href="#DejaVuSans-32" x="95.410156"/>
      </g>
     </g>
    </g>
    <g id="ytick_3">
     <g id="line2d_15">
      <g>
       <use xlink:href="#mbb12b6f06a" x="49.3975" y="145.435125" style="fill: #ffffff; stroke: #000000; stroke-width: 2"/>
      </g>
     </g>
     <g id="line2d_16">
      <g>
       <use xlink:href="#ma8971e0873" x="341.28" y="145.435125" style="fill: #ffffff; stroke: #000000; stroke-width: 2"/>
      </g>
     </g>
     <g id="text_9">
      <!-- 0.4 -->
      <g transform="translate(26.81375 149.994187)scale(0.12 -0.12)">
       <defs>
        <path id="DejaVuSans-34" d="M 2419 4116 
L 825 1625 
L 2419 1625 
L 2419 4116 
z
M 2253 4666 
L 3047 4666 
L 3047 1625 
L 3713 1625 
L 3713 1100 
L 3047 1100 
L 3047 0 
L 2419 0 
L 2419 1100 
L 313 1100 
L 313 1709 
L 2253 4666 
z
" transform="scale(0.015625)"/>
       </defs>
       <use xlink:href="#DejaVuSans-30"/>
       <use xlink:href="#DejaVuSans-2e" x="63.623047"/>
       <use xlink:href="#DejaVuSans-34" x="95.410156"/>
      </g>
     </g>
    </g>
    <g id="ytick_4">
     <g id="line2d_17">
      <g>
       <use xlink:href="#mbb12b6f06a" x="49.3975" y="100.876437" style="fill: #ffffff; stroke: #000000; stroke-width: 2"/>
      </g>
     </g>
     <g id="line2d_18">
      <g>
       <use xlink:href="#ma8971e0873" x="341.28" y="100.876437" style="fill: #ffffff; stroke: #000000; stroke-width: 2"/>
      </g>
     </g>
     <g id="text_10">
      <!-- 0.6 -->
      <g transform="translate(26.81375 105.4355)scale(0.12 -0.12)">
       <defs>
        <path id="DejaVuSans-36" d="M 2113 2584 
Q 1688 2584 1439 2293 
Q 1191 2003 1191 1497 
Q 1191 994 1439 701 
Q 1688 409 2113 409 
Q 2538 409 2786 701 
Q 3034 994 3034 1497 
Q 3034 2003 2786 2293 
Q 2538 2584 2113 2584 
z
M 3366 4563 
L 3366 3988 
Q 3128 4100 2886 4159 
Q 2644 4219 2406 4219 
Q 1781 4219 1451 3797 
Q 1122 3375 1075 2522 
Q 1259 2794 1537 2939 
Q 1816 3084 2150 3084 
Q 2853 3084 3261 2657 
Q 3669 2231 3669 1497 
Q 3669 778 3244 343 
Q 2819 -91 2113 -91 
Q 1303 -91 875 529 
Q 447 1150 447 2328 
Q 447 3434 972 4092 
Q 1497 4750 2381 4750 
Q 2619 4750 2861 4703 
Q 3103 4656 3366 4563 
z
" transform="scale(0.015625)"/>
       </defs>
       <use xlink:href="#DejaVuSans-30"/>
       <use xlink:href="#DejaVuSans-2e" x="63.623047"/>
       <use xlink:href="#DejaVuSans-36" x="95.410156"/>
      </g>
     </g>
    </g>
    <g id="ytick_5">
     <g id="line2d_19">
      <g>
       <use xlink:href="#mbb12b6f06a" x="49.3975" y="56.31775" style="fill: #ffffff; stroke: #000000; stroke-width: 2"/>
      </g>
     </g>
     <g id="line2d_20">
      <g>
       <use xlink:href="#ma8971e0873" x="341.28" y="56.31775" style="fill: #ffffff; stroke: #000000; stroke-width: 2"/>
      </g>
     </g>
     <g id="text_11">
      <!-- 0.8 -->
      <g transform="translate(26.81375 60.876812)scale(0.12 -0.12)">
       <defs>
        <path id="DejaVuSans-38" d="M 2034 2216 
Q 1584 2216 1326 1975 
Q 1069 1734 1069 1313 
Q 1069 891 1326 650 
Q 1584 409 2034 409 
Q 2484 409 2743 651 
Q 3003 894 3003 1313 
Q 3003 1734 2745 1975 
Q 2488 2216 2034 2216 
z
M 1403 2484 
Q 997 2584 770 2862 
Q 544 3141 544 3541 
Q 544 4100 942 4425 
Q 1341 4750 2034 4750 
Q 2731 4750 3128 4425 
Q 3525 4100 3525 3541 
Q 3525 3141 3298 2862 
Q 3072 2584 2669 2484 
Q 3125 2378 3379 2068 
Q 3634 1759 3634 1313 
Q 3634 634 3220 271 
Q 2806 -91 2034 -91 
Q 1263 -91 848 271 
Q 434 634 434 1313 
Q 434 1759 690 2068 
Q 947 2378 1403 2484 
z
M 1172 3481 
Q 1172 3119 1398 2916 
Q 1625 2713 2034 2713 
Q 2441 2713 2670 2916 
Q 2900 3119 2900 3481 
Q 2900 3844 2670 4047 
Q 2441 4250 2034 4250 
Q 1625 4250 1398 4047 
Q 1172 3844 1172 3481 
z
" transform="scale(0.015625)"/>
       </defs>
       <use xlink:href="#DejaVuSans-30"/>
       <use xlink:href="#DejaVuSans-2e" x="63.623047"/>
       <use xlink:href="#DejaVuSans-38" x="95.410156"/>
      </g>
     </g>
    </g>
    <g id="ytick_6">
     <g id="line2d_21">
      <g>
       <use xlink:href="#mbb12b6f06a" x="49.3975" y="11.759062" style="fill: #ffffff; stroke: #000000; stroke-width: 2"/>
      </g>
     </g>
     <g id="line2d_22">
      <g>
       <use xlink:href="#ma8971e0873" x="341.28" y="11.759062" style="fill: #ffffff; stroke: #000000; stroke-width: 2"/>
      </g>
     </g>
     <g id="text_12">
      <!-- 1.0 -->
      <g transform="translate(26.81375 16.318125)scale(0.12 -0.12)">
       <use xlink:href="#DejaVuSans-31"/>
       <use xlink:href="#DejaVuSans-2e" x="63.623047"/>
       <use xlink:href="#DejaVuSans-30" x="95.410156"/>
      </g>
     </g>
    </g>
    <g id="text_13">
     <!-- Porosity of slice -->
     <g transform="translate(16.318125 169.973594)rotate(-90)scale(0.12 -0.12)">
      <defs>
       <path id="DejaVuSans-72" d="M 2631 2963 
Q 2534 3019 2420 3045 
Q 2306 3072 2169 3072 
Q 1681 3072 1420 2755 
Q 1159 2438 1159 1844 
L 1159 0 
L 581 0 
L 581 3500 
L 1159 3500 
L 1159 2956 
Q 1341 3275 1631 3429 
Q 1922 3584 2338 3584 
Q 2397 3584 2469 3576 
Q 2541 3569 2628 3553 
L 2631 2963 
z
" transform="scale(0.015625)"/>
       <path id="DejaVuSans-79" d="M 2059 -325 
Q 1816 -950 1584 -1140 
Q 1353 -1331 966 -1331 
L 506 -1331 
L 506 -850 
L 844 -850 
Q 1081 -850 1212 -737 
Q 1344 -625 1503 -206 
L 1606 56 
L 191 3500 
L 800 3500 
L 1894 763 
L 2988 3500 
L 3597 3500 
L 2059 -325 
z
" transform="scale(0.015625)"/>
      </defs>
      <use xlink:href="#DejaVuSans-50"/>
      <use xlink:href="#DejaVuSans-6f" x="56.677734"/>
      <use xlink:href="#DejaVuSans-72" x="117.859375"/>
      <use xlink:href="#DejaVuSans-6f" x="156.722656"/>
      <use xlink:href="#DejaVuSans-73" x="217.904297"/>
      <use xlink:href="#DejaVuSans-69" x="270.003906"/>
      <use xlink:href="#DejaVuSans-74" x="297.787109"/>
      <use xlink:href="#DejaVuSans-79" x="336.996094"/>
      <use xlink:href="#DejaVuSans-20" x="396.175781"/>
      <use xlink:href="#DejaVuSans-6f" x="427.962891"/>
      <use xlink:href="#DejaVuSans-66" x="489.144531"/>
      <use xlink:href="#DejaVuSans-20" x="524.349609"/>
      <use xlink:href="#DejaVuSans-73" x="556.136719"/>
      <use xlink:href="#DejaVuSans-6c" x="608.236328"/>
      <use xlink:href="#DejaVuSans-69" x="636.019531"/>
      <use xlink:href="#DejaVuSans-63" x="663.802734"/>
      <use xlink:href="#DejaVuSans-65" x="718.783203"/>
     </g>
    </g>
   </g>
   <g id="line2d_23">
    <path d="M 62.664886 120.809024 
L 63.331589 120.83316 
L 64.664995 121.16735 
L 65.331698 121.120935 
L 66.665103 121.364151 
L 67.331806 122.000969 
L 67.998509 122.427989 
L 68.665212 122.622934 
L 69.331915 122.997969 
L 70.66532 122.98126 
L 71.998726 122.671206 
L 73.332132 122.376004 
L 74.665537 121.538672 
L 75.33224 121.263894 
L 75.998943 120.784888 
L 76.665646 120.862865 
L 78.665754 121.642642 
L 79.332457 122.316593 
L 79.99916 122.817878 
L 81.332566 124.254896 
L 82.665971 125.34844 
L 83.332674 126.01682 
L 84.66608 126.222904 
L 85.332783 126.397426 
L 87.999594 125.498826 
L 88.666297 125.159066 
L 89.333 125.717906 
L 91.333108 130.363149 
L 91.999811 131.659064 
L 92.666514 132.589227 
L 93.333217 133.287313 
L 93.999919 133.586227 
L 94.666622 133.576944 
L 96.000028 134.555379 
L 96.666731 134.824588 
L 97.333434 134.911848 
L 98.666839 134.508964 
L 99.333542 134.254608 
L 100.666948 133.161063 
L 101.333651 132.021103 
L 102.667056 130.442983 
L 103.333759 129.065377 
L 104.000462 128.090656 
L 105.333868 126.783601 
L 106.00057 126.453124 
L 107.333976 126.278603 
L 108.000679 126.087372 
L 108.667382 126.47169 
L 110.000787 128.029388 
L 110.66749 128.330159 
L 111.334193 128.023818 
L 112.000896 127.374004 
L 112.667599 126.518106 
L 114.667707 122.997969 
L 115.33441 122.129075 
L 118.001221 119.594799 
L 119.334627 118.855868 
L 120.00133 118.961695 
L 120.668033 118.694343 
L 121.334736 118.038959 
L 124.001547 114.214338 
L 125.334953 113.584946 
L 126.001655 113.70377 
L 126.668358 114.394429 
L 127.335061 115.398856 
L 128.668467 119.058239 
L 130.001872 121.51268 
L 130.668575 122.450269 
L 131.335278 122.921848 
L 132.001981 123.092656 
L 133.335387 122.992399 
L 134.002089 122.697198 
L 134.668792 122.247898 
L 135.335495 122.687915 
L 136.668901 122.938558 
L 138.669009 122.225619 
L 139.335712 121.393856 
L 140.669118 120.313308 
L 141.335821 119.930846 
L 142.002523 119.945699 
L 144.669335 118.915279 
L 145.336038 118.957982 
L 146.00274 119.386859 
L 147.336146 120.662351 
L 148.002849 121.488544 
L 149.336255 123.738757 
L 150.002957 124.652211 
L 150.66966 125.209194 
L 151.336363 125.478403 
L 152.003066 125.46912 
L 152.669769 125.647355 
L 153.336472 125.662207 
L 154.003174 125.478403 
L 155.33658 124.407138 
L 157.336689 121.891428 
L 158.003391 121.915564 
L 158.670094 122.409423 
L 159.336797 123.19477 
L 160.670203 123.900283 
L 161.336906 124.007966 
L 163.337014 126.596083 
L 164.003717 127.177203 
L 164.67042 127.943984 
L 165.337123 128.207622 
L 166.003825 127.49654 
L 168.003934 126.512536 
L 168.670637 126.521819 
L 169.33734 126.26375 
L 170.004042 126.341727 
L 171.337448 125.859008 
L 172.004151 125.680774 
L 173.337557 124.89914 
L 174.670962 123.916992 
L 175.337665 123.20034 
L 176.671071 120.612223 
L 178.004476 118.727762 
L 178.671179 118.332303 
L 180.004585 118.00554 
L 180.671288 117.509824 
L 181.337991 116.815451 
L 182.004693 116.29003 
L 182.671396 115.965123 
L 183.338099 115.482404 
L 184.671505 114.975549 
L 186.00491 114.736046 
L 186.671613 114.977405 
L 188.671722 117.385431 
L 189.338425 117.777176 
L 191.338533 118.027819 
L 192.005236 118.070521 
L 192.671939 118.363866 
L 195.33875 118.907853 
L 195.33875 118.907853 
" clip-path="url(#pec861a0c6c)" style="fill: none; stroke: #0000ff; stroke-opacity: 0.5; stroke-width: 2; stroke-linecap: square"/>
   </g>
   <g id="line2d_24">
    <path d="M 62.664886 128.722832 
L 64.66165 129.296525 
L 66.658414 131.006465 
L 67.98959 132.788813 
L 68.655178 132.983757 
L 69.320766 132.738684 
L 69.986354 132.914134 
L 71.31753 133.774673 
L 71.983118 133.827587 
L 73.314293 134.863576 
L 73.979881 134.671417 
L 74.645469 134.72433 
L 75.311057 134.175702 
L 76.642233 132.045239 
L 78.638997 127.539242 
L 79.970173 125.73183 
L 80.635761 124.693056 
L 81.966937 123.1892 
L 82.632525 122.676775 
L 83.298113 122.977546 
L 83.963701 123.088943 
L 85.960464 124.083159 
L 86.626052 124.592799 
L 87.29164 124.823947 
L 87.957228 124.495327 
L 88.622816 124.748754 
L 89.953992 126.007537 
L 93.94752 131.719404 
L 94.613108 132.056379 
L 95.278696 132.215119 
L 96.609872 130.073517 
L 99.272223 124.606724 
L 100.603399 122.51525 
L 101.268987 121.590657 
L 101.934575 121.476476 
L 102.600163 121.546099 
L 104.596927 120.81088 
L 105.262515 120.866579 
L 105.928103 120.231617 
L 107.924867 119.034103 
L 108.590455 118.025962 
L 109.256042 116.7449 
L 110.587218 114.801027 
L 111.252806 114.480762 
L 111.918394 114.834446 
L 112.583982 114.709125 
L 113.24957 115.171421 
L 113.915158 116.24083 
L 114.580746 116.934275 
L 115.246334 117.209981 
L 117.243098 117.040101 
L 117.908686 117.098585 
L 118.574274 116.820093 
L 119.239862 116.304883 
L 119.90545 116.121078 
L 120.571038 116.40514 
L 121.236625 116.92592 
L 121.902213 117.012252 
L 122.567801 116.533246 
L 123.233389 115.536246 
L 123.898977 115.012681 
L 124.564565 114.20227 
L 125.230153 113.132861 
L 125.895741 112.325235 
L 126.561329 111.888003 
L 127.226917 111.687489 
L 127.892505 111.65407 
L 128.558093 112.00497 
L 129.223681 112.631576 
L 130.554857 114.244044 
L 131.220445 114.929134 
L 131.886033 115.185346 
L 132.551621 115.238259 
L 133.217208 115.001541 
L 133.882796 115.065595 
L 134.548384 114.920779 
L 135.213972 114.578234 
L 135.87956 114.010111 
L 136.545148 114.001756 
L 137.210736 114.686846 
L 137.876324 115.188131 
L 138.541912 116.023606 
L 139.2075 116.355012 
L 139.873088 116.499827 
L 140.538676 116.998328 
L 141.869852 119.159424 
L 142.53544 120.019964 
L 143.201028 120.398712 
L 144.532204 121.459766 
L 146.528967 122.607152 
L 147.860143 121.793956 
L 148.525731 121.415208 
L 149.191319 121.192414 
L 149.856907 120.738472 
L 150.522495 120.46555 
L 151.188083 119.902997 
L 151.853671 119.7916 
L 152.519259 120.265036 
L 154.516023 120.340229 
L 155.181611 120.916707 
L 156.512787 121.727118 
L 157.178375 122.36208 
L 158.50955 124.280888 
L 160.506314 127.43063 
L 161.171902 128.11572 
L 161.83749 128.591941 
L 162.503078 128.658779 
L 163.168666 128.494469 
L 163.834254 126.834658 
L 164.499842 125.545241 
L 165.16543 125.121933 
L 166.496606 125.999182 
L 167.162194 126.157923 
L 167.827782 125.73183 
L 168.49337 125.06902 
L 169.158958 124.782173 
L 169.824545 124.977118 
L 170.490133 124.751539 
L 171.821309 124.108223 
L 173.152485 125.489543 
L 173.818073 125.631573 
L 174.483661 125.536886 
L 175.149249 125.2389 
L 177.146013 122.921848 
L 178.477189 120.000469 
L 179.142777 118.385217 
L 181.139541 115.878791 
L 181.805128 115.22155 
L 182.470716 115.252184 
L 183.801892 115.90107 
L 184.46748 116.541601 
L 185.133068 116.594515 
L 187.129832 115.647642 
L 187.79542 115.129648 
L 189.126596 115.399785 
L 189.792184 116.199056 
L 191.12336 118.259895 
L 192.454536 119.833374 
L 193.785711 122.233973 
L 195.782475 125.364221 
L 196.448063 125.837657 
L 197.113651 126.517177 
L 198.444827 126.004752 
L 199.110415 126.032602 
L 200.441591 125.183202 
L 201.107179 125.055095 
L 201.772767 125.417135 
L 202.438355 125.609294 
L 203.103943 125.684487 
L 203.769531 126.558951 
L 204.435119 126.982259 
L 205.100707 127.244041 
L 206.431882 127.007323 
L 207.09747 126.294384 
L 208.428646 125.25004 
L 209.094234 124.979903 
L 209.759822 125.144213 
L 210.42541 125.163707 
L 211.090998 124.431274 
L 211.756586 123.985687 
L 213.087762 121.974976 
L 213.75335 121.376219 
L 214.418938 121.039244 
L 215.750114 120.702269 
L 216.415702 120.688344 
L 217.08129 120.510109 
L 217.746877 120.156425 
L 218.412465 120.654925 
L 219.743641 123.403639 
L 223.071581 129.015249 
L 224.402757 132.307022 
L 225.068345 132.755393 
L 225.733933 133.549095 
L 226.399521 133.718975 
L 227.065109 133.164776 
L 227.730697 132.423988 
L 228.396285 130.750253 
L 229.061873 130.17099 
L 229.72746 129.371718 
L 231.724224 125.514607 
L 232.389812 123.829731 
L 233.0554 121.590657 
L 233.720988 120.203768 
L 235.052164 118.457625 
L 235.717752 118.599655 
L 236.38334 118.989544 
L 237.048928 118.880932 
L 237.714516 119.103726 
L 238.380104 119.708053 
L 239.045692 119.694128 
L 241.042456 121.000255 
L 241.708043 120.925062 
L 243.039219 121.454196 
L 244.370395 120.340229 
L 245.035983 120.231617 
L 246.367159 120.785816 
L 247.032747 121.348369 
L 247.698335 121.593442 
L 248.363923 121.587872 
L 249.029511 121.888644 
L 249.695099 122.543099 
L 251.026275 123.267178 
L 251.691863 123.748969 
L 252.357451 123.857581 
L 253.023039 125.06902 
L 253.688626 126.739971 
L 255.019802 131.170775 
L 255.68539 131.85865 
L 256.350978 131.981186 
L 257.682154 132.802737 
L 258.347742 132.858435 
L 259.01333 133.072874 
L 261.675682 133.04781 
L 261.675682 133.04781 
" clip-path="url(#pec861a0c6c)" style="fill: none; stroke: #ff0000; stroke-opacity: 0.5; stroke-width: 2; stroke-linecap: square"/>
   </g>
   <g id="line2d_25">
    <path d="M 62.664886 130.385428 
L 63.329918 130.415134 
L 63.99495 130.589656 
L 65.325014 131.146639 
L 65.990046 130.990684 
L 66.655078 131.265462 
L 67.32011 131.187485 
L 67.985142 130.704766 
L 68.650173 130.593369 
L 69.315205 130.686199 
L 69.980237 131.180058 
L 70.645269 131.425131 
L 71.975333 131.295168 
L 72.640365 131.380572 
L 73.970429 128.825874 
L 75.300492 127.422276 
L 75.965524 127.377717 
L 76.630556 126.761322 
L 77.96062 126.731616 
L 79.290684 127.002681 
L 80.620748 128.903852 
L 81.28578 129.873003 
L 82.615843 132.234614 
L 83.280875 132.765605 
L 83.945907 132.449981 
L 84.610939 132.375716 
L 85.275971 132.832443 
L 85.941003 132.561378 
L 86.606035 131.844725 
L 87.271067 130.181201 
L 89.266162 123.627361 
L 90.596226 120.2409 
L 91.92629 116.780176 
L 93.256354 115.291173 
L 93.921386 114.674778 
L 94.586417 114.388859 
L 95.251449 114.552241 
L 95.916481 115.231761 
L 97.246545 115.61051 
L 97.911577 115.9447 
L 98.576609 116.516537 
L 99.906673 118.280318 
L 100.571705 118.302598 
L 101.236736 118.113223 
L 101.901768 118.347156 
L 102.5668 118.699912 
L 103.231832 119.821306 
L 103.896864 120.649355 
L 105.89196 126.720476 
L 107.222024 132.02296 
L 108.552087 135.576515 
L 109.882151 139.352864 
L 111.212215 142.850721 
L 111.877247 144.105791 
L 113.207311 145.253177 
L 113.872343 145.39428 
L 114.537374 145.03781 
L 115.867438 143.611932 
L 118.527566 140.158634 
L 119.192598 140.006392 
L 119.85763 140.125215 
L 120.522661 140.05095 
L 121.852725 138.524815 
L 122.517757 138.305735 
L 125.177885 136.178058 
L 125.842917 134.830157 
L 126.507949 134.228615 
L 127.17298 134.198909 
L 127.838012 134.039241 
L 128.503044 133.764462 
L 129.168076 133.667918 
L 130.49814 134.469975 
L 131.163172 134.224902 
L 131.828204 132.643068 
L 132.493236 131.365719 
L 133.823299 129.676203 
L 134.488331 128.042384 
L 136.483427 125.261179 
L 139.143555 121.763322 
L 139.808587 119.980975 
L 140.473618 118.770464 
L 142.468714 117.53396 
L 143.133746 118.042672 
L 143.798778 118.707339 
L 144.46381 119.825019 
L 145.793874 121.135787 
L 147.123937 122.398284 
L 147.788969 122.205196 
L 148.454001 122.572805 
L 149.119033 122.350012 
L 149.784065 122.30174 
L 150.449097 122.123505 
L 151.114129 121.510823 
L 152.444193 119.308881 
L 153.109224 117.782746 
L 154.439288 115.409996 
L 155.10432 114.830733 
L 155.769352 114.853012 
L 156.434384 114.763895 
L 157.099416 114.927277 
L 158.42948 116.52025 
L 159.759543 118.855868 
L 160.424575 119.397999 
L 161.089607 119.67649 
L 161.754639 119.732189 
L 162.419671 120.508253 
L 163.749735 121.068949 
L 164.414767 121.937844 
L 165.079799 122.479974 
L 165.744831 122.260894 
L 166.409862 122.918135 
L 167.074894 123.772176 
L 167.739926 124.266035 
L 168.404958 124.470263 
L 169.06999 125.298311 
L 169.735022 125.725332 
L 170.400054 126.01125 
L 172.39515 126.360294 
L 173.725213 128.283744 
L 175.720309 132.858435 
L 176.385341 133.107221 
L 177.050373 132.969832 
L 177.715405 132.201195 
L 181.705596 124.325447 
L 182.370628 123.935558 
L 183.03566 123.768463 
L 183.700692 124.072948 
L 184.365724 125.480259 
L 185.030756 125.350297 
L 185.695787 125.417135 
L 186.360819 125.955552 
L 187.025851 126.078089 
L 187.690883 125.807023 
L 188.355915 124.964121 
L 190.351011 119.286602 
L 191.681075 116.30117 
L 192.346106 115.458268 
L 193.011138 115.354298 
L 195.006234 115.788745 
L 195.671266 116.397714 
L 197.00133 119.119507 
L 197.666362 120.248327 
L 198.331394 120.497113 
L 198.996425 120.987258 
L 199.661457 120.998398 
L 200.326489 121.28803 
L 200.991521 121.848726 
L 201.656553 122.650783 
L 202.986617 124.55938 
L 203.651649 124.99754 
L 204.316681 124.834158 
L 204.981713 123.991257 
L 206.976808 118.43256 
L 207.64184 118.23576 
L 208.306872 117.912709 
L 208.971904 116.932418 
L 209.636936 115.313452 
L 210.301968 112.881291 
L 210.967 109.847587 
L 211.632031 108.392003 
L 212.962095 106.323737 
L 213.627127 105.454843 
L 214.292159 104.28889 
L 214.957191 103.527679 
L 215.622223 103.51654 
L 216.287255 103.394003 
L 216.952287 103.442275 
L 217.617319 104.136648 
L 218.28235 104.611941 
L 219.612414 105.803886 
L 222.937574 108.343731 
L 223.602606 109.795601 
L 224.267638 111.589089 
L 224.932669 112.372579 
L 225.597701 112.981548 
L 226.262733 114.076949 
L 229.587893 124.169491 
L 230.252925 125.480259 
L 230.917957 126.338014 
L 232.24802 126.430845 
L 232.913052 126.03353 
L 233.578084 125.769891 
L 234.243116 125.190628 
L 235.57318 123.148355 
L 237.568276 118.56995 
L 238.898339 114.221764 
L 240.228403 110.456555 
L 240.893435 109.16064 
L 242.888531 103.902715 
L 244.218594 100.828166 
L 244.883626 100.248903 
L 245.548658 100.059528 
L 246.21369 99.498831 
L 246.878722 99.654787 
L 247.543754 100.152359 
L 248.208786 101.117797 
L 248.873818 102.421139 
L 250.203882 106.754471 
L 252.198977 113.909854 
L 252.864009 115.766466 
L 253.529041 116.720764 
L 254.194073 118.146642 
L 255.524137 122.019535 
L 256.189169 123.657066 
L 257.519232 125.658494 
L 258.184264 126.245184 
L 258.849296 126.590513 
L 259.514328 126.24147 
L 260.17936 125.517392 
L 260.844392 124.99754 
L 261.509424 123.913279 
L 262.174456 123.560523 
L 262.839488 122.795599 
L 263.50452 122.479974 
L 264.169551 122.702768 
L 264.834583 123.100083 
L 265.499615 123.152068 
L 266.829679 122.361151 
L 267.494711 121.833874 
L 268.824775 120.370863 
L 269.489807 120.15921 
L 270.154839 119.516822 
L 271.484902 116.431133 
L 273.479998 113.486546 
L 274.14503 113.430848 
L 274.810062 112.929562 
L 275.475094 112.654784 
L 276.140126 112.758754 
L 278.800253 115.948414 
L 279.465285 116.924991 
L 280.130317 118.172635 
L 281.460381 121.028104 
L 282.125413 121.663065 
L 283.455476 122.249755 
L 284.120508 122.331446 
L 284.78554 122.268321 
L 286.115604 122.639643 
L 286.780636 122.041814 
L 288.1107 120.066379 
L 288.775732 118.692486 
L 290.105795 117.834731 
L 290.770827 117.634217 
L 291.435859 117.166351 
L 292.100891 116.494257 
L 294.095987 118.506825 
L 294.761019 119.034103 
L 297.421146 119.747042 
L 298.75121 119.100941 
L 300.081274 119.004397 
L 300.746306 119.58366 
L 302.07637 124.162065 
L 302.741402 126.018677 
L 304.736497 129.824731 
L 305.401529 130.712192 
L 306.731593 132.0341 
L 307.396625 132.620789 
L 308.061657 132.973545 
L 308.726689 133.192626 
L 309.39172 131.889284 
L 310.056752 131.603366 
L 310.721784 131.837299 
L 311.386816 132.617076 
L 312.051848 133.05895 
L 314.711976 133.122074 
L 315.377008 132.69134 
L 316.042039 132.449981 
L 316.707071 132.531672 
L 317.372103 132.821303 
L 318.037135 133.478544 
L 318.702167 133.938984 
L 319.367199 133.003251 
L 320.697263 134.076373 
L 321.362295 134.028101 
L 322.692358 133.15178 
L 323.35739 133.070089 
L 324.022422 132.706193 
L 324.687454 132.925273 
L 326.017518 133.006964 
L 328.012614 132.825016 
L 328.012614 132.825016 
" clip-path="url(#pec861a0c6c)" style="fill: none; stroke: #008000; stroke-opacity: 0.5; stroke-width: 2; stroke-linecap: square"/>
   </g>
   <g id="patch_3">
    <path d="M 49.3975 234.5525 
L 49.3975 11.759062 
" style="fill: none; stroke: #000000; stroke-width: 2; stroke-linejoin: miter; stroke-linecap: square"/>
   </g>
   <g id="patch_4">
    <path d="M 341.28 234.5525 
L 341.28 11.759062 
" style="fill: none; stroke: #000000; stroke-width: 2; stroke-linejoin: miter; stroke-linecap: square"/>
   </g>
   <g id="patch_5">
    <path d="M 49.3975 234.5525 
L 341.28 234.5525 
" style="fill: none; stroke: #000000; stroke-width: 2; stroke-linejoin: miter; stroke-linecap: square"/>
   </g>
   <g id="patch_6">
    <path d="M 49.3975 11.759062 
L 341.28 11.759062 
" style="fill: none; stroke: #000000; stroke-width: 2; stroke-linejoin: miter; stroke-linecap: square"/>
   </g>
   <g id="legend_1">
    <g id="line2d_26">
     <path d="M 245.26125 27.477188 
L 257.26125 27.477188 
L 269.26125 27.477188 
" style="fill: none; stroke: #0000ff; stroke-opacity: 0.5; stroke-width: 2; stroke-linecap: square"/>
    </g>
    <g id="text_14">
     <!-- yz-plane -->
     <g transform="translate(278.86125 31.677188)scale(0.12 -0.12)">
      <defs>
       <path id="DejaVuSans-7a" d="M 353 3500 
L 3084 3500 
L 3084 2975 
L 922 459 
L 3084 459 
L 3084 0 
L 275 0 
L 275 525 
L 2438 3041 
L 353 3041 
L 353 3500 
z
" transform="scale(0.015625)"/>
       <path id="DejaVuSans-2d" d="M 313 2009 
L 1997 2009 
L 1997 1497 
L 313 1497 
L 313 2009 
z
" transform="scale(0.015625)"/>
       <path id="DejaVuSans-70" d="M 1159 525 
L 1159 -1331 
L 581 -1331 
L 581 3500 
L 1159 3500 
L 1159 2969 
Q 1341 3281 1617 3432 
Q 1894 3584 2278 3584 
Q 2916 3584 3314 3078 
Q 3713 2572 3713 1747 
Q 3713 922 3314 415 
Q 2916 -91 2278 -91 
Q 1894 -91 1617 61 
Q 1341 213 1159 525 
z
M 3116 1747 
Q 3116 2381 2855 2742 
Q 2594 3103 2138 3103 
Q 1681 3103 1420 2742 
Q 1159 2381 1159 1747 
Q 1159 1113 1420 752 
Q 1681 391 2138 391 
Q 2594 391 2855 752 
Q 3116 1113 3116 1747 
z
" transform="scale(0.015625)"/>
      </defs>
      <use xlink:href="#DejaVuSans-79"/>
      <use xlink:href="#DejaVuSans-7a" x="59.179688"/>
      <use xlink:href="#DejaVuSans-2d" x="111.669922"/>
      <use xlink:href="#DejaVuSans-70" x="147.753906"/>
      <use xlink:href="#DejaVuSans-6c" x="211.230469"/>
      <use xlink:href="#DejaVuSans-61" x="239.013672"/>
      <use xlink:href="#DejaVuSans-6e" x="300.292969"/>
      <use xlink:href="#DejaVuSans-65" x="363.671875"/>
     </g>
    </g>
    <g id="line2d_27">
     <path d="M 245.26125 45.090938 
L 257.26125 45.090938 
L 269.26125 45.090938 
" style="fill: none; stroke: #ff0000; stroke-opacity: 0.5; stroke-width: 2; stroke-linecap: square"/>
    </g>
    <g id="text_15">
     <!-- xz-plane -->
     <g transform="translate(278.86125 49.290938)scale(0.12 -0.12)">
      <use xlink:href="#DejaVuSans-78"/>
      <use xlink:href="#DejaVuSans-7a" x="59.179688"/>
      <use xlink:href="#DejaVuSans-2d" x="111.669922"/>
      <use xlink:href="#DejaVuSans-70" x="147.753906"/>
      <use xlink:href="#DejaVuSans-6c" x="211.230469"/>
      <use xlink:href="#DejaVuSans-61" x="239.013672"/>
      <use xlink:href="#DejaVuSans-6e" x="300.292969"/>
      <use xlink:href="#DejaVuSans-65" x="363.671875"/>
     </g>
    </g>
    <g id="line2d_28">
     <path d="M 245.26125 62.704687 
L 257.26125 62.704687 
L 269.26125 62.704687 
" style="fill: none; stroke: #008000; stroke-opacity: 0.5; stroke-width: 2; stroke-linecap: square"/>
    </g>
    <g id="text_16">
     <!-- xy-plane -->
     <g transform="translate(278.86125 66.904687)scale(0.12 -0.12)">
      <use xlink:href="#DejaVuSans-78"/>
      <use xlink:href="#DejaVuSans-79" x="59.179688"/>
      <use xlink:href="#DejaVuSans-2d" x="116.609375"/>
      <use xlink:href="#DejaVuSans-70" x="152.693359"/>
      <use xlink:href="#DejaVuSans-6c" x="216.169922"/>
      <use xlink:href="#DejaVuSans-61" x="243.953125"/>
      <use xlink:href="#DejaVuSans-6e" x="305.232422"/>
      <use xlink:href="#DejaVuSans-65" x="368.611328"/>
     </g>
    </g>
   </g>
  </g>
 </g>
 <defs>
  <clipPath id="pec861a0c6c">
   <rect x="49.3975" y="11.759062" width="291.8825" height="222.793437"/>
  </clipPath>
 </defs>
</svg>
