<?xml version="1.0" encoding="utf-8" standalone="no"?>
<!DOCTYPE svg PUBLIC "-//W3C//DTD SVG 1.1//EN"
  "http://www.w3.org/Graphics/SVG/1.1/DTD/svg11.dtd">
<svg xmlns:xlink="http://www.w3.org/1999/xlink" width="420.48pt" height="276.48pt" viewBox="0 0 420.48 276.48" xmlns="http://www.w3.org/2000/svg" version="1.1">
 <metadata>
  <rdf:RDF xmlns:dc="http://purl.org/dc/elements/1.1/" xmlns:cc="http://creativecommons.org/ns#" xmlns:rdf="http://www.w3.org/1999/02/22-rdf-syntax-ns#">
   <cc:Work>
    <dc:type rdf:resource="http://purl.org/dc/dcmitype/StillImage"/>
    <dc:date>2022-03-30T13:37:46.128788</dc:date>
    <dc:format>image/svg+xml</dc:format>
    <dc:creator>
     <cc:Agent>
      <dc:title>Matplotlib v3.5.1, https://matplotlib.org/</dc:title>
     </cc:Agent>
    </dc:creator>
   </cc:Work>
  </rdf:RDF>
 </metadata>
 <defs>
  <style type="text/css">*{stroke-linejoin: round; stroke-linecap: butt}</style>
 </defs>
 <g id="figure_1">
  <g id="patch_1">
   <path d="M 0 276.48 
L 420.48 276.48 
L 420.48 0 
L 0 0 
L 0 276.48 
z
" style="fill: none"/>
  </g>
  <g id="axes_1">
   <g id="patch_2">
    <path d="M 49.3975 234.5525 
L 413.28 234.5525 
L 413.28 7.2 
L 49.3975 7.2 
z
" style="fill: #ffffff"/>
   </g>
   <g id="matplotlib.axis_1">
    <g id="xtick_1">
     <g id="line2d_1">
      <path d="M 70.439253 234.5525 
L 70.439253 7.2 
" clip-path="url(#pafbe3226ca)" style="fill: none; stroke: #b0b0b0; stroke-width: 0.8; stroke-linecap: square"/>
     </g>
     <g id="line2d_2">
      <defs>
       <path id="m1afc949dd8" d="M 0 0 
L 0 -6 
" style="stroke: #000000; stroke-width: 2"/>
      </defs>
      <g>
       <use xlink:href="#m1afc949dd8" x="70.439253" y="234.5525" style="fill: #ffffff; stroke: #000000; stroke-width: 2"/>
      </g>
     </g>
     <g id="line2d_3">
      <defs>
       <path id="mea97a44bb1" d="M 0 0 
L 0 6 
" style="stroke: #000000; stroke-width: 2"/>
      </defs>
      <g>
       <use xlink:href="#mea97a44bb1" x="70.439253" y="7.2" style="fill: #ffffff; stroke: #000000; stroke-width: 2"/>
      </g>
     </g>
     <g id="text_1">
      <!-- 2.50 -->
      <g transform="translate(57.079878 247.170625)scale(0.12 -0.12)">
       <defs>
        <path id="DejaVuSans-32" d="M 1228 531 
L 3431 531 
L 3431 0 
L 469 0 
L 469 531 
Q 828 903 1448 1529 
Q 2069 2156 2228 2338 
Q 2531 2678 2651 2914 
Q 2772 3150 2772 3378 
Q 2772 3750 2511 3984 
Q 2250 4219 1831 4219 
Q 1534 4219 1204 4116 
Q 875 4013 500 3803 
L 500 4441 
Q 881 4594 1212 4672 
Q 1544 4750 1819 4750 
Q 2544 4750 2975 4387 
Q 3406 4025 3406 3419 
Q 3406 3131 3298 2873 
Q 3191 2616 2906 2266 
Q 2828 2175 2409 1742 
Q 1991 1309 1228 531 
z
" transform="scale(0.015625)"/>
        <path id="DejaVuSans-2e" d="M 684 794 
L 1344 794 
L 1344 0 
L 684 0 
L 684 794 
z
" transform="scale(0.015625)"/>
        <path id="DejaVuSans-35" d="M 691 4666 
L 3169 4666 
L 3169 4134 
L 1269 4134 
L 1269 2991 
Q 1406 3038 1543 3061 
Q 1681 3084 1819 3084 
Q 2600 3084 3056 2656 
Q 3513 2228 3513 1497 
Q 3513 744 3044 326 
Q 2575 -91 1722 -91 
Q 1428 -91 1123 -41 
Q 819 9 494 109 
L 494 744 
Q 775 591 1075 516 
Q 1375 441 1709 441 
Q 2250 441 2565 725 
Q 2881 1009 2881 1497 
Q 2881 1984 2565 2268 
Q 2250 2553 1709 2553 
Q 1456 2553 1204 2497 
Q 953 2441 691 2322 
L 691 4666 
z
" transform="scale(0.015625)"/>
        <path id="DejaVuSans-30" d="M 2034 4250 
Q 1547 4250 1301 3770 
Q 1056 3291 1056 2328 
Q 1056 1369 1301 889 
Q 1547 409 2034 409 
Q 2525 409 2770 889 
Q 3016 1369 3016 2328 
Q 3016 3291 2770 3770 
Q 2525 4250 2034 4250 
z
M 2034 4750 
Q 2819 4750 3233 4129 
Q 3647 3509 3647 2328 
Q 3647 1150 3233 529 
Q 2819 -91 2034 -91 
Q 1250 -91 836 529 
Q 422 1150 422 2328 
Q 422 3509 836 4129 
Q 1250 4750 2034 4750 
z
" transform="scale(0.015625)"/>
       </defs>
       <use xlink:href="#DejaVuSans-32"/>
       <use xlink:href="#DejaVuSans-2e" x="63.623047"/>
       <use xlink:href="#DejaVuSans-35" x="95.410156"/>
       <use xlink:href="#DejaVuSans-30" x="159.033203"/>
      </g>
     </g>
    </g>
    <g id="xtick_2">
     <g id="line2d_4">
      <path d="M 119.629438 234.5525 
L 119.629438 7.2 
" clip-path="url(#pafbe3226ca)" style="fill: none; stroke: #b0b0b0; stroke-width: 0.8; stroke-linecap: square"/>
     </g>
     <g id="line2d_5">
      <g>
       <use xlink:href="#m1afc949dd8" x="119.629438" y="234.5525" style="fill: #ffffff; stroke: #000000; stroke-width: 2"/>
      </g>
     </g>
     <g id="line2d_6">
      <g>
       <use xlink:href="#mea97a44bb1" x="119.629438" y="7.2" style="fill: #ffffff; stroke: #000000; stroke-width: 2"/>
      </g>
     </g>
     <g id="text_2">
      <!-- 2.75 -->
      <g transform="translate(106.270063 247.170625)scale(0.12 -0.12)">
       <defs>
        <path id="DejaVuSans-37" d="M 525 4666 
L 3525 4666 
L 3525 4397 
L 1831 0 
L 1172 0 
L 2766 4134 
L 525 4134 
L 525 4666 
z
" transform="scale(0.015625)"/>
       </defs>
       <use xlink:href="#DejaVuSans-32"/>
       <use xlink:href="#DejaVuSans-2e" x="63.623047"/>
       <use xlink:href="#DejaVuSans-37" x="95.410156"/>
       <use xlink:href="#DejaVuSans-35" x="159.033203"/>
      </g>
     </g>
    </g>
    <g id="xtick_3">
     <g id="line2d_7">
      <path d="M 168.819623 234.5525 
L 168.819623 7.2 
" clip-path="url(#pafbe3226ca)" style="fill: none; stroke: #b0b0b0; stroke-width: 0.8; stroke-linecap: square"/>
     </g>
     <g id="line2d_8">
      <g>
       <use xlink:href="#m1afc949dd8" x="168.819623" y="234.5525" style="fill: #ffffff; stroke: #000000; stroke-width: 2"/>
      </g>
     </g>
     <g id="line2d_9">
      <g>
       <use xlink:href="#mea97a44bb1" x="168.819623" y="7.2" style="fill: #ffffff; stroke: #000000; stroke-width: 2"/>
      </g>
     </g>
     <g id="text_3">
      <!-- 3.00 -->
      <g transform="translate(155.460248 247.170625)scale(0.12 -0.12)">
       <defs>
        <path id="DejaVuSans-33" d="M 2597 2516 
Q 3050 2419 3304 2112 
Q 3559 1806 3559 1356 
Q 3559 666 3084 287 
Q 2609 -91 1734 -91 
Q 1441 -91 1130 -33 
Q 819 25 488 141 
L 488 750 
Q 750 597 1062 519 
Q 1375 441 1716 441 
Q 2309 441 2620 675 
Q 2931 909 2931 1356 
Q 2931 1769 2642 2001 
Q 2353 2234 1838 2234 
L 1294 2234 
L 1294 2753 
L 1863 2753 
Q 2328 2753 2575 2939 
Q 2822 3125 2822 3475 
Q 2822 3834 2567 4026 
Q 2313 4219 1838 4219 
Q 1578 4219 1281 4162 
Q 984 4106 628 3988 
L 628 4550 
Q 988 4650 1302 4700 
Q 1616 4750 1894 4750 
Q 2613 4750 3031 4423 
Q 3450 4097 3450 3541 
Q 3450 3153 3228 2886 
Q 3006 2619 2597 2516 
z
" transform="scale(0.015625)"/>
       </defs>
       <use xlink:href="#DejaVuSans-33"/>
       <use xlink:href="#DejaVuSans-2e" x="63.623047"/>
       <use xlink:href="#DejaVuSans-30" x="95.410156"/>
       <use xlink:href="#DejaVuSans-30" x="159.033203"/>
      </g>
     </g>
    </g>
    <g id="xtick_4">
     <g id="line2d_10">
      <path d="M 218.009809 234.5525 
L 218.009809 7.2 
" clip-path="url(#pafbe3226ca)" style="fill: none; stroke: #b0b0b0; stroke-width: 0.8; stroke-linecap: square"/>
     </g>
     <g id="line2d_11">
      <g>
       <use xlink:href="#m1afc949dd8" x="218.009809" y="234.5525" style="fill: #ffffff; stroke: #000000; stroke-width: 2"/>
      </g>
     </g>
     <g id="line2d_12">
      <g>
       <use xlink:href="#mea97a44bb1" x="218.009809" y="7.2" style="fill: #ffffff; stroke: #000000; stroke-width: 2"/>
      </g>
     </g>
     <g id="text_4">
      <!-- 3.25 -->
      <g transform="translate(204.650434 247.170625)scale(0.12 -0.12)">
       <use xlink:href="#DejaVuSans-33"/>
       <use xlink:href="#DejaVuSans-2e" x="63.623047"/>
       <use xlink:href="#DejaVuSans-32" x="95.410156"/>
       <use xlink:href="#DejaVuSans-35" x="159.033203"/>
      </g>
     </g>
    </g>
    <g id="xtick_5">
     <g id="line2d_13">
      <path d="M 267.199994 234.5525 
L 267.199994 7.2 
" clip-path="url(#pafbe3226ca)" style="fill: none; stroke: #b0b0b0; stroke-width: 0.8; stroke-linecap: square"/>
     </g>
     <g id="line2d_14">
      <g>
       <use xlink:href="#m1afc949dd8" x="267.199994" y="234.5525" style="fill: #ffffff; stroke: #000000; stroke-width: 2"/>
      </g>
     </g>
     <g id="line2d_15">
      <g>
       <use xlink:href="#mea97a44bb1" x="267.199994" y="7.2" style="fill: #ffffff; stroke: #000000; stroke-width: 2"/>
      </g>
     </g>
     <g id="text_5">
      <!-- 3.50 -->
      <g transform="translate(253.840619 247.170625)scale(0.12 -0.12)">
       <use xlink:href="#DejaVuSans-33"/>
       <use xlink:href="#DejaVuSans-2e" x="63.623047"/>
       <use xlink:href="#DejaVuSans-35" x="95.410156"/>
       <use xlink:href="#DejaVuSans-30" x="159.033203"/>
      </g>
     </g>
    </g>
    <g id="xtick_6">
     <g id="line2d_16">
      <path d="M 316.39018 234.5525 
L 316.39018 7.2 
" clip-path="url(#pafbe3226ca)" style="fill: none; stroke: #b0b0b0; stroke-width: 0.8; stroke-linecap: square"/>
     </g>
     <g id="line2d_17">
      <g>
       <use xlink:href="#m1afc949dd8" x="316.39018" y="234.5525" style="fill: #ffffff; stroke: #000000; stroke-width: 2"/>
      </g>
     </g>
     <g id="line2d_18">
      <g>
       <use xlink:href="#mea97a44bb1" x="316.39018" y="7.2" style="fill: #ffffff; stroke: #000000; stroke-width: 2"/>
      </g>
     </g>
     <g id="text_6">
      <!-- 3.75 -->
      <g transform="translate(303.030805 247.170625)scale(0.12 -0.12)">
       <use xlink:href="#DejaVuSans-33"/>
       <use xlink:href="#DejaVuSans-2e" x="63.623047"/>
       <use xlink:href="#DejaVuSans-37" x="95.410156"/>
       <use xlink:href="#DejaVuSans-35" x="159.033203"/>
      </g>
     </g>
    </g>
    <g id="xtick_7">
     <g id="line2d_19">
      <path d="M 365.580365 234.5525 
L 365.580365 7.2 
" clip-path="url(#pafbe3226ca)" style="fill: none; stroke: #b0b0b0; stroke-width: 0.8; stroke-linecap: square"/>
     </g>
     <g id="line2d_20">
      <g>
       <use xlink:href="#m1afc949dd8" x="365.580365" y="234.5525" style="fill: #ffffff; stroke: #000000; stroke-width: 2"/>
      </g>
     </g>
     <g id="line2d_21">
      <g>
       <use xlink:href="#mea97a44bb1" x="365.580365" y="7.2" style="fill: #ffffff; stroke: #000000; stroke-width: 2"/>
      </g>
     </g>
     <g id="text_7">
      <!-- 4.00 -->
      <g transform="translate(352.22099 247.170625)scale(0.12 -0.12)">
       <defs>
        <path id="DejaVuSans-34" d="M 2419 4116 
L 825 1625 
L 2419 1625 
L 2419 4116 
z
M 2253 4666 
L 3047 4666 
L 3047 1625 
L 3713 1625 
L 3713 1100 
L 3047 1100 
L 3047 0 
L 2419 0 
L 2419 1100 
L 313 1100 
L 313 1709 
L 2253 4666 
z
" transform="scale(0.015625)"/>
       </defs>
       <use xlink:href="#DejaVuSans-34"/>
       <use xlink:href="#DejaVuSans-2e" x="63.623047"/>
       <use xlink:href="#DejaVuSans-30" x="95.410156"/>
       <use xlink:href="#DejaVuSans-30" x="159.033203"/>
      </g>
     </g>
    </g>
    <g id="text_8">
     <!-- log(Capillary Pressure [Pa]) -->
     <g transform="translate(150.005 266.784375)scale(0.12 -0.12)">
      <defs>
       <path id="DejaVuSans-6c" d="M 603 4863 
L 1178 4863 
L 1178 0 
L 603 0 
L 603 4863 
z
" transform="scale(0.015625)"/>
       <path id="DejaVuSans-6f" d="M 1959 3097 
Q 1497 3097 1228 2736 
Q 959 2375 959 1747 
Q 959 1119 1226 758 
Q 1494 397 1959 397 
Q 2419 397 2687 759 
Q 2956 1122 2956 1747 
Q 2956 2369 2687 2733 
Q 2419 3097 1959 3097 
z
M 1959 3584 
Q 2709 3584 3137 3096 
Q 3566 2609 3566 1747 
Q 3566 888 3137 398 
Q 2709 -91 1959 -91 
Q 1206 -91 779 398 
Q 353 888 353 1747 
Q 353 2609 779 3096 
Q 1206 3584 1959 3584 
z
" transform="scale(0.015625)"/>
       <path id="DejaVuSans-67" d="M 2906 1791 
Q 2906 2416 2648 2759 
Q 2391 3103 1925 3103 
Q 1463 3103 1205 2759 
Q 947 2416 947 1791 
Q 947 1169 1205 825 
Q 1463 481 1925 481 
Q 2391 481 2648 825 
Q 2906 1169 2906 1791 
z
M 3481 434 
Q 3481 -459 3084 -895 
Q 2688 -1331 1869 -1331 
Q 1566 -1331 1297 -1286 
Q 1028 -1241 775 -1147 
L 775 -588 
Q 1028 -725 1275 -790 
Q 1522 -856 1778 -856 
Q 2344 -856 2625 -561 
Q 2906 -266 2906 331 
L 2906 616 
Q 2728 306 2450 153 
Q 2172 0 1784 0 
Q 1141 0 747 490 
Q 353 981 353 1791 
Q 353 2603 747 3093 
Q 1141 3584 1784 3584 
Q 2172 3584 2450 3431 
Q 2728 3278 2906 2969 
L 2906 3500 
L 3481 3500 
L 3481 434 
z
" transform="scale(0.015625)"/>
       <path id="DejaVuSans-28" d="M 1984 4856 
Q 1566 4138 1362 3434 
Q 1159 2731 1159 2009 
Q 1159 1288 1364 580 
Q 1569 -128 1984 -844 
L 1484 -844 
Q 1016 -109 783 600 
Q 550 1309 550 2009 
Q 550 2706 781 3412 
Q 1013 4119 1484 4856 
L 1984 4856 
z
" transform="scale(0.015625)"/>
       <path id="DejaVuSans-43" d="M 4122 4306 
L 4122 3641 
Q 3803 3938 3442 4084 
Q 3081 4231 2675 4231 
Q 1875 4231 1450 3742 
Q 1025 3253 1025 2328 
Q 1025 1406 1450 917 
Q 1875 428 2675 428 
Q 3081 428 3442 575 
Q 3803 722 4122 1019 
L 4122 359 
Q 3791 134 3420 21 
Q 3050 -91 2638 -91 
Q 1578 -91 968 557 
Q 359 1206 359 2328 
Q 359 3453 968 4101 
Q 1578 4750 2638 4750 
Q 3056 4750 3426 4639 
Q 3797 4528 4122 4306 
z
" transform="scale(0.015625)"/>
       <path id="DejaVuSans-61" d="M 2194 1759 
Q 1497 1759 1228 1600 
Q 959 1441 959 1056 
Q 959 750 1161 570 
Q 1363 391 1709 391 
Q 2188 391 2477 730 
Q 2766 1069 2766 1631 
L 2766 1759 
L 2194 1759 
z
M 3341 1997 
L 3341 0 
L 2766 0 
L 2766 531 
Q 2569 213 2275 61 
Q 1981 -91 1556 -91 
Q 1019 -91 701 211 
Q 384 513 384 1019 
Q 384 1609 779 1909 
Q 1175 2209 1959 2209 
L 2766 2209 
L 2766 2266 
Q 2766 2663 2505 2880 
Q 2244 3097 1772 3097 
Q 1472 3097 1187 3025 
Q 903 2953 641 2809 
L 641 3341 
Q 956 3463 1253 3523 
Q 1550 3584 1831 3584 
Q 2591 3584 2966 3190 
Q 3341 2797 3341 1997 
z
" transform="scale(0.015625)"/>
       <path id="DejaVuSans-70" d="M 1159 525 
L 1159 -1331 
L 581 -1331 
L 581 3500 
L 1159 3500 
L 1159 2969 
Q 1341 3281 1617 3432 
Q 1894 3584 2278 3584 
Q 2916 3584 3314 3078 
Q 3713 2572 3713 1747 
Q 3713 922 3314 415 
Q 2916 -91 2278 -91 
Q 1894 -91 1617 61 
Q 1341 213 1159 525 
z
M 3116 1747 
Q 3116 2381 2855 2742 
Q 2594 3103 2138 3103 
Q 1681 3103 1420 2742 
Q 1159 2381 1159 1747 
Q 1159 1113 1420 752 
Q 1681 391 2138 391 
Q 2594 391 2855 752 
Q 3116 1113 3116 1747 
z
" transform="scale(0.015625)"/>
       <path id="DejaVuSans-69" d="M 603 3500 
L 1178 3500 
L 1178 0 
L 603 0 
L 603 3500 
z
M 603 4863 
L 1178 4863 
L 1178 4134 
L 603 4134 
L 603 4863 
z
" transform="scale(0.015625)"/>
       <path id="DejaVuSans-72" d="M 2631 2963 
Q 2534 3019 2420 3045 
Q 2306 3072 2169 3072 
Q 1681 3072 1420 2755 
Q 1159 2438 1159 1844 
L 1159 0 
L 581 0 
L 581 3500 
L 1159 3500 
L 1159 2956 
Q 1341 3275 1631 3429 
Q 1922 3584 2338 3584 
Q 2397 3584 2469 3576 
Q 2541 3569 2628 3553 
L 2631 2963 
z
" transform="scale(0.015625)"/>
       <path id="DejaVuSans-79" d="M 2059 -325 
Q 1816 -950 1584 -1140 
Q 1353 -1331 966 -1331 
L 506 -1331 
L 506 -850 
L 844 -850 
Q 1081 -850 1212 -737 
Q 1344 -625 1503 -206 
L 1606 56 
L 191 3500 
L 800 3500 
L 1894 763 
L 2988 3500 
L 3597 3500 
L 2059 -325 
z
" transform="scale(0.015625)"/>
       <path id="DejaVuSans-20" transform="scale(0.015625)"/>
       <path id="DejaVuSans-50" d="M 1259 4147 
L 1259 2394 
L 2053 2394 
Q 2494 2394 2734 2622 
Q 2975 2850 2975 3272 
Q 2975 3691 2734 3919 
Q 2494 4147 2053 4147 
L 1259 4147 
z
M 628 4666 
L 2053 4666 
Q 2838 4666 3239 4311 
Q 3641 3956 3641 3272 
Q 3641 2581 3239 2228 
Q 2838 1875 2053 1875 
L 1259 1875 
L 1259 0 
L 628 0 
L 628 4666 
z
" transform="scale(0.015625)"/>
       <path id="DejaVuSans-65" d="M 3597 1894 
L 3597 1613 
L 953 1613 
Q 991 1019 1311 708 
Q 1631 397 2203 397 
Q 2534 397 2845 478 
Q 3156 559 3463 722 
L 3463 178 
Q 3153 47 2828 -22 
Q 2503 -91 2169 -91 
Q 1331 -91 842 396 
Q 353 884 353 1716 
Q 353 2575 817 3079 
Q 1281 3584 2069 3584 
Q 2775 3584 3186 3129 
Q 3597 2675 3597 1894 
z
M 3022 2063 
Q 3016 2534 2758 2815 
Q 2500 3097 2075 3097 
Q 1594 3097 1305 2825 
Q 1016 2553 972 2059 
L 3022 2063 
z
" transform="scale(0.015625)"/>
       <path id="DejaVuSans-73" d="M 2834 3397 
L 2834 2853 
Q 2591 2978 2328 3040 
Q 2066 3103 1784 3103 
Q 1356 3103 1142 2972 
Q 928 2841 928 2578 
Q 928 2378 1081 2264 
Q 1234 2150 1697 2047 
L 1894 2003 
Q 2506 1872 2764 1633 
Q 3022 1394 3022 966 
Q 3022 478 2636 193 
Q 2250 -91 1575 -91 
Q 1294 -91 989 -36 
Q 684 19 347 128 
L 347 722 
Q 666 556 975 473 
Q 1284 391 1588 391 
Q 1994 391 2212 530 
Q 2431 669 2431 922 
Q 2431 1156 2273 1281 
Q 2116 1406 1581 1522 
L 1381 1569 
Q 847 1681 609 1914 
Q 372 2147 372 2553 
Q 372 3047 722 3315 
Q 1072 3584 1716 3584 
Q 2034 3584 2315 3537 
Q 2597 3491 2834 3397 
z
" transform="scale(0.015625)"/>
       <path id="DejaVuSans-75" d="M 544 1381 
L 544 3500 
L 1119 3500 
L 1119 1403 
Q 1119 906 1312 657 
Q 1506 409 1894 409 
Q 2359 409 2629 706 
Q 2900 1003 2900 1516 
L 2900 3500 
L 3475 3500 
L 3475 0 
L 2900 0 
L 2900 538 
Q 2691 219 2414 64 
Q 2138 -91 1772 -91 
Q 1169 -91 856 284 
Q 544 659 544 1381 
z
M 1991 3584 
L 1991 3584 
z
" transform="scale(0.015625)"/>
       <path id="DejaVuSans-5b" d="M 550 4863 
L 1875 4863 
L 1875 4416 
L 1125 4416 
L 1125 -397 
L 1875 -397 
L 1875 -844 
L 550 -844 
L 550 4863 
z
" transform="scale(0.015625)"/>
       <path id="DejaVuSans-5d" d="M 1947 4863 
L 1947 -844 
L 622 -844 
L 622 -397 
L 1369 -397 
L 1369 4416 
L 622 4416 
L 622 4863 
L 1947 4863 
z
" transform="scale(0.015625)"/>
       <path id="DejaVuSans-29" d="M 513 4856 
L 1013 4856 
Q 1481 4119 1714 3412 
Q 1947 2706 1947 2009 
Q 1947 1309 1714 600 
Q 1481 -109 1013 -844 
L 513 -844 
Q 928 -128 1133 580 
Q 1338 1288 1338 2009 
Q 1338 2731 1133 3434 
Q 928 4138 513 4856 
z
" transform="scale(0.015625)"/>
      </defs>
      <use xlink:href="#DejaVuSans-6c"/>
      <use xlink:href="#DejaVuSans-6f" x="27.783203"/>
      <use xlink:href="#DejaVuSans-67" x="88.964844"/>
      <use xlink:href="#DejaVuSans-28" x="152.441406"/>
      <use xlink:href="#DejaVuSans-43" x="191.455078"/>
      <use xlink:href="#DejaVuSans-61" x="261.279297"/>
      <use xlink:href="#DejaVuSans-70" x="322.558594"/>
      <use xlink:href="#DejaVuSans-69" x="386.035156"/>
      <use xlink:href="#DejaVuSans-6c" x="413.818359"/>
      <use xlink:href="#DejaVuSans-6c" x="441.601562"/>
      <use xlink:href="#DejaVuSans-61" x="469.384766"/>
      <use xlink:href="#DejaVuSans-72" x="530.664062"/>
      <use xlink:href="#DejaVuSans-79" x="571.777344"/>
      <use xlink:href="#DejaVuSans-20" x="630.957031"/>
      <use xlink:href="#DejaVuSans-50" x="662.744141"/>
      <use xlink:href="#DejaVuSans-72" x="721.296875"/>
      <use xlink:href="#DejaVuSans-65" x="760.160156"/>
      <use xlink:href="#DejaVuSans-73" x="821.683594"/>
      <use xlink:href="#DejaVuSans-73" x="873.783203"/>
      <use xlink:href="#DejaVuSans-75" x="925.882812"/>
      <use xlink:href="#DejaVuSans-72" x="989.261719"/>
      <use xlink:href="#DejaVuSans-65" x="1028.125"/>
      <use xlink:href="#DejaVuSans-20" x="1089.648438"/>
      <use xlink:href="#DejaVuSans-5b" x="1121.435547"/>
      <use xlink:href="#DejaVuSans-50" x="1160.449219"/>
      <use xlink:href="#DejaVuSans-61" x="1216.251953"/>
      <use xlink:href="#DejaVuSans-5d" x="1277.53125"/>
      <use xlink:href="#DejaVuSans-29" x="1316.544922"/>
     </g>
    </g>
   </g>
   <g id="matplotlib.axis_2">
    <g id="ytick_1">
     <g id="line2d_22">
      <defs>
       <path id="m0ad0e86d12" d="M 0 0 
L 6 0 
" style="stroke: #000000; stroke-width: 2"/>
      </defs>
      <g>
       <use xlink:href="#m0ad0e86d12" x="49.3975" y="224.218295" style="fill: #ffffff; stroke: #000000; stroke-width: 2"/>
      </g>
     </g>
     <g id="line2d_23">
      <defs>
       <path id="me41d59a625" d="M 0 0 
L -6 0 
" style="stroke: #000000; stroke-width: 2"/>
      </defs>
      <g>
       <use xlink:href="#me41d59a625" x="413.28" y="224.218295" style="fill: #ffffff; stroke: #000000; stroke-width: 2"/>
      </g>
     </g>
     <g id="text_9">
      <!-- 0.0 -->
      <g transform="translate(26.81375 228.777358)scale(0.12 -0.12)">
       <use xlink:href="#DejaVuSans-30"/>
       <use xlink:href="#DejaVuSans-2e" x="63.623047"/>
       <use xlink:href="#DejaVuSans-30" x="95.410156"/>
      </g>
     </g>
    </g>
    <g id="ytick_2">
     <g id="line2d_24">
      <g>
       <use xlink:href="#m0ad0e86d12" x="49.3975" y="182.881477" style="fill: #ffffff; stroke: #000000; stroke-width: 2"/>
      </g>
     </g>
     <g id="line2d_25">
      <g>
       <use xlink:href="#me41d59a625" x="413.28" y="182.881477" style="fill: #ffffff; stroke: #000000; stroke-width: 2"/>
      </g>
     </g>
     <g id="text_10">
      <!-- 0.2 -->
      <g transform="translate(26.81375 187.44054)scale(0.12 -0.12)">
       <use xlink:href="#DejaVuSans-30"/>
       <use xlink:href="#DejaVuSans-2e" x="63.623047"/>
       <use xlink:href="#DejaVuSans-32" x="95.410156"/>
      </g>
     </g>
    </g>
    <g id="ytick_3">
     <g id="line2d_26">
      <g>
       <use xlink:href="#m0ad0e86d12" x="49.3975" y="141.544659" style="fill: #ffffff; stroke: #000000; stroke-width: 2"/>
      </g>
     </g>
     <g id="line2d_27">
      <g>
       <use xlink:href="#me41d59a625" x="413.28" y="141.544659" style="fill: #ffffff; stroke: #000000; stroke-width: 2"/>
      </g>
     </g>
     <g id="text_11">
      <!-- 0.4 -->
      <g transform="translate(26.81375 146.103722)scale(0.12 -0.12)">
       <use xlink:href="#DejaVuSans-30"/>
       <use xlink:href="#DejaVuSans-2e" x="63.623047"/>
       <use xlink:href="#DejaVuSans-34" x="95.410156"/>
      </g>
     </g>
    </g>
    <g id="ytick_4">
     <g id="line2d_28">
      <g>
       <use xlink:href="#m0ad0e86d12" x="49.3975" y="100.207841" style="fill: #ffffff; stroke: #000000; stroke-width: 2"/>
      </g>
     </g>
     <g id="line2d_29">
      <g>
       <use xlink:href="#me41d59a625" x="413.28" y="100.207841" style="fill: #ffffff; stroke: #000000; stroke-width: 2"/>
      </g>
     </g>
     <g id="text_12">
      <!-- 0.6 -->
      <g transform="translate(26.81375 104.766903)scale(0.12 -0.12)">
       <defs>
        <path id="DejaVuSans-36" d="M 2113 2584 
Q 1688 2584 1439 2293 
Q 1191 2003 1191 1497 
Q 1191 994 1439 701 
Q 1688 409 2113 409 
Q 2538 409 2786 701 
Q 3034 994 3034 1497 
Q 3034 2003 2786 2293 
Q 2538 2584 2113 2584 
z
M 3366 4563 
L 3366 3988 
Q 3128 4100 2886 4159 
Q 2644 4219 2406 4219 
Q 1781 4219 1451 3797 
Q 1122 3375 1075 2522 
Q 1259 2794 1537 2939 
Q 1816 3084 2150 3084 
Q 2853 3084 3261 2657 
Q 3669 2231 3669 1497 
Q 3669 778 3244 343 
Q 2819 -91 2113 -91 
Q 1303 -91 875 529 
Q 447 1150 447 2328 
Q 447 3434 972 4092 
Q 1497 4750 2381 4750 
Q 2619 4750 2861 4703 
Q 3103 4656 3366 4563 
z
" transform="scale(0.015625)"/>
       </defs>
       <use xlink:href="#DejaVuSans-30"/>
       <use xlink:href="#DejaVuSans-2e" x="63.623047"/>
       <use xlink:href="#DejaVuSans-36" x="95.410156"/>
      </g>
     </g>
    </g>
    <g id="ytick_5">
     <g id="line2d_30">
      <g>
       <use xlink:href="#m0ad0e86d12" x="49.3975" y="58.871023" style="fill: #ffffff; stroke: #000000; stroke-width: 2"/>
      </g>
     </g>
     <g id="line2d_31">
      <g>
       <use xlink:href="#me41d59a625" x="413.28" y="58.871023" style="fill: #ffffff; stroke: #000000; stroke-width: 2"/>
      </g>
     </g>
     <g id="text_13">
      <!-- 0.8 -->
      <g transform="translate(26.81375 63.430085)scale(0.12 -0.12)">
       <defs>
        <path id="DejaVuSans-38" d="M 2034 2216 
Q 1584 2216 1326 1975 
Q 1069 1734 1069 1313 
Q 1069 891 1326 650 
Q 1584 409 2034 409 
Q 2484 409 2743 651 
Q 3003 894 3003 1313 
Q 3003 1734 2745 1975 
Q 2488 2216 2034 2216 
z
M 1403 2484 
Q 997 2584 770 2862 
Q 544 3141 544 3541 
Q 544 4100 942 4425 
Q 1341 4750 2034 4750 
Q 2731 4750 3128 4425 
Q 3525 4100 3525 3541 
Q 3525 3141 3298 2862 
Q 3072 2584 2669 2484 
Q 3125 2378 3379 2068 
Q 3634 1759 3634 1313 
Q 3634 634 3220 271 
Q 2806 -91 2034 -91 
Q 1263 -91 848 271 
Q 434 634 434 1313 
Q 434 1759 690 2068 
Q 947 2378 1403 2484 
z
M 1172 3481 
Q 1172 3119 1398 2916 
Q 1625 2713 2034 2713 
Q 2441 2713 2670 2916 
Q 2900 3119 2900 3481 
Q 2900 3844 2670 4047 
Q 2441 4250 2034 4250 
Q 1625 4250 1398 4047 
Q 1172 3844 1172 3481 
z
" transform="scale(0.015625)"/>
       </defs>
       <use xlink:href="#DejaVuSans-30"/>
       <use xlink:href="#DejaVuSans-2e" x="63.623047"/>
       <use xlink:href="#DejaVuSans-38" x="95.410156"/>
      </g>
     </g>
    </g>
    <g id="ytick_6">
     <g id="line2d_32">
      <g>
       <use xlink:href="#m0ad0e86d12" x="49.3975" y="17.534205" style="fill: #ffffff; stroke: #000000; stroke-width: 2"/>
      </g>
     </g>
     <g id="line2d_33">
      <g>
       <use xlink:href="#me41d59a625" x="413.28" y="17.534205" style="fill: #ffffff; stroke: #000000; stroke-width: 2"/>
      </g>
     </g>
     <g id="text_14">
      <!-- 1.0 -->
      <g transform="translate(26.81375 22.093267)scale(0.12 -0.12)">
       <defs>
        <path id="DejaVuSans-31" d="M 794 531 
L 1825 531 
L 1825 4091 
L 703 3866 
L 703 4441 
L 1819 4666 
L 2450 4666 
L 2450 531 
L 3481 531 
L 3481 0 
L 794 0 
L 794 531 
z
" transform="scale(0.015625)"/>
       </defs>
       <use xlink:href="#DejaVuSans-31"/>
       <use xlink:href="#DejaVuSans-2e" x="63.623047"/>
       <use xlink:href="#DejaVuSans-30" x="95.410156"/>
      </g>
     </g>
    </g>
    <g id="text_15">
     <!-- Non-wetting Phase Saturation -->
     <g transform="translate(16.318125 210.590312)rotate(-90)scale(0.12 -0.12)">
      <defs>
       <path id="DejaVuSans-4e" d="M 628 4666 
L 1478 4666 
L 3547 763 
L 3547 4666 
L 4159 4666 
L 4159 0 
L 3309 0 
L 1241 3903 
L 1241 0 
L 628 0 
L 628 4666 
z
" transform="scale(0.015625)"/>
       <path id="DejaVuSans-6e" d="M 3513 2113 
L 3513 0 
L 2938 0 
L 2938 2094 
Q 2938 2591 2744 2837 
Q 2550 3084 2163 3084 
Q 1697 3084 1428 2787 
Q 1159 2491 1159 1978 
L 1159 0 
L 581 0 
L 581 3500 
L 1159 3500 
L 1159 2956 
Q 1366 3272 1645 3428 
Q 1925 3584 2291 3584 
Q 2894 3584 3203 3211 
Q 3513 2838 3513 2113 
z
" transform="scale(0.015625)"/>
       <path id="DejaVuSans-2d" d="M 313 2009 
L 1997 2009 
L 1997 1497 
L 313 1497 
L 313 2009 
z
" transform="scale(0.015625)"/>
       <path id="DejaVuSans-77" d="M 269 3500 
L 844 3500 
L 1563 769 
L 2278 3500 
L 2956 3500 
L 3675 769 
L 4391 3500 
L 4966 3500 
L 4050 0 
L 3372 0 
L 2619 2869 
L 1863 0 
L 1184 0 
L 269 3500 
z
" transform="scale(0.015625)"/>
       <path id="DejaVuSans-74" d="M 1172 4494 
L 1172 3500 
L 2356 3500 
L 2356 3053 
L 1172 3053 
L 1172 1153 
Q 1172 725 1289 603 
Q 1406 481 1766 481 
L 2356 481 
L 2356 0 
L 1766 0 
Q 1100 0 847 248 
Q 594 497 594 1153 
L 594 3053 
L 172 3053 
L 172 3500 
L 594 3500 
L 594 4494 
L 1172 4494 
z
" transform="scale(0.015625)"/>
       <path id="DejaVuSans-68" d="M 3513 2113 
L 3513 0 
L 2938 0 
L 2938 2094 
Q 2938 2591 2744 2837 
Q 2550 3084 2163 3084 
Q 1697 3084 1428 2787 
Q 1159 2491 1159 1978 
L 1159 0 
L 581 0 
L 581 4863 
L 1159 4863 
L 1159 2956 
Q 1366 3272 1645 3428 
Q 1925 3584 2291 3584 
Q 2894 3584 3203 3211 
Q 3513 2838 3513 2113 
z
" transform="scale(0.015625)"/>
       <path id="DejaVuSans-53" d="M 3425 4513 
L 3425 3897 
Q 3066 4069 2747 4153 
Q 2428 4238 2131 4238 
Q 1616 4238 1336 4038 
Q 1056 3838 1056 3469 
Q 1056 3159 1242 3001 
Q 1428 2844 1947 2747 
L 2328 2669 
Q 3034 2534 3370 2195 
Q 3706 1856 3706 1288 
Q 3706 609 3251 259 
Q 2797 -91 1919 -91 
Q 1588 -91 1214 -16 
Q 841 59 441 206 
L 441 856 
Q 825 641 1194 531 
Q 1563 422 1919 422 
Q 2459 422 2753 634 
Q 3047 847 3047 1241 
Q 3047 1584 2836 1778 
Q 2625 1972 2144 2069 
L 1759 2144 
Q 1053 2284 737 2584 
Q 422 2884 422 3419 
Q 422 4038 858 4394 
Q 1294 4750 2059 4750 
Q 2388 4750 2728 4690 
Q 3069 4631 3425 4513 
z
" transform="scale(0.015625)"/>
      </defs>
      <use xlink:href="#DejaVuSans-4e"/>
      <use xlink:href="#DejaVuSans-6f" x="74.804688"/>
      <use xlink:href="#DejaVuSans-6e" x="135.986328"/>
      <use xlink:href="#DejaVuSans-2d" x="199.365234"/>
      <use xlink:href="#DejaVuSans-77" x="235.449219"/>
      <use xlink:href="#DejaVuSans-65" x="317.236328"/>
      <use xlink:href="#DejaVuSans-74" x="378.759766"/>
      <use xlink:href="#DejaVuSans-74" x="417.96875"/>
      <use xlink:href="#DejaVuSans-69" x="457.177734"/>
      <use xlink:href="#DejaVuSans-6e" x="484.960938"/>
      <use xlink:href="#DejaVuSans-67" x="548.339844"/>
      <use xlink:href="#DejaVuSans-20" x="611.816406"/>
      <use xlink:href="#DejaVuSans-50" x="643.603516"/>
      <use xlink:href="#DejaVuSans-68" x="703.90625"/>
      <use xlink:href="#DejaVuSans-61" x="767.285156"/>
      <use xlink:href="#DejaVuSans-73" x="828.564453"/>
      <use xlink:href="#DejaVuSans-65" x="880.664062"/>
      <use xlink:href="#DejaVuSans-20" x="942.1875"/>
      <use xlink:href="#DejaVuSans-53" x="973.974609"/>
      <use xlink:href="#DejaVuSans-61" x="1037.451172"/>
      <use xlink:href="#DejaVuSans-74" x="1098.730469"/>
      <use xlink:href="#DejaVuSans-75" x="1137.939453"/>
      <use xlink:href="#DejaVuSans-72" x="1201.318359"/>
      <use xlink:href="#DejaVuSans-61" x="1242.431641"/>
      <use xlink:href="#DejaVuSans-74" x="1303.710938"/>
      <use xlink:href="#DejaVuSans-69" x="1342.919922"/>
      <use xlink:href="#DejaVuSans-6f" x="1370.703125"/>
      <use xlink:href="#DejaVuSans-6e" x="1431.884766"/>
     </g>
    </g>
   </g>
   <g id="line2d_34">
    <path d="M 125.168499 222.829773 
L 125.168499 222.762145 
L 128.805307 221.203835 
L 140.74826 221.061385 
L 136.579037 220.985124 
L 140.74826 220.957786 
L 145.131379 219.472858 
L 145.131379 219.436886 
L 149.751537 218.717444 
L 149.751537 218.383623 
L 154.635844 217.635404 
L 149.751537 217.564899 
L 154.635844 217.436838 
L 154.635844 217.277122 
L 149.751537 217.095823 
L 149.751537 216.923157 
L 145.131379 216.730346 
L 145.131379 216.655524 
L 140.74826 216.511636 
L 140.74826 216.433936 
L 145.131379 216.317387 
L 145.131379 216.278537 
L 154.635844 216.174937 
L 159.816346 215.536073 
L 159.816346 215.373479 
L 165.331298 215.233907 
L 165.331298 215.20513 
L 171.226884 215.193619 
L 171.226884 214.979225 
L 177.559566 214.972031 
L 177.559566 214.419499 
L 184.399384 214.410866 
L 184.399384 213.773441 
L 177.559566 213.715885 
L 184.399384 213.672719 
L 191.834689 213.264076 
L 191.834689 213.166232 
L 199.979145 212.744639 
L 191.834689 212.701473 
L 199.979145 212.580606 
L 191.834689 212.533123 
L 199.979145 212.474129 
L 199.979145 212.396429 
L 184.399384 212.194986 
L 184.399384 212.078436 
L 171.226884 211.859726 
L 171.226884 211.820876 
L 159.816346 211.494249 
L 159.816346 211.330217 
L 171.226884 211.189206 
L 184.399384 211.039562 
L 184.399384 210.96474 
L 199.979145 210.820852 
L 199.979145 210.751786 
L 191.834689 210.590631 
L 191.834689 210.51437 
L 184.399384 210.435231 
L 191.834689 210.403576 
L 191.834689 210.35897 
L 199.979145 210.187743 
L 199.979145 210.128749 
L 191.834689 210.025149 
L 191.834689 209.974789 
L 177.559566 209.781978 
L 177.559566 209.746006 
L 184.399384 209.648162 
L 184.399384 209.510029 
L 177.559566 209.38053 
L 177.559566 209.253908 
L 171.226884 209.092753 
L 184.399384 209.004981 
L 184.399384 208.851021 
L 191.834689 208.757493 
L 191.834689 208.610727 
L 184.399384 208.484105 
L 184.399384 208.40065 
L 171.226884 208.18194 
L 171.226884 208.085535 
L 165.331298 207.912869 
L 159.816346 207.731569 
L 159.816346 207.668258 
L 154.635844 207.501348 
L 154.635844 207.074 
L 149.751537 206.826512 
L 140.74826 206.459596 
L 140.74826 206.373263 
L 132.603804 205.983326 
L 132.603804 205.807782 
L 128.805307 205.596266 
L 128.805307 205.548783 
L 145.131379 205.210646 
L 145.131379 205.066757 
L 149.751537 204.932941 
L 149.751537 204.682575 
L 154.635844 204.553076 
L 154.635844 204.511348 
L 159.816346 204.400554 
L 159.816346 204.361704 
L 154.635844 204.186161 
L 154.635844 203.915651 
L 159.816346 203.783273 
L 159.816346 203.406286 
L 154.635844 203.338658 
L 159.816346 203.327147 
L 159.816346 203.28542 
L 171.226884 203.049443 
L 171.226884 202.994765 
L 177.559566 202.860949 
L 177.559566 202.758788 
L 199.979145 202.47245 
L 199.979145 202.335757 
L 191.834689 202.286835 
L 199.979145 202.239351 
L 199.979145 201.614876 
L 208.982423 201.60912 
L 199.979145 201.568832 
L 208.982423 201.279616 
L 208.982423 200.967378 
L 199.979145 200.827807 
L 219.047231 200.701185 
L 208.982423 200.665213 
L 219.047231 200.432114 
L 219.047231 200.085343 
L 208.982423 199.957282 
L 208.982423 199.931382 
L 199.979145 199.791811 
L 184.399384 199.512667 
L 184.399384 199.481012 
L 191.834689 199.355829 
L 191.834689 199.324174 
L 184.399384 199.178846 
L 184.399384 199.086758 
L 199.979145 198.961575 
L 191.834689 198.817687 
L 191.834689 198.750059 
L 184.399384 198.613365 
L 191.834689 198.483866 
L 191.834689 198.278105 
L 208.982423 198.095367 
L 208.982423 197.870901 
L 191.834689 197.70543 
L 191.834689 197.629169 
L 184.399384 197.499669 
L 184.399384 197.465136 
L 171.226884 197.246426 
L 171.226884 197.11261 
L 159.816346 196.840661 
L 159.816346 196.796055 
L 149.751537 196.469429 
L 149.751537 196.381657 
L 154.635844 196.283813 
L 149.751537 196.139925 
L 154.635844 196.131291 
L 149.751537 196.063664 
L 149.751537 195.911142 
L 145.131379 195.747109 
L 145.131379 195.581638 
L 154.635844 195.38595 
L 154.635844 195.292422 
L 159.816346 195.160045 
L 159.816346 195.118317 
L 165.331298 194.994573 
L 165.331298 194.643486 
L 159.816346 194.486648 
L 159.816346 194.377292 
L 154.635844 194.214699 
L 154.635844 194.098149 
L 149.751537 193.965772 
L 149.751537 193.83915 
L 154.635844 193.715406 
L 154.635844 193.673678 
L 159.816346 193.534107 
L 159.816346 193.489501 
L 165.331298 193.374391 
L 165.331298 193.302446 
L 159.816346 193.145608 
L 159.816346 193.036253 
L 154.635844 192.921142 
L 165.331298 192.804593 
L 165.331298 192.174362 
L 171.226884 192.121123 
L 165.331298 191.962846 
L 165.331298 191.902413 
L 159.816346 191.762841 
L 159.816346 191.606003 
L 171.226884 191.446287 
L 171.226884 191.264988 
L 177.559566 191.207432 
L 171.226884 191.044838 
L 177.559566 190.938361 
L 177.559566 190.82325 
L 171.226884 190.662095 
L 177.559566 190.518207 
L 177.559566 190.434752 
L 184.399384 190.357052 
L 177.559566 190.218919 
L 177.559566 190.157047 
L 184.399384 189.990137 
L 184.399384 189.948409 
L 191.834689 189.76711 
L 191.834689 189.58725 
L 184.399384 189.43185 
L 184.399384 189.348395 
L 177.559566 189.29084 
L 184.399384 189.282206 
L 184.399384 189.210262 
L 191.834689 189.149829 
L 199.979145 189.062057 
L 191.834689 188.922485 
L 191.834689 188.846225 
L 184.399384 188.700897 
L 184.399384 188.618881 
L 177.559566 188.489381 
L 165.331298 188.172827 
L 149.751537 187.713823 
L 149.751537 187.443313 
L 191.834689 187.020282 
L 208.982423 186.882149 
L 208.982423 186.456239 
L 199.979145 186.318106 
L 199.979145 186.289329 
L 191.834689 186.151196 
L 199.979145 186.148318 
L 191.834689 186.054791 
L 191.834689 186.010185 
L 177.559566 185.818814 
L 177.559566 185.520965 
L 165.331298 185.29506 
L 177.559566 185.194338 
L 177.559566 185.110883 
L 184.399384 184.99865 
L 177.559566 184.905123 
L 219.047231 184.556913 
L 208.982423 184.520941 
L 219.047231 184.417341 
L 208.982423 184.293597 
L 219.047231 184.236042 
L 199.979145 183.989993 
L 199.979145 183.946827 
L 184.399384 183.738188 
L 184.399384 183.689266 
L 171.226884 183.464801 
L 171.226884 183.348251 
L 177.559566 183.260479 
L 177.559566 182.952558 
L 165.331298 182.71802 
L 165.331298 182.676292 
L 177.559566 182.515138 
L 177.559566 182.482043 
L 184.399384 182.389955 
L 184.399384 182.227361 
L 177.559566 182.169806 
L 184.399384 182.16405 
L 191.834689 182.051817 
L 191.834689 181.979873 
L 199.979145 181.848935 
L 199.979145 181.673391 
L 208.982423 181.565475 
L 208.982423 181.546769 
L 219.047231 181.543891 
L 208.982423 181.450364 
L 208.982423 181.412953 
L 191.834689 181.237409 
L 191.834689 181.100715 
L 219.047231 180.935244 
L 219.047231 180.892077 
L 230.457769 180.884883 
L 208.982423 180.487751 
L 208.982423 180.438829 
L 219.047231 180.349618 
L 199.979145 180.178391 
L 199.979145 180.109324 
L 184.399384 179.910759 
L 184.399384 179.879103 
L 191.834689 179.745287 
L 191.834689 179.704998 
L 219.047231 179.558232 
L 219.047231 179.540966 
L 230.457769 179.19995 
L 230.457769 178.435903 
L 219.047231 178.294893 
L 219.047231 178.279065 
L 230.457769 178.126543 
L 219.047231 177.989849 
L 219.047231 177.927977 
L 230.457769 177.799917 
L 230.457769 177.644517 
L 191.834689 177.33228 
L 191.834689 177.284796 
L 171.226884 177.070403 
L 154.635844 176.808526 
L 154.635844 176.761043 
L 208.982423 176.641615 
L 230.457769 176.507799 
L 219.047231 176.327939 
L 219.047231 176.207073 
L 199.979145 175.996996 
L 199.979145 175.845913 
L 191.834689 175.763897 
L 199.979145 175.761019 
L 199.979145 175.451659 
L 191.834689 175.362448 
L 199.979145 175.353815 
L 199.979145 175.312087 
L 208.982423 175.16676 
L 208.982423 175.104888 
L 191.834689 174.916394 
L 191.834689 174.863156 
L 208.982423 174.714951 
L 208.982423 174.696245 
L 219.047231 174.57394 
L 219.047231 174.545162 
L 230.457769 174.409907 
L 208.982423 174.235802 
L 208.982423 174.012775 
L 230.457769 173.884715 
L 219.047231 173.743704 
L 219.047231 173.724999 
L 199.979145 173.573916 
L 199.979145 173.50485 
L 208.982423 173.378228 
L 208.982423 173.248728 
L 230.457769 173.163834 
L 230.457769 173.009874 
L 208.982423 172.850158 
L 208.982423 172.812747 
L 191.834689 172.647275 
L 191.834689 172.396909 
L 184.399384 172.284677 
L 184.399384 172.155177 
L 199.979145 172.034311 
L 199.979145 171.876034 
L 191.834689 171.756606 
L 199.979145 171.755167 
L 191.834689 171.660201 
L 191.834689 171.592574 
L 184.399384 171.445807 
L 184.399384 171.165225 
L 177.559566 170.960904 
L 199.979145 170.782482 
L 199.979145 170.737877 
L 208.982423 170.617011 
L 208.982423 170.417006 
L 199.979145 170.375278 
L 208.982423 170.307651 
L 208.982423 170.271679 
L 219.047231 170.260168 
L 208.982423 170.224195 
L 219.047231 170.136424 
L 208.982423 169.998291 
L 208.982423 169.93498 
L 191.834689 169.770947 
L 191.834689 169.720586 
L 219.047231 169.54792 
L 219.047231 169.473098 
L 230.457769 169.427054 
L 219.047231 169.375254 
L 219.047231 169.359427 
L 191.834689 169.195394 
L 191.834689 169.150788 
L 208.982423 169.055822 
L 219.047231 168.936395 
L 219.047231 168.850062 
L 230.457769 168.724879 
L 219.047231 168.599696 
L 230.457769 168.477391 
L 219.047231 168.339258 
L 199.979145 168.155081 
L 199.979145 168.064431 
L 184.399384 167.854354 
L 171.226884 167.629889 
L 171.226884 167.562261 
L 159.816346 167.347868 
L 159.816346 167.270168 
L 154.635844 167.114768 
L 154.635844 167.065846 
L 149.751537 166.883108 
L 149.751537 166.658642 
L 145.131379 166.467271 
L 145.131379 166.337771 
L 136.579037 165.950712 
L 136.579037 165.890279 
L 132.603804 165.724807 
L 125.168499 165.340625 
L 128.805307 165.301775 
L 125.168499 165.108965 
L 125.168499 164.916155 
L 132.603804 164.798166 
L 140.74826 164.588089 
L 140.74826 164.536289 
L 171.226884 164.12333 
L 171.226884 164.094552 
L 177.559566 163.95498 
L 177.559566 163.885914 
L 199.979145 163.612526 
L 199.979145 163.588065 
L 208.982423 163.445616 
L 208.982423 163.356405 
L 191.834689 163.167911 
L 191.834689 163.09165 
L 184.399384 162.953518 
L 184.399384 162.573652 
L 177.559566 162.444153 
L 171.226884 162.326164 
L 177.559566 162.231198 
L 171.226884 162.084432 
L 171.226884 162.044143 
L 165.331298 161.877233 
L 159.816346 161.760683 
L 177.559566 161.552045 
L 177.559566 161.434057 
L 171.226884 161.27578 
L 171.226884 161.177935 
L 165.331298 161.003831 
L 154.635844 160.792315 
L 159.816346 160.780804 
L 154.635844 160.714615 
L 154.635844 160.288706 
L 165.331298 160.105967 
L 165.331298 160.068556 
L 191.834689 159.786535 
L 191.834689 159.671425 
L 208.982423 159.482931 
L 208.982423 159.308826 
L 184.399384 158.99371 
L 184.399384 158.910255 
L 177.559566 158.766367 
L 177.559566 158.711689 
L 191.834689 158.572118 
L 191.834689 158.382185 
L 184.399384 158.269952 
L 184.399384 158.187936 
L 177.559566 158.039731 
L 191.834689 157.836848 
L 191.834689 157.507344 
L 199.979145 157.482883 
L 191.834689 157.439716 
L 191.834689 157.395111 
L 199.979145 157.392233 
L 191.834689 157.298706 
L 191.834689 157.2541 
L 177.559566 157.062729 
L 177.559566 156.949057 
L 165.331298 156.714519 
L 165.331298 156.642575 
L 159.816346 156.458398 
L 159.816346 156.412354 
L 154.635844 156.297243 
L 154.635844 156.177816 
L 149.751537 156.095799 
L 154.635844 156.084288 
L 154.635844 156.039683 
L 191.834689 155.491468 
L 191.834689 155.396502 
L 208.982423 155.248297 
L 208.982423 154.936059 
L 199.979145 154.783538 
L 208.982423 154.751882 
L 219.047231 154.616627 
L 219.047231 154.376334 
L 230.457769 154.361945 
L 219.047231 154.331728 
L 230.457769 154.210862 
L 230.457769 154.082801 
L 219.047231 153.948985 
L 219.047231 153.879919 
L 208.982423 153.727397 
L 208.982423 153.665525 
L 219.047231 153.564803 
L 219.047231 153.495737 
L 208.982423 153.356165 
L 208.982423 153.318754 
L 191.834689 153.134577 
L 191.834689 153.039611 
L 177.559566 152.846801 
L 177.559566 152.747518 
L 171.226884 152.67989 
L 177.559566 152.674134 
L 177.559566 152.560463 
L 219.047231 152.31873 
L 230.457769 152.166209 
L 208.982423 151.992104 
L 208.982423 151.951815 
L 191.834689 151.767638 
L 191.834689 151.669794 
L 184.399384 151.541733 
L 208.982423 151.426623 
L 230.457769 151.30144 
L 230.457769 151.239568 
L 208.982423 151.062585 
L 208.982423 150.974813 
L 191.834689 150.812219 
L 191.834689 150.735959 
L 184.399384 150.65682 
L 191.834689 150.635237 
L 219.047231 150.471204 
L 219.047231 150.261127 
L 230.457769 150.235227 
L 219.047231 150.1676 
L 219.047231 150.016517 
L 199.979145 149.843851 
L 199.979145 149.747446 
L 208.982423 149.639529 
L 191.834689 149.597802 
L 219.047231 149.553196 
L 199.979145 149.381969 
L 199.979145 149.284125 
L 177.559566 148.971887 
L 177.559566 148.91721 
L 159.816346 148.525834 
L 159.816346 148.455328 
L 149.751537 148.138774 
L 149.751537 148.063952 
L 145.131379 147.920064 
L 145.131379 147.842364 
L 140.74826 147.694159 
L 140.74826 147.610704 
L 136.579037 147.459621 
L 136.579037 147.373288 
L 132.603804 147.200622 
L 132.603804 147.108533 
L 128.805307 146.94594 
L 154.635844 146.753129 
L 154.635844 146.691257 
L 177.559566 146.504202 
L 184.399384 146.348803 
L 184.399384 146.190526 
L 199.979145 146.058149 
L 199.979145 145.882605 
L 184.399384 145.679722 
L 184.399384 145.563173 
L 171.226884 145.344462 
L 171.226884 145.168919 
L 177.559566 145.032225 
L 177.559566 144.960281 
L 199.979145 144.766031 
L 199.979145 144.616387 
L 191.834689 144.465305 
L 191.834689 144.374655 
L 184.399384 144.327172 
L 191.834689 144.286883 
L 208.982423 144.227889 
L 208.982423 144.09695 
L 219.047231 143.978962 
L 208.982423 143.94299 
L 219.047231 143.849463 
L 208.982423 143.73723 
L 219.047231 143.610608 
L 219.047231 143.507008 
L 199.979145 143.335781 
L 199.979145 143.279665 
L 177.559566 143.088293 
L 177.559566 143.060954 
L 171.226884 143.007716 
L 177.559566 142.977499 
L 219.047231 142.843683 
L 219.047231 142.793322 
L 184.399384 142.548712 
L 230.457769 142.472451 
L 230.457769 142.35734 
L 219.047231 142.321368 
L 230.457769 142.271007 
L 230.457769 142.212013 
L 208.982423 142.052297 
L 208.982423 141.988986 
L 191.834689 141.824954 
L 191.834689 141.774593 
L 184.399384 141.694015 
L 191.834689 141.663799 
L 191.834689 141.640777 
L 199.979145 141.504083 
L 199.979145 141.462355 
L 208.982423 141.344367 
L 208.982423 141.171701 
L 219.047231 141.047957 
L 219.047231 141.01774 
L 191.834689 140.842196 
L 230.457769 140.774569 
L 219.047231 140.742913 
L 230.457769 140.650825 
L 219.047231 140.614853 
L 230.457769 140.561614 
L 230.457769 140.527081 
L 208.982423 140.367365 
L 208.982423 140.329954 
L 191.834689 140.164482 
L 199.979145 140.056566 
L 199.979145 139.892533 
L 184.399384 139.620584 
L 171.226884 139.321296 
L 159.816346 139.026325 
L 159.816346 138.98172 
L 154.635844 138.85222 
L 159.816346 138.806176 
L 154.635844 138.738549 
L 159.816346 138.727038 
L 219.047231 138.482427 
L 219.047231 138.4666 
L 230.457769 138.348611 
L 208.982423 138.17019 
L 191.834689 138.024862 
L 191.834689 137.971624 
L 184.399384 137.866585 
L 184.399384 137.701114 
L 191.834689 137.562981 
L 191.834689 137.518376 
L 184.399384 137.42197 
L 191.834689 137.419093 
L 191.834689 137.375926 
L 219.047231 137.282399 
L 230.457769 137.175921 
L 219.047231 137.139949 
L 230.457769 137.09966 
L 230.457769 137.0493 
L 191.834689 136.856489 
L 199.979145 136.846417 
L 230.457769 136.80325 
L 219.047231 136.731306 
L 219.047231 136.433457 
L 208.982423 136.296764 
L 208.982423 136.278058 
L 219.047231 136.161508 
L 219.047231 136.131292 
L 230.457769 136.023376 
L 230.457769 135.96582 
L 208.982423 135.784521 
L 191.834689 135.639194 
L 191.834689 135.522644 
L 184.399384 135.378756 
L 184.399384 135.29674 
L 177.559566 135.093857 
L 177.559566 134.906802 
L 171.226884 134.744208 
L 171.226884 134.70392 
L 165.331298 134.557153 
L 165.331298 134.208944 
L 159.816346 134.063616 
L 165.331298 133.965772 
L 165.331298 133.928361 
L 171.226884 133.834834 
L 165.331298 133.67224 
L 165.331298 133.570079 
L 159.816346 133.38878 
L 159.816346 133.342736 
L 154.635844 133.227625 
L 154.635844 133.15712 
L 149.751537 132.981576 
L 159.816346 132.78301 
L 159.816346 132.493795 
L 154.635844 132.331201 
L 154.635844 132.006013 
L 171.226884 131.800253 
L 171.226884 131.736942 
L 219.047231 131.298083 
L 219.047231 131.220383 
L 199.979145 131.049156 
L 199.979145 130.975773 
L 184.399384 130.795912 
L 184.399384 130.700946 
L 191.834689 130.610296 
L 191.834689 130.536913 
L 199.979145 130.420364 
L 199.979145 130.355614 
L 208.982423 130.286548 
L 199.979145 130.24482 
L 208.982423 130.14122 
L 199.979145 130.003087 
L 199.979145 129.952727 
L 219.047231 129.827544 
L 208.982423 129.69085 
L 219.047231 129.630417 
L 230.457769 129.40739 
L 230.457769 129.332568 
L 219.047231 129.185802 
L 208.982423 129.057741 
L 208.982423 129.031841 
L 199.979145 128.893708 
L 199.979145 128.864931 
L 191.834689 128.76277 
L 199.979145 128.754137 
L 199.979145 128.733992 
L 219.047231 128.580032 
L 219.047231 128.55701 
L 199.979145 128.387221 
L 199.979145 128.290816 
L 191.834689 128.164194 
L 184.399384 128.00304 
L 208.982423 127.862029 
L 208.982423 127.687924 
L 191.834689 127.52533 
L 191.834689 127.449069 
L 177.559566 127.256259 
L 177.559566 127.156976 
L 165.331298 126.923877 
L 165.331298 126.856249 
L 199.979145 126.715239 
L 199.979145 126.676389 
L 208.982423 126.577106 
L 208.982423 126.480701 
L 230.457769 126.316668 
L 243.630269 126.230335 
L 230.457769 126.083569 
L 243.630269 125.59291 
L 219.047231 125.413049 
L 219.047231 125.378516 
L 199.979145 125.230311 
L 199.979145 125.181389 
L 184.399384 125.004407 
L 184.399384 124.94829 
L 171.226884 124.723824 
L 171.226884 124.551158 
L 165.331298 124.364103 
L 165.331298 124.260504 
L 154.635844 123.951144 
L 165.331298 123.828839 
L 165.331298 123.477751 
L 159.816346 123.339618 
L 159.816346 123.276308 
L 154.635844 123.123786 
L 154.635844 123.056158 
L 149.751537 122.919464 
L 154.635844 122.830254 
L 154.635844 122.73241 
L 199.979145 122.207217 
L 199.979145 121.91944 
L 219.047231 121.787063 
L 208.982423 121.699291 
L 219.047231 121.682025 
L 219.047231 121.646053 
L 208.982423 121.517992 
L 208.982423 121.479142 
L 230.457769 121.345326 
L 230.457769 121.284893 
L 219.047231 121.149638 
L 219.047231 121.00575 
L 230.457769 120.971216 
L 243.630269 120.54099 
L 243.630269 120.086303 
L 208.982423 119.776943 
L 208.982423 119.739532 
L 191.834689 119.574061 
L 191.834689 119.520822 
L 184.399384 119.391322 
L 165.331298 118.997068 
L 149.751537 118.545259 
L 149.751537 118.456048 
L 132.603804 117.77114 
L 132.603804 117.60279 
L 136.579037 117.490557 
L 136.579037 116.989826 
L 140.74826 116.850254 
L 140.74826 116.707805 
L 149.751537 116.525067 
L 149.751537 116.379739 
L 154.635844 116.25024 
L 154.635844 116.123618 
L 159.816346 116.007069 
L 154.635844 115.939441 
L 159.816346 115.92793 
L 159.816346 115.894836 
L 177.559566 115.707781 
L 177.559566 115.658859 
L 191.834689 115.421443 
L 191.834689 115.332232 
L 199.979145 115.232949 
L 191.834689 115.078989 
L 191.834689 115.0387 
L 230.457769 114.841573 
L 243.630269 114.737973 
L 230.457769 114.582574 
L 230.457769 114.490485 
L 219.047231 114.395519 
L 230.457769 114.389764 
L 230.457769 114.340842 
L 243.630269 114.212781 
L 243.630269 113.935076 
L 219.047231 113.804138 
L 219.047231 113.771044 
L 184.399384 113.409884 
L 184.399384 113.27319 
L 191.834689 113.149446 
L 191.834689 112.991169 
L 184.399384 112.878936 
L 184.399384 112.336477 
L 199.979145 112.21705 
L 199.979145 111.867401 
L 219.047231 111.71344 
L 208.982423 111.677468 
L 219.047231 111.629985 
L 219.047231 111.35372 
L 208.982423 111.287531 
L 219.047231 111.268825 
L 243.630269 111.091843 
L 243.630269 111.002632 
L 219.047231 110.778166 
L 184.399384 110.401179 
L 184.399384 110.366646 
L 171.226884 110.061602 
L 171.226884 109.634254 
L 165.331298 109.463027 
L 165.331298 109.402594 
L 159.816346 109.222733 
L 159.816346 109.048628 
L 154.635844 108.933518 
L 154.635844 108.863012 
L 149.751537 108.72488 
L 149.751537 108.650058 
L 145.131379 108.506169 
L 145.131379 108.373792 
L 140.74826 108.232781 
L 140.74826 108.039971 
L 145.131379 107.883133 
L 145.131379 107.7709 
L 149.751537 107.627012 
L 149.751537 107.334918 
L 165.331298 107.037069 
L 165.331298 106.963686 
L 177.559566 106.775193 
L 177.559566 106.337772 
L 171.226884 106.175178 
L 171.226884 106.134889 
L 184.399384 105.969418 
L 184.399384 105.937762 
L 191.834689 105.78668 
L 191.834689 105.757902 
L 208.982423 105.625525 
L 208.982423 105.569408 
L 219.047231 105.416887 
L 219.047231 105.287387 
L 199.979145 105.140621 
L 208.982423 105.134865 
L 208.982423 105.09026 
L 219.047231 104.972272 
L 219.047231 104.904644 
L 230.457769 104.749245 
L 230.457769 104.596723 
L 243.630269 104.531973 
L 208.982423 104.21398 
L 184.399384 103.910376 
L 165.331298 103.503172 
L 154.635844 103.160717 
L 154.635844 103.012512 
L 149.751537 102.829774 
L 149.751537 102.75783 
L 145.131379 102.615381 
L 145.131379 102.483003 
L 140.74826 102.316093 
L 140.74826 102.182277 
L 136.579037 101.988027 
L 136.579037 101.849895 
L 132.603804 101.647012 
L 132.603804 101.55924 
L 128.805307 101.395207 
L 128.805307 101.300241 
L 125.168499 101.196642 
L 149.751537 100.894476 
L 149.751537 100.842676 
L 154.635844 100.703105 
L 154.635844 100.612455 
L 159.816346 100.474322 
L 159.816346 100.415328 
L 177.559566 100.173595 
L 177.559566 100.019635 
L 184.399384 99.867113 
L 184.399384 99.764953 
L 191.834689 99.610992 
L 191.834689 99.518904 
L 208.982423 99.413865 
L 208.982423 99.350554 
L 219.047231 99.210982 
L 219.047231 99.087239 
L 230.457769 98.987956 
L 243.630269 98.884356 
L 219.047231 98.68579 
L 219.047231 98.60809 
L 199.979145 98.436863 
L 199.979145 98.395136 
L 171.226884 97.960593 
L 171.226884 97.898721 
L 154.635844 97.44835 
L 140.74826 96.944741 
L 140.74826 96.848336 
L 132.603804 96.576387 
L 132.603804 96.43106 
L 136.579037 96.284294 
L 136.579037 96.223861 
L 145.131379 96.064144 
L 145.131379 95.936084 
L 159.816346 95.74759 
L 171.226884 95.497224 
L 171.226884 94.887138 
L 199.979145 94.655478 
L 199.979145 94.357629 
L 191.834689 94.307268 
L 199.979145 94.256907 
L 199.979145 94.231007 
L 208.982423 94.092874 
L 208.982423 94.022369 
L 191.834689 93.856897 
L 191.834689 93.780636 
L 177.559566 93.613726 
L 177.559566 93.271272 
L 171.226884 93.205083 
L 177.559566 93.176305 
L 177.559566 92.884212 
L 171.226884 92.738885 
L 171.226884 92.682768 
L 165.331298 92.618019 
L 171.226884 92.600752 
L 171.226884 92.514419 
L 177.559566 92.403625 
L 177.559566 92.325925 
L 184.399384 92.297148 
L 177.559566 92.21657 
L 177.559566 92.166209 
L 184.399384 92.055415 
L 184.399384 91.93311 
L 165.331298 91.843899 
L 177.559566 91.813683 
L 177.559566 91.573389 
L 208.982423 91.449645 
L 219.047231 91.281296 
L 219.047231 91.092802 
L 199.979145 90.924453 
L 199.979145 90.79927 
L 191.834689 90.689915 
L 208.982423 90.548904 
L 208.982423 90.487032 
L 199.979145 90.351777 
L 199.979145 90.31005 
L 191.834689 90.161845 
L 219.047231 90.048173 
L 219.047231 89.83234 
L 208.982423 89.682697 
L 219.047231 89.610752 
L 230.457769 89.415064 
L 230.457769 89.354631 
L 208.982423 89.177648 
L 208.982423 89.158943 
L 230.457769 89.07261 
L 219.047231 88.954622 
L 219.047231 88.920088 
L 199.979145 88.747422 
L 199.979145 88.674039 
L 154.635844 88.36324 
L 154.635844 88.337341 
L 149.751537 88.266835 
L 159.816346 88.24813 
L 208.982423 88.06683 
L 208.982423 87.917187 
L 191.834689 87.741643 
L 191.834689 87.695599 
L 177.559566 87.528688 
L 177.559566 87.465377 
L 165.331298 87.215011 
L 171.226884 87.141628 
L 165.331298 86.981912 
L 165.331298 86.679747 
L 154.635844 86.463914 
L 154.635844 86.371826 
L 145.131379 86.184771 
L 145.131379 86.135849 
L 140.74826 86.048077 
L 145.131379 86.036566 
L 191.834689 85.938722 
L 243.630269 85.563173 
L 230.457769 85.449502 
L 219.047231 85.304174 
L 243.630269 85.202014 
L 243.630269 85.108486 
L 219.047231 84.958842 
L 219.047231 84.902726 
L 208.982423 84.771787 
L 177.559566 84.376095 
L 165.331298 84.063857 
L 165.331298 83.907019 
L 159.816346 83.764569 
L 159.816346 83.748741 
L 154.635844 83.725719 
L 177.559566 83.717086 
L 243.630269 83.462404 
L 219.047231 83.31276 
L 219.047231 83.200527 
L 208.982423 83.052322 
L 208.982423 82.682529 
L 259.21003 82.589001 
L 230.457769 82.232158 
L 208.982423 82.04942 
L 208.982423 82.02352 
L 219.047231 81.931432 
L 208.982423 81.919921 
L 208.982423 81.911287 
L 199.979145 81.873876 
L 219.047231 81.826393 
L 219.047231 81.816321 
L 219.047231 81.80481 
L 243.630269 81.732866 
L 230.457769 81.686821 
L 230.457769 81.637899 
L 208.982423 81.478183 
L 208.982423 81.440772 
L 191.834689 81.275301 
L 191.834689 81.19904 
L 177.559566 81.004791 
L 177.559566 80.971696 
L 165.331298 80.814858 
L 165.331298 80.780325 
L 149.751537 80.60622 
L 149.751537 80.574565 
L 136.579037 80.453698 
L 140.74826 80.432115 
L 199.979145 80.268082 
L 230.457769 80.262327 
L 259.21003 79.529935 
L 199.979145 79.026326 
L 199.979145 78.977404 
L 184.399384 78.800421 
L 184.399384 78.744305 
L 171.226884 78.5443 
L 171.226884 78.476673 
L 165.331298 78.306884 
L 171.226884 78.150046 
L 171.226884 78.045008 
L 177.559566 77.908314 
L 177.559566 77.875219 
L 219.047231 77.440676 
L 219.047231 77.411899 
L 208.982423 77.270888 
L 208.982423 76.925556 
L 191.834689 76.73994 
L 191.834689 76.709724 
L 177.559566 76.447847 
L 171.226884 76.265109 
L 171.226884 76.206115 
L 165.331298 76.040643 
L 165.331298 75.918338 
L 159.816346 75.778766 
L 159.816346 75.7097 
L 154.635844 75.56725 
L 154.635844 75.354296 
L 149.751537 75.223357 
L 165.331298 75.108246 
L 165.331298 75.096735 
L 171.226884 74.996014 
L 171.226884 74.941336 
L 177.559566 74.831981 
L 177.559566 74.69097 
L 171.226884 74.526938 
L 171.226884 74.430532 
L 165.331298 74.256427 
L 159.816346 74.078006 
L 154.635844 73.911095 
L 154.635844 73.549936 
L 191.834689 73.039132 
L 191.834689 72.967188 
L 199.979145 72.922583 
L 191.834689 72.879416 
L 191.834689 72.775816 
L 184.399384 72.728333 
L 191.834689 72.689483 
L 199.979145 72.551351 
L 199.979145 72.512501 
L 208.982423 72.437679 
L 199.979145 72.398829 
L 208.982423 72.334079 
L 208.982423 72.285157 
L 219.047231 72.234796 
L 219.047231 72.065008 
L 208.982423 72.02328 
L 219.047231 71.95997 
L 219.047231 71.890903 
L 199.979145 71.721115 
L 199.979145 71.62471 
L 184.399384 71.450605 
L 184.399384 71.394488 
L 177.559566 71.240528 
L 177.559566 71.210311 
L 184.399384 71.089445 
L 184.399384 70.841957 
L 177.559566 70.712458 
L 177.559566 70.623247 
L 171.226884 70.47792 
L 171.226884 70.421803 
L 165.331298 70.357053 
L 171.226884 70.312448 
L 171.226884 70.285109 
L 191.834689 70.086543 
L 191.834689 70.041938 
L 199.979145 69.908122 
L 199.979145 69.805961 
L 184.399384 69.608834 
L 191.834689 69.508112 
L 191.834689 69.349835 
L 184.399384 69.204508 
L 184.399384 69.157025 
L 171.226884 68.875004 
L 171.226884 68.741187 
L 165.331298 68.592982 
L 140.74826 68.095129 
L 125.168499 67.949801 
L 136.579037 67.946924 
L 208.982423 67.830374 
L 219.047231 67.692241 
L 219.047231 67.646197 
L 177.559566 67.388637 
L 149.751537 67.020283 
L 154.635844 66.926755 
L 154.635844 66.398685 
L 149.751537 66.266308 
L 149.751537 66.191486 
L 145.131379 66.100836 
L 149.751537 66.092203 
L 149.751537 66.013064 
L 177.559566 65.713777 
L 177.559566 65.663416 
L 184.399384 65.539672 
L 184.399384 65.513772 
L 177.559566 65.456217 
L 184.399384 65.418806 
L 230.457769 65.067718 
L 230.457769 64.854763 
L 208.982423 64.684975 
L 208.982423 64.623103 
L 191.834689 64.447559 
L 191.834689 64.379932 
L 177.559566 64.184244 
L 177.559566 64.093594 
L 165.331298 63.859056 
L 165.331298 63.743945 
L 159.816346 63.604374 
L 171.226884 63.495018 
L 171.226884 63.230264 
L 199.979145 62.916587 
L 199.979145 62.657588 
L 177.559566 62.299306 
L 171.226884 62.11369 
L 177.559566 62.107935 
L 171.226884 62.051818 
L 171.226884 61.939585 
L 177.559566 61.930952 
L 171.226884 61.874836 
L 171.226884 61.778431 
L 219.047231 61.437415 
L 219.047231 61.169783 
L 199.979145 60.999995 
L 199.979145 60.972656 
L 191.834689 60.830206 
L 219.047231 60.70934 
L 219.047231 60.633079 
L 230.457769 60.476241 
L 230.457769 60.456097 
L 219.047231 60.420125 
L 230.457769 60.379836 
L 243.630269 60.353936 
L 230.457769 60.27192 
L 230.457769 60.204292 
L 208.982423 60.030187 
L 208.982423 59.933782 
L 191.834689 59.758238 
L 191.834689 59.684855 
L 208.982423 59.529456 
L 208.982423 59.425856 
L 199.979145 59.274773 
L 208.982423 59.148152 
L 208.982423 59.050308 
L 219.047231 58.958219 
L 199.979145 58.788431 
L 199.979145 58.692026 
L 184.399384 58.517921 
L 184.399384 58.263238 
L 230.457769 58.175466 
L 243.630269 58.089133 
L 230.457769 58.061795 
L 243.630269 57.972584 
L 230.457769 57.837329 
L 230.457769 57.765385 
L 208.982423 57.602791 
L 208.982423 57.56538 
L 191.834689 57.420053 
L 191.834689 57.366814 
L 177.559566 57.198465 
L 177.559566 57.035871 
L 184.399384 56.889105 
L 184.399384 56.795577 
L 191.834689 56.712122 
L 191.834689 56.645933 
L 184.399384 56.519312 
L 184.399384 56.435856 
L 177.559566 56.378301 
L 184.399384 56.369668 
L 184.399384 56.297724 
L 191.834689 56.169663 
L 191.834689 56.116424 
L 199.979145 55.976853 
L 199.979145 55.949514 
L 208.982423 55.808503 
L 208.982423 55.49051 
L 243.630269 55.2977 
L 243.630269 54.963879 
L 219.047231 54.838696 
L 208.982423 54.759557 
L 219.047231 54.755241 
L 243.630269 54.645885 
L 219.047231 54.493364 
L 199.979145 54.313503 
L 184.399384 54.101988 
L 184.399384 53.98256 
L 199.979145 53.855938 
L 199.979145 53.78975 
L 243.630269 53.667445 
L 259.21003 53.090453 
L 219.047231 52.850159 
L 219.047231 52.794043 
L 199.979145 52.615621 
L 184.399384 52.404105 
L 184.399384 52.335039 
L 177.559566 52.205539 
L 219.047231 51.973879 
L 219.047231 51.893302 
L 208.982423 51.765241 
L 208.982423 51.70193 
L 191.834689 51.539336 
L 191.834689 51.463075 
L 199.979145 51.35372 
L 199.979145 51.28897 
L 243.630269 51.140765 
L 243.630269 51.114866 
L 230.457769 50.983927 
L 230.457769 50.863061 
L 199.979145 50.60694 
L 199.979145 50.559457 
L 208.982423 50.486074 
L 199.979145 50.360891 
L 199.979145 50.290385 
L 184.399384 50.110525 
L 184.399384 50.061603 
L 177.559566 49.926348 
L 230.457769 49.770948 
L 230.457769 49.75656 
L 243.630269 49.642888 
L 243.630269 49.616988 
L 230.457769 49.589649 
L 259.21003 49.080284 
L 230.457769 48.916252 
L 208.982423 48.683153 
L 208.982423 48.657253 
L 199.979145 48.504731 
L 184.399384 48.329187 
L 184.399384 48.273071 
L 177.559566 48.137816 
L 243.630269 47.969466 
L 259.21003 47.542118 
L 219.047231 47.369452 
L 230.457769 47.26873 
L 230.457769 47.250025 
L 243.630269 47.205419 
L 259.21003 46.887426 
L 230.457769 46.739221 
L 230.457769 46.660083 
L 243.630269 46.556483 
L 243.630269 46.41835 
L 219.047231 46.248562 
L 243.630269 46.19964 
L 259.21003 45.924813 
L 243.630269 45.893158 
L 259.21003 45.657181 
L 243.630269 45.569409 
L 259.21003 45.389548 
L 243.630269 45.221199 
L 243.630269 45.130549 
L 230.457769 44.947811 
L 230.457769 44.907523 
L 243.630269 44.881623 
L 230.457769 44.806801 
L 219.047231 44.668668 
L 219.047231 44.651401 
L 243.630269 44.560752 
L 259.21003 44.422619 
L 230.457769 44.221175 
L 230.457769 44.091676 
L 219.047231 44.052826 
L 230.457769 44.005343 
L 243.630269 43.937715 
L 230.457769 43.910376 
L 230.457769 43.765049 
L 208.982423 43.549217 
L 208.982423 43.523317 
L 199.979145 43.412523 
L 177.559566 43.041291 
L 184.399384 42.920425 
L 184.399384 42.606748 
L 165.331298 42.196666 
L 159.816346 42.070044 
L 171.226884 41.950617 
L 171.226884 41.812484 
L 184.399384 41.659963 
L 184.399384 41.628307 
L 243.630269 41.320386 
L 259.21003 41.183692 
L 219.047231 40.844116 
L 219.047231 40.613894 
L 208.982423 40.510295 
L 243.630269 40.399501 
L 259.21003 40.298779 
L 243.630269 40.25849 
L 259.21003 40.061363 
L 243.630269 39.911719 
L 243.630269 39.790853 
L 259.21003 39.697326 
L 230.457769 39.573582 
L 230.457769 39.540487 
L 199.979145 39.331849 
L 199.979145 39.282927 
L 184.399384 39.128967 
L 191.834689 39.015295 
L 191.834689 38.98364 
L 184.399384 38.855579 
L 184.399384 38.821046 
L 171.226884 38.602335 
L 171.226884 38.50593 
L 165.331298 38.333264 
L 165.331298 38.290098 
L 184.399384 38.130382 
L 184.399384 38.12031 
L 230.457769 37.963471 
L 230.457769 37.749078 
L 259.21003 37.648356 
L 259.21003 37.363457 
L 230.457769 37.223885 
L 259.21003 37.193669 
L 243.630269 37.120286 
L 243.630269 37.103019 
L 219.047231 36.953375 
L 219.047231 36.852653 
L 208.982423 36.724593 
L 208.982423 36.646893 
L 184.399384 36.334655 
L 184.399384 36.218106 
L 191.834689 36.081412 
L 191.834689 35.892918 
L 199.979145 35.826729 
L 191.834689 35.675647 
L 199.979145 35.55478 
L 199.979145 35.410892 
L 184.399384 35.209448 
L 171.226884 34.94901 
L 171.226884 34.887138 
L 165.331298 34.692889 
L 165.331298 34.561951 
L 159.816346 34.423818 
L 159.816346 34.360507 
L 154.635844 34.207986 
L 154.635844 34.140358 
L 149.751537 33.966253 
L 149.751537 33.914453 
L 140.74826 33.652577 
L 140.74826 33.092851 
L 165.331298 32.918746 
L 165.331298 32.889968 
L 171.226884 32.783491 
L 184.399384 32.56622 
L 184.399384 32.521614 
L 191.834689 32.379165 
L 191.834689 32.312976 
L 199.979145 32.182038 
L 191.834689 32.138871 
L 199.979145 32.112971 
L 199.979145 32.015127 
L 208.982423 31.885628 
L 208.982423 31.738862 
L 219.047231 31.617995 
L 219.047231 31.353241 
L 199.979145 31.182014 
L 199.979145 31.112947 
L 171.226884 30.701427 
L 171.226884 30.596388 
L 184.399384 30.409333 
L 184.399384 30.384872 
L 199.979145 30.248178 
L 199.979145 30.228034 
L 208.982423 30.120118 
L 208.982423 30.084146 
L 219.047231 30.02659 
L 208.982423 29.990618 
L 208.982423 29.931624 
L 191.834689 29.766152 
L 191.834689 29.689892 
L 184.399384 29.554637 
L 184.399384 29.521542 
L 230.457769 29.394921 
L 219.047231 29.358948 
L 230.457769 29.295638 
L 230.457769 29.219377 
L 259.21003 29.134483 
L 243.630269 29.020811 
L 259.21003 28.871167 
L 259.21003 28.845267 
L 243.630269 28.705695 
L 243.630269 28.666845 
L 230.457769 28.592024 
L 243.630269 28.574757 
L 259.21003 28.469718 
L 278.278116 27.922943 
L 243.630269 27.796321 
L 208.982423 27.561783 
L 208.982423 27.537322 
L 199.979145 27.459622 
L 208.982423 27.448111 
L 219.047231 27.343073 
L 219.047231 27.327245 
L 259.21003 27.174723 
L 278.278116 26.881191 
L 259.21003 26.862486 
L 278.278116 26.694136 
L 259.21003 26.556004 
L 259.21003 26.511398 
L 208.982423 26.22506 
L 208.982423 26.181894 
L 199.979145 26.138727 
L 208.982423 26.08405 
L 219.047231 25.963184 
L 219.047231 25.931528 
L 208.982423 25.78764 
L 208.982423 25.76174 
L 199.979145 25.720012 
L 208.982423 25.712818 
L 259.21003 25.450941 
L 208.982423 25.167481 
L 208.982423 25.101292 
L 191.834689 24.938699 
L 278.278116 24.836538 
L 259.21003 24.804882 
L 259.21003 24.770349 
L 230.457769 24.606317 
L 230.457769 24.51135 
L 278.278116 24.387606 
L 219.047231 24.055224 
L 219.047231 24.000547 
L 243.630269 23.889753 
L 259.21003 23.863853 
L 230.457769 23.823564 
L 230.457769 23.810614 
L 208.982423 23.69982 
L 219.047231 23.689748 
L 219.047231 23.679676 
L 259.21003 23.643704 
L 243.630269 23.571759 
L 230.457769 23.456649 
L 230.457769 23.407727 
L 208.982423 23.233622 
L 208.982423 23.196211 
L 191.834689 23.050884 
L 191.834689 22.997645 
L 184.399384 22.917067 
L 191.834689 22.891167 
L 191.834689 22.869584 
L 208.982423 22.747279 
L 219.047231 22.649435 
L 208.982423 22.521374 
L 208.982423 22.495475 
L 199.979145 22.371731 
L 208.982423 22.273887 
L 199.979145 22.135754 
L 259.21003 21.954454 
L 259.21003 21.855171 
L 243.630269 21.823516 
L 259.21003 21.755888 
L 278.278116 21.744377 
L 259.21003 21.6638 
L 243.630269 21.570273 
L 259.21003 21.554445 
L 278.278116 21.48394 
L 259.21003 21.446529 
L 259.21003 21.388973 
L 302.861154 21.384657 
L 278.278116 21.345807 
L 302.861154 21.104074 
L 278.278116 21.088247 
L 302.861154 20.823492 
L 302.861154 20.740037 
L 243.630269 20.600465 
L 208.982423 20.417727 
L 208.982423 20.357294 
L 219.047231 20.266644 
L 219.047231 20.234989 
L 230.457769 20.230672 
L 219.047231 20.12995 
L 219.047231 20.089661 
L 191.834689 19.952968 
L 199.979145 19.945773 
L 302.861154 19.809079 
L 302.861154 19.748646 
L 243.630269 19.617708 
L 243.630269 19.58893 
L 219.047231 19.442164 
L 219.047231 19.360148 
L 302.861154 19.246476 
L 337.509001 18.8033 
L 302.861154 18.791789 
L 337.509001 18.696822 
L 396.739886 18.693945 
L 278.278116 18.616245 
L 278.278116 18.597539 
L 219.047231 18.443579 
L 243.630269 18.419118 
L 243.630269 18.350051 
L 199.979145 18.175947 
L 171.226884 17.905436 
L 171.226884 17.878098 
L 259.21003 17.719821 
L 259.21003 17.706871 
L 396.739886 17.596077 
L 337.509001 17.545716 
L 396.739886 17.534205 
" clip-path="url(#pafbe3226ca)" style="fill: none; stroke: #008000; stroke-width: 2; stroke-linecap: square"/>
   </g>
   <g id="line2d_35">
    <path d="M 65.937614 224.218295 
L 125.168499 224.218295 
L 125.168499 222.762145 
L 128.805307 222.762145 
L 128.805307 221.203835 
L 132.603804 221.203835 
L 132.603804 221.162107 
L 136.579037 221.162107 
L 136.579037 221.082969 
L 140.74826 221.082969 
L 140.74826 220.957786 
L 145.131379 220.957786 
L 145.131379 219.436886 
L 149.751537 219.436886 
L 149.751537 218.383623 
L 154.635844 218.383623 
L 154.635844 216.177815 
L 159.816346 216.177815 
L 159.816346 215.373479 
L 165.331298 215.373479 
L 165.331298 215.20513 
L 171.226884 215.20513 
L 171.226884 214.979225 
L 177.559566 214.979225 
L 177.559566 214.419499 
L 184.399384 214.419499 
L 184.399384 213.672719 
L 191.834689 213.672719 
L 191.834689 213.166232 
L 199.979145 213.166232 
L 199.979145 201.627826 
L 208.982423 201.627826 
L 208.982423 200.778885 
L 219.047231 200.778885 
L 219.047231 180.896394 
L 230.457769 180.896394 
L 230.457769 126.359835 
L 243.630269 126.359835 
L 243.630269 82.62929 
L 259.21003 82.62929 
L 259.21003 37.6685 
L 278.278116 37.6685 
L 278.278116 21.391851 
L 302.861154 21.391851 
L 302.861154 19.809079 
L 337.509001 19.809079 
L 337.509001 18.696822 
L 396.739886 18.696822 
L 396.739886 17.534205 
" clip-path="url(#pafbe3226ca)" style="fill: none; stroke-dasharray: 11.1,4.8; stroke-dashoffset: 0; stroke: #ff0000; stroke-opacity: 0.6; stroke-width: 3"/>
   </g>
   <g id="patch_3">
    <path d="M 49.3975 234.5525 
L 49.3975 7.2 
" style="fill: none; stroke: #000000; stroke-width: 2; stroke-linejoin: miter; stroke-linecap: square"/>
   </g>
   <g id="patch_4">
    <path d="M 413.28 234.5525 
L 413.28 7.2 
" style="fill: none; stroke: #000000; stroke-width: 2; stroke-linejoin: miter; stroke-linecap: square"/>
   </g>
   <g id="patch_5">
    <path d="M 49.3975 234.5525 
L 413.28 234.5525 
" style="fill: none; stroke: #000000; stroke-width: 2; stroke-linejoin: miter; stroke-linecap: square"/>
   </g>
   <g id="patch_6">
    <path d="M 49.3975 7.2 
L 413.28 7.2 
" style="fill: none; stroke: #000000; stroke-width: 2; stroke-linejoin: miter; stroke-linecap: square"/>
   </g>
   <g id="legend_1">
    <g id="line2d_36">
     <path d="M 60.1975 22.918125 
L 72.1975 22.918125 
L 84.1975 22.918125 
" style="fill: none; stroke: #008000; stroke-width: 2; stroke-linecap: square"/>
    </g>
    <g id="text_16">
     <!-- IBIP -->
     <g transform="translate(93.7975 27.118125)scale(0.12 -0.12)">
      <defs>
       <path id="DejaVuSans-49" d="M 628 4666 
L 1259 4666 
L 1259 0 
L 628 0 
L 628 4666 
z
" transform="scale(0.015625)"/>
       <path id="DejaVuSans-42" d="M 1259 2228 
L 1259 519 
L 2272 519 
Q 2781 519 3026 730 
Q 3272 941 3272 1375 
Q 3272 1813 3026 2020 
Q 2781 2228 2272 2228 
L 1259 2228 
z
M 1259 4147 
L 1259 2741 
L 2194 2741 
Q 2656 2741 2882 2914 
Q 3109 3088 3109 3444 
Q 3109 3797 2882 3972 
Q 2656 4147 2194 4147 
L 1259 4147 
z
M 628 4666 
L 2241 4666 
Q 2963 4666 3353 4366 
Q 3744 4066 3744 3513 
Q 3744 3084 3544 2831 
Q 3344 2578 2956 2516 
Q 3422 2416 3680 2098 
Q 3938 1781 3938 1306 
Q 3938 681 3513 340 
Q 3088 0 2303 0 
L 628 0 
L 628 4666 
z
" transform="scale(0.015625)"/>
      </defs>
      <use xlink:href="#DejaVuSans-49"/>
      <use xlink:href="#DejaVuSans-42" x="29.492188"/>
      <use xlink:href="#DejaVuSans-49" x="98.095703"/>
      <use xlink:href="#DejaVuSans-50" x="127.587891"/>
     </g>
    </g>
    <g id="line2d_37">
     <path d="M 60.1975 40.531875 
L 72.1975 40.531875 
L 72.1975 40.531875 
L 84.1975 40.531875 
L 84.1975 40.531875 
" style="fill: none; stroke-dasharray: 11.1,4.8; stroke-dashoffset: 0; stroke: #ff0000; stroke-opacity: 0.6; stroke-width: 3"/>
    </g>
    <g id="text_17">
     <!-- MIO -->
     <g transform="translate(93.7975 44.731875)scale(0.12 -0.12)">
      <defs>
       <path id="DejaVuSans-4d" d="M 628 4666 
L 1569 4666 
L 2759 1491 
L 3956 4666 
L 4897 4666 
L 4897 0 
L 4281 0 
L 4281 4097 
L 3078 897 
L 2444 897 
L 1241 4097 
L 1241 0 
L 628 0 
L 628 4666 
z
" transform="scale(0.015625)"/>
       <path id="DejaVuSans-4f" d="M 2522 4238 
Q 1834 4238 1429 3725 
Q 1025 3213 1025 2328 
Q 1025 1447 1429 934 
Q 1834 422 2522 422 
Q 3209 422 3611 934 
Q 4013 1447 4013 2328 
Q 4013 3213 3611 3725 
Q 3209 4238 2522 4238 
z
M 2522 4750 
Q 3503 4750 4090 4092 
Q 4678 3434 4678 2328 
Q 4678 1225 4090 567 
Q 3503 -91 2522 -91 
Q 1538 -91 948 565 
Q 359 1222 359 2328 
Q 359 3434 948 4092 
Q 1538 4750 2522 4750 
z
" transform="scale(0.015625)"/>
      </defs>
      <use xlink:href="#DejaVuSans-4d"/>
      <use xlink:href="#DejaVuSans-49" x="86.279297"/>
      <use xlink:href="#DejaVuSans-4f" x="115.771484"/>
     </g>
    </g>
   </g>
  </g>
 </g>
 <defs>
  <clipPath id="pafbe3226ca">
   <rect x="49.3975" y="7.2" width="363.8825" height="227.3525"/>
  </clipPath>
 </defs>
</svg>
