<?xml version="1.0" encoding="utf-8" standalone="no"?>
<!DOCTYPE svg PUBLIC "-//W3C//DTD SVG 1.1//EN"
  "http://www.w3.org/Graphics/SVG/1.1/DTD/svg11.dtd">
<!-- Created with matplotlib (https://matplotlib.org/) -->
<svg height="276.48pt" version="1.1" viewBox="0 0 348.48 276.48" width="348.48pt" xmlns="http://www.w3.org/2000/svg" xmlns:xlink="http://www.w3.org/1999/xlink">
 <metadata>
  <rdf:RDF xmlns:cc="http://creativecommons.org/ns#" xmlns:dc="http://purl.org/dc/elements/1.1/" xmlns:rdf="http://www.w3.org/1999/02/22-rdf-syntax-ns#">
   <cc:Work>
    <dc:type rdf:resource="http://purl.org/dc/dcmitype/StillImage"/>
    <dc:date>2021-03-30T13:18:50.463837</dc:date>
    <dc:format>image/svg+xml</dc:format>
    <dc:creator>
     <cc:Agent>
      <dc:title>Matplotlib v3.3.4, https://matplotlib.org/</dc:title>
     </cc:Agent>
    </dc:creator>
   </cc:Work>
  </rdf:RDF>
 </metadata>
 <defs>
  <style type="text/css">*{stroke-linecap:butt;stroke-linejoin:round;}</style>
 </defs>
 <g id="figure_1">
  <g id="patch_1">
   <path d="M 0 276.48 
L 348.48 276.48 
L 348.48 0 
L 0 0 
z
" style="fill:none;"/>
  </g>
  <g id="axes_1">
   <g id="patch_2">
    <path d="M 49.3975 234.5525 
L 341.28 234.5525 
L 341.28 11.759062 
L 49.3975 11.759062 
z
" style="fill:#ffffff;"/>
   </g>
   <g id="matplotlib.axis_1">
    <g id="xtick_1">
     <g id="line2d_1">
      <defs>
       <path d="M 0 0 
L 0 -6 
" id="m3c2527d27f" style="stroke:#000000;stroke-width:2;"/>
      </defs>
      <g>
       <use style="fill:#ffffff;stroke:#000000;stroke-width:2;" x="62.664886" xlink:href="#m3c2527d27f" y="234.5525"/>
      </g>
     </g>
     <g id="line2d_2">
      <defs>
       <path d="M 0 0 
L 0 6 
" id="m193db3a4bd" style="stroke:#000000;stroke-width:2;"/>
      </defs>
      <g>
       <use style="fill:#ffffff;stroke:#000000;stroke-width:2;" x="62.664886" xlink:href="#m193db3a4bd" y="11.759062"/>
      </g>
     </g>
     <g id="text_1">
      <!-- 0 -->
      <g transform="translate(58.847386 247.170625)scale(0.12 -0.12)">
       <defs>
        <path d="M 31.78125 66.40625 
Q 24.171875 66.40625 20.328125 58.90625 
Q 16.5 51.421875 16.5 36.375 
Q 16.5 21.390625 20.328125 13.890625 
Q 24.171875 6.390625 31.78125 6.390625 
Q 39.453125 6.390625 43.28125 13.890625 
Q 47.125 21.390625 47.125 36.375 
Q 47.125 51.421875 43.28125 58.90625 
Q 39.453125 66.40625 31.78125 66.40625 
z
M 31.78125 74.21875 
Q 44.046875 74.21875 50.515625 64.515625 
Q 56.984375 54.828125 56.984375 36.375 
Q 56.984375 17.96875 50.515625 8.265625 
Q 44.046875 -1.421875 31.78125 -1.421875 
Q 19.53125 -1.421875 13.0625 8.265625 
Q 6.59375 17.96875 6.59375 36.375 
Q 6.59375 54.828125 13.0625 64.515625 
Q 19.53125 74.21875 31.78125 74.21875 
z
" id="DejaVuSans-48"/>
       </defs>
       <use xlink:href="#DejaVuSans-48"/>
      </g>
     </g>
    </g>
    <g id="xtick_2">
     <g id="line2d_3">
      <g>
       <use style="fill:#ffffff;stroke:#000000;stroke-width:2;" x="118.882625" xlink:href="#m3c2527d27f" y="234.5525"/>
      </g>
     </g>
     <g id="line2d_4">
      <g>
       <use style="fill:#ffffff;stroke:#000000;stroke-width:2;" x="118.882625" xlink:href="#m193db3a4bd" y="11.759062"/>
      </g>
     </g>
     <g id="text_2">
      <!-- 500 -->
      <g transform="translate(107.430125 247.170625)scale(0.12 -0.12)">
       <defs>
        <path d="M 10.796875 72.90625 
L 49.515625 72.90625 
L 49.515625 64.59375 
L 19.828125 64.59375 
L 19.828125 46.734375 
Q 21.96875 47.46875 24.109375 47.828125 
Q 26.265625 48.1875 28.421875 48.1875 
Q 40.625 48.1875 47.75 41.5 
Q 54.890625 34.8125 54.890625 23.390625 
Q 54.890625 11.625 47.5625 5.09375 
Q 40.234375 -1.421875 26.90625 -1.421875 
Q 22.3125 -1.421875 17.546875 -0.640625 
Q 12.796875 0.140625 7.71875 1.703125 
L 7.71875 11.625 
Q 12.109375 9.234375 16.796875 8.0625 
Q 21.484375 6.890625 26.703125 6.890625 
Q 35.15625 6.890625 40.078125 11.328125 
Q 45.015625 15.765625 45.015625 23.390625 
Q 45.015625 31 40.078125 35.4375 
Q 35.15625 39.890625 26.703125 39.890625 
Q 22.75 39.890625 18.8125 39.015625 
Q 14.890625 38.140625 10.796875 36.28125 
z
" id="DejaVuSans-53"/>
       </defs>
       <use xlink:href="#DejaVuSans-53"/>
       <use x="63.623047" xlink:href="#DejaVuSans-48"/>
       <use x="127.246094" xlink:href="#DejaVuSans-48"/>
      </g>
     </g>
    </g>
    <g id="xtick_3">
     <g id="line2d_5">
      <g>
       <use style="fill:#ffffff;stroke:#000000;stroke-width:2;" x="175.100364" xlink:href="#m3c2527d27f" y="234.5525"/>
      </g>
     </g>
     <g id="line2d_6">
      <g>
       <use style="fill:#ffffff;stroke:#000000;stroke-width:2;" x="175.100364" xlink:href="#m193db3a4bd" y="11.759062"/>
      </g>
     </g>
     <g id="text_3">
      <!-- 1000 -->
      <g transform="translate(159.830364 247.170625)scale(0.12 -0.12)">
       <defs>
        <path d="M 12.40625 8.296875 
L 28.515625 8.296875 
L 28.515625 63.921875 
L 10.984375 60.40625 
L 10.984375 69.390625 
L 28.421875 72.90625 
L 38.28125 72.90625 
L 38.28125 8.296875 
L 54.390625 8.296875 
L 54.390625 0 
L 12.40625 0 
z
" id="DejaVuSans-49"/>
       </defs>
       <use xlink:href="#DejaVuSans-49"/>
       <use x="63.623047" xlink:href="#DejaVuSans-48"/>
       <use x="127.246094" xlink:href="#DejaVuSans-48"/>
       <use x="190.869141" xlink:href="#DejaVuSans-48"/>
      </g>
     </g>
    </g>
    <g id="xtick_4">
     <g id="line2d_7">
      <g>
       <use style="fill:#ffffff;stroke:#000000;stroke-width:2;" x="231.318103" xlink:href="#m3c2527d27f" y="234.5525"/>
      </g>
     </g>
     <g id="line2d_8">
      <g>
       <use style="fill:#ffffff;stroke:#000000;stroke-width:2;" x="231.318103" xlink:href="#m193db3a4bd" y="11.759062"/>
      </g>
     </g>
     <g id="text_4">
      <!-- 1500 -->
      <g transform="translate(216.048103 247.170625)scale(0.12 -0.12)">
       <use xlink:href="#DejaVuSans-49"/>
       <use x="63.623047" xlink:href="#DejaVuSans-53"/>
       <use x="127.246094" xlink:href="#DejaVuSans-48"/>
       <use x="190.869141" xlink:href="#DejaVuSans-48"/>
      </g>
     </g>
    </g>
    <g id="xtick_5">
     <g id="line2d_9">
      <g>
       <use style="fill:#ffffff;stroke:#000000;stroke-width:2;" x="287.535842" xlink:href="#m3c2527d27f" y="234.5525"/>
      </g>
     </g>
     <g id="line2d_10">
      <g>
       <use style="fill:#ffffff;stroke:#000000;stroke-width:2;" x="287.535842" xlink:href="#m193db3a4bd" y="11.759062"/>
      </g>
     </g>
     <g id="text_5">
      <!-- 2000 -->
      <g transform="translate(272.265842 247.170625)scale(0.12 -0.12)">
       <defs>
        <path d="M 19.1875 8.296875 
L 53.609375 8.296875 
L 53.609375 0 
L 7.328125 0 
L 7.328125 8.296875 
Q 12.9375 14.109375 22.625 23.890625 
Q 32.328125 33.6875 34.8125 36.53125 
Q 39.546875 41.84375 41.421875 45.53125 
Q 43.3125 49.21875 43.3125 52.78125 
Q 43.3125 58.59375 39.234375 62.25 
Q 35.15625 65.921875 28.609375 65.921875 
Q 23.96875 65.921875 18.8125 64.3125 
Q 13.671875 62.703125 7.8125 59.421875 
L 7.8125 69.390625 
Q 13.765625 71.78125 18.9375 73 
Q 24.125 74.21875 28.421875 74.21875 
Q 39.75 74.21875 46.484375 68.546875 
Q 53.21875 62.890625 53.21875 53.421875 
Q 53.21875 48.921875 51.53125 44.890625 
Q 49.859375 40.875 45.40625 35.40625 
Q 44.1875 33.984375 37.640625 27.21875 
Q 31.109375 20.453125 19.1875 8.296875 
z
" id="DejaVuSans-50"/>
       </defs>
       <use xlink:href="#DejaVuSans-50"/>
       <use x="63.623047" xlink:href="#DejaVuSans-48"/>
       <use x="127.246094" xlink:href="#DejaVuSans-48"/>
       <use x="190.869141" xlink:href="#DejaVuSans-48"/>
      </g>
     </g>
    </g>
    <g id="text_6">
     <!-- Position of slice along given axis -->
     <g transform="translate(98.045 266.784375)scale(0.12 -0.12)">
      <defs>
       <path d="M 19.671875 64.796875 
L 19.671875 37.40625 
L 32.078125 37.40625 
Q 38.96875 37.40625 42.71875 40.96875 
Q 46.484375 44.53125 46.484375 51.125 
Q 46.484375 57.671875 42.71875 61.234375 
Q 38.96875 64.796875 32.078125 64.796875 
z
M 9.8125 72.90625 
L 32.078125 72.90625 
Q 44.34375 72.90625 50.609375 67.359375 
Q 56.890625 61.8125 56.890625 51.125 
Q 56.890625 40.328125 50.609375 34.8125 
Q 44.34375 29.296875 32.078125 29.296875 
L 19.671875 29.296875 
L 19.671875 0 
L 9.8125 0 
z
" id="DejaVuSans-80"/>
       <path d="M 30.609375 48.390625 
Q 23.390625 48.390625 19.1875 42.75 
Q 14.984375 37.109375 14.984375 27.296875 
Q 14.984375 17.484375 19.15625 11.84375 
Q 23.34375 6.203125 30.609375 6.203125 
Q 37.796875 6.203125 41.984375 11.859375 
Q 46.1875 17.53125 46.1875 27.296875 
Q 46.1875 37.015625 41.984375 42.703125 
Q 37.796875 48.390625 30.609375 48.390625 
z
M 30.609375 56 
Q 42.328125 56 49.015625 48.375 
Q 55.71875 40.765625 55.71875 27.296875 
Q 55.71875 13.875 49.015625 6.21875 
Q 42.328125 -1.421875 30.609375 -1.421875 
Q 18.84375 -1.421875 12.171875 6.21875 
Q 5.515625 13.875 5.515625 27.296875 
Q 5.515625 40.765625 12.171875 48.375 
Q 18.84375 56 30.609375 56 
z
" id="DejaVuSans-111"/>
       <path d="M 44.28125 53.078125 
L 44.28125 44.578125 
Q 40.484375 46.53125 36.375 47.5 
Q 32.28125 48.484375 27.875 48.484375 
Q 21.1875 48.484375 17.84375 46.4375 
Q 14.5 44.390625 14.5 40.28125 
Q 14.5 37.15625 16.890625 35.375 
Q 19.28125 33.59375 26.515625 31.984375 
L 29.59375 31.296875 
Q 39.15625 29.25 43.1875 25.515625 
Q 47.21875 21.78125 47.21875 15.09375 
Q 47.21875 7.46875 41.1875 3.015625 
Q 35.15625 -1.421875 24.609375 -1.421875 
Q 20.21875 -1.421875 15.453125 -0.5625 
Q 10.6875 0.296875 5.421875 2 
L 5.421875 11.28125 
Q 10.40625 8.6875 15.234375 7.390625 
Q 20.0625 6.109375 24.8125 6.109375 
Q 31.15625 6.109375 34.5625 8.28125 
Q 37.984375 10.453125 37.984375 14.40625 
Q 37.984375 18.0625 35.515625 20.015625 
Q 33.0625 21.96875 24.703125 23.78125 
L 21.578125 24.515625 
Q 13.234375 26.265625 9.515625 29.90625 
Q 5.8125 33.546875 5.8125 39.890625 
Q 5.8125 47.609375 11.28125 51.796875 
Q 16.75 56 26.8125 56 
Q 31.78125 56 36.171875 55.265625 
Q 40.578125 54.546875 44.28125 53.078125 
z
" id="DejaVuSans-115"/>
       <path d="M 9.421875 54.6875 
L 18.40625 54.6875 
L 18.40625 0 
L 9.421875 0 
z
M 9.421875 75.984375 
L 18.40625 75.984375 
L 18.40625 64.59375 
L 9.421875 64.59375 
z
" id="DejaVuSans-105"/>
       <path d="M 18.3125 70.21875 
L 18.3125 54.6875 
L 36.8125 54.6875 
L 36.8125 47.703125 
L 18.3125 47.703125 
L 18.3125 18.015625 
Q 18.3125 11.328125 20.140625 9.421875 
Q 21.96875 7.515625 27.59375 7.515625 
L 36.8125 7.515625 
L 36.8125 0 
L 27.59375 0 
Q 17.1875 0 13.234375 3.875 
Q 9.28125 7.765625 9.28125 18.015625 
L 9.28125 47.703125 
L 2.6875 47.703125 
L 2.6875 54.6875 
L 9.28125 54.6875 
L 9.28125 70.21875 
z
" id="DejaVuSans-116"/>
       <path d="M 54.890625 33.015625 
L 54.890625 0 
L 45.90625 0 
L 45.90625 32.71875 
Q 45.90625 40.484375 42.875 44.328125 
Q 39.84375 48.1875 33.796875 48.1875 
Q 26.515625 48.1875 22.3125 43.546875 
Q 18.109375 38.921875 18.109375 30.90625 
L 18.109375 0 
L 9.078125 0 
L 9.078125 54.6875 
L 18.109375 54.6875 
L 18.109375 46.1875 
Q 21.34375 51.125 25.703125 53.5625 
Q 30.078125 56 35.796875 56 
Q 45.21875 56 50.046875 50.171875 
Q 54.890625 44.34375 54.890625 33.015625 
z
" id="DejaVuSans-110"/>
       <path id="DejaVuSans-32"/>
       <path d="M 37.109375 75.984375 
L 37.109375 68.5 
L 28.515625 68.5 
Q 23.6875 68.5 21.796875 66.546875 
Q 19.921875 64.59375 19.921875 59.515625 
L 19.921875 54.6875 
L 34.71875 54.6875 
L 34.71875 47.703125 
L 19.921875 47.703125 
L 19.921875 0 
L 10.890625 0 
L 10.890625 47.703125 
L 2.296875 47.703125 
L 2.296875 54.6875 
L 10.890625 54.6875 
L 10.890625 58.5 
Q 10.890625 67.625 15.140625 71.796875 
Q 19.390625 75.984375 28.609375 75.984375 
z
" id="DejaVuSans-102"/>
       <path d="M 9.421875 75.984375 
L 18.40625 75.984375 
L 18.40625 0 
L 9.421875 0 
z
" id="DejaVuSans-108"/>
       <path d="M 48.78125 52.59375 
L 48.78125 44.1875 
Q 44.96875 46.296875 41.140625 47.34375 
Q 37.3125 48.390625 33.40625 48.390625 
Q 24.65625 48.390625 19.8125 42.84375 
Q 14.984375 37.3125 14.984375 27.296875 
Q 14.984375 17.28125 19.8125 11.734375 
Q 24.65625 6.203125 33.40625 6.203125 
Q 37.3125 6.203125 41.140625 7.25 
Q 44.96875 8.296875 48.78125 10.40625 
L 48.78125 2.09375 
Q 45.015625 0.34375 40.984375 -0.53125 
Q 36.96875 -1.421875 32.421875 -1.421875 
Q 20.0625 -1.421875 12.78125 6.34375 
Q 5.515625 14.109375 5.515625 27.296875 
Q 5.515625 40.671875 12.859375 48.328125 
Q 20.21875 56 33.015625 56 
Q 37.15625 56 41.109375 55.140625 
Q 45.0625 54.296875 48.78125 52.59375 
z
" id="DejaVuSans-99"/>
       <path d="M 56.203125 29.59375 
L 56.203125 25.203125 
L 14.890625 25.203125 
Q 15.484375 15.921875 20.484375 11.0625 
Q 25.484375 6.203125 34.421875 6.203125 
Q 39.59375 6.203125 44.453125 7.46875 
Q 49.3125 8.734375 54.109375 11.28125 
L 54.109375 2.78125 
Q 49.265625 0.734375 44.1875 -0.34375 
Q 39.109375 -1.421875 33.890625 -1.421875 
Q 20.796875 -1.421875 13.15625 6.1875 
Q 5.515625 13.8125 5.515625 26.8125 
Q 5.515625 40.234375 12.765625 48.109375 
Q 20.015625 56 32.328125 56 
Q 43.359375 56 49.78125 48.890625 
Q 56.203125 41.796875 56.203125 29.59375 
z
M 47.21875 32.234375 
Q 47.125 39.59375 43.09375 43.984375 
Q 39.0625 48.390625 32.421875 48.390625 
Q 24.90625 48.390625 20.390625 44.140625 
Q 15.875 39.890625 15.1875 32.171875 
z
" id="DejaVuSans-101"/>
       <path d="M 34.28125 27.484375 
Q 23.390625 27.484375 19.1875 25 
Q 14.984375 22.515625 14.984375 16.5 
Q 14.984375 11.71875 18.140625 8.90625 
Q 21.296875 6.109375 26.703125 6.109375 
Q 34.1875 6.109375 38.703125 11.40625 
Q 43.21875 16.703125 43.21875 25.484375 
L 43.21875 27.484375 
z
M 52.203125 31.203125 
L 52.203125 0 
L 43.21875 0 
L 43.21875 8.296875 
Q 40.140625 3.328125 35.546875 0.953125 
Q 30.953125 -1.421875 24.3125 -1.421875 
Q 15.921875 -1.421875 10.953125 3.296875 
Q 6 8.015625 6 15.921875 
Q 6 25.140625 12.171875 29.828125 
Q 18.359375 34.515625 30.609375 34.515625 
L 43.21875 34.515625 
L 43.21875 35.40625 
Q 43.21875 41.609375 39.140625 45 
Q 35.0625 48.390625 27.6875 48.390625 
Q 23 48.390625 18.546875 47.265625 
Q 14.109375 46.140625 10.015625 43.890625 
L 10.015625 52.203125 
Q 14.9375 54.109375 19.578125 55.046875 
Q 24.21875 56 28.609375 56 
Q 40.484375 56 46.34375 49.84375 
Q 52.203125 43.703125 52.203125 31.203125 
z
" id="DejaVuSans-97"/>
       <path d="M 45.40625 27.984375 
Q 45.40625 37.75 41.375 43.109375 
Q 37.359375 48.484375 30.078125 48.484375 
Q 22.859375 48.484375 18.828125 43.109375 
Q 14.796875 37.75 14.796875 27.984375 
Q 14.796875 18.265625 18.828125 12.890625 
Q 22.859375 7.515625 30.078125 7.515625 
Q 37.359375 7.515625 41.375 12.890625 
Q 45.40625 18.265625 45.40625 27.984375 
z
M 54.390625 6.78125 
Q 54.390625 -7.171875 48.1875 -13.984375 
Q 42 -20.796875 29.203125 -20.796875 
Q 24.46875 -20.796875 20.265625 -20.09375 
Q 16.0625 -19.390625 12.109375 -17.921875 
L 12.109375 -9.1875 
Q 16.0625 -11.328125 19.921875 -12.34375 
Q 23.78125 -13.375 27.78125 -13.375 
Q 36.625 -13.375 41.015625 -8.765625 
Q 45.40625 -4.15625 45.40625 5.171875 
L 45.40625 9.625 
Q 42.625 4.78125 38.28125 2.390625 
Q 33.9375 0 27.875 0 
Q 17.828125 0 11.671875 7.65625 
Q 5.515625 15.328125 5.515625 27.984375 
Q 5.515625 40.671875 11.671875 48.328125 
Q 17.828125 56 27.875 56 
Q 33.9375 56 38.28125 53.609375 
Q 42.625 51.21875 45.40625 46.390625 
L 45.40625 54.6875 
L 54.390625 54.6875 
z
" id="DejaVuSans-103"/>
       <path d="M 2.984375 54.6875 
L 12.5 54.6875 
L 29.59375 8.796875 
L 46.6875 54.6875 
L 56.203125 54.6875 
L 35.6875 0 
L 23.484375 0 
z
" id="DejaVuSans-118"/>
       <path d="M 54.890625 54.6875 
L 35.109375 28.078125 
L 55.90625 0 
L 45.3125 0 
L 29.390625 21.484375 
L 13.484375 0 
L 2.875 0 
L 24.125 28.609375 
L 4.6875 54.6875 
L 15.28125 54.6875 
L 29.78125 35.203125 
L 44.28125 54.6875 
z
" id="DejaVuSans-120"/>
      </defs>
      <use xlink:href="#DejaVuSans-80"/>
      <use x="56.677734" xlink:href="#DejaVuSans-111"/>
      <use x="117.859375" xlink:href="#DejaVuSans-115"/>
      <use x="169.958984" xlink:href="#DejaVuSans-105"/>
      <use x="197.742188" xlink:href="#DejaVuSans-116"/>
      <use x="236.951172" xlink:href="#DejaVuSans-105"/>
      <use x="264.734375" xlink:href="#DejaVuSans-111"/>
      <use x="325.916016" xlink:href="#DejaVuSans-110"/>
      <use x="389.294922" xlink:href="#DejaVuSans-32"/>
      <use x="421.082031" xlink:href="#DejaVuSans-111"/>
      <use x="482.263672" xlink:href="#DejaVuSans-102"/>
      <use x="517.46875" xlink:href="#DejaVuSans-32"/>
      <use x="549.255859" xlink:href="#DejaVuSans-115"/>
      <use x="601.355469" xlink:href="#DejaVuSans-108"/>
      <use x="629.138672" xlink:href="#DejaVuSans-105"/>
      <use x="656.921875" xlink:href="#DejaVuSans-99"/>
      <use x="711.902344" xlink:href="#DejaVuSans-101"/>
      <use x="773.425781" xlink:href="#DejaVuSans-32"/>
      <use x="805.212891" xlink:href="#DejaVuSans-97"/>
      <use x="866.492188" xlink:href="#DejaVuSans-108"/>
      <use x="894.275391" xlink:href="#DejaVuSans-111"/>
      <use x="955.457031" xlink:href="#DejaVuSans-110"/>
      <use x="1018.835938" xlink:href="#DejaVuSans-103"/>
      <use x="1082.3125" xlink:href="#DejaVuSans-32"/>
      <use x="1114.099609" xlink:href="#DejaVuSans-103"/>
      <use x="1177.576172" xlink:href="#DejaVuSans-105"/>
      <use x="1205.359375" xlink:href="#DejaVuSans-118"/>
      <use x="1264.539062" xlink:href="#DejaVuSans-101"/>
      <use x="1326.0625" xlink:href="#DejaVuSans-110"/>
      <use x="1389.441406" xlink:href="#DejaVuSans-32"/>
      <use x="1421.228516" xlink:href="#DejaVuSans-97"/>
      <use x="1482.507812" xlink:href="#DejaVuSans-120"/>
      <use x="1541.6875" xlink:href="#DejaVuSans-105"/>
      <use x="1569.470703" xlink:href="#DejaVuSans-115"/>
     </g>
    </g>
   </g>
   <g id="matplotlib.axis_2">
    <g id="ytick_1">
     <g id="line2d_11">
      <defs>
       <path d="M 0 0 
L 6 0 
" id="mf0f1cc993c" style="stroke:#000000;stroke-width:2;"/>
      </defs>
      <g>
       <use style="fill:#ffffff;stroke:#000000;stroke-width:2;" x="49.3975" xlink:href="#mf0f1cc993c" y="234.5525"/>
      </g>
     </g>
     <g id="line2d_12">
      <defs>
       <path d="M 0 0 
L -6 0 
" id="m562c468d0e" style="stroke:#000000;stroke-width:2;"/>
      </defs>
      <g>
       <use style="fill:#ffffff;stroke:#000000;stroke-width:2;" x="341.28" xlink:href="#m562c468d0e" y="234.5525"/>
      </g>
     </g>
     <g id="text_7">
      <!-- 0.0 -->
      <g transform="translate(26.81375 239.111562)scale(0.12 -0.12)">
       <defs>
        <path d="M 10.6875 12.40625 
L 21 12.40625 
L 21 0 
L 10.6875 0 
z
" id="DejaVuSans-46"/>
       </defs>
       <use xlink:href="#DejaVuSans-48"/>
       <use x="63.623047" xlink:href="#DejaVuSans-46"/>
       <use x="95.410156" xlink:href="#DejaVuSans-48"/>
      </g>
     </g>
    </g>
    <g id="ytick_2">
     <g id="line2d_13">
      <g>
       <use style="fill:#ffffff;stroke:#000000;stroke-width:2;" x="49.3975" xlink:href="#mf0f1cc993c" y="189.993812"/>
      </g>
     </g>
     <g id="line2d_14">
      <g>
       <use style="fill:#ffffff;stroke:#000000;stroke-width:2;" x="341.28" xlink:href="#m562c468d0e" y="189.993812"/>
      </g>
     </g>
     <g id="text_8">
      <!-- 0.2 -->
      <g transform="translate(26.81375 194.552875)scale(0.12 -0.12)">
       <use xlink:href="#DejaVuSans-48"/>
       <use x="63.623047" xlink:href="#DejaVuSans-46"/>
       <use x="95.410156" xlink:href="#DejaVuSans-50"/>
      </g>
     </g>
    </g>
    <g id="ytick_3">
     <g id="line2d_15">
      <g>
       <use style="fill:#ffffff;stroke:#000000;stroke-width:2;" x="49.3975" xlink:href="#mf0f1cc993c" y="145.435125"/>
      </g>
     </g>
     <g id="line2d_16">
      <g>
       <use style="fill:#ffffff;stroke:#000000;stroke-width:2;" x="341.28" xlink:href="#m562c468d0e" y="145.435125"/>
      </g>
     </g>
     <g id="text_9">
      <!-- 0.4 -->
      <g transform="translate(26.81375 149.994187)scale(0.12 -0.12)">
       <defs>
        <path d="M 37.796875 64.3125 
L 12.890625 25.390625 
L 37.796875 25.390625 
z
M 35.203125 72.90625 
L 47.609375 72.90625 
L 47.609375 25.390625 
L 58.015625 25.390625 
L 58.015625 17.1875 
L 47.609375 17.1875 
L 47.609375 0 
L 37.796875 0 
L 37.796875 17.1875 
L 4.890625 17.1875 
L 4.890625 26.703125 
z
" id="DejaVuSans-52"/>
       </defs>
       <use xlink:href="#DejaVuSans-48"/>
       <use x="63.623047" xlink:href="#DejaVuSans-46"/>
       <use x="95.410156" xlink:href="#DejaVuSans-52"/>
      </g>
     </g>
    </g>
    <g id="ytick_4">
     <g id="line2d_17">
      <g>
       <use style="fill:#ffffff;stroke:#000000;stroke-width:2;" x="49.3975" xlink:href="#mf0f1cc993c" y="100.876437"/>
      </g>
     </g>
     <g id="line2d_18">
      <g>
       <use style="fill:#ffffff;stroke:#000000;stroke-width:2;" x="341.28" xlink:href="#m562c468d0e" y="100.876437"/>
      </g>
     </g>
     <g id="text_10">
      <!-- 0.6 -->
      <g transform="translate(26.81375 105.4355)scale(0.12 -0.12)">
       <defs>
        <path d="M 33.015625 40.375 
Q 26.375 40.375 22.484375 35.828125 
Q 18.609375 31.296875 18.609375 23.390625 
Q 18.609375 15.53125 22.484375 10.953125 
Q 26.375 6.390625 33.015625 6.390625 
Q 39.65625 6.390625 43.53125 10.953125 
Q 47.40625 15.53125 47.40625 23.390625 
Q 47.40625 31.296875 43.53125 35.828125 
Q 39.65625 40.375 33.015625 40.375 
z
M 52.59375 71.296875 
L 52.59375 62.3125 
Q 48.875 64.0625 45.09375 64.984375 
Q 41.3125 65.921875 37.59375 65.921875 
Q 27.828125 65.921875 22.671875 59.328125 
Q 17.53125 52.734375 16.796875 39.40625 
Q 19.671875 43.65625 24.015625 45.921875 
Q 28.375 48.1875 33.59375 48.1875 
Q 44.578125 48.1875 50.953125 41.515625 
Q 57.328125 34.859375 57.328125 23.390625 
Q 57.328125 12.15625 50.6875 5.359375 
Q 44.046875 -1.421875 33.015625 -1.421875 
Q 20.359375 -1.421875 13.671875 8.265625 
Q 6.984375 17.96875 6.984375 36.375 
Q 6.984375 53.65625 15.1875 63.9375 
Q 23.390625 74.21875 37.203125 74.21875 
Q 40.921875 74.21875 44.703125 73.484375 
Q 48.484375 72.75 52.59375 71.296875 
z
" id="DejaVuSans-54"/>
       </defs>
       <use xlink:href="#DejaVuSans-48"/>
       <use x="63.623047" xlink:href="#DejaVuSans-46"/>
       <use x="95.410156" xlink:href="#DejaVuSans-54"/>
      </g>
     </g>
    </g>
    <g id="ytick_5">
     <g id="line2d_19">
      <g>
       <use style="fill:#ffffff;stroke:#000000;stroke-width:2;" x="49.3975" xlink:href="#mf0f1cc993c" y="56.31775"/>
      </g>
     </g>
     <g id="line2d_20">
      <g>
       <use style="fill:#ffffff;stroke:#000000;stroke-width:2;" x="341.28" xlink:href="#m562c468d0e" y="56.31775"/>
      </g>
     </g>
     <g id="text_11">
      <!-- 0.8 -->
      <g transform="translate(26.81375 60.876812)scale(0.12 -0.12)">
       <defs>
        <path d="M 31.78125 34.625 
Q 24.75 34.625 20.71875 30.859375 
Q 16.703125 27.09375 16.703125 20.515625 
Q 16.703125 13.921875 20.71875 10.15625 
Q 24.75 6.390625 31.78125 6.390625 
Q 38.8125 6.390625 42.859375 10.171875 
Q 46.921875 13.96875 46.921875 20.515625 
Q 46.921875 27.09375 42.890625 30.859375 
Q 38.875 34.625 31.78125 34.625 
z
M 21.921875 38.8125 
Q 15.578125 40.375 12.03125 44.71875 
Q 8.5 49.078125 8.5 55.328125 
Q 8.5 64.0625 14.71875 69.140625 
Q 20.953125 74.21875 31.78125 74.21875 
Q 42.671875 74.21875 48.875 69.140625 
Q 55.078125 64.0625 55.078125 55.328125 
Q 55.078125 49.078125 51.53125 44.71875 
Q 48 40.375 41.703125 38.8125 
Q 48.828125 37.15625 52.796875 32.3125 
Q 56.78125 27.484375 56.78125 20.515625 
Q 56.78125 9.90625 50.3125 4.234375 
Q 43.84375 -1.421875 31.78125 -1.421875 
Q 19.734375 -1.421875 13.25 4.234375 
Q 6.78125 9.90625 6.78125 20.515625 
Q 6.78125 27.484375 10.78125 32.3125 
Q 14.796875 37.15625 21.921875 38.8125 
z
M 18.3125 54.390625 
Q 18.3125 48.734375 21.84375 45.5625 
Q 25.390625 42.390625 31.78125 42.390625 
Q 38.140625 42.390625 41.71875 45.5625 
Q 45.3125 48.734375 45.3125 54.390625 
Q 45.3125 60.0625 41.71875 63.234375 
Q 38.140625 66.40625 31.78125 66.40625 
Q 25.390625 66.40625 21.84375 63.234375 
Q 18.3125 60.0625 18.3125 54.390625 
z
" id="DejaVuSans-56"/>
       </defs>
       <use xlink:href="#DejaVuSans-48"/>
       <use x="63.623047" xlink:href="#DejaVuSans-46"/>
       <use x="95.410156" xlink:href="#DejaVuSans-56"/>
      </g>
     </g>
    </g>
    <g id="ytick_6">
     <g id="line2d_21">
      <g>
       <use style="fill:#ffffff;stroke:#000000;stroke-width:2;" x="49.3975" xlink:href="#mf0f1cc993c" y="11.759062"/>
      </g>
     </g>
     <g id="line2d_22">
      <g>
       <use style="fill:#ffffff;stroke:#000000;stroke-width:2;" x="341.28" xlink:href="#m562c468d0e" y="11.759062"/>
      </g>
     </g>
     <g id="text_12">
      <!-- 1.0 -->
      <g transform="translate(26.81375 16.318125)scale(0.12 -0.12)">
       <use xlink:href="#DejaVuSans-49"/>
       <use x="63.623047" xlink:href="#DejaVuSans-46"/>
       <use x="95.410156" xlink:href="#DejaVuSans-48"/>
      </g>
     </g>
    </g>
    <g id="text_13">
     <!-- Porosity of slice -->
     <g transform="translate(16.318125 169.973594)rotate(-90)scale(0.12 -0.12)">
      <defs>
       <path d="M 41.109375 46.296875 
Q 39.59375 47.171875 37.8125 47.578125 
Q 36.03125 48 33.890625 48 
Q 26.265625 48 22.1875 43.046875 
Q 18.109375 38.09375 18.109375 28.8125 
L 18.109375 0 
L 9.078125 0 
L 9.078125 54.6875 
L 18.109375 54.6875 
L 18.109375 46.1875 
Q 20.953125 51.171875 25.484375 53.578125 
Q 30.03125 56 36.53125 56 
Q 37.453125 56 38.578125 55.875 
Q 39.703125 55.765625 41.0625 55.515625 
z
" id="DejaVuSans-114"/>
       <path d="M 32.171875 -5.078125 
Q 28.375 -14.84375 24.75 -17.8125 
Q 21.140625 -20.796875 15.09375 -20.796875 
L 7.90625 -20.796875 
L 7.90625 -13.28125 
L 13.1875 -13.28125 
Q 16.890625 -13.28125 18.9375 -11.515625 
Q 21 -9.765625 23.484375 -3.21875 
L 25.09375 0.875 
L 2.984375 54.6875 
L 12.5 54.6875 
L 29.59375 11.921875 
L 46.6875 54.6875 
L 56.203125 54.6875 
z
" id="DejaVuSans-121"/>
      </defs>
      <use xlink:href="#DejaVuSans-80"/>
      <use x="56.677734" xlink:href="#DejaVuSans-111"/>
      <use x="117.859375" xlink:href="#DejaVuSans-114"/>
      <use x="156.722656" xlink:href="#DejaVuSans-111"/>
      <use x="217.904297" xlink:href="#DejaVuSans-115"/>
      <use x="270.003906" xlink:href="#DejaVuSans-105"/>
      <use x="297.787109" xlink:href="#DejaVuSans-116"/>
      <use x="336.996094" xlink:href="#DejaVuSans-121"/>
      <use x="396.175781" xlink:href="#DejaVuSans-32"/>
      <use x="427.962891" xlink:href="#DejaVuSans-111"/>
      <use x="489.144531" xlink:href="#DejaVuSans-102"/>
      <use x="524.349609" xlink:href="#DejaVuSans-32"/>
      <use x="556.136719" xlink:href="#DejaVuSans-115"/>
      <use x="608.236328" xlink:href="#DejaVuSans-108"/>
      <use x="636.019531" xlink:href="#DejaVuSans-105"/>
      <use x="663.802734" xlink:href="#DejaVuSans-99"/>
      <use x="718.783203" xlink:href="#DejaVuSans-101"/>
     </g>
    </g>
   </g>
   <g id="line2d_23">
    <path clip-path="url(#pbab7510d3f)" d="M 62.664886 115.970693 
L 63.998292 115.887145 
L 65.331698 115.378434 
L 67.331806 113.722336 
L 67.998509 113.735332 
L 68.665212 113.872721 
L 69.331915 114.166066 
L 69.998618 115.081376 
L 70.66532 116.243615 
L 71.332023 117.936845 
L 72.665429 119.80274 
L 73.332132 120.771891 
L 74.665537 121.921134 
L 75.33224 121.95084 
L 76.665646 122.348155 
L 77.999052 123.514107 
L 79.332457 125.296455 
L 79.99916 125.606509 
L 80.665863 125.110794 
L 81.332566 124.397855 
L 81.999269 124.063665 
L 84.66608 121.780032 
L 85.332783 120.953839 
L 85.999485 119.91228 
L 86.666188 119.110224 
L 87.332891 118.956125 
L 87.999594 118.653497 
L 88.666297 118.482689 
L 89.333 118.129933 
L 89.999702 118.894857 
L 90.666405 118.651641 
L 91.333108 118.66278 
L 91.999811 118.523534 
L 92.666514 119.154782 
L 93.333217 119.57809 
L 94.666622 119.68206 
L 96.000028 119.708053 
L 96.666731 119.941986 
L 97.333434 119.505682 
L 100.000245 119.260609 
L 101.333651 119.288458 
L 102.000353 119.633788 
L 104.000462 121.15064 
L 108.000679 125.255609 
L 108.667382 126.048383 
L 109.334085 126.648068 
L 111.334193 123.996826 
L 112.667599 122.951554 
L 113.334302 123.103796 
L 114.001004 122.836444 
L 114.667707 122.260894 
L 116.667816 119.169635 
L 117.334519 118.31745 
L 118.001221 117.077234 
L 118.667924 116.247328 
L 120.00133 115.491687 
L 121.334736 115.415566 
L 122.001438 115.790602 
L 122.668141 116.423706 
L 123.334844 116.73376 
L 124.001547 117.587802 
L 124.66825 118.686916 
L 125.334953 118.410281 
L 126.001655 118.419564 
L 126.668358 118.718479 
L 128.001764 120.083088 
L 129.33517 121.813451 
L 130.001872 122.916278 
L 131.335278 124.347726 
L 132.001981 124.43313 
L 133.335387 125.470976 
L 134.002089 125.7866 
L 134.668792 125.732759 
L 137.335604 126.117077 
L 138.002306 126.774318 
L 138.669009 127.037957 
L 139.335712 126.781744 
L 140.002415 126.336158 
L 140.669118 126.185772 
L 141.335821 126.165349 
L 142.669226 127.301596 
L 144.002632 127.936557 
L 144.669335 127.700767 
L 145.336038 127.322019 
L 146.669443 127.076946 
L 147.336146 126.571947 
L 148.669552 126.83373 
L 149.336255 127.190199 
L 150.002957 127.917991 
L 151.336363 128.721904 
L 152.003066 129.152638 
L 152.669769 129.371718 
L 153.336472 129.451552 
L 154.669877 128.961407 
L 155.33658 128.294883 
L 156.003283 128.254038 
L 156.669986 128.350582 
L 157.336689 128.684772 
L 158.003391 128.794312 
L 160.0035 127.244041 
L 161.336906 125.988971 
L 162.003608 125.846012 
L 162.670311 125.402282 
L 163.337014 124.659637 
L 164.003717 123.32659 
L 164.67042 122.550526 
L 165.337123 122.095656 
L 166.003825 121.902568 
L 166.670528 122.210766 
L 167.337231 122.752896 
L 168.003934 122.929275 
L 170.004042 122.355581 
L 170.670745 122.452125 
L 171.337448 122.2906 
L 172.670854 122.359295 
L 173.337557 122.006538 
L 174.004259 121.4904 
L 174.670962 121.464408 
L 175.337665 121.767035 
L 176.004368 122.27946 
L 177.337774 123.907709 
L 178.004476 124.451696 
L 178.671179 125.212907 
L 179.337882 125.177632 
L 180.671288 124.824875 
L 182.004693 125.062522 
L 182.671396 125.339157 
L 183.338099 125.110794 
L 184.004802 125.064378 
L 184.671505 124.732045 
L 186.00491 123.31545 
L 186.671613 122.528246 
L 187.338316 122.544956 
L 188.671722 123.187344 
L 190.005127 123.749897 
L 190.67183 124.479546 
L 191.338533 124.756181 
L 192.005236 124.78403 
L 192.671939 124.544527 
L 194.005344 124.221477 
L 194.672047 124.030245 
L 195.33875 124.00054 
L 195.33875 124.00054 
" style="fill:none;stroke:#0000ff;stroke-linecap:square;stroke-opacity:0.5;stroke-width:2;"/>
   </g>
   <g id="line2d_24">
    <path clip-path="url(#pbab7510d3f)" d="M 62.664886 120.847084 
L 63.330474 120.969621 
L 63.996062 121.398498 
L 64.66165 121.972191 
L 65.327238 122.777032 
L 67.324002 126.24704 
L 67.98959 127.076946 
L 68.655178 128.151924 
L 69.320766 129.561093 
L 69.986354 130.630501 
L 71.31753 132.164991 
L 71.983118 132.643997 
L 73.314293 132.560449 
L 73.979881 132.365505 
L 75.311057 131.582943 
L 75.976645 131.36015 
L 76.642233 130.936842 
L 77.307821 130.209978 
L 77.973409 129.126645 
L 79.970173 123.606938 
L 81.301349 118.972834 
L 81.966937 117.374292 
L 82.632525 116.661353 
L 83.963701 114.177206 
L 85.960464 111.963196 
L 86.626052 110.96341 
L 87.29164 110.29503 
L 87.957228 110.027678 
L 88.622816 110.172494 
L 89.288404 110.523393 
L 90.61958 112.470051 
L 91.285168 113.898714 
L 92.616344 117.076305 
L 93.281932 118.60244 
L 93.94752 120.418207 
L 96.609872 128.881573 
L 97.275459 130.945197 
L 98.606635 133.682771 
L 99.272223 134.022531 
L 99.937811 133.983542 
L 101.268987 133.067304 
L 101.934575 132.270818 
L 102.600163 130.906208 
L 103.265751 128.898282 
L 103.931339 126.472619 
L 105.262515 123.02489 
L 105.928103 121.540529 
L 106.593691 119.423991 
L 107.924867 114.063024 
L 108.590455 112.336375 
L 109.256042 111.311525 
L 109.92163 110.679349 
L 111.252806 109.8021 
L 111.918394 109.871723 
L 112.583982 110.339589 
L 113.24957 111.141645 
L 115.246334 114.358225 
L 115.911922 114.912424 
L 116.57751 115.21041 
L 117.243098 115.789673 
L 118.574274 117.488473 
L 121.236625 122.824376 
L 122.567801 126.441984 
L 123.233389 127.567091 
L 123.898977 128.229902 
L 124.564565 128.725617 
L 125.230153 129.580587 
L 126.561329 130.708479 
L 129.889269 130.463406 
L 131.220445 130.856079 
L 131.886033 130.811521 
L 134.548384 128.536243 
L 135.213972 127.842798 
L 136.545148 125.974118 
L 137.210736 125.152567 
L 139.2075 120.838729 
L 140.538676 117.947985 
L 141.869852 115.856511 
L 142.53544 114.628362 
L 143.201028 114.210625 
L 143.866616 114.085303 
L 144.532204 113.765038 
L 145.197792 113.656426 
L 145.863379 113.751113 
L 146.528967 114.762038 
L 147.194555 116.137788 
L 147.860143 117.109724 
L 149.191319 118.719407 
L 149.856907 118.981189 
L 150.522495 118.961695 
L 151.188083 119.557667 
L 153.184847 122.601583 
L 153.850435 124.180631 
L 154.516023 124.748754 
L 155.181611 124.946484 
L 155.847199 125.344727 
L 156.512787 126.336158 
L 157.178375 127.054666 
L 157.843962 128.062807 
L 158.50955 128.845369 
L 159.175138 129.934272 
L 160.506314 132.922489 
L 162.503078 135.60158 
L 163.834254 135.891211 
L 166.496606 138.884998 
L 167.162194 139.728828 
L 168.49337 140.940267 
L 169.158958 141.168631 
L 169.824545 140.881784 
L 170.490133 140.890139 
L 171.155721 141.307877 
L 171.821309 140.954192 
L 172.486897 140.157705 
L 174.483661 136.108435 
L 175.814837 133.306807 
L 176.480425 131.574588 
L 177.146013 129.243612 
L 180.473953 113.238688 
L 181.139541 110.960625 
L 181.805128 109.242331 
L 182.470716 108.362297 
L 183.136304 107.90557 
L 183.801892 106.827807 
L 184.46748 106.446273 
L 185.133068 106.524251 
L 185.798656 107.724551 
L 186.464244 108.60737 
L 188.461008 110.211483 
L 189.126596 111.183419 
L 189.792184 111.926992 
L 191.788948 114.809382 
L 192.454536 116.226905 
L 193.120124 117.349227 
L 193.785711 117.917351 
L 194.451299 118.193057 
L 195.116887 118.271035 
L 195.782475 118.677633 
L 197.113651 120.861009 
L 197.779239 122.451197 
L 201.107179 128.377502 
L 202.438355 129.438556 
L 204.435119 130.66392 
L 205.100707 130.262892 
L 205.766294 130.262892 
L 206.431882 130.093012 
L 207.09747 129.65578 
L 209.759822 127.074161 
L 211.090998 125.149783 
L 211.756586 124.019106 
L 212.422174 122.119792 
L 213.087762 120.819235 
L 213.75335 119.095371 
L 214.418938 117.805954 
L 215.084526 117.209981 
L 215.750114 117.170993 
L 216.415702 117.808739 
L 219.078053 122.00561 
L 220.409229 123.70998 
L 221.074817 123.927204 
L 221.740405 123.852011 
L 222.405993 123.464907 
L 223.071581 122.484616 
L 223.737169 121.078232 
L 225.068345 120.65214 
L 225.733933 120.688344 
L 226.399521 121.139501 
L 227.065109 121.412423 
L 227.730697 122.197769 
L 228.396285 122.779817 
L 229.061873 123.008181 
L 229.72746 123.637572 
L 230.393048 123.857581 
L 231.724224 123.21148 
L 232.389812 122.910708 
L 233.0554 122.217264 
L 233.720988 121.871934 
L 234.386576 121.275962 
L 235.052164 120.938987 
L 235.717752 120.81088 
L 236.38334 121.14507 
L 237.048928 120.724548 
L 237.714516 120.081232 
L 238.380104 119.869578 
L 239.71128 119.702483 
L 240.376868 118.922706 
L 241.042456 117.608225 
L 243.039219 116.839587 
L 245.035983 117.229476 
L 245.701571 117.513537 
L 247.032747 119.025748 
L 248.363923 119.073092 
L 249.029511 119.031318 
L 249.695099 119.568807 
L 251.026275 119.733117 
L 252.357451 119.710838 
L 253.023039 119.156639 
L 253.688626 117.644429 
L 254.354214 116.811738 
L 257.016566 115.021036 
L 257.682154 115.138002 
L 258.347742 115.001541 
L 259.01333 114.447343 
L 259.678918 114.581019 
L 261.010094 115.032176 
L 261.675682 115.018251 
L 261.675682 115.018251 
" style="fill:none;stroke:#ff0000;stroke-linecap:square;stroke-opacity:0.5;stroke-width:2;"/>
   </g>
   <g id="line2d_25">
    <path clip-path="url(#pbab7510d3f)" d="M 62.664886 125.981545 
L 64.659982 126.007537 
L 66.655078 125.729045 
L 67.32011 126.107794 
L 67.985142 126.969262 
L 68.650173 127.284886 
L 69.315205 127.418562 
L 69.980237 127.292313 
L 71.310301 127.292313 
L 71.975333 126.430845 
L 73.305397 123.437986 
L 73.970429 122.376004 
L 74.635461 122.431703 
L 75.300492 121.986116 
L 75.965524 121.254611 
L 77.96062 118.302598 
L 79.290684 117.411424 
L 79.955716 117.738187 
L 80.620748 118.755611 
L 81.28578 120.697627 
L 82.615843 125.045812 
L 83.280875 126.798454 
L 83.945907 127.080659 
L 84.610939 127.125218 
L 85.275971 127.563378 
L 87.936098 126.813307 
L 90.596226 125.212907 
L 91.261258 124.43313 
L 93.256354 123.248612 
L 94.586417 121.570235 
L 95.251449 120.292886 
L 95.916481 118.566236 
L 97.246545 116.605654 
L 98.576609 116.252898 
L 99.906673 115.109225 
L 100.571705 114.812167 
L 101.236736 115.317165 
L 101.901768 116.007825 
L 103.231832 116.87672 
L 104.561896 119.461123 
L 105.89196 121.767035 
L 106.556992 122.168064 
L 107.222024 122.045527 
L 107.887055 122.283174 
L 108.552087 121.800455 
L 109.217119 121.503397 
L 109.882151 121.974976 
L 110.547183 123.174347 
L 111.212215 123.898426 
L 112.542279 126.579374 
L 113.207311 127.091799 
L 113.872343 127.192056 
L 114.537374 127.789885 
L 115.867438 129.549953 
L 116.53247 130.199767 
L 118.527566 131.180058 
L 119.192598 131.027816 
L 119.85763 130.017819 
L 120.522661 129.795026 
L 121.852725 130.032672 
L 123.182789 128.699625 
L 123.847821 128.142641 
L 124.512853 127.864149 
L 125.842917 125.550811 
L 126.507949 125.075518 
L 128.503044 124.797026 
L 129.168076 124.77846 
L 129.833108 124.262322 
L 131.163172 122.788172 
L 131.828204 121.83016 
L 132.493236 121.072663 
L 133.158268 120.563951 
L 134.488331 119.999541 
L 137.148459 116.950984 
L 138.478523 115.320879 
L 139.143555 115.068379 
L 139.808587 114.949556 
L 140.473618 114.359154 
L 141.13865 113.271179 
L 141.803682 112.584233 
L 142.468714 112.302028 
L 143.133746 111.611368 
L 144.46381 110.820451 
L 145.793874 111.477692 
L 147.788969 113.720479 
L 149.119033 115.896428 
L 150.449097 118.610795 
L 151.114129 120.133217 
L 152.444193 122.387144 
L 153.109224 123.204053 
L 153.774256 123.527104 
L 154.439288 124.262322 
L 156.434384 125.064378 
L 157.099416 125.004967 
L 158.42948 126.958123 
L 159.759543 129.594512 
L 160.424575 130.244326 
L 161.089607 130.188627 
L 161.754639 130.337156 
L 162.419671 130.103223 
L 163.749735 129.260321 
L 165.079799 127.849296 
L 166.409862 127.154923 
L 167.074894 127.444555 
L 167.739926 128.413706 
L 169.735022 132.631929 
L 170.400054 133.292883 
L 171.065086 133.419132 
L 171.730118 133.226045 
L 173.060181 133.578801 
L 173.725213 134.128358 
L 174.390245 135.104936 
L 175.720309 136.541954 
L 177.050373 137.418274 
L 177.715405 137.451693 
L 178.380437 136.694196 
L 179.045469 136.972688 
L 179.7105 136.961548 
L 180.375532 136.345153 
L 181.040564 136.103793 
L 181.705596 136.166918 
L 183.03566 135.450266 
L 183.700692 134.819018 
L 184.365724 133.968689 
L 186.360819 127.110365 
L 187.690883 122.16435 
L 188.355915 120.716193 
L 189.685979 120.370863 
L 190.351011 120.296599 
L 191.016043 119.914137 
L 192.346106 117.957268 
L 193.67617 114.581947 
L 195.006234 110.64593 
L 195.671266 109.242331 
L 196.336298 108.325165 
L 197.00133 107.70877 
L 197.666362 107.389432 
L 198.331394 107.827593 
L 198.996425 108.510826 
L 199.661457 108.9527 
L 200.991521 109.424279 
L 201.656553 109.8513 
L 202.321585 110.41571 
L 203.651649 112.617652 
L 204.981713 115.016394 
L 205.646744 115.896428 
L 207.64184 119.46855 
L 209.636936 123.683059 
L 210.967 126.144927 
L 211.632031 126.248897 
L 213.627127 124.303167 
L 214.957191 123.092656 
L 215.622223 122.194056 
L 216.287255 121.061523 
L 217.617319 119.431418 
L 218.947382 117.281461 
L 219.612414 116.787602 
L 220.277446 115.918708 
L 220.942478 115.881576 
L 223.602606 114.073235 
L 224.267638 112.807026 
L 224.932669 113.11151 
L 225.597701 113.690773 
L 226.262733 114.81588 
L 230.252925 126.460551 
L 230.917957 128.023818 
L 231.582988 129.18977 
L 232.24802 130.028959 
L 232.913052 130.671347 
L 234.908148 131.34344 
L 236.238212 130.89414 
L 237.568276 129.152638 
L 238.898339 127.62279 
L 239.563371 127.258894 
L 240.893435 127.333158 
L 241.558467 127.195769 
L 242.888531 125.821876 
L 244.218594 125.535958 
L 244.883626 125.016106 
L 245.548658 124.299454 
L 247.543754 120.979832 
L 248.208786 120.727333 
L 249.53885 121.366007 
L 250.203882 122.156924 
L 250.868913 123.352582 
L 252.864009 127.685914 
L 254.194073 130.21462 
L 256.189169 134.098652 
L 256.854201 134.815304 
L 257.519232 134.622217 
L 258.849296 134.789312 
L 259.514328 135.520817 
L 260.17936 136.79074 
L 260.844392 138.391139 
L 262.174456 142.115503 
L 262.839488 143.422558 
L 264.169551 144.959832 
L 264.834583 145.089795 
L 265.499615 144.79645 
L 266.164647 144.176342 
L 266.829679 143.222044 
L 267.494711 141.75532 
L 268.824775 136.942982 
L 271.484902 126.939556 
L 273.479998 120.660495 
L 274.14503 119.628218 
L 274.810062 119.294028 
L 275.475094 118.588516 
L 276.140126 118.113223 
L 277.470189 116.512824 
L 278.800253 114.35544 
L 279.465285 113.185775 
L 280.130317 112.922136 
L 282.125413 111.711625 
L 282.790445 111.028392 
L 283.455476 110.794459 
L 284.120508 110.816738 
L 285.450572 110.28946 
L 287.445668 108.670495 
L 288.1107 108.715053 
L 288.775732 108.317738 
L 289.440764 107.415425 
L 290.105795 106.190061 
L 290.770827 104.678779 
L 291.435859 104.333449 
L 292.100891 105.1058 
L 293.430955 105.517967 
L 294.095987 106.743331 
L 294.761019 106.758184 
L 295.426051 106.475979 
L 296.091083 106.063811 
L 296.756114 106.074951 
L 298.086178 107.344874 
L 298.75121 107.13322 
L 299.416242 107.196345 
L 300.081274 107.575094 
L 300.746306 107.448844 
L 301.411338 107.166639 
L 302.741402 106.156642 
L 304.071465 105.848444 
L 305.401529 106.91414 
L 306.731593 109.576521 
L 308.726689 113.256326 
L 310.721784 117.641644 
L 311.386816 118.77789 
L 312.71688 121.781888 
L 314.046944 124.592799 
L 315.377008 127.827017 
L 316.042039 128.822161 
L 316.707071 129.442269 
L 317.372103 129.516534 
L 318.037135 129.806165 
L 319.367199 129.705908 
L 320.697263 130.036385 
L 321.362295 130.181201 
L 322.027327 129.99554 
L 324.022422 128.963264 
L 325.352486 127.879002 
L 326.68255 126.627646 
L 328.012614 126.245184 
L 328.012614 126.245184 
" style="fill:none;stroke:#008000;stroke-linecap:square;stroke-opacity:0.5;stroke-width:2;"/>
   </g>
   <g id="patch_3">
    <path d="M 49.3975 234.5525 
L 49.3975 11.759062 
" style="fill:none;stroke:#000000;stroke-linecap:square;stroke-linejoin:miter;stroke-width:2;"/>
   </g>
   <g id="patch_4">
    <path d="M 341.28 234.5525 
L 341.28 11.759062 
" style="fill:none;stroke:#000000;stroke-linecap:square;stroke-linejoin:miter;stroke-width:2;"/>
   </g>
   <g id="patch_5">
    <path d="M 49.3975 234.5525 
L 341.28 234.5525 
" style="fill:none;stroke:#000000;stroke-linecap:square;stroke-linejoin:miter;stroke-width:2;"/>
   </g>
   <g id="patch_6">
    <path d="M 49.3975 11.759062 
L 341.28 11.759062 
" style="fill:none;stroke:#000000;stroke-linecap:square;stroke-linejoin:miter;stroke-width:2;"/>
   </g>
   <g id="legend_1">
    <g id="line2d_26">
     <path d="M 245.26125 27.477188 
L 269.26125 27.477188 
" style="fill:none;stroke:#0000ff;stroke-linecap:square;stroke-opacity:0.5;stroke-width:2;"/>
    </g>
    <g id="line2d_27"/>
    <g id="text_14">
     <!-- yz-plane -->
     <g transform="translate(278.86125 31.677188)scale(0.12 -0.12)">
      <defs>
       <path d="M 5.515625 54.6875 
L 48.1875 54.6875 
L 48.1875 46.484375 
L 14.40625 7.171875 
L 48.1875 7.171875 
L 48.1875 0 
L 4.296875 0 
L 4.296875 8.203125 
L 38.09375 47.515625 
L 5.515625 47.515625 
z
" id="DejaVuSans-122"/>
       <path d="M 4.890625 31.390625 
L 31.203125 31.390625 
L 31.203125 23.390625 
L 4.890625 23.390625 
z
" id="DejaVuSans-45"/>
       <path d="M 18.109375 8.203125 
L 18.109375 -20.796875 
L 9.078125 -20.796875 
L 9.078125 54.6875 
L 18.109375 54.6875 
L 18.109375 46.390625 
Q 20.953125 51.265625 25.265625 53.625 
Q 29.59375 56 35.59375 56 
Q 45.5625 56 51.78125 48.09375 
Q 58.015625 40.1875 58.015625 27.296875 
Q 58.015625 14.40625 51.78125 6.484375 
Q 45.5625 -1.421875 35.59375 -1.421875 
Q 29.59375 -1.421875 25.265625 0.953125 
Q 20.953125 3.328125 18.109375 8.203125 
z
M 48.6875 27.296875 
Q 48.6875 37.203125 44.609375 42.84375 
Q 40.53125 48.484375 33.40625 48.484375 
Q 26.265625 48.484375 22.1875 42.84375 
Q 18.109375 37.203125 18.109375 27.296875 
Q 18.109375 17.390625 22.1875 11.75 
Q 26.265625 6.109375 33.40625 6.109375 
Q 40.53125 6.109375 44.609375 11.75 
Q 48.6875 17.390625 48.6875 27.296875 
z
" id="DejaVuSans-112"/>
      </defs>
      <use xlink:href="#DejaVuSans-121"/>
      <use x="59.179688" xlink:href="#DejaVuSans-122"/>
      <use x="111.669922" xlink:href="#DejaVuSans-45"/>
      <use x="147.753906" xlink:href="#DejaVuSans-112"/>
      <use x="211.230469" xlink:href="#DejaVuSans-108"/>
      <use x="239.013672" xlink:href="#DejaVuSans-97"/>
      <use x="300.292969" xlink:href="#DejaVuSans-110"/>
      <use x="363.671875" xlink:href="#DejaVuSans-101"/>
     </g>
    </g>
    <g id="line2d_28">
     <path d="M 245.26125 45.090938 
L 269.26125 45.090938 
" style="fill:none;stroke:#ff0000;stroke-linecap:square;stroke-opacity:0.5;stroke-width:2;"/>
    </g>
    <g id="line2d_29"/>
    <g id="text_15">
     <!-- xz-plane -->
     <g transform="translate(278.86125 49.290938)scale(0.12 -0.12)">
      <use xlink:href="#DejaVuSans-120"/>
      <use x="59.179688" xlink:href="#DejaVuSans-122"/>
      <use x="111.669922" xlink:href="#DejaVuSans-45"/>
      <use x="147.753906" xlink:href="#DejaVuSans-112"/>
      <use x="211.230469" xlink:href="#DejaVuSans-108"/>
      <use x="239.013672" xlink:href="#DejaVuSans-97"/>
      <use x="300.292969" xlink:href="#DejaVuSans-110"/>
      <use x="363.671875" xlink:href="#DejaVuSans-101"/>
     </g>
    </g>
    <g id="line2d_30">
     <path d="M 245.26125 62.704687 
L 269.26125 62.704687 
" style="fill:none;stroke:#008000;stroke-linecap:square;stroke-opacity:0.5;stroke-width:2;"/>
    </g>
    <g id="line2d_31"/>
    <g id="text_16">
     <!-- xy-plane -->
     <g transform="translate(278.86125 66.904687)scale(0.12 -0.12)">
      <use xlink:href="#DejaVuSans-120"/>
      <use x="59.179688" xlink:href="#DejaVuSans-121"/>
      <use x="116.609375" xlink:href="#DejaVuSans-45"/>
      <use x="152.693359" xlink:href="#DejaVuSans-112"/>
      <use x="216.169922" xlink:href="#DejaVuSans-108"/>
      <use x="243.953125" xlink:href="#DejaVuSans-97"/>
      <use x="305.232422" xlink:href="#DejaVuSans-110"/>
      <use x="368.611328" xlink:href="#DejaVuSans-101"/>
     </g>
    </g>
   </g>
  </g>
 </g>
 <defs>
  <clipPath id="pbab7510d3f">
   <rect height="222.793437" width="291.8825" x="49.3975" y="11.759062"/>
  </clipPath>
 </defs>
</svg>
