<?xml version="1.0" encoding="utf-8" standalone="no"?>
<!DOCTYPE svg PUBLIC "-//W3C//DTD SVG 1.1//EN"
  "http://www.w3.org/Graphics/SVG/1.1/DTD/svg11.dtd">
<svg xmlns:xlink="http://www.w3.org/1999/xlink" width="348.48pt" height="276.48pt" viewBox="0 0 348.48 276.48" xmlns="http://www.w3.org/2000/svg" version="1.1">
 <metadata>
  <rdf:RDF xmlns:dc="http://purl.org/dc/elements/1.1/" xmlns:cc="http://creativecommons.org/ns#" xmlns:rdf="http://www.w3.org/1999/02/22-rdf-syntax-ns#">
   <cc:Work>
    <dc:type rdf:resource="http://purl.org/dc/dcmitype/StillImage"/>
    <dc:date>2022-08-23T00:39:58.739839</dc:date>
    <dc:format>image/svg+xml</dc:format>
    <dc:creator>
     <cc:Agent>
      <dc:title>Matplotlib v3.5.3, https://matplotlib.org/</dc:title>
     </cc:Agent>
    </dc:creator>
   </cc:Work>
  </rdf:RDF>
 </metadata>
 <defs>
  <style type="text/css">*{stroke-linejoin: round; stroke-linecap: butt}</style>
 </defs>
 <g id="figure_1">
  <g id="patch_1">
   <path d="M 0 276.48 
L 348.48 276.48 
L 348.48 0 
L 0 0 
z
" style="fill: #ffffff"/>
  </g>
  <g id="axes_1">
   <g id="patch_2">
    <path d="M 49.3975 234.5525 
L 341.28 234.5525 
L 341.28 11.759062 
L 49.3975 11.759062 
z
" style="fill: #ffffff"/>
   </g>
   <g id="matplotlib.axis_1">
    <g id="xtick_1">
     <g id="line2d_1">
      <defs>
       <path id="m05edc8ce1d" d="M 0 0 
L 0 -6 
" style="stroke: #000000; stroke-width: 2"/>
      </defs>
      <g>
       <use xlink:href="#m05edc8ce1d" x="62.664886" y="234.5525" style="fill: #ffffff; stroke: #000000; stroke-width: 2"/>
      </g>
     </g>
     <g id="line2d_2">
      <defs>
       <path id="mfce6f38526" d="M 0 0 
L 0 6 
" style="stroke: #000000; stroke-width: 2"/>
      </defs>
      <g>
       <use xlink:href="#mfce6f38526" x="62.664886" y="11.759062" style="fill: #ffffff; stroke: #000000; stroke-width: 2"/>
      </g>
     </g>
     <g id="text_1">
      <!-- 0 -->
      <g transform="translate(58.847386 247.170625)scale(0.12 -0.12)">
       <defs>
        <path id="DejaVuSans-30" d="M 2034 4250 
Q 1547 4250 1301 3770 
Q 1056 3291 1056 2328 
Q 1056 1369 1301 889 
Q 1547 409 2034 409 
Q 2525 409 2770 889 
Q 3016 1369 3016 2328 
Q 3016 3291 2770 3770 
Q 2525 4250 2034 4250 
z
M 2034 4750 
Q 2819 4750 3233 4129 
Q 3647 3509 3647 2328 
Q 3647 1150 3233 529 
Q 2819 -91 2034 -91 
Q 1250 -91 836 529 
Q 422 1150 422 2328 
Q 422 3509 836 4129 
Q 1250 4750 2034 4750 
z
" transform="scale(0.015625)"/>
       </defs>
       <use xlink:href="#DejaVuSans-30"/>
      </g>
     </g>
    </g>
    <g id="xtick_2">
     <g id="line2d_3">
      <g>
       <use xlink:href="#m05edc8ce1d" x="118.882625" y="234.5525" style="fill: #ffffff; stroke: #000000; stroke-width: 2"/>
      </g>
     </g>
     <g id="line2d_4">
      <g>
       <use xlink:href="#mfce6f38526" x="118.882625" y="11.759062" style="fill: #ffffff; stroke: #000000; stroke-width: 2"/>
      </g>
     </g>
     <g id="text_2">
      <!-- 500 -->
      <g transform="translate(107.430125 247.170625)scale(0.12 -0.12)">
       <defs>
        <path id="DejaVuSans-35" d="M 691 4666 
L 3169 4666 
L 3169 4134 
L 1269 4134 
L 1269 2991 
Q 1406 3038 1543 3061 
Q 1681 3084 1819 3084 
Q 2600 3084 3056 2656 
Q 3513 2228 3513 1497 
Q 3513 744 3044 326 
Q 2575 -91 1722 -91 
Q 1428 -91 1123 -41 
Q 819 9 494 109 
L 494 744 
Q 775 591 1075 516 
Q 1375 441 1709 441 
Q 2250 441 2565 725 
Q 2881 1009 2881 1497 
Q 2881 1984 2565 2268 
Q 2250 2553 1709 2553 
Q 1456 2553 1204 2497 
Q 953 2441 691 2322 
L 691 4666 
z
" transform="scale(0.015625)"/>
       </defs>
       <use xlink:href="#DejaVuSans-35"/>
       <use xlink:href="#DejaVuSans-30" x="63.623047"/>
       <use xlink:href="#DejaVuSans-30" x="127.246094"/>
      </g>
     </g>
    </g>
    <g id="xtick_3">
     <g id="line2d_5">
      <g>
       <use xlink:href="#m05edc8ce1d" x="175.100364" y="234.5525" style="fill: #ffffff; stroke: #000000; stroke-width: 2"/>
      </g>
     </g>
     <g id="line2d_6">
      <g>
       <use xlink:href="#mfce6f38526" x="175.100364" y="11.759062" style="fill: #ffffff; stroke: #000000; stroke-width: 2"/>
      </g>
     </g>
     <g id="text_3">
      <!-- 1000 -->
      <g transform="translate(159.830364 247.170625)scale(0.12 -0.12)">
       <defs>
        <path id="DejaVuSans-31" d="M 794 531 
L 1825 531 
L 1825 4091 
L 703 3866 
L 703 4441 
L 1819 4666 
L 2450 4666 
L 2450 531 
L 3481 531 
L 3481 0 
L 794 0 
L 794 531 
z
" transform="scale(0.015625)"/>
       </defs>
       <use xlink:href="#DejaVuSans-31"/>
       <use xlink:href="#DejaVuSans-30" x="63.623047"/>
       <use xlink:href="#DejaVuSans-30" x="127.246094"/>
       <use xlink:href="#DejaVuSans-30" x="190.869141"/>
      </g>
     </g>
    </g>
    <g id="xtick_4">
     <g id="line2d_7">
      <g>
       <use xlink:href="#m05edc8ce1d" x="231.318103" y="234.5525" style="fill: #ffffff; stroke: #000000; stroke-width: 2"/>
      </g>
     </g>
     <g id="line2d_8">
      <g>
       <use xlink:href="#mfce6f38526" x="231.318103" y="11.759062" style="fill: #ffffff; stroke: #000000; stroke-width: 2"/>
      </g>
     </g>
     <g id="text_4">
      <!-- 1500 -->
      <g transform="translate(216.048103 247.170625)scale(0.12 -0.12)">
       <use xlink:href="#DejaVuSans-31"/>
       <use xlink:href="#DejaVuSans-35" x="63.623047"/>
       <use xlink:href="#DejaVuSans-30" x="127.246094"/>
       <use xlink:href="#DejaVuSans-30" x="190.869141"/>
      </g>
     </g>
    </g>
    <g id="xtick_5">
     <g id="line2d_9">
      <g>
       <use xlink:href="#m05edc8ce1d" x="287.535842" y="234.5525" style="fill: #ffffff; stroke: #000000; stroke-width: 2"/>
      </g>
     </g>
     <g id="line2d_10">
      <g>
       <use xlink:href="#mfce6f38526" x="287.535842" y="11.759062" style="fill: #ffffff; stroke: #000000; stroke-width: 2"/>
      </g>
     </g>
     <g id="text_5">
      <!-- 2000 -->
      <g transform="translate(272.265842 247.170625)scale(0.12 -0.12)">
       <defs>
        <path id="DejaVuSans-32" d="M 1228 531 
L 3431 531 
L 3431 0 
L 469 0 
L 469 531 
Q 828 903 1448 1529 
Q 2069 2156 2228 2338 
Q 2531 2678 2651 2914 
Q 2772 3150 2772 3378 
Q 2772 3750 2511 3984 
Q 2250 4219 1831 4219 
Q 1534 4219 1204 4116 
Q 875 4013 500 3803 
L 500 4441 
Q 881 4594 1212 4672 
Q 1544 4750 1819 4750 
Q 2544 4750 2975 4387 
Q 3406 4025 3406 3419 
Q 3406 3131 3298 2873 
Q 3191 2616 2906 2266 
Q 2828 2175 2409 1742 
Q 1991 1309 1228 531 
z
" transform="scale(0.015625)"/>
       </defs>
       <use xlink:href="#DejaVuSans-32"/>
       <use xlink:href="#DejaVuSans-30" x="63.623047"/>
       <use xlink:href="#DejaVuSans-30" x="127.246094"/>
       <use xlink:href="#DejaVuSans-30" x="190.869141"/>
      </g>
     </g>
    </g>
    <g id="text_6">
     <!-- Position of slice along given axis -->
     <g transform="translate(98.045 266.784375)scale(0.12 -0.12)">
      <defs>
       <path id="DejaVuSans-50" d="M 1259 4147 
L 1259 2394 
L 2053 2394 
Q 2494 2394 2734 2622 
Q 2975 2850 2975 3272 
Q 2975 3691 2734 3919 
Q 2494 4147 2053 4147 
L 1259 4147 
z
M 628 4666 
L 2053 4666 
Q 2838 4666 3239 4311 
Q 3641 3956 3641 3272 
Q 3641 2581 3239 2228 
Q 2838 1875 2053 1875 
L 1259 1875 
L 1259 0 
L 628 0 
L 628 4666 
z
" transform="scale(0.015625)"/>
       <path id="DejaVuSans-6f" d="M 1959 3097 
Q 1497 3097 1228 2736 
Q 959 2375 959 1747 
Q 959 1119 1226 758 
Q 1494 397 1959 397 
Q 2419 397 2687 759 
Q 2956 1122 2956 1747 
Q 2956 2369 2687 2733 
Q 2419 3097 1959 3097 
z
M 1959 3584 
Q 2709 3584 3137 3096 
Q 3566 2609 3566 1747 
Q 3566 888 3137 398 
Q 2709 -91 1959 -91 
Q 1206 -91 779 398 
Q 353 888 353 1747 
Q 353 2609 779 3096 
Q 1206 3584 1959 3584 
z
" transform="scale(0.015625)"/>
       <path id="DejaVuSans-73" d="M 2834 3397 
L 2834 2853 
Q 2591 2978 2328 3040 
Q 2066 3103 1784 3103 
Q 1356 3103 1142 2972 
Q 928 2841 928 2578 
Q 928 2378 1081 2264 
Q 1234 2150 1697 2047 
L 1894 2003 
Q 2506 1872 2764 1633 
Q 3022 1394 3022 966 
Q 3022 478 2636 193 
Q 2250 -91 1575 -91 
Q 1294 -91 989 -36 
Q 684 19 347 128 
L 347 722 
Q 666 556 975 473 
Q 1284 391 1588 391 
Q 1994 391 2212 530 
Q 2431 669 2431 922 
Q 2431 1156 2273 1281 
Q 2116 1406 1581 1522 
L 1381 1569 
Q 847 1681 609 1914 
Q 372 2147 372 2553 
Q 372 3047 722 3315 
Q 1072 3584 1716 3584 
Q 2034 3584 2315 3537 
Q 2597 3491 2834 3397 
z
" transform="scale(0.015625)"/>
       <path id="DejaVuSans-69" d="M 603 3500 
L 1178 3500 
L 1178 0 
L 603 0 
L 603 3500 
z
M 603 4863 
L 1178 4863 
L 1178 4134 
L 603 4134 
L 603 4863 
z
" transform="scale(0.015625)"/>
       <path id="DejaVuSans-74" d="M 1172 4494 
L 1172 3500 
L 2356 3500 
L 2356 3053 
L 1172 3053 
L 1172 1153 
Q 1172 725 1289 603 
Q 1406 481 1766 481 
L 2356 481 
L 2356 0 
L 1766 0 
Q 1100 0 847 248 
Q 594 497 594 1153 
L 594 3053 
L 172 3053 
L 172 3500 
L 594 3500 
L 594 4494 
L 1172 4494 
z
" transform="scale(0.015625)"/>
       <path id="DejaVuSans-6e" d="M 3513 2113 
L 3513 0 
L 2938 0 
L 2938 2094 
Q 2938 2591 2744 2837 
Q 2550 3084 2163 3084 
Q 1697 3084 1428 2787 
Q 1159 2491 1159 1978 
L 1159 0 
L 581 0 
L 581 3500 
L 1159 3500 
L 1159 2956 
Q 1366 3272 1645 3428 
Q 1925 3584 2291 3584 
Q 2894 3584 3203 3211 
Q 3513 2838 3513 2113 
z
" transform="scale(0.015625)"/>
       <path id="DejaVuSans-20" transform="scale(0.015625)"/>
       <path id="DejaVuSans-66" d="M 2375 4863 
L 2375 4384 
L 1825 4384 
Q 1516 4384 1395 4259 
Q 1275 4134 1275 3809 
L 1275 3500 
L 2222 3500 
L 2222 3053 
L 1275 3053 
L 1275 0 
L 697 0 
L 697 3053 
L 147 3053 
L 147 3500 
L 697 3500 
L 697 3744 
Q 697 4328 969 4595 
Q 1241 4863 1831 4863 
L 2375 4863 
z
" transform="scale(0.015625)"/>
       <path id="DejaVuSans-6c" d="M 603 4863 
L 1178 4863 
L 1178 0 
L 603 0 
L 603 4863 
z
" transform="scale(0.015625)"/>
       <path id="DejaVuSans-63" d="M 3122 3366 
L 3122 2828 
Q 2878 2963 2633 3030 
Q 2388 3097 2138 3097 
Q 1578 3097 1268 2742 
Q 959 2388 959 1747 
Q 959 1106 1268 751 
Q 1578 397 2138 397 
Q 2388 397 2633 464 
Q 2878 531 3122 666 
L 3122 134 
Q 2881 22 2623 -34 
Q 2366 -91 2075 -91 
Q 1284 -91 818 406 
Q 353 903 353 1747 
Q 353 2603 823 3093 
Q 1294 3584 2113 3584 
Q 2378 3584 2631 3529 
Q 2884 3475 3122 3366 
z
" transform="scale(0.015625)"/>
       <path id="DejaVuSans-65" d="M 3597 1894 
L 3597 1613 
L 953 1613 
Q 991 1019 1311 708 
Q 1631 397 2203 397 
Q 2534 397 2845 478 
Q 3156 559 3463 722 
L 3463 178 
Q 3153 47 2828 -22 
Q 2503 -91 2169 -91 
Q 1331 -91 842 396 
Q 353 884 353 1716 
Q 353 2575 817 3079 
Q 1281 3584 2069 3584 
Q 2775 3584 3186 3129 
Q 3597 2675 3597 1894 
z
M 3022 2063 
Q 3016 2534 2758 2815 
Q 2500 3097 2075 3097 
Q 1594 3097 1305 2825 
Q 1016 2553 972 2059 
L 3022 2063 
z
" transform="scale(0.015625)"/>
       <path id="DejaVuSans-61" d="M 2194 1759 
Q 1497 1759 1228 1600 
Q 959 1441 959 1056 
Q 959 750 1161 570 
Q 1363 391 1709 391 
Q 2188 391 2477 730 
Q 2766 1069 2766 1631 
L 2766 1759 
L 2194 1759 
z
M 3341 1997 
L 3341 0 
L 2766 0 
L 2766 531 
Q 2569 213 2275 61 
Q 1981 -91 1556 -91 
Q 1019 -91 701 211 
Q 384 513 384 1019 
Q 384 1609 779 1909 
Q 1175 2209 1959 2209 
L 2766 2209 
L 2766 2266 
Q 2766 2663 2505 2880 
Q 2244 3097 1772 3097 
Q 1472 3097 1187 3025 
Q 903 2953 641 2809 
L 641 3341 
Q 956 3463 1253 3523 
Q 1550 3584 1831 3584 
Q 2591 3584 2966 3190 
Q 3341 2797 3341 1997 
z
" transform="scale(0.015625)"/>
       <path id="DejaVuSans-67" d="M 2906 1791 
Q 2906 2416 2648 2759 
Q 2391 3103 1925 3103 
Q 1463 3103 1205 2759 
Q 947 2416 947 1791 
Q 947 1169 1205 825 
Q 1463 481 1925 481 
Q 2391 481 2648 825 
Q 2906 1169 2906 1791 
z
M 3481 434 
Q 3481 -459 3084 -895 
Q 2688 -1331 1869 -1331 
Q 1566 -1331 1297 -1286 
Q 1028 -1241 775 -1147 
L 775 -588 
Q 1028 -725 1275 -790 
Q 1522 -856 1778 -856 
Q 2344 -856 2625 -561 
Q 2906 -266 2906 331 
L 2906 616 
Q 2728 306 2450 153 
Q 2172 0 1784 0 
Q 1141 0 747 490 
Q 353 981 353 1791 
Q 353 2603 747 3093 
Q 1141 3584 1784 3584 
Q 2172 3584 2450 3431 
Q 2728 3278 2906 2969 
L 2906 3500 
L 3481 3500 
L 3481 434 
z
" transform="scale(0.015625)"/>
       <path id="DejaVuSans-76" d="M 191 3500 
L 800 3500 
L 1894 563 
L 2988 3500 
L 3597 3500 
L 2284 0 
L 1503 0 
L 191 3500 
z
" transform="scale(0.015625)"/>
       <path id="DejaVuSans-78" d="M 3513 3500 
L 2247 1797 
L 3578 0 
L 2900 0 
L 1881 1375 
L 863 0 
L 184 0 
L 1544 1831 
L 300 3500 
L 978 3500 
L 1906 2253 
L 2834 3500 
L 3513 3500 
z
" transform="scale(0.015625)"/>
      </defs>
      <use xlink:href="#DejaVuSans-50"/>
      <use xlink:href="#DejaVuSans-6f" x="56.677734"/>
      <use xlink:href="#DejaVuSans-73" x="117.859375"/>
      <use xlink:href="#DejaVuSans-69" x="169.958984"/>
      <use xlink:href="#DejaVuSans-74" x="197.742188"/>
      <use xlink:href="#DejaVuSans-69" x="236.951172"/>
      <use xlink:href="#DejaVuSans-6f" x="264.734375"/>
      <use xlink:href="#DejaVuSans-6e" x="325.916016"/>
      <use xlink:href="#DejaVuSans-20" x="389.294922"/>
      <use xlink:href="#DejaVuSans-6f" x="421.082031"/>
      <use xlink:href="#DejaVuSans-66" x="482.263672"/>
      <use xlink:href="#DejaVuSans-20" x="517.46875"/>
      <use xlink:href="#DejaVuSans-73" x="549.255859"/>
      <use xlink:href="#DejaVuSans-6c" x="601.355469"/>
      <use xlink:href="#DejaVuSans-69" x="629.138672"/>
      <use xlink:href="#DejaVuSans-63" x="656.921875"/>
      <use xlink:href="#DejaVuSans-65" x="711.902344"/>
      <use xlink:href="#DejaVuSans-20" x="773.425781"/>
      <use xlink:href="#DejaVuSans-61" x="805.212891"/>
      <use xlink:href="#DejaVuSans-6c" x="866.492188"/>
      <use xlink:href="#DejaVuSans-6f" x="894.275391"/>
      <use xlink:href="#DejaVuSans-6e" x="955.457031"/>
      <use xlink:href="#DejaVuSans-67" x="1018.835938"/>
      <use xlink:href="#DejaVuSans-20" x="1082.3125"/>
      <use xlink:href="#DejaVuSans-67" x="1114.099609"/>
      <use xlink:href="#DejaVuSans-69" x="1177.576172"/>
      <use xlink:href="#DejaVuSans-76" x="1205.359375"/>
      <use xlink:href="#DejaVuSans-65" x="1264.539062"/>
      <use xlink:href="#DejaVuSans-6e" x="1326.0625"/>
      <use xlink:href="#DejaVuSans-20" x="1389.441406"/>
      <use xlink:href="#DejaVuSans-61" x="1421.228516"/>
      <use xlink:href="#DejaVuSans-78" x="1482.507812"/>
      <use xlink:href="#DejaVuSans-69" x="1541.6875"/>
      <use xlink:href="#DejaVuSans-73" x="1569.470703"/>
     </g>
    </g>
   </g>
   <g id="matplotlib.axis_2">
    <g id="ytick_1">
     <g id="line2d_11">
      <defs>
       <path id="mac3ff2bf7e" d="M 0 0 
L 6 0 
" style="stroke: #000000; stroke-width: 2"/>
      </defs>
      <g>
       <use xlink:href="#mac3ff2bf7e" x="49.3975" y="234.5525" style="fill: #ffffff; stroke: #000000; stroke-width: 2"/>
      </g>
     </g>
     <g id="line2d_12">
      <defs>
       <path id="mbb2f1589ad" d="M 0 0 
L -6 0 
" style="stroke: #000000; stroke-width: 2"/>
      </defs>
      <g>
       <use xlink:href="#mbb2f1589ad" x="341.28" y="234.5525" style="fill: #ffffff; stroke: #000000; stroke-width: 2"/>
      </g>
     </g>
     <g id="text_7">
      <!-- 0.0 -->
      <g transform="translate(26.81375 239.111562)scale(0.12 -0.12)">
       <defs>
        <path id="DejaVuSans-2e" d="M 684 794 
L 1344 794 
L 1344 0 
L 684 0 
L 684 794 
z
" transform="scale(0.015625)"/>
       </defs>
       <use xlink:href="#DejaVuSans-30"/>
       <use xlink:href="#DejaVuSans-2e" x="63.623047"/>
       <use xlink:href="#DejaVuSans-30" x="95.410156"/>
      </g>
     </g>
    </g>
    <g id="ytick_2">
     <g id="line2d_13">
      <g>
       <use xlink:href="#mac3ff2bf7e" x="49.3975" y="189.993812" style="fill: #ffffff; stroke: #000000; stroke-width: 2"/>
      </g>
     </g>
     <g id="line2d_14">
      <g>
       <use xlink:href="#mbb2f1589ad" x="341.28" y="189.993812" style="fill: #ffffff; stroke: #000000; stroke-width: 2"/>
      </g>
     </g>
     <g id="text_8">
      <!-- 0.2 -->
      <g transform="translate(26.81375 194.552875)scale(0.12 -0.12)">
       <use xlink:href="#DejaVuSans-30"/>
       <use xlink:href="#DejaVuSans-2e" x="63.623047"/>
       <use xlink:href="#DejaVuSans-32" x="95.410156"/>
      </g>
     </g>
    </g>
    <g id="ytick_3">
     <g id="line2d_15">
      <g>
       <use xlink:href="#mac3ff2bf7e" x="49.3975" y="145.435125" style="fill: #ffffff; stroke: #000000; stroke-width: 2"/>
      </g>
     </g>
     <g id="line2d_16">
      <g>
       <use xlink:href="#mbb2f1589ad" x="341.28" y="145.435125" style="fill: #ffffff; stroke: #000000; stroke-width: 2"/>
      </g>
     </g>
     <g id="text_9">
      <!-- 0.4 -->
      <g transform="translate(26.81375 149.994187)scale(0.12 -0.12)">
       <defs>
        <path id="DejaVuSans-34" d="M 2419 4116 
L 825 1625 
L 2419 1625 
L 2419 4116 
z
M 2253 4666 
L 3047 4666 
L 3047 1625 
L 3713 1625 
L 3713 1100 
L 3047 1100 
L 3047 0 
L 2419 0 
L 2419 1100 
L 313 1100 
L 313 1709 
L 2253 4666 
z
" transform="scale(0.015625)"/>
       </defs>
       <use xlink:href="#DejaVuSans-30"/>
       <use xlink:href="#DejaVuSans-2e" x="63.623047"/>
       <use xlink:href="#DejaVuSans-34" x="95.410156"/>
      </g>
     </g>
    </g>
    <g id="ytick_4">
     <g id="line2d_17">
      <g>
       <use xlink:href="#mac3ff2bf7e" x="49.3975" y="100.876437" style="fill: #ffffff; stroke: #000000; stroke-width: 2"/>
      </g>
     </g>
     <g id="line2d_18">
      <g>
       <use xlink:href="#mbb2f1589ad" x="341.28" y="100.876437" style="fill: #ffffff; stroke: #000000; stroke-width: 2"/>
      </g>
     </g>
     <g id="text_10">
      <!-- 0.6 -->
      <g transform="translate(26.81375 105.4355)scale(0.12 -0.12)">
       <defs>
        <path id="DejaVuSans-36" d="M 2113 2584 
Q 1688 2584 1439 2293 
Q 1191 2003 1191 1497 
Q 1191 994 1439 701 
Q 1688 409 2113 409 
Q 2538 409 2786 701 
Q 3034 994 3034 1497 
Q 3034 2003 2786 2293 
Q 2538 2584 2113 2584 
z
M 3366 4563 
L 3366 3988 
Q 3128 4100 2886 4159 
Q 2644 4219 2406 4219 
Q 1781 4219 1451 3797 
Q 1122 3375 1075 2522 
Q 1259 2794 1537 2939 
Q 1816 3084 2150 3084 
Q 2853 3084 3261 2657 
Q 3669 2231 3669 1497 
Q 3669 778 3244 343 
Q 2819 -91 2113 -91 
Q 1303 -91 875 529 
Q 447 1150 447 2328 
Q 447 3434 972 4092 
Q 1497 4750 2381 4750 
Q 2619 4750 2861 4703 
Q 3103 4656 3366 4563 
z
" transform="scale(0.015625)"/>
       </defs>
       <use xlink:href="#DejaVuSans-30"/>
       <use xlink:href="#DejaVuSans-2e" x="63.623047"/>
       <use xlink:href="#DejaVuSans-36" x="95.410156"/>
      </g>
     </g>
    </g>
    <g id="ytick_5">
     <g id="line2d_19">
      <g>
       <use xlink:href="#mac3ff2bf7e" x="49.3975" y="56.31775" style="fill: #ffffff; stroke: #000000; stroke-width: 2"/>
      </g>
     </g>
     <g id="line2d_20">
      <g>
       <use xlink:href="#mbb2f1589ad" x="341.28" y="56.31775" style="fill: #ffffff; stroke: #000000; stroke-width: 2"/>
      </g>
     </g>
     <g id="text_11">
      <!-- 0.8 -->
      <g transform="translate(26.81375 60.876812)scale(0.12 -0.12)">
       <defs>
        <path id="DejaVuSans-38" d="M 2034 2216 
Q 1584 2216 1326 1975 
Q 1069 1734 1069 1313 
Q 1069 891 1326 650 
Q 1584 409 2034 409 
Q 2484 409 2743 651 
Q 3003 894 3003 1313 
Q 3003 1734 2745 1975 
Q 2488 2216 2034 2216 
z
M 1403 2484 
Q 997 2584 770 2862 
Q 544 3141 544 3541 
Q 544 4100 942 4425 
Q 1341 4750 2034 4750 
Q 2731 4750 3128 4425 
Q 3525 4100 3525 3541 
Q 3525 3141 3298 2862 
Q 3072 2584 2669 2484 
Q 3125 2378 3379 2068 
Q 3634 1759 3634 1313 
Q 3634 634 3220 271 
Q 2806 -91 2034 -91 
Q 1263 -91 848 271 
Q 434 634 434 1313 
Q 434 1759 690 2068 
Q 947 2378 1403 2484 
z
M 1172 3481 
Q 1172 3119 1398 2916 
Q 1625 2713 2034 2713 
Q 2441 2713 2670 2916 
Q 2900 3119 2900 3481 
Q 2900 3844 2670 4047 
Q 2441 4250 2034 4250 
Q 1625 4250 1398 4047 
Q 1172 3844 1172 3481 
z
" transform="scale(0.015625)"/>
       </defs>
       <use xlink:href="#DejaVuSans-30"/>
       <use xlink:href="#DejaVuSans-2e" x="63.623047"/>
       <use xlink:href="#DejaVuSans-38" x="95.410156"/>
      </g>
     </g>
    </g>
    <g id="ytick_6">
     <g id="line2d_21">
      <g>
       <use xlink:href="#mac3ff2bf7e" x="49.3975" y="11.759062" style="fill: #ffffff; stroke: #000000; stroke-width: 2"/>
      </g>
     </g>
     <g id="line2d_22">
      <g>
       <use xlink:href="#mbb2f1589ad" x="341.28" y="11.759062" style="fill: #ffffff; stroke: #000000; stroke-width: 2"/>
      </g>
     </g>
     <g id="text_12">
      <!-- 1.0 -->
      <g transform="translate(26.81375 16.318125)scale(0.12 -0.12)">
       <use xlink:href="#DejaVuSans-31"/>
       <use xlink:href="#DejaVuSans-2e" x="63.623047"/>
       <use xlink:href="#DejaVuSans-30" x="95.410156"/>
      </g>
     </g>
    </g>
    <g id="text_13">
     <!-- Porosity of slice -->
     <g transform="translate(16.318125 169.973594)rotate(-90)scale(0.12 -0.12)">
      <defs>
       <path id="DejaVuSans-72" d="M 2631 2963 
Q 2534 3019 2420 3045 
Q 2306 3072 2169 3072 
Q 1681 3072 1420 2755 
Q 1159 2438 1159 1844 
L 1159 0 
L 581 0 
L 581 3500 
L 1159 3500 
L 1159 2956 
Q 1341 3275 1631 3429 
Q 1922 3584 2338 3584 
Q 2397 3584 2469 3576 
Q 2541 3569 2628 3553 
L 2631 2963 
z
" transform="scale(0.015625)"/>
       <path id="DejaVuSans-79" d="M 2059 -325 
Q 1816 -950 1584 -1140 
Q 1353 -1331 966 -1331 
L 506 -1331 
L 506 -850 
L 844 -850 
Q 1081 -850 1212 -737 
Q 1344 -625 1503 -206 
L 1606 56 
L 191 3500 
L 800 3500 
L 1894 763 
L 2988 3500 
L 3597 3500 
L 2059 -325 
z
" transform="scale(0.015625)"/>
      </defs>
      <use xlink:href="#DejaVuSans-50"/>
      <use xlink:href="#DejaVuSans-6f" x="56.677734"/>
      <use xlink:href="#DejaVuSans-72" x="117.859375"/>
      <use xlink:href="#DejaVuSans-6f" x="156.722656"/>
      <use xlink:href="#DejaVuSans-73" x="217.904297"/>
      <use xlink:href="#DejaVuSans-69" x="270.003906"/>
      <use xlink:href="#DejaVuSans-74" x="297.787109"/>
      <use xlink:href="#DejaVuSans-79" x="336.996094"/>
      <use xlink:href="#DejaVuSans-20" x="396.175781"/>
      <use xlink:href="#DejaVuSans-6f" x="427.962891"/>
      <use xlink:href="#DejaVuSans-66" x="489.144531"/>
      <use xlink:href="#DejaVuSans-20" x="524.349609"/>
      <use xlink:href="#DejaVuSans-73" x="556.136719"/>
      <use xlink:href="#DejaVuSans-6c" x="608.236328"/>
      <use xlink:href="#DejaVuSans-69" x="636.019531"/>
      <use xlink:href="#DejaVuSans-63" x="663.802734"/>
      <use xlink:href="#DejaVuSans-65" x="718.783203"/>
     </g>
    </g>
   </g>
   <g id="line2d_23">
    <path d="M 62.664886 112.827449 
L 63.331589 113.074378 
L 63.998292 113.46241 
L 64.664995 114.093658 
L 65.998401 115.818451 
L 66.665103 116.793172 
L 67.331806 118.183774 
L 69.998618 126.276746 
L 70.66532 128.372861 
L 73.332132 138.328014 
L 74.665537 141.603078 
L 75.998943 144.087225 
L 76.665646 144.913417 
L 77.332349 144.848436 
L 77.999052 145.071229 
L 78.665754 145.514959 
L 79.332457 145.49268 
L 80.665863 144.118787 
L 81.999269 142.919416 
L 84.66608 138.784741 
L 87.332891 133.155493 
L 89.999702 126.271176 
L 91.333108 124.09337 
L 91.999811 123.820448 
L 93.333217 123.996826 
L 94.666622 124.748754 
L 95.333325 124.732045 
L 96.000028 125.004967 
L 98.000136 127.459408 
L 99.333542 128.668062 
L 101.333651 128.742327 
L 102.000353 128.465692 
L 103.333759 126.94884 
L 104.000462 125.630645 
L 105.333868 122.312879 
L 108.000679 118.21905 
L 109.334085 115.881576 
L 110.66749 113.974835 
L 111.334193 113.722336 
L 112.000896 113.280462 
L 112.667599 113.306455 
L 113.334302 113.722336 
L 114.001004 113.887574 
L 117.334519 115.560382 
L 118.667924 114.955126 
L 119.334627 114.420422 
L 120.668033 113.027963 
L 121.334736 111.947415 
L 122.001438 111.160211 
L 122.668141 111.011682 
L 123.334844 111.07295 
L 124.66825 111.921422 
L 125.334953 112.619508 
L 126.668358 114.914281 
L 130.668575 124.754324 
L 131.335278 125.968548 
L 132.001981 126.883858 
L 132.668684 128.059093 
L 133.335387 128.820304 
L 134.002089 129.269604 
L 136.002198 131.57366 
L 136.668901 132.1325 
L 137.335604 132.901138 
L 138.002306 133.424702 
L 139.335712 133.263177 
L 140.669118 131.930129 
L 142.002523 130.277745 
L 143.335929 129.999253 
L 144.002632 130.320447 
L 144.669335 130.429987 
L 145.336038 130.727045 
L 146.669443 130.585942 
L 147.336146 130.467119 
L 148.002849 129.355009 
L 148.669552 128.593798 
L 150.002957 127.747183 
L 151.336363 126.310165 
L 152.669769 125.638071 
L 153.336472 125.001254 
L 154.003174 124.167635 
L 154.669877 124.069234 
L 155.33658 124.395998 
L 156.003283 124.90471 
L 156.669986 125.623219 
L 158.003391 126.37329 
L 159.336797 126.402996 
L 160.0035 125.90171 
L 161.336906 124.518534 
L 162.003608 123.887286 
L 164.003717 122.927418 
L 164.67042 122.804882 
L 165.337123 122.918135 
L 166.003825 122.827161 
L 166.670528 121.989829 
L 167.337231 120.764465 
L 168.670637 119.121363 
L 170.670745 117.949841 
L 171.337448 118.012966 
L 172.004151 118.400998 
L 172.670854 118.918993 
L 173.337557 119.843585 
L 174.670962 121.033674 
L 176.004368 120.887001 
L 176.671071 120.452554 
L 178.004476 118.647927 
L 178.671179 117.912709 
L 179.337882 117.624934 
L 180.671288 117.344586 
L 181.337991 116.696628 
L 182.004693 116.271464 
L 183.338099 115.890859 
L 184.004802 115.963266 
L 184.671505 116.828448 
L 185.338208 117.476405 
L 186.00491 118.319307 
L 186.671613 118.362009 
L 188.005019 118.243186 
L 189.338425 119.11208 
L 190.005127 119.420278 
L 190.67183 119.33673 
L 192.671939 120.738472 
L 195.33875 121.663065 
L 195.33875 121.663065 
" clip-path="url(#p37e99bde2e)" style="fill: none; stroke: #0000ff; stroke-opacity: 0.5; stroke-width: 2; stroke-linecap: square"/>
   </g>
   <g id="line2d_24">
    <path d="M 62.664886 122.941343 
L 64.66165 123.091728 
L 65.992826 123.166921 
L 66.658414 123.384145 
L 68.655178 123.434273 
L 69.320766 123.935558 
L 69.986354 124.280888 
L 71.31753 123.932773 
L 71.983118 124.37836 
L 73.314293 125.904495 
L 73.979881 125.90728 
L 74.645469 125.770819 
L 75.311057 125.353082 
L 75.976645 124.690271 
L 76.642233 124.481402 
L 77.973409 124.823947 
L 79.304585 124.22519 
L 79.970173 123.737829 
L 80.635761 123.389714 
L 81.301349 122.309166 
L 81.966937 120.969621 
L 83.298113 118.972834 
L 83.963701 118.983974 
L 85.294876 118.159638 
L 85.960464 118.037102 
L 87.29164 119.240187 
L 87.957228 119.877933 
L 88.622816 120.716193 
L 89.288404 121.069878 
L 89.953992 120.933417 
L 91.950756 119.889072 
L 92.616344 119.351583 
L 93.281932 118.323949 
L 93.94752 117.892286 
L 94.613108 117.624934 
L 95.278696 117.499613 
L 95.944284 117.521892 
L 97.275459 117.25454 
L 97.941047 117.346442 
L 98.606635 117.733546 
L 101.934575 121.883074 
L 105.262515 124.133287 
L 105.928103 124.197341 
L 106.593691 123.793527 
L 107.259279 123.893785 
L 107.924867 124.197341 
L 109.256042 126.113364 
L 110.587218 127.046312 
L 111.918394 127.592156 
L 112.583982 127.589371 
L 113.915158 126.882001 
L 114.580746 126.235901 
L 115.246334 124.915849 
L 115.911922 123.938343 
L 117.243098 122.621077 
L 117.908686 122.451197 
L 118.574274 122.417778 
L 119.239862 121.197984 
L 120.571038 117.736331 
L 121.236625 116.115509 
L 121.902213 115.358011 
L 122.567801 114.842801 
L 124.564565 114.249614 
L 125.895741 114.249614 
L 126.561329 114.283033 
L 127.226917 114.461267 
L 128.558093 115.759039 
L 129.223681 117.148713 
L 129.889269 118.265465 
L 131.220445 121.209124 
L 131.886033 123.086158 
L 133.217208 124.754324 
L 133.882796 126.035386 
L 134.548384 126.904281 
L 135.213972 127.319234 
L 136.545148 126.898711 
L 137.210736 126.336158 
L 138.541912 124.456338 
L 142.53544 120.922277 
L 143.201028 120.563023 
L 143.866616 120.64657 
L 144.532204 121.097727 
L 145.197792 122.130931 
L 145.863379 122.824376 
L 147.860143 123.929988 
L 148.525731 124.498112 
L 149.191319 124.205695 
L 149.856907 124.04974 
L 150.522495 124.200125 
L 151.188083 124.993827 
L 152.519259 127.241256 
L 153.184847 127.561521 
L 153.850435 127.419491 
L 154.516023 126.675918 
L 155.181611 126.297169 
L 155.847199 126.132859 
L 156.512787 126.344512 
L 157.178375 126.141213 
L 157.843962 125.06902 
L 160.506314 117.856082 
L 161.83749 115.686631 
L 162.503078 115.193701 
L 163.168666 114.380505 
L 163.834254 114.085303 
L 164.499842 114.664566 
L 165.831018 117.452269 
L 166.496606 118.892072 
L 167.162194 120.621506 
L 167.827782 121.754968 
L 169.158958 122.983116 
L 169.824545 122.952482 
L 170.490133 122.751968 
L 171.155721 122.668421 
L 172.486897 122.880074 
L 173.152485 123.450983 
L 175.149249 126.274889 
L 176.480425 127.739756 
L 177.146013 128.021033 
L 177.811601 128.628145 
L 178.477189 128.756251 
L 179.142777 129.121076 
L 179.808365 129.65578 
L 183.136304 131.290527 
L 185.133068 131.914348 
L 185.798656 132.454622 
L 186.464244 133.239969 
L 187.79542 135.286884 
L 188.461008 136.476044 
L 189.126596 137.95762 
L 189.792184 138.790311 
L 190.457772 138.937911 
L 191.12336 138.887783 
L 191.788948 139.010319 
L 192.454536 138.879428 
L 193.120124 139.341724 
L 193.785711 139.219188 
L 194.451299 138.64828 
L 195.782475 136.726687 
L 197.779239 133.757964 
L 199.110415 131.808521 
L 201.107179 127.530887 
L 202.438355 126.146783 
L 203.103943 125.659423 
L 203.769531 125.439414 
L 204.435119 125.339157 
L 205.766294 125.634358 
L 206.431882 125.428274 
L 207.09747 124.748754 
L 208.428646 123.654282 
L 209.094234 122.896784 
L 209.759822 122.632217 
L 210.42541 123.230974 
L 211.756586 124.913064 
L 213.087762 126.26932 
L 214.418938 127.221761 
L 215.750114 127.990399 
L 216.415702 127.959765 
L 217.08129 127.154923 
L 217.746877 126.790099 
L 219.078053 126.453124 
L 219.743641 126.689842 
L 220.409229 127.625575 
L 221.074817 127.859508 
L 221.740405 127.767605 
L 222.405993 127.018462 
L 223.071581 125.570305 
L 223.737169 123.267178 
L 224.402757 121.913708 
L 227.065109 117.783674 
L 227.730697 117.034532 
L 228.396285 117.123649 
L 229.061873 117.739116 
L 229.72746 117.783674 
L 231.058636 118.7946 
L 231.724224 119.613366 
L 232.389812 120.237187 
L 233.0554 121.072663 
L 235.052164 124.305952 
L 236.38334 126.845798 
L 237.714516 129.065377 
L 238.380104 129.229687 
L 239.045692 129.135 
L 239.71128 128.747897 
L 240.376868 128.747897 
L 241.042456 128.912207 
L 241.708043 129.290956 
L 242.373631 129.516534 
L 243.039219 129.332729 
L 243.704807 130.123646 
L 244.370395 131.176345 
L 245.035983 131.917133 
L 245.701571 132.131572 
L 246.367159 132.605008 
L 247.032747 132.488041 
L 247.698335 131.340655 
L 248.363923 130.599867 
L 249.029511 129.577802 
L 249.695099 129.051453 
L 250.360687 128.742327 
L 251.026275 127.569876 
L 251.691863 126.141213 
L 252.357451 125.191556 
L 253.023039 123.72112 
L 254.354214 121.649141 
L 255.68539 120.067307 
L 256.350978 119.460195 
L 257.016566 119.652354 
L 257.682154 120.103511 
L 258.347742 120.337444 
L 259.01333 120.32909 
L 259.678918 120.48226 
L 260.344506 120.510109 
L 261.010094 120.769107 
L 261.675682 120.710623 
L 261.675682 120.710623 
" clip-path="url(#p37e99bde2e)" style="fill: none; stroke: #ff0000; stroke-opacity: 0.5; stroke-width: 2; stroke-linecap: square"/>
   </g>
   <g id="line2d_25">
    <path d="M 62.664886 106.286605 
L 63.329918 106.561383 
L 65.990046 109.119795 
L 67.985142 113.338017 
L 69.315205 119.999541 
L 71.310301 126.141213 
L 71.975333 127.470547 
L 74.635461 131.711049 
L 75.300492 131.588513 
L 76.630556 130.158922 
L 77.295588 129.264035 
L 78.625652 126.887571 
L 79.290684 124.897283 
L 79.955716 123.761037 
L 80.620748 122.034388 
L 81.28578 119.854725 
L 81.950811 118.451126 
L 82.615843 117.704768 
L 83.945907 117.41885 
L 84.610939 118.629361 
L 85.275971 119.568807 
L 85.941003 120.25204 
L 86.606035 119.657924 
L 87.271067 118.165208 
L 87.936098 116.323449 
L 89.266162 113.661068 
L 90.596226 111.53339 
L 91.261258 110.946701 
L 91.92629 111.024679 
L 93.256354 112.257469 
L 95.251449 115.577091 
L 97.246545 117.593372 
L 97.911577 117.701055 
L 98.576609 117.355725 
L 99.241641 117.478262 
L 99.906673 117.452269 
L 100.571705 117.0958 
L 101.236736 116.353155 
L 101.901768 116.442272 
L 102.5668 116.345729 
L 103.896864 116.668779 
L 104.561896 116.505397 
L 105.226928 116.639073 
L 105.89196 117.151498 
L 107.222024 119.969835 
L 108.552087 123.968977 
L 109.217119 125.038386 
L 109.882151 125.810736 
L 111.212215 126.605366 
L 111.877247 127.596797 
L 112.542279 129.033815 
L 113.872343 130.715905 
L 114.537374 131.800167 
L 115.202406 133.318875 
L 115.867438 133.994682 
L 116.53247 133.742183 
L 117.862534 132.550238 
L 119.192598 131.157779 
L 119.85763 131.532814 
L 120.522661 131.777887 
L 121.187693 131.187485 
L 121.852725 129.605651 
L 123.182789 127.72676 
L 123.847821 127.128931 
L 124.512853 127.091799 
L 125.177885 126.757608 
L 126.507949 125.25004 
L 127.17298 125.472833 
L 129.168076 128.332015 
L 129.833108 128.937271 
L 130.49814 129.044954 
L 131.163172 128.502824 
L 131.828204 128.146354 
L 132.493236 128.157494 
L 133.823299 126.467977 
L 134.488331 125.821876 
L 136.483427 125.350297 
L 137.148459 125.302025 
L 137.813491 124.607652 
L 138.478523 123.735044 
L 139.143555 123.386001 
L 139.808587 123.538243 
L 140.473618 123.30431 
L 141.13865 122.925561 
L 141.803682 122.026961 
L 142.468714 121.778175 
L 143.798778 121.729903 
L 144.46381 121.217478 
L 145.128842 120.437701 
L 147.123937 118.718479 
L 147.788969 118.885574 
L 148.454001 119.880718 
L 150.449097 125.602796 
L 151.114129 127.002681 
L 152.444193 128.124075 
L 153.109224 128.398853 
L 154.439288 129.795026 
L 155.10432 130.567376 
L 157.099416 133.389426 
L 158.42948 134.722474 
L 159.094512 135.368575 
L 161.089607 137.819303 
L 161.754639 138.365147 
L 162.419671 138.457977 
L 163.084703 139.15235 
L 163.749735 140.125215 
L 164.414767 140.18834 
L 165.079799 140.106649 
L 165.744831 140.322016 
L 166.409862 140.75275 
L 167.074894 141.473115 
L 167.739926 141.528813 
L 168.404958 141.851864 
L 169.06999 141.112932 
L 169.735022 140.140068 
L 170.400054 138.402279 
L 172.39515 134.618504 
L 173.060181 133.927844 
L 173.725213 133.032957 
L 175.055277 132.839869 
L 175.720309 132.412849 
L 176.385341 131.621932 
L 178.380437 129.969547 
L 179.045469 129.917562 
L 180.375532 128.781316 
L 181.040564 127.901281 
L 182.370628 124.273462 
L 183.03566 122.587658 
L 183.700692 120.285459 
L 185.030756 114.489117 
L 185.695787 112.175778 
L 186.360819 110.697915 
L 187.025851 109.803028 
L 187.690883 109.353728 
L 188.355915 109.446558 
L 189.020947 108.911854 
L 189.685979 109.472551 
L 190.351011 110.189203 
L 191.016043 111.206627 
L 192.346106 114.1475 
L 193.011138 116.282604 
L 195.006234 120.181489 
L 196.336298 124.31802 
L 197.666362 128.265177 
L 198.331394 129.234329 
L 198.996425 129.843298 
L 199.661457 130.162635 
L 200.326489 130.314877 
L 200.991521 130.255465 
L 201.656553 129.839584 
L 202.321585 129.134072 
L 202.986617 129.275174 
L 203.651649 128.859293 
L 204.316681 127.723047 
L 204.981713 126.984115 
L 206.976808 128.97069 
L 208.971904 131.881858 
L 210.301968 135.940411 
L 210.967 137.960405 
L 211.632031 139.200622 
L 212.297063 139.557091 
L 212.962095 139.653635 
L 213.627127 139.389996 
L 214.292159 138.502536 
L 214.957191 138.01239 
L 215.622223 137.693053 
L 216.952287 136.033242 
L 217.617319 135.138355 
L 218.28235 133.757036 
L 218.947382 131.800167 
L 219.612414 130.381715 
L 220.942478 129.18977 
L 221.60751 128.28003 
L 222.272542 127.971833 
L 222.937574 128.599368 
L 223.602606 128.287457 
L 224.267638 128.257751 
L 224.932669 127.808451 
L 225.597701 127.177203 
L 226.927765 126.594227 
L 227.592797 126.972975 
L 228.257829 127.693341 
L 230.252925 132.394282 
L 230.917957 133.549095 
L 231.582988 135.613648 
L 232.913052 138.227757 
L 233.578084 138.747609 
L 234.243116 138.302022 
L 235.57318 137.050665 
L 236.238212 135.810448 
L 237.568276 134.30288 
L 238.898339 131.57366 
L 240.228403 129.575945 
L 240.893435 128.837014 
L 242.223499 128.346868 
L 242.888531 128.595654 
L 243.553563 128.034958 
L 244.218594 127.645069 
L 244.883626 126.924704 
L 245.548658 125.673347 
L 246.21369 123.508538 
L 246.878722 120.619649 
L 247.543754 118.859581 
L 248.208786 117.55624 
L 249.53885 114.288602 
L 250.203882 111.09523 
L 251.533945 105.907856 
L 252.864009 100.479123 
L 253.529041 98.314313 
L 254.194073 96.60623 
L 254.859105 95.421712 
L 255.524137 93.546533 
L 256.854201 91.697348 
L 257.519232 91.300033 
L 258.184264 91.292606 
L 258.849296 91.481981 
L 259.514328 92.295177 
L 260.17936 93.995834 
L 262.174456 100.635078 
L 262.839488 102.105515 
L 263.50452 102.536249 
L 265.499615 102.978122 
L 266.164647 103.17121 
L 267.494711 105.714768 
L 268.159743 106.334877 
L 268.824775 107.22605 
L 270.81987 112.591659 
L 271.484902 114.232904 
L 272.149934 116.494257 
L 273.479998 122.387144 
L 274.14503 124.544527 
L 275.475094 127.218048 
L 276.140126 127.775032 
L 276.805157 128.098082 
L 278.135221 130.047525 
L 280.795349 132.004394 
L 282.125413 132.219761 
L 282.790445 131.874431 
L 283.455476 131.336014 
L 284.120508 131.165205 
L 284.78554 131.517962 
L 286.115604 131.874431 
L 286.780636 131.90785 
L 287.445668 131.436271 
L 288.1107 131.46969 
L 288.775732 132.167776 
L 289.440764 133.170346 
L 290.105795 133.426559 
L 292.100891 133.003251 
L 292.765923 132.732186 
L 293.430955 132.683914 
L 294.095987 132.167776 
L 295.426051 130.374289 
L 296.091083 129.423703 
L 296.756114 128.814735 
L 297.421146 128.443412 
L 298.086178 128.506537 
L 298.75121 128.777602 
L 300.081274 128.755323 
L 300.746306 129.015249 
L 302.07637 128.814735 
L 302.741402 128.06095 
L 303.406433 126.917277 
L 304.071465 125.465407 
L 304.736497 123.222619 
L 305.401529 121.670492 
L 308.726689 116.401427 
L 310.056752 114.192059 
L 310.721784 113.323164 
L 311.386816 112.669637 
L 312.051848 112.836732 
L 312.71688 113.141216 
L 313.381912 113.661068 
L 314.046944 114.645072 
L 314.711976 116.241758 
L 315.377008 118.32859 
L 317.372103 125.44684 
L 318.702167 129.531387 
L 320.032231 132.706193 
L 320.697263 133.675345 
L 321.362295 134.429129 
L 322.027327 134.106079 
L 322.692358 133.341155 
L 324.022422 134.722474 
L 324.687454 134.707621 
L 325.352486 134.804165 
L 328.012614 134.733614 
L 328.012614 134.733614 
" clip-path="url(#p37e99bde2e)" style="fill: none; stroke: #008000; stroke-opacity: 0.5; stroke-width: 2; stroke-linecap: square"/>
   </g>
   <g id="patch_3">
    <path d="M 49.3975 234.5525 
L 49.3975 11.759062 
" style="fill: none; stroke: #000000; stroke-width: 2; stroke-linejoin: miter; stroke-linecap: square"/>
   </g>
   <g id="patch_4">
    <path d="M 341.28 234.5525 
L 341.28 11.759062 
" style="fill: none; stroke: #000000; stroke-width: 2; stroke-linejoin: miter; stroke-linecap: square"/>
   </g>
   <g id="patch_5">
    <path d="M 49.3975 234.5525 
L 341.28 234.5525 
" style="fill: none; stroke: #000000; stroke-width: 2; stroke-linejoin: miter; stroke-linecap: square"/>
   </g>
   <g id="patch_6">
    <path d="M 49.3975 11.759062 
L 341.28 11.759062 
" style="fill: none; stroke: #000000; stroke-width: 2; stroke-linejoin: miter; stroke-linecap: square"/>
   </g>
   <g id="legend_1">
    <g id="line2d_26">
     <path d="M 245.26125 27.477188 
L 257.26125 27.477188 
L 269.26125 27.477188 
" style="fill: none; stroke: #0000ff; stroke-opacity: 0.5; stroke-width: 2; stroke-linecap: square"/>
    </g>
    <g id="text_14">
     <!-- yz-plane -->
     <g transform="translate(278.86125 31.677188)scale(0.12 -0.12)">
      <defs>
       <path id="DejaVuSans-7a" d="M 353 3500 
L 3084 3500 
L 3084 2975 
L 922 459 
L 3084 459 
L 3084 0 
L 275 0 
L 275 525 
L 2438 3041 
L 353 3041 
L 353 3500 
z
" transform="scale(0.015625)"/>
       <path id="DejaVuSans-2d" d="M 313 2009 
L 1997 2009 
L 1997 1497 
L 313 1497 
L 313 2009 
z
" transform="scale(0.015625)"/>
       <path id="DejaVuSans-70" d="M 1159 525 
L 1159 -1331 
L 581 -1331 
L 581 3500 
L 1159 3500 
L 1159 2969 
Q 1341 3281 1617 3432 
Q 1894 3584 2278 3584 
Q 2916 3584 3314 3078 
Q 3713 2572 3713 1747 
Q 3713 922 3314 415 
Q 2916 -91 2278 -91 
Q 1894 -91 1617 61 
Q 1341 213 1159 525 
z
M 3116 1747 
Q 3116 2381 2855 2742 
Q 2594 3103 2138 3103 
Q 1681 3103 1420 2742 
Q 1159 2381 1159 1747 
Q 1159 1113 1420 752 
Q 1681 391 2138 391 
Q 2594 391 2855 752 
Q 3116 1113 3116 1747 
z
" transform="scale(0.015625)"/>
      </defs>
      <use xlink:href="#DejaVuSans-79"/>
      <use xlink:href="#DejaVuSans-7a" x="59.179688"/>
      <use xlink:href="#DejaVuSans-2d" x="111.669922"/>
      <use xlink:href="#DejaVuSans-70" x="147.753906"/>
      <use xlink:href="#DejaVuSans-6c" x="211.230469"/>
      <use xlink:href="#DejaVuSans-61" x="239.013672"/>
      <use xlink:href="#DejaVuSans-6e" x="300.292969"/>
      <use xlink:href="#DejaVuSans-65" x="363.671875"/>
     </g>
    </g>
    <g id="line2d_27">
     <path d="M 245.26125 45.090938 
L 257.26125 45.090938 
L 269.26125 45.090938 
" style="fill: none; stroke: #ff0000; stroke-opacity: 0.5; stroke-width: 2; stroke-linecap: square"/>
    </g>
    <g id="text_15">
     <!-- xz-plane -->
     <g transform="translate(278.86125 49.290938)scale(0.12 -0.12)">
      <use xlink:href="#DejaVuSans-78"/>
      <use xlink:href="#DejaVuSans-7a" x="59.179688"/>
      <use xlink:href="#DejaVuSans-2d" x="111.669922"/>
      <use xlink:href="#DejaVuSans-70" x="147.753906"/>
      <use xlink:href="#DejaVuSans-6c" x="211.230469"/>
      <use xlink:href="#DejaVuSans-61" x="239.013672"/>
      <use xlink:href="#DejaVuSans-6e" x="300.292969"/>
      <use xlink:href="#DejaVuSans-65" x="363.671875"/>
     </g>
    </g>
    <g id="line2d_28">
     <path d="M 245.26125 62.704687 
L 257.26125 62.704687 
L 269.26125 62.704687 
" style="fill: none; stroke: #008000; stroke-opacity: 0.5; stroke-width: 2; stroke-linecap: square"/>
    </g>
    <g id="text_16">
     <!-- xy-plane -->
     <g transform="translate(278.86125 66.904687)scale(0.12 -0.12)">
      <use xlink:href="#DejaVuSans-78"/>
      <use xlink:href="#DejaVuSans-79" x="59.179688"/>
      <use xlink:href="#DejaVuSans-2d" x="116.609375"/>
      <use xlink:href="#DejaVuSans-70" x="152.693359"/>
      <use xlink:href="#DejaVuSans-6c" x="216.169922"/>
      <use xlink:href="#DejaVuSans-61" x="243.953125"/>
      <use xlink:href="#DejaVuSans-6e" x="305.232422"/>
      <use xlink:href="#DejaVuSans-65" x="368.611328"/>
     </g>
    </g>
   </g>
  </g>
 </g>
 <defs>
  <clipPath id="p37e99bde2e">
   <rect x="49.3975" y="11.759062" width="291.8825" height="222.793437"/>
  </clipPath>
 </defs>
</svg>
